<?xml version="1.0" ?>
<svg height="600" version="1.1" width="800" xmlns="http://www.w3.org/2000/svg" xmlns:svg="http://www.w3.org/2000/svg">
	<style type="text/css">

.x-axis-path, .y-gridline, .x-notch { fill:none; stroke: #a7a9ac; stroke-width:1; }



.y-gridline { stroke-width: 1; }

.y-axis-path, .y-axis-path2, .x-notch-left, .x-notch-right { display: none;}



.x-axis-label, .data-point-label {font-size: 12px; font-weight:normal; font-family: sans-serif; fill: #58595b; text-anchor:middle;}

.y-axis-label {font-size: 12px; font-family: helvetica; fill: #a7a9ac; text-anchor:end;}



.series-1-line { fill: none; stroke: #10b80c; stroke-width:2; }



.series-2-line { fill: none; stroke: #e90f0a; stroke-width: 2;}
</style>
	<rect fill="white" height="600" width="800" x="0" y="0"/>
	<g id="grid" transform="translate(70, 30)">
		<g class="x-axis" id="x_axis">
			<path class="x-axis-path" d="M 0 525 L 660 525"/>
			<path class="x-notch-left" d="M 0 525, L 0 535"/>
			<path class="x-notch-right" d="M 660 525, L 660 535"/>
		</g>
		<g class="y-axis" id="y_axis">
			<path class="y-axis-path" d="M 0 525 L 0 0"/>
			<path class="y-axis-path-2" d="M 660 525 L 660 0"/>
			<path class="y-gridline" d="M 0 525 L 660 525"/>
			<text class="y-axis-label" x="-5" y="525">-200</text>
			<path class="y-gridline" d="M 0 394 L 660 394"/>
			<text class="y-axis-label" x="-5" y="394"> 0</text>
			<path class="y-gridline" d="M 0 263 L 660 263"/>
			<text class="y-axis-label" x="-5" y="263">200</text>
			<path class="y-gridline" d="M 0 132 L 660 132"/>
			<text class="y-axis-label" x="-5" y="132">400</text>
			<path class="y-gridline" d="M 0 1 L 660 1"/>
			<text class="y-axis-label" x="-5" y="1">600</text>
		</g>
		<g>
			<path class="series-1-line" d="M 40 385.511281695 L 46 411.614540896 L 53 403.620259762 L 60 396.691349675 L 67 371.042132472 L 74 377.263376769 L 81 397.723947338 L 88 368.055032289 L 95 363.305599352 L 102 390.184085994 L 109 391.828012705 L 116 377.948501021 L 123 387.535864474 L 130 355.324037187 L 137 399.759989781 L 144 405.42399213 L 151 394.717170533 L 158 393.84236364 L 165 406.505324852 L 172 398.704472788 L 179 410.107878303 L 186 355.858359805 L 193 346.120194718 L 200 345.003223698 L 207 310.92661929 L 214 331.702267679 L 221 269.606026975 L 228 280.234582839 L 235 245.237679187 L 242 218.038762683 L 249 175.728200139 L 256 154.171972267 L 263 143.755672064 L 270 173.297964113 L 277 179.422116083 L 284 130.960358019 L 291 86.3006900977 L 298 77.5795387897 L 305 135.843780884 L 312 8.36058113698 L 319 35.6992174014 L 326 0.0 L 333 32.3515470472 L 340 148.713267926 L 347 193.318848747 L 354 140.54649365 L 361 257.513435952 L 368 263.516694755 L 375 325.873548388 L 382 368.88069485 L 389 401.862019746 L 396 361.028620602 L 403 370.2041917 L 410 387.662078201 L 417 356.200921931 L 424 405.964863128 L 431 414.026328121 L 438 380.264423742 L 445 405.44776149 L 452 406.074674423 L 459 400.816734596 L 466 399.287971221 L 473 380.710626574 L 480 405.554707869 L 487 396.736842026 L 494 394.820842721 L 501 411.285894077 L 508 398.350860271 L 515 347.467460928 L 522 391.467442534 L 529 389.769428723 L 536 392.59999744 L 543 390.708176769 L 550 396.033300455 L 557 400.559018066 L 564 420.995787793 L 571 437.751360544 L 578 383.428928354 L 585 397.980845321 L 592 394.950739912 L 599 391.315413079 L 606 390.65859168 L 613 398.114835249 L 620 394.116073329"/>
			<path class="series-2-line" d="M 40 397.150120359 L 46 372.514989054 L 53 399.826141012 L 60 408.24773542 L 67 390.223949257 L 74 409.979278195 L 81 381.56623538 L 88 401.321564318 L 95 401.242857828 L 102 403.053107094 L 109 400.140966971 L 116 387.784048074 L 123 398.094598237 L 130 409.349626277 L 137 397.937185257 L 144 394.080567257 L 151 402.502161665 L 158 387.311809135 L 165 396.67788142 L 172 393.765741298 L 179 378.575388768 L 186 402.108629216 L 193 406.752312114 L 200 392.506437461 L 207 399.983553992 L 214 396.126935992 L 221 391.325840114 L 228 386.524744237 L 235 390.223949257 L 242 392.9786764 L 249 395.733403543 L 256 402.266042196 L 263 402.187335706 L 270 393.608328318 L 277 391.640666074 L 284 396.284348971 L 291 397.150120359 L 298 390.460068727 L 305 395.103751624 L 312 387.469222115 L 319 391.168427135 L 326 393.923154278 L 333 389.1220584 L 340 391.876785543 L 347 390.853601176 L 354 404.942062849 L 361 386.918276686 L 368 403.840171991 L 375 396.205642482 L 382 386.682157217 L 389 394.159273747 L 396 387.469222115 L 403 388.334993502 L 410 386.367331257 L 417 391.011014155 L 424 395.654697053 L 431 386.131211788 L 438 381.330115911 L 445 389.751710319 L 452 398.173304726 L 459 403.761465502 L 466 380.070812074 L 473 400.77061889 L 480 388.413699992 L 487 396.8352944 L 494 396.75658791 L 501 402.344748685 L 508 389.987829788 L 515 404.076291461 L 522 386.996983176 L 529 389.751710319 L 536 385.895092319 L 543 382.038474319 L 550 394.237980237 L 557 383.770017094 L 564 395.969523012 L 571 393.05738289 L 578 391.089720645 L 585 400.45579293 L 592 389.987829788 L 599 400.298379951 L 606 387.941461053 L 613 399.196489094 L 620 392.506437461"/>
		</g>
		<text class="x-axis-label" x="40.0" y="540">0</text>
		<path class="x-notch" d="M 74.9397590361 525 L 74.9397590361 530"/>
		<text class="x-axis-label" x="109.879518072" y="540">10</text>
		<path class="x-notch" d="M 144.819277108 525 L 144.819277108 530"/>
		<text class="x-axis-label" x="179.759036145" y="540">20</text>
		<path class="x-notch" d="M 214.698795181 525 L 214.698795181 530"/>
		<text class="x-axis-label" x="249.638554217" y="540">30</text>
		<path class="x-notch" d="M 284.578313253 525 L 284.578313253 530"/>
		<text class="x-axis-label" x="319.518072289" y="540">40</text>
		<path class="x-notch" d="M 354.457831325 525 L 354.457831325 530"/>
		<text class="x-axis-label" x="389.397590361" y="540">50</text>
		<path class="x-notch" d="M 424.337349398 525 L 424.337349398 530"/>
		<text class="x-axis-label" x="459.277108434" y="540">60</text>
		<path class="x-notch" d="M 494.21686747 525 L 494.21686747 530"/>
		<text class="x-axis-label" x="529.156626506" y="540">70</text>
		<path class="x-notch" d="M 564.096385542 525 L 564.096385542 530"/>
		<text class="x-axis-label" x="599.036144578" y="540">80</text>
		<path class="x-notch" d="M 633.975903614 525 L 633.975903614 530"/>
	</g>
</svg>
