<?xml version="1.0" ?>
<svg height="600" version="1.1" width="800" xmlns="http://www.w3.org/2000/svg" xmlns:svg="http://www.w3.org/2000/svg">
	<style type="text/css">

.x-axis-path, .y-gridline, .x-notch { fill:none; stroke: #a7a9ac; stroke-width:1; }



.y-gridline { stroke-width: 1; }

.y-axis-path, .y-axis-path2, .x-notch-left, .x-notch-right { display: none;}



.x-axis-label, .data-point-label {font-size: 12px; font-weight:normal; font-family: sans-serif; fill: #58595b; text-anchor:middle;}

.y-axis-label {font-size: 12px; font-family: helvetica; fill: #a7a9ac; text-anchor:end;}



.series-1-line { fill: none; stroke: #10b80c; stroke-width:2; }



.series-2-line { fill: none; stroke: #e90f0a; stroke-width: 2;}
</style>
	<rect fill="white" height="600" width="800" x="0" y="0"/>
	<g id="grid" transform="translate(70, 30)">
		<g class="x-axis" id="x_axis">
			<path class="x-axis-path" d="M 0 525 L 660 525"/>
			<path class="x-notch-left" d="M 0 525, L 0 535"/>
			<path class="x-notch-right" d="M 660 525, L 660 535"/>
		</g>
		<g class="y-axis" id="y_axis">
			<path class="y-axis-path" d="M 0 525 L 0 0"/>
			<path class="y-axis-path-2" d="M 660 525 L 660 0"/>
			<path class="y-gridline" d="M 0 525 L 660 525"/>
			<text class="y-axis-label" x="-5" y="525">-200</text>
			<path class="y-gridline" d="M 0 394 L 660 394"/>
			<text class="y-axis-label" x="-5" y="394"> 0</text>
			<path class="y-gridline" d="M 0 263 L 660 263"/>
			<text class="y-axis-label" x="-5" y="263">200</text>
			<path class="y-gridline" d="M 0 132 L 660 132"/>
			<text class="y-axis-label" x="-5" y="132">400</text>
			<path class="y-gridline" d="M 0 1 L 660 1"/>
			<text class="y-axis-label" x="-5" y="1">600</text>
		</g>
		<g>
			<path class="series-1-line" d="M 40 427.073699278 L 47 400.937844807 L 55 408.090851802 L 63 380.596268291 L 71 355.644953797 L 79 385.722165398 L 87 404.755355622 L 95 424.328504766 L 103 415.403127545 L 111 403.760563992 L 119 372.0156043 L 127 418.414956107 L 135 392.122304304 L 143 397.080420409 L 151 437.5396806 L 159 366.705173428 L 167 406.781272031 L 175 356.275253509 L 183 358.498519803 L 190 295.624806073 L 198 273.425733121 L 206 245.913757879 L 214 165.237161037 L 222 161.868713842 L 230 176.721094811 L 238 144.767162594 L 246 154.986005793 L 254 132.595352046 L 262 121.231327946 L 270 65.029245545 L 278 53.647829713 L 286 31.9713239494 L 294 0.0 L 302 34.5539520406 L 310 6.83300427228 L 318 19.943494613 L 326 14.3279813326 L 333 89.2606429662 L 341 127.525012268 L 349 124.539726662 L 357 103.473018491 L 365 213.053270629 L 373 181.604513869 L 381 215.461709658 L 389 191.032962352 L 397 260.495924365 L 405 243.696984107 L 413 288.842229009 L 421 307.056649114 L 429 423.482721644 L 437 420.776247237 L 445 432.319036012 L 453 449.801916402 L 461 420.983387315 L 469 453.098692476 L 476 484.830836048 L 484 464.182072929 L 492 467.624662663 L 500 462.165946714 L 508 477.506111408 L 516 460.515590356 L 524 445.2495682 L 532 439.790852251 L 540 422.730492526 L 548 454.340622229 L 556 433.953278578 L 564 436.803734197 L 572 419.58657714 L 580 463.425268199 L 588 398.37405531 L 596 398.07144432 L 604 385.48809678 L 612 396.891479955 L 620 384.534496673"/>
			<path class="series-2-line" d="M 40 393.614127096 L 47 393.623307698 L 55 393.632488299 L 63 393.641668901 L 71 394.330214022 L 79 395.018759144 L 87 396.386668785 L 95 392.999026788 L 103 384.176468633 L 111 401.849126747 L 119 402.537671868 L 127 400.508758911 L 135 398.479845953 L 143 396.450932996 L 151 393.742655519 L 159 398.507387758 L 167 402.592755478 L 175 389.014645686 L 183 389.703190807 L 190 397.864745645 L 198 393.118374609 L 206 395.845013289 L 214 399.251016489 L 222 397.901468051 L 230 389.078909897 L 238 395.881735696 L 246 394.532187258 L 254 393.18263882 L 262 393.871183941 L 270 394.559729063 L 278 397.965732263 L 286 391.181267667 L 294 400.701551545 L 302 391.87899339 L 310 400.719912748 L 318 398.690999791 L 326 403.45573203 L 333 401.426819073 L 341 396.680448036 L 349 388.537254402 L 357 392.622622121 L 365 390.593709164 L 373 398.075899482 L 381 391.970799407 L 389 390.621250969 L 397 394.027254169 L 405 394.71579929 L 413 402.877354128 L 421 399.489712131 L 429 389.308424937 L 437 390.676334578 L 445 394.761702298 L 453 399.526434538 L 461 394.100698982 L 469 394.789244103 L 476 402.271434421 L 484 394.128240787 L 492 390.06123427 L 500 396.864060069 L 508 391.438324513 L 516 395.523692233 L 524 395.532872834 L 532 402.335698633 L 540 390.795682399 L 548 390.804863001 L 556 394.890230721 L 564 403.731150079 L 572 390.153040286 L 580 390.162220888 L 588 393.568224088 L 596 390.859946611 L 604 396.30404337 L 612 395.633859452 L 620 392.246217455"/>
		</g>
		<text class="x-axis-label" x="40.0" y="540">0</text>
		<path class="x-notch" d="M 79.7260273973 525 L 79.7260273973 530"/>
		<text class="x-axis-label" x="119.452054795" y="540">10</text>
		<path class="x-notch" d="M 159.178082192 525 L 159.178082192 530"/>
		<text class="x-axis-label" x="198.904109589" y="540">20</text>
		<path class="x-notch" d="M 238.630136986 525 L 238.630136986 530"/>
		<text class="x-axis-label" x="278.356164384" y="540">30</text>
		<path class="x-notch" d="M 318.082191781 525 L 318.082191781 530"/>
		<text class="x-axis-label" x="357.808219178" y="540">40</text>
		<path class="x-notch" d="M 397.534246575 525 L 397.534246575 530"/>
		<text class="x-axis-label" x="437.260273973" y="540">50</text>
		<path class="x-notch" d="M 476.98630137 525 L 476.98630137 530"/>
		<text class="x-axis-label" x="516.712328767" y="540">60</text>
		<path class="x-notch" d="M 556.438356164 525 L 556.438356164 530"/>
		<text class="x-axis-label" x="596.164383562" y="540">70</text>
		<path class="x-notch" d="M 635.890410959 525 L 635.890410959 530"/>
	</g>
</svg>
