<?xml version="1.0" ?>
<svg height="600" version="1.1" width="800" xmlns="http://www.w3.org/2000/svg" xmlns:svg="http://www.w3.org/2000/svg">
	<style type="text/css">

.x-axis-path, .y-gridline, .x-notch { fill:none; stroke: #a7a9ac; stroke-width:1; }



.y-gridline { stroke-width: 1; }

.y-axis-path, .y-axis-path2, .x-notch-left, .x-notch-right { display: none;}



.x-axis-label, .data-point-label {font-size: 12px; font-weight:normal; font-family: sans-serif; fill: #58595b; text-anchor:middle;}

.y-axis-label {font-size: 12px; font-family: helvetica; fill: #a7a9ac; text-anchor:end;}



.series-1-line { fill: none; stroke: #10b80c; stroke-width:2; }



.series-2-line { fill: none; stroke: #e90f0a; stroke-width: 2;}
</style>
	<rect fill="white" height="600" width="800" x="0" y="0"/>
	<g id="grid" transform="translate(70, 30)">
		<g class="x-axis" id="x_axis">
			<path class="x-axis-path" d="M 0 525 L 660 525"/>
			<path class="x-notch-left" d="M 0 525, L 0 535"/>
			<path class="x-notch-right" d="M 660 525, L 660 535"/>
		</g>
		<g class="y-axis" id="y_axis">
			<path class="y-axis-path" d="M 0 525 L 0 0"/>
			<path class="y-axis-path-2" d="M 660 525 L 660 0"/>
			<path class="y-gridline" d="M 0 525 L 660 525"/>
			<text class="y-axis-label" x="-5" y="525">-200</text>
			<path class="y-gridline" d="M 0 394 L 660 394"/>
			<text class="y-axis-label" x="-5" y="394"> 0</text>
			<path class="y-gridline" d="M 0 263 L 660 263"/>
			<text class="y-axis-label" x="-5" y="263">200</text>
			<path class="y-gridline" d="M 0 132 L 660 132"/>
			<text class="y-axis-label" x="-5" y="132">400</text>
			<path class="y-gridline" d="M 0 1 L 660 1"/>
			<text class="y-axis-label" x="-5" y="1">600</text>
		</g>
		<g>
			<path class="series-1-line" d="M 40 398.532380604 L 46 399.568710355 L 52 375.664377192 L 58 395.612497265 L 64 395.859296251 L 71 395.47219403 L 77 375.515328083 L 83 382.903359124 L 89 396.75094983 L 96 387.798996977 L 102 384.971645689 L 108 402.479516694 L 114 396.996572801 L 121 388.810265121 L 127 374.260126748 L 133 388.849290429 L 139 379.275379165 L 146 361.87837685 L 152 384.52986071 L 158 331.809240798 L 164 315.704113094 L 170 265.567242405 L 177 252.010035538 L 183 222.041001395 L 189 225.768752137 L 195 158.37080943 L 202 130.148222564 L 208 127.009798766 L 214 84.8874770735 L 220 35.898980841 L 227 44.2918861829 L 233 65.7352816078 L 239 0.0 L 245 34.0273700479 L 252 66.4517929754 L 258 67.7034662626 L 264 52.1006824062 L 270 76.6062853103 L 276 132.930668464 L 283 112.62690162 L 289 132.048605648 L 295 146.673784323 L 301 166.14344614 L 308 94.1641350096 L 314 164.890596837 L 320 188.056553946 L 326 168.613974642 L 333 149.709754178 L 339 175.495288898 L 345 178.050779593 L 351 171.850148317 L 358 209.059340408 L 364 212.906705714 L 370 258.034717828 L 376 254.298221211 L 383 243.001748263 L 389 234.097753199 L 395 261.318662686 L 401 243.562816679 L 407 260.48455766 L 414 166.602905504 L 420 158.918941671 L 426 193.412827179 L 432 209.150365316 L 439 276.814619664 L 445 262.360210264 L 451 329.306777228 L 457 314.254295008 L 464 343.054266024 L 470 371.280049812 L 476 387.388374437 L 482 383.161476769 L 489 370.202342721 L 495 402.244036365 L 501 399.213284336 L 507 396.43370423 L 513 394.563269453 L 520 396.891473816 L 526 400.954182658 L 532 395.279780821 L 538 395.62230878 L 545 396.311737634 L 551 392.120668353 L 557 387.893770685 L 563 395.86793175 L 570 399.83491162 L 576 391.170145684 L 582 386.847519044 L 588 393.123190622 L 595 396.647540624 L 601 400.124119443 L 607 395.490420293 L 613 393.033855492 L 620 388.723171647"/>
			<path class="series-2-line" d="M 40 393.656696908 L 46 395.50687737 L 52 394.557965073 L 58 393.609052776 L 64 391.260594099 L 71 396.842898241 L 77 398.693078703 L 83 392.145980887 L 89 396.795254109 L 96 392.114218132 L 102 396.296975894 L 108 393.948517217 L 114 393.93263584 L 121 397.182362682 L 127 392.501326705 L 133 390.619383488 L 139 392.00304849 L 146 394.786259873 L 152 390.571739356 L 158 391.022373438 L 164 392.406038441 L 170 390.057579764 L 177 394.240337526 L 183 393.291425229 L 189 393.742059311 L 195 391.393600634 L 202 390.911203797 L 208 389.02926058 L 214 391.812471962 L 220 392.263106045 L 227 392.713740127 L 233 395.03043605 L 239 388.016822773 L 245 392.199580535 L 252 391.717183698 L 258 396.36645692 L 264 392.151936403 L 270 389.803477726 L 276 390.720627269 L 283 392.104292271 L 289 382.291586235 L 295 393.005560436 L 301 393.922709979 L 308 396.705921361 L 314 388.759277165 L 320 395.274612227 L 326 389.66054533 L 333 391.044210332 L 339 389.162267115 L 345 390.545932118 L 351 393.3291435 L 358 392.380231203 L 364 392.364349825 L 370 393.281499368 L 376 393.73213345 L 383 390.917159313 L 389 396.965978915 L 395 389.485850179 L 401 393.668607941 L 407 391.786664724 L 414 390.837752427 L 420 388.489293749 L 426 392.672051512 L 432 393.589201054 L 439 390.307711457 L 445 388.8922837 L 451 388.409886863 L 457 389.327036405 L 464 390.244185948 L 470 389.76178911 L 476 387.413330433 L 482 391.596088196 L 489 393.446268658 L 495 398.09554188 L 501 397.613145043 L 507 394.331655446 L 513 394.782289528 L 520 395.232923611 L 526 398.016134993 L 532 391.469037177 L 538 392.386186719 L 545 393.769851722 L 551 392.354423964 L 557 396.537181727 L 563 389.52356845 L 570 389.041171613 L 576 394.156960295 L 582 395.074109837 L 588 398.32383668 L 595 394.109316163 L 601 397.359043005 L 607 392.211491568 L 613 393.128641111 L 620 392.179728814"/>
		</g>
		<text class="x-axis-label" x="40.0" y="540">0</text>
		<path class="x-notch" d="M 71.1827956989 525 L 71.1827956989 530"/>
		<text class="x-axis-label" x="102.365591398" y="540">10</text>
		<path class="x-notch" d="M 133.548387097 525 L 133.548387097 530"/>
		<text class="x-axis-label" x="164.731182796" y="540">20</text>
		<path class="x-notch" d="M 195.913978495 525 L 195.913978495 530"/>
		<text class="x-axis-label" x="227.096774194" y="540">30</text>
		<path class="x-notch" d="M 258.279569892 525 L 258.279569892 530"/>
		<text class="x-axis-label" x="289.462365591" y="540">40</text>
		<path class="x-notch" d="M 320.64516129 525 L 320.64516129 530"/>
		<text class="x-axis-label" x="351.827956989" y="540">50</text>
		<path class="x-notch" d="M 383.010752688 525 L 383.010752688 530"/>
		<text class="x-axis-label" x="414.193548387" y="540">60</text>
		<path class="x-notch" d="M 445.376344086 525 L 445.376344086 530"/>
		<text class="x-axis-label" x="476.559139785" y="540">70</text>
		<path class="x-notch" d="M 507.741935484 525 L 507.741935484 530"/>
		<text class="x-axis-label" x="538.924731183" y="540">80</text>
		<path class="x-notch" d="M 570.107526882 525 L 570.107526882 530"/>
		<text class="x-axis-label" x="601.290322581" y="540">90</text>
		<path class="x-notch" d="M 632.47311828 525 L 632.47311828 530"/>
	</g>
</svg>
