<?xml version="1.0" ?>
<svg height="600" version="1.1" width="800" xmlns="http://www.w3.org/2000/svg" xmlns:svg="http://www.w3.org/2000/svg">
	<style type="text/css">

.x-axis-path, .y-gridline, .x-notch { fill:none; stroke: #a7a9ac; stroke-width:1; }



.y-gridline { stroke-width: 1; }

.y-axis-path, .y-axis-path2, .x-notch-left, .x-notch-right { display: none;}



.x-axis-label, .data-point-label {font-size: 12px; font-weight:normal; font-family: sans-serif; fill: #58595b; text-anchor:middle;}

.y-axis-label {font-size: 12px; font-family: helvetica; fill: #a7a9ac; text-anchor:end;}



.series-1-line { fill: none; stroke: #10b80c; stroke-width:2; }



.series-2-line { fill: none; stroke: #e90f0a; stroke-width: 2;}
</style>
	<rect fill="white" height="600" width="800" x="0" y="0"/>
	<g id="grid" transform="translate(70, 30)">
		<g class="x-axis" id="x_axis">
			<path class="x-axis-path" d="M 0 525 L 660 525"/>
			<path class="x-notch-left" d="M 0 525, L 0 535"/>
			<path class="x-notch-right" d="M 660 525, L 660 535"/>
		</g>
		<g class="y-axis" id="y_axis">
			<path class="y-axis-path" d="M 0 525 L 0 0"/>
			<path class="y-axis-path-2" d="M 660 525 L 660 0"/>
			<path class="y-gridline" d="M 0 525 L 660 525"/>
			<text class="y-axis-label" x="-5" y="525">-200</text>
			<path class="y-gridline" d="M 0 394 L 660 394"/>
			<text class="y-axis-label" x="-5" y="394"> 0</text>
			<path class="y-gridline" d="M 0 263 L 660 263"/>
			<text class="y-axis-label" x="-5" y="263">200</text>
			<path class="y-gridline" d="M 0 132 L 660 132"/>
			<text class="y-axis-label" x="-5" y="132">400</text>
			<path class="y-gridline" d="M 0 1 L 660 1"/>
			<text class="y-axis-label" x="-5" y="1">600</text>
		</g>
		<g>
			<path class="series-1-line" d="M 40 407.269469716 L 48 383.577716835 L 57 394.607511063 L 65 382.343337133 L 74 395.218876999 L 83 422.379061963 L 91 370.514319396 L 100 442.328932987 L 109 403.166376035 L 117 369.585622662 L 126 411.381500929 L 135 355.561295294 L 143 397.357173561 L 152 401.047180625 L 161 378.234419537 L 169 364.079933303 L 178 329.005168138 L 187 395.369621227 L 195 336.516825341 L 204 349.216841104 L 213 238.897087374 L 221 180.175934565 L 230 183.778179577 L 239 122.81566626 L 247 156.08491275 L 256 140.875910621 L 265 65.2777039997 L 273 4.00733786212 L 282 75.0307217114 L 291 95.8617543808 L 299 170.489553094 L 308 0.0 L 317 173.298398513 L 325 228.543125471 L 334 139.232098365 L 342 255.701140583 L 351 174.125515512 L 360 203.087565088 L 368 259.914751531 L 377 356.254058918 L 386 382.710776191 L 394 433.077167262 L 403 419.62614872 L 412 400.197711727 L 420 384.241360882 L 429 407.62160688 L 438 410.388741124 L 446 401.728296418 L 455 420.801345501 L 464 422.952774106 L 472 391.393976113 L 481 397.017490865 L 490 436.528127599 L 498 388.487205024 L 507 405.098802831 L 516 393.713620694 L 524 425.268764624 L 533 400.654138924 L 542 373.578061948 L 550 397.046069996 L 559 403.197528337 L 568 412.600982055 L 576 387.195126614 L 585 408.861270051 L 594 378.708721798 L 602 412.68143598 L 611 394.131990781 L 620 382.966213772"/>
			<path class="series-2-line" d="M 40 397.178205121 L 48 393.528174963 L 57 388.164042244 L 65 406.797345373 L 74 380.863981927 L 83 399.497285056 L 91 378.706229292 L 100 383.626711936 L 109 386.83309202 L 117 388.325369543 L 126 396.674057309 L 135 391.30992459 L 143 399.658612356 L 152 402.86499244 L 161 395.78675716 L 169 374.995701396 L 178 409.055927571 L 187 395.121282048 L 195 394.899457011 L 204 396.391734535 L 213 403.02631974 L 221 382.235263975 L 230 399.154464544 L 239 393.790331825 L 247 395.282609348 L 256 405.345399675 L 265 410.265882319 L 273 386.046621433 L 282 380.682488714 L 291 383.888868798 L 299 417.949094973 L 308 385.159321284 L 317 402.078521853 L 325 384.71567121 L 334 389.636153855 L 342 380.843816014 L 351 382.336093538 L 360 387.256576182 L 368 390.462956266 L 377 379.956515865 L 386 374.592383146 L 394 382.941070912 L 403 386.147450996 L 412 385.925625959 L 420 378.847390679 L 429 385.481975884 L 438 398.972971332 L 446 390.180633491 L 455 400.243423818 L 464 376.024162932 L 472 396.371568622 L 481 365.295897494 L 490 395.927918548 L 498 380.279170465 L 507 373.200935185 L 516 388.406033193 L 524 389.898310717 L 533 396.532895922 L 542 386.026455521 L 550 378.948220241 L 559 399.295625931 L 568 380.218672727 L 576 376.568642569 L 585 383.203227774 L 594 384.695505297 L 602 410.185218669 L 611 406.535188511 L 620 387.458235307"/>
		</g>
		<text class="x-axis-label" x="40.0" y="540">0</text>
		<path class="x-notch" d="M 83.2835820896 525 L 83.2835820896 530"/>
		<text class="x-axis-label" x="126.567164179" y="540">10</text>
		<path class="x-notch" d="M 169.850746269 525 L 169.850746269 530"/>
		<text class="x-axis-label" x="213.134328358" y="540">20</text>
		<path class="x-notch" d="M 256.417910448 525 L 256.417910448 530"/>
		<text class="x-axis-label" x="299.701492537" y="540">30</text>
		<path class="x-notch" d="M 342.985074627 525 L 342.985074627 530"/>
		<text class="x-axis-label" x="386.268656716" y="540">40</text>
		<path class="x-notch" d="M 429.552238806 525 L 429.552238806 530"/>
		<text class="x-axis-label" x="472.835820896" y="540">50</text>
		<path class="x-notch" d="M 516.119402985 525 L 516.119402985 530"/>
		<text class="x-axis-label" x="559.402985075" y="540">60</text>
		<path class="x-notch" d="M 602.686567164 525 L 602.686567164 530"/>
	</g>
</svg>
