<?xml version="1.0" ?>
<svg height="600" version="1.1" width="800" xmlns="http://www.w3.org/2000/svg" xmlns:svg="http://www.w3.org/2000/svg">
	<style type="text/css">
		

.x-axis-path, .y-gridline, .x-notch { fill:none; stroke: #a7a9ac; stroke-width:1; }



.y-gridline { stroke-width: 1; }

.y-axis-path, .y-axis-path2, .x-notch-left, .x-notch-right { display: none;}



.x-axis-label, .data-point-label {font-size: 12px; font-weight:normal; font-family: sans-serif; fill: #58595b; text-anchor:middle;}

.y-axis-label {font-size: 12px; font-family: helvetica; fill: #a7a9ac; text-anchor:end;}



.series-1-line { fill: none; stroke: #10b80c; stroke-width:2; }



.series-2-line { fill: none; stroke: #e90f0a; stroke-width: 2;}

	</style>
	<rect fill="white" height="600" width="800" x="0" y="0"/>
	<g id="grid" transform="translate(70, 30)">
		<g class="x-axis" id="x_axis">
			<path class="x-axis-path" d="M 0 525 L 660 525"/>
			<path class="x-notch-left" d="M 0 525, L 0 535"/>
			<path class="x-notch-right" d="M 660 525, L 660 535"/>
		</g>
		<g class="y-axis" id="y_axis">
			<path class="y-axis-path" d="M 0 525 L 0 0"/>
			<path class="y-axis-path-2" d="M 660 525 L 660 0"/>
			<path class="y-gridline" d="M 0 525 L 660 525"/>
			<text class="y-axis-label" x="-5" y="525">
				-50
			</text>
			<path class="y-gridline" d="M 0 420 L 660 420"/>
			<text class="y-axis-label" x="-5" y="420">
				 0
			</text>
			<path class="y-gridline" d="M 0 315 L 660 315"/>
			<text class="y-axis-label" x="-5" y="315">
				50
			</text>
			<path class="y-gridline" d="M 0 210 L 660 210"/>
			<text class="y-axis-label" x="-5" y="210">
				100
			</text>
			<path class="y-gridline" d="M 0 105 L 660 105"/>
			<text class="y-axis-label" x="-5" y="105">
				150
			</text>
			<path class="y-gridline" d="M 0 0 L 660 0"/>
			<text class="y-axis-label" x="-5" y="0">
				200
			</text>
		</g>
		<g>
			<path class="series-1-line" d="M 40 429.982896 L 46 364.405509391 L 52 396.127842783 L 59 478.411456174 L 65 423.064429565 L 71 383.333002957 L 78 409.186256348 L 84 402.677669739 L 90 400.26156313 L 97 459.337656522 L 103 412.229349913 L 110 391.128283304 L 116 429.689056696 L 122 409.288550087 L 129 368.749043478 L 135 367.89449687 L 141 447.593430261 L 148 408.507963652 L 154 321.445897043 L 161 342.183550435 L 167 344.452123826 L 173 414.620417217 L 180 332.350550609 L 186 305.380404 L 192 328.810257391 L 199 242.286630783 L 205 246.655204174 L 212 223.938817565 L 218 226.853350957 L 224 116.798804348 L 231 132.259577739 L 237 160.37411113 L 243 180.412044522 L 250 220.749417913 L 256 116.456431304 L 263 126.640324696 L 269 156.316418087 L 275 22.6234314783 L 282 205.76080487 L 288 162.367818261 L 294 137.390151652 L 301 127.112485043 L 307 68.6960984348 L 314 95.7337518261 L 320 63.2716852174 L 326 114.109058609 L 333 43.308552 L 339 200.061525391 L 345 150.853218783 L 352 118.606192174 L 358 111.559165565 L 365 212.096818957 L 371 133.542272348 L 377 161.603045739 L 384 283.57161913 L 390 299.517072522 L 396 217.569765913 L 403 314.823019304 L 409 266.852872696 L 416 329.429246087 L 422 345.535979478 L 428 302.78895287 L 435 345.011286261 L 441 375.172059652 L 447 305.178793043 L 454 365.224246435 L 460 405.723739826 L 467 390.761393217 L 473 410.475926609 L 479 431.42862 L 486 426.212793391 L 492 436.450446783 L 498 412.442140174 L 505 422.356393565 L 511 445.732486957 L 518 430.501340348 L 524 419.954033739 L 530 412.90700713 L 537 414.475860522 L 543 406.405713913 L 549 410.450887304 L 556 425.857900696 L 562 432.918674087 L 569 391.194767478 L 575 387.27086087 L 581 419.908794261 L 588 439.838367652 L 594 393.214741043 L 600 389.344594435 L 607 433.451887826 L 613 467.058341217 L 620 428.942234609"/>
			<path class="series-2-line" d="M 40 402.36 L 46 433.796086957 L 52 437.932173913 L 59 416.86826087 L 65 408.404347826 L 71 420.940434783 L 78 439.776521739 L 84 429.212608696 L 90 435.448695652 L 97 431.184782609 L 103 447.920869565 L 110 420.556956522 L 116 422.593043478 L 122 449.829130435 L 129 424.565217391 L 135 432.901304348 L 141 405.537391304 L 148 399.173478261 L 154 424.309565217 L 161 422.145652174 L 167 434.68173913 L 173 419.917826087 L 180 434.553913043 L 186 421.89 L 192 409.226086957 L 199 432.262173913 L 205 444.79826087 L 212 423.734347826 L 218 417.370434783 L 224 425.706521739 L 231 427.742608696 L 237 421.378695652 L 243 446.514782609 L 250 417.050869565 L 256 427.486956522 L 263 433.723043478 L 269 429.459130435 L 275 439.895217391 L 282 410.431304348 L 288 420.867391304 L 294 425.003478261 L 301 429.139565217 L 307 408.075652174 L 314 405.91173913 L 320 431.047826087 L 326 401.583913043 L 333 428.82 L 339 420.356086957 L 345 437.092173913 L 352 428.62826087 L 358 420.164347826 L 365 418.000434783 L 371 426.336521739 L 377 428.372608696 L 384 440.908695652 L 390 449.244782609 L 396 413.480869565 L 403 432.316956522 L 409 419.653043478 L 416 442.689130435 L 422 425.825217391 L 428 417.361304348 L 435 421.497391304 L 441 423.533478261 L 447 406.669565217 L 454 415.005652174 L 460 442.24173913 L 467 440.077826087 L 473 433.713913043 L 479 397.95 L 486 431.486086957 L 492 429.322173913 L 498 446.05826087 L 505 412.394347826 L 511 408.130434783 L 518 447.966521739 L 524 412.202608696 L 530 403.738695652 L 537 443.574782609 L 543 430.910869565 L 549 411.946956522 L 556 422.383043478 L 562 424.419130435 L 569 420.155217391 L 575 415.891304348 L 581 441.027391304 L 588 401.063478261 L 594 424.099565217 L 600 411.435652174 L 607 449.17173913 L 613 405.007826087 L 620 411.243913043"/>
		</g>
		<text class="x-axis-label" x="40.0" y="540">
			0
		</text>
		<path class="x-notch" d="M 71.8681318681 525 L 71.8681318681 530"/>
		<text class="x-axis-label" x="103.736263736" y="540">
			10
		</text>
		<path class="x-notch" d="M 135.604395604 525 L 135.604395604 530"/>
		<text class="x-axis-label" x="167.472527473" y="540">
			20
		</text>
		<path class="x-notch" d="M 199.340659341 525 L 199.340659341 530"/>
		<text class="x-axis-label" x="231.208791209" y="540">
			30
		</text>
		<path class="x-notch" d="M 263.076923077 525 L 263.076923077 530"/>
		<text class="x-axis-label" x="294.945054945" y="540">
			40
		</text>
		<path class="x-notch" d="M 326.813186813 525 L 326.813186813 530"/>
		<text class="x-axis-label" x="358.681318681" y="540">
			50
		</text>
		<path class="x-notch" d="M 390.549450549 525 L 390.549450549 530"/>
		<text class="x-axis-label" x="422.417582418" y="540">
			60
		</text>
		<path class="x-notch" d="M 454.285714286 525 L 454.285714286 530"/>
		<text class="x-axis-label" x="486.153846154" y="540">
			70
		</text>
		<path class="x-notch" d="M 518.021978022 525 L 518.021978022 530"/>
		<text class="x-axis-label" x="549.89010989" y="540">
			80
		</text>
		<path class="x-notch" d="M 581.758241758 525 L 581.758241758 530"/>
		<text class="x-axis-label" x="613.626373626" y="540">
			90
		</text>
		<path class="x-notch" d="M 645.494505495 525 L 645.494505495 530"/>
	</g>
</svg>
