<?xml version="1.0" ?>
<svg height="600" version="1.1" width="800" xmlns="http://www.w3.org/2000/svg" xmlns:svg="http://www.w3.org/2000/svg">
	<style type="text/css">

.x-axis-path, .y-gridline, .x-notch { fill:none; stroke: #a7a9ac; stroke-width:1; }



.y-gridline { stroke-width: 1; }

.y-axis-path, .y-axis-path2, .x-notch-left, .x-notch-right { display: none;}



.x-axis-label, .data-point-label {font-size: 12px; font-weight:normal; font-family: sans-serif; fill: #58595b; text-anchor:middle;}

.y-axis-label {font-size: 12px; font-family: helvetica; fill: #a7a9ac; text-anchor:end;}



.series-1-line { fill: none; stroke: #10b80c; stroke-width:2; }



.series-2-line { fill: none; stroke: #e90f0a; stroke-width: 2;}
</style>
	<rect fill="white" height="600" width="800" x="0" y="0"/>
	<g id="grid" transform="translate(70, 30)">
		<g class="x-axis" id="x_axis">
			<path class="x-axis-path" d="M 0 525 L 660 525"/>
			<path class="x-notch-left" d="M 0 525, L 0 535"/>
			<path class="x-notch-right" d="M 660 525, L 660 535"/>
		</g>
		<g class="y-axis" id="y_axis">
			<path class="y-axis-path" d="M 0 525 L 0 0"/>
			<path class="y-axis-path-2" d="M 660 525 L 660 0"/>
			<path class="y-gridline" d="M 0 525 L 660 525"/>
			<text class="y-axis-label" x="-5" y="525">-200</text>
			<path class="y-gridline" d="M 0 394 L 660 394"/>
			<text class="y-axis-label" x="-5" y="394"> 0</text>
			<path class="y-gridline" d="M 0 263 L 660 263"/>
			<text class="y-axis-label" x="-5" y="263">200</text>
			<path class="y-gridline" d="M 0 132 L 660 132"/>
			<text class="y-axis-label" x="-5" y="132">400</text>
			<path class="y-gridline" d="M 0 1 L 660 1"/>
			<text class="y-axis-label" x="-5" y="1">600</text>
		</g>
		<g>
			<path class="series-1-line" d="M 40 384.835018444 L 47 399.387122943 L 54 390.361668658 L 61 397.828259375 L 69 396.734687316 L 76 385.920869713 L 83 383.776045856 L 90 378.559675523 L 98 401.753725758 L 105 396.728395308 L 112 388.317165127 L 119 374.335961641 L 127 399.782663873 L 134 379.985499271 L 141 394.578495249 L 148 385.553040964 L 156 387.599593802 L 163 378.150955294 L 170 358.503939095 L 177 361.861149055 L 185 338.350526932 L 192 353.394181096 L 199 330.306743194 L 206 343.070484375 L 214 306.166837689 L 221 294.397181742 L 228 237.069731663 L 235 257.806459526 L 243 259.443458634 L 250 238.704299159 L 257 163.860813266 L 264 202.454765228 L 272 90.1902507806 L 279 135.719568121 L 286 153.015874281 L 293 163.513119996 L 301 123.592448806 L 308 136.560860363 L 315 138.976075449 L 322 66.5353899562 L 330 53.1138886012 L 337 45.5219788549 L 344 70.6272798247 L 351 44.7958532379 L 359 65.0819229158 L 366 0.0 L 373 252.471300389 L 380 286.409799955 L 388 307.351198194 L 395 272.003983464 L 402 257.244563999 L 409 331.866891457 L 417 340.999171052 L 424 316.491819105 L 431 335.945150832 L 438 344.312631967 L 446 400.477141714 L 453 400.639704804 L 460 396.310594394 L 467 398.998845299 L 475 400.840727761 L 482 411.542856828 L 489 411.118243823 L 496 405.683359644 L 504 420.003319803 L 511 411.182748871 L 518 417.95290657 L 525 415.439633442 L 533 412.77621191 L 540 389.402107696 L 547 411.135352406 L 554 402.096267628 L 562 404.825410013 L 569 397.547427566 L 576 407.566967085 L 583 388.602540434 L 591 402.731460711 L 598 394.661631793 L 605 371.519671918 L 612 403.765221619 L 620 395.476878855"/>
			<path class="series-2-line" d="M 40 393.217558855 L 47 392.648306964 L 54 394.741260798 L 61 398.963979213 L 69 388.810786711 L 76 399.955240011 L 83 387.67228293 L 90 397.751853939 L 98 398.779925484 L 105 399.807997028 L 112 389.122363381 L 119 396.007287521 L 127 398.6326825 L 134 399.1283129 L 141 392.169767268 L 148 394.262721103 L 156 392.628586922 L 163 398.448628771 L 170 396.282053445 L 177 397.842566134 L 185 396.208431954 L 192 402.028473803 L 199 396.667251607 L 206 405.149499182 L 214 395.528747825 L 221 389.635084484 L 228 389.065832593 L 235 399.677844748 L 243 399.641034002 L 250 401.733987836 L 257 392.645677625 L 264 400.06304291 L 272 393.636938424 L 279 398.924539128 L 286 406.341904412 L 293 394.591388476 L 301 398.81410689 L 308 396.11509042 L 315 399.272926544 L 322 389.119734043 L 330 391.745129022 L 337 398.630053161 L 344 392.203948675 L 351 399.62131396 L 359 397.454738634 L 366 402.209898193 L 373 393.654029127 L 380 400.538953266 L 388 399.969701376 L 395 396.73824376 L 402 400.428521029 L 409 394.002416543 L 417 408.341516713 L 424 396.058559631 L 431 399.216395756 L 438 387.465879819 L 446 394.883245104 L 453 396.443757793 L 460 392.679859032 L 467 394.772812866 L 475 404.319942731 L 482 402.153367405 L 489 391.467733759 L 496 394.093128738 L 504 388.199465397 L 511 399.876359842 L 518 388.125843905 L 525 391.816121174 L 533 398.168604169 L 540 396.002028843 L 547 396.497659242 L 554 400.720377657 L 562 396.424037751 L 569 395.85478586 L 576 396.350416259 L 583 391.521635208 L 591 394.679471332 L 598 393.045337151 L 605 396.203173276 L 612 397.23124482 L 620 388.142934609"/>
		</g>
		<text class="x-axis-label" x="40.0" y="540">0</text>
		<path class="x-notch" d="M 76.25 525 L 76.25 530"/>
		<text class="x-axis-label" x="112.5" y="540">10</text>
		<path class="x-notch" d="M 148.75 525 L 148.75 530"/>
		<text class="x-axis-label" x="185.0" y="540">20</text>
		<path class="x-notch" d="M 221.25 525 L 221.25 530"/>
		<text class="x-axis-label" x="257.5" y="540">30</text>
		<path class="x-notch" d="M 293.75 525 L 293.75 530"/>
		<text class="x-axis-label" x="330.0" y="540">40</text>
		<path class="x-notch" d="M 366.25 525 L 366.25 530"/>
		<text class="x-axis-label" x="402.5" y="540">50</text>
		<path class="x-notch" d="M 438.75 525 L 438.75 530"/>
		<text class="x-axis-label" x="475.0" y="540">60</text>
		<path class="x-notch" d="M 511.25 525 L 511.25 530"/>
		<text class="x-axis-label" x="547.5" y="540">70</text>
		<path class="x-notch" d="M 583.75 525 L 583.75 530"/>
		<text class="x-axis-label" x="620.0" y="540">80</text>
	</g>
</svg>
