<?xml version="1.0" ?>
<svg height="600" version="1.1" width="800" xmlns="http://www.w3.org/2000/svg" xmlns:svg="http://www.w3.org/2000/svg">
	<style type="text/css">

.x-axis-path, .y-gridline, .x-notch { fill:none; stroke: #a7a9ac; stroke-width:1; }



.y-gridline { stroke-width: 1; }

.y-axis-path, .y-axis-path2, .x-notch-left, .x-notch-right { display: none;}



.x-axis-label, .data-point-label {font-size: 12px; font-weight:normal; font-family: sans-serif; fill: #58595b; text-anchor:middle;}

.y-axis-label {font-size: 12px; font-family: helvetica; fill: #a7a9ac; text-anchor:end;}



.series-1-line { fill: none; stroke: #10b80c; stroke-width:2; }



.series-2-line { fill: none; stroke: #e90f0a; stroke-width: 2;}
</style>
	<rect fill="white" height="600" width="800" x="0" y="0"/>
	<g id="grid" transform="translate(70, 30)">
		<g class="x-axis" id="x_axis">
			<path class="x-axis-path" d="M 0 525 L 660 525"/>
			<path class="x-notch-left" d="M 0 525, L 0 535"/>
			<path class="x-notch-right" d="M 660 525, L 660 535"/>
		</g>
		<g class="y-axis" id="y_axis">
			<path class="y-axis-path" d="M 0 525 L 0 0"/>
			<path class="y-axis-path-2" d="M 660 525 L 660 0"/>
			<path class="y-gridline" d="M 0 525 L 660 525"/>
			<text class="y-axis-label" x="-5" y="525">-200</text>
			<path class="y-gridline" d="M 0 394 L 660 394"/>
			<text class="y-axis-label" x="-5" y="394"> 0</text>
			<path class="y-gridline" d="M 0 263 L 660 263"/>
			<text class="y-axis-label" x="-5" y="263">200</text>
			<path class="y-gridline" d="M 0 132 L 660 132"/>
			<text class="y-axis-label" x="-5" y="132">400</text>
			<path class="y-gridline" d="M 0 1 L 660 1"/>
			<text class="y-axis-label" x="-5" y="1">600</text>
		</g>
		<g>
			<path class="series-1-line" d="M 40 401.746186734 L 49 390.070679699 L 58 395.995067706 L 67 404.058979998 L 76 367.55667978 L 86 426.977690769 L 95 375.518136714 L 104 414.675832763 L 113 396.6246728 L 122 411.697817891 L 132 399.476614645 L 141 373.782982646 L 150 371.191171537 L 159 391.592178329 L 168 383.585303128 L 178 369.027688949 L 187 327.284729421 L 196 319.51800143 L 205 219.823603031 L 214 211.598381219 L 224 115.24492442 L 233 106.95396018 L 242 71.6745372405 L 251 59.562336983 L 260 44.2188793832 L 270 31.2114920821 L 279 20.9118071438 L 288 0.0 L 297 54.0059468977 L 306 81.1106374859 L 316 6.76726851866 L 325 43.9162438689 L 334 34.0750527514 L 343 76.1151965792 L 353 142.676584588 L 362 147.137607473 L 371 152.101066009 L 380 193.966464421 L 389 225.787578071 L 399 260.425397072 L 408 257.15674553 L 417 313.892195389 L 426 347.700229139 L 435 395.7450751 L 445 386.275175412 L 454 375.582398446 L 463 401.966306773 L 472 414.834185151 L 481 408.770628856 L 491 394.6497079 L 500 382.60325007 L 509 379.771291752 L 518 398.622071665 L 527 417.800201178 L 537 399.094001381 L 546 394.558871367 L 555 409.173522637 L 564 396.777573975 L 573 385.97579402 L 583 395.349785981 L 592 408.654357582 L 601 395.079473472 L 610 385.041736341 L 620 398.608255749"/>
			<path class="series-2-line" d="M 40 395.112537357 L 49 377.253185397 L 58 403.676297543 L 67 395.184389913 L 76 397.76309831 L 86 381.606918046 L 95 392.701484924 L 104 382.506405598 L 113 396.155730021 L 122 390.218579936 L 132 391.094116636 L 141 401.337097666 L 150 394.548361733 L 159 387.759625799 L 168 395.447849285 L 178 395.471800137 L 187 385.276720811 L 196 388.707015055 L 205 385.324622515 L 214 393.864431848 L 224 400.701069486 L 233 386.248060919 L 242 397.342627797 L 251 381.186447534 L 260 404.203216286 L 270 394.859722808 L 279 394.88367366 L 288 389.798109423 L 297 388.118888579 L 306 398.361869609 L 316 392.424719524 L 325 396.706599617 L 334 391.62103538 L 343 396.754501321 L 353 395.926866324 L 362 384.88020115 L 371 395.12318218 L 380 394.295547184 L 389 399.429013125 L 399 396.898206432 L 408 396.070571436 L 417 400.352451529 L 426 394.415301444 L 435 392.7360806 L 445 396.166374844 L 454 391.080810607 L 463 380.885731281 L 472 386.87078307 L 481 390.301077315 L 491 388.621856471 L 500 395.458494108 L 509 392.927687415 L 518 395.506395812 L 527 380.201801397 L 537 396.405883364 L 546 393.875076671 L 555 393.047441675 L 564 387.961877438 L 573 399.908030165 L 583 386.306607446 L 592 390.588487539 L 601 403.386226113 L 610 395.745904332 L 620 392.363511791"/>
		</g>
		<text class="x-axis-label" x="40.0" y="540">0</text>
		<path class="x-notch" d="M 86.0317460317 525 L 86.0317460317 530"/>
		<text class="x-axis-label" x="132.063492063" y="540">10</text>
		<path class="x-notch" d="M 178.095238095 525 L 178.095238095 530"/>
		<text class="x-axis-label" x="224.126984127" y="540">20</text>
		<path class="x-notch" d="M 270.158730159 525 L 270.158730159 530"/>
		<text class="x-axis-label" x="316.19047619" y="540">30</text>
		<path class="x-notch" d="M 362.222222222 525 L 362.222222222 530"/>
		<text class="x-axis-label" x="408.253968254" y="540">40</text>
		<path class="x-notch" d="M 454.285714286 525 L 454.285714286 530"/>
		<text class="x-axis-label" x="500.317460317" y="540">50</text>
		<path class="x-notch" d="M 546.349206349 525 L 546.349206349 530"/>
		<text class="x-axis-label" x="592.380952381" y="540">60</text>
		<path class="x-notch" d="M 638.412698413 525 L 638.412698413 530"/>
	</g>
</svg>
