<?xml version="1.0" ?>
<svg height="600" version="1.1" width="800" xmlns="http://www.w3.org/2000/svg" xmlns:svg="http://www.w3.org/2000/svg">
	<style type="text/css">

.x-axis-path, .y-gridline, .x-notch { fill:none; stroke: #a7a9ac; stroke-width:1; }



.y-gridline { stroke-width: 1; }

.y-axis-path, .y-axis-path2, .x-notch-left, .x-notch-right { display: none;}



.x-axis-label, .data-point-label {font-size: 12px; font-weight:normal; font-family: sans-serif; fill: #58595b; text-anchor:middle;}

.y-axis-label {font-size: 12px; font-family: helvetica; fill: #a7a9ac; text-anchor:end;}



.series-1-line { fill: none; stroke: #10b80c; stroke-width:2; }



.series-2-line { fill: none; stroke: #e90f0a; stroke-width: 2;}
</style>
	<rect fill="white" height="600" width="800" x="0" y="0"/>
	<g id="grid" transform="translate(70, 30)">
		<g class="x-axis" id="x_axis">
			<path class="x-axis-path" d="M 0 525 L 660 525"/>
			<path class="x-notch-left" d="M 0 525, L 0 535"/>
			<path class="x-notch-right" d="M 660 525, L 660 535"/>
		</g>
		<g class="y-axis" id="y_axis">
			<path class="y-axis-path" d="M 0 525 L 0 0"/>
			<path class="y-axis-path-2" d="M 660 525 L 660 0"/>
			<path class="y-gridline" d="M 0 525 L 660 525"/>
			<text class="y-axis-label" x="-5" y="525">-200</text>
			<path class="y-gridline" d="M 0 394 L 660 394"/>
			<text class="y-axis-label" x="-5" y="394"> 0</text>
			<path class="y-gridline" d="M 0 263 L 660 263"/>
			<text class="y-axis-label" x="-5" y="263">200</text>
			<path class="y-gridline" d="M 0 132 L 660 132"/>
			<text class="y-axis-label" x="-5" y="132">400</text>
			<path class="y-gridline" d="M 0 1 L 660 1"/>
			<text class="y-axis-label" x="-5" y="1">600</text>
		</g>
		<g>
			<path class="series-1-line" d="M 40 392.117116905 L 47 404.939659536 L 55 399.261368555 L 63 380.216228816 L 70 390.39256937 L 78 408.326515933 L 86 421.036153942 L 94 420.401524118 L 101 386.949401794 L 109 404.838186507 L 117 357.951472653 L 125 373.963218026 L 132 388.074637482 L 140 385.17838695 L 148 380.540582625 L 156 376.626426362 L 163 373.571756532 L 171 375.424909488 L 179 374.76769874 L 186 350.384993 L 194 392.067015479 L 202 355.697367158 L 210 330.613594281 L 217 314.757657286 L 225 294.468802571 L 233 166.431891698 L 241 223.176802052 L 248 142.251461644 L 256 167.196785229 L 264 159.776940454 L 272 167.261917083 L 279 193.971375385 L 287 134.961880577 L 295 98.5922322561 L 302 12.8042309125 L 310 5.33922428879 L 318 0.0 L 326 85.0165805142 L 333 11.3965219731 L 341 50.9524092905 L 349 74.6310841478 L 357 25.9350737267 L 364 31.0677531228 L 372 95.1408790942 L 380 172.2636624 L 388 122.821422993 L 395 137.928167257 L 403 77.7201193214 L 411 201.524729876 L 418 195.394114752 L 426 364.749742201 L 434 403.98914375 L 442 402.087865199 L 449 397.133222279 L 457 411.403413859 L 465 376.820481181 L 473 433.610553383 L 480 421.463886045 L 488 410.49319091 L 496 412.120181795 L 504 422.726265567 L 511 405.784680066 L 519 410.668616467 L 527 415.95971516 L 534 376.26537855 L 542 404.603133197 L 550 397.092964725 L 558 411.249898856 L 565 398.537649928 L 573 401.43128954 L 581 419.297493329 L 589 395.570692877 L 596 385.911808318 L 604 396.947635307 L 612 399.366369853 L 620 393.688078871"/>
			<path class="series-2-line" d="M 40 400.806538871 L 47 401.702533609 L 55 399.070258912 L 63 383.206973831 L 70 384.10296857 L 78 378.824491795 L 86 397.361833712 L 94 399.139895809 L 101 394.743486394 L 109 396.521548491 L 117 389.478936999 L 125 408.898346274 L 132 380.686118169 L 140 391.284853855 L 148 398.355320105 L 156 395.723045408 L 163 396.619040146 L 171 388.694361296 L 179 394.000692828 L 186 385.193946619 L 194 390.500278151 L 202 394.042474966 L 210 391.410200269 L 217 394.070329725 L 225 400.258728617 L 233 393.216117125 L 241 387.937640351 L 248 393.243971884 L 256 395.022033981 L 264 388.861489848 L 272 396.814023457 L 279 398.592085554 L 287 390.667406704 L 295 394.209603519 L 302 401.280069769 L 310 402.176064507 L 318 381.020375273 L 326 403.085986625 L 333 403.981981363 L 341 396.939369871 L 349 389.89675838 L 357 389.910685759 L 364 386.396343703 L 372 407.579887696 L 380 388.188333179 L 388 401.433270942 L 395 389.980322656 L 403 397.050788906 L 411 388.244042697 L 418 387.375902717 L 426 393.564301609 L 434 401.516835218 L 442 394.474223726 L 449 382.139208081 L 457 398.030347921 L 465 398.0442753 L 473 385.709259655 L 480 394.543860623 L 488 391.911585926 L 496 384.868974434 L 504 387.52910389 L 511 387.543031269 L 519 388.439026007 L 527 394.627424899 L 534 400.815823791 L 542 389.362875504 L 550 397.315409114 L 558 396.447269134 L 565 390.286725001 L 573 392.064787099 L 581 397.371118631 L 589 389.446439781 L 596 388.578299801 L 604 393.002563975 L 612 400.073030225 L 620 397.440755528"/>
		</g>
		<text class="x-axis-label" x="40.0" y="540">0</text>
		<path class="x-notch" d="M 78.6666666667 525 L 78.6666666667 530"/>
		<text class="x-axis-label" x="117.333333333" y="540">10</text>
		<path class="x-notch" d="M 156.0 525 L 156.0 530"/>
		<text class="x-axis-label" x="194.666666667" y="540">20</text>
		<path class="x-notch" d="M 233.333333333 525 L 233.333333333 530"/>
		<text class="x-axis-label" x="272.0" y="540">30</text>
		<path class="x-notch" d="M 310.666666667 525 L 310.666666667 530"/>
		<text class="x-axis-label" x="349.333333333" y="540">40</text>
		<path class="x-notch" d="M 388.0 525 L 388.0 530"/>
		<text class="x-axis-label" x="426.666666667" y="540">50</text>
		<path class="x-notch" d="M 465.333333333 525 L 465.333333333 530"/>
		<text class="x-axis-label" x="504.0" y="540">60</text>
		<path class="x-notch" d="M 542.666666667 525 L 542.666666667 530"/>
		<text class="x-axis-label" x="581.333333333" y="540">70</text>
		<path class="x-notch" d="M 620.0 525 L 620.0 530"/>
	</g>
</svg>
