<?xml version="1.0" ?>
<svg height="600" version="1.1" width="800" xmlns="http://www.w3.org/2000/svg" xmlns:svg="http://www.w3.org/2000/svg">
	<style type="text/css">

.x-axis-path, .y-gridline, .x-notch { fill:none; stroke: #a7a9ac; stroke-width:1; }



.y-gridline { stroke-width: 1; }

.y-axis-path, .y-axis-path2, .x-notch-left, .x-notch-right { display: none;}



.x-axis-label, .data-point-label {font-size: 12px; font-weight:normal; font-family: sans-serif; fill: #58595b; text-anchor:middle;}

.y-axis-label {font-size: 12px; font-family: helvetica; fill: #a7a9ac; text-anchor:end;}



.series-1-line { fill: none; stroke: #10b80c; stroke-width:2; }



.series-2-line { fill: none; stroke: #e90f0a; stroke-width: 2;}
</style>
	<rect fill="white" height="600" width="800" x="0" y="0"/>
	<g id="grid" transform="translate(70, 30)">
		<g class="x-axis" id="x_axis">
			<path class="x-axis-path" d="M 0 525 L 660 525"/>
			<path class="x-notch-left" d="M 0 525, L 0 535"/>
			<path class="x-notch-right" d="M 660 525, L 660 535"/>
		</g>
		<g class="y-axis" id="y_axis">
			<path class="y-axis-path" d="M 0 525 L 0 0"/>
			<path class="y-axis-path-2" d="M 660 525 L 660 0"/>
			<path class="y-gridline" d="M 0 525 L 660 525"/>
			<text class="y-axis-label" x="-5" y="525">-200</text>
			<path class="y-gridline" d="M 0 394 L 660 394"/>
			<text class="y-axis-label" x="-5" y="394"> 0</text>
			<path class="y-gridline" d="M 0 263 L 660 263"/>
			<text class="y-axis-label" x="-5" y="263">200</text>
			<path class="y-gridline" d="M 0 132 L 660 132"/>
			<text class="y-axis-label" x="-5" y="132">400</text>
			<path class="y-gridline" d="M 0 1 L 660 1"/>
			<text class="y-axis-label" x="-5" y="1">600</text>
		</g>
		<g>
			<path class="series-1-line" d="M 40 393.786073763 L 47 394.132744501 L 54 387.045219118 L 61 398.933931038 L 68 394.311237731 L 75 378.286546966 L 82 386.247782641 L 89 390.081167009 L 96 391.189325501 L 103 375.886109997 L 110 364.129626861 L 117 359.927689923 L 124 307.152774922 L 131 303.171219292 L 139 296.664812847 L 146 241.585428339 L 153 254.796740705 L 160 244.022126631 L 167 247.234379567 L 174 200.851772887 L 181 159.398517759 L 188 209.600441916 L 195 164.981198296 L 202 150.639845607 L 209 150.004647284 L 216 165.059347696 L 223 160.657035697 L 230 158.699236928 L 238 153.35506836 L 245 96.8530521752 L 252 85.8380505469 L 259 0.0 L 266 84.006541209 L 273 127.495744505 L 280 153.571698497 L 287 334.283120619 L 294 331.063052742 L 301 261.215619821 L 308 298.312514796 L 315 261.047129715 L 322 324.174026835 L 330 325.181841497 L 337 338.573522678 L 344 366.072108347 L 351 395.073663277 L 358 386.843906264 L 365 389.915802878 L 372 397.877038553 L 379 400.968941414 L 386 378.612273665 L 393 401.742620474 L 400 405.495667258 L 407 397.787010444 L 414 393.705110985 L 421 395.735119799 L 429 411.511295471 L 436 394.725116953 L 443 405.511922334 L 450 398.624772012 L 457 387.068663938 L 464 408.335303856 L 471 402.189635042 L 478 412.916109085 L 485 395.228399089 L 492 392.268725013 L 499 396.322490689 L 506 402.48035081 L 513 404.991134732 L 520 405.197449148 L 528 401.135868532 L 535 393.507236704 L 542 402.831085317 L 549 397.286541687 L 556 389.016772181 L 563 398.981758471 L 570 401.672911209 L 577 395.767629949 L 584 389.601954888 L 591 396.621333994 L 598 396.366879548 L 605 385.111490365 L 612 395.457220532 L 620 396.004266332"/>
			<path class="series-2-line" d="M 40 394.2188964 L 47 392.64649281 L 54 392.63707722 L 61 388.72019163 L 68 400.433186037 L 75 392.608830448 L 82 391.817920858 L 89 394.934481267 L 96 396.488053676 L 103 398.041626086 L 110 394.906234496 L 117 401.930264904 L 124 397.231885315 L 131 400.348445724 L 139 401.120524133 L 146 390.170192546 L 153 393.286752954 L 160 389.369867365 L 167 397.956885772 L 174 401.854940181 L 181 398.719548591 L 188 391.676687003 L 195 394.793247412 L 202 398.69130182 L 209 397.90039223 L 216 387.731554643 L 223 395.53707905 L 230 387.712723462 L 238 390.047789871 L 245 387.693892281 L 252 390.81045269 L 259 393.145519099 L 266 385.321163511 L 273 389.219217919 L 280 397.024742327 L 287 389.981880738 L 294 396.224417146 L 301 403.248447554 L 308 398.550067965 L 315 382.129278379 L 322 400.875718784 L 330 387.580905197 L 337 393.041947605 L 344 392.251038015 L 351 400.838056422 L 358 396.139676833 L 365 396.130261243 L 372 395.339351653 L 379 392.203960063 L 386 396.883508471 L 393 407.033514878 L 400 392.175713292 L 407 397.6367557 L 414 385.904930113 L 421 396.05493652 L 429 395.26402693 L 436 384.313695342 L 443 399.934159748 L 450 399.143250158 L 457 395.226364568 L 464 391.309478979 L 471 396.770521387 L 478 391.290647798 L 485 399.096172206 L 492 395.179286616 L 499 394.388377026 L 506 400.630913434 L 513 396.714027845 L 520 386.545190257 L 528 402.165654663 L 535 395.122793074 L 542 395.113377484 L 549 398.229937893 L 556 399.783510302 L 563 391.177660714 L 570 389.605257124 L 577 388.032853534 L 584 396.619871941 L 591 390.358504353 L 598 391.130582762 L 605 401.280589169 L 612 394.237727581 L 620 391.883829991"/>
		</g>
		<text class="x-axis-label" x="40.0" y="540">0</text>
		<path class="x-notch" d="M 75.3658536585 525 L 75.3658536585 530"/>
		<text class="x-axis-label" x="110.731707317" y="540">10</text>
		<path class="x-notch" d="M 146.097560976 525 L 146.097560976 530"/>
		<text class="x-axis-label" x="181.463414634" y="540">20</text>
		<path class="x-notch" d="M 216.829268293 525 L 216.829268293 530"/>
		<text class="x-axis-label" x="252.195121951" y="540">30</text>
		<path class="x-notch" d="M 287.56097561 525 L 287.56097561 530"/>
		<text class="x-axis-label" x="322.926829268" y="540">40</text>
		<path class="x-notch" d="M 358.292682927 525 L 358.292682927 530"/>
		<text class="x-axis-label" x="393.658536585" y="540">50</text>
		<path class="x-notch" d="M 429.024390244 525 L 429.024390244 530"/>
		<text class="x-axis-label" x="464.390243902" y="540">60</text>
		<path class="x-notch" d="M 499.756097561 525 L 499.756097561 530"/>
		<text class="x-axis-label" x="535.12195122" y="540">70</text>
		<path class="x-notch" d="M 570.487804878 525 L 570.487804878 530"/>
		<text class="x-axis-label" x="605.853658537" y="540">80</text>
		<path class="x-notch" d="M 641.219512195 525 L 641.219512195 530"/>
	</g>
</svg>
