<?xml version="1.0" ?>
<svg height="600" version="1.1" width="800" xmlns="http://www.w3.org/2000/svg" xmlns:svg="http://www.w3.org/2000/svg">
	<style type="text/css">

.x-axis-path, .y-gridline, .x-notch { fill:none; stroke: #a7a9ac; stroke-width:1; }



.y-gridline { stroke-width: 1; }

.y-axis-path, .y-axis-path2, .x-notch-left, .x-notch-right { display: none;}



.x-axis-label, .data-point-label {font-size: 12px; font-weight:normal; font-family: sans-serif; fill: #58595b; text-anchor:middle;}

.y-axis-label {font-size: 12px; font-family: helvetica; fill: #a7a9ac; text-anchor:end;}



.series-1-line { fill: none; stroke: #10b80c; stroke-width:2; }



.series-2-line { fill: none; stroke: #e90f0a; stroke-width: 2;}
</style>
	<rect fill="white" height="600" width="800" x="0" y="0"/>
	<g id="grid" transform="translate(70, 30)">
		<g class="x-axis" id="x_axis">
			<path class="x-axis-path" d="M 0 525 L 660 525"/>
			<path class="x-notch-left" d="M 0 525, L 0 535"/>
			<path class="x-notch-right" d="M 660 525, L 660 535"/>
		</g>
		<g class="y-axis" id="y_axis">
			<path class="y-axis-path" d="M 0 525 L 0 0"/>
			<path class="y-axis-path-2" d="M 660 525 L 660 0"/>
			<path class="y-gridline" d="M 0 525 L 660 525"/>
			<text class="y-axis-label" x="-5" y="525">-200</text>
			<path class="y-gridline" d="M 0 394 L 660 394"/>
			<text class="y-axis-label" x="-5" y="394"> 0</text>
			<path class="y-gridline" d="M 0 263 L 660 263"/>
			<text class="y-axis-label" x="-5" y="263">200</text>
			<path class="y-gridline" d="M 0 132 L 660 132"/>
			<text class="y-axis-label" x="-5" y="132">400</text>
			<path class="y-gridline" d="M 0 1 L 660 1"/>
			<text class="y-axis-label" x="-5" y="1">600</text>
		</g>
		<g>
			<path class="series-1-line" d="M 40 383.25596672 L 46 387.218208769 L 53 396.096437056 L 60 411.953681047 L 66 387.312051344 L 73 399.603496716 L 80 393.657475524 L 87 393.213131137 L 93 390.069206206 L 100 360.537020521 L 107 361.188163853 L 114 350.199005145 L 120 377.721981431 L 127 375.163747069 L 134 362.060301037 L 141 380.337392764 L 147 336.643336281 L 154 381.89437933 L 161 363.594816904 L 168 351.892419003 L 174 321.774542749 L 181 310.861674807 L 188 271.064804957 L 195 197.697216606 L 201 251.098656496 L 208 242.631066546 L 215 239.079462834 L 222 183.159413742 L 228 176.882401882 L 235 189.734107568 L 242 191.251071625 L 249 153.390079964 L 255 183.154494851 L 262 138.161508606 L 269 183.819833089 L 276 132.382661198 L 282 103.461993685 L 289 180.424167812 L 296 115.767633963 L 303 182.617705458 L 309 121.24684007 L 316 148.565976965 L 323 109.686185699 L 330 100.581647322 L 336 1.38645587766 L 343 0.0 L 350 89.0864457146 L 356 152.472439613 L 363 202.205962516 L 370 80.5963850645 L 377 125.057500807 L 383 196.467137617 L 390 251.371346659 L 397 266.948460493 L 404 240.1162527 L 410 196.422196217 L 417 243.201438674 L 424 227.321723984 L 431 293.025844597 L 437 345.968745195 L 444 320.563015788 L 451 341.565515663 L 458 318.222815722 L 464 372.796034097 L 471 302.510274817 L 478 334.74539795 L 485 346.807573677 L 491 363.225077981 L 498 366.448650581 L 505 390.940658308 L 512 394.368070299 L 518 369.191610538 L 525 393.301369739 L 532 388.577987541 L 539 371.119212933 L 545 382.289740331 L 552 397.84142391 L 559 361.788761813 L 566 388.318368749 L 572 372.082233136 L 579 348.306424159 L 586 381.968025678 L 593 407.274993619 L 599 396.056565265 L 606 390.085113817 L 613 390.252287602 L 620 389.451522293"/>
			<path class="series-2-line" d="M 40 395.935412569 L 46 390.911475628 L 53 393.834493485 L 60 392.784033943 L 66 394.71368245 L 73 407.570393804 L 80 398.572979464 L 87 383.615349025 L 93 402.432276477 L 100 392.441492788 L 107 400.331357393 L 114 403.25437525 L 120 403.197285057 L 127 408.107041613 L 134 392.156041825 L 141 401.03927578 L 147 392.04186144 L 154 415.825635641 L 161 396.894527804 L 168 394.850698912 L 174 398.767086118 L 181 389.769671778 L 188 392.692689635 L 195 402.56929294 L 201 394.565247949 L 208 391.528049707 L 215 396.437806264 L 222 396.380716071 L 228 400.297103277 L 235 403.220121134 L 242 392.235968095 L 249 403.105940749 L 255 402.055481207 L 262 401.998391014 L 269 400.947931472 L 276 398.90410258 L 282 409.774075235 L 289 406.736876993 L 296 413.633372249 L 303 399.66911116 L 309 397.625282268 L 316 390.614606627 L 323 405.458056681 L 330 385.533579493 L 336 395.410182798 L 343 411.247002202 L 350 415.163389408 L 356 399.21238962 L 363 382.268020482 L 370 402.078317284 L 377 394.074272293 L 383 404.944244948 L 390 394.953461258 L 397 398.869848465 L 404 393.845911523 L 410 384.848497183 L 417 402.672055286 L 424 393.674640946 L 431 403.551244251 L 437 389.586983162 L 444 394.496739718 L 451 404.373343023 L 458 397.362667382 L 464 400.285685239 L 471 394.268378948 L 478 395.204658105 L 485 405.08126141 L 491 394.09710837 L 498 388.07980208 L 505 395.969666685 L 512 396.905945842 L 518 404.795810448 L 525 394.805026758 L 532 388.787720467 L 539 393.697477023 L 545 387.680170732 L 552 395.570035337 L 559 395.512945145 L 566 395.455854952 L 572 403.345719558 L 579 386.40135042 L 586 397.271323074 L 593 394.234124833 L 599 394.17703464 L 606 389.153097699 L 613 395.056223605 L 620 396.985872112"/>
		</g>
		<text class="x-axis-label" x="40.0" y="540">0</text>
		<path class="x-notch" d="M 73.7209302326 525 L 73.7209302326 530"/>
		<text class="x-axis-label" x="107.441860465" y="540">10</text>
		<path class="x-notch" d="M 141.162790698 525 L 141.162790698 530"/>
		<text class="x-axis-label" x="174.88372093" y="540">20</text>
		<path class="x-notch" d="M 208.604651163 525 L 208.604651163 530"/>
		<text class="x-axis-label" x="242.325581395" y="540">30</text>
		<path class="x-notch" d="M 276.046511628 525 L 276.046511628 530"/>
		<text class="x-axis-label" x="309.76744186" y="540">40</text>
		<path class="x-notch" d="M 343.488372093 525 L 343.488372093 530"/>
		<text class="x-axis-label" x="377.209302326" y="540">50</text>
		<path class="x-notch" d="M 410.930232558 525 L 410.930232558 530"/>
		<text class="x-axis-label" x="444.651162791" y="540">60</text>
		<path class="x-notch" d="M 478.372093023 525 L 478.372093023 530"/>
		<text class="x-axis-label" x="512.093023256" y="540">70</text>
		<path class="x-notch" d="M 545.813953488 525 L 545.813953488 530"/>
		<text class="x-axis-label" x="579.534883721" y="540">80</text>
		<path class="x-notch" d="M 613.255813953 525 L 613.255813953 530"/>
	</g>
</svg>
