<?xml version="1.0" ?>
<svg height="600" version="1.1" width="800" xmlns="http://www.w3.org/2000/svg" xmlns:svg="http://www.w3.org/2000/svg">
	<style type="text/css">

.x-axis-path, .y-gridline, .x-notch { fill:none; stroke: #a7a9ac; stroke-width:1; }



.y-gridline { stroke-width: 1; }

.y-axis-path, .y-axis-path2, .x-notch-left, .x-notch-right { display: none;}



.x-axis-label, .data-point-label {font-size: 12px; font-weight:normal; font-family: sans-serif; fill: #58595b; text-anchor:middle;}

.y-axis-label {font-size: 12px; font-family: helvetica; fill: #a7a9ac; text-anchor:end;}



.series-1-line { fill: none; stroke: #10b80c; stroke-width:2; }



.series-2-line { fill: none; stroke: #e90f0a; stroke-width: 2;}
</style>
	<rect fill="white" height="600" width="800" x="0" y="0"/>
	<g id="grid" transform="translate(70, 30)">
		<g class="x-axis" id="x_axis">
			<path class="x-axis-path" d="M 0 525 L 660 525"/>
			<path class="x-notch-left" d="M 0 525, L 0 535"/>
			<path class="x-notch-right" d="M 660 525, L 660 535"/>
		</g>
		<g class="y-axis" id="y_axis">
			<path class="y-axis-path" d="M 0 525 L 0 0"/>
			<path class="y-axis-path-2" d="M 660 525 L 660 0"/>
			<path class="y-gridline" d="M 0 525 L 660 525"/>
			<text class="y-axis-label" x="-5" y="525">-200</text>
			<path class="y-gridline" d="M 0 394 L 660 394"/>
			<text class="y-axis-label" x="-5" y="394"> 0</text>
			<path class="y-gridline" d="M 0 263 L 660 263"/>
			<text class="y-axis-label" x="-5" y="263">200</text>
			<path class="y-gridline" d="M 0 132 L 660 132"/>
			<text class="y-axis-label" x="-5" y="132">400</text>
			<path class="y-gridline" d="M 0 1 L 660 1"/>
			<text class="y-axis-label" x="-5" y="1">600</text>
		</g>
		<g>
			<path class="series-1-line" d="M 40 417.510637343 L 49 390.325928079 L 58 387.474965469 L 68 393.449618821 L 77 383.755273092 L 86 374.221586834 L 96 353.170559491 L 105 372.376742427 L 114 315.956605758 L 124 319.413564338 L 133 330.664700901 L 142 354.477778486 L 152 332.717049945 L 161 295.34080584 L 170 337.635363382 L 180 374.586374397 L 189 360.968093458 L 199 322.828455717 L 208 303.879999131 L 217 319.188988616 L 227 261.831427962 L 236 266.386469997 L 245 213.649174873 L 255 186.866218746 L 264 140.838597948 L 273 110.024530658 L 283 81.0184569411 L 292 39.3432662477 L 301 91.1463991921 L 311 0.0 L 320 0.778395416826 L 330 14.3464546436 L 339 50.7617948104 L 348 45.5270551399 L 358 80.1210308535 L 367 25.4150826843 L 376 63.6651581836 L 386 92.2326279307 L 395 71.4360651328 L 404 145.175796791 L 414 189.05062512 L 423 213.439695112 L 432 171.563523391 L 442 220.219485639 L 451 251.907384324 L 460 343.552603531 L 470 347.518282281 L 479 404.303321253 L 489 395.37236916 L 498 418.462374668 L 507 445.221850841 L 517 422.108365379 L 526 414.222013224 L 535 416.982432565 L 545 404.569411035 L 554 401.383758604 L 563 400.98363637 L 573 391.583867824 L 582 406.035867519 L 591 397.171769821 L 601 383.191848384 L 610 380.006195953 L 620 396.694684117"/>
			<path class="series-2-line" d="M 40 394.376759963 L 49 395.903865588 L 58 390.118771642 L 68 392.690477205 L 77 395.262182768 L 86 393.133188608 L 96 395.182594202 L 105 390.964400163 L 114 390.402305911 L 124 398.719311137 L 133 392.934217191 L 142 382.970723489 L 152 393.899228563 L 161 396.470934126 L 170 395.908839873 L 180 393.779845713 L 189 397.396151215 L 199 396.834056962 L 208 396.794262679 L 217 389.442268824 L 227 392.536274357 L 236 392.496480074 L 245 387.755986066 L 255 387.716191782 L 264 395.51089704 L 273 392.859602909 L 283 393.342108595 L 292 394.346914251 L 301 397.440919784 L 311 395.834225592 L 320 394.227531401 L 330 393.665437148 L 339 393.625642864 L 348 393.063548612 L 358 391.97915439 L 367 388.80556029 L 376 387.721166068 L 386 389.770571662 L 395 392.864577195 L 404 395.958582728 L 414 393.307288597 L 423 395.356694191 L 432 386.960100398 L 442 392.143305809 L 451 396.28191128 L 460 396.764416966 L 470 386.800923265 L 479 386.761128981 L 489 392.466634361 L 498 393.471440016 L 507 392.387045794 L 517 390.258051633 L 526 395.963557013 L 535 390.700763036 L 545 389.616368814 L 554 395.321874194 L 563 394.237479971 L 573 391.586185841 L 582 395.724791313 L 591 390.984297305 L 601 389.899903083 L 610 395.605408463 L 620 397.132514087"/>
		</g>
		<text class="x-axis-label" x="40.0" y="540">0</text>
		<path class="x-notch" d="M 86.7741935484 525 L 86.7741935484 530"/>
		<text class="x-axis-label" x="133.548387097" y="540">10</text>
		<path class="x-notch" d="M 180.322580645 525 L 180.322580645 530"/>
		<text class="x-axis-label" x="227.096774194" y="540">20</text>
		<path class="x-notch" d="M 273.870967742 525 L 273.870967742 530"/>
		<text class="x-axis-label" x="320.64516129" y="540">30</text>
		<path class="x-notch" d="M 367.419354839 525 L 367.419354839 530"/>
		<text class="x-axis-label" x="414.193548387" y="540">40</text>
		<path class="x-notch" d="M 460.967741935 525 L 460.967741935 530"/>
		<text class="x-axis-label" x="507.741935484" y="540">50</text>
		<path class="x-notch" d="M 554.516129032 525 L 554.516129032 530"/>
		<text class="x-axis-label" x="601.290322581" y="540">60</text>
		<path class="x-notch" d="M 648.064516129 525 L 648.064516129 530"/>
	</g>
</svg>
