<?xml version="1.0" ?>
<svg height="600" version="1.1" width="800" xmlns="http://www.w3.org/2000/svg" xmlns:svg="http://www.w3.org/2000/svg">
	<style type="text/css">
		

.x-axis-path, .y-gridline, .x-notch { fill:none; stroke: #a7a9ac; stroke-width:1; }



.y-gridline { stroke-width: 1; }

.y-axis-path, .y-axis-path2, .x-notch-left, .x-notch-right { display: none;}



.x-axis-label, .data-point-label {font-size: 12px; font-weight:normal; font-family: sans-serif; fill: #58595b; text-anchor:middle;}

.y-axis-label {font-size: 12px; font-family: helvetica; fill: #a7a9ac; text-anchor:end;}



.series-1-line { fill: none; stroke: #10b80c; stroke-width:2; }



.series-2-line { fill: none; stroke: #e90f0a; stroke-width: 2;}

	</style>
	<rect fill="white" height="600" width="800" x="0" y="0"/>
	<g id="grid" transform="translate(70, 30)">
		<g class="x-axis" id="x_axis">
			<path class="x-axis-path" d="M 0 525 L 660 525"/>
			<path class="x-notch-left" d="M 0 525, L 0 535"/>
			<path class="x-notch-right" d="M 660 525, L 660 535"/>
		</g>
		<g class="y-axis" id="y_axis">
			<path class="y-axis-path" d="M 0 525 L 0 0"/>
			<path class="y-axis-path-2" d="M 660 525 L 660 0"/>
			<path class="y-gridline" d="M 0 525 L 660 525"/>
			<text class="y-axis-label" x="-5" y="525">
				-200
			</text>
			<path class="y-gridline" d="M 0 420 L 660 420"/>
			<text class="y-axis-label" x="-5" y="420">
				 0
			</text>
			<path class="y-gridline" d="M 0 315 L 660 315"/>
			<text class="y-axis-label" x="-5" y="315">
				200
			</text>
			<path class="y-gridline" d="M 0 210 L 660 210"/>
			<text class="y-axis-label" x="-5" y="210">
				400
			</text>
			<path class="y-gridline" d="M 0 105 L 660 105"/>
			<text class="y-axis-label" x="-5" y="105">
				600
			</text>
			<path class="y-gridline" d="M 0 0 L 660 0"/>
			<text class="y-axis-label" x="-5" y="0">
				800
			</text>
		</g>
		<g>
			<path class="series-1-line" d="M 40 414.790404 L 46 437.39261469 L 53 407.508265379 L 60 426.368276069 L 66 414.078146759 L 73 405.839967448 L 80 400.576858138 L 87 409.502188828 L 93 400.981349517 L 100 439.198950207 L 107 410.337720897 L 114 409.166881586 L 120 395.934482276 L 127 408.817472966 L 134 408.292803655 L 141 401.885404345 L 147 388.397225034 L 154 347.945675724 L 161 353.357496414 L 168 316.621267103 L 174 285.660037793 L 181 285.404588483 L 188 277.947189172 L 195 276.130179862 L 201 251.859340552 L 208 229.419281241 L 215 189.385001931 L 222 218.973702621 L 228 216.73942331 L 235 210.197414 L 242 121.33813469 L 249 179.761515379 L 255 154.844506069 L 262 106.921786759 L 269 107.850947448 L 276 84.5761381379 L 282 104.486148828 L 289 149.367259517 L 296 137.952200207 L 303 123.131360897 L 309 159.760521586 L 316 92.2107822759 L 323 158.118772966 L 330 193.819103655 L 336 195.717414345 L 343 182.552425034 L 350 200.295025724 L 356 184.558796414 L 363 214.820547103 L 370 278.561337793 L 377 299.965498483 L 383 338.815829172 L 390 306.966089862 L 397 336.002910552 L 404 367.624411241 L 410 383.253571931 L 417 419.896172621 L 424 411.64455331 L 431 416.221834 L 437 447.37209469 L 444 411.941645379 L 451 426.924636069 L 458 422.294256759 L 464 417.879127448 L 471 425.108288138 L 478 414.756668828 L 485 430.278099517 L 491 415.739920207 L 498 425.446030897 L 505 440.429021586 L 512 419.846622276 L 518 432.164292966 L 525 420.897283655 L 532 447.416834345 L 539 428.153655034 L 545 393.517425724 L 552 418.838926414 L 559 423.846917103 L 566 439.328027793 L 572 428.586018483 L 579 419.822839172 L 586 428.263489862 L 593 427.833110552 L 599 402.296811241 L 606 413.577921931 L 613 427.874422621 L 620 428.21117331"/>
			<path class="series-2-line" d="M 40 421.89 L 46 419.759827586 L 53 415.529655172 L 60 423.899482759 L 66 418.619310345 L 73 415.964137931 L 80 420.133965517 L 87 422.203793103 L 93 422.69862069 L 100 421.093448276 L 107 421.063275862 L 114 421.558103448 L 120 419.952931034 L 127 418.872758621 L 134 420.942586207 L 141 419.337413793 L 147 416.682241379 L 154 422.952068966 L 161 420.296896552 L 168 420.266724138 L 174 420.236551724 L 181 421.25637931 L 188 419.651206897 L 195 418.571034483 L 201 419.065862069 L 208 420.610689655 L 215 423.205517241 L 222 416.350344828 L 228 418.945172414 L 235 417.865 L 242 420.459827586 L 249 419.904655172 L 255 418.824482759 L 262 423.519310345 L 269 424.014137931 L 276 412.433965517 L 282 420.803793103 L 289 423.92362069 L 296 425.468448276 L 303 425.963275862 L 309 426.458103448 L 316 421.702931034 L 323 420.622758621 L 330 422.692586207 L 336 415.312413793 L 343 423.682241379 L 350 422.077068966 L 356 422.046896552 L 363 412.566724138 L 370 421.986551724 L 377 422.48137931 L 383 424.551206897 L 390 419.796034483 L 397 417.140862069 L 404 420.785689655 L 410 421.280517241 L 417 419.675344828 L 424 419.120172414 L 431 423.815 L 437 419.059827586 L 444 420.079655172 L 451 418.999482759 L 458 426.844310345 L 464 421.564137931 L 471 422.058965517 L 478 421.503793103 L 485 418.32362069 L 491 415.668448276 L 498 418.788275862 L 505 417.708103448 L 512 416.102931034 L 518 421.322758621 L 525 420.242586207 L 532 421.262413793 L 539 418.607241379 L 545 418.577068966 L 552 422.221896552 L 559 421.141724138 L 566 424.261551724 L 572 423.18137931 L 579 420.526206897 L 586 416.296034483 L 593 424.140862069 L 599 417.285689655 L 606 420.405517241 L 613 424.050344828 L 620 414.570172414"/>
		</g>
		<text class="x-axis-label" x="40.0" y="540">
			0
		</text>
		<path class="x-notch" d="M 73.7209302326 525 L 73.7209302326 530"/>
		<text class="x-axis-label" x="107.441860465" y="540">
			10
		</text>
		<path class="x-notch" d="M 141.162790698 525 L 141.162790698 530"/>
		<text class="x-axis-label" x="174.88372093" y="540">
			20
		</text>
		<path class="x-notch" d="M 208.604651163 525 L 208.604651163 530"/>
		<text class="x-axis-label" x="242.325581395" y="540">
			30
		</text>
		<path class="x-notch" d="M 276.046511628 525 L 276.046511628 530"/>
		<text class="x-axis-label" x="309.76744186" y="540">
			40
		</text>
		<path class="x-notch" d="M 343.488372093 525 L 343.488372093 530"/>
		<text class="x-axis-label" x="377.209302326" y="540">
			50
		</text>
		<path class="x-notch" d="M 410.930232558 525 L 410.930232558 530"/>
		<text class="x-axis-label" x="444.651162791" y="540">
			60
		</text>
		<path class="x-notch" d="M 478.372093023 525 L 478.372093023 530"/>
		<text class="x-axis-label" x="512.093023256" y="540">
			70
		</text>
		<path class="x-notch" d="M 545.813953488 525 L 545.813953488 530"/>
		<text class="x-axis-label" x="579.534883721" y="540">
			80
		</text>
		<path class="x-notch" d="M 613.255813953 525 L 613.255813953 530"/>
	</g>
</svg>
