<?xml version="1.0" ?>
<svg height="600" version="1.1" width="800" xmlns="http://www.w3.org/2000/svg" xmlns:svg="http://www.w3.org/2000/svg">
	<style type="text/css">

.x-axis-path, .y-gridline, .x-notch { fill:none; stroke: #a7a9ac; stroke-width:1; }



.y-gridline { stroke-width: 1; }

.y-axis-path, .y-axis-path2, .x-notch-left, .x-notch-right { display: none;}



.x-axis-label, .data-point-label {font-size: 12px; font-weight:normal; font-family: sans-serif; fill: #58595b; text-anchor:middle;}

.y-axis-label {font-size: 12px; font-family: helvetica; fill: #a7a9ac; text-anchor:end;}



.series-1-line { fill: none; stroke: #10b80c; stroke-width:2; }



.series-2-line { fill: none; stroke: #e90f0a; stroke-width: 2;}
</style>
	<rect fill="white" height="600" width="800" x="0" y="0"/>
	<g id="grid" transform="translate(70, 30)">
		<g class="x-axis" id="x_axis">
			<path class="x-axis-path" d="M 0 525 L 660 525"/>
			<path class="x-notch-left" d="M 0 525, L 0 535"/>
			<path class="x-notch-right" d="M 660 525, L 660 535"/>
		</g>
		<g class="y-axis" id="y_axis">
			<path class="y-axis-path" d="M 0 525 L 0 0"/>
			<path class="y-axis-path-2" d="M 660 525 L 660 0"/>
			<path class="y-gridline" d="M 0 525 L 660 525"/>
			<text class="y-axis-label" x="-5" y="525">-200</text>
			<path class="y-gridline" d="M 0 394 L 660 394"/>
			<text class="y-axis-label" x="-5" y="394"> 0</text>
			<path class="y-gridline" d="M 0 263 L 660 263"/>
			<text class="y-axis-label" x="-5" y="263">200</text>
			<path class="y-gridline" d="M 0 132 L 660 132"/>
			<text class="y-axis-label" x="-5" y="132">400</text>
			<path class="y-gridline" d="M 0 1 L 660 1"/>
			<text class="y-axis-label" x="-5" y="1">600</text>
		</g>
		<g>
			<path class="series-1-line" d="M 40 376.310667284 L 47 405.71084201 L 54 375.009665542 L 62 421.651983013 L 69 388.19774162 L 76 370.826552911 L 84 381.593586406 L 91 363.092239683 L 98 334.56458311 L 106 402.882427189 L 113 372.384227101 L 120 365.938049895 L 128 379.631740587 L 135 372.142201502 L 142 396.528995271 L 150 386.982116535 L 157 386.534366011 L 164 403.010053673 L 172 369.81665275 L 179 309.036094672 L 186 302.705645648 L 194 276.785941711 L 201 224.090082012 L 208 178.6679193 L 216 149.908354303 L 223 144.447222823 L 230 174.166102109 L 238 105.09741721 L 245 115.37170181 L 252 169.084739888 L 260 120.27210313 L 267 78.9067556291 L 274 103.757366248 L 282 90.1242881913 L 289 89.5608094874 L 296 75.2613902649 L 304 46.2988488881 L 311 25.7980266038 L 318 100.143681473 L 326 59.0681064879 L 333 16.1381682309 L 341 23.021978785 L 348 0.0 L 355 149.747537338 L 363 164.571386044 L 370 184.785184358 L 377 218.445150675 L 385 233.500907806 L 392 242.152285496 L 399 260.250880068 L 407 118.475513536 L 414 255.414291991 L 421 251.199498771 L 429 359.449894101 L 436 398.412561826 L 443 393.32845106 L 451 402.617237871 L 458 422.106830928 L 465 426.701393406 L 473 428.224186399 L 480 388.249837384 L 487 386.614064755 L 495 427.083911209 L 502 394.962804211 L 509 420.479755995 L 517 416.061986396 L 524 400.893249628 L 531 402.387110575 L 539 391.796869959 L 546 403.433220999 L 553 389.974187277 L 561 393.49645583 L 568 427.707035132 L 575 407.814689923 L 583 375.60678679 L 590 375.274764447 L 597 393.141450594 L 605 406.48750468 L 612 394.216493064 L 620 402.433438013"/>
			<path class="series-2-line" d="M 40 381.544293434 L 47 394.043841084 L 54 394.111650565 L 62 405.481040199 L 69 394.247269527 L 76 386.4039729 L 84 396.643204519 L 91 388.799907893 L 98 402.429613558 L 106 382.154578763 L 113 394.654126412 L 120 401.502883985 L 128 395.919903389 L 135 389.206764778 L 142 390.404732275 L 150 396.123331832 L 157 392.800667267 L 164 393.998634763 L 172 386.155338137 L 179 406.565991894 L 186 395.332221221 L 194 398.790504748 L 201 392.077366137 L 208 396.66580768 L 216 402.384407237 L 223 387.760162519 L 230 394.608920092 L 238 385.63546545 L 245 384.573116915 L 252 394.812348534 L 260 399.400790077 L 267 388.167019404 L 274 405.187199115 L 282 387.172480351 L 289 401.932344031 L 296 399.739837481 L 304 393.02669887 L 311 388.57387629 L 318 397.682949893 L 326 385.319021205 L 333 397.818568855 L 341 396.756220321 L 348 388.912923694 L 355 403.672787375 L 363 398.089806779 L 370 389.116352137 L 377 398.225425741 L 385 400.553551252 L 392 388.189622564 L 399 400.689170214 L 407 406.407769772 L 414 391.783525053 L 421 403.152914688 L 429 412.261988291 L 436 387.466321435 L 443 402.226185115 L 451 378.560676274 L 458 394.45069797 L 465 397.908981496 L 473 395.716474947 L 480 387.87317832 L 487 393.591777878 L 495 398.18021942 L 502 399.378186916 L 509 400.576154413 L 517 399.513805878 L 524 400.711773375 L 531 403.039898886 L 539 395.19660226 L 546 402.045359833 L 553 400.983011298 L 561 395.400030702 L 568 406.769420337 L 575 395.535649664 L 583 410.295513345 L 590 388.890320534 L 597 393.478762076 L 605 398.067203619 L 612 387.963590961 L 620 399.332980596"/>
		</g>
		<text class="x-axis-label" x="40.0" y="540">0</text>
		<path class="x-notch" d="M 76.7088607595 525 L 76.7088607595 530"/>
		<text class="x-axis-label" x="113.417721519" y="540">10</text>
		<path class="x-notch" d="M 150.126582278 525 L 150.126582278 530"/>
		<text class="x-axis-label" x="186.835443038" y="540">20</text>
		<path class="x-notch" d="M 223.544303797 525 L 223.544303797 530"/>
		<text class="x-axis-label" x="260.253164557" y="540">30</text>
		<path class="x-notch" d="M 296.962025316 525 L 296.962025316 530"/>
		<text class="x-axis-label" x="333.670886076" y="540">40</text>
		<path class="x-notch" d="M 370.379746835 525 L 370.379746835 530"/>
		<text class="x-axis-label" x="407.088607595" y="540">50</text>
		<path class="x-notch" d="M 443.797468354 525 L 443.797468354 530"/>
		<text class="x-axis-label" x="480.506329114" y="540">60</text>
		<path class="x-notch" d="M 517.215189873 525 L 517.215189873 530"/>
		<text class="x-axis-label" x="553.924050633" y="540">70</text>
		<path class="x-notch" d="M 590.632911392 525 L 590.632911392 530"/>
	</g>
</svg>
