<?xml version="1.0" ?>
<svg height="600" version="1.1" width="800" xmlns="http://www.w3.org/2000/svg" xmlns:svg="http://www.w3.org/2000/svg">
	<style type="text/css">
		

.x-axis-path, .y-gridline, .x-notch { fill:none; stroke: #a7a9ac; stroke-width:1; }



.y-gridline { stroke-width: 1; }

.y-axis-path, .y-axis-path2, .x-notch-left, .x-notch-right { display: none;}



.x-axis-label, .data-point-label {font-size: 12px; font-weight:normal; font-family: sans-serif; fill: #58595b; text-anchor:middle;}

.y-axis-label {font-size: 12px; font-family: helvetica; fill: #a7a9ac; text-anchor:end;}



.series-1-line { fill: none; stroke: #10b80c; stroke-width:2; }



.series-2-line { fill: none; stroke: #e90f0a; stroke-width: 2;}

	</style>
	<rect fill="white" height="600" width="800" x="0" y="0"/>
	<g id="grid" transform="translate(70, 30)">
		<g class="x-axis" id="x_axis">
			<path class="x-axis-path" d="M 0 525 L 660 525"/>
			<path class="x-notch-left" d="M 0 525, L 0 535"/>
			<path class="x-notch-right" d="M 660 525, L 660 535"/>
		</g>
		<g class="y-axis" id="y_axis">
			<path class="y-axis-path" d="M 0 525 L 0 0"/>
			<path class="y-axis-path-2" d="M 660 525 L 660 0"/>
			<path class="y-gridline" d="M 0 525 L 660 525"/>
			<text class="y-axis-label" x="-5" y="525">
				-200
			</text>
			<path class="y-gridline" d="M 0 394 L 660 394"/>
			<text class="y-axis-label" x="-5" y="394">
				 0
			</text>
			<path class="y-gridline" d="M 0 263 L 660 263"/>
			<text class="y-axis-label" x="-5" y="263">
				200
			</text>
			<path class="y-gridline" d="M 0 132 L 660 132"/>
			<text class="y-axis-label" x="-5" y="132">
				400
			</text>
			<path class="y-gridline" d="M 0 1 L 660 1"/>
			<text class="y-axis-label" x="-5" y="1">
				600
			</text>
		</g>
		<g>
			<path class="series-1-line" d="M 40 369.364981296 L 47 405.14545833 L 54 391.518128521 L 62 383.59720684 L 69 409.162982064 L 76 387.758045748 L 84 351.102335338 L 91 392.670319736 L 98 405.726855088 L 106 385.09362866 L 113 406.699480405 L 120 385.842914292 L 128 381.333545887 L 135 401.010122914 L 142 389.840163218 L 150 408.826446383 L 157 434.249981155 L 164 389.999454307 L 172 361.730545031 L 179 349.403020504 L 186 344.792278058 L 194 321.295551764 L 201 295.382321767 L 208 254.32000851 L 216 224.852984786 L 223 179.891572475 L 230 107.454310307 L 238 133.304566434 L 245 67.7718268428 L 252 81.0314270706 L 260 84.4621804308 L 267 56.761916166 L 274 85.0286759958 L 282 10.5404902598 L 289 0.0 L 296 76.1308301056 L 304 144.15933998 L 311 120.601789262 L 318 152.056762683 L 326 159.021034961 L 333 149.698933957 L 341 174.858579429 L 348 241.221703885 L 355 188.320169809 L 363 195.52805658 L 370 190.653424834 L 377 249.868412221 L 385 309.631769811 L 392 297.730649844 L 399 342.364882189 L 407 381.496088074 L 414 382.327547663 L 421 385.697476599 L 429 390.184420749 L 436 410.328268746 L 443 412.763972534 L 451 417.717870861 L 458 410.304769768 L 465 422.853484533 L 473 416.658772695 L 480 419.825636755 L 487 428.211363165 L 495 414.929338683 L 502 419.599072901 L 509 410.540861198 L 517 408.509137715 L 524 412.061856718 L 531 403.937870162 L 539 401.134436791 L 546 407.306724374 L 553 422.109744377 L 561 393.454980157 L 568 407.892420024 L 575 398.529769404 L 583 396.152740593 L 590 396.760860498 L 597 412.843094181 L 605 384.919490233 L 612 393.366357861 L 620 395.80206165"/>
			<path class="series-2-line" d="M 40 392.482824487 L 47 400.357132324 L 54 393.975715638 L 62 393.138191823 L 69 388.340744528 L 76 390.671159495 L 84 393.793559158 L 91 394.540004734 L 98 395.28645031 L 106 400.78480406 L 113 395.987356765 L 120 405.445633994 L 128 397.480247917 L 135 384.762953665 L 142 396.597184981 L 150 398.927599948 L 157 385.418321001 L 164 399.628506404 L 172 391.663120327 L 179 398.745443468 L 186 406.619751305 L 194 395.486426445 L 201 390.688979151 L 208 401.731225771 L 216 395.349809085 L 223 396.888239357 L 230 391.298807367 L 238 403.925023378 L 245 402.295514867 L 252 402.249975747 L 260 391.116650887 L 267 387.111188288 L 274 393.401526734 L 282 398.899880484 L 289 405.190218929 L 296 388.5130012 L 304 400.347232515 L 311 398.717724004 L 318 401.840123667 L 326 395.458706981 L 333 396.997137252 L 341 393.78365935 L 348 387.402242664 L 355 392.108611718 L 363 378.599332771 L 370 396.769441652 L 377 393.55596375 L 385 397.470348108 L 392 399.800763075 L 399 385.499499432 L 407 395.749761357 L 414 388.576359975 L 421 386.946851464 L 429 396.405128692 L 436 403.487451834 L 443 393.14611167 L 451 391.516603158 L 458 404.142819169 L 465 391.425524918 L 473 399.299832755 L 480 398.462308939 L 487 386.536999384 L 495 388.075429655 L 502 399.909660971 L 509 391.152290198 L 517 398.234613339 L 524 398.981058915 L 531 398.935519795 L 539 402.849904154 L 546 396.468487468 L 553 402.758825914 L 561 393.209470445 L 568 394.747900717 L 575 402.622208554 L 583 401.784684738 L 590 398.571206835 L 597 390.605820758 L 605 390.560281638 L 612 400.018558867 L 620 389.677218702"/>
		</g>
		<text class="x-axis-label" x="40.0" y="540">
			0
		</text>
		<path class="x-notch" d="M 76.7088607595 525 L 76.7088607595 530"/>
		<text class="x-axis-label" x="113.417721519" y="540">
			10
		</text>
		<path class="x-notch" d="M 150.126582278 525 L 150.126582278 530"/>
		<text class="x-axis-label" x="186.835443038" y="540">
			20
		</text>
		<path class="x-notch" d="M 223.544303797 525 L 223.544303797 530"/>
		<text class="x-axis-label" x="260.253164557" y="540">
			30
		</text>
		<path class="x-notch" d="M 296.962025316 525 L 296.962025316 530"/>
		<text class="x-axis-label" x="333.670886076" y="540">
			40
		</text>
		<path class="x-notch" d="M 370.379746835 525 L 370.379746835 530"/>
		<text class="x-axis-label" x="407.088607595" y="540">
			50
		</text>
		<path class="x-notch" d="M 443.797468354 525 L 443.797468354 530"/>
		<text class="x-axis-label" x="480.506329114" y="540">
			60
		</text>
		<path class="x-notch" d="M 517.215189873 525 L 517.215189873 530"/>
		<text class="x-axis-label" x="553.924050633" y="540">
			70
		</text>
		<path class="x-notch" d="M 590.632911392 525 L 590.632911392 530"/>
	</g>
</svg>
