<?xml version="1.0" ?>
<svg height="600" version="1.1" width="800" xmlns="http://www.w3.org/2000/svg" xmlns:svg="http://www.w3.org/2000/svg">
	<style type="text/css">
		

.x-axis-path, .y-gridline, .x-notch { fill:none; stroke: #a7a9ac; stroke-width:1; }



.y-gridline { stroke-width: 1; }

.y-axis-path, .y-axis-path2, .x-notch-left, .x-notch-right { display: none;}



.x-axis-label, .data-point-label {font-size: 12px; font-weight:normal; font-family: sans-serif; fill: #58595b; text-anchor:middle;}

.y-axis-label {font-size: 12px; font-family: helvetica; fill: #a7a9ac; text-anchor:end;}



.series-1-line { fill: none; stroke: #10b80c; stroke-width:2; }



.series-2-line { fill: none; stroke: #e90f0a; stroke-width: 2;}

	</style>
	<rect fill="white" height="600" width="800" x="0" y="0"/>
	<g id="grid" transform="translate(70, 30)">
		<g class="x-axis" id="x_axis">
			<path class="x-axis-path" d="M 0 525 L 660 525"/>
			<path class="x-notch-left" d="M 0 525, L 0 535"/>
			<path class="x-notch-right" d="M 660 525, L 660 535"/>
		</g>
		<g class="y-axis" id="y_axis">
			<path class="y-axis-path" d="M 0 525 L 0 0"/>
			<path class="y-axis-path-2" d="M 660 525 L 660 0"/>
			<path class="y-gridline" d="M 0 525 L 660 525"/>
			<text class="y-axis-label" x="-5" y="525">
				-200
			</text>
			<path class="y-gridline" d="M 0 394 L 660 394"/>
			<text class="y-axis-label" x="-5" y="394">
				 0
			</text>
			<path class="y-gridline" d="M 0 263 L 660 263"/>
			<text class="y-axis-label" x="-5" y="263">
				200
			</text>
			<path class="y-gridline" d="M 0 132 L 660 132"/>
			<text class="y-axis-label" x="-5" y="132">
				400
			</text>
			<path class="y-gridline" d="M 0 1 L 660 1"/>
			<text class="y-axis-label" x="-5" y="1">
				600
			</text>
		</g>
		<g>
			<path class="series-1-line" d="M 40 404.93985 L 45 389.42233835 L 51 389.048976699 L 57 388.355890049 L 62 393.249328398 L 68 378.892854248 L 74 416.430530097 L 79 410.857568447 L 85 390.106856796 L 91 398.433007646 L 96 380.812083495 L 102 388.633446845 L 108 408.973960194 L 113 394.112698544 L 119 400.015711893 L 125 393.466775243 L 130 387.372488592 L 136 403.960564442 L 142 391.825102791 L 148 387.160916141 L 153 393.40045449 L 159 385.28675534 L 165 359.454306189 L 170 377.557007039 L 176 376.560995388 L 182 400.485683738 L 187 408.323847087 L 193 349.678897937 L 199 331.670786286 L 204 317.280712136 L 210 252.897775485 L 216 255.822463835 L 221 178.348127184 L 227 171.429065534 L 233 129.577291383 L 239 62.064567233 L 244 79.1576930825 L 250 117.738543932 L 256 63.7377447816 L 261 84.1961206311 L 267 27.0655339806 L 273 23.2594598301 L 278 12.7058231796 L 284 1.12581152913 L 290 29.4759873786 L 295 17.6266507282 L 301 159.356614078 L 307 128.021639927 L 312 187.299828277 L 318 146.625891626 L 324 139.824692476 L 330 173.054743325 L 335 229.152481675 L 341 229.603632524 L 347 246.763958374 L 352 249.116659223 L 358 339.372997573 L 364 320.136648422 L 369 334.183986772 L 375 362.652025121 L 381 337.526225971 L 386 360.15521432 L 392 368.17844017 L 398 393.213766019 L 403 367.583179369 L 409 383.784330218 L 415 380.600906068 L 420 390.592881917 L 426 409.233970267 L 432 386.665971117 L 438 390.869559466 L 443 394.147572816 L 449 410.500186165 L 455 402.066762015 L 460 391.227000364 L 466 387.185463714 L 472 405.405764563 L 477 399.328015413 L 483 400.435416262 L 489 399.675129612 L 494 397.231955461 L 500 390.733681311 L 506 395.44205716 L 511 402.47250801 L 517 393.197771359 L 523 391.394047209 L 529 400.023123058 L 534 406.060798908 L 540 410.079324757 L 546 395.167400607 L 551 400.195501456 L 557 393.377502306 L 563 404.513715655 L 568 402.945716505 L 574 387.730867354 L 580 398.463355704 L 585 395.347131553 L 591 402.461844903 L 597 388.324033252 L 602 397.508296602 L 608 401.207097451 L 614 382.946723301 L 620 404.36427415"/>
			<path class="series-2-line" d="M 40 388.5 L 45 396.375 L 51 396.375 L 57 395.0625 L 62 392.4375 L 68 398.34375 L 74 396.375 L 79 388.5 L 85 393.75 L 91 393.09375 L 96 396.375 L 102 397.6875 L 108 391.125 L 113 399.0 L 119 392.4375 L 125 383.25 L 130 405.5625 L 136 395.71875 L 142 387.84375 L 148 391.78125 L 153 383.90625 L 159 388.5 L 165 393.09375 L 170 402.9375 L 176 397.6875 L 182 395.0625 L 187 393.75 L 193 398.34375 L 199 385.21875 L 204 396.375 L 210 400.3125 L 216 397.6875 L 221 396.375 L 227 393.75 L 233 389.15625 L 239 395.0625 L 244 408.84375 L 250 397.6875 L 256 394.40625 L 261 395.0625 L 267 393.75 L 273 391.78125 L 278 393.09375 L 284 400.96875 L 290 399.0 L 295 397.6875 L 301 393.75 L 307 386.53125 L 312 397.03125 L 318 387.84375 L 324 392.4375 L 330 397.03125 L 335 391.78125 L 341 391.125 L 347 394.40625 L 352 404.25 L 358 393.75 L 364 393.09375 L 369 395.71875 L 375 400.96875 L 381 397.6875 L 386 392.4375 L 392 387.84375 L 398 391.125 L 403 389.8125 L 409 389.15625 L 415 392.4375 L 420 387.84375 L 426 390.46875 L 432 397.6875 L 438 400.3125 L 443 393.75 L 449 395.0625 L 455 398.34375 L 460 393.09375 L 466 402.28125 L 472 393.75 L 477 387.84375 L 483 387.1875 L 489 396.375 L 494 386.53125 L 500 395.0625 L 506 395.71875 L 511 392.4375 L 517 399.0 L 523 391.78125 L 529 395.0625 L 534 393.09375 L 540 399.0 L 546 389.15625 L 551 391.125 L 557 398.34375 L 563 394.40625 L 568 401.625 L 574 387.84375 L 580 395.71875 L 585 388.5 L 591 397.6875 L 597 395.0625 L 602 388.5 L 608 393.09375 L 614 393.75 L 620 398.34375"/>
		</g>
		<text class="x-axis-label" x="40.0" y="540">
			0
		</text>
		<path class="x-notch" d="M 68.431372549 525 L 68.431372549 530"/>
		<text class="x-axis-label" x="96.862745098" y="540">
			10
		</text>
		<path class="x-notch" d="M 125.294117647 525 L 125.294117647 530"/>
		<text class="x-axis-label" x="153.725490196" y="540">
			20
		</text>
		<path class="x-notch" d="M 182.156862745 525 L 182.156862745 530"/>
		<text class="x-axis-label" x="210.588235294" y="540">
			30
		</text>
		<path class="x-notch" d="M 239.019607843 525 L 239.019607843 530"/>
		<text class="x-axis-label" x="267.450980392" y="540">
			40
		</text>
		<path class="x-notch" d="M 295.882352941 525 L 295.882352941 530"/>
		<text class="x-axis-label" x="324.31372549" y="540">
			50
		</text>
		<path class="x-notch" d="M 352.745098039 525 L 352.745098039 530"/>
		<text class="x-axis-label" x="381.176470588" y="540">
			60
		</text>
		<path class="x-notch" d="M 409.607843137 525 L 409.607843137 530"/>
		<text class="x-axis-label" x="438.039215686" y="540">
			70
		</text>
		<path class="x-notch" d="M 466.470588235 525 L 466.470588235 530"/>
		<text class="x-axis-label" x="494.901960784" y="540">
			80
		</text>
		<path class="x-notch" d="M 523.333333333 525 L 523.333333333 530"/>
		<text class="x-axis-label" x="551.764705882" y="540">
			90
		</text>
		<path class="x-notch" d="M 580.196078431 525 L 580.196078431 530"/>
		<text class="x-axis-label" x="608.62745098" y="540">
			100
		</text>
		<path class="x-notch" d="M 637.058823529 525 L 637.058823529 530"/>
	</g>
</svg>
