<?xml version="1.0" ?>
<svg height="600" version="1.1" width="800" xmlns="http://www.w3.org/2000/svg" xmlns:svg="http://www.w3.org/2000/svg">
	<style type="text/css">

.x-axis-path, .y-gridline, .x-notch { fill:none; stroke: #a7a9ac; stroke-width:1; }



.y-gridline { stroke-width: 1; }

.y-axis-path, .y-axis-path2, .x-notch-left, .x-notch-right { display: none;}



.x-axis-label, .data-point-label {font-size: 12px; font-weight:normal; font-family: sans-serif; fill: #58595b; text-anchor:middle;}

.y-axis-label {font-size: 12px; font-family: helvetica; fill: #a7a9ac; text-anchor:end;}



.series-1-line { fill: none; stroke: #10b80c; stroke-width:2; }



.series-2-line { fill: none; stroke: #e90f0a; stroke-width: 2;}
</style>
	<rect fill="white" height="600" width="800" x="0" y="0"/>
	<g id="grid" transform="translate(70, 30)">
		<g class="x-axis" id="x_axis">
			<path class="x-axis-path" d="M 0 525 L 660 525"/>
			<path class="x-notch-left" d="M 0 525, L 0 535"/>
			<path class="x-notch-right" d="M 660 525, L 660 535"/>
		</g>
		<g class="y-axis" id="y_axis">
			<path class="y-axis-path" d="M 0 525 L 0 0"/>
			<path class="y-axis-path-2" d="M 660 525 L 660 0"/>
			<path class="y-gridline" d="M 0 525 L 660 525"/>
			<text class="y-axis-label" x="-5" y="525">-200</text>
			<path class="y-gridline" d="M 0 394 L 660 394"/>
			<text class="y-axis-label" x="-5" y="394"> 0</text>
			<path class="y-gridline" d="M 0 263 L 660 263"/>
			<text class="y-axis-label" x="-5" y="263">200</text>
			<path class="y-gridline" d="M 0 132 L 660 132"/>
			<text class="y-axis-label" x="-5" y="132">400</text>
			<path class="y-gridline" d="M 0 1 L 660 1"/>
			<text class="y-axis-label" x="-5" y="1">600</text>
		</g>
		<g>
			<path class="series-1-line" d="M 40 396.163570393 L 47 393.112567013 L 54 390.575904028 L 61 398.225840845 L 68 388.089643744 L 75 397.165424776 L 82 380.267589146 L 89 369.793390376 L 96 380.177380036 L 103 359.428297447 L 110 373.795845439 L 117 385.032406471 L 124 369.222413388 L 131 356.219852071 L 139 367.206466144 L 146 366.610217078 L 153 358.002823994 L 160 374.251853457 L 167 352.620847926 L 174 345.674340923 L 181 365.318980089 L 188 344.172963383 L 195 309.033356579 L 202 279.111908501 L 209 231.874639546 L 216 209.391062642 L 223 180.910134565 L 230 191.97035687 L 238 141.925656148 L 245 80.9445147446 L 252 91.2698012654 L 259 76.9883828909 L 266 21.0933181509 L 273 1.63776840445 L 280 62.0141309943 L 287 27.8298260559 L 294 8.37427630948 L 301 12.9961859698 L 308 66.4052197347 L 315 0.0 L 322 31.5510574973 L 330 73.2593632272 L 337 13.351388586 L 344 19.1638712867 L 351 32.2378864353 L 358 110.165341078 L 365 99.8968326044 L 372 107.943703538 L 379 153.576635151 L 386 170.634208631 L 393 229.790417302 L 400 251.243159015 L 407 311.85479278 L 414 290.855763231 L 421 344.779137391 L 429 367.275464987 L 436 380.805117391 L 443 395.451963912 L 450 410.68675906 L 457 410.560823035 L 464 402.717717306 L 471 403.165054123 L 478 385.723297219 L 485 390.168868153 L 492 401.243766244 L 499 406.409597177 L 506 374.636019198 L 513 415.403469538 L 520 381.013474304 L 528 411.594324842 L 535 392.829683526 L 542 408.637751517 L 549 395.179552945 L 556 399.948449762 L 563 379.625652859 L 570 415.586554374 L 577 393.573290511 L 584 387.596990468 L 591 389.852429832 L 598 391.24039273 L 605 395.494949153 L 612 400.278521755 L 620 395.757417496"/>
			<path class="series-2-line" d="M 40 388.361235276 L 47 399.24236825 L 54 396.938225835 L 61 392.914264892 L 68 391.18339532 L 75 388.305980062 L 82 390.588020391 L 89 396.882970622 L 96 391.139191149 L 103 390.554867263 L 110 389.397270534 L 117 384.800036747 L 124 396.254442565 L 131 394.523572993 L 139 384.193610776 L 146 392.208379535 L 153 397.930056923 L 160 393.906095979 L 167 396.761409151 L 174 389.297811149 L 181 392.153124322 L 188 386.409344849 L 195 394.997386451 L 202 394.413062565 L 209 389.815828779 L 216 391.524596265 L 223 389.793726693 L 230 390.355948493 L 238 398.943990096 L 245 392.053664937 L 252 395.482250952 L 259 392.031562851 L 266 396.606694553 L 273 395.449097824 L 280 393.718228252 L 287 387.401175936 L 294 386.243579207 L 301 385.085982479 L 308 397.113661139 L 315 386.783698922 L 322 387.919193565 L 330 391.921052424 L 337 396.496184125 L 344 388.45931328 L 351 387.874989394 L 358 398.182849526 L 365 394.732161425 L 372 395.867656068 L 379 391.270422281 L 386 395.27228114 L 393 382.649227551 L 400 394.103633368 L 407 400.398583599 L 414 394.081531283 L 421 392.923934554 L 429 398.072339098 L 436 393.475105311 L 443 393.464054269 L 450 391.159911854 L 457 392.86867934 L 464 391.137809768 L 471 392.846577255 L 478 390.54243484 L 485 394.544293698 L 492 392.813424126 L 499 396.242010142 L 506 393.937867727 L 513 388.194088254 L 520 391.622674269 L 528 387.598713325 L 535 390.454026498 L 542 388.149884083 L 549 390.431924412 L 556 388.70105484 L 563 388.690003798 L 570 394.984954028 L 577 390.387720241 L 584 388.083577826 L 591 398.391437958 L 598 387.488202898 L 605 398.942608715 L 612 394.918647772 L 620 389.174868299"/>
		</g>
		<text class="x-axis-label" x="40.0" y="540">0</text>
		<path class="x-notch" d="M 75.3658536585 525 L 75.3658536585 530"/>
		<text class="x-axis-label" x="110.731707317" y="540">10</text>
		<path class="x-notch" d="M 146.097560976 525 L 146.097560976 530"/>
		<text class="x-axis-label" x="181.463414634" y="540">20</text>
		<path class="x-notch" d="M 216.829268293 525 L 216.829268293 530"/>
		<text class="x-axis-label" x="252.195121951" y="540">30</text>
		<path class="x-notch" d="M 287.56097561 525 L 287.56097561 530"/>
		<text class="x-axis-label" x="322.926829268" y="540">40</text>
		<path class="x-notch" d="M 358.292682927 525 L 358.292682927 530"/>
		<text class="x-axis-label" x="393.658536585" y="540">50</text>
		<path class="x-notch" d="M 429.024390244 525 L 429.024390244 530"/>
		<text class="x-axis-label" x="464.390243902" y="540">60</text>
		<path class="x-notch" d="M 499.756097561 525 L 499.756097561 530"/>
		<text class="x-axis-label" x="535.12195122" y="540">70</text>
		<path class="x-notch" d="M 570.487804878 525 L 570.487804878 530"/>
		<text class="x-axis-label" x="605.853658537" y="540">80</text>
		<path class="x-notch" d="M 641.219512195 525 L 641.219512195 530"/>
	</g>
</svg>
