<?xml version="1.0" ?>
<svg height="600" version="1.1" width="800" xmlns="http://www.w3.org/2000/svg" xmlns:svg="http://www.w3.org/2000/svg">
	<style type="text/css">

.x-axis-path, .y-gridline, .x-notch { fill:none; stroke: #a7a9ac; stroke-width:1; }



.y-gridline { stroke-width: 1; }

.y-axis-path, .y-axis-path2, .x-notch-left, .x-notch-right { display: none;}



.x-axis-label, .data-point-label {font-size: 12px; font-weight:normal; font-family: sans-serif; fill: #58595b; text-anchor:middle;}

.y-axis-label {font-size: 12px; font-family: helvetica; fill: #a7a9ac; text-anchor:end;}



.series-1-line { fill: none; stroke: #10b80c; stroke-width:2; }



.series-2-line { fill: none; stroke: #e90f0a; stroke-width: 2;}
</style>
	<rect fill="white" height="600" width="800" x="0" y="0"/>
	<g id="grid" transform="translate(70, 30)">
		<g class="x-axis" id="x_axis">
			<path class="x-axis-path" d="M 0 525 L 660 525"/>
			<path class="x-notch-left" d="M 0 525, L 0 535"/>
			<path class="x-notch-right" d="M 660 525, L 660 535"/>
		</g>
		<g class="y-axis" id="y_axis">
			<path class="y-axis-path" d="M 0 525 L 0 0"/>
			<path class="y-axis-path-2" d="M 660 525 L 660 0"/>
			<path class="y-gridline" d="M 0 525 L 660 525"/>
			<text class="y-axis-label" x="-5" y="525">-200</text>
			<path class="y-gridline" d="M 0 394 L 660 394"/>
			<text class="y-axis-label" x="-5" y="394"> 0</text>
			<path class="y-gridline" d="M 0 263 L 660 263"/>
			<text class="y-axis-label" x="-5" y="263">200</text>
			<path class="y-gridline" d="M 0 132 L 660 132"/>
			<text class="y-axis-label" x="-5" y="132">400</text>
			<path class="y-gridline" d="M 0 1 L 660 1"/>
			<text class="y-axis-label" x="-5" y="1">600</text>
		</g>
		<g>
			<path class="series-1-line" d="M 40 371.02490564 L 49 378.390691878 L 59 383.332143125 L 68 409.854167327 L 78 415.300863431 L 87 403.375434649 L 97 405.522808308 L 106 408.680146479 L 116 397.461640335 L 125 381.294150522 L 135 322.908253386 L 144 385.386694857 L 154 399.418351913 L 163 381.53397495 L 173 419.502788822 L 182 367.244429886 L 192 372.421697081 L 201 345.413501346 L 211 270.127111216 L 220 287.761132592 L 230 252.874898544 L 239 162.202699588 L 249 110.617650327 L 258 180.738314164 L 268 138.84955446 L 277 0.0 L 287 65.441109079 L 296 45.6712549466 L 306 7.78874032588 L 315 121.406679706 L 325 116.618753636 L 334 130.583184766 L 344 136.804029435 L 353 221.704418352 L 363 180.320378302 L 372 251.754048525 L 382 240.771358328 L 391 300.051316243 L 401 295.094800153 L 410 345.722571189 L 420 355.309964232 L 429 324.665791214 L 439 348.090695953 L 448 389.493284124 L 458 356.088646481 L 467 370.860839139 L 477 388.259044568 L 486 390.675847137 L 496 382.285556748 L 505 407.4609616 L 515 402.908326274 L 524 391.85841015 L 534 382.592607103 L 543 410.831518454 L 553 403.75423445 L 562 395.767824825 L 572 409.395601117 L 581 407.031484835 L 591 415.474461512 L 600 381.328763065 L 610 383.71195267 L 620 397.474180817"/>
			<path class="series-2-line" d="M 40 395.325607663 L 49 408.52343959 L 59 390.209118263 L 68 385.024860792 L 78 390.344654406 L 87 391.725428863 L 97 399.671235249 L 106 403.678022477 L 116 397.18075862 L 125 394.622513921 L 135 372.369173437 L 144 390.819030907 L 154 388.260786207 L 163 397.519598978 L 173 398.900373435 L 182 393.716115964 L 192 389.844864879 L 201 388.599626565 L 211 391.293407408 L 220 390.048169093 L 230 388.802930779 L 239 384.931679694 L 249 377.121409452 L 258 381.12819668 L 268 396.952041379 L 277 381.263732823 L 287 398.400583908 L 296 394.529332822 L 306 399.849126436 L 315 377.595785952 L 325 392.106624266 L 334 400.052430651 L 344 386.990134866 L 353 389.683915709 L 363 377.93462631 L 372 381.941413538 L 382 389.887219924 L 391 395.207013538 L 401 384.770730524 L 410 408.472613537 L 420 382.280253896 L 429 384.974034739 L 439 402.110885823 L 448 379.857545339 L 458 403.559428352 L 467 387.871119796 L 477 372.18281124 L 486 389.319662325 L 496 402.517494252 L 505 402.585262324 L 515 380.33192184 L 524 398.78177931 L 534 394.910528225 L 543 377.909213283 L 553 391.107045211 L 562 392.487819668 L 572 401.746632439 L 581 396.562374968 L 591 395.317136654 L 600 380.941834484 L 610 403.330711111 L 620 391.581421711"/>
		</g>
		<text class="x-axis-label" x="40.0" y="540">0</text>
		<path class="x-notch" d="M 87.5409836066 525 L 87.5409836066 530"/>
		<text class="x-axis-label" x="135.081967213" y="540">10</text>
		<path class="x-notch" d="M 182.62295082 525 L 182.62295082 530"/>
		<text class="x-axis-label" x="230.163934426" y="540">20</text>
		<path class="x-notch" d="M 277.704918033 525 L 277.704918033 530"/>
		<text class="x-axis-label" x="325.245901639" y="540">30</text>
		<path class="x-notch" d="M 372.786885246 525 L 372.786885246 530"/>
		<text class="x-axis-label" x="420.327868852" y="540">40</text>
		<path class="x-notch" d="M 467.868852459 525 L 467.868852459 530"/>
		<text class="x-axis-label" x="515.409836066" y="540">50</text>
		<path class="x-notch" d="M 562.950819672 525 L 562.950819672 530"/>
		<text class="x-axis-label" x="610.491803279" y="540">60</text>
		<path class="x-notch" d="M 658.032786885 525 L 658.032786885 530"/>
	</g>
</svg>
