<?xml version="1.0" ?>
<svg height="600" version="1.1" width="800" xmlns="http://www.w3.org/2000/svg" xmlns:svg="http://www.w3.org/2000/svg">
	<style type="text/css">

.x-axis-path, .y-gridline, .x-notch { fill:none; stroke: #a7a9ac; stroke-width:1; }



.y-gridline { stroke-width: 1; }

.y-axis-path, .y-axis-path2, .x-notch-left, .x-notch-right { display: none;}



.x-axis-label, .data-point-label {font-size: 12px; font-weight:normal; font-family: sans-serif; fill: #58595b; text-anchor:middle;}

.y-axis-label {font-size: 12px; font-family: helvetica; fill: #a7a9ac; text-anchor:end;}



.series-1-line { fill: none; stroke: #10b80c; stroke-width:2; }



.series-2-line { fill: none; stroke: #e90f0a; stroke-width: 2;}
</style>
	<rect fill="white" height="600" width="800" x="0" y="0"/>
	<g id="grid" transform="translate(70, 30)">
		<g class="x-axis" id="x_axis">
			<path class="x-axis-path" d="M 0 525 L 660 525"/>
			<path class="x-notch-left" d="M 0 525, L 0 535"/>
			<path class="x-notch-right" d="M 660 525, L 660 535"/>
		</g>
		<g class="y-axis" id="y_axis">
			<path class="y-axis-path" d="M 0 525 L 0 0"/>
			<path class="y-axis-path-2" d="M 660 525 L 660 0"/>
			<path class="y-gridline" d="M 0 525 L 660 525"/>
			<text class="y-axis-label" x="-5" y="525">-200</text>
			<path class="y-gridline" d="M 0 394 L 660 394"/>
			<text class="y-axis-label" x="-5" y="394"> 0</text>
			<path class="y-gridline" d="M 0 263 L 660 263"/>
			<text class="y-axis-label" x="-5" y="263">200</text>
			<path class="y-gridline" d="M 0 132 L 660 132"/>
			<text class="y-axis-label" x="-5" y="132">400</text>
			<path class="y-gridline" d="M 0 1 L 660 1"/>
			<text class="y-axis-label" x="-5" y="1">600</text>
		</g>
		<g>
			<path class="series-1-line" d="M 40 386.622304212 L 46 400.381686699 L 53 402.306312638 L 60 380.828453303 L 67 398.91173944 L 74 415.680052627 L 81 396.542511358 L 88 385.094189229 L 95 399.633793635 L 102 392.108138036 L 109 383.04463861 L 115 374.694604147 L 122 388.297872711 L 129 378.877988495 L 136 401.218073634 L 143 409.673059685 L 150 381.241350801 L 157 401.241465566 L 164 404.614578366 L 171 388.285349237 L 178 362.617447857 L 185 412.438798722 L 191 377.498982045 L 198 391.436730773 L 205 389.349333214 L 212 324.566028118 L 219 330.457825225 L 226 312.278524424 L 233 291.201902208 L 240 232.703834027 L 247 254.107931016 L 254 224.138378305 L 260 238.923105908 L 267 206.323607296 L 274 150.34387573 L 281 197.735899255 L 288 133.821825352 L 295 123.688476173 L 302 90.3310079602 L 309 35.4882307949 L 316 53.5937692503 L 323 111.4165671 L 330 111.023127291 L 336 27.8298532056 L 343 0.0 L 350 105.675018139 L 357 171.276392094 L 364 218.490049378 L 371 229.195996528 L 378 211.172809649 L 385 200.370847836 L 392 228.394661903 L 399 316.016443534 L 405 230.750226898 L 412 286.076940451 L 419 335.207426364 L 426 417.881196348 L 433 400.259246588 L 440 381.768065635 L 447 394.658216929 L 454 418.580998225 L 461 408.18027353 L 468 401.947338562 L 475 408.975742378 L 481 390.283942865 L 488 392.297578078 L 495 427.676478814 L 502 422.31277504 L 509 422.164458429 L 516 397.187422001 L 523 402.366101836 L 530 393.280350091 L 537 392.218297648 L 544 412.931529685 L 550 391.342408757 L 557 385.555215546 L 564 390.845156974 L 571 395.845470569 L 578 377.643917449 L 585 370.073757214 L 592 417.79991321 L 599 406.842185166 L 606 393.432529771 L 613 361.278772915 L 620 388.945854501"/>
			<path class="series-2-line" d="M 40 393.75 L 46 387.683788893 L 53 397.263739272 L 60 396.412915327 L 67 393.823628995 L 74 392.97280505 L 81 399.945061849 L 88 393.878850742 L 95 401.720338734 L 102 393.915665239 L 109 388.718685326 L 115 407.860178836 L 122 392.232424598 L 129 408.766224527 L 136 386.18462074 L 143 394.026108732 L 150 393.175284787 L 157 396.670616811 L 164 383.650556154 L 171 393.230506534 L 178 401.941225719 L 185 397.613477 L 191 395.024190667 L 198 395.042597916 L 205 386.368693228 L 212 395.079412414 L 219 395.967050856 L 226 389.031608556 L 233 393.396171773 L 240 404.71458454 L 247 392.563755077 L 254 394.320624713 L 260 397.815956737 L 267 403.049751147 L 274 394.375846459 L 281 396.132716096 L 288 404.843435281 L 295 397.038761787 L 302 384.887932324 L 309 402.290963447 L 316 396.22475234 L 323 397.981621976 L 330 396.261566837 L 336 395.410742892 L 343 402.382999691 L 350 397.186019777 L 357 405.896738963 L 364 401.568990243 L 371 397.241241524 L 378 399.867342354 L 385 394.67036244 L 392 400.773388045 L 399 398.184101713 L 405 381.687116282 L 412 399.959378598 L 419 401.716248234 L 426 391.303881159 L 433 399.14536915 L 440 406.986857142 L 447 400.920646035 L 454 402.677515672 L 461 402.69592292 L 468 396.629711813 L 475 389.694269513 L 481 394.928063924 L 488 390.600315204 L 495 401.918727971 L 502 395.852516864 L 509 389.786305757 L 516 392.412406587 L 523 402.86158816 L 530 401.141533021 L 537 402.029171464 L 544 395.962960357 L 550 412.496760285 L 557 404.692086791 L 564 397.75664449 L 571 402.121207708 L 578 398.662690182 L 585 397.811866237 L 592 381.314880806 L 599 400.456374315 L 606 395.259394402 L 613 398.754726426 L 620 392.688515319"/>
		</g>
		<text class="x-axis-label" x="40.0" y="540">0</text>
		<path class="x-notch" d="M 74.5238095238 525 L 74.5238095238 530"/>
		<text class="x-axis-label" x="109.047619048" y="540">10</text>
		<path class="x-notch" d="M 143.571428571 525 L 143.571428571 530"/>
		<text class="x-axis-label" x="178.095238095" y="540">20</text>
		<path class="x-notch" d="M 212.619047619 525 L 212.619047619 530"/>
		<text class="x-axis-label" x="247.142857143" y="540">30</text>
		<path class="x-notch" d="M 281.666666667 525 L 281.666666667 530"/>
		<text class="x-axis-label" x="316.19047619" y="540">40</text>
		<path class="x-notch" d="M 350.714285714 525 L 350.714285714 530"/>
		<text class="x-axis-label" x="385.238095238" y="540">50</text>
		<path class="x-notch" d="M 419.761904762 525 L 419.761904762 530"/>
		<text class="x-axis-label" x="454.285714286" y="540">60</text>
		<path class="x-notch" d="M 488.80952381 525 L 488.80952381 530"/>
		<text class="x-axis-label" x="523.333333333" y="540">70</text>
		<path class="x-notch" d="M 557.857142857 525 L 557.857142857 530"/>
		<text class="x-axis-label" x="592.380952381" y="540">80</text>
		<path class="x-notch" d="M 626.904761905 525 L 626.904761905 530"/>
	</g>
</svg>
