<?xml version="1.0" ?>
<svg height="600" version="1.1" width="800" xmlns="http://www.w3.org/2000/svg" xmlns:svg="http://www.w3.org/2000/svg">
	<style type="text/css">

.x-axis-path, .y-gridline, .x-notch { fill:none; stroke: #a7a9ac; stroke-width:1; }



.y-gridline { stroke-width: 1; }

.y-axis-path, .y-axis-path2, .x-notch-left, .x-notch-right { display: none;}



.x-axis-label, .data-point-label {font-size: 12px; font-weight:normal; font-family: sans-serif; fill: #58595b; text-anchor:middle;}

.y-axis-label {font-size: 12px; font-family: helvetica; fill: #a7a9ac; text-anchor:end;}



.series-1-line { fill: none; stroke: #10b80c; stroke-width:2; }



.series-2-line { fill: none; stroke: #e90f0a; stroke-width: 2;}
</style>
	<rect fill="white" height="600" width="800" x="0" y="0"/>
	<g id="grid" transform="translate(70, 30)">
		<g class="x-axis" id="x_axis">
			<path class="x-axis-path" d="M 0 525 L 660 525"/>
			<path class="x-notch-left" d="M 0 525, L 0 535"/>
			<path class="x-notch-right" d="M 660 525, L 660 535"/>
		</g>
		<g class="y-axis" id="y_axis">
			<path class="y-axis-path" d="M 0 525 L 0 0"/>
			<path class="y-axis-path-2" d="M 660 525 L 660 0"/>
			<path class="y-gridline" d="M 0 525 L 660 525"/>
			<text class="y-axis-label" x="-5" y="525">-200</text>
			<path class="y-gridline" d="M 0 394 L 660 394"/>
			<text class="y-axis-label" x="-5" y="394"> 0</text>
			<path class="y-gridline" d="M 0 263 L 660 263"/>
			<text class="y-axis-label" x="-5" y="263">200</text>
			<path class="y-gridline" d="M 0 132 L 660 132"/>
			<text class="y-axis-label" x="-5" y="132">400</text>
			<path class="y-gridline" d="M 0 1 L 660 1"/>
			<text class="y-axis-label" x="-5" y="1">600</text>
		</g>
		<g>
			<path class="series-1-line" d="M 40 398.00785688 L 48 376.239822829 L 56 397.195277631 L 64 399.18394287 L 73 394.060203546 L 81 407.806263019 L 89 394.674935878 L 98 362.456052462 L 106 387.427377843 L 114 388.520859827 L 122 366.148237424 L 131 363.419452963 L 139 367.41624219 L 147 357.187844896 L 156 372.845037591 L 164 359.254042151 L 172 309.49605815 L 180 302.969160588 L 189 261.508981909 L 197 245.861555797 L 205 247.22147934 L 214 192.068619863 L 222 107.715878935 L 230 108.01116843 L 238 59.4144318469 L 247 110.778944805 L 255 82.2374077787 L 263 27.1087016439 L 272 41.12082528 L 280 27.1671523074 L 288 57.9684907248 L 296 119.469482201 L 305 119.740618353 L 313 10.1072531858 L 321 0.0 L 330 65.3960953433 L 338 75.1504375789 L 346 55.1727700385 L 354 63.2578898725 L 363 143.725670911 L 371 213.548998448 L 379 269.58265442 L 388 172.746786797 L 396 221.401974044 L 404 288.612589239 L 412 292.5123877 L 421 302.798858262 L 429 327.068604524 L 437 406.931419812 L 446 393.171350976 L 454 392.643917243 L 462 377.770907673 L 470 388.492893191 L 479 403.037145153 L 487 386.664363975 L 495 400.265125997 L 504 397.657485645 L 512 385.542108471 L 520 408.384543152 L 528 376.891392198 L 537 378.178478318 L 545 388.852157151 L 553 393.864896344 L 562 384.555835648 L 570 396.173004421 L 578 398.814942094 L 586 400.223172321 L 595 383.148434628 L 603 402.095765441 L 611 390.75480481 L 620 398.622167166"/>
			<path class="series-2-line" d="M 40 399.222241651 L 48 383.233409319 L 56 399.32323494 L 64 393.712791946 L 73 393.763288591 L 81 393.813785235 L 89 391.977302 L 98 387.310348946 L 106 402.456684628 L 114 389.298322115 L 122 394.066268459 L 131 388.455825464 L 139 400.771691327 L 147 387.613328814 L 156 383.889865699 L 164 380.166402585 L 172 388.708308688 L 180 386.871825453 L 189 388.809301977 L 197 374.707449524 L 205 393.627744966 L 214 397.45220137 L 222 393.728738255 L 230 394.722724839 L 238 406.095100762 L 247 388.21928855 L 255 398.648174533 L 263 398.698671177 L 272 394.031718123 L 280 410.121543745 L 288 398.850161111 L 296 381.917838839 L 305 386.685785183 L 313 389.566751647 L 321 394.334697991 L 330 395.328684575 L 338 392.548711401 L 346 391.655718105 L 354 391.70621475 L 363 396.474161094 L 371 405.959557137 L 379 395.631664443 L 388 389.077731509 L 396 389.128228154 L 404 401.444094016 L 412 392.059691263 L 421 379.84481869 L 429 394.047664432 L 437 382.776281798 L 446 405.470536999 L 454 387.594724787 L 462 399.910590649 L 470 393.356657715 L 479 379.254805262 L 487 404.779530283 L 495 390.67767783 L 504 402.993543692 L 512 389.835181179 L 520 405.925006801 L 528 398.427583927 L 537 391.873650993 L 545 392.867637577 L 553 393.861624162 L 562 384.477221408 L 570 385.471207993 L 578 388.352174457 L 586 399.72455038 L 595 387.509677806 L 603 385.673194571 L 611 398.932550374 L 620 396.152577199"/>
		</g>
		<text class="x-axis-label" x="40.0" y="540">0</text>
		<path class="x-notch" d="M 81.4285714286 525 L 81.4285714286 530"/>
		<text class="x-axis-label" x="122.857142857" y="540">10</text>
		<path class="x-notch" d="M 164.285714286 525 L 164.285714286 530"/>
		<text class="x-axis-label" x="205.714285714" y="540">20</text>
		<path class="x-notch" d="M 247.142857143 525 L 247.142857143 530"/>
		<text class="x-axis-label" x="288.571428571" y="540">30</text>
		<path class="x-notch" d="M 330.0 525 L 330.0 530"/>
		<text class="x-axis-label" x="371.428571429" y="540">40</text>
		<path class="x-notch" d="M 412.857142857 525 L 412.857142857 530"/>
		<text class="x-axis-label" x="454.285714286" y="540">50</text>
		<path class="x-notch" d="M 495.714285714 525 L 495.714285714 530"/>
		<text class="x-axis-label" x="537.142857143" y="540">60</text>
		<path class="x-notch" d="M 578.571428571 525 L 578.571428571 530"/>
		<text class="x-axis-label" x="620.0" y="540">70</text>
	</g>
</svg>
