<?xml version="1.0" ?>
<svg height="600" version="1.1" width="800" xmlns="http://www.w3.org/2000/svg" xmlns:svg="http://www.w3.org/2000/svg">
	<style type="text/css">

.x-axis-path, .y-gridline, .x-notch { fill:none; stroke: #a7a9ac; stroke-width:1; }



.y-gridline { stroke-width: 1; }

.y-axis-path, .y-axis-path2, .x-notch-left, .x-notch-right { display: none;}



.x-axis-label, .data-point-label {font-size: 12px; font-weight:normal; font-family: sans-serif; fill: #58595b; text-anchor:middle;}

.y-axis-label {font-size: 12px; font-family: helvetica; fill: #a7a9ac; text-anchor:end;}



.series-1-line { fill: none; stroke: #10b80c; stroke-width:2; }



.series-2-line { fill: none; stroke: #e90f0a; stroke-width: 2;}
</style>
	<rect fill="white" height="600" width="800" x="0" y="0"/>
	<g id="grid" transform="translate(70, 30)">
		<g class="x-axis" id="x_axis">
			<path class="x-axis-path" d="M 0 525 L 660 525"/>
			<path class="x-notch-left" d="M 0 525, L 0 535"/>
			<path class="x-notch-right" d="M 660 525, L 660 535"/>
		</g>
		<g class="y-axis" id="y_axis">
			<path class="y-axis-path" d="M 0 525 L 0 0"/>
			<path class="y-axis-path-2" d="M 660 525 L 660 0"/>
			<path class="y-gridline" d="M 0 525 L 660 525"/>
			<text class="y-axis-label" x="-5" y="525">-200</text>
			<path class="y-gridline" d="M 0 394 L 660 394"/>
			<text class="y-axis-label" x="-5" y="394"> 0</text>
			<path class="y-gridline" d="M 0 263 L 660 263"/>
			<text class="y-axis-label" x="-5" y="263">200</text>
			<path class="y-gridline" d="M 0 132 L 660 132"/>
			<text class="y-axis-label" x="-5" y="132">400</text>
			<path class="y-gridline" d="M 0 1 L 660 1"/>
			<text class="y-axis-label" x="-5" y="1">600</text>
		</g>
		<g>
			<path class="series-1-line" d="M 40 399.169503498 L 47 395.222768869 L 54 406.973121899 L 62 377.760490418 L 69 390.212621992 L 77 384.246004218 L 84 384.510207892 L 92 380.734645275 L 99 394.248256952 L 106 365.617503495 L 114 384.437447534 L 121 367.053309432 L 129 343.09573882 L 136 317.32363807 L 144 347.236115949 L 151 284.181362458 L 158 325.614170687 L 166 348.919035062 L 173 378.865693936 L 181 371.238627537 L 188 362.755701081 L 196 330.838231369 L 203 338.086573565 L 211 299.527576393 L 218 278.565649505 L 225 211.3683197 L 233 198.554554422 L 240 231.359866002 L 248 176.470364617 L 255 182.554683726 L 263 154.745609333 L 270 153.606255919 L 277 109.791930838 L 285 56.477158553 L 292 85.6878578883 L 300 138.846349475 L 307 89.1606374675 L 315 107.415793979 L 322 120.672514119 L 330 59.1583087327 L 337 140.698241415 L 344 0.732778731846 L 352 62.7927490022 L 359 158.318049226 L 367 35.8642043403 L 374 56.9780135582 L 382 0.0 L 389 219.732625396 L 396 323.577259241 L 404 299.602598132 L 411 215.972221131 L 419 250.746144365 L 426 252.670796663 L 434 335.51174345 L 441 340.911374512 L 448 365.174908968 L 456 349.570852972 L 463 313.528164483 L 471 313.415843139 L 478 370.083494483 L 486 372.932635868 L 493 339.834052572 L 501 348.178055866 L 508 327.233219475 L 515 352.301342497 L 523 367.132791737 L 530 375.990311066 L 538 366.411723511 L 545 385.437287595 L 553 379.008425278 L 560 400.413307027 L 567 386.846224674 L 575 400.736361369 L 582 398.587066382 L 590 386.81742367 L 597 388.879066986 L 605 405.816118896 L 612 398.497215526 L 620 387.857414907"/>
			<path class="series-2-line" d="M 40 391.880726862 L 47 391.862135538 L 54 390.508349115 L 62 400.503721031 L 69 393.809154213 L 77 396.460953086 L 84 390.433983818 L 92 389.747794945 L 99 399.743166861 L 106 397.054185339 L 114 386.354033225 L 121 399.687392888 L 129 396.998411367 L 136 390.971442098 L 144 394.290838521 L 151 398.277832493 L 158 400.929631366 L 166 393.567466999 L 173 391.546083027 L 181 392.862686802 L 188 397.517278323 L 196 386.817126209 L 203 384.795742237 L 211 394.791114153 L 218 393.43732773 L 225 392.751138857 L 233 396.070535279 L 240 390.71116356 L 248 396.70095018 L 255 394.011968659 L 263 393.325779785 L 270 397.980371306 L 277 394.623792235 L 285 389.264420517 L 292 397.924597334 L 300 393.900420714 L 307 395.217024488 L 315 394.530835615 L 322 392.509451642 L 330 390.48806767 L 337 385.128695951 L 344 384.442507078 L 352 397.775866741 L 359 397.757275416 L 367 399.073879191 L 374 395.049702571 L 382 388.355135753 L 389 382.995764034 L 396 386.982758006 L 404 386.964166682 L 411 398.294733697 L 419 398.276142373 L 426 393.584368203 L 434 393.565776879 L 441 393.547185555 L 448 392.860996681 L 456 388.836820061 L 463 396.829399329 L 471 397.478405554 L 478 392.786631384 L 486 400.111613103 L 493 391.414253637 L 501 400.742028004 L 508 396.717851384 L 515 400.704845356 L 523 387.334303045 L 530 394.659284763 L 538 387.964717946 L 545 397.292492312 L 553 393.935913242 L 560 396.587712115 L 567 387.2227551 L 575 390.542151522 L 582 396.531938142 L 590 393.175359071 L 597 393.156767747 L 605 389.800188676 L 612 395.122377747 L 620 397.77417662"/>
		</g>
		<text class="x-axis-label" x="40.0" y="540">0</text>
		<path class="x-notch" d="M 77.1794871795 525 L 77.1794871795 530"/>
		<text class="x-axis-label" x="114.358974359" y="540">10</text>
		<path class="x-notch" d="M 151.538461538 525 L 151.538461538 530"/>
		<text class="x-axis-label" x="188.717948718" y="540">20</text>
		<path class="x-notch" d="M 225.897435897 525 L 225.897435897 530"/>
		<text class="x-axis-label" x="263.076923077" y="540">30</text>
		<path class="x-notch" d="M 300.256410256 525 L 300.256410256 530"/>
		<text class="x-axis-label" x="337.435897436" y="540">40</text>
		<path class="x-notch" d="M 374.615384615 525 L 374.615384615 530"/>
		<text class="x-axis-label" x="411.794871795" y="540">50</text>
		<path class="x-notch" d="M 448.974358974 525 L 448.974358974 530"/>
		<text class="x-axis-label" x="486.153846154" y="540">60</text>
		<path class="x-notch" d="M 523.333333333 525 L 523.333333333 530"/>
		<text class="x-axis-label" x="560.512820513" y="540">70</text>
		<path class="x-notch" d="M 597.692307692 525 L 597.692307692 530"/>
	</g>
</svg>
