<?xml version="1.0" ?>
<svg height="600" version="1.1" width="800" xmlns="http://www.w3.org/2000/svg" xmlns:svg="http://www.w3.org/2000/svg">
	<style type="text/css">

.x-axis-path, .y-gridline, .x-notch { fill:none; stroke: #a7a9ac; stroke-width:1; }



.y-gridline { stroke-width: 1; }

.y-axis-path, .y-axis-path2, .x-notch-left, .x-notch-right { display: none;}



.x-axis-label, .data-point-label {font-size: 12px; font-weight:normal; font-family: sans-serif; fill: #58595b; text-anchor:middle;}

.y-axis-label {font-size: 12px; font-family: helvetica; fill: #a7a9ac; text-anchor:end;}



.series-1-line { fill: none; stroke: #10b80c; stroke-width:2; }



.series-2-line { fill: none; stroke: #e90f0a; stroke-width: 2;}
</style>
	<rect fill="white" height="600" width="800" x="0" y="0"/>
	<g id="grid" transform="translate(70, 30)">
		<g class="x-axis" id="x_axis">
			<path class="x-axis-path" d="M 0 525 L 660 525"/>
			<path class="x-notch-left" d="M 0 525, L 0 535"/>
			<path class="x-notch-right" d="M 660 525, L 660 535"/>
		</g>
		<g class="y-axis" id="y_axis">
			<path class="y-axis-path" d="M 0 525 L 0 0"/>
			<path class="y-axis-path-2" d="M 660 525 L 660 0"/>
			<path class="y-gridline" d="M 0 525 L 660 525"/>
			<text class="y-axis-label" x="-5" y="525">-200</text>
			<path class="y-gridline" d="M 0 394 L 660 394"/>
			<text class="y-axis-label" x="-5" y="394"> 0</text>
			<path class="y-gridline" d="M 0 263 L 660 263"/>
			<text class="y-axis-label" x="-5" y="263">200</text>
			<path class="y-gridline" d="M 0 132 L 660 132"/>
			<text class="y-axis-label" x="-5" y="132">400</text>
			<path class="y-gridline" d="M 0 1 L 660 1"/>
			<text class="y-axis-label" x="-5" y="1">600</text>
		</g>
		<g>
			<path class="series-1-line" d="M 40 392.476531289 L 47 395.427007329 L 54 402.431260827 L 62 392.215844465 L 69 387.542857186 L 76 396.233316453 L 84 387.937197363 L 91 395.605188015 L 98 362.107204283 L 106 401.757420011 L 113 385.819929012 L 120 386.438650543 L 128 388.904755161 L 135 378.545790249 L 142 400.025501865 L 150 382.706810787 L 157 397.818899026 L 164 357.917194913 L 172 377.961980677 L 179 376.033484964 L 186 381.72845257 L 194 280.804064192 L 201 278.265836921 L 208 294.938211148 L 216 288.848486431 L 223 267.547652258 L 230 245.242537882 L 238 209.699616918 L 245 229.116482711 L 252 179.22374359 L 260 223.573565339 L 267 168.783945874 L 274 148.093123081 L 282 147.725193178 L 289 125.348164617 L 296 157.805562675 L 304 118.836504402 L 311 107.885716523 L 318 53.2575541981 L 326 77.3561174211 L 333 3.21206808707 L 341 24.4586881981 L 348 56.9698120292 L 355 19.8663252558 L 363 25.7943843658 L 370 48.0634730925 L 377 49.1483776321 L 385 1.98222148572 L 392 0.0 L 399 1.98173319679 L 407 32.5019253912 L 414 166.23324485 L 421 170.90574384 L 429 204.672427791 L 436 123.604749295 L 443 324.224096383 L 451 362.080654797 L 458 406.8071166 L 465 392.806831465 L 473 394.376107426 L 480 410.026292858 L 487 425.532929742 L 495 416.59098209 L 502 408.294863001 L 509 399.729555403 L 517 430.28556478 L 524 404.877227375 L 531 407.325423402 L 539 408.284967805 L 546 426.984370672 L 553 434.455087001 L 561 428.849453883 L 568 395.566653064 L 575 398.678586244 L 583 416.965531876 L 590 392.902577368 L 597 401.000933846 L 605 403.933501295 L 612 399.332428201 L 620 369.565307647"/>
			<path class="series-2-line" d="M 40 401.445097682 L 47 398.627642599 L 54 390.913307173 L 62 395.790949772 L 69 381.780625332 L 76 383.860050592 L 84 389.437247526 L 91 387.319346778 L 98 395.694761051 L 106 397.074631976 L 113 394.257176893 L 120 400.533928161 L 128 391.420484065 L 135 391.401246321 L 142 389.982899907 L 150 384.367227485 L 157 394.141750427 L 164 392.023849679 L 172 396.201937943 L 179 390.586265521 L 186 396.163462455 L 194 391.946898702 L 201 399.62275864 L 208 384.213325531 L 216 400.283837487 L 223 388.372176051 L 230 396.747590324 L 238 396.72835258 L 245 389.713571488 L 252 391.093442414 L 260 395.971085013 L 267 397.350955938 L 274 399.430381198 L 282 395.91337178 L 289 388.199036354 L 296 393.076678953 L 304 381.864571852 L 311 392.33864913 L 318 395.817183059 L 326 395.09839098 L 333 387.384055554 L 341 395.059915492 L 348 391.542906074 L 355 389.425005325 L 363 385.907995907 L 370 397.781181854 L 377 385.869520419 L 385 398.4422607 L 392 401.221240295 L 399 385.811807186 L 407 392.78811279 L 414 395.567092385 L 421 396.94696331 L 429 388.533073548 L 436 396.908487821 L 443 387.095489391 L 451 395.470903664 L 458 396.151220254 L 465 391.235102167 L 473 385.619429744 L 480 393.295289682 L 487 396.074269277 L 495 393.256814194 L 502 398.834011128 L 509 391.819230036 L 517 393.199100961 L 524 394.578971887 L 531 388.26374513 L 539 395.939605068 L 546 391.723041315 L 553 393.10291224 L 561 388.186794153 L 568 390.266219413 L 575 389.547427334 L 583 395.124624268 L 590 404.89914721 L 597 390.189268436 L 605 390.170030692 L 612 392.249455952 L 620 391.530663873"/>
		</g>
		<text class="x-axis-label" x="40.0" y="540">0</text>
		<path class="x-notch" d="M 76.7088607595 525 L 76.7088607595 530"/>
		<text class="x-axis-label" x="113.417721519" y="540">10</text>
		<path class="x-notch" d="M 150.126582278 525 L 150.126582278 530"/>
		<text class="x-axis-label" x="186.835443038" y="540">20</text>
		<path class="x-notch" d="M 223.544303797 525 L 223.544303797 530"/>
		<text class="x-axis-label" x="260.253164557" y="540">30</text>
		<path class="x-notch" d="M 296.962025316 525 L 296.962025316 530"/>
		<text class="x-axis-label" x="333.670886076" y="540">40</text>
		<path class="x-notch" d="M 370.379746835 525 L 370.379746835 530"/>
		<text class="x-axis-label" x="407.088607595" y="540">50</text>
		<path class="x-notch" d="M 443.797468354 525 L 443.797468354 530"/>
		<text class="x-axis-label" x="480.506329114" y="540">60</text>
		<path class="x-notch" d="M 517.215189873 525 L 517.215189873 530"/>
		<text class="x-axis-label" x="553.924050633" y="540">70</text>
		<path class="x-notch" d="M 590.632911392 525 L 590.632911392 530"/>
	</g>
</svg>
