<?xml version="1.0" ?>
<svg height="600" version="1.1" width="800" xmlns="http://www.w3.org/2000/svg" xmlns:svg="http://www.w3.org/2000/svg">
	<style type="text/css">

.x-axis-path, .y-gridline, .x-notch { fill:none; stroke: #a7a9ac; stroke-width:1; }



.y-gridline { stroke-width: 1; }

.y-axis-path, .y-axis-path2, .x-notch-left, .x-notch-right { display: none;}



.x-axis-label, .data-point-label {font-size: 12px; font-weight:normal; font-family: sans-serif; fill: #58595b; text-anchor:middle;}

.y-axis-label {font-size: 12px; font-family: helvetica; fill: #a7a9ac; text-anchor:end;}



.series-1-line { fill: none; stroke: #10b80c; stroke-width:2; }



.series-2-line { fill: none; stroke: #e90f0a; stroke-width: 2;}
</style>
	<rect fill="white" height="600" width="800" x="0" y="0"/>
	<g id="grid" transform="translate(70, 30)">
		<g class="x-axis" id="x_axis">
			<path class="x-axis-path" d="M 0 525 L 660 525"/>
			<path class="x-notch-left" d="M 0 525, L 0 535"/>
			<path class="x-notch-right" d="M 660 525, L 660 535"/>
		</g>
		<g class="y-axis" id="y_axis">
			<path class="y-axis-path" d="M 0 525 L 0 0"/>
			<path class="y-axis-path-2" d="M 660 525 L 660 0"/>
			<path class="y-gridline" d="M 0 525 L 660 525"/>
			<text class="y-axis-label" x="-5" y="525">-200</text>
			<path class="y-gridline" d="M 0 394 L 660 394"/>
			<text class="y-axis-label" x="-5" y="394"> 0</text>
			<path class="y-gridline" d="M 0 263 L 660 263"/>
			<text class="y-axis-label" x="-5" y="263">200</text>
			<path class="y-gridline" d="M 0 132 L 660 132"/>
			<text class="y-axis-label" x="-5" y="132">400</text>
			<path class="y-gridline" d="M 0 1 L 660 1"/>
			<text class="y-axis-label" x="-5" y="1">600</text>
		</g>
		<g>
			<path class="series-1-line" d="M 40 387.408942219 L 48 406.889582017 L 56 405.45123008 L 64 399.050597374 L 72 367.154827606 L 80 395.015023634 L 89 403.91749929 L 97 369.258056664 L 105 384.073549926 L 113 383.496933622 L 121 412.783466682 L 129 411.553247773 L 138 408.688558804 L 146 406.953072634 L 154 385.367999841 L 162 409.068316597 L 170 407.540963454 L 178 393.08757582 L 187 363.271745688 L 195 329.147237392 L 203 313.74311292 L 211 188.602819501 L 219 269.800696457 L 227 217.015602022 L 236 183.693495222 L 244 136.227149927 L 252 99.1906334308 L 260 117.185602059 L 268 47.7901940544 L 276 23.2931130616 L 285 69.338758583 L 293 104.389973907 L 301 60.0437698404 L 309 62.4088288053 L 317 78.4128590032 L 325 132.808393687 L 334 112.619990858 L 342 178.990359646 L 350 72.3029828844 L 358 126.549718677 L 366 184.986464359 L 374 135.2320464 L 383 8.04148041223 L 391 72.9261780315 L 399 16.218540873 L 407 10.709310869 L 415 0.0 L 423 175.83907057 L 432 260.781024291 L 440 317.880434147 L 448 385.320671596 L 456 390.835538858 L 464 407.047702084 L 472 403.053810318 L 481 393.503369315 L 489 417.560154441 L 497 417.577806605 L 505 395.606598373 L 513 410.630224664 L 521 392.105958963 L 530 426.325105722 L 538 401.650022318 L 546 418.842589451 L 554 411.550554044 L 562 428.356985738 L 570 403.414435168 L 579 391.813721598 L 587 381.193411935 L 595 375.981316165 L 603 418.282884921 L 611 384.425843791 L 620 413.058774246"/>
			<path class="series-2-line" d="M 40 397.690157546 L 48 388.454608527 L 56 388.490018439 L 64 394.319777684 L 72 400.149536929 L 80 394.39059751 L 89 408.33244582 L 97 393.302547468 L 105 388.702477915 L 113 389.896757694 L 121 387.614427873 L 129 400.397406318 L 138 396.956206631 L 146 398.15048641 L 154 377.326238725 L 162 387.791477436 L 170 401.733325747 L 178 398.29212606 L 187 396.00979624 L 195 387.933117087 L 203 397.239485931 L 211 396.116025977 L 219 385.721607091 L 227 396.186845803 L 236 398.539995448 L 244 392.781056028 L 252 387.022116608 L 260 383.580916921 L 268 409.111463897 L 276 390.604955946 L 285 395.275845324 L 293 397.62899497 L 301 402.299884348 L 309 396.540944929 L 317 387.305395909 L 325 400.088374353 L 334 387.376215734 L 342 385.093885914 L 350 397.876864358 L 358 388.641315338 L 366 403.742033516 L 374 393.34761463 L 383 395.700764275 L 391 399.212783787 L 399 388.818364901 L 407 391.171514547 L 415 391.20692446 L 423 395.877813838 L 432 388.960004552 L 440 386.677674731 L 448 398.301783309 L 456 398.337193222 L 464 401.849212734 L 472 393.772533581 L 481 393.807943493 L 489 393.843353406 L 497 392.719893452 L 505 386.960954032 L 513 395.10845301 L 521 393.984993056 L 530 390.543793369 L 538 399.850162214 L 546 385.979133728 L 554 395.285502573 L 562 396.479782352 L 570 402.309541597 L 579 405.821561109 L 587 391.950532624 L 595 393.144812403 L 603 394.339092182 L 611 389.739022629 L 620 399.045391473"/>
		</g>
		<text class="x-axis-label" x="40.0" y="540">0</text>
		<path class="x-notch" d="M 80.8450704225 525 L 80.8450704225 530"/>
		<text class="x-axis-label" x="121.690140845" y="540">10</text>
		<path class="x-notch" d="M 162.535211268 525 L 162.535211268 530"/>
		<text class="x-axis-label" x="203.38028169" y="540">20</text>
		<path class="x-notch" d="M 244.225352113 525 L 244.225352113 530"/>
		<text class="x-axis-label" x="285.070422535" y="540">30</text>
		<path class="x-notch" d="M 325.915492958 525 L 325.915492958 530"/>
		<text class="x-axis-label" x="366.76056338" y="540">40</text>
		<path class="x-notch" d="M 407.605633803 525 L 407.605633803 530"/>
		<text class="x-axis-label" x="448.450704225" y="540">50</text>
		<path class="x-notch" d="M 489.295774648 525 L 489.295774648 530"/>
		<text class="x-axis-label" x="530.14084507" y="540">60</text>
		<path class="x-notch" d="M 570.985915493 525 L 570.985915493 530"/>
		<text class="x-axis-label" x="611.830985915" y="540">70</text>
		<path class="x-notch" d="M 652.676056338 525 L 652.676056338 530"/>
	</g>
</svg>
