<?xml version="1.0" ?>
<svg height="600" version="1.1" width="800" xmlns="http://www.w3.org/2000/svg" xmlns:svg="http://www.w3.org/2000/svg">
	<style type="text/css">

.x-axis-path, .y-gridline, .x-notch { fill:none; stroke: #a7a9ac; stroke-width:1; }



.y-gridline { stroke-width: 1; }

.y-axis-path, .y-axis-path2, .x-notch-left, .x-notch-right { display: none;}



.x-axis-label, .data-point-label {font-size: 12px; font-weight:normal; font-family: sans-serif; fill: #58595b; text-anchor:middle;}

.y-axis-label {font-size: 12px; font-family: helvetica; fill: #a7a9ac; text-anchor:end;}



.series-1-line { fill: none; stroke: #10b80c; stroke-width:2; }



.series-2-line { fill: none; stroke: #e90f0a; stroke-width: 2;}
</style>
	<rect fill="white" height="600" width="800" x="0" y="0"/>
	<g id="grid" transform="translate(70, 30)">
		<g class="x-axis" id="x_axis">
			<path class="x-axis-path" d="M 0 525 L 660 525"/>
			<path class="x-notch-left" d="M 0 525, L 0 535"/>
			<path class="x-notch-right" d="M 660 525, L 660 535"/>
		</g>
		<g class="y-axis" id="y_axis">
			<path class="y-axis-path" d="M 0 525 L 0 0"/>
			<path class="y-axis-path-2" d="M 660 525 L 660 0"/>
			<path class="y-gridline" d="M 0 525 L 660 525"/>
			<text class="y-axis-label" x="-5" y="525">-200</text>
			<path class="y-gridline" d="M 0 394 L 660 394"/>
			<text class="y-axis-label" x="-5" y="394"> 0</text>
			<path class="y-gridline" d="M 0 263 L 660 263"/>
			<text class="y-axis-label" x="-5" y="263">200</text>
			<path class="y-gridline" d="M 0 132 L 660 132"/>
			<text class="y-axis-label" x="-5" y="132">400</text>
			<path class="y-gridline" d="M 0 1 L 660 1"/>
			<text class="y-axis-label" x="-5" y="1">600</text>
		</g>
		<g>
			<path class="series-1-line" d="M 40 393.414703975 L 48 412.092718036 L 56 388.295127753 L 64 403.021082798 L 73 363.69425463 L 81 396.204786628 L 89 372.327482579 L 98 367.552212282 L 106 396.449780149 L 114 395.147663513 L 122 348.595218463 L 131 381.325274697 L 139 370.302438052 L 147 380.417449991 L 156 386.141354442 L 164 391.625494833 L 172 378.466889768 L 180 386.62580064 L 189 355.322972533 L 197 317.433483194 L 205 240.341635994 L 214 225.306643628 L 222 164.722084846 L 230 108.648515582 L 238 88.6033885196 L 247 125.704935183 L 255 105.021163853 L 263 92.9003946447 L 272 0.0 L 280 78.4194331205 L 288 135.660849393 L 296 127.153044317 L 305 191.520435264 L 313 130.835922894 L 321 168.5163285 L 330 185.358123524 L 338 227.369851295 L 346 237.405149469 L 354 263.488447765 L 363 253.463590095 L 371 265.5347031 L 379 337.746426755 L 388 355.167080722 L 396 389.573928463 L 404 407.573441374 L 412 405.812036443 L 421 388.801014568 L 429 413.347331829 L 437 409.789564743 L 446 407.748850251 L 454 405.268775905 L 462 396.581303476 L 470 383.482483734 L 479 406.432034636 L 487 396.127556023 L 495 389.056778394 L 504 416.637200843 L 512 390.504246345 L 520 398.244037186 L 528 400.734240653 L 537 407.695576756 L 545 373.758146433 L 553 398.065011016 L 562 400.515357601 L 570 393.843771561 L 578 397.691288711 L 586 389.322982724 L 595 388.280247207 L 603 393.864341186 L 611 398.31064572 L 620 411.319952376"/>
			<path class="series-2-line" d="M 40 397.486582744 L 48 391.228245214 L 56 392.754455067 L 64 395.837574397 L 73 391.136146343 L 81 382.542444598 L 89 396.523930265 L 98 405.834687502 L 106 384.007255204 L 114 397.988740871 L 122 397.179586509 L 131 384.693611072 L 139 397.118187262 L 147 390.859849732 L 156 401.727516446 L 164 389.241541008 L 172 400.88766246 L 180 396.186234407 L 189 384.478713708 L 197 398.460199375 L 205 395.315680798 L 214 396.063435913 L 222 398.368100504 L 230 395.223581927 L 238 388.186789658 L 247 392.048363727 L 255 393.57457358 L 263 395.100783433 L 272 398.962357502 L 280 393.48247471 L 288 382.553408749 L 296 397.313349155 L 305 398.061104269 L 313 385.575128832 L 321 390.215157639 L 330 397.190550661 L 338 394.046032084 L 346 400.242970367 L 354 392.42772336 L 363 400.960025858 L 371 393.144778851 L 379 384.551077106 L 388 392.304924866 L 396 391.495770504 L 404 400.028073003 L 412 394.548190211 L 421 399.966673756 L 429 389.037607795 L 437 390.563817648 L 446 398.317665409 L 454 383.496325756 L 462 395.920901946 L 470 398.225566538 L 479 393.524138484 L 487 384.930436739 L 495 388.013556069 L 504 389.539765922 L 512 391.065975775 L 520 391.035276152 L 528 390.22612179 L 537 390.195422166 L 545 394.835450973 L 553 390.912477658 L 562 396.330961203 L 570 397.857171056 L 578 397.826471433 L 586 390.789679164 L 595 394.651253232 L 603 396.955917824 L 611 394.589853985 L 620 392.223790147"/>
		</g>
		<text class="x-axis-label" x="40.0" y="540">0</text>
		<path class="x-notch" d="M 81.4285714286 525 L 81.4285714286 530"/>
		<text class="x-axis-label" x="122.857142857" y="540">10</text>
		<path class="x-notch" d="M 164.285714286 525 L 164.285714286 530"/>
		<text class="x-axis-label" x="205.714285714" y="540">20</text>
		<path class="x-notch" d="M 247.142857143 525 L 247.142857143 530"/>
		<text class="x-axis-label" x="288.571428571" y="540">30</text>
		<path class="x-notch" d="M 330.0 525 L 330.0 530"/>
		<text class="x-axis-label" x="371.428571429" y="540">40</text>
		<path class="x-notch" d="M 412.857142857 525 L 412.857142857 530"/>
		<text class="x-axis-label" x="454.285714286" y="540">50</text>
		<path class="x-notch" d="M 495.714285714 525 L 495.714285714 530"/>
		<text class="x-axis-label" x="537.142857143" y="540">60</text>
		<path class="x-notch" d="M 578.571428571 525 L 578.571428571 530"/>
		<text class="x-axis-label" x="620.0" y="540">70</text>
	</g>
</svg>
