<?xml version="1.0" ?>
<svg height="600" version="1.1" width="800" xmlns="http://www.w3.org/2000/svg" xmlns:svg="http://www.w3.org/2000/svg">
	<style type="text/css">

.x-axis-path, .y-gridline, .x-notch { fill:none; stroke: #a7a9ac; stroke-width:1; }



.y-gridline { stroke-width: 1; }

.y-axis-path, .y-axis-path2, .x-notch-left, .x-notch-right { display: none;}



.x-axis-label, .data-point-label {font-size: 12px; font-weight:normal; font-family: sans-serif; fill: #58595b; text-anchor:middle;}

.y-axis-label {font-size: 12px; font-family: helvetica; fill: #a7a9ac; text-anchor:end;}



.series-1-line { fill: none; stroke: #10b80c; stroke-width:2; }



.series-2-line { fill: none; stroke: #e90f0a; stroke-width: 2;}
</style>
	<rect fill="white" height="600" width="800" x="0" y="0"/>
	<g id="grid" transform="translate(70, 30)">
		<g class="x-axis" id="x_axis">
			<path class="x-axis-path" d="M 0 525 L 660 525"/>
			<path class="x-notch-left" d="M 0 525, L 0 535"/>
			<path class="x-notch-right" d="M 660 525, L 660 535"/>
		</g>
		<g class="y-axis" id="y_axis">
			<path class="y-axis-path" d="M 0 525 L 0 0"/>
			<path class="y-axis-path-2" d="M 660 525 L 660 0"/>
			<path class="y-gridline" d="M 0 525 L 660 525"/>
			<text class="y-axis-label" x="-5" y="525">-200</text>
			<path class="y-gridline" d="M 0 394 L 660 394"/>
			<text class="y-axis-label" x="-5" y="394"> 0</text>
			<path class="y-gridline" d="M 0 263 L 660 263"/>
			<text class="y-axis-label" x="-5" y="263">200</text>
			<path class="y-gridline" d="M 0 132 L 660 132"/>
			<text class="y-axis-label" x="-5" y="132">400</text>
			<path class="y-gridline" d="M 0 1 L 660 1"/>
			<text class="y-axis-label" x="-5" y="1">600</text>
		</g>
		<g>
			<path class="series-1-line" d="M 40 405.429101687 L 48 392.557660329 L 56 403.67448777 L 64 381.802233361 L 72 383.40000107 L 80 377.470001714 L 89 380.977155286 L 97 370.696734589 L 105 369.976220653 L 113 371.50590998 L 121 393.396354081 L 129 388.557310793 L 138 381.836325738 L 146 350.936026927 L 154 407.451986978 L 162 389.01641438 L 170 377.276776119 L 178 372.574102339 L 187 363.589298346 L 195 376.451698044 L 203 343.083132403 L 211 341.43526326 L 219 348.310807516 L 227 313.401117508 L 236 301.184079595 L 244 215.052002395 L 252 189.988573841 L 260 175.589623792 L 268 104.554140495 L 276 148.278172611 L 285 79.6839375353 L 293 46.0015731036 L 301 27.593231858 L 309 84.0411135276 L 317 44.4674161331 L 325 4.45716611552 L 334 0.0 L 342 57.1024978593 L 350 64.8645502926 L 358 175.998732317 L 366 112.368474998 L 374 64.4485807427 L 383 205.312592088 L 391 181.612858619 L 399 257.889632705 L 407 276.438917476 L 415 338.969177067 L 423 379.474803684 L 432 387.86402821 L 440 384.838848306 L 448 429.599373784 L 456 373.156066131 L 464 387.886791919 L 472 396.862554252 L 481 394.682822752 L 489 411.759274281 L 497 405.733752446 L 505 410.986478276 L 513 396.587528227 L 521 404.117688672 L 530 396.060239886 L 538 384.034246931 L 546 387.882217902 L 554 385.757161853 L 562 395.973865439 L 570 376.651784663 L 579 395.582946606 L 587 404.326816951 L 595 397.114816568 L 603 383.397714062 L 611 395.278295847 L 620 391.462130245"/>
			<path class="series-2-line" d="M 40 388.85686631 L 48 396.879123537 L 56 396.391583043 L 64 398.031491979 L 72 389.034153762 L 80 392.801512129 L 89 397.100732853 L 97 395.017605286 L 105 395.061927149 L 113 396.701836085 L 121 395.682433233 L 129 395.194892738 L 138 397.898526389 L 146 397.410985895 L 154 387.881785321 L 162 392.712868403 L 170 390.097878478 L 178 389.078475626 L 187 392.313971634 L 195 389.167119352 L 203 400.380550725 L 211 399.89301023 L 219 397.278020306 L 227 399.981653957 L 236 388.85686631 L 244 396.34726118 L 252 397.987170116 L 260 395.372180191 L 268 391.693465551 L 276 386.419163838 L 285 396.037008138 L 293 393.95388057 L 301 394.530064791 L 309 395.63811137 L 317 399.937332094 L 325 389.344406804 L 334 391.516178098 L 342 394.219811749 L 350 398.519032473 L 358 393.776593118 L 366 396.480226769 L 374 395.992686275 L 383 399.760044641 L 391 396.081330001 L 399 394.530064791 L 407 396.169973727 L 415 402.596643882 L 423 401.57724103 L 432 390.98431574 L 440 397.942848253 L 448 396.9234454 L 456 398.563354336 L 464 394.352777339 L 472 395.992686275 L 481 395.50514578 L 489 398.740641789 L 497 396.657514222 L 505 398.297423158 L 513 395.682433233 L 521 394.663030381 L 530 398.430388747 L 538 399.006572968 L 546 391.604821824 L 554 403.350115555 L 562 398.075813842 L 570 395.992686275 L 579 400.291906999 L 587 396.613192358 L 595 392.934477718 L 603 387.660176005 L 611 392.491259087 L 620 398.386066884"/>
		</g>
		<text class="x-axis-label" x="40.0" y="540">0</text>
		<path class="x-notch" d="M 80.8450704225 525 L 80.8450704225 530"/>
		<text class="x-axis-label" x="121.690140845" y="540">10</text>
		<path class="x-notch" d="M 162.535211268 525 L 162.535211268 530"/>
		<text class="x-axis-label" x="203.38028169" y="540">20</text>
		<path class="x-notch" d="M 244.225352113 525 L 244.225352113 530"/>
		<text class="x-axis-label" x="285.070422535" y="540">30</text>
		<path class="x-notch" d="M 325.915492958 525 L 325.915492958 530"/>
		<text class="x-axis-label" x="366.76056338" y="540">40</text>
		<path class="x-notch" d="M 407.605633803 525 L 407.605633803 530"/>
		<text class="x-axis-label" x="448.450704225" y="540">50</text>
		<path class="x-notch" d="M 489.295774648 525 L 489.295774648 530"/>
		<text class="x-axis-label" x="530.14084507" y="540">60</text>
		<path class="x-notch" d="M 570.985915493 525 L 570.985915493 530"/>
		<text class="x-axis-label" x="611.830985915" y="540">70</text>
		<path class="x-notch" d="M 652.676056338 525 L 652.676056338 530"/>
	</g>
</svg>
