<?xml version="1.0" ?>
<svg height="600" version="1.1" width="800" xmlns="http://www.w3.org/2000/svg" xmlns:svg="http://www.w3.org/2000/svg">
	<style type="text/css">

.x-axis-path, .y-gridline, .x-notch { fill:none; stroke: #a7a9ac; stroke-width:1; }



.y-gridline { stroke-width: 1; }

.y-axis-path, .y-axis-path2, .x-notch-left, .x-notch-right { display: none;}



.x-axis-label, .data-point-label {font-size: 12px; font-weight:normal; font-family: sans-serif; fill: #58595b; text-anchor:middle;}

.y-axis-label {font-size: 12px; font-family: helvetica; fill: #a7a9ac; text-anchor:end;}



.series-1-line { fill: none; stroke: #10b80c; stroke-width:2; }



.series-2-line { fill: none; stroke: #e90f0a; stroke-width: 2;}
</style>
	<rect fill="white" height="600" width="800" x="0" y="0"/>
	<g id="grid" transform="translate(70, 30)">
		<g class="x-axis" id="x_axis">
			<path class="x-axis-path" d="M 0 525 L 660 525"/>
			<path class="x-notch-left" d="M 0 525, L 0 535"/>
			<path class="x-notch-right" d="M 660 525, L 660 535"/>
		</g>
		<g class="y-axis" id="y_axis">
			<path class="y-axis-path" d="M 0 525 L 0 0"/>
			<path class="y-axis-path-2" d="M 660 525 L 660 0"/>
			<path class="y-gridline" d="M 0 525 L 660 525"/>
			<text class="y-axis-label" x="-5" y="525">-200</text>
			<path class="y-gridline" d="M 0 394 L 660 394"/>
			<text class="y-axis-label" x="-5" y="394"> 0</text>
			<path class="y-gridline" d="M 0 263 L 660 263"/>
			<text class="y-axis-label" x="-5" y="263">200</text>
			<path class="y-gridline" d="M 0 132 L 660 132"/>
			<text class="y-axis-label" x="-5" y="132">400</text>
			<path class="y-gridline" d="M 0 1 L 660 1"/>
			<text class="y-axis-label" x="-5" y="1">600</text>
		</g>
		<g>
			<path class="series-1-line" d="M 40 406.36125928 L 47 390.906257176 L 55 362.321439106 L 63 392.723294246 L 71 413.532115244 L 79 345.800840058 L 87 361.32886298 L 95 404.666670525 L 103 370.025600133 L 111 362.831150849 L 119 402.244449448 L 127 381.89599849 L 135 390.98041987 L 143 393.281883997 L 151 402.94751816 L 159 381.412078026 L 167 360.070501454 L 175 394.541979785 L 183 361.451439986 L 190 326.883304619 L 198 313.317810913 L 206 298.880120131 L 214 274.752652375 L 222 241.153456915 L 230 246.289183641 L 238 170.830197003 L 246 110.656577513 L 254 133.500399056 L 262 106.466111579 L 270 45.6870935973 L 278 73.3272432616 L 286 0.0 L 294 40.6244734829 L 302 23.8128043475 L 310 70.2996665903 L 318 125.265130923 L 326 138.152754808 L 333 125.120102471 L 341 186.262747663 L 349 161.699181368 L 357 198.883993761 L 365 187.910527678 L 373 160.779119469 L 381 318.456370881 L 389 307.821882605 L 397 325.481648904 L 405 382.821091589 L 413 409.6619792 L 421 394.521769195 L 429 385.147205119 L 437 420.587623358 L 445 395.491215695 L 453 399.221903975 L 461 413.635494844 L 469 411.431237242 L 476 416.276357577 L 484 397.381316481 L 492 397.98713577 L 500 403.171233912 L 508 406.126845847 L 516 391.253056526 L 524 404.649336072 L 532 397.963542449 L 540 398.205820323 L 548 402.39679285 L 556 397.382458356 L 564 416.931733055 L 572 392.077560368 L 580 382.048848485 L 588 387.765787995 L 596 419.015654505 L 604 413.565221473 L 612 384.665611304 L 620 368.096177145"/>
			<path class="series-2-line" d="M 40 393.93895084 L 47 401.415275966 L 55 393.775533897 L 63 395.583333825 L 71 383.219820758 L 79 402.97795048 L 87 403.840996208 L 95 414.151583934 L 103 393.285283069 L 111 401.706362395 L 119 397.845637125 L 127 394.929666055 L 135 406.185007979 L 143 407.048053708 L 151 401.297820038 L 159 399.326603168 L 167 403.968665695 L 175 397.273677826 L 183 392.468198356 L 190 397.110260883 L 198 404.586586009 L 206 400.725860739 L 214 397.809889669 L 222 398.672935397 L 230 399.535981126 L 238 408.901814651 L 246 391.814530586 L 254 393.622330514 L 262 402.043409839 L 270 405.740718167 L 278 396.211467699 L 286 404.632547024 L 294 396.048050756 L 302 394.076833885 L 310 392.105617015 L 318 393.913416943 L 326 401.389742069 L 333 399.418525198 L 341 395.557799928 L 349 386.97330366 L 357 399.173399784 L 365 407.59447911 L 373 394.286211843 L 381 400.817782769 L 389 393.178040701 L 397 393.096332229 L 405 393.014623758 L 413 397.656686285 L 421 392.851206815 L 429 409.775073938 L 437 399.301069271 L 445 400.164114999 L 453 399.137652328 L 461 389.60840186 L 469 393.305710187 L 476 402.671543713 L 484 394.087047444 L 492 401.56337257 L 500 394.868384701 L 508 404.234218227 L 516 394.704967759 L 524 396.512767687 L 532 399.265321814 L 540 389.736071346 L 548 390.599117075 L 556 390.517408603 L 564 390.435700132 L 572 390.353991661 L 580 398.775070986 L 588 382.632541121 L 596 399.556408243 L 604 393.806174574 L 612 398.448237101 L 620 395.532266031"/>
		</g>
		<text class="x-axis-label" x="40.0" y="540">0</text>
		<path class="x-notch" d="M 79.7260273973 525 L 79.7260273973 530"/>
		<text class="x-axis-label" x="119.452054795" y="540">10</text>
		<path class="x-notch" d="M 159.178082192 525 L 159.178082192 530"/>
		<text class="x-axis-label" x="198.904109589" y="540">20</text>
		<path class="x-notch" d="M 238.630136986 525 L 238.630136986 530"/>
		<text class="x-axis-label" x="278.356164384" y="540">30</text>
		<path class="x-notch" d="M 318.082191781 525 L 318.082191781 530"/>
		<text class="x-axis-label" x="357.808219178" y="540">40</text>
		<path class="x-notch" d="M 397.534246575 525 L 397.534246575 530"/>
		<text class="x-axis-label" x="437.260273973" y="540">50</text>
		<path class="x-notch" d="M 476.98630137 525 L 476.98630137 530"/>
		<text class="x-axis-label" x="516.712328767" y="540">60</text>
		<path class="x-notch" d="M 556.438356164 525 L 556.438356164 530"/>
		<text class="x-axis-label" x="596.164383562" y="540">70</text>
		<path class="x-notch" d="M 635.890410959 525 L 635.890410959 530"/>
	</g>
</svg>
