<?xml version="1.0" ?>
<svg height="600" version="1.1" width="800" xmlns="http://www.w3.org/2000/svg" xmlns:svg="http://www.w3.org/2000/svg">
	<style type="text/css">

.x-axis-path, .y-gridline, .x-notch { fill:none; stroke: #a7a9ac; stroke-width:1; }



.y-gridline { stroke-width: 1; }

.y-axis-path, .y-axis-path2, .x-notch-left, .x-notch-right { display: none;}



.x-axis-label, .data-point-label {font-size: 12px; font-weight:normal; font-family: sans-serif; fill: #58595b; text-anchor:middle;}

.y-axis-label {font-size: 12px; font-family: helvetica; fill: #a7a9ac; text-anchor:end;}



.series-1-line { fill: none; stroke: #10b80c; stroke-width:2; }



.series-2-line { fill: none; stroke: #e90f0a; stroke-width: 2;}
</style>
	<rect fill="white" height="600" width="800" x="0" y="0"/>
	<g id="grid" transform="translate(70, 30)">
		<g class="x-axis" id="x_axis">
			<path class="x-axis-path" d="M 0 525 L 660 525"/>
			<path class="x-notch-left" d="M 0 525, L 0 535"/>
			<path class="x-notch-right" d="M 660 525, L 660 535"/>
		</g>
		<g class="y-axis" id="y_axis">
			<path class="y-axis-path" d="M 0 525 L 0 0"/>
			<path class="y-axis-path-2" d="M 660 525 L 660 0"/>
			<path class="y-gridline" d="M 0 525 L 660 525"/>
			<text class="y-axis-label" x="-5" y="525">-200</text>
			<path class="y-gridline" d="M 0 394 L 660 394"/>
			<text class="y-axis-label" x="-5" y="394"> 0</text>
			<path class="y-gridline" d="M 0 263 L 660 263"/>
			<text class="y-axis-label" x="-5" y="263">200</text>
			<path class="y-gridline" d="M 0 132 L 660 132"/>
			<text class="y-axis-label" x="-5" y="132">400</text>
			<path class="y-gridline" d="M 0 1 L 660 1"/>
			<text class="y-axis-label" x="-5" y="1">600</text>
		</g>
		<g>
			<path class="series-1-line" d="M 40 390.779948183 L 48 402.659217781 L 56 392.790978562 L 65 392.031514318 L 73 402.774639723 L 82 395.746444512 L 90 365.287095048 L 98 385.930182193 L 107 386.347370905 L 115 407.010712431 L 124 417.084493834 L 132 382.486604646 L 140 376.614808009 L 149 386.952212841 L 157 344.625061919 L 166 347.922803401 L 174 334.098630361 L 182 267.447550043 L 191 299.552718075 L 199 238.865920057 L 208 220.274372053 L 216 204.969097392 L 224 226.342608157 L 233 131.188549956 L 241 210.845941349 L 250 139.752189113 L 258 145.362727744 L 266 103.684666442 L 275 95.8450300854 L 283 91.7179584996 L 292 122.991431005 L 300 61.8786580342 L 308 79.8032274585 L 317 1.20332815617 L 325 19.6959696769 L 334 39.7304759632 L 342 0.0 L 351 7.39577244437 L 359 22.845509671 L 367 83.6565158722 L 376 153.860491335 L 384 146.791787361 L 393 148.649252458 L 401 198.180783677 L 409 245.805554796 L 418 260.687219926 L 426 312.977777629 L 435 335.385844207 L 443 305.555329984 L 451 292.015034755 L 460 318.845835344 L 468 298.570325431 L 477 266.305487773 L 485 311.11015279 L 493 303.635728243 L 502 312.208153643 L 510 360.360171621 L 519 317.749142888 L 527 381.501781477 L 535 358.791948129 L 544 329.813383814 L 552 281.339344685 L 561 292.427427519 L 569 291.12014556 L 577 366.091495987 L 586 372.310615477 L 594 398.654361493 L 603 392.031886854 L 611 387.073119742 L 620 400.250568583"/>
			<path class="series-2-line" d="M 40 388.0534553 L 48 392.884215627 L 56 396.132602426 L 65 397.798615698 L 73 394.717508386 L 82 386.88928049 L 90 393.302414345 L 98 388.638933505 L 107 391.887320304 L 115 384.059092408 L 124 392.845786555 L 132 396.885360119 L 140 393.804252807 L 149 392.305519022 L 157 398.718652878 L 166 384.56093087 L 174 387.80931767 L 182 393.431264761 L 191 390.350157449 L 199 391.224983956 L 208 397.638117811 L 216 385.062769332 L 224 389.893529659 L 233 398.680223806 L 241 382.940128271 L 250 402.803437113 L 258 398.139956273 L 266 395.850035725 L 275 391.186554885 L 283 393.64375492 L 292 396.89214172 L 300 402.514088811 L 308 389.938740331 L 317 408.219675646 L 325 399.600260986 L 334 397.310340438 L 342 399.767540473 L 351 394.312872869 L 359 397.561259669 L 367 390.524218537 L 376 399.310912684 L 384 397.812178899 L 393 392.357511295 L 401 386.111656928 L 409 399.645471658 L 418 398.937924638 L 426 394.274443798 L 435 391.98452325 L 443 392.859349757 L 451 382.657561569 L 460 400.14731012 L 468 391.52789546 L 477 401.896963135 L 485 392.486361711 L 493 392.570001455 L 502 388.697707379 L 510 381.660666247 L 519 401.523975089 L 527 398.442867777 L 535 399.317694285 L 544 390.698279625 L 552 399.484973772 L 561 404.315734099 L 569 398.861066495 L 577 404.483013586 L 586 397.445972454 L 594 398.320798962 L 603 388.910197538 L 611 397.696891685 L 620 385.121543206"/>
		</g>
		<text class="x-axis-label" x="40.0" y="540">0</text>
		<path class="x-notch" d="M 82.0289855072 525 L 82.0289855072 530"/>
		<text class="x-axis-label" x="124.057971014" y="540">10</text>
		<path class="x-notch" d="M 166.086956522 525 L 166.086956522 530"/>
		<text class="x-axis-label" x="208.115942029" y="540">20</text>
		<path class="x-notch" d="M 250.144927536 525 L 250.144927536 530"/>
		<text class="x-axis-label" x="292.173913043" y="540">30</text>
		<path class="x-notch" d="M 334.202898551 525 L 334.202898551 530"/>
		<text class="x-axis-label" x="376.231884058" y="540">40</text>
		<path class="x-notch" d="M 418.260869565 525 L 418.260869565 530"/>
		<text class="x-axis-label" x="460.289855072" y="540">50</text>
		<path class="x-notch" d="M 502.31884058 525 L 502.31884058 530"/>
		<text class="x-axis-label" x="544.347826087" y="540">60</text>
		<path class="x-notch" d="M 586.376811594 525 L 586.376811594 530"/>
	</g>
</svg>
