<?xml version="1.0" ?>
<svg height="600" version="1.1" width="800" xmlns="http://www.w3.org/2000/svg" xmlns:svg="http://www.w3.org/2000/svg">
	<style type="text/css">

.x-axis-path, .y-gridline, .x-notch { fill:none; stroke: #a7a9ac; stroke-width:1; }



.y-gridline { stroke-width: 1; }

.y-axis-path, .y-axis-path2, .x-notch-left, .x-notch-right { display: none;}



.x-axis-label, .data-point-label {font-size: 12px; font-weight:normal; font-family: sans-serif; fill: #58595b; text-anchor:middle;}

.y-axis-label {font-size: 12px; font-family: helvetica; fill: #a7a9ac; text-anchor:end;}



.series-1-line { fill: none; stroke: #10b80c; stroke-width:2; }



.series-2-line { fill: none; stroke: #e90f0a; stroke-width: 2;}
</style>
	<rect fill="white" height="600" width="800" x="0" y="0"/>
	<g id="grid" transform="translate(70, 30)">
		<g class="x-axis" id="x_axis">
			<path class="x-axis-path" d="M 0 525 L 660 525"/>
			<path class="x-notch-left" d="M 0 525, L 0 535"/>
			<path class="x-notch-right" d="M 660 525, L 660 535"/>
		</g>
		<g class="y-axis" id="y_axis">
			<path class="y-axis-path" d="M 0 525 L 0 0"/>
			<path class="y-axis-path-2" d="M 660 525 L 660 0"/>
			<path class="y-gridline" d="M 0 525 L 660 525"/>
			<text class="y-axis-label" x="-5" y="525">-200</text>
			<path class="y-gridline" d="M 0 394 L 660 394"/>
			<text class="y-axis-label" x="-5" y="394"> 0</text>
			<path class="y-gridline" d="M 0 263 L 660 263"/>
			<text class="y-axis-label" x="-5" y="263">200</text>
			<path class="y-gridline" d="M 0 132 L 660 132"/>
			<text class="y-axis-label" x="-5" y="132">400</text>
			<path class="y-gridline" d="M 0 1 L 660 1"/>
			<text class="y-axis-label" x="-5" y="1">600</text>
		</g>
		<g>
			<path class="series-1-line" d="M 40 383.695654544 L 47 392.621383736 L 55 404.586947073 L 63 385.682904738 L 71 399.178850418 L 79 392.958062283 L 87 386.653388461 L 95 396.239574357 L 103 404.033255578 L 111 408.336441929 L 119 393.017245423 L 127 394.154850859 L 135 400.177121468 L 143 399.050630963 L 151 388.867593169 L 159 378.925747165 L 167 366.772131573 L 175 365.614081735 L 183 349.93857546 L 190 341.998703067 L 198 335.557817204 L 206 315.458771753 L 214 293.556919878 L 222 268.342646256 L 230 258.945811935 L 238 223.291449514 L 246 215.613699452 L 254 149.71862873 L 262 119.462547353 L 270 112.633792389 L 278 97.2307101959 L 286 49.3857789049 L 294 0.0 L 302 38.4431891652 L 310 13.6481804571 L 318 15.5929199084 L 326 46.8664174172 L 333 69.5341918843 L 341 137.431885877 L 349 101.672707228 L 357 97.0871176641 L 365 148.811062587 L 373 111.112701951 L 381 192.574204575 L 389 179.89650784 L 397 294.753834408 L 405 366.330725187 L 413 362.248286224 L 421 378.008327845 L 429 391.619555024 L 437 394.455314177 L 445 380.37298187 L 453 398.260907393 L 461 389.1994523 L 469 396.185999506 L 476 403.50808946 L 484 402.088080811 L 492 396.674426691 L 500 404.740695514 L 508 385.375363662 L 516 398.452044428 L 524 400.679836752 L 532 391.471704347 L 540 390.177442468 L 548 399.291873576 L 556 392.295510758 L 564 392.531631222 L 572 393.281367558 L 580 391.536444952 L 588 400.870973788 L 596 389.943757124 L 604 397.905209719 L 612 396.086866698 L 620 388.419581907"/>
			<path class="series-2-line" d="M 40 396.6115975 L 47 392.584368586 L 55 392.6451361 L 63 393.523502901 L 71 393.993070058 L 79 393.236238287 L 87 389.617809015 L 95 394.175372601 L 103 391.374542616 L 111 391.026510487 L 119 390.678478359 L 127 389.921646588 L 135 392.435211959 L 143 394.131178045 L 151 389.695149488 L 159 395.479112003 L 167 395.539879517 L 175 386.198255246 L 183 393.617416332 L 190 389.998987061 L 198 391.694953147 L 206 387.667724233 L 214 393.86048639 L 222 390.650856762 L 230 391.120423919 L 238 390.363592148 L 246 393.694756805 L 254 391.302726462 L 262 393.407492191 L 270 391.833061134 L 278 388.623431506 L 286 392.363395806 L 294 397.329759035 L 302 396.164127621 L 310 391.319299421 L 318 392.197666221 L 326 393.484832664 L 333 398.04239625 L 341 393.606367693 L 349 393.258335565 L 357 392.501503793 L 365 392.153471665 L 373 391.396639894 L 381 391.457407408 L 389 393.562173137 L 397 397.302137437 L 405 392.86610888 L 413 393.335676038 L 421 391.352445338 L 429 389.778014281 L 437 395.153177153 L 445 393.169946453 L 453 394.048313253 L 461 390.021084339 L 469 385.585055782 L 476 392.595417225 L 484 392.247385097 L 492 393.125751897 L 500 395.639317268 L 508 388.750490854 L 516 390.855256583 L 524 395.412820169 L 532 398.335185183 L 540 394.307956269 L 548 392.733525212 L 556 401.379085227 L 564 397.760655956 L 572 393.733427042 L 580 396.246992413 L 588 392.219763499 L 596 392.280531014 L 604 395.202896028 L 612 393.219665328 L 620 394.915631414"/>
		</g>
		<text class="x-axis-label" x="40.0" y="540">0</text>
		<path class="x-notch" d="M 79.7260273973 525 L 79.7260273973 530"/>
		<text class="x-axis-label" x="119.452054795" y="540">10</text>
		<path class="x-notch" d="M 159.178082192 525 L 159.178082192 530"/>
		<text class="x-axis-label" x="198.904109589" y="540">20</text>
		<path class="x-notch" d="M 238.630136986 525 L 238.630136986 530"/>
		<text class="x-axis-label" x="278.356164384" y="540">30</text>
		<path class="x-notch" d="M 318.082191781 525 L 318.082191781 530"/>
		<text class="x-axis-label" x="357.808219178" y="540">40</text>
		<path class="x-notch" d="M 397.534246575 525 L 397.534246575 530"/>
		<text class="x-axis-label" x="437.260273973" y="540">50</text>
		<path class="x-notch" d="M 476.98630137 525 L 476.98630137 530"/>
		<text class="x-axis-label" x="516.712328767" y="540">60</text>
		<path class="x-notch" d="M 556.438356164 525 L 556.438356164 530"/>
		<text class="x-axis-label" x="596.164383562" y="540">70</text>
		<path class="x-notch" d="M 635.890410959 525 L 635.890410959 530"/>
	</g>
</svg>
