<?xml version="1.0" ?>
<svg height="600" version="1.1" width="800" xmlns="http://www.w3.org/2000/svg" xmlns:svg="http://www.w3.org/2000/svg">
	<style type="text/css">
		

.x-axis-path, .y-gridline, .x-notch { fill:none; stroke: #a7a9ac; stroke-width:1; }



.y-gridline { stroke-width: 1; }

.y-axis-path, .y-axis-path2, .x-notch-left, .x-notch-right { display: none;}



.x-axis-label, .data-point-label {font-size: 12px; font-weight:normal; font-family: sans-serif; fill: #58595b; text-anchor:middle;}

.y-axis-label {font-size: 12px; font-family: helvetica; fill: #a7a9ac; text-anchor:end;}



.series-1-line { fill: none; stroke: #10b80c; stroke-width:2; }



.series-2-line { fill: none; stroke: #e90f0a; stroke-width: 2;}

	</style>
	<rect fill="white" height="600" width="800" x="0" y="0"/>
	<g id="grid" transform="translate(70, 30)">
		<g class="x-axis" id="x_axis">
			<path class="x-axis-path" d="M 0 525 L 660 525"/>
			<path class="x-notch-left" d="M 0 525, L 0 535"/>
			<path class="x-notch-right" d="M 660 525, L 660 535"/>
		</g>
		<g class="y-axis" id="y_axis">
			<path class="y-axis-path" d="M 0 525 L 0 0"/>
			<path class="y-axis-path-2" d="M 660 525 L 660 0"/>
			<path class="y-gridline" d="M 0 525 L 660 525"/>
			<text class="y-axis-label" x="-5" y="525">
				-250
			</text>
			<path class="y-gridline" d="M 0 420 L 660 420"/>
			<text class="y-axis-label" x="-5" y="420">
				 0
			</text>
			<path class="y-gridline" d="M 0 315 L 660 315"/>
			<text class="y-axis-label" x="-5" y="315">
				250
			</text>
			<path class="y-gridline" d="M 0 210 L 660 210"/>
			<text class="y-axis-label" x="-5" y="210">
				500
			</text>
			<path class="y-gridline" d="M 0 105 L 660 105"/>
			<text class="y-axis-label" x="-5" y="105">
				750
			</text>
			<path class="y-gridline" d="M 0 0 L 660 0"/>
			<text class="y-axis-label" x="-5" y="0">
				1000
			</text>
		</g>
		<g>
			<path class="series-1-line" d="M 40 418.139064 L 45 413.729762208 L 51 410.741908416 L 57 429.163302624 L 63 426.455504832 L 69 422.63840304 L 75 422.676733248 L 81 417.642807456 L 86 399.491945664 L 92 419.410219872 L 98 424.06855008 L 104 401.168496288 L 110 422.852954496 L 116 403.258972704 L 122 428.809614912 L 127 420.30800112 L 133 406.917083328 L 139 407.666221536 L 145 405.076863744 L 151 397.759817952 L 157 391.51965216 L 163 407.302606368 L 168 396.916368576 L 174 394.014698784 L 180 397.929964992 L 186 399.6482952 L 192 371.751249408 L 198 370.324955616 L 204 368.026405824 L 209 351.070864032 L 215 340.38306624 L 221 344.686076448 L 227 340.459726656 L 233 331.645800864 L 239 308.293323072 L 245 260.74246128 L 250 195.023911488 L 256 182.989929696 L 262 213.817451904 L 268 153.978902112 L 274 142.78492032 L 280 123.514002528 L 286 107.829212736 L 291 45.976846944 L 297 44.625985152 L 303 37.64275536 L 309 77.904149568 L 315 49.350223776 L 321 60.103929984 L 327 66.991452192 L 332 65.0806464 L 338 113.946664608 L 344 119.477250816 L 350 85.980261024 L 356 119.629343232 L 362 171.31692144 L 368 224.889123648 L 373 275.025893856 L 379 244.921160064 L 385 291.784114272 L 391 295.78556448 L 397 410.203838688 L 403 415.228408896 L 409 411.314371104 L 414 405.763509312 L 420 414.32027952 L 426 404.666353728 L 432 414.795435936 L 438 413.972262144 L 444 429.765968352 L 450 407.10279456 L 455 417.038004768 L 461 414.545582976 L 467 410.470097184 L 473 426.145363392 L 479 410.6114376 L 485 401.571215808 L 491 425.011106016 L 496 423.757180224 L 502 424.344702432 L 508 416.98464864 L 514 423.032170848 L 520 417.879805056 L 526 425.510391264 L 532 426.571841472 L 537 419.34097968 L 543 430.040757888 L 549 407.485272096 L 555 427.242098304 L 561 424.674244512 L 567 430.14031872 L 573 411.590960928 L 578 417.390851136 L 584 428.230741344 L 590 410.230575552 L 596 425.27046576 L 602 422.562667968 L 608 424.507126176 L 614 411.202392384 L 620 419.113034592"/>
			<path class="series-2-line" d="M 40 418.74 L 45 423.81528 L 51 420.07056 L 57 418.00584 L 63 419.72112 L 69 414.2964 L 75 413.49168 L 81 417.72696 L 86 420.70224 L 92 414.43752 L 98 413.6328 L 104 420.38808 L 110 417.06336 L 116 415.83864 L 122 415.45392 L 127 420.1092 L 133 417.62448 L 139 420.59976 L 145 420.21504 L 151 420.25032 L 157 416.0856 L 163 416.12088 L 168 419.93616 L 174 419.13144 L 180 419.58672 L 186 418.782 L 192 418.81728 L 198 417.17256 L 204 420.56784 L 209 417.24312 L 215 418.9584 L 221 424.45368 L 227 417.34896 L 233 421.58424 L 239 416.99952 L 245 419.9748 L 250 423.37008 L 256 422.14536 L 262 417.56064 L 268 420.95592 L 274 419.7312 L 280 417.24648 L 286 412.24176 L 291 418.57704 L 297 421.55232 L 303 418.6476 L 309 416.58288 L 315 420.81816 L 321 419.17344 L 327 414.58872 L 332 423.024 L 338 421.79928 L 344 415.95456 L 350 421.44984 L 356 418.96512 L 362 419.8404 L 368 421.55568 L 373 418.65096 L 379 419.10624 L 385 419.14152 L 391 422.5368 L 397 416.27208 L 403 423.86736 L 409 417.18264 L 414 420.15792 L 420 417.2532 L 426 421.48848 L 432 419.00376 L 438 421.55904 L 444 419.91432 L 450 422.4696 L 455 417.46488 L 461 418.34016 L 467 420.47544 L 473 420.93072 L 479 425.166 L 485 415.54128 L 491 416.83656 L 496 421.07184 L 502 416.48712 L 508 423.2424 L 514 418.65768 L 520 424.99296 L 526 419.14824 L 532 422.54352 L 537 425.5188 L 543 415.89408 L 549 418.02936 L 555 420.58464 L 561 416.83992 L 567 421.0752 L 573 420.69048 L 578 421.98576 L 584 423.28104 L 590 419.11632 L 596 420.4116 L 602 422.12688 L 608 418.80216 L 614 419.25744 L 620 418.87272"/>
		</g>
		<text class="x-axis-label" x="40.0" y="540">
			0
		</text>
		<path class="x-notch" d="M 69.2929292929 525 L 69.2929292929 530"/>
		<text class="x-axis-label" x="98.5858585859" y="540">
			10
		</text>
		<path class="x-notch" d="M 127.878787879 525 L 127.878787879 530"/>
		<text class="x-axis-label" x="157.171717172" y="540">
			20
		</text>
		<path class="x-notch" d="M 186.464646465 525 L 186.464646465 530"/>
		<text class="x-axis-label" x="215.757575758" y="540">
			30
		</text>
		<path class="x-notch" d="M 245.050505051 525 L 245.050505051 530"/>
		<text class="x-axis-label" x="274.343434343" y="540">
			40
		</text>
		<path class="x-notch" d="M 303.636363636 525 L 303.636363636 530"/>
		<text class="x-axis-label" x="332.929292929" y="540">
			50
		</text>
		<path class="x-notch" d="M 362.222222222 525 L 362.222222222 530"/>
		<text class="x-axis-label" x="391.515151515" y="540">
			60
		</text>
		<path class="x-notch" d="M 420.808080808 525 L 420.808080808 530"/>
		<text class="x-axis-label" x="450.101010101" y="540">
			70
		</text>
		<path class="x-notch" d="M 479.393939394 525 L 479.393939394 530"/>
		<text class="x-axis-label" x="508.686868687" y="540">
			80
		</text>
		<path class="x-notch" d="M 537.97979798 525 L 537.97979798 530"/>
		<text class="x-axis-label" x="567.272727273" y="540">
			90
		</text>
		<path class="x-notch" d="M 596.565656566 525 L 596.565656566 530"/>
	</g>
</svg>
