<?xml version="1.0" ?>
<svg height="600" version="1.1" width="800" xmlns="http://www.w3.org/2000/svg" xmlns:svg="http://www.w3.org/2000/svg">
	<style type="text/css">

.x-axis-path, .y-gridline, .x-notch { fill:none; stroke: #a7a9ac; stroke-width:1; }



.y-gridline { stroke-width: 1; }

.y-axis-path, .y-axis-path2, .x-notch-left, .x-notch-right { display: none;}



.x-axis-label, .data-point-label {font-size: 12px; font-weight:normal; font-family: sans-serif; fill: #58595b; text-anchor:middle;}

.y-axis-label {font-size: 12px; font-family: helvetica; fill: #a7a9ac; text-anchor:end;}



.series-1-line { fill: none; stroke: #10b80c; stroke-width:2; }



.series-2-line { fill: none; stroke: #e90f0a; stroke-width: 2;}
</style>
	<rect fill="white" height="600" width="800" x="0" y="0"/>
	<g id="grid" transform="translate(70, 30)">
		<g class="x-axis" id="x_axis">
			<path class="x-axis-path" d="M 0 525 L 660 525"/>
			<path class="x-notch-left" d="M 0 525, L 0 535"/>
			<path class="x-notch-right" d="M 660 525, L 660 535"/>
		</g>
		<g class="y-axis" id="y_axis">
			<path class="y-axis-path" d="M 0 525 L 0 0"/>
			<path class="y-axis-path-2" d="M 660 525 L 660 0"/>
			<path class="y-gridline" d="M 0 525 L 660 525"/>
			<text class="y-axis-label" x="-5" y="525">-200</text>
			<path class="y-gridline" d="M 0 394 L 660 394"/>
			<text class="y-axis-label" x="-5" y="394"> 0</text>
			<path class="y-gridline" d="M 0 263 L 660 263"/>
			<text class="y-axis-label" x="-5" y="263">200</text>
			<path class="y-gridline" d="M 0 132 L 660 132"/>
			<text class="y-axis-label" x="-5" y="132">400</text>
			<path class="y-gridline" d="M 0 1 L 660 1"/>
			<text class="y-axis-label" x="-5" y="1">600</text>
		</g>
		<g>
			<path class="series-1-line" d="M 40 397.820831743 L 48 403.004959792 L 56 386.962587789 L 64 413.554941857 L 72 362.54718986 L 80 406.040625782 L 88 426.817465431 L 96 381.497934625 L 104 398.222086777 L 112 366.169118504 L 120 383.293011081 L 128 360.272191877 L 136 356.351593872 L 144 385.633548939 L 152 382.530576029 L 160 369.468679972 L 168 364.875610841 L 176 315.503392538 L 185 349.928390898 L 193 294.377206244 L 201 346.721065271 L 209 276.358789124 L 217 260.679869053 L 225 270.225703793 L 233 216.437346062 L 241 236.341844372 L 249 155.057299006 L 257 158.278729921 L 265 184.180468617 L 273 142.095716708 L 281 34.1873250456 L 289 112.010241833 L 297 80.1934322647 L 305 81.6701805034 L 313 100.993212424 L 321 27.3051526449 L 330 62.1117471833 L 338 0.0 L 346 56.7237099627 L 354 19.5458426424 L 362 88.8273555196 L 370 62.8442046162 L 378 107.209981877 L 386 140.217461 L 394 189.508267095 L 402 211.720770227 L 410 246.854528205 L 418 228.994896541 L 426 209.354293709 L 434 234.220109347 L 442 245.61949224 L 450 216.783158617 L 458 286.282685953 L 466 365.305107519 L 475 359.676115329 L 483 399.643897407 L 491 408.589838006 L 499 418.662706398 L 507 413.088146947 L 515 403.352034523 L 523 413.333898179 L 531 412.775372299 L 539 429.026923537 L 547 426.051243855 L 555 422.366804554 L 563 407.741951787 L 571 394.280315306 L 579 393.231044266 L 587 411.245422427 L 595 394.803309999 L 603 371.855067781 L 611 398.574715076 L 620 399.560718155"/>
			<path class="series-2-line" d="M 40 394.458759618 L 48 394.536431905 L 56 388.944027247 L 64 393.983016861 L 72 397.604487238 L 80 392.01208258 L 88 392.089754867 L 96 392.876186772 L 104 389.410060968 L 112 393.740290964 L 120 383.186568979 L 128 388.225558593 L 136 398.934625152 L 144 399.012297439 L 152 392.711133162 L 160 392.080045831 L 168 397.119035445 L 176 394.36166926 L 185 393.730581928 L 193 387.429417652 L 201 383.25453223 L 209 393.254839171 L 217 386.244915276 L 225 396.953981836 L 233 392.070336795 L 241 390.021730228 L 249 390.099402515 L 257 392.303353656 L 265 394.507304797 L 273 388.206140521 L 281 395.371408989 L 289 396.866600513 L 297 391.982955473 L 305 389.934348905 L 313 395.682098137 L 321 399.303568515 L 330 394.419923475 L 338 388.827518816 L 346 392.448989194 L 354 394.652940335 L 362 401.818208804 L 370 399.060842618 L 378 395.594716814 L 386 394.963629483 L 394 397.167580625 L 402 394.410214439 L 410 393.779127108 L 418 395.274318631 L 426 398.18702939 L 434 396.138422823 L 442 394.089816255 L 450 394.167488542 L 458 394.953920447 L 466 402.827948534 L 475 403.614380439 L 483 395.186937308 L 491 388.885773032 L 499 400.303599209 L 507 392.584915696 L 515 398.332664928 L 523 396.284058361 L 531 407.701884538 L 539 395.021883698 L 547 396.517075222 L 555 398.012266745 L 563 392.419862086 L 571 398.876370937 L 579 403.915360551 L 587 392.652878947 L 595 394.14807047 L 603 387.846906194 L 611 400.682251608 L 620 392.254808477"/>
		</g>
		<text class="x-axis-label" x="40.0" y="540">0</text>
		<path class="x-notch" d="M 80.2777777778 525 L 80.2777777778 530"/>
		<text class="x-axis-label" x="120.555555556" y="540">10</text>
		<path class="x-notch" d="M 160.833333333 525 L 160.833333333 530"/>
		<text class="x-axis-label" x="201.111111111" y="540">20</text>
		<path class="x-notch" d="M 241.388888889 525 L 241.388888889 530"/>
		<text class="x-axis-label" x="281.666666667" y="540">30</text>
		<path class="x-notch" d="M 321.944444444 525 L 321.944444444 530"/>
		<text class="x-axis-label" x="362.222222222" y="540">40</text>
		<path class="x-notch" d="M 402.5 525 L 402.5 530"/>
		<text class="x-axis-label" x="442.777777778" y="540">50</text>
		<path class="x-notch" d="M 483.055555556 525 L 483.055555556 530"/>
		<text class="x-axis-label" x="523.333333333" y="540">60</text>
		<path class="x-notch" d="M 563.611111111 525 L 563.611111111 530"/>
		<text class="x-axis-label" x="603.888888889" y="540">70</text>
		<path class="x-notch" d="M 644.166666667 525 L 644.166666667 530"/>
	</g>
</svg>
