<?xml version="1.0" ?>
<svg height="600" version="1.1" width="800" xmlns="http://www.w3.org/2000/svg" xmlns:svg="http://www.w3.org/2000/svg">
	<style type="text/css">

.x-axis-path, .y-gridline, .x-notch { fill:none; stroke: #a7a9ac; stroke-width:1; }



.y-gridline { stroke-width: 1; }

.y-axis-path, .y-axis-path2, .x-notch-left, .x-notch-right { display: none;}



.x-axis-label, .data-point-label {font-size: 12px; font-weight:normal; font-family: sans-serif; fill: #58595b; text-anchor:middle;}

.y-axis-label {font-size: 12px; font-family: helvetica; fill: #a7a9ac; text-anchor:end;}



.series-1-line { fill: none; stroke: #10b80c; stroke-width:2; }



.series-2-line { fill: none; stroke: #e90f0a; stroke-width: 2;}
</style>
	<rect fill="white" height="600" width="800" x="0" y="0"/>
	<g id="grid" transform="translate(70, 30)">
		<g class="x-axis" id="x_axis">
			<path class="x-axis-path" d="M 0 525 L 660 525"/>
			<path class="x-notch-left" d="M 0 525, L 0 535"/>
			<path class="x-notch-right" d="M 660 525, L 660 535"/>
		</g>
		<g class="y-axis" id="y_axis">
			<path class="y-axis-path" d="M 0 525 L 0 0"/>
			<path class="y-axis-path-2" d="M 660 525 L 660 0"/>
			<path class="y-gridline" d="M 0 525 L 660 525"/>
			<text class="y-axis-label" x="-5" y="525">-200</text>
			<path class="y-gridline" d="M 0 394 L 660 394"/>
			<text class="y-axis-label" x="-5" y="394"> 0</text>
			<path class="y-gridline" d="M 0 263 L 660 263"/>
			<text class="y-axis-label" x="-5" y="263">200</text>
			<path class="y-gridline" d="M 0 132 L 660 132"/>
			<text class="y-axis-label" x="-5" y="132">400</text>
			<path class="y-gridline" d="M 0 1 L 660 1"/>
			<text class="y-axis-label" x="-5" y="1">600</text>
		</g>
		<g>
			<path class="series-1-line" d="M 40 389.608056344 L 48 392.921078955 L 57 408.691915306 L 66 385.969913403 L 75 393.504811653 L 83 382.664833797 L 92 381.276239183 L 101 385.804706935 L 110 373.061729175 L 119 388.560637118 L 127 400.557406539 L 136 400.000314111 L 145 363.237326287 L 154 396.295574589 L 163 358.477055486 L 171 388.144930335 L 180 390.818297498 L 189 397.761439617 L 198 379.677189184 L 206 367.685881418 L 215 339.830420019 L 224 301.244264484 L 233 329.488881015 L 242 282.586955186 L 250 251.788929043 L 259 185.184916897 L 268 193.83921218 L 277 126.835290641 L 286 63.7174505793 L 294 69.3333824869 L 303 87.135199727 L 312 69.0828821716 L 321 57.6351817454 L 330 68.4484389024 L 338 96.0853328625 L 347 51.6781630691 L 356 49.6658794459 L 365 61.5825671976 L 373 0.0 L 382 50.9212004692 L 391 121.608602486 L 400 177.871325103 L 409 155.75704577 L 417 171.096039852 L 426 210.614957859 L 435 303.099542312 L 444 341.163269124 L 453 384.872129893 L 461 410.941818112 L 470 362.632600403 L 479 404.16653286 L 488 400.47502895 L 496 410.168889073 L 505 375.628728877 L 514 399.187694621 L 523 402.804578517 L 532 411.379041608 L 540 411.589585612 L 549 414.166904668 L 558 391.029276409 L 567 389.240772403 L 576 414.910551229 L 584 399.608951678 L 593 388.561160645 L 602 383.958072878 L 611 412.442435464 L 620 381.260715843"/>
			<path class="series-2-line" d="M 40 392.876835387 L 48 392.873111871 L 57 395.36414439 L 66 394.736731865 L 75 392.861941322 L 83 387.245016725 L 92 390.983427262 L 101 395.969215817 L 110 395.341803292 L 119 391.595945721 L 127 399.076490312 L 136 394.706943733 L 145 395.326909226 L 154 400.93638679 L 163 395.943151202 L 171 395.315738676 L 180 397.806771196 L 189 390.942468581 L 198 396.551946145 L 206 400.290356682 L 215 397.79187713 L 224 390.927574515 L 233 393.418607034 L 242 394.662261535 L 250 389.045336938 L 259 399.020637565 L 268 392.780023959 L 277 392.152611434 L 286 393.396265935 L 294 399.005743499 L 303 400.87308701 L 312 401.493052502 L 321 393.381371869 L 330 390.882892317 L 338 390.879168801 L 347 392.122823302 L 356 395.861233839 L 365 391.49168726 L 373 396.477475815 L 382 388.365795182 L 391 385.86731563 L 400 395.842616257 L 409 397.709959767 L 417 394.587791206 L 426 389.594555618 L 435 392.085588137 L 444 395.200309666 L 453 393.325519122 L 461 394.569173624 L 470 396.436517134 L 479 393.314348573 L 488 391.43955803 L 496 393.30690154 L 505 387.689976943 L 514 391.42838748 L 523 392.672041982 L 532 398.905208555 L 540 396.406729002 L 549 389.542426387 L 558 405.130928095 L 567 398.26662548 L 576 388.907566829 L 584 398.259178447 L 593 400.750210966 L 602 395.133286369 L 611 384.5268497 L 620 390.136327265"/>
		</g>
		<text class="x-axis-label" x="40.0" y="540">0</text>
		<path class="x-notch" d="M 83.9393939394 525 L 83.9393939394 530"/>
		<text class="x-axis-label" x="127.878787879" y="540">10</text>
		<path class="x-notch" d="M 171.818181818 525 L 171.818181818 530"/>
		<text class="x-axis-label" x="215.757575758" y="540">20</text>
		<path class="x-notch" d="M 259.696969697 525 L 259.696969697 530"/>
		<text class="x-axis-label" x="303.636363636" y="540">30</text>
		<path class="x-notch" d="M 347.575757576 525 L 347.575757576 530"/>
		<text class="x-axis-label" x="391.515151515" y="540">40</text>
		<path class="x-notch" d="M 435.454545455 525 L 435.454545455 530"/>
		<text class="x-axis-label" x="479.393939394" y="540">50</text>
		<path class="x-notch" d="M 523.333333333 525 L 523.333333333 530"/>
		<text class="x-axis-label" x="567.272727273" y="540">60</text>
		<path class="x-notch" d="M 611.212121212 525 L 611.212121212 530"/>
	</g>
</svg>
