<?xml version="1.0" ?>
<svg height="600" version="1.1" width="800" xmlns="http://www.w3.org/2000/svg" xmlns:svg="http://www.w3.org/2000/svg">
	<style type="text/css">
		

.x-axis-path, .y-gridline, .x-notch { fill:none; stroke: #a7a9ac; stroke-width:1; }



.y-gridline { stroke-width: 1; }

.y-axis-path, .y-axis-path2, .x-notch-left, .x-notch-right { display: none;}



.x-axis-label, .data-point-label {font-size: 12px; font-weight:normal; font-family: sans-serif; fill: #58595b; text-anchor:middle;}

.y-axis-label {font-size: 12px; font-family: helvetica; fill: #a7a9ac; text-anchor:end;}



.series-1-line { fill: none; stroke: #10b80c; stroke-width:2; }



.series-2-line { fill: none; stroke: #e90f0a; stroke-width: 2;}

	</style>
	<rect fill="white" height="600" width="800" x="0" y="0"/>
	<g id="grid" transform="translate(70, 30)">
		<g class="x-axis" id="x_axis">
			<path class="x-axis-path" d="M 0 525 L 660 525"/>
			<path class="x-notch-left" d="M 0 525, L 0 535"/>
			<path class="x-notch-right" d="M 660 525, L 660 535"/>
		</g>
		<g class="y-axis" id="y_axis">
			<path class="y-axis-path" d="M 0 525 L 0 0"/>
			<path class="y-axis-path-2" d="M 660 525 L 660 0"/>
			<path class="y-gridline" d="M 0 525 L 660 525"/>
			<text class="y-axis-label" x="-5" y="525">
				-200
			</text>
			<path class="y-gridline" d="M 0 394 L 660 394"/>
			<text class="y-axis-label" x="-5" y="394">
				 0
			</text>
			<path class="y-gridline" d="M 0 263 L 660 263"/>
			<text class="y-axis-label" x="-5" y="263">
				200
			</text>
			<path class="y-gridline" d="M 0 132 L 660 132"/>
			<text class="y-axis-label" x="-5" y="132">
				400
			</text>
			<path class="y-gridline" d="M 0 1 L 660 1"/>
			<text class="y-axis-label" x="-5" y="1">
				600
			</text>
		</g>
		<g>
			<path class="series-1-line" d="M 40 399.6057975 L 47 377.610828 L 55 389.219271 L 63 399.7338765 L 71 399.025032 L 79 398.9892375 L 87 395.352468 L 94 385.4729235 L 102 390.5692665 L 110 389.170572 L 118 392.8029525 L 126 403.7383455 L 134 396.0126135 L 141 349.349469 L 149 385.7607495 L 157 391.1432175 L 165 342.241998 L 173 334.0114785 L 181 295.1726715 L 188 249.9398895 L 196 205.4473575 L 204 195.954738 L 212 194.421381 L 220 154.3879365 L 228 119.251167 L 235 109.0182975 L 243 96.0425655 L 251 23.9539335 L 259 10.490214 L 267 59.7403695 L 275 37.375275 L 282 16.9621305 L 290 26.9887485 L 298 4.7583165 L 306 60.167247 L 314 16.2635025 L 322 38.6748705 L 330 111.9876135 L 337 160.850844 L 345 124.199712 L 353 122.060505 L 361 224.7194355 L 369 236.496141 L 377 161.849709 L 384 208.575927 L 392 233.98242 L 400 204.1292505 L 408 217.0333935 L 416 271.9375365 L 424 303.6204045 L 431 344.591835 L 439 352.212378 L 447 385.7125335 L 455 402.150189 L 463 397.318782 L 471 405.4609125 L 478 410.052468 L 486 397.9180485 L 494 411.983229 L 502 404.7790845 L 510 411.25539 L 518 398.7508455 L 525 410.224626 L 533 386.715294 L 541 399.8380995 L 549 389.62203 L 557 400.4395605 L 565 394.6489785 L 572 387.8992215 L 580 395.9066895 L 588 391.64727 L 596 398.678763 L 604 395.479581 L 612 388.8812865 L 620 399.395892"/>
			<path class="series-2-line" d="M 40 396.50625 L 47 393.855 L 55 395.7975 L 63 389.20875 L 71 393.12 L 79 394.40625 L 87 394.38 L 94 395.66625 L 102 389.73375 L 110 398.895 L 118 390.99375 L 126 395.56125 L 134 393.56625 L 141 400.1025 L 149 397.45125 L 157 398.08125 L 165 395.43 L 173 395.40375 L 181 384.22125 L 188 397.97625 L 196 398.60625 L 204 390.705 L 212 395.2725 L 220 391.30875 L 228 391.2825 L 235 396.50625 L 243 394.51125 L 251 400.39125 L 259 397.74 L 267 388.52625 L 275 392.4375 L 282 398.97375 L 290 391.72875 L 298 400.23375 L 306 402.8325 L 314 388.36875 L 322 394.24875 L 330 393.56625 L 337 393.54 L 345 399.42 L 353 396.1125 L 361 398.71125 L 369 399.9975 L 377 395.3775 L 384 396.0075 L 392 395.325 L 400 390.04875 L 408 394.61625 L 416 399.18375 L 424 391.93875 L 431 394.5375 L 439 404.355 L 447 395.14125 L 455 385.9275 L 463 393.12 L 471 398.34375 L 478 394.38 L 486 389.10375 L 494 391.7025 L 502 385.11375 L 510 394.275 L 518 395.56125 L 525 392.91 L 533 396.165 L 541 392.20125 L 549 394.8 L 557 392.14875 L 565 395.40375 L 572 394.72125 L 580 395.35125 L 588 390.075 L 596 389.3925 L 604 397.8975 L 612 399.18375 L 620 392.595"/>
		</g>
		<text class="x-axis-label" x="40.0" y="540">
			0
		</text>
		<path class="x-notch" d="M 79.1891891892 525 L 79.1891891892 530"/>
		<text class="x-axis-label" x="118.378378378" y="540">
			10
		</text>
		<path class="x-notch" d="M 157.567567568 525 L 157.567567568 530"/>
		<text class="x-axis-label" x="196.756756757" y="540">
			20
		</text>
		<path class="x-notch" d="M 235.945945946 525 L 235.945945946 530"/>
		<text class="x-axis-label" x="275.135135135" y="540">
			30
		</text>
		<path class="x-notch" d="M 314.324324324 525 L 314.324324324 530"/>
		<text class="x-axis-label" x="353.513513514" y="540">
			40
		</text>
		<path class="x-notch" d="M 392.702702703 525 L 392.702702703 530"/>
		<text class="x-axis-label" x="431.891891892" y="540">
			50
		</text>
		<path class="x-notch" d="M 471.081081081 525 L 471.081081081 530"/>
		<text class="x-axis-label" x="510.27027027" y="540">
			60
		</text>
		<path class="x-notch" d="M 549.459459459 525 L 549.459459459 530"/>
		<text class="x-axis-label" x="588.648648649" y="540">
			70
		</text>
		<path class="x-notch" d="M 627.837837838 525 L 627.837837838 530"/>
	</g>
</svg>
