<?xml version="1.0" ?>
<svg height="600" version="1.1" width="800" xmlns="http://www.w3.org/2000/svg" xmlns:svg="http://www.w3.org/2000/svg">
	<style type="text/css">

.x-axis-path, .y-gridline, .x-notch { fill:none; stroke: #a7a9ac; stroke-width:1; }



.y-gridline { stroke-width: 1; }

.y-axis-path, .y-axis-path2, .x-notch-left, .x-notch-right { display: none;}



.x-axis-label, .data-point-label {font-size: 12px; font-weight:normal; font-family: sans-serif; fill: #58595b; text-anchor:middle;}

.y-axis-label {font-size: 12px; font-family: helvetica; fill: #a7a9ac; text-anchor:end;}



.series-1-line { fill: none; stroke: #10b80c; stroke-width:2; }



.series-2-line { fill: none; stroke: #e90f0a; stroke-width: 2;}
</style>
	<rect fill="white" height="600" width="800" x="0" y="0"/>
	<g id="grid" transform="translate(70, 30)">
		<g class="x-axis" id="x_axis">
			<path class="x-axis-path" d="M 0 525 L 660 525"/>
			<path class="x-notch-left" d="M 0 525, L 0 535"/>
			<path class="x-notch-right" d="M 660 525, L 660 535"/>
		</g>
		<g class="y-axis" id="y_axis">
			<path class="y-axis-path" d="M 0 525 L 0 0"/>
			<path class="y-axis-path-2" d="M 660 525 L 660 0"/>
			<path class="y-gridline" d="M 0 525 L 660 525"/>
			<text class="y-axis-label" x="-5" y="525">-200</text>
			<path class="y-gridline" d="M 0 394 L 660 394"/>
			<text class="y-axis-label" x="-5" y="394"> 0</text>
			<path class="y-gridline" d="M 0 263 L 660 263"/>
			<text class="y-axis-label" x="-5" y="263">200</text>
			<path class="y-gridline" d="M 0 132 L 660 132"/>
			<text class="y-axis-label" x="-5" y="132">400</text>
			<path class="y-gridline" d="M 0 1 L 660 1"/>
			<text class="y-axis-label" x="-5" y="1">600</text>
		</g>
		<g>
			<path class="series-1-line" d="M 40 408.46636862 L 47 419.30358013 L 55 368.32131205 L 63 375.565426201 L 71 397.059285396 L 79 404.211416255 L 87 354.518830587 L 95 385.348514877 L 103 387.740510356 L 111 354.508622306 L 119 401.890987506 L 127 373.357912642 L 135 358.951459351 L 143 377.589045685 L 151 366.192170742 L 159 358.019980907 L 167 360.473298581 L 175 387.372134361 L 183 344.650636648 L 190 363.134917495 L 198 353.273492823 L 206 327.780657403 L 214 345.220544618 L 222 322.061785242 L 230 366.802984345 L 238 352.181424292 L 246 271.318000421 L 254 282.585425454 L 262 226.935005287 L 270 164.651248316 L 278 105.991249802 L 286 41.2814334947 L 294 82.6753030983 L 302 0.0 L 310 127.812651867 L 318 114.358129836 L 326 75.3528529507 L 333 43.5950929768 L 341 107.100404644 L 349 9.74562205796 L 357 143.301001663 L 365 175.35904617 L 373 176.276913572 L 381 224.795655698 L 389 312.777146569 L 397 201.141957843 L 405 239.680033666 L 413 210.624761985 L 421 232.271926667 L 429 285.888555324 L 437 328.910337571 L 445 310.112161149 L 453 359.183761188 L 461 347.23402833 L 469 357.702827591 L 476 429.192959747 L 484 416.41394002 L 492 431.673535758 L 500 419.294068456 L 508 409.156214827 L 516 431.939756433 L 524 406.508243208 L 532 413.998125219 L 540 393.940927483 L 548 411.872350416 L 556 394.578963168 L 564 416.994092525 L 572 389.443610018 L 580 408.603393168 L 588 386.42722615 L 596 395.022823987 L 604 401.990509182 L 612 364.152270318 L 620 421.208211767"/>
			<path class="series-2-line" d="M 40 396.145398239 L 47 386.589701481 L 55 398.592588872 L 63 389.036892114 L 71 398.644381266 L 79 403.461073941 L 87 401.0915719 L 95 402.315167216 L 103 402.341063413 L 111 401.169260491 L 119 389.218165494 L 127 402.418752005 L 135 407.23544468 L 143 395.284349683 L 151 397.705644119 L 159 410.90623063 L 167 401.350533871 L 175 408.562624785 L 183 393.01843243 L 190 405.021319821 L 198 401.45411866 L 206 407.468510454 L 214 395.517415457 L 222 411.113400207 L 230 390.778411374 L 238 382.420413735 L 246 384.841708171 L 254 401.63539204 L 262 394.475093521 L 270 394.500989718 L 278 389.736089438 L 286 394.552782112 L 294 382.601687115 L 302 387.41837979 L 310 393.432771585 L 318 389.865570423 L 326 401.868457815 L 333 404.289752251 L 341 399.52485197 L 349 405.539243765 L 357 403.169741723 L 365 399.602540562 L 373 396.035339401 L 381 393.665837359 L 389 400.877928273 L 397 392.519930634 L 405 405.720517145 L 413 406.944112462 L 421 392.597619226 L 429 389.030418065 L 437 403.428703695 L 445 392.675307817 L 453 397.492000492 L 461 392.727100212 L 469 393.950695528 L 476 404.7558838 L 484 389.211691445 L 492 390.435286761 L 500 406.031271511 L 508 398.870972992 L 516 394.106072711 L 524 390.53887155 L 532 389.367068628 L 540 388.195265706 L 548 393.01195838 L 556 381.060863383 L 564 387.075255178 L 572 387.101151375 L 580 387.127047572 L 588 389.548342008 L 596 402.748928519 L 604 389.600134402 L 612 406.393818272 L 620 380.070333841"/>
		</g>
		<text class="x-axis-label" x="40.0" y="540">0</text>
		<path class="x-notch" d="M 79.7260273973 525 L 79.7260273973 530"/>
		<text class="x-axis-label" x="119.452054795" y="540">10</text>
		<path class="x-notch" d="M 159.178082192 525 L 159.178082192 530"/>
		<text class="x-axis-label" x="198.904109589" y="540">20</text>
		<path class="x-notch" d="M 238.630136986 525 L 238.630136986 530"/>
		<text class="x-axis-label" x="278.356164384" y="540">30</text>
		<path class="x-notch" d="M 318.082191781 525 L 318.082191781 530"/>
		<text class="x-axis-label" x="357.808219178" y="540">40</text>
		<path class="x-notch" d="M 397.534246575 525 L 397.534246575 530"/>
		<text class="x-axis-label" x="437.260273973" y="540">50</text>
		<path class="x-notch" d="M 476.98630137 525 L 476.98630137 530"/>
		<text class="x-axis-label" x="516.712328767" y="540">60</text>
		<path class="x-notch" d="M 556.438356164 525 L 556.438356164 530"/>
		<text class="x-axis-label" x="596.164383562" y="540">70</text>
		<path class="x-notch" d="M 635.890410959 525 L 635.890410959 530"/>
	</g>
</svg>
