<?xml version="1.0" ?>
<svg height="600" version="1.1" width="800" xmlns="http://www.w3.org/2000/svg" xmlns:svg="http://www.w3.org/2000/svg">
	<style type="text/css">

.x-axis-path, .y-gridline, .x-notch { fill:none; stroke: #a7a9ac; stroke-width:1; }



.y-gridline { stroke-width: 1; }

.y-axis-path, .y-axis-path2, .x-notch-left, .x-notch-right { display: none;}



.x-axis-label, .data-point-label {font-size: 12px; font-weight:normal; font-family: sans-serif; fill: #58595b; text-anchor:middle;}

.y-axis-label {font-size: 12px; font-family: helvetica; fill: #a7a9ac; text-anchor:end;}



.series-1-line { fill: none; stroke: #10b80c; stroke-width:2; }



.series-2-line { fill: none; stroke: #e90f0a; stroke-width: 2;}
</style>
	<rect fill="white" height="600" width="800" x="0" y="0"/>
	<g id="grid" transform="translate(70, 30)">
		<g class="x-axis" id="x_axis">
			<path class="x-axis-path" d="M 0 525 L 660 525"/>
			<path class="x-notch-left" d="M 0 525, L 0 535"/>
			<path class="x-notch-right" d="M 660 525, L 660 535"/>
		</g>
		<g class="y-axis" id="y_axis">
			<path class="y-axis-path" d="M 0 525 L 0 0"/>
			<path class="y-axis-path-2" d="M 660 525 L 660 0"/>
			<path class="y-gridline" d="M 0 525 L 660 525"/>
			<text class="y-axis-label" x="-5" y="525">-200</text>
			<path class="y-gridline" d="M 0 394 L 660 394"/>
			<text class="y-axis-label" x="-5" y="394"> 0</text>
			<path class="y-gridline" d="M 0 263 L 660 263"/>
			<text class="y-axis-label" x="-5" y="263">200</text>
			<path class="y-gridline" d="M 0 132 L 660 132"/>
			<text class="y-axis-label" x="-5" y="132">400</text>
			<path class="y-gridline" d="M 0 1 L 660 1"/>
			<text class="y-axis-label" x="-5" y="1">600</text>
		</g>
		<g>
			<path class="series-1-line" d="M 40 394.228433181 L 46 399.883787402 L 53 386.678998425 L 59 392.681035519 L 66 392.373282078 L 72 390.678797147 L 79 382.518216922 L 86 396.927719311 L 92 373.96334775 L 99 382.322936547 L 105 399.41936641 L 112 400.481037358 L 119 368.606483295 L 125 363.202329374 L 132 387.284608415 L 138 346.603984881 L 145 318.421792707 L 152 299.825841679 L 158 315.812724096 L 165 269.689017208 L 171 279.625986033 L 178 249.744993699 L 185 207.105693061 L 191 192.964698073 L 198 208.10218041 L 204 193.077171139 L 211 216.466084436 L 217 202.654465219 L 224 166.238149187 L 231 120.253169532 L 237 177.982346432 L 244 159.767692479 L 250 107.715492132 L 257 163.745868871 L 264 125.596138476 L 270 75.7973767996 L 277 103.693437863 L 283 121.535154775 L 290 116.494990827 L 297 53.8684220194 L 303 64.2042654439 L 310 79.0818708379 L 316 87.9441768423 L 323 62.1541505738 L 330 23.6577373058 L 336 0.0 L 343 44.1560827186 L 349 6.90767370711 L 356 44.9273073271 L 362 58.5047167372 L 369 38.088545417 L 376 75.3453144633 L 382 116.138411064 L 389 192.398625815 L 395 128.783929693 L 402 176.07773579 L 409 120.350480654 L 415 150.222525922 L 422 162.378589639 L 428 185.264785728 L 435 181.576739068 L 442 202.729520794 L 448 205.975402009 L 455 242.209429539 L 461 235.557000937 L 468 256.813895694 L 475 305.92765166 L 481 286.343573319 L 488 311.795276749 L 494 370.460659659 L 501 386.187665133 L 507 380.193988074 L 514 366.018378883 L 521 374.343353478 L 527 383.569649456 L 534 385.792789154 L 540 364.873900626 L 547 382.490354798 L 554 376.618097872 L 560 372.981972515 L 567 384.323250355 L 573 367.790089462 L 580 358.745494955 L 587 373.657714551 L 593 393.666334628 L 600 398.437674567 L 606 395.581720886 L 613 397.700747553 L 620 387.720217459"/>
			<path class="series-2-line" d="M 40 392.938729627 L 46 388.189607558 L 53 398.989834298 L 59 392.888594941 L 66 395.576117955 L 72 403.672110119 L 79 392.162401612 L 86 392.821748693 L 92 396.861388995 L 99 392.112266926 L 105 395.475848583 L 112 395.459137021 L 119 392.06213224 L 125 398.806007116 L 132 393.380826403 L 138 392.688056198 L 145 393.34740328 L 152 401.443395444 L 158 393.313980156 L 165 398.029679101 L 171 384.491794661 L 178 386.503259031 L 185 401.359837634 L 191 399.991008784 L 198 392.53765214 L 204 397.253351085 L 211 394.532404947 L 217 394.515693385 L 224 387.738395385 L 231 397.186504837 L 237 389.733148192 L 244 391.068553918 L 250 397.812428795 L 257 391.711189438 L 264 391.694477876 L 270 389.649590383 L 277 395.717406615 L 283 388.264049971 L 290 390.951572984 L 297 386.202450915 L 303 389.566032573 L 310 396.309907449 L 316 392.236844024 L 323 388.839839243 L 330 390.175244969 L 336 396.919119845 L 343 397.578466927 L 349 388.772992995 L 356 397.545043803 L 362 396.176214953 L 369 398.187679323 L 376 394.114615898 L 382 392.069728404 L 389 394.081192774 L 395 385.275718842 L 402 397.428062869 L 409 397.411351307 L 415 385.225584156 L 422 394.673693608 L 428 391.276688827 L 435 393.96421184 L 442 397.327793497 L 448 399.339257867 L 455 396.618311729 L 461 387.136779153 L 468 400.641240469 L 475 392.51182518 L 481 396.551465482 L 488 388.422050193 L 494 393.137749138 L 501 399.205565371 L 507 392.42826737 L 514 396.467907672 L 521 397.127254753 L 527 388.997839465 L 534 392.361421123 L 540 393.696826848 L 547 395.032232574 L 554 395.691579656 L 560 390.266398943 L 567 394.982097888 L 573 397.669620901 L 580 392.244440189 L 587 393.579845914 L 593 390.858899777 L 600 392.194305503 L 606 396.910004448 L 613 390.132706447 L 620 398.904757255"/>
		</g>
		<text class="x-axis-label" x="40.0" y="540">0</text>
		<path class="x-notch" d="M 72.9545454545 525 L 72.9545454545 530"/>
		<text class="x-axis-label" x="105.909090909" y="540">10</text>
		<path class="x-notch" d="M 138.863636364 525 L 138.863636364 530"/>
		<text class="x-axis-label" x="171.818181818" y="540">20</text>
		<path class="x-notch" d="M 204.772727273 525 L 204.772727273 530"/>
		<text class="x-axis-label" x="237.727272727" y="540">30</text>
		<path class="x-notch" d="M 270.681818182 525 L 270.681818182 530"/>
		<text class="x-axis-label" x="303.636363636" y="540">40</text>
		<path class="x-notch" d="M 336.590909091 525 L 336.590909091 530"/>
		<text class="x-axis-label" x="369.545454545" y="540">50</text>
		<path class="x-notch" d="M 402.5 525 L 402.5 530"/>
		<text class="x-axis-label" x="435.454545455" y="540">60</text>
		<path class="x-notch" d="M 468.409090909 525 L 468.409090909 530"/>
		<text class="x-axis-label" x="501.363636364" y="540">70</text>
		<path class="x-notch" d="M 534.318181818 525 L 534.318181818 530"/>
		<text class="x-axis-label" x="567.272727273" y="540">80</text>
		<path class="x-notch" d="M 600.227272727 525 L 600.227272727 530"/>
	</g>
</svg>
