<?xml version="1.0" ?>
<svg height="600" version="1.1" width="800" xmlns="http://www.w3.org/2000/svg" xmlns:svg="http://www.w3.org/2000/svg">
	<style type="text/css">

.x-axis-path, .y-gridline, .x-notch { fill:none; stroke: #a7a9ac; stroke-width:1; }



.y-gridline { stroke-width: 1; }

.y-axis-path, .y-axis-path2, .x-notch-left, .x-notch-right { display: none;}



.x-axis-label, .data-point-label {font-size: 12px; font-weight:normal; font-family: sans-serif; fill: #58595b; text-anchor:middle;}

.y-axis-label {font-size: 12px; font-family: helvetica; fill: #a7a9ac; text-anchor:end;}



.series-1-line { fill: none; stroke: #10b80c; stroke-width:2; }



.series-2-line { fill: none; stroke: #e90f0a; stroke-width: 2;}
</style>
	<rect fill="white" height="600" width="800" x="0" y="0"/>
	<g id="grid" transform="translate(70, 30)">
		<g class="x-axis" id="x_axis">
			<path class="x-axis-path" d="M 0 525 L 660 525"/>
			<path class="x-notch-left" d="M 0 525, L 0 535"/>
			<path class="x-notch-right" d="M 660 525, L 660 535"/>
		</g>
		<g class="y-axis" id="y_axis">
			<path class="y-axis-path" d="M 0 525 L 0 0"/>
			<path class="y-axis-path-2" d="M 660 525 L 660 0"/>
			<path class="y-gridline" d="M 0 525 L 660 525"/>
			<text class="y-axis-label" x="-5" y="525">-200</text>
			<path class="y-gridline" d="M 0 394 L 660 394"/>
			<text class="y-axis-label" x="-5" y="394"> 0</text>
			<path class="y-gridline" d="M 0 263 L 660 263"/>
			<text class="y-axis-label" x="-5" y="263">200</text>
			<path class="y-gridline" d="M 0 132 L 660 132"/>
			<text class="y-axis-label" x="-5" y="132">400</text>
			<path class="y-gridline" d="M 0 1 L 660 1"/>
			<text class="y-axis-label" x="-5" y="1">600</text>
		</g>
		<g>
			<path class="series-1-line" d="M 40 404.971935802 L 45 389.409929202 L 51 389.035496974 L 57 388.340422965 L 62 393.247892771 L 68 378.850252833 L 74 416.495564303 L 79 410.906622729 L 85 390.096410439 L 91 398.446435713 L 96 380.774985283 L 102 388.618775628 L 108 409.017613414 L 113 394.113738546 L 119 400.03367821 L 125 393.465963123 L 130 387.354201701 L 136 403.989842238 L 142 391.819583336 L 148 387.142022586 L 153 393.399452203 L 159 385.262487812 L 165 359.355966636 L 170 377.510575212 L 176 376.511707596 L 182 400.504997653 L 187 408.365636171 L 193 349.552528354 L 199 331.492780202 L 204 317.061443919 L 210 252.493895483 L 216 255.426970091 L 221 177.730483344 L 227 170.791581959 L 233 128.819801932 L 239 61.1134916365 L 244 78.2556303556 L 250 116.947108028 L 256 62.7914668583 L 261 83.3085051033 L 267 26.0141020731 L 273 22.1971143766 L 278 11.6132162034 L 284 0.0 L 290 28.431467211 L 295 16.5481537445 L 301 158.684513927 L 307 127.259689797 L 312 186.707852565 L 318 145.917287372 L 324 139.096586447 L 330 172.421921223 L 335 228.68051436 L 341 229.132958841 L 347 246.342490249 L 352 248.701937239 L 358 339.217076827 L 364 319.925569323 L 369 334.013187044 L 375 362.562854714 L 381 337.365009788 L 386 360.058884552 L 392 368.105116219 L 398 393.212228421 L 403 367.508148565 L 409 383.755754633 L 415 380.563202325 L 420 390.58382919 L 426 409.27836904 L 432 386.645658355 L 438 390.861300084 L 443 394.148712817 L 449 410.548215689 L 455 402.090609518 L 460 391.219765909 L 466 387.166640547 L 472 405.43918633 L 477 399.344009827 L 483 400.454586041 L 489 399.692119342 L 494 397.241939629 L 500 390.725032311 L 506 395.446908969 L 511 402.49751895 L 517 393.196187898 L 523 391.387291744 L 529 400.041110626 L 534 406.096098922 L 540 410.126147502 L 546 395.171464865 L 551 400.213983302 L 557 393.376434205 L 563 404.544579559 L 568 402.972084324 L 574 387.713608079 L 580 398.476870791 L 585 395.351711172 L 591 402.486825268 L 597 388.308474823 L 602 397.519073151 L 608 401.22847995 L 614 382.91574596 L 620 404.394709545"/>
			<path class="series-2-line" d="M 40 388.484946138 L 45 396.382526931 L 51 396.382526931 L 57 395.066263466 L 62 392.433736534 L 68 398.35692213 L 74 396.382526931 L 79 388.484946138 L 85 393.75 L 91 393.091868267 L 96 396.382526931 L 102 397.698790397 L 108 391.117473069 L 113 399.015053862 L 119 392.433736534 L 125 383.219892275 L 130 405.596371191 L 136 395.724395198 L 142 387.826814405 L 148 391.775604802 L 153 383.878024008 L 159 388.484946138 L 165 393.091868267 L 170 402.963844259 L 176 397.698790397 L 182 395.066263466 L 187 393.75 L 193 398.35692213 L 199 385.194287474 L 204 396.382526931 L 210 400.331317328 L 216 397.698790397 L 221 396.382526931 L 227 393.75 L 233 389.14307787 L 239 395.066263466 L 244 408.887029855 L 250 397.698790397 L 256 394.408131733 L 261 395.066263466 L 267 393.75 L 273 391.775604802 L 278 393.091868267 L 284 400.989449061 L 290 399.015053862 L 295 397.698790397 L 301 393.75 L 307 386.510550939 L 312 397.040658664 L 318 387.826814405 L 324 392.433736534 L 330 397.040658664 L 335 391.775604802 L 341 391.117473069 L 347 394.408131733 L 352 404.280107725 L 358 393.75 L 364 393.091868267 L 369 395.724395198 L 375 400.989449061 L 381 397.698790397 L 386 392.433736534 L 392 387.826814405 L 398 391.117473069 L 403 389.801209603 L 409 389.14307787 L 415 392.433736534 L 420 387.826814405 L 426 390.459341336 L 432 397.698790397 L 438 400.331317328 L 443 393.75 L 449 395.066263466 L 455 398.35692213 L 460 393.091868267 L 466 402.305712526 L 472 393.75 L 477 387.826814405 L 483 387.168682672 L 489 396.382526931 L 494 386.510550939 L 500 395.066263466 L 506 395.724395198 L 511 392.433736534 L 517 399.015053862 L 523 391.775604802 L 529 395.066263466 L 534 393.091868267 L 540 399.015053862 L 546 389.14307787 L 551 391.117473069 L 557 398.35692213 L 563 394.408131733 L 568 401.647580794 L 574 387.826814405 L 580 395.724395198 L 585 388.484946138 L 591 397.698790397 L 597 395.066263466 L 602 388.484946138 L 608 393.091868267 L 614 393.75 L 620 398.35692213"/>
		</g>
		<text class="x-axis-label" x="40.0" y="540">0</text>
		<path class="x-notch" d="M 68.431372549 525 L 68.431372549 530"/>
		<text class="x-axis-label" x="96.862745098" y="540">10</text>
		<path class="x-notch" d="M 125.294117647 525 L 125.294117647 530"/>
		<text class="x-axis-label" x="153.725490196" y="540">20</text>
		<path class="x-notch" d="M 182.156862745 525 L 182.156862745 530"/>
		<text class="x-axis-label" x="210.588235294" y="540">30</text>
		<path class="x-notch" d="M 239.019607843 525 L 239.019607843 530"/>
		<text class="x-axis-label" x="267.450980392" y="540">40</text>
		<path class="x-notch" d="M 295.882352941 525 L 295.882352941 530"/>
		<text class="x-axis-label" x="324.31372549" y="540">50</text>
		<path class="x-notch" d="M 352.745098039 525 L 352.745098039 530"/>
		<text class="x-axis-label" x="381.176470588" y="540">60</text>
		<path class="x-notch" d="M 409.607843137 525 L 409.607843137 530"/>
		<text class="x-axis-label" x="438.039215686" y="540">70</text>
		<path class="x-notch" d="M 466.470588235 525 L 466.470588235 530"/>
		<text class="x-axis-label" x="494.901960784" y="540">80</text>
		<path class="x-notch" d="M 523.333333333 525 L 523.333333333 530"/>
		<text class="x-axis-label" x="551.764705882" y="540">90</text>
		<path class="x-notch" d="M 580.196078431 525 L 580.196078431 530"/>
		<text class="x-axis-label" x="608.62745098" y="540">100</text>
		<path class="x-notch" d="M 637.058823529 525 L 637.058823529 530"/>
	</g>
</svg>
