<?xml version="1.0" ?>
<svg height="600" version="1.1" width="800" xmlns="http://www.w3.org/2000/svg" xmlns:svg="http://www.w3.org/2000/svg">
	<style type="text/css">

.x-axis-path, .y-gridline, .x-notch { fill:none; stroke: #a7a9ac; stroke-width:1; }



.y-gridline { stroke-width: 1; }

.y-axis-path, .y-axis-path2, .x-notch-left, .x-notch-right { display: none;}



.x-axis-label, .data-point-label {font-size: 12px; font-weight:normal; font-family: sans-serif; fill: #58595b; text-anchor:middle;}

.y-axis-label {font-size: 12px; font-family: helvetica; fill: #a7a9ac; text-anchor:end;}



.series-1-line { fill: none; stroke: #10b80c; stroke-width:2; }



.series-2-line { fill: none; stroke: #e90f0a; stroke-width: 2;}
</style>
	<rect fill="white" height="600" width="800" x="0" y="0"/>
	<g id="grid" transform="translate(70, 30)">
		<g class="x-axis" id="x_axis">
			<path class="x-axis-path" d="M 0 525 L 660 525"/>
			<path class="x-notch-left" d="M 0 525, L 0 535"/>
			<path class="x-notch-right" d="M 660 525, L 660 535"/>
		</g>
		<g class="y-axis" id="y_axis">
			<path class="y-axis-path" d="M 0 525 L 0 0"/>
			<path class="y-axis-path-2" d="M 660 525 L 660 0"/>
			<path class="y-gridline" d="M 0 525 L 660 525"/>
			<text class="y-axis-label" x="-5" y="525">-200</text>
			<path class="y-gridline" d="M 0 394 L 660 394"/>
			<text class="y-axis-label" x="-5" y="394"> 0</text>
			<path class="y-gridline" d="M 0 263 L 660 263"/>
			<text class="y-axis-label" x="-5" y="263">200</text>
			<path class="y-gridline" d="M 0 132 L 660 132"/>
			<text class="y-axis-label" x="-5" y="132">400</text>
			<path class="y-gridline" d="M 0 1 L 660 1"/>
			<text class="y-axis-label" x="-5" y="1">600</text>
		</g>
		<g>
			<path class="series-1-line" d="M 40 374.299804995 L 49 358.662421193 L 58 435.607421754 L 68 417.479660467 L 77 377.518433734 L 86 423.736060845 L 96 426.73072408 L 105 401.577184752 L 114 355.52389811 L 124 365.855809996 L 133 358.667673481 L 142 372.957135102 L 152 419.04087841 L 161 410.563156452 L 170 372.692043189 L 180 305.560728727 L 189 268.801614102 L 199 390.214073584 L 208 254.424647375 L 217 243.589738037 L 227 244.672568306 L 236 127.11492512 L 245 170.35311733 L 255 180.373558605 L 264 198.398586452 L 273 72.5255797822 L 283 117.675604958 L 292 68.5984867126 L 301 0.0 L 311 78.3677761105 L 320 96.8818613752 L 330 160.575140184 L 339 112.520533475 L 348 154.46914024 L 358 148.57058917 L 367 178.912926939 L 376 149.268383758 L 386 153.552632437 L 395 249.307266842 L 404 273.557544703 L 414 350.191074654 L 423 343.89225957 L 432 367.297612702 L 442 385.856094669 L 451 390.051549944 L 460 426.485947622 L 470 387.814306332 L 479 395.478253926 L 489 406.566297137 L 498 403.557693866 L 507 460.225194635 L 517 410.258754959 L 526 444.425452359 L 535 416.203684727 L 545 392.295334142 L 554 421.348086467 L 563 428.167109332 L 573 415.509160431 L 582 403.251475544 L 591 382.366956563 L 601 380.114484618 L 610 403.51983775 L 620 407.27063231"/>
			<path class="series-2-line" d="M 40 397.912190782 L 49 389.351070853 L 58 412.006381791 L 68 386.102800269 L 77 384.478664977 L 86 398.462745119 L 96 391.635871349 L 105 379.606259101 L 114 381.450616128 L 124 379.826480836 L 133 405.950284092 L 142 395.654918004 L 152 362.814351845 L 161 387.203908942 L 170 397.719496765 L 180 373.550161402 L 189 413.547933933 L 199 398.049829366 L 208 398.159940234 L 217 384.396081827 L 227 405.317146605 L 236 401.958765154 L 245 407.271614499 L 255 386.570771455 L 264 402.289097756 L 273 411.070439419 L 283 388.635350216 L 292 388.745461083 L 301 390.58981811 L 311 394.168421296 L 320 401.2155168 L 330 394.38864303 L 339 370.219307667 L 348 373.797910853 L 358 401.655960269 L 367 389.626348021 L 376 401.876182003 L 386 396.783554393 L 395 393.425172942 L 404 384.864053012 L 414 388.442656198 L 423 411.097967136 L 432 399.068354888 L 442 399.178465756 L 451 407.959807419 L 460 392.461702853 L 470 392.57181372 L 479 401.353155384 L 489 417.071481685 L 498 399.839130959 L 507 406.886226464 L 517 410.464829649 L 526 410.574940517 L 535 403.748066747 L 545 400.389685296 L 554 386.625826889 L 563 391.938676234 L 573 392.048787101 L 582 397.361636446 L 591 395.737501154 L 601 395.847612021 L 610 383.817999774 L 620 394.333587596"/>
		</g>
		<text class="x-axis-label" x="40.0" y="540">0</text>
		<path class="x-notch" d="M 86.7741935484 525 L 86.7741935484 530"/>
		<text class="x-axis-label" x="133.548387097" y="540">10</text>
		<path class="x-notch" d="M 180.322580645 525 L 180.322580645 530"/>
		<text class="x-axis-label" x="227.096774194" y="540">20</text>
		<path class="x-notch" d="M 273.870967742 525 L 273.870967742 530"/>
		<text class="x-axis-label" x="320.64516129" y="540">30</text>
		<path class="x-notch" d="M 367.419354839 525 L 367.419354839 530"/>
		<text class="x-axis-label" x="414.193548387" y="540">40</text>
		<path class="x-notch" d="M 460.967741935 525 L 460.967741935 530"/>
		<text class="x-axis-label" x="507.741935484" y="540">50</text>
		<path class="x-notch" d="M 554.516129032 525 L 554.516129032 530"/>
		<text class="x-axis-label" x="601.290322581" y="540">60</text>
		<path class="x-notch" d="M 648.064516129 525 L 648.064516129 530"/>
	</g>
</svg>
