<?xml version="1.0" ?>
<svg height="600" version="1.1" width="800" xmlns="http://www.w3.org/2000/svg" xmlns:svg="http://www.w3.org/2000/svg">
	<style type="text/css">
		

.x-axis-path, .y-gridline, .x-notch { fill:none; stroke: #a7a9ac; stroke-width:1; }



.y-gridline { stroke-width: 1; }

.y-axis-path, .y-axis-path2, .x-notch-left, .x-notch-right { display: none;}



.x-axis-label, .data-point-label {font-size: 12px; font-weight:normal; font-family: sans-serif; fill: #58595b; text-anchor:middle;}

.y-axis-label {font-size: 12px; font-family: helvetica; fill: #a7a9ac; text-anchor:end;}



.series-1-line { fill: none; stroke: #10b80c; stroke-width:2; }



.series-2-line { fill: none; stroke: #e90f0a; stroke-width: 2;}

	</style>
	<rect fill="white" height="600" width="800" x="0" y="0"/>
	<g id="grid" transform="translate(70, 30)">
		<g class="x-axis" id="x_axis">
			<path class="x-axis-path" d="M 0 525 L 660 525"/>
			<path class="x-notch-left" d="M 0 525, L 0 535"/>
			<path class="x-notch-right" d="M 660 525, L 660 535"/>
		</g>
		<g class="y-axis" id="y_axis">
			<path class="y-axis-path" d="M 0 525 L 0 0"/>
			<path class="y-axis-path-2" d="M 660 525 L 660 0"/>
			<path class="y-gridline" d="M 0 525 L 660 525"/>
			<text class="y-axis-label" x="-5" y="525">
				-200
			</text>
			<path class="y-gridline" d="M 0 394 L 660 394"/>
			<text class="y-axis-label" x="-5" y="394">
				 0
			</text>
			<path class="y-gridline" d="M 0 263 L 660 263"/>
			<text class="y-axis-label" x="-5" y="263">
				200
			</text>
			<path class="y-gridline" d="M 0 132 L 660 132"/>
			<text class="y-axis-label" x="-5" y="132">
				400
			</text>
			<path class="y-gridline" d="M 0 1 L 660 1"/>
			<text class="y-axis-label" x="-5" y="1">
				600
			</text>
		</g>
		<g>
			<path class="series-1-line" d="M 40 385.80360174 L 46 404.703256347 L 52 436.305995815 L 58 366.730496207 L 65 375.143135581 L 71 390.904462312 L 77 397.360255176 L 84 404.960662115 L 90 379.290645998 L 96 399.962810678 L 103 399.882724671 L 109 366.421037693 L 115 364.27292726 L 121 381.991100502 L 128 362.04473082 L 134 364.180138391 L 140 395.819745148 L 147 359.81018295 L 153 426.861971765 L 159 373.201619469 L 166 392.95094985 L 172 379.983442543 L 178 378.906211611 L 185 334.994376689 L 191 387.903528263 L 197 367.735378803 L 203 349.745855632 L 210 288.146363324 L 216 266.611820008 L 222 273.363127225 L 229 233.476163241 L 235 196.949882962 L 241 169.322444282 L 248 215.80631885 L 254 167.906480277 L 260 145.596571815 L 266 76.3903211354 L 273 124.646705776 L 279 93.2899105121 L 285 162.1142094 L 292 91.2091832237 L 298 106.638128313 L 304 154.747043802 L 311 55.1131835883 L 317 111.567355308 L 323 50.1890667264 L 330 0.0 L 336 123.216797612 L 342 86.0626213371 L 348 74.1291262433 L 355 75.3042561769 L 361 205.574226791 L 367 376.869424035 L 374 153.015269853 L 380 223.833858592 L 386 334.458749257 L 393 404.612574712 L 399 404.679957856 L 405 361.765267859 L 411 402.894744922 L 418 393.47225776 L 424 387.594790743 L 430 403.909702842 L 437 401.318608904 L 443 412.500903277 L 449 409.318780631 L 456 367.068853917 L 462 402.03170104 L 468 374.995291068 L 474 415.423137559 L 481 406.702280969 L 487 420.063201631 L 493 419.281485053 L 500 407.311122671 L 506 392.016943872 L 512 401.574773375 L 519 392.299755364 L 525 398.34943201 L 531 395.905807223 L 538 396.4904845 L 544 388.323213278 L 550 394.409757211 L 556 433.213138833 L 563 414.928101309 L 569 368.837640096 L 575 378.949054968 L 582 405.93589479 L 588 413.056450937 L 594 407.806303864 L 601 377.483520813 L 607 374.227663591 L 613 401.916133985 L 620 407.411649211"/>
			<path class="series-2-line" d="M 40 409.015361365 L 46 380.35835412 L 52 392.024942934 L 58 405.131660178 L 65 383.675295086 L 71 395.3418839 L 77 398.367702129 L 84 391.312621344 L 90 407.29959545 L 96 382.962973497 L 103 394.62956231 L 109 390.454738387 L 115 387.720042893 L 121 374.904448386 L 128 396.651936214 L 134 399.677754444 L 140 405.583829535 L 147 405.729390903 L 153 391.473667964 L 159 393.059357763 L 166 400.405561285 L 172 400.551122653 L 178 399.256555591 L 185 396.521860098 L 191 398.107549897 L 197 398.253111265 L 203 395.518415772 L 210 399.984362432 L 216 388.608896355 L 222 401.715613599 L 229 388.900019092 L 235 413.527763781 L 241 397.831912412 L 248 390.776831627 L 254 392.362521426 L 260 389.627825933 L 266 401.294414747 L 273 398.559719253 L 279 403.025665914 L 285 393.090328267 L 292 388.915504343 L 298 396.261707865 L 304 416.569067263 L 311 400.873215894 L 317 411.099676277 L 323 381.002540601 L 330 402.750028429 L 336 388.494305491 L 342 398.720765874 L 348 406.066969395 L 355 390.371118026 L 361 399.157449978 L 367 410.824038792 L 374 396.568315854 L 380 412.555289959 L 386 396.85943859 L 393 404.205642112 L 399 392.830176035 L 405 403.056636418 L 411 388.800913479 L 418 397.587245431 L 424 415.014347968 L 430 396.438239737 L 437 406.66470012 L 443 402.489876197 L 449 392.55453855 L 456 411.421769517 L 462 404.366688732 L 468 408.832635392 L 474 391.696655592 L 481 403.363244406 L 487 396.308163621 L 493 405.094495573 L 500 418.201212818 L 506 388.104077142 L 512 412.731821831 L 519 398.476098893 L 525 408.702559276 L 531 395.886964768 L 538 416.194324166 L 544 397.618215935 L 550 402.084162596 L 556 413.750751409 L 563 400.935156901 L 569 401.08071827 L 575 395.465765915 L 582 397.051455714 L 588 408.718044528 L 594 384.381422575 L 601 396.048011388 L 607 397.633701187 L 613 402.099647848 L 620 386.403796478"/>
		</g>
		<text class="x-axis-label" x="40.0" y="540">
			0
		</text>
		<path class="x-notch" d="M 71.5217391304 525 L 71.5217391304 530"/>
		<text class="x-axis-label" x="103.043478261" y="540">
			10
		</text>
		<path class="x-notch" d="M 134.565217391 525 L 134.565217391 530"/>
		<text class="x-axis-label" x="166.086956522" y="540">
			20
		</text>
		<path class="x-notch" d="M 197.608695652 525 L 197.608695652 530"/>
		<text class="x-axis-label" x="229.130434783" y="540">
			30
		</text>
		<path class="x-notch" d="M 260.652173913 525 L 260.652173913 530"/>
		<text class="x-axis-label" x="292.173913043" y="540">
			40
		</text>
		<path class="x-notch" d="M 323.695652174 525 L 323.695652174 530"/>
		<text class="x-axis-label" x="355.217391304" y="540">
			50
		</text>
		<path class="x-notch" d="M 386.739130435 525 L 386.739130435 530"/>
		<text class="x-axis-label" x="418.260869565" y="540">
			60
		</text>
		<path class="x-notch" d="M 449.782608696 525 L 449.782608696 530"/>
		<text class="x-axis-label" x="481.304347826" y="540">
			70
		</text>
		<path class="x-notch" d="M 512.826086957 525 L 512.826086957 530"/>
		<text class="x-axis-label" x="544.347826087" y="540">
			80
		</text>
		<path class="x-notch" d="M 575.869565217 525 L 575.869565217 530"/>
		<text class="x-axis-label" x="607.391304348" y="540">
			90
		</text>
		<path class="x-notch" d="M 638.913043478 525 L 638.913043478 530"/>
	</g>
</svg>
