<?xml version="1.0" ?>
<svg height="600" version="1.1" width="800" xmlns="http://www.w3.org/2000/svg" xmlns:svg="http://www.w3.org/2000/svg">
	<style type="text/css">

.x-axis-path, .y-gridline, .x-notch { fill:none; stroke: #a7a9ac; stroke-width:1; }



.y-gridline { stroke-width: 1; }

.y-axis-path, .y-axis-path2, .x-notch-left, .x-notch-right { display: none;}



.x-axis-label, .data-point-label {font-size: 12px; font-weight:normal; font-family: sans-serif; fill: #58595b; text-anchor:middle;}

.y-axis-label {font-size: 12px; font-family: helvetica; fill: #a7a9ac; text-anchor:end;}



.series-1-line { fill: none; stroke: #10b80c; stroke-width:2; }



.series-2-line { fill: none; stroke: #e90f0a; stroke-width: 2;}
</style>
	<rect fill="white" height="600" width="800" x="0" y="0"/>
	<g id="grid" transform="translate(70, 30)">
		<g class="x-axis" id="x_axis">
			<path class="x-axis-path" d="M 0 525 L 660 525"/>
			<path class="x-notch-left" d="M 0 525, L 0 535"/>
			<path class="x-notch-right" d="M 660 525, L 660 535"/>
		</g>
		<g class="y-axis" id="y_axis">
			<path class="y-axis-path" d="M 0 525 L 0 0"/>
			<path class="y-axis-path-2" d="M 660 525 L 660 0"/>
			<path class="y-gridline" d="M 0 525 L 660 525"/>
			<text class="y-axis-label" x="-5" y="525">-200</text>
			<path class="y-gridline" d="M 0 394 L 660 394"/>
			<text class="y-axis-label" x="-5" y="394"> 0</text>
			<path class="y-gridline" d="M 0 263 L 660 263"/>
			<text class="y-axis-label" x="-5" y="263">200</text>
			<path class="y-gridline" d="M 0 132 L 660 132"/>
			<text class="y-axis-label" x="-5" y="132">400</text>
			<path class="y-gridline" d="M 0 1 L 660 1"/>
			<text class="y-axis-label" x="-5" y="1">600</text>
		</g>
		<g>
			<path class="series-1-line" d="M 40 389.894983455 L 48 375.025337226 L 56 393.786664994 L 65 391.700126733 L 73 410.09571748 L 82 392.025729679 L 90 421.704678381 L 98 407.804434957 L 107 429.875654231 L 115 410.159849837 L 124 395.052560131 L 132 385.541160953 L 140 426.723138052 L 149 410.756280761 L 157 425.128478997 L 166 383.394564224 L 174 355.888161892 L 182 313.642158233 L 191 261.685294636 L 199 289.718426745 L 208 221.869690505 L 216 184.981933897 L 224 201.3291691 L 233 228.155254928 L 241 206.446155244 L 250 145.711317867 L 258 64.6954783163 L 266 108.529191457 L 275 132.191452356 L 283 58.6187320447 L 292 71.7841692839 L 300 115.27011844 L 308 15.4912850491 L 317 0.0 L 325 106.413542583 L 334 110.142565292 L 342 45.6952974575 L 351 86.7674393352 L 359 23.32609095 L 367 52.9134627537 L 376 105.909145016 L 384 139.099397343 L 393 185.383434407 L 401 355.511104712 L 409 321.860206321 L 418 352.270629064 L 426 344.149144679 L 435 395.901264014 L 443 402.921919907 L 451 395.349041053 L 460 400.760396999 L 468 398.692117061 L 477 397.519921351 L 485 403.443366183 L 493 381.386787801 L 502 405.707489452 L 510 405.486152939 L 519 410.147776522 L 527 401.660555116 L 535 403.706959302 L 544 392.110973221 L 552 385.415920273 L 561 385.286160658 L 569 390.039075853 L 577 388.830363499 L 586 405.34220889 L 594 395.776034745 L 603 397.237316755 L 611 397.125815462 L 620 385.639379316"/>
			<path class="series-2-line" d="M 40 394.320572575 L 48 387.97091492 L 56 392.319493044 L 65 394.528424013 L 73 400.303433575 L 82 392.527344482 L 90 390.456981139 L 98 399.798069294 L 107 388.455901609 L 115 387.098753984 L 124 390.020900671 L 132 382.244811579 L 140 393.72554689 L 149 391.655183546 L 157 385.305525891 L 166 397.499476921 L 174 387.583740673 L 182 396.211613109 L 191 389.861955454 L 199 394.210533578 L 208 391.426954516 L 216 398.628395515 L 224 390.139090705 L 233 388.068727361 L 241 391.704089767 L 250 391.77337358 L 258 384.710500206 L 266 399.75731411 L 275 390.554793581 L 283 390.624077393 L 292 405.670891297 L 300 391.475860737 L 308 390.831928831 L 317 398.03336983 L 325 385.977986426 L 334 398.885153174 L 342 393.961926956 L 351 394.744426488 L 359 399.806220331 L 367 384.184758334 L 376 388.533336458 L 384 395.021561738 L 393 389.385119802 L 401 395.873345082 L 409 398.79549177 L 418 393.872265552 L 426 391.801902209 L 435 395.437264614 L 443 395.506548427 L 451 391.296537928 L 460 392.079037459 L 468 391.435105553 L 477 390.077957929 L 485 394.426536053 L 493 396.635467022 L 502 395.991535116 L 510 385.362583149 L 519 391.850808429 L 527 391.206876523 L 535 388.423297461 L 544 399.904032772 L 552 397.833669429 L 561 400.755816116 L 569 392.979727024 L 577 397.328305148 L 586 390.978647493 L 594 391.761147025 L 603 396.822940868 L 611 396.89222468 L 620 391.255782744"/>
		</g>
		<text class="x-axis-label" x="40.0" y="540">0</text>
		<path class="x-notch" d="M 82.0289855072 525 L 82.0289855072 530"/>
		<text class="x-axis-label" x="124.057971014" y="540">10</text>
		<path class="x-notch" d="M 166.086956522 525 L 166.086956522 530"/>
		<text class="x-axis-label" x="208.115942029" y="540">20</text>
		<path class="x-notch" d="M 250.144927536 525 L 250.144927536 530"/>
		<text class="x-axis-label" x="292.173913043" y="540">30</text>
		<path class="x-notch" d="M 334.202898551 525 L 334.202898551 530"/>
		<text class="x-axis-label" x="376.231884058" y="540">40</text>
		<path class="x-notch" d="M 418.260869565 525 L 418.260869565 530"/>
		<text class="x-axis-label" x="460.289855072" y="540">50</text>
		<path class="x-notch" d="M 502.31884058 525 L 502.31884058 530"/>
		<text class="x-axis-label" x="544.347826087" y="540">60</text>
		<path class="x-notch" d="M 586.376811594 525 L 586.376811594 530"/>
	</g>
</svg>
