<?xml version="1.0" ?>
<svg height="600" version="1.1" width="800" xmlns="http://www.w3.org/2000/svg" xmlns:svg="http://www.w3.org/2000/svg">
	<style type="text/css">

.x-axis-path, .y-gridline, .x-notch { fill:none; stroke: #a7a9ac; stroke-width:1; }



.y-gridline { stroke-width: 1; }

.y-axis-path, .y-axis-path2, .x-notch-left, .x-notch-right { display: none;}



.x-axis-label, .data-point-label {font-size: 12px; font-weight:normal; font-family: sans-serif; fill: #58595b; text-anchor:middle;}

.y-axis-label {font-size: 12px; font-family: helvetica; fill: #a7a9ac; text-anchor:end;}



.series-1-line { fill: none; stroke: #10b80c; stroke-width:2; }



.series-2-line { fill: none; stroke: #e90f0a; stroke-width: 2;}
</style>
	<rect fill="white" height="600" width="800" x="0" y="0"/>
	<g id="grid" transform="translate(70, 30)">
		<g class="x-axis" id="x_axis">
			<path class="x-axis-path" d="M 0 525 L 660 525"/>
			<path class="x-notch-left" d="M 0 525, L 0 535"/>
			<path class="x-notch-right" d="M 660 525, L 660 535"/>
		</g>
		<g class="y-axis" id="y_axis">
			<path class="y-axis-path" d="M 0 525 L 0 0"/>
			<path class="y-axis-path-2" d="M 660 525 L 660 0"/>
			<path class="y-gridline" d="M 0 525 L 660 525"/>
			<text class="y-axis-label" x="-5" y="525">-200</text>
			<path class="y-gridline" d="M 0 394 L 660 394"/>
			<text class="y-axis-label" x="-5" y="394"> 0</text>
			<path class="y-gridline" d="M 0 263 L 660 263"/>
			<text class="y-axis-label" x="-5" y="263">200</text>
			<path class="y-gridline" d="M 0 132 L 660 132"/>
			<text class="y-axis-label" x="-5" y="132">400</text>
			<path class="y-gridline" d="M 0 1 L 660 1"/>
			<text class="y-axis-label" x="-5" y="1">600</text>
		</g>
		<g>
			<path class="series-1-line" d="M 40 354.702711401 L 49 412.652817781 L 58 397.236200085 L 68 400.599677089 L 77 396.524047617 L 86 413.773375311 L 96 400.572551931 L 105 408.564645831 L 114 426.706790088 L 124 421.473748502 L 133 429.465842402 L 142 426.216493772 L 152 448.55760952 L 161 373.000434797 L 170 429.296947932 L 180 396.093113578 L 189 389.834699762 L 199 375.476464268 L 208 357.845083819 L 217 338.824705675 L 227 266.407604461 L 236 267.919428393 L 245 202.478778275 L 255 173.936570788 L 264 174.257972635 L 273 161.750874431 L 283 170.371189344 L 292 164.11329131 L 301 143.836471138 L 311 124.286901895 L 320 105.299533723 L 330 74.9386831364 L 339 48.7768040405 L 348 0.0 L 358 52.2300973109 L 367 40.5497957287 L 376 51.8810545259 L 386 46.2178517531 L 395 147.150035297 L 404 217.300936494 L 414 254.619295104 L 423 276.200665734 L 432 376.537638235 L 442 400.466327284 L 451 384.81812401 L 460 381.866380901 L 470 396.669360261 L 479 366.606630977 L 489 410.140664005 L 498 349.692772028 L 507 375.439588397 L 517 389.647356714 L 526 389.40707327 L 535 394.919293084 L 545 413.755678298 L 554 373.476362933 L 563 407.522092369 L 573 384.798408084 L 582 410.908849917 L 591 387.3263906 L 601 399.649495875 L 610 388.762465163 L 620 392.654617486"/>
			<path class="series-2-line" d="M 40 390.139534402 L 49 392.460548001 L 58 374.150329611 L 68 393.2342192 L 77 416.186464788 L 86 381.113370407 L 96 419.539039986 L 105 420.570601585 L 114 397.102575198 L 124 399.423588797 L 133 400.455150396 L 142 395.039451999 L 152 370.281973613 L 161 430.62832718 L 170 389.107972803 L 180 430.11254638 L 189 391.171096001 L 199 408.965533592 L 208 434.496683178 L 217 425.212628783 L 227 397.876246398 L 236 404.065615994 L 245 394.781561599 L 255 412.57599919 L 264 403.291944795 L 273 383.692274405 L 283 387.302740004 L 292 398.649917597 L 301 384.208055205 L 311 356.87167282 L 320 342.429810428 L 330 342.171920028 L 339 340.624577629 L 348 346.813947226 L 358 336.240440831 L 367 338.56145443 L 376 321.540688039 L 386 290.335949656 L 395 326.182715237 L 404 386.529068804 L 414 338.56145443 L 423 382.144932006 L 432 410.254985591 L 442 439.654491175 L 451 407.160300793 L 460 405.612958394 L 470 400.197259996 L 479 454.096353567 L 489 391.944767201 L 498 408.449752792 L 507 405.612958394 L 517 392.460548001 L 526 420.570601585 L 535 406.128739193 L 545 374.92400081 L 554 413.349670389 L 563 423.407395984 L 573 388.334301603 L 582 379.050247208 L 591 427.791532781 L 601 406.902410393 L 610 386.013288004 L 620 372.860877611"/>
		</g>
		<text class="x-axis-label" x="40.0" y="540">0</text>
		<path class="x-notch" d="M 86.7741935484 525 L 86.7741935484 530"/>
		<text class="x-axis-label" x="133.548387097" y="540">10</text>
		<path class="x-notch" d="M 180.322580645 525 L 180.322580645 530"/>
		<text class="x-axis-label" x="227.096774194" y="540">20</text>
		<path class="x-notch" d="M 273.870967742 525 L 273.870967742 530"/>
		<text class="x-axis-label" x="320.64516129" y="540">30</text>
		<path class="x-notch" d="M 367.419354839 525 L 367.419354839 530"/>
		<text class="x-axis-label" x="414.193548387" y="540">40</text>
		<path class="x-notch" d="M 460.967741935 525 L 460.967741935 530"/>
		<text class="x-axis-label" x="507.741935484" y="540">50</text>
		<path class="x-notch" d="M 554.516129032 525 L 554.516129032 530"/>
		<text class="x-axis-label" x="601.290322581" y="540">60</text>
		<path class="x-notch" d="M 648.064516129 525 L 648.064516129 530"/>
	</g>
</svg>
