<?xml version="1.0" ?>
<svg height="600" version="1.1" width="800" xmlns="http://www.w3.org/2000/svg" xmlns:svg="http://www.w3.org/2000/svg">
	<style type="text/css">
		

.x-axis-path, .y-gridline, .x-notch { fill:none; stroke: #a7a9ac; stroke-width:1; }



.y-gridline { stroke-width: 1; }

.y-axis-path, .y-axis-path2, .x-notch-left, .x-notch-right { display: none;}



.x-axis-label, .data-point-label {font-size: 12px; font-weight:normal; font-family: sans-serif; fill: #58595b; text-anchor:middle;}

.y-axis-label {font-size: 12px; font-family: helvetica; fill: #a7a9ac; text-anchor:end;}



.series-1-line { fill: none; stroke: #10b80c; stroke-width:2; }



.series-2-line { fill: none; stroke: #e90f0a; stroke-width: 2;}

	</style>
	<rect fill="white" height="600" width="800" x="0" y="0"/>
	<g id="grid" transform="translate(70, 30)">
		<g class="x-axis" id="x_axis">
			<path class="x-axis-path" d="M 0 525 L 660 525"/>
			<path class="x-notch-left" d="M 0 525, L 0 535"/>
			<path class="x-notch-right" d="M 660 525, L 660 535"/>
		</g>
		<g class="y-axis" id="y_axis">
			<path class="y-axis-path" d="M 0 525 L 0 0"/>
			<path class="y-axis-path-2" d="M 660 525 L 660 0"/>
			<path class="y-gridline" d="M 0 525 L 660 525"/>
			<text class="y-axis-label" x="-5" y="525">
				-200
			</text>
			<path class="y-gridline" d="M 0 394 L 660 394"/>
			<text class="y-axis-label" x="-5" y="394">
				 0
			</text>
			<path class="y-gridline" d="M 0 263 L 660 263"/>
			<text class="y-axis-label" x="-5" y="263">
				200
			</text>
			<path class="y-gridline" d="M 0 132 L 660 132"/>
			<text class="y-axis-label" x="-5" y="132">
				400
			</text>
			<path class="y-gridline" d="M 0 1 L 660 1"/>
			<text class="y-axis-label" x="-5" y="1">
				600
			</text>
		</g>
		<g>
			<path class="series-1-line" d="M 40 395.955677859 L 45 400.86234442 L 51 397.313912522 L 57 371.529453948 L 63 400.783569076 L 69 374.047286984 L 75 370.008606421 L 81 371.767035451 L 86 343.428107827 L 92 339.333108955 L 98 333.192417392 L 104 292.929889354 L 110 292.982153038 L 116 238.580494698 L 122 243.242183972 L 127 221.1434131 L 133 196.150939924 L 139 203.065067426 L 145 230.999304923 L 151 204.809589805 L 157 165.319931288 L 163 146.416452408 L 168 134.356456698 L 174 125.671001067 L 180 129.804504016 L 186 79.4087978035 L 192 74.625480395 L 198 88.9108362565 L 204 83.2227497903 L 209 42.6114305597 L 215 36.1031260204 L 221 74.8772408771 L 227 13.104501224 L 233 31.4530097919 L 239 44.8235975228 L 245 5.40966727918 L 250 24.9545355177 L 256 0.0 L 262 44.9292794895 L 268 89.9528149461 L 274 94.91594686 L 280 165.351832154 L 286 86.2918717146 L 291 67.3886869252 L 297 218.086983823 L 303 234.276427857 L 309 237.712495467 L 315 198.47693104 L 321 219.98308803 L 327 166.750438956 L 332 202.45189751 L 338 214.673180031 L 344 197.748929417 L 350 239.690250634 L 356 239.139187901 L 362 270.636771501 L 368 299.5982667 L 373 208.519861698 L 379 373.404490403 L 385 321.934619073 L 391 365.516670527 L 397 391.697835262 L 403 360.323159678 L 409 400.237609987 L 414 352.800600055 L 420 349.1774692 L 426 375.857117131 L 432 395.196857329 L 438 382.825713995 L 444 405.782912927 L 450 393.383389872 L 455 397.366759681 L 461 389.943687011 L 467 381.654665214 L 473 387.862534666 L 479 399.687824489 L 485 398.740916103 L 491 384.352606845 L 496 395.951741165 L 502 393.402481337 L 508 389.854049439 L 514 387.502712438 L 520 396.754711425 L 526 401.887533489 L 532 390.14794925 L 537 396.138632955 L 543 398.142039273 L 549 389.305715277 L 555 394.127536762 L 561 396.828525464 L 567 393.770195186 L 573 387.525983809 L 578 395.137840741 L 584 393.418062834 L 590 396.081260922 L 596 394.945840601 L 602 398.693055834 L 608 385.501988518 L 614 401.248385393 L 620 391.818292917"/>
			<path class="series-2-line" d="M 40 393.75 L 45 395.078553297 L 51 396.407106594 L 57 382.663527856 L 63 399.431826164 L 69 405.171735179 L 75 396.942351088 L 81 401.947034149 L 86 385.262551599 L 92 400.192785026 L 98 390.125336052 L 104 398.438535902 L 110 397.193798364 L 116 388.964414272 L 122 399.850904957 L 127 398.973780396 L 133 405.081302387 L 139 379.941721378 L 145 373.182789193 L 151 365.321018078 L 157 367.752410304 L 163 355.846896448 L 168 365.998161181 L 174 380.193168654 L 180 358.72971741 L 186 342.04523486 L 192 335.286302675 L 198 321.542723936 L 204 326.915019975 L 209 332.287316013 L 215 322.219867039 L 221 316.196160807 L 227 310.907680527 L 233 351.570822306 L 239 294.081299368 L 245 327.759794594 L 250 296.370792986 L 256 325.270319518 L 262 319.614226262 L 268 313.59052003 L 274 306.096361891 L 280 292.72039613 L 286 288.902367756 L 291 305.670666064 L 297 316.189543773 L 303 306.489707776 L 309 293.481354991 L 315 256.210545759 L 321 291.727105867 L 327 301.878370599 L 332 316.440991049 L 338 323.651351969 L 344 289.689059526 L 350 291.385225799 L 356 283.891067661 L 362 309.114464428 L 368 285.445335325 L 373 249.644977999 L 379 283.691086202 L 385 305.605966181 L 391 366.855434642 L 397 375.536247468 L 403 301.871753566 L 409 275.629333628 L 414 155.645604691 L 420 226.085397563 L 426 128.158447214 L 432 315.499166603 L 438 316.8277199 L 444 297.937559492 L 450 289.340562424 L 455 334.41505992 L 461 280.601666747 L 467 347.732942832 L 473 389.866536517 L 479 387.151347072 L 485 384.068544652 L 491 384.661871996 L 496 388.563716128 L 502 391.730334307 L 508 393.058887604 L 514 394.019827925 L 520 391.304638481 L 526 386.016158201 L 532 389.18277638 L 537 393.452233489 L 543 388.898979163 L 549 397.947404965 L 555 398.173119333 L 561 399.50167263 L 567 396.051257233 L 573 402.158779224 L 578 397.237911921 L 584 400.036917124 L 590 392.910371962 L 596 390.562795494 L 602 386.377154144 L 608 400.939774594 L 614 388.666647761 L 620 404.332107141"/>
		</g>
		<text class="x-axis-label" x="40.0" y="540">
			0
		</text>
		<path class="x-notch" d="M 69.2929292929 525 L 69.2929292929 530"/>
		<text class="x-axis-label" x="98.5858585859" y="540">
			10
		</text>
		<path class="x-notch" d="M 127.878787879 525 L 127.878787879 530"/>
		<text class="x-axis-label" x="157.171717172" y="540">
			20
		</text>
		<path class="x-notch" d="M 186.464646465 525 L 186.464646465 530"/>
		<text class="x-axis-label" x="215.757575758" y="540">
			30
		</text>
		<path class="x-notch" d="M 245.050505051 525 L 245.050505051 530"/>
		<text class="x-axis-label" x="274.343434343" y="540">
			40
		</text>
		<path class="x-notch" d="M 303.636363636 525 L 303.636363636 530"/>
		<text class="x-axis-label" x="332.929292929" y="540">
			50
		</text>
		<path class="x-notch" d="M 362.222222222 525 L 362.222222222 530"/>
		<text class="x-axis-label" x="391.515151515" y="540">
			60
		</text>
		<path class="x-notch" d="M 420.808080808 525 L 420.808080808 530"/>
		<text class="x-axis-label" x="450.101010101" y="540">
			70
		</text>
		<path class="x-notch" d="M 479.393939394 525 L 479.393939394 530"/>
		<text class="x-axis-label" x="508.686868687" y="540">
			80
		</text>
		<path class="x-notch" d="M 537.97979798 525 L 537.97979798 530"/>
		<text class="x-axis-label" x="567.272727273" y="540">
			90
		</text>
		<path class="x-notch" d="M 596.565656566 525 L 596.565656566 530"/>
	</g>
</svg>
