<?xml version="1.0" ?>
<svg height="600" version="1.1" width="800" xmlns="http://www.w3.org/2000/svg" xmlns:svg="http://www.w3.org/2000/svg">
	<style type="text/css">
		

.x-axis-path, .y-gridline, .x-notch { fill:none; stroke: #a7a9ac; stroke-width:1; }



.y-gridline { stroke-width: 1; }

.y-axis-path, .y-axis-path2, .x-notch-left, .x-notch-right { display: none;}



.x-axis-label, .data-point-label {font-size: 12px; font-weight:normal; font-family: sans-serif; fill: #58595b; text-anchor:middle;}

.y-axis-label {font-size: 12px; font-family: helvetica; fill: #a7a9ac; text-anchor:end;}



.series-1-line { fill: none; stroke: #10b80c; stroke-width:2; }



.series-2-line { fill: none; stroke: #e90f0a; stroke-width: 2;}

	</style>
	<rect fill="white" height="600" width="800" x="0" y="0"/>
	<g id="grid" transform="translate(70, 30)">
		<g class="x-axis" id="x_axis">
			<path class="x-axis-path" d="M 0 525 L 660 525"/>
			<path class="x-notch-left" d="M 0 525, L 0 535"/>
			<path class="x-notch-right" d="M 660 525, L 660 535"/>
		</g>
		<g class="y-axis" id="y_axis">
			<path class="y-axis-path" d="M 0 525 L 0 0"/>
			<path class="y-axis-path-2" d="M 660 525 L 660 0"/>
			<path class="y-gridline" d="M 0 525 L 660 525"/>
			<text class="y-axis-label" x="-5" y="525">
				-200
			</text>
			<path class="y-gridline" d="M 0 394 L 660 394"/>
			<text class="y-axis-label" x="-5" y="394">
				 0
			</text>
			<path class="y-gridline" d="M 0 263 L 660 263"/>
			<text class="y-axis-label" x="-5" y="263">
				200
			</text>
			<path class="y-gridline" d="M 0 132 L 660 132"/>
			<text class="y-axis-label" x="-5" y="132">
				400
			</text>
			<path class="y-gridline" d="M 0 1 L 660 1"/>
			<text class="y-axis-label" x="-5" y="1">
				600
			</text>
		</g>
		<g>
			<path class="series-1-line" d="M 40 384.739719139 L 46 389.901618667 L 53 371.23980282 L 60 417.536237084 L 67 402.23596903 L 74 381.57005861 L 81 382.090907845 L 88 345.801327877 L 95 340.665916351 L 102 275.950854589 L 109 311.977332538 L 115 221.131090601 L 122 245.357392241 L 129 215.132543049 L 136 184.472280453 L 143 117.278838189 L 150 90.7322758758 L 157 129.303155915 L 164 80.9628878166 L 171 81.0090397743 L 178 112.078139696 L 185 89.8690517731 L 191 16.5318996368 L 198 112.362213278 L 205 70.5745364163 L 212 11.4624656607 L 219 49.3869100226 L 226 24.3041347659 L 233 27.9103106326 L 240 100.654252808 L 247 0.0 L 254 12.0178609918 L 260 151.26364213 L 267 170.044705283 L 274 238.846274225 L 281 189.623661533 L 288 326.563211919 L 295 362.299071474 L 302 322.331204627 L 309 396.249343838 L 316 373.104641566 L 323 380.191450896 L 330 368.503653808 L 336 389.262279493 L 343 388.979146208 L 350 389.117646119 L 357 394.92577565 L 364 399.705325854 L 371 389.32294628 L 378 403.067652308 L 385 409.231393448 L 392 400.510248672 L 399 408.902269841 L 405 411.822726156 L 412 416.285537275 L 419 397.004023465 L 426 415.455390024 L 433 395.105807339 L 440 407.294789707 L 447 429.121689942 L 454 404.302384015 L 461 421.659561009 L 468 402.628353345 L 475 412.365281577 L 481 410.301827824 L 488 426.881348662 L 495 410.539749449 L 502 421.357498389 L 509 411.014608363 L 516 391.126148423 L 523 406.624642878 L 530 406.631305287 L 537 401.957633531 L 544 404.113391199 L 550 404.000967939 L 557 388.21345645 L 564 392.835048461 L 571 405.669849482 L 578 415.775552505 L 585 399.658344422 L 592 395.301000401 L 599 406.646305025 L 606 389.21031057 L 613 393.897307146 L 620 388.340056747"/>
			<path class="series-2-line" d="M 40 379.5584436 L 46 387.770914601 L 53 422.721100558 L 60 390.826999125 L 67 382.585491692 L 74 409.308688431 L 81 399.52462052 L 88 396.939168173 L 95 367.101814045 L 102 347.034009611 L 109 373.243019525 L 115 358.831270179 L 122 360.873499267 L 129 354.688739137 L 136 316.110208966 L 143 321.751745836 L 150 303.226501881 L 157 313.495720187 L 164 285.715113362 L 171 269.760803538 L 178 287.228637408 L 185 253.791975497 L 191 275.373303976 L 198 296.954632455 L 205 269.688212456 L 212 217.740824807 L 219 188.417657504 L 226 202.286183592 L 233 212.555401897 L 240 165.749882508 L 247 257.774806159 L 254 279.356134638 L 260 265.972758944 L 267 255.16031738 L 274 181.617083035 L 281 251.531973165 L 288 337.386654903 L 295 308.577674427 L 302 318.332705906 L 309 349.169397254 L 316 361.495362863 L 323 370.22202069 L 330 359.923765953 L 336 341.398521998 L 343 356.809608564 L 350 346.511353826 L 357 374.262924218 L 364 381.961208392 L 371 388.631118915 L 378 381.417985134 L 385 373.690664526 L 392 381.903135527 L 399 387.544672398 L 405 384.445033225 L 412 361.292107836 L 419 392.64298601 L 426 373.089368403 L 433 390.557202273 L 440 385.400815796 L 447 400.811902362 L 454 393.598768581 L 461 384.328887495 L 468 396.654853104 L 475 413.094313323 L 481 385.313706498 L 488 397.125485282 L 495 410.994011369 L 502 399.153196154 L 509 399.652864763 L 516 385.241115417 L 523 405.279883418 L 530 395.495815506 L 537 393.938736811 L 544 389.810723987 L 550 338.377523163 L 557 386.182379772 L 564 418.561631598 L 571 392.837772078 L 578 371.741593993 L 585 410.805274558 L 592 399.992832994 L 599 406.148556691 L 606 410.247533083 L 613 392.236475954 L 620 368.055176913"/>
		</g>
		<text class="x-axis-label" x="40.0" y="540">
			0
		</text>
		<path class="x-notch" d="M 74.5238095238 525 L 74.5238095238 530"/>
		<text class="x-axis-label" x="109.047619048" y="540">
			10
		</text>
		<path class="x-notch" d="M 143.571428571 525 L 143.571428571 530"/>
		<text class="x-axis-label" x="178.095238095" y="540">
			20
		</text>
		<path class="x-notch" d="M 212.619047619 525 L 212.619047619 530"/>
		<text class="x-axis-label" x="247.142857143" y="540">
			30
		</text>
		<path class="x-notch" d="M 281.666666667 525 L 281.666666667 530"/>
		<text class="x-axis-label" x="316.19047619" y="540">
			40
		</text>
		<path class="x-notch" d="M 350.714285714 525 L 350.714285714 530"/>
		<text class="x-axis-label" x="385.238095238" y="540">
			50
		</text>
		<path class="x-notch" d="M 419.761904762 525 L 419.761904762 530"/>
		<text class="x-axis-label" x="454.285714286" y="540">
			60
		</text>
		<path class="x-notch" d="M 488.80952381 525 L 488.80952381 530"/>
		<text class="x-axis-label" x="523.333333333" y="540">
			70
		</text>
		<path class="x-notch" d="M 557.857142857 525 L 557.857142857 530"/>
		<text class="x-axis-label" x="592.380952381" y="540">
			80
		</text>
		<path class="x-notch" d="M 626.904761905 525 L 626.904761905 530"/>
	</g>
</svg>
