<?xml version="1.0" ?>
<svg height="600" version="1.1" width="800" xmlns="http://www.w3.org/2000/svg" xmlns:svg="http://www.w3.org/2000/svg">
	<style type="text/css">
		

.x-axis-path, .y-gridline, .x-notch { fill:none; stroke: #a7a9ac; stroke-width:1; }



.y-gridline { stroke-width: 1; }

.y-axis-path, .y-axis-path2, .x-notch-left, .x-notch-right { display: none;}



.x-axis-label, .data-point-label {font-size: 12px; font-weight:normal; font-family: sans-serif; fill: #58595b; text-anchor:middle;}

.y-axis-label {font-size: 12px; font-family: helvetica; fill: #a7a9ac; text-anchor:end;}



.series-1-line { fill: none; stroke: #10b80c; stroke-width:2; }



.series-2-line { fill: none; stroke: #e90f0a; stroke-width: 2;}

	</style>
	<rect fill="white" height="600" width="800" x="0" y="0"/>
	<g id="grid" transform="translate(70, 30)">
		<g class="x-axis" id="x_axis">
			<path class="x-axis-path" d="M 0 525 L 660 525"/>
			<path class="x-notch-left" d="M 0 525, L 0 535"/>
			<path class="x-notch-right" d="M 660 525, L 660 535"/>
		</g>
		<g class="y-axis" id="y_axis">
			<path class="y-axis-path" d="M 0 525 L 0 0"/>
			<path class="y-axis-path-2" d="M 660 525 L 660 0"/>
			<path class="y-gridline" d="M 0 525 L 660 525"/>
			<text class="y-axis-label" x="-5" y="525">
				-200
			</text>
			<path class="y-gridline" d="M 0 420 L 660 420"/>
			<text class="y-axis-label" x="-5" y="420">
				 0
			</text>
			<path class="y-gridline" d="M 0 315 L 660 315"/>
			<text class="y-axis-label" x="-5" y="315">
				200
			</text>
			<path class="y-gridline" d="M 0 210 L 660 210"/>
			<text class="y-axis-label" x="-5" y="210">
				400
			</text>
			<path class="y-gridline" d="M 0 105 L 660 105"/>
			<text class="y-axis-label" x="-5" y="105">
				600
			</text>
			<path class="y-gridline" d="M 0 0 L 660 0"/>
			<text class="y-axis-label" x="-5" y="0">
				800
			</text>
		</g>
		<g>
			<path class="series-1-line" d="M 40 410.10312 L 44 429.761281972 L 48 419.036853944 L 52 419.795015916 L 56 421.886047888 L 60 413.81349986 L 64 420.279461832 L 68 421.831843804 L 72 432.470925776 L 76 423.725327748 L 80 407.52199972 L 84 419.116791692 L 89 431.101973664 L 93 423.433255636 L 97 405.910707608 L 101 410.72081958 L 105 411.034831552 L 109 407.943063524 L 113 421.503245497 L 117 420.417187469 L 121 417.419709441 L 125 397.729751413 L 129 420.578443385 L 133 393.336675357 L 138 421.542887329 L 142 406.685869301 L 146 411.495981273 L 150 427.438823245 L 154 416.674075217 L 158 397.078407189 L 162 406.546319161 L 166 400.762141133 L 170 419.289663105 L 174 413.074775077 L 178 408.650347049 L 182 399.770139021 L 187 386.609080993 L 191 375.884652965 L 195 383.440934937 L 199 365.097286909 L 203 378.065058881 L 207 365.792510853 L 211 346.802692825 L 215 355.220604797 L 219 317.734616769 L 223 307.158238741 L 227 286.647180713 L 231 274.630412685 L 236 244.534744657 L 240 235.506486629 L 244 250.776278601 L 248 225.136390573 L 252 243.583062545 L 256 199.931684517 L 260 169.43218649 L 264 161.857758462 L 268 179.375600434 L 272 123.474292406 L 276 136.549794378 L 280 110.41178635 L 285 140.893138322 L 289 155.664810294 L 293 144.644282266 L 297 137.635174238 L 301 98.5741862098 L 305 167.434298182 L 309 132.102070154 L 313 114.943032126 L 317 142.382114098 L 321 183.02683607 L 325 134.246628042 L 330 113.049080014 L 334 127.443801986 L 338 121.525223958 L 342 137.37377593 L 346 164.557077902 L 350 133.909529874 L 354 153.379321846 L 358 202.693263818 L 362 179.90727579 L 366 194.180827762 L 370 190.658349734 L 374 237.347291706 L 379 215.705593678 L 383 204.13297565 L 387 205.429577622 L 391 268.312879594 L 395 290.165331566 L 399 296.375513538 L 403 299.96069551 L 407 357.230487483 L 411 289.832939455 L 415 357.145141427 L 419 377.207133399 L 423 371.476925371 L 428 384.714127343 L 432 404.264559315 L 436 404.349671287 L 440 411.986803259 L 444 423.716205231 L 448 422.185997203 L 452 430.146109175 L 456 433.488951147 L 460 453.362573119 L 464 434.238145091 L 468 433.232937063 L 472 437.598899035 L 477 440.712841007 L 481 442.332632979 L 485 434.421574951 L 489 439.366296923 L 493 439.249598895 L 497 441.932830867 L 501 449.489112839 L 505 440.878124811 L 509 457.305646783 L 513 446.890758755 L 517 432.760550727 L 521 447.882292699 L 526 440.577084671 L 530 447.083366643 L 534 437.718478615 L 538 428.313270587 L 542 430.202282559 L 546 430.247074531 L 550 440.993676503 L 554 434.455808476 L 558 441.231310448 L 562 448.00681242 L 566 442.734194392 L 570 439.144516364 L 575 433.293138336 L 579 434.159030308 L 583 431.47109228 L 587 427.450494252 L 591 441.293336224 L 595 433.503448196 L 599 423.277140168 L 603 428.88147214 L 607 423.124384112 L 611 417.488466084 L 615 423.375458056 L 620 406.256740028"/>
			<path class="series-2-line" d="M 40 424.2 L 44 417.282482517 L 48 420.339965035 L 52 413.422447552 L 56 423.82993007 L 60 422.687412587 L 64 426.269895105 L 68 418.302377622 L 72 426.08486014 L 76 427.567342657 L 80 425.374825175 L 84 427.382307692 L 89 429.91479021 L 93 427.197272727 L 97 426.054755245 L 101 421.762237762 L 105 422.71972028 L 109 422.627202797 L 113 425.159685315 L 117 419.292167832 L 121 424.97465035 L 125 413.857132867 L 129 421.114615385 L 133 421.022097902 L 138 411.47958042 L 142 424.512062937 L 146 420.219545455 L 150 419.602027972 L 154 428.95951049 L 158 423.616993007 L 162 429.824475524 L 166 419.756958042 L 170 425.439440559 L 174 421.146923077 L 178 424.204405594 L 182 426.211888112 L 187 420.344370629 L 191 423.401853147 L 195 420.684335664 L 199 424.791818182 L 203 417.349300699 L 207 416.206783217 L 211 418.739265734 L 215 424.946748252 L 219 425.904230769 L 223 426.336713287 L 227 420.469195804 L 231 420.376678322 L 236 415.034160839 L 240 419.666643357 L 244 421.674125874 L 248 417.381608392 L 252 415.189090909 L 256 415.621573427 L 260 411.854055944 L 264 414.911538462 L 268 414.294020979 L 272 421.551503497 L 276 417.783986014 L 280 409.291468531 L 285 413.398951049 L 289 411.206433566 L 293 419.513916084 L 297 416.271398601 L 301 417.228881119 L 305 412.936363636 L 309 405.493846154 L 313 409.076328671 L 317 416.858811189 L 321 412.041293706 L 325 414.048776224 L 330 412.906258741 L 334 408.088741259 L 338 419.021223776 L 342 412.628706294 L 346 419.361188811 L 350 418.218671329 L 354 420.226153846 L 358 414.358636364 L 362 415.316118881 L 366 408.923601399 L 370 414.606083916 L 374 408.738566434 L 379 415.471048951 L 383 407.503531469 L 387 398.486013986 L 391 405.218496503 L 395 404.075979021 L 399 406.608461538 L 403 409.140944056 L 407 411.148426573 L 411 410.005909091 L 415 421.988391608 L 419 413.495874126 L 423 415.503356643 L 428 427.485839161 L 432 416.893321678 L 436 412.600804196 L 440 417.758286713 L 444 419.240769231 L 448 421.248251748 L 452 416.955734266 L 456 416.338216783 L 460 416.770699301 L 464 419.828181818 L 468 421.835664336 L 472 425.418146853 L 477 419.550629371 L 481 421.558111888 L 485 415.690594406 L 489 410.873076923 L 493 417.605559441 L 497 417.513041958 L 501 414.795524476 L 505 415.753006993 L 509 421.43548951 L 513 417.142972028 L 517 419.150454545 L 521 423.782937063 L 526 425.79041958 L 530 423.072902098 L 534 418.780384615 L 538 420.787867133 L 542 421.74534965 L 546 423.752832168 L 550 414.735314685 L 554 419.892797203 L 558 416.12527972 L 562 412.357762238 L 566 404.390244755 L 570 420.572727273 L 575 421.00520979 L 579 417.762692308 L 583 416.095174825 L 587 417.577657343 L 591 416.96013986 L 595 412.667622378 L 599 419.925104895 L 603 414.582587413 L 607 420.79006993 L 611 428.572552448 L 615 420.080034965 L 620 417.362517483"/>
		</g>
		<text class="x-axis-label" x="40.0" y="540">
			0
		</text>
		<path class="x-notch" d="M 60.4225352113 525 L 60.4225352113 530"/>
		<text class="x-axis-label" x="80.8450704225" y="540">
			10
		</text>
		<path class="x-notch" d="M 101.267605634 525 L 101.267605634 530"/>
		<text class="x-axis-label" x="121.690140845" y="540">
			20
		</text>
		<path class="x-notch" d="M 142.112676056 525 L 142.112676056 530"/>
		<text class="x-axis-label" x="162.535211268" y="540">
			30
		</text>
		<path class="x-notch" d="M 182.957746479 525 L 182.957746479 530"/>
		<text class="x-axis-label" x="203.38028169" y="540">
			40
		</text>
		<path class="x-notch" d="M 223.802816901 525 L 223.802816901 530"/>
		<text class="x-axis-label" x="244.225352113" y="540">
			50
		</text>
		<path class="x-notch" d="M 264.647887324 525 L 264.647887324 530"/>
		<text class="x-axis-label" x="285.070422535" y="540">
			60
		</text>
		<path class="x-notch" d="M 305.492957746 525 L 305.492957746 530"/>
		<text class="x-axis-label" x="325.915492958" y="540">
			70
		</text>
		<path class="x-notch" d="M 346.338028169 525 L 346.338028169 530"/>
		<text class="x-axis-label" x="366.76056338" y="540">
			80
		</text>
		<path class="x-notch" d="M 387.183098592 525 L 387.183098592 530"/>
		<text class="x-axis-label" x="407.605633803" y="540">
			90
		</text>
		<path class="x-notch" d="M 428.028169014 525 L 428.028169014 530"/>
		<text class="x-axis-label" x="448.450704225" y="540">
			100
		</text>
		<path class="x-notch" d="M 468.873239437 525 L 468.873239437 530"/>
		<text class="x-axis-label" x="489.295774648" y="540">
			110
		</text>
		<path class="x-notch" d="M 509.718309859 525 L 509.718309859 530"/>
		<text class="x-axis-label" x="530.14084507" y="540">
			120
		</text>
		<path class="x-notch" d="M 550.563380282 525 L 550.563380282 530"/>
		<text class="x-axis-label" x="570.985915493" y="540">
			130
		</text>
		<path class="x-notch" d="M 591.408450704 525 L 591.408450704 530"/>
		<text class="x-axis-label" x="611.830985915" y="540">
			140
		</text>
		<path class="x-notch" d="M 632.253521127 525 L 632.253521127 530"/>
	</g>
</svg>
