<?xml version="1.0" ?>
<svg height="600" version="1.1" width="800" xmlns="http://www.w3.org/2000/svg" xmlns:svg="http://www.w3.org/2000/svg">
	<style type="text/css">
		

.x-axis-path, .y-gridline, .x-notch { fill:none; stroke: #a7a9ac; stroke-width:1; }



.y-gridline { stroke-width: 1; }

.y-axis-path, .y-axis-path2, .x-notch-left, .x-notch-right { display: none;}



.x-axis-label, .data-point-label {font-size: 12px; font-weight:normal; font-family: sans-serif; fill: #58595b; text-anchor:middle;}

.y-axis-label {font-size: 12px; font-family: helvetica; fill: #a7a9ac; text-anchor:end;}



.series-1-line { fill: none; stroke: #10b80c; stroke-width:2; }



.series-2-line { fill: none; stroke: #e90f0a; stroke-width: 2;}

	</style>
	<rect fill="white" height="600" width="800" x="0" y="0"/>
	<g id="grid" transform="translate(70, 30)">
		<g class="x-axis" id="x_axis">
			<path class="x-axis-path" d="M 0 525 L 660 525"/>
			<path class="x-notch-left" d="M 0 525, L 0 535"/>
			<path class="x-notch-right" d="M 660 525, L 660 535"/>
		</g>
		<g class="y-axis" id="y_axis">
			<path class="y-axis-path" d="M 0 525 L 0 0"/>
			<path class="y-axis-path-2" d="M 660 525 L 660 0"/>
			<path class="y-gridline" d="M 0 525 L 660 525"/>
			<text class="y-axis-label" x="-5" y="525">
				-100
			</text>
			<path class="y-gridline" d="M 0 438 L 660 438"/>
			<text class="y-axis-label" x="-5" y="438">
				 0
			</text>
			<path class="y-gridline" d="M 0 351 L 660 351"/>
			<text class="y-axis-label" x="-5" y="351">
				100
			</text>
			<path class="y-gridline" d="M 0 264 L 660 264"/>
			<text class="y-axis-label" x="-5" y="264">
				200
			</text>
			<path class="y-gridline" d="M 0 177 L 660 177"/>
			<text class="y-axis-label" x="-5" y="177">
				300
			</text>
			<path class="y-gridline" d="M 0 90 L 660 90"/>
			<text class="y-axis-label" x="-5" y="90">
				400
			</text>
			<path class="y-gridline" d="M 0 3 L 660 3"/>
			<text class="y-axis-label" x="-5" y="3">
				500
			</text>
		</g>
		<g>
			<path class="series-1-line" d="M 40 453.90065 L 48 431.466005224 L 57 455.003160448 L 66 429.450015672 L 75 416.798220896 L 83 455.815526119 L 92 467.775381343 L 101 467.574836567 L 110 440.137291791 L 119 377.453347015 L 127 436.214152239 L 136 441.937007463 L 145 437.069562687 L 154 433.43621791 L 163 396.284423134 L 171 444.500428358 L 180 453.632983582 L 189 444.099688806 L 198 333.49234403 L 206 402.013249254 L 215 355.976354478 L 224 400.176109701 L 233 315.482764925 L 242 311.871820149 L 250 319.658625373 L 259 339.313580597 L 268 280.083785821 L 277 344.072891045 L 286 265.010696269 L 294 259.223101493 L 303 281.637806716 L 312 181.66556194 L 321 250.499017164 L 330 175.205972388 L 338 183.754727612 L 347 13.8265828358 L 356 84.5237880597 L 365 52.6426432836 L 373 54.2823985075 L 382 129.491453731 L 391 182.687958955 L 400 71.2707141791 L 409 223.570069403 L 417 334.921174627 L 426 342.910279851 L 435 411.633485075 L 444 397.006990299 L 453 435.934695522 L 461 385.096500746 L 470 382.51805597 L 479 425.977561194 L 488 367.377066418 L 496 410.499871642 L 505 426.475626866 L 514 380.73028209 L 523 374.944087313 L 532 310.419492537 L 540 377.751097761 L 549 406.784652985 L 558 399.831208209 L 567 374.255663433 L 576 386.305818657 L 584 408.294223881 L 593 443.430029104 L 602 435.511984328 L 611 451.151389552 L 620 450.435294776"/>
			<path class="series-2-line" d="M 40 438.375 L 48 410.322761194 L 57 445.270522388 L 66 425.968283582 L 75 475.791044776 L 83 450.36380597 L 92 448.561567164 L 101 432.759328358 L 110 434.457089552 L 119 474.654850746 L 127 440.47761194 L 136 456.175373134 L 145 417.623134328 L 154 391.320895522 L 163 441.143656716 L 171 413.96641791 L 180 375.414179104 L 189 416.486940299 L 198 425.184701493 L 206 438.257462687 L 215 440.830223881 L 224 391.777985075 L 233 452.975746269 L 242 423.173507463 L 250 423.996268657 L 259 381.944029851 L 268 326.766791045 L 277 364.339552239 L 286 400.162313433 L 294 334.485074627 L 303 305.557835821 L 312 361.505597015 L 321 223.203358209 L 330 251.151119403 L 338 167.098880597 L 347 147.796641791 L 356 162.619402985 L 365 38.3171641791 L 373 76.7649253731 L 382 309.462686567 L 391 256.035447761 L 400 49.4832089552 L 409 336.430970149 L 417 356.503731343 L 426 394.076492537 L 435 443.899253731 L 444 460.472014925 L 453 449.044776119 L 461 449.867537313 L 470 463.815298507 L 479 427.888059701 L 488 479.460820896 L 496 427.78358209 L 505 413.731343284 L 514 404.929104478 L 523 475.751865672 L 532 427.574626866 L 540 421.39738806 L 549 417.845149254 L 558 431.792910448 L 567 415.990671642 L 576 468.438432836 L 584 437.76119403 L 593 403.583955224 L 602 431.531716418 L 611 435.854477612 L 620 466.427238806"/>
		</g>
		<text class="x-axis-label" x="40.0" y="540">
			0
		</text>
		<path class="x-notch" d="M 83.9393939394 525 L 83.9393939394 530"/>
		<text class="x-axis-label" x="127.878787879" y="540">
			10
		</text>
		<path class="x-notch" d="M 171.818181818 525 L 171.818181818 530"/>
		<text class="x-axis-label" x="215.757575758" y="540">
			20
		</text>
		<path class="x-notch" d="M 259.696969697 525 L 259.696969697 530"/>
		<text class="x-axis-label" x="303.636363636" y="540">
			30
		</text>
		<path class="x-notch" d="M 347.575757576 525 L 347.575757576 530"/>
		<text class="x-axis-label" x="391.515151515" y="540">
			40
		</text>
		<path class="x-notch" d="M 435.454545455 525 L 435.454545455 530"/>
		<text class="x-axis-label" x="479.393939394" y="540">
			50
		</text>
		<path class="x-notch" d="M 523.333333333 525 L 523.333333333 530"/>
		<text class="x-axis-label" x="567.272727273" y="540">
			60
		</text>
		<path class="x-notch" d="M 611.212121212 525 L 611.212121212 530"/>
	</g>
</svg>
