<?xml version="1.0" ?>
<svg height="600" version="1.1" width="800" xmlns="http://www.w3.org/2000/svg" xmlns:svg="http://www.w3.org/2000/svg">
	<style type="text/css">
		

.x-axis-path, .y-gridline, .x-notch { fill:none; stroke: #a7a9ac; stroke-width:1; }



.y-gridline { stroke-width: 1; }

.y-axis-path, .y-axis-path2, .x-notch-left, .x-notch-right { display: none;}



.x-axis-label, .data-point-label {font-size: 12px; font-weight:normal; font-family: sans-serif; fill: #58595b; text-anchor:middle;}

.y-axis-label {font-size: 12px; font-family: helvetica; fill: #a7a9ac; text-anchor:end;}



.series-1-line { fill: none; stroke: #10b80c; stroke-width:2; }



.series-2-line { fill: none; stroke: #e90f0a; stroke-width: 2;}

	</style>
	<rect fill="white" height="600" width="800" x="0" y="0"/>
	<g id="grid" transform="translate(70, 30)">
		<g class="x-axis" id="x_axis">
			<path class="x-axis-path" d="M 0 525 L 660 525"/>
			<path class="x-notch-left" d="M 0 525, L 0 535"/>
			<path class="x-notch-right" d="M 660 525, L 660 535"/>
		</g>
		<g class="y-axis" id="y_axis">
			<path class="y-axis-path" d="M 0 525 L 0 0"/>
			<path class="y-axis-path-2" d="M 660 525 L 660 0"/>
			<path class="y-gridline" d="M 0 525 L 660 525"/>
			<text class="y-axis-label" x="-5" y="525">
				-250
			</text>
			<path class="y-gridline" d="M 0 420 L 660 420"/>
			<text class="y-axis-label" x="-5" y="420">
				 0
			</text>
			<path class="y-gridline" d="M 0 315 L 660 315"/>
			<text class="y-axis-label" x="-5" y="315">
				250
			</text>
			<path class="y-gridline" d="M 0 210 L 660 210"/>
			<text class="y-axis-label" x="-5" y="210">
				500
			</text>
			<path class="y-gridline" d="M 0 105 L 660 105"/>
			<text class="y-axis-label" x="-5" y="105">
				750
			</text>
			<path class="y-gridline" d="M 0 0 L 660 0"/>
			<text class="y-axis-label" x="-5" y="0">
				1000
			</text>
		</g>
		<g>
			<path class="series-1-line" d="M 40 413.764631015 L 44 435.47609994 L 49 414.036697027 L 54 410.202089484 L 59 425.149163964 L 64 378.520257313 L 69 432.12237209 L 73 415.178800717 L 78 391.029051774 L 83 406.039378584 L 88 420.39751814 L 93 424.504191694 L 98 433.715623382 L 102 415.049163367 L 107 402.768567003 L 112 431.497439702 L 117 426.00352358 L 122 412.883277092 L 127 412.515093971 L 131 424.142895827 L 136 430.728208683 L 141 412.208572732 L 146 417.239779074 L 151 416.094214963 L 156 397.553604147 L 160 397.45809429 L 165 390.724366919 L 170 373.549744283 L 175 389.735974547 L 180 327.623683633 L 185 367.360756188 L 189 301.656191653 L 194 261.35087952 L 199 240.478453467 L 204 240.719196939 L 209 206.317326529 L 214 210.486924682 L 218 245.286710303 L 223 236.998220953 L 228 240.327513517 L 233 209.685715659 L 238 195.851012781 L 243 218.172063764 L 247 242.719400186 L 252 243.864029312 L 257 194.000077236 L 262 248.400875601 L 267 187.968868132 L 272 168.0 L 276 172.715600147 L 281 226.590388188 L 286 227.671437249 L 291 212.912857048 L 296 318.721742275 L 301 246.965928755 L 305 285.989528117 L 310 222.974007014 L 315 199.49578153 L 320 215.682339527 L 325 170.691438857 L 330 189.335661289 L 334 209.177745237 L 339 254.58688052 L 344 204.469919117 L 349 319.775175151 L 354 279.785469212 L 359 327.548377795 L 363 321.927629277 L 368 348.199820737 L 373 405.184460469 L 378 399.438845949 L 383 404.511346559 L 388 425.151786364 L 392 401.506745145 L 397 422.587984878 L 402 425.244770785 L 407 414.204313404 L 412 418.857316683 L 417 422.249533847 L 421 418.8350791 L 426 428.193007121 L 431 411.102611683 L 436 395.671524825 L 441 419.50473259 L 446 441.762203509 L 450 427.528322702 L 455 393.000603093 L 460 395.678363867 L 465 403.903321365 L 470 412.925979255 L 475 439.595382249 L 479 430.298788377 L 484 433.77523274 L 489 437.545652965 L 494 420.370702597 L 499 422.733512641 L 504 419.571084023 L 508 408.488676909 L 513 395.599481684 L 518 420.672500698 L 523 417.825350543 L 528 417.793093019 L 532 429.210490745 L 537 430.753970066 L 542 422.276706917 L 547 416.047031806 L 552 403.640913976 L 557 431.402976422 L 562 409.921296043 L 566 406.92699409 L 571 417.840339555 L 576 410.497357859 L 581 418.952711156 L 586 423.12230931 L 591 424.077509172 L 595 430.642174894 L 600 427.143492948 L 605 407.59477761 L 610 428.38204148 L 615 417.3202815 L 620 421.616384317"/>
			<path class="series-2-line" d="M 40 414.92014952 L 44 393.249190472 L 49 424.834728396 L 54 426.105029583 L 59 437.207299441 L 64 436.01960846 L 69 392.226719901 L 73 425.45091927 L 78 432.456535515 L 83 465.680734885 L 88 408.778554764 L 93 417.422832454 L 98 396.571204129 L 102 410.950796878 L 107 355.687278202 L 112 389.730808295 L 117 426.232330555 L 122 438.153931136 L 127 441.88222449 L 131 459.539140129 L 136 432.952196746 L 141 424.390529261 L 146 448.602090681 L 151 445.775738255 L 156 440.49139366 L 160 401.614489437 L 165 407.800774959 L 170 445.121627942 L 175 422.631338172 L 180 408.334355628 L 185 418.617294764 L 189 421.526257396 L 194 424.435220028 L 199 431.440836273 L 204 404.034562167 L 209 412.678839857 L 214 411.491148875 L 218 393.097512719 L 223 386.174506679 L 228 388.264138588 L 233 353.483887978 L 238 349.018874106 L 243 360.121143964 L 247 311.412271069 L 252 334.804501767 L 257 359.016063188 L 262 350.454395703 L 267 297.648869195 L 272 323.499092061 L 276 301.00880229 L 281 214.610716154 L 286 183.927119158 L 291 227.802617921 L 296 252.014179342 L 301 176.2673926 L 305 266.025411832 L 310 264.837720851 L 315 198.92290278 L 320 208.386511193 L 325 143.291023846 L 330 120.800734076 L 334 135.180326824 L 339 123.341336449 L 344 59.0651798237 L 349 135.713907493 L 354 185.324721316 L 359 253.780141759 L 363 214.083906813 L 368 375.943029638 L 373 347.717424809 L 378 423.546821756 L 383 377.29594103 L 388 394.952856669 L 392 451.118316273 L 397 431.905349393 L 402 411.053721068 L 407 418.059337313 L 412 437.354914398 L 417 429.612577635 L 421 429.244217376 L 426 353.497430635 L 431 409.662890238 L 436 430.597128768 L 441 397.455539604 L 446 354.481981767 L 450 348.37830645 L 455 376.686521484 L 460 352.557570268 L 465 421.832321434 L 470 430.476599125 L 475 402.250994296 L 479 424.823894271 L 484 435.926164129 L 489 433.099811703 L 494 438.466766502 L 499 431.543760462 L 504 423.8014237 L 508 437.361685726 L 513 445.186632694 L 518 442.360280267 L 523 449.365896512 L 528 432.6109218 L 532 419.133269979 L 537 412.210263939 L 542 434.783163915 L 547 426.221496429 L 552 422.57581328 L 557 415.65280724 L 562 421.839092763 L 566 419.832071058 L 571 421.102372245 L 576 426.469327045 L 581 427.739628231 L 586 426.55193725 L 591 415.532277597 L 595 424.176555287 L 600 404.963588407 L 605 429.175149828 L 610 423.890805233 L 615 402.219846186 L 620 445.276014227"/>
		</g>
		<text class="x-axis-label" x="40.0" y="540">
			0
		</text>
		<path class="x-notch" d="M 64.1666666667 525 L 64.1666666667 530"/>
		<text class="x-axis-label" x="88.3333333333" y="540">
			10
		</text>
		<path class="x-notch" d="M 112.5 525 L 112.5 530"/>
		<text class="x-axis-label" x="136.666666667" y="540">
			20
		</text>
		<path class="x-notch" d="M 160.833333333 525 L 160.833333333 530"/>
		<text class="x-axis-label" x="185.0" y="540">
			30
		</text>
		<path class="x-notch" d="M 209.166666667 525 L 209.166666667 530"/>
		<text class="x-axis-label" x="233.333333333" y="540">
			40
		</text>
		<path class="x-notch" d="M 257.5 525 L 257.5 530"/>
		<text class="x-axis-label" x="281.666666667" y="540">
			50
		</text>
		<path class="x-notch" d="M 305.833333333 525 L 305.833333333 530"/>
		<text class="x-axis-label" x="330.0" y="540">
			60
		</text>
		<path class="x-notch" d="M 354.166666667 525 L 354.166666667 530"/>
		<text class="x-axis-label" x="378.333333333" y="540">
			70
		</text>
		<path class="x-notch" d="M 402.5 525 L 402.5 530"/>
		<text class="x-axis-label" x="426.666666667" y="540">
			80
		</text>
		<path class="x-notch" d="M 450.833333333 525 L 450.833333333 530"/>
		<text class="x-axis-label" x="475.0" y="540">
			90
		</text>
		<path class="x-notch" d="M 499.166666667 525 L 499.166666667 530"/>
		<text class="x-axis-label" x="523.333333333" y="540">
			100
		</text>
		<path class="x-notch" d="M 547.5 525 L 547.5 530"/>
		<text class="x-axis-label" x="571.666666667" y="540">
			110
		</text>
		<path class="x-notch" d="M 595.833333333 525 L 595.833333333 530"/>
		<text class="x-axis-label" x="620.0" y="540">
			120
		</text>
	</g>
</svg>
