<?xml version="1.0" ?>
<svg height="600" version="1.1" width="800" xmlns="http://www.w3.org/2000/svg" xmlns:svg="http://www.w3.org/2000/svg">
	<style type="text/css">

.x-axis-path, .y-gridline, .x-notch { fill:none; stroke: #a7a9ac; stroke-width:1; }



.y-gridline { stroke-width: 1; }

.y-axis-path, .y-axis-path2, .x-notch-left, .x-notch-right { display: none;}



.x-axis-label, .data-point-label {font-size: 12px; font-weight:normal; font-family: sans-serif; fill: #58595b; text-anchor:middle;}

.y-axis-label {font-size: 12px; font-family: helvetica; fill: #a7a9ac; text-anchor:end;}



.series-1-line { fill: none; stroke: #10b80c; stroke-width:2; }



.series-2-line { fill: none; stroke: #e90f0a; stroke-width: 2;}
</style>
	<rect fill="white" height="600" width="800" x="0" y="0"/>
	<g id="grid" transform="translate(70, 30)">
		<g class="x-axis" id="x_axis">
			<path class="x-axis-path" d="M 0 525 L 660 525"/>
			<path class="x-notch-left" d="M 0 525, L 0 535"/>
			<path class="x-notch-right" d="M 660 525, L 660 535"/>
		</g>
		<g class="y-axis" id="y_axis">
			<path class="y-axis-path" d="M 0 525 L 0 0"/>
			<path class="y-axis-path-2" d="M 660 525 L 660 0"/>
			<path class="y-gridline" d="M 0 525 L 660 525"/>
			<text class="y-axis-label" x="-5" y="525">-200</text>
			<path class="y-gridline" d="M 0 394 L 660 394"/>
			<text class="y-axis-label" x="-5" y="394"> 0</text>
			<path class="y-gridline" d="M 0 263 L 660 263"/>
			<text class="y-axis-label" x="-5" y="263">200</text>
			<path class="y-gridline" d="M 0 132 L 660 132"/>
			<text class="y-axis-label" x="-5" y="132">400</text>
			<path class="y-gridline" d="M 0 1 L 660 1"/>
			<text class="y-axis-label" x="-5" y="1">600</text>
		</g>
		<g>
			<path class="series-1-line" d="M 40 387.453862971 L 45 400.42406484 L 51 401.625522785 L 56 394.400057831 L 62 385.619491289 L 67 385.42353793 L 73 383.115649412 L 78 386.450352014 L 84 382.576707158 L 89 364.17113218 L 95 381.2707869 L 100 380.433909413 L 106 360.95646669 L 111 383.982456692 L 117 372.24921334 L 122 355.125486618 L 128 368.852175662 L 133 377.09396387 L 139 400.897422706 L 144 388.102966359 L 150 373.532609242 L 156 385.578142822 L 161 368.738160261 L 167 348.272940352 L 172 333.502929631 L 178 346.998492583 L 183 370.297735916 L 189 331.496676591 L 194 316.411449221 L 200 329.308051363 L 205 279.873388675 L 211 274.097953093 L 216 206.800194004 L 222 217.7530421 L 227 207.784880849 L 233 169.656382062 L 238 126.757506295 L 244 82.7867627835 L 249 120.786117354 L 255 87.5015952742 L 260 64.346461055 L 266 97.2497311654 L 272 47.3106890541 L 277 91.4779958275 L 283 41.1711189988 L 288 46.7544653856 L 294 44.4990310156 L 299 11.7715064272 L 305 61.5499318322 L 310 0.0 L 316 37.8521551155 L 321 67.3403323109 L 327 62.6787277912 L 332 91.2422366976 L 338 137.122335343 L 343 96.2303225189 L 349 109.273960196 L 354 125.238966114 L 360 185.72475853 L 365 203.770063199 L 371 255.692060172 L 376 251.986596431 L 382 288.567558038 L 388 252.298886659 L 393 330.185195451 L 399 385.101996473 L 404 381.596186335 L 410 371.785715369 L 415 383.064270944 L 421 379.264225816 L 426 382.87201783 L 432 386.070175726 L 437 403.590119313 L 443 403.163039862 L 448 393.888584727 L 454 403.191585929 L 459 399.034360832 L 465 397.619504194 L 470 400.092483486 L 476 400.043729582 L 481 407.287249773 L 487 405.578322064 L 492 398.604964862 L 498 397.431889066 L 504 408.899443495 L 509 400.990927175 L 515 405.786149978 L 520 395.818152647 L 526 409.008989779 L 531 386.232181107 L 537 396.186597267 L 542 398.9013574 L 548 395.290475046 L 553 398.908921808 L 559 406.793366128 L 564 404.706112872 L 570 398.247625923 L 575 400.804695772 L 581 397.057268711 L 586 404.920731372 L 592 402.465643399 L 597 379.047910598 L 603 405.793555415 L 608 402.382326664 L 614 386.740265722 L 620 393.626442026"/>
			<path class="series-2-line" d="M 40 397.847980363 L 45 400.249551496 L 51 384.620009034 L 56 389.070570348 L 62 396.389717917 L 67 391.005126361 L 73 395.455687675 L 78 398.676854881 L 84 391.653071181 L 89 398.152622676 L 95 395.636617374 L 100 394.350006181 L 106 392.243798916 L 111 392.186581831 L 117 396.637143146 L 122 394.940733917 L 128 391.195334506 L 133 396.055693857 L 139 386.573121939 L 144 396.760855761 L 150 396.29384064 L 156 399.10520981 L 161 401.096982907 L 167 393.253603133 L 172 391.96699194 L 178 392.319572892 L 183 397.589730279 L 189 389.33655247 L 194 389.279335386 L 200 387.17312812 L 205 391.623689435 L 211 393.615462531 L 216 387.82107294 L 222 401.287191052 L 227 386.067446626 L 233 384.780835433 L 238 392.509781037 L 244 391.632967881 L 249 389.116962579 L 255 383.322572987 L 260 379.577173576 L 266 388.945311326 L 272 392.166478532 L 277 386.37208894 L 283 383.036487565 L 288 387.077250844 L 294 383.331851433 L 299 386.553018639 L 305 384.446811373 L 310 392.99535305 L 316 381.463790951 L 321 380.177179758 L 327 384.217943036 L 332 383.341129879 L 338 382.054518686 L 343 380.358109457 L 349 371.285335575 L 354 385.980847796 L 360 391.660803219 L 365 385.456615591 L 371 384.579802434 L 376 383.293191241 L 382 394.300521136 L 388 390.555121725 L 393 382.711741952 L 399 394.128869883 L 404 393.661854762 L 410 385.818474989 L 415 396.416006847 L 421 393.900001545 L 426 386.466419808 L 432 395.014961486 L 437 390.859764039 L 443 389.573152846 L 448 394.02371416 L 454 393.146901003 L 459 398.41705839 L 465 391.39327469 L 470 385.189087061 L 476 388.820052303 L 481 389.582431292 L 487 396.491780824 L 492 393.565977486 L 498 396.787144691 L 504 393.861341353 L 509 392.984528196 L 515 392.10771504 L 520 392.870094028 L 526 392.812876944 L 531 393.985053968 L 537 387.371068304 L 542 391.411831582 L 548 391.354614497 L 553 398.26396403 L 559 394.928362655 L 564 396.920135752 L 570 393.584534378 L 575 390.248933003 L 581 395.51909039 L 586 395.461873306 L 592 390.896877823 L 597 396.16703521 L 603 391.192241691 L 608 391.954620679 L 614 398.863970211 L 620 391.430388474"/>
		</g>
		<text class="x-axis-label" x="40.0" y="540">0</text>
		<path class="x-notch" d="M 67.619047619 525 L 67.619047619 530"/>
		<text class="x-axis-label" x="95.2380952381" y="540">10</text>
		<path class="x-notch" d="M 122.857142857 525 L 122.857142857 530"/>
		<text class="x-axis-label" x="150.476190476" y="540">20</text>
		<path class="x-notch" d="M 178.095238095 525 L 178.095238095 530"/>
		<text class="x-axis-label" x="205.714285714" y="540">30</text>
		<path class="x-notch" d="M 233.333333333 525 L 233.333333333 530"/>
		<text class="x-axis-label" x="260.952380952" y="540">40</text>
		<path class="x-notch" d="M 288.571428571 525 L 288.571428571 530"/>
		<text class="x-axis-label" x="316.19047619" y="540">50</text>
		<path class="x-notch" d="M 343.80952381 525 L 343.80952381 530"/>
		<text class="x-axis-label" x="371.428571429" y="540">60</text>
		<path class="x-notch" d="M 399.047619048 525 L 399.047619048 530"/>
		<text class="x-axis-label" x="426.666666667" y="540">70</text>
		<path class="x-notch" d="M 454.285714286 525 L 454.285714286 530"/>
		<text class="x-axis-label" x="481.904761905" y="540">80</text>
		<path class="x-notch" d="M 509.523809524 525 L 509.523809524 530"/>
		<text class="x-axis-label" x="537.142857143" y="540">90</text>
		<path class="x-notch" d="M 564.761904762 525 L 564.761904762 530"/>
		<text class="x-axis-label" x="592.380952381" y="540">100</text>
		<path class="x-notch" d="M 620.0 525 L 620.0 530"/>
	</g>
</svg>
