<?xml version="1.0" ?>
<svg height="600" version="1.1" width="800" xmlns="http://www.w3.org/2000/svg" xmlns:svg="http://www.w3.org/2000/svg">
	<style type="text/css">

.x-axis-path, .y-gridline, .x-notch { fill:none; stroke: #a7a9ac; stroke-width:1; }



.y-gridline { stroke-width: 1; }

.y-axis-path, .y-axis-path2, .x-notch-left, .x-notch-right { display: none;}



.x-axis-label, .data-point-label {font-size: 12px; font-weight:normal; font-family: sans-serif; fill: #58595b; text-anchor:middle;}

.y-axis-label {font-size: 12px; font-family: helvetica; fill: #a7a9ac; text-anchor:end;}



.series-1-line { fill: none; stroke: #10b80c; stroke-width:2; }



.series-2-line { fill: none; stroke: #e90f0a; stroke-width: 2;}
</style>
	<rect fill="white" height="600" width="800" x="0" y="0"/>
	<g id="grid" transform="translate(70, 30)">
		<g class="x-axis" id="x_axis">
			<path class="x-axis-path" d="M 0 525 L 660 525"/>
			<path class="x-notch-left" d="M 0 525, L 0 535"/>
			<path class="x-notch-right" d="M 660 525, L 660 535"/>
		</g>
		<g class="y-axis" id="y_axis">
			<path class="y-axis-path" d="M 0 525 L 0 0"/>
			<path class="y-axis-path-2" d="M 660 525 L 660 0"/>
			<path class="y-gridline" d="M 0 525 L 660 525"/>
			<text class="y-axis-label" x="-5" y="525">-200</text>
			<path class="y-gridline" d="M 0 394 L 660 394"/>
			<text class="y-axis-label" x="-5" y="394"> 0</text>
			<path class="y-gridline" d="M 0 263 L 660 263"/>
			<text class="y-axis-label" x="-5" y="263">200</text>
			<path class="y-gridline" d="M 0 132 L 660 132"/>
			<text class="y-axis-label" x="-5" y="132">400</text>
			<path class="y-gridline" d="M 0 1 L 660 1"/>
			<text class="y-axis-label" x="-5" y="1">600</text>
		</g>
		<g>
			<path class="series-1-line" d="M 40 398.365411679 L 47 396.782449068 L 55 392.715611771 L 63 395.141244951 L 70 385.078576161 L 78 373.490778404 L 86 395.830234495 L 94 398.866163979 L 101 371.111971982 L 109 388.431744376 L 117 387.362822826 L 125 377.918879471 L 132 371.83013827 L 140 388.557152392 L 148 376.63803539 L 156 380.972594922 L 163 386.492127184 L 171 383.139862703 L 179 364.728275224 L 186 373.245859186 L 194 371.183387762 L 202 351.324980665 L 210 337.410334783 L 217 314.030997932 L 225 302.512808485 L 233 292.711442768 L 241 276.731251833 L 248 248.663414576 L 256 235.227869646 L 264 190.967535033 L 272 186.194825959 L 279 255.098299346 L 287 160.055846946 L 295 124.562760656 L 302 144.043925483 L 310 139.236004393 L 318 89.6506340009 L 326 103.449748548 L 333 71.3552336541 L 341 0.0 L 349 5.65902079104 L 357 31.7633076322 L 364 66.4173168247 L 372 47.5780189039 L 380 54.8932280596 L 388 79.4984890504 L 395 95.0142913734 L 403 101.170494963 L 411 205.83143134 L 418 191.202212641 L 426 269.639985307 L 434 336.739896484 L 442 307.521618746 L 449 330.079552485 L 457 355.172343559 L 465 370.3919027 L 473 370.290971722 L 480 380.760715324 L 488 401.72336797 L 496 386.17863684 L 504 400.48309141 L 511 387.884477654 L 519 396.811418304 L 527 385.833780896 L 534 392.730388511 L 542 388.332367923 L 550 391.699344744 L 558 396.713536983 L 565 397.100000136 L 573 390.070187201 L 581 387.807319976 L 589 390.747266124 L 596 398.497935084 L 604 394.945274802 L 612 392.577859157 L 620 392.981724387"/>
			<path class="series-2-line" d="M 40 389.535434304 L 47 400.652335202 L 55 401.572706191 L 63 383.799439015 L 70 392.19726527 L 78 399.915322865 L 86 390.639163945 L 94 396.997684219 L 101 394.859096236 L 109 399.858079188 L 117 397.039722544 L 125 401.698821166 L 132 399.900117513 L 140 391.303727254 L 148 384.406758647 L 156 400.282040169 L 163 390.326112589 L 171 385.808334293 L 179 397.605003851 L 186 397.165837519 L 194 390.268868912 L 202 389.149933919 L 210 401.966256468 L 217 393.36986621 L 225 390.211625235 L 233 384.334309619 L 241 387.97375525 L 248 395.012044184 L 256 386.075769595 L 264 387.336024915 L 272 392.335007867 L 279 369.803360067 L 287 379.560723643 L 295 378.441788651 L 302 390.918226869 L 310 361.588892463 L 318 345.175162608 L 326 369.207668056 L 333 341.577755302 L 341 341.13858897 L 349 335.941042014 L 357 322.586271131 L 364 340.840742964 L 372 286.699852448 L 380 314.810969859 L 388 296.697818353 L 395 304.755760278 L 403 341.363985946 L 411 307.956039577 L 418 326.210511411 L 426 314.215277849 L 434 334.509055664 L 442 335.429426653 L 449 384.953256873 L 457 317.216993145 L 465 331.732737345 L 473 390.093560152 L 480 389.99427815 L 488 396.692682754 L 496 372.121728972 L 504 383.5785142 L 511 403.192523355 L 519 378.621569573 L 527 397.215925736 L 534 397.796412395 L 542 397.357246063 L 550 391.819814777 L 558 394.439607417 L 565 389.921829122 L 573 402.398267341 L 581 400.259679357 L 589 395.062132401 L 596 394.9628504 L 604 395.203452728 L 612 396.123823717 L 620 388.88697078"/>
		</g>
		<text class="x-axis-label" x="40.0" y="540">0</text>
		<path class="x-notch" d="M 78.6666666667 525 L 78.6666666667 530"/>
		<text class="x-axis-label" x="117.333333333" y="540">10</text>
		<path class="x-notch" d="M 156.0 525 L 156.0 530"/>
		<text class="x-axis-label" x="194.666666667" y="540">20</text>
		<path class="x-notch" d="M 233.333333333 525 L 233.333333333 530"/>
		<text class="x-axis-label" x="272.0" y="540">30</text>
		<path class="x-notch" d="M 310.666666667 525 L 310.666666667 530"/>
		<text class="x-axis-label" x="349.333333333" y="540">40</text>
		<path class="x-notch" d="M 388.0 525 L 388.0 530"/>
		<text class="x-axis-label" x="426.666666667" y="540">50</text>
		<path class="x-notch" d="M 465.333333333 525 L 465.333333333 530"/>
		<text class="x-axis-label" x="504.0" y="540">60</text>
		<path class="x-notch" d="M 542.666666667 525 L 542.666666667 530"/>
		<text class="x-axis-label" x="581.333333333" y="540">70</text>
		<path class="x-notch" d="M 620.0 525 L 620.0 530"/>
	</g>
</svg>
