<?xml version="1.0" ?>
<svg height="600" version="1.1" width="800" xmlns="http://www.w3.org/2000/svg" xmlns:svg="http://www.w3.org/2000/svg">
	<style type="text/css">

.x-axis-path, .y-gridline, .x-notch { fill:none; stroke: #a7a9ac; stroke-width:1; }



.y-gridline { stroke-width: 1; }

.y-axis-path, .y-axis-path2, .x-notch-left, .x-notch-right { display: none;}



.x-axis-label, .data-point-label {font-size: 12px; font-weight:normal; font-family: sans-serif; fill: #58595b; text-anchor:middle;}

.y-axis-label {font-size: 12px; font-family: helvetica; fill: #a7a9ac; text-anchor:end;}



.series-1-line { fill: none; stroke: #10b80c; stroke-width:2; }



.series-2-line { fill: none; stroke: #e90f0a; stroke-width: 2;}
</style>
	<rect fill="white" height="600" width="800" x="0" y="0"/>
	<g id="grid" transform="translate(70, 30)">
		<g class="x-axis" id="x_axis">
			<path class="x-axis-path" d="M 0 525 L 660 525"/>
			<path class="x-notch-left" d="M 0 525, L 0 535"/>
			<path class="x-notch-right" d="M 660 525, L 660 535"/>
		</g>
		<g class="y-axis" id="y_axis">
			<path class="y-axis-path" d="M 0 525 L 0 0"/>
			<path class="y-axis-path-2" d="M 660 525 L 660 0"/>
			<path class="y-gridline" d="M 0 525 L 660 525"/>
			<text class="y-axis-label" x="-5" y="525">-200</text>
			<path class="y-gridline" d="M 0 394 L 660 394"/>
			<text class="y-axis-label" x="-5" y="394"> 0</text>
			<path class="y-gridline" d="M 0 263 L 660 263"/>
			<text class="y-axis-label" x="-5" y="263">200</text>
			<path class="y-gridline" d="M 0 132 L 660 132"/>
			<text class="y-axis-label" x="-5" y="132">400</text>
			<path class="y-gridline" d="M 0 1 L 660 1"/>
			<text class="y-axis-label" x="-5" y="1">600</text>
		</g>
		<g>
			<path class="series-1-line" d="M 40 399.940568055 L 47 413.615406065 L 54 383.019107901 L 61 351.858096364 L 68 416.623440962 L 75 430.055899207 L 82 417.660117912 L 89 404.659961101 L 96 392.506559571 L 103 396.333854002 L 110 396.933405437 L 117 398.097670246 L 124 407.615537903 L 131 419.433809871 L 139 406.069768634 L 146 365.747431552 L 153 422.523057728 L 160 444.107660315 L 167 379.975446098 L 174 415.563303501 L 181 434.241867144 L 188 365.3476775 L 195 326.317193086 L 202 397.216949181 L 209 337.604330627 L 216 295.668436827 L 223 269.834114091 L 230 307.03615777 L 238 291.654383687 L 245 192.734692451 L 252 192.204187581 L 259 224.240709264 L 266 140.979380378 L 273 93.9579184263 L 280 142.661983662 L 287 117.07004069 L 294 100.235247136 L 301 154.709839442 L 308 106.720117548 L 315 138.71634753 L 322 61.1455918708 L 330 0.0 L 337 83.7326629044 L 344 44.2986319214 L 351 107.853336812 L 358 171.690713169 L 365 166.357311613 L 372 218.047369637 L 379 156.498860755 L 386 163.796907503 L 393 240.911658497 L 400 267.136102292 L 407 259.422972138 L 414 330.121269727 L 421 396.218758694 L 429 380.070812732 L 436 399.718265876 L 443 399.792766081 L 450 407.65615576 L 457 417.819949751 L 464 411.35649189 L 471 362.842348323 L 478 406.986526195 L 485 420.297479778 L 492 410.484774261 L 499 419.317053441 L 506 415.517254759 L 513 434.882036437 L 520 407.27236062 L 528 399.880934517 L 535 394.910787829 L 542 423.154223586 L 549 412.292674723 L 556 380.969866824 L 563 383.304479639 L 570 415.583381086 L 577 446.449554763 L 584 434.336444935 L 591 411.731124309 L 598 391.344995034 L 605 401.064950755 L 612 381.566498021 L 620 388.582502861"/>
			<path class="series-2-line" d="M 40 385.565748208 L 47 403.940493311 L 54 392.411241482 L 61 407.638197433 L 68 374.07442155 L 75 368.840748022 L 82 341.57255044 L 89 408.738027378 L 96 405.078248425 L 103 363.644999665 L 110 396.184795945 L 117 401.968384445 L 124 393.586921767 L 131 394.648826541 L 139 395.710731314 L 146 366.868639157 L 153 413.573486615 L 160 425.652653416 L 167 428.288452765 L 174 404.168044334 L 181 378.473741327 L 188 387.405118977 L 195 402.632074929 L 202 394.25061225 L 209 366.982414668 L 216 405.81778925 L 223 387.99295912 L 230 357.576972387 L 238 366.508350037 L 245 332.944574153 L 252 357.614897557 L 259 335.068383701 L 266 314.09576442 L 273 286.827566838 L 280 303.628417365 L 287 309.412005864 L 294 299.456648611 L 301 275.336240179 L 308 276.398144953 L 315 260.147209398 L 322 272.226376199 L 330 300.044488753 L 337 253.889556267 L 344 270.690406794 L 351 241.848314636 L 358 230.319062807 L 365 206.198654376 L 372 186.79992967 L 379 277.573825238 L 386 247.157838505 L 393 251.367532429 L 400 153.274078957 L 407 255.065236552 L 414 278.161665381 L 421 282.371359305 L 429 349.536836243 L 436 356.894319318 L 443 348.51285664 L 450 352.722550564 L 457 366.37561194 L 464 334.385730632 L 471 355.908264885 L 478 408.908690645 L 485 361.179863583 L 492 360.667873782 L 499 397.929353788 L 506 380.104523658 L 513 370.149166404 L 520 383.80222778 L 528 373.846870527 L 535 354.448145821 L 542 371.248996348 L 549 411.658265505 L 556 390.685646224 L 563 398.043129299 L 570 399.105034073 L 577 374.984625642 L 584 365.029268388 L 591 395.995170093 L 598 387.613707415 L 605 409.136241668 L 612 385.015833236 L 620 398.668894613"/>
		</g>
		<text class="x-axis-label" x="40.0" y="540">0</text>
		<path class="x-notch" d="M 75.3658536585 525 L 75.3658536585 530"/>
		<text class="x-axis-label" x="110.731707317" y="540">10</text>
		<path class="x-notch" d="M 146.097560976 525 L 146.097560976 530"/>
		<text class="x-axis-label" x="181.463414634" y="540">20</text>
		<path class="x-notch" d="M 216.829268293 525 L 216.829268293 530"/>
		<text class="x-axis-label" x="252.195121951" y="540">30</text>
		<path class="x-notch" d="M 287.56097561 525 L 287.56097561 530"/>
		<text class="x-axis-label" x="322.926829268" y="540">40</text>
		<path class="x-notch" d="M 358.292682927 525 L 358.292682927 530"/>
		<text class="x-axis-label" x="393.658536585" y="540">50</text>
		<path class="x-notch" d="M 429.024390244 525 L 429.024390244 530"/>
		<text class="x-axis-label" x="464.390243902" y="540">60</text>
		<path class="x-notch" d="M 499.756097561 525 L 499.756097561 530"/>
		<text class="x-axis-label" x="535.12195122" y="540">70</text>
		<path class="x-notch" d="M 570.487804878 525 L 570.487804878 530"/>
		<text class="x-axis-label" x="605.853658537" y="540">80</text>
		<path class="x-notch" d="M 641.219512195 525 L 641.219512195 530"/>
	</g>
</svg>
