<?xml version="1.0" ?>
<svg height="600" version="1.1" width="800" xmlns="http://www.w3.org/2000/svg" xmlns:svg="http://www.w3.org/2000/svg">
	<style type="text/css">

.x-axis-path, .y-gridline, .x-notch { fill:none; stroke: #a7a9ac; stroke-width:1; }



.y-gridline { stroke-width: 1; }

.y-axis-path, .y-axis-path2, .x-notch-left, .x-notch-right { display: none;}



.x-axis-label, .data-point-label {font-size: 12px; font-weight:normal; font-family: sans-serif; fill: #58595b; text-anchor:middle;}

.y-axis-label {font-size: 12px; font-family: helvetica; fill: #a7a9ac; text-anchor:end;}



.series-1-line { fill: none; stroke: #10b80c; stroke-width:2; }



.series-2-line { fill: none; stroke: #e90f0a; stroke-width: 2;}
</style>
	<rect fill="white" height="600" width="800" x="0" y="0"/>
	<g id="grid" transform="translate(70, 30)">
		<g class="x-axis" id="x_axis">
			<path class="x-axis-path" d="M 0 525 L 660 525"/>
			<path class="x-notch-left" d="M 0 525, L 0 535"/>
			<path class="x-notch-right" d="M 660 525, L 660 535"/>
		</g>
		<g class="y-axis" id="y_axis">
			<path class="y-axis-path" d="M 0 525 L 0 0"/>
			<path class="y-axis-path-2" d="M 660 525 L 660 0"/>
			<path class="y-gridline" d="M 0 525 L 660 525"/>
			<text class="y-axis-label" x="-5" y="525">-200</text>
			<path class="y-gridline" d="M 0 394 L 660 394"/>
			<text class="y-axis-label" x="-5" y="394"> 0</text>
			<path class="y-gridline" d="M 0 263 L 660 263"/>
			<text class="y-axis-label" x="-5" y="263">200</text>
			<path class="y-gridline" d="M 0 132 L 660 132"/>
			<text class="y-axis-label" x="-5" y="132">400</text>
			<path class="y-gridline" d="M 0 1 L 660 1"/>
			<text class="y-axis-label" x="-5" y="1">600</text>
		</g>
		<g>
			<path class="series-1-line" d="M 40 407.73674901 L 47 375.300086105 L 54 399.392608592 L 61 387.443052871 L 68 397.624978531 L 75 409.26089793 L 82 369.298781671 L 89 379.543838673 L 96 392.065569728 L 103 324.1550107 L 110 415.526802556 L 117 394.661917511 L 124 356.470438133 L 131 361.90962166 L 139 392.768048533 L 146 417.36660819 L 153 411.86730014 L 160 381.957863804 L 167 384.994110594 L 174 310.318633608 L 181 396.125989447 L 188 317.086558386 L 195 356.229001154 L 202 323.918600935 L 209 327.208359523 L 216 292.620298825 L 223 394.552780628 L 230 336.064574522 L 238 267.521715638 L 245 316.780956099 L 252 400.628281028 L 259 349.41103005 L 266 323.992796901 L 273 302.874400058 L 280 243.437250954 L 287 209.22896474 L 294 170.595565962 L 301 168.003258965 L 308 163.83168197 L 315 60.0684387628 L 322 99.9694440724 L 330 0.0 L 337 49.0057286623 L 344 7.96939314716 L 351 111.988168546 L 358 71.0780957168 L 365 51.2242985847 L 372 74.620403446 L 379 10.3773808675 L 386 186.165642396 L 393 180.791610604 L 400 84.489702981 L 407 72.47602949 L 414 72.4780261138 L 421 42.5064448617 L 429 172.070726292 L 436 175.549878909 L 443 251.935868254 L 450 242.89528644 L 457 178.33562072 L 464 224.308085644 L 471 277.614637038 L 478 299.305209215 L 485 314.798059092 L 492 327.129409691 L 499 368.547540083 L 506 358.937789757 L 513 356.536849643 L 520 376.961835682 L 528 363.115380393 L 535 393.84754458 L 542 374.436653275 L 549 403.145655209 L 556 414.275537439 L 563 400.238701695 L 570 399.734661148 L 577 353.638940359 L 584 402.771918135 L 591 372.358417482 L 598 418.266764636 L 605 403.281972322 L 612 385.451337443 L 620 391.270295455"/>
			<path class="series-2-line" d="M 40 366.1300375 L 47 404.96318185 L 54 377.21248803 L 61 393.851019656 L 68 420.353823604 L 75 412.331674427 L 82 374.716708286 L 89 391.355239912 L 96 437.586588503 L 103 432.030507406 L 110 391.949473185 L 117 452.977230258 L 124 427.692604518 L 131 424.602591502 L 139 399.317965762 L 146 388.829748505 L 153 457.255709819 L 160 293.871271579 L 167 280.916986241 L 174 369.071492198 L 181 331.456526057 L 188 330.832581121 L 195 359.801453149 L 202 378.906052856 L 209 422.671333367 L 216 316.006460975 L 223 359.771741486 L 230 423.265566639 L 238 420.175553623 L 245 409.687336365 L 252 389.334846786 L 259 376.380561448 L 266 378.222684593 L 273 382.530875818 L 280 401.635475524 L 287 331.961624338 L 294 375.726904849 L 301 278.926304779 L 308 332.555857611 L 315 341.796184996 L 322 348.570444301 L 330 343.014363205 L 337 275.806580099 L 344 309.707588288 L 351 316.481847593 L 358 330.654311139 L 365 330.030366203 L 372 218.433357651 L 379 217.809412715 L 386 281.303237868 L 393 233.823999405 L 400 233.200054469 L 407 163.526203283 L 414 239.350368838 L 421 182.006858054 L 429 146.857959993 L 436 161.030423539 L 443 150.542206282 L 450 194.307486792 L 457 146.828248329 L 464 264.575571251 L 471 296.01051136 L 478 354.572200352 L 485 321.889370372 L 492 301.536880793 L 499 263.921914651 L 506 300.288990921 L 513 366.248884154 L 520 333.566054174 L 528 357.602790041 L 535 352.046708945 L 542 378.549512893 L 549 400.12018068 L 556 374.83555494 L 563 332.288452638 L 570 390.850141631 L 577 348.303039329 L 584 357.543366714 L 591 369.24976218 L 598 400.684702289 L 605 409.925029674 L 612 382.174335854 L 620 416.075344043"/>
		</g>
		<text class="x-axis-label" x="40.0" y="540">0</text>
		<path class="x-notch" d="M 75.3658536585 525 L 75.3658536585 530"/>
		<text class="x-axis-label" x="110.731707317" y="540">10</text>
		<path class="x-notch" d="M 146.097560976 525 L 146.097560976 530"/>
		<text class="x-axis-label" x="181.463414634" y="540">20</text>
		<path class="x-notch" d="M 216.829268293 525 L 216.829268293 530"/>
		<text class="x-axis-label" x="252.195121951" y="540">30</text>
		<path class="x-notch" d="M 287.56097561 525 L 287.56097561 530"/>
		<text class="x-axis-label" x="322.926829268" y="540">40</text>
		<path class="x-notch" d="M 358.292682927 525 L 358.292682927 530"/>
		<text class="x-axis-label" x="393.658536585" y="540">50</text>
		<path class="x-notch" d="M 429.024390244 525 L 429.024390244 530"/>
		<text class="x-axis-label" x="464.390243902" y="540">60</text>
		<path class="x-notch" d="M 499.756097561 525 L 499.756097561 530"/>
		<text class="x-axis-label" x="535.12195122" y="540">70</text>
		<path class="x-notch" d="M 570.487804878 525 L 570.487804878 530"/>
		<text class="x-axis-label" x="605.853658537" y="540">80</text>
		<path class="x-notch" d="M 641.219512195 525 L 641.219512195 530"/>
	</g>
</svg>
