<?xml version="1.0" ?>
<svg height="600" version="1.1" width="800" xmlns="http://www.w3.org/2000/svg" xmlns:svg="http://www.w3.org/2000/svg">
	<style type="text/css">
		

.x-axis-path, .y-gridline, .x-notch { fill:none; stroke: #a7a9ac; stroke-width:1; }



.y-gridline { stroke-width: 1; }

.y-axis-path, .y-axis-path2, .x-notch-left, .x-notch-right { display: none;}



.x-axis-label, .data-point-label {font-size: 12px; font-weight:normal; font-family: sans-serif; fill: #58595b; text-anchor:middle;}

.y-axis-label {font-size: 12px; font-family: helvetica; fill: #a7a9ac; text-anchor:end;}



.series-1-line { fill: none; stroke: #10b80c; stroke-width:2; }



.series-2-line { fill: none; stroke: #e90f0a; stroke-width: 2;}

	</style>
	<rect fill="white" height="600" width="800" x="0" y="0"/>
	<g id="grid" transform="translate(70, 30)">
		<g class="x-axis" id="x_axis">
			<path class="x-axis-path" d="M 0 525 L 660 525"/>
			<path class="x-notch-left" d="M 0 525, L 0 535"/>
			<path class="x-notch-right" d="M 660 525, L 660 535"/>
		</g>
		<g class="y-axis" id="y_axis">
			<path class="y-axis-path" d="M 0 525 L 0 0"/>
			<path class="y-axis-path-2" d="M 660 525 L 660 0"/>
			<path class="y-gridline" d="M 0 525 L 660 525"/>
			<text class="y-axis-label" x="-5" y="525">
				-200
			</text>
			<path class="y-gridline" d="M 0 420 L 660 420"/>
			<text class="y-axis-label" x="-5" y="420">
				 0
			</text>
			<path class="y-gridline" d="M 0 315 L 660 315"/>
			<text class="y-axis-label" x="-5" y="315">
				200
			</text>
			<path class="y-gridline" d="M 0 210 L 660 210"/>
			<text class="y-axis-label" x="-5" y="210">
				400
			</text>
			<path class="y-gridline" d="M 0 105 L 660 105"/>
			<text class="y-axis-label" x="-5" y="105">
				600
			</text>
			<path class="y-gridline" d="M 0 0 L 660 0"/>
			<text class="y-axis-label" x="-5" y="0">
				800
			</text>
		</g>
		<g>
			<path class="series-1-line" d="M 40 410.800236 L 46 416.070688518 L 53 397.016421035 L 60 444.286453553 L 67 428.664426071 L 74 407.563918588 L 81 408.095721106 L 88 371.042983624 L 95 365.799576141 L 102 299.723578659 L 109 336.507681176 L 115 243.750973694 L 122 268.486746212 L 129 237.626278729 L 136 206.321241247 L 143 137.714743765 L 150 110.609916282 L 157 149.9919288 L 164 100.635081318 L 171 100.682203835 L 178 132.404676353 L 185 109.728538871 L 191 34.8491313882 L 198 132.694723906 L 205 90.0282664235 L 212 29.6730889412 L 219 68.3950714588 L 226 42.7848139765 L 233 46.4668264941 L 240 120.740549012 L 247 17.9695715294 L 254 30.2401640471 L 260 172.414236565 L 267 191.590259082 L 274 261.8387016 L 281 211.580954118 L 288 351.400296635 L 295 387.887669153 L 302 347.079291671 L 309 422.551904188 L 316 398.920476706 L 323 406.156319224 L 330 394.222731741 L 336 415.417904259 L 343 415.128816776 L 350 415.270229294 L 357 421.200501812 L 364 426.080564329 L 371 415.479846847 L 378 429.513599365 L 385 435.806961882 L 392 426.9024144 L 399 435.470916918 L 405 438.452789435 L 412 443.009451953 L 419 423.322454471 L 426 442.161846988 L 433 421.384319506 L 440 433.829632024 L 447 456.115544541 L 454 430.774297059 L 461 448.496489576 L 468 429.065062094 L 475 439.006754612 L 481 436.899907129 L 488 453.828089647 L 495 437.142832165 L 502 448.188074682 L 509 437.6276772 L 516 417.320969718 L 523 433.145392235 L 530 433.152194753 L 537 428.380237271 L 544 430.581329788 L 550 430.466542306 L 557 414.347024824 L 564 419.065807341 L 571 432.170519859 L 578 442.488742376 L 585 426.032594894 L 592 421.583617412 L 599 433.167509929 L 606 415.364842447 L 613 420.150404965 L 620 414.476287482"/>
			<path class="series-2-line" d="M 40 405.51 L 46 413.895176471 L 53 449.580352941 L 60 417.015529412 L 67 408.600705882 L 74 435.885882353 L 81 425.896058824 L 88 423.256235294 L 95 392.791411765 L 102 372.301588235 L 109 399.061764706 L 115 384.346941176 L 122 386.432117647 L 129 380.117294118 L 136 340.727470588 L 143 346.487647059 L 150 327.572823529 L 157 338.058 L 164 309.693176471 L 171 293.403352941 L 178 311.238529412 L 185 277.098705882 L 191 299.133882353 L 198 321.169058824 L 205 293.329235294 L 212 240.289411765 L 219 210.349588235 L 226 224.509764706 L 233 234.994941176 L 240 187.205117647 L 247 281.165294118 L 254 303.200470588 L 260 289.535647059 L 267 278.495823529 L 274 203.406 L 281 274.791176471 L 288 362.451352941 L 295 333.036529412 L 302 342.996705882 L 309 374.481882353 L 316 387.067058824 L 323 395.977235294 L 330 385.462411765 L 336 366.547588235 L 343 382.282764706 L 350 371.767941176 L 357 400.103117647 L 364 407.963294118 L 371 414.773470588 L 378 407.408647059 L 385 399.518823529 L 392 407.904 L 399 413.664176471 L 405 410.499352941 L 412 386.859529412 L 419 418.869705882 L 426 398.904882353 L 433 416.740058824 L 440 411.475235294 L 447 427.210411765 L 454 419.845588235 L 461 410.380764706 L 468 422.965941176 L 475 439.751117647 L 481 411.386294118 L 488 423.446470588 L 495 437.606647059 L 502 425.516823529 L 509 426.027 L 516 411.312176471 L 523 431.772352941 L 530 421.782529412 L 537 420.192705882 L 544 415.977882353 L 550 363.463058824 L 557 412.273235294 L 564 445.333411765 L 571 419.068588235 L 578 397.528764706 L 585 437.413941176 L 592 426.374117647 L 599 432.659294118 L 606 436.844470588 L 613 418.454647059 L 620 393.764823529"/>
		</g>
		<text class="x-axis-label" x="40.0" y="540">
			0
		</text>
		<path class="x-notch" d="M 74.5238095238 525 L 74.5238095238 530"/>
		<text class="x-axis-label" x="109.047619048" y="540">
			10
		</text>
		<path class="x-notch" d="M 143.571428571 525 L 143.571428571 530"/>
		<text class="x-axis-label" x="178.095238095" y="540">
			20
		</text>
		<path class="x-notch" d="M 212.619047619 525 L 212.619047619 530"/>
		<text class="x-axis-label" x="247.142857143" y="540">
			30
		</text>
		<path class="x-notch" d="M 281.666666667 525 L 281.666666667 530"/>
		<text class="x-axis-label" x="316.19047619" y="540">
			40
		</text>
		<path class="x-notch" d="M 350.714285714 525 L 350.714285714 530"/>
		<text class="x-axis-label" x="385.238095238" y="540">
			50
		</text>
		<path class="x-notch" d="M 419.761904762 525 L 419.761904762 530"/>
		<text class="x-axis-label" x="454.285714286" y="540">
			60
		</text>
		<path class="x-notch" d="M 488.80952381 525 L 488.80952381 530"/>
		<text class="x-axis-label" x="523.333333333" y="540">
			70
		</text>
		<path class="x-notch" d="M 557.857142857 525 L 557.857142857 530"/>
		<text class="x-axis-label" x="592.380952381" y="540">
			80
		</text>
		<path class="x-notch" d="M 626.904761905 525 L 626.904761905 530"/>
	</g>
</svg>
