<?xml version="1.0" ?>
<svg height="600" version="1.1" width="800" xmlns="http://www.w3.org/2000/svg" xmlns:svg="http://www.w3.org/2000/svg">
	<style type="text/css">
		

.x-axis-path, .y-gridline, .x-notch { fill:none; stroke: #a7a9ac; stroke-width:1; }



.y-gridline { stroke-width: 1; }

.y-axis-path, .y-axis-path2, .x-notch-left, .x-notch-right { display: none;}



.x-axis-label, .data-point-label {font-size: 12px; font-weight:normal; font-family: sans-serif; fill: #58595b; text-anchor:middle;}

.y-axis-label {font-size: 12px; font-family: helvetica; fill: #a7a9ac; text-anchor:end;}



.series-1-line { fill: none; stroke: #10b80c; stroke-width:2; }



.series-2-line { fill: none; stroke: #e90f0a; stroke-width: 2;}

	</style>
	<rect fill="white" height="600" width="800" x="0" y="0"/>
	<g id="grid" transform="translate(70, 30)">
		<g class="x-axis" id="x_axis">
			<path class="x-axis-path" d="M 0 525 L 660 525"/>
			<path class="x-notch-left" d="M 0 525, L 0 535"/>
			<path class="x-notch-right" d="M 660 525, L 660 535"/>
		</g>
		<g class="y-axis" id="y_axis">
			<path class="y-axis-path" d="M 0 525 L 0 0"/>
			<path class="y-axis-path-2" d="M 660 525 L 660 0"/>
			<path class="y-gridline" d="M 0 525 L 660 525"/>
			<text class="y-axis-label" x="-5" y="525">
				-500
			</text>
			<path class="y-gridline" d="M 0 420 L 660 420"/>
			<text class="y-axis-label" x="-5" y="420">
				 0
			</text>
			<path class="y-gridline" d="M 0 315 L 660 315"/>
			<text class="y-axis-label" x="-5" y="315">
				500
			</text>
			<path class="y-gridline" d="M 0 210 L 660 210"/>
			<text class="y-axis-label" x="-5" y="210">
				1000
			</text>
			<path class="y-gridline" d="M 0 105 L 660 105"/>
			<text class="y-axis-label" x="-5" y="105">
				1500
			</text>
			<path class="y-gridline" d="M 0 0 L 660 0"/>
			<text class="y-axis-label" x="-5" y="0">
				2000
			</text>
		</g>
		<g>
			<path class="series-1-line" d="M 40 422.3670528 L 46 425.906644615 L 52 415.322392431 L 59 412.583572246 L 65 423.031576062 L 72 422.904147877 L 78 412.126191692 L 85 417.028011508 L 91 413.761419323 L 98 404.184159138 L 104 411.433694954 L 110 409.976378769 L 117 401.142098585 L 123 399.4909104 L 130 393.203594215 L 136 393.404690031 L 143 383.170465846 L 149 368.741617662 L 156 360.052741477 L 162 337.929241292 L 168 312.747301108 L 175 327.309120923 L 181 302.536428738 L 188 262.993512554 L 194 283.483968369 L 201 233.241972185 L 207 230.325324 L 214 228.544943815 L 220 176.369855631 L 226 133.030895446 L 233 133.926503262 L 239 165.934703077 L 246 88.3654908923 L 252 154.523050708 L 259 166.468186523 L 265 143.396830338 L 272 111.268762154 L 278 138.172113969 L 284 124.233321785 L 291 158.0774256 L 297 190.036989415 L 304 198.961065231 L 310 231.216813046 L 317 184.711640862 L 323 223.918976677 L 330 223.931744492 L 336 247.135652308 L 342 212.040704123 L 349 239.277703938 L 355 219.765679754 L 362 237.692875569 L 368 240.478735385 L 375 282.3626472 L 381 327.611599015 L 388 349.389018831 L 394 383.233206646 L 400 409.910682462 L 407 407.107182277 L 413 411.874518092 L 420 413.502437908 L 426 412.217405723 L 433 412.779449538 L 439 423.911381354 L 446 421.549553169 L 452 415.030648985 L 458 425.4408528 L 465 432.232756615 L 471 422.450788431 L 478 429.463444246 L 484 429.691588062 L 491 421.309563877 L 497 426.766119692 L 504 428.205795508 L 510 421.966863323 L 516 422.378043138 L 523 425.255378954 L 529 427.249454769 L 536 416.449910585 L 542 426.4888344 L 549 421.854470215 L 555 428.947850031 L 562 425.229001846 L 568 426.092437662 L 574 423.525901477 L 581 424.615465292 L 587 425.721157108 L 594 421.517712923 L 600 423.371928738 L 607 419.583024554 L 613 425.690916369 L 620 411.019560185"/>
			<path class="series-2-line" d="M 40 417.648 L 46 418.234615385 L 52 419.031230769 L 59 424.447846154 L 65 420.204461538 L 72 411.341076923 L 78 425.997692308 L 85 418.814307692 L 91 416.460923077 L 98 423.977538462 L 104 419.104153846 L 110 421.160769231 L 117 419.227384615 L 123 418.764 L 130 420.820615385 L 136 418.047230769 L 143 421.573846154 L 149 424.260461538 L 156 424.217076923 L 162 423.333692308 L 168 424.550307692 L 175 417.366923077 L 181 420.263538462 L 188 401.320153846 L 194 411.146769231 L 201 406.903384615 L 207 399.09 L 214 402.406615385 L 220 396.693230769 L 226 388.459846154 L 233 375.606461538 L 239 390.473076923 L 246 357.669692308 L 252 385.136307692 L 259 401.262923077 L 265 384.419538462 L 272 388.156153846 L 278 380.342769231 L 284 388.489384615 L 291 378.996 L 297 376.852615385 L 304 364.629230769 L 310 365.425846154 L 317 351.522461538 L 323 357.149076923 L 330 367.395692308 L 336 338.792307692 L 342 346.728923077 L 349 319.595538462 L 355 312.622153846 L 362 304.598769231 L 368 316.315384615 L 375 363.102 L 381 376.288615385 L 388 390.105230769 L 394 388.801846154 L 400 408.078461538 L 407 407.195076923 L 413 412.821692308 L 420 400.388307692 L 426 400.134923077 L 433 414.791538462 L 439 418.528153846 L 446 430.664769231 L 452 427.891384615 L 458 413.148 L 465 414.154615385 L 471 412.641230769 L 478 411.967846154 L 484 421.374461538 L 491 414.401076923 L 497 418.977692308 L 504 427.754307692 L 510 422.250923077 L 516 427.667538462 L 523 433.294153846 L 529 421.070769231 L 536 430.897384615 L 542 441.354 L 549 431.230615385 L 555 426.147230769 L 562 428.833846154 L 568 429.210461538 L 574 432.317076923 L 581 430.173692308 L 587 425.510307692 L 594 430.086923077 L 600 431.513538462 L 607 428.740153846 L 613 413.576769231 L 620 396.733384615"/>
		</g>
		<text class="x-axis-label" x="40.0" y="540">
			0
		</text>
		<path class="x-notch" d="M 72.2222222222 525 L 72.2222222222 530"/>
		<text class="x-axis-label" x="104.444444444" y="540">
			10
		</text>
		<path class="x-notch" d="M 136.666666667 525 L 136.666666667 530"/>
		<text class="x-axis-label" x="168.888888889" y="540">
			20
		</text>
		<path class="x-notch" d="M 201.111111111 525 L 201.111111111 530"/>
		<text class="x-axis-label" x="233.333333333" y="540">
			30
		</text>
		<path class="x-notch" d="M 265.555555556 525 L 265.555555556 530"/>
		<text class="x-axis-label" x="297.777777778" y="540">
			40
		</text>
		<path class="x-notch" d="M 330.0 525 L 330.0 530"/>
		<text class="x-axis-label" x="362.222222222" y="540">
			50
		</text>
		<path class="x-notch" d="M 394.444444444 525 L 394.444444444 530"/>
		<text class="x-axis-label" x="426.666666667" y="540">
			60
		</text>
		<path class="x-notch" d="M 458.888888889 525 L 458.888888889 530"/>
		<text class="x-axis-label" x="491.111111111" y="540">
			70
		</text>
		<path class="x-notch" d="M 523.333333333 525 L 523.333333333 530"/>
		<text class="x-axis-label" x="555.555555556" y="540">
			80
		</text>
		<path class="x-notch" d="M 587.777777778 525 L 587.777777778 530"/>
		<text class="x-axis-label" x="620.0" y="540">
			90
		</text>
	</g>
</svg>
