<?xml version="1.0" ?>
<svg height="600" version="1.1" width="800" xmlns="http://www.w3.org/2000/svg" xmlns:svg="http://www.w3.org/2000/svg">
	<style type="text/css">

.x-axis-path, .y-gridline, .x-notch { fill:none; stroke: #a7a9ac; stroke-width:1; }



.y-gridline { stroke-width: 1; }

.y-axis-path, .y-axis-path2, .x-notch-left, .x-notch-right { display: none;}



.x-axis-label, .data-point-label {font-size: 12px; font-weight:normal; font-family: sans-serif; fill: #58595b; text-anchor:middle;}

.y-axis-label {font-size: 12px; font-family: helvetica; fill: #a7a9ac; text-anchor:end;}



.series-1-line { fill: none; stroke: #10b80c; stroke-width:2; }



.series-2-line { fill: none; stroke: #e90f0a; stroke-width: 2;}
</style>
	<rect fill="white" height="600" width="800" x="0" y="0"/>
	<g id="grid" transform="translate(70, 30)">
		<g class="x-axis" id="x_axis">
			<path class="x-axis-path" d="M 0 525 L 660 525"/>
			<path class="x-notch-left" d="M 0 525, L 0 535"/>
			<path class="x-notch-right" d="M 660 525, L 660 535"/>
		</g>
		<g class="y-axis" id="y_axis">
			<path class="y-axis-path" d="M 0 525 L 0 0"/>
			<path class="y-axis-path-2" d="M 660 525 L 660 0"/>
			<path class="y-gridline" d="M 0 525 L 660 525"/>
			<text class="y-axis-label" x="-5" y="525">-400</text>
			<path class="y-gridline" d="M 0 420 L 660 420"/>
			<text class="y-axis-label" x="-5" y="420">-200</text>
			<path class="y-gridline" d="M 0 315 L 660 315"/>
			<text class="y-axis-label" x="-5" y="315"> 0</text>
			<path class="y-gridline" d="M 0 210 L 660 210"/>
			<text class="y-axis-label" x="-5" y="210">200</text>
			<path class="y-gridline" d="M 0 105 L 660 105"/>
			<text class="y-axis-label" x="-5" y="105">400</text>
			<path class="y-gridline" d="M 0 0 L 660 0"/>
			<text class="y-axis-label" x="-5" y="0">600</text>
		</g>
		<g>
			<path class="series-1-line" d="M 40 313.389482632 L 46 281.874167464 L 52 309.193241154 L 58 326.65129287 L 65 337.700603234 L 71 309.570912448 L 77 318.976377322 L 84 297.223125247 L 90 273.366099608 L 96 312.648943355 L 103 341.314985885 L 109 333.62927743 L 115 324.957569325 L 121 326.737560052 L 128 327.696140774 L 134 375.590458319 L 140 293.327181995 L 147 373.037549591 L 153 358.416515468 L 159 375.381823728 L 166 347.252132942 L 172 394.686009673 L 178 392.160519871 L 185 424.540853333 L 191 391.021236225 L 197 349.119852988 L 203 368.089975928 L 210 336.312137713 L 216 320.67228856 L 222 211.917257745 L 229 280.419634525 L 235 180.867779845 L 241 211.604780557 L 248 134.501722888 L 254 142.362813897 L 260 117.322383583 L 266 86.432098874 L 273 151.384774368 L 279 0.0 L 285 142.060616877 L 292 48.7211240032 L 298 93.9522682879 L 304 100.103883046 L 311 53.2401989201 L 317 21.0347352719 L 323 105.181844919 L 330 74.0613398036 L 336 99.2761271905 L 342 18.7223271184 L 348 80.7159781837 L 355 165.587077173 L 361 104.75378283 L 367 113.303996839 L 374 181.511547931 L 380 134.088464108 L 386 177.577829501 L 393 275.234108552 L 399 272.37943946 L 405 308.276658827 L 411 337.37083953 L 418 329.027285235 L 424 369.394574774 L 430 330.878815918 L 437 378.805948844 L 443 431.10419306 L 449 427.724477873 L 456 396.603972757 L 462 393.88159067 L 468 416.17119449 L 474 432.216133863 L 481 413.420880735 L 487 411.684498297 L 493 420.498260835 L 500 413.17454705 L 506 441.216071861 L 512 397.375504706 L 519 395.770383792 L 525 400.837552757 L 531 396.077027869 L 538 397.364275141 L 544 386.194496161 L 550 369.470201216 L 556 405.400235963 L 563 390.056237979 L 569 333.331531878 L 575 334.125522956 L 582 365.716749053 L 588 310.175447628 L 594 341.504150678 L 601 314.623495329 L 607 294.44794524 L 613 318.710061099 L 620 315.001166622"/>
			<path class="series-2-line" d="M 40 316.281850818 L 46 286.622855218 L 52 327.465654624 L 58 306.779614752 L 65 336.085756794 L 71 328.218225105 L 77 313.941439324 L 84 311.201310908 L 90 286.669718582 L 96 310.84845735 L 103 291.444268296 L 109 293.831543153 L 115 300.064370466 L 121 275.532778139 L 128 279.201903814 L 134 309.789896674 L 140 298.07681253 L 147 314.564446389 L 153 299.00580979 L 159 305.238637102 L 166 297.371105413 L 172 299.75838027 L 178 297.018251854 L 185 298.123675893 L 191 331.27537039 L 197 322.125987882 L 203 315.540307012 L 210 326.900537597 L 216 320.314856726 L 222 291.937711944 L 229 307.143494985 L 235 292.866709204 L 241 300.381387335 L 248 283.540899918 L 254 310.283340322 L 260 270.369538176 L 266 293.266426126 L 273 312.317761621 L 279 285.222467658 L 285 273.509383514 L 292 289.997017372 L 298 235.982856225 L 304 229.397175354 L 311 294.595140308 L 317 272.627249617 L 323 246.813806472 L 330 255.610335421 L 336 224.669489003 L 342 246.284526134 L 348 176.888155167 L 355 238.240567666 L 361 232.936737614 L 367 152.003709282 L 374 263.348303694 L 380 265.735578551 L 386 233.512881315 L 393 250.000515173 L 399 198.550055662 L 405 200.93733052 L 411 264.853444655 L 418 219.812239235 L 424 224.763215729 L 430 237.405297133 L 437 262.865886719 L 443 256.280205849 L 449 286.868198708 L 456 295.664727657 L 462 323.68901888 L 468 299.157426553 L 474 298.980999774 L 481 284.704213994 L 487 308.882952762 L 493 286.915062072 L 500 332.885264751 L 506 310.91737406 L 512 304.33169319 L 519 308.000818865 L 525 320.642900269 L 531 316.620921035 L 538 319.008195892 L 544 314.986216658 L 550 327.628298061 L 556 324.888169646 L 563 322.14804123 L 569 325.817166905 L 575 305.131127033 L 582 279.317683888 L 588 298.369019383 L 594 313.574802424 L 601 310.834674008 L 607 311.940098047 L 613 329.709582723 L 620 311.587244488"/>
		</g>
		<text class="x-axis-label" x="40.0" y="540">0</text>
		<path class="x-notch" d="M 71.5217391304 525 L 71.5217391304 530"/>
		<text class="x-axis-label" x="103.043478261" y="540">10</text>
		<path class="x-notch" d="M 134.565217391 525 L 134.565217391 530"/>
		<text class="x-axis-label" x="166.086956522" y="540">20</text>
		<path class="x-notch" d="M 197.608695652 525 L 197.608695652 530"/>
		<text class="x-axis-label" x="229.130434783" y="540">30</text>
		<path class="x-notch" d="M 260.652173913 525 L 260.652173913 530"/>
		<text class="x-axis-label" x="292.173913043" y="540">40</text>
		<path class="x-notch" d="M 323.695652174 525 L 323.695652174 530"/>
		<text class="x-axis-label" x="355.217391304" y="540">50</text>
		<path class="x-notch" d="M 386.739130435 525 L 386.739130435 530"/>
		<text class="x-axis-label" x="418.260869565" y="540">60</text>
		<path class="x-notch" d="M 449.782608696 525 L 449.782608696 530"/>
		<text class="x-axis-label" x="481.304347826" y="540">70</text>
		<path class="x-notch" d="M 512.826086957 525 L 512.826086957 530"/>
		<text class="x-axis-label" x="544.347826087" y="540">80</text>
		<path class="x-notch" d="M 575.869565217 525 L 575.869565217 530"/>
		<text class="x-axis-label" x="607.391304348" y="540">90</text>
		<path class="x-notch" d="M 638.913043478 525 L 638.913043478 530"/>
	</g>
</svg>
