<?xml version="1.0" ?>
<svg height="600" version="1.1" width="800" xmlns="http://www.w3.org/2000/svg" xmlns:svg="http://www.w3.org/2000/svg">
	<style type="text/css">
		

.x-axis-path, .y-gridline, .x-notch { fill:none; stroke: #a7a9ac; stroke-width:1; }



.y-gridline { stroke-width: 1; }

.y-axis-path, .y-axis-path2, .x-notch-left, .x-notch-right { display: none;}



.x-axis-label, .data-point-label {font-size: 12px; font-weight:normal; font-family: sans-serif; fill: #58595b; text-anchor:middle;}

.y-axis-label {font-size: 12px; font-family: helvetica; fill: #a7a9ac; text-anchor:end;}



.series-1-line { fill: none; stroke: #10b80c; stroke-width:2; }



.series-2-line { fill: none; stroke: #e90f0a; stroke-width: 2;}

	</style>
	<rect fill="white" height="600" width="800" x="0" y="0"/>
	<g id="grid" transform="translate(70, 30)">
		<g class="x-axis" id="x_axis">
			<path class="x-axis-path" d="M 0 525 L 660 525"/>
			<path class="x-notch-left" d="M 0 525, L 0 535"/>
			<path class="x-notch-right" d="M 660 525, L 660 535"/>
		</g>
		<g class="y-axis" id="y_axis">
			<path class="y-axis-path" d="M 0 525 L 0 0"/>
			<path class="y-axis-path-2" d="M 660 525 L 660 0"/>
			<path class="y-gridline" d="M 0 525 L 660 525"/>
			<text class="y-axis-label" x="-5" y="525">
				-200
			</text>
			<path class="y-gridline" d="M 0 394 L 660 394"/>
			<text class="y-axis-label" x="-5" y="394">
				 0
			</text>
			<path class="y-gridline" d="M 0 263 L 660 263"/>
			<text class="y-axis-label" x="-5" y="263">
				200
			</text>
			<path class="y-gridline" d="M 0 132 L 660 132"/>
			<text class="y-axis-label" x="-5" y="132">
				400
			</text>
			<path class="y-gridline" d="M 0 1 L 660 1"/>
			<text class="y-axis-label" x="-5" y="1">
				600
			</text>
		</g>
		<g>
			<path class="series-1-line" d="M 40 411.846827072 L 47 383.670577376 L 55 395.700058737 L 62 403.585459845 L 70 370.50359619 L 77 385.896882501 L 85 373.258356786 L 92 354.853352925 L 100 378.576968344 L 107 356.807534815 L 115 380.671399878 L 122 362.626547109 L 130 369.790708953 L 137 338.831019207 L 145 348.678353538 L 152 337.80153828 L 160 347.749140175 L 168 295.865078073 L 175 246.664813178 L 183 265.482502279 L 190 225.331931596 L 198 209.509832658 L 205 163.31290926 L 213 222.236061856 L 220 192.278110662 L 228 138.912837392 L 235 143.033363299 L 243 159.508352324 L 250 211.02388728 L 258 76.2447886222 L 265 142.136380683 L 273 101.605980227 L 281 165.355407339 L 288 68.2997147387 L 296 106.839814876 L 303 112.842934563 L 311 60.5587392885 L 318 53.9468876082 L 326 0.0 L 333 132.088799557 L 341 110.219410824 L 348 148.920064007 L 356 192.005314651 L 363 231.52778702 L 371 249.964709269 L 378 199.40255473 L 386 280.891843893 L 394 277.183066147 L 401 306.353927782 L 409 353.623240761 L 416 390.641835289 L 424 362.886334526 L 431 433.723834986 L 439 415.999463587 L 446 376.971827141 L 454 382.353350408 L 461 400.210844837 L 469 373.877206841 L 476 396.199575254 L 484 381.418572231 L 491 370.241891363 L 499 376.184725568 L 507 388.995731675 L 514 403.047744102 L 522 376.813748948 L 529 417.216139466 L 537 381.871227538 L 544 394.24211839 L 552 384.126212117 L 559 391.390641525 L 567 402.179116566 L 574 408.462735542 L 582 384.771350871 L 589 413.120080959 L 597 386.485327913 L 604 368.440787503 L 612 408.402750407 L 620 397.466274387"/>
			<path class="series-2-line" d="M 40 390.782579904 L 47 407.72010122 L 55 365.30922062 L 62 390.836642214 L 70 411.678663656 L 77 362.239682829 L 85 361.216503565 L 92 376.592224831 L 100 398.215146298 L 107 359.708765824 L 115 389.921587569 L 122 379.527608002 L 130 365.22912831 L 137 359.520548895 L 145 353.031069455 L 152 320.771889183 L 160 329.119510221 L 168 298.42213 L 175 336.443951996 L 183 331.516272606 L 190 297.695292284 L 198 306.042913323 L 205 332.351234941 L 213 253.238053156 L 220 304.535175582 L 228 322.253596923 L 235 295.460716827 L 243 290.533037437 L 250 301.223358552 L 258 319.722679918 L 265 280.435399419 L 273 305.962821012 L 281 296.349741471 L 288 307.820962611 L 296 271.657282213 L 303 286.252103453 L 311 287.571624265 L 318 259.997844144 L 326 185.57006251 L 333 235.305384885 L 341 212.417004916 L 348 212.174725677 L 356 167.421145001 L 363 252.296968511 L 371 215.352388087 L 378 222.138209076 L 386 155.519427694 L 394 101.395046716 L 401 217.506871234 L 409 98.5677881634 L 416 86.6120085467 L 424 129.319230695 L 431 110.335350851 L 439 110.873971638 L 446 237.137496483 L 454 165.83331495 L 461 249.928238434 L 469 314.500661288 L 476 372.044983915 L 484 370.240904626 L 491 384.835725866 L 499 378.346246426 L 507 396.845567792 L 514 373.957187823 L 522 392.456509189 L 529 370.349029245 L 537 348.2415493 L 544 405.004971902 L 552 375.86939173 L 559 376.408012517 L 567 375.384833253 L 574 407.159455048 L 582 394.422775406 L 589 394.961396193 L 597 384.567416627 L 604 404.628538043 L 612 390.330058351 L 620 397.896779365"/>
		</g>
		<text class="x-axis-label" x="40.0" y="540">
			0
		</text>
		<path class="x-notch" d="M 77.6623376623 525 L 77.6623376623 530"/>
		<text class="x-axis-label" x="115.324675325" y="540">
			10
		</text>
		<path class="x-notch" d="M 152.987012987 525 L 152.987012987 530"/>
		<text class="x-axis-label" x="190.649350649" y="540">
			20
		</text>
		<path class="x-notch" d="M 228.311688312 525 L 228.311688312 530"/>
		<text class="x-axis-label" x="265.974025974" y="540">
			30
		</text>
		<path class="x-notch" d="M 303.636363636 525 L 303.636363636 530"/>
		<text class="x-axis-label" x="341.298701299" y="540">
			40
		</text>
		<path class="x-notch" d="M 378.961038961 525 L 378.961038961 530"/>
		<text class="x-axis-label" x="416.623376623" y="540">
			50
		</text>
		<path class="x-notch" d="M 454.285714286 525 L 454.285714286 530"/>
		<text class="x-axis-label" x="491.948051948" y="540">
			60
		</text>
		<path class="x-notch" d="M 529.61038961 525 L 529.61038961 530"/>
		<text class="x-axis-label" x="567.272727273" y="540">
			70
		</text>
		<path class="x-notch" d="M 604.935064935 525 L 604.935064935 530"/>
	</g>
</svg>
