<?xml version="1.0" ?>
<svg height="600" version="1.1" width="800" xmlns="http://www.w3.org/2000/svg" xmlns:svg="http://www.w3.org/2000/svg">
	<style type="text/css">

.x-axis-path, .y-gridline, .x-notch { fill:none; stroke: #a7a9ac; stroke-width:1; }



.y-gridline { stroke-width: 1; }

.y-axis-path, .y-axis-path2, .x-notch-left, .x-notch-right { display: none;}



.x-axis-label, .data-point-label {font-size: 12px; font-weight:normal; font-family: sans-serif; fill: #58595b; text-anchor:middle;}

.y-axis-label {font-size: 12px; font-family: helvetica; fill: #a7a9ac; text-anchor:end;}



.series-1-line { fill: none; stroke: #10b80c; stroke-width:2; }



.series-2-line { fill: none; stroke: #e90f0a; stroke-width: 2;}
</style>
	<rect fill="white" height="600" width="800" x="0" y="0"/>
	<g id="grid" transform="translate(70, 30)">
		<g class="x-axis" id="x_axis">
			<path class="x-axis-path" d="M 0 525 L 660 525"/>
			<path class="x-notch-left" d="M 0 525, L 0 535"/>
			<path class="x-notch-right" d="M 660 525, L 660 535"/>
		</g>
		<g class="y-axis" id="y_axis">
			<path class="y-axis-path" d="M 0 525 L 0 0"/>
			<path class="y-axis-path-2" d="M 660 525 L 660 0"/>
			<path class="y-gridline" d="M 0 525 L 660 525"/>
			<text class="y-axis-label" x="-5" y="525">-200</text>
			<path class="y-gridline" d="M 0 394 L 660 394"/>
			<text class="y-axis-label" x="-5" y="394"> 0</text>
			<path class="y-gridline" d="M 0 263 L 660 263"/>
			<text class="y-axis-label" x="-5" y="263">200</text>
			<path class="y-gridline" d="M 0 132 L 660 132"/>
			<text class="y-axis-label" x="-5" y="132">400</text>
			<path class="y-gridline" d="M 0 1 L 660 1"/>
			<text class="y-axis-label" x="-5" y="1">600</text>
		</g>
		<g>
			<path class="series-1-line" d="M 40 407.322665684 L 46 367.806809649 L 53 380.639284707 L 60 407.161463288 L 66 403.800296785 L 73 392.903952405 L 80 385.775014434 L 87 440.09751281 L 93 400.300926588 L 100 393.546903964 L 107 408.017032623 L 114 401.450285143 L 120 399.657046017 L 127 409.587303928 L 134 400.001520499 L 141 362.475234709 L 147 381.508597875 L 154 368.038589233 L 161 381.736618612 L 168 354.342903782 L 174 348.524526762 L 181 357.425684027 L 188 349.337371633 L 195 372.442965273 L 201 374.510587599 L 208 307.241139291 L 215 285.136030725 L 222 244.496888884 L 228 223.327425922 L 235 185.543043589 L 242 231.043531956 L 249 180.38863796 L 255 68.3520338397 L 262 135.054404905 L 269 202.715420275 L 276 121.873452307 L 282 128.106395091 L 289 131.929219938 L 296 164.371556439 L 303 139.013044199 L 309 94.5827671293 L 316 103.835110922 L 323 119.849073079 L 330 113.703603409 L 336 155.437415485 L 343 111.56823373 L 350 0.0 L 356 95.0170586544 L 363 85.7824617523 L 370 98.1002039581 L 377 162.508545772 L 383 182.081100727 L 390 161.613280703 L 397 203.580730385 L 404 140.921609164 L 410 326.876630376 L 417 358.336958811 L 424 415.117397822 L 431 405.905069504 L 437 383.356049486 L 444 408.918488585 L 451 386.626104875 L 458 367.562300844 L 464 399.116449381 L 471 418.712003038 L 478 391.107284244 L 485 420.367403529 L 491 424.634869946 L 498 381.515518886 L 505 436.820755445 L 512 406.220729521 L 518 450.738479705 L 525 428.070815589 L 532 406.644351259 L 539 367.596500556 L 545 407.130103482 L 552 400.960539933 L 559 401.180234813 L 566 424.84655871 L 572 419.707556043 L 579 421.120262952 L 586 412.75158543 L 593 399.842672103 L 599 366.129790126 L 606 404.399559623 L 613 410.328773518 L 620 391.078424461"/>
			<path class="series-2-line" d="M 40 390.647000535 L 46 401.764508422 L 53 397.367018984 L 60 392.969529546 L 66 387.659393207 L 73 383.261903769 L 80 360.611476301 L 87 326.096639114 L 93 345.427969115 L 100 371.147827426 L 107 324.76858052 L 114 356.876967141 L 120 356.130065309 L 127 306.100230797 L 134 310.829210374 L 141 367.579063335 L 147 321.199816429 L 154 362.434672065 L 161 329.745128681 L 168 371.892631219 L 174 358.368672766 L 181 362.185005442 L 188 346.835753186 L 195 341.525616847 L 201 307.923426561 L 208 341.857106986 L 215 377.616081213 L 222 385.995648396 L 228 382.510805859 L 235 372.637435012 L 242 361.851417264 L 249 366.580396841 L 255 336.628794161 L 262 364.173946275 L 269 313.231464862 L 276 364.505436414 L 282 321.776777114 L 289 299.126349646 L 296 260.960924854 L 303 234.65990978 L 309 229.349773441 L 316 249.593750343 L 323 140.241867234 L 330 177.826135264 L 336 256.479513861 L 343 199.148504137 L 350 202.964836813 L 356 155.672943005 L 363 176.829566809 L 370 181.558546386 L 377 139.742533987 L 383 187.365917933 L 390 145.549905535 L 397 187.697408072 L 404 249.923142443 L 410 289.332704276 L 417 333.305500617 L 424 378.190943859 L 431 288.917292583 L 437 394.037431323 L 444 361.347887939 L 451 390.718333856 L 458 343.426440048 L 464 408.390115123 L 471 416.769682306 L 478 420.586014981 L 485 416.188525543 L 491 395.363391879 L 498 434.772953712 L 505 389.306353707 L 512 397.68592089 L 518 397.85166596 L 525 343.25859694 L 532 379.930218069 L 539 389.222432153 L 545 419.505524972 L 552 389.553922292 L 559 430.788777928 L 566 337.864539046 L 572 396.439685811 L 579 393.867490176 L 586 422.325289191 L 593 411.539271443 L 599 371.548552847 L 606 385.404001439 L 613 390.132981016 L 620 407.639017213"/>
		</g>
		<text class="x-axis-label" x="40.0" y="540">0</text>
		<path class="x-notch" d="M 73.7209302326 525 L 73.7209302326 530"/>
		<text class="x-axis-label" x="107.441860465" y="540">10</text>
		<path class="x-notch" d="M 141.162790698 525 L 141.162790698 530"/>
		<text class="x-axis-label" x="174.88372093" y="540">20</text>
		<path class="x-notch" d="M 208.604651163 525 L 208.604651163 530"/>
		<text class="x-axis-label" x="242.325581395" y="540">30</text>
		<path class="x-notch" d="M 276.046511628 525 L 276.046511628 530"/>
		<text class="x-axis-label" x="309.76744186" y="540">40</text>
		<path class="x-notch" d="M 343.488372093 525 L 343.488372093 530"/>
		<text class="x-axis-label" x="377.209302326" y="540">50</text>
		<path class="x-notch" d="M 410.930232558 525 L 410.930232558 530"/>
		<text class="x-axis-label" x="444.651162791" y="540">60</text>
		<path class="x-notch" d="M 478.372093023 525 L 478.372093023 530"/>
		<text class="x-axis-label" x="512.093023256" y="540">70</text>
		<path class="x-notch" d="M 545.813953488 525 L 545.813953488 530"/>
		<text class="x-axis-label" x="579.534883721" y="540">80</text>
		<path class="x-notch" d="M 613.255813953 525 L 613.255813953 530"/>
	</g>
</svg>
