<?xml version="1.0" ?>
<svg height="600" version="1.1" width="800" xmlns="http://www.w3.org/2000/svg" xmlns:svg="http://www.w3.org/2000/svg">
	<style type="text/css">
		

.x-axis-path, .y-gridline, .x-notch { fill:none; stroke: #a7a9ac; stroke-width:1; }



.y-gridline { stroke-width: 1; }

.y-axis-path, .y-axis-path2, .x-notch-left, .x-notch-right { display: none;}



.x-axis-label, .data-point-label {font-size: 12px; font-weight:normal; font-family: sans-serif; fill: #58595b; text-anchor:middle;}

.y-axis-label {font-size: 12px; font-family: helvetica; fill: #a7a9ac; text-anchor:end;}



.series-1-line { fill: none; stroke: #10b80c; stroke-width:2; }



.series-2-line { fill: none; stroke: #e90f0a; stroke-width: 2;}

	</style>
	<rect fill="white" height="600" width="800" x="0" y="0"/>
	<g id="grid" transform="translate(70, 30)">
		<g class="x-axis" id="x_axis">
			<path class="x-axis-path" d="M 0 525 L 660 525"/>
			<path class="x-notch-left" d="M 0 525, L 0 535"/>
			<path class="x-notch-right" d="M 660 525, L 660 535"/>
		</g>
		<g class="y-axis" id="y_axis">
			<path class="y-axis-path" d="M 0 525 L 0 0"/>
			<path class="y-axis-path-2" d="M 660 525 L 660 0"/>
			<path class="y-gridline" d="M 0 525 L 660 525"/>
			<text class="y-axis-label" x="-5" y="525">
				-50
			</text>
			<path class="y-gridline" d="M 0 438 L 660 438"/>
			<text class="y-axis-label" x="-5" y="438">
				 0
			</text>
			<path class="y-gridline" d="M 0 351 L 660 351"/>
			<text class="y-axis-label" x="-5" y="351">
				50
			</text>
			<path class="y-gridline" d="M 0 264 L 660 264"/>
			<text class="y-axis-label" x="-5" y="264">
				100
			</text>
			<path class="y-gridline" d="M 0 177 L 660 177"/>
			<text class="y-axis-label" x="-5" y="177">
				150
			</text>
			<path class="y-gridline" d="M 0 90 L 660 90"/>
			<text class="y-axis-label" x="-5" y="90">
				200
			</text>
			<path class="y-gridline" d="M 0 3 L 660 3"/>
			<text class="y-axis-label" x="-5" y="3">
				250
			</text>
		</g>
		<g>
			<path class="series-1-line" d="M 40 414.3909 L 47 389.905490127 L 54 420.881080253 L 62 510.63847038 L 69 445.543960506 L 77 410.333850633 L 84 497.175040759 L 92 456.400630886 L 99 471.357421013 L 106 447.679111139 L 114 411.078101266 L 121 444.208291392 L 129 466.478681519 L 136 383.210071646 L 144 478.307761772 L 151 426.630151899 L 158 448.362242025 L 166 407.946932152 L 173 440.223822278 L 181 408.333812405 L 188 442.630202532 L 196 377.221392658 L 203 382.171682785 L 211 398.025872911 L 218 337.372863038 L 225 391.816653165 L 233 324.657843291 L 240 356.082133418 L 248 330.833023544 L 255 262.552813671 L 263 339.835503797 L 270 286.676693924 L 277 311.909484051 L 285 285.987674177 L 292 237.225564304 L 300 245.36225443 L 307 78.498244557 L 315 203.390034684 L 322 173.29552481 L 330 220.380214937 L 337 89.2337050633 L 344 139.95279519 L 352 88.2744853165 L 359 269.570175443 L 367 261.55226557 L 374 135.790155696 L 382 122.118345823 L 389 39.2095359494 L 396 122.236426076 L 404 114.801616203 L 411 94.9376063291 L 419 206.099596456 L 426 167.075186582 L 434 295.065176709 L 441 376.701166835 L 448 269.650756962 L 456 361.518647089 L 463 364.359137215 L 471 420.419227342 L 478 402.440317468 L 486 416.364607595 L 493 427.238297722 L 501 451.393087848 L 508 412.188777975 L 515 482.203368101 L 523 442.639958228 L 530 436.641548354 L 538 422.790538481 L 545 439.227828608 L 553 397.600818734 L 560 391.288108861 L 567 422.353998987 L 575 421.739989114 L 582 457.023379241 L 590 475.435369367 L 597 456.693459494 L 605 442.16904962 L 612 401.394639747 L 620 421.017629873"/>
			<path class="series-2-line" d="M 40 425.25 L 47 463.293670886 L 54 448.837341772 L 62 409.881012658 L 69 435.674683544 L 77 440.46835443 L 84 447.012025316 L 92 432.555696203 L 99 460.099367089 L 106 440.393037975 L 114 457.436708861 L 121 516.480379747 L 129 495.024050633 L 136 421.067721519 L 144 436.361392405 L 151 484.905063291 L 158 479.198734177 L 166 476.992405063 L 173 464.286075949 L 181 428.829746835 L 188 442.373417722 L 196 448.917088608 L 203 467.710759494 L 211 491.75443038 L 218 438.798101266 L 225 448.841772152 L 233 455.385443038 L 240 439.179113924 L 248 391.47278481 L 255 436.516455696 L 263 364.310126582 L 270 370.853797468 L 277 433.397468354 L 285 422.441139241 L 292 357.234810127 L 300 425.028481013 L 307 424.572151899 L 315 364.615822785 L 322 390.409493671 L 330 388.203164557 L 337 343.996835443 L 344 320.790506329 L 352 301.084177215 L 359 246.377848101 L 367 240.671518987 L 374 175.465189873 L 382 164.508860759 L 389 171.052531646 L 396 158.346202532 L 404 129.889873418 L 411 129.433544304 L 419 163.97721519 L 426 149.520886076 L 434 289.064556962 L 441 288.608227848 L 448 239.151898734 L 456 348.94556962 L 463 287.239240506 L 471 386.532911392 L 478 433.326582278 L 486 417.120253165 L 493 467.413924051 L 501 424.957594937 L 508 370.251265823 L 515 408.294936709 L 523 341.338607595 L 530 361.882278481 L 538 378.925949367 L 545 380.219620253 L 553 362.263291139 L 560 363.556962025 L 567 403.350632911 L 575 402.894303797 L 582 398.937974684 L 590 433.48164557 L 597 462.775316456 L 605 448.318987342 L 612 433.862658228 L 620 415.906329114"/>
		</g>
		<text class="x-axis-label" x="40.0" y="540">
			0
		</text>
		<path class="x-notch" d="M 77.1794871795 525 L 77.1794871795 530"/>
		<text class="x-axis-label" x="114.358974359" y="540">
			10
		</text>
		<path class="x-notch" d="M 151.538461538 525 L 151.538461538 530"/>
		<text class="x-axis-label" x="188.717948718" y="540">
			20
		</text>
		<path class="x-notch" d="M 225.897435897 525 L 225.897435897 530"/>
		<text class="x-axis-label" x="263.076923077" y="540">
			30
		</text>
		<path class="x-notch" d="M 300.256410256 525 L 300.256410256 530"/>
		<text class="x-axis-label" x="337.435897436" y="540">
			40
		</text>
		<path class="x-notch" d="M 374.615384615 525 L 374.615384615 530"/>
		<text class="x-axis-label" x="411.794871795" y="540">
			50
		</text>
		<path class="x-notch" d="M 448.974358974 525 L 448.974358974 530"/>
		<text class="x-axis-label" x="486.153846154" y="540">
			60
		</text>
		<path class="x-notch" d="M 523.333333333 525 L 523.333333333 530"/>
		<text class="x-axis-label" x="560.512820513" y="540">
			70
		</text>
		<path class="x-notch" d="M 597.692307692 525 L 597.692307692 530"/>
	</g>
</svg>
