<?xml version="1.0" ?>
<svg height="600" version="1.1" width="800" xmlns="http://www.w3.org/2000/svg" xmlns:svg="http://www.w3.org/2000/svg">
	<style type="text/css">
		

.x-axis-path, .y-gridline, .x-notch { fill:none; stroke: #a7a9ac; stroke-width:1; }



.y-gridline { stroke-width: 1; }

.y-axis-path, .y-axis-path2, .x-notch-left, .x-notch-right { display: none;}



.x-axis-label, .data-point-label {font-size: 12px; font-weight:normal; font-family: sans-serif; fill: #58595b; text-anchor:middle;}

.y-axis-label {font-size: 12px; font-family: helvetica; fill: #a7a9ac; text-anchor:end;}



.series-1-line { fill: none; stroke: #10b80c; stroke-width:2; }



.series-2-line { fill: none; stroke: #e90f0a; stroke-width: 2;}

	</style>
	<rect fill="white" height="600" width="800" x="0" y="0"/>
	<g id="grid" transform="translate(70, 30)">
		<g class="x-axis" id="x_axis">
			<path class="x-axis-path" d="M 0 525 L 660 525"/>
			<path class="x-notch-left" d="M 0 525, L 0 535"/>
			<path class="x-notch-right" d="M 660 525, L 660 535"/>
		</g>
		<g class="y-axis" id="y_axis">
			<path class="y-axis-path" d="M 0 525 L 0 0"/>
			<path class="y-axis-path-2" d="M 660 525 L 660 0"/>
			<path class="y-gridline" d="M 0 525 L 660 525"/>
			<text class="y-axis-label" x="-5" y="525">
				-300
			</text>
			<path class="y-gridline" d="M 0 420 L 660 420"/>
			<text class="y-axis-label" x="-5" y="420">
				 0
			</text>
			<path class="y-gridline" d="M 0 315 L 660 315"/>
			<text class="y-axis-label" x="-5" y="315">
				300
			</text>
			<path class="y-gridline" d="M 0 210 L 660 210"/>
			<text class="y-axis-label" x="-5" y="210">
				600
			</text>
			<path class="y-gridline" d="M 0 105 L 660 105"/>
			<text class="y-axis-label" x="-5" y="105">
				900
			</text>
			<path class="y-gridline" d="M 0 0 L 660 0"/>
			<text class="y-axis-label" x="-5" y="0">
				1200
			</text>
		</g>
		<g>
			<path class="series-1-line" d="M 40 422.1 L 45 426.77157964 L 51 423.39315928 L 57 398.84407892 L 63 426.69657856 L 69 401.2412782 L 75 397.39609784 L 81 399.07027748 L 86 372.08911712 L 92 368.19031676 L 98 362.3438364 L 104 324.01035604 L 110 324.06011568 L 116 272.26493532 L 122 276.70327496 L 127 255.6632946 L 133 231.86825424 L 139 238.45111388 L 145 265.04697352 L 151 240.11205316 L 157 202.5144128 L 163 184.51663244 L 168 173.03445208 L 174 164.76513172 L 180 168.70059136 L 186 120.719431 L 192 116.16529064 L 198 129.76621028 L 204 124.35064992 L 209 85.68508956 L 215 79.4886092 L 221 116.40498884 L 227 57.59188848 L 233 75.06128812 L 239 87.79126776 L 245 50.2657274 L 250 68.87416704 L 256 45.11524668 L 262 87.89188632 L 268 130.75826596 L 274 135.4836056 L 280 202.54478524 L 286 127.27272488 L 291 109.27522452 L 297 252.75330416 L 303 268.1670838 L 309 271.43852344 L 315 234.08280308 L 321 254.55856272 L 327 203.87638236 L 332 237.867322 L 338 249.50306164 L 344 233.38968128 L 350 273.32152092 L 356 272.79686056 L 362 302.7853402 L 368 330.35923984 L 373 243.64455948 L 379 400.62927912 L 385 351.62541876 L 391 393.1193784 L 397 418.04615804 L 403 388.17469768 L 409 426.17677732 L 414 381.01255696 L 420 377.5630166 L 426 402.96439624 L 432 421.37753588 L 438 409.59911552 L 444 431.45639516 L 450 419.6509548 L 455 423.44347444 L 461 416.37605408 L 467 408.48417372 L 473 414.39461336 L 479 425.653333 L 485 424.75179264 L 491 411.05285228 L 496 422.09625192 L 502 419.66913156 L 508 416.2907112 L 514 414.05203084 L 520 422.86075048 L 526 427.74765012 L 532 416.57052976 L 537 422.2741894 L 543 424.18160904 L 549 415.76864868 L 555 420.35944832 L 561 422.93102796 L 567 420.0192276 L 573 414.07418724 L 578 421.32134688 L 584 419.68396652 L 590 422.21956616 L 596 421.1385458 L 602 424.70622544 L 608 412.14716508 L 614 427.13912472 L 620 418.16084436"/>
			<path class="series-2-line" d="M 40 420.0 L 45 421.2649 L 51 422.5298 L 57 409.4447 L 63 425.4096 L 69 430.8745 L 75 423.0394 L 81 427.8043 L 86 411.9192 L 92 426.1341 L 98 416.549 L 104 424.4639 L 110 423.2788 L 116 415.4437 L 122 425.8086 L 127 424.9735 L 133 430.7884 L 139 406.8533 L 145 400.4182 L 151 392.9331 L 157 395.248 L 163 383.9129 L 168 393.5778 L 174 407.0927 L 180 386.6576 L 186 370.7725 L 192 364.3374 L 198 351.2523 L 204 356.3672 L 209 361.4821 L 215 351.897 L 221 346.1619 L 227 341.1268 L 233 379.8417 L 239 325.1066 L 245 357.1715 L 250 327.2864 L 256 354.8013 L 262 349.4162 L 268 343.6811 L 274 336.546 L 280 323.8109 L 286 320.1758 L 291 336.1407 L 297 346.1556 L 303 336.9205 L 309 324.5354 L 315 289.0503 L 321 322.8652 L 327 332.5301 L 332 346.395 L 338 353.2599 L 344 320.9248 L 350 322.5397 L 356 315.4046 L 362 339.4195 L 368 316.8844 L 373 282.7993 L 379 315.2142 L 385 336.0791 L 391 394.394 L 397 402.6589 L 403 332.5238 L 409 307.5387 L 414 193.3036 L 420 260.3685 L 426 167.1334 L 432 345.4983 L 438 346.7632 L 444 328.7781 L 450 320.593 L 455 363.5079 L 461 312.2728 L 467 376.1877 L 473 416.3026 L 479 413.7175 L 485 410.7824 L 491 411.3473 L 496 415.0622 L 502 418.0771 L 508 419.342 L 514 420.2569 L 520 417.6718 L 526 412.6367 L 532 415.6516 L 537 419.7165 L 543 415.3814 L 549 423.9963 L 555 424.2112 L 561 425.4761 L 567 422.191 L 573 428.0059 L 578 423.3208 L 584 425.9857 L 590 419.2006 L 596 416.9655 L 602 412.9804 L 608 426.8453 L 614 415.1602 L 620 430.0751"/>
		</g>
		<text class="x-axis-label" x="40.0" y="540">
			0
		</text>
		<path class="x-notch" d="M 69.2929292929 525 L 69.2929292929 530"/>
		<text class="x-axis-label" x="98.5858585859" y="540">
			10
		</text>
		<path class="x-notch" d="M 127.878787879 525 L 127.878787879 530"/>
		<text class="x-axis-label" x="157.171717172" y="540">
			20
		</text>
		<path class="x-notch" d="M 186.464646465 525 L 186.464646465 530"/>
		<text class="x-axis-label" x="215.757575758" y="540">
			30
		</text>
		<path class="x-notch" d="M 245.050505051 525 L 245.050505051 530"/>
		<text class="x-axis-label" x="274.343434343" y="540">
			40
		</text>
		<path class="x-notch" d="M 303.636363636 525 L 303.636363636 530"/>
		<text class="x-axis-label" x="332.929292929" y="540">
			50
		</text>
		<path class="x-notch" d="M 362.222222222 525 L 362.222222222 530"/>
		<text class="x-axis-label" x="391.515151515" y="540">
			60
		</text>
		<path class="x-notch" d="M 420.808080808 525 L 420.808080808 530"/>
		<text class="x-axis-label" x="450.101010101" y="540">
			70
		</text>
		<path class="x-notch" d="M 479.393939394 525 L 479.393939394 530"/>
		<text class="x-axis-label" x="508.686868687" y="540">
			80
		</text>
		<path class="x-notch" d="M 537.97979798 525 L 537.97979798 530"/>
		<text class="x-axis-label" x="567.272727273" y="540">
			90
		</text>
		<path class="x-notch" d="M 596.565656566 525 L 596.565656566 530"/>
	</g>
</svg>
