<?xml version="1.0" ?>
<svg height="600" version="1.1" width="800" xmlns="http://www.w3.org/2000/svg" xmlns:svg="http://www.w3.org/2000/svg">
	<style type="text/css">
		

.x-axis-path, .y-gridline, .x-notch { fill:none; stroke: #a7a9ac; stroke-width:1; }



.y-gridline { stroke-width: 1; }

.y-axis-path, .y-axis-path2, .x-notch-left, .x-notch-right { display: none;}



.x-axis-label, .data-point-label {font-size: 12px; font-weight:normal; font-family: sans-serif; fill: #58595b; text-anchor:middle;}

.y-axis-label {font-size: 12px; font-family: helvetica; fill: #a7a9ac; text-anchor:end;}



.series-1-line { fill: none; stroke: #10b80c; stroke-width:2; }



.series-2-line { fill: none; stroke: #e90f0a; stroke-width: 2;}

	</style>
	<rect fill="white" height="600" width="800" x="0" y="0"/>
	<g id="grid" transform="translate(70, 30)">
		<g class="x-axis" id="x_axis">
			<path class="x-axis-path" d="M 0 525 L 660 525"/>
			<path class="x-notch-left" d="M 0 525, L 0 535"/>
			<path class="x-notch-right" d="M 660 525, L 660 535"/>
		</g>
		<g class="y-axis" id="y_axis">
			<path class="y-axis-path" d="M 0 525 L 0 0"/>
			<path class="y-axis-path-2" d="M 660 525 L 660 0"/>
			<path class="y-gridline" d="M 0 525 L 660 525"/>
			<text class="y-axis-label" x="-5" y="525">
				-200
			</text>
			<path class="y-gridline" d="M 0 394 L 660 394"/>
			<text class="y-axis-label" x="-5" y="394">
				 0
			</text>
			<path class="y-gridline" d="M 0 263 L 660 263"/>
			<text class="y-axis-label" x="-5" y="263">
				200
			</text>
			<path class="y-gridline" d="M 0 132 L 660 132"/>
			<text class="y-axis-label" x="-5" y="132">
				400
			</text>
			<path class="y-gridline" d="M 0 1 L 660 1"/>
			<text class="y-axis-label" x="-5" y="1">
				600
			</text>
		</g>
		<g>
			<path class="series-1-line" d="M 40 384.426724462 L 47 392.824084103 L 54 388.32593573 L 61 390.708155708 L 68 408.66108242 L 75 367.478547011 L 82 397.094330905 L 89 389.072803291 L 96 397.575043269 L 103 368.247804775 L 110 359.841534078 L 117 390.427426996 L 124 378.804234948 L 131 386.519395047 L 139 385.894317963 L 146 385.339070182 L 153 354.175675664 L 160 347.937659328 L 167 302.585141713 L 174 303.848319859 L 181 287.976042101 L 188 259.120833318 L 195 214.686189137 L 202 214.943934452 L 209 241.525826141 L 216 204.58364778 L 223 167.842637816 L 230 131.486234551 L 238 146.658945818 L 245 153.430046494 L 252 90.2857866506 L 259 46.5855776023 L 266 0.0 L 273 18.3463984598 L 280 92.4971831503 L 287 107.600201501 L 294 129.775618781 L 301 139.458273999 L 308 140.048390422 L 315 31.9403342279 L 322 12.3350529391 L 330 223.195243453 L 337 225.017737936 L 344 261.828667577 L 351 257.94248029 L 358 230.634426965 L 365 282.385690234 L 372 248.477267692 L 379 267.549236237 L 386 267.851034021 L 393 301.400989842 L 400 319.528898965 L 407 369.575890847 L 414 363.373334703 L 421 382.323511126 L 429 397.46990002 L 436 413.927906865 L 443 399.603057336 L 450 396.870962915 L 457 387.800359157 L 464 398.356971725 L 471 391.122387606 L 478 406.723485271 L 485 414.237749742 L 492 397.438597116 L 499 398.142322539 L 506 399.309349011 L 513 395.125978036 L 520 387.996137868 L 528 398.14195775 L 535 403.881303221 L 542 399.793947536 L 549 399.632171501 L 556 382.570749839 L 563 395.584071793 L 570 385.761711962 L 577 400.855865265 L 584 390.552474291 L 591 395.959721425 L 598 399.137613559 L 605 405.174279102 L 612 384.108856211 L 620 390.075556068"/>
			<path class="series-2-line" d="M 40 382.770978985 L 47 396.249302696 L 54 400.180651611 L 61 394.565025731 L 68 393.381923863 L 75 375.491616103 L 82 389.992829971 L 89 385.059130862 L 96 395.468784103 L 103 403.150730259 L 110 391.738726824 L 117 374.530345836 L 124 399.601424655 L 131 386.484604293 L 139 397.91714769 L 146 398.43886275 L 153 386.68589593 L 160 382.775086978 L 167 390.457033134 L 174 386.546224182 L 181 396.273950652 L 188 396.795665711 L 195 394.248710301 L 202 387.610194264 L 209 383.358421927 L 216 382.175320059 L 223 389.516302829 L 230 390.038017889 L 238 383.740465238 L 245 384.944107069 L 252 348.982739875 L 259 351.550235248 L 266 325.476806234 L 273 329.40815515 L 280 337.772028077 L 287 355.6828758 L 294 334.041970799 L 301 359.79497639 L 308 367.817885932 L 315 298.442106953 L 322 318.739698375 L 330 383.021566534 L 337 358.311991062 L 344 367.357790761 L 351 368.902395978 L 358 340.783186651 L 365 266.292956889 L 372 270.56526919 L 379 267.677350394 L 386 294.112282756 L 393 306.56771631 L 400 318.000259708 L 407 296.700318092 L 414 340.524383117 L 421 396.623130022 L 429 381.119565961 L 436 387.09669519 L 443 394.778641346 L 450 402.460587503 L 457 401.61844902 L 464 397.366676682 L 471 402.66187914 L 478 396.023363103 L 485 400.977602175 L 492 395.702939681 L 499 399.29332521 L 506 397.087333186 L 513 405.110242728 L 520 394.039202679 L 528 400.698258679 L 535 389.968182015 L 542 382.988702593 L 549 388.624868436 L 556 384.373096098 L 563 382.508067459 L 570 392.576757314 L 577 398.553886543 L 584 390.551516964 L 591 391.755158795 L 598 395.004580939 L 605 391.093771987 L 612 399.7986083 L 620 393.501055649"/>
		</g>
		<text class="x-axis-label" x="40.0" y="540">
			0
		</text>
		<path class="x-notch" d="M 75.3658536585 525 L 75.3658536585 530"/>
		<text class="x-axis-label" x="110.731707317" y="540">
			10
		</text>
		<path class="x-notch" d="M 146.097560976 525 L 146.097560976 530"/>
		<text class="x-axis-label" x="181.463414634" y="540">
			20
		</text>
		<path class="x-notch" d="M 216.829268293 525 L 216.829268293 530"/>
		<text class="x-axis-label" x="252.195121951" y="540">
			30
		</text>
		<path class="x-notch" d="M 287.56097561 525 L 287.56097561 530"/>
		<text class="x-axis-label" x="322.926829268" y="540">
			40
		</text>
		<path class="x-notch" d="M 358.292682927 525 L 358.292682927 530"/>
		<text class="x-axis-label" x="393.658536585" y="540">
			50
		</text>
		<path class="x-notch" d="M 429.024390244 525 L 429.024390244 530"/>
		<text class="x-axis-label" x="464.390243902" y="540">
			60
		</text>
		<path class="x-notch" d="M 499.756097561 525 L 499.756097561 530"/>
		<text class="x-axis-label" x="535.12195122" y="540">
			70
		</text>
		<path class="x-notch" d="M 570.487804878 525 L 570.487804878 530"/>
		<text class="x-axis-label" x="605.853658537" y="540">
			80
		</text>
		<path class="x-notch" d="M 641.219512195 525 L 641.219512195 530"/>
	</g>
</svg>
