<?xml version="1.0" ?>
<svg height="600" version="1.1" width="800" xmlns="http://www.w3.org/2000/svg" xmlns:svg="http://www.w3.org/2000/svg">
	<style type="text/css">
		

.x-axis-path, .y-gridline, .x-notch { fill:none; stroke: #a7a9ac; stroke-width:1; }



.y-gridline { stroke-width: 1; }

.y-axis-path, .y-axis-path2, .x-notch-left, .x-notch-right { display: none;}



.x-axis-label, .data-point-label {font-size: 12px; font-weight:normal; font-family: sans-serif; fill: #58595b; text-anchor:middle;}

.y-axis-label {font-size: 12px; font-family: helvetica; fill: #a7a9ac; text-anchor:end;}



.series-1-line { fill: none; stroke: #10b80c; stroke-width:2; }



.series-2-line { fill: none; stroke: #e90f0a; stroke-width: 2;}

	</style>
	<rect fill="white" height="600" width="800" x="0" y="0"/>
	<g id="grid" transform="translate(70, 30)">
		<g class="x-axis" id="x_axis">
			<path class="x-axis-path" d="M 0 525 L 660 525"/>
			<path class="x-notch-left" d="M 0 525, L 0 535"/>
			<path class="x-notch-right" d="M 660 525, L 660 535"/>
		</g>
		<g class="y-axis" id="y_axis">
			<path class="y-axis-path" d="M 0 525 L 0 0"/>
			<path class="y-axis-path-2" d="M 660 525 L 660 0"/>
			<path class="y-gridline" d="M 0 525 L 660 525"/>
			<text class="y-axis-label" x="-5" y="525">
				-100
			</text>
			<path class="y-gridline" d="M 0 450 L 660 450"/>
			<text class="y-axis-label" x="-5" y="450">
				 0
			</text>
			<path class="y-gridline" d="M 0 375 L 660 375"/>
			<text class="y-axis-label" x="-5" y="375">
				100
			</text>
			<path class="y-gridline" d="M 0 300 L 660 300"/>
			<text class="y-axis-label" x="-5" y="300">
				200
			</text>
			<path class="y-gridline" d="M 0 225 L 660 225"/>
			<text class="y-axis-label" x="-5" y="225">
				300
			</text>
			<path class="y-gridline" d="M 0 150 L 660 150"/>
			<text class="y-axis-label" x="-5" y="150">
				400
			</text>
			<path class="y-gridline" d="M 0 75 L 660 75"/>
			<text class="y-axis-label" x="-5" y="75">
				500
			</text>
			<path class="y-gridline" d="M 0 0 L 660 0"/>
			<text class="y-axis-label" x="-5" y="0">
				600
			</text>
		</g>
		<g>
			<path class="series-1-line" d="M 40 443.06934 L 48 438.316907463 L 57 450.526774925 L 66 438.678442388 L 75 476.503209851 L 83 461.212977313 L 92 462.306944776 L 101 488.324012239 L 110 419.379679701 L 119 450.877147164 L 127 413.279514627 L 136 411.04648209 L 145 405.198149552 L 154 336.946217015 L 163 368.598184478 L 171 343.28825194 L 180 334.343319403 L 189 281.745686866 L 198 233.397254328 L 206 287.395021791 L 215 208.295989254 L 224 192.756156716 L 233 231.368424179 L 242 166.693691642 L 250 181.613459104 L 259 128.148526567 L 268 139.80069403 L 277 88.7978614925 L 286 50.4697289552 L 294 135.872096418 L 303 44.2147638806 L 312 140.367031343 L 321 135.056598806 L 330 132.632466269 L 338 116.707133731 L 347 100.936601194 L 356 126.548968657 L 365 171.355936119 L 373 171.661203582 L 382 308.101971045 L 391 256.078538507 L 400 313.03910597 L 409 334.633273433 L 417 308.266740896 L 426 372.782508358 L 435 325.684775821 L 444 365.261843284 L 453 432.529810746 L 461 466.258378209 L 470 422.352645672 L 479 470.292513134 L 488 431.059880597 L 496 460.23084806 L 505 391.594315522 L 514 428.592282985 L 523 446.994150448 L 532 426.33811791 L 540 399.105185373 L 549 436.660852836 L 558 442.178020299 L 567 454.637487761 L 576 445.577655224 L 584 451.460522687 L 593 452.342990149 L 602 459.071257612 L 611 453.415525075 L 620 438.067692537"/>
			<path class="series-2-line" d="M 40 460.65 L 48 424.970149254 L 57 463.540298507 L 66 452.610447761 L 75 443.930597015 L 83 472.750746269 L 92 461.070895522 L 101 451.641044776 L 110 455.71119403 L 119 410.281343284 L 127 467.601492537 L 136 448.421641791 L 145 437.491791045 L 154 450.561940299 L 163 468.882089552 L 171 451.952238806 L 180 397.52238806 L 189 454.842537313 L 198 434.162686567 L 206 417.982835821 L 215 338.802985075 L 224 406.623134328 L 233 304.193283582 L 242 344.263432836 L 250 223.08358209 L 259 93.6537313433 L 268 131.473880597 L 277 56.7940298507 L 286 140.364179104 L 294 197.684328358 L 303 59.2544776119 L 312 106.824626866 L 321 41.1447761194 L 330 139.714925373 L 338 121.285074627 L 347 195.855223881 L 356 103.175373134 L 365 233.995522388 L 373 199.065671642 L 382 250.385820896 L 391 42.2059701493 L 400 149.026119403 L 409 156.846268657 L 417 246.41641791 L 426 110.236567164 L 435 157.806716418 L 444 373.376865672 L 453 451.697014925 L 461 438.517164179 L 470 456.087313433 L 479 419.657462687 L 488 439.47761194 L 496 435.297761194 L 505 449.867910448 L 514 453.188059701 L 523 461.758208955 L 532 450.078358209 L 540 440.648507463 L 549 444.718656716 L 558 445.03880597 L 567 444.608955224 L 576 437.429104478 L 584 468.499253731 L 593 460.569402985 L 602 418.139552239 L 611 435.709701493 L 620 473.529850746"/>
		</g>
		<text class="x-axis-label" x="40.0" y="540">
			0
		</text>
		<path class="x-notch" d="M 83.9393939394 525 L 83.9393939394 530"/>
		<text class="x-axis-label" x="127.878787879" y="540">
			10
		</text>
		<path class="x-notch" d="M 171.818181818 525 L 171.818181818 530"/>
		<text class="x-axis-label" x="215.757575758" y="540">
			20
		</text>
		<path class="x-notch" d="M 259.696969697 525 L 259.696969697 530"/>
		<text class="x-axis-label" x="303.636363636" y="540">
			30
		</text>
		<path class="x-notch" d="M 347.575757576 525 L 347.575757576 530"/>
		<text class="x-axis-label" x="391.515151515" y="540">
			40
		</text>
		<path class="x-notch" d="M 435.454545455 525 L 435.454545455 530"/>
		<text class="x-axis-label" x="479.393939394" y="540">
			50
		</text>
		<path class="x-notch" d="M 523.333333333 525 L 523.333333333 530"/>
		<text class="x-axis-label" x="567.272727273" y="540">
			60
		</text>
		<path class="x-notch" d="M 611.212121212 525 L 611.212121212 530"/>
	</g>
</svg>
