<?xml version="1.0" ?>
<svg height="600" version="1.1" width="800" xmlns="http://www.w3.org/2000/svg" xmlns:svg="http://www.w3.org/2000/svg">
	<style type="text/css">
		

.x-axis-path, .y-gridline, .x-notch { fill:none; stroke: #a7a9ac; stroke-width:1; }



.y-gridline { stroke-width: 1; }

.y-axis-path, .y-axis-path2, .x-notch-left, .x-notch-right { display: none;}



.x-axis-label, .data-point-label {font-size: 12px; font-weight:normal; font-family: sans-serif; fill: #58595b; text-anchor:middle;}

.y-axis-label {font-size: 12px; font-family: helvetica; fill: #a7a9ac; text-anchor:end;}



.series-1-line { fill: none; stroke: #10b80c; stroke-width:2; }



.series-2-line { fill: none; stroke: #e90f0a; stroke-width: 2;}

	</style>
	<rect fill="white" height="600" width="800" x="0" y="0"/>
	<g id="grid" transform="translate(70, 30)">
		<g class="x-axis" id="x_axis">
			<path class="x-axis-path" d="M 0 525 L 660 525"/>
			<path class="x-notch-left" d="M 0 525, L 0 535"/>
			<path class="x-notch-right" d="M 660 525, L 660 535"/>
		</g>
		<g class="y-axis" id="y_axis">
			<path class="y-axis-path" d="M 0 525 L 0 0"/>
			<path class="y-axis-path-2" d="M 660 525 L 660 0"/>
			<path class="y-gridline" d="M 0 525 L 660 525"/>
			<text class="y-axis-label" x="-5" y="525">
				-100
			</text>
			<path class="y-gridline" d="M 0 450 L 660 450"/>
			<text class="y-axis-label" x="-5" y="450">
				 0
			</text>
			<path class="y-gridline" d="M 0 375 L 660 375"/>
			<text class="y-axis-label" x="-5" y="375">
				100
			</text>
			<path class="y-gridline" d="M 0 300 L 660 300"/>
			<text class="y-axis-label" x="-5" y="300">
				200
			</text>
			<path class="y-gridline" d="M 0 225 L 660 225"/>
			<text class="y-axis-label" x="-5" y="225">
				300
			</text>
			<path class="y-gridline" d="M 0 150 L 660 150"/>
			<text class="y-axis-label" x="-5" y="150">
				400
			</text>
			<path class="y-gridline" d="M 0 75 L 660 75"/>
			<text class="y-axis-label" x="-5" y="75">
				500
			</text>
			<path class="y-gridline" d="M 0 0 L 660 0"/>
			<text class="y-axis-label" x="-5" y="0">
				600
			</text>
		</g>
		<g>
			<path class="series-1-line" d="M 40 467.38074 L 47 440.319417692 L 55 451.872895385 L 62 459.446273077 L 70 427.673450769 L 77 442.457628462 L 85 430.319206154 L 92 412.642483846 L 100 435.427361538 L 107 414.519339231 L 115 437.438916923 L 122 420.108094615 L 130 426.988772308 L 137 397.25415 L 145 406.711827692 L 152 396.265405385 L 160 405.819383077 L 168 355.988360769 L 175 308.734938462 L 183 326.808016154 L 190 288.246193846 L 198 273.050171538 L 205 228.681249231 L 213 285.272826923 L 220 256.500304615 L 228 205.246682308 L 235 209.20416 L 243 225.027237692 L 250 274.504315385 L 258 145.058393077 L 265 208.342670769 L 273 169.416048462 L 281 230.642926154 L 288 137.427703846 L 296 174.442781538 L 303 180.208359231 L 311 129.993036923 L 318 123.642814615 L 326 71.8305923077 L 333 198.69267 L 341 177.688647692 L 348 214.857925385 L 356 256.238303077 L 363 294.196880769 L 371 311.904258462 L 378 263.342836154 L 386 341.607613846 L 394 338.045591538 L 401 366.062169231 L 409 411.461046923 L 416 447.014824615 L 424 420.357602308 L 431 488.39208 L 439 471.369057692 L 446 433.885735385 L 454 439.054313077 L 461 456.205190769 L 469 430.913568462 L 476 452.352646154 L 484 438.156523846 L 491 427.422101538 L 499 433.129779231 L 507 445.433856923 L 514 458.929834615 L 522 433.733912308 L 529 472.53759 L 537 438.591267692 L 544 450.472645385 L 552 440.757023077 L 559 447.734000769 L 567 458.095578462 L 574 464.130556154 L 582 441.376633846 L 589 468.603611538 L 597 443.022789231 L 604 425.692266923 L 612 464.072944615 L 620 453.569222308"/>
			<path class="series-2-line" d="M 40 447.15 L 47 463.417307692 L 55 422.684615385 L 62 447.201923077 L 70 467.219230769 L 77 419.736538462 L 85 418.753846154 L 92 433.521153846 L 100 454.288461538 L 107 417.305769231 L 115 446.323076923 L 122 436.340384615 L 130 422.607692308 L 137 417.125 L 145 410.892307692 L 152 379.909615385 L 160 387.926923077 L 168 358.444230769 L 175 394.961538462 L 183 390.228846154 L 190 357.746153846 L 198 365.763461538 L 205 391.030769231 L 213 315.048076923 L 220 364.315384615 L 228 381.332692308 L 235 355.6 L 243 350.867307692 L 250 361.134615385 L 258 378.901923077 L 265 341.169230769 L 273 365.686538462 L 281 356.453846154 L 288 367.471153846 L 296 332.738461538 L 303 346.755769231 L 311 348.023076923 L 318 321.540384615 L 326 250.057692308 L 333 297.825 L 341 275.842307692 L 348 275.609615385 L 356 232.626923077 L 363 314.144230769 L 371 278.661538462 L 378 285.178846154 L 386 221.196153846 L 394 169.213461538 L 401 280.730769231 L 409 166.498076923 L 416 155.015384615 L 424 196.032692308 L 431 177.8 L 439 178.317307692 L 446 299.584615385 L 454 231.101923077 L 461 311.869230769 L 469 373.886538462 L 476 429.153846154 L 484 427.421153846 L 491 441.438461538 L 499 435.205769231 L 507 452.973076923 L 514 430.990384615 L 522 448.757692308 L 529 427.525 L 537 406.292307692 L 544 460.809615385 L 552 432.826923077 L 559 433.344230769 L 567 432.361538462 L 574 462.878846154 L 582 450.646153846 L 589 451.163461538 L 597 441.180769231 L 604 460.448076923 L 612 446.715384615 L 620 453.982692308"/>
		</g>
		<text class="x-axis-label" x="40.0" y="540">
			0
		</text>
		<path class="x-notch" d="M 77.6623376623 525 L 77.6623376623 530"/>
		<text class="x-axis-label" x="115.324675325" y="540">
			10
		</text>
		<path class="x-notch" d="M 152.987012987 525 L 152.987012987 530"/>
		<text class="x-axis-label" x="190.649350649" y="540">
			20
		</text>
		<path class="x-notch" d="M 228.311688312 525 L 228.311688312 530"/>
		<text class="x-axis-label" x="265.974025974" y="540">
			30
		</text>
		<path class="x-notch" d="M 303.636363636 525 L 303.636363636 530"/>
		<text class="x-axis-label" x="341.298701299" y="540">
			40
		</text>
		<path class="x-notch" d="M 378.961038961 525 L 378.961038961 530"/>
		<text class="x-axis-label" x="416.623376623" y="540">
			50
		</text>
		<path class="x-notch" d="M 454.285714286 525 L 454.285714286 530"/>
		<text class="x-axis-label" x="491.948051948" y="540">
			60
		</text>
		<path class="x-notch" d="M 529.61038961 525 L 529.61038961 530"/>
		<text class="x-axis-label" x="567.272727273" y="540">
			70
		</text>
		<path class="x-notch" d="M 604.935064935 525 L 604.935064935 530"/>
	</g>
</svg>
