<?xml version="1.0" ?>
<svg height="600" version="1.1" width="800" xmlns="http://www.w3.org/2000/svg" xmlns:svg="http://www.w3.org/2000/svg">
	<style type="text/css">
		

.x-axis-path, .y-gridline, .x-notch { fill:none; stroke: #a7a9ac; stroke-width:1; }



.y-gridline { stroke-width: 1; }

.y-axis-path, .y-axis-path2, .x-notch-left, .x-notch-right { display: none;}



.x-axis-label, .data-point-label {font-size: 12px; font-weight:normal; font-family: sans-serif; fill: #58595b; text-anchor:middle;}

.y-axis-label {font-size: 12px; font-family: helvetica; fill: #a7a9ac; text-anchor:end;}



.series-1-line { fill: none; stroke: #10b80c; stroke-width:2; }



.series-2-line { fill: none; stroke: #e90f0a; stroke-width: 2;}

	</style>
	<rect fill="white" height="600" width="800" x="0" y="0"/>
	<g id="grid" transform="translate(70, 30)">
		<g class="x-axis" id="x_axis">
			<path class="x-axis-path" d="M 0 525 L 660 525"/>
			<path class="x-notch-left" d="M 0 525, L 0 535"/>
			<path class="x-notch-right" d="M 660 525, L 660 535"/>
		</g>
		<g class="y-axis" id="y_axis">
			<path class="y-axis-path" d="M 0 525 L 0 0"/>
			<path class="y-axis-path-2" d="M 660 525 L 660 0"/>
			<path class="y-gridline" d="M 0 525 L 660 525"/>
			<text class="y-axis-label" x="-5" y="525">
				-100
			</text>
			<path class="y-gridline" d="M 0 438 L 660 438"/>
			<text class="y-axis-label" x="-5" y="438">
				 0
			</text>
			<path class="y-gridline" d="M 0 351 L 660 351"/>
			<text class="y-axis-label" x="-5" y="351">
				100
			</text>
			<path class="y-gridline" d="M 0 264 L 660 264"/>
			<text class="y-axis-label" x="-5" y="264">
				200
			</text>
			<path class="y-gridline" d="M 0 177 L 660 177"/>
			<text class="y-axis-label" x="-5" y="177">
				300
			</text>
			<path class="y-gridline" d="M 0 90 L 660 90"/>
			<text class="y-axis-label" x="-5" y="90">
				400
			</text>
			<path class="y-gridline" d="M 0 3 L 660 3"/>
			<text class="y-axis-label" x="-5" y="3">
				500
			</text>
		</g>
		<g>
			<path class="series-1-line" d="M 40 430.84097 L 44 454.027620744 L 49 431.131521488 L 54 427.036372231 L 59 442.999022975 L 64 393.201923719 L 69 450.446024463 L 73 432.351225207 L 78 406.56062595 L 83 422.590826694 L 88 437.924527438 L 93 442.310228182 L 98 452.147528926 L 102 432.212779669 L 107 419.097780413 L 112 449.778631157 L 117 443.911431901 L 122 429.899732645 L 127 429.506533388 L 131 441.924384132 L 136 448.957134876 L 141 429.17918562 L 146 434.552236364 L 151 433.328837107 L 156 413.528487851 L 160 413.426488595 L 165 406.235239339 L 170 387.893690083 L 175 405.179690826 L 180 338.84719157 L 185 381.284192314 L 189 311.115343058 L 194 268.071493802 L 199 245.780894545 L 204 246.037995289 L 209 209.298696033 L 214 213.751596777 L 218 250.915847521 L 223 242.064198264 L 228 245.619699008 L 233 212.895949752 L 238 198.121250496 L 243 221.95890124 L 247 248.174101983 L 252 249.396502727 L 257 196.144553471 L 262 254.241604215 L 267 189.703554959 L 272 168.377905702 L 276 173.413906446 L 281 230.94920719 L 286 232.103707934 L 291 216.342358678 L 296 329.340409421 L 301 252.709160165 L 305 294.384210909 L 310 227.087111653 L 315 202.013662397 L 320 219.30001314 L 325 171.252213884 L 330 191.163214628 L 334 212.353465372 L 339 260.847916116 L 344 207.32576686 L 349 330.465417603 L 354 287.758618347 L 359 338.766769091 L 363 332.764119835 L 368 360.821370579 L 373 421.677821322 L 378 415.541822066 L 383 420.95897281 L 388 443.001823554 L 392 417.750224298 L 397 440.263825041 L 402 443.101125785 L 407 431.310526529 L 412 436.279677273 L 417 439.902378017 L 421 436.25592876 L 426 446.249679504 L 431 427.998080248 L 436 411.518530992 L 441 436.971081736 L 446 460.740832479 L 450 445.539833223 L 455 408.666133967 L 460 411.525834711 L 465 420.309635455 L 470 429.945336198 L 475 458.426786942 L 479 448.498537686 L 484 452.21118843 L 489 456.237789174 L 494 437.895889917 L 499 440.419240661 L 504 437.041941405 L 508 425.206542149 L 513 411.441592893 L 518 438.218193636 L 523 435.17759438 L 528 435.143145124 L 532 447.336295868 L 537 448.984646612 L 542 439.931397355 L 547 433.278448099 L 552 420.029398843 L 557 449.677749587 L 562 426.736500331 L 566 423.538751074 L 571 435.193601818 L 576 427.351702562 L 581 436.381553306 L 586 440.83445405 L 591 441.854554793 L 595 448.865255537 L 600 445.128856281 L 605 424.251907025 L 610 446.451557769 L 615 434.638208512 L 620 439.226209256"/>
			<path class="series-2-line" d="M 40 432.075 L 44 408.93161157 L 49 442.66322314 L 54 444.019834711 L 59 455.876446281 L 64 454.608057851 L 69 407.839669421 L 73 443.321280992 L 78 450.802892562 L 83 486.284504132 L 88 425.516115702 L 93 434.747727273 L 98 412.479338843 L 102 427.835950413 L 107 368.817561983 L 112 405.174173554 L 117 444.155785124 L 122 456.887396694 L 127 460.869008264 L 131 479.725619835 L 136 451.332231405 L 141 442.188842975 L 146 468.045454545 L 151 465.027066116 L 156 459.383677686 L 160 417.865289256 L 165 424.471900826 L 170 464.328512397 L 175 440.310123967 L 180 425.041735537 L 185 436.023347107 L 189 439.129958678 L 194 442.236570248 L 199 449.718181818 L 204 420.449793388 L 209 429.681404959 L 214 428.413016529 L 218 408.769628099 L 223 401.376239669 L 228 403.60785124 L 233 366.46446281 L 238 361.69607438 L 243 373.55268595 L 247 321.534297521 L 252 346.515909091 L 257 372.372520661 L 262 363.229132231 L 267 306.835743802 L 272 334.442355372 L 276 310.423966942 L 281 218.155578512 L 286 185.387190083 L 291 232.243801653 L 296 258.100413223 L 301 177.207024793 L 305 273.063636364 L 310 271.795247934 L 315 201.401859504 L 320 211.508471074 L 325 141.990082645 L 330 117.971694215 L 334 133.328305785 L 339 120.684917355 L 344 52.0415289256 L 349 133.898140496 L 354 186.879752066 L 359 259.986363636 L 363 217.592975207 L 368 390.449586777 L 373 360.306198347 L 378 441.287809917 L 383 391.894421488 L 388 410.751033058 L 392 470.732644628 L 397 450.214256198 L 402 427.945867769 L 407 435.427479339 L 412 456.034090909 L 417 447.765702479 L 421 447.37231405 L 426 366.47892562 L 431 426.46053719 L 436 448.81714876 L 441 413.423760331 L 446 367.530371901 L 450 361.011983471 L 455 391.243595041 L 460 365.475206612 L 465 439.456818182 L 470 448.688429752 L 475 418.545041322 L 479 442.651652893 L 484 454.508264463 L 489 451.489876033 L 494 457.221487603 L 499 449.828099174 L 504 441.559710744 L 508 456.041322314 L 513 464.397933884 L 518 461.379545455 L 523 468.861157025 L 528 450.967768595 L 532 436.574380165 L 537 429.180991736 L 542 453.287603306 L 547 444.144214876 L 552 440.250826446 L 557 432.857438017 L 562 439.464049587 L 566 437.320661157 L 571 438.677272727 L 576 444.408884298 L 581 445.765495868 L 586 444.497107438 L 591 432.728719008 L 595 441.960330579 L 600 421.441942149 L 605 447.298553719 L 610 441.655165289 L 615 418.51177686 L 620 464.49338843"/>
		</g>
		<text class="x-axis-label" x="40.0" y="540">
			0
		</text>
		<path class="x-notch" d="M 64.1666666667 525 L 64.1666666667 530"/>
		<text class="x-axis-label" x="88.3333333333" y="540">
			10
		</text>
		<path class="x-notch" d="M 112.5 525 L 112.5 530"/>
		<text class="x-axis-label" x="136.666666667" y="540">
			20
		</text>
		<path class="x-notch" d="M 160.833333333 525 L 160.833333333 530"/>
		<text class="x-axis-label" x="185.0" y="540">
			30
		</text>
		<path class="x-notch" d="M 209.166666667 525 L 209.166666667 530"/>
		<text class="x-axis-label" x="233.333333333" y="540">
			40
		</text>
		<path class="x-notch" d="M 257.5 525 L 257.5 530"/>
		<text class="x-axis-label" x="281.666666667" y="540">
			50
		</text>
		<path class="x-notch" d="M 305.833333333 525 L 305.833333333 530"/>
		<text class="x-axis-label" x="330.0" y="540">
			60
		</text>
		<path class="x-notch" d="M 354.166666667 525 L 354.166666667 530"/>
		<text class="x-axis-label" x="378.333333333" y="540">
			70
		</text>
		<path class="x-notch" d="M 402.5 525 L 402.5 530"/>
		<text class="x-axis-label" x="426.666666667" y="540">
			80
		</text>
		<path class="x-notch" d="M 450.833333333 525 L 450.833333333 530"/>
		<text class="x-axis-label" x="475.0" y="540">
			90
		</text>
		<path class="x-notch" d="M 499.166666667 525 L 499.166666667 530"/>
		<text class="x-axis-label" x="523.333333333" y="540">
			100
		</text>
		<path class="x-notch" d="M 547.5 525 L 547.5 530"/>
		<text class="x-axis-label" x="571.666666667" y="540">
			110
		</text>
		<path class="x-notch" d="M 595.833333333 525 L 595.833333333 530"/>
		<text class="x-axis-label" x="620.0" y="540">
			120
		</text>
	</g>
</svg>
