<?xml version="1.0" ?>
<svg height="600" version="1.1" width="800" xmlns="http://www.w3.org/2000/svg" xmlns:svg="http://www.w3.org/2000/svg">
	<style type="text/css">
		

.x-axis-path, .y-gridline, .x-notch { fill:none; stroke: #a7a9ac; stroke-width:1; }



.y-gridline { stroke-width: 1; }

.y-axis-path, .y-axis-path2, .x-notch-left, .x-notch-right { display: none;}



.x-axis-label, .data-point-label {font-size: 12px; font-weight:normal; font-family: sans-serif; fill: #58595b; text-anchor:middle;}

.y-axis-label {font-size: 12px; font-family: helvetica; fill: #a7a9ac; text-anchor:end;}



.series-1-line { fill: none; stroke: #10b80c; stroke-width:2; }



.series-2-line { fill: none; stroke: #e90f0a; stroke-width: 2;}

	</style>
	<rect fill="white" height="600" width="800" x="0" y="0"/>
	<g id="grid" transform="translate(70, 30)">
		<g class="x-axis" id="x_axis">
			<path class="x-axis-path" d="M 0 525 L 660 525"/>
			<path class="x-notch-left" d="M 0 525, L 0 535"/>
			<path class="x-notch-right" d="M 660 525, L 660 535"/>
		</g>
		<g class="y-axis" id="y_axis">
			<path class="y-axis-path" d="M 0 525 L 0 0"/>
			<path class="y-axis-path-2" d="M 660 525 L 660 0"/>
			<path class="y-gridline" d="M 0 525 L 660 525"/>
			<text class="y-axis-label" x="-5" y="525">
				-200
			</text>
			<path class="y-gridline" d="M 0 394 L 660 394"/>
			<text class="y-axis-label" x="-5" y="394">
				 0
			</text>
			<path class="y-gridline" d="M 0 263 L 660 263"/>
			<text class="y-axis-label" x="-5" y="263">
				200
			</text>
			<path class="y-gridline" d="M 0 132 L 660 132"/>
			<text class="y-axis-label" x="-5" y="132">
				400
			</text>
			<path class="y-gridline" d="M 0 1 L 660 1"/>
			<text class="y-axis-label" x="-5" y="1">
				600
			</text>
		</g>
		<g>
			<path class="series-1-line" d="M 40 408.992296722 L 48 388.142177213 L 57 410.016938512 L 66 386.268573975 L 75 374.510356463 L 83 410.771928017 L 92 421.887076628 L 101 421.700696028 L 110 396.201023833 L 119 337.944351935 L 127 392.554969735 L 136 397.873628289 L 145 393.349963828 L 154 389.973236736 L 163 355.445417429 L 171 400.255998617 L 180 408.743535181 L 189 399.883562697 L 198 297.088248568 L 206 360.769625163 L 215 317.984247125 L 224 359.062240019 L 233 280.350658988 L 242 276.994749819 L 250 284.231584684 L 259 302.498339939 L 268 247.451856614 L 277 306.921507438 L 286 233.44335674 L 294 228.064531091 L 303 248.896119348 L 312 155.984764078 L 321 219.956615736 L 330 149.981405634 L 338 157.926375116 L 347 0.0 L 356 65.7039677949 L 365 36.0745403939 L 373 37.598482169 L 382 107.495634774 L 391 156.934950727 L 400 53.3869386185 L 409 194.929619112 L 417 298.416163006 L 426 305.841009726 L 435 369.710398176 L 444 356.11695076 L 453 392.295250627 L 461 345.047681197 L 470 342.651348103 L 479 383.041373742 L 488 328.579743903 L 496 368.656850158 L 505 383.504261783 L 514 340.989842006 L 523 335.612317477 L 532 275.644997925 L 540 338.221072993 L 549 365.204031815 L 558 358.741698401 L 567 334.972515942 L 576 346.171586799 L 584 366.606983985 L 593 399.261200055 L 602 391.90239489 L 611 406.43721241 L 620 405.771694333"/>
			<path class="series-2-line" d="M 40 394.563200064 L 48 368.492248755 L 57 400.971702062 L 66 383.032751394 L 75 429.336605791 L 83 405.705254674 L 92 404.030305288 L 101 389.344154877 L 110 390.922005747 L 119 428.280659439 L 127 396.517307681 L 136 411.106359577 L 145 375.277007499 L 154 350.832456318 L 163 397.136310715 L 171 371.87855947 L 180 336.049207391 L 189 374.221061147 L 198 382.30451253 L 206 394.453964235 L 215 396.845015169 L 224 351.257262322 L 233 408.132717552 L 242 380.435366114 L 250 381.200016921 L 259 342.117864586 L 268 290.83771129 L 277 325.756764789 L 286 359.04941816 L 294 298.010864094 L 303 271.126712721 L 312 323.122967566 L 321 194.588808179 L 330 220.562660973 L 338 142.446905561 L 347 124.507954893 L 356 138.283806725 L 365 22.760848364 L 373 58.4931019273 L 382 274.755769723 L 391 225.102016555 L 400 33.1382521672 L 409 299.819323938 L 417 318.474376155 L 426 353.393429654 L 435 399.697284051 L 444 415.099536012 L 453 404.479385921 L 461 405.244036727 L 470 418.206688495 L 479 384.816936609 L 488 432.747191134 L 496 384.719838094 L 505 371.660087811 L 514 363.479537912 L 523 429.300193847 L 532 384.525641064 L 540 378.784691357 L 549 375.483341843 L 558 388.445993612 L 567 373.7598432 L 576 422.503297789 L 584 393.992746288 L 593 362.22939453 L 602 388.203247324 L 611 392.220698387 L 620 420.634151373"/>
		</g>
		<text class="x-axis-label" x="40.0" y="540">
			0
		</text>
		<path class="x-notch" d="M 83.9393939394 525 L 83.9393939394 530"/>
		<text class="x-axis-label" x="127.878787879" y="540">
			10
		</text>
		<path class="x-notch" d="M 171.818181818 525 L 171.818181818 530"/>
		<text class="x-axis-label" x="215.757575758" y="540">
			20
		</text>
		<path class="x-notch" d="M 259.696969697 525 L 259.696969697 530"/>
		<text class="x-axis-label" x="303.636363636" y="540">
			30
		</text>
		<path class="x-notch" d="M 347.575757576 525 L 347.575757576 530"/>
		<text class="x-axis-label" x="391.515151515" y="540">
			40
		</text>
		<path class="x-notch" d="M 435.454545455 525 L 435.454545455 530"/>
		<text class="x-axis-label" x="479.393939394" y="540">
			50
		</text>
		<path class="x-notch" d="M 523.333333333 525 L 523.333333333 530"/>
		<text class="x-axis-label" x="567.272727273" y="540">
			60
		</text>
		<path class="x-notch" d="M 611.212121212 525 L 611.212121212 530"/>
	</g>
</svg>
