<?xml version="1.0" ?>
<svg height="600" version="1.1" width="800" xmlns="http://www.w3.org/2000/svg" xmlns:svg="http://www.w3.org/2000/svg">
	<style type="text/css">
		

.x-axis-path, .y-gridline, .x-notch { fill:none; stroke: #a7a9ac; stroke-width:1; }



.y-gridline { stroke-width: 1; }

.y-axis-path, .y-axis-path2, .x-notch-left, .x-notch-right { display: none;}



.x-axis-label, .data-point-label {font-size: 12px; font-weight:normal; font-family: sans-serif; fill: #58595b; text-anchor:middle;}

.y-axis-label {font-size: 12px; font-family: helvetica; fill: #a7a9ac; text-anchor:end;}



.series-1-line { fill: none; stroke: #10b80c; stroke-width:2; }



.series-2-line { fill: none; stroke: #e90f0a; stroke-width: 2;}

	</style>
	<rect fill="white" height="600" width="800" x="0" y="0"/>
	<g id="grid" transform="translate(70, 30)">
		<g class="x-axis" id="x_axis">
			<path class="x-axis-path" d="M 0 525 L 660 525"/>
			<path class="x-notch-left" d="M 0 525, L 0 535"/>
			<path class="x-notch-right" d="M 660 525, L 660 535"/>
		</g>
		<g class="y-axis" id="y_axis">
			<path class="y-axis-path" d="M 0 525 L 0 0"/>
			<path class="y-axis-path-2" d="M 660 525 L 660 0"/>
			<path class="y-gridline" d="M 0 525 L 660 525"/>
			<text class="y-axis-label" x="-5" y="525">
				-200
			</text>
			<path class="y-gridline" d="M 0 394 L 660 394"/>
			<text class="y-axis-label" x="-5" y="394">
				 0
			</text>
			<path class="y-gridline" d="M 0 263 L 660 263"/>
			<text class="y-axis-label" x="-5" y="263">
				200
			</text>
			<path class="y-gridline" d="M 0 132 L 660 132"/>
			<text class="y-axis-label" x="-5" y="132">
				400
			</text>
			<path class="y-gridline" d="M 0 1 L 660 1"/>
			<text class="y-axis-label" x="-5" y="1">
				600
			</text>
		</g>
		<g>
			<path class="series-1-line" d="M 40 410.8595925 L 45 394.802096432 L 51 402.453862864 L 57 374.230541796 L 62 381.478320728 L 68 380.38017466 L 74 390.656678592 L 79 398.392445024 L 85 359.534461456 L 91 396.128690388 L 96 403.27540682 L 102 372.595348252 L 108 359.415377184 L 113 390.776143617 L 119 381.785935049 L 125 356.995326481 L 130 360.827192913 L 136 368.344296845 L 142 318.986313277 L 148 353.039279709 L 153 321.652571141 L 159 329.438737573 L 165 292.734829005 L 170 307.049895437 L 176 240.444349369 L 182 239.665665801 L 187 273.634632233 L 193 228.483473665 L 199 208.959402597 L 204 174.089581529 L 210 169.272597961 L 216 119.863951893 L 221 120.095105825 L 227 125.761059757 L 233 151.451301189 L 239 99.9227051214 L 244 185.432234053 L 250 108.730937985 L 256 150.709566917 L 261 121.14014585 L 267 151.474537282 L 273 147.851928714 L 278 127.200420146 L 284 123.914861578 L 290 84.7539530097 L 295 82.0907819417 L 301 118.549823374 L 307 59.4656898058 L 312 69.0024687379 L 318 87.2550351699 L 324 117.522226602 L 330 87.515218034 L 335 71.575321966 L 341 119.880988398 L 347 109.54441733 L 352 56.5014587621 L 358 31.8791126942 L 364 6.46611662621 L 369 64.5312705583 L 375 47.7335244903 L 381 20.7552409223 L 386 105.188257354 L 392 95.1378112864 L 398 81.8399777184 L 403 46.0781816505 L 409 83.4798605825 L 415 101.547364515 L 420 120.590843447 L 426 195.095847379 L 432 113.059763811 L 438 179.790567743 L 443 180.947559175 L 449 257.606375607 L 455 287.251179539 L 460 391.607420971 L 466 382.718274903 L 472 357.170091335 L 477 380.807845267 L 483 397.159124199 L 489 423.101628131 L 494 411.334957063 L 500 403.303923495 L 506 391.301789927 L 511 400.518318859 L 517 409.061797791 L 523 395.915426723 L 529 399.949418155 L 534 411.639484587 L 540 405.038813519 L 546 400.793817451 L 551 399.628208883 L 557 395.517875316 L 563 396.371416748 L 568 394.59995818 L 574 408.831024612 L 580 398.629378544 L 585 400.795419976 L 591 406.848561408 L 597 403.52914034 L 602 380.269694272 L 608 394.971948204 L 614 397.794239636 L 620 399.573356068"/>
			<path class="series-2-line" d="M 40 391.51875 L 45 387.897269417 L 51 396.744538835 L 57 397.060558252 L 62 392.12657767 L 68 409.505097087 L 74 392.758616505 L 79 388.480885922 L 85 384.20315534 L 91 408.144174757 L 96 393.366444175 L 102 393.026213592 L 108 401.21723301 L 113 396.939502427 L 119 391.349271845 L 125 393.634041262 L 130 384.10631068 L 136 388.359830097 L 142 384.082099515 L 148 369.304368932 L 153 376.83913835 L 159 364.686407767 L 165 382.721177184 L 170 375.818446602 L 176 374.821966019 L 182 367.919235437 L 187 366.266504854 L 193 371.176274272 L 199 345.242293689 L 204 358.683313107 L 210 367.530582524 L 216 345.534101942 L 221 360.287621359 L 227 346.166140777 L 233 356.325910194 L 239 357.954429612 L 244 326.770449029 L 250 365.148968447 L 256 368.089987864 L 261 373.656007282 L 267 375.940776699 L 273 351.975546117 L 278 322.760315534 L 284 348.670084951 L 290 340.454854369 L 295 346.020873786 L 301 314.180643204 L 307 291.527912621 L 312 339.093932039 L 318 332.191201456 L 324 344.975970874 L 330 342.010740291 L 335 320.014259709 L 341 334.111529126 L 347 308.177548544 L 352 315.712317961 L 358 317.340837379 L 364 339.969356796 L 369 341.597876214 L 375 351.101395631 L 381 336.323665049 L 386 345.170934466 L 392 325.799453883 L 398 326.771723301 L 403 325.775242718 L 409 326.091262136 L 415 322.469781553 L 420 320.160800971 L 426 316.539320388 L 432 291.261589806 L 438 271.890109223 L 443 321.424878641 L 449 314.522148058 L 455 347.650667476 L 460 370.935436893 L 466 375.188956311 L 472 342.036225728 L 477 390.914745146 L 483 399.105764563 L 489 395.484283981 L 494 387.925303398 L 500 386.272572816 L 506 389.869842233 L 511 384.93586165 L 517 382.626881068 L 523 385.567900485 L 529 395.727669903 L 534 388.82493932 L 540 394.390958738 L 546 390.769478155 L 551 393.054247573 L 557 394.02651699 L 563 388.436286408 L 568 382.846055825 L 574 389.068325243 L 580 393.32184466 L 585 387.731614078 L 591 390.016383495 L 597 395.582402913 L 602 389.33592233 L 608 398.839441748 L 614 393.249211165 L 620 396.846480583"/>
		</g>
		<text class="x-axis-label" x="40.0" y="540">
			0
		</text>
		<path class="x-notch" d="M 68.431372549 525 L 68.431372549 530"/>
		<text class="x-axis-label" x="96.862745098" y="540">
			10
		</text>
		<path class="x-notch" d="M 125.294117647 525 L 125.294117647 530"/>
		<text class="x-axis-label" x="153.725490196" y="540">
			20
		</text>
		<path class="x-notch" d="M 182.156862745 525 L 182.156862745 530"/>
		<text class="x-axis-label" x="210.588235294" y="540">
			30
		</text>
		<path class="x-notch" d="M 239.019607843 525 L 239.019607843 530"/>
		<text class="x-axis-label" x="267.450980392" y="540">
			40
		</text>
		<path class="x-notch" d="M 295.882352941 525 L 295.882352941 530"/>
		<text class="x-axis-label" x="324.31372549" y="540">
			50
		</text>
		<path class="x-notch" d="M 352.745098039 525 L 352.745098039 530"/>
		<text class="x-axis-label" x="381.176470588" y="540">
			60
		</text>
		<path class="x-notch" d="M 409.607843137 525 L 409.607843137 530"/>
		<text class="x-axis-label" x="438.039215686" y="540">
			70
		</text>
		<path class="x-notch" d="M 466.470588235 525 L 466.470588235 530"/>
		<text class="x-axis-label" x="494.901960784" y="540">
			80
		</text>
		<path class="x-notch" d="M 523.333333333 525 L 523.333333333 530"/>
		<text class="x-axis-label" x="551.764705882" y="540">
			90
		</text>
		<path class="x-notch" d="M 580.196078431 525 L 580.196078431 530"/>
		<text class="x-axis-label" x="608.62745098" y="540">
			100
		</text>
		<path class="x-notch" d="M 637.058823529 525 L 637.058823529 530"/>
	</g>
</svg>
