<?xml version="1.0" ?>
<svg height="600" version="1.1" width="800" xmlns="http://www.w3.org/2000/svg" xmlns:svg="http://www.w3.org/2000/svg">
	<style type="text/css">

.x-axis-path, .y-gridline, .x-notch { fill:none; stroke: #a7a9ac; stroke-width:1; }



.y-gridline { stroke-width: 1; }

.y-axis-path, .y-axis-path2, .x-notch-left, .x-notch-right { display: none;}



.x-axis-label, .data-point-label {font-size: 12px; font-weight:normal; font-family: sans-serif; fill: #58595b; text-anchor:middle;}

.y-axis-label {font-size: 12px; font-family: helvetica; fill: #a7a9ac; text-anchor:end;}



.series-1-line { fill: none; stroke: #10b80c; stroke-width:2; }



.series-2-line { fill: none; stroke: #e90f0a; stroke-width: 2;}
</style>
	<rect fill="white" height="600" width="800" x="0" y="0"/>
	<g id="grid" transform="translate(70, 30)">
		<g class="x-axis" id="x_axis">
			<path class="x-axis-path" d="M 0 525 L 660 525"/>
			<path class="x-notch-left" d="M 0 525, L 0 535"/>
			<path class="x-notch-right" d="M 660 525, L 660 535"/>
		</g>
		<g class="y-axis" id="y_axis">
			<path class="y-axis-path" d="M 0 525 L 0 0"/>
			<path class="y-axis-path-2" d="M 660 525 L 660 0"/>
			<path class="y-gridline" d="M 0 525 L 660 525"/>
			<text class="y-axis-label" x="-5" y="525">-200</text>
			<path class="y-gridline" d="M 0 394 L 660 394"/>
			<text class="y-axis-label" x="-5" y="394"> 0</text>
			<path class="y-gridline" d="M 0 263 L 660 263"/>
			<text class="y-axis-label" x="-5" y="263">200</text>
			<path class="y-gridline" d="M 0 132 L 660 132"/>
			<text class="y-axis-label" x="-5" y="132">400</text>
			<path class="y-gridline" d="M 0 1 L 660 1"/>
			<text class="y-axis-label" x="-5" y="1">600</text>
		</g>
		<g>
			<path class="series-1-line" d="M 40 396.560404269 L 46 400.762965338 L 52 388.196271634 L 59 384.94446756 L 65 397.349393433 L 72 397.198097816 L 78 384.40141915 L 85 390.22135495 L 91 386.342926628 L 98 374.97183558 L 104 383.579217047 L 110 381.848944014 L 117 371.359993899 L 123 369.399536438 L 130 361.934599347 L 136 362.173360619 L 143 350.022255526 L 149 332.890868964 L 156 322.57455717 L 162 296.30730223 L 168 266.408758274 L 175 283.698022192 L 181 254.285378816 L 188 207.336033015 L 194 231.664372665 L 201 172.011997974 L 207 168.54905853 L 214 166.435211272 L 220 104.487674425 L 226 53.031281607 L 233 54.0946377042 L 239 92.0980068687 L 246 0.0 L 252 78.5489400587 L 259 92.731412323 L 265 65.3387669613 L 272 27.1930779565 L 278 59.1354557441 L 284 42.5859131845 L 291 82.769053091 L 297 120.714676682 L 304 131.310241244 L 310 169.607524408 L 317 114.391884766 L 323 160.942795644 L 330 160.957954884 L 336 188.507978936 L 342 146.8397102 L 349 179.178228607 L 355 156.011581857 L 362 177.296560225 L 368 180.604214501 L 375 230.333026866 L 381 284.057154748 L 388 309.913508104 L 394 350.096747743 L 400 381.77094272 L 407 378.442344014 L 413 384.102606821 L 420 386.035437723 L 426 384.509717664 L 433 385.177032875 L 439 398.393987178 L 446 395.589786101 L 452 387.849884335 L 458 400.209930228 L 465 408.273964741 L 471 396.659823671 L 478 404.985957265 L 484 405.256832656 L 491 395.304846563 L 497 401.783420997 L 504 403.492749601 L 510 396.085258883 L 516 396.573453109 L 523 399.989716936 L 529 402.35728524 L 536 389.534975119 L 542 401.454199879 L 549 395.951814429 L 555 404.373791713 L 562 399.958399369 L 568 400.983557616 L 574 397.936306516 L 581 399.229946776 L 587 400.542735826 L 594 395.551982143 L 600 397.753494523 L 607 393.254924616 L 613 400.506830966 L 620 383.087514402"/>
			<path class="series-2-line" d="M 40 390.957467937 L 46 391.653956997 L 52 392.599779278 L 59 399.030932397 L 65 393.992757399 L 72 383.469251562 L 78 400.871066359 L 85 392.342226281 L 91 389.548050263 L 98 398.472535581 L 104 392.686360923 L 110 395.128182523 L 117 392.832672945 L 123 392.282495905 L 130 394.724317506 L 136 391.431475047 L 143 395.618629187 L 149 398.808450447 L 156 398.756939848 L 162 397.708096368 L 168 399.152585089 L 175 390.623745011 L 181 394.062899491 L 188 371.571399097 L 194 383.238549835 L 201 378.200374837 L 207 368.9235351 L 214 372.86135602 L 220 366.077848482 L 226 356.302342305 L 233 341.041505289 L 239 358.692653306 L 246 319.745160395 L 252 352.356301609 L 259 371.503448945 L 265 351.50528075 L 272 355.94176811 L 278 346.664928373 L 284 356.337413351 L 291 345.065907855 L 297 342.521065056 L 304 328.0082277 L 310 328.95404998 L 317 312.446546865 L 323 319.127033204 L 330 331.292850382 L 336 297.33202187 L 342 306.755173629 L 349 274.539677657 L 355 266.2601708 L 362 256.733997843 L 368 270.64514756 L 375 326.194945008 L 381 341.851427265 L 388 358.255909182 L 394 356.708399263 L 400 379.595544899 L 407 378.54670142 L 413 385.227187759 L 420 370.465017183 L 426 370.164173364 L 433 387.56598816 L 439 392.00247552 L 446 406.412291677 L 452 403.119449219 L 458 385.614613224 L 465 386.809768724 L 471 385.012925585 L 478 384.213415326 L 484 395.381899624 L 491 387.102392767 L 497 392.536213006 L 504 402.956697645 L 510 396.422523327 L 516 402.853676446 L 523 409.534162785 L 529 395.021325429 L 536 406.688476167 L 542 419.103626565 L 549 407.084121409 L 555 401.048613531 L 562 404.238434791 L 568 404.685590631 L 574 408.374078331 L 581 405.829235532 L 587 400.292394094 L 594 405.726214334 L 600 407.420036274 L 607 404.127193816 L 613 386.12369138 L 620 366.125523186"/>
		</g>
		<text class="x-axis-label" x="40.0" y="540">0</text>
		<path class="x-notch" d="M 72.2222222222 525 L 72.2222222222 530"/>
		<text class="x-axis-label" x="104.444444444" y="540">10</text>
		<path class="x-notch" d="M 136.666666667 525 L 136.666666667 530"/>
		<text class="x-axis-label" x="168.888888889" y="540">20</text>
		<path class="x-notch" d="M 201.111111111 525 L 201.111111111 530"/>
		<text class="x-axis-label" x="233.333333333" y="540">30</text>
		<path class="x-notch" d="M 265.555555556 525 L 265.555555556 530"/>
		<text class="x-axis-label" x="297.777777778" y="540">40</text>
		<path class="x-notch" d="M 330.0 525 L 330.0 530"/>
		<text class="x-axis-label" x="362.222222222" y="540">50</text>
		<path class="x-notch" d="M 394.444444444 525 L 394.444444444 530"/>
		<text class="x-axis-label" x="426.666666667" y="540">60</text>
		<path class="x-notch" d="M 458.888888889 525 L 458.888888889 530"/>
		<text class="x-axis-label" x="491.111111111" y="540">70</text>
		<path class="x-notch" d="M 523.333333333 525 L 523.333333333 530"/>
		<text class="x-axis-label" x="555.555555556" y="540">80</text>
		<path class="x-notch" d="M 587.777777778 525 L 587.777777778 530"/>
		<text class="x-axis-label" x="620.0" y="540">90</text>
	</g>
</svg>
