<?xml version="1.0" ?>
<svg height="600" version="1.1" width="800" xmlns="http://www.w3.org/2000/svg" xmlns:svg="http://www.w3.org/2000/svg">
	<style type="text/css">

.x-axis-path, .y-gridline, .x-notch { fill:none; stroke: #a7a9ac; stroke-width:1; }



.y-gridline { stroke-width: 1; }

.y-axis-path, .y-axis-path2, .x-notch-left, .x-notch-right { display: none;}



.x-axis-label, .data-point-label {font-size: 12px; font-weight:normal; font-family: sans-serif; fill: #58595b; text-anchor:middle;}

.y-axis-label {font-size: 12px; font-family: helvetica; fill: #a7a9ac; text-anchor:end;}



.series-1-line { fill: none; stroke: #10b80c; stroke-width:2; }



.series-2-line { fill: none; stroke: #e90f0a; stroke-width: 2;}
</style>
	<rect fill="white" height="600" width="800" x="0" y="0"/>
	<g id="grid" transform="translate(70, 30)">
		<g class="x-axis" id="x_axis">
			<path class="x-axis-path" d="M 0 525 L 660 525"/>
			<path class="x-notch-left" d="M 0 525, L 0 535"/>
			<path class="x-notch-right" d="M 660 525, L 660 535"/>
		</g>
		<g class="y-axis" id="y_axis">
			<path class="y-axis-path" d="M 0 525 L 0 0"/>
			<path class="y-axis-path-2" d="M 660 525 L 660 0"/>
			<path class="y-gridline" d="M 0 525 L 660 525"/>
			<text class="y-axis-label" x="-5" y="525">-200</text>
			<path class="y-gridline" d="M 0 420 L 660 420"/>
			<text class="y-axis-label" x="-5" y="420"> 0</text>
			<path class="y-gridline" d="M 0 315 L 660 315"/>
			<text class="y-axis-label" x="-5" y="315">200</text>
			<path class="y-gridline" d="M 0 210 L 660 210"/>
			<text class="y-axis-label" x="-5" y="210">400</text>
			<path class="y-gridline" d="M 0 105 L 660 105"/>
			<text class="y-axis-label" x="-5" y="105">600</text>
			<path class="y-gridline" d="M 0 0 L 660 0"/>
			<text class="y-axis-label" x="-5" y="0">800</text>
		</g>
		<g>
			<path class="series-1-line" d="M 40 422.407400021 L 46 428.312969587 L 53 424.989446367 L 60 395.2740912 L 66 426.771168737 L 73 417.777378034 L 80 425.283595553 L 86 415.626011416 L 93 368.151060806 L 100 419.093115674 L 106 404.923383051 L 113 436.726990248 L 120 386.153274451 L 126 412.950938847 L 133 431.354099881 L 140 408.125804839 L 146 388.967394949 L 153 428.875710136 L 160 383.614466802 L 166 364.234261187 L 173 408.041931161 L 180 389.922109638 L 186 381.286113956 L 193 390.954507767 L 200 381.908654834 L 206 355.344392708 L 213 356.10748893 L 220 326.834397096 L 226 303.078307914 L 233 307.025434506 L 240 310.138237299 L 246 278.106909762 L 253 301.618278692 L 260 269.297421406 L 266 272.937752714 L 273 283.644469268 L 280 235.386460217 L 286 273.370863501 L 293 214.998703753 L 300 219.286094207 L 306 219.351131547 L 313 218.088050772 L 320 212.602085636 L 326 168.362430756 L 333 105.0 L 340 171.811206985 L 346 203.904343931 L 353 233.614571355 L 360 265.026118085 L 366 274.09951498 L 373 260.235515147 L 380 338.881051413 L 386 364.793657897 L 393 386.617254326 L 400 387.022289904 L 406 374.420267905 L 413 419.676117872 L 420 367.074631336 L 426 422.119508687 L 433 437.390967204 L 440 442.274151445 L 446 424.529921725 L 453 380.546593642 L 460 439.015093871 L 466 459.44283816 L 473 401.702065764 L 480 415.06581542 L 486 438.083921283 L 493 429.788455085 L 500 415.176193506 L 506 417.880201542 L 513 426.271476973 L 520 408.968979339 L 526 450.358943095 L 533 424.542677092 L 540 439.472012383 L 546 412.225628793 L 553 432.501701994 L 560 433.622593236 L 566 426.399980852 L 573 425.443164115 L 580 449.244062795 L 586 418.489853638 L 593 423.680098786 L 600 415.112102751 L 606 402.23648842 L 613 431.962653261 L 620 430.376042913"/>
			<path class="series-2-line" d="M 40 396.625121164 L 46 424.043214127 L 53 414.938058909 L 60 431.067147889 L 66 428.602583249 L 73 397.583479123 L 80 434.298398895 L 86 429.177598024 L 93 418.744324691 L 100 412.959464762 L 106 412.487077296 L 113 414.006867003 L 120 420.839129173 L 126 426.343273227 L 133 420.558413299 L 140 408.797021849 L 146 435.551055754 L 153 415.820955611 L 160 422.653217781 L 166 406.243412927 L 173 399.79449394 L 180 419.907937267 L 186 410.802782049 L 193 420.955339508 L 200 294.311731055 L 206 414.698092113 L 213 415.553822763 L 220 388.519072984 L 226 381.406094939 L 233 377.613412184 L 240 374.484788486 L 246 363.387456095 L 253 363.579127687 L 260 345.841204717 L 266 312.165864359 L 273 289.779527985 L 280 297.939908271 L 286 293.483166457 L 293 299.65136957 L 300 268.632265443 L 306 274.800468555 L 313 280.968671668 L 320 272.527575508 L 326 275.375483331 L 333 153.380288282 L 340 132.322070023 L 346 140.482450309 L 353 235.63456717 L 360 194.654577176 L 366 297.775402731 L 373 223.592459846 L 380 247.026198462 L 386 287.061413523 L 393 84.0510134193 L 400 37.0944919051 L 406 154.824616733 L 413 233.375257148 L 420 90.1301722487 L 426 13.9550521901 L 433 134.341413249 L 440 88.0489507924 L 446 205.115016562 L 453 297.610897192 L 460 334.989876022 L 466 168.502724099 L 473 309.47491595 L 480 364.783489342 L 486 416.107708386 L 493 405.674435052 L 500 422.46758309 L 506 405.393719178 L 513 407.577567943 L 520 429.683188443 L 526 437.843568729 L 533 441.35553561 L 540 407.680195252 L 546 427.129579521 L 553 414.040069956 L 560 436.809749514 L 566 440.321716395 L 573 424.575970598 L 580 431.408232768 L 586 428.279609071 L 593 437.768107472 L 600 418.038007329 L 606 422.878092326 L 613 411.780759934 L 620 416.620844931"/>
		</g>
		<text class="x-axis-label" x="40.0" y="540">0</text>
		<path class="x-notch" d="M 73.3333333333 525 L 73.3333333333 530"/>
		<text class="x-axis-label" x="106.666666667" y="540">10</text>
		<path class="x-notch" d="M 140.0 525 L 140.0 530"/>
		<text class="x-axis-label" x="173.333333333" y="540">20</text>
		<path class="x-notch" d="M 206.666666667 525 L 206.666666667 530"/>
		<text class="x-axis-label" x="240.0" y="540">30</text>
		<path class="x-notch" d="M 273.333333333 525 L 273.333333333 530"/>
		<text class="x-axis-label" x="306.666666667" y="540">40</text>
		<path class="x-notch" d="M 340.0 525 L 340.0 530"/>
		<text class="x-axis-label" x="373.333333333" y="540">50</text>
		<path class="x-notch" d="M 406.666666667 525 L 406.666666667 530"/>
		<text class="x-axis-label" x="440.0" y="540">60</text>
		<path class="x-notch" d="M 473.333333333 525 L 473.333333333 530"/>
		<text class="x-axis-label" x="506.666666667" y="540">70</text>
		<path class="x-notch" d="M 540.0 525 L 540.0 530"/>
		<text class="x-axis-label" x="573.333333333" y="540">80</text>
		<path class="x-notch" d="M 606.666666667 525 L 606.666666667 530"/>
	</g>
</svg>
