<?xml version="1.0" ?>
<svg height="600" version="1.1" width="800" xmlns="http://www.w3.org/2000/svg" xmlns:svg="http://www.w3.org/2000/svg">
	<style type="text/css">

.x-axis-path, .y-gridline, .x-notch { fill:none; stroke: #a7a9ac; stroke-width:1; }



.y-gridline { stroke-width: 1; }

.y-axis-path, .y-axis-path2, .x-notch-left, .x-notch-right { display: none;}



.x-axis-label, .data-point-label {font-size: 12px; font-weight:normal; font-family: sans-serif; fill: #58595b; text-anchor:middle;}

.y-axis-label {font-size: 12px; font-family: helvetica; fill: #a7a9ac; text-anchor:end;}



.series-1-line { fill: none; stroke: #10b80c; stroke-width:2; }



.series-2-line { fill: none; stroke: #e90f0a; stroke-width: 2;}
</style>
	<rect fill="white" height="600" width="800" x="0" y="0"/>
	<g id="grid" transform="translate(70, 30)">
		<g class="x-axis" id="x_axis">
			<path class="x-axis-path" d="M 0 525 L 660 525"/>
			<path class="x-notch-left" d="M 0 525, L 0 535"/>
			<path class="x-notch-right" d="M 660 525, L 660 535"/>
		</g>
		<g class="y-axis" id="y_axis">
			<path class="y-axis-path" d="M 0 525 L 0 0"/>
			<path class="y-axis-path-2" d="M 660 525 L 660 0"/>
			<path class="y-gridline" d="M 0 525 L 660 525"/>
			<text class="y-axis-label" x="-5" y="525">-200</text>
			<path class="y-gridline" d="M 0 394 L 660 394"/>
			<text class="y-axis-label" x="-5" y="394"> 0</text>
			<path class="y-gridline" d="M 0 263 L 660 263"/>
			<text class="y-axis-label" x="-5" y="263">200</text>
			<path class="y-gridline" d="M 0 132 L 660 132"/>
			<text class="y-axis-label" x="-5" y="132">400</text>
			<path class="y-gridline" d="M 0 1 L 660 1"/>
			<text class="y-axis-label" x="-5" y="1">600</text>
		</g>
		<g>
			<path class="series-1-line" d="M 40 411.736018494 L 46 410.40140292 L 53 358.095756742 L 60 388.085086281 L 66 396.81775571 L 73 387.250198063 L 80 386.963528243 L 86 423.502080883 L 93 390.656699783 L 100 368.252828325 L 106 353.146045434 L 113 397.319131013 L 120 396.284011913 L 126 392.816724563 L 133 440.469924146 L 140 347.634173193 L 146 369.240520515 L 153 377.673693469 L 160 364.027028868 L 166 375.005046135 L 173 349.045748693 L 180 335.211679865 L 186 256.709141282 L 193 292.162384086 L 200 245.769603978 L 206 245.033981353 L 213 209.231583404 L 220 204.903754527 L 226 145.973573269 L 233 143.927872498 L 240 119.01652081 L 246 116.858727791 L 253 87.3066402829 L 260 42.4107587337 L 266 103.01294819 L 273 44.5323035501 L 280 68.4213627929 L 286 81.1584110103 L 293 11.8993961714 L 300 37.1358976426 L 306 153.948846472 L 313 4.30275938282 L 320 76.918085205 L 326 54.6263059948 L 333 0.0 L 340 75.3107940927 L 346 92.9121788123 L 353 112.385270544 L 360 173.062188165 L 366 230.109535451 L 373 188.095358771 L 380 300.155479532 L 386 336.394535698 L 393 364.176465296 L 400 389.750411138 L 406 399.044125619 L 413 377.912968225 L 420 392.89536428 L 426 390.737571262 L 433 407.478998268 L 440 387.133070421 L 446 388.754887882 L 453 400.182441767 L 460 391.587517895 L 466 411.285377936 L 473 385.662941052 L 480 391.177045053 L 486 388.233438673 L 493 407.856570549 L 500 388.558588456 L 506 391.902072785 L 513 416.726985534 L 520 402.369235736 L 526 408.743881265 L 533 402.881205932 L 540 406.000505766 L 546 387.825197592 L 553 372.79372668 L 560 411.278130684 L 566 402.982703286 L 573 413.511767748 L 580 411.878239514 L 586 396.808820705 L 593 420.024742648 L 600 370.37603303 L 606 398.382147123 L 613 371.561724341 L 620 413.826322638"/>
			<path class="series-2-line" d="M 40 399.8800448 L 46 380.750191791 L 53 401.027769638 L 60 390.655123486 L 66 394.877822095 L 73 407.857727562 L 80 396.025546933 L 86 388.571969733 L 93 389.875599391 L 100 413.07224619 L 106 379.347048419 L 113 376.272074648 L 120 367.358962972 L 126 396.393747676 L 133 362.668549906 L 140 387.324731181 L 146 375.492550553 L 153 369.498507829 L 160 392.695154629 L 166 388.160646381 L 173 396.761948419 L 180 392.227440171 L 186 400.828742209 L 193 391.915630533 L 200 400.516932571 L 206 401.820562228 L 213 352.04048522 L 220 401.50875259 L 226 373.621692724 L 233 351.572770763 L 240 367.471745182 L 246 362.937236934 L 253 362.781332115 L 260 365.544496248 L 266 361.009988001 L 273 376.90896242 L 280 350.48143703 L 286 356.163670115 L 293 345.791023963 L 300 336.877912287 L 306 329.424335087 L 313 279.644258079 L 320 279.48835326 L 326 285.170586346 L 333 268.959802289 L 340 360.754569468 L 346 290.541009793 L 353 269.951622308 L 360 253.740838251 L 366 291.532829812 L 373 300.13413185 L 380 294.140089127 L 386 276.469770594 L 393 325.938037964 L 400 378.325374286 L 406 351.897848896 L 413 404.285185219 L 420 401.210211447 L 426 396.6757032 L 433 403.817470762 L 440 390.525755657 L 446 365.557764744 L 453 404.809290781 L 460 379.841299867 L 466 381.144929524 L 473 394.12483499 L 480 388.130792267 L 486 392.353490876 L 493 405.333396343 L 500 399.339353619 L 506 390.426241943 L 513 388.810802648 L 520 409.088380495 L 526 382.660855105 L 533 386.883553714 L 540 412.999269466 L 546 402.626623314 L 553 414.146994304 L 560 387.719468914 L 566 372.968219334 L 573 381.569521372 L 580 409.1447716 L 586 369.581435924 L 593 391.318548248 L 600 395.541246857 L 606 409.9806868 L 613 382.093626934 L 620 392.154463448"/>
		</g>
		<text class="x-axis-label" x="40.0" y="540">0</text>
		<path class="x-notch" d="M 73.3333333333 525 L 73.3333333333 530"/>
		<text class="x-axis-label" x="106.666666667" y="540">10</text>
		<path class="x-notch" d="M 140.0 525 L 140.0 530"/>
		<text class="x-axis-label" x="173.333333333" y="540">20</text>
		<path class="x-notch" d="M 206.666666667 525 L 206.666666667 530"/>
		<text class="x-axis-label" x="240.0" y="540">30</text>
		<path class="x-notch" d="M 273.333333333 525 L 273.333333333 530"/>
		<text class="x-axis-label" x="306.666666667" y="540">40</text>
		<path class="x-notch" d="M 340.0 525 L 340.0 530"/>
		<text class="x-axis-label" x="373.333333333" y="540">50</text>
		<path class="x-notch" d="M 406.666666667 525 L 406.666666667 530"/>
		<text class="x-axis-label" x="440.0" y="540">60</text>
		<path class="x-notch" d="M 473.333333333 525 L 473.333333333 530"/>
		<text class="x-axis-label" x="506.666666667" y="540">70</text>
		<path class="x-notch" d="M 540.0 525 L 540.0 530"/>
		<text class="x-axis-label" x="573.333333333" y="540">80</text>
		<path class="x-notch" d="M 606.666666667 525 L 606.666666667 530"/>
	</g>
</svg>
