<?xml version="1.0" ?>
<svg height="600" version="1.1" width="800" xmlns="http://www.w3.org/2000/svg" xmlns:svg="http://www.w3.org/2000/svg">
	<style type="text/css">

.x-axis-path, .y-gridline, .x-notch { fill:none; stroke: #a7a9ac; stroke-width:1; }



.y-gridline { stroke-width: 1; }

.y-axis-path, .y-axis-path2, .x-notch-left, .x-notch-right { display: none;}



.x-axis-label, .data-point-label {font-size: 12px; font-weight:normal; font-family: sans-serif; fill: #58595b; text-anchor:middle;}

.y-axis-label {font-size: 12px; font-family: helvetica; fill: #a7a9ac; text-anchor:end;}



.series-1-line { fill: none; stroke: #10b80c; stroke-width:2; }



.series-2-line { fill: none; stroke: #e90f0a; stroke-width: 2;}
</style>
	<rect fill="white" height="600" width="800" x="0" y="0"/>
	<g id="grid" transform="translate(70, 30)">
		<g class="x-axis" id="x_axis">
			<path class="x-axis-path" d="M 0 525 L 660 525"/>
			<path class="x-notch-left" d="M 0 525, L 0 535"/>
			<path class="x-notch-right" d="M 660 525, L 660 535"/>
		</g>
		<g class="y-axis" id="y_axis">
			<path class="y-axis-path" d="M 0 525 L 0 0"/>
			<path class="y-axis-path-2" d="M 660 525 L 660 0"/>
			<path class="y-gridline" d="M 0 525 L 660 525"/>
			<text class="y-axis-label" x="-5" y="525">-200</text>
			<path class="y-gridline" d="M 0 394 L 660 394"/>
			<text class="y-axis-label" x="-5" y="394"> 0</text>
			<path class="y-gridline" d="M 0 263 L 660 263"/>
			<text class="y-axis-label" x="-5" y="263">200</text>
			<path class="y-gridline" d="M 0 132 L 660 132"/>
			<text class="y-axis-label" x="-5" y="132">400</text>
			<path class="y-gridline" d="M 0 1 L 660 1"/>
			<text class="y-axis-label" x="-5" y="1">600</text>
		</g>
		<g>
			<path class="series-1-line" d="M 40 394.815224021 L 49 392.543805911 L 59 397.937710791 L 69 398.753673064 L 79 385.644728891 L 89 381.102876338 L 98 380.815481619 L 108 390.543370777 L 118 389.645914726 L 128 386.923570924 L 138 388.646680827 L 148 382.051870931 L 157 373.070026428 L 167 377.238595151 L 177 371.052258226 L 187 373.841568644 L 197 323.344851871 L 207 305.11683771 L 216 260.136988649 L 226 256.27951038 L 236 227.569232405 L 246 185.246940265 L 256 156.271436223 L 266 144.159675861 L 275 99.4133581455 L 285 92.7124578228 L 295 78.5105836424 L 305 41.6153712956 L 315 53.5924271584 L 325 81.0274871666 L 334 36.9547857352 L 344 66.4216181024 L 354 0.0 L 364 64.9978569872 L 374 77.6541563952 L 384 86.1247664128 L 393 116.132726161 L 403 167.073270553 L 413 164.520737637 L 423 172.731417833 L 433 220.520695876 L 443 228.137286231 L 452 265.349050786 L 462 302.529120619 L 472 368.105013201 L 482 349.839925318 L 492 364.103552623 L 502 375.831188402 L 511 389.155890602 L 521 387.908385794 L 531 386.469802362 L 541 390.739165267 L 551 388.764916208 L 561 399.643994079 L 570 396.741329652 L 580 392.528423626 L 590 396.272547888 L 600 389.370141957 L 610 392.955213332 L 620 396.205959181"/>
			<path class="series-2-line" d="M 40 397.018776807 L 49 395.105783798 L 59 391.537713924 L 69 392.107336212 L 79 394.538919972 L 89 391.798388531 L 98 395.057510723 L 108 393.144517714 L 118 394.748563042 L 128 390.559839344 L 138 394.853384576 L 148 389.630237838 L 157 393.716898463 L 167 395.734713007 L 177 391.339104701 L 187 390.66741934 L 197 392.06458006 L 207 394.289279212 L 216 390.307440122 L 226 393.773446922 L 236 385.240146455 L 246 370.086538529 L 256 362.587661102 L 266 354.675014459 L 275 362.692482637 L 285 357.883105115 L 295 345.212112486 L 305 362.953157243 L 315 357.109356681 L 325 352.299979159 L 334 352.042063014 L 344 353.025454518 L 354 345.52657709 L 364 338.648353488 L 374 355.975629029 L 384 348.476751602 L 393 353.804719875 L 403 369.476918551 L 413 371.080963879 L 423 363.78897106 L 433 354.635016768 L 443 351.273831503 L 452 354.326069087 L 462 370.412036979 L 472 345.948621691 L 482 353.966089869 L 492 370.672711586 L 502 355.312219052 L 511 373.260148417 L 521 381.070731987 L 531 378.330200545 L 541 380.761784306 L 551 388.986137092 L 561 393.072797716 L 570 392.814881572 L 580 395.246465332 L 590 390.850857026 L 600 393.282440786 L 610 397.575986019 L 620 389.456454767"/>
		</g>
		<text class="x-axis-label" x="40.0" y="540">0</text>
		<path class="x-notch" d="M 89.1525423729 525 L 89.1525423729 530"/>
		<text class="x-axis-label" x="138.305084746" y="540">10</text>
		<path class="x-notch" d="M 187.457627119 525 L 187.457627119 530"/>
		<text class="x-axis-label" x="236.610169492" y="540">20</text>
		<path class="x-notch" d="M 285.762711864 525 L 285.762711864 530"/>
		<text class="x-axis-label" x="334.915254237" y="540">30</text>
		<path class="x-notch" d="M 384.06779661 525 L 384.06779661 530"/>
		<text class="x-axis-label" x="433.220338983" y="540">40</text>
		<path class="x-notch" d="M 482.372881356 525 L 482.372881356 530"/>
		<text class="x-axis-label" x="531.525423729" y="540">50</text>
		<path class="x-notch" d="M 580.677966102 525 L 580.677966102 530"/>
	</g>
</svg>
