<?xml version="1.0" ?>
<svg height="600" version="1.1" width="800" xmlns="http://www.w3.org/2000/svg" xmlns:svg="http://www.w3.org/2000/svg">
	<style type="text/css">
		

.x-axis-path, .y-gridline, .x-notch { fill:none; stroke: #a7a9ac; stroke-width:1; }



.y-gridline { stroke-width: 1; }

.y-axis-path, .y-axis-path2, .x-notch-left, .x-notch-right { display: none;}



.x-axis-label, .data-point-label {font-size: 12px; font-weight:normal; font-family: sans-serif; fill: #58595b; text-anchor:middle;}

.y-axis-label {font-size: 12px; font-family: helvetica; fill: #a7a9ac; text-anchor:end;}



.series-1-line { fill: none; stroke: #10b80c; stroke-width:2; }



.series-2-line { fill: none; stroke: #e90f0a; stroke-width: 2;}

	</style>
	<rect fill="white" height="600" width="800" x="0" y="0"/>
	<g id="grid" transform="translate(70, 30)">
		<g class="x-axis" id="x_axis">
			<path class="x-axis-path" d="M 0 525 L 660 525"/>
			<path class="x-notch-left" d="M 0 525, L 0 535"/>
			<path class="x-notch-right" d="M 660 525, L 660 535"/>
		</g>
		<g class="y-axis" id="y_axis">
			<path class="y-axis-path" d="M 0 525 L 0 0"/>
			<path class="y-axis-path-2" d="M 660 525 L 660 0"/>
			<path class="y-gridline" d="M 0 525 L 660 525"/>
			<text class="y-axis-label" x="-5" y="525">
				-100
			</text>
			<path class="y-gridline" d="M 0 438 L 660 438"/>
			<text class="y-axis-label" x="-5" y="438">
				 0
			</text>
			<path class="y-gridline" d="M 0 351 L 660 351"/>
			<text class="y-axis-label" x="-5" y="351">
				100
			</text>
			<path class="y-gridline" d="M 0 264 L 660 264"/>
			<text class="y-axis-label" x="-5" y="264">
				200
			</text>
			<path class="y-gridline" d="M 0 177 L 660 177"/>
			<text class="y-axis-label" x="-5" y="177">
				300
			</text>
			<path class="y-gridline" d="M 0 90 L 660 90"/>
			<text class="y-axis-label" x="-5" y="90">
				400
			</text>
			<path class="y-gridline" d="M 0 3 L 660 3"/>
			<text class="y-axis-label" x="-5" y="3">
				500
			</text>
		</g>
		<g>
			<path class="series-1-line" d="M 40 450.51279 L 46 412.626972414 L 53 424.930104828 L 60 450.358237241 L 66 447.135719655 L 73 436.688852069 L 80 429.853984483 L 87 481.935666897 L 93 443.78069931 L 100 437.305281724 L 107 451.178514138 L 114 444.882646552 L 120 443.163378966 L 127 452.684011379 L 134 443.493643793 L 141 407.515326207 L 147 425.763558621 L 154 412.849191034 L 161 425.982173448 L 168 399.718455862 L 174 394.140088276 L 181 402.67407069 L 188 394.919403103 L 195 417.071885517 L 201 419.054217931 L 208 354.559650345 L 215 333.366382759 L 222 294.403615172 L 228 274.107397586 L 235 237.88163 L 242 281.505212414 L 249 232.939844828 L 255 125.524777241 L 262 189.475659655 L 269 254.345642069 L 276 176.838424483 L 282 182.814256897 L 289 186.47938931 L 296 217.583471724 L 303 193.271004138 L 309 150.673486552 L 316 159.544168966 L 323 174.897551379 L 330 169.005583793 L 336 209.017866207 L 343 166.958298621 L 350 59.9922810345 L 356 151.089863448 L 363 142.236195862 L 370 154.045828276 L 377 215.79731069 L 383 234.562493103 L 390 214.938975517 L 397 255.175257931 L 404 195.100840345 L 410 373.385172759 L 417 403.547755172 L 424 457.985987586 L 431 449.15367 L 437 427.534802414 L 444 452.042784828 L 451 430.669967241 L 458 412.392549655 L 464 442.645082069 L 471 461.432314483 L 478 434.966296897 L 485 463.01942931 L 491 467.110861724 L 498 425.770194138 L 505 478.794076552 L 512 449.456308966 L 518 492.137691379 L 525 470.405073793 L 532 449.862456207 L 539 412.425338621 L 545 450.328171034 L 552 444.413103448 L 559 444.623735862 L 566 467.313818276 L 572 462.38680069 L 579 463.741233103 L 586 455.717765517 L 593 443.341347931 L 599 411.019130345 L 606 447.710262759 L 613 453.394895172 L 620 434.938627586"/>
			<path class="series-2-line" d="M 40 434.525 L 46 445.183908046 L 53 440.967816092 L 60 436.751724138 L 66 431.660632184 L 73 427.44454023 L 80 405.728448276 L 87 372.637356322 L 93 391.171264368 L 100 415.830172414 L 107 371.36408046 L 114 402.147988506 L 120 401.431896552 L 127 353.465804598 L 134 357.999712644 L 141 412.40862069 L 147 367.942528736 L 154 407.476436782 L 161 376.135344828 L 168 416.544252874 L 174 403.57816092 L 181 407.237068966 L 188 392.520977011 L 195 387.429885057 L 201 355.213793103 L 208 387.747701149 L 215 422.031609195 L 222 430.065517241 L 228 426.724425287 L 235 417.258333333 L 242 406.917241379 L 249 411.451149425 L 255 382.735057471 L 262 409.143965517 L 269 360.302873563 L 276 409.461781609 L 282 368.495689655 L 289 346.779597701 L 296 310.188505747 L 303 284.972413793 L 309 279.881321839 L 316 299.290229885 L 323 194.449137931 L 330 230.483045977 L 336 305.891954023 L 343 250.925862069 L 350 254.584770115 L 356 209.243678161 L 363 229.527586207 L 370 234.061494253 L 377 193.970402299 L 383 239.629310345 L 390 199.538218391 L 397 239.947126437 L 404 299.606034483 L 410 337.389942529 L 417 379.548850575 L 424 422.582758621 L 431 336.991666667 L 437 437.775574713 L 444 406.434482759 L 451 434.593390805 L 458 389.252298851 L 464 451.536206897 L 471 459.570114943 L 478 463.229022989 L 485 459.012931034 L 491 439.04683908 L 498 476.830747126 L 505 433.239655172 L 512 441.273563218 L 518 441.432471264 L 525 389.09137931 L 532 424.250287356 L 539 433.159195402 L 545 462.193103448 L 552 433.477011494 L 559 473.01091954 L 566 383.919827586 L 572 440.078735632 L 579 437.612643678 L 586 464.896551724 L 593 454.55545977 L 599 416.214367816 L 606 429.498275862 L 613 434.032183908 L 620 450.816091954"/>
		</g>
		<text class="x-axis-label" x="40.0" y="540">
			0
		</text>
		<path class="x-notch" d="M 73.7209302326 525 L 73.7209302326 530"/>
		<text class="x-axis-label" x="107.441860465" y="540">
			10
		</text>
		<path class="x-notch" d="M 141.162790698 525 L 141.162790698 530"/>
		<text class="x-axis-label" x="174.88372093" y="540">
			20
		</text>
		<path class="x-notch" d="M 208.604651163 525 L 208.604651163 530"/>
		<text class="x-axis-label" x="242.325581395" y="540">
			30
		</text>
		<path class="x-notch" d="M 276.046511628 525 L 276.046511628 530"/>
		<text class="x-axis-label" x="309.76744186" y="540">
			40
		</text>
		<path class="x-notch" d="M 343.488372093 525 L 343.488372093 530"/>
		<text class="x-axis-label" x="377.209302326" y="540">
			50
		</text>
		<path class="x-notch" d="M 410.930232558 525 L 410.930232558 530"/>
		<text class="x-axis-label" x="444.651162791" y="540">
			60
		</text>
		<path class="x-notch" d="M 478.372093023 525 L 478.372093023 530"/>
		<text class="x-axis-label" x="512.093023256" y="540">
			70
		</text>
		<path class="x-notch" d="M 545.813953488 525 L 545.813953488 530"/>
		<text class="x-axis-label" x="579.534883721" y="540">
			80
		</text>
		<path class="x-notch" d="M 613.255813953 525 L 613.255813953 530"/>
	</g>
</svg>
