<?xml version="1.0" ?>
<svg height="600" version="1.1" width="800" xmlns="http://www.w3.org/2000/svg" xmlns:svg="http://www.w3.org/2000/svg">
	<style type="text/css">
		

.x-axis-path, .y-gridline, .x-notch { fill:none; stroke: #a7a9ac; stroke-width:1; }



.y-gridline { stroke-width: 1; }

.y-axis-path, .y-axis-path2, .x-notch-left, .x-notch-right { display: none;}



.x-axis-label, .data-point-label {font-size: 12px; font-weight:normal; font-family: sans-serif; fill: #58595b; text-anchor:middle;}

.y-axis-label {font-size: 12px; font-family: helvetica; fill: #a7a9ac; text-anchor:end;}



.series-1-line { fill: none; stroke: #10b80c; stroke-width:2; }



.series-2-line { fill: none; stroke: #e90f0a; stroke-width: 2;}

	</style>
	<rect fill="white" height="600" width="800" x="0" y="0"/>
	<g id="grid" transform="translate(70, 30)">
		<g class="x-axis" id="x_axis">
			<path class="x-axis-path" d="M 0 525 L 660 525"/>
			<path class="x-notch-left" d="M 0 525, L 0 535"/>
			<path class="x-notch-right" d="M 660 525, L 660 535"/>
		</g>
		<g class="y-axis" id="y_axis">
			<path class="y-axis-path" d="M 0 525 L 0 0"/>
			<path class="y-axis-path-2" d="M 660 525 L 660 0"/>
			<path class="y-gridline" d="M 0 525 L 660 525"/>
			<text class="y-axis-label" x="-5" y="525">
				-200
			</text>
			<path class="y-gridline" d="M 0 394 L 660 394"/>
			<text class="y-axis-label" x="-5" y="394">
				 0
			</text>
			<path class="y-gridline" d="M 0 263 L 660 263"/>
			<text class="y-axis-label" x="-5" y="263">
				200
			</text>
			<path class="y-gridline" d="M 0 132 L 660 132"/>
			<text class="y-axis-label" x="-5" y="132">
				400
			</text>
			<path class="y-gridline" d="M 0 1 L 660 1"/>
			<text class="y-axis-label" x="-5" y="1">
				600
			</text>
		</g>
		<g>
			<path class="series-1-line" d="M 40 379.548015 L 46 398.977522344 L 52 385.947854688 L 58 392.319562031 L 64 406.683869375 L 70 412.315064219 L 76 430.045146563 L 82 405.035241406 L 88 424.07729875 L 94 393.480606094 L 101 388.948325938 L 107 404.154470781 L 113 418.047590625 L 119 382.537160469 L 125 376.187855313 L 131 399.571662656 L 137 391.5392075 L 143 369.170839844 L 149 405.393259688 L 156 370.707342031 L 162 373.898861875 L 168 341.787544219 L 174 380.348839063 L 180 312.025646406 L 186 291.05377875 L 192 202.874823594 L 198 245.727468438 L 204 206.952063281 L 210 158.434758125 L 217 89.2537154688 L 223 194.029322812 L 229 146.588267656 L 235 134.8375 L 241 81.4061948437 L 247 115.929452187 L 253 89.2531970313 L 259 135.201504375 L 265 120.084961719 L 272 179.427856563 L 278 126.754126406 L 284 106.67344625 L 290 148.533053594 L 296 28.0805109375 L 302 102.264630781 L 308 87.114488125 L 314 90.3724204687 L 320 61.6767528125 L 326 127.127760156 L 333 218.9474175 L 339 294.764549844 L 345 396.613019688 L 351 393.612164531 L 357 413.697396875 L 363 415.223354219 L 369 414.022724063 L 375 397.947006406 L 381 409.03032625 L 388 386.005708594 L 394 388.372453437 L 400 391.631173281 L 406 378.432718125 L 412 396.987312969 L 418 413.202770312 L 424 399.937902656 L 430 420.2249975 L 436 383.537254844 L 442 390.144687188 L 449 394.514044531 L 455 381.349714375 L 461 393.812734219 L 467 397.845304063 L 473 374.282298906 L 479 405.84376875 L 485 386.991851094 L 491 372.717145937 L 497 375.268953281 L 504 380.344960625 L 510 396.509755469 L 516 409.915412812 L 522 393.335170156 L 528 388.365565 L 534 356.051859844 L 540 360.286292187 L 546 368.795274531 L 552 383.698231875 L 558 363.382614219 L 565 367.718371563 L 571 380.804041406 L 577 384.75234875 L 583 386.362306094 L 589 390.613800938 L 595 395.538345781 L 601 390.754065625 L 607 387.752947969 L 613 404.675317812 L 620 397.939087656"/>
			<path class="series-2-line" d="M 40 387.7125 L 46 396.514453125 L 52 401.37890625 L 58 399.680859375 L 64 379.6078125 L 70 365.441015625 L 76 383.43046875 L 82 440.138671875 L 88 406.940625 L 94 439.367578125 L 101 423.88828125 L 107 451.721484375 L 113 428.3671875 L 119 433.887890625 L 125 445.97109375 L 131 452.148046875 L 137 419.60625 L 143 448.095703125 L 149 422.11640625 L 156 426.980859375 L 162 435.1265625 L 168 447.866015625 L 174 415.32421875 L 180 395.251171875 L 186 410.615625 L 192 391.198828125 L 198 405.90703125 L 204 357.615234375 L 210 395.9484375 L 217 407.375390625 L 223 410.92734375 L 229 383.635546875 L 235 393.75 L 241 379.583203125 L 247 388.38515625 L 253 397.843359375 L 259 364.6453125 L 265 336.697265625 L 272 338.28046875 L 278 359.551171875 L 284 312.571875 L 290 302.998828125 L 296 327.55078125 L 302 317.321484375 L 308 294.6234375 L 314 215.487890625 L 320 207.22734375 L 326 202.904296875 L 333 282.58125 L 339 350.445703125 L 345 426.84140625 L 351 428.424609375 L 357 386.0390625 L 363 423.716015625 L 369 400.36171875 L 375 368.476171875 L 381 373.996875 L 388 402.486328125 L 394 385.69453125 L 400 383.340234375 L 406 337.6734375 L 412 355.006640625 L 418 353.30859375 L 424 394.923046875 L 430 346.63125 L 436 407.933203125 L 442 420.67265625 L 449 424.224609375 L 455 424.4953125 L 461 419.516015625 L 467 398.78671875 L 473 434.494921875 L 479 419.015625 L 485 410.755078125 L 491 430.71328125 L 497 410.640234375 L 504 406.3171875 L 510 386.900390625 L 516 414.07734375 L 522 409.754296875 L 528 411.3375 L 534 378.795703125 L 540 352.16015625 L 546 375.399609375 L 552 373.7015625 L 558 389.066015625 L 565 397.86796875 L 571 398.138671875 L 577 364.940625 L 583 389.492578125 L 589 385.82578125 L 595 379.533984375 L 601 403.4296875 L 607 379.419140625 L 613 395.43984375 L 620 416.710546875"/>
		</g>
		<text class="x-axis-label" x="40.0" y="540">
			0
		</text>
		<path class="x-notch" d="M 70.5263157895 525 L 70.5263157895 530"/>
		<text class="x-axis-label" x="101.052631579" y="540">
			10
		</text>
		<path class="x-notch" d="M 131.578947368 525 L 131.578947368 530"/>
		<text class="x-axis-label" x="162.105263158" y="540">
			20
		</text>
		<path class="x-notch" d="M 192.631578947 525 L 192.631578947 530"/>
		<text class="x-axis-label" x="223.157894737" y="540">
			30
		</text>
		<path class="x-notch" d="M 253.684210526 525 L 253.684210526 530"/>
		<text class="x-axis-label" x="284.210526316" y="540">
			40
		</text>
		<path class="x-notch" d="M 314.736842105 525 L 314.736842105 530"/>
		<text class="x-axis-label" x="345.263157895" y="540">
			50
		</text>
		<path class="x-notch" d="M 375.789473684 525 L 375.789473684 530"/>
		<text class="x-axis-label" x="406.315789474" y="540">
			60
		</text>
		<path class="x-notch" d="M 436.842105263 525 L 436.842105263 530"/>
		<text class="x-axis-label" x="467.368421053" y="540">
			70
		</text>
		<path class="x-notch" d="M 497.894736842 525 L 497.894736842 530"/>
		<text class="x-axis-label" x="528.421052632" y="540">
			80
		</text>
		<path class="x-notch" d="M 558.947368421 525 L 558.947368421 530"/>
		<text class="x-axis-label" x="589.473684211" y="540">
			90
		</text>
		<path class="x-notch" d="M 620.0 525 L 620.0 530"/>
	</g>
</svg>
