<?xml version="1.0" ?>
<svg height="600" version="1.1" width="800" xmlns="http://www.w3.org/2000/svg" xmlns:svg="http://www.w3.org/2000/svg">
	<style type="text/css">
		

.x-axis-path, .y-gridline, .x-notch { fill:none; stroke: #a7a9ac; stroke-width:1; }



.y-gridline { stroke-width: 1; }

.y-axis-path, .y-axis-path2, .x-notch-left, .x-notch-right { display: none;}



.x-axis-label, .data-point-label {font-size: 12px; font-weight:normal; font-family: sans-serif; fill: #58595b; text-anchor:middle;}

.y-axis-label {font-size: 12px; font-family: helvetica; fill: #a7a9ac; text-anchor:end;}



.series-1-line { fill: none; stroke: #10b80c; stroke-width:2; }



.series-2-line { fill: none; stroke: #e90f0a; stroke-width: 2;}

	</style>
	<rect fill="white" height="600" width="800" x="0" y="0"/>
	<g id="grid" transform="translate(70, 30)">
		<g class="x-axis" id="x_axis">
			<path class="x-axis-path" d="M 0 525 L 660 525"/>
			<path class="x-notch-left" d="M 0 525, L 0 535"/>
			<path class="x-notch-right" d="M 660 525, L 660 535"/>
		</g>
		<g class="y-axis" id="y_axis">
			<path class="y-axis-path" d="M 0 525 L 0 0"/>
			<path class="y-axis-path-2" d="M 660 525 L 660 0"/>
			<path class="y-gridline" d="M 0 525 L 660 525"/>
			<text class="y-axis-label" x="-5" y="525">
				-200
			</text>
			<path class="y-gridline" d="M 0 438 L 660 438"/>
			<text class="y-axis-label" x="-5" y="438">
				 0
			</text>
			<path class="y-gridline" d="M 0 351 L 660 351"/>
			<text class="y-axis-label" x="-5" y="351">
				200
			</text>
			<path class="y-gridline" d="M 0 264 L 660 264"/>
			<text class="y-axis-label" x="-5" y="264">
				400
			</text>
			<path class="y-gridline" d="M 0 177 L 660 177"/>
			<text class="y-axis-label" x="-5" y="177">
				600
			</text>
			<path class="y-gridline" d="M 0 90 L 660 90"/>
			<text class="y-axis-label" x="-5" y="90">
				800
			</text>
			<path class="y-gridline" d="M 0 3 L 660 3"/>
			<text class="y-axis-label" x="-5" y="3">
				1000
			</text>
		</g>
		<g>
			<path class="series-1-line" d="M 40 414.563835 L 47 455.696600783 L 54 455.244466566 L 61 420.129032349 L 68 439.140223133 L 75 436.287438916 L 82 449.453804699 L 89 429.471320482 L 96 434.089986265 L 103 435.589627048 L 110 416.145617831 L 117 387.996233614 L 124 374.217324398 L 131 350.106765181 L 139 377.250555964 L 146 343.885296747 L 153 358.12861253 L 160 317.213503313 L 167 331.479219096 L 174 253.46638488 L 181 243.490225663 L 188 218.784841446 L 195 195.796032229 L 202 170.866473012 L 209 179.141938795 L 216 183.479904578 L 223 148.297095361 L 230 211.955686145 L 238 159.934726928 L 245 86.8350177108 L 252 109.873483494 L 259 139.160149277 L 266 169.28821506 L 273 161.847455843 L 280 149.055546627 L 287 111.99936241 L 294 138.201128193 L 301 158.008568976 L 308 177.591834759 L 315 184.722975542 L 322 205.483991325 L 330 209.283482108 L 337 204.647097892 L 344 261.260888675 L 351 254.818329458 L 358 270.632445241 L 365 312.326261024 L 372 306.904476807 L 379 334.40754259 L 386 340.663858373 L 393 358.081849157 L 400 378.41656494 L 407 373.095755723 L 414 363.669446506 L 421 409.289387289 L 429 408.074603072 L 436 394.654618855 L 443 408.426834639 L 450 443.704100422 L 457 431.349866205 L 464 434.655681988 L 471 446.756647771 L 478 452.698838554 L 485 448.073654337 L 492 448.63127012 L 499 446.709660904 L 506 453.840976687 L 513 442.38414247 L 520 443.872758253 L 528 444.082474036 L 535 454.680189819 L 542 448.776105602 L 549 447.639721386 L 556 443.956912169 L 563 437.480927952 L 570 433.663368735 L 577 440.401984518 L 584 448.778425301 L 591 431.230191084 L 598 437.800631867 L 605 455.600122651 L 612 437.692963434 L 620 429.264854217"/>
			<path class="series-2-line" d="M 40 442.6625 L 47 432.883584337 L 54 426.604668675 L 61 436.075753012 L 68 447.734337349 L 75 440.580421687 L 82 425.551506024 L 89 428.897590361 L 96 450.618674699 L 103 429.902259036 L 110 434.560843373 L 117 415.156927711 L 124 423.315512048 L 131 439.349096386 L 139 410.757680723 L 146 437.29126506 L 153 424.887349398 L 160 434.795933735 L 167 418.892018072 L 174 431.86310241 L 181 426.896686747 L 188 416.242771084 L 195 427.901355422 L 202 435.184939759 L 209 432.406024096 L 216 429.627108434 L 223 432.535692771 L 230 440.694277108 L 238 442.727861446 L 245 422.886445783 L 252 437.60753012 L 259 433.078614458 L 266 433.799698795 L 273 442.833283133 L 280 433.49186747 L 287 438.587951807 L 294 437.559036145 L 301 427.342620482 L 308 435.063704819 L 315 423.097289157 L 322 417.693373494 L 330 413.601957831 L 337 411.698042169 L 344 426.856626506 L 351 416.640210843 L 358 432.236295181 L 365 437.332379518 L 372 421.428463855 L 379 422.149548193 L 386 427.24563253 L 393 414.404216867 L 400 407.250301205 L 407 392.658885542 L 414 404.31746988 L 421 394.101054217 L 429 404.447138554 L 436 407.793222892 L 443 400.639307229 L 450 417.110391566 L 457 424.831475904 L 464 412.427560241 L 471 427.148644578 L 478 430.057228916 L 485 426.403313253 L 492 433.24939759 L 499 434.407981928 L 506 439.504066265 L 513 443.725150602 L 520 441.82123494 L 528 434.667319277 L 535 445.013403614 L 542 436.109487952 L 549 434.205572289 L 556 437.114156627 L 563 449.210240964 L 570 438.993825301 L 577 437.089909639 L 584 435.623493976 L 591 434.594578313 L 598 441.878162651 L 605 437.786746988 L 612 441.570331325 L 620 433.978915663"/>
		</g>
		<text class="x-axis-label" x="40.0" y="540">
			0
		</text>
		<path class="x-notch" d="M 75.3658536585 525 L 75.3658536585 530"/>
		<text class="x-axis-label" x="110.731707317" y="540">
			10
		</text>
		<path class="x-notch" d="M 146.097560976 525 L 146.097560976 530"/>
		<text class="x-axis-label" x="181.463414634" y="540">
			20
		</text>
		<path class="x-notch" d="M 216.829268293 525 L 216.829268293 530"/>
		<text class="x-axis-label" x="252.195121951" y="540">
			30
		</text>
		<path class="x-notch" d="M 287.56097561 525 L 287.56097561 530"/>
		<text class="x-axis-label" x="322.926829268" y="540">
			40
		</text>
		<path class="x-notch" d="M 358.292682927 525 L 358.292682927 530"/>
		<text class="x-axis-label" x="393.658536585" y="540">
			50
		</text>
		<path class="x-notch" d="M 429.024390244 525 L 429.024390244 530"/>
		<text class="x-axis-label" x="464.390243902" y="540">
			60
		</text>
		<path class="x-notch" d="M 499.756097561 525 L 499.756097561 530"/>
		<text class="x-axis-label" x="535.12195122" y="540">
			70
		</text>
		<path class="x-notch" d="M 570.487804878 525 L 570.487804878 530"/>
		<text class="x-axis-label" x="605.853658537" y="540">
			80
		</text>
		<path class="x-notch" d="M 641.219512195 525 L 641.219512195 530"/>
	</g>
</svg>
