<?xml version="1.0" ?>
<svg height="600" version="1.1" width="800" xmlns="http://www.w3.org/2000/svg" xmlns:svg="http://www.w3.org/2000/svg">
	<style type="text/css">
		

.x-axis-path, .y-gridline, .x-notch { fill:none; stroke: #a7a9ac; stroke-width:1; }



.y-gridline { stroke-width: 1; }

.y-axis-path, .y-axis-path2, .x-notch-left, .x-notch-right { display: none;}



.x-axis-label, .data-point-label {font-size: 12px; font-weight:normal; font-family: sans-serif; fill: #58595b; text-anchor:middle;}

.y-axis-label {font-size: 12px; font-family: helvetica; fill: #a7a9ac; text-anchor:end;}



.series-1-line { fill: none; stroke: #10b80c; stroke-width:2; }



.series-2-line { fill: none; stroke: #e90f0a; stroke-width: 2;}

	</style>
	<rect fill="white" height="600" width="800" x="0" y="0"/>
	<g id="grid" transform="translate(70, 30)">
		<g class="x-axis" id="x_axis">
			<path class="x-axis-path" d="M 0 525 L 660 525"/>
			<path class="x-notch-left" d="M 0 525, L 0 535"/>
			<path class="x-notch-right" d="M 660 525, L 660 535"/>
		</g>
		<g class="y-axis" id="y_axis">
			<path class="y-axis-path" d="M 0 525 L 0 0"/>
			<path class="y-axis-path-2" d="M 660 525 L 660 0"/>
			<path class="y-gridline" d="M 0 525 L 660 525"/>
			<text class="y-axis-label" x="-5" y="525">
				-250
			</text>
			<path class="y-gridline" d="M 0 420 L 660 420"/>
			<text class="y-axis-label" x="-5" y="420">
				 0
			</text>
			<path class="y-gridline" d="M 0 315 L 660 315"/>
			<text class="y-axis-label" x="-5" y="315">
				250
			</text>
			<path class="y-gridline" d="M 0 210 L 660 210"/>
			<text class="y-axis-label" x="-5" y="210">
				500
			</text>
			<path class="y-gridline" d="M 0 105 L 660 105"/>
			<text class="y-axis-label" x="-5" y="105">
				750
			</text>
			<path class="y-gridline" d="M 0 0 L 660 0"/>
			<text class="y-axis-label" x="-5" y="0">
				1000
			</text>
		</g>
		<g>
			<path class="series-1-line" d="M 40 419.9160672 L 45 419.92320947 L 50 415.698095741 L 55 422.252870011 L 61 420.881740281 L 66 413.425818551 L 71 410.816192822 L 76 414.086399092 L 82 426.338221362 L 87 410.665419632 L 92 421.431113903 L 98 425.810624173 L 103 421.908574443 L 108 401.303460714 L 113 410.733722984 L 119 387.371729254 L 124 398.428231524 L 129 422.439885795 L 134 414.413268065 L 140 404.459018335 L 145 403.583152605 L 150 420.907230876 L 156 411.469749146 L 161 419.424635416 L 166 415.867321686 L 171 399.343599957 L 177 405.370854227 L 182 390.764348497 L 187 385.171378768 L 192 343.566265038 L 198 351.101151308 L 203 306.695981578 L 208 299.746411849 L 214 280.950490119 L 219 273.720696389 L 224 250.444886659 L 229 238.26127693 L 235 220.2084192 L 240 202.79093747 L 245 193.192007741 L 250 182.860766011 L 256 141.912532281 L 261 126.175050551 L 266 111.611384822 L 272 108.290951092 L 277 89.1180373622 L 282 65.2822836324 L 287 61.7353859027 L 293 29.359520173 L 298 24.4882784432 L 303 67.1524687135 L 308 61.9148189838 L 314 20.1914332541 L 319 30.8064315243 L 324 48.0658297946 L 330 42.1178760649 L 335 69.0265223351 L 340 59.4166726054 L 345 64.9054868757 L 351 93.7526851459 L 356 98.9184354162 L 361 128.465689686 L 366 136.539015957 L 372 127.596798227 L 377 117.018092497 L 382 148.309690768 L 388 146.044465038 L 393 154.376511308 L 398 182.846549578 L 403 252.433915849 L 409 371.613538119 L 414 380.720736389 L 419 383.818742659 L 424 382.30766893 L 430 381.4425552 L 435 397.79744147 L 440 354.329207741 L 446 413.394902011 L 451 410.677588281 L 456 420.312474551 L 461 422.376608822 L 467 425.323751092 L 472 423.909445362 L 477 409.808955632 L 482 414.953033903 L 488 423.715664173 L 493 410.142862443 L 498 418.033068714 L 504 411.051074984 L 509 418.176713254 L 514 412.357783524 L 519 419.558853795 L 525 417.950676065 L 530 416.988626335 L 535 419.063512605 L 540 424.961406876 L 546 415.545597146 L 551 427.054355416 L 556 406.524673686 L 562 406.854879957 L 567 414.842022227 L 572 412.469276497 L 577 413.714914768 L 583 416.963617038 L 588 411.790815308 L 593 419.627261578 L 598 423.048331849 L 604 421.784722119 L 609 420.596544389 L 614 422.434550659 L 620 414.12787693"/>
			<path class="series-2-line" d="M 40 426.552 L 45 421.031459459 L 50 420.550918919 L 55 409.150378378 L 61 422.109837838 L 66 417.849297297 L 71 427.448756757 L 76 420.668216216 L 82 421.447675676 L 87 421.387135135 L 92 424.686594595 L 98 425.046054054 L 103 423.305513514 L 108 422.824972973 L 113 421.504432432 L 119 425.223891892 L 124 432.303351351 L 129 416.702810811 L 134 419.58227027 L 140 428.34172973 L 145 429.541189189 L 150 425.280648649 L 156 418.920108108 L 161 418.439567568 L 166 428.459027027 L 171 413.698486486 L 177 419.097945946 L 182 432.897405405 L 187 416.456864865 L 192 415.976324324 L 198 415.495783784 L 203 409.555243243 L 208 424.614702703 L 214 420.354162162 L 219 413.573621622 L 224 420.233081081 L 229 416.392540541 L 235 410.872 L 240 404.511459459 L 245 406.970918919 L 250 409.010378378 L 256 404.329837838 L 261 397.969297297 L 266 388.668756757 L 272 394.488216216 L 277 383.507675676 L 282 395.627135135 L 287 371.206594595 L 293 372.406054054 L 298 374.445513514 L 303 381.104972973 L 308 358.364432432 L 314 376.363891892 L 319 386.803351351 L 324 376.242810811 L 330 398.86227027 L 335 389.98172973 L 340 377.741189189 L 345 385.240648649 L 351 385.180108108 L 356 393.939567568 L 361 399.339027027 L 366 396.758486486 L 372 378.637945946 L 377 402.937405405 L 382 381.876864865 L 388 370.476324324 L 393 393.095783784 L 398 369.935243243 L 403 386.254702703 L 409 397.534162162 L 414 397.473621622 L 419 401.193081081 L 424 419.612540541 L 430 419.132 L 435 418.651459459 L 440 413.970918919 L 446 417.270378378 L 451 427.289837838 L 456 426.809297297 L 461 428.008756757 L 467 422.488216216 L 472 425.787675676 L 477 426.147135135 L 482 421.886594595 L 488 426.446054054 L 493 426.385513514 L 498 419.604972973 L 504 423.324432432 L 509 421.163891892 L 514 423.623351351 L 519 426.082810811 L 525 426.86227027 L 530 425.12172973 L 535 424.641189189 L 540 417.440648649 L 546 424.100108108 L 551 426.139567568 L 556 430.279027027 L 562 423.498486486 L 567 417.977945946 L 572 423.377405405 L 577 421.216864865 L 583 417.796324324 L 588 417.735783784 L 593 419.355243243 L 598 421.814702703 L 604 417.974162162 L 609 418.753621622 L 614 422.473081081 L 620 419.892540541"/>
		</g>
		<text class="x-axis-label" x="40.0" y="540">
			0
		</text>
		<path class="x-notch" d="M 66.3636363636 525 L 66.3636363636 530"/>
		<text class="x-axis-label" x="92.7272727273" y="540">
			10
		</text>
		<path class="x-notch" d="M 119.090909091 525 L 119.090909091 530"/>
		<text class="x-axis-label" x="145.454545455" y="540">
			20
		</text>
		<path class="x-notch" d="M 171.818181818 525 L 171.818181818 530"/>
		<text class="x-axis-label" x="198.181818182" y="540">
			30
		</text>
		<path class="x-notch" d="M 224.545454545 525 L 224.545454545 530"/>
		<text class="x-axis-label" x="250.909090909" y="540">
			40
		</text>
		<path class="x-notch" d="M 277.272727273 525 L 277.272727273 530"/>
		<text class="x-axis-label" x="303.636363636" y="540">
			50
		</text>
		<path class="x-notch" d="M 330.0 525 L 330.0 530"/>
		<text class="x-axis-label" x="356.363636364" y="540">
			60
		</text>
		<path class="x-notch" d="M 382.727272727 525 L 382.727272727 530"/>
		<text class="x-axis-label" x="409.090909091" y="540">
			70
		</text>
		<path class="x-notch" d="M 435.454545455 525 L 435.454545455 530"/>
		<text class="x-axis-label" x="461.818181818" y="540">
			80
		</text>
		<path class="x-notch" d="M 488.181818182 525 L 488.181818182 530"/>
		<text class="x-axis-label" x="514.545454545" y="540">
			90
		</text>
		<path class="x-notch" d="M 540.909090909 525 L 540.909090909 530"/>
		<text class="x-axis-label" x="567.272727273" y="540">
			100
		</text>
		<path class="x-notch" d="M 593.636363636 525 L 593.636363636 530"/>
		<text class="x-axis-label" x="620.0" y="540">
			110
		</text>
	</g>
</svg>
