<?xml version="1.0" ?>
<svg height="600" version="1.1" width="800" xmlns="http://www.w3.org/2000/svg" xmlns:svg="http://www.w3.org/2000/svg">
	<style type="text/css">

.x-axis-path, .y-gridline, .x-notch { fill:none; stroke: #a7a9ac; stroke-width:1; }



.y-gridline { stroke-width: 1; }

.y-axis-path, .y-axis-path2, .x-notch-left, .x-notch-right { display: none;}



.x-axis-label, .data-point-label {font-size: 12px; font-weight:normal; font-family: sans-serif; fill: #58595b; text-anchor:middle;}

.y-axis-label {font-size: 12px; font-family: helvetica; fill: #a7a9ac; text-anchor:end;}



.series-1-line { fill: none; stroke: #10b80c; stroke-width:2; }



.series-2-line { fill: none; stroke: #e90f0a; stroke-width: 2;}
</style>
	<rect fill="white" height="600" width="800" x="0" y="0"/>
	<g id="grid" transform="translate(70, 30)">
		<g class="x-axis" id="x_axis">
			<path class="x-axis-path" d="M 0 525 L 660 525"/>
			<path class="x-notch-left" d="M 0 525, L 0 535"/>
			<path class="x-notch-right" d="M 660 525, L 660 535"/>
		</g>
		<g class="y-axis" id="y_axis">
			<path class="y-axis-path" d="M 0 525 L 0 0"/>
			<path class="y-axis-path-2" d="M 660 525 L 660 0"/>
			<path class="y-gridline" d="M 0 525 L 660 525"/>
			<text class="y-axis-label" x="-5" y="525">-200</text>
			<path class="y-gridline" d="M 0 394 L 660 394"/>
			<text class="y-axis-label" x="-5" y="394"> 0</text>
			<path class="y-gridline" d="M 0 263 L 660 263"/>
			<text class="y-axis-label" x="-5" y="263">200</text>
			<path class="y-gridline" d="M 0 132 L 660 132"/>
			<text class="y-axis-label" x="-5" y="132">400</text>
			<path class="y-gridline" d="M 0 1 L 660 1"/>
			<text class="y-axis-label" x="-5" y="1">600</text>
		</g>
		<g>
			<path class="series-1-line" d="M 40 418.906495107 L 45 384.476215369 L 50 348.520410863 L 55 418.723636821 L 60 396.413947206 L 65 377.896845937 L 70 410.666189472 L 75 400.848180955 L 80 386.618884756 L 85 343.448351395 L 90 395.181922935 L 95 362.689419809 L 101 382.637152143 L 106 372.942626238 L 111 363.90796054 L 116 391.812603678 L 121 356.681302862 L 126 384.214855026 L 131 368.254229706 L 136 375.050420735 L 141 379.703030799 L 146 359.413439538 L 151 395.439636962 L 157 387.682887669 L 162 356.138370845 L 167 395.462583029 L 172 364.33031805 L 177 324.70540781 L 182 379.118937911 L 187 368.435264834 L 192 376.385889657 L 197 350.819346153 L 202 361.161160304 L 207 344.00494032 L 212 304.585834434 L 218 298.684540012 L 223 259.677685971 L 228 193.873818873 L 233 198.691072419 L 238 185.162797297 L 243 176.705026927 L 248 194.468017425 L 253 156.986688151 L 258 220.676206332 L 263 138.092853065 L 268 146.909142449 L 274 31.3443553128 L 279 73.0185959537 L 284 0.0 L 289 107.67826925 L 294 56.7984334482 L 299 85.9809929915 L 304 57.5286865738 L 309 154.941177434 L 314 93.6309197584 L 319 105.704706169 L 324 151.418500379 L 330 125.604991652 L 335 112.777737608 L 340 71.3385333683 L 345 138.202583696 L 350 162.849729807 L 355 151.836126626 L 360 137.524508685 L 365 96.085304445 L 370 166.783103989 L 375 166.859782888 L 380 224.447201997 L 385 245.343563772 L 391 292.872295121 L 396 264.213541212 L 401 286.428980263 L 406 280.856972806 L 411 290.250800656 L 416 316.217667181 L 421 326.353676979 L 426 316.864955427 L 431 364.312008173 L 436 397.204834321 L 441 385.36672745 L 447 371.013948639 L 452 380.160168126 L 457 390.419660535 L 462 382.127176786 L 467 388.346472488 L 472 397.822622078 L 477 409.524674376 L 482 387.586075736 L 487 399.783344758 L 492 366.713303166 L 497 394.370337942 L 502 384.96458127 L 508 371.312823536 L 513 404.988992503 L 518 413.393030041 L 523 366.141139102 L 528 398.992804379 L 533 374.498372928 L 538 381.995585035 L 543 373.24968857 L 548 387.301769325 L 553 364.703310477 L 558 363.254464609 L 564 388.767918419 L 569 378.949909901 L 574 376.016700136 L 579 389.368402951 L 584 392.289040756 L 589 365.403419976 L 594 385.433474052 L 599 400.887596963 L 604 381.34018765 L 609 390.445246267 L 614 399.179213909 L 620 399.461697161"/>
			<path class="series-2-line" d="M 40 382.173505135 L 45 396.700048812 L 50 398.363820417 L 55 393.596205986 L 60 398.475670609 L 65 376.021744579 L 70 379.293362693 L 75 379.349287789 L 80 377.797366376 L 85 376.245444963 L 90 368.262137514 L 95 394.043606754 L 101 390.883838832 L 106 371.64560582 L 111 374.917223934 L 116 384.620228084 L 121 383.068306671 L 126 387.947771294 L 131 405.690007988 L 136 384.843928468 L 141 384.899853564 L 146 388.171471678 L 151 385.011703756 L 157 377.028396307 L 162 380.300014421 L 167 364.277474427 L 172 365.941246032 L 177 375.644250181 L 182 388.562947349 L 187 398.265951499 L 192 385.459104523 L 197 396.769955182 L 202 387.178801224 L 207 403.31319141 L 212 380.85926538 L 218 396.993655566 L 223 372.931883027 L 228 390.674119722 L 233 365.004500674 L 238 379.531044351 L 243 355.469271812 L 248 379.642894543 L 253 368.443894076 L 258 376.539051717 L 263 378.202823322 L 268 355.748897292 L 274 360.628361915 L 279 354.252900975 L 284 368.779444652 L 289 349.54121164 L 294 359.24421579 L 299 357.692294377 L 304 380.258070599 L 309 332.078600425 L 314 338.565911557 L 319 372.386613342 L 324 300.089445533 L 330 349.988612408 L 335 380.593621174 L 340 359.747541654 L 345 374.27408533 L 350 327.702461666 L 355 326.150540253 L 360 337.461390912 L 365 316.615311391 L 370 297.377078379 L 375 321.55070111 L 380 278.194770463 L 385 315.231165266 L 391 336.189094978 L 396 328.205787529 L 401 347.555870733 L 406 312.239172632 L 411 325.157869799 L 416 323.605948386 L 421 346.171724608 L 426 294.776561417 L 431 391.303277052 L 436 375.280737058 L 441 376.944508663 L 447 394.686745357 L 452 383.48774489 L 457 386.759363004 L 462 399.678060172 L 467 406.165371304 L 472 406.2212964 L 477 372.512444807 L 482 382.215448957 L 487 396.741992634 L 492 387.150838676 L 497 372.736145191 L 502 371.184223778 L 508 405.004925563 L 513 392.198078587 L 518 371.351999066 L 523 379.447156707 L 528 369.856002749 L 533 402.068858025 L 538 397.301243594 L 543 418.259173306 L 548 394.197400768 L 553 381.390553792 L 558 392.701404451 L 564 399.188715583 L 569 399.244640679 L 574 391.26133323 L 579 413.827109451 L 584 370.471178805 L 589 399.468341062 L 594 383.445801069 L 599 391.540958709 L 604 404.459655877 L 609 399.692041446 L 614 390.100887488 L 620 382.117580039"/>
		</g>
		<text class="x-axis-label" x="40.0" y="540">0</text>
		<path class="x-notch" d="M 65.4385964912 525 L 65.4385964912 530"/>
		<text class="x-axis-label" x="90.8771929825" y="540">10</text>
		<path class="x-notch" d="M 116.315789474 525 L 116.315789474 530"/>
		<text class="x-axis-label" x="141.754385965" y="540">20</text>
		<path class="x-notch" d="M 167.192982456 525 L 167.192982456 530"/>
		<text class="x-axis-label" x="192.631578947" y="540">30</text>
		<path class="x-notch" d="M 218.070175439 525 L 218.070175439 530"/>
		<text class="x-axis-label" x="243.50877193" y="540">40</text>
		<path class="x-notch" d="M 268.947368421 525 L 268.947368421 530"/>
		<text class="x-axis-label" x="294.385964912" y="540">50</text>
		<path class="x-notch" d="M 319.824561404 525 L 319.824561404 530"/>
		<text class="x-axis-label" x="345.263157895" y="540">60</text>
		<path class="x-notch" d="M 370.701754386 525 L 370.701754386 530"/>
		<text class="x-axis-label" x="396.140350877" y="540">70</text>
		<path class="x-notch" d="M 421.578947368 525 L 421.578947368 530"/>
		<text class="x-axis-label" x="447.01754386" y="540">80</text>
		<path class="x-notch" d="M 472.456140351 525 L 472.456140351 530"/>
		<text class="x-axis-label" x="497.894736842" y="540">90</text>
		<path class="x-notch" d="M 523.333333333 525 L 523.333333333 530"/>
		<text class="x-axis-label" x="548.771929825" y="540">100</text>
		<path class="x-notch" d="M 574.210526316 525 L 574.210526316 530"/>
		<text class="x-axis-label" x="599.649122807" y="540">110</text>
		<path class="x-notch" d="M 625.087719298 525 L 625.087719298 530"/>
	</g>
</svg>
