<?xml version="1.0" ?>
<svg height="600" version="1.1" width="800" xmlns="http://www.w3.org/2000/svg" xmlns:svg="http://www.w3.org/2000/svg">
	<style type="text/css">

.x-axis-path, .y-gridline, .x-notch { fill:none; stroke: #a7a9ac; stroke-width:1; }



.y-gridline { stroke-width: 1; }

.y-axis-path, .y-axis-path2, .x-notch-left, .x-notch-right { display: none;}



.x-axis-label, .data-point-label {font-size: 12px; font-weight:normal; font-family: sans-serif; fill: #58595b; text-anchor:middle;}

.y-axis-label {font-size: 12px; font-family: helvetica; fill: #a7a9ac; text-anchor:end;}



.series-1-line { fill: none; stroke: #10b80c; stroke-width:2; }



.series-2-line { fill: none; stroke: #e90f0a; stroke-width: 2;}
</style>
	<rect fill="white" height="600" width="800" x="0" y="0"/>
	<g id="grid" transform="translate(70, 30)">
		<g class="x-axis" id="x_axis">
			<path class="x-axis-path" d="M 0 525 L 660 525"/>
			<path class="x-notch-left" d="M 0 525, L 0 535"/>
			<path class="x-notch-right" d="M 660 525, L 660 535"/>
		</g>
		<g class="y-axis" id="y_axis">
			<path class="y-axis-path" d="M 0 525 L 0 0"/>
			<path class="y-axis-path-2" d="M 660 525 L 660 0"/>
			<path class="y-gridline" d="M 0 525 L 660 525"/>
			<text class="y-axis-label" x="-5" y="525">-200</text>
			<path class="y-gridline" d="M 0 394 L 660 394"/>
			<text class="y-axis-label" x="-5" y="394"> 0</text>
			<path class="y-gridline" d="M 0 263 L 660 263"/>
			<text class="y-axis-label" x="-5" y="263">200</text>
			<path class="y-gridline" d="M 0 132 L 660 132"/>
			<text class="y-axis-label" x="-5" y="132">400</text>
			<path class="y-gridline" d="M 0 1 L 660 1"/>
			<text class="y-axis-label" x="-5" y="1">600</text>
		</g>
		<g>
			<path class="series-1-line" d="M 40 394.452389726 L 46 412.799157772 L 53 402.888179403 L 60 375.910503908 L 66 374.193585387 L 73 388.794664459 L 80 408.382082412 L 87 422.093487309 L 93 397.948452578 L 100 422.920663649 L 107 384.72856483 L 114 338.506754842 L 120 409.927189188 L 127 349.377461482 L 134 382.333000874 L 141 359.54585144 L 147 330.69496624 L 154 341.433120949 L 161 341.167583861 L 168 340.7150545 L 174 241.81730201 L 181 256.301145692 L 188 158.87814867 L 195 163.060982457 L 201 172.815601635 L 208 104.282545608 L 215 0.0 L 222 36.5142360918 L 228 90.8208600253 L 235 122.886725242 L 242 28.7645801055 L 249 105.195457804 L 255 57.9667382504 L 262 89.9153680772 L 269 5.43902944121 L 276 84.8899053966 L 282 76.1494548314 L 289 92.295776693 L 296 81.1671572319 L 303 26.6110431901 L 309 83.7740471411 L 316 116.378245582 L 323 33.7981254667 L 330 91.1251128761 L 336 146.485394443 L 343 25.3231439832 L 350 98.4060565087 L 356 115.909898448 L 363 108.855300096 L 370 142.747261731 L 377 103.923333552 L 383 118.313681098 L 390 124.134888591 L 397 86.7627070643 L 404 82.1660344915 L 410 154.827483964 L 417 170.458846635 L 424 163.544857708 L 431 194.978528345 L 437 210.843631358 L 444 154.835405444 L 451 206.988331262 L 458 271.549582242 L 464 210.180302463 L 471 274.226229034 L 478 306.432703675 L 485 320.752929119 L 491 384.962839148 L 498 400.945177551 L 505 403.465533159 L 512 399.337436927 L 518 396.379868499 L 525 386.796857046 L 532 386.952783012 L 539 414.500155251 L 545 405.806817974 L 552 398.003154871 L 559 408.647448224 L 566 396.980860758 L 572 408.889543272 L 579 422.413590677 L 586 416.576268197 L 593 399.126798594 L 599 411.948529317 L 606 394.171458016 L 613 381.75544058 L 620 394.5070492"/>
			<path class="series-2-line" d="M 40 398.132631404 L 46 394.400678034 L 53 383.364338991 L 60 399.719446222 L 66 392.335300016 L 73 403.212117993 L 80 383.958345068 L 87 391.182970207 L 93 392.929306092 L 100 388.284304514 L 107 373.595772634 L 114 400.907458375 L 120 378.914540823 L 127 398.008792681 L 134 394.276839311 L 141 397.849271615 L 147 385.899884363 L 154 394.037557712 L 161 373.870736578 L 168 382.921458136 L 174 402.015709994 L 181 395.544611997 L 188 398.203996091 L 195 396.29813914 L 201 379.783510842 L 208 397.964714492 L 215 402.450195004 L 222 413.327012981 L 228 390.421047219 L 235 383.036901013 L 242 369.261417343 L 249 384.703476365 L 255 391.015053295 L 262 366.282991115 L 269 378.98590551 L 276 386.21053065 L 282 370.608950562 L 289 389.70320242 L 296 354.92760994 L 303 400.500259863 L 309 394.942210075 L 316 374.775388941 L 323 376.521724826 L 330 381.007205339 L 336 371.796962714 L 343 374.456346808 L 350 378.028779112 L 356 363.340247232 L 363 369.651824163 L 370 362.267677957 L 377 374.970592351 L 383 383.1082657 L 390 339.202191129 L 397 374.731310752 L 404 353.651441408 L 410 351.745584457 L 417 379.970318407 L 424 399.977618475 L 431 384.376038386 L 437 376.078843971 L 444 363.21640851 L 451 355.832262303 L 458 371.274321325 L 464 375.759801838 L 471 364.723462795 L 478 371.035039726 L 485 390.129291584 L 491 389.136482842 L 498 398.1872044 L 505 370.715997593 L 512 383.418911988 L 518 391.556585337 L 525 400.607306895 L 532 385.918775015 L 539 371.230243136 L 545 383.933157531 L 552 400.288264762 L 559 387.425829301 L 566 401.041791905 L 572 404.614224208 L 579 405.447511884 L 586 399.889462096 L 593 389.766171262 L 599 393.338603566 L 606 398.737132287 L 613 386.787745035 L 620 401.316755848"/>
		</g>
		<text class="x-axis-label" x="40.0" y="540">0</text>
		<path class="x-notch" d="M 73.7209302326 525 L 73.7209302326 530"/>
		<text class="x-axis-label" x="107.441860465" y="540">10</text>
		<path class="x-notch" d="M 141.162790698 525 L 141.162790698 530"/>
		<text class="x-axis-label" x="174.88372093" y="540">20</text>
		<path class="x-notch" d="M 208.604651163 525 L 208.604651163 530"/>
		<text class="x-axis-label" x="242.325581395" y="540">30</text>
		<path class="x-notch" d="M 276.046511628 525 L 276.046511628 530"/>
		<text class="x-axis-label" x="309.76744186" y="540">40</text>
		<path class="x-notch" d="M 343.488372093 525 L 343.488372093 530"/>
		<text class="x-axis-label" x="377.209302326" y="540">50</text>
		<path class="x-notch" d="M 410.930232558 525 L 410.930232558 530"/>
		<text class="x-axis-label" x="444.651162791" y="540">60</text>
		<path class="x-notch" d="M 478.372093023 525 L 478.372093023 530"/>
		<text class="x-axis-label" x="512.093023256" y="540">70</text>
		<path class="x-notch" d="M 545.813953488 525 L 545.813953488 530"/>
		<text class="x-axis-label" x="579.534883721" y="540">80</text>
		<path class="x-notch" d="M 613.255813953 525 L 613.255813953 530"/>
	</g>
</svg>
