<?xml version="1.0" ?>
<svg height="600" version="1.1" width="800" xmlns="http://www.w3.org/2000/svg" xmlns:svg="http://www.w3.org/2000/svg">
	<style type="text/css">
		

.x-axis-path, .y-gridline, .x-notch { fill:none; stroke: #a7a9ac; stroke-width:1; }



.y-gridline { stroke-width: 1; }

.y-axis-path, .y-axis-path2, .x-notch-left, .x-notch-right { display: none;}



.x-axis-label, .data-point-label {font-size: 12px; font-weight:normal; font-family: sans-serif; fill: #58595b; text-anchor:middle;}

.y-axis-label {font-size: 12px; font-family: helvetica; fill: #a7a9ac; text-anchor:end;}



.series-1-line { fill: none; stroke: #10b80c; stroke-width:2; }



.series-2-line { fill: none; stroke: #e90f0a; stroke-width: 2;}

	</style>
	<rect fill="white" height="600" width="800" x="0" y="0"/>
	<g id="grid" transform="translate(70, 30)">
		<g class="x-axis" id="x_axis">
			<path class="x-axis-path" d="M 0 525 L 660 525"/>
			<path class="x-notch-left" d="M 0 525, L 0 535"/>
			<path class="x-notch-right" d="M 660 525, L 660 535"/>
		</g>
		<g class="y-axis" id="y_axis">
			<path class="y-axis-path" d="M 0 525 L 0 0"/>
			<path class="y-axis-path-2" d="M 660 525 L 660 0"/>
			<path class="y-gridline" d="M 0 525 L 660 525"/>
			<text class="y-axis-label" x="-5" y="525">
				-200
			</text>
			<path class="y-gridline" d="M 0 394 L 660 394"/>
			<text class="y-axis-label" x="-5" y="394">
				 0
			</text>
			<path class="y-gridline" d="M 0 263 L 660 263"/>
			<text class="y-axis-label" x="-5" y="263">
				200
			</text>
			<path class="y-gridline" d="M 0 132 L 660 132"/>
			<text class="y-axis-label" x="-5" y="132">
				400
			</text>
			<path class="y-gridline" d="M 0 1 L 660 1"/>
			<text class="y-axis-label" x="-5" y="1">
				600
			</text>
		</g>
		<g>
			<path class="series-1-line" d="M 40 387.637202611 L 45 401.934189447 L 51 401.571051879 L 56 406.331634952 L 62 372.976171781 L 67 383.600619811 L 73 368.696095098 L 79 371.472333703 L 84 377.447086103 L 90 367.221825831 L 95 375.121785076 L 101 364.629943487 L 106 352.983070193 L 112 367.901926099 L 118 344.379016821 L 123 355.862346426 L 129 352.804288886 L 134 352.382013695 L 140 363.776636864 L 145 344.607273087 L 151 332.486374782 L 157 330.612917757 L 162 296.339435388 L 168 337.557439177 L 173 316.196749249 L 179 318.498962843 L 185 249.396654461 L 190 220.631749296 L 196 298.011023671 L 201 246.974797184 L 207 234.439473503 L 212 254.03759385 L 218 260.01234625 L 224 283.164730157 L 229 173.902893441 L 235 174.516912695 L 240 135.031003251 L 246 152.230353754 L 251 163.980264676 L 257 44.323142621 L 263 52.9336773706 L 268 77.0336492881 L 274 88.6948537752 L 279 125.914599816 L 285 101.207090022 L 290 57.515479136 L 296 103.827634753 L 302 50.5404824801 L 307 57.6111289615 L 313 0.0 L 318 84.1611585303 L 324 94.9339126304 L 330 81.569276186 L 335 22.5661030145 L 341 78.2072187013 L 346 89.2761229304 L 352 90.2754607611 L 357 44.4516613487 L 363 15.9824443003 L 369 98.9298955157 L 374 52.6025022802 L 380 85.8540213975 L 385 167.527703649 L 391 199.475884991 L 396 201.126660703 L 402 212.78786519 L 408 189.057512219 L 413 240.87824504 L 419 194.521282993 L 424 212.846096389 L 430 248.673798219 L 435 239.485294405 L 441 320.774120093 L 447 295.503878853 L 452 314.243117624 L 458 357.949059704 L 463 348.819693513 L 469 380.619568784 L 475 359.081003975 L 480 359.191891418 L 486 353.290607835 L 491 379.818918407 L 497 405.932803604 L 502 385.134383111 L 508 369.845001834 L 514 383.430951154 L 519 344.152485403 L 525 368.282026132 L 530 361.580998597 L 536 380.794262379 L 541 378.802530109 L 547 355.990196335 L 553 388.175390183 L 558 384.080576185 L 564 411.142049392 L 569 375.446954002 L 575 375.409535375 L 580 388.521921695 L 586 385.87828953 L 592 382.287069355 L 597 408.904548376 L 603 375.933941769 L 608 394.021742659 L 614 409.088904636 L 620 378.250486556"/>
			<path class="series-2-line" d="M 40 392.363961955 L 45 395.818056766 L 51 388.876866238 L 56 393.485992753 L 62 398.095119269 L 67 388.843865332 L 73 398.073118665 L 79 396.907086659 L 84 392.275959539 L 90 392.264959237 L 95 402.649244274 L 101 399.173148859 L 106 395.697053444 L 112 392.220958029 L 118 394.520021136 L 123 386.423798904 L 129 394.498020532 L 134 396.797083639 L 140 402.561241859 L 145 401.395209853 L 151 381.748670577 L 157 385.202765388 L 162 397.897113834 L 168 390.955923306 L 173 416.355620499 L 179 399.019144632 L 185 394.388017513 L 190 403.617270846 L 196 386.280794979 L 201 401.285206833 L 207 401.274206531 L 212 388.557857481 L 218 383.926730362 L 224 402.39623733 L 229 401.230205323 L 235 376.96353923 L 240 391.967951085 L 246 393.111982487 L 251 388.480855368 L 257 387.314823362 L 263 376.908537721 L 268 382.67269594 L 274 391.901949273 L 279 378.030568519 L 285 384.949758443 L 290 380.318631324 L 296 389.547884657 L 302 395.312042876 L 307 399.921169392 L 313 404.530295907 L 318 365.248217658 L 324 377.942566104 L 330 372.15640728 L 335 368.680311865 L 341 364.049184746 L 346 375.588501487 L 352 381.352659707 L 357 394.047008153 L 363 357.074993312 L 369 372.079405166 L 374 373.223436569 L 380 392.84797524 L 385 381.286657895 L 391 378.965594184 L 396 373.179435361 L 402 382.408688694 L 408 372.002403053 L 413 377.766561272 L 419 383.530719492 L 424 389.294877712 L 430 367.338275027 L 435 385.807781995 L 441 389.261876806 L 447 393.871003321 L 452 379.999622567 L 458 390.383907605 L 463 399.613160937 L 469 375.346494844 L 475 383.420716473 L 480 392.649969805 L 486 393.794001208 L 491 381.077652158 L 497 387.996842082 L 502 370.660366215 L 508 394.905031704 L 514 374.103460724 L 519 401.813221326 L 525 402.957252729 L 530 393.705998792 L 536 396.005061899 L 541 417.939663979 L 547 399.448156408 L 553 405.212314628 L 558 394.806028987 L 564 389.019870163 L 569 398.249123496 L 575 385.532774446 L 580 393.606996075 L 586 382.045678729 L 592 383.189710132 L 597 401.659217099 L 603 391.252931458 L 608 388.931867748 L 614 407.401374715 L 620 379.669613509"/>
		</g>
		<text class="x-axis-label" x="40.0" y="540">
			0
		</text>
		<path class="x-notch" d="M 67.8846153846 525 L 67.8846153846 530"/>
		<text class="x-axis-label" x="95.7692307692" y="540">
			10
		</text>
		<path class="x-notch" d="M 123.653846154 525 L 123.653846154 530"/>
		<text class="x-axis-label" x="151.538461538" y="540">
			20
		</text>
		<path class="x-notch" d="M 179.423076923 525 L 179.423076923 530"/>
		<text class="x-axis-label" x="207.307692308" y="540">
			30
		</text>
		<path class="x-notch" d="M 235.192307692 525 L 235.192307692 530"/>
		<text class="x-axis-label" x="263.076923077" y="540">
			40
		</text>
		<path class="x-notch" d="M 290.961538462 525 L 290.961538462 530"/>
		<text class="x-axis-label" x="318.846153846" y="540">
			50
		</text>
		<path class="x-notch" d="M 346.730769231 525 L 346.730769231 530"/>
		<text class="x-axis-label" x="374.615384615" y="540">
			60
		</text>
		<path class="x-notch" d="M 402.5 525 L 402.5 530"/>
		<text class="x-axis-label" x="430.384615385" y="540">
			70
		</text>
		<path class="x-notch" d="M 458.269230769 525 L 458.269230769 530"/>
		<text class="x-axis-label" x="486.153846154" y="540">
			80
		</text>
		<path class="x-notch" d="M 514.038461538 525 L 514.038461538 530"/>
		<text class="x-axis-label" x="541.923076923" y="540">
			90
		</text>
		<path class="x-notch" d="M 569.807692308 525 L 569.807692308 530"/>
		<text class="x-axis-label" x="597.692307692" y="540">
			100
		</text>
		<path class="x-notch" d="M 625.576923077 525 L 625.576923077 530"/>
	</g>
</svg>
