<?xml version="1.0" ?>
<svg height="600" version="1.1" width="800" xmlns="http://www.w3.org/2000/svg" xmlns:svg="http://www.w3.org/2000/svg">
	<style type="text/css">
		

.x-axis-path, .y-gridline, .x-notch { fill:none; stroke: #a7a9ac; stroke-width:1; }



.y-gridline { stroke-width: 1; }

.y-axis-path, .y-axis-path2, .x-notch-left, .x-notch-right { display: none;}



.x-axis-label, .data-point-label {font-size: 12px; font-weight:normal; font-family: sans-serif; fill: #58595b; text-anchor:middle;}

.y-axis-label {font-size: 12px; font-family: helvetica; fill: #a7a9ac; text-anchor:end;}



.series-1-line { fill: none; stroke: #10b80c; stroke-width:2; }



.series-2-line { fill: none; stroke: #e90f0a; stroke-width: 2;}

	</style>
	<rect fill="white" height="600" width="800" x="0" y="0"/>
	<g id="grid" transform="translate(70, 30)">
		<g class="x-axis" id="x_axis">
			<path class="x-axis-path" d="M 0 525 L 660 525"/>
			<path class="x-notch-left" d="M 0 525, L 0 535"/>
			<path class="x-notch-right" d="M 660 525, L 660 535"/>
		</g>
		<g class="y-axis" id="y_axis">
			<path class="y-axis-path" d="M 0 525 L 0 0"/>
			<path class="y-axis-path-2" d="M 660 525 L 660 0"/>
			<path class="y-gridline" d="M 0 525 L 660 525"/>
			<text class="y-axis-label" x="-5" y="525">
				-100
			</text>
			<path class="y-gridline" d="M 0 438 L 660 438"/>
			<text class="y-axis-label" x="-5" y="438">
				 0
			</text>
			<path class="y-gridline" d="M 0 351 L 660 351"/>
			<text class="y-axis-label" x="-5" y="351">
				100
			</text>
			<path class="y-gridline" d="M 0 264 L 660 264"/>
			<text class="y-axis-label" x="-5" y="264">
				200
			</text>
			<path class="y-gridline" d="M 0 177 L 660 177"/>
			<text class="y-axis-label" x="-5" y="177">
				300
			</text>
			<path class="y-gridline" d="M 0 90 L 660 90"/>
			<text class="y-axis-label" x="-5" y="90">
				400
			</text>
			<path class="y-gridline" d="M 0 3 L 660 3"/>
			<text class="y-axis-label" x="-5" y="3">
				500
			</text>
		</g>
		<g>
			<path class="series-1-line" d="M 40 427.07189 L 44 444.605656393 L 49 425.097872787 L 54 439.08683918 L 59 451.303405574 L 63 414.766721967 L 68 426.691738361 L 73 419.770304754 L 78 430.797921148 L 83 443.956687541 L 87 406.634953934 L 92 430.002170328 L 97 419.042436721 L 102 443.351853115 L 107 442.196669508 L 111 432.986935902 L 116 449.600902295 L 121 447.750268689 L 126 415.117485082 L 131 428.949301475 L 135 423.957417869 L 140 392.872684262 L 145 414.131150656 L 150 341.270767049 L 155 351.266233443 L 159 354.665249836 L 164 344.19936623 L 169 293.909432623 L 174 324.029899016 L 179 329.26886541 L 183 272.719531803 L 188 277.375048197 L 193 267.85136459 L 198 256.981230984 L 202 258.630597377 L 207 198.46891377 L 212 266.416330164 L 217 214.578346557 L 222 169.202062951 L 226 213.367329344 L 231 161.574145738 L 236 175.428712131 L 241 139.946228525 L 246 128.492994918 L 250 167.453061311 L 255 175.968027705 L 260 85.7868440984 L 265 109.019660492 L 270 135.482976885 L 274 186.334293279 L 279 196.127459672 L 284 202.196626066 L 289 132.342742459 L 294 183.014508852 L 298 232.609325246 L 303 211.418741639 L 308 242.391808033 L 313 240.922324426 L 318 166.53629082 L 322 178.259357213 L 327 255.876573607 L 332 198.54184 L 337 225.027556393 L 341 244.086972787 L 346 233.35158918 L 351 202.132455574 L 356 220.541221967 L 361 206.283438361 L 365 258.009754754 L 370 254.094821148 L 375 267.545137541 L 380 268.185103934 L 385 267.455870328 L 389 265.313686721 L 394 273.491603115 L 399 259.772469508 L 404 297.947135902 L 409 284.699102295 L 413 316.771518689 L 418 229.215685082 L 423 208.989701475 L 428 281.850767869 L 433 302.660184262 L 437 262.130000656 L 442 257.048517049 L 447 285.710533443 L 452 211.010199836 L 457 315.46086623 L 461 317.536532623 L 466 369.801149016 L 471 354.24206541 L 476 392.484281803 L 480 411.027798197 L 485 402.80541459 L 490 405.037880984 L 495 430.581397377 L 500 433.93596377 L 504 364.530780164 L 509 413.250246557 L 514 398.947662951 L 519 409.257429344 L 524 425.960995738 L 528 424.738612131 L 533 437.628228525 L 538 429.966544918 L 543 424.122061311 L 548 441.970127705 L 552 408.439944098 L 557 413.880860492 L 562 443.193526885 L 567 424.762693279 L 572 431.033809672 L 576 433.827326066 L 581 438.819542459 L 586 424.696158852 L 591 423.742925246 L 596 438.539691639 L 600 417.708208033 L 605 437.059524426 L 610 451.02574082 L 615 444.732907213 L 620 437.475123607"/>
			<path class="series-2-line" d="M 40 446.775 L 44 436.231967213 L 49 437.063934426 L 54 433.520901639 L 59 433.477868852 L 63 429.059836066 L 68 440.391803279 L 73 422.848770492 L 78 437.680737705 L 83 427.137704918 L 87 442.844672131 L 92 443.676639344 L 97 441.883606557 L 102 432.21557377 L 107 436.547540984 L 111 434.754508197 L 116 431.21147541 L 121 441.668442623 L 126 442.500409836 L 131 429.332377049 L 135 417.914344262 L 140 416.121311475 L 145 438.828278689 L 150 436.160245902 L 155 441.367213115 L 159 417.699180328 L 164 441.281147541 L 169 432.488114754 L 174 437.695081967 L 179 434.15204918 L 183 446.359016393 L 188 431.440983607 L 193 444.52295082 L 198 428.729918033 L 202 439.186885246 L 207 434.768852459 L 212 442.600819672 L 217 436.432786885 L 222 446.014754098 L 226 444.221721311 L 231 431.053688525 L 236 448.510655738 L 241 416.092622951 L 246 423.049590164 L 250 414.256557377 L 255 445.71352459 L 260 415.045491803 L 265 436.877459016 L 270 432.45942623 L 274 445.541393443 L 279 413.998360656 L 284 417.455327869 L 289 423.537295082 L 294 430.494262295 L 298 434.826229508 L 303 425.158196721 L 308 433.865163934 L 313 418.947131148 L 318 415.404098361 L 322 424.111065574 L 327 424.943032787 L 332 423.15 L 337 415.231967213 L 341 405.563934426 L 346 402.895901639 L 351 422.102868852 L 356 411.559836066 L 361 412.391803279 L 365 425.473770492 L 370 416.680737705 L 375 394.762704918 L 380 426.219672131 L 385 398.176639344 L 389 420.008606557 L 394 401.59057377 L 399 420.797540984 L 404 398.004508197 L 409 411.96147541 L 413 419.793442623 L 418 423.250409836 L 423 399.582377049 L 428 425.789344262 L 433 416.121311475 L 437 420.453278689 L 442 423.035245902 L 447 416.867213115 L 452 394.074180328 L 457 406.281147541 L 461 418.488114754 L 466 415.820081967 L 471 414.90204918 L 476 415.734016393 L 480 418.315983607 L 485 433.14795082 L 490 420.854918033 L 495 423.436885246 L 500 440.893852459 L 504 445.225819672 L 509 415.432786885 L 514 423.264754098 L 519 447.721721311 L 524 430.178688525 L 528 445.010655738 L 533 442.342622951 L 538 437.924590164 L 543 423.006557377 L 548 431.71352459 L 552 436.045491803 L 557 435.127459016 L 562 429.83442623 L 567 433.291393443 L 572 439.373360656 L 576 441.955327869 L 581 442.787295082 L 586 422.619262295 L 591 429.576229508 L 596 436.533196721 L 600 439.115163934 L 605 452.197131148 L 610 418.029098361 L 615 438.986065574 L 620 439.818032787"/>
		</g>
		<text class="x-axis-label" x="40.0" y="540">
			0
		</text>
		<path class="x-notch" d="M 63.9669421488 525 L 63.9669421488 530"/>
		<text class="x-axis-label" x="87.9338842975" y="540">
			10
		</text>
		<path class="x-notch" d="M 111.900826446 525 L 111.900826446 530"/>
		<text class="x-axis-label" x="135.867768595" y="540">
			20
		</text>
		<path class="x-notch" d="M 159.834710744 525 L 159.834710744 530"/>
		<text class="x-axis-label" x="183.801652893" y="540">
			30
		</text>
		<path class="x-notch" d="M 207.768595041 525 L 207.768595041 530"/>
		<text class="x-axis-label" x="231.73553719" y="540">
			40
		</text>
		<path class="x-notch" d="M 255.702479339 525 L 255.702479339 530"/>
		<text class="x-axis-label" x="279.669421488" y="540">
			50
		</text>
		<path class="x-notch" d="M 303.636363636 525 L 303.636363636 530"/>
		<text class="x-axis-label" x="327.603305785" y="540">
			60
		</text>
		<path class="x-notch" d="M 351.570247934 525 L 351.570247934 530"/>
		<text class="x-axis-label" x="375.537190083" y="540">
			70
		</text>
		<path class="x-notch" d="M 399.504132231 525 L 399.504132231 530"/>
		<text class="x-axis-label" x="423.47107438" y="540">
			80
		</text>
		<path class="x-notch" d="M 447.438016529 525 L 447.438016529 530"/>
		<text class="x-axis-label" x="471.404958678" y="540">
			90
		</text>
		<path class="x-notch" d="M 495.371900826 525 L 495.371900826 530"/>
		<text class="x-axis-label" x="519.338842975" y="540">
			100
		</text>
		<path class="x-notch" d="M 543.305785124 525 L 543.305785124 530"/>
		<text class="x-axis-label" x="567.272727273" y="540">
			110
		</text>
		<path class="x-notch" d="M 591.239669421 525 L 591.239669421 530"/>
		<text class="x-axis-label" x="615.20661157" y="540">
			120
		</text>
		<path class="x-notch" d="M 639.173553719 525 L 639.173553719 530"/>
	</g>
</svg>
