<?xml version="1.0" ?>
<svg height="600" version="1.1" width="800" xmlns="http://www.w3.org/2000/svg" xmlns:svg="http://www.w3.org/2000/svg">
	<style type="text/css">
		

.x-axis-path, .y-gridline, .x-notch { fill:none; stroke: #a7a9ac; stroke-width:1; }



.y-gridline { stroke-width: 1; }

.y-axis-path, .y-axis-path2, .x-notch-left, .x-notch-right { display: none;}



.x-axis-label, .data-point-label {font-size: 12px; font-weight:normal; font-family: sans-serif; fill: #58595b; text-anchor:middle;}

.y-axis-label {font-size: 12px; font-family: helvetica; fill: #a7a9ac; text-anchor:end;}



.series-1-line { fill: none; stroke: #10b80c; stroke-width:2; }



.series-2-line { fill: none; stroke: #e90f0a; stroke-width: 2;}

	</style>
	<rect fill="white" height="600" width="800" x="0" y="0"/>
	<g id="grid" transform="translate(70, 30)">
		<g class="x-axis" id="x_axis">
			<path class="x-axis-path" d="M 0 525 L 660 525"/>
			<path class="x-notch-left" d="M 0 525, L 0 535"/>
			<path class="x-notch-right" d="M 660 525, L 660 535"/>
		</g>
		<g class="y-axis" id="y_axis">
			<path class="y-axis-path" d="M 0 525 L 0 0"/>
			<path class="y-axis-path-2" d="M 660 525 L 660 0"/>
			<path class="y-gridline" d="M 0 525 L 660 525"/>
			<text class="y-axis-label" x="-5" y="525">
				-200
			</text>
			<path class="y-gridline" d="M 0 394 L 660 394"/>
			<text class="y-axis-label" x="-5" y="394">
				 0
			</text>
			<path class="y-gridline" d="M 0 263 L 660 263"/>
			<text class="y-axis-label" x="-5" y="263">
				200
			</text>
			<path class="y-gridline" d="M 0 132 L 660 132"/>
			<text class="y-axis-label" x="-5" y="132">
				400
			</text>
			<path class="y-gridline" d="M 0 1 L 660 1"/>
			<text class="y-axis-label" x="-5" y="1">
				600
			</text>
		</g>
		<g>
			<path class="series-1-line" d="M 40 354.26764179 L 46 408.968207037 L 52 397.546007873 L 58 425.019357792 L 64 381.526754608 L 71 409.566062568 L 77 449.734303663 L 83 328.873691803 L 89 372.577239996 L 96 358.432815753 L 102 395.525245898 L 108 379.612340682 L 114 303.198741571 L 121 355.954308717 L 127 368.577052039 L 133 308.004761904 L 139 258.995446865 L 146 250.507293332 L 152 251.638220025 L 158 204.927488958 L 164 237.810537224 L 170 244.634692901 L 177 234.025575756 L 183 236.641452786 L 189 132.576445624 L 195 126.635103274 L 202 216.62475204 L 208 89.4707529615 L 214 174.298378975 L 220 101.207714792 L 227 81.9012677967 L 233 115.846728525 L 239 124.36655186 L 245 150.283241359 L 252 165.912843627 L 258 119.80282241 L 264 123.408850203 L 270 140.946492298 L 276 116.93586385 L 283 0.0 L 289 88.7876774498 L 295 122.449607542 L 301 113.184778647 L 308 111.485363521 L 314 2.39789246106 L 320 143.413126678 L 326 69.8993730052 L 333 60.4232751732 L 339 110.916113389 L 345 165.369003042 L 351 148.50235372 L 358 158.473478814 L 364 203.62777715 L 370 168.727145157 L 376 226.469872776 L 383 192.76955725 L 389 275.263847483 L 395 204.472870504 L 401 225.899405568 L 407 333.252823537 L 414 327.665618674 L 420 368.964672619 L 426 335.761363131 L 432 340.605217281 L 439 357.399832592 L 445 359.625717093 L 451 360.581229891 L 457 375.290185015 L 464 384.978331088 L 470 380.133049778 L 476 348.061104755 L 482 414.324645097 L 489 431.544556362 L 495 410.681448947 L 501 395.546873941 L 507 449.399053743 L 513 384.619036578 L 520 404.77354509 L 526 378.81957339 L 532 403.959035911 L 538 391.653147876 L 545 386.065391397 L 551 398.051569827 L 557 375.35047782 L 563 379.416001761 L 570 385.2853101 L 576 364.881147217 L 582 403.24615553 L 588 377.291632213 L 595 417.105184205 L 601 376.758998822 L 607 378.102297685 L 613 415.087162705 L 620 383.829402934"/>
			<path class="series-2-line" d="M 40 454.151954627 L 46 395.184788488 L 52 378.967864208 L 58 318.621658009 L 64 411.348898468 L 71 370.309253108 L 77 373.398889668 L 83 434.408208747 L 89 369.924882368 L 96 401.974360187 L 102 454.709438907 L 108 439.871554687 L 114 451.235431607 L 121 372.961704628 L 127 370.535180948 L 133 384.657137988 L 139 423.601816107 L 146 326.021528288 L 152 341.522525388 L 158 398.394724287 L 164 300.814436469 L 170 342.517194708 L 177 306.993709588 L 183 305.946225968 L 189 328.342423368 L 195 317.641659328 L 202 239.367932349 L 208 367.950214367 L 214 342.080009668 L 220 265.185322749 L 227 349.638322847 L 233 409.268601866 L 239 293.760793268 L 245 153.43026359 L 252 273.738305248 L 258 290.618342408 L 264 296.466059088 L 270 280.249134808 L 276 237.830449389 L 283 278.154167568 L 289 226.082201729 L 295 222.276637989 L 301 246.051875449 L 308 111.237506011 L 314 2.62489771239 L 320 31.9162954119 L 326 74.9980937111 L 333 185.652854949 L 339 137.71800929 L 345 63.5814024912 L 351 143.89728241 L 358 178.704840349 L 364 210.754318169 L 370 253.836116468 L 376 312.087355427 L 383 167.619705569 L 389 183.120702669 L 395 231.718661208 L 401 146.549733929 L 407 264.099695468 L 414 305.802453707 L 420 239.940087268 L 426 287.159005747 L 432 315.071363387 L 439 253.346117128 L 445 151.628709129 L 451 302.275632107 L 457 297.091028307 L 464 322.245305826 L 470 301.891261367 L 476 333.940739186 L 482 299.796294126 L 489 333.224812006 L 495 337.693488626 L 501 362.847766145 L 507 328.703321086 L 513 353.857598605 L 520 359.705315285 L 526 459.327756044 L 532 386.570189305 L 538 400.692146344 L 545 388.612342245 L 551 377.911578205 L 557 454.090337944 L 563 442.010533844 L 570 471.301931543 L 576 404.060525044 L 582 419.561522144 L 588 465.401400563 L 595 362.304952505 L 601 394.354430324 L 607 430.541028324 L 613 338.476900745 L 620 458.784942403"/>
		</g>
		<text class="x-axis-label" x="40.0" y="540">
			0
		</text>
		<path class="x-notch" d="M 71.1827956989 525 L 71.1827956989 530"/>
		<text class="x-axis-label" x="102.365591398" y="540">
			10
		</text>
		<path class="x-notch" d="M 133.548387097 525 L 133.548387097 530"/>
		<text class="x-axis-label" x="164.731182796" y="540">
			20
		</text>
		<path class="x-notch" d="M 195.913978495 525 L 195.913978495 530"/>
		<text class="x-axis-label" x="227.096774194" y="540">
			30
		</text>
		<path class="x-notch" d="M 258.279569892 525 L 258.279569892 530"/>
		<text class="x-axis-label" x="289.462365591" y="540">
			40
		</text>
		<path class="x-notch" d="M 320.64516129 525 L 320.64516129 530"/>
		<text class="x-axis-label" x="351.827956989" y="540">
			50
		</text>
		<path class="x-notch" d="M 383.010752688 525 L 383.010752688 530"/>
		<text class="x-axis-label" x="414.193548387" y="540">
			60
		</text>
		<path class="x-notch" d="M 445.376344086 525 L 445.376344086 530"/>
		<text class="x-axis-label" x="476.559139785" y="540">
			70
		</text>
		<path class="x-notch" d="M 507.741935484 525 L 507.741935484 530"/>
		<text class="x-axis-label" x="538.924731183" y="540">
			80
		</text>
		<path class="x-notch" d="M 570.107526882 525 L 570.107526882 530"/>
		<text class="x-axis-label" x="601.290322581" y="540">
			90
		</text>
		<path class="x-notch" d="M 632.47311828 525 L 632.47311828 530"/>
	</g>
</svg>
