<?xml version="1.0" ?>
<svg height="600" version="1.1" width="800" xmlns="http://www.w3.org/2000/svg" xmlns:svg="http://www.w3.org/2000/svg">
	<style type="text/css">
		

.x-axis-path, .y-gridline, .x-notch { fill:none; stroke: #a7a9ac; stroke-width:1; }



.y-gridline { stroke-width: 1; }

.y-axis-path, .y-axis-path2, .x-notch-left, .x-notch-right { display: none;}



.x-axis-label, .data-point-label {font-size: 12px; font-weight:normal; font-family: sans-serif; fill: #58595b; text-anchor:middle;}

.y-axis-label {font-size: 12px; font-family: helvetica; fill: #a7a9ac; text-anchor:end;}



.series-1-line { fill: none; stroke: #10b80c; stroke-width:2; }



.series-2-line { fill: none; stroke: #e90f0a; stroke-width: 2;}

	</style>
	<rect fill="white" height="600" width="800" x="0" y="0"/>
	<g id="grid" transform="translate(70, 30)">
		<g class="x-axis" id="x_axis">
			<path class="x-axis-path" d="M 0 525 L 660 525"/>
			<path class="x-notch-left" d="M 0 525, L 0 535"/>
			<path class="x-notch-right" d="M 660 525, L 660 535"/>
		</g>
		<g class="y-axis" id="y_axis">
			<path class="y-axis-path" d="M 0 525 L 0 0"/>
			<path class="y-axis-path-2" d="M 660 525 L 660 0"/>
			<path class="y-gridline" d="M 0 525 L 660 525"/>
			<text class="y-axis-label" x="-5" y="525">
				-250
			</text>
			<path class="y-gridline" d="M 0 420 L 660 420"/>
			<text class="y-axis-label" x="-5" y="420">
				 0
			</text>
			<path class="y-gridline" d="M 0 315 L 660 315"/>
			<text class="y-axis-label" x="-5" y="315">
				250
			</text>
			<path class="y-gridline" d="M 0 210 L 660 210"/>
			<text class="y-axis-label" x="-5" y="210">
				500
			</text>
			<path class="y-gridline" d="M 0 105 L 660 105"/>
			<text class="y-axis-label" x="-5" y="105">
				750
			</text>
			<path class="y-gridline" d="M 0 0 L 660 0"/>
			<text class="y-axis-label" x="-5" y="0">
				1000
			</text>
		</g>
		<g>
			<path class="series-1-line" d="M 40 429.408 L 45 405.564640779 L 50 420.910305559 L 55 424.054634338 L 60 422.535787118 L 65 407.716883897 L 70 390.388900677 L 75 419.056293456 L 80 406.089926236 L 85 423.072415015 L 90 404.904431795 L 95 413.993104574 L 100 395.792697354 L 105 402.404714133 L 110 392.711994913 L 115 406.334651692 L 120 383.148340472 L 125 405.741861251 L 130 382.318334031 L 135 419.30995881 L 140 403.69456759 L 145 411.447976369 L 150 366.399993149 L 155 392.945713928 L 160 315.083634708 L 165 342.867515487 L 170 325.055356267 L 175 318.216453046 L 180 303.301117826 L 185 280.416030605 L 190 250.046375385 L 195 227.269144164 L 200 179.980544944 L 205 180.917017723 L 210 134.285970503 L 215 166.905731282 L 220 164.729836062 L 225 130.009820841 L 230 117.236989621 L 235 128.7157984 L 240 104.990711179 L 245 81.427743959 L 250 109.750568738 L 255 136.467985518 L 260 107.714322297 L 265 99.6582590769 L 270 143.014563856 L 275 76.9879166359 L 280 51.3357014154 L 285 18.9196381949 L 290 75.9852469744 L 295 87.0877357538 L 300 84.9548485333 L 305 73.0769533128 L 310 33.2840100923 L 315 123.443434872 L 320 92.2011876513 L 325 116.033708431 L 330 124.59452521 L 335 191.95584599 L 340 165.947806769 L 345 202.250631549 L 350 195.216680328 L 355 335.679673108 L 360 308.109905887 L 365 371.831674667 L 370 298.653939446 L 375 314.483948226 L 380 371.410453005 L 385 382.631549785 L 390 345.735934564 L 395 280.840263344 L 400 326.092112123 L 405 425.127312903 L 410 432.256097682 L 415 438.954298462 L 420 419.170155241 L 425 444.392204021 L 430 433.6975328 L 435 436.637237579 L 440 469.019614359 L 445 448.687119138 L 450 416.077519918 L 455 472.314048697 L 460 446.413865477 L 465 438.595690256 L 470 404.317515036 L 475 466.229923815 L 480 429.485004595 L 485 462.201533374 L 490 439.078894154 L 495 455.868014933 L 500 462.781255713 L 505 457.052328492 L 510 445.378217272 L 515 458.990290051 L 520 454.886930831 L 525 452.87281961 L 530 451.45107639 L 535 444.730613169 L 540 431.117949949 L 545 439.151414728 L 550 436.200367508 L 555 439.839960287 L 560 438.740945067 L 565 449.294577846 L 570 438.675842626 L 575 443.036995405 L 580 423.609012185 L 585 416.953228964 L 590 449.443629744 L 595 428.367734523 L 600 425.718247303 L 605 423.305304082 L 610 401.842168862 L 615 415.690785641 L 620 429.733442421"/>
			<path class="series-2-line" d="M 40 420.0 L 45 426.578564103 L 50 412.997128205 L 55 419.155692308 L 60 415.65425641 L 65 406.692820513 L 70 412.431384615 L 75 417.329948718 L 80 430.628512821 L 85 407.387076923 L 90 413.125641026 L 95 392.824205128 L 100 387.222769231 L 105 392.961333333 L 110 386.939897436 L 115 380.078461538 L 120 398.837025641 L 125 401.215589744 L 130 391.414153846 L 135 358.932717949 L 140 392.391282051 L 145 383.849846154 L 150 389.588410256 L 155 381.466974359 L 160 362.845538462 L 165 325.324102564 L 170 373.902666667 L 175 364.941230769 L 180 403.859794872 L 185 391.958358974 L 190 384.676923077 L 195 388.735487179 L 200 334.414051282 L 205 324.612615385 L 210 331.611179487 L 215 342.38974359 L 220 326.708307692 L 225 359.326871795 L 230 342.385435897 L 235 260.344 L 240 248.442564103 L 245 293.241128205 L 250 302.759692308 L 255 234.99825641 L 260 286.936820513 L 265 254.875384615 L 270 228.693948718 L 275 214.692512821 L 280 257.811076923 L 285 225.749641026 L 290 206.708205128 L 295 183.466769231 L 300 161.065333333 L 305 250.383897436 L 310 222.522461538 L 315 200.541025641 L 320 165.539589744 L 325 220.418153846 L 330 184.156717949 L 335 197.035282051 L 340 197.313846154 L 345 206.832410256 L 350 80.690974359 L 355 106.589538462 L 360 88.3881025641 L 365 144.946666667 L 370 99.8652307692 L 375 59.8237948718 L 380 128.142358974 L 385 119.180923077 L 390 130.799487179 L 395 136.958051282 L 400 126.316615385 L 405 292.495179487 L 410 283.11374359 L 415 291.792307692 L 420 221.930871795 L 425 305.789435897 L 430 259.448 L 435 264.766564103 L 440 230.605128205 L 445 246.423692308 L 450 244.60225641 L 455 240.260820513 L 460 256.499384615 L 465 318.517948718 L 470 380.536512821 L 475 424.495076923 L 480 428.973641026 L 485 424.632205128 L 490 351.410769231 L 495 374.789333333 L 500 349.867897436 L 505 413.566461538 L 510 421.825025641 L 515 433.023589744 L 520 439.602153846 L 525 447.860717949 L 530 461.999282051 L 535 450.937846154 L 540 450.376410256 L 545 447.294974359 L 550 454.293538462 L 555 448.692102564 L 560 428.810666667 L 565 442.109230769 L 570 449.527794872 L 575 446.026358974 L 580 451.764923077 L 585 447.003487179 L 590 445.182051282 L 595 429.500615385 L 600 438.599179487 L 605 410.73774359 L 610 439.156307692 L 615 413.394871795 L 620 406.533435897"/>
		</g>
		<text class="x-axis-label" x="40.0" y="540">
			0
		</text>
		<path class="x-notch" d="M 65.0 525 L 65.0 530"/>
		<text class="x-axis-label" x="90.0" y="540">
			10
		</text>
		<path class="x-notch" d="M 115.0 525 L 115.0 530"/>
		<text class="x-axis-label" x="140.0" y="540">
			20
		</text>
		<path class="x-notch" d="M 165.0 525 L 165.0 530"/>
		<text class="x-axis-label" x="190.0" y="540">
			30
		</text>
		<path class="x-notch" d="M 215.0 525 L 215.0 530"/>
		<text class="x-axis-label" x="240.0" y="540">
			40
		</text>
		<path class="x-notch" d="M 265.0 525 L 265.0 530"/>
		<text class="x-axis-label" x="290.0" y="540">
			50
		</text>
		<path class="x-notch" d="M 315.0 525 L 315.0 530"/>
		<text class="x-axis-label" x="340.0" y="540">
			60
		</text>
		<path class="x-notch" d="M 365.0 525 L 365.0 530"/>
		<text class="x-axis-label" x="390.0" y="540">
			70
		</text>
		<path class="x-notch" d="M 415.0 525 L 415.0 530"/>
		<text class="x-axis-label" x="440.0" y="540">
			80
		</text>
		<path class="x-notch" d="M 465.0 525 L 465.0 530"/>
		<text class="x-axis-label" x="490.0" y="540">
			90
		</text>
		<path class="x-notch" d="M 515.0 525 L 515.0 530"/>
		<text class="x-axis-label" x="540.0" y="540">
			100
		</text>
		<path class="x-notch" d="M 565.0 525 L 565.0 530"/>
		<text class="x-axis-label" x="590.0" y="540">
			110
		</text>
		<path class="x-notch" d="M 615.0 525 L 615.0 530"/>
	</g>
</svg>
