<?xml version="1.0" ?>
<svg height="600" version="1.1" width="800" xmlns="http://www.w3.org/2000/svg" xmlns:svg="http://www.w3.org/2000/svg">
	<style type="text/css">

.x-axis-path, .y-gridline, .x-notch { fill:none; stroke: #a7a9ac; stroke-width:1; }



.y-gridline { stroke-width: 1; }

.y-axis-path, .y-axis-path2, .x-notch-left, .x-notch-right { display: none;}



.x-axis-label, .data-point-label {font-size: 12px; font-weight:normal; font-family: sans-serif; fill: #58595b; text-anchor:middle;}

.y-axis-label {font-size: 12px; font-family: helvetica; fill: #a7a9ac; text-anchor:end;}



.series-1-line { fill: none; stroke: #10b80c; stroke-width:2; }



.series-2-line { fill: none; stroke: #e90f0a; stroke-width: 2;}
</style>
	<rect fill="white" height="600" width="800" x="0" y="0"/>
	<g id="grid" transform="translate(70, 30)">
		<g class="x-axis" id="x_axis">
			<path class="x-axis-path" d="M 0 525 L 660 525"/>
			<path class="x-notch-left" d="M 0 525, L 0 535"/>
			<path class="x-notch-right" d="M 660 525, L 660 535"/>
		</g>
		<g class="y-axis" id="y_axis">
			<path class="y-axis-path" d="M 0 525 L 0 0"/>
			<path class="y-axis-path-2" d="M 660 525 L 660 0"/>
			<path class="y-gridline" d="M 0 525 L 660 525"/>
			<text class="y-axis-label" x="-5" y="525">-200</text>
			<path class="y-gridline" d="M 0 394 L 660 394"/>
			<text class="y-axis-label" x="-5" y="394"> 0</text>
			<path class="y-gridline" d="M 0 263 L 660 263"/>
			<text class="y-axis-label" x="-5" y="263">200</text>
			<path class="y-gridline" d="M 0 132 L 660 132"/>
			<text class="y-axis-label" x="-5" y="132">400</text>
			<path class="y-gridline" d="M 0 1 L 660 1"/>
			<text class="y-axis-label" x="-5" y="1">600</text>
		</g>
		<g>
			<path class="series-1-line" d="M 40 405.403239289 L 47 394.166042737 L 55 392.261369442 L 63 397.395029366 L 71 380.245620573 L 79 390.599040919 L 87 384.42337415 L 94 407.648378858 L 102 431.72344914 L 110 413.66506239 L 118 393.371706425 L 126 380.117917447 L 134 383.254416777 L 141 395.941199268 L 149 400.224793617 L 157 383.530644907 L 165 386.212501038 L 173 407.26268268 L 181 382.738739116 L 188 395.602875637 L 196 394.489047093 L 204 357.60738319 L 212 314.023279178 L 220 310.180357672 L 228 275.928468475 L 235 251.344687204 L 243 179.506081409 L 251 220.921749157 L 259 159.759547501 L 267 163.015105363 L 275 152.350993658 L 282 106.27498842 L 290 69.6900455195 L 298 112.96314973 L 306 0.0 L 314 72.0615187328 L 322 48.5449460568 L 330 78.1571633634 L 337 25.9712346964 L 345 50.1847953428 L 353 14.2722555459 L 361 78.7609114368 L 369 103.88345004 L 377 99.8042621216 L 384 40.8569809638 L 392 130.318009544 L 400 60.6736586476 L 408 47.262255914 L 416 87.2930200222 L 424 193.89693488 L 431 325.788141495 L 439 114.04342392 L 447 414.354026761 L 455 437.144436986 L 463 417.16785074 L 471 443.793734631 L 478 404.638854731 L 486 421.734195735 L 494 404.268634106 L 502 411.893578373 L 510 418.193765149 L 518 411.444705091 L 525 418.04161287 L 533 420.328046625 L 541 410.494568662 L 549 394.491946446 L 557 406.882316376 L 565 398.254228931 L 572 403.11152501 L 580 397.667482169 L 588 410.966213173 L 596 365.187854263 L 604 419.177768487 L 612 374.308695975 L 620 398.02751599"/>
			<path class="series-2-line" d="M 40 362.134716467 L 47 382.399342107 L 55 420.399370705 L 63 412.904235194 L 71 393.071428061 L 79 383.262979121 L 87 395.816559997 L 94 392.948051345 L 102 377.74187107 L 110 409.573063856 L 118 368.92043586 L 126 403.064942075 L 134 376.292194654 L 141 393.472402388 L 149 398.3149385 L 157 427.832817857 L 165 411.855533106 L 173 417.469173694 L 181 435.420485905 L 188 394.767857909 L 196 429.683468601 L 204 420.646124137 L 212 434.741913966 L 220 414.138002356 L 228 415.896120562 L 235 382.95453733 L 243 353.86847648 L 251 400.350654318 L 259 329.624951742 L 267 344.491846047 L 275 335.454501584 L 282 287.090828824 L 290 291.933364935 L 298 228.918707123 L 306 300.076228206 L 314 287.183361361 L 322 207.975509544 L 330 291.47070225 L 337 203.780701193 L 345 197.056670158 L 353 217.321295798 L 361 182.837503613 L 369 124.44947266 L 377 201.004725078 L 384 175.77418661 L 392 185.24334958 L 400 114.517647004 L 408 203.410571044 L 416 165.071256477 L 424 236.999882036 L 431 213.311552521 L 439 176.514446907 L 447 374.13310212 L 455 409.048712812 L 463 409.264622065 L 471 417.191576083 L 478 462.131544968 L 486 423.021125924 L 494 422.465930701 L 502 417.28410862 L 510 408.246764156 L 518 420.029240556 L 525 424.871776668 L 533 410.436700869 L 541 422.219177269 L 549 403.928579089 L 557 437.301980827 L 565 381.227263303 L 572 416.913978471 L 580 435.636395158 L 588 357.199647818 L 596 412.935079373 L 604 392.331167763 L 612 426.475673979 L 620 376.569792266"/>
		</g>
		<text class="x-axis-label" x="40.0" y="540">0</text>
		<path class="x-notch" d="M 79.1891891892 525 L 79.1891891892 530"/>
		<text class="x-axis-label" x="118.378378378" y="540">10</text>
		<path class="x-notch" d="M 157.567567568 525 L 157.567567568 530"/>
		<text class="x-axis-label" x="196.756756757" y="540">20</text>
		<path class="x-notch" d="M 235.945945946 525 L 235.945945946 530"/>
		<text class="x-axis-label" x="275.135135135" y="540">30</text>
		<path class="x-notch" d="M 314.324324324 525 L 314.324324324 530"/>
		<text class="x-axis-label" x="353.513513514" y="540">40</text>
		<path class="x-notch" d="M 392.702702703 525 L 392.702702703 530"/>
		<text class="x-axis-label" x="431.891891892" y="540">50</text>
		<path class="x-notch" d="M 471.081081081 525 L 471.081081081 530"/>
		<text class="x-axis-label" x="510.27027027" y="540">60</text>
		<path class="x-notch" d="M 549.459459459 525 L 549.459459459 530"/>
		<text class="x-axis-label" x="588.648648649" y="540">70</text>
		<path class="x-notch" d="M 627.837837838 525 L 627.837837838 530"/>
	</g>
</svg>
