<?xml version="1.0" ?>
<svg height="600" version="1.1" width="800" xmlns="http://www.w3.org/2000/svg" xmlns:svg="http://www.w3.org/2000/svg">
	<style type="text/css">
		

.x-axis-path, .y-gridline, .x-notch { fill:none; stroke: #a7a9ac; stroke-width:1; }



.y-gridline { stroke-width: 1; }

.y-axis-path, .y-axis-path2, .x-notch-left, .x-notch-right { display: none;}



.x-axis-label, .data-point-label {font-size: 12px; font-weight:normal; font-family: sans-serif; fill: #58595b; text-anchor:middle;}

.y-axis-label {font-size: 12px; font-family: helvetica; fill: #a7a9ac; text-anchor:end;}



.series-1-line { fill: none; stroke: #10b80c; stroke-width:2; }



.series-2-line { fill: none; stroke: #e90f0a; stroke-width: 2;}

	</style>
	<rect fill="white" height="600" width="800" x="0" y="0"/>
	<g id="grid" transform="translate(70, 30)">
		<g class="x-axis" id="x_axis">
			<path class="x-axis-path" d="M 0 525 L 660 525"/>
			<path class="x-notch-left" d="M 0 525, L 0 535"/>
			<path class="x-notch-right" d="M 660 525, L 660 535"/>
		</g>
		<g class="y-axis" id="y_axis">
			<path class="y-axis-path" d="M 0 525 L 0 0"/>
			<path class="y-axis-path-2" d="M 660 525 L 660 0"/>
			<path class="y-gridline" d="M 0 525 L 660 525"/>
			<text class="y-axis-label" x="-5" y="525">
				-200
			</text>
			<path class="y-gridline" d="M 0 394 L 660 394"/>
			<text class="y-axis-label" x="-5" y="394">
				 0
			</text>
			<path class="y-gridline" d="M 0 263 L 660 263"/>
			<text class="y-axis-label" x="-5" y="263">
				200
			</text>
			<path class="y-gridline" d="M 0 132 L 660 132"/>
			<text class="y-axis-label" x="-5" y="132">
				400
			</text>
			<path class="y-gridline" d="M 0 1 L 660 1"/>
			<text class="y-axis-label" x="-5" y="1">
				600
			</text>
		</g>
		<g>
			<path class="series-1-line" d="M 40 406.233503523 L 46 378.486891709 L 52 405.499943657 L 58 374.3891754 L 65 403.954845299 L 71 385.559386653 L 77 394.914779939 L 84 382.366597298 L 90 379.795777276 L 96 395.671350249 L 103 379.758649194 L 109 374.40318795 L 115 364.75547718 L 121 378.426648094 L 128 383.396765363 L 134 382.91415478 L 140 393.731548053 L 147 366.774032542 L 153 348.076690265 L 159 345.714727384 L 166 381.382862688 L 172 356.374197865 L 178 356.773348106 L 185 311.508436381 L 191 289.33074504 L 197 257.59340536 L 203 191.909721852 L 210 209.595148733 L 216 143.215033442 L 222 88.1121178472 L 229 88.209384456 L 235 68.8626665967 L 241 10.7199203795 L 248 53.9753252336 L 254 124.285874178 L 260 31.8952624719 L 266 60.3236201755 L 273 0.0 L 279 72.6771139134 L 285 115.978851027 L 292 74.3104809873 L 298 48.2115601704 L 304 48.1929961291 L 311 68.0364928086 L 317 127.85893836 L 323 30.5028114737 L 330 31.969051578 L 336 85.7824201859 L 342 72.4683073705 L 348 110.131625622 L 355 111.273177935 L 361 145.108293201 L 367 179.337594649 L 374 231.80479392 L 380 270.581896266 L 386 257.592833212 L 393 368.764091852 L 399 284.540988859 L 405 313.039206923 L 411 292.230489078 L 418 272.025176525 L 424 360.156270982 L 430 350.578058602 L 437 385.619622483 L 443 383.419822513 L 449 378.807125313 L 456 395.750150121 L 462 368.351754198 L 468 388.311081528 L 474 368.709174268 L 481 398.181817676 L 487 370.087351941 L 493 381.136768484 L 500 380.932513432 L 506 376.180457482 L 512 373.70230198 L 519 370.017697864 L 525 381.53116095 L 531 375.642154775 L 538 386.830568098 L 544 390.756761633 L 550 399.068231186 L 556 399.768903088 L 563 386.106936351 L 569 366.017454448 L 575 377.577249794 L 582 376.120213867 L 588 383.132208314 L 594 391.907724409 L 601 402.3074034 L 607 396.255872344 L 613 396.840713595 L 620 381.716746872"/>
			<path class="series-2-line" d="M 40 408.59080204 L 46 393.066926106 L 52 375.733196264 L 58 390.976836755 L 65 398.981061616 L 71 406.985286477 L 77 391.461410543 L 84 404.895197126 L 90 414.709275895 L 96 405.519888636 L 103 414.429040451 L 109 399.81009147 L 115 419.578366729 L 121 401.339709934 L 128 399.389738305 L 134 401.05947449 L 140 404.539064583 L 147 407.113727722 L 153 391.589851788 L 159 404.118711418 L 166 413.027863232 L 172 393.884279483 L 178 399.173723484 L 185 399.033605762 L 191 397.083634133 L 197 404.18293204 L 203 413.092083855 L 210 403.902696596 L 216 380.234478079 L 222 397.287972477 L 229 379.049315682 L 235 394.292956172 L 241 391.438057589 L 248 381.343743377 L 254 385.728260424 L 260 396.447266146 L 266 370.064266767 L 273 389.832542026 L 279 377.928373907 L 285 360.594644065 L 292 364.074234158 L 298 373.888312927 L 304 373.748195205 L 311 380.847493112 L 317 362.608836317 L 323 371.517988132 L 330 351.469477429 L 336 388.431364808 L 342 380.146904503 L 348 360.0983938 L 355 355.43364131 L 361 367.96250094 L 367 354.248478913 L 374 354.108361191 L 380 336.774631349 L 386 348.398564025 L 393 331.064834183 L 399 338.164132091 L 405 336.214160462 L 411 332.454334925 L 418 340.458559786 L 424 388.279570609 L 430 397.188722424 L 437 397.953531656 L 443 385.144436583 L 449 395.863442305 L 456 396.628251537 L 462 397.393060768 L 468 386.393819602 L 474 406.162094861 L 481 393.352999788 L 487 396.832589881 L 493 399.40725302 L 500 392.932646622 L 506 390.07774804 L 512 385.412995549 L 519 392.512293457 L 525 393.277102689 L 531 391.32713106 L 538 372.183547311 L 544 391.951822569 L 550 398.146193523 L 556 391.671587126 L 563 402.390592848 L 569 392.296278636 L 575 385.821672238 L 582 398.350531868 L 588 395.495633285 L 594 399.880150331 L 601 397.930178702 L 607 386.026010583 L 613 397.649943258 L 620 389.365482954"/>
		</g>
		<text class="x-axis-label" x="40.0" y="540">
			0
		</text>
		<path class="x-notch" d="M 71.5217391304 525 L 71.5217391304 530"/>
		<text class="x-axis-label" x="103.043478261" y="540">
			10
		</text>
		<path class="x-notch" d="M 134.565217391 525 L 134.565217391 530"/>
		<text class="x-axis-label" x="166.086956522" y="540">
			20
		</text>
		<path class="x-notch" d="M 197.608695652 525 L 197.608695652 530"/>
		<text class="x-axis-label" x="229.130434783" y="540">
			30
		</text>
		<path class="x-notch" d="M 260.652173913 525 L 260.652173913 530"/>
		<text class="x-axis-label" x="292.173913043" y="540">
			40
		</text>
		<path class="x-notch" d="M 323.695652174 525 L 323.695652174 530"/>
		<text class="x-axis-label" x="355.217391304" y="540">
			50
		</text>
		<path class="x-notch" d="M 386.739130435 525 L 386.739130435 530"/>
		<text class="x-axis-label" x="418.260869565" y="540">
			60
		</text>
		<path class="x-notch" d="M 449.782608696 525 L 449.782608696 530"/>
		<text class="x-axis-label" x="481.304347826" y="540">
			70
		</text>
		<path class="x-notch" d="M 512.826086957 525 L 512.826086957 530"/>
		<text class="x-axis-label" x="544.347826087" y="540">
			80
		</text>
		<path class="x-notch" d="M 575.869565217 525 L 575.869565217 530"/>
		<text class="x-axis-label" x="607.391304348" y="540">
			90
		</text>
		<path class="x-notch" d="M 638.913043478 525 L 638.913043478 530"/>
	</g>
</svg>
