<?xml version="1.0" ?>
<svg height="600" version="1.1" width="800" xmlns="http://www.w3.org/2000/svg" xmlns:svg="http://www.w3.org/2000/svg">
	<style type="text/css">
		

.x-axis-path, .y-gridline, .x-notch { fill:none; stroke: #a7a9ac; stroke-width:1; }



.y-gridline { stroke-width: 1; }

.y-axis-path, .y-axis-path2, .x-notch-left, .x-notch-right { display: none;}



.x-axis-label, .data-point-label {font-size: 12px; font-weight:normal; font-family: sans-serif; fill: #58595b; text-anchor:middle;}

.y-axis-label {font-size: 12px; font-family: helvetica; fill: #a7a9ac; text-anchor:end;}



.series-1-line { fill: none; stroke: #10b80c; stroke-width:2; }



.series-2-line { fill: none; stroke: #e90f0a; stroke-width: 2;}

	</style>
	<rect fill="white" height="600" width="800" x="0" y="0"/>
	<g id="grid" transform="translate(70, 30)">
		<g class="x-axis" id="x_axis">
			<path class="x-axis-path" d="M 0 525 L 660 525"/>
			<path class="x-notch-left" d="M 0 525, L 0 535"/>
			<path class="x-notch-right" d="M 660 525, L 660 535"/>
		</g>
		<g class="y-axis" id="y_axis">
			<path class="y-axis-path" d="M 0 525 L 0 0"/>
			<path class="y-axis-path-2" d="M 660 525 L 660 0"/>
			<path class="y-gridline" d="M 0 525 L 660 525"/>
			<text class="y-axis-label" x="-5" y="525">
				-100
			</text>
			<path class="y-gridline" d="M 0 438 L 660 438"/>
			<text class="y-axis-label" x="-5" y="438">
				 0
			</text>
			<path class="y-gridline" d="M 0 351 L 660 351"/>
			<text class="y-axis-label" x="-5" y="351">
				100
			</text>
			<path class="y-gridline" d="M 0 264 L 660 264"/>
			<text class="y-axis-label" x="-5" y="264">
				200
			</text>
			<path class="y-gridline" d="M 0 177 L 660 177"/>
			<text class="y-axis-label" x="-5" y="177">
				300
			</text>
			<path class="y-gridline" d="M 0 90 L 660 90"/>
			<text class="y-axis-label" x="-5" y="90">
				400
			</text>
			<path class="y-gridline" d="M 0 3 L 660 3"/>
			<text class="y-axis-label" x="-5" y="3">
				500
			</text>
		</g>
		<g>
			<path class="series-1-line" d="M 40 463.43997 L 43 445.987763813 L 47 421.446307625 L 50 416.647301438 L 54 437.53759525 L 58 442.476289062 L 61 369.494832875 L 65 414.930276687 L 69 438.8498205 L 72 422.295014312 L 76 456.220008125 L 80 443.928201937 L 83 399.12629575 L 87 394.260439562 L 91 440.099433375 L 94 426.843027188 L 98 429.919021 L 102 403.268114813 L 105 407.129508625 L 109 419.584452437 L 112 413.84359625 L 116 437.516040062 L 120 471.194983875 L 123 431.845027687 L 127 407.7743215 L 131 414.664615313 L 134 389.113059125 L 138 415.679302937 L 142 439.30729675 L 145 446.826190562 L 149 391.771034375 L 153 329.311628187 L 156 356.147722 L 160 343.182165812 L 164 425.278359625 L 167 348.303753437 L 171 342.47329725 L 174 367.693791062 L 178 362.895134875 L 182 340.214978687 L 185 354.5319225 L 189 301.159566312 L 193 372.665810125 L 196 301.479503937 L 200 328.15844775 L 204 333.702641562 L 207 301.801735375 L 211 326.753079188 L 215 312.284623 L 218 324.985966813 L 222 293.107460625 L 226 339.036054437 L 229 279.29194825 L 233 299.980642063 L 236 291.323235875 L 240 335.187529687 L 244 273.3570735 L 247 253.571767313 L 251 274.506861125 L 255 277.246504937 L 258 267.96084875 L 262 266.662542562 L 266 286.251536375 L 269 266.308730187 L 273 316.208774 L 277 250.407217812 L 280 271.185511625 L 284 257.344955438 L 288 280.77099925 L 291 302.110343062 L 295 251.564936875 L 298 261.551330687 L 302 202.5030245 L 306 211.098168312 L 309 311.793362125 L 313 207.535905937 L 317 201.72784975 L 320 159.102593562 L 324 219.637387375 L 328 180.736831188 L 331 177.126775 L 335 176.344018812 L 339 140.292112625 L 342 162.394106437 L 346 190.15000025 L 350 149.499094063 L 353 140.437787875 L 357 210.036531687 L 361 158.3245755 L 364 124.359019312 L 368 184.557463125 L 371 198.044206938 L 375 112.88030075 L 379 150.933894562 L 382 139.449538375 L 386 193.836932187 L 390 171.560326 L 393 117.111719813 L 397 109.620513625 L 401 34.5075574375 L 404 47.11895125 L 408 42.4777950625 L 412 73.531738875 L 415 103.015232687 L 419 172.2776265 L 423 178.495220313 L 426 86.555314125 L 430 162.324207937 L 433 111.50965175 L 437 145.771345563 L 441 146.200289375 L 444 166.687033188 L 448 173.488427 L 452 174.478070812 L 455 195.098864625 L 459 155.300558437 L 463 181.86750225 L 466 134.889296063 L 470 149.003589875 L 474 188.336433688 L 477 161.7975275 L 481 191.213821313 L 485 229.334965125 L 488 199.834708938 L 492 217.49450275 L 495 254.291946563 L 499 233.676090375 L 503 242.967034187 L 506 239.021328 L 510 237.453521812 L 514 263.549365625 L 517 241.609809437 L 521 240.91665325 L 525 289.671847062 L 528 271.435290875 L 532 320.819784688 L 536 419.8101285 L 539 442.316372312 L 543 429.036866125 L 547 456.186909937 L 550 421.59345375 L 554 431.221097563 L 557 392.185091375 L 561 413.390035187 L 565 464.097529 L 568 464.167722813 L 572 450.484666625 L 576 454.368810437 L 579 447.73020425 L 583 451.838698062 L 587 469.543291875 L 590 450.273535687 L 594 436.1645295 L 598 479.266173312 L 601 471.798067125 L 605 469.108160937 L 609 447.59490475 L 612 438.488098562 L 616 416.167042375 L 620 419.803386187"/>
			<path class="series-2-line" d="M 40 397.075 L 43 419.47171875 L 47 489.9934375 L 50 449.39015625 L 54 428.036875 L 58 438.18359375 L 61 421.2053125 L 65 426.97703125 L 69 444.99875 L 72 463.89546875 L 76 388.2921875 L 80 424.68890625 L 83 413.835625 L 87 417.85734375 L 91 394.7540625 L 94 445.15078125 L 98 404.5475 L 102 428.69421875 L 105 402.0909375 L 109 434.11265625 L 112 438.134375 L 116 426.40609375 L 120 423.4278125 L 123 415.19953125 L 127 446.34625 L 131 424.99296875 L 134 448.2646875 L 138 394.53640625 L 142 423.933125 L 145 441.07984375 L 149 425.8515625 L 153 371.24828125 L 156 377.895 L 160 348.66671875 L 164 402.5634375 L 167 428.46015625 L 171 446.481875 L 174 432.12859375 L 178 425.6503125 L 182 410.42203125 L 185 424.94375 L 189 420.21546875 L 193 453.9871875 L 196 464.13390625 L 200 461.155625 L 204 445.05234375 L 207 469.1990625 L 211 462.72078125 L 215 463.2425 L 218 456.76421875 L 222 477.4109375 L 226 440.30765625 L 229 439.954375 L 233 450.10109375 L 236 465.4978125 L 240 409.14453125 L 244 427.16625 L 247 472.31296875 L 251 443.9596875 L 255 421.73140625 L 258 432.753125 L 262 460.39984375 L 266 437.2965625 L 269 438.69328125 L 273 430.465 L 277 453.73671875 L 280 449.8834375 L 284 420.65515625 L 288 447.426875 L 291 458.44859375 L 295 456.3453125 L 298 429.74203125 L 302 457.38875 L 306 408.91046875 L 309 427.8071875 L 313 375.82890625 L 317 390.350625 L 320 415.37234375 L 324 420.2690625 L 328 478.54078125 L 331 423.0625 L 335 404.33421875 L 339 393.4809375 L 342 387.87765625 L 346 387.524375 L 350 411.67109375 L 353 421.8178125 L 357 411.83953125 L 361 421.11125 L 364 391.88296875 L 368 415.1546875 L 371 422.67640625 L 375 429.323125 L 379 392.21984375 L 382 404.9915625 L 386 413.38828125 L 390 369.285 L 393 430.18171875 L 397 400.0784375 L 401 374.35015625 L 404 347.746875 L 408 385.01859375 L 412 382.0403125 L 415 385.18703125 L 419 393.58375 L 423 408.98046875 L 426 380.6271875 L 430 397.77390625 L 433 403.545625 L 437 343.69234375 L 441 340.7140625 L 444 348.23578125 L 448 409.1325 L 452 386.90421875 L 455 339.3009375 L 459 366.94765625 L 463 381.469375 L 466 368.86609375 L 470 312.5128125 L 474 314.78453125 L 477 321.43125 L 481 335.07796875 L 485 321.5996875 L 488 346.62140625 L 492 351.518125 L 495 339.78984375 L 499 343.8115625 L 503 323.33328125 L 506 354.48 L 510 355.87671875 L 514 375.6484375 L 517 381.42015625 L 521 348.691875 L 525 280.08859375 L 528 390.8603125 L 532 429.00703125 L 536 475.02875 L 539 508.80046875 L 543 494.4471875 L 547 486.21890625 L 550 486.740625 L 554 482.01234375 L 557 458.9090625 L 561 490.93078125 L 565 459.0775 L 568 477.97421875 L 572 492.4959375 L 576 496.51765625 L 579 469.914375 L 583 473.06109375 L 587 470.9578125 L 590 469.72953125 L 594 516.62625 L 598 476.89796875 L 601 511.5446875 L 605 483.19140625 L 609 490.713125 L 612 439.60984375 L 616 436.6315625 L 620 342.65328125"/>
		</g>
		<text class="x-axis-label" x="40.0" y="540">
			0
		</text>
		<path class="x-notch" d="M 58.2389937107 525 L 58.2389937107 530"/>
		<text class="x-axis-label" x="76.4779874214" y="540">
			10
		</text>
		<path class="x-notch" d="M 94.7169811321 525 L 94.7169811321 530"/>
		<text class="x-axis-label" x="112.955974843" y="540">
			20
		</text>
		<path class="x-notch" d="M 131.194968553 525 L 131.194968553 530"/>
		<text class="x-axis-label" x="149.433962264" y="540">
			30
		</text>
		<path class="x-notch" d="M 167.672955975 525 L 167.672955975 530"/>
		<text class="x-axis-label" x="185.911949686" y="540">
			40
		</text>
		<path class="x-notch" d="M 204.150943396 525 L 204.150943396 530"/>
		<text class="x-axis-label" x="222.389937107" y="540">
			50
		</text>
		<path class="x-notch" d="M 240.628930818 525 L 240.628930818 530"/>
		<text class="x-axis-label" x="258.867924528" y="540">
			60
		</text>
		<path class="x-notch" d="M 277.106918239 525 L 277.106918239 530"/>
		<text class="x-axis-label" x="295.34591195" y="540">
			70
		</text>
		<path class="x-notch" d="M 313.58490566 525 L 313.58490566 530"/>
		<text class="x-axis-label" x="331.823899371" y="540">
			80
		</text>
		<path class="x-notch" d="M 350.062893082 525 L 350.062893082 530"/>
		<text class="x-axis-label" x="368.301886792" y="540">
			90
		</text>
		<path class="x-notch" d="M 386.540880503 525 L 386.540880503 530"/>
		<text class="x-axis-label" x="404.779874214" y="540">
			100
		</text>
		<path class="x-notch" d="M 423.018867925 525 L 423.018867925 530"/>
		<text class="x-axis-label" x="441.257861635" y="540">
			110
		</text>
		<path class="x-notch" d="M 459.496855346 525 L 459.496855346 530"/>
		<text class="x-axis-label" x="477.735849057" y="540">
			120
		</text>
		<path class="x-notch" d="M 495.974842767 525 L 495.974842767 530"/>
		<text class="x-axis-label" x="514.213836478" y="540">
			130
		</text>
		<path class="x-notch" d="M 532.452830189 525 L 532.452830189 530"/>
		<text class="x-axis-label" x="550.691823899" y="540">
			140
		</text>
		<path class="x-notch" d="M 568.93081761 525 L 568.93081761 530"/>
		<text class="x-axis-label" x="587.169811321" y="540">
			150
		</text>
		<path class="x-notch" d="M 605.408805031 525 L 605.408805031 530"/>
	</g>
</svg>
