<?xml version="1.0" ?>
<svg height="600" version="1.1" width="800" xmlns="http://www.w3.org/2000/svg" xmlns:svg="http://www.w3.org/2000/svg">
	<style type="text/css">
		

.x-axis-path, .y-gridline, .x-notch { fill:none; stroke: #a7a9ac; stroke-width:1; }



.y-gridline { stroke-width: 1; }

.y-axis-path, .y-axis-path2, .x-notch-left, .x-notch-right { display: none;}



.x-axis-label, .data-point-label {font-size: 12px; font-weight:normal; font-family: sans-serif; fill: #58595b; text-anchor:middle;}

.y-axis-label {font-size: 12px; font-family: helvetica; fill: #a7a9ac; text-anchor:end;}



.series-1-line { fill: none; stroke: #10b80c; stroke-width:2; }



.series-2-line { fill: none; stroke: #e90f0a; stroke-width: 2;}

	</style>
	<rect fill="white" height="600" width="800" x="0" y="0"/>
	<g id="grid" transform="translate(70, 30)">
		<g class="x-axis" id="x_axis">
			<path class="x-axis-path" d="M 0 525 L 660 525"/>
			<path class="x-notch-left" d="M 0 525, L 0 535"/>
			<path class="x-notch-right" d="M 660 525, L 660 535"/>
		</g>
		<g class="y-axis" id="y_axis">
			<path class="y-axis-path" d="M 0 525 L 0 0"/>
			<path class="y-axis-path-2" d="M 660 525 L 660 0"/>
			<path class="y-gridline" d="M 0 525 L 660 525"/>
			<text class="y-axis-label" x="-5" y="525">
				-200
			</text>
			<path class="y-gridline" d="M 0 394 L 660 394"/>
			<text class="y-axis-label" x="-5" y="394">
				 0
			</text>
			<path class="y-gridline" d="M 0 263 L 660 263"/>
			<text class="y-axis-label" x="-5" y="263">
				200
			</text>
			<path class="y-gridline" d="M 0 132 L 660 132"/>
			<text class="y-axis-label" x="-5" y="132">
				400
			</text>
			<path class="y-gridline" d="M 0 1 L 660 1"/>
			<text class="y-axis-label" x="-5" y="1">
				600
			</text>
		</g>
		<g>
			<path class="series-1-line" d="M 40 389.708903333 L 46 400.5528335 L 53 412.31932933 L 59 377.328297576 L 66 384.536944827 L 72 387.667880636 L 79 398.216474651 L 86 407.14129553 L 92 378.866714508 L 99 369.247245947 L 105 404.023479303 L 112 389.440290842 L 119 385.799220483 L 125 328.278300488 L 132 330.025243878 L 138 308.393423476 L 145 272.424558477 L 152 238.577450574 L 158 209.011277625 L 165 165.126482607 L 171 128.160786128 L 178 137.325675576 L 185 121.376917223 L 191 47.4705977935 L 198 80.1432087288 L 204 0.0 L 211 54.2430884586 L 217 78.0772037129 L 224 111.008017893 L 231 82.5120786827 L 237 122.713170844 L 244 117.11614614 L 250 115.412607598 L 257 134.043222236 L 264 149.057264337 L 270 76.5162269464 L 277 112.639319814 L 283 150.736789554 L 290 150.472511015 L 297 206.911334535 L 303 191.571671016 L 310 203.891706243 L 316 191.430562731 L 323 204.968499773 L 330 251.793642174 L 336 219.902776468 L 343 237.075420722 L 349 256.831824535 L 356 304.505842486 L 362 349.172382734 L 369 302.113731555 L 376 340.26646888 L 382 341.976855065 L 389 365.626169335 L 395 364.513015246 L 402 364.691453084 L 409 384.503124481 L 415 373.573641465 L 422 397.370911663 L 428 400.077265771 L 435 403.85414147 L 442 408.073733545 L 448 395.74154773 L 455 399.075707051 L 461 399.124899341 L 468 398.122568272 L 475 410.479448555 L 481 407.022891329 L 488 403.861670255 L 494 390.865409874 L 501 403.738984498 L 507 402.238381616 L 514 392.951094264 L 521 399.883115742 L 527 390.300492237 L 534 392.822333212 L 540 387.280863945 L 547 398.77044615 L 554 393.468757599 L 560 403.943661501 L 567 399.749051745 L 573 384.981350152 L 580 383.462324742 L 587 385.744385001 L 593 402.382200238 L 600 386.858023587 L 606 400.801831949 L 613 397.308429667 L 620 387.85505171"/>
			<path class="series-2-line" d="M 40 384.250883977 L 46 393.512279528 L 53 399.175525069 L 59 401.960250604 L 66 388.913116101 L 72 394.576361642 L 79 393.762937169 L 86 393.669142696 L 92 387.098678209 L 99 389.163773742 L 105 397.70553929 L 112 388.256554796 L 119 383.844980314 L 125 393.106375864 L 132 390.134061385 L 138 385.722486902 L 145 400.740922466 L 152 393.450827977 L 158 391.917773501 L 165 406.936209065 L 171 380.935734531 L 178 399.552320104 L 185 378.589255582 L 191 390.009541137 L 198 389.915746665 L 204 391.980842198 L 211 394.765567733 L 217 398.269923269 L 224 385.942418768 L 231 385.848624296 L 237 390.072609834 L 244 382.062885343 L 250 384.127980876 L 257 385.473446407 L 264 389.697431945 L 270 384.566227461 L 277 379.435022977 L 283 375.023448495 L 290 377.088544028 L 297 374.116229549 L 303 370.424285068 L 310 373.928640605 L 316 370.236696124 L 323 380.217721676 L 330 361.413547159 L 336 385.787172745 L 343 361.945588217 L 349 384.160323797 L 356 373.2720793 L 362 382.53347485 L 369 387.47709039 L 376 374.429955887 L 382 405.280251488 L 389 381.43866696 L 395 375.587832474 L 402 364.699587976 L 409 378.278763536 L 415 388.259789088 L 422 397.521184638 L 428 385.193680137 L 435 402.371005706 L 442 406.594991244 L 448 382.753406715 L 455 412.884072315 L 461 394.079897799 L 468 399.023513338 L 475 396.770828861 L 481 391.639624377 L 488 396.583239917 L 494 392.171665434 L 501 393.517130966 L 507 391.98407649 L 514 398.366952033 L 521 400.432047566 L 527 396.740103086 L 534 385.132228586 L 540 396.552514141 L 547 389.262419652 L 554 391.327515185 L 560 402.028170739 L 567 399.775486262 L 573 391.046131769 L 580 392.3915973 L 587 390.138912823 L 593 393.643268359 L 600 390.67095388 L 606 393.455679415 L 613 394.081514945 L 620 398.305500483"/>
		</g>
		<text class="x-axis-label" x="40.0" y="540">
			0
		</text>
		<path class="x-notch" d="M 72.9545454545 525 L 72.9545454545 530"/>
		<text class="x-axis-label" x="105.909090909" y="540">
			10
		</text>
		<path class="x-notch" d="M 138.863636364 525 L 138.863636364 530"/>
		<text class="x-axis-label" x="171.818181818" y="540">
			20
		</text>
		<path class="x-notch" d="M 204.772727273 525 L 204.772727273 530"/>
		<text class="x-axis-label" x="237.727272727" y="540">
			30
		</text>
		<path class="x-notch" d="M 270.681818182 525 L 270.681818182 530"/>
		<text class="x-axis-label" x="303.636363636" y="540">
			40
		</text>
		<path class="x-notch" d="M 336.590909091 525 L 336.590909091 530"/>
		<text class="x-axis-label" x="369.545454545" y="540">
			50
		</text>
		<path class="x-notch" d="M 402.5 525 L 402.5 530"/>
		<text class="x-axis-label" x="435.454545455" y="540">
			60
		</text>
		<path class="x-notch" d="M 468.409090909 525 L 468.409090909 530"/>
		<text class="x-axis-label" x="501.363636364" y="540">
			70
		</text>
		<path class="x-notch" d="M 534.318181818 525 L 534.318181818 530"/>
		<text class="x-axis-label" x="567.272727273" y="540">
			80
		</text>
		<path class="x-notch" d="M 600.227272727 525 L 600.227272727 530"/>
	</g>
</svg>
