<?xml version="1.0" ?>
<svg height="600" version="1.1" width="800" xmlns="http://www.w3.org/2000/svg" xmlns:svg="http://www.w3.org/2000/svg">
	<style type="text/css">
		

.x-axis-path, .y-gridline, .x-notch { fill:none; stroke: #a7a9ac; stroke-width:1; }



.y-gridline { stroke-width: 1; }

.y-axis-path, .y-axis-path2, .x-notch-left, .x-notch-right { display: none;}



.x-axis-label, .data-point-label {font-size: 12px; font-weight:normal; font-family: sans-serif; fill: #58595b; text-anchor:middle;}

.y-axis-label {font-size: 12px; font-family: helvetica; fill: #a7a9ac; text-anchor:end;}



.series-1-line { fill: none; stroke: #10b80c; stroke-width:2; }



.series-2-line { fill: none; stroke: #e90f0a; stroke-width: 2;}

	</style>
	<rect fill="white" height="600" width="800" x="0" y="0"/>
	<g id="grid" transform="translate(70, 30)">
		<g class="x-axis" id="x_axis">
			<path class="x-axis-path" d="M 0 525 L 660 525"/>
			<path class="x-notch-left" d="M 0 525, L 0 535"/>
			<path class="x-notch-right" d="M 660 525, L 660 535"/>
		</g>
		<g class="y-axis" id="y_axis">
			<path class="y-axis-path" d="M 0 525 L 0 0"/>
			<path class="y-axis-path-2" d="M 660 525 L 660 0"/>
			<path class="y-gridline" d="M 0 525 L 660 525"/>
			<text class="y-axis-label" x="-5" y="525">
				-100
			</text>
			<path class="y-gridline" d="M 0 438 L 660 438"/>
			<text class="y-axis-label" x="-5" y="438">
				 0
			</text>
			<path class="y-gridline" d="M 0 351 L 660 351"/>
			<text class="y-axis-label" x="-5" y="351">
				100
			</text>
			<path class="y-gridline" d="M 0 264 L 660 264"/>
			<text class="y-axis-label" x="-5" y="264">
				200
			</text>
			<path class="y-gridline" d="M 0 177 L 660 177"/>
			<text class="y-axis-label" x="-5" y="177">
				300
			</text>
			<path class="y-gridline" d="M 0 90 L 660 90"/>
			<text class="y-axis-label" x="-5" y="90">
				400
			</text>
			<path class="y-gridline" d="M 0 3 L 660 3"/>
			<text class="y-axis-label" x="-5" y="3">
				500
			</text>
		</g>
		<g>
			<path class="series-1-line" d="M 40 439.37565 L 45 453.089118696 L 50 445.062337391 L 55 428.509906087 L 60 422.636674783 L 65 399.734893478 L 70 415.400662174 L 75 426.24238087 L 80 423.398049565 L 85 439.243018261 L 90 460.674336957 L 95 437.884905652 L 101 435.287324348 L 106 414.965743043 L 111 443.756161739 L 116 441.383280435 L 121 437.01329913 L 126 455.056967826 L 131 433.007786522 L 136 429.983905217 L 141 419.848373913 L 146 405.786192609 L 151 330.810361304 L 157 382.53033 L 162 358.955498696 L 167 355.415717391 L 172 310.594136087 L 177 304.384554783 L 182 263.264573478 L 187 261.026092174 L 192 261.50256087 L 197 261.440379565 L 202 258.259698261 L 207 213.594916957 L 212 205.927235652 L 218 212.259204348 L 223 127.389573043 L 228 197.125441739 L 233 151.249310435 L 238 161.82152913 L 243 136.855447826 L 248 143.232566522 L 253 141.150885217 L 258 76.607853913 L 263 94.8986226087 L 268 83.4614413043 L 274 171.59471 L 279 76.1799286957 L 284 106.787547391 L 289 113.321816087 L 294 122.548284783 L 299 122.059453478 L 304 71.5615721739 L 309 159.51529087 L 314 26.8346095652 L 319 137.134428261 L 324 78.2904469565 L 330 92.0487156522 L 335 5.63068434783 L 340 71.9117030435 L 345 28.8177217391 L 350 124.310090435 L 355 90.6839591304 L 360 113.932477826 L 365 126.569346522 L 370 122.603265217 L 375 100.643683913 L 380 164.500602609 L 385 97.0634213043 L 391 105.61719 L 396 93.7537086957 L 401 244.797377391 L 406 168.767346087 L 411 122.711314783 L 416 143.783883478 L 421 134.051902174 L 426 193.98287087 L 431 215.683689565 L 436 193.432558261 L 441 198.642776957 L 447 226.356945652 L 452 266.544764348 L 457 281.402733043 L 462 348.940251739 L 467 415.759570435 L 472 467.54743913 L 477 460.148907826 L 482 473.032176522 L 487 458.184945217 L 492 465.122763913 L 497 444.105732609 L 502 432.264651304 L 508 448.78267 L 513 465.277938696 L 518 478.991757391 L 523 447.833476087 L 528 436.531044783 L 533 455.876013478 L 538 446.659932174 L 543 451.80295087 L 548 433.298569565 L 553 446.832488261 L 558 444.661556957 L 564 447.605875652 L 569 432.354744348 L 574 428.904563043 L 579 452.602131739 L 584 436.745150435 L 589 441.93296913 L 594 437.047087826 L 599 423.568356522 L 604 409.506175217 L 609 445.251793913 L 614 451.965262609 L 620 455.447881304"/>
			<path class="series-2-line" d="M 40 438.375 L 45 433.094565217 L 50 440.939130435 L 55 447.908695652 L 60 426.87826087 L 65 434.722826087 L 70 466.192391304 L 75 465.286956522 L 80 449.506521739 L 85 452.976086957 L 90 438.070652174 L 95 462.540217391 L 101 442.384782609 L 106 457.229347826 L 111 454.573913043 L 116 467.668478261 L 121 451.013043478 L 126 452.732608696 L 131 464.077173913 L 136 442.17173913 L 141 471.891304348 L 146 465.735869565 L 151 441.205434783 L 157 444.675 L 162 455.144565217 L 167 445.489130435 L 172 460.333695652 L 177 457.67826087 L 182 441.022826087 L 187 433.117391304 L 192 445.336956522 L 197 439.181521739 L 202 441.776086957 L 207 432.120652174 L 212 452.215217391 L 218 438.184782609 L 223 455.654347826 L 228 446.873913043 L 233 455.593478261 L 238 428.438043478 L 243 417.032608696 L 248 430.127173913 L 253 397.72173913 L 258 383.691304348 L 263 415.160869565 L 268 409.005434783 L 274 396.725 L 279 387.069565217 L 284 373.914130435 L 289 396.633695652 L 294 408.85326087 L 299 366.822826087 L 304 379.917391304 L 309 361.511956522 L 314 364.106521739 L 319 340.451086957 L 324 358.795652174 L 330 346.515217391 L 335 332.484782609 L 340 350.829347826 L 345 369.173913043 L 350 369.143478261 L 355 377.863043478 L 360 352.457608696 L 365 378.677173913 L 370 367.27173913 L 375 364.616304348 L 380 283.210869565 L 385 277.055434783 L 391 326.025 L 396 318.119565217 L 401 319.839130435 L 406 323.308695652 L 411 291.77826087 L 416 298.747826087 L 421 299.592391304 L 426 250.561956522 L 431 261.906521739 L 436 270.626086957 L 441 260.970652174 L 447 323.940217391 L 452 317.784782609 L 457 338.754347826 L 462 365.848913043 L 467 368.443478261 L 472 429.663043478 L 477 441.882608696 L 482 429.602173913 L 487 443.57173913 L 492 437.416304348 L 497 458.385869565 L 502 446.980434783 L 508 447.825 L 513 418.044565217 L 518 446.889130435 L 523 445.983695652 L 528 452.95326087 L 533 456.422826087 L 538 445.017391304 L 543 445.861956522 L 548 450.206521739 L 553 438.801086957 L 558 454.520652174 L 564 457.115217391 L 569 465.834782609 L 574 442.179347826 L 579 449.148913043 L 584 449.993478261 L 589 443.838043478 L 594 439.432608696 L 599 444.652173913 L 604 438.49673913 L 609 442.841304348 L 614 437.560869565 L 620 424.405434783"/>
		</g>
		<text class="x-axis-label" x="40.0" y="540">
			0
		</text>
		<path class="x-notch" d="M 65.4385964912 525 L 65.4385964912 530"/>
		<text class="x-axis-label" x="90.8771929825" y="540">
			10
		</text>
		<path class="x-notch" d="M 116.315789474 525 L 116.315789474 530"/>
		<text class="x-axis-label" x="141.754385965" y="540">
			20
		</text>
		<path class="x-notch" d="M 167.192982456 525 L 167.192982456 530"/>
		<text class="x-axis-label" x="192.631578947" y="540">
			30
		</text>
		<path class="x-notch" d="M 218.070175439 525 L 218.070175439 530"/>
		<text class="x-axis-label" x="243.50877193" y="540">
			40
		</text>
		<path class="x-notch" d="M 268.947368421 525 L 268.947368421 530"/>
		<text class="x-axis-label" x="294.385964912" y="540">
			50
		</text>
		<path class="x-notch" d="M 319.824561404 525 L 319.824561404 530"/>
		<text class="x-axis-label" x="345.263157895" y="540">
			60
		</text>
		<path class="x-notch" d="M 370.701754386 525 L 370.701754386 530"/>
		<text class="x-axis-label" x="396.140350877" y="540">
			70
		</text>
		<path class="x-notch" d="M 421.578947368 525 L 421.578947368 530"/>
		<text class="x-axis-label" x="447.01754386" y="540">
			80
		</text>
		<path class="x-notch" d="M 472.456140351 525 L 472.456140351 530"/>
		<text class="x-axis-label" x="497.894736842" y="540">
			90
		</text>
		<path class="x-notch" d="M 523.333333333 525 L 523.333333333 530"/>
		<text class="x-axis-label" x="548.771929825" y="540">
			100
		</text>
		<path class="x-notch" d="M 574.210526316 525 L 574.210526316 530"/>
		<text class="x-axis-label" x="599.649122807" y="540">
			110
		</text>
		<path class="x-notch" d="M 625.087719298 525 L 625.087719298 530"/>
	</g>
</svg>
