<?xml version="1.0" ?>
<svg height="600" version="1.1" width="800" xmlns="http://www.w3.org/2000/svg" xmlns:svg="http://www.w3.org/2000/svg">
	<style type="text/css">
		

.x-axis-path, .y-gridline, .x-notch { fill:none; stroke: #a7a9ac; stroke-width:1; }



.y-gridline { stroke-width: 1; }

.y-axis-path, .y-axis-path2, .x-notch-left, .x-notch-right { display: none;}



.x-axis-label, .data-point-label {font-size: 12px; font-weight:normal; font-family: sans-serif; fill: #58595b; text-anchor:middle;}

.y-axis-label {font-size: 12px; font-family: helvetica; fill: #a7a9ac; text-anchor:end;}



.series-1-line { fill: none; stroke: #10b80c; stroke-width:2; }



.series-2-line { fill: none; stroke: #e90f0a; stroke-width: 2;}

	</style>
	<rect fill="white" height="600" width="800" x="0" y="0"/>
	<g id="grid" transform="translate(70, 30)">
		<g class="x-axis" id="x_axis">
			<path class="x-axis-path" d="M 0 525 L 660 525"/>
			<path class="x-notch-left" d="M 0 525, L 0 535"/>
			<path class="x-notch-right" d="M 660 525, L 660 535"/>
		</g>
		<g class="y-axis" id="y_axis">
			<path class="y-axis-path" d="M 0 525 L 0 0"/>
			<path class="y-axis-path-2" d="M 660 525 L 660 0"/>
			<path class="y-gridline" d="M 0 525 L 660 525"/>
			<text class="y-axis-label" x="-5" y="525">
				-200
			</text>
			<path class="y-gridline" d="M 0 394 L 660 394"/>
			<text class="y-axis-label" x="-5" y="394">
				 0
			</text>
			<path class="y-gridline" d="M 0 263 L 660 263"/>
			<text class="y-axis-label" x="-5" y="263">
				200
			</text>
			<path class="y-gridline" d="M 0 132 L 660 132"/>
			<text class="y-axis-label" x="-5" y="132">
				400
			</text>
			<path class="y-gridline" d="M 0 1 L 660 1"/>
			<text class="y-axis-label" x="-5" y="1">
				600
			</text>
		</g>
		<g>
			<path class="series-1-line" d="M 40 381.7049775 L 45 403.952399 L 51 389.0455705 L 56 393.422517 L 62 399.464501 L 67 410.017285 L 73 400.192194 L 79 422.220428 L 84 417.0560245 L 90 407.3485335 L 95 408.4103675 L 101 406.897864 L 106 390.661998 L 112 389.940407 L 118 388.7476285 L 123 412.6936875 L 129 388.1118965 L 134 377.1087055 L 140 394.2906645 L 145 397.9612235 L 151 383.1549325 L 157 376.2577665 L 162 372.557588 L 168 386.054572 L 173 381.4450935 L 179 350.8725275 L 185 372.631699 L 190 374.349258 L 196 341.488217 L 201 341.608201 L 207 316.89096 L 212 342.9073565 L 218 320.680453 L 224 265.4562495 L 229 301.6022585 L 235 287.08183 L 240 241.230714 L 246 246.7852355 L 251 287.407132 L 257 243.911691 L 263 307.636475 L 268 258.8403715 L 274 259.8518055 L 279 227.882477 L 285 287.6868235 L 290 287.25057 L 296 236.553179 L 302 276.417763 L 307 205.073697 L 313 234.050831 L 318 288.5206525 L 324 196.6480365 L 330 207.418433 L 335 204.5934295 L 341 230.205576 L 346 162.78221 L 352 179.5097815 L 357 184.492578 L 363 177.3095495 L 369 160.837696 L 374 129.7598175 L 380 149.0953265 L 385 210.7342855 L 391 253.5267945 L 396 222.7694285 L 402 248.5834375 L 408 222.789159 L 413 289.913843 L 419 258.836227 L 424 280.746861 L 430 319.9391825 L 435 305.822479 L 441 289.9732755 L 447 281.140172 L 452 331.5900685 L 458 330.127965 L 463 394.913774 L 469 332.1174955 L 475 407.9083545 L 480 384.571076 L 486 396.872635 L 491 401.1487815 L 497 380.471153 L 502 405.007312 L 508 402.468696 L 514 388.9583675 L 519 394.8160765 L 525 396.5677605 L 530 415.735532 L 536 404.900866 L 541 414.51075 L 547 398.561009 L 553 421.295893 L 558 402.435027 L 564 412.583561 L 569 413.762995 L 575 382.921104 L 580 407.035688 L 586 404.749072 L 592 389.993706 L 597 401.252615 L 603 374.398624 L 608 400.953408 L 614 402.5704295 L 620 391.314976"/>
			<path class="series-2-line" d="M 40 363.43125 L 45 405.7775 L 51 408.74875 L 56 423.5325 L 62 357.5975 L 67 407.1625 L 73 410.79 L 79 410.48 L 84 378.01375 L 90 363.26625 L 95 357.70625 L 101 369.865 L 106 401.055 L 112 417.8075 L 118 431.27875 L 123 387.65625 L 129 441.15875 L 134 423.78625 L 140 411.66375 L 145 459.91625 L 151 421.54375 L 157 429.10875 L 162 424.205 L 168 423.895 L 173 355.99125 L 179 371.43125 L 185 387.5275 L 190 330.78 L 196 344.9075 L 201 383.9725 L 207 356.1 L 212 373.50875 L 218 341.0425 L 224 337.45125 L 229 335.82875 L 235 278.425 L 240 322.74 L 246 307.33625 L 251 298.495 L 257 333.6225 L 263 278.1875 L 268 295.59625 L 274 297.91125 L 279 300.8825 L 285 268.41625 L 290 214.95 L 296 247.4525 L 302 228.7675 L 307 257.3325 L 313 196.6475 L 318 126.11875 L 324 183.55875 L 330 122.2175 L 335 134.37625 L 341 112.41 L 346 143.6 L 352 125.57125 L 357 148.23 L 363 174.82625 L 369 165.985 L 374 132.20625 L 380 91.20875 L 385 105.33625 L 391 90.58875 L 396 134.90375 L 402 107.03125 L 408 68.0025 L 413 96.5675 L 419 88.3825 L 424 106.4475 L 430 167.16875 L 435 97.9525 L 441 94.36125 L 447 19.895 L 452 116.05375 L 458 120.3375 L 463 155.465 L 469 155.81125 L 475 214.56375 L 480 201.785 L 486 131.9125 L 491 162.44625 L 497 246.7925 L 502 316.045 L 508 360.36 L 514 350.20625 L 519 364.33375 L 525 353.52375 L 530 364.37 L 536 371.935 L 541 363.75 L 547 401.5025 L 553 393.3175 L 558 424.5075 L 564 434.6975 L 569 410.7625 L 575 417.015 L 580 398.33 L 586 403.27 L 592 408.21 L 597 398.7125 L 603 397.09 L 608 407.28 L 614 391.87625 L 620 388.285"/>
		</g>
		<text class="x-axis-label" x="40.0" y="540">
			0
		</text>
		<path class="x-notch" d="M 67.8846153846 525 L 67.8846153846 530"/>
		<text class="x-axis-label" x="95.7692307692" y="540">
			10
		</text>
		<path class="x-notch" d="M 123.653846154 525 L 123.653846154 530"/>
		<text class="x-axis-label" x="151.538461538" y="540">
			20
		</text>
		<path class="x-notch" d="M 179.423076923 525 L 179.423076923 530"/>
		<text class="x-axis-label" x="207.307692308" y="540">
			30
		</text>
		<path class="x-notch" d="M 235.192307692 525 L 235.192307692 530"/>
		<text class="x-axis-label" x="263.076923077" y="540">
			40
		</text>
		<path class="x-notch" d="M 290.961538462 525 L 290.961538462 530"/>
		<text class="x-axis-label" x="318.846153846" y="540">
			50
		</text>
		<path class="x-notch" d="M 346.730769231 525 L 346.730769231 530"/>
		<text class="x-axis-label" x="374.615384615" y="540">
			60
		</text>
		<path class="x-notch" d="M 402.5 525 L 402.5 530"/>
		<text class="x-axis-label" x="430.384615385" y="540">
			70
		</text>
		<path class="x-notch" d="M 458.269230769 525 L 458.269230769 530"/>
		<text class="x-axis-label" x="486.153846154" y="540">
			80
		</text>
		<path class="x-notch" d="M 514.038461538 525 L 514.038461538 530"/>
		<text class="x-axis-label" x="541.923076923" y="540">
			90
		</text>
		<path class="x-notch" d="M 569.807692308 525 L 569.807692308 530"/>
		<text class="x-axis-label" x="597.692307692" y="540">
			100
		</text>
		<path class="x-notch" d="M 625.576923077 525 L 625.576923077 530"/>
	</g>
</svg>
