<?xml version="1.0" ?>
<svg height="600" version="1.1" width="800" xmlns="http://www.w3.org/2000/svg" xmlns:svg="http://www.w3.org/2000/svg">
	<style type="text/css">
		

.x-axis-path, .y-gridline, .x-notch { fill:none; stroke: #a7a9ac; stroke-width:1; }



.y-gridline { stroke-width: 1; }

.y-axis-path, .y-axis-path2, .x-notch-left, .x-notch-right { display: none;}



.x-axis-label, .data-point-label {font-size: 12px; font-weight:normal; font-family: sans-serif; fill: #58595b; text-anchor:middle;}

.y-axis-label {font-size: 12px; font-family: helvetica; fill: #a7a9ac; text-anchor:end;}



.series-1-line { fill: none; stroke: #10b80c; stroke-width:2; }



.series-2-line { fill: none; stroke: #e90f0a; stroke-width: 2;}

	</style>
	<rect fill="white" height="600" width="800" x="0" y="0"/>
	<g id="grid" transform="translate(70, 30)">
		<g class="x-axis" id="x_axis">
			<path class="x-axis-path" d="M 0 525 L 660 525"/>
			<path class="x-notch-left" d="M 0 525, L 0 535"/>
			<path class="x-notch-right" d="M 660 525, L 660 535"/>
		</g>
		<g class="y-axis" id="y_axis">
			<path class="y-axis-path" d="M 0 525 L 0 0"/>
			<path class="y-axis-path-2" d="M 660 525 L 660 0"/>
			<path class="y-gridline" d="M 0 525 L 660 525"/>
			<text class="y-axis-label" x="-5" y="525">
				-100
			</text>
			<path class="y-gridline" d="M 0 420 L 660 420"/>
			<text class="y-axis-label" x="-5" y="420">
				 0
			</text>
			<path class="y-gridline" d="M 0 315 L 660 315"/>
			<text class="y-axis-label" x="-5" y="315">
				100
			</text>
			<path class="y-gridline" d="M 0 210 L 660 210"/>
			<text class="y-axis-label" x="-5" y="210">
				200
			</text>
			<path class="y-gridline" d="M 0 105 L 660 105"/>
			<text class="y-axis-label" x="-5" y="105">
				300
			</text>
			<path class="y-gridline" d="M 0 0 L 660 0"/>
			<text class="y-axis-label" x="-5" y="0">
				400
			</text>
		</g>
		<g>
			<path class="series-1-line" d="M 40 427.80822 L 43 430.160944302 L 47 442.073708604 L 51 406.143012906 L 54 392.855357208 L 58 437.747781509 L 62 446.294245811 L 65 419.975250113 L 69 450.167674415 L 73 423.821798717 L 76 428.033863019 L 80 431.868347321 L 84 410.584311623 L 87 427.503895925 L 91 436.750080226 L 95 428.066044528 L 98 413.94342883 L 102 432.881953132 L 106 418.435937434 L 109 361.425021736 L 113 396.005606038 L 117 328.62909034 L 120 301.583074642 L 124 350.622158943 L 128 327.264583245 L 131 356.649767547 L 135 346.376871849 L 139 319.492136151 L 142 249.934980453 L 146 265.050244755 L 150 196.488489057 L 153 241.973533358 L 157 187.38559766 L 161 176.601561962 L 164 208.947746264 L 168 159.205770566 L 172 183.420754868 L 175 178.20969917 L 179 124.940983472 L 183 120.833267774 L 186 165.537112075 L 190 182.322296377 L 194 161.495220679 L 197 105.911044981 L 201 129.319209283 L 205 149.442133585 L 208 157.369097887 L 212 159.077122189 L 216 183.454226491 L 219 136.081470792 L 223 196.481975094 L 227 192.993339396 L 230 130.166683698 L 234 123.528468 L 238 124.590532302 L 241 105.540896604 L 245 173.452680906 L 249 130.629785208 L 252 98.6025695094 L 256 148.664773811 L 260 138.392298113 L 263 164.519122415 L 267 175.435226717 L 271 132.558991019 L 274 126.593195321 L 278 198.705399623 L 282 188.674423925 L 285 160.524648226 L 289 213.924592528 L 293 118.41437683 L 296 166.483261132 L 300 139.544765434 L 304 168.365049736 L 307 134.965694038 L 311 173.18095834 L 315 213.146362642 L 318 190.354526943 L 322 249.650851245 L 326 190.701635547 L 330 190.766619849 L 333 174.274364151 L 337 215.936148453 L 341 146.970772755 L 344 216.740637057 L 348 292.406041358 L 352 209.73648566 L 355 221.110389962 L 359 278.683454264 L 363 204.011538566 L 366 192.123322868 L 370 220.56518717 L 374 240.312211472 L 377 276.455195774 L 381 246.446920075 L 385 236.847284377 L 388 296.762688679 L 392 264.144112981 L 396 278.829297283 L 399 232.533001585 L 403 316.706765887 L 407 317.309770189 L 410 330.406514491 L 414 345.872898792 L 418 347.042063094 L 421 373.331007396 L 425 338.343211698 L 429 359.570316 L 432 383.650900302 L 436 400.300844604 L 440 368.975028906 L 443 385.652693208 L 447 428.956677509 L 451 371.030161811 L 454 406.607406113 L 458 393.346210415 L 462 416.458274717 L 465 444.146659019 L 469 443.297303321 L 473 422.336247623 L 476 434.382991925 L 480 436.952436226 L 484 415.694860528 L 487 438.94132483 L 491 401.045869132 L 495 457.138433434 L 498 422.445897736 L 502 443.754062038 L 506 401.84718634 L 509 434.651170642 L 513 431.081894943 L 517 416.259559245 L 520 400.493903547 L 524 395.928807849 L 528 443.110232151 L 531 427.694856453 L 535 450.106360755 L 539 401.280405057 L 542 457.857229358 L 546 415.73489366 L 550 423.446397962 L 553 428.843282264 L 557 435.747126566 L 561 423.616570868 L 564 395.19799517 L 568 422.725099472 L 572 449.498303774 L 575 421.482928075 L 579 460.560032377 L 583 433.325856679 L 586 440.929840981 L 590 432.029925283 L 594 414.919429585 L 597 433.050293887 L 601 429.400798189 L 605 449.523722491 L 608 393.509046792 L 612 434.443811094 L 616 422.178435396 L 620 401.783119698"/>
			<path class="series-2-line" d="M 40 471.45 L 43 334.710943396 L 47 426.871886792 L 51 406.682830189 L 54 457.893773585 L 58 441.904716981 L 62 444.815660377 L 65 440.376603774 L 69 424.38754717 L 73 424.148490566 L 76 448.059433962 L 80 407.920377358 L 84 437.081320755 L 87 444.192264151 L 91 419.803207547 L 95 448.964150943 L 98 466.57509434 L 102 445.336037736 L 106 431.446981132 L 109 464.807924528 L 113 419.418867925 L 117 431.779811321 L 120 417.890754717 L 124 451.251698113 L 128 435.262641509 L 131 463.373584906 L 135 453.684528302 L 139 414.595471698 L 142 439.556415094 L 146 400.467358491 L 150 351.928301887 L 153 366.389245283 L 157 390.300188679 L 161 419.461132075 L 164 395.072075472 L 168 400.083018868 L 172 333.693962264 L 175 353.40490566 L 179 376.265849057 L 183 346.626792453 L 186 319.087735849 L 190 347.198679245 L 194 304.959622642 L 197 320.470566038 L 201 339.131509434 L 205 296.89245283 L 208 273.553396226 L 212 278.564339623 L 216 268.875283019 L 219 272.836226415 L 223 294.647169811 L 227 250.308113208 L 230 249.019056604 L 234 245.63 L 238 269.540943396 L 241 277.701886792 L 245 274.312830189 L 249 264.623773585 L 252 208.734716981 L 256 246.295660377 L 260 277.556603774 L 263 240.56754717 L 267 283.378490566 L 271 323.039433962 L 274 255.600377358 L 278 293.161320755 L 282 245.672264151 L 285 240.183207547 L 289 207.394150943 L 293 309.00509434 L 296 247.866037736 L 300 217.176981132 L 304 292.537924528 L 307 327.998867925 L 311 288.909811321 L 315 263.470754717 L 318 282.131698113 L 322 271.392641509 L 326 320.503584906 L 330 254.114528302 L 333 231.825471698 L 337 228.436415094 L 341 201.947358491 L 344 236.358301887 L 348 210.919245283 L 352 151.880188679 L 355 205.191132075 L 359 176.602075472 L 363 262.463018868 L 366 259.073962264 L 370 188.48490566 L 374 245.995849057 L 377 284.606792453 L 381 200.367735849 L 385 208.528679245 L 388 183.089622642 L 392 219.600566038 L 396 247.711509434 L 399 206.52245283 L 403 246.183396226 L 407 136.744339623 L 410 166.955283019 L 414 237.066226415 L 418 203.227169811 L 421 222.938113208 L 425 260.499056604 L 429 250.81 L 432 205.420943396 L 436 172.631886792 L 440 253.242830189 L 443 298.153773585 L 447 284.264716981 L 451 296.625660377 L 454 300.586603774 L 458 306.64754717 L 462 330.558490566 L 465 295.669433962 L 469 331.130377358 L 473 350.841320755 L 476 381.052264151 L 480 374.513207547 L 484 358.524150943 L 487 361.43509434 L 491 402.146037736 L 495 399.806981132 L 498 350.217924528 L 502 368.878867925 L 506 421.139811321 L 509 407.250754717 L 513 375.511698113 L 517 420.422641509 L 520 366.633584906 L 524 367.444528302 L 528 403.955471698 L 531 377.466415094 L 535 346.777358491 L 539 413.738301887 L 542 376.749245283 L 546 421.660188679 L 550 390.971132075 L 553 434.832075472 L 557 407.293018868 L 561 400.753962264 L 564 437.26490566 L 568 427.575849057 L 572 412.636792453 L 575 386.147735849 L 579 376.458679245 L 583 391.969622642 L 586 378.080566038 L 590 358.941509434 L 594 433.25245283 L 597 415.163396226 L 601 436.974339623 L 605 394.735283019 L 608 436.496226415 L 612 423.657169811 L 616 397.168113208 L 620 451.529056604"/>
		</g>
		<text class="x-axis-label" x="40.0" y="540">
			0
		</text>
		<path class="x-notch" d="M 58.3544303797 525 L 58.3544303797 530"/>
		<text class="x-axis-label" x="76.7088607595" y="540">
			10
		</text>
		<path class="x-notch" d="M 95.0632911392 525 L 95.0632911392 530"/>
		<text class="x-axis-label" x="113.417721519" y="540">
			20
		</text>
		<path class="x-notch" d="M 131.772151899 525 L 131.772151899 530"/>
		<text class="x-axis-label" x="150.126582278" y="540">
			30
		</text>
		<path class="x-notch" d="M 168.481012658 525 L 168.481012658 530"/>
		<text class="x-axis-label" x="186.835443038" y="540">
			40
		</text>
		<path class="x-notch" d="M 205.189873418 525 L 205.189873418 530"/>
		<text class="x-axis-label" x="223.544303797" y="540">
			50
		</text>
		<path class="x-notch" d="M 241.898734177 525 L 241.898734177 530"/>
		<text class="x-axis-label" x="260.253164557" y="540">
			60
		</text>
		<path class="x-notch" d="M 278.607594937 525 L 278.607594937 530"/>
		<text class="x-axis-label" x="296.962025316" y="540">
			70
		</text>
		<path class="x-notch" d="M 315.316455696 525 L 315.316455696 530"/>
		<text class="x-axis-label" x="333.670886076" y="540">
			80
		</text>
		<path class="x-notch" d="M 352.025316456 525 L 352.025316456 530"/>
		<text class="x-axis-label" x="370.379746835" y="540">
			90
		</text>
		<path class="x-notch" d="M 388.734177215 525 L 388.734177215 530"/>
		<text class="x-axis-label" x="407.088607595" y="540">
			100
		</text>
		<path class="x-notch" d="M 425.443037975 525 L 425.443037975 530"/>
		<text class="x-axis-label" x="443.797468354" y="540">
			110
		</text>
		<path class="x-notch" d="M 462.151898734 525 L 462.151898734 530"/>
		<text class="x-axis-label" x="480.506329114" y="540">
			120
		</text>
		<path class="x-notch" d="M 498.860759494 525 L 498.860759494 530"/>
		<text class="x-axis-label" x="517.215189873" y="540">
			130
		</text>
		<path class="x-notch" d="M 535.569620253 525 L 535.569620253 530"/>
		<text class="x-axis-label" x="553.924050633" y="540">
			140
		</text>
		<path class="x-notch" d="M 572.278481013 525 L 572.278481013 530"/>
		<text class="x-axis-label" x="590.632911392" y="540">
			150
		</text>
		<path class="x-notch" d="M 608.987341772 525 L 608.987341772 530"/>
	</g>
</svg>
