<?xml version="1.0" ?>
<svg height="600" version="1.1" width="800" xmlns="http://www.w3.org/2000/svg" xmlns:svg="http://www.w3.org/2000/svg">
	<style type="text/css">
		

.x-axis-path, .y-gridline, .x-notch { fill:none; stroke: #a7a9ac; stroke-width:1; }



.y-gridline { stroke-width: 1; }

.y-axis-path, .y-axis-path2, .x-notch-left, .x-notch-right { display: none;}



.x-axis-label, .data-point-label {font-size: 12px; font-weight:normal; font-family: sans-serif; fill: #58595b; text-anchor:middle;}

.y-axis-label {font-size: 12px; font-family: helvetica; fill: #a7a9ac; text-anchor:end;}



.series-1-line { fill: none; stroke: #10b80c; stroke-width:2; }



.series-2-line { fill: none; stroke: #e90f0a; stroke-width: 2;}

	</style>
	<rect fill="white" height="600" width="800" x="0" y="0"/>
	<g id="grid" transform="translate(70, 30)">
		<g class="x-axis" id="x_axis">
			<path class="x-axis-path" d="M 0 525 L 660 525"/>
			<path class="x-notch-left" d="M 0 525, L 0 535"/>
			<path class="x-notch-right" d="M 660 525, L 660 535"/>
		</g>
		<g class="y-axis" id="y_axis">
			<path class="y-axis-path" d="M 0 525 L 0 0"/>
			<path class="y-axis-path-2" d="M 660 525 L 660 0"/>
			<path class="y-gridline" d="M 0 525 L 660 525"/>
			<text class="y-axis-label" x="-5" y="525">
				-250
			</text>
			<path class="y-gridline" d="M 0 420 L 660 420"/>
			<text class="y-axis-label" x="-5" y="420">
				 0
			</text>
			<path class="y-gridline" d="M 0 315 L 660 315"/>
			<text class="y-axis-label" x="-5" y="315">
				250
			</text>
			<path class="y-gridline" d="M 0 210 L 660 210"/>
			<text class="y-axis-label" x="-5" y="210">
				500
			</text>
			<path class="y-gridline" d="M 0 105 L 660 105"/>
			<text class="y-axis-label" x="-5" y="105">
				750
			</text>
			<path class="y-gridline" d="M 0 0 L 660 0"/>
			<text class="y-axis-label" x="-5" y="0">
				1000
			</text>
		</g>
		<g>
			<path class="series-1-line" d="M 40 420.0020832 L 46 419.646365719 L 52 408.822904238 L 58 420.464066757 L 64 428.906845277 L 71 415.089791796 L 77 411.556690315 L 83 399.602588834 L 89 428.517511353 L 96 414.172433872 L 102 436.345348391 L 108 395.691470911 L 114 395.83135343 L 121 409.787891949 L 127 395.830390468 L 133 387.591608987 L 139 381.237451506 L 146 378.060174026 L 152 352.030696545 L 158 348.831747064 L 164 329.102269583 L 170 340.721592102 L 177 277.484482621 L 183 303.16876514 L 189 276.08340766 L 195 240.857106179 L 202 242.364004698 L 208 223.237647217 L 214 233.543713736 L 220 218.164764255 L 227 199.135006774 L 233 200.254497294 L 239 187.320115813 L 245 146.138046332 L 252 127.700824851 L 258 148.36661137 L 264 81.4462698894 L 270 88.0467604085 L 276 22.9571149277 L 283 41.4148774468 L 289 40.444615966 L 295 116.680266485 L 301 81.1198130043 L 308 102.399471523 L 314 124.949714043 L 320 152.830428562 L 326 215.831375081 L 333 217.6184976 L 339 158.279156119 L 345 229.560990638 L 351 240.576689157 L 358 233.587323677 L 364 277.030214196 L 370 312.180120715 L 376 289.704347234 L 383 288.691245753 L 389 276.695144272 L 395 391.915026791 L 401 338.359589311 L 407 374.65139183 L 414 391.030658349 L 420 388.811820868 L 426 409.143623387 L 432 409.294089906 L 439 417.973916426 L 445 407.980038945 L 451 399.051953464 L 457 437.831331983 L 464 419.975390502 L 470 413.416105021 L 476 428.60055554 L 482 426.84455806 L 489 431.529176579 L 495 431.098195098 L 501 402.936125617 L 507 427.403416136 L 513 410.409650655 L 520 391.766965174 L 526 424.376039694 L 532 426.755866213 L 538 411.301820732 L 545 412.346047251 L 551 410.01935377 L 557 421.639012289 L 563 401.672318809 L 570 402.232033328 L 576 422.251859847 L 582 415.832854366 L 588 415.089392885 L 595 424.964371404 L 601 428.366981923 L 607 411.566752443 L 613 418.555658962 L 620 419.782837481"/>
			<path class="series-2-line" d="M 40 413.112 L 46 418.636340426 L 52 419.120680851 L 58 420.445021277 L 64 429.329361702 L 71 454.593702128 L 77 415.178042553 L 83 428.262382979 L 89 421.186723404 L 96 414.11106383 L 102 361.255404255 L 108 396.179744681 L 114 422.704085106 L 121 423.188425532 L 127 404.772765957 L 133 411.557106383 L 139 419.181446809 L 146 422.605787234 L 152 436.53012766 L 158 426.934468085 L 164 440.858808511 L 170 412.783148936 L 177 432.587489362 L 183 438.111829787 L 189 403.736170213 L 195 427.320510638 L 202 387.904851064 L 208 406.029191489 L 214 435.493531915 L 220 425.89787234 L 227 412.522212766 L 233 400.826553191 L 239 386.610893617 L 245 372.815234043 L 252 381.699574468 L 258 383.863914894 L 264 388.548255319 L 270 324.352595745 L 276 321.89693617 L 283 291.721276596 L 289 229.205617021 L 295 293.109957447 L 301 286.874297872 L 308 291.558638298 L 314 278.182978723 L 320 235.827319149 L 326 366.091659574 L 333 348.516 L 339 300.700340426 L 345 367.544680851 L 351 286.129021277 L 358 310.973361702 L 364 330.777702128 L 370 284.642042553 L 376 284.706382979 L 383 245.290723404 L 389 363.37506383 L 395 389.899404255 L 401 422.723744681 L 407 411.448085106 L 414 377.912425532 L 420 379.236765957 L 426 367.961106383 L 432 376.425446809 L 439 397.489787234 L 445 432.41412766 L 451 432.058468085 L 457 409.442808511 L 464 393.127148936 L 470 350.771489362 L 476 372.675829787 L 482 350.900170213 L 489 389.184510638 L 495 406.468851064 L 501 392.673191489 L 507 391.477531915 L 513 437.32187234 L 520 363.466212766 L 526 386.210553191 L 532 407.274893617 L 538 425.819234043 L 545 425.883574468 L 551 411.247914894 L 557 415.932255319 L 563 401.296595745 L 570 411.44093617 L 576 432.505276596 L 582 417.449617021 L 588 417.933957447 L 595 416.318297872 L 601 408.822638298 L 607 424.426978723 L 613 430.791319149 L 620 418.675659574"/>
		</g>
		<text class="x-axis-label" x="40.0" y="540">
			0
		</text>
		<path class="x-notch" d="M 71.1827956989 525 L 71.1827956989 530"/>
		<text class="x-axis-label" x="102.365591398" y="540">
			10
		</text>
		<path class="x-notch" d="M 133.548387097 525 L 133.548387097 530"/>
		<text class="x-axis-label" x="164.731182796" y="540">
			20
		</text>
		<path class="x-notch" d="M 195.913978495 525 L 195.913978495 530"/>
		<text class="x-axis-label" x="227.096774194" y="540">
			30
		</text>
		<path class="x-notch" d="M 258.279569892 525 L 258.279569892 530"/>
		<text class="x-axis-label" x="289.462365591" y="540">
			40
		</text>
		<path class="x-notch" d="M 320.64516129 525 L 320.64516129 530"/>
		<text class="x-axis-label" x="351.827956989" y="540">
			50
		</text>
		<path class="x-notch" d="M 383.010752688 525 L 383.010752688 530"/>
		<text class="x-axis-label" x="414.193548387" y="540">
			60
		</text>
		<path class="x-notch" d="M 445.376344086 525 L 445.376344086 530"/>
		<text class="x-axis-label" x="476.559139785" y="540">
			70
		</text>
		<path class="x-notch" d="M 507.741935484 525 L 507.741935484 530"/>
		<text class="x-axis-label" x="538.924731183" y="540">
			80
		</text>
		<path class="x-notch" d="M 570.107526882 525 L 570.107526882 530"/>
		<text class="x-axis-label" x="601.290322581" y="540">
			90
		</text>
		<path class="x-notch" d="M 632.47311828 525 L 632.47311828 530"/>
	</g>
</svg>
