<?xml version="1.0" ?>
<svg height="600" version="1.1" width="800" xmlns="http://www.w3.org/2000/svg" xmlns:svg="http://www.w3.org/2000/svg">
	<style type="text/css">
		

.x-axis-path, .y-gridline, .x-notch { fill:none; stroke: #a7a9ac; stroke-width:1; }



.y-gridline { stroke-width: 1; }

.y-axis-path, .y-axis-path2, .x-notch-left, .x-notch-right { display: none;}



.x-axis-label, .data-point-label {font-size: 12px; font-weight:normal; font-family: sans-serif; fill: #58595b; text-anchor:middle;}

.y-axis-label {font-size: 12px; font-family: helvetica; fill: #a7a9ac; text-anchor:end;}



.series-1-line { fill: none; stroke: #10b80c; stroke-width:2; }



.series-2-line { fill: none; stroke: #e90f0a; stroke-width: 2;}

	</style>
	<rect fill="white" height="600" width="800" x="0" y="0"/>
	<g id="grid" transform="translate(70, 30)">
		<g class="x-axis" id="x_axis">
			<path class="x-axis-path" d="M 0 525 L 660 525"/>
			<path class="x-notch-left" d="M 0 525, L 0 535"/>
			<path class="x-notch-right" d="M 660 525, L 660 535"/>
		</g>
		<g class="y-axis" id="y_axis">
			<path class="y-axis-path" d="M 0 525 L 0 0"/>
			<path class="y-axis-path-2" d="M 660 525 L 660 0"/>
			<path class="y-gridline" d="M 0 525 L 660 525"/>
			<text class="y-axis-label" x="-5" y="525">
				-200
			</text>
			<path class="y-gridline" d="M 0 420 L 660 420"/>
			<text class="y-axis-label" x="-5" y="420">
				 0
			</text>
			<path class="y-gridline" d="M 0 315 L 660 315"/>
			<text class="y-axis-label" x="-5" y="315">
				200
			</text>
			<path class="y-gridline" d="M 0 210 L 660 210"/>
			<text class="y-axis-label" x="-5" y="210">
				400
			</text>
			<path class="y-gridline" d="M 0 105 L 660 105"/>
			<text class="y-axis-label" x="-5" y="105">
				600
			</text>
			<path class="y-gridline" d="M 0 0 L 660 0"/>
			<text class="y-axis-label" x="-5" y="0">
				800
			</text>
		</g>
		<g>
			<path class="series-1-line" d="M 40 438.54993 L 46 421.906933467 L 53 415.265606933 L 59 410.9937104 L 66 415.660253867 L 72 435.174637333 L 79 428.6815708 L 85 414.677014267 L 92 418.616537733 L 98 410.8714512 L 105 428.164874667 L 111 425.104468133 L 118 421.9497716 L 124 435.635395067 L 131 416.865308533 L 137 421.504972 L 144 392.907935467 L 150 363.139938933 L 157 385.4004924 L 163 385.301715867 L 170 371.350919333 L 176 363.3231728 L 183 344.997236267 L 189 353.042679733 L 196 307.3764232 L 202 311.867826667 L 209 295.628660133 L 215 225.3008436 L 222 250.011467067 L 228 210.578010533 L 235 234.225194 L 242 227.826417467 L 248 228.346720933 L 255 208.4054644 L 261 248.233567867 L 268 154.078941333 L 274 196.4106648 L 281 158.363628267 L 287 184.393471733 L 294 88.1928152 L 300 93.9899986667 L 307 105.750762133 L 313 83.1038656 L 320 137.591439067 L 326 137.627062533 L 333 150.249456 L 339 147.148519467 L 346 133.493822933 L 352 65.8584164 L 359 146.272799867 L 365 156.700903333 L 372 115.8001768 L 378 155.426260267 L 385 131.042663733 L 391 203.4879672 L 398 200.912030667 L 404 227.575024133 L 411 253.2144776 L 417 191.771341067 L 424 260.528204533 L 431 252.998578 L 437 227.739911467 L 444 264.323724933 L 450 208.8305184 L 457 306.772131867 L 463 328.817435333 L 470 351.8724188 L 476 374.065772267 L 483 420.705645733 L 489 402.6491392 L 496 440.417352667 L 502 427.234106133 L 509 431.6179896 L 515 438.761273067 L 522 445.097106533 L 528 431.50982 L 535 437.172393467 L 541 439.092766933 L 548 442.0765804 L 554 453.177523867 L 561 431.782647333 L 567 440.0567808 L 574 444.292404267 L 580 423.691537733 L 587 434.0522312 L 593 407.299414667 L 600 427.702308133 L 606 412.0421116 L 613 421.945215067 L 620 427.446298533"/>
			<path class="series-2-line" d="M 40 413.175 L 46 426.013 L 53 414.176 L 59 421.764 L 66 427.252 L 72 409.64 L 79 415.653 L 85 426.391 L 92 422.429 L 98 418.992 L 105 420.28 L 111 423.143 L 118 420.231 L 124 411.019 L 131 407.582 L 137 417.27 L 144 411.208 L 150 424.046 L 157 408.009 L 163 419.797 L 170 422.135 L 176 421.848 L 183 410.536 L 189 421.274 L 196 416.262 L 202 408.1 L 209 419.363 L 215 412.251 L 222 403.039 L 228 408.527 L 235 401.415 L 242 413.203 L 248 410.291 L 255 405.279 L 261 412.867 L 268 416.78 L 274 402.318 L 281 396.256 L 287 385.994 L 294 401.982 L 300 394.87 L 307 399.308 L 313 406.896 L 320 400.309 L 326 391.097 L 333 404.46 L 339 393.148 L 346 390.236 L 352 393.099 L 359 375.487 L 365 383.075 L 372 392.238 L 378 390.376 L 385 382.214 L 391 379.302 L 398 367.99 L 404 402.353 L 411 391.566 L 417 390.754 L 424 389.942 L 431 393.855 L 437 378.868 L 444 380.681 L 450 373.044 L 457 385.357 L 463 382.445 L 470 385.833 L 476 380.296 L 483 410.459 L 489 418.572 L 496 399.385 L 502 425.348 L 509 433.986 L 515 421.624 L 522 432.887 L 528 439.95 L 535 433.363 L 541 437.276 L 548 439.089 L 554 423.577 L 561 440.615 L 567 436.128 L 574 426.916 L 580 422.429 L 587 420.042 L 593 412.93 L 600 400.043 L 606 423.381 L 613 430.969 L 620 429.107"/>
		</g>
		<text class="x-axis-label" x="40.0" y="540">
			0
		</text>
		<path class="x-notch" d="M 72.5842696629 525 L 72.5842696629 530"/>
		<text class="x-axis-label" x="105.168539326" y="540">
			10
		</text>
		<path class="x-notch" d="M 137.752808989 525 L 137.752808989 530"/>
		<text class="x-axis-label" x="170.337078652" y="540">
			20
		</text>
		<path class="x-notch" d="M 202.921348315 525 L 202.921348315 530"/>
		<text class="x-axis-label" x="235.505617978" y="540">
			30
		</text>
		<path class="x-notch" d="M 268.08988764 525 L 268.08988764 530"/>
		<text class="x-axis-label" x="300.674157303" y="540">
			40
		</text>
		<path class="x-notch" d="M 333.258426966 525 L 333.258426966 530"/>
		<text class="x-axis-label" x="365.842696629" y="540">
			50
		</text>
		<path class="x-notch" d="M 398.426966292 525 L 398.426966292 530"/>
		<text class="x-axis-label" x="431.011235955" y="540">
			60
		</text>
		<path class="x-notch" d="M 463.595505618 525 L 463.595505618 530"/>
		<text class="x-axis-label" x="496.179775281" y="540">
			70
		</text>
		<path class="x-notch" d="M 528.764044944 525 L 528.764044944 530"/>
		<text class="x-axis-label" x="561.348314607" y="540">
			80
		</text>
		<path class="x-notch" d="M 593.93258427 525 L 593.93258427 530"/>
	</g>
</svg>
