<?xml version="1.0" ?>
<svg height="600" version="1.1" width="800" xmlns="http://www.w3.org/2000/svg" xmlns:svg="http://www.w3.org/2000/svg">
	<style type="text/css">

.x-axis-path, .y-gridline, .x-notch { fill:none; stroke: #a7a9ac; stroke-width:1; }



.y-gridline { stroke-width: 1; }

.y-axis-path, .y-axis-path2, .x-notch-left, .x-notch-right { display: none;}



.x-axis-label, .data-point-label {font-size: 12px; font-weight:normal; font-family: sans-serif; fill: #58595b; text-anchor:middle;}

.y-axis-label {font-size: 12px; font-family: helvetica; fill: #a7a9ac; text-anchor:end;}



.series-1-line { fill: none; stroke: #10b80c; stroke-width:2; }



.series-2-line { fill: none; stroke: #e90f0a; stroke-width: 2;}
</style>
	<rect fill="white" height="600" width="800" x="0" y="0"/>
	<g id="grid" transform="translate(70, 30)">
		<g class="x-axis" id="x_axis">
			<path class="x-axis-path" d="M 0 525 L 660 525"/>
			<path class="x-notch-left" d="M 0 525, L 0 535"/>
			<path class="x-notch-right" d="M 660 525, L 660 535"/>
		</g>
		<g class="y-axis" id="y_axis">
			<path class="y-axis-path" d="M 0 525 L 0 0"/>
			<path class="y-axis-path-2" d="M 660 525 L 660 0"/>
			<path class="y-gridline" d="M 0 525 L 660 525"/>
			<text class="y-axis-label" x="-5" y="525">-200</text>
			<path class="y-gridline" d="M 0 394 L 660 394"/>
			<text class="y-axis-label" x="-5" y="394"> 0</text>
			<path class="y-gridline" d="M 0 263 L 660 263"/>
			<text class="y-axis-label" x="-5" y="263">200</text>
			<path class="y-gridline" d="M 0 132 L 660 132"/>
			<text class="y-axis-label" x="-5" y="132">400</text>
			<path class="y-gridline" d="M 0 1 L 660 1"/>
			<text class="y-axis-label" x="-5" y="1">600</text>
		</g>
		<g>
			<path class="series-1-line" d="M 40 387.688867131 L 46 415.13866588 L 53 384.984877372 L 60 374.365211719 L 66 402.083451691 L 73 394.193788284 L 80 400.781954846 L 86 383.452158427 L 93 415.726100893 L 100 344.61987923 L 106 376.163481611 L 113 357.719129232 L 120 358.000876632 L 126 402.868461626 L 133 375.521758484 L 140 404.682082701 L 146 396.657748781 L 153 391.710141188 L 160 355.345912502 L 166 293.949164876 L 173 372.790311101 L 180 283.572255161 L 186 291.602805902 L 193 243.759790584 L 200 197.206192937 L 206 188.067003123 L 213 223.43656778 L 220 168.691463726 L 226 153.534091638 L 233 149.490186173 L 240 146.733898774 L 246 159.127594171 L 253 143.394048241 L 260 68.345789717 L 266 89.0848578319 L 273 63.9102790875 L 280 63.6731401018 L 286 90.9483770729 L 293 0.0 L 300 141.174097953 L 306 41.4385448985 L 313 75.8864113681 L 320 50.9232863243 L 326 22.4809230861 L 333 111.724391644 L 340 115.793409792 L 346 141.723141372 L 353 169.306410897 L 360 108.158308828 L 366 134.953350941 L 373 158.884320165 L 380 184.50661906 L 386 139.354914458 L 393 176.340225335 L 400 155.953498255 L 406 240.409115148 L 413 226.693527371 L 420 236.070483307 L 426 257.290046213 L 433 234.557232826 L 440 281.866883111 L 446 314.084437924 L 453 314.636126218 L 460 363.293381435 L 466 390.223094061 L 473 388.505479237 L 480 380.404062194 L 486 360.61390449 L 493 392.484435287 L 500 373.385626207 L 506 392.009257512 L 513 375.121564292 L 520 353.273557169 L 526 401.236764353 L 533 420.591335613 L 540 396.321058865 L 546 380.741079311 L 553 366.468813422 L 560 387.745663786 L 566 385.643533154 L 573 417.225227194 L 580 390.205752403 L 586 382.777088057 L 593 379.348047962 L 600 376.30322374 L 606 410.885160854 L 613 392.902407405 L 620 416.044549349"/>
			<path class="series-2-line" d="M 40 303.919669031 L 46 397.274228344 L 53 411.146190972 L 60 419.019467059 L 66 441.139623683 L 73 432.516511779 L 80 446.388474407 L 86 448.263063952 L 93 373.654400084 L 100 401.023407432 L 106 352.658997186 L 113 411.521108881 L 120 414.895370061 L 126 364.281452362 L 133 378.903250808 L 140 410.021437246 L 146 393.150131346 L 153 422.768646148 L 160 411.146190972 L 166 444.513884863 L 173 416.395041697 L 180 403.272914886 L 186 455.38650422 L 193 392.025377619 L 200 449.387817678 L 206 460.260437036 L 213 399.898653706 L 220 360.532273273 L 226 345.160639009 L 233 380.028004535 L 240 360.157355364 L 246 287.048363132 L 253 332.413430107 L 260 302.045079487 L 266 330.913758471 L 273 299.045736216 L 280 324.915071929 L 286 269.802139323 L 293 263.428534872 L 300 278.800169136 L 306 210.190191811 L 313 264.553288599 L 320 228.936087255 L 326 268.302467688 L 333 313.667534662 L 340 281.799512407 L 346 261.179027419 L 353 245.807393155 L 360 152.452833843 L 366 143.07988612 L 373 200.44232618 L 380 198.567736635 L 386 95.4653116922 L 393 104.838259414 L 400 115.710878772 L 406 118.335304134 L 413 82.7181027902 L 420 188.070035186 L 426 200.44232618 L 433 167.824468107 L 440 145.704311483 L 446 197.068065 L 453 275.425907956 L 460 423.518481965 L 466 422.393728239 L 473 445.263720681 L 480 411.146190972 L 486 475.257153391 L 493 434.391101323 L 500 419.769302877 L 506 398.39898207 L 513 389.775870166 L 520 394.649802981 L 526 358.28276582 L 533 369.155385177 L 540 401.023407432 L 546 422.393728239 L 553 473.757481756 L 560 447.888146043 L 566 472.25781012 L 573 388.651116439 L 580 440.014869956 L 586 388.651116439 L 593 386.026691077 L 600 352.658997186 L 606 356.783094184 L 613 431.391758052 L 620 436.265690867"/>
		</g>
		<text class="x-axis-label" x="40.0" y="540">0</text>
		<path class="x-notch" d="M 73.3333333333 525 L 73.3333333333 530"/>
		<text class="x-axis-label" x="106.666666667" y="540">10</text>
		<path class="x-notch" d="M 140.0 525 L 140.0 530"/>
		<text class="x-axis-label" x="173.333333333" y="540">20</text>
		<path class="x-notch" d="M 206.666666667 525 L 206.666666667 530"/>
		<text class="x-axis-label" x="240.0" y="540">30</text>
		<path class="x-notch" d="M 273.333333333 525 L 273.333333333 530"/>
		<text class="x-axis-label" x="306.666666667" y="540">40</text>
		<path class="x-notch" d="M 340.0 525 L 340.0 530"/>
		<text class="x-axis-label" x="373.333333333" y="540">50</text>
		<path class="x-notch" d="M 406.666666667 525 L 406.666666667 530"/>
		<text class="x-axis-label" x="440.0" y="540">60</text>
		<path class="x-notch" d="M 473.333333333 525 L 473.333333333 530"/>
		<text class="x-axis-label" x="506.666666667" y="540">70</text>
		<path class="x-notch" d="M 540.0 525 L 540.0 530"/>
		<text class="x-axis-label" x="573.333333333" y="540">80</text>
		<path class="x-notch" d="M 606.666666667 525 L 606.666666667 530"/>
	</g>
</svg>
