<?xml version="1.0" ?>
<svg height="600" version="1.1" width="800" xmlns="http://www.w3.org/2000/svg" xmlns:svg="http://www.w3.org/2000/svg">
	<style type="text/css">
		

.x-axis-path, .y-gridline, .x-notch { fill:none; stroke: #a7a9ac; stroke-width:1; }



.y-gridline { stroke-width: 1; }

.y-axis-path, .y-axis-path2, .x-notch-left, .x-notch-right { display: none;}



.x-axis-label, .data-point-label {font-size: 12px; font-weight:normal; font-family: sans-serif; fill: #58595b; text-anchor:middle;}

.y-axis-label {font-size: 12px; font-family: helvetica; fill: #a7a9ac; text-anchor:end;}



.series-1-line { fill: none; stroke: #10b80c; stroke-width:2; }



.series-2-line { fill: none; stroke: #e90f0a; stroke-width: 2;}

	</style>
	<rect fill="white" height="600" width="800" x="0" y="0"/>
	<g id="grid" transform="translate(70, 30)">
		<g class="x-axis" id="x_axis">
			<path class="x-axis-path" d="M 0 525 L 660 525"/>
			<path class="x-notch-left" d="M 0 525, L 0 535"/>
			<path class="x-notch-right" d="M 660 525, L 660 535"/>
		</g>
		<g class="y-axis" id="y_axis">
			<path class="y-axis-path" d="M 0 525 L 0 0"/>
			<path class="y-axis-path-2" d="M 660 525 L 660 0"/>
			<path class="y-gridline" d="M 0 525 L 660 525"/>
			<text class="y-axis-label" x="-5" y="525">
				-100
			</text>
			<path class="y-gridline" d="M 0 394 L 660 394"/>
			<text class="y-axis-label" x="-5" y="394">
				 0
			</text>
			<path class="y-gridline" d="M 0 263 L 660 263"/>
			<text class="y-axis-label" x="-5" y="263">
				100
			</text>
			<path class="y-gridline" d="M 0 132 L 660 132"/>
			<text class="y-axis-label" x="-5" y="132">
				200
			</text>
			<path class="y-gridline" d="M 0 1 L 660 1"/>
			<text class="y-axis-label" x="-5" y="1">
				300
			</text>
		</g>
		<g>
			<path class="series-1-line" d="M 40 407.850975 L 44 391.059639669 L 49 406.777879339 L 54 392.308619008 L 59 370.099283678 L 64 374.072223347 L 69 400.660588017 L 73 379.225102686 L 78 377.207792355 L 83 364.084632025 L 88 376.404021694 L 93 386.569336364 L 98 373.345376033 L 102 345.683915702 L 107 334.714830372 L 112 375.202045041 L 117 322.838809711 L 122 333.77849938 L 127 341.65533905 L 131 323.921628719 L 136 304.202368388 L 141 337.925483058 L 146 309.288047727 L 151 287.684037397 L 156 298.388002066 L 160 245.250391736 L 165 284.257106405 L 170 263.730396074 L 175 248.251560744 L 180 242.330350413 L 185 209.957540083 L 189 245.767004752 L 194 205.417869421 L 199 293.929459091 L 204 246.84982376 L 209 258.05831343 L 214 210.103503099 L 218 190.451442769 L 223 208.896007438 L 228 149.835347107 L 233 197.423711777 L 238 212.031576446 L 243 129.918166116 L 247 167.545180785 L 252 105.287270455 L 257 146.885385124 L 262 154.224099793 L 267 147.360514463 L 272 169.405529132 L 276 123.604793802 L 281 168.231633471 L 286 184.92584814 L 291 153.59621281 L 296 126.372077479 L 301 108.268242149 L 305 103.255806818 L 310 76.5367214876 L 315 77.851061157 L 320 106.021250826 L 325 133.417590496 L 330 82.9049801653 L 334 84.1521198347 L 339 110.639684504 L 344 121.343649174 L 349 157.556838843 L 354 174.183853512 L 359 172.772393182 L 363 194.312882851 L 368 165.473322521 L 373 174.02321219 L 378 81.5106018595 L 383 54.0176665289 L 388 15.8226061983 L 392 103.324095868 L 397 67.7540355372 L 402 298.083350207 L 407 223.777214876 L 412 126.149529545 L 417 216.680269215 L 421 289.071733884 L 426 307.179248554 L 431 287.325588223 L 436 348.846927893 L 441 269.930767562 L 446 302.677907231 L 450 353.093396901 L 455 367.90286157 L 460 359.02012624 L 465 391.666465909 L 470 357.442505579 L 475 400.353120248 L 479 377.975259917 L 484 397.664599587 L 489 370.339664256 L 494 394.808078926 L 499 413.958768595 L 504 378.321508264 L 508 362.102422934 L 513 404.777312603 L 518 393.235977273 L 523 396.771591942 L 528 399.398431612 L 532 407.881121281 L 537 408.45521095 L 542 367.26502562 L 547 399.742840289 L 552 396.682354959 L 557 404.592794628 L 562 380.094984298 L 566 401.096823967 L 571 407.930488636 L 576 418.735253306 L 581 382.795067975 L 586 392.253732645 L 591 407.601847314 L 595 395.723986983 L 600 380.548076653 L 605 392.362416322 L 610 384.792180992 L 615 404.380720661 L 620 407.647010331"/>
			<path class="series-2-line" d="M 40 395.0625 L 44 393.79338843 L 49 388.58677686 L 54 383.380165289 L 59 408.361053719 L 64 392.654442149 L 69 380.885330579 L 73 387.491219008 L 78 384.909607438 L 83 374.452995868 L 88 387.621384298 L 93 378.477272727 L 98 383.770661157 L 102 389.064049587 L 107 400.919938017 L 112 370.775826446 L 117 390.506714876 L 122 414.175103306 L 127 403.718491736 L 131 395.886880165 L 136 390.680268595 L 141 392.036157025 L 146 396.017045455 L 151 377.685433884 L 156 386.916322314 L 160 373.834710744 L 165 369.940599174 L 170 388.358987603 L 175 387.089876033 L 180 379.258264463 L 185 402.926652893 L 189 385.907541322 L 194 374.138429752 L 199 376.806818182 L 204 391.287706612 L 209 372.956095041 L 214 370.374483471 L 218 354.667871901 L 223 384.898760331 L 228 374.44214876 L 233 362.67303719 L 238 377.15392562 L 243 379.82231405 L 247 386.428202479 L 252 362.846590909 L 257 364.202479339 L 262 386.558367769 L 267 372.164256198 L 272 352.520144628 L 276 372.251033058 L 281 361.794421488 L 286 357.900309917 L 291 372.381198347 L 296 360.612086777 L 301 359.342975207 L 305 363.323863636 L 310 375.179752066 L 315 364.723140496 L 320 362.141528926 L 325 377.934917355 L 330 364.853305785 L 334 364.896694215 L 339 368.877582645 L 344 378.108471074 L 349 349.276859504 L 354 355.882747934 L 359 361.176136364 L 363 369.094524793 L 368 353.387913223 L 373 340.306301653 L 378 327.224690083 L 383 357.455578512 L 388 367.998966942 L 392 323.417355372 L 397 333.960743802 L 402 377.316632231 L 407 339.297520661 L 412 356.403409091 L 417 351.196797521 L 421 360.42768595 L 426 340.78357438 L 431 356.57696281 L 436 372.37035124 L 441 388.163739669 L 446 388.207128099 L 450 396.125516529 L 455 379.106404959 L 460 372.587293388 L 465 388.380681818 L 470 393.674070248 L 475 395.029958678 L 479 395.073347107 L 484 384.616735537 L 489 388.597623967 L 494 400.453512397 L 499 371.621900826 L 504 392.665289256 L 508 404.521177686 L 513 391.439566116 L 518 390.170454545 L 523 391.526342975 L 528 381.069731405 L 532 378.488119835 L 537 381.156508264 L 542 398.262396694 L 547 389.118285124 L 552 395.724173554 L 557 380.017561983 L 562 403.685950413 L 566 393.229338843 L 571 391.960227273 L 576 385.441115702 L 581 402.547004132 L 586 401.277892562 L 591 402.633780992 L 595 402.677169421 L 600 405.345557851 L 605 394.888946281 L 610 388.369834711 L 615 393.66322314 L 620 385.83161157"/>
		</g>
		<text class="x-axis-label" x="40.0" y="540">
			0
		</text>
		<path class="x-notch" d="M 64.1666666667 525 L 64.1666666667 530"/>
		<text class="x-axis-label" x="88.3333333333" y="540">
			10
		</text>
		<path class="x-notch" d="M 112.5 525 L 112.5 530"/>
		<text class="x-axis-label" x="136.666666667" y="540">
			20
		</text>
		<path class="x-notch" d="M 160.833333333 525 L 160.833333333 530"/>
		<text class="x-axis-label" x="185.0" y="540">
			30
		</text>
		<path class="x-notch" d="M 209.166666667 525 L 209.166666667 530"/>
		<text class="x-axis-label" x="233.333333333" y="540">
			40
		</text>
		<path class="x-notch" d="M 257.5 525 L 257.5 530"/>
		<text class="x-axis-label" x="281.666666667" y="540">
			50
		</text>
		<path class="x-notch" d="M 305.833333333 525 L 305.833333333 530"/>
		<text class="x-axis-label" x="330.0" y="540">
			60
		</text>
		<path class="x-notch" d="M 354.166666667 525 L 354.166666667 530"/>
		<text class="x-axis-label" x="378.333333333" y="540">
			70
		</text>
		<path class="x-notch" d="M 402.5 525 L 402.5 530"/>
		<text class="x-axis-label" x="426.666666667" y="540">
			80
		</text>
		<path class="x-notch" d="M 450.833333333 525 L 450.833333333 530"/>
		<text class="x-axis-label" x="475.0" y="540">
			90
		</text>
		<path class="x-notch" d="M 499.166666667 525 L 499.166666667 530"/>
		<text class="x-axis-label" x="523.333333333" y="540">
			100
		</text>
		<path class="x-notch" d="M 547.5 525 L 547.5 530"/>
		<text class="x-axis-label" x="571.666666667" y="540">
			110
		</text>
		<path class="x-notch" d="M 595.833333333 525 L 595.833333333 530"/>
		<text class="x-axis-label" x="620.0" y="540">
			120
		</text>
	</g>
</svg>
