<?xml version="1.0" ?>
<svg height="600" version="1.1" width="800" xmlns="http://www.w3.org/2000/svg" xmlns:svg="http://www.w3.org/2000/svg">
	<style type="text/css">

.x-axis-path, .y-gridline, .x-notch { fill:none; stroke: #a7a9ac; stroke-width:1; }



.y-gridline { stroke-width: 1; }

.y-axis-path, .y-axis-path2, .x-notch-left, .x-notch-right { display: none;}



.x-axis-label, .data-point-label {font-size: 12px; font-weight:normal; font-family: sans-serif; fill: #58595b; text-anchor:middle;}

.y-axis-label {font-size: 12px; font-family: helvetica; fill: #a7a9ac; text-anchor:end;}



.series-1-line { fill: none; stroke: #10b80c; stroke-width:2; }



.series-2-line { fill: none; stroke: #e90f0a; stroke-width: 2;}
</style>
	<rect fill="white" height="600" width="800" x="0" y="0"/>
	<g id="grid" transform="translate(70, 30)">
		<g class="x-axis" id="x_axis">
			<path class="x-axis-path" d="M 0 525 L 660 525"/>
			<path class="x-notch-left" d="M 0 525, L 0 535"/>
			<path class="x-notch-right" d="M 660 525, L 660 535"/>
		</g>
		<g class="y-axis" id="y_axis">
			<path class="y-axis-path" d="M 0 525 L 0 0"/>
			<path class="y-axis-path-2" d="M 660 525 L 660 0"/>
			<path class="y-gridline" d="M 0 525 L 660 525"/>
			<text class="y-axis-label" x="-5" y="525">-200</text>
			<path class="y-gridline" d="M 0 394 L 660 394"/>
			<text class="y-axis-label" x="-5" y="394"> 0</text>
			<path class="y-gridline" d="M 0 263 L 660 263"/>
			<text class="y-axis-label" x="-5" y="263">200</text>
			<path class="y-gridline" d="M 0 132 L 660 132"/>
			<text class="y-axis-label" x="-5" y="132">400</text>
			<path class="y-gridline" d="M 0 1 L 660 1"/>
			<text class="y-axis-label" x="-5" y="1">600</text>
		</g>
		<g>
			<path class="series-1-line" d="M 40 421.04664623 L 47 384.555675304 L 54 397.242716683 L 61 371.356092365 L 68 389.558830995 L 75 397.99248697 L 82 384.084932628 L 90 393.001842254 L 97 362.249653297 L 104 351.238723657 L 111 392.433384656 L 118 379.064420564 L 125 387.832124177 L 133 355.093032617 L 140 372.85047097 L 147 350.32547262 L 154 386.580110832 L 161 361.194702831 L 168 350.574316311 L 176 372.602523292 L 183 332.78701061 L 190 319.919262835 L 197 337.731748066 L 204 313.070351381 L 211 266.588371962 L 219 178.69027986 L 226 168.439866309 L 233 156.668130862 L 240 160.200007145 L 247 112.806857024 L 254 79.3990907471 L 261 117.027872885 L 269 98.1052581683 L 276 97.7363387921 L 283 24.5288100241 L 290 52.6115942266 L 297 0.0 L 304 8.5078244015 L 312 0.0977149228005 L 319 93.942977115 L 326 92.1439977731 L 333 109.660099021 L 340 156.760420947 L 347 162.01874118 L 355 198.180089418 L 362 171.290742746 L 369 157.99565736 L 376 177.888624887 L 383 169.143598609 L 390 241.557662305 L 398 306.618042442 L 405 312.618336657 L 412 337.581990877 L 419 326.013928881 L 426 369.363240602 L 433 349.326940612 L 440 384.504398323 L 448 401.109908308 L 455 374.257645849 L 462 399.05355195 L 469 407.561955792 L 476 395.306966693 L 483 384.48203756 L 491 413.642002264 L 498 403.5787481 L 505 390.4693735 L 512 371.714506903 L 519 373.81545406 L 526 394.080132879 L 534 402.588247001 L 541 399.749171371 L 548 407.068852353 L 555 382.407745388 L 562 366.47562479 L 569 390.342976962 L 577 379.313794937 L 584 405.725471789 L 591 388.06603808 L 598 391.355708097 L 605 390.912330574 L 612 409.672201561 L 620 396.228779322"/>
			<path class="series-2-line" d="M 40 372.600409747 L 47 393.285387384 L 54 397.311441192 L 61 402.061796036 L 68 393.050431194 L 75 354.342723874 L 82 382.995012908 L 90 381.950959464 L 97 411.327549534 L 104 383.484357755 L 111 375.197293949 L 118 404.57388402 L 125 341.964242509 L 133 398.86427195 L 140 431.138066165 L 147 448.201538622 L 154 447.881786213 L 161 430.903109975 L 168 455.209592793 L 176 414.328982364 L 183 416.9064341 L 190 424.553993088 L 197 391.640694056 L 204 346.414277411 L 211 428.664843115 L 219 418.204876201 L 226 299.824054912 L 233 334.270752235 L 240 410.72690965 L 247 380.710814763 L 254 428.919231771 L 261 411.940555533 L 269 375.405751321 L 276 382.329009273 L 283 396.495277586 L 290 371.54928995 L 297 364.710828217 L 304 314.414304319 L 312 361.174119256 L 319 302.910283961 L 326 306.936337769 L 333 348.626045453 L 340 322.955756781 L 347 327.706111625 L 355 285.376899124 L 362 305.337575726 L 369 294.877608812 L 376 304.698070909 L 383 290.616598815 L 390 298.988458839 L 398 381.239024543 L 405 298.348954022 L 412 364.664896932 L 419 338.994608261 L 426 361.852489006 L 433 386.158971824 L 440 384.390617344 L 448 370.30914525 L 455 384.475413562 L 462 392.122972551 L 469 398.321929467 L 476 395.104972914 L 483 394.785220505 L 491 371.287834942 L 498 393.421414652 L 505 382.237146702 L 512 404.370726412 L 519 393.186458462 L 526 429.806058893 L 534 407.757275403 L 541 404.54031885 L 548 398.426158152 L 555 381.447481914 L 562 386.922137794 L 569 398.191201963 L 577 401.492954734 L 584 411.313416831 L 591 403.750654062 L 598 404.879503725 L 605 395.143837847 L 612 383.959569898 L 620 396.677236138"/>
		</g>
		<text class="x-axis-label" x="40.0" y="540">0</text>
		<path class="x-notch" d="M 75.8024691358 525 L 75.8024691358 530"/>
		<text class="x-axis-label" x="111.604938272" y="540">10</text>
		<path class="x-notch" d="M 147.407407407 525 L 147.407407407 530"/>
		<text class="x-axis-label" x="183.209876543" y="540">20</text>
		<path class="x-notch" d="M 219.012345679 525 L 219.012345679 530"/>
		<text class="x-axis-label" x="254.814814815" y="540">30</text>
		<path class="x-notch" d="M 290.617283951 525 L 290.617283951 530"/>
		<text class="x-axis-label" x="326.419753086" y="540">40</text>
		<path class="x-notch" d="M 362.222222222 525 L 362.222222222 530"/>
		<text class="x-axis-label" x="398.024691358" y="540">50</text>
		<path class="x-notch" d="M 433.827160494 525 L 433.827160494 530"/>
		<text class="x-axis-label" x="469.62962963" y="540">60</text>
		<path class="x-notch" d="M 505.432098765 525 L 505.432098765 530"/>
		<text class="x-axis-label" x="541.234567901" y="540">70</text>
		<path class="x-notch" d="M 577.037037037 525 L 577.037037037 530"/>
		<text class="x-axis-label" x="612.839506173" y="540">80</text>
		<path class="x-notch" d="M 648.641975309 525 L 648.641975309 530"/>
	</g>
</svg>
