<?xml version="1.0" ?>
<svg height="600" version="1.1" width="800" xmlns="http://www.w3.org/2000/svg" xmlns:svg="http://www.w3.org/2000/svg">
	<style type="text/css">
		

.x-axis-path, .y-gridline, .x-notch { fill:none; stroke: #a7a9ac; stroke-width:1; }



.y-gridline { stroke-width: 1; }

.y-axis-path, .y-axis-path2, .x-notch-left, .x-notch-right { display: none;}



.x-axis-label, .data-point-label {font-size: 12px; font-weight:normal; font-family: sans-serif; fill: #58595b; text-anchor:middle;}

.y-axis-label {font-size: 12px; font-family: helvetica; fill: #a7a9ac; text-anchor:end;}



.series-1-line { fill: none; stroke: #10b80c; stroke-width:2; }



.series-2-line { fill: none; stroke: #e90f0a; stroke-width: 2;}

	</style>
	<rect fill="white" height="600" width="800" x="0" y="0"/>
	<g id="grid" transform="translate(70, 30)">
		<g class="x-axis" id="x_axis">
			<path class="x-axis-path" d="M 0 525 L 660 525"/>
			<path class="x-notch-left" d="M 0 525, L 0 535"/>
			<path class="x-notch-right" d="M 660 525, L 660 535"/>
		</g>
		<g class="y-axis" id="y_axis">
			<path class="y-axis-path" d="M 0 525 L 0 0"/>
			<path class="y-axis-path-2" d="M 660 525 L 660 0"/>
			<path class="y-gridline" d="M 0 525 L 660 525"/>
			<text class="y-axis-label" x="-5" y="525">
				-100
			</text>
			<path class="y-gridline" d="M 0 438 L 660 438"/>
			<text class="y-axis-label" x="-5" y="438">
				 0
			</text>
			<path class="y-gridline" d="M 0 351 L 660 351"/>
			<text class="y-axis-label" x="-5" y="351">
				100
			</text>
			<path class="y-gridline" d="M 0 264 L 660 264"/>
			<text class="y-axis-label" x="-5" y="264">
				200
			</text>
			<path class="y-gridline" d="M 0 177 L 660 177"/>
			<text class="y-axis-label" x="-5" y="177">
				300
			</text>
			<path class="y-gridline" d="M 0 90 L 660 90"/>
			<text class="y-axis-label" x="-5" y="90">
				400
			</text>
			<path class="y-gridline" d="M 0 3 L 660 3"/>
			<text class="y-axis-label" x="-5" y="3">
				500
			</text>
		</g>
		<g>
			<path class="series-1-line" d="M 40 448.49798 L 44 426.000205492 L 49 419.589480984 L 54 448.380006475 L 59 442.619581967 L 63 432.595807459 L 68 434.755182951 L 73 429.061958443 L 78 447.173283934 L 83 447.852159426 L 87 405.835234918 L 92 435.16441041 L 97 442.282235902 L 102 390.550361393 L 107 401.594486885 L 111 454.301912377 L 116 455.047987869 L 121 434.860913361 L 126 447.565438852 L 131 449.073814344 L 135 437.883839836 L 140 410.315615328 L 145 415.01039082 L 150 408.621716311 L 155 386.707391803 L 159 424.898567295 L 164 375.499792787 L 169 391.210818279 L 174 375.06239377 L 179 316.151669262 L 183 337.717844754 L 188 304.181420246 L 193 328.620045738 L 198 246.80182123 L 202 222.868346721 L 207 249.078672213 L 212 213.455197705 L 217 160.691873197 L 222 161.370048689 L 226 153.38887418 L 231 133.179049672 L 236 107.181625164 L 241 155.065000656 L 246 110.355526148 L 250 132.124001639 L 255 95.7378771311 L 260 124.954702623 L 265 120.697178115 L 270 167.817903607 L 274 138.342879098 L 279 72.6778545902 L 284 84.350230082 L 289 49.4904555738 L 294 100.403081066 L 298 33.9082065574 L 303 92.4711320492 L 308 123.281507541 L 313 69.2161830328 L 318 157.910608525 L 322 194.532384016 L 327 188.637559508 L 332 146.844285 L 337 156.272810492 L 341 172.948785984 L 346 135.912011475 L 351 213.545036967 L 356 173.301912459 L 361 233.031737951 L 365 254.284313443 L 370 284.623238934 L 375 233.789464426 L 380 255.693039918 L 385 258.92901541 L 389 267.303340902 L 394 291.269816393 L 399 275.682791885 L 404 259.938267377 L 409 255.142792869 L 413 295.442718361 L 418 361.477793852 L 423 328.390769344 L 428 430.120944836 L 433 406.546570328 L 437 408.14524582 L 442 426.435421311 L 447 424.489296803 L 452 408.273672295 L 457 433.564547787 L 461 435.230773279 L 466 430.92844877 L 471 449.398874262 L 476 442.202399754 L 480 402.764975246 L 485 438.982850738 L 490 440.73797623 L 495 456.314251721 L 500 442.588527213 L 504 425.901802705 L 509 431.560478197 L 514 447.496203689 L 519 451.38282918 L 524 439.475354672 L 528 445.852230164 L 533 452.656105656 L 538 463.071981148 L 543 424.195606639 L 548 414.846282131 L 552 444.467007623 L 557 437.584833115 L 562 453.788658607 L 567 423.505484098 L 572 425.84405959 L 576 439.603485082 L 581 445.284910574 L 586 433.892636066 L 591 436.321511557 L 596 430.112387049 L 600 442.502612541 L 605 419.062988033 L 610 443.344113525 L 615 449.159239016 L 620 437.050164508"/>
			<path class="series-2-line" d="M 40 428.05 L 44 419.625614754 L 49 461.076229508 L 54 436.901844262 L 59 445.102459016 L 63 401.67807377 L 68 402.878688525 L 73 400.579303279 L 78 404.404918033 L 83 431.855532787 L 87 431.306147541 L 92 425.506762295 L 97 438.082377049 L 102 417.407991803 L 107 431.733606557 L 111 430.309221311 L 116 447.259836066 L 121 419.58545082 L 126 447.911065574 L 131 414.111680328 L 135 416.187295082 L 140 413.887909836 L 145 429.08852459 L 150 432.914139344 L 155 435.864754098 L 159 412.565368852 L 164 369.140983607 L 169 406.216598361 L 174 396.917213115 L 179 438.367827869 L 183 415.068442623 L 188 388.269057377 L 193 428.844672131 L 198 426.545286885 L 202 437.370901639 L 207 406.196516393 L 212 329.522131148 L 217 367.472745902 L 222 326.673360656 L 226 374.24897541 L 231 315.949590164 L 236 341.650204918 L 241 307.850819672 L 246 283.676434426 L 250 297.12704918 L 255 237.077663934 L 260 214.653278689 L 265 193.103893443 L 270 175.929508197 L 274 198.130122951 L 279 132.830737705 L 284 151.531352459 L 289 160.606967213 L 294 166.182581967 L 298 128.008196721 L 303 100.333811475 L 308 136.53442623 L 313 104.485040984 L 318 85.5606557377 L 322 170.761270492 L 327 199.961885246 L 332 130.2875 L 337 123.613114754 L 341 180.813729508 L 346 119.889344262 L 351 51.9649590164 L 356 184.41557377 L 361 179.491188525 L 365 205.191803279 L 370 212.517418033 L 375 256.593032787 L 380 317.293647541 L 385 286.994262295 L 389 308.319877049 L 394 251.770491803 L 399 291.471106557 L 404 287.421721311 L 409 315.747336066 L 413 270.57295082 L 418 340.023565574 L 423 379.724180328 L 428 408.924795082 L 433 432.000409836 L 437 452.45102459 L 442 394.151639344 L 447 421.602254098 L 452 422.802868852 L 457 432.753483607 L 461 476.829098361 L 466 462.279713115 L 471 478.355327869 L 476 471.680942623 L 480 409.881557377 L 485 489.832172131 L 490 451.657786885 L 495 475.608401639 L 500 429.559016393 L 504 436.009631148 L 509 368.960245902 L 514 439.285860656 L 519 409.86147541 L 524 455.687090164 L 528 413.137704918 L 533 440.588319672 L 538 450.538934426 L 543 403.61454918 L 548 494.065163934 L 552 476.890778689 L 557 489.466393443 L 562 449.542008197 L 567 427.117622951 L 572 400.318237705 L 576 468.893852459 L 581 432.469467213 L 586 397.795081967 L 591 425.245696721 L 596 435.196311475 L 600 444.27192623 L 605 480.472540984 L 610 477.298155738 L 615 351.623770492 L 620 428.949385246"/>
		</g>
		<text class="x-axis-label" x="40.0" y="540">
			0
		</text>
		<path class="x-notch" d="M 63.9669421488 525 L 63.9669421488 530"/>
		<text class="x-axis-label" x="87.9338842975" y="540">
			10
		</text>
		<path class="x-notch" d="M 111.900826446 525 L 111.900826446 530"/>
		<text class="x-axis-label" x="135.867768595" y="540">
			20
		</text>
		<path class="x-notch" d="M 159.834710744 525 L 159.834710744 530"/>
		<text class="x-axis-label" x="183.801652893" y="540">
			30
		</text>
		<path class="x-notch" d="M 207.768595041 525 L 207.768595041 530"/>
		<text class="x-axis-label" x="231.73553719" y="540">
			40
		</text>
		<path class="x-notch" d="M 255.702479339 525 L 255.702479339 530"/>
		<text class="x-axis-label" x="279.669421488" y="540">
			50
		</text>
		<path class="x-notch" d="M 303.636363636 525 L 303.636363636 530"/>
		<text class="x-axis-label" x="327.603305785" y="540">
			60
		</text>
		<path class="x-notch" d="M 351.570247934 525 L 351.570247934 530"/>
		<text class="x-axis-label" x="375.537190083" y="540">
			70
		</text>
		<path class="x-notch" d="M 399.504132231 525 L 399.504132231 530"/>
		<text class="x-axis-label" x="423.47107438" y="540">
			80
		</text>
		<path class="x-notch" d="M 447.438016529 525 L 447.438016529 530"/>
		<text class="x-axis-label" x="471.404958678" y="540">
			90
		</text>
		<path class="x-notch" d="M 495.371900826 525 L 495.371900826 530"/>
		<text class="x-axis-label" x="519.338842975" y="540">
			100
		</text>
		<path class="x-notch" d="M 543.305785124 525 L 543.305785124 530"/>
		<text class="x-axis-label" x="567.272727273" y="540">
			110
		</text>
		<path class="x-notch" d="M 591.239669421 525 L 591.239669421 530"/>
		<text class="x-axis-label" x="615.20661157" y="540">
			120
		</text>
		<path class="x-notch" d="M 639.173553719 525 L 639.173553719 530"/>
	</g>
</svg>
