<?xml version="1.0" ?>
<svg height="600" version="1.1" width="800" xmlns="http://www.w3.org/2000/svg" xmlns:svg="http://www.w3.org/2000/svg">
	<style type="text/css">
		

.x-axis-path, .y-gridline, .x-notch { fill:none; stroke: #a7a9ac; stroke-width:1; }



.y-gridline { stroke-width: 1; }

.y-axis-path, .y-axis-path2, .x-notch-left, .x-notch-right { display: none;}



.x-axis-label, .data-point-label {font-size: 12px; font-weight:normal; font-family: sans-serif; fill: #58595b; text-anchor:middle;}

.y-axis-label {font-size: 12px; font-family: helvetica; fill: #a7a9ac; text-anchor:end;}



.series-1-line { fill: none; stroke: #10b80c; stroke-width:2; }



.series-2-line { fill: none; stroke: #e90f0a; stroke-width: 2;}

	</style>
	<rect fill="white" height="600" width="800" x="0" y="0"/>
	<g id="grid" transform="translate(70, 30)">
		<g class="x-axis" id="x_axis">
			<path class="x-axis-path" d="M 0 525 L 660 525"/>
			<path class="x-notch-left" d="M 0 525, L 0 535"/>
			<path class="x-notch-right" d="M 660 525, L 660 535"/>
		</g>
		<g class="y-axis" id="y_axis">
			<path class="y-axis-path" d="M 0 525 L 0 0"/>
			<path class="y-axis-path-2" d="M 660 525 L 660 0"/>
			<path class="y-gridline" d="M 0 525 L 660 525"/>
			<text class="y-axis-label" x="-5" y="525">
				-100
			</text>
			<path class="y-gridline" d="M 0 420 L 660 420"/>
			<text class="y-axis-label" x="-5" y="420">
				 0
			</text>
			<path class="y-gridline" d="M 0 315 L 660 315"/>
			<text class="y-axis-label" x="-5" y="315">
				100
			</text>
			<path class="y-gridline" d="M 0 210 L 660 210"/>
			<text class="y-axis-label" x="-5" y="210">
				200
			</text>
			<path class="y-gridline" d="M 0 105 L 660 105"/>
			<text class="y-axis-label" x="-5" y="105">
				300
			</text>
			<path class="y-gridline" d="M 0 0 L 660 0"/>
			<text class="y-axis-label" x="-5" y="0">
				400
			</text>
		</g>
		<g>
			<path class="series-1-line" d="M 40 420.732312 L 45 420.022140117 L 51 427.065588233 L 57 416.15151635 L 62 417.272124466 L 68 417.692592583 L 74 397.382280699 L 79 409.514448816 L 85 390.254136932 L 91 398.778505049 L 96 404.691313165 L 102 404.546461282 L 108 375.755509398 L 113 400.352857515 L 119 392.292685631 L 125 332.244073748 L 130 342.626101864 L 136 317.927209981 L 142 358.732358097 L 148 334.572326214 L 153 316.87357433 L 159 333.474542447 L 165 362.326070563 L 170 295.46589868 L 176 281.563106796 L 182 243.375914913 L 187 223.307943029 L 193 256.601391146 L 199 249.510159262 L 204 222.173247379 L 210 282.255555495 L 216 261.487443612 L 221 237.030891728 L 227 204.013059845 L 233 216.145227961 L 239 191.231296078 L 244 236.424604194 L 250 165.714712311 L 256 152.969860427 L 261 91.2517485437 L 267 130.27987666 L 273 120.711904777 L 278 176.109112893 L 284 70.8029810097 L 290 61.4235891262 L 295 154.244057243 L 301 236.726225359 L 307 237.092933476 L 312 198.717161592 L 318 110.990969709 L 324 111.842777825 L 330 171.978425942 L 335 183.518394058 L 341 155.185242175 L 347 237.855570291 L 352 273.976038408 L 358 293.808066524 L 364 276.136194641 L 369 162.456942757 L 375 157.600530874 L 381 214.90957899 L 386 229.437847107 L 392 177.788815223 L 398 217.67836334 L 403 161.910391456 L 409 227.134759573 L 415 265.193527689 L 420 203.637115806 L 426 258.092683922 L 432 306.597692039 L 438 363.691700155 L 443 391.977488272 L 449 402.682496388 L 455 390.314804505 L 460 355.923572621 L 466 389.540420738 L 472 412.468688854 L 477 397.031636971 L 483 412.771605087 L 489 424.338033204 L 494 399.63956132 L 500 429.163929437 L 506 427.484397553 L 511 427.87798567 L 517 430.075473786 L 523 435.961401903 L 529 420.901090019 L 534 416.556238136 L 540 417.676426252 L 546 386.193274369 L 551 432.759982485 L 557 417.538390602 L 563 428.997298718 L 568 433.833226835 L 574 416.161354951 L 580 420.297143068 L 585 441.071651184 L 591 401.753819301 L 597 405.862727417 L 602 415.060355534 L 608 431.79614365 L 614 411.647531767 L 620 433.767719883"/>
			<path class="series-2-line" d="M 40 420.42 L 45 427.690485437 L 51 412.910970874 L 57 414.931456311 L 62 423.251941748 L 68 417.922427184 L 74 411.542912621 L 79 421.963398058 L 85 415.583883495 L 91 415.504368932 L 96 413.324854369 L 102 414.295339806 L 108 420.515825243 L 113 410.98631068 L 119 418.256796117 L 125 427.627281553 L 130 424.39776699 L 136 406.468252427 L 142 407.438737864 L 148 428.359223301 L 153 424.079708738 L 159 392.500194175 L 165 415.520679612 L 170 422.791165049 L 176 399.611650485 L 182 397.432135922 L 187 394.202621359 L 193 379.423106796 L 199 358.343592233 L 204 383.46407767 L 210 407.534563107 L 216 390.655048544 L 221 375.875533981 L 227 386.296019417 L 233 396.716504854 L 239 412.386990291 L 244 383.957475728 L 250 418.527961165 L 256 419.498446602 L 261 402.618932039 L 267 394.139417476 L 273 390.909902913 L 278 367.73038835 L 284 393.900873786 L 290 402.221359223 L 295 396.89184466 L 301 407.312330097 L 307 410.382815534 L 312 396.653300971 L 318 341.973786408 L 324 392.294271845 L 330 367.014757282 L 335 387.935242718 L 341 404.655728155 L 347 385.676213592 L 352 380.346699029 L 358 377.117184466 L 364 368.637669903 L 369 390.60815534 L 375 389.478640777 L 381 395.699126214 L 386 400.86961165 L 392 369.290097087 L 398 349.260582524 L 403 346.031067961 L 409 345.951553398 L 415 324.872038835 L 420 323.742524272 L 426 365.663009709 L 432 352.983495146 L 438 392.803980583 L 443 381.174466019 L 449 368.494951456 L 455 392.565436893 L 460 371.48592233 L 466 388.206407767 L 472 393.376893204 L 477 404.847378641 L 483 425.767864078 L 489 401.538349515 L 494 424.558834951 L 500 424.479320388 L 506 419.149805825 L 511 418.020291262 L 517 422.140776699 L 523 424.161262136 L 529 417.781747573 L 534 418.75223301 L 540 386.122718447 L 546 402.843203883 L 551 405.91368932 L 557 424.734174757 L 563 417.304660194 L 568 419.325145631 L 574 410.845631068 L 580 399.216116505 L 585 412.786601942 L 591 423.207087379 L 597 415.777572816 L 602 433.548058252 L 608 421.918543689 L 614 431.289029126 L 620 398.659514563"/>
		</g>
		<text class="x-axis-label" x="40.0" y="540">
			0
		</text>
		<path class="x-notch" d="M 68.431372549 525 L 68.431372549 530"/>
		<text class="x-axis-label" x="96.862745098" y="540">
			10
		</text>
		<path class="x-notch" d="M 125.294117647 525 L 125.294117647 530"/>
		<text class="x-axis-label" x="153.725490196" y="540">
			20
		</text>
		<path class="x-notch" d="M 182.156862745 525 L 182.156862745 530"/>
		<text class="x-axis-label" x="210.588235294" y="540">
			30
		</text>
		<path class="x-notch" d="M 239.019607843 525 L 239.019607843 530"/>
		<text class="x-axis-label" x="267.450980392" y="540">
			40
		</text>
		<path class="x-notch" d="M 295.882352941 525 L 295.882352941 530"/>
		<text class="x-axis-label" x="324.31372549" y="540">
			50
		</text>
		<path class="x-notch" d="M 352.745098039 525 L 352.745098039 530"/>
		<text class="x-axis-label" x="381.176470588" y="540">
			60
		</text>
		<path class="x-notch" d="M 409.607843137 525 L 409.607843137 530"/>
		<text class="x-axis-label" x="438.039215686" y="540">
			70
		</text>
		<path class="x-notch" d="M 466.470588235 525 L 466.470588235 530"/>
		<text class="x-axis-label" x="494.901960784" y="540">
			80
		</text>
		<path class="x-notch" d="M 523.333333333 525 L 523.333333333 530"/>
		<text class="x-axis-label" x="551.764705882" y="540">
			90
		</text>
		<path class="x-notch" d="M 580.196078431 525 L 580.196078431 530"/>
		<text class="x-axis-label" x="608.62745098" y="540">
			100
		</text>
		<path class="x-notch" d="M 637.058823529 525 L 637.058823529 530"/>
	</g>
</svg>
