<?xml version="1.0" ?>
<svg height="600" version="1.1" width="800" xmlns="http://www.w3.org/2000/svg" xmlns:svg="http://www.w3.org/2000/svg">
	<style type="text/css">

.x-axis-path, .y-gridline, .x-notch { fill:none; stroke: #a7a9ac; stroke-width:1; }



.y-gridline { stroke-width: 1; }

.y-axis-path, .y-axis-path2, .x-notch-left, .x-notch-right { display: none;}



.x-axis-label, .data-point-label {font-size: 12px; font-weight:normal; font-family: sans-serif; fill: #58595b; text-anchor:middle;}

.y-axis-label {font-size: 12px; font-family: helvetica; fill: #a7a9ac; text-anchor:end;}



.series-1-line { fill: none; stroke: #10b80c; stroke-width:2; }



.series-2-line { fill: none; stroke: #e90f0a; stroke-width: 2;}
</style>
	<rect fill="white" height="600" width="800" x="0" y="0"/>
	<g id="grid" transform="translate(70, 30)">
		<g class="x-axis" id="x_axis">
			<path class="x-axis-path" d="M 0 525 L 660 525"/>
			<path class="x-notch-left" d="M 0 525, L 0 535"/>
			<path class="x-notch-right" d="M 660 525, L 660 535"/>
		</g>
		<g class="y-axis" id="y_axis">
			<path class="y-axis-path" d="M 0 525 L 0 0"/>
			<path class="y-axis-path-2" d="M 660 525 L 660 0"/>
			<path class="y-gridline" d="M 0 525 L 660 525"/>
			<text class="y-axis-label" x="-5" y="525">-200</text>
			<path class="y-gridline" d="M 0 394 L 660 394"/>
			<text class="y-axis-label" x="-5" y="394"> 0</text>
			<path class="y-gridline" d="M 0 263 L 660 263"/>
			<text class="y-axis-label" x="-5" y="263">200</text>
			<path class="y-gridline" d="M 0 132 L 660 132"/>
			<text class="y-axis-label" x="-5" y="132">400</text>
			<path class="y-gridline" d="M 0 1 L 660 1"/>
			<text class="y-axis-label" x="-5" y="1">600</text>
		</g>
		<g>
			<path class="series-1-line" d="M 40 399.716201136 L 47 384.087798741 L 54 377.17217273 L 61 405.289668692 L 68 401.66810801 L 75 400.32391397 L 82 414.095729007 L 89 415.246456878 L 96 414.425259943 L 103 407.26278314 L 110 425.221456545 L 117 372.619704165 L 124 387.468729952 L 131 400.286759634 L 139 401.92926807 L 146 405.572996835 L 153 357.250311679 L 160 371.484131504 L 167 326.794571326 L 174 345.615301483 L 181 352.429189927 L 188 337.139366925 L 195 336.596237322 L 202 288.519922703 L 209 254.235555619 L 216 217.549916243 L 223 233.723003572 L 230 169.422732841 L 238 224.508917911 L 245 173.507853641 L 252 199.039179345 L 259 198.188206634 L 266 167.752598779 L 273 210.246992206 L 280 221.216522478 L 287 166.460828853 L 294 165.763537568 L 301 238.828528542 L 308 180.53143854 L 315 259.137605455 L 322 230.640304594 L 330 155.688950485 L 337 220.964694399 L 344 220.082985402 L 351 187.153416145 L 358 138.337509661 L 365 175.56783397 L 372 228.376172145 L 379 128.548597603 L 386 175.937264215 L 393 158.031014924 L 400 129.25756775 L 407 0.0 L 414 242.75618027 L 421 324.595420198 L 429 260.570815526 L 436 285.395206667 L 443 366.49485473 L 450 360.010016967 L 457 403.952857841 L 464 413.507078224 L 471 404.03601824 L 478 419.008469423 L 485 415.971378417 L 492 400.68203567 L 499 424.274093871 L 506 420.1905284 L 513 405.670553295 L 520 428.678141821 L 528 406.184501944 L 535 419.371847304 L 542 435.360036666 L 549 418.377316699 L 556 398.624008761 L 563 399.958193836 L 570 405.941242067 L 577 415.803305558 L 584 402.11465092 L 591 390.580898037 L 598 395.394046408 L 605 400.515037886 L 612 390.428291686 L 620 393.055802017"/>
			<path class="series-2-line" d="M 40 390.148091562 L 47 380.071427234 L 54 415.61893645 L 61 370.723823891 L 68 407.471969253 L 75 369.78067357 L 82 362.105281533 L 89 450.480781168 L 96 377.971037254 L 103 358.289283759 L 110 353.015164014 L 117 351.342952708 L 124 316.052929316 L 131 363.60679999 L 139 375.141586288 L 146 402.284642483 L 153 388.606069717 L 160 402.542128307 L 167 430.885820647 L 174 431.614881632 L 181 385.519132928 L 188 369.43928787 L 195 394.181071773 L 202 388.906952028 L 209 386.034104576 L 216 383.161257123 L 223 375.485865087 L 230 372.613017634 L 238 381.74653164 L 245 364.466050437 L 252 301.56139569 L 259 327.503815739 L 266 379.860230997 L 273 339.767663022 L 280 254.050921503 L 287 354.432782596 L 294 356.362479727 L 301 370.298538317 L 308 367.425690864 L 315 359.750298828 L 322 296.845644081 L 330 363.60969309 L 337 328.319669698 L 344 359.06463433 L 351 379.003873649 L 358 301.691585152 L 365 286.81237624 L 372 323.560521602 L 379 243.846960813 L 386 142.521949398 L 393 160.059916425 L 400 187.202972619 L 407 203.540303501 L 414 342.342521262 L 421 392.297664228 L 429 252.552296145 L 436 300.106166819 L 443 278.023141033 L 450 293.159835768 L 457 401.946149883 L 464 396.672030138 L 471 409.407452582 L 478 401.732060546 L 485 394.05666851 L 492 424.801633142 L 499 383.508429021 L 506 398.645123756 L 513 402.976093179 L 520 406.106426456 L 528 390.026581398 L 535 426.77472676 L 542 401.089792535 L 549 415.025851125 L 556 439.767635027 L 563 405.678247782 L 570 395.601583454 L 577 389.126827564 L 584 404.263522299 L 591 410.995764014 L 598 396.116555102 L 605 380.036710045 L 612 395.17340478 L 620 393.501193473"/>
		</g>
		<text class="x-axis-label" x="40.0" y="540">0</text>
		<path class="x-notch" d="M 75.3658536585 525 L 75.3658536585 530"/>
		<text class="x-axis-label" x="110.731707317" y="540">10</text>
		<path class="x-notch" d="M 146.097560976 525 L 146.097560976 530"/>
		<text class="x-axis-label" x="181.463414634" y="540">20</text>
		<path class="x-notch" d="M 216.829268293 525 L 216.829268293 530"/>
		<text class="x-axis-label" x="252.195121951" y="540">30</text>
		<path class="x-notch" d="M 287.56097561 525 L 287.56097561 530"/>
		<text class="x-axis-label" x="322.926829268" y="540">40</text>
		<path class="x-notch" d="M 358.292682927 525 L 358.292682927 530"/>
		<text class="x-axis-label" x="393.658536585" y="540">50</text>
		<path class="x-notch" d="M 429.024390244 525 L 429.024390244 530"/>
		<text class="x-axis-label" x="464.390243902" y="540">60</text>
		<path class="x-notch" d="M 499.756097561 525 L 499.756097561 530"/>
		<text class="x-axis-label" x="535.12195122" y="540">70</text>
		<path class="x-notch" d="M 570.487804878 525 L 570.487804878 530"/>
		<text class="x-axis-label" x="605.853658537" y="540">80</text>
		<path class="x-notch" d="M 641.219512195 525 L 641.219512195 530"/>
	</g>
</svg>
