<?xml version="1.0" ?>
<svg height="600" version="1.1" width="800" xmlns="http://www.w3.org/2000/svg" xmlns:svg="http://www.w3.org/2000/svg">
	<style type="text/css">

.x-axis-path, .y-gridline, .x-notch { fill:none; stroke: #a7a9ac; stroke-width:1; }



.y-gridline { stroke-width: 1; }

.y-axis-path, .y-axis-path2, .x-notch-left, .x-notch-right { display: none;}



.x-axis-label, .data-point-label {font-size: 12px; font-weight:normal; font-family: sans-serif; fill: #58595b; text-anchor:middle;}

.y-axis-label {font-size: 12px; font-family: helvetica; fill: #a7a9ac; text-anchor:end;}



.series-1-line { fill: none; stroke: #10b80c; stroke-width:2; }



.series-2-line { fill: none; stroke: #e90f0a; stroke-width: 2;}
</style>
	<rect fill="white" height="600" width="800" x="0" y="0"/>
	<g id="grid" transform="translate(70, 30)">
		<g class="x-axis" id="x_axis">
			<path class="x-axis-path" d="M 0 525 L 660 525"/>
			<path class="x-notch-left" d="M 0 525, L 0 535"/>
			<path class="x-notch-right" d="M 660 525, L 660 535"/>
		</g>
		<g class="y-axis" id="y_axis">
			<path class="y-axis-path" d="M 0 525 L 0 0"/>
			<path class="y-axis-path-2" d="M 660 525 L 660 0"/>
			<path class="y-gridline" d="M 0 525 L 660 525"/>
			<text class="y-axis-label" x="-5" y="525">-200</text>
			<path class="y-gridline" d="M 0 394 L 660 394"/>
			<text class="y-axis-label" x="-5" y="394"> 0</text>
			<path class="y-gridline" d="M 0 263 L 660 263"/>
			<text class="y-axis-label" x="-5" y="263">200</text>
			<path class="y-gridline" d="M 0 132 L 660 132"/>
			<text class="y-axis-label" x="-5" y="132">400</text>
			<path class="y-gridline" d="M 0 1 L 660 1"/>
			<text class="y-axis-label" x="-5" y="1">600</text>
		</g>
		<g>
			<path class="series-1-line" d="M 40 393.279241718 L 45 391.623122946 L 51 383.380145632 L 57 394.460233071 L 62 404.956782911 L 68 418.445599692 L 74 382.448720277 L 80 385.208700183 L 85 388.369755443 L 91 391.932455361 L 97 402.228040546 L 103 396.211045678 L 108 382.767467434 L 114 379.998357439 L 120 378.26936763 L 126 378.875951475 L 131 385.722971784 L 137 390.617560687 L 143 375.878528976 L 149 393.308644087 L 154 353.224724269 L 160 367.114901055 L 166 362.010217408 L 172 362.562147975 L 177 337.914932508 L 183 363.921342389 L 189 331.865761305 L 195 325.556712986 L 200 293.245798621 L 206 302.738379141 L 212 223.824728966 L 218 227.989468893 L 223 231.369421915 L 229 167.017169695 L 235 182.111995805 L 240 164.544372334 L 246 130.427053289 L 252 113.297794647 L 258 89.7268502326 L 263 114.547113202 L 269 120.445386773 L 275 117.767365574 L 281 60.6953853524 L 286 78.3443982253 L 292 78.9874175879 L 298 83.0610687197 L 304 94.5971694417 L 309 35.7734378173 L 315 84.2056245545 L 321 0.0 L 327 69.6163094465 L 332 24.9523311183 L 338 97.5981969803 L 344 101.361292249 L 350 101.894720404 L 355 82.3017944908 L 361 142.028707246 L 367 198.562103753 L 373 171.250541012 L 378 178.919068397 L 384 170.274446425 L 390 204.47400883 L 396 303.97939868 L 401 341.098356988 L 407 320.793799857 L 413 320.980805937 L 419 323.977047406 L 424 321.281662406 L 430 317.92873016 L 436 365.247641022 L 441 388.316152589 L 447 360.822412255 L 453 366.958086001 L 459 373.348808374 L 464 381.418126461 L 470 380.473923558 L 476 373.690644196 L 482 378.676606548 L 487 393.04129903 L 493 400.910221766 L 499 399.527938686 L 505 388.985538586 L 510 408.915756487 L 516 381.057091665 L 522 392.392797037 L 528 399.203381828 L 533 378.041451408 L 539 399.832727266 L 545 400.76780008 L 551 393.090142606 L 556 392.383055224 L 562 393.555243559 L 568 392.73856497 L 574 390.498623948 L 579 388.988531902 L 585 390.270311445 L 591 400.547678871 L 597 383.418420229 L 602 385.484702025 L 608 403.188652828 L 614 401.769649577 L 620 396.464285926"/>
			<path class="series-2-line" d="M 40 395.03093619 L 45 386.992294153 L 51 407.418900781 L 57 383.012740761 L 62 394.188141573 L 68 382.591343452 L 74 375.264332631 L 80 399.960726559 L 85 389.787190872 L 91 400.250960467 L 97 387.230899913 L 103 393.424882209 L 108 392.502552338 L 114 391.580222467 L 120 394.927679896 L 126 394.716981241 L 131 392.371388937 L 137 389.314165416 L 143 396.219778928 L 149 380.353193508 L 154 400.068168919 L 160 381.355058633 L 166 383.990884845 L 172 392.31976079 L 177 390.685799702 L 183 396.879781998 L 189 385.282983877 L 195 381.51412914 L 200 382.015061702 L 206 355.474008032 L 212 354.551678161 L 218 354.340979507 L 223 337.76276287 L 229 368.863837748 L 235 384.309025859 L 240 360.614497056 L 246 365.385216918 L 252 384.388561113 L 258 353.577720143 L 263 350.520496622 L 269 357.426110134 L 275 342.271155931 L 281 347.753507009 L 286 325.482240639 L 292 319.578492252 L 298 333.60041793 L 304 293.538371144 L 309 294.750934923 L 315 327.275272234 L 321 291.483012748 L 327 266.365221511 L 332 278.963884756 L 338 308.641697201 L 344 287.793693264 L 350 271.215476627 L 355 258.195416073 L 361 277.198760268 L 367 267.025224581 L 373 236.926014828 L 378 273.008508222 L 384 272.797809568 L 390 305.322146879 L 396 335.71159054 L 401 356.849828384 L 407 343.829767831 L 413 353.581906209 L 419 285.766241974 L 424 356.718664984 L 430 363.624278496 L 436 375.511310524 L 441 368.184299703 L 447 366.550338616 L 453 391.95836376 L 459 377.515040773 L 464 350.973987103 L 470 370.688962515 L 476 385.42251941 L 482 395.886289005 L 487 386.424384535 L 493 391.195104397 L 499 395.965824259 L 505 386.503919788 L 510 396.967689383 L 516 396.756990729 L 522 388.006717475 L 528 391.354174904 L 533 401.106313283 L 539 398.760720978 L 545 402.819809624 L 551 390.511380287 L 556 400.975149882 L 562 395.783032711 L 568 395.572334057 L 574 395.361635402 L 579 392.304411881 L 585 397.78676296 L 591 387.613227273 L 597 406.616571468 L 602 400.71282308 L 608 397.65559956 L 614 380.365751706 L 620 386.559734001"/>
		</g>
		<text class="x-axis-label" x="40.0" y="540">0</text>
		<path class="x-notch" d="M 68.7128712871 525 L 68.7128712871 530"/>
		<text class="x-axis-label" x="97.4257425743" y="540">10</text>
		<path class="x-notch" d="M 126.138613861 525 L 126.138613861 530"/>
		<text class="x-axis-label" x="154.851485149" y="540">20</text>
		<path class="x-notch" d="M 183.564356436 525 L 183.564356436 530"/>
		<text class="x-axis-label" x="212.277227723" y="540">30</text>
		<path class="x-notch" d="M 240.99009901 525 L 240.99009901 530"/>
		<text class="x-axis-label" x="269.702970297" y="540">40</text>
		<path class="x-notch" d="M 298.415841584 525 L 298.415841584 530"/>
		<text class="x-axis-label" x="327.128712871" y="540">50</text>
		<path class="x-notch" d="M 355.841584158 525 L 355.841584158 530"/>
		<text class="x-axis-label" x="384.554455446" y="540">60</text>
		<path class="x-notch" d="M 413.267326733 525 L 413.267326733 530"/>
		<text class="x-axis-label" x="441.98019802" y="540">70</text>
		<path class="x-notch" d="M 470.693069307 525 L 470.693069307 530"/>
		<text class="x-axis-label" x="499.405940594" y="540">80</text>
		<path class="x-notch" d="M 528.118811881 525 L 528.118811881 530"/>
		<text class="x-axis-label" x="556.831683168" y="540">90</text>
		<path class="x-notch" d="M 585.544554455 525 L 585.544554455 530"/>
		<text class="x-axis-label" x="614.257425743" y="540">100</text>
		<path class="x-notch" d="M 642.97029703 525 L 642.97029703 530"/>
	</g>
</svg>
