<?xml version="1.0" ?>
<svg height="600" version="1.1" width="800" xmlns="http://www.w3.org/2000/svg" xmlns:svg="http://www.w3.org/2000/svg">
	<style type="text/css">
		

.x-axis-path, .y-gridline, .x-notch { fill:none; stroke: #a7a9ac; stroke-width:1; }



.y-gridline { stroke-width: 1; }

.y-axis-path, .y-axis-path2, .x-notch-left, .x-notch-right { display: none;}



.x-axis-label, .data-point-label {font-size: 12px; font-weight:normal; font-family: sans-serif; fill: #58595b; text-anchor:middle;}

.y-axis-label {font-size: 12px; font-family: helvetica; fill: #a7a9ac; text-anchor:end;}



.series-1-line { fill: none; stroke: #10b80c; stroke-width:2; }



.series-2-line { fill: none; stroke: #e90f0a; stroke-width: 2;}

	</style>
	<rect fill="white" height="600" width="800" x="0" y="0"/>
	<g id="grid" transform="translate(70, 30)">
		<g class="x-axis" id="x_axis">
			<path class="x-axis-path" d="M 0 525 L 660 525"/>
			<path class="x-notch-left" d="M 0 525, L 0 535"/>
			<path class="x-notch-right" d="M 660 525, L 660 535"/>
		</g>
		<g class="y-axis" id="y_axis">
			<path class="y-axis-path" d="M 0 525 L 0 0"/>
			<path class="y-axis-path-2" d="M 660 525 L 660 0"/>
			<path class="y-gridline" d="M 0 525 L 660 525"/>
			<text class="y-axis-label" x="-5" y="525">
				-100
			</text>
			<path class="y-gridline" d="M 0 394 L 660 394"/>
			<text class="y-axis-label" x="-5" y="394">
				 0
			</text>
			<path class="y-gridline" d="M 0 263 L 660 263"/>
			<text class="y-axis-label" x="-5" y="263">
				100
			</text>
			<path class="y-gridline" d="M 0 132 L 660 132"/>
			<text class="y-axis-label" x="-5" y="132">
				200
			</text>
			<path class="y-gridline" d="M 0 1 L 660 1"/>
			<text class="y-axis-label" x="-5" y="1">
				300
			</text>
		</g>
		<g>
			<path class="series-1-line" d="M 40 424.34133 L 46 377.598935824 L 53 400.318241647 L 60 405.772922471 L 67 365.458628294 L 74 390.062159118 L 81 364.353364941 L 88 361.462120765 L 95 387.916801588 L 102 403.871482412 L 109 359.720488235 L 115 412.728094059 L 122 409.433124882 L 129 366.628230706 L 136 425.458086529 L 143 384.032892353 L 150 398.574273176 L 157 389.423454 L 164 400.060934824 L 171 413.020490647 L 178 379.369496471 L 185 406.160702294 L 191 377.759708118 L 198 311.431138941 L 205 348.486619765 L 212 315.609475588 L 219 271.929931412 L 226 304.677787235 L 233 210.146743059 L 240 222.601773882 L 247 151.965054706 L 254 92.8720355294 L 260 174.855441353 L 267 92.5075471765 L 274 78.308328 L 281 113.412383824 L 288 114.592514647 L 295 43.3840704706 L 302 52.1032012941 L 309 77.9856321176 L 316 1.66211294118 L 323 5.70349376471 L 330 52.7203245882 L 336 53.2615304118 L 343 161.428261235 L 350 89.1425170588 L 357 135.823347882 L 364 107.523153706 L 371 118.698759529 L 378 228.278790353 L 385 80.0365711765 L 392 94.678752 L 399 173.936357824 L 405 232.900613647 L 412 206.620094471 L 419 206.891975294 L 426 333.467306118 L 433 341.580586941 L 440 383.920192765 L 447 406.100848588 L 454 420.642229412 L 461 415.394785235 L 468 381.878716059 L 475 430.578696882 L 481 422.841177706 L 488 439.266783529 L 495 421.130589353 L 502 405.854595176 L 509 456.001476 L 516 401.586206824 L 523 407.276612647 L 530 406.875443471 L 537 407.215049294 L 544 428.857055118 L 550 442.052335941 L 557 381.175366765 L 564 352.437847588 L 571 403.392703412 L 578 437.419459235 L 585 427.932115059 L 592 365.136795882 L 599 420.399276706 L 606 396.978957529 L 613 392.539488353 L 620 386.585394176"/>
			<path class="series-2-line" d="M 40 392.175 L 46 387.051617647 L 53 397.678235294 L 60 388.617352941 L 67 404.493970588 L 74 377.058088235 L 81 366.684705882 L 88 379.936323529 L 95 370.875441176 L 102 361.814558824 L 109 361.941176471 L 115 356.817794118 L 122 381.881911765 L 129 376.758529412 L 136 384.760147059 L 143 369.136764706 L 150 375.825882353 L 157 393.015 L 164 394.454117647 L 171 391.955735294 L 178 392.082352941 L 185 381.708970588 L 191 381.835588235 L 198 412.149705882 L 205 387.338823529 L 212 369.090441176 L 219 398.092058824 L 226 379.843676471 L 233 356.345294118 L 240 381.409411765 L 247 367.098529412 L 254 394.787647059 L 260 373.914264706 L 267 395.040882353 L 274 380.73 L 281 404.481617647 L 288 345.545735294 L 295 369.297352941 L 302 362.861470588 L 309 340.675588235 L 316 394.614705882 L 323 401.303823529 L 330 358.117941176 L 336 347.744558824 L 343 388.558676471 L 350 375.560294118 L 357 384.874411765 L 364 369.251029412 L 371 337.877647059 L 378 362.941764706 L 385 374.880882353 L 392 365.82 L 399 360.696617647 L 405 347.698235294 L 412 375.387352941 L 419 355.826470588 L 426 391.390588235 L 433 377.079705882 L 440 398.206323529 L 447 390.457941176 L 454 397.147058824 L 461 368.398676471 L 468 398.712794118 L 475 400.151911765 L 481 401.591029412 L 488 370.217647059 L 495 407.094264706 L 502 407.220882353 L 509 387.66 L 516 402.224117647 L 523 407.600735294 L 530 390.664852941 L 537 411.791470588 L 544 385.668088235 L 550 397.607205882 L 557 396.421323529 L 564 397.860441176 L 571 405.862058824 L 578 392.863676471 L 585 411.365294118 L 592 402.304411765 L 599 403.743529412 L 606 394.682647059 L 613 393.496764706 L 620 372.623382353"/>
		</g>
		<text class="x-axis-label" x="40.0" y="540">
			0
		</text>
		<path class="x-notch" d="M 74.5238095238 525 L 74.5238095238 530"/>
		<text class="x-axis-label" x="109.047619048" y="540">
			10
		</text>
		<path class="x-notch" d="M 143.571428571 525 L 143.571428571 530"/>
		<text class="x-axis-label" x="178.095238095" y="540">
			20
		</text>
		<path class="x-notch" d="M 212.619047619 525 L 212.619047619 530"/>
		<text class="x-axis-label" x="247.142857143" y="540">
			30
		</text>
		<path class="x-notch" d="M 281.666666667 525 L 281.666666667 530"/>
		<text class="x-axis-label" x="316.19047619" y="540">
			40
		</text>
		<path class="x-notch" d="M 350.714285714 525 L 350.714285714 530"/>
		<text class="x-axis-label" x="385.238095238" y="540">
			50
		</text>
		<path class="x-notch" d="M 419.761904762 525 L 419.761904762 530"/>
		<text class="x-axis-label" x="454.285714286" y="540">
			60
		</text>
		<path class="x-notch" d="M 488.80952381 525 L 488.80952381 530"/>
		<text class="x-axis-label" x="523.333333333" y="540">
			70
		</text>
		<path class="x-notch" d="M 557.857142857 525 L 557.857142857 530"/>
		<text class="x-axis-label" x="592.380952381" y="540">
			80
		</text>
		<path class="x-notch" d="M 626.904761905 525 L 626.904761905 530"/>
	</g>
</svg>
