<?xml version="1.0" ?>
<svg height="600" version="1.1" width="800" xmlns="http://www.w3.org/2000/svg" xmlns:svg="http://www.w3.org/2000/svg">
	<style type="text/css">
		

.x-axis-path, .y-gridline, .x-notch { fill:none; stroke: #a7a9ac; stroke-width:1; }



.y-gridline { stroke-width: 1; }

.y-axis-path, .y-axis-path2, .x-notch-left, .x-notch-right { display: none;}



.x-axis-label, .data-point-label {font-size: 12px; font-weight:normal; font-family: sans-serif; fill: #58595b; text-anchor:middle;}

.y-axis-label {font-size: 12px; font-family: helvetica; fill: #a7a9ac; text-anchor:end;}



.series-1-line { fill: none; stroke: #10b80c; stroke-width:2; }



.series-2-line { fill: none; stroke: #e90f0a; stroke-width: 2;}

	</style>
	<rect fill="white" height="600" width="800" x="0" y="0"/>
	<g id="grid" transform="translate(70, 30)">
		<g class="x-axis" id="x_axis">
			<path class="x-axis-path" d="M 0 525 L 660 525"/>
			<path class="x-notch-left" d="M 0 525, L 0 535"/>
			<path class="x-notch-right" d="M 660 525, L 660 535"/>
		</g>
		<g class="y-axis" id="y_axis">
			<path class="y-axis-path" d="M 0 525 L 0 0"/>
			<path class="y-axis-path-2" d="M 660 525 L 660 0"/>
			<path class="y-gridline" d="M 0 525 L 660 525"/>
			<text class="y-axis-label" x="-5" y="525">
				-100
			</text>
			<path class="y-gridline" d="M 0 420 L 660 420"/>
			<text class="y-axis-label" x="-5" y="420">
				 0
			</text>
			<path class="y-gridline" d="M 0 315 L 660 315"/>
			<text class="y-axis-label" x="-5" y="315">
				100
			</text>
			<path class="y-gridline" d="M 0 210 L 660 210"/>
			<text class="y-axis-label" x="-5" y="210">
				200
			</text>
			<path class="y-gridline" d="M 0 105 L 660 105"/>
			<text class="y-axis-label" x="-5" y="105">
				300
			</text>
			<path class="y-gridline" d="M 0 0 L 660 0"/>
			<text class="y-axis-label" x="-5" y="0">
				400
			</text>
		</g>
		<g>
			<path class="series-1-line" d="M 40 423.101532 L 46 431.338125806 L 52 411.843799613 L 58 414.884153419 L 65 417.467127226 L 71 414.018901032 L 77 417.974854839 L 84 415.011728645 L 90 379.255422452 L 96 432.076276258 L 103 428.116910065 L 109 413.549603871 L 115 414.301377677 L 121 407.003431484 L 128 406.86732529 L 134 415.938459097 L 140 425.359872903 L 147 367.36540671 L 153 402.659660516 L 159 411.461574323 L 166 397.190368129 L 172 380.415541935 L 178 352.952135742 L 185 372.038589548 L 191 361.751923355 L 197 367.269437161 L 203 316.086530968 L 210 326.880924774 L 216 312.932698581 L 222 304.342412387 L 229 290.313546194 L 235 256.7656 L 241 275.798293806 L 248 300.484607613 L 254 237.456021419 L 260 321.884815226 L 266 330.579209032 L 273 278.965382839 L 279 291.724956645 L 285 250.800130452 L 292 204.059564258 L 298 224.276658065 L 304 270.124671871 L 311 235.769065677 L 317 182.674739484 L 323 174.97233329 L 330 219.555307097 L 336 230.295520903 L 342 228.65119471 L 348 131.241828516 L 355 217.905022323 L 361 238.068356129 L 367 203.955089935 L 374 204.545583742 L 380 220.159057548 L 386 171.157211355 L 393 108.800205161 L 399 77.4333189677 L 405 156.182032774 L 411 232.722386581 L 418 346.201740387 L 424 336.857554194 L 430 389.705708 L 437 267.796061806 L 443 401.144775613 L 449 420.446689419 L 456 425.964203226 L 462 443.219877032 L 468 414.544770839 L 474 415.485124645 L 481 392.194838452 L 487 437.854272258 L 493 412.948666065 L 500 427.512139871 L 506 402.094973677 L 512 407.208447484 L 519 434.91036129 L 525 418.216175097 L 531 423.760568903 L 538 438.45844271 L 544 434.498656516 L 550 441.362270323 L 556 431.452344129 L 563 418.420137935 L 569 401.241271742 L 575 442.754885548 L 582 423.233679355 L 588 435.131413161 L 594 398.945026968 L 601 420.346940774 L 607 426.698574581 L 613 434.208568387 L 620 421.848782194"/>
			<path class="series-2-line" d="M 40 419.37 L 46 423.556451613 L 52 413.042903226 L 58 408.829354839 L 65 435.065806452 L 71 419.302258065 L 77 436.088709677 L 84 467.57516129 L 90 414.011612903 L 96 383.548064516 L 103 406.634516129 L 109 405.570967742 L 115 389.807419355 L 121 401.343870968 L 128 442.280322581 L 134 439.116774194 L 140 463.253225806 L 147 439.089677419 L 153 440.126129032 L 159 438.012580645 L 166 431.699032258 L 172 447.435483871 L 178 451.621935484 L 185 442.158387097 L 191 428.49483871 L 197 447.381290323 L 203 425.317741935 L 210 440.004193548 L 216 424.240645161 L 222 432.627096774 L 229 429.463548387 L 235 441.0 L 241 439.936451613 L 248 416.822903226 L 254 440.959354839 L 260 434.645806452 L 266 449.332258065 L 273 412.568709677 L 279 407.30516129 L 285 423.041612903 L 292 404.128064516 L 298 382.064516129 L 304 374.700967742 L 311 389.387419355 L 317 378.873870968 L 323 330.560322581 L 330 356.796774194 L 336 338.933225806 L 342 328.419677419 L 348 351.506129032 L 355 324.192580645 L 361 310.529032258 L 367 328.365483871 L 374 337.801935484 L 380 337.788387097 L 386 344.07483871 L 393 222.261290323 L 399 262.147741935 L 405 323.034193548 L 411 318.820645161 L 418 367.107096774 L 424 370.243548387 L 430 376.53 L 437 372.316451613 L 443 433.202903226 L 449 431.089354839 L 456 449.975806452 L 462 439.462258065 L 468 427.898709677 L 474 423.68516129 L 481 432.071612903 L 487 413.158064516 L 493 427.844516129 L 500 427.830967742 L 506 440.417419355 L 512 440.403870968 L 519 438.290322581 L 525 441.426774194 L 531 456.113225806 L 538 435.099677419 L 544 417.236129032 L 550 430.872580645 L 556 399.359032258 L 563 445.545483871 L 569 442.381935484 L 575 456.018387097 L 582 449.70483871 L 588 415.041290323 L 594 428.677741935 L 601 426.564193548 L 607 397.150645161 L 613 432.837096774 L 620 414.973548387"/>
		</g>
		<text class="x-axis-label" x="40.0" y="540">
			0
		</text>
		<path class="x-notch" d="M 71.5217391304 525 L 71.5217391304 530"/>
		<text class="x-axis-label" x="103.043478261" y="540">
			10
		</text>
		<path class="x-notch" d="M 134.565217391 525 L 134.565217391 530"/>
		<text class="x-axis-label" x="166.086956522" y="540">
			20
		</text>
		<path class="x-notch" d="M 197.608695652 525 L 197.608695652 530"/>
		<text class="x-axis-label" x="229.130434783" y="540">
			30
		</text>
		<path class="x-notch" d="M 260.652173913 525 L 260.652173913 530"/>
		<text class="x-axis-label" x="292.173913043" y="540">
			40
		</text>
		<path class="x-notch" d="M 323.695652174 525 L 323.695652174 530"/>
		<text class="x-axis-label" x="355.217391304" y="540">
			50
		</text>
		<path class="x-notch" d="M 386.739130435 525 L 386.739130435 530"/>
		<text class="x-axis-label" x="418.260869565" y="540">
			60
		</text>
		<path class="x-notch" d="M 449.782608696 525 L 449.782608696 530"/>
		<text class="x-axis-label" x="481.304347826" y="540">
			70
		</text>
		<path class="x-notch" d="M 512.826086957 525 L 512.826086957 530"/>
		<text class="x-axis-label" x="544.347826087" y="540">
			80
		</text>
		<path class="x-notch" d="M 575.869565217 525 L 575.869565217 530"/>
		<text class="x-axis-label" x="607.391304348" y="540">
			90
		</text>
		<path class="x-notch" d="M 638.913043478 525 L 638.913043478 530"/>
	</g>
</svg>
