<?xml version="1.0" ?>
<svg height="600" version="1.1" width="800" xmlns="http://www.w3.org/2000/svg" xmlns:svg="http://www.w3.org/2000/svg">
	<style type="text/css">
		

.x-axis-path, .y-gridline, .x-notch { fill:none; stroke: #a7a9ac; stroke-width:1; }



.y-gridline { stroke-width: 1; }

.y-axis-path, .y-axis-path2, .x-notch-left, .x-notch-right { display: none;}



.x-axis-label, .data-point-label {font-size: 12px; font-weight:normal; font-family: sans-serif; fill: #58595b; text-anchor:middle;}

.y-axis-label {font-size: 12px; font-family: helvetica; fill: #a7a9ac; text-anchor:end;}



.series-1-line { fill: none; stroke: #10b80c; stroke-width:2; }



.series-2-line { fill: none; stroke: #e90f0a; stroke-width: 2;}

	</style>
	<rect fill="white" height="600" width="800" x="0" y="0"/>
	<g id="grid" transform="translate(70, 30)">
		<g class="x-axis" id="x_axis">
			<path class="x-axis-path" d="M 0 525 L 660 525"/>
			<path class="x-notch-left" d="M 0 525, L 0 535"/>
			<path class="x-notch-right" d="M 660 525, L 660 535"/>
		</g>
		<g class="y-axis" id="y_axis">
			<path class="y-axis-path" d="M 0 525 L 0 0"/>
			<path class="y-axis-path-2" d="M 660 525 L 660 0"/>
			<path class="y-gridline" d="M 0 525 L 660 525"/>
			<text class="y-axis-label" x="-5" y="525">
				-300
			</text>
			<path class="y-gridline" d="M 0 420 L 660 420"/>
			<text class="y-axis-label" x="-5" y="420">
				 0
			</text>
			<path class="y-gridline" d="M 0 315 L 660 315"/>
			<text class="y-axis-label" x="-5" y="315">
				300
			</text>
			<path class="y-gridline" d="M 0 210 L 660 210"/>
			<text class="y-axis-label" x="-5" y="210">
				600
			</text>
			<path class="y-gridline" d="M 0 105 L 660 105"/>
			<text class="y-axis-label" x="-5" y="105">
				900
			</text>
			<path class="y-gridline" d="M 0 0 L 660 0"/>
			<text class="y-axis-label" x="-5" y="0">
				1200
			</text>
		</g>
		<g>
			<path class="series-1-line" d="M 40 422.963296 L 43 413.462792337 L 46 417.531508674 L 49 422.219445011 L 53 422.599721348 L 56 426.677397685 L 59 413.811434022 L 62 413.47379036 L 66 408.989906697 L 69 418.936803034 L 72 420.393959371 L 76 419.383195708 L 79 424.080092045 L 82 421.597508382 L 85 426.644404719 L 89 411.463121056 L 92 412.731837393 L 95 407.50301373 L 98 417.889790067 L 102 403.902006404 L 105 398.080982742 L 108 410.648399079 L 112 403.876075416 L 115 405.539591753 L 118 385.11726809 L 121 393.107804427 L 125 363.675220764 L 128 374.573417101 L 131 382.680573438 L 135 355.374869775 L 138 323.321766112 L 141 323.773862449 L 144 278.160498787 L 148 296.309995124 L 151 282.070911461 L 154 255.321707798 L 157 260.440424135 L 161 256.136020472 L 164 247.523956809 L 167 237.718253146 L 171 224.394629483 L 174 209.51854582 L 177 233.994922157 L 180 183.158438494 L 184 187.747674831 L 187 171.677951169 L 190 199.115887506 L 194 178.164083843 L 197 171.11344018 L 200 141.977096517 L 203 172.394512854 L 207 137.451669191 L 210 161.829345528 L 213 153.432741865 L 216 152.691198202 L 220 125.627834539 L 223 142.709270876 L 226 132.571627213 L 230 105.768523551 L 233 111.237239888 L 236 137.284136225 L 239 125.728432562 L 243 118.677928899 L 246 88.733785236 L 249 112.914061573 L 252 113.77887791 L 256 94.0386342472 L 259 100.485530584 L 262 129.673466921 L 266 98.3832232584 L 269 141.580119596 L 272 100.453895933 L 275 59.9200122697 L 279 97.7413286067 L 282 99.0638049438 L 285 118.864601281 L 289 102.597337618 L 292 105.598133955 L 295 128.055290292 L 298 119.505946629 L 302 110.463242966 L 305 95.0215593034 L 308 69.1158556404 L 311 41.7834119775 L 315 102.363548315 L 318 81.4656446517 L 321 78.4534409888 L 325 104.635017326 L 328 40.2472336629 L 331 115.00699 L 334 108.647526337 L 338 98.6444226742 L 341 179.273399011 L 344 135.392115348 L 348 175.097971685 L 351 156.686048022 L 354 141.10968436 L 357 156.674640697 L 361 164.144657034 L 364 170.510773371 L 367 169.293649708 L 370 208.577686045 L 374 215.796402382 L 377 242.220178719 L 380 230.152915056 L 384 235.513971393 L 387 239.29554773 L 390 261.842444067 L 393 235.972720404 L 397 218.906756742 L 400 237.962613079 L 403 245.558209416 L 407 248.262905753 L 410 248.01500209 L 413 278.046438427 L 416 268.160094764 L 420 281.050491101 L 423 277.167907438 L 426 295.900783775 L 429 305.542620112 L 433 319.644576449 L 436 303.440312787 L 439 297.933309124 L 443 314.664885461 L 446 349.416841798 L 449 325.009978135 L 452 343.437654472 L 456 362.753770809 L 459 345.965987146 L 462 356.774443483 L 465 365.97653982 L 469 369.434996157 L 472 381.033192494 L 475 390.513468831 L 479 384.764265169 L 482 387.477781506 L 485 396.769617843 L 488 403.89859418 L 492 412.212110517 L 495 413.211606854 L 498 412.470063191 L 502 416.377219528 L 505 414.522815865 L 508 414.786472202 L 511 415.382068539 L 515 417.359744876 L 518 423.546381213 L 521 421.297177551 L 524 413.133813888 L 528 412.769150225 L 531 411.318646562 L 534 417.038662899 L 538 415.794519236 L 541 414.783755573 L 544 417.71273191 L 547 418.909628247 L 551 416.256524584 L 554 423.403420921 L 557 418.991357258 L 561 420.206173596 L 564 408.246709933 L 567 418.10386627 L 570 425.412322607 L 574 418.101558944 L 577 423.857415281 L 580 421.814571618 L 583 417.402507955 L 587 420.008364292 L 590 425.539940629 L 593 418.417616966 L 597 420.879833303 L 600 411.00244964 L 603 424.027525978 L 606 421.616762315 L 610 417.976518652 L 613 421.757954989 L 616 417.399791326 L 620 423.083827663"/>
			<path class="series-2-line" d="M 40 416.36 L 43 418.797808989 L 46 420.185617978 L 49 420.523426966 L 53 424.011235955 L 56 423.999044944 L 59 419.086853933 L 62 425.374662921 L 66 423.26247191 L 69 422.200280899 L 72 421.488089888 L 76 423.575898876 L 79 422.513707865 L 82 422.151516854 L 85 421.089325843 L 89 422.477134831 L 92 423.86494382 L 95 415.102752809 L 98 427.340561798 L 102 419.978370787 L 105 421.716179775 L 108 421.353988764 L 112 421.341797753 L 115 415.729606742 L 118 415.71741573 L 121 419.555224719 L 125 419.193033708 L 128 419.880842697 L 131 419.168651685 L 135 414.606460674 L 138 413.544269663 L 141 419.482078652 L 144 418.06988764 L 148 420.507696629 L 151 411.395505618 L 154 415.583314607 L 157 416.971123596 L 161 414.158932584 L 164 414.496741573 L 167 409.934550562 L 171 408.172359551 L 174 416.560168539 L 177 414.797977528 L 180 409.185786517 L 184 411.273595506 L 187 414.761404494 L 190 415.099213483 L 194 415.787022472 L 197 404.574831461 L 200 412.612640449 L 203 412.250449438 L 207 411.538258427 L 210 411.526067416 L 213 419.213876404 L 216 420.251685393 L 220 418.839494382 L 223 410.427303371 L 226 416.71511236 L 230 415.652921348 L 233 417.040730337 L 236 415.978539326 L 239 411.416348315 L 243 413.854157303 L 246 411.391966292 L 249 414.879775281 L 252 411.01758427 L 256 413.805393258 L 259 412.743202247 L 262 413.081011236 L 266 415.868820225 L 269 414.806629213 L 272 409.544438202 L 275 407.432247191 L 279 412.32005618 L 282 405.307865169 L 285 409.495674157 L 289 402.833483146 L 292 407.021292135 L 295 406.309101124 L 298 396.846910112 L 302 409.784719101 L 305 397.17252809 L 308 392.610337079 L 311 405.898146067 L 315 395.735955056 L 318 401.673764045 L 321 388.361573034 L 325 393.599382022 L 328 386.237191011 L 331 389.025 L 334 392.862808989 L 338 391.800617978 L 341 393.538426966 L 344 394.926235955 L 348 392.464044944 L 351 406.451853933 L 354 387.539662921 L 357 397.32747191 L 361 400.465280899 L 364 398.353089888 L 367 405.340898876 L 370 400.428707865 L 374 401.816516854 L 377 396.554325843 L 380 389.892134831 L 384 394.42994382 L 387 399.667752809 L 390 398.605561798 L 393 402.093370787 L 397 397.181179775 L 400 394.718988764 L 403 391.906797753 L 407 401.344606742 L 410 407.28241573 L 413 398.870224719 L 416 406.908033708 L 420 397.095842697 L 423 396.733651685 L 426 403.721460674 L 429 409.309269663 L 433 401.597078652 L 436 412.43488764 L 439 406.122696629 L 443 411.360505618 L 446 403.648314607 L 449 410.986123596 L 452 410.973932584 L 456 408.861741573 L 459 401.499550562 L 462 402.537359551 L 465 408.475168539 L 469 409.512977528 L 472 410.200786517 L 475 413.688595506 L 479 417.876404494 L 482 412.264213483 L 485 417.852022472 L 488 419.589831461 L 492 413.977640449 L 495 416.415449438 L 498 417.453258427 L 502 416.741067416 L 505 413.928876404 L 508 421.966685393 L 511 419.154494382 L 515 419.142303371 L 518 417.73011236 L 521 421.917921348 L 524 420.505730337 L 528 417.343539326 L 531 419.781348315 L 534 422.919157303 L 538 420.456966292 L 541 422.544775281 L 544 424.28258427 L 547 423.220393258 L 551 422.158202247 L 554 421.096011236 L 557 421.433820225 L 561 417.571629213 L 564 421.409438202 L 567 420.697247191 L 570 421.73505618 L 574 423.822865169 L 577 421.360674157 L 580 420.648483146 L 583 420.986292135 L 587 418.524101124 L 590 423.761910112 L 593 423.749719101 L 597 416.38752809 L 600 423.025337079 L 603 419.513146067 L 606 421.600955056 L 610 424.388764045 L 613 415.976573034 L 616 421.564382022 L 620 416.652191011"/>
		</g>
		<text class="x-axis-label" x="40.0" y="540">
			0
		</text>
		<path class="x-notch" d="M 56.384180791 525 L 56.384180791 530"/>
		<text class="x-axis-label" x="72.7683615819" y="540">
			10
		</text>
		<path class="x-notch" d="M 89.1525423729 525 L 89.1525423729 530"/>
		<text class="x-axis-label" x="105.536723164" y="540">
			20
		</text>
		<path class="x-notch" d="M 121.920903955 525 L 121.920903955 530"/>
		<text class="x-axis-label" x="138.305084746" y="540">
			30
		</text>
		<path class="x-notch" d="M 154.689265537 525 L 154.689265537 530"/>
		<text class="x-axis-label" x="171.073446328" y="540">
			40
		</text>
		<path class="x-notch" d="M 187.457627119 525 L 187.457627119 530"/>
		<text class="x-axis-label" x="203.84180791" y="540">
			50
		</text>
		<path class="x-notch" d="M 220.225988701 525 L 220.225988701 530"/>
		<text class="x-axis-label" x="236.610169492" y="540">
			60
		</text>
		<path class="x-notch" d="M 252.994350282 525 L 252.994350282 530"/>
		<text class="x-axis-label" x="269.378531073" y="540">
			70
		</text>
		<path class="x-notch" d="M 285.762711864 525 L 285.762711864 530"/>
		<text class="x-axis-label" x="302.146892655" y="540">
			80
		</text>
		<path class="x-notch" d="M 318.531073446 525 L 318.531073446 530"/>
		<text class="x-axis-label" x="334.915254237" y="540">
			90
		</text>
		<path class="x-notch" d="M 351.299435028 525 L 351.299435028 530"/>
		<text class="x-axis-label" x="367.683615819" y="540">
			100
		</text>
		<path class="x-notch" d="M 384.06779661 525 L 384.06779661 530"/>
		<text class="x-axis-label" x="400.451977401" y="540">
			110
		</text>
		<path class="x-notch" d="M 416.836158192 525 L 416.836158192 530"/>
		<text class="x-axis-label" x="433.220338983" y="540">
			120
		</text>
		<path class="x-notch" d="M 449.604519774 525 L 449.604519774 530"/>
		<text class="x-axis-label" x="465.988700565" y="540">
			130
		</text>
		<path class="x-notch" d="M 482.372881356 525 L 482.372881356 530"/>
		<text class="x-axis-label" x="498.757062147" y="540">
			140
		</text>
		<path class="x-notch" d="M 515.141242938 525 L 515.141242938 530"/>
		<text class="x-axis-label" x="531.525423729" y="540">
			150
		</text>
		<path class="x-notch" d="M 547.90960452 525 L 547.90960452 530"/>
		<text class="x-axis-label" x="564.293785311" y="540">
			160
		</text>
		<path class="x-notch" d="M 580.677966102 525 L 580.677966102 530"/>
		<text class="x-axis-label" x="597.062146893" y="540">
			170
		</text>
		<path class="x-notch" d="M 613.446327684 525 L 613.446327684 530"/>
	</g>
</svg>
