<?xml version="1.0" ?>
<svg height="600" version="1.1" width="800" xmlns="http://www.w3.org/2000/svg" xmlns:svg="http://www.w3.org/2000/svg">
	<style type="text/css">

.x-axis-path, .y-gridline, .x-notch { fill:none; stroke: #a7a9ac; stroke-width:1; }



.y-gridline { stroke-width: 1; }

.y-axis-path, .y-axis-path2, .x-notch-left, .x-notch-right { display: none;}



.x-axis-label, .data-point-label {font-size: 12px; font-weight:normal; font-family: sans-serif; fill: #58595b; text-anchor:middle;}

.y-axis-label {font-size: 12px; font-family: helvetica; fill: #a7a9ac; text-anchor:end;}



.series-1-line { fill: none; stroke: #10b80c; stroke-width:2; }



.series-2-line { fill: none; stroke: #e90f0a; stroke-width: 2;}
</style>
	<rect fill="white" height="600" width="800" x="0" y="0"/>
	<g id="grid" transform="translate(70, 30)">
		<g class="x-axis" id="x_axis">
			<path class="x-axis-path" d="M 0 525 L 660 525"/>
			<path class="x-notch-left" d="M 0 525, L 0 535"/>
			<path class="x-notch-right" d="M 660 525, L 660 535"/>
		</g>
		<g class="y-axis" id="y_axis">
			<path class="y-axis-path" d="M 0 525 L 0 0"/>
			<path class="y-axis-path-2" d="M 660 525 L 660 0"/>
			<path class="y-gridline" d="M 0 525 L 660 525"/>
			<text class="y-axis-label" x="-5" y="525">-200</text>
			<path class="y-gridline" d="M 0 394 L 660 394"/>
			<text class="y-axis-label" x="-5" y="394"> 0</text>
			<path class="y-gridline" d="M 0 263 L 660 263"/>
			<text class="y-axis-label" x="-5" y="263">200</text>
			<path class="y-gridline" d="M 0 132 L 660 132"/>
			<text class="y-axis-label" x="-5" y="132">400</text>
			<path class="y-gridline" d="M 0 1 L 660 1"/>
			<text class="y-axis-label" x="-5" y="1">600</text>
		</g>
		<g>
			<path class="series-1-line" d="M 40 400.541904253 L 43 421.119378922 L 46 370.225188658 L 50 382.438289286 L 53 393.32350025 L 57 394.967087125 L 60 395.804772143 L 64 422.378082689 L 67 394.020679071 L 71 380.948054427 L 74 390.340128878 L 78 323.87724559 L 81 347.275007078 L 85 369.985533909 L 88 378.61939519 L 92 346.18590264 L 95 361.76345868 L 99 370.137065417 L 102 367.917868576 L 106 332.356145975 L 109 400.56574749 L 113 373.701110705 L 116 362.429196127 L 120 306.369470706 L 123 368.559946519 L 127 357.620004358 L 130 335.376364457 L 134 332.991551088 L 137 349.279631609 L 141 329.642973311 L 144 281.095510105 L 148 266.458770436 L 151 299.288171404 L 155 285.812226153 L 158 264.919396062 L 162 240.804067583 L 165 228.797599341 L 169 238.853618623 L 172 231.61047397 L 176 164.578283866 L 179 169.041787879 L 183 165.898391661 L 186 175.646467712 L 190 143.236264986 L 193 126.917482451 L 197 139.793418872 L 200 84.8711980442 L 204 120.828459384 L 207 69.2000851352 L 211 96.8158925789 L 214 83.197990303 L 218 32.3755179108 L 221 66.9579402575 L 225 32.2261486968 L 228 50.3153089635 L 232 3.99553593553 L 235 25.3552529572 L 239 13.1591390026 L 242 66.107251367 L 246 0.0 L 249 66.052889849 L 253 27.5766120928 L 256 81.401604826 L 260 50.0823270445 L 263 26.3692101348 L 267 91.1426383665 L 270 5.36620618065 L 274 45.0439245321 L 277 39.0565819915 L 281 80.5357497684 L 284 14.4994769135 L 288 43.7263487111 L 291 61.8158786575 L 295 41.9422556392 L 298 107.35486016 L 302 106.936743064 L 305 80.498716712 L 309 87.1662513993 L 312 187.888077954 L 316 120.453676282 L 319 192.288727112 L 323 162.249650308 L 326 148.08573104 L 330 214.305716136 L 333 266.77989906 L 336 283.82656243 L 340 312.24790205 L 343 272.136900436 L 347 308.899693953 L 350 301.656549299 L 354 291.403841794 L 357 282.573292291 L 361 318.933134879 L 364 295.125749633 L 368 316.533155342 L 371 364.43366039 L 375 337.237051189 L 378 339.377857328 L 382 349.481565299 L 385 316.692810508 L 389 375.660418254 L 392 346.734077499 L 396 375.108467792 L 399 359.452890729 L 403 400.931319147 L 406 410.655366013 L 410 366.704870508 L 413 397.353900307 L 417 372.219734435 L 420 396.446687604 L 424 391.525871144 L 427 393.596068451 L 431 413.438989455 L 434 383.636138011 L 438 401.962632678 L 441 438.369794275 L 445 409.894093136 L 448 376.797395113 L 452 434.959101002 L 455 437.052588133 L 459 411.325455941 L 462 392.897280749 L 466 417.124233917 L 469 418.22217348 L 473 438.563053108 L 476 433.713215161 L 480 422.726323671 L 483 431.644468681 L 487 447.246053905 L 490 413.533099737 L 494 422.143671194 L 497 433.668797807 L 501 431.236665429 L 504 421.884497797 L 508 408.764923825 L 511 404.247058294 L 515 418.639421053 L 518 436.96591572 L 522 434.794407566 L 525 426.224112607 L 529 433.484243935 L 532 437.568456524 L 536 414.566603455 L 539 433.745949306 L 543 398.56351813 L 546 433.738906796 L 550 417.46707359 L 553 416.55136755 L 557 378.193387314 L 560 427.08943993 L 564 448.472446776 L 567 428.693831454 L 571 405.19438944 L 574 400.723842917 L 578 396.300615402 L 581 417.755340119 L 585 435.062627713 L 588 399.880196536 L 592 436.453714021 L 595 387.574278398 L 599 388.648928137 L 602 406.240869139 L 606 422.813603068 L 609 380.356244076 L 613 420.104940939 L 616 388.287704533 L 620 358.84011533"/>
			<path class="series-2-line" d="M 40 415.561105295 L 43 395.943728341 L 46 352.297167589 L 50 412.160937048 L 53 390.695161341 L 57 405.273161333 L 60 401.367173787 L 64 419.641971286 L 67 428.674775016 L 71 432.162382485 L 74 391.288419863 L 78 397.548625463 L 81 406.581429193 L 85 414.690033547 L 88 383.982264071 L 92 380.076276524 L 95 383.563883993 L 99 393.520887101 L 102 397.932693946 L 106 377.391117616 L 109 388.2723201 L 113 380.669535047 L 116 355.506961832 L 120 360.842968055 L 123 373.572569292 L 127 368.742382369 L 130 361.139597316 L 134 391.428986715 L 137 356.100220354 L 141 374.375017853 L 144 397.270812237 L 148 392.440625314 L 151 407.942824683 L 155 366.144662684 L 158 364.087073891 L 162 396.224862044 L 165 377.531684468 L 169 377.322494429 L 172 372.492307506 L 176 323.300550492 L 179 330.484955468 L 183 334.896762314 L 186 346.702164175 L 190 303.055603423 L 193 344.435385344 L 197 336.832600291 L 200 344.941204644 L 204 341.035217098 L 207 339.901827682 L 211 339.692637644 L 214 320.07526069 L 218 337.425858813 L 221 295.627696814 L 225 325.917086213 L 228 297.981914867 L 232 333.816500528 L 235 336.37990862 L 239 311.217335405 L 242 287.903160944 L 246 310.798955328 L 249 297.650974013 L 253 299.290182728 L 256 283.369603282 L 260 321.976787073 L 263 291.269017597 L 267 297.529223197 L 270 289.002238766 L 274 281.399453712 L 277 260.857877382 L 281 296.692463042 L 284 308.497864903 L 288 273.169098543 L 291 281.277702896 L 295 300.476699772 L 298 242.967148366 L 302 254.772550227 L 305 252.714961435 L 309 276.534955196 L 312 225.494799428 L 316 239.148600043 L 319 225.076419351 L 323 316.362967624 L 326 201.553054851 L 330 306.702593778 L 333 285.236818071 L 336 275.785634264 L 340 258.016656064 L 343 298.472238609 L 347 277.006462902 L 350 272.176275978 L 354 268.270288432 L 357 294.862880324 L 361 264.155110848 L 364 284.278307101 L 368 315.491895876 L 371 286.632525154 L 375 258.697353809 L 378 231.68638184 L 382 260.127372485 L 385 275.629571854 L 389 286.510774338 L 392 276.135391154 L 396 301.803783668 L 399 311.760786775 L 403 275.507821038 L 406 254.966244707 L 410 245.5150609 L 413 240.684873977 L 417 287.60985216 L 420 275.386070222 L 424 268.707484545 L 427 288.830680798 L 431 275.682699483 L 434 293.957496982 L 438 301.141901958 L 441 263.040537467 L 445 290.557328735 L 448 318.074120004 L 452 310.47133495 L 455 290.853957997 L 459 286.023771073 L 462 295.980774181 L 466 283.756992242 L 469 239.186232113 L 473 256.536830235 L 476 238.767852036 L 480 277.375035827 L 483 238.349471959 L 487 274.184057619 L 490 289.686256987 L 494 298.719060718 L 497 285.571079403 L 501 323.254063817 L 504 323.044873778 L 508 369.969851961 L 511 372.533260053 L 515 344.598088708 L 518 351.782493684 L 522 384.844481214 L 525 370.772300522 L 529 410.30368369 L 532 404.54929739 L 536 407.112705482 L 539 389.343727282 L 543 381.740942228 L 546 391.697945336 L 550 389.640356543 L 553 406.990954666 L 557 390.146175843 L 560 386.240188297 L 564 349.063023182 L 567 389.518605727 L 571 397.627210081 L 574 392.797023157 L 578 380.573241219 L 581 404.39323498 L 585 390.321054288 L 588 382.718269234 L 592 390.826873588 L 595 393.39028168 L 599 388.560094757 L 602 402.213895371 L 606 394.611110318 L 609 404.568113425 L 613 385.874935848 L 616 393.983540202 L 620 392.850150786"/>
		</g>
		<text class="x-axis-label" x="40.0" y="540">0</text>
		<path class="x-notch" d="M 57.4698795181 525 L 57.4698795181 530"/>
		<text class="x-axis-label" x="74.9397590361" y="540">10</text>
		<path class="x-notch" d="M 92.4096385542 525 L 92.4096385542 530"/>
		<text class="x-axis-label" x="109.879518072" y="540">20</text>
		<path class="x-notch" d="M 127.34939759 525 L 127.34939759 530"/>
		<text class="x-axis-label" x="144.819277108" y="540">30</text>
		<path class="x-notch" d="M 162.289156627 525 L 162.289156627 530"/>
		<text class="x-axis-label" x="179.759036145" y="540">40</text>
		<path class="x-notch" d="M 197.228915663 525 L 197.228915663 530"/>
		<text class="x-axis-label" x="214.698795181" y="540">50</text>
		<path class="x-notch" d="M 232.168674699 525 L 232.168674699 530"/>
		<text class="x-axis-label" x="249.638554217" y="540">60</text>
		<path class="x-notch" d="M 267.108433735 525 L 267.108433735 530"/>
		<text class="x-axis-label" x="284.578313253" y="540">70</text>
		<path class="x-notch" d="M 302.048192771 525 L 302.048192771 530"/>
		<text class="x-axis-label" x="319.518072289" y="540">80</text>
		<path class="x-notch" d="M 336.987951807 525 L 336.987951807 530"/>
		<text class="x-axis-label" x="354.457831325" y="540">90</text>
		<path class="x-notch" d="M 371.927710843 525 L 371.927710843 530"/>
		<text class="x-axis-label" x="389.397590361" y="540">100</text>
		<path class="x-notch" d="M 406.86746988 525 L 406.86746988 530"/>
		<text class="x-axis-label" x="424.337349398" y="540">110</text>
		<path class="x-notch" d="M 441.807228916 525 L 441.807228916 530"/>
		<text class="x-axis-label" x="459.277108434" y="540">120</text>
		<path class="x-notch" d="M 476.746987952 525 L 476.746987952 530"/>
		<text class="x-axis-label" x="494.21686747" y="540">130</text>
		<path class="x-notch" d="M 511.686746988 525 L 511.686746988 530"/>
		<text class="x-axis-label" x="529.156626506" y="540">140</text>
		<path class="x-notch" d="M 546.626506024 525 L 546.626506024 530"/>
		<text class="x-axis-label" x="564.096385542" y="540">150</text>
		<path class="x-notch" d="M 581.56626506 525 L 581.56626506 530"/>
		<text class="x-axis-label" x="599.036144578" y="540">160</text>
		<path class="x-notch" d="M 616.506024096 525 L 616.506024096 530"/>
	</g>
</svg>
