<?xml version="1.0" ?>
<svg height="600" version="1.1" width="800" xmlns="http://www.w3.org/2000/svg" xmlns:svg="http://www.w3.org/2000/svg">
	<style type="text/css">
		

.x-axis-path, .y-gridline, .x-notch { fill:none; stroke: #a7a9ac; stroke-width:1; }



.y-gridline { stroke-width: 1; }

.y-axis-path, .y-axis-path2, .x-notch-left, .x-notch-right { display: none;}



.x-axis-label, .data-point-label {font-size: 12px; font-weight:normal; font-family: sans-serif; fill: #58595b; text-anchor:middle;}

.y-axis-label {font-size: 12px; font-family: helvetica; fill: #a7a9ac; text-anchor:end;}



.series-1-line { fill: none; stroke: #10b80c; stroke-width:2; }



.series-2-line { fill: none; stroke: #e90f0a; stroke-width: 2;}

	</style>
	<rect fill="white" height="600" width="800" x="0" y="0"/>
	<g id="grid" transform="translate(70, 30)">
		<g class="x-axis" id="x_axis">
			<path class="x-axis-path" d="M 0 525 L 660 525"/>
			<path class="x-notch-left" d="M 0 525, L 0 535"/>
			<path class="x-notch-right" d="M 660 525, L 660 535"/>
		</g>
		<g class="y-axis" id="y_axis">
			<path class="y-axis-path" d="M 0 525 L 0 0"/>
			<path class="y-axis-path-2" d="M 660 525 L 660 0"/>
			<path class="y-gridline" d="M 0 525 L 660 525"/>
			<text class="y-axis-label" x="-5" y="525">
				-200
			</text>
			<path class="y-gridline" d="M 0 420 L 660 420"/>
			<text class="y-axis-label" x="-5" y="420">
				 0
			</text>
			<path class="y-gridline" d="M 0 315 L 660 315"/>
			<text class="y-axis-label" x="-5" y="315">
				200
			</text>
			<path class="y-gridline" d="M 0 210 L 660 210"/>
			<text class="y-axis-label" x="-5" y="210">
				400
			</text>
			<path class="y-gridline" d="M 0 105 L 660 105"/>
			<text class="y-axis-label" x="-5" y="105">
				600
			</text>
			<path class="y-gridline" d="M 0 0 L 660 0"/>
			<text class="y-axis-label" x="-5" y="0">
				800
			</text>
		</g>
		<g>
			<path class="series-1-line" d="M 40 413.309736 L 43 405.046172594 L 47 421.955519187 L 51 417.259225781 L 55 445.005412374 L 58 407.799858968 L 62 420.428565561 L 66 419.339862155 L 70 422.437928748 L 73 410.876315342 L 77 406.906831935 L 81 417.570358529 L 85 396.491545123 L 88 435.908691716 L 92 401.83948831 L 96 403.618124903 L 100 414.497111497 L 104 422.05053809 L 107 422.846794684 L 111 443.309971277 L 115 421.584987871 L 119 415.179294465 L 122 415.032861058 L 126 412.100147652 L 130 421.525094245 L 134 439.040290839 L 137 406.882927432 L 141 415.876954026 L 145 407.976690619 L 149 423.971067213 L 152 408.384173806 L 156 406.1516004 L 160 406.234276994 L 164 402.237913587 L 168 374.899210181 L 171 360.403056774 L 175 330.991653368 L 179 331.208729961 L 183 294.972116555 L 186 259.381463148 L 190 245.517829742 L 194 223.442356335 L 198 255.092232929 L 201 167.230479523 L 205 220.176876116 L 209 183.88650271 L 213 73.3420193032 L 217 166.564525897 L 220 128.34887249 L 224 214.316299084 L 228 137.439225677 L 232 159.962082271 L 235 169.561958865 L 239 161.567195458 L 243 179.231072052 L 247 200.932618645 L 250 235.975045239 L 254 184.634181832 L 258 210.818808426 L 262 275.004825019 L 265 212.558741613 L 269 196.944968206 L 273 157.3162248 L 277 250.336291394 L 281 214.638327987 L 284 200.222814581 L 288 268.231881174 L 292 256.562327768 L 296 320.413394361 L 299 288.282490955 L 303 339.114817548 L 307 404.244364142 L 311 371.844030735 L 314 370.365357329 L 318 343.443083923 L 322 359.680010516 L 326 393.90133711 L 330 385.758523703 L 333 392.329990297 L 337 410.02053689 L 341 417.560313484 L 345 447.958170077 L 348 428.090846671 L 352 435.415793265 L 356 416.989279858 L 360 443.833726452 L 363 428.489383045 L 367 428.558619639 L 371 444.942966232 L 375 454.220282826 L 378 452.270159419 L 382 430.572056013 L 386 424.408492606 L 390 437.8589292 L 394 436.231575794 L 397 439.248792387 L 401 430.285508981 L 405 434.635595574 L 409 444.598982168 L 412 440.091478761 L 416 449.233135355 L 420 442.464141948 L 424 434.308518542 L 427 450.571695135 L 431 431.135081729 L 435 434.193038323 L 439 446.094934916 L 442 435.71793151 L 446 458.133268103 L 450 463.304454697 L 454 452.20043129 L 458 470.173427884 L 461 438.257984477 L 465 459.757931071 L 469 458.009617665 L 473 439.340344258 L 476 438.184440852 L 480 445.940307445 L 484 451.326534039 L 488 437.625020632 L 491 445.609367226 L 495 452.328463819 L 499 455.588230413 L 503 470.693677006 L 507 465.2166036 L 510 455.606730194 L 514 459.714686787 L 518 455.004953381 L 522 444.130039974 L 525 462.277756568 L 529 450.339403161 L 533 432.747219755 L 537 432.008586348 L 540 453.710552942 L 544 447.169829535 L 548 457.146656129 L 552 446.621602723 L 555 443.540629316 L 559 450.01780591 L 563 429.558072503 L 567 450.936429097 L 571 418.61736569 L 574 425.148092284 L 578 418.997758877 L 582 400.140115471 L 586 431.614852065 L 589 422.315148658 L 593 405.584175252 L 597 423.758981845 L 601 405.816728439 L 604 429.376145032 L 608 423.252901626 L 612 432.583768219 L 616 413.941374813 L 620 396.981711406"/>
			<path class="series-2-line" d="M 40 431.76 L 43 429.811741935 L 47 411.588483871 L 51 405.965225806 L 55 417.141967742 L 58 446.168709677 L 62 440.545451613 L 66 424.947193548 L 70 431.923935484 L 73 432.600677419 L 77 415.952419355 L 81 430.27916129 L 85 441.455903226 L 88 433.732645161 L 92 444.384387097 L 96 431.936129032 L 100 453.612870968 L 104 420.689612903 L 107 438.691354839 L 111 418.893096774 L 115 428.49483871 L 119 443.871580645 L 122 424.598322581 L 126 430.525064516 L 130 433.301806452 L 134 422.953548387 L 137 463.005290323 L 141 451.082032258 L 145 433.383774194 L 149 455.585516129 L 152 428.962258065 L 156 448.539 L 160 454.990741935 L 164 442.542483871 L 168 426.944225806 L 171 434.970967742 L 175 456.122709677 L 179 441.574451613 L 183 442.251193548 L 186 424.027935484 L 190 415.254677419 L 194 377.081419355 L 198 373.03316129 L 201 360.059903226 L 205 391.711645161 L 209 400.788387097 L 213 384.140129032 L 217 336.516870968 L 220 318.293612903 L 224 337.870354839 L 228 331.197096774 L 232 317.69883871 L 235 313.650580645 L 239 269.702322581 L 243 318.154064516 L 247 289.430806452 L 250 309.007548387 L 254 270.309290323 L 258 279.386032258 L 262 236.487774194 L 265 251.339516129 L 269 228.916258065 L 273 246.918 L 277 148.894741935 L 281 167.946483871 L 284 163.373225806 L 288 117.849967742 L 292 94.3767096774 L 296 206.353451613 L 299 201.255193548 L 303 173.581935484 L 307 249.858677419 L 311 225.335419355 L 314 250.16216129 L 318 148.988903226 L 322 194.815645161 L 326 219.642387097 L 330 178.319129032 L 333 216.795870968 L 337 240.572612903 L 341 189.274354839 L 345 175.776096774 L 348 182.22783871 L 352 185.004580645 L 356 232.931322581 L 360 261.958064516 L 363 258.959806452 L 367 267.511548387 L 371 249.288290323 L 375 295.640032258 L 378 291.591774194 L 382 296.993516129 L 386 295.045258065 L 390 345.597 L 394 311.623741935 L 397 310.725483871 L 401 336.077225806 L 405 352.503967742 L 409 353.180709677 L 412 379.582451613 L 416 324.084193548 L 420 355.210935484 L 424 377.412677419 L 427 357.614419355 L 431 358.29116129 L 435 392.042903226 L 439 397.444645161 L 442 397.596387097 L 446 400.898129032 L 450 412.074870968 L 454 402.776612903 L 458 402.928354839 L 461 405.180096774 L 465 407.95683871 L 469 392.883580645 L 473 396.710322581 L 476 391.612064516 L 480 409.088806452 L 484 386.665548387 L 488 434.592290323 L 491 416.369032258 L 495 411.270774194 L 499 433.997516129 L 503 410.524258065 L 507 403.851 L 510 386.677741935 L 514 420.429483871 L 518 416.906225806 L 522 433.332967742 L 525 406.184709677 L 529 424.711451613 L 533 444.813193548 L 537 436.039935484 L 540 448.266677419 L 544 423.218419355 L 548 421.79516129 L 552 424.571903226 L 555 412.648645161 L 559 445.350387097 L 563 441.827129032 L 567 402.078870968 L 571 426.380612903 L 574 430.207354839 L 578 405.684096774 L 582 418.43583871 L 586 400.737580645 L 589 437.639322581 L 593 425.716064516 L 597 414.842806452 L 601 428.119548387 L 604 416.721290323 L 608 408.473032258 L 612 425.949774194 L 616 425.576516129 L 620 428.878258065"/>
		</g>
		<text class="x-axis-label" x="40.0" y="540">
			0
		</text>
		<path class="x-notch" d="M 58.8311688312 525 L 58.8311688312 530"/>
		<text class="x-axis-label" x="77.6623376623" y="540">
			10
		</text>
		<path class="x-notch" d="M 96.4935064935 525 L 96.4935064935 530"/>
		<text class="x-axis-label" x="115.324675325" y="540">
			20
		</text>
		<path class="x-notch" d="M 134.155844156 525 L 134.155844156 530"/>
		<text class="x-axis-label" x="152.987012987" y="540">
			30
		</text>
		<path class="x-notch" d="M 171.818181818 525 L 171.818181818 530"/>
		<text class="x-axis-label" x="190.649350649" y="540">
			40
		</text>
		<path class="x-notch" d="M 209.480519481 525 L 209.480519481 530"/>
		<text class="x-axis-label" x="228.311688312" y="540">
			50
		</text>
		<path class="x-notch" d="M 247.142857143 525 L 247.142857143 530"/>
		<text class="x-axis-label" x="265.974025974" y="540">
			60
		</text>
		<path class="x-notch" d="M 284.805194805 525 L 284.805194805 530"/>
		<text class="x-axis-label" x="303.636363636" y="540">
			70
		</text>
		<path class="x-notch" d="M 322.467532468 525 L 322.467532468 530"/>
		<text class="x-axis-label" x="341.298701299" y="540">
			80
		</text>
		<path class="x-notch" d="M 360.12987013 525 L 360.12987013 530"/>
		<text class="x-axis-label" x="378.961038961" y="540">
			90
		</text>
		<path class="x-notch" d="M 397.792207792 525 L 397.792207792 530"/>
		<text class="x-axis-label" x="416.623376623" y="540">
			100
		</text>
		<path class="x-notch" d="M 435.454545455 525 L 435.454545455 530"/>
		<text class="x-axis-label" x="454.285714286" y="540">
			110
		</text>
		<path class="x-notch" d="M 473.116883117 525 L 473.116883117 530"/>
		<text class="x-axis-label" x="491.948051948" y="540">
			120
		</text>
		<path class="x-notch" d="M 510.779220779 525 L 510.779220779 530"/>
		<text class="x-axis-label" x="529.61038961" y="540">
			130
		</text>
		<path class="x-notch" d="M 548.441558442 525 L 548.441558442 530"/>
		<text class="x-axis-label" x="567.272727273" y="540">
			140
		</text>
		<path class="x-notch" d="M 586.103896104 525 L 586.103896104 530"/>
		<text class="x-axis-label" x="604.935064935" y="540">
			150
		</text>
		<path class="x-notch" d="M 623.766233766 525 L 623.766233766 530"/>
	</g>
</svg>
