<?xml version="1.0" ?>
<svg height="600" version="1.1" width="800" xmlns="http://www.w3.org/2000/svg" xmlns:svg="http://www.w3.org/2000/svg">
	<style type="text/css">
		

.x-axis-path, .y-gridline, .x-notch { fill:none; stroke: #a7a9ac; stroke-width:1; }



.y-gridline { stroke-width: 1; }

.y-axis-path, .y-axis-path2, .x-notch-left, .x-notch-right { display: none;}



.x-axis-label, .data-point-label {font-size: 12px; font-weight:normal; font-family: sans-serif; fill: #58595b; text-anchor:middle;}

.y-axis-label {font-size: 12px; font-family: helvetica; fill: #a7a9ac; text-anchor:end;}



.series-1-line { fill: none; stroke: #10b80c; stroke-width:2; }



.series-2-line { fill: none; stroke: #e90f0a; stroke-width: 2;}

	</style>
	<rect fill="white" height="600" width="800" x="0" y="0"/>
	<g id="grid" transform="translate(70, 30)">
		<g class="x-axis" id="x_axis">
			<path class="x-axis-path" d="M 0 525 L 660 525"/>
			<path class="x-notch-left" d="M 0 525, L 0 535"/>
			<path class="x-notch-right" d="M 660 525, L 660 535"/>
		</g>
		<g class="y-axis" id="y_axis">
			<path class="y-axis-path" d="M 0 525 L 0 0"/>
			<path class="y-axis-path-2" d="M 660 525 L 660 0"/>
			<path class="y-gridline" d="M 0 525 L 660 525"/>
			<text class="y-axis-label" x="-5" y="525">
				-200
			</text>
			<path class="y-gridline" d="M 0 420 L 660 420"/>
			<text class="y-axis-label" x="-5" y="420">
				 0
			</text>
			<path class="y-gridline" d="M 0 315 L 660 315"/>
			<text class="y-axis-label" x="-5" y="315">
				200
			</text>
			<path class="y-gridline" d="M 0 210 L 660 210"/>
			<text class="y-axis-label" x="-5" y="210">
				400
			</text>
			<path class="y-gridline" d="M 0 105 L 660 105"/>
			<text class="y-axis-label" x="-5" y="105">
				600
			</text>
			<path class="y-gridline" d="M 0 0 L 660 0"/>
			<text class="y-axis-label" x="-5" y="0">
				800
			</text>
		</g>
		<g>
			<path class="series-1-line" d="M 40 419.86539 L 47 440.21555962 L 54 431.461829241 L 62 402.488878861 L 69 403.642738481 L 77 415.714078101 L 84 417.043077722 L 92 432.533637342 L 99 419.714516962 L 106 423.358976582 L 114 415.830176203 L 121 415.207225823 L 129 424.976545443 L 136 411.807565063 L 144 407.172984684 L 151 406.280814304 L 158 410.517473924 L 166 411.833033544 L 173 419.367743165 L 181 394.850572785 L 188 419.131522405 L 196 371.137402025 L 203 381.741261646 L 211 343.951041266 L 218 315.233870886 L 225 266.526380506 L 233 270.749390127 L 240 240.470869747 L 248 190.188169367 L 255 208.182558987 L 263 233.688438608 L 270 181.817298228 L 277 159.265517848 L 285 165.158027468 L 292 120.919547089 L 300 126.246526709 L 307 109.308256329 L 315 87.1332159494 L 322 102.39487557 L 330 157.73125519 L 337 97.7837248101 L 344 116.37031443 L 352 126.328004051 L 359 118.099483671 L 367 119.495473291 L 374 102.678372911 L 382 116.526312532 L 389 87.4590721519 L 396 102.478391772 L 404 128.320691392 L 411 131.372741013 L 419 147.993730633 L 426 102.314860253 L 434 157.598109873 L 441 198.558309494 L 448 296.003259114 L 456 386.380238734 L 463 356.855408354 L 471 355.289977975 L 478 375.263407595 L 486 355.686697215 L 493 383.857896835 L 501 398.271366456 L 508 337.501476076 L 515 363.223445696 L 523 390.398615316 L 530 396.156304937 L 538 407.864344557 L 545 429.237844177 L 553 427.430283797 L 560 417.195843418 L 567 423.317043038 L 575 409.192142658 L 582 417.709652278 L 590 424.961701899 L 597 426.344461519 L 605 422.504311139 L 612 403.344660759 L 620 426.33327038"/>
			<path class="series-2-line" d="M 40 420.525 L 47 424.246518987 L 54 422.718037975 L 62 422.239556962 L 69 410.736075949 L 77 416.032594937 L 84 418.179113924 L 92 422.425632911 L 99 420.372151899 L 106 429.868670886 L 114 421.515189873 L 121 421.036708861 L 129 416.883227848 L 136 428.479746835 L 144 419.076265823 L 151 419.64778481 L 158 418.644303797 L 166 422.890822785 L 173 419.262341772 L 181 419.833860759 L 188 424.605379747 L 196 422.551898734 L 203 411.048417722 L 211 414.244936709 L 218 414.816455696 L 225 421.687974684 L 233 402.309493671 L 240 421.256012658 L 248 407.652531646 L 255 410.324050633 L 263 408.27056962 L 270 396.767088608 L 277 397.863607595 L 285 404.735126582 L 292 390.08164557 L 300 382.778164557 L 307 388.599683544 L 315 371.846202532 L 322 370.842721519 L 330 342.539240506 L 337 383.010759494 L 344 375.182278481 L 352 362.103797468 L 359 381.050316456 L 367 352.221835443 L 374 359.61835443 L 382 333.414873418 L 389 327.161392405 L 396 323.007911392 L 404 309.40443038 L 411 308.925949367 L 419 280.097468354 L 426 264.918987342 L 434 306.440506329 L 441 350.587025316 L 448 407.858544304 L 456 400.555063291 L 463 404.276582278 L 471 386.998101266 L 478 408.569620253 L 486 416.491139241 L 493 408.137658228 L 501 396.109177215 L 508 318.980696203 L 515 385.70221519 L 523 389.423734177 L 530 376.345253165 L 538 397.391772152 L 545 425.788291139 L 553 425.834810127 L 560 430.081329114 L 567 421.727848101 L 575 418.624367089 L 582 425.495886076 L 590 425.017405063 L 597 418.763924051 L 605 428.785443038 L 612 412.556962025 L 620 414.178481013"/>
		</g>
		<text class="x-axis-label" x="40.0" y="540">
			0
		</text>
		<path class="x-notch" d="M 77.1794871795 525 L 77.1794871795 530"/>
		<text class="x-axis-label" x="114.358974359" y="540">
			10
		</text>
		<path class="x-notch" d="M 151.538461538 525 L 151.538461538 530"/>
		<text class="x-axis-label" x="188.717948718" y="540">
			20
		</text>
		<path class="x-notch" d="M 225.897435897 525 L 225.897435897 530"/>
		<text class="x-axis-label" x="263.076923077" y="540">
			30
		</text>
		<path class="x-notch" d="M 300.256410256 525 L 300.256410256 530"/>
		<text class="x-axis-label" x="337.435897436" y="540">
			40
		</text>
		<path class="x-notch" d="M 374.615384615 525 L 374.615384615 530"/>
		<text class="x-axis-label" x="411.794871795" y="540">
			50
		</text>
		<path class="x-notch" d="M 448.974358974 525 L 448.974358974 530"/>
		<text class="x-axis-label" x="486.153846154" y="540">
			60
		</text>
		<path class="x-notch" d="M 523.333333333 525 L 523.333333333 530"/>
		<text class="x-axis-label" x="560.512820513" y="540">
			70
		</text>
		<path class="x-notch" d="M 597.692307692 525 L 597.692307692 530"/>
	</g>
</svg>
