<?xml version="1.0" ?>
<svg height="600" version="1.1" width="800" xmlns="http://www.w3.org/2000/svg" xmlns:svg="http://www.w3.org/2000/svg">
	<style type="text/css">
		

.x-axis-path, .y-gridline, .x-notch { fill:none; stroke: #a7a9ac; stroke-width:1; }



.y-gridline { stroke-width: 1; }

.y-axis-path, .y-axis-path2, .x-notch-left, .x-notch-right { display: none;}



.x-axis-label, .data-point-label {font-size: 12px; font-weight:normal; font-family: sans-serif; fill: #58595b; text-anchor:middle;}

.y-axis-label {font-size: 12px; font-family: helvetica; fill: #a7a9ac; text-anchor:end;}



.series-1-line { fill: none; stroke: #10b80c; stroke-width:2; }



.series-2-line { fill: none; stroke: #e90f0a; stroke-width: 2;}

	</style>
	<rect fill="white" height="600" width="800" x="0" y="0"/>
	<g id="grid" transform="translate(70, 30)">
		<g class="x-axis" id="x_axis">
			<path class="x-axis-path" d="M 0 525 L 660 525"/>
			<path class="x-notch-left" d="M 0 525, L 0 535"/>
			<path class="x-notch-right" d="M 660 525, L 660 535"/>
		</g>
		<g class="y-axis" id="y_axis">
			<path class="y-axis-path" d="M 0 525 L 0 0"/>
			<path class="y-axis-path-2" d="M 660 525 L 660 0"/>
			<path class="y-gridline" d="M 0 525 L 660 525"/>
			<text class="y-axis-label" x="-5" y="525">
				-200
			</text>
			<path class="y-gridline" d="M 0 394 L 660 394"/>
			<text class="y-axis-label" x="-5" y="394">
				 0
			</text>
			<path class="y-gridline" d="M 0 263 L 660 263"/>
			<text class="y-axis-label" x="-5" y="263">
				200
			</text>
			<path class="y-gridline" d="M 0 132 L 660 132"/>
			<text class="y-axis-label" x="-5" y="132">
				400
			</text>
			<path class="y-gridline" d="M 0 1 L 660 1"/>
			<text class="y-axis-label" x="-5" y="1">
				600
			</text>
		</g>
		<g>
			<path class="series-1-line" d="M 40 375.993412614 L 46 439.71308414 L 52 390.229332518 L 58 377.637675429 L 64 382.412284108 L 70 397.497313456 L 76 373.476259574 L 82 348.908105568 L 88 341.602239875 L 94 296.882361564 L 101 360.914371616 L 107 271.360714497 L 113 264.158420097 L 119 280.544792278 L 125 208.565355836 L 131 237.892047201 L 137 168.437719497 L 143 210.287601742 L 149 126.826373616 L 156 207.182844079 L 162 191.232633966 L 168 137.764839943 L 174 46.9354281922 L 180 85.7902723434 L 186 52.3966256956 L 192 156.055418576 L 198 95.2194409274 L 204 84.6581873417 L 210 0.0 L 217 22.4532129739 L 223 44.3853201879 L 229 38.6675476529 L 235 42.8426613192 L 241 93.1277145881 L 247 89.8306671736 L 253 37.4306728724 L 259 100.369701163 L 265 85.3829071557 L 272 83.8831262945 L 278 52.4414938967 L 284 31.6482088955 L 290 99.9246111473 L 296 182.391092851 L 302 201.823273368 L 308 148.564246579 L 314 255.764365353 L 320 212.945324889 L 326 227.248492515 L 333 319.061572621 L 339 262.130841958 L 345 260.422293863 L 351 273.945630579 L 357 291.399802482 L 363 341.3717049 L 369 338.90972642 L 375 406.066746384 L 381 404.593366049 L 388 393.694591897 L 394 382.665033602 L 400 403.165826165 L 406 396.742550352 L 412 349.706736699 L 418 387.547800666 L 424 406.694043182 L 430 373.533939645 L 436 421.294290339 L 442 398.444607471 L 449 416.08073992 L 455 404.400916371 L 461 415.423920227 L 467 402.337964066 L 473 420.781140276 L 479 403.607570421 L 485 394.817589025 L 491 404.825188049 L 497 392.103559142 L 504 412.759911724 L 510 405.323668051 L 516 399.865839153 L 522 396.022910101 L 528 402.411606302 L 534 391.356459805 L 540 398.473404352 L 546 396.010613548 L 552 400.21212774 L 558 375.696368623 L 565 386.563406297 L 571 390.400593235 L 577 365.051795994 L 583 394.351680672 L 589 373.923535249 L 595 376.927684062 L 601 405.264964959 L 607 394.209412301 L 613 412.575011581 L 620 383.919243882"/>
			<path class="series-2-line" d="M 40 391.719190335 L 46 347.534272137 L 52 420.120909669 L 58 400.305707449 L 64 403.844816376 L 70 422.614997789 L 76 443.415988866 L 82 430.708620474 L 88 457.602040546 L 94 460.12574464 L 101 406.80218295 L 107 433.695603022 L 113 404.741757311 L 119 378.834126097 L 125 396.588902677 L 131 411.29746476 L 137 391.482262541 L 143 392.990561802 L 149 419.883981875 L 156 354.375562196 L 162 343.699003468 L 168 364.499994546 L 174 392.40881945 L 180 306.592303123 L 186 363.947868168 L 192 306.562687149 L 198 328.379083059 L 204 268.963092375 L 210 363.88863622 L 217 381.6434128 L 223 361.82821058 L 229 378.567582328 L 235 317.120781979 L 241 269.889649284 L 247 225.704731086 L 253 277.983271969 L 259 276.445356734 L 265 273.892036665 L 272 305.8624809 L 278 296.201327005 L 284 248.970194309 L 290 246.416874241 L 296 287.525961967 L 302 222.017542289 L 308 289.527155658 L 314 273.773572768 L 320 296.605373511 L 326 239.220192491 L 333 247.83632558 L 339 254.421649004 L 345 239.683470946 L 351 304.146869818 L 357 309.71678841 L 363 192.422722277 L 369 335.072293246 L 375 348.765450497 L 381 416.275063866 L 388 449.260912933 L 394 423.353281719 L 400 468.523988775 L 406 238.519986242 L 412 364.923079893 L 418 437.509717424 L 424 416.679110372 L 430 397.879312985 L 436 427.818947555 L 442 424.250222654 L 449 401.388805937 L 455 437.420869501 L 461 416.590262449 L 467 434.34503903 L 473 404.375788486 L 479 426.192184396 L 485 446.993175474 L 491 426.162568422 L 497 426.655462851 L 504 407.855665464 L 510 415.45639372 L 516 391.579572171 L 522 432.688659897 L 528 422.012101169 L 534 439.76687775 L 540 354.965766255 L 546 418.413760294 L 552 392.50612908 L 558 411.276310493 L 565 414.815419419 L 571 406.169670357 L 577 436.109304926 L 583 375.677909409 L 589 390.386471493 L 595 392.910175587 L 601 403.55711834 L 607 381.711106456 L 613 403.527502366 L 620 394.881753303"/>
		</g>
		<text class="x-axis-label" x="40.0" y="540">
			0
		</text>
		<path class="x-notch" d="M 70.5263157895 525 L 70.5263157895 530"/>
		<text class="x-axis-label" x="101.052631579" y="540">
			10
		</text>
		<path class="x-notch" d="M 131.578947368 525 L 131.578947368 530"/>
		<text class="x-axis-label" x="162.105263158" y="540">
			20
		</text>
		<path class="x-notch" d="M 192.631578947 525 L 192.631578947 530"/>
		<text class="x-axis-label" x="223.157894737" y="540">
			30
		</text>
		<path class="x-notch" d="M 253.684210526 525 L 253.684210526 530"/>
		<text class="x-axis-label" x="284.210526316" y="540">
			40
		</text>
		<path class="x-notch" d="M 314.736842105 525 L 314.736842105 530"/>
		<text class="x-axis-label" x="345.263157895" y="540">
			50
		</text>
		<path class="x-notch" d="M 375.789473684 525 L 375.789473684 530"/>
		<text class="x-axis-label" x="406.315789474" y="540">
			60
		</text>
		<path class="x-notch" d="M 436.842105263 525 L 436.842105263 530"/>
		<text class="x-axis-label" x="467.368421053" y="540">
			70
		</text>
		<path class="x-notch" d="M 497.894736842 525 L 497.894736842 530"/>
		<text class="x-axis-label" x="528.421052632" y="540">
			80
		</text>
		<path class="x-notch" d="M 558.947368421 525 L 558.947368421 530"/>
		<text class="x-axis-label" x="589.473684211" y="540">
			90
		</text>
		<path class="x-notch" d="M 620.0 525 L 620.0 530"/>
	</g>
</svg>
