<?xml version="1.0" ?>
<svg height="600" version="1.1" width="800" xmlns="http://www.w3.org/2000/svg" xmlns:svg="http://www.w3.org/2000/svg">
	<style type="text/css">
		

.x-axis-path, .y-gridline, .x-notch { fill:none; stroke: #a7a9ac; stroke-width:1; }



.y-gridline { stroke-width: 1; }

.y-axis-path, .y-axis-path2, .x-notch-left, .x-notch-right { display: none;}



.x-axis-label, .data-point-label {font-size: 12px; font-weight:normal; font-family: sans-serif; fill: #58595b; text-anchor:middle;}

.y-axis-label {font-size: 12px; font-family: helvetica; fill: #a7a9ac; text-anchor:end;}



.series-1-line { fill: none; stroke: #10b80c; stroke-width:2; }



.series-2-line { fill: none; stroke: #e90f0a; stroke-width: 2;}

	</style>
	<rect fill="white" height="600" width="800" x="0" y="0"/>
	<g id="grid" transform="translate(70, 30)">
		<g class="x-axis" id="x_axis">
			<path class="x-axis-path" d="M 0 525 L 660 525"/>
			<path class="x-notch-left" d="M 0 525, L 0 535"/>
			<path class="x-notch-right" d="M 660 525, L 660 535"/>
		</g>
		<g class="y-axis" id="y_axis">
			<path class="y-axis-path" d="M 0 525 L 0 0"/>
			<path class="y-axis-path-2" d="M 660 525 L 660 0"/>
			<path class="y-gridline" d="M 0 525 L 660 525"/>
			<text class="y-axis-label" x="-5" y="525">
				-200
			</text>
			<path class="y-gridline" d="M 0 394 L 660 394"/>
			<text class="y-axis-label" x="-5" y="394">
				 0
			</text>
			<path class="y-gridline" d="M 0 263 L 660 263"/>
			<text class="y-axis-label" x="-5" y="263">
				200
			</text>
			<path class="y-gridline" d="M 0 132 L 660 132"/>
			<text class="y-axis-label" x="-5" y="132">
				400
			</text>
			<path class="y-gridline" d="M 0 1 L 660 1"/>
			<text class="y-axis-label" x="-5" y="1">
				600
			</text>
		</g>
		<g>
			<path class="series-1-line" d="M 40 388.251150449 L 42 383.878138827 L 45 394.05303289 L 47 405.907694278 L 50 396.598980441 L 52 391.915975761 L 55 394.493822787 L 57 348.931239411 L 60 391.949273151 L 62 376.128689536 L 65 379.275327465 L 67 366.426484843 L 70 382.9580506 L 72 377.499861719 L 75 358.423343215 L 77 345.031911963 L 80 386.267384842 L 82 360.859993806 L 85 367.365763273 L 87 384.827711316 L 90 387.509158102 L 92 355.641495612 L 95 368.943328753 L 97 371.650574701 L 100 357.121964755 L 102 390.682589997 L 105 381.425877597 L 107 372.737149877 L 110 367.149562072 L 112 371.717169481 L 115 349.17832279 L 117 337.621453837 L 120 347.744749575 L 122 340.39999696 L 125 403.65142675 L 127 337.338657857 L 130 300.535696264 L 132 316.137282847 L 135 341.790867993 L 137 308.631231835 L 140 317.720948639 L 142 312.055963348 L 145 312.101461361 L 147 313.516330529 L 150 280.563893892 L 152 242.106964137 L 155 277.579952275 L 157 239.950208157 L 160 205.110804674 L 162 219.136223692 L 165 197.501557013 L 167 204.575714272 L 170 244.570811806 L 172 239.009023164 L 175 232.025861931 L 177 224.887905725 L 180 217.465352511 L 182 185.727088944 L 185 188.589532977 L 187 213.545331409 L 190 182.76324929 L 192 208.778425818 L 195 189.159318685 L 197 176.388276661 L 200 155.321997774 L 202 154.023923794 L 205 136.652971777 L 207 180.058799173 L 210 103.384038658 L 212 103.868928652 L 215 150.349693691 L 217 145.692488173 L 220 138.967721673 L 222 114.490712923 L 225 145.027998848 L 227 66.0792840536 L 230 75.3757972669 L 232 131.624366973 L 235 41.0990843756 L 237 99.9316014191 L 240 13.9026290546 L 242 42.0369648892 L 245 20.4022982101 L 247 64.4023125606 L 250 31.9408662286 L 252 41.0047838704 L 255 29.4479149173 L 257 51.5351690043 L 260 85.6903843123 L 262 96.2530720319 L 265 32.317454066 L 267 63.7335239521 L 270 72.5648460223 L 272 52.4031502589 L 275 41.027278553 L 277 86.2160699231 L 280 30.7046846324 L 282 0.0 L 285 96.9991525912 L 287 84.8480966841 L 290 87.6069409567 L 292 62.1221524344 L 295 109.274905025 L 297 149.812591189 L 300 118.616916252 L 302 70.9867718944 L 305 6.30176888966 L 307 71.1555685184 L 310 4.40340764417 L 312 21.7105607139 L 315 99.277300618 L 317 99.3232017427 L 320 83.5026181277 L 322 116.029664435 L 325 105.299981119 L 327 176.872043824 L 330 174.876183129 L 332 76.3918589996 L 335 114.836588132 L 337 124.95988387 L 340 131.82724472 L 342 118.952602936 L 345 127.577128597 L 347 195.790059764 L 350 128.030119117 L 352 145.414669673 L 355 173.419606585 L 357 193.956895382 L 360 193.30460668 L 362 96.2416551413 L 365 173.266209528 L 367 174.991474866 L 370 188.680698552 L 372 187.666818467 L 375 201.976431382 L 377 171.478543159 L 380 226.04734554 L 382 198.443800824 L 385 212.572416491 L 387 172.255125276 L 390 183.541398872 L 392 180.460360918 L 395 203.452198129 L 397 236.857625286 L 400 232.76880756 L 402 243.305696117 L 405 232.03302106 L 407 236.678429067 L 410 250.006061371 L 412 211.936925272 L 415 274.103177803 L 417 226.834624829 L 420 235.097559107 L 422 261.939518161 L 425 258.00589852 L 427 316.0374322 L 430 302.852797358 L 432 254.550665449 L 435 250.927038866 L 437 294.617060158 L 440 327.29930455 L 442 318.714176591 L 445 336.02132966 L 447 338.883370582 L 450 379.912047051 L 452 354.711452424 L 455 344.937547445 L 457 350.099744919 L 460 346.088324679 L 462 369.829546929 L 465 363.518373248 L 467 367.724389274 L 470 406.659705599 L 472 411.485707742 L 475 394.399352732 L 477 365.477632073 L 480 368.210677184 L 482 395.466229057 L 485 410.215233952 L 487 408.270971581 L 490 362.165396464 L 492 399.472946901 L 495 371.455809366 L 497 382.251092657 L 500 367.645085224 L 502 384.021856008 L 505 386.78070028 L 507 387.730781417 L 510 379.223050944 L 512 402.137490668 L 515 380.115030333 L 517 353.260870655 L 520 366.769500206 L 522 383.766257106 L 525 386.21510832 L 527 384.400244873 L 530 356.693100396 L 532 411.107107805 L 535 380.660817906 L 537 384.944231419 L 540 340.595821113 L 542 379.143746894 L 545 391.773592483 L 547 366.547198694 L 550 382.665574744 L 552 367.28438311 L 555 403.041565144 L 557 376.910588232 L 560 369.540036454 L 562 385.916807238 L 565 359.088446723 L 567 411.771088482 L 570 373.88294963 L 572 381.887086063 L 575 399.27163662 L 577 372.210680533 L 580 393.652149342 L 582 376.565391221 L 585 397.80006362 L 587 379.524931591 L 590 398.692446121 L 592 362.406273996 L 595 363.666348191 L 597 402.912060686 L 600 393.629146012 L 602 406.749981906 L 605 394.521528512 L 607 384.024037656 L 610 394.095735071 L 612 385.252212377 L 615 390.543405662 L 617 386.531985423 L 620 412.41816614"/>
			<path class="series-2-line" d="M 40 394.757779773 L 42 407.798363525 L 45 391.613333873 L 47 388.529441264 L 50 385.445548655 L 52 407.556150361 L 55 397.417799344 L 57 429.606198776 L 60 399.312252307 L 62 390.181681063 L 65 409.268943451 L 67 408.200610387 L 70 382.945562781 L 72 408.079503805 L 75 395.925593243 L 77 400.903938815 L 80 412.936742795 L 82 405.821731096 L 85 411.80785644 L 87 398.646166105 L 90 411.686749858 L 92 390.462821343 L 95 397.45672646 L 97 406.466191122 L 100 392.296721015 L 102 383.16614977 L 105 411.323430112 L 107 390.099501596 L 110 396.085626941 L 112 389.978395014 L 115 407.050097857 L 117 400.942865931 L 120 392.820074459 L 122 397.798420031 L 125 394.714527422 L 127 401.708432539 L 130 403.663438793 L 132 405.618445047 L 135 411.604570392 L 137 395.419540739 L 140 391.327868358 L 142 409.407350973 L 145 401.284559502 L 147 376.029511896 L 150 406.202351782 L 152 391.025101902 L 155 398.01900702 L 157 411.059590772 L 160 381.773424076 L 162 393.806228056 L 165 387.698996129 L 167 383.607323748 L 170 392.61678841 L 172 394.571794664 L 175 382.417884102 L 177 394.450688082 L 180 372.218979794 L 182 370.142866958 L 185 394.269028209 L 187 391.1851356 L 190 397.171260945 L 192 386.025130155 L 195 379.917898229 L 197 406.059619025 L 200 389.874589372 L 202 394.852934944 L 205 391.769042335 L 207 379.615131773 L 210 391.647935753 L 212 393.602942007 L 215 373.386793264 L 217 391.46627588 L 220 378.304585545 L 222 383.282931117 L 225 374.152359873 L 227 387.192943626 L 230 390.155729652 L 232 379.009598863 L 235 390.03462307 L 237 368.810694555 L 240 385.882397398 L 242 397.915201378 L 245 391.807969451 L 247 365.545142073 L 250 397.733541505 L 252 397.672988213 L 255 391.565756287 L 257 364.295149136 L 260 380.359072206 L 262 382.31407846 L 265 372.175727443 L 267 383.200751651 L 270 380.116859042 L 272 380.056305751 L 275 385.034651323 L 277 369.857401443 L 280 381.890205423 L 282 375.782973496 L 285 374.714640433 L 287 382.716325322 L 290 383.663551804 L 292 388.641897376 L 295 381.526885677 L 297 384.489671703 L 300 376.366880232 L 302 377.314106713 L 305 366.167975923 L 307 388.278577629 L 310 385.194685021 L 312 396.219709228 L 315 360.886863896 L 317 392.067483556 L 320 382.936912311 L 322 377.837460157 L 325 399.948061863 L 327 395.856389482 L 330 391.7647171 L 332 386.665264946 L 335 401.721408244 L 337 393.598616772 L 340 382.452485983 L 342 385.415272009 L 345 375.276920992 L 347 384.286385655 L 350 381.202493046 L 352 380.134159982 L 355 373.019148283 L 357 391.098630899 L 360 373.905821474 L 362 382.915286136 L 365 392.932530571 L 367 397.910876143 L 370 383.741406035 L 372 383.680852744 L 375 390.674757861 L 377 391.621984343 L 380 367.37471651 L 382 388.477538443 L 385 384.385866062 L 387 384.32531277 L 390 391.319217888 L 392 399.320902777 L 395 388.174771988 L 397 363.927504154 L 400 371.929189044 L 402 377.915314389 L 405 366.769183599 L 407 387.872005532 L 410 390.834791559 L 412 393.797577586 L 415 402.807042248 L 417 386.622012596 L 420 393.615917713 L 422 371.384209425 L 425 394.502590903 L 427 380.333120796 L 430 392.365924776 L 432 380.212014214 L 435 394.260377739 L 437 377.067568314 L 440 387.084812749 L 442 389.039819003 L 445 400.06484321 L 447 384.88759333 L 450 389.865938902 L 452 389.805385611 L 455 380.674814367 L 457 399.762076755 L 460 395.670404374 L 462 385.532053357 L 465 386.479279838 L 467 397.504304046 L 470 375.272595757 L 472 368.157584058 L 475 399.338203718 L 477 390.207632473 L 480 395.185978045 L 482 387.063186573 L 485 404.134889416 L 487 391.980978854 L 490 390.91264579 L 492 386.820973409 L 495 393.814878526 L 497 398.793224098 L 500 396.717111262 L 502 395.648778198 L 505 396.59600468 L 507 404.597689569 L 510 394.459338552 L 512 395.406565034 L 515 371.159297201 L 517 393.269898907 L 520 407.318262432 L 522 388.109893462 L 525 398.127137896 L 527 405.121043014 L 530 403.044930177 L 532 402.984376886 L 535 395.869365187 L 537 394.801032123 L 540 394.740478832 L 542 393.672145769 L 545 387.564913842 L 547 391.535479641 L 550 391.47492635 L 552 392.422152832 L 555 394.377159086 L 557 382.223248524 L 560 391.232713186 L 562 390.164380122 L 565 408.243862738 L 567 403.144410584 L 570 417.192774109 L 572 385.891047868 L 575 384.822714804 L 577 399.878858102 L 580 394.779405948 L 582 386.656614476 L 585 374.502703914 L 587 394.597746075 L 590 390.506073693 L 592 390.445520402 L 595 389.377187339 L 597 397.378872228 L 600 390.263860529 L 602 386.172188148 L 605 406.267230309 L 607 392.097760201 L 610 392.03720691 L 612 394.999992937 L 615 393.931659873 L 617 389.839987492 L 620 398.849452154"/>
		</g>
		<text class="x-axis-label" x="40.0" y="540">
			0
		</text>
		<path class="x-notch" d="M 52.5 525 L 52.5 530"/>
		<text class="x-axis-label" x="65.0" y="540">
			10
		</text>
		<path class="x-notch" d="M 77.5 525 L 77.5 530"/>
		<text class="x-axis-label" x="90.0" y="540">
			20
		</text>
		<path class="x-notch" d="M 102.5 525 L 102.5 530"/>
		<text class="x-axis-label" x="115.0" y="540">
			30
		</text>
		<path class="x-notch" d="M 127.5 525 L 127.5 530"/>
		<text class="x-axis-label" x="140.0" y="540">
			40
		</text>
		<path class="x-notch" d="M 152.5 525 L 152.5 530"/>
		<text class="x-axis-label" x="165.0" y="540">
			50
		</text>
		<path class="x-notch" d="M 177.5 525 L 177.5 530"/>
		<text class="x-axis-label" x="190.0" y="540">
			60
		</text>
		<path class="x-notch" d="M 202.5 525 L 202.5 530"/>
		<text class="x-axis-label" x="215.0" y="540">
			70
		</text>
		<path class="x-notch" d="M 227.5 525 L 227.5 530"/>
		<text class="x-axis-label" x="240.0" y="540">
			80
		</text>
		<path class="x-notch" d="M 252.5 525 L 252.5 530"/>
		<text class="x-axis-label" x="265.0" y="540">
			90
		</text>
		<path class="x-notch" d="M 277.5 525 L 277.5 530"/>
		<text class="x-axis-label" x="290.0" y="540">
			100
		</text>
		<path class="x-notch" d="M 302.5 525 L 302.5 530"/>
		<text class="x-axis-label" x="315.0" y="540">
			110
		</text>
		<path class="x-notch" d="M 327.5 525 L 327.5 530"/>
		<text class="x-axis-label" x="340.0" y="540">
			120
		</text>
		<path class="x-notch" d="M 352.5 525 L 352.5 530"/>
		<text class="x-axis-label" x="365.0" y="540">
			130
		</text>
		<path class="x-notch" d="M 377.5 525 L 377.5 530"/>
		<text class="x-axis-label" x="390.0" y="540">
			140
		</text>
		<path class="x-notch" d="M 402.5 525 L 402.5 530"/>
		<text class="x-axis-label" x="415.0" y="540">
			150
		</text>
		<path class="x-notch" d="M 427.5 525 L 427.5 530"/>
		<text class="x-axis-label" x="440.0" y="540">
			160
		</text>
		<path class="x-notch" d="M 452.5 525 L 452.5 530"/>
		<text class="x-axis-label" x="465.0" y="540">
			170
		</text>
		<path class="x-notch" d="M 477.5 525 L 477.5 530"/>
		<text class="x-axis-label" x="490.0" y="540">
			180
		</text>
		<path class="x-notch" d="M 502.5 525 L 502.5 530"/>
		<text class="x-axis-label" x="515.0" y="540">
			190
		</text>
		<path class="x-notch" d="M 527.5 525 L 527.5 530"/>
		<text class="x-axis-label" x="540.0" y="540">
			200
		</text>
		<path class="x-notch" d="M 552.5 525 L 552.5 530"/>
		<text class="x-axis-label" x="565.0" y="540">
			210
		</text>
		<path class="x-notch" d="M 577.5 525 L 577.5 530"/>
		<text class="x-axis-label" x="590.0" y="540">
			220
		</text>
		<path class="x-notch" d="M 602.5 525 L 602.5 530"/>
		<text class="x-axis-label" x="615.0" y="540">
			230
		</text>
		<path class="x-notch" d="M 627.5 525 L 627.5 530"/>
	</g>
</svg>
