<?xml version="1.0" ?>
<svg height="600" version="1.1" width="800" xmlns="http://www.w3.org/2000/svg" xmlns:svg="http://www.w3.org/2000/svg">
	<style type="text/css">

.x-axis-path, .y-gridline, .x-notch { fill:none; stroke: #a7a9ac; stroke-width:1; }



.y-gridline { stroke-width: 1; }

.y-axis-path, .y-axis-path2, .x-notch-left, .x-notch-right { display: none;}



.x-axis-label, .data-point-label {font-size: 12px; font-weight:normal; font-family: sans-serif; fill: #58595b; text-anchor:middle;}

.y-axis-label {font-size: 12px; font-family: helvetica; fill: #a7a9ac; text-anchor:end;}



.series-1-line { fill: none; stroke: #10b80c; stroke-width:2; }



.series-2-line { fill: none; stroke: #e90f0a; stroke-width: 2;}
</style>
	<rect fill="white" height="600" width="800" x="0" y="0"/>
	<g id="grid" transform="translate(70, 30)">
		<g class="x-axis" id="x_axis">
			<path class="x-axis-path" d="M 0 525 L 660 525"/>
			<path class="x-notch-left" d="M 0 525, L 0 535"/>
			<path class="x-notch-right" d="M 660 525, L 660 535"/>
		</g>
		<g class="y-axis" id="y_axis">
			<path class="y-axis-path" d="M 0 525 L 0 0"/>
			<path class="y-axis-path-2" d="M 660 525 L 660 0"/>
			<path class="y-gridline" d="M 0 525 L 660 525"/>
			<text class="y-axis-label" x="-5" y="525">-200</text>
			<path class="y-gridline" d="M 0 394 L 660 394"/>
			<text class="y-axis-label" x="-5" y="394"> 0</text>
			<path class="y-gridline" d="M 0 263 L 660 263"/>
			<text class="y-axis-label" x="-5" y="263">200</text>
			<path class="y-gridline" d="M 0 132 L 660 132"/>
			<text class="y-axis-label" x="-5" y="132">400</text>
			<path class="y-gridline" d="M 0 1 L 660 1"/>
			<text class="y-axis-label" x="-5" y="1">600</text>
		</g>
		<g>
			<path class="series-1-line" d="M 40 405.055276605 L 52 408.008112103 L 64 384.719830336 L 76 360.648858169 L 88 399.002878729 L 100 417.355869815 L 112 394.373340441 L 124 409.330008936 L 136 376.518745867 L 148 405.005925327 L 160 345.686495435 L 172 413.811629487 L 185 371.19098414 L 197 360.440932202 L 209 305.358569554 L 221 298.120055567 L 233 265.957511549 L 245 280.780506408 L 257 204.686077159 L 269 212.466942411 L 281 184.312225769 L 293 118.026881084 L 305 133.47954129 L 317 116.546264959 L 330 149.823664481 L 342 84.1298777368 L 354 74.1050573759 L 366 58.1834135977 L 378 14.2075736131 L 390 56.6453386489 L 402 78.4914094108 L 414 86.9778571087 L 426 50.2165232013 L 438 0.0 L 450 125.206456182 L 462 208.02646109 L 475 289.454057096 L 487 365.442118561 L 499 379.539584129 L 511 411.385871914 L 523 382.448464871 L 535 409.752528449 L 547 380.08988983 L 559 386.382184522 L 571 413.438252245 L 583 394.730004378 L 595 402.529923333 L 607 395.024657503 L 620 379.99972863"/>
			<path class="series-2-line" d="M 40 371.719155709 L 52 401.861190604 L 64 403.720384854 L 76 382.506735422 L 88 405.205917516 L 100 354.965142158 L 112 396.271456255 L 124 411.527785548 L 136 418.59697676 L 148 413.013318209 L 160 404.452518538 L 172 398.124574708 L 185 397.006627838 L 197 387.701542887 L 209 414.866436662 L 221 409.282778111 L 233 402.210549001 L 245 409.279740212 L 257 405.184652222 L 269 407.788131753 L 281 414.113037684 L 293 389.177961851 L 305 385.082873861 L 317 382.476356431 L 330 384.335550681 L 342 354.190477887 L 354 347.862534056 L 366 361.630292789 L 378 339.672358076 L 390 334.832984806 L 402 349.345028818 L 414 299.848538741 L 426 342.643423398 L 438 307.288353643 L 450 336.686103258 L 462 331.102444708 L 475 397.714458329 L 487 412.970787622 L 499 388.035711788 L 511 409.990608602 L 523 393.24267085 L 535 398.079006221 L 547 378.353927348 L 559 380.957406879 L 571 395.469450892 L 583 379.46579842 L 595 379.09213683 L 607 415.188453966 L 620 405.139083735"/>
		</g>
		<text class="x-axis-label" x="40.0" y="540">0</text>
		<path class="x-notch" d="M 100.416666667 525 L 100.416666667 530"/>
		<text class="x-axis-label" x="160.833333333" y="540">10</text>
		<path class="x-notch" d="M 221.25 525 L 221.25 530"/>
		<text class="x-axis-label" x="281.666666667" y="540">20</text>
		<path class="x-notch" d="M 342.083333333 525 L 342.083333333 530"/>
		<text class="x-axis-label" x="402.5" y="540">30</text>
		<path class="x-notch" d="M 462.916666667 525 L 462.916666667 530"/>
		<text class="x-axis-label" x="523.333333333" y="540">40</text>
		<path class="x-notch" d="M 583.75 525 L 583.75 530"/>
	</g>
</svg>
