<?xml version="1.0" ?>
<svg height="600" version="1.1" width="800" xmlns="http://www.w3.org/2000/svg" xmlns:svg="http://www.w3.org/2000/svg">
	<style type="text/css">

.x-axis-path, .y-gridline, .x-notch { fill:none; stroke: #a7a9ac; stroke-width:1; }



.y-gridline { stroke-width: 1; }

.y-axis-path, .y-axis-path2, .x-notch-left, .x-notch-right { display: none;}



.x-axis-label, .data-point-label {font-size: 12px; font-weight:normal; font-family: sans-serif; fill: #58595b; text-anchor:middle;}

.y-axis-label {font-size: 12px; font-family: helvetica; fill: #a7a9ac; text-anchor:end;}



.series-1-line { fill: none; stroke: #10b80c; stroke-width:2; }



.series-2-line { fill: none; stroke: #e90f0a; stroke-width: 2;}
</style>
	<rect fill="white" height="600" width="800" x="0" y="0"/>
	<g id="grid" transform="translate(70, 30)">
		<g class="x-axis" id="x_axis">
			<path class="x-axis-path" d="M 0 525 L 660 525"/>
			<path class="x-notch-left" d="M 0 525, L 0 535"/>
			<path class="x-notch-right" d="M 660 525, L 660 535"/>
		</g>
		<g class="y-axis" id="y_axis">
			<path class="y-axis-path" d="M 0 525 L 0 0"/>
			<path class="y-axis-path-2" d="M 660 525 L 660 0"/>
			<path class="y-gridline" d="M 0 525 L 660 525"/>
			<text class="y-axis-label" x="-5" y="525">-200</text>
			<path class="y-gridline" d="M 0 394 L 660 394"/>
			<text class="y-axis-label" x="-5" y="394"> 0</text>
			<path class="y-gridline" d="M 0 263 L 660 263"/>
			<text class="y-axis-label" x="-5" y="263">200</text>
			<path class="y-gridline" d="M 0 132 L 660 132"/>
			<text class="y-axis-label" x="-5" y="132">400</text>
			<path class="y-gridline" d="M 0 1 L 660 1"/>
			<text class="y-axis-label" x="-5" y="1">600</text>
		</g>
		<g>
			<path class="series-1-line" d="M 40 374.46149194 L 45 402.21612095 L 51 399.924706989 L 56 371.382766764 L 62 417.535834875 L 67 385.080647821 L 73 342.758067941 L 79 370.325498748 L 84 381.29956376 L 90 401.039038422 L 95 392.653811053 L 101 419.56458566 L 106 353.852467692 L 112 355.380335836 L 118 379.807078026 L 123 384.313298845 L 129 414.340996671 L 134 378.370358972 L 140 377.414560321 L 145 374.115127906 L 151 393.971601445 L 157 364.398974235 L 162 370.052880917 L 168 315.61323917 L 173 313.813586115 L 179 229.983826353 L 185 235.168640661 L 190 174.424587527 L 196 153.078078266 L 201 128.520681062 L 207 84.0646997757 L 212 120.539035749 L 218 106.552121501 L 224 125.165847589 L 229 98.4523804465 L 235 132.160424211 L 240 79.3620573419 L 246 91.4370086666 L 251 80.7549470848 L 257 111.298536836 L 263 0.0 L 268 109.597903135 L 274 13.7918457805 L 279 55.0934823131 L 285 81.2777670151 L 290 27.8461437214 L 296 34.7183012147 L 302 15.6927571849 L 307 14.5263605546 L 313 109.850400641 L 318 211.128586725 L 324 244.978126007 L 330 263.779415921 L 335 291.932572357 L 341 319.992495314 L 346 179.864703831 L 352 233.377366955 L 357 221.429158146 L 363 192.559255443 L 369 211.220512325 L 374 265.764593678 L 380 278.496201202 L 385 173.596406098 L 391 221.835710442 L 396 274.715482762 L 402 246.690165706 L 408 363.92846116 L 413 333.956940902 L 419 397.102267854 L 424 330.404799966 L 430 366.527773685 L 435 394.235968766 L 441 392.882373932 L 447 380.62960242 L 452 363.690294624 L 458 391.0003279 L 463 427.14560453 L 469 377.042233679 L 475 418.695598087 L 480 390.78764553 L 486 405.816087267 L 491 397.360660572 L 497 396.967187775 L 502 423.151838099 L 508 427.891325429 L 514 407.623765191 L 519 402.214696767 L 525 408.454694701 L 530 419.826555896 L 536 385.003969682 L 541 408.774421294 L 547 393.240928134 L 553 391.089912826 L 558 414.227473635 L 564 410.92804122 L 569 395.981004934 L 575 409.157573814 L 580 382.092744418 L 586 390.254083292 L 592 442.500599188 L 597 398.045714767 L 603 369.059178808 L 608 385.212637877 L 614 408.561527908 L 620 412.714558365"/>
			<path class="series-2-line" d="M 40 429.763716964 L 45 397.792729069 L 51 418.836857517 L 56 364.01452637 L 62 349.410559346 L 67 370.454687794 L 73 362.24909688 L 79 359.527828347 L 84 378.743849335 L 90 385.163118102 L 95 394.324548059 L 101 351.384915403 L 106 427.272267654 L 112 351.426700716 L 118 339.564894882 L 123 441.045751575 L 129 375.254775668 L 134 410.009710067 L 140 400.890065423 L 145 400.910958079 L 151 389.049152245 L 157 388.155991172 L 162 417.426603191 L 168 410.135066007 L 173 390.046776602 L 179 404.69252894 L 185 400.143152946 L 190 413.874851554 L 196 377.333595008 L 201 342.620445923 L 207 275.001362555 L 212 344.490338696 L 218 336.284747782 L 224 268.665664415 L 229 249.49142874 L 235 251.340428857 L 240 308.946706507 L 246 263.264912661 L 251 274.254450078 L 257 234.971032343 L 263 221.281119048 L 268 219.473904245 L 274 248.744516263 L 279 242.36703281 L 285 205.825776264 L 290 219.557474872 L 296 201.297292927 L 302 230.567904946 L 307 254.354194584 L 313 197.703755977 L 318 246.169496327 L 324 333.025493339 L 330 271.804786082 L 335 248.974335487 L 341 276.416840046 L 346 125.618867243 L 352 139.35056585 L 357 98.2390406541 L 363 58.9556229183 L 369 55.3203006547 L 374 86.4190201334 L 380 80.9555904098 L 385 102.913772588 L 391 119.387632386 L 396 124.892847423 L 402 167.874265392 L 408 150.528137178 L 413 104.846343331 L 419 113.093719559 L 424 93.005430154 L 430 181.689534626 L 435 192.679072044 L 441 245.715081044 L 447 216.486254339 L 452 276.834693179 L 458 314.331788768 L 463 292.415391904 L 469 321.686003922 L 475 331.76148761 L 480 392.10992645 L 486 384.818389266 L 491 404.948463984 L 497 379.375852199 L 502 378.482691126 L 508 372.105207672 L 514 416.914733102 L 519 389.514013857 L 525 434.323539286 L 530 391.38390663 L 536 389.576691827 L 541 373.144617342 L 547 392.36063833 L 553 391.467477257 L 558 366.808919202 L 564 366.829811859 L 569 437.23284173 L 575 397.949423994 L 580 397.970316651 L 586 392.506886927 L 592 354.137522921 L 597 393.462725971 L 603 408.108478308 L 608 403.559102315 L 614 417.290800922 L 620 359.726308585"/>
		</g>
		<text class="x-axis-label" x="40.0" y="540">0</text>
		<path class="x-notch" d="M 67.8846153846 525 L 67.8846153846 530"/>
		<text class="x-axis-label" x="95.7692307692" y="540">10</text>
		<path class="x-notch" d="M 123.653846154 525 L 123.653846154 530"/>
		<text class="x-axis-label" x="151.538461538" y="540">20</text>
		<path class="x-notch" d="M 179.423076923 525 L 179.423076923 530"/>
		<text class="x-axis-label" x="207.307692308" y="540">30</text>
		<path class="x-notch" d="M 235.192307692 525 L 235.192307692 530"/>
		<text class="x-axis-label" x="263.076923077" y="540">40</text>
		<path class="x-notch" d="M 290.961538462 525 L 290.961538462 530"/>
		<text class="x-axis-label" x="318.846153846" y="540">50</text>
		<path class="x-notch" d="M 346.730769231 525 L 346.730769231 530"/>
		<text class="x-axis-label" x="374.615384615" y="540">60</text>
		<path class="x-notch" d="M 402.5 525 L 402.5 530"/>
		<text class="x-axis-label" x="430.384615385" y="540">70</text>
		<path class="x-notch" d="M 458.269230769 525 L 458.269230769 530"/>
		<text class="x-axis-label" x="486.153846154" y="540">80</text>
		<path class="x-notch" d="M 514.038461538 525 L 514.038461538 530"/>
		<text class="x-axis-label" x="541.923076923" y="540">90</text>
		<path class="x-notch" d="M 569.807692308 525 L 569.807692308 530"/>
		<text class="x-axis-label" x="597.692307692" y="540">100</text>
		<path class="x-notch" d="M 625.576923077 525 L 625.576923077 530"/>
	</g>
</svg>
