<?xml version="1.0" ?>
<svg height="600" version="1.1" width="800" xmlns="http://www.w3.org/2000/svg" xmlns:svg="http://www.w3.org/2000/svg">
	<style type="text/css">

.x-axis-path, .y-gridline, .x-notch { fill:none; stroke: #a7a9ac; stroke-width:1; }



.y-gridline { stroke-width: 1; }

.y-axis-path, .y-axis-path2, .x-notch-left, .x-notch-right { display: none;}



.x-axis-label, .data-point-label {font-size: 12px; font-weight:normal; font-family: sans-serif; fill: #58595b; text-anchor:middle;}

.y-axis-label {font-size: 12px; font-family: helvetica; fill: #a7a9ac; text-anchor:end;}



.series-1-line { fill: none; stroke: #10b80c; stroke-width:2; }



.series-2-line { fill: none; stroke: #e90f0a; stroke-width: 2;}
</style>
	<rect fill="white" height="600" width="800" x="0" y="0"/>
	<g id="grid" transform="translate(70, 30)">
		<g class="x-axis" id="x_axis">
			<path class="x-axis-path" d="M 0 525 L 660 525"/>
			<path class="x-notch-left" d="M 0 525, L 0 535"/>
			<path class="x-notch-right" d="M 660 525, L 660 535"/>
		</g>
		<g class="y-axis" id="y_axis">
			<path class="y-axis-path" d="M 0 525 L 0 0"/>
			<path class="y-axis-path-2" d="M 660 525 L 660 0"/>
			<path class="y-gridline" d="M 0 525 L 660 525"/>
			<text class="y-axis-label" x="-5" y="525">-200</text>
			<path class="y-gridline" d="M 0 394 L 660 394"/>
			<text class="y-axis-label" x="-5" y="394"> 0</text>
			<path class="y-gridline" d="M 0 263 L 660 263"/>
			<text class="y-axis-label" x="-5" y="263">200</text>
			<path class="y-gridline" d="M 0 132 L 660 132"/>
			<text class="y-axis-label" x="-5" y="132">400</text>
			<path class="y-gridline" d="M 0 1 L 660 1"/>
			<text class="y-axis-label" x="-5" y="1">600</text>
		</g>
		<g>
			<path class="series-1-line" d="M 40 391.471530968 L 44 399.960997238 L 48 382.400702025 L 53 396.587050983 L 57 397.780271118 L 62 379.96007681 L 66 355.337464938 L 71 375.96143944 L 75 395.5056458 L 80 366.032192796 L 84 377.213978353 L 89 379.68234745 L 93 365.087052544 L 98 389.33947001 L 102 384.147003842 L 106 374.988692527 L 111 366.480027509 L 115 379.833928385 L 120 386.593777328 L 124 383.742634791 L 129 368.016038276 L 133 369.508720602 L 138 384.605426503 L 142 365.016051774 L 147 356.013355296 L 151 362.330909134 L 156 375.606901148 L 160 365.576578658 L 164 372.648671714 L 169 370.226636584 L 173 333.027830038 L 178 312.866109212 L 182 320.419451805 L 187 340.054957613 L 191 302.908090309 L 196 249.816281575 L 200 262.75365408 L 205 220.729570247 L 209 249.924534069 L 214 198.835429456 L 218 212.033106832 L 222 145.922605431 L 227 179.018896124 L 231 141.07853517 L 236 125.520944079 L 240 43.1013178929 L 245 45.5433115937 L 249 33.0552079547 L 254 139.347077916 L 258 38.9540394463 L 263 91.0126168923 L 267 128.309493759 L 272 75.776843424 L 276 98.2864558654 L 280 0.0 L 285 83.7794548823 L 289 113.819242933 L 294 160.025525742 L 298 138.901711618 L 303 103.198390036 L 307 138.388684298 L 312 126.680683723 L 316 110.667812716 L 321 231.03176809 L 325 226.242845484 L 330 129.972484325 L 334 252.833581055 L 338 153.454575125 L 343 163.660876799 L 347 216.291597454 L 352 166.255885587 L 356 195.282046874 L 361 267.551075975 L 365 306.213589701 L 370 290.174951961 L 374 348.736687666 L 379 358.136105105 L 383 360.526768227 L 388 387.094133927 L 392 361.834251906 L 396 364.328590624 L 401 391.078149445 L 405 348.312511204 L 410 365.90635846 L 414 353.548305813 L 419 370.505085808 L 423 393.729877261 L 428 370.355836067 L 432 385.283536545 L 437 372.808417716 L 441 389.504689952 L 446 387.315164083 L 450 314.64956518 L 454 298.351231232 L 459 324.893033086 L 463 355.88314695 L 468 357.194447705 L 472 392.995839608 L 477 386.958346325 L 481 383.808147372 L 486 413.665742302 L 490 400.384347901 L 495 393.31963438 L 499 377.878906582 L 504 399.179105665 L 508 392.334931033 L 512 400.278832377 L 517 410.836535483 L 521 393.847774817 L 526 393.194920108 L 530 402.308874604 L 535 395.73839543 L 539 399.572198498 L 544 394.288838658 L 548 408.188710235 L 553 392.969535765 L 557 398.220914934 L 562 392.456508445 L 566 405.784236813 L 570 384.699174232 L 575 404.113532488 L 579 398.479379878 L 584 385.887194868 L 588 391.684747626 L 593 413.76525266 L 597 394.357868165 L 602 392.794453624 L 606 386.821884392 L 611 392.021121432 L 615 403.086043695 L 620 394.850668359"/>
			<path class="series-2-line" d="M 40 405.010265293 L 44 377.282026565 L 48 397.739607784 L 53 411.0961208 L 57 374.237937241 L 62 415.49150391 L 66 410.080908105 L 71 408.220846402 L 75 376.942073573 L 80 396.385216477 L 84 383.873552469 L 89 405.345572003 L 93 398.413318726 L 98 384.379997246 L 102 354.62288189 L 106 409.571365807 L 111 402.63911253 L 115 407.372899871 L 120 392.325140077 L 124 393.00117416 L 129 404.328810547 L 133 399.932653057 L 138 409.738631972 L 142 410.414666055 L 147 421.235083284 L 151 396.042940343 L 156 412.949987461 L 160 406.017734184 L 164 401.621576693 L 169 394.689323417 L 173 412.610808849 L 178 403.649678942 L 182 403.311274711 L 187 397.393459748 L 191 407.199438663 L 196 411.933226005 L 200 382.683329806 L 205 381.837706417 L 209 407.874698366 L 214 396.88469183 L 218 386.401904452 L 222 384.541842748 L 227 375.580712842 L 231 370.677336195 L 236 375.411123536 L 240 365.942774473 L 245 351.909452993 L 249 372.367034212 L 254 358.84093189 L 258 383.863485524 L 263 384.03230045 L 267 352.753527621 L 272 349.371808446 L 276 330.266295393 L 280 323.334042116 L 285 340.241089233 L 289 313.52728882 L 294 336.520965826 L 298 359.007423674 L 303 361.205115229 L 307 361.881149312 L 312 359.513868451 L 316 356.132149275 L 321 343.11326611 L 325 349.368710924 L 330 364.246881412 L 334 357.314628135 L 338 342.774087498 L 343 324.175793603 L 347 314.200225382 L 352 297.123588958 L 356 349.535977089 L 361 322.314957519 L 365 295.601157106 L 370 316.058738325 L 374 350.211236791 L 379 279.369369691 L 383 332.796196136 L 388 313.690683083 L 392 308.787306436 L 396 326.201572711 L 401 318.254881119 L 405 294.58439565 L 410 310.477004453 L 414 330.427366514 L 419 366.60874161 L 423 334.822749624 L 428 332.455468763 L 432 348.855296723 L 437 367.284001313 L 441 364.916720452 L 446 202.775405033 L 450 175.047166305 L 454 236.08228011 L 459 260.597614588 L 463 323.154385865 L 468 386.725595456 L 472 371.170616505 L 477 374.382746374 L 481 382.15984866 L 486 344.287226786 L 490 369.816999578 L 495 394.839553213 L 499 381.313450891 L 504 372.859540142 L 508 343.609643942 L 512 381.31267651 L 517 387.060902166 L 521 338.029458831 L 526 371.674738141 L 530 365.249704021 L 535 392.301134285 L 539 398.556579099 L 544 383.001600147 L 548 361.867210465 L 553 392.976393988 L 557 395.6813047 L 562 395.850119625 L 566 384.86011309 L 570 381.478393914 L 575 370.488387379 L 579 389.931530283 L 584 406.8385774 L 588 403.456858225 L 593 391.959632532 L 597 384.01294094 L 602 401.427207215 L 606 394.494953938 L 611 385.533824032 L 615 391.282049688 L 620 401.088028603"/>
		</g>
		<text class="x-axis-label" x="40.0" y="540">0</text>
		<path class="x-notch" d="M 62.3076923077 525 L 62.3076923077 530"/>
		<text class="x-axis-label" x="84.6153846154" y="540">10</text>
		<path class="x-notch" d="M 106.923076923 525 L 106.923076923 530"/>
		<text class="x-axis-label" x="129.230769231" y="540">20</text>
		<path class="x-notch" d="M 151.538461538 525 L 151.538461538 530"/>
		<text class="x-axis-label" x="173.846153846" y="540">30</text>
		<path class="x-notch" d="M 196.153846154 525 L 196.153846154 530"/>
		<text class="x-axis-label" x="218.461538462" y="540">40</text>
		<path class="x-notch" d="M 240.769230769 525 L 240.769230769 530"/>
		<text class="x-axis-label" x="263.076923077" y="540">50</text>
		<path class="x-notch" d="M 285.384615385 525 L 285.384615385 530"/>
		<text class="x-axis-label" x="307.692307692" y="540">60</text>
		<path class="x-notch" d="M 330.0 525 L 330.0 530"/>
		<text class="x-axis-label" x="352.307692308" y="540">70</text>
		<path class="x-notch" d="M 374.615384615 525 L 374.615384615 530"/>
		<text class="x-axis-label" x="396.923076923" y="540">80</text>
		<path class="x-notch" d="M 419.230769231 525 L 419.230769231 530"/>
		<text class="x-axis-label" x="441.538461538" y="540">90</text>
		<path class="x-notch" d="M 463.846153846 525 L 463.846153846 530"/>
		<text class="x-axis-label" x="486.153846154" y="540">100</text>
		<path class="x-notch" d="M 508.461538462 525 L 508.461538462 530"/>
		<text class="x-axis-label" x="530.769230769" y="540">110</text>
		<path class="x-notch" d="M 553.076923077 525 L 553.076923077 530"/>
		<text class="x-axis-label" x="575.384615385" y="540">120</text>
		<path class="x-notch" d="M 597.692307692 525 L 597.692307692 530"/>
		<text class="x-axis-label" x="620.0" y="540">130</text>
	</g>
</svg>
