<?xml version="1.0" ?>
<svg height="600" version="1.1" width="800" xmlns="http://www.w3.org/2000/svg" xmlns:svg="http://www.w3.org/2000/svg">
	<style type="text/css">

.x-axis-path, .y-gridline, .x-notch { fill:none; stroke: #a7a9ac; stroke-width:1; }



.y-gridline { stroke-width: 1; }

.y-axis-path, .y-axis-path2, .x-notch-left, .x-notch-right { display: none;}



.x-axis-label, .data-point-label {font-size: 12px; font-weight:normal; font-family: sans-serif; fill: #58595b; text-anchor:middle;}

.y-axis-label {font-size: 12px; font-family: helvetica; fill: #a7a9ac; text-anchor:end;}



.series-1-line { fill: none; stroke: #10b80c; stroke-width:2; }



.series-2-line { fill: none; stroke: #e90f0a; stroke-width: 2;}
</style>
	<rect fill="white" height="600" width="800" x="0" y="0"/>
	<g id="grid" transform="translate(70, 30)">
		<g class="x-axis" id="x_axis">
			<path class="x-axis-path" d="M 0 525 L 660 525"/>
			<path class="x-notch-left" d="M 0 525, L 0 535"/>
			<path class="x-notch-right" d="M 660 525, L 660 535"/>
		</g>
		<g class="y-axis" id="y_axis">
			<path class="y-axis-path" d="M 0 525 L 0 0"/>
			<path class="y-axis-path-2" d="M 660 525 L 660 0"/>
			<path class="y-gridline" d="M 0 525 L 660 525"/>
			<text class="y-axis-label" x="-5" y="525">-200</text>
			<path class="y-gridline" d="M 0 394 L 660 394"/>
			<text class="y-axis-label" x="-5" y="394"> 0</text>
			<path class="y-gridline" d="M 0 263 L 660 263"/>
			<text class="y-axis-label" x="-5" y="263">200</text>
			<path class="y-gridline" d="M 0 132 L 660 132"/>
			<text class="y-axis-label" x="-5" y="132">400</text>
			<path class="y-gridline" d="M 0 1 L 660 1"/>
			<text class="y-axis-label" x="-5" y="1">600</text>
		</g>
		<g>
			<path class="series-1-line" d="M 40 409.413402933 L 49 384.808343201 L 59 421.192257333 L 69 347.960665275 L 78 396.206503699 L 88 310.96974355 L 98 337.063513604 L 107 309.135978038 L 117 275.38449515 L 127 299.477868329 L 136 132.350244322 L 146 237.262103654 L 156 189.898000853 L 165 174.189105656 L 175 196.567454822 L 185 143.736678144 L 194 252.113699741 L 204 140.902435511 L 214 196.651016294 L 223 61.9661621037 L 233 35.7530931823 L 243 137.020317473 L 252 114.523784177 L 262 142.296906636 L 272 129.481870612 L 281 78.615819201 L 291 195.567960863 L 301 92.7523439219 L 310 60.1791388247 L 320 9.42177434336 L 330 0.0 L 339 201.20067584 L 349 254.055954819 L 359 209.014408099 L 368 267.013644379 L 378 234.191295397 L 388 285.618037962 L 397 356.69482004 L 407 346.953115965 L 417 368.152629971 L 426 358.51794072 L 436 377.287326453 L 446 401.059097794 L 455 431.976338049 L 465 374.60857877 L 475 372.655547284 L 484 340.904461271 L 494 382.076731365 L 504 382.766743062 L 513 376.705903004 L 523 362.461773198 L 532 353.005999353 L 542 370.953823372 L 552 380.648129163 L 562 387.913421419 L 571 414.042863081 L 581 405.337307736 L 591 402.991331197 L 600 428.477569183 L 610 381.649655235 L 620 364.047377986"/>
			<path class="series-2-line" d="M 40 384.83209808 L 49 384.790980704 L 59 380.569596803 L 69 412.577189454 L 78 405.568961203 L 88 408.314688177 L 98 379.011705126 L 107 408.232453426 L 117 422.1255578 L 127 433.231817825 L 136 385.814346498 L 146 396.920606523 L 156 414.993977423 L 165 385.690994371 L 175 392.616987871 L 185 393.96929267 L 194 353.518932218 L 204 386.919947044 L 214 350.649853117 L 223 404.952200568 L 233 384.009750567 L 243 365.854144916 L 252 417.369648016 L 262 397.82062019 L 272 351.796571038 L 281 318.313321462 L 291 298.764293635 L 301 272.248154934 L 310 210.896461857 L 320 323.722540659 L 330 182.945783605 L 339 171.757288829 L 349 206.551725829 L 359 242.739585004 L 368 181.387891927 L 378 213.395484577 L 388 308.107075104 L 397 326.180446004 L 407 344.253816904 L 417 372.081143029 L 426 373.433447828 L 436 345.523886952 L 446 352.449880451 L 455 331.50743045 L 465 388.596622251 L 475 387.1620827 L 484 360.645943999 L 494 424.702246675 L 504 336.875532272 L 513 432.980544974 L 523 392.530184522 L 532 420.357510647 L 542 411.955860221 L 552 386.833143695 L 562 414.66046982 L 571 379.783798069 L 581 399.250591143 L 591 404.783162468 L 600 361.545957666 L 610 404.700927717 L 620 399.086121641"/>
		</g>
		<text class="x-axis-label" x="40.0" y="540">0</text>
		<path class="x-notch" d="M 88.3333333333 525 L 88.3333333333 530"/>
		<text class="x-axis-label" x="136.666666667" y="540">10</text>
		<path class="x-notch" d="M 185.0 525 L 185.0 530"/>
		<text class="x-axis-label" x="233.333333333" y="540">20</text>
		<path class="x-notch" d="M 281.666666667 525 L 281.666666667 530"/>
		<text class="x-axis-label" x="330.0" y="540">30</text>
		<path class="x-notch" d="M 378.333333333 525 L 378.333333333 530"/>
		<text class="x-axis-label" x="426.666666667" y="540">40</text>
		<path class="x-notch" d="M 475.0 525 L 475.0 530"/>
		<text class="x-axis-label" x="523.333333333" y="540">50</text>
		<path class="x-notch" d="M 571.666666667 525 L 571.666666667 530"/>
		<text class="x-axis-label" x="620.0" y="540">60</text>
	</g>
</svg>
