<?xml version="1.0" ?>
<svg height="600" version="1.1" width="800" xmlns="http://www.w3.org/2000/svg" xmlns:svg="http://www.w3.org/2000/svg">
	<style type="text/css">
		

.x-axis-path, .y-gridline, .x-notch { fill:none; stroke: #a7a9ac; stroke-width:1; }



.y-gridline { stroke-width: 1; }

.y-axis-path, .y-axis-path2, .x-notch-left, .x-notch-right { display: none;}



.x-axis-label, .data-point-label {font-size: 12px; font-weight:normal; font-family: sans-serif; fill: #58595b; text-anchor:middle;}

.y-axis-label {font-size: 12px; font-family: helvetica; fill: #a7a9ac; text-anchor:end;}



.series-1-line { fill: none; stroke: #10b80c; stroke-width:2; }



.series-2-line { fill: none; stroke: #e90f0a; stroke-width: 2;}

	</style>
	<rect fill="white" height="600" width="800" x="0" y="0"/>
	<g id="grid" transform="translate(70, 30)">
		<g class="x-axis" id="x_axis">
			<path class="x-axis-path" d="M 0 525 L 660 525"/>
			<path class="x-notch-left" d="M 0 525, L 0 535"/>
			<path class="x-notch-right" d="M 660 525, L 660 535"/>
		</g>
		<g class="y-axis" id="y_axis">
			<path class="y-axis-path" d="M 0 525 L 0 0"/>
			<path class="y-axis-path-2" d="M 660 525 L 660 0"/>
			<path class="y-gridline" d="M 0 525 L 660 525"/>
			<text class="y-axis-label" x="-5" y="525">
				-100
			</text>
			<path class="y-gridline" d="M 0 438 L 660 438"/>
			<text class="y-axis-label" x="-5" y="438">
				 0
			</text>
			<path class="y-gridline" d="M 0 351 L 660 351"/>
			<text class="y-axis-label" x="-5" y="351">
				100
			</text>
			<path class="y-gridline" d="M 0 264 L 660 264"/>
			<text class="y-axis-label" x="-5" y="264">
				200
			</text>
			<path class="y-gridline" d="M 0 177 L 660 177"/>
			<text class="y-axis-label" x="-5" y="177">
				300
			</text>
			<path class="y-gridline" d="M 0 90 L 660 90"/>
			<text class="y-axis-label" x="-5" y="90">
				400
			</text>
			<path class="y-gridline" d="M 0 3 L 660 3"/>
			<text class="y-axis-label" x="-5" y="3">
				500
			</text>
		</g>
		<g>
			<path class="series-1-line" d="M 40 441.72695 L 44 447.428033858 L 49 434.282317717 L 53 432.444751575 L 58 428.722785433 L 63 453.673519291 L 67 457.98335315 L 72 427.181187008 L 76 432.164070866 L 81 426.198604724 L 86 433.492188583 L 90 433.471822441 L 95 421.336206299 L 99 410.457090157 L 104 417.189624016 L 109 396.528707874 L 113 402.005091732 L 118 409.231825591 L 122 360.368609449 L 127 378.341743307 L 132 342.603177165 L 136 331.185761024 L 141 332.511494882 L 145 310.03302874 L 150 288.137662598 L 155 315.713396457 L 159 297.968330315 L 164 240.490214173 L 168 222.610748031 L 173 266.31798189 L 178 289.810265748 L 182 251.267849606 L 187 277.766633465 L 191 243.823217323 L 196 249.726251181 L 201 221.660735039 L 205 178.227068898 L 210 230.975852756 L 214 237.147686614 L 219 256.915620472 L 224 192.392354331 L 228 187.189188189 L 233 195.245772047 L 237 182.863055906 L 242 160.630989764 L 247 140.822673622 L 251 135.35000748 L 256 141.701741339 L 260 163.017025197 L 265 3.63535905512 L 270 105.181842913 L 274 101.796226772 L 279 152.48106063 L 283 82.4610444882 L 288 64.8948283465 L 293 65.5926622047 L 297 109.345046063 L 302 73.1805299213 L 306 135.62151378 L 311 137.912897638 L 316 134.728531496 L 320 111.666615354 L 325 151.604349213 L 330 219.026883071 L 334 213.554216929 L 339 206.825750787 L 343 188.093684646 L 348 231.532818504 L 353 203.309802362 L 357 243.54013622 L 362 287.157770079 L 366 305.064053937 L 371 319.200487795 L 376 308.679771654 L 380 302.557505512 L 385 343.30303937 L 389 348.555423228 L 394 358.877907087 L 399 350.107890945 L 403 399.177474803 L 408 357.516208661 L 412 365.79749252 L 417 427.992076378 L 422 437.395110236 L 426 438.765994094 L 431 408.143727953 L 435 427.463311811 L 440 436.552045669 L 445 443.913179528 L 449 456.165563386 L 454 456.055247244 L 458 449.663481102 L 463 439.636614961 L 468 458.372748819 L 472 466.115382677 L 477 434.303466535 L 481 447.969150394 L 486 441.128334252 L 491 458.51836811 L 495 451.901901969 L 500 448.605885827 L 504 470.056969685 L 509 445.760953543 L 514 454.400987402 L 518 449.93842126 L 523 459.229105118 L 527 456.381788976 L 532 448.688372835 L 537 463.116706693 L 541 453.112590551 L 546 464.915924409 L 550 438.533558268 L 555 443.247292126 L 560 440.063625984 L 564 448.142609843 L 569 448.010243701 L 573 438.320077559 L 578 453.017561417 L 583 459.638095276 L 587 461.839179134 L 592 434.155512992 L 596 444.36599685 L 601 466.265430709 L 606 426.040214567 L 610 431.045498425 L 615 448.749482283 L 620 419.742116142"/>
			<path class="series-2-line" d="M 40 440.125 L 44 460.663385827 L 49 418.201771654 L 53 420.36515748 L 58 443.528543307 L 63 429.941929134 L 67 428.605314961 L 72 444.768700787 L 76 440.807086614 L 81 472.720472441 L 86 449.508858268 L 90 441.172244094 L 95 445.960629921 L 99 459.499015748 L 104 421.412401575 L 109 459.450787402 L 113 446.739173228 L 118 468.152559055 L 122 469.440944882 L 127 452.354330709 L 132 419.517716535 L 136 448.806102362 L 141 435.219488189 L 145 449.632874016 L 150 441.296259843 L 155 427.709645669 L 159 386.123031496 L 164 434.661417323 L 168 414.07480315 L 173 409.238188976 L 178 384.276574803 L 182 413.56496063 L 187 397.353346457 L 191 391.641732283 L 196 414.80511811 L 201 379.343503937 L 205 386.756889764 L 210 370.545275591 L 214 351.708661417 L 219 327.622047244 L 224 349.035433071 L 228 330.198818898 L 233 324.487204724 L 237 299.525590551 L 242 275.438976378 L 247 316.977362205 L 251 271.890748031 L 256 293.304133858 L 260 198.342519685 L 265 275.755905512 L 270 222.794291339 L 274 227.582677165 L 279 226.246062992 L 283 252.034448819 L 288 148.322834646 L 293 164.486220472 L 297 186.774606299 L 302 186.312992126 L 306 159.601377953 L 311 234.38976378 L 316 173.553149606 L 320 176.591535433 L 325 145.50492126 L 330 194.918307087 L 334 149.831692913 L 339 164.24507874 L 343 140.158464567 L 348 245.571850394 L 353 166.36023622 L 357 226.273622047 L 362 235.437007874 L 366 262.975393701 L 371 230.138779528 L 376 187.677165354 L 380 244.090551181 L 385 223.503937008 L 389 245.792322835 L 394 227.830708661 L 399 253.619094488 L 403 265.407480315 L 408 269.320866142 L 412 296.859251969 L 417 308.647637795 L 422 331.811023622 L 426 345.349409449 L 431 401.762795276 L 435 413.551181102 L 440 417.464566929 L 445 417.877952756 L 449 440.166338583 L 454 411.704724409 L 458 441.868110236 L 463 424.781496063 L 468 425.19488189 L 472 434.358267717 L 477 437.396653543 L 481 443.93503937 L 486 441.723425197 L 491 447.386811024 L 495 444.30019685 L 500 435.088582677 L 504 455.626968504 L 509 446.415354331 L 514 452.078740157 L 518 454.242125984 L 523 460.780511811 L 527 449.818897638 L 532 444.107283465 L 537 434.020669291 L 541 447.559055118 L 546 437.472440945 L 550 446.635826772 L 555 450.549212598 L 560 457.962598425 L 564 448.750984252 L 569 457.914370079 L 573 456.577755906 L 578 438.616141732 L 583 418.029527559 L 587 438.567913386 L 592 445.981299213 L 596 445.519685039 L 601 430.183070866 L 606 448.971456693 L 610 441.50984252 L 615 432.298228346 L 620 441.461614173"/>
		</g>
		<text class="x-axis-label" x="40.0" y="540">
			0
		</text>
		<path class="x-notch" d="M 63.0158730159 525 L 63.0158730159 530"/>
		<text class="x-axis-label" x="86.0317460317" y="540">
			10
		</text>
		<path class="x-notch" d="M 109.047619048 525 L 109.047619048 530"/>
		<text class="x-axis-label" x="132.063492063" y="540">
			20
		</text>
		<path class="x-notch" d="M 155.079365079 525 L 155.079365079 530"/>
		<text class="x-axis-label" x="178.095238095" y="540">
			30
		</text>
		<path class="x-notch" d="M 201.111111111 525 L 201.111111111 530"/>
		<text class="x-axis-label" x="224.126984127" y="540">
			40
		</text>
		<path class="x-notch" d="M 247.142857143 525 L 247.142857143 530"/>
		<text class="x-axis-label" x="270.158730159" y="540">
			50
		</text>
		<path class="x-notch" d="M 293.174603175 525 L 293.174603175 530"/>
		<text class="x-axis-label" x="316.19047619" y="540">
			60
		</text>
		<path class="x-notch" d="M 339.206349206 525 L 339.206349206 530"/>
		<text class="x-axis-label" x="362.222222222" y="540">
			70
		</text>
		<path class="x-notch" d="M 385.238095238 525 L 385.238095238 530"/>
		<text class="x-axis-label" x="408.253968254" y="540">
			80
		</text>
		<path class="x-notch" d="M 431.26984127 525 L 431.26984127 530"/>
		<text class="x-axis-label" x="454.285714286" y="540">
			90
		</text>
		<path class="x-notch" d="M 477.301587302 525 L 477.301587302 530"/>
		<text class="x-axis-label" x="500.317460317" y="540">
			100
		</text>
		<path class="x-notch" d="M 523.333333333 525 L 523.333333333 530"/>
		<text class="x-axis-label" x="546.349206349" y="540">
			110
		</text>
		<path class="x-notch" d="M 569.365079365 525 L 569.365079365 530"/>
		<text class="x-axis-label" x="592.380952381" y="540">
			120
		</text>
		<path class="x-notch" d="M 615.396825397 525 L 615.396825397 530"/>
	</g>
</svg>
