<?xml version="1.0" ?>
<svg height="600" version="1.1" width="800" xmlns="http://www.w3.org/2000/svg" xmlns:svg="http://www.w3.org/2000/svg">
	<style type="text/css">
		

.x-axis-path, .y-gridline, .x-notch { fill:none; stroke: #a7a9ac; stroke-width:1; }



.y-gridline { stroke-width: 1; }

.y-axis-path, .y-axis-path2, .x-notch-left, .x-notch-right { display: none;}



.x-axis-label, .data-point-label {font-size: 12px; font-weight:normal; font-family: sans-serif; fill: #58595b; text-anchor:middle;}

.y-axis-label {font-size: 12px; font-family: helvetica; fill: #a7a9ac; text-anchor:end;}



.series-1-line { fill: none; stroke: #10b80c; stroke-width:2; }



.series-2-line { fill: none; stroke: #e90f0a; stroke-width: 2;}

	</style>
	<rect fill="white" height="600" width="800" x="0" y="0"/>
	<g id="grid" transform="translate(70, 30)">
		<g class="x-axis" id="x_axis">
			<path class="x-axis-path" d="M 0 525 L 660 525"/>
			<path class="x-notch-left" d="M 0 525, L 0 535"/>
			<path class="x-notch-right" d="M 660 525, L 660 535"/>
		</g>
		<g class="y-axis" id="y_axis">
			<path class="y-axis-path" d="M 0 525 L 0 0"/>
			<path class="y-axis-path-2" d="M 660 525 L 660 0"/>
			<path class="y-gridline" d="M 0 525 L 660 525"/>
			<text class="y-axis-label" x="-5" y="525">
				-200
			</text>
			<path class="y-gridline" d="M 0 394 L 660 394"/>
			<text class="y-axis-label" x="-5" y="394">
				 0
			</text>
			<path class="y-gridline" d="M 0 263 L 660 263"/>
			<text class="y-axis-label" x="-5" y="263">
				200
			</text>
			<path class="y-gridline" d="M 0 132 L 660 132"/>
			<text class="y-axis-label" x="-5" y="132">
				400
			</text>
			<path class="y-gridline" d="M 0 1 L 660 1"/>
			<text class="y-axis-label" x="-5" y="1">
				600
			</text>
		</g>
		<g>
			<path class="series-1-line" d="M 40 403.508676103 L 45 360.699537251 L 51 413.610833671 L 57 397.738952953 L 63 387.536143183 L 69 393.815171295 L 75 405.91066358 L 81 376.916200331 L 87 372.843638531 L 93 392.707736357 L 99 371.691832111 L 105 391.282433622 L 111 367.684200086 L 116 378.435466165 L 122 385.071513421 L 128 400.463373281 L 134 356.414493643 L 140 371.197128176 L 146 370.862458544 L 152 356.775673543 L 158 319.718473384 L 164 313.588957253 L 170 269.519442563 L 176 305.927610967 L 182 292.491321396 L 187 275.863477208 L 193 240.801326226 L 199 276.895055752 L 205 201.247034064 L 211 244.626574438 L 217 193.523127543 L 223 152.959933889 L 229 128.416746015 L 235 113.363389003 L 241 147.588827525 L 247 108.033148445 L 253 11.2420600402 L 258 82.3783648756 L 264 63.4407050922 L 270 109.066518205 L 276 42.2997571326 L 282 32.4333314543 L 288 30.9853516676 L 294 50.1560462593 L 300 23.0098940438 L 306 48.3108366048 L 312 0.0 L 318 24.0415493444 L 324 26.8568366857 L 330 47.181783994 L 335 44.7891774096 L 341 55.4572482017 L 347 44.7297185529 L 353 19.0529130135 L 359 202.497941666 L 365 238.066951313 L 371 275.56746728 L 377 227.066657186 L 383 246.300239553 L 389 299.107705635 L 395 294.195985077 L 401 373.899766731 L 406 352.547805933 L 412 398.089441137 L 418 378.376165454 L 424 373.946584509 L 430 379.113285089 L 436 376.070183075 L 442 396.794729791 L 448 386.528377164 L 454 370.384637833 L 460 410.236894579 L 466 403.644891264 L 472 409.882321733 L 477 376.563013743 L 483 390.170105428 L 489 373.185242096 L 495 409.593738041 L 501 394.960943029 L 507 387.109546497 L 513 382.807051266 L 519 398.76555619 L 525 389.360307533 L 531 407.733113471 L 537 386.192161805 L 543 383.716032394 L 548 383.024343618 L 554 370.617186293 L 560 407.214673106 L 566 391.069623612 L 572 393.380826127 L 578 392.878128218 L 584 386.686051852 L 590 392.986370097 L 596 399.475351669 L 602 380.244215599 L 608 405.608701017 L 614 384.341245668 L 620 407.564271306"/>
			<path class="series-2-line" d="M 40 359.52201791 L 45 434.507286875 L 51 394.853381376 L 57 387.134674478 L 63 389.242182534 L 69 374.972665666 L 75 411.471926061 L 81 407.028624147 L 87 346.903437495 L 93 385.040400382 L 99 381.415949714 L 105 366.327581601 L 111 382.355560841 L 116 372.999151451 L 122 366.918147045 L 128 400.142002455 L 134 380.95937811 L 140 381.429183674 L 146 376.98588176 L 152 410.20973717 L 158 386.114005349 L 164 391.496918389 L 170 407.52489763 L 176 355.588223439 L 182 351.144921525 L 187 333.599999673 L 193 349.627978914 L 199 346.822379492 L 205 339.103672594 L 211 349.399693112 L 217 344.956391198 L 223 356.890114208 L 229 360.635324756 L 235 320.981419257 L 241 354.205274667 L 247 336.660352815 L 253 337.949009625 L 258 329.411451481 L 264 288.938694736 L 270 268.118367899 L 276 248.116892308 L 282 293.623516411 L 288 239.230288481 L 294 225.77962286 L 300 284.387866901 L 306 208.704506571 L 312 215.725122104 L 318 176.890067851 L 324 224.034394446 L 330 158.17724907 L 335 123.436451049 L 341 191.052058798 L 347 211.174294269 L 353 232.115380987 L 359 235.860591535 L 365 251.069719529 L 371 252.358376339 L 377 161.116842332 L 383 137.839961756 L 389 210.368676982 L 395 217.389292515 L 401 309.570437649 L 406 294.482069536 L 412 254.828164037 L 418 335.545391725 L 424 267.23169261 L 430 298.817845528 L 436 301.74420483 L 442 301.395159147 L 448 249.458484956 L 454 348.190440059 L 460 365.856121792 L 466 315.557150093 L 472 339.773641796 L 477 371.359794713 L 483 395.576286416 L 489 369.842852102 L 495 349.841376511 L 501 372.420165721 L 507 358.9695001 L 513 398.744165479 L 519 407.402483504 L 525 380.850197944 L 531 364.124127338 L 537 346.579205486 L 543 356.875226003 L 548 344.243411628 L 554 370.916457069 L 560 353.371535217 L 566 324.362695918 L 572 354.311146344 L 578 344.135885707 L 584 391.280212302 L 590 405.67048905 L 596 390.582120937 L 602 395.965033977 L 608 374.325855894 L 614 410.006265043 L 620 403.106409391"/>
		</g>
		<text class="x-axis-label" x="40.0" y="540">
			0
		</text>
		<path class="x-notch" d="M 69.5918367347 525 L 69.5918367347 530"/>
		<text class="x-axis-label" x="99.1836734694" y="540">
			10
		</text>
		<path class="x-notch" d="M 128.775510204 525 L 128.775510204 530"/>
		<text class="x-axis-label" x="158.367346939" y="540">
			20
		</text>
		<path class="x-notch" d="M 187.959183673 525 L 187.959183673 530"/>
		<text class="x-axis-label" x="217.551020408" y="540">
			30
		</text>
		<path class="x-notch" d="M 247.142857143 525 L 247.142857143 530"/>
		<text class="x-axis-label" x="276.734693878" y="540">
			40
		</text>
		<path class="x-notch" d="M 306.326530612 525 L 306.326530612 530"/>
		<text class="x-axis-label" x="335.918367347" y="540">
			50
		</text>
		<path class="x-notch" d="M 365.510204082 525 L 365.510204082 530"/>
		<text class="x-axis-label" x="395.102040816" y="540">
			60
		</text>
		<path class="x-notch" d="M 424.693877551 525 L 424.693877551 530"/>
		<text class="x-axis-label" x="454.285714286" y="540">
			70
		</text>
		<path class="x-notch" d="M 483.87755102 525 L 483.87755102 530"/>
		<text class="x-axis-label" x="513.469387755" y="540">
			80
		</text>
		<path class="x-notch" d="M 543.06122449 525 L 543.06122449 530"/>
		<text class="x-axis-label" x="572.653061224" y="540">
			90
		</text>
		<path class="x-notch" d="M 602.244897959 525 L 602.244897959 530"/>
	</g>
</svg>
