<?xml version="1.0" ?>
<svg height="600" version="1.1" width="800" xmlns="http://www.w3.org/2000/svg" xmlns:svg="http://www.w3.org/2000/svg">
	<style type="text/css">
		

.x-axis-path, .y-gridline, .x-notch { fill:none; stroke: #a7a9ac; stroke-width:1; }



.y-gridline { stroke-width: 1; }

.y-axis-path, .y-axis-path2, .x-notch-left, .x-notch-right { display: none;}



.x-axis-label, .data-point-label {font-size: 12px; font-weight:normal; font-family: sans-serif; fill: #58595b; text-anchor:middle;}

.y-axis-label {font-size: 12px; font-family: helvetica; fill: #a7a9ac; text-anchor:end;}



.series-1-line { fill: none; stroke: #10b80c; stroke-width:2; }



.series-2-line { fill: none; stroke: #e90f0a; stroke-width: 2;}

	</style>
	<rect fill="white" height="600" width="800" x="0" y="0"/>
	<g id="grid" transform="translate(70, 30)">
		<g class="x-axis" id="x_axis">
			<path class="x-axis-path" d="M 0 525 L 660 525"/>
			<path class="x-notch-left" d="M 0 525, L 0 535"/>
			<path class="x-notch-right" d="M 660 525, L 660 535"/>
		</g>
		<g class="y-axis" id="y_axis">
			<path class="y-axis-path" d="M 0 525 L 0 0"/>
			<path class="y-axis-path-2" d="M 660 525 L 660 0"/>
			<path class="y-gridline" d="M 0 525 L 660 525"/>
			<text class="y-axis-label" x="-5" y="525">
				-100
			</text>
			<path class="y-gridline" d="M 0 420 L 660 420"/>
			<text class="y-axis-label" x="-5" y="420">
				 0
			</text>
			<path class="y-gridline" d="M 0 315 L 660 315"/>
			<text class="y-axis-label" x="-5" y="315">
				100
			</text>
			<path class="y-gridline" d="M 0 210 L 660 210"/>
			<text class="y-axis-label" x="-5" y="210">
				200
			</text>
			<path class="y-gridline" d="M 0 105 L 660 105"/>
			<text class="y-axis-label" x="-5" y="105">
				300
			</text>
			<path class="y-gridline" d="M 0 0 L 660 0"/>
			<text class="y-axis-label" x="-5" y="0">
				400
			</text>
		</g>
		<g>
			<path class="series-1-line" d="M 40 441.005376 L 43 403.266026658 L 47 418.026677316 L 51 434.591227975 L 54 401.024998633 L 58 431.508349291 L 62 405.211479949 L 65 414.129930608 L 69 419.736681266 L 73 436.220591924 L 76 446.054222582 L 80 430.876433241 L 84 426.333463899 L 88 441.201634557 L 91 421.985545215 L 95 418.411515873 L 99 419.630106532 L 102 420.84827719 L 106 415.066727848 L 110 410.227238506 L 113 390.553349165 L 117 411.640879823 L 121 417.166990481 L 124 415.127641139 L 128 444.588291797 L 132 434.983482456 L 136 365.878953114 L 139 425.439323772 L 143 413.78869443 L 147 433.368425089 L 150 427.371415747 L 154 385.001566405 L 158 394.565977063 L 161 413.015067722 L 165 396.49117838 L 169 401.074809038 L 172 388.481699696 L 176 356.853770354 L 180 320.110661013 L 184 347.471311671 L 187 373.889482329 L 191 338.492472987 L 195 334.460643646 L 198 267.967674304 L 202 289.135844962 L 206 242.91585562 L 209 255.091826278 L 213 238.244956937 L 217 222.582487595 L 221 207.431578253 L 224 192.845988911 L 228 170.31819957 L 232 216.578850228 L 235 233.762480886 L 239 214.034831544 L 243 183.483782203 L 246 223.310032861 L 250 189.447703519 L 254 140.561974177 L 257 129.826524835 L 261 105.925755494 L 265 148.174566152 L 269 96.1392568101 L 272 195.249767468 L 276 69.4452381266 L 280 150.840148785 L 283 169.316539443 L 287 137.095990101 L 291 150.402600759 L 294 191.871471418 L 298 197.262762076 L 302 203.757812734 L 305 169.410803392 L 309 143.598614051 L 313 170.205364709 L 317 141.538855367 L 320 166.261066025 L 324 170.844696684 L 328 194.355627342 L 331 150.288978 L 335 133.576508658 L 339 97.7758793165 L 342 157.767169975 L 346 113.539660633 L 350 114.650311291 L 354 159.833661949 L 357 193.682892608 L 361 160.009143266 L 365 124.558373924 L 368 163.926404582 L 372 231.105995241 L 376 189.517345899 L 379 182.093176557 L 383 195.184327215 L 387 227.821857873 L 390 209.628888532 L 394 171.70053919 L 398 123.972749848 L 402 275.314460506 L 405 272.952131165 L 409 287.605261823 L 413 271.889032481 L 416 288.587983139 L 420 310.321893797 L 424 357.982404456 L 427 363.966315114 L 431 385.995905772 L 435 379.24541643 L 438 405.421667089 L 442 378.289837747 L 446 396.066088405 L 450 392.034679063 L 453 360.891009722 L 457 386.34024038 L 461 386.670531038 L 464 409.911821696 L 468 410.968712354 L 472 408.525743013 L 475 409.071073671 L 479 404.204704329 L 483 420.500034987 L 487 409.576005646 L 490 420.998496304 L 494 402.724466962 L 498 423.35419762 L 501 406.614848278 L 505 418.656418937 L 509 410.155369595 L 512 420.123820253 L 516 417.788370911 L 520 430.93370157 L 523 404.017332228 L 527 414.712802886 L 531 429.742673544 L 535 432.199424203 L 538 415.352554861 L 542 417.082285519 L 546 397.085416177 L 549 423.745926835 L 553 426.929697494 L 557 417.998148152 L 560 417.22425881 L 564 419.250089468 L 568 434.118680127 L 571 414.983230785 L 575 422.312821443 L 579 419.385172101 L 583 421.868802759 L 586 401.575833418 L 590 409.336344076 L 594 402.639194734 L 597 414.923105392 L 601 416.141276051 L 605 424.979086709 L 608 427.004917367 L 612 419.311948025 L 616 413.664798684 L 620 418.167789342"/>
			<path class="series-2-line" d="M 40 419.16 L 43 418.04221519 L 47 416.92443038 L 51 421.05664557 L 54 424.138860759 L 58 386.271075949 L 62 401.953291139 L 65 411.335506329 L 69 404.967721519 L 73 421.699936709 L 76 411.132151899 L 80 412.114367089 L 84 433.046582278 L 88 415.128797468 L 91 431.861012658 L 95 424.443227848 L 99 447.475443038 L 102 429.557658228 L 106 438.939873418 L 110 424.172088608 L 113 430.404303797 L 117 425.086518987 L 121 431.318734177 L 124 430.200949367 L 128 429.083164557 L 132 420.615379747 L 136 439.447594937 L 139 411.029810127 L 143 435.112025316 L 147 419.294240506 L 150 421.326455696 L 154 446.458670886 L 158 436.940886076 L 161 433.723101266 L 165 439.955316456 L 169 429.387531646 L 172 436.669746835 L 176 424.001962025 L 180 431.284177215 L 184 430.166392405 L 187 412.248607595 L 191 414.280822785 L 195 396.363037975 L 198 417.295253165 L 202 399.377468354 L 206 410.859683544 L 209 403.441898734 L 213 419.124113924 L 217 413.806329114 L 221 410.588544304 L 224 401.070759494 L 228 402.052974684 L 232 400.935189873 L 235 390.367405063 L 239 404.999620253 L 243 388.131835443 L 246 408.014050633 L 250 416.346265823 L 254 393.178481013 L 257 397.310696203 L 261 407.742911392 L 265 377.225126582 L 269 395.007341772 L 272 380.239556962 L 276 399.071772152 L 280 363.303987342 L 283 396.836202532 L 287 353.718417722 L 291 333.700632911 L 294 384.032848101 L 298 370.315063291 L 302 348.197278481 L 305 350.229493671 L 309 372.211708861 L 313 365.843924051 L 317 341.626139241 L 320 342.60835443 L 324 332.04056962 L 328 358.22278481 L 331 320.355 L 335 315.03721519 L 339 339.11943038 L 342 325.40164557 L 346 353.683860759 L 350 352.566075949 L 354 314.698291139 L 357 325.130506329 L 361 345.012721519 L 365 355.444936709 L 368 323.877151899 L 372 294.409367089 L 376 361.541582278 L 379 340.473797468 L 383 313.106012658 L 387 307.788227848 L 390 328.720443038 L 394 275.102658228 L 398 276.084873418 L 402 303.317088608 L 405 311.649303797 L 409 327.331518987 L 413 330.413734177 L 416 313.545949367 L 420 330.278164557 L 424 315.510379747 L 427 332.242594937 L 431 302.774810127 L 435 340.507025316 L 438 360.389240506 L 442 342.471455696 L 446 362.353670886 L 450 385.385886076 L 453 338.068101266 L 457 348.500316456 L 461 387.282531646 L 464 373.564746835 L 468 380.846962025 L 472 401.779177215 L 475 406.961392405 L 479 396.393607595 L 483 401.575822785 L 487 394.158037975 L 490 422.440253165 L 494 415.022468354 L 498 399.204683544 L 501 398.086898734 L 505 411.669113924 L 509 394.801329114 L 512 404.183544304 L 516 408.315759494 L 520 413.497974684 L 523 402.930189873 L 527 421.762405063 L 531 419.594620253 L 535 413.226835443 L 538 428.909050633 L 542 413.091265823 L 546 428.773481013 L 549 414.005696203 L 553 417.087911392 L 557 426.470126582 L 560 432.702341772 L 564 411.634556962 L 568 434.666772152 L 571 438.798987342 L 575 409.331202532 L 579 423.963417722 L 583 413.395632911 L 586 434.327848101 L 590 419.560063291 L 594 407.942278481 L 597 424.674493671 L 601 406.756708861 L 605 428.738924051 L 608 407.671139241 L 612 428.60335443 L 616 416.98556962 L 620 419.01778481"/>
		</g>
		<text class="x-axis-label" x="40.0" y="540">
			0
		</text>
		<path class="x-notch" d="M 58.4713375796 525 L 58.4713375796 530"/>
		<text class="x-axis-label" x="76.9426751592" y="540">
			10
		</text>
		<path class="x-notch" d="M 95.4140127389 525 L 95.4140127389 530"/>
		<text class="x-axis-label" x="113.885350318" y="540">
			20
		</text>
		<path class="x-notch" d="M 132.356687898 525 L 132.356687898 530"/>
		<text class="x-axis-label" x="150.828025478" y="540">
			30
		</text>
		<path class="x-notch" d="M 169.299363057 525 L 169.299363057 530"/>
		<text class="x-axis-label" x="187.770700637" y="540">
			40
		</text>
		<path class="x-notch" d="M 206.242038217 525 L 206.242038217 530"/>
		<text class="x-axis-label" x="224.713375796" y="540">
			50
		</text>
		<path class="x-notch" d="M 243.184713376 525 L 243.184713376 530"/>
		<text class="x-axis-label" x="261.656050955" y="540">
			60
		</text>
		<path class="x-notch" d="M 280.127388535 525 L 280.127388535 530"/>
		<text class="x-axis-label" x="298.598726115" y="540">
			70
		</text>
		<path class="x-notch" d="M 317.070063694 525 L 317.070063694 530"/>
		<text class="x-axis-label" x="335.541401274" y="540">
			80
		</text>
		<path class="x-notch" d="M 354.012738854 525 L 354.012738854 530"/>
		<text class="x-axis-label" x="372.484076433" y="540">
			90
		</text>
		<path class="x-notch" d="M 390.955414013 525 L 390.955414013 530"/>
		<text class="x-axis-label" x="409.426751592" y="540">
			100
		</text>
		<path class="x-notch" d="M 427.898089172 525 L 427.898089172 530"/>
		<text class="x-axis-label" x="446.369426752" y="540">
			110
		</text>
		<path class="x-notch" d="M 464.840764331 525 L 464.840764331 530"/>
		<text class="x-axis-label" x="483.312101911" y="540">
			120
		</text>
		<path class="x-notch" d="M 501.78343949 525 L 501.78343949 530"/>
		<text class="x-axis-label" x="520.25477707" y="540">
			130
		</text>
		<path class="x-notch" d="M 538.72611465 525 L 538.72611465 530"/>
		<text class="x-axis-label" x="557.197452229" y="540">
			140
		</text>
		<path class="x-notch" d="M 575.668789809 525 L 575.668789809 530"/>
		<text class="x-axis-label" x="594.140127389" y="540">
			150
		</text>
		<path class="x-notch" d="M 612.611464968 525 L 612.611464968 530"/>
	</g>
</svg>
