<?xml version="1.0" ?>
<svg height="600" version="1.1" width="800" xmlns="http://www.w3.org/2000/svg" xmlns:svg="http://www.w3.org/2000/svg">
	<style type="text/css">
		

.x-axis-path, .y-gridline, .x-notch { fill:none; stroke: #a7a9ac; stroke-width:1; }



.y-gridline { stroke-width: 1; }

.y-axis-path, .y-axis-path2, .x-notch-left, .x-notch-right { display: none;}



.x-axis-label, .data-point-label {font-size: 12px; font-weight:normal; font-family: sans-serif; fill: #58595b; text-anchor:middle;}

.y-axis-label {font-size: 12px; font-family: helvetica; fill: #a7a9ac; text-anchor:end;}



.series-1-line { fill: none; stroke: #10b80c; stroke-width:2; }



.series-2-line { fill: none; stroke: #e90f0a; stroke-width: 2;}

	</style>
	<rect fill="white" height="600" width="800" x="0" y="0"/>
	<g id="grid" transform="translate(70, 30)">
		<g class="x-axis" id="x_axis">
			<path class="x-axis-path" d="M 0 525 L 660 525"/>
			<path class="x-notch-left" d="M 0 525, L 0 535"/>
			<path class="x-notch-right" d="M 660 525, L 660 535"/>
		</g>
		<g class="y-axis" id="y_axis">
			<path class="y-axis-path" d="M 0 525 L 0 0"/>
			<path class="y-axis-path-2" d="M 660 525 L 660 0"/>
			<path class="y-gridline" d="M 0 525 L 660 525"/>
			<text class="y-axis-label" x="-5" y="525">
				-100
			</text>
			<path class="y-gridline" d="M 0 420 L 660 420"/>
			<text class="y-axis-label" x="-5" y="420">
				 0
			</text>
			<path class="y-gridline" d="M 0 315 L 660 315"/>
			<text class="y-axis-label" x="-5" y="315">
				100
			</text>
			<path class="y-gridline" d="M 0 210 L 660 210"/>
			<text class="y-axis-label" x="-5" y="210">
				200
			</text>
			<path class="y-gridline" d="M 0 105 L 660 105"/>
			<text class="y-axis-label" x="-5" y="105">
				300
			</text>
			<path class="y-gridline" d="M 0 0 L 660 0"/>
			<text class="y-axis-label" x="-5" y="0">
				400
			</text>
		</g>
		<g>
			<path class="series-1-line" d="M 40 414.27078 L 42 409.71456412 L 45 420.31572824 L 47 432.667032361 L 50 422.968336481 L 52 418.089140601 L 55 420.774984721 L 57 373.303588841 L 60 418.123832961 L 62 401.640457082 L 65 404.918921202 L 67 391.531785322 L 70 408.755929442 L 72 403.069073562 L 75 383.193357682 L 77 369.240901803 L 80 412.203905923 L 82 385.732090043 L 85 392.510414163 L 87 410.703918283 L 90 413.497702403 L 92 380.294966524 L 95 394.154070644 L 97 396.974734764 L 100 381.837458884 L 102 416.804083004 L 105 407.159567124 L 107 398.106831245 L 110 392.285155365 L 112 397.044119485 L 115 373.561023605 L 117 361.519987725 L 120 372.067391845 L 122 364.414935966 L 125 430.316240086 L 127 361.225344206 L 130 322.880548326 L 132 339.135752446 L 135 365.864076567 L 137 331.315240687 L 140 340.785764807 L 142 334.883448927 L 145 334.930853047 L 147 336.404997167 L 150 302.072041288 L 152 262.003985408 L 155 298.963089528 L 157 259.756873648 L 160 223.457897768 L 162 238.070901888 L 165 215.529866009 L 167 222.900390129 L 170 264.571054249 L 172 258.776258369 L 175 251.500542489 L 177 244.063546609 L 180 236.33003073 L 182 203.26211485 L 185 206.24447897 L 187 232.24578309 L 190 200.17410721 L 192 227.27917133 L 195 206.838135451 L 197 193.532059571 L 200 171.583223691 L 202 170.230767811 L 205 152.132071931 L 207 197.356356052 L 210 117.469360172 L 212 117.974564292 L 215 166.402608412 L 217 161.550292532 L 220 154.543796652 L 222 129.041340773 L 225 160.857964893 L 227 78.6017490129 L 230 88.287733133 L 232 146.892797253 L 235 52.5750213734 L 237 113.872285494 L 240 24.2391896137 L 242 53.5521937339 L 245 31.0111578541 L 247 76.8545219742 L 250 43.0331260944 L 252 52.4767702146 L 255 40.4357343348 L 257 63.4483184549 L 260 99.0344425751 L 262 110.039646695 L 265 43.4254908155 L 267 76.1577149356 L 270 85.3590190558 L 272 64.352663176 L 275 52.5002072961 L 277 99.5821514163 L 280 41.7451555365 L 282 9.75411965665 L 285 110.816983777 L 287 98.156867897 L 290 101.031292017 L 292 74.4788361373 L 295 123.607020258 L 297 165.843004378 L 300 133.340408498 L 302 83.714832618 L 305 16.3198967382 L 307 83.8907008584 L 310 14.3420049785 L 312 32.3742290987 L 315 113.190573219 L 317 113.238397339 L 320 96.7550214592 L 322 130.644765579 L 325 119.4655697 L 327 194.03609382 L 330 191.95661794 L 332 89.3463620601 L 335 129.40170618 L 337 139.9491103 L 340 147.104174421 L 342 133.690158541 L 345 142.676002661 L 347 213.746666781 L 350 143.147970901 L 352 161.260835021 L 355 190.439019142 L 357 211.836703262 L 360 211.157087382 L 362 110.027751502 L 365 190.279195622 L 367 192.076739742 L 370 206.339463863 L 372 205.283107983 L 375 220.192212103 L 377 188.416636223 L 380 245.271560343 L 382 216.511584464 L 385 231.232108584 L 387 189.225752704 L 390 200.984856824 L 392 197.774740944 L 395 221.729805064 L 397 256.534729185 L 400 252.274613305 L 402 263.252937425 L 405 251.508001545 L 407 256.348025665 L 410 270.234009785 L 412 230.569993906 L 415 295.340658026 L 417 246.091822146 L 420 254.700926266 L 422 282.667410386 L 425 278.568994506 L 427 339.031718627 L 430 325.294722747 L 432 274.969006867 L 435 271.193570987 L 437 316.713955107 L 440 350.765399227 L 442 341.820603348 L 445 359.852827468 L 447 362.834771588 L 450 405.582315708 L 452 379.325959828 L 455 369.142583948 L 457 374.521048069 L 460 370.341572189 L 462 395.077416309 L 465 388.501840429 L 467 392.884064549 L 470 433.45054867 L 472 438.47873279 L 475 420.67655691 L 477 390.54318103 L 480 393.39072515 L 482 421.78812927 L 485 437.155033391 L 487 435.129317511 L 490 387.092181631 L 492 425.962705751 L 495 396.771809871 L 497 408.019353991 L 500 392.801438112 L 502 409.864302232 L 505 412.738726352 L 507 413.728610472 L 510 404.864454592 L 512 428.738878712 L 515 405.793802833 L 517 377.814606953 L 520 391.889171073 L 522 409.597995193 L 525 412.149439313 L 527 410.258543433 L 530 381.390627554 L 532 438.084271674 L 535 406.362455794 L 537 410.825319914 L 540 364.618964034 L 542 404.781828155 L 545 417.940792275 L 547 391.657556395 L 550 408.451200515 L 552 392.425624635 L 555 429.680828755 L 557 402.455112876 L 560 394.775776996 L 562 411.838641116 L 565 383.886325236 L 567 438.776069356 L 570 399.300633476 L 572 407.640097597 L 575 425.752961717 L 577 397.558305837 L 580 419.898049957 L 582 402.095454077 L 585 424.219738197 L 587 405.178982318 L 590 425.149506438 L 592 387.343150558 L 595 388.656014678 L 597 429.545898798 L 600 419.874082918 L 602 433.544607039 L 605 420.803851159 L 607 409.866575279 L 610 420.360219399 L 612 411.146203519 L 615 416.659067639 L 617 412.47959176 L 620 439.45025588"/>
			<path class="series-2-line" d="M 40 421.05 L 42 434.636909871 L 45 417.773819742 L 47 414.560729614 L 50 411.347639485 L 52 434.384549356 L 55 423.821459227 L 57 457.358369099 L 60 425.79527897 L 62 416.282188841 L 65 436.169098712 L 67 435.056008584 L 70 408.742918455 L 72 434.929828326 L 75 422.266738197 L 77 427.453648069 L 80 439.99055794 L 82 432.577467811 L 85 438.814377682 L 87 425.101287554 L 90 438.688197425 L 92 416.575107296 L 95 423.862017167 L 97 433.248927039 L 100 418.48583691 L 102 408.972746781 L 105 438.309656652 L 107 416.196566524 L 110 422.433476395 L 112 416.070386266 L 115 433.857296137 L 117 427.494206009 L 120 419.03111588 L 122 424.218025751 L 125 421.004935622 L 127 428.291845494 L 130 430.328755365 L 132 432.365665236 L 135 438.602575107 L 137 421.739484979 L 140 417.47639485 L 142 436.313304721 L 145 427.850214592 L 147 401.537124464 L 150 432.974034335 L 152 417.160944206 L 155 424.447854077 L 157 438.034763948 L 160 407.52167382 L 162 420.058583691 L 165 413.695493562 L 167 409.432403433 L 170 418.819313305 L 172 420.856223176 L 175 408.193133047 L 177 420.730042918 L 180 397.56695279 L 182 395.403862661 L 185 420.540772532 L 187 417.327682403 L 190 423.564592275 L 192 411.951502146 L 195 405.588412017 L 197 432.825321888 L 200 415.96223176 L 202 421.149141631 L 205 417.936051502 L 207 405.272961373 L 210 417.809871245 L 212 419.846781116 L 215 398.783690987 L 217 417.620600858 L 220 403.90751073 L 222 409.094420601 L 225 399.581330472 L 227 413.168240343 L 230 416.255150215 L 232 404.642060086 L 235 416.128969957 L 237 394.015879828 L 240 411.8027897 L 242 424.339699571 L 245 417.976609442 L 247 390.613519313 L 250 424.150429185 L 252 424.087339056 L 255 417.724248927 L 257 389.311158798 L 260 406.04806867 L 262 408.084978541 L 265 397.521888412 L 267 409.008798283 L 270 405.795708155 L 272 405.732618026 L 275 410.919527897 L 277 395.106437768 L 280 407.643347639 L 282 401.280257511 L 285 400.167167382 L 287 408.504077253 L 290 409.490987124 L 292 414.677896996 L 295 407.264806867 L 297 410.351716738 L 300 401.888626609 L 302 402.875536481 L 305 391.262446352 L 307 414.299356223 L 310 411.086266094 L 312 422.573175966 L 315 385.760085837 L 317 418.246995708 L 320 408.733905579 L 322 403.420815451 L 325 426.457725322 L 327 422.194635193 L 330 417.931545064 L 332 412.618454936 L 335 428.305364807 L 337 419.842274678 L 340 408.229184549 L 342 411.316094421 L 345 400.753004292 L 347 410.139914163 L 350 406.926824034 L 352 405.813733906 L 355 398.400643777 L 357 417.237553648 L 360 399.324463519 L 362 408.711373391 L 365 419.148283262 L 367 424.335193133 L 370 409.572103004 L 372 409.509012876 L 375 416.795922747 L 377 417.782832618 L 380 392.519742489 L 382 414.506652361 L 385 410.243562232 L 387 410.180472103 L 390 417.467381974 L 392 425.804291845 L 395 414.191201717 L 397 388.928111588 L 400 397.265021459 L 402 403.50193133 L 405 391.888841202 L 407 413.875751073 L 410 416.962660944 L 412 420.049570815 L 415 429.436480687 L 417 412.573390558 L 420 419.860300429 L 422 396.6972103 L 425 420.784120172 L 427 406.021030043 L 430 418.557939914 L 432 405.894849785 L 435 420.531759657 L 437 402.618669528 L 440 413.055579399 L 442 415.09248927 L 445 426.579399142 L 447 410.766309013 L 450 415.953218884 L 452 415.890128755 L 455 406.377038627 L 457 426.263948498 L 460 422.000858369 L 462 411.43776824 L 465 412.424678112 L 467 423.911587983 L 470 400.748497854 L 472 393.335407725 L 475 425.822317597 L 477 416.309227468 L 480 421.496137339 L 482 413.03304721 L 485 430.819957082 L 487 418.156866953 L 490 417.043776824 L 492 412.780686695 L 495 420.067596567 L 497 425.254506438 L 500 423.091416309 L 502 421.97832618 L 505 422.965236052 L 507 431.302145923 L 510 420.739055794 L 512 421.725965665 L 515 396.462875536 L 517 419.499785408 L 520 434.136695279 L 522 414.12360515 L 525 424.560515021 L 527 431.847424893 L 530 429.684334764 L 532 429.621244635 L 535 422.208154506 L 537 421.095064378 L 540 421.031974249 L 542 419.91888412 L 545 413.555793991 L 547 417.692703863 L 550 417.629613734 L 552 418.616523605 L 555 420.653433476 L 557 407.990343348 L 560 417.377253219 L 562 416.26416309 L 565 435.101072961 L 567 429.787982833 L 570 444.424892704 L 572 411.811802575 L 575 410.698712446 L 577 426.385622318 L 580 421.072532189 L 582 412.60944206 L 585 399.946351931 L 587 420.883261803 L 590 416.620171674 L 592 416.557081545 L 595 415.443991416 L 597 423.780901288 L 600 416.367811159 L 602 412.10472103 L 605 433.041630901 L 607 418.278540773 L 610 418.215450644 L 612 421.302360515 L 615 420.189270386 L 617 415.926180258 L 620 425.313090129"/>
		</g>
		<text class="x-axis-label" x="40.0" y="540">
			0
		</text>
		<path class="x-notch" d="M 52.5 525 L 52.5 530"/>
		<text class="x-axis-label" x="65.0" y="540">
			10
		</text>
		<path class="x-notch" d="M 77.5 525 L 77.5 530"/>
		<text class="x-axis-label" x="90.0" y="540">
			20
		</text>
		<path class="x-notch" d="M 102.5 525 L 102.5 530"/>
		<text class="x-axis-label" x="115.0" y="540">
			30
		</text>
		<path class="x-notch" d="M 127.5 525 L 127.5 530"/>
		<text class="x-axis-label" x="140.0" y="540">
			40
		</text>
		<path class="x-notch" d="M 152.5 525 L 152.5 530"/>
		<text class="x-axis-label" x="165.0" y="540">
			50
		</text>
		<path class="x-notch" d="M 177.5 525 L 177.5 530"/>
		<text class="x-axis-label" x="190.0" y="540">
			60
		</text>
		<path class="x-notch" d="M 202.5 525 L 202.5 530"/>
		<text class="x-axis-label" x="215.0" y="540">
			70
		</text>
		<path class="x-notch" d="M 227.5 525 L 227.5 530"/>
		<text class="x-axis-label" x="240.0" y="540">
			80
		</text>
		<path class="x-notch" d="M 252.5 525 L 252.5 530"/>
		<text class="x-axis-label" x="265.0" y="540">
			90
		</text>
		<path class="x-notch" d="M 277.5 525 L 277.5 530"/>
		<text class="x-axis-label" x="290.0" y="540">
			100
		</text>
		<path class="x-notch" d="M 302.5 525 L 302.5 530"/>
		<text class="x-axis-label" x="315.0" y="540">
			110
		</text>
		<path class="x-notch" d="M 327.5 525 L 327.5 530"/>
		<text class="x-axis-label" x="340.0" y="540">
			120
		</text>
		<path class="x-notch" d="M 352.5 525 L 352.5 530"/>
		<text class="x-axis-label" x="365.0" y="540">
			130
		</text>
		<path class="x-notch" d="M 377.5 525 L 377.5 530"/>
		<text class="x-axis-label" x="390.0" y="540">
			140
		</text>
		<path class="x-notch" d="M 402.5 525 L 402.5 530"/>
		<text class="x-axis-label" x="415.0" y="540">
			150
		</text>
		<path class="x-notch" d="M 427.5 525 L 427.5 530"/>
		<text class="x-axis-label" x="440.0" y="540">
			160
		</text>
		<path class="x-notch" d="M 452.5 525 L 452.5 530"/>
		<text class="x-axis-label" x="465.0" y="540">
			170
		</text>
		<path class="x-notch" d="M 477.5 525 L 477.5 530"/>
		<text class="x-axis-label" x="490.0" y="540">
			180
		</text>
		<path class="x-notch" d="M 502.5 525 L 502.5 530"/>
		<text class="x-axis-label" x="515.0" y="540">
			190
		</text>
		<path class="x-notch" d="M 527.5 525 L 527.5 530"/>
		<text class="x-axis-label" x="540.0" y="540">
			200
		</text>
		<path class="x-notch" d="M 552.5 525 L 552.5 530"/>
		<text class="x-axis-label" x="565.0" y="540">
			210
		</text>
		<path class="x-notch" d="M 577.5 525 L 577.5 530"/>
		<text class="x-axis-label" x="590.0" y="540">
			220
		</text>
		<path class="x-notch" d="M 602.5 525 L 602.5 530"/>
		<text class="x-axis-label" x="615.0" y="540">
			230
		</text>
		<path class="x-notch" d="M 627.5 525 L 627.5 530"/>
	</g>
</svg>
