<?xml version="1.0" ?>
<svg height="600" version="1.1" width="800" xmlns="http://www.w3.org/2000/svg" xmlns:svg="http://www.w3.org/2000/svg">
	<style type="text/css">

.x-axis-path, .y-gridline, .x-notch { fill:none; stroke: #a7a9ac; stroke-width:1; }



.y-gridline { stroke-width: 1; }

.y-axis-path, .y-axis-path2, .x-notch-left, .x-notch-right { display: none;}



.x-axis-label, .data-point-label {font-size: 12px; font-weight:normal; font-family: sans-serif; fill: #58595b; text-anchor:middle;}

.y-axis-label {font-size: 12px; font-family: helvetica; fill: #a7a9ac; text-anchor:end;}



.series-1-line { fill: none; stroke: #10b80c; stroke-width:2; }



.series-2-line { fill: none; stroke: #e90f0a; stroke-width: 2;}
</style>
	<rect fill="white" height="600" width="800" x="0" y="0"/>
	<g id="grid" transform="translate(70, 30)">
		<g class="x-axis" id="x_axis">
			<path class="x-axis-path" d="M 0 525 L 660 525"/>
			<path class="x-notch-left" d="M 0 525, L 0 535"/>
			<path class="x-notch-right" d="M 660 525, L 660 535"/>
		</g>
		<g class="y-axis" id="y_axis">
			<path class="y-axis-path" d="M 0 525 L 0 0"/>
			<path class="y-axis-path-2" d="M 660 525 L 660 0"/>
			<path class="y-gridline" d="M 0 525 L 660 525"/>
			<text class="y-axis-label" x="-5" y="525">-200</text>
			<path class="y-gridline" d="M 0 394 L 660 394"/>
			<text class="y-axis-label" x="-5" y="394"> 0</text>
			<path class="y-gridline" d="M 0 263 L 660 263"/>
			<text class="y-axis-label" x="-5" y="263">200</text>
			<path class="y-gridline" d="M 0 132 L 660 132"/>
			<text class="y-axis-label" x="-5" y="132">400</text>
			<path class="y-gridline" d="M 0 1 L 660 1"/>
			<text class="y-axis-label" x="-5" y="1">600</text>
		</g>
		<g>
			<path class="series-1-line" d="M 40 390.497078314 L 48 342.288432152 L 56 387.366490691 L 64 416.943291069 L 72 425.712710365 L 80 406.287400651 L 88 363.27992351 L 96 380.095087104 L 104 428.051803888 L 112 391.181965872 L 120 364.543510062 L 128 382.606759461 L 136 342.374068665 L 144 327.527237568 L 152 226.675554799 L 160 211.479779036 L 168 159.041057924 L 176 202.627580891 L 185 192.045448711 L 193 125.699253912 L 201 128.885558552 L 209 139.665331923 L 217 29.6220679536 L 225 0.0 L 233 122.552971376 L 241 81.6959671767 L 249 35.2904722891 L 257 7.75071134221 L 265 112.789906483 L 273 83.0650486277 L 281 50.4966974945 L 289 95.1592684313 L 297 85.89501099 L 305 9.76916855249 L 313 100.485943403 L 321 132.24784069 L 330 90.245540587 L 338 3.16121263966 L 346 20.8782223703 L 354 45.0444869274 L 362 141.2756695 L 370 177.026355967 L 378 161.762414269 L 386 182.461413145 L 394 177.012284052 L 402 217.548110939 L 410 129.456441956 L 418 218.439313467 L 426 189.477805881 L 434 148.86316945 L 442 291.738786372 L 450 389.253219716 L 458 379.746594506 L 466 337.294182835 L 475 355.010651566 L 483 338.256256294 L 491 388.363446019 L 499 370.880865445 L 507 374.343620821 L 515 407.561347713 L 523 415.88011444 L 531 371.069486026 L 539 369.539357181 L 547 385.105893971 L 555 384.129748595 L 563 396.366974572 L 571 392.062600382 L 579 341.391324578 L 587 369.546378317 L 595 392.880585671 L 603 399.742440792 L 611 411.668051067 L 620 403.825540265"/>
			<path class="series-2-line" d="M 40 394.831998964 L 48 438.753004866 L 56 382.589106574 L 64 371.057665558 L 72 387.928697353 L 80 372.339760221 L 88 343.225836036 L 96 370.916857474 L 104 340.450434583 L 112 250.474068659 L 120 252.467614696 L 128 243.64117109 L 136 256.45470677 L 144 317.95819584 L 152 398.396666785 L 160 250.262856532 L 168 373.981286047 L 176 286.709917534 L 185 263.00598817 L 193 287.992012197 L 201 331.913018098 L 209 245.99414829 L 217 177.657761651 L 225 64.6889177363 L 233 107.257424932 L 241 111.95596838 L 249 138.294491112 L 257 175.453003487 L 265 154.454071534 L 273 163.210111097 L 281 193.606129946 L 289 202.362169509 L 297 184.068234966 L 305 204.996762877 L 313 202.932812798 L 321 219.803844594 L 330 139.294969607 L 338 181.863476803 L 346 227.13698141 L 354 162.858090886 L 362 197.311605851 L 370 277.750076795 L 378 245.931155199 L 386 247.924701236 L 394 267.500730442 L 402 287.076759648 L 410 170.050419618 L 418 174.748963065 L 426 222.727465083 L 434 189.556044781 L 442 279.462006663 L 450 324.73551127 L 458 344.311540476 L 466 334.132598165 L 475 326.658653265 L 483 369.227160461 L 491 372.573205203 L 499 423.256704631 L 507 371.150302456 L 515 319.04390028 L 523 353.497415244 L 531 341.965974228 L 539 383.181982719 L 547 394.643019693 L 555 349.299111044 L 563 352.645155786 L 571 404.68115392 L 579 410.732196072 L 587 410.020744699 L 595 370.086830871 L 603 368.022880792 L 611 420.058878925 L 620 390.94495474"/>
		</g>
		<text class="x-axis-label" x="40.0" y="540">0</text>
		<path class="x-notch" d="M 80.2777777778 525 L 80.2777777778 530"/>
		<text class="x-axis-label" x="120.555555556" y="540">10</text>
		<path class="x-notch" d="M 160.833333333 525 L 160.833333333 530"/>
		<text class="x-axis-label" x="201.111111111" y="540">20</text>
		<path class="x-notch" d="M 241.388888889 525 L 241.388888889 530"/>
		<text class="x-axis-label" x="281.666666667" y="540">30</text>
		<path class="x-notch" d="M 321.944444444 525 L 321.944444444 530"/>
		<text class="x-axis-label" x="362.222222222" y="540">40</text>
		<path class="x-notch" d="M 402.5 525 L 402.5 530"/>
		<text class="x-axis-label" x="442.777777778" y="540">50</text>
		<path class="x-notch" d="M 483.055555556 525 L 483.055555556 530"/>
		<text class="x-axis-label" x="523.333333333" y="540">60</text>
		<path class="x-notch" d="M 563.611111111 525 L 563.611111111 530"/>
		<text class="x-axis-label" x="603.888888889" y="540">70</text>
		<path class="x-notch" d="M 644.166666667 525 L 644.166666667 530"/>
	</g>
</svg>
