<?xml version="1.0" ?>
<svg height="600" version="1.1" width="800" xmlns="http://www.w3.org/2000/svg" xmlns:svg="http://www.w3.org/2000/svg">
	<style type="text/css">
		

.x-axis-path, .y-gridline, .x-notch { fill:none; stroke: #a7a9ac; stroke-width:1; }



.y-gridline { stroke-width: 1; }

.y-axis-path, .y-axis-path2, .x-notch-left, .x-notch-right { display: none;}



.x-axis-label, .data-point-label {font-size: 12px; font-weight:normal; font-family: sans-serif; fill: #58595b; text-anchor:middle;}

.y-axis-label {font-size: 12px; font-family: helvetica; fill: #a7a9ac; text-anchor:end;}



.series-1-line { fill: none; stroke: #10b80c; stroke-width:2; }



.series-2-line { fill: none; stroke: #e90f0a; stroke-width: 2;}

	</style>
	<rect fill="white" height="600" width="800" x="0" y="0"/>
	<g id="grid" transform="translate(70, 30)">
		<g class="x-axis" id="x_axis">
			<path class="x-axis-path" d="M 0 525 L 660 525"/>
			<path class="x-notch-left" d="M 0 525, L 0 535"/>
			<path class="x-notch-right" d="M 660 525, L 660 535"/>
		</g>
		<g class="y-axis" id="y_axis">
			<path class="y-axis-path" d="M 0 525 L 0 0"/>
			<path class="y-axis-path-2" d="M 660 525 L 660 0"/>
			<path class="y-gridline" d="M 0 525 L 660 525"/>
			<text class="y-axis-label" x="-5" y="525">
				-100
			</text>
			<path class="y-gridline" d="M 0 394 L 660 394"/>
			<text class="y-axis-label" x="-5" y="394">
				 0
			</text>
			<path class="y-gridline" d="M 0 263 L 660 263"/>
			<text class="y-axis-label" x="-5" y="263">
				100
			</text>
			<path class="y-gridline" d="M 0 132 L 660 132"/>
			<text class="y-axis-label" x="-5" y="132">
				200
			</text>
			<path class="y-gridline" d="M 0 1 L 660 1"/>
			<text class="y-axis-label" x="-5" y="1">
				300
			</text>
		</g>
		<g>
			<path class="series-1-line" d="M 40 390.59328 L 48 343.810353082 L 56 387.555276164 L 64 416.257374247 L 72 424.767447329 L 80 405.916620411 L 88 364.181043493 L 96 380.498916575 L 104 427.037364658 L 112 391.25791274 L 120 365.407260822 L 128 382.936308904 L 136 343.893456986 L 144 329.485705068 L 152 231.616603151 L 160 216.870226233 L 168 165.982324315 L 176 208.279822397 L 185 198.010645479 L 193 133.626568562 L 201 136.718641644 L 209 147.179614726 L 217 40.3907628082 L 225 11.6447358904 L 233 130.573333973 L 241 90.9246320548 L 249 45.891530137 L 257 19.1662282192 L 265 121.099001301 L 273 92.2532243836 L 281 60.6480474658 L 289 103.989770548 L 297 94.9994936301 L 305 21.1249917123 L 313 109.158914795 L 321 139.981487877 L 330 99.2213609589 L 338 14.7124590411 L 346 31.9055071233 L 354 55.3570802055 L 362 148.742328288 L 370 183.43572637 L 378 168.623199452 L 386 188.710047534 L 394 183.422070616 L 402 222.759093699 L 410 137.272641781 L 418 223.623939863 L 426 195.518937945 L 434 156.105436027 L 442 294.75565911 L 450 389.386207192 L 458 380.160730274 L 466 338.963803356 L 475 356.156326438 L 483 339.897424521 L 491 388.522747603 L 499 371.557195685 L 507 374.917543767 L 515 407.152891849 L 523 415.225639932 L 531 371.740238014 L 539 370.255361096 L 547 385.361534178 L 555 384.41425726 L 563 396.289580342 L 571 392.112503425 L 579 342.939776507 L 587 370.262174589 L 595 392.906297671 L 603 399.565220753 L 611 411.138143836 L 620 403.527566918"/>
			<path class="series-2-line" d="M 40 394.8 L 48 437.422089041 L 56 382.919178082 L 64 371.728767123 L 72 388.100856164 L 80 372.972945205 L 88 344.720034247 L 96 371.592123288 L 104 342.026712329 L 112 254.71130137 L 120 256.645890411 L 128 248.080479452 L 136 260.515068493 L 144 320.199657534 L 152 398.259246575 L 160 254.506335616 L 168 374.565924658 L 176 289.875513699 L 185 266.87260274 L 193 291.119691781 L 201 333.741780822 L 209 250.363869863 L 217 184.048458904 L 225 74.4205479452 L 233 115.730136986 L 241 120.289726027 L 249 145.849315068 L 257 181.90890411 L 265 161.530993151 L 273 170.028082192 L 281 199.525171233 L 289 208.022260274 L 297 190.269349315 L 305 210.578938356 L 313 208.576027397 L 321 224.948116438 L 330 146.820205479 L 338 188.129794521 L 346 232.064383562 L 354 169.686472603 L 362 203.121061644 L 370 281.180650685 L 378 250.302739726 L 386 252.237328767 L 394 271.234417808 L 402 290.231506849 L 410 176.66609589 L 418 181.225684932 L 426 227.785273973 L 434 195.594863014 L 442 282.841952055 L 450 326.776541096 L 458 345.773630137 L 466 335.895719178 L 475 328.642808219 L 483 369.95239726 L 491 373.199486301 L 499 422.384075342 L 507 371.818664384 L 515 321.253253425 L 523 354.687842466 L 531 343.497431507 L 539 383.494520548 L 547 394.616609589 L 555 350.61369863 L 563 353.860787671 L 571 404.357876712 L 579 410.229965753 L 587 409.539554795 L 595 370.786643836 L 603 368.783732877 L 611 419.280821918 L 620 391.027910959"/>
		</g>
		<text class="x-axis-label" x="40.0" y="540">
			0
		</text>
		<path class="x-notch" d="M 80.2777777778 525 L 80.2777777778 530"/>
		<text class="x-axis-label" x="120.555555556" y="540">
			10
		</text>
		<path class="x-notch" d="M 160.833333333 525 L 160.833333333 530"/>
		<text class="x-axis-label" x="201.111111111" y="540">
			20
		</text>
		<path class="x-notch" d="M 241.388888889 525 L 241.388888889 530"/>
		<text class="x-axis-label" x="281.666666667" y="540">
			30
		</text>
		<path class="x-notch" d="M 321.944444444 525 L 321.944444444 530"/>
		<text class="x-axis-label" x="362.222222222" y="540">
			40
		</text>
		<path class="x-notch" d="M 402.5 525 L 402.5 530"/>
		<text class="x-axis-label" x="442.777777778" y="540">
			50
		</text>
		<path class="x-notch" d="M 483.055555556 525 L 483.055555556 530"/>
		<text class="x-axis-label" x="523.333333333" y="540">
			60
		</text>
		<path class="x-notch" d="M 563.611111111 525 L 563.611111111 530"/>
		<text class="x-axis-label" x="603.888888889" y="540">
			70
		</text>
		<path class="x-notch" d="M 644.166666667 525 L 644.166666667 530"/>
	</g>
</svg>
