<?xml version="1.0" ?>
<svg height="600" version="1.1" width="800" xmlns="http://www.w3.org/2000/svg" xmlns:svg="http://www.w3.org/2000/svg">
	<style type="text/css">
		

.x-axis-path, .y-gridline, .x-notch { fill:none; stroke: #a7a9ac; stroke-width:1; }



.y-gridline { stroke-width: 1; }

.y-axis-path, .y-axis-path2, .x-notch-left, .x-notch-right { display: none;}



.x-axis-label, .data-point-label {font-size: 12px; font-weight:normal; font-family: sans-serif; fill: #58595b; text-anchor:middle;}

.y-axis-label {font-size: 12px; font-family: helvetica; fill: #a7a9ac; text-anchor:end;}



.series-1-line { fill: none; stroke: #10b80c; stroke-width:2; }



.series-2-line { fill: none; stroke: #e90f0a; stroke-width: 2;}

	</style>
	<rect fill="white" height="600" width="800" x="0" y="0"/>
	<g id="grid" transform="translate(70, 30)">
		<g class="x-axis" id="x_axis">
			<path class="x-axis-path" d="M 0 525 L 660 525"/>
			<path class="x-notch-left" d="M 0 525, L 0 535"/>
			<path class="x-notch-right" d="M 660 525, L 660 535"/>
		</g>
		<g class="y-axis" id="y_axis">
			<path class="y-axis-path" d="M 0 525 L 0 0"/>
			<path class="y-axis-path-2" d="M 660 525 L 660 0"/>
			<path class="y-gridline" d="M 0 525 L 660 525"/>
			<text class="y-axis-label" x="-5" y="525">
				-200
			</text>
			<path class="y-gridline" d="M 0 394 L 660 394"/>
			<text class="y-axis-label" x="-5" y="394">
				 0
			</text>
			<path class="y-gridline" d="M 0 263 L 660 263"/>
			<text class="y-axis-label" x="-5" y="263">
				200
			</text>
			<path class="y-gridline" d="M 0 132 L 660 132"/>
			<text class="y-axis-label" x="-5" y="132">
				400
			</text>
			<path class="y-gridline" d="M 0 1 L 660 1"/>
			<text class="y-axis-label" x="-5" y="1">
				600
			</text>
		</g>
		<g>
			<path class="series-1-line" d="M 40 405.536441615 L 46 409.503861464 L 52 377.818722288 L 58 394.692772435 L 64 377.673502244 L 70 394.534032586 L 76 371.582271753 L 82 387.989576615 L 88 381.463755443 L 94 391.124469377 L 101 387.105428136 L 107 388.8060966 L 113 401.093396742 L 119 360.688399029 L 125 382.162302992 L 131 387.12998045 L 137 394.763763547 L 143 391.904721617 L 149 383.672285 L 156 394.452854821 L 162 369.660944464 L 168 356.78830261 L 174 313.530001951 L 180 270.65815973 L 186 217.119606984 L 192 181.261215853 L 198 168.255455916 L 204 114.530537851 L 210 121.190894954 L 217 72.8522673908 L 223 54.1401095574 L 229 48.9479651961 L 235 28.195356721 L 241 24.976271971 L 247 108.035801832 L 253 6.05786603853 L 259 27.2380782278 L 265 80.2310166909 L 272 0.0 L 278 48.3404614036 L 284 64.3608918326 L 290 111.368092419 L 296 252.960892095 L 302 251.675139527 L 308 287.428870031 L 314 322.02218523 L 320 288.670366035 L 326 332.637274366 L 333 331.045142207 L 339 309.746125594 L 345 332.380028867 L 351 335.16082579 L 357 350.141271182 L 363 309.923054781 L 369 340.462924302 L 375 316.724726784 L 381 349.864974891 L 388 329.459513421 L 394 342.613537092 L 400 343.434586212 L 406 348.841761346 L 412 352.129238979 L 418 331.816960168 L 424 359.397240273 L 430 375.657907245 L 436 326.786391349 L 442 360.273370467 L 449 354.4143877 L 455 366.355580822 L 461 382.322764017 L 467 349.450793917 L 473 389.48447884 L 479 389.238711309 L 485 375.459826495 L 491 390.146996107 L 497 385.501051887 L 504 375.069046918 L 510 386.569494381 L 516 364.737381438 L 522 364.251585361 L 528 346.805921305 L 534 366.026593688 L 540 369.087354583 L 546 385.201591662 L 552 395.715301323 L 558 375.976470262 L 565 378.317561511 L 571 387.498218352 L 577 386.839160768 L 583 395.686606402 L 589 381.467807918 L 595 397.31497684 L 601 392.109312673 L 607 393.916683602 L 613 395.844276801 L 620 394.851800014"/>
			<path class="series-2-line" d="M 40 388.34207781 L 46 383.384815802 L 52 403.90718719 L 58 413.509715694 L 64 376.832910072 L 70 368.235700437 L 76 405.397832409 L 82 406.680480621 L 88 396.003300913 L 94 395.205979051 L 101 399.088589854 L 107 382.691492445 L 113 377.734230437 L 119 399.81657938 L 125 401.61922011 L 131 423.181576534 L 137 393.784666168 L 143 399.227254526 L 149 391.150037409 L 156 377.872895109 L 162 397.875273978 L 168 363.278438429 L 174 384.320802335 L 180 385.603450547 L 186 367.646375583 L 192 390.248717044 L 198 376.451582226 L 204 387.614088284 L 210 347.817327553 L 217 329.860252588 L 223 334.26285591 L 229 358.945167444 L 235 316.548444121 L 241 317.311099814 L 247 304.033957514 L 253 278.276994776 L 259 244.720144264 L 265 196.60350324 L 272 225.965747438 L 278 254.807999118 L 284 235.290946599 L 290 269.333123462 L 296 331.974888829 L 302 335.337507114 L 308 340.260102954 L 314 303.063304814 L 320 319.945728573 L 326 321.228376785 L 333 352.150598538 L 339 334.193523574 L 345 337.556141859 L 351 335.198842443 L 357 315.681789924 L 363 349.203974268 L 369 295.367415543 L 375 353.849240765 L 381 340.572098465 L 388 345.494694304 L 394 347.297335034 L 400 366.779721386 L 406 339.982773611 L 412 339.705444268 L 418 330.068249596 L 424 312.111174632 L 430 315.993785435 L 436 340.676096969 L 442 334.158857406 L 449 341.161423319 L 455 390.283383212 L 461 379.086210985 L 467 381.928836751 L 473 388.411410146 L 479 391.774028431 L 485 397.216616788 L 491 382.899489452 L 497 362.862444415 L 504 393.784666168 L 510 369.587680984 L 516 373.990284306 L 522 374.232947481 L 528 363.555767772 L 534 372.11831124 L 540 366.641056714 L 546 393.403338321 L 552 360.886472845 L 558 363.209106094 L 565 388.931402664 L 571 381.894170583 L 577 388.896736496 L 583 393.299339817 L 589 406.541815949 L 595 393.784666168 L 601 400.267239562 L 607 387.510089781 L 613 396.592625767 L 620 394.755318869"/>
		</g>
		<text class="x-axis-label" x="40.0" y="540">
			0
		</text>
		<path class="x-notch" d="M 70.5263157895 525 L 70.5263157895 530"/>
		<text class="x-axis-label" x="101.052631579" y="540">
			10
		</text>
		<path class="x-notch" d="M 131.578947368 525 L 131.578947368 530"/>
		<text class="x-axis-label" x="162.105263158" y="540">
			20
		</text>
		<path class="x-notch" d="M 192.631578947 525 L 192.631578947 530"/>
		<text class="x-axis-label" x="223.157894737" y="540">
			30
		</text>
		<path class="x-notch" d="M 253.684210526 525 L 253.684210526 530"/>
		<text class="x-axis-label" x="284.210526316" y="540">
			40
		</text>
		<path class="x-notch" d="M 314.736842105 525 L 314.736842105 530"/>
		<text class="x-axis-label" x="345.263157895" y="540">
			50
		</text>
		<path class="x-notch" d="M 375.789473684 525 L 375.789473684 530"/>
		<text class="x-axis-label" x="406.315789474" y="540">
			60
		</text>
		<path class="x-notch" d="M 436.842105263 525 L 436.842105263 530"/>
		<text class="x-axis-label" x="467.368421053" y="540">
			70
		</text>
		<path class="x-notch" d="M 497.894736842 525 L 497.894736842 530"/>
		<text class="x-axis-label" x="528.421052632" y="540">
			80
		</text>
		<path class="x-notch" d="M 558.947368421 525 L 558.947368421 530"/>
		<text class="x-axis-label" x="589.473684211" y="540">
			90
		</text>
		<path class="x-notch" d="M 620.0 525 L 620.0 530"/>
	</g>
</svg>
