<?xml version="1.0" ?>
<svg height="600" version="1.1" width="800" xmlns="http://www.w3.org/2000/svg" xmlns:svg="http://www.w3.org/2000/svg">
	<style type="text/css">
		

.x-axis-path, .y-gridline, .x-notch { fill:none; stroke: #a7a9ac; stroke-width:1; }



.y-gridline { stroke-width: 1; }

.y-axis-path, .y-axis-path2, .x-notch-left, .x-notch-right { display: none;}



.x-axis-label, .data-point-label {font-size: 12px; font-weight:normal; font-family: sans-serif; fill: #58595b; text-anchor:middle;}

.y-axis-label {font-size: 12px; font-family: helvetica; fill: #a7a9ac; text-anchor:end;}



.series-1-line { fill: none; stroke: #10b80c; stroke-width:2; }



.series-2-line { fill: none; stroke: #e90f0a; stroke-width: 2;}

	</style>
	<rect fill="white" height="600" width="800" x="0" y="0"/>
	<g id="grid" transform="translate(70, 30)">
		<g class="x-axis" id="x_axis">
			<path class="x-axis-path" d="M 0 525 L 660 525"/>
			<path class="x-notch-left" d="M 0 525, L 0 535"/>
			<path class="x-notch-right" d="M 660 525, L 660 535"/>
		</g>
		<g class="y-axis" id="y_axis">
			<path class="y-axis-path" d="M 0 525 L 0 0"/>
			<path class="y-axis-path-2" d="M 660 525 L 660 0"/>
			<path class="y-gridline" d="M 0 525 L 660 525"/>
			<text class="y-axis-label" x="-5" y="525">
				-100
			</text>
			<path class="y-gridline" d="M 0 394 L 660 394"/>
			<text class="y-axis-label" x="-5" y="394">
				 0
			</text>
			<path class="y-gridline" d="M 0 263 L 660 263"/>
			<text class="y-axis-label" x="-5" y="263">
				100
			</text>
			<path class="y-gridline" d="M 0 132 L 660 132"/>
			<text class="y-axis-label" x="-5" y="132">
				200
			</text>
			<path class="y-gridline" d="M 0 1 L 660 1"/>
			<text class="y-axis-label" x="-5" y="1">
				300
			</text>
		</g>
		<g>
			<path class="series-1-line" d="M 40 378.316575 L 45 371.47627125 L 50 430.6310925 L 55 417.12801375 L 60 366.74001 L 66 401.79943125 L 71 417.5740275 L 76 398.21509875 L 81 416.548545 L 87 415.36249125 L 92 365.0075625 L 97 414.16795875 L 102 384.543705 L 107 399.98230125 L 113 380.0175225 L 118 425.50921875 L 123 420.89019 L 128 402.54083625 L 134 396.2391825 L 139 417.46642875 L 144 381.078075 L 149 379.89202125 L 154 399.0329175 L 160 386.03436375 L 165 356.612235 L 170 398.90720625 L 175 402.4997025 L 181 401.11152375 L 186 354.223695 L 191 387.80104125 L 196 354.0387375 L 201 329.49648375 L 207 350.690655 L 212 273.41267625 L 217 239.2797225 L 222 231.46344375 L 228 197.329965 L 233 257.93221125 L 238 173.6208075 L 243 238.76640375 L 249 214.6956 L 254 195.20122125 L 259 150.5682675 L 264 151.06483875 L 269 143.14776 L 275 86.36525625 L 280 106.9194525 L 285 104.65662375 L 290 76.74912 L 296 97.87504125 L 301 101.9059125 L 306 72.28218375 L 311 46.864755 L 316 184.36637625 L 322 101.7039975 L 327 87.52734375 L 332 189.22134 L 337 59.41028625 L 343 181.5651075 L 348 161.36355375 L 353 139.311375 L 358 93.23152125 L 363 118.7663925 L 369 163.24851375 L 374 132.07761 L 379 203.31373125 L 384 163.6950525 L 390 198.68674875 L 395 165.19377 L 400 270.25196625 L 405 205.8984375 L 410 232.98100875 L 416 284.63148 L 421 316.32512625 L 426 265.5318225 L 431 214.84089375 L 437 283.41894 L 442 247.33456125 L 447 290.8743075 L 452 274.00545375 L 458 347.160975 L 463 327.12847125 L 468 343.5099675 L 473 380.25253875 L 478 376.00416 L 484 300.47548125 L 489 339.6750525 L 494 398.05654875 L 499 456.26952 L 505 437.71751625 L 510 373.8679875 L 515 404.65285875 L 520 410.90448 L 525 391.91515125 L 531 424.6855725 L 536 404.51919375 L 541 420.12579 L 546 420.42023625 L 552 437.4070575 L 557 414.98580375 L 562 439.4775 L 567 414.12779625 L 572 424.0811925 L 578 417.44301375 L 583 404.54526 L 588 394.10450625 L 593 395.7114525 L 599 376.82344875 L 604 399.90132 L 609 389.89789125 L 614 423.4762875 L 620 385.33810875"/>
			<path class="series-2-line" d="M 40 416.0625 L 45 388.790625 L 50 354.95625 L 55 394.621875 L 60 404.1 L 66 443.765625 L 71 369.24375 L 76 401.034375 L 81 439.3875 L 87 451.490625 L 92 404.53125 L 97 445.509375 L 102 389.3625 L 107 367.340625 L 113 391.25625 L 118 390.234375 L 123 374.775 L 128 402.628125 L 134 393.73125 L 139 390.084375 L 144 365.4375 L 149 377.540625 L 154 392.26875 L 160 404.371875 L 165 367.9125 L 170 404.953125 L 175 388.18125 L 181 380.596875 L 186 407.1375 L 191 319.490625 L 196 397.21875 L 201 367.321875 L 207 420.1125 L 212 375.778125 L 217 408.88125 L 222 380.296875 L 228 362.2125 L 233 358.565625 L 238 336.54375 L 243 340.771875 L 249 339.75 L 254 290.165625 L 259 323.26875 L 264 328.809375 L 269 315.975 L 275 299.203125 L 280 298.18125 L 285 324.721875 L 290 307.95 L 296 268.865625 L 301 337.40625 L 306 332.446875 L 311 285.4875 L 316 314.653125 L 322 291.31875 L 327 282.421875 L 332 318.15 L 337 330.253125 L 343 296.41875 L 348 203.521875 L 353 143.4375 L 358 197.540625 L 363 187.33125 L 369 190.246875 L 374 273.225 L 379 197.390625 L 384 216.05625 L 390 215.034375 L 395 301.95 L 400 222.178125 L 405 311.71875 L 410 264.759375 L 416 275.55 L 421 277.153125 L 426 144.88125 L 431 150.421875 L 437 131.025 L 442 212.690625 L 447 209.04375 L 452 210.646875 L 458 245.0625 L 463 228.290625 L 468 264.01875 L 473 348.309375 L 478 377.475 L 484 264.890625 L 489 375.43125 L 494 411.159375 L 499 421.95 L 505 378.928125 L 510 389.71875 L 515 379.509375 L 520 408.675 L 525 382.715625 L 531 369.88125 L 536 425.296875 L 541 377.025 L 546 362.878125 L 552 355.29375 L 557 404.146875 L 562 403.125 L 567 396.853125 L 572 411.58125 L 578 403.996875 L 583 400.35 L 588 422.953125 L 593 408.80625 L 599 418.284375 L 604 381.825 L 609 387.365625 L 614 402.09375 L 620 394.509375"/>
		</g>
		<text class="x-axis-label" x="40.0" y="540">
			0
		</text>
		<path class="x-notch" d="M 66.1261261261 525 L 66.1261261261 530"/>
		<text class="x-axis-label" x="92.2522522523" y="540">
			10
		</text>
		<path class="x-notch" d="M 118.378378378 525 L 118.378378378 530"/>
		<text class="x-axis-label" x="144.504504505" y="540">
			20
		</text>
		<path class="x-notch" d="M 170.630630631 525 L 170.630630631 530"/>
		<text class="x-axis-label" x="196.756756757" y="540">
			30
		</text>
		<path class="x-notch" d="M 222.882882883 525 L 222.882882883 530"/>
		<text class="x-axis-label" x="249.009009009" y="540">
			40
		</text>
		<path class="x-notch" d="M 275.135135135 525 L 275.135135135 530"/>
		<text class="x-axis-label" x="301.261261261" y="540">
			50
		</text>
		<path class="x-notch" d="M 327.387387387 525 L 327.387387387 530"/>
		<text class="x-axis-label" x="353.513513514" y="540">
			60
		</text>
		<path class="x-notch" d="M 379.63963964 525 L 379.63963964 530"/>
		<text class="x-axis-label" x="405.765765766" y="540">
			70
		</text>
		<path class="x-notch" d="M 431.891891892 525 L 431.891891892 530"/>
		<text class="x-axis-label" x="458.018018018" y="540">
			80
		</text>
		<path class="x-notch" d="M 484.144144144 525 L 484.144144144 530"/>
		<text class="x-axis-label" x="510.27027027" y="540">
			90
		</text>
		<path class="x-notch" d="M 536.396396396 525 L 536.396396396 530"/>
		<text class="x-axis-label" x="562.522522523" y="540">
			100
		</text>
		<path class="x-notch" d="M 588.648648649 525 L 588.648648649 530"/>
		<text class="x-axis-label" x="614.774774775" y="540">
			110
		</text>
		<path class="x-notch" d="M 640.900900901 525 L 640.900900901 530"/>
	</g>
</svg>
