<?xml version="1.0" ?>
<svg height="600" version="1.1" width="800" xmlns="http://www.w3.org/2000/svg" xmlns:svg="http://www.w3.org/2000/svg">
	<style type="text/css">
		

.x-axis-path, .y-gridline, .x-notch { fill:none; stroke: #a7a9ac; stroke-width:1; }



.y-gridline { stroke-width: 1; }

.y-axis-path, .y-axis-path2, .x-notch-left, .x-notch-right { display: none;}



.x-axis-label, .data-point-label {font-size: 12px; font-weight:normal; font-family: sans-serif; fill: #58595b; text-anchor:middle;}

.y-axis-label {font-size: 12px; font-family: helvetica; fill: #a7a9ac; text-anchor:end;}



.series-1-line { fill: none; stroke: #10b80c; stroke-width:2; }



.series-2-line { fill: none; stroke: #e90f0a; stroke-width: 2;}

	</style>
	<rect fill="white" height="600" width="800" x="0" y="0"/>
	<g id="grid" transform="translate(70, 30)">
		<g class="x-axis" id="x_axis">
			<path class="x-axis-path" d="M 0 525 L 660 525"/>
			<path class="x-notch-left" d="M 0 525, L 0 535"/>
			<path class="x-notch-right" d="M 660 525, L 660 535"/>
		</g>
		<g class="y-axis" id="y_axis">
			<path class="y-axis-path" d="M 0 525 L 0 0"/>
			<path class="y-axis-path-2" d="M 660 525 L 660 0"/>
			<path class="y-gridline" d="M 0 525 L 660 525"/>
			<text class="y-axis-label" x="-5" y="525">
				-200
			</text>
			<path class="y-gridline" d="M 0 394 L 660 394"/>
			<text class="y-axis-label" x="-5" y="394">
				 0
			</text>
			<path class="y-gridline" d="M 0 263 L 660 263"/>
			<text class="y-axis-label" x="-5" y="263">
				200
			</text>
			<path class="y-gridline" d="M 0 132 L 660 132"/>
			<text class="y-axis-label" x="-5" y="132">
				400
			</text>
			<path class="y-gridline" d="M 0 1 L 660 1"/>
			<text class="y-axis-label" x="-5" y="1">
				600
			</text>
		</g>
		<g>
			<path class="series-1-line" d="M 40 378.73509263 L 45 388.634583965 L 51 414.235482507 L 57 401.167149845 L 62 386.097300333 L 68 389.182713969 L 74 401.346130862 L 80 404.502907773 L 85 387.765313394 L 91 402.668411013 L 97 399.106632941 L 103 403.454656185 L 108 397.629324239 L 114 348.321828555 L 120 406.921551419 L 126 392.233049406 L 131 368.180719353 L 137 368.335778515 L 143 356.029769169 L 149 369.050660412 L 154 304.208643514 L 160 313.012411232 L 166 346.928246348 L 172 299.050246264 L 177 266.897441146 L 183 279.680083122 L 189 242.118536462 L 195 260.143033989 L 200 220.818219745 L 206 217.947401715 L 212 136.188943518 L 218 210.156301605 L 223 146.624098147 L 229 148.613788167 L 235 144.21795182 L 240 140.608226549 L 246 109.908704788 L 252 121.357002198 L 258 123.727668034 L 263 60.9105840599 L 269 41.242263523 L 275 88.3580743881 L 281 0.0 L 286 110.087582317 L 292 130.065649493 L 298 100.295337041 L 304 108.717385576 L 309 113.185090979 L 315 111.839291265 L 321 57.3137277904 L 327 51.3211381685 L 332 51.4048340551 L 338 230.063231432 L 344 225.620191252 L 350 203.926566107 L 355 205.701794619 L 361 209.120608554 L 367 312.560999164 L 373 277.048544871 L 378 252.519716284 L 384 221.772619007 L 390 310.726264817 L 396 293.488755831 L 401 270.198377411 L 407 304.400408993 L 413 258.667023993 L 419 352.814949836 L 424 343.606180957 L 430 352.338585401 L 436 296.574200076 L 441 363.822259813 L 447 341.700083335 L 453 320.006829874 L 459 324.664837343 L 464 341.354618619 L 470 323.783337649 L 476 412.571212519 L 482 373.627745776 L 487 373.472820712 L 493 389.996459364 L 499 383.456379617 L 505 402.290775977 L 510 412.809864079 L 516 400.670740725 L 522 412.619324426 L 528 415.228239529 L 533 420.505843765 L 539 389.162937479 L 545 422.10198777 L 551 406.770101233 L 556 394.869227146 L 562 395.881760657 L 568 406.019872942 L 574 411.630877478 L 579 408.521810182 L 585 416.086384367 L 591 389.056124323 L 597 392.594248734 L 602 424.080015667 L 608 377.298110883 L 614 387.793411226 L 620 386.804799571"/>
			<path class="series-2-line" d="M 40 409.54655824 L 45 389.227848033 L 51 383.776486758 L 57 395.050893032 L 62 392.387159681 L 68 384.148170482 L 74 409.360716378 L 80 389.97121548 L 85 393.811947287 L 91 390.219004629 L 97 404.281038827 L 103 380.245491387 L 108 385.015432503 L 114 396.289838776 L 120 388.980058884 L 126 399.325255849 L 131 384.581801492 L 137 398.64383569 L 143 399.696939573 L 149 399.820834147 L 154 406.449193879 L 160 412.148344303 L 166 377.891494473 L 172 383.590644897 L 177 400.440307019 L 183 401.493410902 L 189 392.325212394 L 195 409.174874517 L 200 385.139327077 L 206 400.130570583 L 212 400.254465158 L 218 387.369429417 L 223 334.528393421 L 229 352.307264852 L 235 351.501950119 L 240 336.758495761 L 246 344.316064802 L 252 336.077075602 L 258 330.625714327 L 263 311.236213428 L 269 301.138805612 L 275 309.625583961 L 281 324.616827467 L 286 330.315977891 L 292 332.298291082 L 298 339.855860122 L 304 296.306917209 L 309 326.165509647 L 315 356.953311394 L 321 348.714322194 L 327 307.023797898 L 332 332.236343794 L 338 331.431029061 L 344 374.298551814 L 350 353.979841607 L 355 368.971085114 L 361 344.935537674 L 367 372.935711495 L 373 370.271978145 L 378 357.386942404 L 384 372.37818591 L 390 340.908964005 L 396 386.564114683 L 401 325.360194913 L 407 318.97962433 L 413 352.555054001 L 419 344.316064802 L 424 333.289447677 L 430 350.1391098 L 436 353.979841607 L 441 302.06801492 L 447 312.413211885 L 453 328.3336647 L 459 328.457559274 L 464 299.775965293 L 470 324.98851119 L 476 392.015475958 L 482 380.988858833 L 487 370.891451017 L 493 404.466880688 L 499 412.024449729 L 505 411.219134995 L 510 402.980145795 L 516 414.254552069 L 522 400.440307019 L 528 394.059736436 L 533 406.263352018 L 539 405.458037284 L 545 378.634861919 L 551 380.61717511 L 556 390.962372075 L 562 379.935754951 L 568 394.926998457 L 574 391.334055799 L 579 407.254508613 L 585 388.794217023 L 591 403.785460529 L 597 397.404889946 L 602 379.873807664 L 608 395.794260478 L 614 391.272108511 L 620 402.546514785"/>
		</g>
		<text class="x-axis-label" x="40.0" y="540">
			0
		</text>
		<path class="x-notch" d="M 68.7128712871 525 L 68.7128712871 530"/>
		<text class="x-axis-label" x="97.4257425743" y="540">
			10
		</text>
		<path class="x-notch" d="M 126.138613861 525 L 126.138613861 530"/>
		<text class="x-axis-label" x="154.851485149" y="540">
			20
		</text>
		<path class="x-notch" d="M 183.564356436 525 L 183.564356436 530"/>
		<text class="x-axis-label" x="212.277227723" y="540">
			30
		</text>
		<path class="x-notch" d="M 240.99009901 525 L 240.99009901 530"/>
		<text class="x-axis-label" x="269.702970297" y="540">
			40
		</text>
		<path class="x-notch" d="M 298.415841584 525 L 298.415841584 530"/>
		<text class="x-axis-label" x="327.128712871" y="540">
			50
		</text>
		<path class="x-notch" d="M 355.841584158 525 L 355.841584158 530"/>
		<text class="x-axis-label" x="384.554455446" y="540">
			60
		</text>
		<path class="x-notch" d="M 413.267326733 525 L 413.267326733 530"/>
		<text class="x-axis-label" x="441.98019802" y="540">
			70
		</text>
		<path class="x-notch" d="M 470.693069307 525 L 470.693069307 530"/>
		<text class="x-axis-label" x="499.405940594" y="540">
			80
		</text>
		<path class="x-notch" d="M 528.118811881 525 L 528.118811881 530"/>
		<text class="x-axis-label" x="556.831683168" y="540">
			90
		</text>
		<path class="x-notch" d="M 585.544554455 525 L 585.544554455 530"/>
		<text class="x-axis-label" x="614.257425743" y="540">
			100
		</text>
		<path class="x-notch" d="M 642.97029703 525 L 642.97029703 530"/>
	</g>
</svg>
