<?xml version="1.0" ?>
<svg height="600" version="1.1" width="800" xmlns="http://www.w3.org/2000/svg" xmlns:svg="http://www.w3.org/2000/svg">
	<style type="text/css">
		

.x-axis-path, .y-gridline, .x-notch { fill:none; stroke: #a7a9ac; stroke-width:1; }



.y-gridline { stroke-width: 1; }

.y-axis-path, .y-axis-path2, .x-notch-left, .x-notch-right { display: none;}



.x-axis-label, .data-point-label {font-size: 12px; font-weight:normal; font-family: sans-serif; fill: #58595b; text-anchor:middle;}

.y-axis-label {font-size: 12px; font-family: helvetica; fill: #a7a9ac; text-anchor:end;}



.series-1-line { fill: none; stroke: #10b80c; stroke-width:2; }



.series-2-line { fill: none; stroke: #e90f0a; stroke-width: 2;}

	</style>
	<rect fill="white" height="600" width="800" x="0" y="0"/>
	<g id="grid" transform="translate(70, 30)">
		<g class="x-axis" id="x_axis">
			<path class="x-axis-path" d="M 0 525 L 660 525"/>
			<path class="x-notch-left" d="M 0 525, L 0 535"/>
			<path class="x-notch-right" d="M 660 525, L 660 535"/>
		</g>
		<g class="y-axis" id="y_axis">
			<path class="y-axis-path" d="M 0 525 L 0 0"/>
			<path class="y-axis-path-2" d="M 660 525 L 660 0"/>
			<path class="y-gridline" d="M 0 525 L 660 525"/>
			<text class="y-axis-label" x="-5" y="525">
				-200
			</text>
			<path class="y-gridline" d="M 0 420 L 660 420"/>
			<text class="y-axis-label" x="-5" y="420">
				 0
			</text>
			<path class="y-gridline" d="M 0 315 L 660 315"/>
			<text class="y-axis-label" x="-5" y="315">
				200
			</text>
			<path class="y-gridline" d="M 0 210 L 660 210"/>
			<text class="y-axis-label" x="-5" y="210">
				400
			</text>
			<path class="y-gridline" d="M 0 105 L 660 105"/>
			<text class="y-axis-label" x="-5" y="105">
				600
			</text>
			<path class="y-gridline" d="M 0 0 L 660 0"/>
			<text class="y-axis-label" x="-5" y="0">
				800
			</text>
		</g>
		<g>
			<path class="series-1-line" d="M 40 437.744916 L 45 412.142026558 L 51 412.963647115 L 56 424.420087673 L 62 410.313228231 L 68 434.060128788 L 73 413.774229346 L 79 422.982619904 L 85 427.788780462 L 90 416.401211019 L 96 425.394141577 L 101 400.895012135 L 107 430.187382692 L 113 416.40392325 L 118 395.081673808 L 124 422.718824365 L 130 402.257364923 L 135 392.539715481 L 141 432.736336038 L 146 415.021256596 L 152 402.812587154 L 158 419.142287712 L 163 420.542878269 L 169 394.118678827 L 175 393.298309385 L 180 394.954889942 L 186 379.0304805 L 192 327.823551058 L 197 334.420591615 L 203 309.382602173 L 208 303.917662731 L 214 292.018323288 L 220 296.757283846 L 225 260.869644404 L 231 248.606794962 L 237 259.013235519 L 242 240.436946077 L 248 177.491226635 L 253 143.622737192 L 259 164.46134775 L 265 149.250518308 L 270 145.967058865 L 276 113.377259423 L 282 109.204869981 L 287 101.182130538 L 293 108.034951096 L 299 118.656431654 L 304 88.3957422115 L 310 103.284632769 L 315 80.0914933269 L 321 76.3632538846 L 327 16.9043744423 L 332 60.573975 L 338 98.0515155577 L 344 83.3656861154 L 349 149.866696673 L 355 130.442217231 L 360 118.058407788 L 366 150.379608346 L 372 94.5684289038 L 377 150.192069462 L 383 186.000320019 L 389 144.970200577 L 394 228.284861135 L 400 252.031761692 L 406 246.95763225 L 411 234.788442808 L 417 270.380813365 L 422 268.296033923 L 428 246.919814481 L 434 334.798195038 L 439 344.611595596 L 445 359.972566154 L 451 377.110346712 L 456 393.641857269 L 462 398.757977827 L 467 382.780018385 L 473 407.227478942 L 479 430.1803695 L 484 419.263830058 L 490 439.994920615 L 496 420.746001173 L 501 423.977371731 L 507 424.933812288 L 513 409.736002846 L 518 420.438963404 L 524 411.097213962 L 529 423.697524519 L 535 411.731405077 L 541 424.547595635 L 546 405.029036192 L 552 415.20678675 L 558 412.716917308 L 563 417.671337865 L 569 413.270468423 L 574 411.776838981 L 580 413.460299538 L 586 416.583940096 L 591 410.688710654 L 597 432.348841212 L 603 419.897411769 L 608 420.302182327 L 614 419.024012885 L 620 412.051693442"/>
			<path class="series-2-line" d="M 40 411.81 L 45 436.940336538 L 51 414.295673077 L 56 411.601009615 L 62 424.656346154 L 68 429.311682692 L 73 423.467019231 L 79 423.397355769 L 85 393.402692308 L 90 412.233028846 L 96 404.813365385 L 101 421.543701923 L 107 359.524038462 L 113 404.079375 L 118 416.609711538 L 124 408.140048077 L 130 347.695384615 L 135 433.725721154 L 141 411.081057692 L 146 372.686394231 L 152 396.766730769 L 158 411.922067308 L 163 401.352403846 L 169 411.257740385 L 175 419.588076923 L 180 430.543413462 L 186 419.97375 L 192 426.204086538 L 197 444.509423077 L 203 422.389759615 L 208 397.645096154 L 214 393.900432692 L 220 374.405769231 L 225 386.411105769 L 231 377.941442308 L 237 375.246778846 L 242 368.877115385 L 248 343.082451923 L 253 347.212788462 L 259 293.593125 L 265 294.573461538 L 270 339.128798077 L 276 328.034134615 L 282 326.914471154 L 287 291.669807692 L 293 311.025144231 L 299 274.730480769 L 304 289.360817308 L 310 263.041153846 L 315 301.296490385 L 321 292.301826923 L 327 295.907163462 L 332 263.8125 L 338 255.867836538 L 344 256.848173077 L 349 287.228509615 L 355 269.833846154 L 360 280.264182692 L 366 216.669519231 L 372 183.524855769 L 377 170.330192308 L 383 156.610528846 L 389 151.815865385 L 394 200.571201923 L 400 205.226538462 L 406 221.956875 L 411 157.837211538 L 417 95.8175480769 L 422 199.172884615 L 428 199.628221154 L 434 273.583557692 L 439 199.488894231 L 445 263.469230769 L 451 316.424567308 L 456 320.554903846 L 462 324.160240385 L 467 342.465576923 L 473 401.720913462 L 479 427.90125 L 484 434.656586538 L 490 397.836923077 L 496 435.042259615 L 501 425.522596154 L 507 422.827932692 L 513 380.758269231 L 518 413.763605769 L 524 400.043942308 L 529 362.174278846 L 535 409.879615385 L 541 420.309951923 L 546 417.615288462 L 552 430.145625 L 558 412.225961538 L 563 400.081298077 L 569 434.661634615 L 574 425.141971154 L 580 431.897307692 L 586 418.702644231 L 591 440.682980769 L 597 422.763317308 L 603 402.743653846 L 608 424.723990385 L 614 422.554326923 L 620 428.259663462"/>
		</g>
		<text class="x-axis-label" x="40.0" y="540">
			0
		</text>
		<path class="x-notch" d="M 68.1553398058 525 L 68.1553398058 530"/>
		<text class="x-axis-label" x="96.3106796117" y="540">
			10
		</text>
		<path class="x-notch" d="M 124.466019417 525 L 124.466019417 530"/>
		<text class="x-axis-label" x="152.621359223" y="540">
			20
		</text>
		<path class="x-notch" d="M 180.776699029 525 L 180.776699029 530"/>
		<text class="x-axis-label" x="208.932038835" y="540">
			30
		</text>
		<path class="x-notch" d="M 237.087378641 525 L 237.087378641 530"/>
		<text class="x-axis-label" x="265.242718447" y="540">
			40
		</text>
		<path class="x-notch" d="M 293.398058252 525 L 293.398058252 530"/>
		<text class="x-axis-label" x="321.553398058" y="540">
			50
		</text>
		<path class="x-notch" d="M 349.708737864 525 L 349.708737864 530"/>
		<text class="x-axis-label" x="377.86407767" y="540">
			60
		</text>
		<path class="x-notch" d="M 406.019417476 525 L 406.019417476 530"/>
		<text class="x-axis-label" x="434.174757282" y="540">
			70
		</text>
		<path class="x-notch" d="M 462.330097087 525 L 462.330097087 530"/>
		<text class="x-axis-label" x="490.485436893" y="540">
			80
		</text>
		<path class="x-notch" d="M 518.640776699 525 L 518.640776699 530"/>
		<text class="x-axis-label" x="546.796116505" y="540">
			90
		</text>
		<path class="x-notch" d="M 574.951456311 525 L 574.951456311 530"/>
		<text class="x-axis-label" x="603.106796117" y="540">
			100
		</text>
		<path class="x-notch" d="M 631.262135922 525 L 631.262135922 530"/>
	</g>
</svg>
