<?xml version="1.0" ?>
<svg height="600" version="1.1" width="800" xmlns="http://www.w3.org/2000/svg" xmlns:svg="http://www.w3.org/2000/svg">
	<style type="text/css">

.x-axis-path, .y-gridline, .x-notch { fill:none; stroke: #a7a9ac; stroke-width:1; }



.y-gridline { stroke-width: 1; }

.y-axis-path, .y-axis-path2, .x-notch-left, .x-notch-right { display: none;}



.x-axis-label, .data-point-label {font-size: 12px; font-weight:normal; font-family: sans-serif; fill: #58595b; text-anchor:middle;}

.y-axis-label {font-size: 12px; font-family: helvetica; fill: #a7a9ac; text-anchor:end;}



.series-1-line { fill: none; stroke: #10b80c; stroke-width:2; }



.series-2-line { fill: none; stroke: #e90f0a; stroke-width: 2;}
</style>
	<rect fill="white" height="600" width="800" x="0" y="0"/>
	<g id="grid" transform="translate(70, 30)">
		<g class="x-axis" id="x_axis">
			<path class="x-axis-path" d="M 0 525 L 660 525"/>
			<path class="x-notch-left" d="M 0 525, L 0 535"/>
			<path class="x-notch-right" d="M 660 525, L 660 535"/>
		</g>
		<g class="y-axis" id="y_axis">
			<path class="y-axis-path" d="M 0 525 L 0 0"/>
			<path class="y-axis-path-2" d="M 660 525 L 660 0"/>
			<path class="y-gridline" d="M 0 525 L 660 525"/>
			<text class="y-axis-label" x="-5" y="525">-200</text>
			<path class="y-gridline" d="M 0 394 L 660 394"/>
			<text class="y-axis-label" x="-5" y="394"> 0</text>
			<path class="y-gridline" d="M 0 263 L 660 263"/>
			<text class="y-axis-label" x="-5" y="263">200</text>
			<path class="y-gridline" d="M 0 132 L 660 132"/>
			<text class="y-axis-label" x="-5" y="132">400</text>
			<path class="y-gridline" d="M 0 1 L 660 1"/>
			<text class="y-axis-label" x="-5" y="1">600</text>
		</g>
		<g>
			<path class="series-1-line" d="M 40 401.448559442 L 44 397.598491574 L 48 385.687361054 L 52 393.71873039 L 56 389.338447315 L 60 390.523529061 L 64 401.050251708 L 68 397.067543909 L 72 390.34625217 L 76 390.603887952 L 80 396.382445566 L 84 384.692151919 L 88 395.727040538 L 92 375.114730501 L 96 411.922074622 L 100 385.722350529 L 104 405.922141647 L 108 389.638372134 L 112 365.382081428 L 116 396.955488298 L 120 392.950731263 L 124 384.705630647 L 128 389.976366807 L 132 383.696748815 L 136 392.589416408 L 140 385.404401687 L 144 372.367037566 L 148 392.522730213 L 152 390.881031078 L 156 372.962861991 L 160 373.70626999 L 164 385.469816936 L 168 383.209705652 L 172 343.030421799 L 176 363.870674302 L 180 349.839371991 L 184 339.430001113 L 188 338.229975725 L 192 316.977204303 L 196 297.314389465 L 200 282.554428829 L 204 271.261710458 L 208 271.740183113 L 212 251.260168488 L 216 267.087320613 L 220 218.780826402 L 224 209.210704546 L 228 169.826226726 L 232 180.286801667 L 236 174.802334226 L 240 155.779980772 L 244 156.368699605 L 248 137.942709065 L 252 134.865397994 L 256 137.706928549 L 260 132.840528737 L 264 101.185685999 L 268 84.9684087111 L 272 72.063340002 L 276 89.568990171 L 280 60.6306821376 L 284 74.1388748336 L 288 158.074737012 L 292 122.952996528 L 296 103.002852591 L 300 136.873169654 L 304 105.10773622 L 308 0.0 L 312 84.4219789151 L 316 131.45465595 L 320 150.881345753 L 324 150.188797297 L 328 71.0085502649 L 332 142.289873924 L 336 126.889451903 L 340 149.187021058 L 344 157.770310317 L 348 197.139844495 L 352 201.637823859 L 356 228.57365639 L 360 251.202997634 L 364 219.371761013 L 368 273.603857923 L 372 278.808446378 L 376 247.308292807 L 380 228.948449973 L 384 254.691556677 L 388 260.690951164 L 392 279.278736464 L 396 268.913464056 L 400 277.4750486 L 404 300.590162061 L 408 246.055792409 L 412 276.480916441 L 416 318.080524067 L 420 325.736367363 L 424 292.822995611 L 428 302.35578007 L 432 353.628800686 L 436 308.900139437 L 440 349.197119579 L 444 383.884291909 L 448 355.498248318 L 452 339.479414148 L 456 342.850815391 L 460 363.779609355 L 464 376.382405323 L 468 361.18077094 L 472 374.62281593 L 476 342.747136319 L 480 389.338139607 L 484 374.379391333 L 488 382.918582121 L 492 388.233416753 L 496 397.214281287 L 500 388.262571581 L 504 395.830217934 L 508 398.826093137 L 512 399.525402666 L 516 397.530226726 L 520 390.124375132 L 524 401.424199095 L 528 403.470579099 L 532 393.524931203 L 536 395.151686695 L 540 400.996736534 L 544 404.721614582 L 548 413.371051547 L 552 400.289588955 L 556 402.777642705 L 560 393.649194596 L 564 392.647956845 L 568 403.32936866 L 572 389.938527733 L 576 415.615486731 L 580 392.507478863 L 584 394.310972758 L 588 406.096568939 L 592 407.502487558 L 596 399.897848326 L 600 385.336675327 L 604 393.655029243 L 608 391.549262606 L 612 394.103808582 L 616 395.907302477 L 620 394.972212432"/>
			<path class="series-2-line" d="M 40 381.864084046 L 44 396.502614842 L 48 392.192583973 L 52 400.802026966 L 56 397.353294354 L 60 399.072351288 L 64 387.871934357 L 68 389.590991291 L 72 381.835767391 L 76 393.890403415 L 80 384.412582999 L 84 379.241253872 L 88 389.573293381 L 92 399.044034632 L 96 386.121021187 L 100 393.869165923 L 104 385.252643766 L 108 391.278191987 L 112 398.165038465 L 116 395.577604111 L 120 400.741854074 L 124 395.570524947 L 128 398.150880138 L 132 388.673059723 L 136 397.282502717 L 140 394.695068362 L 144 398.13672181 L 148 396.410585713 L 152 402.436133935 L 156 394.680910035 L 160 398.122563483 L 164 395.535129128 L 168 397.254186062 L 172 402.418436025 L 176 394.663212125 L 180 385.18539171 L 184 381.736659098 L 188 386.039610804 L 192 394.649053798 L 196 390.339022928 L 200 393.780676376 L 204 393.777136794 L 208 404.970474561 L 212 393.770057631 L 216 395.489114564 L 220 392.040381952 L 224 392.03684237 L 228 373.946039379 L 232 373.08120154 L 236 373.938960215 L 240 370.490227603 L 244 364.457600218 L 248 368.760551924 L 252 363.589222797 L 256 375.643858821 L 260 347.21747674 L 264 332.571866779 L 268 361.852467954 L 272 344.622963221 L 276 353.232406215 L 280 351.506270118 L 284 345.473642733 L 288 336.857120576 L 292 359.24733569 L 296 332.543550124 L 300 341.152993118 L 304 310.142716264 L 308 333.394229636 L 312 349.755356948 L 316 354.058308654 L 320 331.661014375 L 324 290.31515843 L 328 333.376531727 L 332 317.008325251 L 336 319.588680442 L 340 285.994508815 L 344 275.655390142 L 348 299.768201772 L 352 322.158416887 L 356 337.658245941 L 360 353.158074995 L 364 366.074009277 L 368 355.734890604 L 372 368.650824886 L 376 363.479495759 L 380 357.446868374 L 384 357.443328792 L 388 347.104210119 L 392 354.852354856 L 396 344.513236183 L 400 371.209942586 L 404 378.096789064 L 408 372.064161679 L 412 380.673604673 L 416 359.137608652 L 420 359.13406907 L 424 372.911301609 L 428 348.791410816 L 432 363.429941612 L 436 372.900682864 L 440 386.677915403 L 444 368.587112412 L 448 381.503046694 L 452 379.776910597 L 456 376.328177985 L 460 388.382814009 L 464 389.240572684 L 468 394.404822648 L 472 398.707774354 L 476 384.923462651 L 480 390.949010872 L 484 391.806769548 L 488 388.358036936 L 492 384.048006066 L 496 378.876676939 L 500 383.179628644 L 504 396.956861184 L 508 384.895145996 L 512 395.227185505 L 516 389.19455812 L 520 387.468422023 L 524 390.048777214 L 528 391.767834147 L 532 383.151311989 L 536 383.147772408 L 540 396.925004947 L 544 405.534447941 L 548 384.859750177 L 552 395.191789686 L 556 395.188250104 L 560 393.462114007 L 564 400.348960486 L 568 398.622824389 L 572 390.006302231 L 576 400.33834174 L 580 396.02831087 L 584 402.053859091 L 588 396.021231707 L 592 396.878990382 L 596 392.568959513 L 600 398.594507734 L 604 396.007073379 L 608 373.6097791 L 612 396.861292473 L 616 402.886840694 L 620 399.438108082"/>
		</g>
		<text class="x-axis-label" x="40.0" y="540">0</text>
		<path class="x-notch" d="M 60.0 525 L 60.0 530"/>
		<text class="x-axis-label" x="80.0" y="540">10</text>
		<path class="x-notch" d="M 100.0 525 L 100.0 530"/>
		<text class="x-axis-label" x="120.0" y="540">20</text>
		<path class="x-notch" d="M 140.0 525 L 140.0 530"/>
		<text class="x-axis-label" x="160.0" y="540">30</text>
		<path class="x-notch" d="M 180.0 525 L 180.0 530"/>
		<text class="x-axis-label" x="200.0" y="540">40</text>
		<path class="x-notch" d="M 220.0 525 L 220.0 530"/>
		<text class="x-axis-label" x="240.0" y="540">50</text>
		<path class="x-notch" d="M 260.0 525 L 260.0 530"/>
		<text class="x-axis-label" x="280.0" y="540">60</text>
		<path class="x-notch" d="M 300.0 525 L 300.0 530"/>
		<text class="x-axis-label" x="320.0" y="540">70</text>
		<path class="x-notch" d="M 340.0 525 L 340.0 530"/>
		<text class="x-axis-label" x="360.0" y="540">80</text>
		<path class="x-notch" d="M 380.0 525 L 380.0 530"/>
		<text class="x-axis-label" x="400.0" y="540">90</text>
		<path class="x-notch" d="M 420.0 525 L 420.0 530"/>
		<text class="x-axis-label" x="440.0" y="540">100</text>
		<path class="x-notch" d="M 460.0 525 L 460.0 530"/>
		<text class="x-axis-label" x="480.0" y="540">110</text>
		<path class="x-notch" d="M 500.0 525 L 500.0 530"/>
		<text class="x-axis-label" x="520.0" y="540">120</text>
		<path class="x-notch" d="M 540.0 525 L 540.0 530"/>
		<text class="x-axis-label" x="560.0" y="540">130</text>
		<path class="x-notch" d="M 580.0 525 L 580.0 530"/>
		<text class="x-axis-label" x="600.0" y="540">140</text>
		<path class="x-notch" d="M 620.0 525 L 620.0 530"/>
	</g>
</svg>
