<?xml version="1.0" ?>
<svg height="600" version="1.1" width="800" xmlns="http://www.w3.org/2000/svg" xmlns:svg="http://www.w3.org/2000/svg">
	<style type="text/css">
		

.x-axis-path, .y-gridline, .x-notch { fill:none; stroke: #a7a9ac; stroke-width:1; }



.y-gridline { stroke-width: 1; }

.y-axis-path, .y-axis-path2, .x-notch-left, .x-notch-right { display: none;}



.x-axis-label, .data-point-label {font-size: 12px; font-weight:normal; font-family: sans-serif; fill: #58595b; text-anchor:middle;}

.y-axis-label {font-size: 12px; font-family: helvetica; fill: #a7a9ac; text-anchor:end;}



.series-1-line { fill: none; stroke: #10b80c; stroke-width:2; }



.series-2-line { fill: none; stroke: #e90f0a; stroke-width: 2;}

	</style>
	<rect fill="white" height="600" width="800" x="0" y="0"/>
	<g id="grid" transform="translate(70, 30)">
		<g class="x-axis" id="x_axis">
			<path class="x-axis-path" d="M 0 525 L 660 525"/>
			<path class="x-notch-left" d="M 0 525, L 0 535"/>
			<path class="x-notch-right" d="M 660 525, L 660 535"/>
		</g>
		<g class="y-axis" id="y_axis">
			<path class="y-axis-path" d="M 0 525 L 0 0"/>
			<path class="y-axis-path-2" d="M 660 525 L 660 0"/>
			<path class="y-gridline" d="M 0 525 L 660 525"/>
			<text class="y-axis-label" x="-5" y="525">
				-200
			</text>
			<path class="y-gridline" d="M 0 420 L 660 420"/>
			<text class="y-axis-label" x="-5" y="420">
				 0
			</text>
			<path class="y-gridline" d="M 0 315 L 660 315"/>
			<text class="y-axis-label" x="-5" y="315">
				200
			</text>
			<path class="y-gridline" d="M 0 210 L 660 210"/>
			<text class="y-axis-label" x="-5" y="210">
				400
			</text>
			<path class="y-gridline" d="M 0 105 L 660 105"/>
			<text class="y-axis-label" x="-5" y="105">
				600
			</text>
			<path class="y-gridline" d="M 0 0 L 660 0"/>
			<text class="y-axis-label" x="-5" y="0">
				800
			</text>
		</g>
		<g>
			<path class="series-1-line" d="M 40 418.521936 L 45 426.239662882 L 51 417.184269765 L 57 418.628876647 L 62 421.890823529 L 68 428.356530412 L 74 414.589577294 L 80 424.313224176 L 85 425.246271059 L 91 422.436907941 L 97 427.368144824 L 103 411.380021706 L 108 423.203668588 L 114 409.853985471 L 120 410.881322353 L 126 412.312489235 L 131 402.610926118 L 137 395.817233 L 143 390.746379882 L 149 385.931516765 L 154 384.764563647 L 160 389.870730529 L 166 373.626827412 L 172 379.096504294 L 177 378.427671176 L 183 356.651108059 L 189 318.653514941 L 195 330.207731824 L 200 323.521558706 L 206 291.985245588 L 212 284.154992471 L 218 274.426549353 L 223 279.882786235 L 229 264.998633118 L 235 218.45278 L 240 176.308946882 L 246 215.445823765 L 252 195.607980647 L 258 181.410107529 L 263 147.976024412 L 269 158.681841294 L 275 150.609038176 L 281 166.242295059 L 286 158.412041941 L 292 140.054698824 L 298 137.016645706 L 304 137.976572588 L 309 148.184899471 L 315 143.558196353 L 321 113.529683235 L 327 163.462870118 L 332 108.557547 L 338 116.490523882 L 344 111.056160765 L 350 181.854947647 L 355 144.772534529 L 361 138.947991412 L 367 120.954158294 L 373 132.225505176 L 378 111.310782059 L 384 183.334288941 L 390 90.8576558235 L 396 175.225382706 L 401 134.925769588 L 407 142.266546471 L 413 136.563173353 L 419 120.615370235 L 424 129.302247118 L 430 168.910364 L 436 146.595570882 L 441 125.828687765 L 447 141.407764647 L 453 169.035171529 L 459 167.773928412 L 464 132.899455294 L 470 243.517182176 L 476 298.902389059 L 482 337.312245941 L 487 354.332132824 L 493 412.961419706 L 499 413.315706588 L 505 424.048823471 L 510 407.131870353 L 516 412.197717235 L 522 419.309594118 L 528 412.219591 L 533 414.525827882 L 539 399.412774765 L 545 395.486211647 L 551 408.157838529 L 556 421.610035412 L 562 402.741342294 L 568 401.816729176 L 574 426.643996059 L 579 414.573212941 L 585 438.498739824 L 591 402.681786706 L 597 406.818803588 L 602 419.261530471 L 608 417.165747353 L 614 428.208404235 L 620 424.847161118"/>
			<path class="series-2-line" d="M 40 421.26 L 45 422.792794118 L 51 420.125588235 L 57 417.458382353 L 62 417.941176471 L 68 410.023970588 L 74 405.256764706 L 80 421.489558824 L 85 416.722352941 L 91 401.980147059 L 97 408.237941176 L 103 401.895735294 L 108 418.128529412 L 114 409.686323529 L 120 410.694117647 L 126 410.126911765 L 131 405.884705882 L 137 418.9675 L 143 408.950294118 L 149 420.458088235 L 154 415.690882353 L 160 415.123676471 L 166 407.731470588 L 172 411.889264706 L 177 411.322058824 L 183 407.079852941 L 189 414.912647059 L 195 411.720441176 L 200 408.003235294 L 206 390.636029412 L 212 401.618823529 L 218 401.576617647 L 223 407.834411765 L 229 413.567205882 L 235 403.55 L 240 402.982794118 L 246 396.640588235 L 252 417.598382353 L 258 398.131176471 L 263 410.688970588 L 269 375.996764706 L 275 363.354558824 L 281 379.062352941 L 286 390.045147059 L 292 384.752941176 L 298 385.235735294 L 304 376.268529412 L 309 398.801323529 L 315 380.909117647 L 321 374.041911765 L 327 382.924705882 L 332 387.0825 L 338 375.490294118 L 344 360.748088235 L 350 390.630882353 L 355 378.513676471 L 361 383.721470588 L 367 383.154264706 L 373 362.637058824 L 378 387.794852941 L 384 390.377647059 L 390 379.310441176 L 396 380.843235294 L 401 379.226029412 L 407 378.133823529 L 413 384.916617647 L 419 372.274411765 L 424 365.932205882 L 430 367.99 L 436 386.322794118 L 441 388.380588235 L 447 371.538382353 L 453 379.371176471 L 459 368.828970588 L 464 380.861764706 L 470 382.394558824 L 476 400.727352941 L 482 384.935147059 L 487 409.567941176 L 493 413.200735294 L 499 416.833529412 L 505 418.891323529 L 510 414.124117647 L 516 419.856911765 L 522 413.514705882 L 528 411.3725 L 533 417.630294118 L 539 418.113088235 L 545 413.870882353 L 551 420.653676471 L 556 408.011470588 L 562 421.094264706 L 568 419.477058824 L 574 413.659852941 L 579 410.467647059 L 585 422.500441176 L 591 417.733235294 L 597 425.041029412 L 602 426.573823529 L 608 423.381617647 L 614 418.089411765 L 620 407.547205882"/>
		</g>
		<text class="x-axis-label" x="40.0" y="540">
			0
		</text>
		<path class="x-notch" d="M 68.7128712871 525 L 68.7128712871 530"/>
		<text class="x-axis-label" x="97.4257425743" y="540">
			10
		</text>
		<path class="x-notch" d="M 126.138613861 525 L 126.138613861 530"/>
		<text class="x-axis-label" x="154.851485149" y="540">
			20
		</text>
		<path class="x-notch" d="M 183.564356436 525 L 183.564356436 530"/>
		<text class="x-axis-label" x="212.277227723" y="540">
			30
		</text>
		<path class="x-notch" d="M 240.99009901 525 L 240.99009901 530"/>
		<text class="x-axis-label" x="269.702970297" y="540">
			40
		</text>
		<path class="x-notch" d="M 298.415841584 525 L 298.415841584 530"/>
		<text class="x-axis-label" x="327.128712871" y="540">
			50
		</text>
		<path class="x-notch" d="M 355.841584158 525 L 355.841584158 530"/>
		<text class="x-axis-label" x="384.554455446" y="540">
			60
		</text>
		<path class="x-notch" d="M 413.267326733 525 L 413.267326733 530"/>
		<text class="x-axis-label" x="441.98019802" y="540">
			70
		</text>
		<path class="x-notch" d="M 470.693069307 525 L 470.693069307 530"/>
		<text class="x-axis-label" x="499.405940594" y="540">
			80
		</text>
		<path class="x-notch" d="M 528.118811881 525 L 528.118811881 530"/>
		<text class="x-axis-label" x="556.831683168" y="540">
			90
		</text>
		<path class="x-notch" d="M 585.544554455 525 L 585.544554455 530"/>
		<text class="x-axis-label" x="614.257425743" y="540">
			100
		</text>
		<path class="x-notch" d="M 642.97029703 525 L 642.97029703 530"/>
	</g>
</svg>
