<?xml version="1.0" ?>
<svg height="600" version="1.1" width="800" xmlns="http://www.w3.org/2000/svg" xmlns:svg="http://www.w3.org/2000/svg">
	<style type="text/css">
		

.x-axis-path, .y-gridline, .x-notch { fill:none; stroke: #a7a9ac; stroke-width:1; }



.y-gridline { stroke-width: 1; }

.y-axis-path, .y-axis-path2, .x-notch-left, .x-notch-right { display: none;}



.x-axis-label, .data-point-label {font-size: 12px; font-weight:normal; font-family: sans-serif; fill: #58595b; text-anchor:middle;}

.y-axis-label {font-size: 12px; font-family: helvetica; fill: #a7a9ac; text-anchor:end;}



.series-1-line { fill: none; stroke: #10b80c; stroke-width:2; }



.series-2-line { fill: none; stroke: #e90f0a; stroke-width: 2;}

	</style>
	<rect fill="white" height="600" width="800" x="0" y="0"/>
	<g id="grid" transform="translate(70, 30)">
		<g class="x-axis" id="x_axis">
			<path class="x-axis-path" d="M 0 525 L 660 525"/>
			<path class="x-notch-left" d="M 0 525, L 0 535"/>
			<path class="x-notch-right" d="M 660 525, L 660 535"/>
		</g>
		<g class="y-axis" id="y_axis">
			<path class="y-axis-path" d="M 0 525 L 0 0"/>
			<path class="y-axis-path-2" d="M 660 525 L 660 0"/>
			<path class="y-gridline" d="M 0 525 L 660 525"/>
			<text class="y-axis-label" x="-5" y="525">
				-100
			</text>
			<path class="y-gridline" d="M 0 438 L 660 438"/>
			<text class="y-axis-label" x="-5" y="438">
				 0
			</text>
			<path class="y-gridline" d="M 0 351 L 660 351"/>
			<text class="y-axis-label" x="-5" y="351">
				100
			</text>
			<path class="y-gridline" d="M 0 264 L 660 264"/>
			<text class="y-axis-label" x="-5" y="264">
				200
			</text>
			<path class="y-gridline" d="M 0 177 L 660 177"/>
			<text class="y-axis-label" x="-5" y="177">
				300
			</text>
			<path class="y-gridline" d="M 0 90 L 660 90"/>
			<text class="y-axis-label" x="-5" y="90">
				400
			</text>
			<path class="y-gridline" d="M 0 3 L 660 3"/>
			<text class="y-axis-label" x="-5" y="3">
				500
			</text>
		</g>
		<g>
			<path class="series-1-line" d="M 40 447.92783 L 45 402.18326202 L 51 458.72269404 L 57 441.762476061 L 63 430.860058081 L 69 437.569640101 L 75 450.494522121 L 81 419.511904141 L 87 415.160086162 L 93 436.386268182 L 99 413.929300202 L 105 434.863232222 L 111 409.646864242 L 116 421.135346263 L 122 428.226428283 L 128 444.673710303 L 134 397.604392323 L 140 413.400674343 L 146 413.043056364 L 152 397.990338384 L 158 358.392120404 L 164 351.842302424 L 170 304.750934444 L 176 343.655616465 L 182 329.297998485 L 187 311.529980505 L 193 274.063612525 L 199 312.632294545 L 205 231.797076566 L 211 278.151158586 L 217 223.543540606 L 223 180.198922626 L 229 153.972804646 L 235 137.887236667 L 241 174.459518687 L 247 132.191500707 L 253 28.7634327273 L 258 104.777564747 L 264 84.5413467677 L 270 133.295728788 L 276 61.9507608081 L 282 51.4077928283 L 288 49.8605248485 L 294 70.3457568687 L 300 41.3381888889 L 306 68.3740209091 L 312 16.7505029293 L 318 42.4405849495 L 324 45.4489169697 L 330 67.1675489899 L 335 64.6108810101 L 341 76.0104630303 L 347 64.5473450505 L 353 37.1098770707 L 359 233.133759091 L 365 271.141741111 L 371 311.213673131 L 377 259.387155152 L 383 279.939587172 L 389 336.368069192 L 395 331.119551212 L 401 416.288633232 L 406 393.472565253 L 412 442.136997273 L 418 421.071979293 L 424 416.338661313 L 430 421.859643333 L 436 418.607875354 L 442 440.753507374 L 448 429.783189394 L 454 412.532471414 L 460 455.117403434 L 466 448.073385455 L 472 454.738517475 L 477 419.134499495 L 483 433.674631515 L 489 415.525113535 L 495 454.430145556 L 501 438.793977576 L 507 430.404209596 L 513 425.806691616 L 519 442.859473636 L 525 432.809305657 L 531 452.441937677 L 537 429.423919697 L 543 426.778001717 L 548 426.038883737 L 554 412.780965758 L 560 451.887947778 L 566 434.635829798 L 572 437.105511818 L 578 436.568343838 L 584 429.951675859 L 590 436.684007879 L 596 443.617939899 L 602 423.068121919 L 608 450.171853939 L 614 427.44608596 L 620 452.26151798"/>
			<path class="series-2-line" d="M 40 400.925 L 45 481.052020202 L 51 438.679040404 L 57 430.431060606 L 63 432.683080808 L 69 417.43510101 L 75 456.437121212 L 81 451.689141414 L 87 387.441161616 L 93 428.193181818 L 99 424.32020202 L 105 408.197222222 L 111 425.324242424 L 116 415.326262626 L 122 408.828282828 L 128 444.33030303 L 134 423.832323232 L 140 424.334343434 L 146 419.586363636 L 152 455.088383838 L 158 429.34040404 L 164 435.092424242 L 170 452.219444444 L 176 396.721464646 L 182 391.973484848 L 187 373.225505051 L 193 390.352525253 L 199 387.354545455 L 205 379.106565657 L 211 390.108585859 L 217 385.360606061 L 223 398.112626263 L 229 402.114646465 L 235 359.741666667 L 241 395.243686869 L 247 376.495707071 L 253 377.872727273 L 258 368.749747475 L 264 325.501767677 L 270 303.253787879 L 276 281.880808081 L 282 330.507828283 L 288 272.384848485 L 294 258.011868687 L 300 320.638888889 L 306 239.765909091 L 312 247.267929293 L 318 205.769949495 L 324 256.146969697 L 330 185.773989899 L 335 148.651010101 L 341 220.903030303 L 347 242.405050505 L 353 264.782070707 L 359 268.784090909 L 365 285.036111111 L 371 286.413131313 L 377 188.915151515 L 383 164.042171717 L 389 241.544191919 L 395 249.046212121 L 401 347.548232323 L 406 331.425252525 L 412 289.052272727 L 418 375.304292929 L 424 302.306313131 L 430 336.058333333 L 436 339.185353535 L 442 338.812373737 L 448 283.314393939 L 454 388.816414141 L 460 407.693434343 L 466 353.945454545 L 472 379.822474747 L 477 413.574494949 L 483 439.451515152 L 489 411.953535354 L 495 390.580555556 L 501 414.707575758 L 507 400.33459596 L 513 442.836616162 L 519 452.088636364 L 525 423.715656566 L 531 405.842676768 L 537 387.09469697 L 543 398.096717172 L 548 384.598737374 L 554 413.100757576 L 560 394.352777778 L 566 363.35479798 L 572 395.356818182 L 578 384.483838384 L 584 434.860858586 L 590 450.237878788 L 596 434.11489899 L 602 439.866919192 L 608 416.743939394 L 614 454.870959596 L 620 447.497979798"/>
		</g>
		<text class="x-axis-label" x="40.0" y="540">
			0
		</text>
		<path class="x-notch" d="M 69.5918367347 525 L 69.5918367347 530"/>
		<text class="x-axis-label" x="99.1836734694" y="540">
			10
		</text>
		<path class="x-notch" d="M 128.775510204 525 L 128.775510204 530"/>
		<text class="x-axis-label" x="158.367346939" y="540">
			20
		</text>
		<path class="x-notch" d="M 187.959183673 525 L 187.959183673 530"/>
		<text class="x-axis-label" x="217.551020408" y="540">
			30
		</text>
		<path class="x-notch" d="M 247.142857143 525 L 247.142857143 530"/>
		<text class="x-axis-label" x="276.734693878" y="540">
			40
		</text>
		<path class="x-notch" d="M 306.326530612 525 L 306.326530612 530"/>
		<text class="x-axis-label" x="335.918367347" y="540">
			50
		</text>
		<path class="x-notch" d="M 365.510204082 525 L 365.510204082 530"/>
		<text class="x-axis-label" x="395.102040816" y="540">
			60
		</text>
		<path class="x-notch" d="M 424.693877551 525 L 424.693877551 530"/>
		<text class="x-axis-label" x="454.285714286" y="540">
			70
		</text>
		<path class="x-notch" d="M 483.87755102 525 L 483.87755102 530"/>
		<text class="x-axis-label" x="513.469387755" y="540">
			80
		</text>
		<path class="x-notch" d="M 543.06122449 525 L 543.06122449 530"/>
		<text class="x-axis-label" x="572.653061224" y="540">
			90
		</text>
		<path class="x-notch" d="M 602.244897959 525 L 602.244897959 530"/>
	</g>
</svg>
