<?xml version="1.0" ?>
<svg height="600" version="1.1" width="800" xmlns="http://www.w3.org/2000/svg" xmlns:svg="http://www.w3.org/2000/svg">
	<style type="text/css">
		

.x-axis-path, .y-gridline, .x-notch { fill:none; stroke: #a7a9ac; stroke-width:1; }



.y-gridline { stroke-width: 1; }

.y-axis-path, .y-axis-path2, .x-notch-left, .x-notch-right { display: none;}



.x-axis-label, .data-point-label {font-size: 12px; font-weight:normal; font-family: sans-serif; fill: #58595b; text-anchor:middle;}

.y-axis-label {font-size: 12px; font-family: helvetica; fill: #a7a9ac; text-anchor:end;}



.series-1-line { fill: none; stroke: #10b80c; stroke-width:2; }



.series-2-line { fill: none; stroke: #e90f0a; stroke-width: 2;}

	</style>
	<rect fill="white" height="600" width="800" x="0" y="0"/>
	<g id="grid" transform="translate(70, 30)">
		<g class="x-axis" id="x_axis">
			<path class="x-axis-path" d="M 0 525 L 660 525"/>
			<path class="x-notch-left" d="M 0 525, L 0 535"/>
			<path class="x-notch-right" d="M 660 525, L 660 535"/>
		</g>
		<g class="y-axis" id="y_axis">
			<path class="y-axis-path" d="M 0 525 L 0 0"/>
			<path class="y-axis-path-2" d="M 660 525 L 660 0"/>
			<path class="y-gridline" d="M 0 525 L 660 525"/>
			<text class="y-axis-label" x="-5" y="525">
				-200
			</text>
			<path class="y-gridline" d="M 0 394 L 660 394"/>
			<text class="y-axis-label" x="-5" y="394">
				 0
			</text>
			<path class="y-gridline" d="M 0 263 L 660 263"/>
			<text class="y-axis-label" x="-5" y="263">
				200
			</text>
			<path class="y-gridline" d="M 0 132 L 660 132"/>
			<text class="y-axis-label" x="-5" y="132">
				400
			</text>
			<path class="y-gridline" d="M 0 1 L 660 1"/>
			<text class="y-axis-label" x="-5" y="1">
				600
			</text>
		</g>
		<g>
			<path class="series-1-line" d="M 40 388.669928681 L 44 395.969833507 L 49 400.624424726 L 54 393.435364027 L 58 383.089840662 L 63 394.207419319 L 68 399.884308653 L 72 365.550888291 L 77 418.091705184 L 82 434.740479374 L 86 408.853679947 L 91 406.835196776 L 96 434.876967614 L 100 421.074388424 L 105 393.594585926 L 110 432.818797517 L 114 432.242786364 L 119 411.376502358 L 124 456.161452959 L 128 390.564936998 L 133 408.837195625 L 138 412.950625365 L 142 419.769862499 L 147 428.663239341 L 152 447.776783664 L 156 393.032102873 L 161 406.584908185 L 166 375.828124392 L 170 430.082931931 L 175 416.490439693 L 180 383.930565876 L 185 372.442225767 L 189 356.896112452 L 194 261.449429434 L 199 326.285960348 L 203 255.248286119 L 208 252.237517255 L 213 228.545376166 L 217 242.84942991 L 222 273.626551621 L 227 295.746027556 L 231 211.331723181 L 236 143.871154466 L 241 198.637111063 L 245 171.87807563 L 250 190.450927418 L 255 100.655489619 L 259 164.829871479 L 264 156.197869817 L 269 36.251202855 L 273 58.821803004 L 278 61.1916986199 L 283 68.8522214509 L 287 2.71501295508 L 292 43.0215475039 L 297 0.0 L 301 19.1444946328 L 306 76.2847151538 L 311 33.263636594 L 315 77.4478698169 L 320 90.5195384938 L 325 114.803660345 L 330 79.026830076 L 334 66.9982663753 L 339 71.4727830639 L 344 58.481946092 L 348 103.417427746 L 353 91.0582584623 L 358 18.5476308494 L 362 111.580363018 L 367 132.346935256 L 372 115.869030036 L 376 107.748177431 L 381 127.312845968 L 386 118.079657984 L 390 212.555331115 L 395 177.619786542 L 400 192.705570083 L 404 202.410689143 L 409 284.140461928 L 414 289.095646308 L 418 270.062464746 L 423 262.513254986 L 428 319.08277055 L 432 340.390504267 L 437 368.642831001 L 442 380.662658086 L 446 350.296973663 L 451 395.292949105 L 456 422.462483937 L 460 416.235696509 L 465 420.529669723 L 470 386.91748537 L 475 417.544544972 L 479 390.485385323 L 484 431.513624825 L 489 402.86099316 L 493 418.87903755 L 498 396.479306371 L 503 406.364499961 L 507 425.357994597 L 512 425.26312008 L 517 399.827444868 L 521 430.273960996 L 526 419.207201622 L 531 422.328814613 L 535 414.959210439 L 540 405.395416872 L 545 428.447153656 L 549 409.143391355 L 554 398.407237564 L 559 441.779728569 L 563 424.099450704 L 568 402.782042483 L 573 404.280639981 L 577 398.35397677 L 582 406.495636237 L 587 397.533028992 L 591 413.580616859 L 596 418.926900609 L 601 408.400833771 L 605 398.626484307 L 610 397.68985515 L 615 402.915620269 L 620 371.558119098"/>
			<path class="series-2-line" d="M 40 408.990682901 L 44 395.751453373 L 49 383.684584068 L 54 390.375478334 L 58 386.515130591 L 63 372.10354084 L 68 383.483875998 L 72 418.311415619 L 77 388.659142967 L 82 380.109354332 L 86 377.421366812 L 91 400.525304202 L 96 397.837316682 L 100 384.598087154 L 105 401.840223428 L 110 392.118074569 L 114 373.017043926 L 119 410.189303993 L 124 355.917466655 L 128 375.504323375 L 133 388.057018756 L 138 368.955988113 L 142 385.025764163 L 147 397.578459545 L 152 370.270907339 L 156 388.685403836 L 161 405.92754011 L 166 385.654149243 L 170 408.758086633 L 175 362.692770857 L 180 395.175590031 L 185 340.903752693 L 189 325.319802719 L 194 337.8724981 L 199 402.0090433 L 203 401.665776227 L 208 396.633068261 L 213 417.392285204 L 217 408.842496569 L 222 390.913826148 L 227 351.882671711 L 231 380.848410216 L 236 371.126261358 L 241 405.953800979 L 245 356.371404533 L 250 367.751739691 L 255 367.408472618 L 259 351.824522644 L 264 354.99833624 L 269 303.071219348 L 273 285.142548928 L 278 263.696797838 L 283 239.906326301 L 287 298.181070385 L 292 302.527244205 L 297 275.219691999 L 301 334.666796306 L 306 319.082846332 L 311 337.497342829 L 315 331.29227464 L 320 332.12136779 L 325 321.226858708 L 330 306.815268957 L 334 336.953367685 L 339 353.023143736 L 344 350.335156216 L 348 318.338163118 L 353 354.338062962 L 358 355.167156112 L 362 364.202770824 L 367 307.586213039 L 372 300.208784627 L 376 315.106200455 L 381 308.901132266 L 386 314.419666308 L 390 326.972361689 L 395 272.700524351 L 400 279.391418617 L 404 302.495356006 L 409 291.600846925 L 414 278.361617397 L 418 258.08822653 L 423 321.052411507 L 428 348.845789789 L 432 299.263393343 L 437 309.471368278 L 442 337.264746561 L 446 347.472721496 L 451 351.818895315 L 456 302.236498869 L 460 341.753479383 L 465 340.237852086 L 470 353.962907691 L 475 359.481441733 L 479 356.793454214 L 484 385.759192719 L 489 357.27928029 L 493 401.485701696 L 498 403.487155069 L 503 398.454447103 L 507 389.904658468 L 512 387.216670948 L 517 405.631167445 L 521 393.564298141 L 526 410.806434415 L 531 409.290807118 L 535 398.396298036 L 540 409.776633195 L 545 408.261005898 L 549 384.470534362 L 554 395.85086952 L 559 379.094559322 L 563 376.406571803 L 568 392.476347854 L 573 415.580285243 L 577 408.202856831 L 582 400.825428419 L 587 409.861043131 L 591 403.655974942 L 596 420.898111215 L 601 399.452360125 L 605 397.936732829 L 610 389.386944194 L 615 379.664795335 L 620 407.458173617"/>
		</g>
		<text class="x-axis-label" x="40.0" y="540">
			0
		</text>
		<path class="x-notch" d="M 63.3870967742 525 L 63.3870967742 530"/>
		<text class="x-axis-label" x="86.7741935484" y="540">
			10
		</text>
		<path class="x-notch" d="M 110.161290323 525 L 110.161290323 530"/>
		<text class="x-axis-label" x="133.548387097" y="540">
			20
		</text>
		<path class="x-notch" d="M 156.935483871 525 L 156.935483871 530"/>
		<text class="x-axis-label" x="180.322580645" y="540">
			30
		</text>
		<path class="x-notch" d="M 203.709677419 525 L 203.709677419 530"/>
		<text class="x-axis-label" x="227.096774194" y="540">
			40
		</text>
		<path class="x-notch" d="M 250.483870968 525 L 250.483870968 530"/>
		<text class="x-axis-label" x="273.870967742" y="540">
			50
		</text>
		<path class="x-notch" d="M 297.258064516 525 L 297.258064516 530"/>
		<text class="x-axis-label" x="320.64516129" y="540">
			60
		</text>
		<path class="x-notch" d="M 344.032258065 525 L 344.032258065 530"/>
		<text class="x-axis-label" x="367.419354839" y="540">
			70
		</text>
		<path class="x-notch" d="M 390.806451613 525 L 390.806451613 530"/>
		<text class="x-axis-label" x="414.193548387" y="540">
			80
		</text>
		<path class="x-notch" d="M 437.580645161 525 L 437.580645161 530"/>
		<text class="x-axis-label" x="460.967741935" y="540">
			90
		</text>
		<path class="x-notch" d="M 484.35483871 525 L 484.35483871 530"/>
		<text class="x-axis-label" x="507.741935484" y="540">
			100
		</text>
		<path class="x-notch" d="M 531.129032258 525 L 531.129032258 530"/>
		<text class="x-axis-label" x="554.516129032" y="540">
			110
		</text>
		<path class="x-notch" d="M 577.903225806 525 L 577.903225806 530"/>
		<text class="x-axis-label" x="601.290322581" y="540">
			120
		</text>
		<path class="x-notch" d="M 624.677419355 525 L 624.677419355 530"/>
	</g>
</svg>
