<?xml version="1.0" ?>
<svg height="600" version="1.1" width="800" xmlns="http://www.w3.org/2000/svg" xmlns:svg="http://www.w3.org/2000/svg">
	<style type="text/css">
		

.x-axis-path, .y-gridline, .x-notch { fill:none; stroke: #a7a9ac; stroke-width:1; }



.y-gridline { stroke-width: 1; }

.y-axis-path, .y-axis-path2, .x-notch-left, .x-notch-right { display: none;}



.x-axis-label, .data-point-label {font-size: 12px; font-weight:normal; font-family: sans-serif; fill: #58595b; text-anchor:middle;}

.y-axis-label {font-size: 12px; font-family: helvetica; fill: #a7a9ac; text-anchor:end;}



.series-1-line { fill: none; stroke: #10b80c; stroke-width:2; }



.series-2-line { fill: none; stroke: #e90f0a; stroke-width: 2;}

	</style>
	<rect fill="white" height="600" width="800" x="0" y="0"/>
	<g id="grid" transform="translate(70, 30)">
		<g class="x-axis" id="x_axis">
			<path class="x-axis-path" d="M 0 525 L 660 525"/>
			<path class="x-notch-left" d="M 0 525, L 0 535"/>
			<path class="x-notch-right" d="M 660 525, L 660 535"/>
		</g>
		<g class="y-axis" id="y_axis">
			<path class="y-axis-path" d="M 0 525 L 0 0"/>
			<path class="y-axis-path-2" d="M 660 525 L 660 0"/>
			<path class="y-gridline" d="M 0 525 L 660 525"/>
			<text class="y-axis-label" x="-5" y="525">
				-100
			</text>
			<path class="y-gridline" d="M 0 420 L 660 420"/>
			<text class="y-axis-label" x="-5" y="420">
				 0
			</text>
			<path class="y-gridline" d="M 0 315 L 660 315"/>
			<text class="y-axis-label" x="-5" y="315">
				100
			</text>
			<path class="y-gridline" d="M 0 210 L 660 210"/>
			<text class="y-axis-label" x="-5" y="210">
				200
			</text>
			<path class="y-gridline" d="M 0 105 L 660 105"/>
			<text class="y-axis-label" x="-5" y="105">
				300
			</text>
			<path class="y-gridline" d="M 0 0 L 660 0"/>
			<text class="y-axis-label" x="-5" y="0">
				400
			</text>
		</g>
		<g>
			<path class="series-1-line" d="M 40 419.294652 L 47 413.2215696 L 54 450.3324672 L 62 408.8823648 L 69 414.5743224 L 76 412.40514 L 84 395.9664576 L 91 405.1855752 L 98 358.5929928 L 106 365.9813304 L 113 367.904208 L 120 383.2078656 L 128 310.6076232 L 135 319.1534808 L 142 277.1918184 L 150 245.164416 L 157 217.8489936 L 164 192.3370512 L 172 219.6485088 L 179 236.5406064 L 186 147.005544 L 194 166.6977816 L 201 157.4473992 L 208 158.5626168 L 216 175.7508144 L 223 106.031352 L 230 123.9734496 L 238 124.3616472 L 245 200.4573648 L 252 136.4994624 L 260 131.1261 L 267 161.5064976 L 274 79.8602952 L 282 59.6525328 L 289 127.1865504 L 296 65.921268 L 304 130.1440056 L 311 80.6706432 L 318 200.1935208 L 326 168.6776784 L 333 185.973816 L 341 86.9618736 L 348 120.5733312 L 355 120.1807488 L 363 142.1342664 L 370 92.687784 L 377 142.5876816 L 385 144.7260192 L 392 53.5756368 L 399 58.9446144 L 407 84.802032 L 414 131.4439896 L 421 118.2901272 L 429 94.5010248 L 436 131.3704224 L 443 46.4394 L 451 48.9275976 L 458 106.6348752 L 465 111.3843528 L 473 58.3846704 L 480 114.934428 L 487 154.8723456 L 495 111.9682032 L 502 100.3221408 L 509 217.0986384 L 517 267.402576 L 524 351.1448136 L 531 398.1097512 L 539 364.0365288 L 546 342.2403264 L 553 395.424624 L 561 395.0051616 L 568 392.1358392 L 575 438.6160968 L 583 428.1813144 L 590 464.942772 L 597 415.3077096 L 605 407.2152672 L 612 412.0189248 L 620 391.0572624"/>
			<path class="series-2-line" d="M 40 423.57 L 47 445.536 L 54 405.552 L 62 418.068 L 69 406.434 L 76 433.65 L 84 434.616 L 91 446.082 L 98 441.798 L 106 452.214 L 113 455.28 L 120 459.396 L 128 458.262 L 135 451.878 L 142 462.294 L 150 438.06 L 157 456.876 L 164 439.992 L 172 454.608 L 179 456.624 L 186 435.54 L 194 451.206 L 201 436.422 L 208 442.638 L 216 439.404 L 223 439.32 L 230 441.336 L 238 438.102 L 245 418.068 L 252 420.084 L 260 414.75 L 267 401.016 L 274 418.782 L 282 434.448 L 289 398.664 L 296 431.13 L 304 420.546 L 311 415.212 L 318 418.278 L 326 396.144 L 333 417.06 L 341 400.176 L 348 414.792 L 355 410.508 L 363 400.974 L 370 391.44 L 377 403.956 L 385 414.372 L 392 399.588 L 399 397.404 L 407 393.12 L 414 381.486 L 421 402.402 L 429 362.418 L 436 401.184 L 443 399.0 L 451 395.766 L 458 377.832 L 465 349.398 L 473 402.864 L 480 401.73 L 487 371.196 L 495 364.812 L 502 396.228 L 509 377.244 L 517 408.66 L 524 424.326 L 531 403.242 L 539 411.558 L 546 429.324 L 553 420.84 L 561 420.756 L 568 434.322 L 575 406.938 L 583 413.154 L 590 427.77 L 597 406.686 L 605 416.052 L 612 420.168 L 620 430.584"/>
		</g>
		<text class="x-axis-label" x="40.0" y="540">
			0
		</text>
		<path class="x-notch" d="M 76.7088607595 525 L 76.7088607595 530"/>
		<text class="x-axis-label" x="113.417721519" y="540">
			10
		</text>
		<path class="x-notch" d="M 150.126582278 525 L 150.126582278 530"/>
		<text class="x-axis-label" x="186.835443038" y="540">
			20
		</text>
		<path class="x-notch" d="M 223.544303797 525 L 223.544303797 530"/>
		<text class="x-axis-label" x="260.253164557" y="540">
			30
		</text>
		<path class="x-notch" d="M 296.962025316 525 L 296.962025316 530"/>
		<text class="x-axis-label" x="333.670886076" y="540">
			40
		</text>
		<path class="x-notch" d="M 370.379746835 525 L 370.379746835 530"/>
		<text class="x-axis-label" x="407.088607595" y="540">
			50
		</text>
		<path class="x-notch" d="M 443.797468354 525 L 443.797468354 530"/>
		<text class="x-axis-label" x="480.506329114" y="540">
			60
		</text>
		<path class="x-notch" d="M 517.215189873 525 L 517.215189873 530"/>
		<text class="x-axis-label" x="553.924050633" y="540">
			70
		</text>
		<path class="x-notch" d="M 590.632911392 525 L 590.632911392 530"/>
	</g>
</svg>
