<?xml version="1.0" ?>
<svg height="600" version="1.1" width="800" xmlns="http://www.w3.org/2000/svg" xmlns:svg="http://www.w3.org/2000/svg">
	<style type="text/css">
		

.x-axis-path, .y-gridline, .x-notch { fill:none; stroke: #a7a9ac; stroke-width:1; }



.y-gridline { stroke-width: 1; }

.y-axis-path, .y-axis-path2, .x-notch-left, .x-notch-right { display: none;}



.x-axis-label, .data-point-label {font-size: 12px; font-weight:normal; font-family: sans-serif; fill: #58595b; text-anchor:middle;}

.y-axis-label {font-size: 12px; font-family: helvetica; fill: #a7a9ac; text-anchor:end;}



.series-1-line { fill: none; stroke: #10b80c; stroke-width:2; }



.series-2-line { fill: none; stroke: #e90f0a; stroke-width: 2;}

	</style>
	<rect fill="white" height="600" width="800" x="0" y="0"/>
	<g id="grid" transform="translate(70, 30)">
		<g class="x-axis" id="x_axis">
			<path class="x-axis-path" d="M 0 525 L 660 525"/>
			<path class="x-notch-left" d="M 0 525, L 0 535"/>
			<path class="x-notch-right" d="M 660 525, L 660 535"/>
		</g>
		<g class="y-axis" id="y_axis">
			<path class="y-axis-path" d="M 0 525 L 0 0"/>
			<path class="y-axis-path-2" d="M 660 525 L 660 0"/>
			<path class="y-gridline" d="M 0 525 L 660 525"/>
			<text class="y-axis-label" x="-5" y="525">
				-200
			</text>
			<path class="y-gridline" d="M 0 420 L 660 420"/>
			<text class="y-axis-label" x="-5" y="420">
				 0
			</text>
			<path class="y-gridline" d="M 0 315 L 660 315"/>
			<text class="y-axis-label" x="-5" y="315">
				200
			</text>
			<path class="y-gridline" d="M 0 210 L 660 210"/>
			<text class="y-axis-label" x="-5" y="210">
				400
			</text>
			<path class="y-gridline" d="M 0 105 L 660 105"/>
			<text class="y-axis-label" x="-5" y="105">
				600
			</text>
			<path class="y-gridline" d="M 0 0 L 660 0"/>
			<text class="y-axis-label" x="-5" y="0">
				800
			</text>
		</g>
		<g>
			<path class="series-1-line" d="M 40 419.380763542 L 45 430.612489843 L 50 409.826950984 L 55 413.063026703 L 61 427.636850337 L 66 399.188096548 L 71 413.026904411 L 77 418.450286624 L 82 424.88817074 L 87 420.513435177 L 93 436.83704942 L 98 414.389059369 L 103 414.003824559 L 109 414.283461052 L 114 405.499995541 L 119 398.903563589 L 125 408.963031168 L 130 402.996534752 L 135 408.61206368 L 141 423.675533914 L 146 423.220154636 L 151 404.971552872 L 157 418.215088029 L 162 383.345795434 L 167 416.779747107 L 173 408.626217132 L 178 390.027711833 L 183 403.21884334 L 188 395.76539337 L 194 393.333141002 L 199 381.330126275 L 204 362.959249328 L 210 342.628421304 L 215 311.152537949 L 220 364.129229782 L 226 287.479762954 L 231 288.4766744 L 236 280.112983956 L 242 272.536712932 L 247 299.007529678 L 252 265.449693 L 258 248.180930306 L 263 249.894570833 L 268 229.791371161 L 274 235.00486584 L 279 240.969752432 L 284 244.276245555 L 290 241.423672248 L 295 212.170304091 L 300 175.690691018 L 306 192.223919858 L 311 176.967238957 L 316 166.976306022 L 322 258.794200745 L 327 181.672009329 L 332 222.051628044 L 337 226.075669055 L 343 247.874645862 L 348 192.28953558 L 353 193.461671728 L 359 153.972396973 L 364 201.928437074 L 369 180.057433039 L 375 105.0 L 380 144.277504462 L 385 187.089525907 L 391 127.970717448 L 396 170.345495942 L 401 205.003564115 L 407 158.918798787 L 412 208.326856676 L 417 213.889709019 L 423 168.365280631 L 428 187.977496815 L 433 204.002792366 L 439 239.030688377 L 444 244.645125562 L 449 230.59618502 L 455 266.304236732 L 460 305.442816935 L 465 325.947532774 L 471 363.56340485 L 476 359.889295164 L 481 360.379092126 L 486 374.865030473 L 492 380.008653621 L 497 393.375282767 L 502 411.325866565 L 508 438.391410146 L 513 425.496441635 L 518 422.364382198 L 524 446.788181386 L 529 433.805600524 L 534 435.939834925 L 540 423.4823823 L 545 418.442775435 L 550 443.234218976 L 556 431.004121768 L 561 424.337545348 L 566 430.075895329 L 572 439.557831021 L 577 408.099961422 L 582 419.506912426 L 588 415.482080398 L 593 421.57060685 L 598 429.583056871 L 604 395.255814526 L 609 430.071912453 L 614 420.046589623 L 620 424.262504413"/>
			<path class="series-2-line" d="M 40 431.463298326 L 45 416.907142562 L 50 420.774144822 L 55 402.806293128 L 61 425.778792598 L 66 427.598777299 L 71 432.148118745 L 77 445.56786961 L 82 433.74107059 L 87 405.538131106 L 93 448.298466971 L 98 418.730849114 L 103 433.515278351 L 109 451.029064332 L 114 445.343317987 L 119 444.433945944 L 125 426.46609425 L 130 433.744792441 L 135 417.141619119 L 141 416.914586262 L 146 416.00521422 L 151 423.28391241 L 157 387.575241879 L 162 433.064934488 L 167 414.414743608 L 173 416.917067496 L 178 425.560444058 L 183 398.039843759 L 188 424.424039159 L 194 439.208468396 L 199 403.499797865 L 204 429.883993264 L 210 416.010176687 L 215 384.395541272 L 220 350.733888299 L 226 394.17656335 L 231 406.231635842 L 236 388.263784148 L 242 380.531020245 L 247 383.715683319 L 252 357.559761393 L 258 371.661851443 L 263 325.035753935 L 268 328.902756195 L 274 348.463559734 L 279 277.273251528 L 284 301.61042937 L 290 275.454507443 L 295 296.379989355 L 300 273.635763358 L 306 283.643818293 L 311 303.204621832 L 316 272.954664789 L 322 274.092310305 L 327 284.782704425 L 332 247.027016336 L 337 292.516708945 L 343 252.714003297 L 348 229.969777301 L 353 267.953738864 L 359 209.045536007 L 364 240.206105709 L 369 173.792171805 L 375 208.364437437 L 380 182.890854697 L 385 191.534231259 L 391 214.506730728 L 396 238.161569384 L 401 161.512547689 L 407 146.956391926 L 412 164.470177907 L 417 129.443846562 L 423 160.604416264 L 428 142.63656457 L 433 98.7398238061 L 439 257.4978213 L 444 134.449734954 L 449 205.185977447 L 455 151.054148892 L 460 227.249104874 L 465 229.751428762 L 471 250.676910673 L 476 299.578299212 L 481 337.562260775 L 486 320.959087453 L 492 351.437317969 L 497 376.456834996 L 502 404.888047954 L 508 395.108266493 L 513 392.151876892 L 518 409.665662873 L 524 412.850325947 L 529 396.929491811 L 534 417.854973722 L 540 426.498350285 L 545 395.566054056 L 550 421.267910269 L 556 421.040877413 L 561 404.437704091 L 566 421.951490072 L 572 387.607497913 L 577 406.485962266 L 582 417.858695572 L 588 388.291077716 L 593 431.051413581 L 598 413.083561887 L 604 427.185651937 L 609 405.806104313 L 614 434.237317271 L 620 423.092857438"/>
		</g>
		<text class="x-axis-label" x="40.0" y="540">
			0
		</text>
		<path class="x-notch" d="M 66.6055045872 525 L 66.6055045872 530"/>
		<text class="x-axis-label" x="93.2110091743" y="540">
			10
		</text>
		<path class="x-notch" d="M 119.816513761 525 L 119.816513761 530"/>
		<text class="x-axis-label" x="146.422018349" y="540">
			20
		</text>
		<path class="x-notch" d="M 173.027522936 525 L 173.027522936 530"/>
		<text class="x-axis-label" x="199.633027523" y="540">
			30
		</text>
		<path class="x-notch" d="M 226.23853211 525 L 226.23853211 530"/>
		<text class="x-axis-label" x="252.844036697" y="540">
			40
		</text>
		<path class="x-notch" d="M 279.449541284 525 L 279.449541284 530"/>
		<text class="x-axis-label" x="306.055045872" y="540">
			50
		</text>
		<path class="x-notch" d="M 332.660550459 525 L 332.660550459 530"/>
		<text class="x-axis-label" x="359.266055046" y="540">
			60
		</text>
		<path class="x-notch" d="M 385.871559633 525 L 385.871559633 530"/>
		<text class="x-axis-label" x="412.47706422" y="540">
			70
		</text>
		<path class="x-notch" d="M 439.082568807 525 L 439.082568807 530"/>
		<text class="x-axis-label" x="465.688073394" y="540">
			80
		</text>
		<path class="x-notch" d="M 492.293577982 525 L 492.293577982 530"/>
		<text class="x-axis-label" x="518.899082569" y="540">
			90
		</text>
		<path class="x-notch" d="M 545.504587156 525 L 545.504587156 530"/>
		<text class="x-axis-label" x="572.110091743" y="540">
			100
		</text>
		<path class="x-notch" d="M 598.71559633 525 L 598.71559633 530"/>
	</g>
</svg>
