<?xml version="1.0" ?>
<svg height="600" version="1.1" width="800" xmlns="http://www.w3.org/2000/svg" xmlns:svg="http://www.w3.org/2000/svg">
	<style type="text/css">
		

.x-axis-path, .y-gridline, .x-notch { fill:none; stroke: #a7a9ac; stroke-width:1; }



.y-gridline { stroke-width: 1; }

.y-axis-path, .y-axis-path2, .x-notch-left, .x-notch-right { display: none;}



.x-axis-label, .data-point-label {font-size: 12px; font-weight:normal; font-family: sans-serif; fill: #58595b; text-anchor:middle;}

.y-axis-label {font-size: 12px; font-family: helvetica; fill: #a7a9ac; text-anchor:end;}



.series-1-line { fill: none; stroke: #10b80c; stroke-width:2; }



.series-2-line { fill: none; stroke: #e90f0a; stroke-width: 2;}

	</style>
	<rect fill="white" height="600" width="800" x="0" y="0"/>
	<g id="grid" transform="translate(70, 30)">
		<g class="x-axis" id="x_axis">
			<path class="x-axis-path" d="M 0 525 L 660 525"/>
			<path class="x-notch-left" d="M 0 525, L 0 535"/>
			<path class="x-notch-right" d="M 660 525, L 660 535"/>
		</g>
		<g class="y-axis" id="y_axis">
			<path class="y-axis-path" d="M 0 525 L 0 0"/>
			<path class="y-axis-path-2" d="M 660 525 L 660 0"/>
			<path class="y-gridline" d="M 0 525 L 660 525"/>
			<text class="y-axis-label" x="-5" y="525">
				-200
			</text>
			<path class="y-gridline" d="M 0 394 L 660 394"/>
			<text class="y-axis-label" x="-5" y="394">
				 0
			</text>
			<path class="y-gridline" d="M 0 263 L 660 263"/>
			<text class="y-axis-label" x="-5" y="263">
				200
			</text>
			<path class="y-gridline" d="M 0 132 L 660 132"/>
			<text class="y-axis-label" x="-5" y="132">
				400
			</text>
			<path class="y-gridline" d="M 0 1 L 660 1"/>
			<text class="y-axis-label" x="-5" y="1">
				600
			</text>
		</g>
		<g>
			<path class="series-1-line" d="M 40 414.556082847 L 45 381.884378782 L 50 372.686247639 L 55 377.350845963 L 61 418.869914171 L 66 382.743062721 L 71 356.562214149 L 76 382.355576097 L 82 389.532890095 L 87 379.015681223 L 92 381.648743044 L 98 382.39726811 L 103 380.884610401 L 108 368.315285062 L 113 345.192357892 L 119 350.233602234 L 124 313.332225451 L 129 347.354306566 L 134 306.285650292 L 140 266.933951061 L 145 299.19726187 L 150 274.189471279 L 156 262.771970623 L 161 218.394513378 L 166 230.430332345 L 171 235.890035966 L 177 193.96290117 L 182 210.500505719 L 187 208.861754895 L 192 163.060686768 L 198 163.222846176 L 203 175.321058369 L 208 170.897479006 L 214 136.424864708 L 219 121.656749821 L 224 163.971576659 L 229 140.869229453 L 235 176.902267106 L 240 66.2912972233 L 245 142.80120519 L 250 96.2040517671 L 256 169.40548543 L 261 154.260724525 L 266 119.348417651 L 272 174.227149525 L 277 192.188691624 L 282 104.443695708 L 287 12.3230073251 L 293 27.6042540377 L 298 132.488053156 L 303 131.917173826 L 308 44.5916171884 L 314 93.2097931743 L 319 0.0 L 324 34.1478475649 L 330 41.764854139 L 335 67.4742628984 L 340 78.1903508037 L 345 94.9791615876 L 351 73.0495456963 L 356 119.907971378 L 361 92.8483909857 L 366 188.078880056 L 372 128.142969597 L 377 180.57170569 L 382 188.921751002 L 388 201.773908563 L 393 237.681506432 L 398 283.995379718 L 403 260.95607907 L 409 239.675875394 L 414 206.961704737 L 419 268.206832317 L 424 338.100118342 L 430 333.341379556 L 435 375.865599367 L 440 346.523602903 L 446 358.223935781 L 451 392.162717039 L 456 368.306751131 L 461 376.154383975 L 467 379.227138372 L 472 375.808710612 L 477 388.912074407 L 482 375.610036996 L 488 387.854595603 L 493 380.520421251 L 498 401.434371599 L 504 406.727148842 L 509 399.874480327 L 514 388.917578878 L 519 380.599159554 L 525 396.215239023 L 530 406.219521487 L 535 408.936536497 L 540 393.540242691 L 546 394.62392718 L 551 404.544256455 L 556 404.204003396 L 562 390.838919426 L 567 398.162906505 L 572 387.980857055 L 577 398.843618042 L 583 386.525498936 L 588 390.603731603 L 593 395.163470107 L 598 409.753491343 L 604 391.090536494 L 609 377.055460345 L 614 395.184255489 L 620 400.770052226"/>
			<path class="series-2-line" d="M 40 390.320005905 L 45 401.347194128 L 50 381.341102444 L 55 396.45161697 L 61 395.228826283 L 66 403.806018723 L 71 357.666638698 L 76 389.110458438 L 82 394.420989836 L 87 389.114872845 L 92 370.742111683 L 98 359.719337867 L 103 382.996505 L 108 379.32371853 L 113 397.700894099 L 119 385.861455022 L 124 419.755270544 L 129 377.699216822 L 134 392.809731349 L 140 394.853601704 L 145 372.397514238 L 150 366.274731987 L 156 374.035259166 L 161 363.829150611 L 166 407.522949261 L 171 362.200234497 L 177 383.844071108 L 182 394.05459407 L 187 373.231837126 L 192 394.059008477 L 198 378.952908358 L 203 380.996778713 L 208 380.590653286 L 214 385.901184684 L 219 374.878410868 L 224 376.922281223 L 229 360.182850582 L 235 386.726678758 L 240 389.587214374 L 245 376.114444776 L 250 361.825009917 L 256 354.885562405 L 261 370.812742192 L 266 381.023265154 L 272 365.917165035 L 277 376.944353257 L 282 316.10499854 L 287 332.848843587 L 293 347.959358113 L 298 335.303253776 L 303 307.130509486 L 308 308.35771458 L 314 346.334856405 L 319 341.845404675 L 324 312.039329864 L 330 312.449869697 L 335 325.110388441 L 340 319.80427145 L 345 322.664807066 L 351 314.092029032 L 356 276.119301614 L 361 303.47979505 L 366 299.807008581 L 372 296.134222111 L 377 281.028121992 L 382 294.505305996 L 388 306.34915948 L 393 352.492953912 L 398 303.903578104 L 403 309.214109502 L 409 326.77461981 L 414 280.635239785 L 419 323.512373174 L 424 354.956192914 L 430 343.116753838 L 435 344.343958932 L 440 377.421109193 L 446 377.831649027 L 451 380.692184643 L 456 386.002716041 L 461 414.179874738 L 467 390.907122011 L 472 392.950992367 L 477 397.444858504 L 482 412.55537303 L 488 391.732616086 L 493 399.493143266 L 498 395.820356796 L 504 408.48087554 L 509 404.80808907 L 514 404.401963643 L 519 406.445833999 L 525 401.139717007 L 530 411.350239969 L 535 411.760779803 L 540 403.188001769 L 546 403.598541603 L 551 395.025763569 L 556 394.619638142 L 562 387.68019063 L 567 401.974039895 L 572 408.101236554 L 577 411.77843743 L 583 400.755663615 L 588 411.782851837 L 593 411.37672641 L 598 406.88727468 L 604 398.314496646 L 609 400.358367001 L 614 385.252266882 L 620 384.029476194"/>
		</g>
		<text class="x-axis-label" x="40.0" y="540">
			0
		</text>
		<path class="x-notch" d="M 66.3636363636 525 L 66.3636363636 530"/>
		<text class="x-axis-label" x="92.7272727273" y="540">
			10
		</text>
		<path class="x-notch" d="M 119.090909091 525 L 119.090909091 530"/>
		<text class="x-axis-label" x="145.454545455" y="540">
			20
		</text>
		<path class="x-notch" d="M 171.818181818 525 L 171.818181818 530"/>
		<text class="x-axis-label" x="198.181818182" y="540">
			30
		</text>
		<path class="x-notch" d="M 224.545454545 525 L 224.545454545 530"/>
		<text class="x-axis-label" x="250.909090909" y="540">
			40
		</text>
		<path class="x-notch" d="M 277.272727273 525 L 277.272727273 530"/>
		<text class="x-axis-label" x="303.636363636" y="540">
			50
		</text>
		<path class="x-notch" d="M 330.0 525 L 330.0 530"/>
		<text class="x-axis-label" x="356.363636364" y="540">
			60
		</text>
		<path class="x-notch" d="M 382.727272727 525 L 382.727272727 530"/>
		<text class="x-axis-label" x="409.090909091" y="540">
			70
		</text>
		<path class="x-notch" d="M 435.454545455 525 L 435.454545455 530"/>
		<text class="x-axis-label" x="461.818181818" y="540">
			80
		</text>
		<path class="x-notch" d="M 488.181818182 525 L 488.181818182 530"/>
		<text class="x-axis-label" x="514.545454545" y="540">
			90
		</text>
		<path class="x-notch" d="M 540.909090909 525 L 540.909090909 530"/>
		<text class="x-axis-label" x="567.272727273" y="540">
			100
		</text>
		<path class="x-notch" d="M 593.636363636 525 L 593.636363636 530"/>
		<text class="x-axis-label" x="620.0" y="540">
			110
		</text>
	</g>
</svg>
