<?xml version="1.0" ?>
<svg height="600" version="1.1" width="800" xmlns="http://www.w3.org/2000/svg" xmlns:svg="http://www.w3.org/2000/svg">
	<style type="text/css">

.x-axis-path, .y-gridline, .x-notch { fill:none; stroke: #a7a9ac; stroke-width:1; }



.y-gridline { stroke-width: 1; }

.y-axis-path, .y-axis-path2, .x-notch-left, .x-notch-right { display: none;}



.x-axis-label, .data-point-label {font-size: 12px; font-weight:normal; font-family: sans-serif; fill: #58595b; text-anchor:middle;}

.y-axis-label {font-size: 12px; font-family: helvetica; fill: #a7a9ac; text-anchor:end;}



.series-1-line { fill: none; stroke: #10b80c; stroke-width:2; }



.series-2-line { fill: none; stroke: #e90f0a; stroke-width: 2;}
</style>
	<rect fill="white" height="600" width="800" x="0" y="0"/>
	<g id="grid" transform="translate(70, 30)">
		<g class="x-axis" id="x_axis">
			<path class="x-axis-path" d="M 0 525 L 660 525"/>
			<path class="x-notch-left" d="M 0 525, L 0 535"/>
			<path class="x-notch-right" d="M 660 525, L 660 535"/>
		</g>
		<g class="y-axis" id="y_axis">
			<path class="y-axis-path" d="M 0 525 L 0 0"/>
			<path class="y-axis-path-2" d="M 660 525 L 660 0"/>
			<path class="y-gridline" d="M 0 525 L 660 525"/>
			<text class="y-axis-label" x="-5" y="525">-200</text>
			<path class="y-gridline" d="M 0 394 L 660 394"/>
			<text class="y-axis-label" x="-5" y="394"> 0</text>
			<path class="y-gridline" d="M 0 263 L 660 263"/>
			<text class="y-axis-label" x="-5" y="263">200</text>
			<path class="y-gridline" d="M 0 132 L 660 132"/>
			<text class="y-axis-label" x="-5" y="132">400</text>
			<path class="y-gridline" d="M 0 1 L 660 1"/>
			<text class="y-axis-label" x="-5" y="1">600</text>
		</g>
		<g>
			<path class="series-1-line" d="M 40 395.143556999 L 47 404.828172666 L 55 357.271146093 L 63 402.316630435 L 70 407.722724282 L 78 421.72073066 L 86 407.11507795 L 94 402.550303616 L 101 412.095443721 L 109 400.161074914 L 117 421.87736467 L 125 368.085889454 L 132 399.720744056 L 140 405.563788687 L 148 373.408459978 L 156 376.875789036 L 163 392.550498699 L 171 385.715705116 L 179 375.039068082 L 186 323.203519689 L 194 334.040443219 L 202 325.267429672 L 210 266.796440396 L 217 271.189701942 L 225 267.113909313 L 233 238.869889423 L 241 203.484284913 L 248 202.481585666 L 256 161.944647423 L 264 185.057599688 L 272 108.425639179 L 279 74.8553962768 L 287 142.323484053 L 295 105.557834239 L 302 85.1369768112 L 310 59.8445540127 L 318 47.473779248 L 326 59.5858689981 L 333 63.979130544 L 341 129.647656678 L 349 0.0 L 357 110.180299239 L 364 67.5307965793 L 372 78.1405274959 L 380 44.3962125547 L 388 114.046330114 L 395 148.003234888 L 403 195.424707216 L 411 129.11284862 L 418 263.758577928 L 426 265.357697215 L 434 162.968795625 L 442 207.752490875 L 449 144.007854336 L 457 232.395641887 L 465 282.156598832 L 473 344.263049879 L 480 376.945878086 L 488 391.956171939 L 496 364.81242899 L 504 381.464829652 L 511 382.13883369 L 519 386.706712101 L 527 379.156016611 L 534 400.505365778 L 542 418.798783595 L 550 373.302290516 L 558 389.954418764 L 565 407.07782186 L 573 401.046374822 L 581 380.223980328 L 589 385.682922337 L 596 380.279932566 L 604 391.274038517 L 612 405.219469147 L 620 408.49529172"/>
			<path class="series-2-line" d="M 40 399.470677335 L 47 406.182436928 L 55 418.342460649 L 63 380.106041181 L 70 363.662678227 L 78 388.081296237 L 86 385.939626621 L 94 384.478990021 L 101 412.983806128 L 109 365.89395745 L 117 381.459146252 L 125 356.843387105 L 132 365.598245746 L 140 387.292731692 L 148 387.194161124 L 156 327.845718157 L 163 382.910821891 L 171 390.3036145 L 179 386.118845836 L 186 375.12374701 L 194 361.404516121 L 202 379.012803971 L 210 393.896959756 L 217 376.09153077 L 225 378.03605925 L 233 352.058234071 L 241 377.838918114 L 248 351.861092935 L 256 384.452107138 L 264 368.008744184 L 272 374.039470761 L 279 328.992721132 L 287 378.609560737 L 295 353.99380159 L 302 329.378042444 L 310 347.66736331 L 318 315.560240986 L 326 342.021958045 L 333 324.216529059 L 341 282.57494451 L 349 298.821166328 L 357 272.162308132 L 364 342.21013822 L 372 310.784048913 L 380 319.538907553 L 388 294.24211539 L 395 259.410861002 L 403 328.777658074 L 411 318.463592265 L 418 353.097705517 L 426 319.628517161 L 434 333.150606914 L 442 309.215880783 L 449 323.419003553 L 457 349.880720612 L 465 372.93727259 L 473 355.81287662 L 480 387.041824792 L 488 359.70193358 L 496 348.025801739 L 504 383.340948007 L 511 388.009608551 L 519 369.523146549 L 527 382.364203286 L 534 375.455302558 L 542 367.184335797 L 550 376.620227454 L 558 385.375086094 L 565 373.698954253 L 573 388.583110039 L 581 373.501813117 L 589 402.006629224 L 596 398.502893575 L 604 386.826761734 L 612 392.857488311 L 620 390.034785678"/>
		</g>
		<text class="x-axis-label" x="40.0" y="540">0</text>
		<path class="x-notch" d="M 78.6666666667 525 L 78.6666666667 530"/>
		<text class="x-axis-label" x="117.333333333" y="540">10</text>
		<path class="x-notch" d="M 156.0 525 L 156.0 530"/>
		<text class="x-axis-label" x="194.666666667" y="540">20</text>
		<path class="x-notch" d="M 233.333333333 525 L 233.333333333 530"/>
		<text class="x-axis-label" x="272.0" y="540">30</text>
		<path class="x-notch" d="M 310.666666667 525 L 310.666666667 530"/>
		<text class="x-axis-label" x="349.333333333" y="540">40</text>
		<path class="x-notch" d="M 388.0 525 L 388.0 530"/>
		<text class="x-axis-label" x="426.666666667" y="540">50</text>
		<path class="x-notch" d="M 465.333333333 525 L 465.333333333 530"/>
		<text class="x-axis-label" x="504.0" y="540">60</text>
		<path class="x-notch" d="M 542.666666667 525 L 542.666666667 530"/>
		<text class="x-axis-label" x="581.333333333" y="540">70</text>
		<path class="x-notch" d="M 620.0 525 L 620.0 530"/>
	</g>
</svg>
