<?xml version="1.0" ?>
<svg height="600" version="1.1" width="800" xmlns="http://www.w3.org/2000/svg" xmlns:svg="http://www.w3.org/2000/svg">
	<style type="text/css">
		

.x-axis-path, .y-gridline, .x-notch { fill:none; stroke: #a7a9ac; stroke-width:1; }



.y-gridline { stroke-width: 1; }

.y-axis-path, .y-axis-path2, .x-notch-left, .x-notch-right { display: none;}



.x-axis-label, .data-point-label {font-size: 12px; font-weight:normal; font-family: sans-serif; fill: #58595b; text-anchor:middle;}

.y-axis-label {font-size: 12px; font-family: helvetica; fill: #a7a9ac; text-anchor:end;}



.series-1-line { fill: none; stroke: #10b80c; stroke-width:2; }



.series-2-line { fill: none; stroke: #e90f0a; stroke-width: 2;}

	</style>
	<rect fill="white" height="600" width="800" x="0" y="0"/>
	<g id="grid" transform="translate(70, 30)">
		<g class="x-axis" id="x_axis">
			<path class="x-axis-path" d="M 0 525 L 660 525"/>
			<path class="x-notch-left" d="M 0 525, L 0 535"/>
			<path class="x-notch-right" d="M 660 525, L 660 535"/>
		</g>
		<g class="y-axis" id="y_axis">
			<path class="y-axis-path" d="M 0 525 L 0 0"/>
			<path class="y-axis-path-2" d="M 660 525 L 660 0"/>
			<path class="y-gridline" d="M 0 525 L 660 525"/>
			<text class="y-axis-label" x="-5" y="525">
				-100
			</text>
			<path class="y-gridline" d="M 0 420 L 660 420"/>
			<text class="y-axis-label" x="-5" y="420">
				 0
			</text>
			<path class="y-gridline" d="M 0 315 L 660 315"/>
			<text class="y-axis-label" x="-5" y="315">
				100
			</text>
			<path class="y-gridline" d="M 0 210 L 660 210"/>
			<text class="y-axis-label" x="-5" y="210">
				200
			</text>
			<path class="y-gridline" d="M 0 105 L 660 105"/>
			<text class="y-axis-label" x="-5" y="105">
				300
			</text>
			<path class="y-gridline" d="M 0 0 L 660 0"/>
			<text class="y-axis-label" x="-5" y="0">
				400
			</text>
		</g>
		<g>
			<path class="series-1-line" d="M 40 415.45014 L 44 421.988147616 L 49 426.156935232 L 54 419.718202848 L 58 410.452450464 L 63 420.40967808 L 68 425.494065696 L 72 394.744053312 L 77 441.801140928 L 82 456.712268544 L 86 433.52729616 L 91 431.719483776 L 96 456.834511392 L 100 444.472519008 L 105 419.860806624 L 110 454.99115424 L 114 454.475261856 L 119 435.786809472 L 124 475.897517088 L 128 417.147364704 L 133 433.51253232 L 138 437.196639936 L 142 443.304147552 L 147 451.269315168 L 152 468.387962784 L 156 419.3570304 L 161 431.495318016 L 166 403.948645632 L 170 452.540833248 L 175 440.367000864 L 180 411.20542848 L 185 400.916136096 L 189 386.992583712 L 194 301.507751328 L 199 359.577238944 L 203 295.95382656 L 208 293.257294176 L 213 272.037921792 L 217 284.849049408 L 222 312.413937024 L 227 332.22478464 L 231 256.620872256 L 236 196.201219872 L 241 245.251207488 L 245 221.285035104 L 250 237.91942272 L 255 157.496010336 L 259 214.972457952 L 264 207.241385568 L 269 99.813653184 L 273 120.0285408 L 278 122.151088416 L 283 129.012076032 L 287 69.777663648 L 292 105.877371264 L 297 67.34601888 L 301 84.492386496 L 306 135.668834112 L 311 97.137901728 L 315 136.710589344 L 320 148.41795696 L 325 170.167524576 L 330 138.124752192 L 334 127.351619808 L 339 131.359127424 L 344 119.72415504 L 348 159.969682656 L 353 148.900450272 L 358 83.957817888 L 362 167.280645504 L 367 185.87979312 L 372 171.121700736 L 376 163.848428352 L 381 181.371115968 L 386 173.101603584 L 390 257.7167712 L 395 226.427478816 L 400 239.938746432 L 404 248.630934048 L 409 321.830501664 L 414 326.26850928 L 418 309.221836896 L 423 302.460544512 L 428 353.125852128 L 432 372.209679744 L 437 397.51328736 L 442 408.278594976 L 446 381.082202592 L 451 421.381910208 L 456 445.715737824 L 460 440.13884544 L 465 443.984653056 L 470 413.880600672 L 475 441.311088288 L 479 417.076115904 L 484 453.82220352 L 489 428.160071136 L 493 442.506298752 L 498 422.444446368 L 503 431.297913984 L 507 448.3090416 L 512 448.224069216 L 517 425.443136832 L 521 452.711924448 L 526 442.800212064 L 531 445.59601968 L 535 438.995587296 L 540 430.429974912 L 545 451.075782528 L 549 433.786770144 L 554 424.17115776 L 559 463.016825376 L 563 447.181852992 L 568 428.089360608 L 573 429.431548224 L 577 424.12345584 L 582 431.415363456 L 587 423.388191072 L 591 437.760878688 L 596 442.549166304 L 601 433.12171392 L 605 424.367521536 L 610 423.528649152 L 615 428.208996768 L 620 400.124304384"/>
			<path class="series-2-line" d="M 40 433.65 L 44 421.79256 L 49 410.98512 L 54 416.97768 L 58 413.52024 L 63 400.6128 L 68 410.80536 L 72 441.99792 L 77 415.44048 L 82 407.78304 L 86 405.3756 L 91 426.06816 L 96 423.66072 L 100 411.80328 L 105 427.24584 L 110 418.5384 L 114 401.43096 L 119 434.72352 L 124 386.11608 L 128 403.65864 L 133 414.9012 L 138 397.79376 L 142 412.18632 L 147 423.42888 L 152 398.97144 L 156 415.464 L 161 430.90656 L 166 412.74912 L 170 433.44168 L 175 392.18424 L 180 421.2768 L 185 372.66936 L 189 358.71192 L 194 369.95448 L 199 427.39704 L 203 427.0896 L 208 422.58216 L 213 441.17472 L 217 433.51728 L 222 417.45984 L 227 382.5024 L 231 408.44496 L 236 399.73752 L 241 430.93008 L 245 386.52264 L 250 396.7152 L 255 396.40776 L 259 382.45032 L 264 385.29288 L 269 338.78544 L 273 322.728 L 278 303.52056 L 283 282.21312 L 287 334.40568 L 292 338.29824 L 297 313.8408 L 301 367.08336 L 306 353.12592 L 311 369.61848 L 315 364.06104 L 320 364.8036 L 325 355.04616 L 330 342.13872 L 334 369.13128 L 339 383.52384 L 344 381.1164 L 348 352.45896 L 353 384.70152 L 358 385.44408 L 362 393.53664 L 367 342.8292 L 372 336.22176 L 376 349.56432 L 381 344.00688 L 386 348.94944 L 390 360.192 L 395 311.58456 L 400 317.57712 L 404 338.26968 L 409 328.51224 L 414 316.6548 L 418 298.49736 L 423 354.88992 L 428 379.78248 L 432 335.37504 L 437 344.5176 L 442 369.41016 L 446 378.55272 L 451 382.44528 L 456 338.03784 L 460 373.4304 L 465 372.07296 L 470 384.36552 L 475 389.30808 L 479 386.90064 L 484 412.8432 L 489 387.33576 L 493 426.92832 L 498 428.72088 L 503 424.21344 L 507 416.556 L 512 414.14856 L 517 430.64112 L 521 419.83368 L 526 435.27624 L 531 433.9188 L 535 424.16136 L 540 434.35392 L 545 432.99648 L 549 411.68904 L 554 421.8816 L 559 406.87416 L 563 404.46672 L 568 418.85928 L 573 439.55184 L 577 432.9444 L 582 426.33696 L 587 434.42952 L 591 428.87208 L 596 444.31464 L 601 425.1072 L 605 423.74976 L 610 416.09232 L 615 407.38488 L 620 432.27744"/>
		</g>
		<text class="x-axis-label" x="40.0" y="540">
			0
		</text>
		<path class="x-notch" d="M 63.3870967742 525 L 63.3870967742 530"/>
		<text class="x-axis-label" x="86.7741935484" y="540">
			10
		</text>
		<path class="x-notch" d="M 110.161290323 525 L 110.161290323 530"/>
		<text class="x-axis-label" x="133.548387097" y="540">
			20
		</text>
		<path class="x-notch" d="M 156.935483871 525 L 156.935483871 530"/>
		<text class="x-axis-label" x="180.322580645" y="540">
			30
		</text>
		<path class="x-notch" d="M 203.709677419 525 L 203.709677419 530"/>
		<text class="x-axis-label" x="227.096774194" y="540">
			40
		</text>
		<path class="x-notch" d="M 250.483870968 525 L 250.483870968 530"/>
		<text class="x-axis-label" x="273.870967742" y="540">
			50
		</text>
		<path class="x-notch" d="M 297.258064516 525 L 297.258064516 530"/>
		<text class="x-axis-label" x="320.64516129" y="540">
			60
		</text>
		<path class="x-notch" d="M 344.032258065 525 L 344.032258065 530"/>
		<text class="x-axis-label" x="367.419354839" y="540">
			70
		</text>
		<path class="x-notch" d="M 390.806451613 525 L 390.806451613 530"/>
		<text class="x-axis-label" x="414.193548387" y="540">
			80
		</text>
		<path class="x-notch" d="M 437.580645161 525 L 437.580645161 530"/>
		<text class="x-axis-label" x="460.967741935" y="540">
			90
		</text>
		<path class="x-notch" d="M 484.35483871 525 L 484.35483871 530"/>
		<text class="x-axis-label" x="507.741935484" y="540">
			100
		</text>
		<path class="x-notch" d="M 531.129032258 525 L 531.129032258 530"/>
		<text class="x-axis-label" x="554.516129032" y="540">
			110
		</text>
		<path class="x-notch" d="M 577.903225806 525 L 577.903225806 530"/>
		<text class="x-axis-label" x="601.290322581" y="540">
			120
		</text>
		<path class="x-notch" d="M 624.677419355 525 L 624.677419355 530"/>
	</g>
</svg>
