<?xml version="1.0" ?>
<svg height="600" version="1.1" width="800" xmlns="http://www.w3.org/2000/svg" xmlns:svg="http://www.w3.org/2000/svg">
	<style type="text/css">
		

.x-axis-path, .y-gridline, .x-notch { fill:none; stroke: #a7a9ac; stroke-width:1; }



.y-gridline { stroke-width: 1; }

.y-axis-path, .y-axis-path2, .x-notch-left, .x-notch-right { display: none;}



.x-axis-label, .data-point-label {font-size: 12px; font-weight:normal; font-family: sans-serif; fill: #58595b; text-anchor:middle;}

.y-axis-label {font-size: 12px; font-family: helvetica; fill: #a7a9ac; text-anchor:end;}



.series-1-line { fill: none; stroke: #10b80c; stroke-width:2; }



.series-2-line { fill: none; stroke: #e90f0a; stroke-width: 2;}

	</style>
	<rect fill="white" height="600" width="800" x="0" y="0"/>
	<g id="grid" transform="translate(70, 30)">
		<g class="x-axis" id="x_axis">
			<path class="x-axis-path" d="M 0 525 L 660 525"/>
			<path class="x-notch-left" d="M 0 525, L 0 535"/>
			<path class="x-notch-right" d="M 660 525, L 660 535"/>
		</g>
		<g class="y-axis" id="y_axis">
			<path class="y-axis-path" d="M 0 525 L 0 0"/>
			<path class="y-axis-path-2" d="M 660 525 L 660 0"/>
			<path class="y-gridline" d="M 0 525 L 660 525"/>
			<text class="y-axis-label" x="-5" y="525">
				-200
			</text>
			<path class="y-gridline" d="M 0 394 L 660 394"/>
			<text class="y-axis-label" x="-5" y="394">
				 0
			</text>
			<path class="y-gridline" d="M 0 263 L 660 263"/>
			<text class="y-axis-label" x="-5" y="263">
				200
			</text>
			<path class="y-gridline" d="M 0 132 L 660 132"/>
			<text class="y-axis-label" x="-5" y="132">
				400
			</text>
			<path class="y-gridline" d="M 0 1 L 660 1"/>
			<text class="y-axis-label" x="-5" y="1">
				600
			</text>
		</g>
		<g>
			<path class="series-1-line" d="M 40 405.145787645 L 43 385.130611299 L 47 407.211535351 L 51 369.580586582 L 54 399.558497615 L 58 380.575752698 L 62 422.976007565 L 66 384.130210616 L 69 379.119167391 L 73 398.284266286 L 77 393.637582754 L 80 362.232967813 L 84 392.757655289 L 88 409.159021956 L 92 410.343988736 L 95 387.412987234 L 99 377.602725125 L 103 376.479290839 L 106 384.498015538 L 110 406.457644296 L 114 419.669797584 L 118 406.184667112 L 121 411.014178433 L 125 351.302274226 L 129 396.466735131 L 132 351.728640222 L 136 379.489121659 L 140 387.325429607 L 144 375.480628464 L 147 376.149142625 L 151 375.056032162 L 155 365.245770054 L 158 354.069040648 L 162 378.367394296 L 166 358.595282348 L 170 352.096002721 L 173 384.867969807 L 177 363.182140308 L 181 331.807849191 L 185 321.390636803 L 188 321.086893372 L 192 267.085344184 L 196 329.136384318 L 199 281.330371325 L 203 209.712575904 L 207 245.825849295 L 211 158.899734898 L 214 147.540114932 L 218 166.038089709 L 222 247.952655685 L 225 171.566439014 L 229 190.852833204 L 233 197.079609456 L 237 183.685924264 L 240 124.277732102 L 244 149.335128958 L 248 200.725449881 L 251 176.366859624 L 255 133.451036986 L 259 153.04114322 L 263 178.949028564 L 266 128.167016577 L 270 111.401701256 L 274 141.926388732 L 277 58.0080185819 L 281 106.270247585 L 285 136.308332455 L 289 143.264301901 L 292 128.260137394 L 296 164.889863404 L 300 163.340474159 L 303 155.110367543 L 307 117.842830847 L 311 177.890129579 L 315 176.462509438 L 318 142.233514622 L 322 174.185790852 L 326 19.7109904911 L 330 0.0 L 333 15.2770161469 L 337 85.3771361895 L 341 62.6887252754 L 344 62.7493415364 L 348 91.4825543753 L 352 214.248522555 L 356 109.797607206 L 359 241.00733881 L 363 228.190753885 L 367 261.995152399 L 370 178.562911045 L 374 277.181639499 L 378 208.419021588 L 382 225.12362649 L 385 274.418760732 L 389 322.710839748 L 393 302.757258669 L 396 324.291406277 L 400 290.153382932 L 404 311.049782627 L 408 361.681534152 L 411 340.786019305 L 415 370.125708614 L 419 373.315364416 L 422 366.329955993 L 426 380.757431272 L 430 391.388269082 L 434 379.543467939 L 437 387.015416195 L 441 425.619033593 L 445 381.336743656 L 448 416.599054749 L 452 402.172938128 L 456 413.866531191 L 460 389.629710038 L 463 414.353071025 L 467 377.936970436 L 471 386.623766872 L 475 378.271891152 L 478 348.233743509 L 482 393.914183224 L 486 402.084527041 L 489 398.956403733 L 493 383.163346004 L 497 410.346727175 L 501 403.908095196 L 504 368.251511625 L 508 381.554636384 L 512 406.430090298 L 515 403.150347873 L 519 393.917186031 L 523 405.034152637 L 527 407.312198494 L 530 401.693731179 L 534 410.137463217 L 538 393.949248163 L 541 386.690925329 L 545 377.761475532 L 549 396.957372061 L 553 379.67560412 L 556 381.771707036 L 560 396.867254051 L 564 386.237301088 L 567 411.081957369 L 571 361.939800902 L 575 394.499501223 L 579 368.288314872 L 582 380.224972333 L 586 367.741949466 L 590 393.832251561 L 593 388.851532159 L 597 379.497075024 L 601 395.473434351 L 605 389.065126195 L 608 416.309155013 L 612 403.279829513 L 616 375.398463819 L 620 387.881897723"/>
			<path class="series-2-line" d="M 40 399.198812041 L 43 393.203760743 L 47 380.101563304 L 51 396.612474783 L 54 398.909093982 L 58 370.408079906 L 62 375.073747818 L 66 396.322756724 L 69 405.726522062 L 73 385.517178484 L 77 384.260224612 L 80 399.586611735 L 84 408.990377073 L 88 404.179850132 L 92 417.13718854 L 95 404.034991102 L 99 376.718501384 L 103 380.199644939 L 106 389.603410277 L 110 395.453602546 L 114 379.982356394 L 118 371.618256383 L 121 370.361302511 L 125 366.735299926 L 129 402.198601112 L 132 418.709512591 L 136 397.315644656 L 140 388.951544644 L 144 401.908883053 L 147 403.020977895 L 151 401.764024023 L 155 374.447534305 L 158 375.559629147 L 162 386.147918842 L 166 388.444538041 L 170 399.032827736 L 173 381.192532871 L 177 358.614140579 L 181 369.202430274 L 185 390.45143918 L 188 358.396852035 L 192 387.937531437 L 196 376.019858355 L 199 362.917660917 L 203 368.767853186 L 207 384.094240308 L 211 329.533690385 L 214 266.681469966 L 218 350.710269776 L 222 335.239023624 L 225 345.82731332 L 229 306.665580034 L 233 318.438394086 L 237 342.056451705 L 240 337.245924764 L 244 321.774678612 L 248 309.85700553 L 251 288.463137595 L 255 297.866902934 L 259 257.520645292 L 263 247.972020923 L 266 283.435322109 L 270 278.624795168 L 274 288.028560506 L 277 318.753764265 L 281 332.895627031 L 285 279.519601465 L 289 316.167427008 L 292 267.529498869 L 296 294.701129558 L 300 225.926287355 L 303 275.603880821 L 307 189.061173268 L 311 258.875680798 L 315 217.344898799 L 318 257.546297411 L 322 275.241733247 L 326 179.222830841 L 330 218.239705096 L 333 157.756533391 L 337 183.743639723 L 341 132.736662871 L 344 90.021356515 L 348 147.990620478 L 352 181.08487295 L 356 134.815993525 L 359 190.416208774 L 363 216.403315106 L 367 176.057057464 L 370 223.365602217 L 374 142.745516447 L 378 165.17904971 L 382 112.987548501 L 385 150.8198984 L 389 114.027213828 L 393 190.948867498 L 396 170.739523919 L 400 196.726630251 L 404 183.624432813 L 408 243.962745489 L 411 282.979619745 L 415 246.186935173 L 419 269.804992792 L 422 263.809941494 L 426 289.797047826 L 430 307.492483662 L 434 320.44982207 L 437 322.746441269 L 441 319.120438684 L 445 356.952788583 L 448 320.160104011 L 452 366.284124407 L 456 356.735500039 L 460 362.585692307 L 463 353.037067939 L 467 364.809881991 L 471 362.368403763 L 475 384.801937025 L 478 371.699739587 L 482 372.811834429 L 486 358.525112634 L 489 351.345536979 L 493 379.701692025 L 497 355.938775376 L 501 357.050870218 L 504 388.960598334 L 508 359.275059902 L 512 372.23239831 L 515 388.743309789 L 519 363.795868784 L 523 398.074645613 L 527 379.049826391 L 530 390.822640443 L 534 380.089491718 L 538 377.64801349 L 541 414.295839033 L 545 388.163873671 L 549 409.412882576 L 553 392.757112068 L 556 402.160877407 L 560 416.302740172 L 564 424.521981154 L 567 396.020967079 L 571 406.609256774 L 575 421.935643896 L 579 412.387019528 L 582 411.130065656 L 586 384.998100295 L 590 393.217341277 L 593 397.883009188 L 597 391.88795789 L 601 407.214345012 L 605 403.588342428 L 608 370.349230925 L 612 383.306569334 L 616 403.371053883 L 620 409.221246152"/>
		</g>
		<text class="x-axis-label" x="40.0" y="540">
			0
		</text>
		<path class="x-notch" d="M 58.5897435897 525 L 58.5897435897 530"/>
		<text class="x-axis-label" x="77.1794871795" y="540">
			10
		</text>
		<path class="x-notch" d="M 95.7692307692 525 L 95.7692307692 530"/>
		<text class="x-axis-label" x="114.358974359" y="540">
			20
		</text>
		<path class="x-notch" d="M 132.948717949 525 L 132.948717949 530"/>
		<text class="x-axis-label" x="151.538461538" y="540">
			30
		</text>
		<path class="x-notch" d="M 170.128205128 525 L 170.128205128 530"/>
		<text class="x-axis-label" x="188.717948718" y="540">
			40
		</text>
		<path class="x-notch" d="M 207.307692308 525 L 207.307692308 530"/>
		<text class="x-axis-label" x="225.897435897" y="540">
			50
		</text>
		<path class="x-notch" d="M 244.487179487 525 L 244.487179487 530"/>
		<text class="x-axis-label" x="263.076923077" y="540">
			60
		</text>
		<path class="x-notch" d="M 281.666666667 525 L 281.666666667 530"/>
		<text class="x-axis-label" x="300.256410256" y="540">
			70
		</text>
		<path class="x-notch" d="M 318.846153846 525 L 318.846153846 530"/>
		<text class="x-axis-label" x="337.435897436" y="540">
			80
		</text>
		<path class="x-notch" d="M 356.025641026 525 L 356.025641026 530"/>
		<text class="x-axis-label" x="374.615384615" y="540">
			90
		</text>
		<path class="x-notch" d="M 393.205128205 525 L 393.205128205 530"/>
		<text class="x-axis-label" x="411.794871795" y="540">
			100
		</text>
		<path class="x-notch" d="M 430.384615385 525 L 430.384615385 530"/>
		<text class="x-axis-label" x="448.974358974" y="540">
			110
		</text>
		<path class="x-notch" d="M 467.564102564 525 L 467.564102564 530"/>
		<text class="x-axis-label" x="486.153846154" y="540">
			120
		</text>
		<path class="x-notch" d="M 504.743589744 525 L 504.743589744 530"/>
		<text class="x-axis-label" x="523.333333333" y="540">
			130
		</text>
		<path class="x-notch" d="M 541.923076923 525 L 541.923076923 530"/>
		<text class="x-axis-label" x="560.512820513" y="540">
			140
		</text>
		<path class="x-notch" d="M 579.102564103 525 L 579.102564103 530"/>
		<text class="x-axis-label" x="597.692307692" y="540">
			150
		</text>
		<path class="x-notch" d="M 616.282051282 525 L 616.282051282 530"/>
	</g>
</svg>
