<?xml version="1.0" ?>
<svg height="600" version="1.1" width="800" xmlns="http://www.w3.org/2000/svg" xmlns:svg="http://www.w3.org/2000/svg">
	<style type="text/css">

.x-axis-path, .y-gridline, .x-notch { fill:none; stroke: #a7a9ac; stroke-width:1; }



.y-gridline { stroke-width: 1; }

.y-axis-path, .y-axis-path2, .x-notch-left, .x-notch-right { display: none;}



.x-axis-label, .data-point-label {font-size: 12px; font-weight:normal; font-family: sans-serif; fill: #58595b; text-anchor:middle;}

.y-axis-label {font-size: 12px; font-family: helvetica; fill: #a7a9ac; text-anchor:end;}



.series-1-line { fill: none; stroke: #10b80c; stroke-width:2; }



.series-2-line { fill: none; stroke: #e90f0a; stroke-width: 2;}
</style>
	<rect fill="white" height="600" width="800" x="0" y="0"/>
	<g id="grid" transform="translate(70, 30)">
		<g class="x-axis" id="x_axis">
			<path class="x-axis-path" d="M 0 525 L 660 525"/>
			<path class="x-notch-left" d="M 0 525, L 0 535"/>
			<path class="x-notch-right" d="M 660 525, L 660 535"/>
		</g>
		<g class="y-axis" id="y_axis">
			<path class="y-axis-path" d="M 0 525 L 0 0"/>
			<path class="y-axis-path-2" d="M 660 525 L 660 0"/>
			<path class="y-gridline" d="M 0 525 L 660 525"/>
			<text class="y-axis-label" x="-5" y="525">-200</text>
			<path class="y-gridline" d="M 0 394 L 660 394"/>
			<text class="y-axis-label" x="-5" y="394"> 0</text>
			<path class="y-gridline" d="M 0 263 L 660 263"/>
			<text class="y-axis-label" x="-5" y="263">200</text>
			<path class="y-gridline" d="M 0 132 L 660 132"/>
			<text class="y-axis-label" x="-5" y="132">400</text>
			<path class="y-gridline" d="M 0 1 L 660 1"/>
			<text class="y-axis-label" x="-5" y="1">600</text>
		</g>
		<g>
			<path class="series-1-line" d="M 40 391.1510198 L 45 392.2107931 L 51 395.526713586 L 57 401.339036531 L 63 387.388955417 L 69 390.163363038 L 74 414.655533564 L 80 403.923559229 L 86 360.555345968 L 92 383.06212574 L 98 363.005712819 L 103 393.423554447 L 109 396.49875041 L 115 376.111517237 L 121 385.293045007 L 127 400.159519356 L 132 391.954448639 L 138 382.486160738 L 144 368.65620726 L 150 368.99427624 L 156 365.000711553 L 161 381.641884042 L 167 367.992591268 L 173 321.826717957 L 179 292.656089813 L 185 297.836804167 L 190 222.58314971 L 196 239.134226471 L 202 226.267171085 L 208 204.676784547 L 214 154.239341387 L 219 163.059547748 L 225 131.061227645 L 231 154.139082942 L 237 111.732829275 L 243 70.0191865163 L 248 0.0 L 254 100.744595967 L 260 135.975520308 L 266 120.460964418 L 272 37.4473461497 L 277 48.0427198989 L 283 96.0573833786 L 289 178.513954332 L 295 180.265400043 L 301 213.149612222 L 306 143.00982882 L 312 192.70956396 L 318 212.14792725 L 324 223.885921298 L 330 208.823251794 L 335 192.196107515 L 341 219.605127231 L 347 217.47682566 L 353 253.850839548 L 359 238.456411296 L 364 265.956465237 L 370 250.051025278 L 376 324.055021511 L 382 281.980057343 L 388 321.993563239 L 393 368.56434883 L 399 345.890936563 L 405 410.328831188 L 411 376.436154557 L 417 391.934237499 L 422 396.78460085 L 428 371.404093509 L 434 402.78436398 L 440 386.548573019 L 446 387.638378229 L 451 394.864547154 L 457 377.244472874 L 463 378.966355924 L 469 398.555348009 L 475 395.133328096 L 480 409.277628876 L 486 394.575811532 L 492 396.297225334 L 498 377.263774322 L 504 386.745621185 L 509 400.950455032 L 515 374.607518848 L 521 367.274781247 L 527 387.375254287 L 533 357.392356847 L 538 387.479378225 L 544 377.04866148 L 550 367.1594576 L 556 397.155914001 L 562 373.700733595 L 567 396.628429346 L 573 400.936810584 L 579 347.942901146 L 585 386.99350895 L 591 374.487305724 L 596 404.483762125 L 602 394.744717792 L 608 361.212424072 L 614 398.819623236 L 620 411.189695125"/>
			<path class="series-2-line" d="M 40 387.415144134 L 45 387.703197719 L 51 402.068708785 L 57 392.971790717 L 63 401.4716945 L 69 408.798476826 L 74 413.779016238 L 80 377.700304664 L 86 400.277665928 L 92 394.700112229 L 98 394.988165815 L 103 390.583733573 L 109 396.737394442 L 115 402.891055312 L 121 417.256566378 L 127 414.025255593 L 132 395.543365871 L 138 391.138933629 L 144 380.868894104 L 150 402.273133911 L 156 413.119280607 L 161 407.541726908 L 167 414.868509234 L 173 416.329684277 L 179 420.137102232 L 185 418.078912904 L 190 382.00020133 L 196 390.500105113 L 202 413.077466377 L 208 423.923613073 L 214 405.44172335 L 219 384.613590714 L 225 371.997308275 L 231 323.014260677 L 237 286.935549103 L 243 325.936610761 L 248 342.648364741 L 254 301.87716734 L 260 324.454528604 L 266 302.453274511 L 272 333.242485972 L 277 355.819847236 L 283 351.415414994 L 289 372.819654801 L 295 356.684007992 L 301 333.509632442 L 306 323.239592917 L 312 376.318112056 L 318 346.105007766 L 324 327.623118043 L 330 372.489786986 L 335 386.855298052 L 341 302.678606751 L 347 342.852789866 L 353 370.122636957 L 359 329.351439556 L 364 322.600764401 L 370 315.850089246 L 376 329.042478855 L 382 332.849896811 L 388 341.349800594 L 393 333.426003982 L 399 330.194693197 L 405 280.038524142 L 411 334.290164738 L 417 324.020125213 L 422 373.579279982 L 428 380.906062308 L 434 363.597294042 L 440 408.463962984 L 446 404.059530743 L 451 403.174462871 L 457 389.385058976 L 463 423.693634807 L 469 415.769838195 L 475 428.962227805 L 480 401.095366428 L 486 435.40394226 L 492 423.960781278 L 498 447.711263998 L 504 415.151916794 L 509 423.651820577 L 515 443.882938927 L 521 426.574170661 L 527 430.381588617 L 533 423.630913462 L 538 425.092088504 L 544 433.591992287 L 550 449.13062481 L 556 418.91752052 L 562 446.187367611 L 567 420.666749147 L 573 417.435438363 L 579 431.800949429 L 585 407.453452423 L 591 419.472720576 L 596 389.259616285 L 602 381.335819673 L 608 379.277630345 L 614 397.162505782 L 620 417.393624132"/>
		</g>
		<text class="x-axis-label" x="40.0" y="540">0</text>
		<path class="x-notch" d="M 69.0 525 L 69.0 530"/>
		<text class="x-axis-label" x="98.0" y="540">10</text>
		<path class="x-notch" d="M 127.0 525 L 127.0 530"/>
		<text class="x-axis-label" x="156.0" y="540">20</text>
		<path class="x-notch" d="M 185.0 525 L 185.0 530"/>
		<text class="x-axis-label" x="214.0" y="540">30</text>
		<path class="x-notch" d="M 243.0 525 L 243.0 530"/>
		<text class="x-axis-label" x="272.0" y="540">40</text>
		<path class="x-notch" d="M 301.0 525 L 301.0 530"/>
		<text class="x-axis-label" x="330.0" y="540">50</text>
		<path class="x-notch" d="M 359.0 525 L 359.0 530"/>
		<text class="x-axis-label" x="388.0" y="540">60</text>
		<path class="x-notch" d="M 417.0 525 L 417.0 530"/>
		<text class="x-axis-label" x="446.0" y="540">70</text>
		<path class="x-notch" d="M 475.0 525 L 475.0 530"/>
		<text class="x-axis-label" x="504.0" y="540">80</text>
		<path class="x-notch" d="M 533.0 525 L 533.0 530"/>
		<text class="x-axis-label" x="562.0" y="540">90</text>
		<path class="x-notch" d="M 591.0 525 L 591.0 530"/>
		<text class="x-axis-label" x="620.0" y="540">100</text>
	</g>
</svg>
