<?xml version="1.0" ?>
<svg height="600" version="1.1" width="800" xmlns="http://www.w3.org/2000/svg" xmlns:svg="http://www.w3.org/2000/svg">
	<style type="text/css">
		

.x-axis-path, .y-gridline, .x-notch { fill:none; stroke: #a7a9ac; stroke-width:1; }



.y-gridline { stroke-width: 1; }

.y-axis-path, .y-axis-path2, .x-notch-left, .x-notch-right { display: none;}



.x-axis-label, .data-point-label {font-size: 12px; font-weight:normal; font-family: sans-serif; fill: #58595b; text-anchor:middle;}

.y-axis-label {font-size: 12px; font-family: helvetica; fill: #a7a9ac; text-anchor:end;}



.series-1-line { fill: none; stroke: #10b80c; stroke-width:2; }



.series-2-line { fill: none; stroke: #e90f0a; stroke-width: 2;}

	</style>
	<rect fill="white" height="600" width="800" x="0" y="0"/>
	<g id="grid" transform="translate(70, 30)">
		<g class="x-axis" id="x_axis">
			<path class="x-axis-path" d="M 0 525 L 660 525"/>
			<path class="x-notch-left" d="M 0 525, L 0 535"/>
			<path class="x-notch-right" d="M 660 525, L 660 535"/>
		</g>
		<g class="y-axis" id="y_axis">
			<path class="y-axis-path" d="M 0 525 L 0 0"/>
			<path class="y-axis-path-2" d="M 660 525 L 660 0"/>
			<path class="y-gridline" d="M 0 525 L 660 525"/>
			<text class="y-axis-label" x="-5" y="525">
				-200
			</text>
			<path class="y-gridline" d="M 0 394 L 660 394"/>
			<text class="y-axis-label" x="-5" y="394">
				 0
			</text>
			<path class="y-gridline" d="M 0 263 L 660 263"/>
			<text class="y-axis-label" x="-5" y="263">
				200
			</text>
			<path class="y-gridline" d="M 0 132 L 660 132"/>
			<text class="y-axis-label" x="-5" y="132">
				400
			</text>
			<path class="y-gridline" d="M 0 1 L 660 1"/>
			<text class="y-axis-label" x="-5" y="1">
				600
			</text>
		</g>
		<g>
			<path class="series-1-line" d="M 40 401.304789179 L 47 395.96611523 L 55 389.267498608 L 62 380.069642566 L 70 398.564971716 L 77 400.67230214 L 85 382.498771418 L 92 395.281704863 L 100 381.714953425 L 107 362.300554573 L 115 358.832066998 L 122 331.784167777 L 130 332.480372039 L 137 319.032960343 L 145 278.7081169 L 152 242.089435479 L 160 272.586895195 L 168 266.925208342 L 175 188.792738677 L 183 174.13787398 L 190 164.243339037 L 198 174.629400042 L 205 118.919807313 L 213 136.004010301 L 220 102.972416359 L 228 142.394367266 L 235 68.5798747065 L 243 101.796954569 L 250 79.5605685913 L 258 0.0 L 265 100.48624107 L 273 32.128757165 L 281 10.5208938345 L 288 87.4107504943 L 296 73.1473201554 L 303 86.1686678878 L 311 33.0938314878 L 318 64.3730991213 L 326 32.3447546201 L 333 68.5026309528 L 341 49.138354793 L 348 72.9034618003 L 356 71.1524057293 L 363 70.1150013222 L 371 243.802914831 L 378 181.548465389 L 386 195.980408886 L 394 207.981799613 L 401 311.919080855 L 409 198.222572139 L 416 330.498799184 L 424 396.746998349 L 431 374.748496259 L 439 384.26788553 L 446 395.011170165 L 454 391.406370085 L 461 380.916727623 L 469 385.046999293 L 476 387.987321124 L 484 399.410577096 L 491 417.820777229 L 499 403.659183471 L 507 396.21243926 L 514 398.285824157 L 522 400.801031303 L 529 407.20936607 L 537 388.236789467 L 544 390.327147127 L 552 387.164434495 L 559 403.364727785 L 567 397.057015122 L 574 405.845249566 L 582 386.532687295 L 589 398.822880201 L 597 397.46219769 L 604 396.101515179 L 612 393.091822617 L 620 388.637058365"/>
			<path class="series-2-line" d="M 40 394.280398858 L 47 395.449996341 L 55 401.923582407 L 62 384.529219847 L 70 391.002805913 L 77 394.161399114 L 85 406.601972337 L 92 373.295644027 L 100 365.183261488 L 107 390.220807596 L 115 409.954365121 L 122 384.604019686 L 130 375.165640002 L 137 400.20318611 L 145 377.504834967 L 152 371.381448147 L 160 393.10400139 L 168 392.947601727 L 175 398.75818922 L 183 379.374830942 L 190 393.14140131 L 198 371.769047313 L 205 370.286650503 L 213 364.163263683 L 220 367.321856885 L 228 341.308512877 L 235 345.793103224 L 243 331.050734956 L 250 356.751279637 L 258 352.616888536 L 265 367.70945605 L 273 374.183042117 L 281 353.473686692 L 288 326.134345538 L 296 349.182895928 L 303 356.319480567 L 311 331.632133704 L 318 334.790726906 L 326 362.480267306 L 333 328.510940423 L 341 268.021670622 L 348 253.942300927 L 356 316.10776712 L 363 344.460306093 L 371 342.977909283 L 378 354.09248536 L 386 322.112154196 L 394 333.226730272 L 401 352.960287797 L 409 347.49989955 L 416 367.896455648 L 424 371.718047422 L 431 386.147616364 L 439 396.599193867 L 446 397.105792777 L 454 386.341415946 L 461 389.500009148 L 469 387.354613766 L 476 389.850208394 L 484 387.704813012 L 491 381.581426192 L 499 388.718010831 L 507 382.594624011 L 514 391.057205796 L 522 382.281824684 L 529 386.766415032 L 537 394.565998244 L 544 400.376585737 L 552 398.231190355 L 559 400.726784983 L 567 397.918391028 L 574 393.121001354 L 582 402.246581712 L 589 394.134199173 L 597 395.303796656 L 604 396.473394138 L 612 396.316994475 L 620 388.867610509"/>
		</g>
		<text class="x-axis-label" x="40.0" y="540">
			0
		</text>
		<path class="x-notch" d="M 77.6623376623 525 L 77.6623376623 530"/>
		<text class="x-axis-label" x="115.324675325" y="540">
			10
		</text>
		<path class="x-notch" d="M 152.987012987 525 L 152.987012987 530"/>
		<text class="x-axis-label" x="190.649350649" y="540">
			20
		</text>
		<path class="x-notch" d="M 228.311688312 525 L 228.311688312 530"/>
		<text class="x-axis-label" x="265.974025974" y="540">
			30
		</text>
		<path class="x-notch" d="M 303.636363636 525 L 303.636363636 530"/>
		<text class="x-axis-label" x="341.298701299" y="540">
			40
		</text>
		<path class="x-notch" d="M 378.961038961 525 L 378.961038961 530"/>
		<text class="x-axis-label" x="416.623376623" y="540">
			50
		</text>
		<path class="x-notch" d="M 454.285714286 525 L 454.285714286 530"/>
		<text class="x-axis-label" x="491.948051948" y="540">
			60
		</text>
		<path class="x-notch" d="M 529.61038961 525 L 529.61038961 530"/>
		<text class="x-axis-label" x="567.272727273" y="540">
			70
		</text>
		<path class="x-notch" d="M 604.935064935 525 L 604.935064935 530"/>
	</g>
</svg>
