<?xml version="1.0" ?>
<svg height="600" version="1.1" width="800" xmlns="http://www.w3.org/2000/svg" xmlns:svg="http://www.w3.org/2000/svg">
	<style type="text/css">
		

.x-axis-path, .y-gridline, .x-notch { fill:none; stroke: #a7a9ac; stroke-width:1; }



.y-gridline { stroke-width: 1; }

.y-axis-path, .y-axis-path2, .x-notch-left, .x-notch-right { display: none;}



.x-axis-label, .data-point-label {font-size: 12px; font-weight:normal; font-family: sans-serif; fill: #58595b; text-anchor:middle;}

.y-axis-label {font-size: 12px; font-family: helvetica; fill: #a7a9ac; text-anchor:end;}



.series-1-line { fill: none; stroke: #10b80c; stroke-width:2; }



.series-2-line { fill: none; stroke: #e90f0a; stroke-width: 2;}

	</style>
	<rect fill="white" height="600" width="800" x="0" y="0"/>
	<g id="grid" transform="translate(70, 30)">
		<g class="x-axis" id="x_axis">
			<path class="x-axis-path" d="M 0 525 L 660 525"/>
			<path class="x-notch-left" d="M 0 525, L 0 535"/>
			<path class="x-notch-right" d="M 660 525, L 660 535"/>
		</g>
		<g class="y-axis" id="y_axis">
			<path class="y-axis-path" d="M 0 525 L 0 0"/>
			<path class="y-axis-path-2" d="M 660 525 L 660 0"/>
			<path class="y-gridline" d="M 0 525 L 660 525"/>
			<text class="y-axis-label" x="-5" y="525">
				-100
			</text>
			<path class="y-gridline" d="M 0 438 L 660 438"/>
			<text class="y-axis-label" x="-5" y="438">
				 0
			</text>
			<path class="y-gridline" d="M 0 351 L 660 351"/>
			<text class="y-axis-label" x="-5" y="351">
				100
			</text>
			<path class="y-gridline" d="M 0 264 L 660 264"/>
			<text class="y-axis-label" x="-5" y="264">
				200
			</text>
			<path class="y-gridline" d="M 0 177 L 660 177"/>
			<text class="y-axis-label" x="-5" y="177">
				300
			</text>
			<path class="y-gridline" d="M 0 90 L 660 90"/>
			<text class="y-axis-label" x="-5" y="90">
				400
			</text>
			<path class="y-gridline" d="M 0 3 L 660 3"/>
			<text class="y-axis-label" x="-5" y="3">
				500
			</text>
		</g>
		<g>
			<path class="series-1-line" d="M 40 449.57066 L 46 422.741659892 L 52 448.861359785 L 58 418.779459677 L 65 447.36735957 L 71 429.580259462 L 77 438.626259355 L 84 426.493059247 L 90 424.00725914 L 96 439.357809032 L 103 423.971358925 L 109 418.793008817 L 115 409.46435871 L 121 422.683408602 L 128 427.489158495 L 134 427.022508387 L 140 437.48215828 L 147 411.416158172 L 153 393.337158065 L 159 391.053307957 L 166 425.541857849 L 172 401.360257742 L 178 401.746207634 L 185 357.978257527 L 191 336.534007419 L 197 305.846257312 L 203 242.334807204 L 210 259.435357097 L 216 195.250506989 L 222 141.969906882 L 229 142.063956774 L 235 123.357056667 L 241 67.1371565591 L 248 108.962056452 L 254 176.947356344 L 260 87.6122062366 L 266 115.100406129 L 273 56.7717560215 L 279 127.045355914 L 285 168.915055806 L 292 128.624705699 L 298 103.388905591 L 304 103.370955484 L 311 122.558205376 L 317 180.402255269 L 323 86.2658051613 L 330 87.6835550538 L 336 139.717254946 L 342 126.843454839 L 348 163.261204731 L 355 164.365004624 L 361 197.081154516 L 367 230.178454409 L 374 280.910504301 L 380 318.405204194 L 386 305.845704086 L 393 413.340403978 L 399 331.902653871 L 405 359.458403763 L 411 339.337853656 L 418 319.800753548 L 424 405.017253441 L 430 395.755803333 L 437 429.638503226 L 443 427.511453118 L 449 423.051303011 L 456 439.434002903 L 462 412.941702796 L 468 432.240952688 L 474 413.287302581 L 481 441.785252473 L 487 414.619902366 L 493 425.303902258 L 500 425.106402151 L 506 420.511502043 L 512 418.115301935 L 519 414.552551828 L 525 425.68525172 L 531 419.991001613 L 538 430.809401505 L 544 434.605751398 L 550 442.64235129 L 556 443.319851183 L 563 430.109701075 L 569 410.684600968 L 575 421.86210086 L 582 420.453250753 L 588 427.233350645 L 594 435.718650538 L 601 445.77440043 L 607 439.923000323 L 613 440.488500215 L 620 425.864700108"/>
			<path class="series-2-line" d="M 40 451.85 L 46 436.839516129 L 52 420.079032258 L 58 434.818548387 L 65 442.558064516 L 71 450.297580645 L 77 435.287096774 L 84 448.276612903 L 90 457.766129032 L 96 448.880645161 L 103 457.49516129 L 109 443.359677419 L 115 462.474193548 L 121 444.838709677 L 128 442.953225806 L 134 444.567741935 L 140 447.932258065 L 147 450.421774194 L 153 435.411290323 L 159 447.525806452 L 166 456.140322581 L 172 437.62983871 L 178 442.744354839 L 185 442.608870968 L 191 440.723387097 L 197 447.587903226 L 203 456.202419355 L 210 447.316935484 L 216 424.431451613 L 222 440.920967742 L 229 423.285483871 L 235 438.025 L 241 435.264516129 L 248 425.504032258 L 254 429.743548387 L 260 440.108064516 L 266 414.597580645 L 273 433.712096774 L 279 422.201612903 L 285 405.441129032 L 292 408.805645161 L 298 418.29516129 L 304 418.159677419 L 311 425.024193548 L 317 407.388709677 L 323 416.003225806 L 330 396.617741935 L 336 432.357258065 L 342 424.346774194 L 348 404.961290323 L 355 400.450806452 L 361 412.565322581 L 367 399.30483871 L 374 399.169354839 L 380 382.408870968 L 386 393.648387097 L 393 376.887903226 L 399 383.752419355 L 405 381.866935484 L 411 378.231451613 L 418 385.970967742 L 424 432.210483871 L 430 440.825 L 437 441.564516129 L 443 429.179032258 L 449 439.543548387 L 456 440.283064516 L 462 441.022580645 L 468 430.387096774 L 474 449.501612903 L 481 437.116129032 L 487 440.480645161 L 493 442.97016129 L 500 436.709677419 L 506 433.949193548 L 512 429.438709677 L 519 436.303225806 L 525 437.042741935 L 531 435.157258065 L 538 416.646774194 L 544 435.761290323 L 550 441.750806452 L 556 435.490322581 L 563 445.85483871 L 569 436.094354839 L 575 429.833870968 L 582 441.948387097 L 588 439.187903226 L 594 443.427419355 L 601 441.541935484 L 607 430.031451613 L 613 441.270967742 L 620 433.260483871"/>
		</g>
		<text class="x-axis-label" x="40.0" y="540">
			0
		</text>
		<path class="x-notch" d="M 71.5217391304 525 L 71.5217391304 530"/>
		<text class="x-axis-label" x="103.043478261" y="540">
			10
		</text>
		<path class="x-notch" d="M 134.565217391 525 L 134.565217391 530"/>
		<text class="x-axis-label" x="166.086956522" y="540">
			20
		</text>
		<path class="x-notch" d="M 197.608695652 525 L 197.608695652 530"/>
		<text class="x-axis-label" x="229.130434783" y="540">
			30
		</text>
		<path class="x-notch" d="M 260.652173913 525 L 260.652173913 530"/>
		<text class="x-axis-label" x="292.173913043" y="540">
			40
		</text>
		<path class="x-notch" d="M 323.695652174 525 L 323.695652174 530"/>
		<text class="x-axis-label" x="355.217391304" y="540">
			50
		</text>
		<path class="x-notch" d="M 386.739130435 525 L 386.739130435 530"/>
		<text class="x-axis-label" x="418.260869565" y="540">
			60
		</text>
		<path class="x-notch" d="M 449.782608696 525 L 449.782608696 530"/>
		<text class="x-axis-label" x="481.304347826" y="540">
			70
		</text>
		<path class="x-notch" d="M 512.826086957 525 L 512.826086957 530"/>
		<text class="x-axis-label" x="544.347826087" y="540">
			80
		</text>
		<path class="x-notch" d="M 575.869565217 525 L 575.869565217 530"/>
		<text class="x-axis-label" x="607.391304348" y="540">
			90
		</text>
		<path class="x-notch" d="M 638.913043478 525 L 638.913043478 530"/>
	</g>
</svg>
