<?xml version="1.0" ?>
<svg height="600" version="1.1" width="800" xmlns="http://www.w3.org/2000/svg" xmlns:svg="http://www.w3.org/2000/svg">
	<style type="text/css">
		

.x-axis-path, .y-gridline, .x-notch { fill:none; stroke: #a7a9ac; stroke-width:1; }



.y-gridline { stroke-width: 1; }

.y-axis-path, .y-axis-path2, .x-notch-left, .x-notch-right { display: none;}



.x-axis-label, .data-point-label {font-size: 12px; font-weight:normal; font-family: sans-serif; fill: #58595b; text-anchor:middle;}

.y-axis-label {font-size: 12px; font-family: helvetica; fill: #a7a9ac; text-anchor:end;}



.series-1-line { fill: none; stroke: #10b80c; stroke-width:2; }



.series-2-line { fill: none; stroke: #e90f0a; stroke-width: 2;}

	</style>
	<rect fill="white" height="600" width="800" x="0" y="0"/>
	<g id="grid" transform="translate(70, 30)">
		<g class="x-axis" id="x_axis">
			<path class="x-axis-path" d="M 0 525 L 660 525"/>
			<path class="x-notch-left" d="M 0 525, L 0 535"/>
			<path class="x-notch-right" d="M 660 525, L 660 535"/>
		</g>
		<g class="y-axis" id="y_axis">
			<path class="y-axis-path" d="M 0 525 L 0 0"/>
			<path class="y-axis-path-2" d="M 660 525 L 660 0"/>
			<path class="y-gridline" d="M 0 525 L 660 525"/>
			<text class="y-axis-label" x="-5" y="525">
				-200
			</text>
			<path class="y-gridline" d="M 0 394 L 660 394"/>
			<text class="y-axis-label" x="-5" y="394">
				 0
			</text>
			<path class="y-gridline" d="M 0 263 L 660 263"/>
			<text class="y-axis-label" x="-5" y="263">
				200
			</text>
			<path class="y-gridline" d="M 0 132 L 660 132"/>
			<text class="y-axis-label" x="-5" y="132">
				400
			</text>
			<path class="y-gridline" d="M 0 1 L 660 1"/>
			<text class="y-axis-label" x="-5" y="1">
				600
			</text>
		</g>
		<g>
			<path class="series-1-line" d="M 40 393.59076907 L 47 417.66309972 L 54 407.308262583 L 62 373.035995843 L 69 374.400902909 L 77 388.680158765 L 84 390.252239926 L 92 408.576110444 L 99 393.412300501 L 106 397.723352382 L 114 388.817491865 L 121 388.08060034 L 129 399.636783729 L 136 384.059122415 L 144 378.576851092 L 151 377.521497708 L 158 382.533066316 L 166 384.089249225 L 173 393.002099816 L 181 364.000600419 L 188 392.722672945 L 196 335.950156716 L 203 348.493522187 L 211 303.791256934 L 218 269.821553801 L 225 212.205188168 L 233 217.200610113 L 240 181.383977242 L 248 121.904286797 L 255 143.189951972 L 263 173.361001117 L 270 112.00233602 L 277 85.3257075609 L 285 92.2959904913 L 292 39.966042043 L 300 46.2673563404 L 307 26.2309805841 L 315 0.0 L 322 18.0531034138 L 330 83.5108195918 L 337 12.5985471211 L 344 34.5847290222 L 352 46.3637363484 L 359 36.630173089 L 367 38.2814971 L 374 18.3884540215 L 382 34.7692600578 L 389 0.385457143502 L 396 18.1518952017 L 404 48.7208974664 L 411 52.3311842104 L 419 71.9922467632 L 426 17.9584528437 L 434 83.3533212445 L 441 131.805372856 L 448 247.073554457 L 456 353.980994402 L 463 319.05590569 L 471 317.204149247 L 478 340.830832022 L 486 317.673430679 L 493 350.997301915 L 501 368.047076584 L 508 296.162029822 L 515 326.58869305 L 523 358.73435477 L 530 365.545158361 L 538 379.394664594 L 545 404.677498084 L 553 402.539324695 L 560 390.432947332 L 567 397.673748955 L 575 380.965324471 L 582 391.040734737 L 590 399.619225216 L 597 401.254899386 L 605 396.712363799 L 612 374.048305087 L 620 401.241661324"/>
			<path class="series-2-line" d="M 40 394.371025467 L 47 398.773231309 L 54 396.965182481 L 62 396.399184587 L 69 382.791651887 L 77 389.056934129 L 84 391.59606357 L 92 396.619294879 L 99 394.190220584 L 106 405.423706562 L 114 395.542326664 L 121 394.97632877 L 129 390.063152608 L 136 403.780740454 L 144 392.657309621 L 151 393.333362661 L 158 392.146339301 L 166 397.169570609 L 173 392.877419914 L 181 393.553472953 L 188 399.197729729 L 196 396.768655434 L 203 383.161122734 L 211 386.942303109 L 218 387.618356149 L 225 395.746714792 L 233 372.823800088 L 240 395.235744472 L 248 379.144109904 L 255 382.304264812 L 263 379.875190517 L 270 366.267657817 L 277 367.564736324 L 285 375.693094967 L 292 358.359409465 L 300 349.720080501 L 307 356.60638821 L 315 336.788600841 L 322 335.60157748 L 330 302.121229837 L 337 349.995218366 L 344 340.734863935 L 352 325.264254834 L 359 347.676199217 L 367 313.574826107 L 374 322.324210218 L 382 291.327964443 L 389 283.930686413 L 396 279.01751025 L 404 262.925875682 L 411 262.359877788 L 419 228.258504678 L 426 210.30379371 L 434 259.419833172 L 441 311.64099997 L 448 379.387803441 L 456 370.748474477 L 463 375.150680319 L 471 354.711867482 L 478 380.2289392 L 486 389.599348778 L 493 379.717968879 L 501 365.489410712 L 508 274.253694643 L 515 353.178956519 L 523 357.581162361 L 530 342.11055326 L 538 367.006599511 L 545 400.5970023 L 553 400.652029873 L 560 405.675261182 L 567 395.793881284 L 575 392.122756055 L 582 400.251114698 L 590 399.685116804 L 597 392.287838774 L 605 404.142350219 L 612 384.945588317 L 620 386.86369229"/>
		</g>
		<text class="x-axis-label" x="40.0" y="540">
			0
		</text>
		<path class="x-notch" d="M 77.1794871795 525 L 77.1794871795 530"/>
		<text class="x-axis-label" x="114.358974359" y="540">
			10
		</text>
		<path class="x-notch" d="M 151.538461538 525 L 151.538461538 530"/>
		<text class="x-axis-label" x="188.717948718" y="540">
			20
		</text>
		<path class="x-notch" d="M 225.897435897 525 L 225.897435897 530"/>
		<text class="x-axis-label" x="263.076923077" y="540">
			30
		</text>
		<path class="x-notch" d="M 300.256410256 525 L 300.256410256 530"/>
		<text class="x-axis-label" x="337.435897436" y="540">
			40
		</text>
		<path class="x-notch" d="M 374.615384615 525 L 374.615384615 530"/>
		<text class="x-axis-label" x="411.794871795" y="540">
			50
		</text>
		<path class="x-notch" d="M 448.974358974 525 L 448.974358974 530"/>
		<text class="x-axis-label" x="486.153846154" y="540">
			60
		</text>
		<path class="x-notch" d="M 523.333333333 525 L 523.333333333 530"/>
		<text class="x-axis-label" x="560.512820513" y="540">
			70
		</text>
		<path class="x-notch" d="M 597.692307692 525 L 597.692307692 530"/>
	</g>
</svg>
