<?xml version="1.0" ?>
<svg height="600" version="1.1" width="800" xmlns="http://www.w3.org/2000/svg" xmlns:svg="http://www.w3.org/2000/svg">
	<style type="text/css">

.x-axis-path, .y-gridline, .x-notch { fill:none; stroke: #a7a9ac; stroke-width:1; }



.y-gridline { stroke-width: 1; }

.y-axis-path, .y-axis-path2, .x-notch-left, .x-notch-right { display: none;}



.x-axis-label, .data-point-label {font-size: 12px; font-weight:normal; font-family: sans-serif; fill: #58595b; text-anchor:middle;}

.y-axis-label {font-size: 12px; font-family: helvetica; fill: #a7a9ac; text-anchor:end;}



.series-1-line { fill: none; stroke: #10b80c; stroke-width:2; }



.series-2-line { fill: none; stroke: #e90f0a; stroke-width: 2;}
</style>
	<rect fill="white" height="600" width="800" x="0" y="0"/>
	<g id="grid" transform="translate(70, 30)">
		<g class="x-axis" id="x_axis">
			<path class="x-axis-path" d="M 0 525 L 660 525"/>
			<path class="x-notch-left" d="M 0 525, L 0 535"/>
			<path class="x-notch-right" d="M 660 525, L 660 535"/>
		</g>
		<g class="y-axis" id="y_axis">
			<path class="y-axis-path" d="M 0 525 L 0 0"/>
			<path class="y-axis-path-2" d="M 660 525 L 660 0"/>
			<path class="y-gridline" d="M 0 525 L 660 525"/>
			<text class="y-axis-label" x="-5" y="525">-200</text>
			<path class="y-gridline" d="M 0 420 L 660 420"/>
			<text class="y-axis-label" x="-5" y="420"> 0</text>
			<path class="y-gridline" d="M 0 315 L 660 315"/>
			<text class="y-axis-label" x="-5" y="315">200</text>
			<path class="y-gridline" d="M 0 210 L 660 210"/>
			<text class="y-axis-label" x="-5" y="210">400</text>
			<path class="y-gridline" d="M 0 105 L 660 105"/>
			<text class="y-axis-label" x="-5" y="105">600</text>
			<path class="y-gridline" d="M 0 0 L 660 0"/>
			<text class="y-axis-label" x="-5" y="0">800</text>
		</g>
		<g>
			<path class="series-1-line" d="M 40 443.85651725 L 48 452.738991412 L 56 426.229332474 L 64 401.390668625 L 72 367.544023452 L 80 331.980313865 L 89 330.515225045 L 97 292.433237649 L 105 278.67460332 L 113 291.380295674 L 121 241.679910498 L 129 244.86246649 L 138 262.867381034 L 146 213.305025266 L 154 235.820090904 L 162 166.981830047 L 170 192.472831157 L 178 175.177215559 L 187 173.33446542 L 195 201.320888241 L 203 164.761509856 L 211 120.063217586 L 219 105.0 L 227 133.169450173 L 236 122.776376373 L 244 104.370811483 L 252 106.442168241 L 260 128.946162957 L 268 159.370510114 L 276 136.54657565 L 285 146.001166531 L 293 146.688122251 L 301 132.311837568 L 309 169.982103693 L 317 211.451839096 L 325 210.52476141 L 334 256.115737104 L 342 245.035551837 L 350 220.700257849 L 358 224.191906863 L 366 255.692276291 L 374 284.766506557 L 383 365.69283223 L 391 334.283575704 L 399 299.429119429 L 407 305.55296962 L 415 298.421889651 L 423 288.715748754 L 432 295.572065481 L 440 389.661896918 L 448 375.422748827 L 456 405.29819249 L 464 412.749839162 L 472 432.71269997 L 481 392.696336662 L 489 426.600524842 L 497 428.10030057 L 505 427.24179118 L 513 423.063969149 L 521 423.155773486 L 530 423.350251705 L 538 433.331604235 L 546 442.591561151 L 554 428.879174709 L 562 438.356800253 L 570 423.201979709 L 579 415.968047296 L 587 416.517509297 L 595 423.145086474 L 603 423.671692377 L 611 420.672923622 L 620 428.353488408"/>
			<path class="series-2-line" d="M 40 420.624971448 L 48 420.691932675 L 56 422.990934787 L 64 408.326426168 L 72 423.571265417 L 80 428.102308415 L 89 423.258779693 L 97 420.20088368 L 105 400.625885112 L 113 413.638683476 L 121 377.546582355 L 129 413.772605929 L 138 383.483811111 L 146 413.013712028 L 154 410.402224192 L 162 417.611716252 L 170 403.393615811 L 178 378.461719118 L 187 380.314313053 L 195 377.25641704 L 203 397.858154414 L 211 364.890910533 L 219 374.778851657 L 227 360.560751215 L 236 373.127141401 L 244 382.12226617 L 252 330.40587885 L 260 364.399861538 L 268 346.610495679 L 276 348.463089615 L 285 328.888091047 L 293 336.543991285 L 301 361.163402254 L 309 379.533098743 L 317 327.370303245 L 325 325.651631763 L 334 327.057817521 L 342 307.482818954 L 350 266.480227884 L 358 306.723925053 L 366 295.184273674 L 374 331.410297248 L 383 374.332443479 L 391 322.616056159 L 399 286.07754686 L 407 281.234018138 L 415 272.372815822 L 423 299.670675854 L 432 285.006167235 L 440 346.231048729 L 448 349.422867195 L 456 382.52403353 L 464 379.466137516 L 472 409.442446611 L 481 412.1878569 L 489 408.68355271 L 497 428.838881907 L 505 416.406414174 L 513 416.919783578 L 521 430.378990118 L 530 410.357583374 L 538 413.102993663 L 546 389.063913325 L 554 414.576140648 L 562 408.839795572 L 570 415.602879455 L 579 422.812371516 L 587 417.07602644 L 595 420.714253083 L 603 418.549173424 L 611 426.651481839 L 620 422.700769472"/>
		</g>
		<text class="x-axis-label" x="40.0" y="540">0</text>
		<path class="x-notch" d="M 80.8450704225 525 L 80.8450704225 530"/>
		<text class="x-axis-label" x="121.690140845" y="540">10</text>
		<path class="x-notch" d="M 162.535211268 525 L 162.535211268 530"/>
		<text class="x-axis-label" x="203.38028169" y="540">20</text>
		<path class="x-notch" d="M 244.225352113 525 L 244.225352113 530"/>
		<text class="x-axis-label" x="285.070422535" y="540">30</text>
		<path class="x-notch" d="M 325.915492958 525 L 325.915492958 530"/>
		<text class="x-axis-label" x="366.76056338" y="540">40</text>
		<path class="x-notch" d="M 407.605633803 525 L 407.605633803 530"/>
		<text class="x-axis-label" x="448.450704225" y="540">50</text>
		<path class="x-notch" d="M 489.295774648 525 L 489.295774648 530"/>
		<text class="x-axis-label" x="530.14084507" y="540">60</text>
		<path class="x-notch" d="M 570.985915493 525 L 570.985915493 530"/>
		<text class="x-axis-label" x="611.830985915" y="540">70</text>
		<path class="x-notch" d="M 652.676056338 525 L 652.676056338 530"/>
	</g>
</svg>
