<?xml version="1.0" ?>
<svg height="600" version="1.1" width="800" xmlns="http://www.w3.org/2000/svg" xmlns:svg="http://www.w3.org/2000/svg">
	<style type="text/css">
		

.x-axis-path, .y-gridline, .x-notch { fill:none; stroke: #a7a9ac; stroke-width:1; }



.y-gridline { stroke-width: 1; }

.y-axis-path, .y-axis-path2, .x-notch-left, .x-notch-right { display: none;}



.x-axis-label, .data-point-label {font-size: 12px; font-weight:normal; font-family: sans-serif; fill: #58595b; text-anchor:middle;}

.y-axis-label {font-size: 12px; font-family: helvetica; fill: #a7a9ac; text-anchor:end;}



.series-1-line { fill: none; stroke: #10b80c; stroke-width:2; }



.series-2-line { fill: none; stroke: #e90f0a; stroke-width: 2;}

	</style>
	<rect fill="white" height="600" width="800" x="0" y="0"/>
	<g id="grid" transform="translate(70, 30)">
		<g class="x-axis" id="x_axis">
			<path class="x-axis-path" d="M 0 525 L 660 525"/>
			<path class="x-notch-left" d="M 0 525, L 0 535"/>
			<path class="x-notch-right" d="M 660 525, L 660 535"/>
		</g>
		<g class="y-axis" id="y_axis">
			<path class="y-axis-path" d="M 0 525 L 0 0"/>
			<path class="y-axis-path-2" d="M 660 525 L 660 0"/>
			<path class="y-gridline" d="M 0 525 L 660 525"/>
			<text class="y-axis-label" x="-5" y="525">
				-50
			</text>
			<path class="y-gridline" d="M 0 438 L 660 438"/>
			<text class="y-axis-label" x="-5" y="438">
				 0
			</text>
			<path class="y-gridline" d="M 0 351 L 660 351"/>
			<text class="y-axis-label" x="-5" y="351">
				50
			</text>
			<path class="y-gridline" d="M 0 264 L 660 264"/>
			<text class="y-axis-label" x="-5" y="264">
				100
			</text>
			<path class="y-gridline" d="M 0 177 L 660 177"/>
			<text class="y-axis-label" x="-5" y="177">
				150
			</text>
			<path class="y-gridline" d="M 0 90 L 660 90"/>
			<text class="y-axis-label" x="-5" y="90">
				200
			</text>
			<path class="y-gridline" d="M 0 3 L 660 3"/>
			<text class="y-axis-label" x="-5" y="3">
				250
			</text>
		</g>
		<g>
			<path class="series-1-line" d="M 40 451.7065 L 45 450.822441034 L 50 413.323482069 L 55 410.644623103 L 60 463.831364138 L 65 407.979805172 L 70 414.365246207 L 75 398.718887241 L 80 426.462728276 L 85 373.21446931 L 90 382.426510345 L 95 410.754151379 L 100 316.895392414 L 105 307.979533448 L 110 377.275374483 L 115 317.385515517 L 120 236.405356552 L 125 246.155697586 L 130 276.054138621 L 135 269.875279655 L 140 287.16462069 L 145 335.953961724 L 150 281.268602759 L 156 229.635243793 L 161 216.007684828 L 166 253.937225862 L 171 228.822666897 L 176 206.265207931 L 181 210.542248966 L 186 207.81859 L 191 249.069631034 L 196 194.878472069 L 201 163.840513103 L 206 121.585054138 L 211 222.291295172 L 216 133.234536207 L 221 156.132277241 L 226 235.793018276 L 231 81.7615593103 L 236 59.8782003448 L 241 203.301941379 L 246 168.045782414 L 251 94.6942234483 L 256 157.079664483 L 261 84.5800055172 L 266 177.703146552 L 272 200.018487586 L 277 246.922728621 L 282 231.634769655 L 287 129.07151069 L 292 162.694651724 L 297 136.054092759 L 302 257.355733793 L 307 111.671074828 L 312 173.338315862 L 317 165.453556897 L 322 122.839697931 L 327 177.954938966 L 332 159.84108 L 337 58.0856210345 L 342 153.810662069 L 347 68.9714031034 L 352 171.337344138 L 357 132.671485172 L 362 181.505626207 L 367 163.166367241 L 372 212.494008276 L 377 228.70674931 L 382 74.8999903448 L 388 120.234131379 L 393 118.273472414 L 398 162.665413448 L 403 217.243054483 L 408 131.193495517 L 413 204.257436552 L 418 186.725277586 L 423 98.2523186207 L 428 256.663759655 L 433 253.71610069 L 438 209.979441724 L 443 223.903182759 L 448 263.808123793 L 453 309.007864828 L 458 235.252405862 L 463 329.496946897 L 468 255.919987931 L 473 332.710028966 L 478 302.03117 L 483 341.621811034 L 488 330.416952069 L 493 334.379693103 L 498 316.937834138 L 504 379.951175172 L 509 269.714516207 L 514 306.253857241 L 519 309.318498276 L 524 282.85783931 L 529 314.551080345 L 534 355.353421379 L 539 342.533662414 L 544 326.976903448 L 549 401.657144483 L 554 420.382185517 L 559 419.858626552 L 564 439.885667586 L 569 390.719808621 L 574 401.413049655 L 579 371.90109069 L 584 427.196231724 L 589 438.338172759 L 594 438.665813793 L 599 423.647354828 L 604 448.385395862 L 609 442.610436897 L 614 410.540677931 L 620 458.073518966"/>
			<path class="series-2-line" d="M 40 446.25 L 45 422.914655172 L 50 446.829310345 L 55 430.493965517 L 60 435.15862069 L 65 455.573275862 L 70 458.487931034 L 75 485.902586207 L 80 432.817241379 L 85 524.981896552 L 90 496.396551724 L 95 488.811206897 L 100 432.225862069 L 105 433.390517241 L 110 450.305172414 L 115 486.469827586 L 120 468.384482759 L 125 424.049137931 L 130 444.463793103 L 135 428.128448276 L 140 436.293103448 L 145 444.457758621 L 150 419.372413793 L 156 464.287068966 L 161 449.701724138 L 166 377.36637931 L 171 380.281034483 L 176 325.445689655 L 181 384.360344828 L 186 375.025 L 191 398.939655172 L 196 433.354310345 L 201 404.768965517 L 206 419.93362069 L 211 450.848275862 L 216 464.262931034 L 221 416.427586207 L 226 386.092241379 L 231 366.256896552 L 236 411.171551724 L 241 398.336206897 L 246 345.250862069 L 251 365.665517241 L 256 368.580172414 L 261 324.244827586 L 266 377.909482759 L 272 421.074137931 L 277 381.988793103 L 282 353.403448276 L 287 358.068103448 L 292 411.732758621 L 297 379.647413793 L 302 337.062068966 L 307 380.226724138 L 312 358.64137931 L 317 267.056034483 L 322 338.220689655 L 327 246.635344828 L 332 317.8 L 337 332.964655172 L 342 321.879310345 L 347 291.543965517 L 352 268.20862069 L 357 269.373275862 L 362 270.537931034 L 367 240.202586207 L 372 232.617241379 L 377 272.281896552 L 382 285.696551724 L 388 286.861206897 L 393 295.025862069 L 398 306.690517241 L 403 299.105172414 L 408 389.519827586 L 413 296.184482759 L 418 208.099137931 L 423 267.013793103 L 428 304.928448276 L 433 330.593103448 L 438 303.757758621 L 443 290.922413793 L 448 320.087068966 L 453 342.251724138 L 458 357.41637931 L 463 372.581034483 L 468 291.495689655 L 473 367.910344828 L 478 351.575 L 483 361.489655172 L 488 310.154310345 L 493 349.818965517 L 498 315.98362069 L 504 289.148275862 L 509 262.312931034 L 514 270.477586207 L 519 245.392241379 L 524 253.556896552 L 529 266.971551724 L 534 292.636206897 L 539 288.550862069 L 544 301.965517241 L 549 297.880172414 L 554 286.794827586 L 559 412.209482759 L 564 471.124137931 L 569 472.288793103 L 574 485.703448276 L 579 492.118103448 L 584 440.782758621 L 589 452.447413793 L 594 444.862068966 L 599 442.526724138 L 604 448.94137931 L 609 437.856034483 L 614 433.770689655 L 620 433.185344828"/>
		</g>
		<text class="x-axis-label" x="40.0" y="540">
			0
		</text>
		<path class="x-notch" d="M 65.2173913043 525 L 65.2173913043 530"/>
		<text class="x-axis-label" x="90.4347826087" y="540">
			10
		</text>
		<path class="x-notch" d="M 115.652173913 525 L 115.652173913 530"/>
		<text class="x-axis-label" x="140.869565217" y="540">
			20
		</text>
		<path class="x-notch" d="M 166.086956522 525 L 166.086956522 530"/>
		<text class="x-axis-label" x="191.304347826" y="540">
			30
		</text>
		<path class="x-notch" d="M 216.52173913 525 L 216.52173913 530"/>
		<text class="x-axis-label" x="241.739130435" y="540">
			40
		</text>
		<path class="x-notch" d="M 266.956521739 525 L 266.956521739 530"/>
		<text class="x-axis-label" x="292.173913043" y="540">
			50
		</text>
		<path class="x-notch" d="M 317.391304348 525 L 317.391304348 530"/>
		<text class="x-axis-label" x="342.608695652" y="540">
			60
		</text>
		<path class="x-notch" d="M 367.826086957 525 L 367.826086957 530"/>
		<text class="x-axis-label" x="393.043478261" y="540">
			70
		</text>
		<path class="x-notch" d="M 418.260869565 525 L 418.260869565 530"/>
		<text class="x-axis-label" x="443.47826087" y="540">
			80
		</text>
		<path class="x-notch" d="M 468.695652174 525 L 468.695652174 530"/>
		<text class="x-axis-label" x="493.913043478" y="540">
			90
		</text>
		<path class="x-notch" d="M 519.130434783 525 L 519.130434783 530"/>
		<text class="x-axis-label" x="544.347826087" y="540">
			100
		</text>
		<path class="x-notch" d="M 569.565217391 525 L 569.565217391 530"/>
		<text class="x-axis-label" x="594.782608696" y="540">
			110
		</text>
		<path class="x-notch" d="M 620.0 525 L 620.0 530"/>
	</g>
</svg>
