<?xml version="1.0" ?>
<svg height="600" version="1.1" width="800" xmlns="http://www.w3.org/2000/svg" xmlns:svg="http://www.w3.org/2000/svg">
	<style type="text/css">
		

.x-axis-path, .y-gridline, .x-notch { fill:none; stroke: #a7a9ac; stroke-width:1; }



.y-gridline { stroke-width: 1; }

.y-axis-path, .y-axis-path2, .x-notch-left, .x-notch-right { display: none;}



.x-axis-label, .data-point-label {font-size: 12px; font-weight:normal; font-family: sans-serif; fill: #58595b; text-anchor:middle;}

.y-axis-label {font-size: 12px; font-family: helvetica; fill: #a7a9ac; text-anchor:end;}



.series-1-line { fill: none; stroke: #10b80c; stroke-width:2; }



.series-2-line { fill: none; stroke: #e90f0a; stroke-width: 2;}

	</style>
	<rect fill="white" height="600" width="800" x="0" y="0"/>
	<g id="grid" transform="translate(70, 30)">
		<g class="x-axis" id="x_axis">
			<path class="x-axis-path" d="M 0 525 L 660 525"/>
			<path class="x-notch-left" d="M 0 525, L 0 535"/>
			<path class="x-notch-right" d="M 660 525, L 660 535"/>
		</g>
		<g class="y-axis" id="y_axis">
			<path class="y-axis-path" d="M 0 525 L 0 0"/>
			<path class="y-axis-path-2" d="M 660 525 L 660 0"/>
			<path class="y-gridline" d="M 0 525 L 660 525"/>
			<text class="y-axis-label" x="-5" y="525">
				-200
			</text>
			<path class="y-gridline" d="M 0 394 L 660 394"/>
			<text class="y-axis-label" x="-5" y="394">
				 0
			</text>
			<path class="y-gridline" d="M 0 263 L 660 263"/>
			<text class="y-axis-label" x="-5" y="263">
				200
			</text>
			<path class="y-gridline" d="M 0 132 L 660 132"/>
			<text class="y-axis-label" x="-5" y="132">
				400
			</text>
			<path class="y-gridline" d="M 0 1 L 660 1"/>
			<text class="y-axis-label" x="-5" y="1">
				600
			</text>
		</g>
		<g>
			<path class="series-1-line" d="M 40 418.482015 L 47 385.419519604 L 54 396.914561707 L 61 373.460091311 L 68 389.952608415 L 75 397.593888018 L 82 384.993005122 L 90 393.072134726 L 97 365.209239329 L 104 355.232831433 L 111 392.557086037 L 118 380.44419064 L 125 388.388132744 L 133 358.725012348 L 140 374.814066951 L 147 354.405384055 L 154 387.253751159 L 161 364.253405762 L 168 354.630847866 L 176 374.58941497 L 183 338.514732073 L 190 326.855961677 L 197 342.99489128 L 204 320.650533384 L 211 278.535725488 L 219 198.896017591 L 226 189.608672195 L 233 178.942939299 L 240 182.142981402 L 247 139.202611006 L 254 108.93364061 L 261 143.027045213 L 269 125.882287317 L 276 125.548029421 L 283 59.2186465244 L 290 84.662938628 L 297 36.9944182317 L 304 44.7028978354 L 312 37.082952439 L 319 122.111069543 L 326 120.481111646 L 333 136.35150375 L 340 179.026558354 L 347 183.790837957 L 355 216.554680061 L 362 192.191697165 L 369 180.145739268 L 376 198.169681372 L 383 190.246285976 L 390 255.856753079 L 398 314.804445183 L 405 320.240987287 L 412 342.85920439 L 419 332.378008994 L 426 371.654476098 L 433 353.500668201 L 440 385.373060305 L 448 400.418414909 L 455 376.089032012 L 462 398.555261616 L 469 406.26426622 L 476 395.160683323 L 483 385.352800427 L 491 411.77306753 L 498 402.655297134 L 505 390.777601738 L 512 373.784831341 L 519 375.688385945 L 526 394.049115549 L 534 401.757857652 L 541 399.185524756 L 548 405.81749186 L 555 383.473396463 L 562 369.038163567 L 569 390.663080671 L 577 380.670135274 L 584 404.600327378 L 591 388.600069482 L 598 391.580661585 L 605 391.178941189 L 612 408.176245793 L 620 395.995887896"/>
			<path class="series-2-line" d="M 40 374.5875 L 47 393.329039634 L 54 396.976829268 L 61 401.280868902 L 68 393.116158537 L 75 358.045198171 L 82 384.005487805 L 90 383.059527439 L 97 409.676067073 L 104 384.448856707 L 111 376.940396341 L 118 403.556935976 L 125 346.82972561 L 133 398.383765244 L 140 427.625304878 L 147 443.085594512 L 154 442.795884146 L 161 427.41242378 L 168 449.435213415 L 176 412.395503049 L 183 414.730792683 L 190 421.659832317 L 197 391.838871951 L 204 350.861661585 L 211 425.38445122 L 219 415.907240854 L 226 308.648780488 L 233 339.859070122 L 240 409.131859756 L 247 381.93589939 L 254 425.614939024 L 261 410.231478659 L 269 377.129268293 L 276 383.402057927 L 283 396.237347561 L 290 373.635137195 L 297 367.439176829 L 304 321.868216463 L 312 364.234756098 L 319 311.445045732 L 326 315.092835366 L 333 352.865625 L 340 329.607164634 L 347 333.911204268 L 355 295.558993902 L 362 313.644283537 L 369 304.167073171 L 376 313.064862805 L 383 300.306402439 L 390 307.891692073 L 398 382.414481707 L 405 307.312271341 L 412 367.397560976 L 419 344.13910061 L 426 364.849390244 L 433 386.872179878 L 440 385.269969512 L 448 372.511509146 L 455 385.34679878 L 462 392.275838415 L 469 397.892378049 L 476 394.977667683 L 483 394.687957317 L 491 373.398246951 L 498 393.452286585 L 505 383.31882622 L 512 403.372865854 L 519 393.239405488 L 526 426.418445122 L 534 406.441234756 L 541 403.52652439 L 548 397.986814024 L 555 382.603353659 L 562 387.563643293 L 569 397.773932927 L 577 400.765472561 L 584 409.663262195 L 591 402.811051829 L 598 403.833841463 L 605 395.012881098 L 612 384.879420732 L 620 396.402210366"/>
		</g>
		<text class="x-axis-label" x="40.0" y="540">
			0
		</text>
		<path class="x-notch" d="M 75.8024691358 525 L 75.8024691358 530"/>
		<text class="x-axis-label" x="111.604938272" y="540">
			10
		</text>
		<path class="x-notch" d="M 147.407407407 525 L 147.407407407 530"/>
		<text class="x-axis-label" x="183.209876543" y="540">
			20
		</text>
		<path class="x-notch" d="M 219.012345679 525 L 219.012345679 530"/>
		<text class="x-axis-label" x="254.814814815" y="540">
			30
		</text>
		<path class="x-notch" d="M 290.617283951 525 L 290.617283951 530"/>
		<text class="x-axis-label" x="326.419753086" y="540">
			40
		</text>
		<path class="x-notch" d="M 362.222222222 525 L 362.222222222 530"/>
		<text class="x-axis-label" x="398.024691358" y="540">
			50
		</text>
		<path class="x-notch" d="M 433.827160494 525 L 433.827160494 530"/>
		<text class="x-axis-label" x="469.62962963" y="540">
			60
		</text>
		<path class="x-notch" d="M 505.432098765 525 L 505.432098765 530"/>
		<text class="x-axis-label" x="541.234567901" y="540">
			70
		</text>
		<path class="x-notch" d="M 577.037037037 525 L 577.037037037 530"/>
		<text class="x-axis-label" x="612.839506173" y="540">
			80
		</text>
		<path class="x-notch" d="M 648.641975309 525 L 648.641975309 530"/>
	</g>
</svg>
