<?xml version="1.0" ?>
<svg height="600" version="1.1" width="800" xmlns="http://www.w3.org/2000/svg" xmlns:svg="http://www.w3.org/2000/svg">
	<style type="text/css">
		

.x-axis-path, .y-gridline, .x-notch { fill:none; stroke: #a7a9ac; stroke-width:1; }



.y-gridline { stroke-width: 1; }

.y-axis-path, .y-axis-path2, .x-notch-left, .x-notch-right { display: none;}



.x-axis-label, .data-point-label {font-size: 12px; font-weight:normal; font-family: sans-serif; fill: #58595b; text-anchor:middle;}

.y-axis-label {font-size: 12px; font-family: helvetica; fill: #a7a9ac; text-anchor:end;}



.series-1-line { fill: none; stroke: #10b80c; stroke-width:2; }



.series-2-line { fill: none; stroke: #e90f0a; stroke-width: 2;}

	</style>
	<rect fill="white" height="600" width="800" x="0" y="0"/>
	<g id="grid" transform="translate(70, 30)">
		<g class="x-axis" id="x_axis">
			<path class="x-axis-path" d="M 0 525 L 660 525"/>
			<path class="x-notch-left" d="M 0 525, L 0 535"/>
			<path class="x-notch-right" d="M 660 525, L 660 535"/>
		</g>
		<g class="y-axis" id="y_axis">
			<path class="y-axis-path" d="M 0 525 L 0 0"/>
			<path class="y-axis-path-2" d="M 660 525 L 660 0"/>
			<path class="y-gridline" d="M 0 525 L 660 525"/>
			<text class="y-axis-label" x="-5" y="525">
				-200
			</text>
			<path class="y-gridline" d="M 0 420 L 660 420"/>
			<text class="y-axis-label" x="-5" y="420">
				 0
			</text>
			<path class="y-gridline" d="M 0 315 L 660 315"/>
			<text class="y-axis-label" x="-5" y="315">
				200
			</text>
			<path class="y-gridline" d="M 0 210 L 660 210"/>
			<text class="y-axis-label" x="-5" y="210">
				400
			</text>
			<path class="y-gridline" d="M 0 105 L 660 105"/>
			<text class="y-axis-label" x="-5" y="105">
				600
			</text>
			<path class="y-gridline" d="M 0 0 L 660 0"/>
			<text class="y-axis-label" x="-5" y="0">
				800
			</text>
		</g>
		<g>
			<path class="series-1-line" d="M 40 408.797445637 L 47 414.111524529 L 55 423.692168225 L 62 428.159628266 L 70 426.046965024 L 78 410.834860041 L 85 430.714018669 L 93 445.432391087 L 101 406.476095234 L 108 411.563318208 L 116 450.788266142 L 123 393.976735939 L 131 414.535160691 L 139 396.212154459 L 146 388.985935666 L 154 372.367138038 L 162 372.805674147 L 169 363.362403615 L 177 312.939284848 L 185 306.4644798 L 192 273.360322866 L 200 277.76790782 L 207 249.908771302 L 215 224.111978224 L 223 246.410685391 L 230 210.326906125 L 238 201.086504288 L 246 155.359860885 L 253 186.848836036 L 261 169.526785059 L 268 208.239261753 L 276 179.569394246 L 284 142.055492953 L 291 153.209438232 L 299 169.333759506 L 307 150.677163504 L 314 167.397446434 L 322 119.668334678 L 330 168.179313545 L 337 110.674943051 L 345 149.35246162 L 352 152.723017508 L 360 159.025221281 L 368 142.025417277 L 375 105.0 L 383 134.784394651 L 391 161.040621919 L 398 116.183840803 L 406 204.518260561 L 413 218.330696884 L 421 178.241794963 L 429 252.248218016 L 436 261.507358528 L 444 273.436332881 L 452 295.259014513 L 459 322.864290709 L 467 382.830005905 L 475 420.886645857 L 482 410.514009847 L 490 346.788766591 L 497 438.890482184 L 505 456.612650107 L 513 437.502528215 L 520 438.525125342 L 528 442.122537149 L 536 417.350686551 L 543 453.357255595 L 551 447.931194304 L 558 456.331815327 L 566 448.914628478 L 574 421.89039612 L 581 425.17764754 L 589 417.796348553 L 597 421.143289112 L 604 436.67164873 L 612 407.847258871 L 620 415.329857212"/>
			<path class="series-2-line" d="M 40 379.92831923 L 47 433.636953103 L 55 419.939627443 L 62 442.502059325 L 70 421.83170337 L 78 432.307549404 L 85 407.453375271 L 93 426.296857662 L 101 424.221249163 L 108 440.740388121 L 116 425.648456403 L 123 471.454322606 L 131 431.259481821 L 139 455.681388448 L 146 435.011032493 L 154 429.216474503 L 162 445.735613461 L 169 426.459863565 L 177 418.340962142 L 185 443.692606143 L 192 398.849078493 L 200 394.449126563 L 207 383.541013022 L 215 395.411465116 L 223 355.681493017 L 230 340.589561299 L 238 344.092377037 L 246 346.665455403 L 253 323.670756015 L 261 318.805935398 L 268 311.151902662 L 276 281.649041665 L 284 290.265412954 L 291 266.80584488 L 299 229.400216213 L 307 269.627658179 L 314 229.89768608 L 322 236.654582623 L 330 277.811761962 L 337 177.648860628 L 345 248.092767212 L 352 242.298209222 L 360 177.930196742 L 368 213.508951844 L 375 200.276494871 L 383 171.23850256 L 391 148.708671859 L 398 124.319366412 L 406 135.260081133 L 413 150.384614032 L 421 125.530439899 L 429 87.1950738594 L 436 105.573687563 L 444 106.287291183 L 452 140.936308912 L 459 325.273043669 L 467 356.203111907 L 475 323.911038791 L 482 340.895046435 L 490 359.27366014 L 497 435.29599096 L 505 456.928685469 L 513 440.907016378 L 520 456.96128665 L 528 488.356223574 L 536 485.350877702 L 543 464.680521747 L 551 471.43741829 L 558 460.529304749 L 566 415.220908413 L 574 455.448350379 L 581 462.670115609 L 589 429.913173807 L 597 445.967444078 L 604 410.886158844 L 612 423.686348311 L 620 392.788881254"/>
		</g>
		<text class="x-axis-label" x="40.0" y="540">
			0
		</text>
		<path class="x-notch" d="M 78.1578947368 525 L 78.1578947368 530"/>
		<text class="x-axis-label" x="116.315789474" y="540">
			10
		</text>
		<path class="x-notch" d="M 154.473684211 525 L 154.473684211 530"/>
		<text class="x-axis-label" x="192.631578947" y="540">
			20
		</text>
		<path class="x-notch" d="M 230.789473684 525 L 230.789473684 530"/>
		<text class="x-axis-label" x="268.947368421" y="540">
			30
		</text>
		<path class="x-notch" d="M 307.105263158 525 L 307.105263158 530"/>
		<text class="x-axis-label" x="345.263157895" y="540">
			40
		</text>
		<path class="x-notch" d="M 383.421052632 525 L 383.421052632 530"/>
		<text class="x-axis-label" x="421.578947368" y="540">
			50
		</text>
		<path class="x-notch" d="M 459.736842105 525 L 459.736842105 530"/>
		<text class="x-axis-label" x="497.894736842" y="540">
			60
		</text>
		<path class="x-notch" d="M 536.052631579 525 L 536.052631579 530"/>
		<text class="x-axis-label" x="574.210526316" y="540">
			70
		</text>
		<path class="x-notch" d="M 612.368421053 525 L 612.368421053 530"/>
	</g>
</svg>
