<?xml version="1.0" ?>
<svg height="600" version="1.1" width="800" xmlns="http://www.w3.org/2000/svg" xmlns:svg="http://www.w3.org/2000/svg">
	<style type="text/css">
		

.x-axis-path, .y-gridline, .x-notch { fill:none; stroke: #a7a9ac; stroke-width:1; }



.y-gridline { stroke-width: 1; }

.y-axis-path, .y-axis-path2, .x-notch-left, .x-notch-right { display: none;}



.x-axis-label, .data-point-label {font-size: 12px; font-weight:normal; font-family: sans-serif; fill: #58595b; text-anchor:middle;}

.y-axis-label {font-size: 12px; font-family: helvetica; fill: #a7a9ac; text-anchor:end;}



.series-1-line { fill: none; stroke: #10b80c; stroke-width:2; }



.series-2-line { fill: none; stroke: #e90f0a; stroke-width: 2;}

	</style>
	<rect fill="white" height="600" width="800" x="0" y="0"/>
	<g id="grid" transform="translate(70, 30)">
		<g class="x-axis" id="x_axis">
			<path class="x-axis-path" d="M 0 525 L 660 525"/>
			<path class="x-notch-left" d="M 0 525, L 0 535"/>
			<path class="x-notch-right" d="M 660 525, L 660 535"/>
		</g>
		<g class="y-axis" id="y_axis">
			<path class="y-axis-path" d="M 0 525 L 0 0"/>
			<path class="y-axis-path-2" d="M 660 525 L 660 0"/>
			<path class="y-gridline" d="M 0 525 L 660 525"/>
			<text class="y-axis-label" x="-5" y="525">
				-100
			</text>
			<path class="y-gridline" d="M 0 438 L 660 438"/>
			<text class="y-axis-label" x="-5" y="438">
				 0
			</text>
			<path class="y-gridline" d="M 0 351 L 660 351"/>
			<text class="y-axis-label" x="-5" y="351">
				100
			</text>
			<path class="y-gridline" d="M 0 264 L 660 264"/>
			<text class="y-axis-label" x="-5" y="264">
				200
			</text>
			<path class="y-gridline" d="M 0 177 L 660 177"/>
			<text class="y-axis-label" x="-5" y="177">
				300
			</text>
			<path class="y-gridline" d="M 0 90 L 660 90"/>
			<text class="y-axis-label" x="-5" y="90">
				400
			</text>
			<path class="y-gridline" d="M 0 3 L 660 3"/>
			<text class="y-axis-label" x="-5" y="3">
				500
			</text>
		</g>
		<g>
			<path class="series-1-line" d="M 40 449.24285 L 46 457.070798454 L 52 418.546146907 L 58 426.688045361 L 64 431.666643814 L 70 406.603342268 L 76 428.879990722 L 82 431.480339175 L 88 435.381987629 L 94 452.632986082 L 100 421.714184536 L 106 443.04828299 L 112 448.273631443 L 118 458.681429897 L 124 450.849328351 L 130 432.068176804 L 136 442.229225258 L 142 423.672423711 L 148 463.089972165 L 154 439.889020619 L 160 454.111119072 L 166 441.701717526 L 172 419.106615979 L 178 427.495264433 L 185 420.381012887 L 191 409.38491134 L 197 389.078459794 L 203 344.496008247 L 209 327.016156701 L 215 331.837605155 L 221 303.386653608 L 227 278.884402062 L 233 253.529550515 L 239 203.652298969 L 245 148.726997423 L 251 241.384795876 L 257 124.60364433 L 263 171.627042784 L 269 181.608541237 L 275 150.375789691 L 281 155.937488144 L 287 107.630686598 L 293 136.413835052 L 299 54.5651335052 L 305 122.386581959 L 311 103.560630412 L 317 44.619428866 L 323 109.86067732 L 330 84.9097257732 L 336 79.7470742268 L 342 128.72242268 L 348 131.524721134 L 354 129.660119588 L 360 130.016618041 L 366 215.674766495 L 372 265.816664948 L 378 130.615363402 L 384 172.815411856 L 390 143.556660309 L 396 34.5605587629 L 402 121.160907216 L 408 115.61710567 L 414 186.803454124 L 420 143.769402577 L 426 260.187301031 L 432 338.351599485 L 438 328.141247938 L 444 218.943196392 L 450 268.232844845 L 456 287.547793299 L 462 296.138041753 L 468 275.876390206 L 475 217.65303866 L 481 282.557937113 L 487 326.216085567 L 493 387.598584021 L 499 403.458682474 L 505 447.318430928 L 511 413.348329381 L 517 398.964577835 L 523 431.718826289 L 529 413.767874742 L 535 432.925673196 L 541 449.458821649 L 547 439.180920103 L 553 432.649768557 L 559 431.39101701 L 565 427.417665464 L 571 424.431313918 L 577 441.256012371 L 583 445.022910825 L 589 433.264159278 L 595 433.217107732 L 601 432.990506186 L 607 450.375904639 L 613 440.187953093 L 620 437.156801546"/>
			<path class="series-2-line" d="M 40 427.875 L 46 436.354381443 L 52 441.333762887 L 58 434.93814433 L 64 444.292525773 L 70 430.896907216 L 76 437.62628866 L 82 442.605670103 L 88 449.335051546 L 94 455.18943299 L 100 468.043814433 L 106 451.148195876 L 112 456.12757732 L 118 437.481958763 L 124 466.086340206 L 130 462.315721649 L 136 448.045103093 L 142 443.399484536 L 148 437.878865979 L 154 441.108247423 L 160 441.712628866 L 166 433.567010309 L 172 444.671391753 L 178 433.900773196 L 185 452.880154639 L 191 428.984536082 L 197 458.463917526 L 203 452.943298969 L 209 450.922680412 L 215 450.652061856 L 221 453.881443299 L 227 455.360824742 L 233 453.340206186 L 239 454.819587629 L 245 458.923969072 L 251 440.278350515 L 257 436.507731959 L 263 438.862113402 L 269 418.466494845 L 275 446.195876289 L 281 432.800257732 L 287 428.154639175 L 293 443.634020619 L 299 416.238402062 L 305 415.967783505 L 311 419.197164948 L 317 435.551546392 L 323 428.280927835 L 330 431.510309278 L 336 418.989690722 L 342 423.969072165 L 348 431.573453608 L 354 416.427835052 L 360 396.032216495 L 366 411.511597938 L 372 405.115979381 L 378 374.220360825 L 384 412.449742268 L 390 405.179123711 L 396 381.283505155 L 402 386.262886598 L 408 399.117268041 L 414 351.596649485 L 420 377.576030928 L 426 406.180412371 L 432 396.284793814 L 438 420.514175258 L 444 393.993556701 L 450 418.222938144 L 456 409.202319588 L 462 366.931701031 L 468 389.411082474 L 475 396.140463918 L 481 407.244845361 L 487 422.724226804 L 493 437.328608247 L 499 455.432989691 L 505 439.412371134 L 511 450.516752577 L 517 443.246134021 L 523 453.475515464 L 529 456.704896907 L 535 438.059278351 L 541 453.538659794 L 547 454.143041237 L 553 450.37242268 L 559 443.101804124 L 565 449.831185567 L 571 439.06056701 L 577 443.164948454 L 583 436.769329897 L 589 429.49871134 L 595 437.978092784 L 601 440.332474227 L 607 425.18685567 L 613 445.916237113 L 620 442.145618557"/>
		</g>
		<text class="x-axis-label" x="40.0" y="540">
			0
		</text>
		<path class="x-notch" d="M 70.2083333333 525 L 70.2083333333 530"/>
		<text class="x-axis-label" x="100.416666667" y="540">
			10
		</text>
		<path class="x-notch" d="M 130.625 525 L 130.625 530"/>
		<text class="x-axis-label" x="160.833333333" y="540">
			20
		</text>
		<path class="x-notch" d="M 191.041666667 525 L 191.041666667 530"/>
		<text class="x-axis-label" x="221.25" y="540">
			30
		</text>
		<path class="x-notch" d="M 251.458333333 525 L 251.458333333 530"/>
		<text class="x-axis-label" x="281.666666667" y="540">
			40
		</text>
		<path class="x-notch" d="M 311.875 525 L 311.875 530"/>
		<text class="x-axis-label" x="342.083333333" y="540">
			50
		</text>
		<path class="x-notch" d="M 372.291666667 525 L 372.291666667 530"/>
		<text class="x-axis-label" x="402.5" y="540">
			60
		</text>
		<path class="x-notch" d="M 432.708333333 525 L 432.708333333 530"/>
		<text class="x-axis-label" x="462.916666667" y="540">
			70
		</text>
		<path class="x-notch" d="M 493.125 525 L 493.125 530"/>
		<text class="x-axis-label" x="523.333333333" y="540">
			80
		</text>
		<path class="x-notch" d="M 553.541666667 525 L 553.541666667 530"/>
		<text class="x-axis-label" x="583.75" y="540">
			90
		</text>
		<path class="x-notch" d="M 613.958333333 525 L 613.958333333 530"/>
	</g>
</svg>
