<?xml version="1.0" ?>
<svg height="600" version="1.1" width="800" xmlns="http://www.w3.org/2000/svg" xmlns:svg="http://www.w3.org/2000/svg">
	<style type="text/css">

.x-axis-path, .y-gridline, .x-notch { fill:none; stroke: #a7a9ac; stroke-width:1; }



.y-gridline { stroke-width: 1; }

.y-axis-path, .y-axis-path2, .x-notch-left, .x-notch-right { display: none;}



.x-axis-label, .data-point-label {font-size: 12px; font-weight:normal; font-family: sans-serif; fill: #58595b; text-anchor:middle;}

.y-axis-label {font-size: 12px; font-family: helvetica; fill: #a7a9ac; text-anchor:end;}



.series-1-line { fill: none; stroke: #10b80c; stroke-width:2; }



.series-2-line { fill: none; stroke: #e90f0a; stroke-width: 2;}
</style>
	<rect fill="white" height="600" width="800" x="0" y="0"/>
	<g id="grid" transform="translate(70, 30)">
		<g class="x-axis" id="x_axis">
			<path class="x-axis-path" d="M 0 525 L 660 525"/>
			<path class="x-notch-left" d="M 0 525, L 0 535"/>
			<path class="x-notch-right" d="M 660 525, L 660 535"/>
		</g>
		<g class="y-axis" id="y_axis">
			<path class="y-axis-path" d="M 0 525 L 0 0"/>
			<path class="y-axis-path-2" d="M 660 525 L 660 0"/>
			<path class="y-gridline" d="M 0 525 L 660 525"/>
			<text class="y-axis-label" x="-5" y="525">-200</text>
			<path class="y-gridline" d="M 0 394 L 660 394"/>
			<text class="y-axis-label" x="-5" y="394"> 0</text>
			<path class="y-gridline" d="M 0 263 L 660 263"/>
			<text class="y-axis-label" x="-5" y="263">200</text>
			<path class="y-gridline" d="M 0 132 L 660 132"/>
			<text class="y-axis-label" x="-5" y="132">400</text>
			<path class="y-gridline" d="M 0 1 L 660 1"/>
			<text class="y-axis-label" x="-5" y="1">600</text>
		</g>
		<g>
			<path class="series-1-line" d="M 40 400.943183014 L 43 394.515097637 L 46 382.078583775 L 50 388.147516906 L 53 401.78259946 L 57 375.376803156 L 60 391.306139193 L 64 394.242004944 L 67 371.174639881 L 71 391.554683467 L 74 406.080121173 L 78 377.34642269 L 81 379.563381401 L 85 389.141392728 L 88 378.142425891 L 92 372.262333547 L 95 376.738828834 L 99 344.632783362 L 102 381.104380654 L 106 372.142762185 L 109 391.11890744 L 113 367.640814655 L 116 357.189573799 L 120 361.186975762 L 123 380.590940139 L 127 353.655043362 L 130 352.328206971 L 134 368.513914018 L 137 327.369188136 L 141 343.743434696 L 144 349.230191993 L 148 333.900157412 L 151 365.030692003 L 155 331.777653316 L 158 325.00720582 L 162 284.718385236 L 165 319.66617734 L 169 359.424664619 L 172 330.810872994 L 176 338.129347744 L 179 296.419270375 L 183 298.17396011 L 186 288.784522518 L 190 254.503596314 L 193 283.974128618 L 197 256.609878612 L 200 245.354273712 L 204 222.081010682 L 207 200.674182013 L 211 124.349745491 L 214 179.292874029 L 218 164.92129315 L 221 97.7388866 L 225 113.411317521 L 228 142.898407119 L 232 101.701872929 L 235 90.3266282257 L 239 113.565742676 L 242 93.1686419101 L 246 147.666592872 L 249 96.2672936574 L 253 157.937490668 L 256 123.742555573 L 260 174.577338681 L 263 196.806191121 L 267 141.230180874 L 270 144.730864006 L 274 57.9131086478 L 277 80.0557029252 L 281 0.0 L 284 7.50674721054 L 288 53.3252042298 L 291 98.099483491 L 295 106.889688069 L 298 84.9690491676 L 302 109.355423886 L 305 173.508146839 L 309 134.914045451 L 312 273.548688932 L 316 234.562553541 L 319 295.737099933 L 323 307.318009772 L 326 287.930903963 L 330 297.389275485 L 333 331.10461737 L 336 341.693424812 L 340 358.512581895 L 343 345.579349201 L 347 339.270903629 L 350 350.577816952 L 354 385.749132529 L 357 340.632792423 L 361 379.072838374 L 364 373.27873714 L 368 372.105990408 L 371 381.256449664 L 375 390.303559358 L 378 389.096362772 L 382 364.437628077 L 385 386.717487666 L 389 398.812207737 L 392 388.241861182 L 396 372.415374823 L 399 372.78352468 L 403 390.938214492 L 406 370.695203385 L 410 392.033967726 L 413 398.291173318 L 417 386.385026981 L 420 389.132887325 L 424 391.589392698 L 427 394.114530728 L 431 400.645465783 L 434 395.997823657 L 438 393.370171445 L 441 394.320497137 L 445 396.75991111 L 448 399.250866338 L 452 407.408154985 L 455 389.150950991 L 459 388.046836915 L 462 396.905941201 L 466 404.703509276 L 469 393.875990552 L 473 396.846306157 L 476 376.106843273 L 480 388.235746145 L 483 405.962349781 L 487 395.22028806 L 490 396.718339732 L 494 388.578443759 L 497 395.828285854 L 501 383.922406571 L 504 400.724472253 L 508 394.981378168 L 511 402.214128862 L 515 385.03555248 L 518 395.623558763 L 522 394.177082567 L 525 396.770586199 L 529 398.98754491 L 532 400.451413781 L 536 391.81506603 L 539 402.385980912 L 543 382.468507577 L 546 402.026561614 L 550 402.035257951 L 553 400.332143693 L 557 386.731278162 L 560 391.173590647 L 564 396.540441087 L 567 391.31089018 L 571 385.824434157 L 574 399.288335652 L 578 396.917588556 L 581 393.502396649 L 585 390.327018457 L 588 399.922121183 L 592 397.671013892 L 595 388.606847019 L 599 387.999184721 L 602 387.408613823 L 606 399.246428778 L 609 395.79705407 L 613 395.70293495 L 616 392.168103239 L 620 387.760007775"/>
			<path class="series-2-line" d="M 40 380.79792295 L 43 373.8049687 L 46 392.84969512 L 50 415.232585727 L 53 402.898568776 L 57 387.894020476 L 60 408.27401257 L 64 398.61052697 L 67 409.643659337 L 71 412.665197653 L 74 417.689634481 L 78 427.387501173 L 81 425.735609625 L 85 421.413186727 L 88 398.397044374 L 92 410.097809579 L 95 394.42562844 L 99 409.464557834 L 102 401.803970747 L 106 399.484446361 L 109 387.150429411 L 113 410.200952856 L 116 379.840849289 L 120 386.86818463 L 123 359.846245252 L 127 401.590488151 L 130 379.909611473 L 134 360.231633309 L 137 379.276359728 L 141 382.297898044 L 144 391.328131898 L 148 366.97672387 L 151 359.316136783 L 155 371.016901988 L 158 365.359213414 L 162 381.065775645 L 165 350.705672078 L 169 351.056679043 L 172 368.098506949 L 176 377.796373641 L 179 354.780231288 L 183 347.119644202 L 186 359.488042244 L 190 297.08156247 L 193 340.161071045 L 197 344.517875036 L 200 335.522022273 L 204 300.488488843 L 207 312.856886886 L 211 273.817556429 L 214 300.8738769 L 218 257.16111658 L 221 276.205842999 L 225 284.568444016 L 228 272.902059903 L 232 247.883019038 L 235 257.58088573 L 239 283.301940525 L 242 268.297392224 L 246 286.674485806 L 249 264.993609128 L 253 231.962974211 L 256 208.279199021 L 260 251.358707595 L 263 252.377347398 L 267 257.401784226 L 270 237.723806061 L 274 247.421672754 L 277 183.679927304 L 281 206.062817912 L 284 212.422520415 L 288 204.761933329 L 291 203.777674618 L 295 166.073609837 L 298 154.407225724 L 302 209.504125377 L 305 205.849335316 L 309 217.550100521 L 312 24.9552174052 L 316 202.228926347 L 319 246.643700597 L 323 242.321277698 L 326 225.981463722 L 330 240.352760277 L 333 220.007149275 L 336 292.462502706 L 340 278.125587243 L 343 270.465000156 L 347 244.778326453 L 350 231.109043827 L 354 296.220436044 L 357 309.924099762 L 361 281.566894708 L 364 331.990364496 L 368 312.312386332 L 371 348.71556653 L 375 323.028892826 L 378 282.654296695 L 382 359.783079989 L 385 326.752445072 L 389 346.464804329 L 392 386.873781552 L 396 361.854740687 L 399 362.205747652 L 403 373.906512857 L 406 360.904863069 L 410 370.602729761 L 413 389.64745618 L 417 377.981072067 L 420 397.693431324 L 424 384.691781536 L 427 387.045687014 L 431 389.399592491 L 434 391.085865132 L 438 390.101606421 L 441 403.805270139 L 445 393.474151702 L 448 401.169119881 L 452 410.199353735 L 455 399.868235298 L 459 395.545812399 L 462 399.234983552 L 466 386.233333764 L 469 388.587239242 L 473 399.62037161 L 476 385.951088984 L 480 400.322385539 L 483 400.673392504 L 487 389.674641229 L 490 396.034343733 L 494 395.71771786 L 497 390.060029287 L 501 404.431325842 L 504 392.764941729 L 508 409.139136798 L 511 406.151979575 L 515 409.841150728 L 518 404.183462154 L 522 401.196304931 L 525 392.868085006 L 529 391.216193458 L 532 402.916958663 L 536 401.932699953 L 539 398.945542729 L 543 413.316839285 L 546 388.297798419 L 550 392.65460241 L 553 403.687734777 L 557 396.027147691 L 560 385.696029253 L 564 387.382301893 L 567 401.753598449 L 571 404.107503927 L 574 392.441119814 L 578 403.474252181 L 581 395.146032257 L 585 401.505734761 L 588 394.512780512 L 592 386.852193425 L 595 400.555857143 L 599 396.901067082 L 602 390.57574567 L 606 398.270713849 L 609 395.283556626 L 613 389.625868052 L 616 399.991367582 L 620 390.327881982"/>
		</g>
		<text class="x-axis-label" x="40.0" y="540">0</text>
		<path class="x-notch" d="M 57.4698795181 525 L 57.4698795181 530"/>
		<text class="x-axis-label" x="74.9397590361" y="540">10</text>
		<path class="x-notch" d="M 92.4096385542 525 L 92.4096385542 530"/>
		<text class="x-axis-label" x="109.879518072" y="540">20</text>
		<path class="x-notch" d="M 127.34939759 525 L 127.34939759 530"/>
		<text class="x-axis-label" x="144.819277108" y="540">30</text>
		<path class="x-notch" d="M 162.289156627 525 L 162.289156627 530"/>
		<text class="x-axis-label" x="179.759036145" y="540">40</text>
		<path class="x-notch" d="M 197.228915663 525 L 197.228915663 530"/>
		<text class="x-axis-label" x="214.698795181" y="540">50</text>
		<path class="x-notch" d="M 232.168674699 525 L 232.168674699 530"/>
		<text class="x-axis-label" x="249.638554217" y="540">60</text>
		<path class="x-notch" d="M 267.108433735 525 L 267.108433735 530"/>
		<text class="x-axis-label" x="284.578313253" y="540">70</text>
		<path class="x-notch" d="M 302.048192771 525 L 302.048192771 530"/>
		<text class="x-axis-label" x="319.518072289" y="540">80</text>
		<path class="x-notch" d="M 336.987951807 525 L 336.987951807 530"/>
		<text class="x-axis-label" x="354.457831325" y="540">90</text>
		<path class="x-notch" d="M 371.927710843 525 L 371.927710843 530"/>
		<text class="x-axis-label" x="389.397590361" y="540">100</text>
		<path class="x-notch" d="M 406.86746988 525 L 406.86746988 530"/>
		<text class="x-axis-label" x="424.337349398" y="540">110</text>
		<path class="x-notch" d="M 441.807228916 525 L 441.807228916 530"/>
		<text class="x-axis-label" x="459.277108434" y="540">120</text>
		<path class="x-notch" d="M 476.746987952 525 L 476.746987952 530"/>
		<text class="x-axis-label" x="494.21686747" y="540">130</text>
		<path class="x-notch" d="M 511.686746988 525 L 511.686746988 530"/>
		<text class="x-axis-label" x="529.156626506" y="540">140</text>
		<path class="x-notch" d="M 546.626506024 525 L 546.626506024 530"/>
		<text class="x-axis-label" x="564.096385542" y="540">150</text>
		<path class="x-notch" d="M 581.56626506 525 L 581.56626506 530"/>
		<text class="x-axis-label" x="599.036144578" y="540">160</text>
		<path class="x-notch" d="M 616.506024096 525 L 616.506024096 530"/>
	</g>
</svg>
