<?xml version="1.0" ?>
<svg height="600" version="1.1" width="800" xmlns="http://www.w3.org/2000/svg" xmlns:svg="http://www.w3.org/2000/svg">
	<style type="text/css">
		

.x-axis-path, .y-gridline, .x-notch { fill:none; stroke: #a7a9ac; stroke-width:1; }



.y-gridline { stroke-width: 1; }

.y-axis-path, .y-axis-path2, .x-notch-left, .x-notch-right { display: none;}



.x-axis-label, .data-point-label {font-size: 12px; font-weight:normal; font-family: sans-serif; fill: #58595b; text-anchor:middle;}

.y-axis-label {font-size: 12px; font-family: helvetica; fill: #a7a9ac; text-anchor:end;}



.series-1-line { fill: none; stroke: #10b80c; stroke-width:2; }



.series-2-line { fill: none; stroke: #e90f0a; stroke-width: 2;}

	</style>
	<rect fill="white" height="600" width="800" x="0" y="0"/>
	<g id="grid" transform="translate(70, 30)">
		<g class="x-axis" id="x_axis">
			<path class="x-axis-path" d="M 0 525 L 660 525"/>
			<path class="x-notch-left" d="M 0 525, L 0 535"/>
			<path class="x-notch-right" d="M 660 525, L 660 535"/>
		</g>
		<g class="y-axis" id="y_axis">
			<path class="y-axis-path" d="M 0 525 L 0 0"/>
			<path class="y-axis-path-2" d="M 660 525 L 660 0"/>
			<path class="y-gridline" d="M 0 525 L 660 525"/>
			<text class="y-axis-label" x="-5" y="525">
				-100
			</text>
			<path class="y-gridline" d="M 0 394 L 660 394"/>
			<text class="y-axis-label" x="-5" y="394">
				 0
			</text>
			<path class="y-gridline" d="M 0 263 L 660 263"/>
			<text class="y-axis-label" x="-5" y="263">
				100
			</text>
			<path class="y-gridline" d="M 0 132 L 660 132"/>
			<text class="y-axis-label" x="-5" y="132">
				200
			</text>
			<path class="y-gridline" d="M 0 1 L 660 1"/>
			<text class="y-axis-label" x="-5" y="1">
				300
			</text>
		</g>
		<g>
			<path class="series-1-line" d="M 40 357.167685 L 45 386.1999393 L 51 429.0974436 L 57 374.7350229 L 63 416.3867022 L 69 431.2838565 L 75 380.6909358 L 81 372.6697401 L 86 428.5909194 L 92 394.1511987 L 98 363.783903 L 104 403.3833573 L 110 445.5736866 L 116 429.2737659 L 122 406.2428202 L 127 420.6690495 L 133 370.2777288 L 139 343.2756831 L 145 321.3556374 L 151 309.1276167 L 157 306.491346 L 163 218.0711253 L 168 213.6167796 L 174 260.1824589 L 180 210.8343132 L 186 79.8418425 L 192 159.8930718 L 198 154.1603511 L 204 185.6826804 L 209 140.5413597 L 215 144.096939 L 221 168.2487933 L 227 41.2951476 L 233 54.5768769 L 239 64.1904312 L 245 51.3229605 L 250 84.2585898 L 256 37.7034441 L 262 55.9658484 L 268 59.8920777 L 274 157.779657 L 280 137.1385113 L 286 90.7854906 L 291 31.1058699 L 297 49.9069242 L 303 66.4531035 L 309 182.9172828 L 315 137.5066371 L 321 124.7068914 L 327 220.1374707 L 332 142.11645 L 338 157.2829293 L 344 218.8242336 L 350 207.2020629 L 356 245.8250172 L 362 177.0586965 L 368 287.4649008 L 373 271.8385551 L 379 325.5048594 L 385 282.6520137 L 391 349.039593 L 397 342.1623723 L 403 343.5313266 L 409 378.9570309 L 414 371.5080852 L 420 370.8899145 L 426 344.8984938 L 432 433.4641731 L 438 436.5488274 L 444 422.4029817 L 450 422.862636 L 455 410.9039403 L 461 406.3493196 L 467 444.5685489 L 473 430.9944282 L 479 428.1560325 L 485 423.2984868 L 491 419.1811911 L 496 444.6791454 L 502 405.1915497 L 508 438.766629 L 514 437.7457833 L 520 458.3638626 L 526 393.8043669 L 532 406.4130462 L 537 415.1178255 L 543 402.6882048 L 549 412.4025591 L 555 406.6362384 L 561 421.8699177 L 567 400.353597 L 573 424.1353263 L 578 417.9652806 L 584 426.6364599 L 590 346.3605642 L 596 402.5169435 L 602 377.2652478 L 608 416.6961771 L 614 384.6798564 L 620 395.3365857"/>
			<path class="series-2-line" d="M 40 336.7875 L 45 385.01925 L 51 420.126 L 57 425.04525 L 63 398.4645 L 69 399.44625 L 75 430.6155 L 81 423.72225 L 86 423.3915 L 92 391.56075 L 98 389.9175 L 104 427.64925 L 110 419.4435 L 116 424.36275 L 122 404.3445 L 127 427.63875 L 133 427.308 L 139 412.53975 L 145 424.0215 L 151 407.94075 L 157 431.235 L 163 425.65425 L 168 374.136 L 174 400.05525 L 180 390.537 L 186 371.83125 L 192 395.1255 L 198 389.54475 L 204 407.589 L 209 407.25825 L 215 385.9275 L 221 376.40925 L 227 393.141 L 233 390.18525 L 239 396.417 L 245 377.71125 L 250 380.0055 L 256 344.23725 L 262 332.094 L 268 355.38825 L 274 360.3075 L 280 377.03925 L 286 360.9585 L 291 376.37775 L 297 382.6095 L 303 382.27875 L 309 355.698 L 315 346.17975 L 321 368.1615 L 327 346.83075 L 332 357.0 L 338 367.16925 L 344 360.276 L 350 352.07025 L 356 337.302 L 362 336.97125 L 368 282.828 L 373 336.30975 L 379 329.4165 L 385 330.39825 L 391 335.3175 L 397 303.48675 L 403 367.4685 L 409 339.57525 L 414 345.807 L 420 258.85125 L 426 342.5205 L 432 368.43975 L 438 369.4215 L 444 396.65325 L 450 397.635 L 455 390.74175 L 461 406.161 L 467 403.20525 L 473 392.3745 L 479 395.98125 L 485 407.463 L 491 405.81975 L 496 391.0515 L 502 378.90825 L 508 383.8275 L 514 411.05925 L 520 389.7285 L 526 398.58525 L 532 398.2545 L 537 392.67375 L 543 408.093 L 549 398.57475 L 555 398.244 L 561 397.91325 L 567 397.5825 L 573 394.62675 L 578 406.1085 L 584 405.77775 L 590 409.3845 L 596 372.30375 L 602 391.6605 L 608 404.45475 L 614 404.124 L 620 401.16825"/>
		</g>
		<text class="x-axis-label" x="40.0" y="540">
			0
		</text>
		<path class="x-notch" d="M 69.2929292929 525 L 69.2929292929 530"/>
		<text class="x-axis-label" x="98.5858585859" y="540">
			10
		</text>
		<path class="x-notch" d="M 127.878787879 525 L 127.878787879 530"/>
		<text class="x-axis-label" x="157.171717172" y="540">
			20
		</text>
		<path class="x-notch" d="M 186.464646465 525 L 186.464646465 530"/>
		<text class="x-axis-label" x="215.757575758" y="540">
			30
		</text>
		<path class="x-notch" d="M 245.050505051 525 L 245.050505051 530"/>
		<text class="x-axis-label" x="274.343434343" y="540">
			40
		</text>
		<path class="x-notch" d="M 303.636363636 525 L 303.636363636 530"/>
		<text class="x-axis-label" x="332.929292929" y="540">
			50
		</text>
		<path class="x-notch" d="M 362.222222222 525 L 362.222222222 530"/>
		<text class="x-axis-label" x="391.515151515" y="540">
			60
		</text>
		<path class="x-notch" d="M 420.808080808 525 L 420.808080808 530"/>
		<text class="x-axis-label" x="450.101010101" y="540">
			70
		</text>
		<path class="x-notch" d="M 479.393939394 525 L 479.393939394 530"/>
		<text class="x-axis-label" x="508.686868687" y="540">
			80
		</text>
		<path class="x-notch" d="M 537.97979798 525 L 537.97979798 530"/>
		<text class="x-axis-label" x="567.272727273" y="540">
			90
		</text>
		<path class="x-notch" d="M 596.565656566 525 L 596.565656566 530"/>
	</g>
</svg>
