<?xml version="1.0" ?>
<svg height="600" version="1.1" width="800" xmlns="http://www.w3.org/2000/svg" xmlns:svg="http://www.w3.org/2000/svg">
	<style type="text/css">

.x-axis-path, .y-gridline, .x-notch { fill:none; stroke: #a7a9ac; stroke-width:1; }



.y-gridline { stroke-width: 1; }

.y-axis-path, .y-axis-path2, .x-notch-left, .x-notch-right { display: none;}



.x-axis-label, .data-point-label {font-size: 12px; font-weight:normal; font-family: sans-serif; fill: #58595b; text-anchor:middle;}

.y-axis-label {font-size: 12px; font-family: helvetica; fill: #a7a9ac; text-anchor:end;}



.series-1-line { fill: none; stroke: #10b80c; stroke-width:2; }



.series-2-line { fill: none; stroke: #e90f0a; stroke-width: 2;}
</style>
	<rect fill="white" height="600" width="800" x="0" y="0"/>
	<g id="grid" transform="translate(70, 30)">
		<g class="x-axis" id="x_axis">
			<path class="x-axis-path" d="M 0 525 L 660 525"/>
			<path class="x-notch-left" d="M 0 525, L 0 535"/>
			<path class="x-notch-right" d="M 660 525, L 660 535"/>
		</g>
		<g class="y-axis" id="y_axis">
			<path class="y-axis-path" d="M 0 525 L 0 0"/>
			<path class="y-axis-path-2" d="M 660 525 L 660 0"/>
			<path class="y-gridline" d="M 0 525 L 660 525"/>
			<text class="y-axis-label" x="-5" y="525">-200</text>
			<path class="y-gridline" d="M 0 394 L 660 394"/>
			<text class="y-axis-label" x="-5" y="394"> 0</text>
			<path class="y-gridline" d="M 0 263 L 660 263"/>
			<text class="y-axis-label" x="-5" y="263">200</text>
			<path class="y-gridline" d="M 0 132 L 660 132"/>
			<text class="y-axis-label" x="-5" y="132">400</text>
			<path class="y-gridline" d="M 0 1 L 660 1"/>
			<text class="y-axis-label" x="-5" y="1">600</text>
		</g>
		<g>
			<path class="series-1-line" d="M 40 428.784595535 L 45 406.843250847 L 50 337.809155394 L 56 394.827392196 L 61 397.981691437 L 66 403.011106922 L 72 396.142307074 L 77 383.649948862 L 82 412.435810042 L 88 349.254440565 L 93 398.621821141 L 99 404.492114663 L 104 379.299454474 L 109 406.210199408 L 115 362.807665894 L 120 391.593527073 L 125 418.236909793 L 131 414.084104226 L 136 404.690879897 L 142 396.40649261 L 147 402.659328943 L 152 361.934595108 L 158 308.546560317 L 163 341.961726625 L 168 311.450468098 L 174 306.189422281 L 179 228.738788189 L 185 193.178083911 L 190 208.918698113 L 195 167.69564408 L 201 187.912785002 L 206 186.629348915 L 211 105.276300715 L 217 194.238951029 L 222 239.550542298 L 227 164.892888482 L 233 174.28245651 L 238 128.278512521 L 244 85.6410646294 L 249 127.280006194 L 254 159.317779665 L 260 0.0 L 265 36.0547713847 L 270 86.569780395 L 276 90.4503738653 L 281 24.8973583164 L 287 62.3295225381 L 292 73.6318046222 L 297 33.9401154151 L 303 80.5145157154 L 308 54.8623267205 L 313 36.3250759414 L 319 96.9401700351 L 324 105.794416843 L 330 40.2032066921 L 335 86.7388155997 L 340 134.002509109 L 346 154.333637047 L 351 190.885535049 L 356 154.21539694 L 362 161.960806707 L 367 175.712317648 L 372 133.724774783 L 378 150.497836822 L 383 188.809670472 L 389 245.789712673 L 394 211.03228862 L 399 232.893587803 L 405 279.5831687 L 410 180.900513395 L 415 239.830867463 L 421 181.165412889 L 426 277.740128037 L 432 272.058344806 L 437 324.754026877 L 442 268.879165417 L 448 367.902512631 L 453 288.042634656 L 458 421.34325006 L 464 418.223489121 L 469 405.501963297 L 475 390.637959013 L 480 411.428018966 L 485 371.468370754 L 491 391.914679289 L 496 397.861362015 L 501 364.864470401 L 507 411.630440502 L 512 404.723446052 L 517 368.092099335 L 523 404.184468531 L 528 409.175092624 L 534 414.203911319 L 539 401.7503445 L 544 391.859396764 L 550 385.220361318 L 555 379.040257889 L 560 395.736930724 L 566 382.250319277 L 571 353.346217991 L 577 392.690499478 L 582 372.049561632 L 587 368.662438478 L 593 407.203439741 L 598 388.207853738 L 603 381.071094884 L 609 418.388078509 L 614 384.549115278 L 620 400.28972948"/>
			<path class="series-2-line" d="M 40 386.290116784 L 45 394.371428804 L 50 417.372507255 L 56 385.170449909 L 61 376.840018854 L 66 425.204700238 L 72 409.414385967 L 77 398.100001626 L 82 406.181313645 L 88 388.899022731 L 93 386.536498248 L 99 361.794324118 L 104 411.650982146 L 109 363.037181726 L 115 402.450003251 L 120 410.531315271 L 125 403.692860859 L 131 371.490803513 L 136 400.459788536 L 142 372.73366112 L 147 346.499510347 L 152 375.468495371 L 158 343.266438025 L 163 385.663212837 L 168 334.06545913 L 174 416.745603307 L 179 414.383078825 L 185 394.116834624 L 190 400.70617 L 195 332.696673219 L 201 397.473097678 L 206 383.17476005 L 211 349.480726061 L 217 396.353430803 L 222 328.343934021 L 227 355.820942402 L 233 305.715165338 L 238 343.636010221 L 244 380.06487846 L 249 303.10352182 L 254 327.596576914 L 260 353.581608651 L 265 391.502453534 L 270 384.663999122 L 276 321.13043227 L 281 324.73581436 L 287 380.56037896 L 292 322.994718681 L 297 365.391493493 L 303 333.189436147 L 308 338.28679488 L 313 280.721134601 L 319 327.593839342 L 324 302.851665212 L 330 312.424953875 L 335 228.003714018 L 340 262.940605615 L 346 251.626221273 L 351 270.151369795 L 356 248.393148951 L 362 280.346087261 L 367 306.331118998 L 372 299.492664586 L 378 261.322700668 L 383 296.259592264 L 389 270.025441491 L 394 240.807337431 L 399 223.525046517 L 405 231.606358536 L 410 224.767904124 L 415 126.91887448 L 421 278.229944242 L 426 243.04393361 L 432 333.183961003 L 437 335.29736645 L 442 283.699612743 L 448 273.877205045 L 453 356.557349222 L 458 352.702848096 L 464 333.928580539 L 469 358.421635633 L 475 367.994924296 L 480 343.252750166 L 485 369.237781903 L 491 398.206766927 L 496 361.528779651 L 501 406.90950775 L 507 403.055006624 L 512 393.232598926 L 517 423.693560592 L 523 397.459409819 L 528 393.604908693 L 534 383.782500995 L 539 424.687299164 L 544 414.864891465 L 550 421.454226842 L 555 414.61577243 L 560 388.381621656 L 566 415.858630037 L 571 404.544245695 L 577 394.721837997 L 582 374.455593796 L 587 397.456672247 L 593 396.586124408 L 598 410.635343 L 603 378.433285654 L 609 393.974480889 L 614 396.087886336 L 620 402.677221713"/>
		</g>
		<text class="x-axis-label" x="40.0" y="540">0</text>
		<path class="x-notch" d="M 66.8518518519 525 L 66.8518518519 530"/>
		<text class="x-axis-label" x="93.7037037037" y="540">10</text>
		<path class="x-notch" d="M 120.555555556 525 L 120.555555556 530"/>
		<text class="x-axis-label" x="147.407407407" y="540">20</text>
		<path class="x-notch" d="M 174.259259259 525 L 174.259259259 530"/>
		<text class="x-axis-label" x="201.111111111" y="540">30</text>
		<path class="x-notch" d="M 227.962962963 525 L 227.962962963 530"/>
		<text class="x-axis-label" x="254.814814815" y="540">40</text>
		<path class="x-notch" d="M 281.666666667 525 L 281.666666667 530"/>
		<text class="x-axis-label" x="308.518518519" y="540">50</text>
		<path class="x-notch" d="M 335.37037037 525 L 335.37037037 530"/>
		<text class="x-axis-label" x="362.222222222" y="540">60</text>
		<path class="x-notch" d="M 389.074074074 525 L 389.074074074 530"/>
		<text class="x-axis-label" x="415.925925926" y="540">70</text>
		<path class="x-notch" d="M 442.777777778 525 L 442.777777778 530"/>
		<text class="x-axis-label" x="469.62962963" y="540">80</text>
		<path class="x-notch" d="M 496.481481481 525 L 496.481481481 530"/>
		<text class="x-axis-label" x="523.333333333" y="540">90</text>
		<path class="x-notch" d="M 550.185185185 525 L 550.185185185 530"/>
		<text class="x-axis-label" x="577.037037037" y="540">100</text>
		<path class="x-notch" d="M 603.888888889 525 L 603.888888889 530"/>
	</g>
</svg>
