<?xml version="1.0" ?>
<svg height="600" version="1.1" width="800" xmlns="http://www.w3.org/2000/svg" xmlns:svg="http://www.w3.org/2000/svg">
	<style type="text/css">
		

.x-axis-path, .y-gridline, .x-notch { fill:none; stroke: #a7a9ac; stroke-width:1; }



.y-gridline { stroke-width: 1; }

.y-axis-path, .y-axis-path2, .x-notch-left, .x-notch-right { display: none;}



.x-axis-label, .data-point-label {font-size: 12px; font-weight:normal; font-family: sans-serif; fill: #58595b; text-anchor:middle;}

.y-axis-label {font-size: 12px; font-family: helvetica; fill: #a7a9ac; text-anchor:end;}



.series-1-line { fill: none; stroke: #10b80c; stroke-width:2; }



.series-2-line { fill: none; stroke: #e90f0a; stroke-width: 2;}

	</style>
	<rect fill="white" height="600" width="800" x="0" y="0"/>
	<g id="grid" transform="translate(70, 30)">
		<g class="x-axis" id="x_axis">
			<path class="x-axis-path" d="M 0 525 L 660 525"/>
			<path class="x-notch-left" d="M 0 525, L 0 535"/>
			<path class="x-notch-right" d="M 660 525, L 660 535"/>
		</g>
		<g class="y-axis" id="y_axis">
			<path class="y-axis-path" d="M 0 525 L 0 0"/>
			<path class="y-axis-path-2" d="M 660 525 L 660 0"/>
			<path class="y-gridline" d="M 0 525 L 660 525"/>
			<text class="y-axis-label" x="-5" y="525">
				-50
			</text>
			<path class="y-gridline" d="M 0 438 L 660 438"/>
			<text class="y-axis-label" x="-5" y="438">
				 0
			</text>
			<path class="y-gridline" d="M 0 351 L 660 351"/>
			<text class="y-axis-label" x="-5" y="351">
				50
			</text>
			<path class="y-gridline" d="M 0 264 L 660 264"/>
			<text class="y-axis-label" x="-5" y="264">
				100
			</text>
			<path class="y-gridline" d="M 0 177 L 660 177"/>
			<text class="y-axis-label" x="-5" y="177">
				150
			</text>
			<path class="y-gridline" d="M 0 90 L 660 90"/>
			<text class="y-axis-label" x="-5" y="90">
				200
			</text>
			<path class="y-gridline" d="M 0 3 L 660 3"/>
			<text class="y-axis-label" x="-5" y="3">
				250
			</text>
		</g>
		<g>
			<path class="series-1-line" d="M 40 420.61922 L 45 457.129381739 L 50 440.286243478 L 55 454.315205217 L 60 414.991566957 L 65 478.649128696 L 70 466.876090435 L 75 426.745352174 L 80 443.645713913 L 85 441.745475652 L 90 445.903037391 L 95 437.27229913 L 101 447.98046087 L 106 440.022422609 L 111 354.750784348 L 116 288.638146087 L 121 344.263207826 L 126 338.054469565 L 131 274.410731304 L 136 263.356593043 L 141 203.212854783 L 146 276.921016522 L 151 180.923978261 L 157 119.61404 L 162 109.052701739 L 167 63.6712634783 L 172 135.360625217 L 177 41.8317869565 L 182 23.8665486957 L 187 48.7546104348 L 192 100.251772174 L 197 108.895633913 L 202 3.11679565217 L 207 92.3068573913 L 212 126.75201913 L 218 81.1472808696 L 223 147.541142609 L 228 224.749304348 L 233 129.919166087 L 238 170.333227826 L 243 119.207589565 L 248 174.563851304 L 253 149.733713043 L 258 144.916574783 L 263 107.971536522 L 268 67.7049982609 L 274 33.00346 L 279 111.378521739 L 284 68.3308834783 L 289 233.802745217 L 294 190.396006957 L 299 210.931468696 L 304 223.075330435 L 309 254.334792174 L 314 320.729353913 L 319 194.533615652 L 324 234.004777391 L 330 210.47593913 L 335 267.71730087 L 340 329.983962609 L 345 287.473924348 L 350 378.772386087 L 355 320.109147826 L 360 424.555709565 L 365 394.520371304 L 370 327.376633043 L 375 415.937394783 L 380 453.838456522 L 385 405.496718261 L 391 454.21068 L 396 412.913041739 L 401 483.481003478 L 406 448.061265217 L 411 445.757126957 L 416 479.215288696 L 421 419.250750435 L 426 415.286212174 L 431 496.130173913 L 436 463.223435652 L 441 434.848497391 L 447 426.84495913 L 452 439.21422087 L 457 488.871082609 L 462 443.669544348 L 467 463.756306087 L 472 482.811267826 L 477 436.667529565 L 482 456.036091304 L 487 478.320853043 L 492 462.286214783 L 497 470.437276522 L 502 476.972038261 L 508 457.9764 L 513 432.293661739 L 518 505.058923478 L 523 449.088585217 L 528 460.290946957 L 533 399.115408696 L 538 449.175470435 L 543 429.909632174 L 548 413.740593913 L 553 363.872155652 L 558 429.413417391 L 564 392.42357913 L 569 434.54214087 L 574 462.930202609 L 579 480.279964348 L 584 472.725126087 L 589 424.158687826 L 594 405.520749565 L 599 446.024411304 L 604 440.398773043 L 609 456.312834783 L 614 444.809996522 L 620 400.191558261"/>
			<path class="series-2-line" d="M 40 436.45 L 45 471.784782609 L 50 435.369565217 L 55 428.704347826 L 60 418.539130435 L 65 450.373913043 L 70 373.708695652 L 75 421.293478261 L 80 376.12826087 L 85 397.463043478 L 90 429.297826087 L 95 476.882608696 L 101 442.217391304 L 106 453.052173913 L 111 512.886956522 L 116 450.22173913 L 121 438.306521739 L 126 380.891304348 L 131 410.976086957 L 136 427.060869565 L 141 457.145652174 L 146 422.480434783 L 151 380.815217391 L 157 456.4 L 162 395.484782609 L 167 374.819565217 L 172 382.154347826 L 177 364.989130435 L 182 298.823913043 L 187 304.408695652 L 192 322.243478261 L 197 268.32826087 L 202 251.163043478 L 207 326.747826087 L 212 274.582608696 L 218 357.167391304 L 223 303.252173913 L 228 268.586956522 L 233 249.67173913 L 238 290.256521739 L 243 210.091304348 L 248 240.176086957 L 253 221.260869565 L 258 219.845652174 L 263 248.180434783 L 268 180.265217391 L 274 199.85 L 279 187.934782609 L 284 212.769565217 L 289 263.854347826 L 294 276.439130435 L 299 278.523913043 L 304 224.608695652 L 309 191.693478261 L 314 206.02826087 L 319 166.113043478 L 324 148.947826087 L 330 131.782608696 L 335 209.117391304 L 340 253.202173913 L 345 194.036956522 L 350 213.62173913 L 355 217.456521739 L 360 301.791304348 L 365 275.876086957 L 370 305.960869565 L 375 274.795652174 L 380 297.880434783 L 385 397.965217391 L 391 303.8 L 396 328.634782609 L 401 374.469565217 L 406 369.554347826 L 411 385.639130435 L 416 350.973913043 L 421 353.058695652 L 426 355.143478261 L 431 435.97826087 L 436 448.563043478 L 441 436.647826087 L 447 386.232608696 L 452 433.817391304 L 457 397.402173913 L 462 416.986956522 L 467 420.82173913 L 472 449.156521739 L 477 479.241304348 L 482 458.576086957 L 487 392.410869565 L 492 434.745652174 L 497 457.830434783 L 502 391.665217391 L 508 486.5 L 513 464.084782609 L 518 371.669565217 L 523 433.254347826 L 528 458.089130435 L 533 512.673913043 L 538 413.258695652 L 543 413.593478261 L 548 476.92826087 L 553 473.763043478 L 558 416.347826087 L 564 451.682608696 L 569 431.017391304 L 574 436.602173913 L 579 457.936956522 L 584 405.77173913 L 589 472.606521739 L 594 443.191304348 L 599 469.776086957 L 604 389.610869565 L 609 430.195652174 L 614 448.030434783 L 620 444.865217391"/>
		</g>
		<text class="x-axis-label" x="40.0" y="540">
			0
		</text>
		<path class="x-notch" d="M 65.4385964912 525 L 65.4385964912 530"/>
		<text class="x-axis-label" x="90.8771929825" y="540">
			10
		</text>
		<path class="x-notch" d="M 116.315789474 525 L 116.315789474 530"/>
		<text class="x-axis-label" x="141.754385965" y="540">
			20
		</text>
		<path class="x-notch" d="M 167.192982456 525 L 167.192982456 530"/>
		<text class="x-axis-label" x="192.631578947" y="540">
			30
		</text>
		<path class="x-notch" d="M 218.070175439 525 L 218.070175439 530"/>
		<text class="x-axis-label" x="243.50877193" y="540">
			40
		</text>
		<path class="x-notch" d="M 268.947368421 525 L 268.947368421 530"/>
		<text class="x-axis-label" x="294.385964912" y="540">
			50
		</text>
		<path class="x-notch" d="M 319.824561404 525 L 319.824561404 530"/>
		<text class="x-axis-label" x="345.263157895" y="540">
			60
		</text>
		<path class="x-notch" d="M 370.701754386 525 L 370.701754386 530"/>
		<text class="x-axis-label" x="396.140350877" y="540">
			70
		</text>
		<path class="x-notch" d="M 421.578947368 525 L 421.578947368 530"/>
		<text class="x-axis-label" x="447.01754386" y="540">
			80
		</text>
		<path class="x-notch" d="M 472.456140351 525 L 472.456140351 530"/>
		<text class="x-axis-label" x="497.894736842" y="540">
			90
		</text>
		<path class="x-notch" d="M 523.333333333 525 L 523.333333333 530"/>
		<text class="x-axis-label" x="548.771929825" y="540">
			100
		</text>
		<path class="x-notch" d="M 574.210526316 525 L 574.210526316 530"/>
		<text class="x-axis-label" x="599.649122807" y="540">
			110
		</text>
		<path class="x-notch" d="M 625.087719298 525 L 625.087719298 530"/>
	</g>
</svg>
