<?xml version="1.0" ?>
<svg height="600" version="1.1" width="800" xmlns="http://www.w3.org/2000/svg" xmlns:svg="http://www.w3.org/2000/svg">
	<style type="text/css">

.x-axis-path, .y-gridline, .x-notch { fill:none; stroke: #a7a9ac; stroke-width:1; }



.y-gridline { stroke-width: 1; }

.y-axis-path, .y-axis-path2, .x-notch-left, .x-notch-right { display: none;}



.x-axis-label, .data-point-label {font-size: 12px; font-weight:normal; font-family: sans-serif; fill: #58595b; text-anchor:middle;}

.y-axis-label {font-size: 12px; font-family: helvetica; fill: #a7a9ac; text-anchor:end;}



.series-1-line { fill: none; stroke: #10b80c; stroke-width:2; }



.series-2-line { fill: none; stroke: #e90f0a; stroke-width: 2;}
</style>
	<rect fill="white" height="600" width="800" x="0" y="0"/>
	<g id="grid" transform="translate(70, 30)">
		<g class="x-axis" id="x_axis">
			<path class="x-axis-path" d="M 0 525 L 660 525"/>
			<path class="x-notch-left" d="M 0 525, L 0 535"/>
			<path class="x-notch-right" d="M 660 525, L 660 535"/>
		</g>
		<g class="y-axis" id="y_axis">
			<path class="y-axis-path" d="M 0 525 L 0 0"/>
			<path class="y-axis-path-2" d="M 660 525 L 660 0"/>
			<path class="y-gridline" d="M 0 525 L 660 525"/>
			<text class="y-axis-label" x="-5" y="525">-200</text>
			<path class="y-gridline" d="M 0 394 L 660 394"/>
			<text class="y-axis-label" x="-5" y="394"> 0</text>
			<path class="y-gridline" d="M 0 263 L 660 263"/>
			<text class="y-axis-label" x="-5" y="263">200</text>
			<path class="y-gridline" d="M 0 132 L 660 132"/>
			<text class="y-axis-label" x="-5" y="132">400</text>
			<path class="y-gridline" d="M 0 1 L 660 1"/>
			<text class="y-axis-label" x="-5" y="1">600</text>
		</g>
		<g>
			<path class="series-1-line" d="M 40 401.164147796 L 44 408.114124673 L 49 364.455086456 L 54 407.114152338 L 59 387.202133238 L 64 356.938333634 L 69 345.62197445 L 73 388.997345324 L 78 379.006317999 L 83 352.037968356 L 88 401.215856666 L 93 400.250160504 L 98 387.000001335 L 102 368.233399735 L 107 409.424096255 L 112 391.660992134 L 117 361.6480669 L 122 340.338638449 L 127 380.060965607 L 131 347.075542274 L 136 357.535525366 L 141 373.582910899 L 146 365.525683559 L 151 363.199454903 L 156 361.517453749 L 160 357.149588241 L 165 332.294394201 L 170 344.974811022 L 175 305.291768383 L 180 302.821943484 L 185 319.442596508 L 189 334.164650181 L 194 323.242202869 L 199 297.598626345 L 204 274.928665399 L 209 289.614959697 L 214 328.083473748 L 218 239.510659745 L 223 267.055243282 L 228 269.743149577 L 233 268.885290283 L 238 258.105880473 L 243 264.590426728 L 247 286.475530331 L 252 191.527490143 L 257 226.987746718 L 262 199.410370209 L 267 232.076925564 L 272 189.70745983 L 276 146.191459116 L 281 101.350685282 L 286 17.290257491 L 291 75.5655544563 L 296 75.3161632881 L 301 72.3451483906 L 305 76.4651059316 L 310 72.3123554177 L 315 0.0 L 320 121.635323172 L 325 51.2215671038 L 330 120.169920213 L 334 108.781483537 L 339 90.9826200404 L 344 97.538685046 L 349 236.831317414 L 354 123.258229926 L 359 208.682156615 L 363 213.196584768 L 368 214.59491858 L 373 165.384237297 L 378 253.387867693 L 383 287.952463657 L 388 221.692941304 L 392 194.509476667 L 397 305.040954967 L 402 298.631452606 L 407 326.606824872 L 412 314.896553815 L 417 290.112878526 L 421 285.601416776 L 426 294.485193638 L 431 345.347125044 L 436 300.685148089 L 441 308.316229324 L 446 333.854935385 L 450 366.091819492 L 455 366.666570184 L 460 360.543142829 L 465 364.628458475 L 470 344.572843132 L 475 378.492652854 L 479 387.448507209 L 484 377.457479884 L 489 367.716768188 L 494 377.818598783 L 499 394.90468243 L 504 369.691335893 L 508 392.722974478 L 513 399.350558235 L 518 375.426784181 L 523 329.976983482 L 528 373.81834372 L 532 408.060546563 L 537 395.41885552 L 542 403.945038627 L 547 420.135461662 L 552 371.462288494 L 557 415.769079356 L 562 385.11192662 L 566 393.136360987 L 571 375.623572495 L 576 389.951714297 L 581 406.214214824 L 586 385.26293887 L 591 394.469667593 L 595 395.617127036 L 600 376.528691055 L 605 405.935555826 L 610 408.515625254 L 615 401.06798352 L 620 377.752677593"/>
			<path class="series-2-line" d="M 40 402.969214029 L 44 397.321781643 L 49 387.483797427 L 54 367.867858938 L 59 412.507048527 L 64 383.113155765 L 69 394.227930705 L 73 371.818290995 L 78 394.107870818 L 83 395.444691484 L 88 393.98781093 L 93 370.18132061 L 98 410.629958368 L 102 385.426617437 L 107 376.985483831 L 112 413.243569758 L 117 399.21503371 L 122 389.377049494 L 127 392.110720771 L 131 406.019196932 L 136 397.578063326 L 141 389.13692972 L 146 382.092646724 L 151 407.175927768 L 156 386.163138668 L 160 402.865316049 L 165 401.408435495 L 170 373.411393344 L 175 397.097823777 L 180 390.053540781 L 185 401.168315721 L 189 381.552377232 L 194 385.68289912 L 199 343.717350864 L 204 382.769138012 L 209 368.740601964 L 214 349.124663475 L 218 372.811093908 L 223 368.560512133 L 228 374.087884631 L 233 387.996360792 L 238 369.777272913 L 243 382.288898463 L 247 334.735947766 L 252 372.390884303 L 257 386.299360463 L 262 373.667675026 L 267 387.576151187 L 272 394.500374295 L 276 362.312780312 L 281 373.427555252 L 286 346.827363711 L 291 342.576781936 L 296 315.976590395 L 301 332.678767776 L 305 278.141564028 L 310 315.796500565 L 315 308.752217569 L 320 335.232349223 L 325 358.918779656 L 330 323.937484453 L 334 291.74989047 L 339 333.595378838 L 344 334.932199505 L 349 330.68161773 L 354 332.018438397 L 359 287.259188921 L 363 280.214905926 L 368 268.980071099 L 373 253.554684441 L 378 296.797023419 L 383 286.959039203 L 388 261.755698273 L 392 242.139759784 L 397 202.967912749 L 402 211.288986468 L 407 303.42109681 L 412 321.520124801 L 417 308.888439364 L 421 293.463052706 L 426 258.481757503 L 431 321.280005027 L 436 304.457767759 L 441 356.081210399 L 446 337.862122521 L 450 364.342254174 L 455 372.663327893 L 460 336.28518208 L 465 396.289728383 L 470 408.801353932 L 475 390.582266054 L 479 398.903339773 L 484 421.192919595 L 489 404.370682327 L 494 397.326399331 L 499 390.282116336 L 504 390.222086392 L 508 381.780952786 L 513 371.94296857 L 518 388.645145951 L 523 385.791414787 L 528 399.699890947 L 532 385.6713549 L 537 385.611324956 L 542 406.504054168 L 547 375.713310796 L 552 385.431235125 L 557 381.180653351 L 562 413.248187446 L 566 403.410203229 L 571 400.556472065 L 576 387.924786628 L 581 400.436412178 L 586 389.201577351 L 591 412.888007784 L 595 386.287816243 L 600 411.371097287 L 605 388.961457577 L 610 356.773863595 L 615 418.175260508 L 620 394.368770188"/>
		</g>
		<text class="x-axis-label" x="40.0" y="540">0</text>
		<path class="x-notch" d="M 64.1666666667 525 L 64.1666666667 530"/>
		<text class="x-axis-label" x="88.3333333333" y="540">10</text>
		<path class="x-notch" d="M 112.5 525 L 112.5 530"/>
		<text class="x-axis-label" x="136.666666667" y="540">20</text>
		<path class="x-notch" d="M 160.833333333 525 L 160.833333333 530"/>
		<text class="x-axis-label" x="185.0" y="540">30</text>
		<path class="x-notch" d="M 209.166666667 525 L 209.166666667 530"/>
		<text class="x-axis-label" x="233.333333333" y="540">40</text>
		<path class="x-notch" d="M 257.5 525 L 257.5 530"/>
		<text class="x-axis-label" x="281.666666667" y="540">50</text>
		<path class="x-notch" d="M 305.833333333 525 L 305.833333333 530"/>
		<text class="x-axis-label" x="330.0" y="540">60</text>
		<path class="x-notch" d="M 354.166666667 525 L 354.166666667 530"/>
		<text class="x-axis-label" x="378.333333333" y="540">70</text>
		<path class="x-notch" d="M 402.5 525 L 402.5 530"/>
		<text class="x-axis-label" x="426.666666667" y="540">80</text>
		<path class="x-notch" d="M 450.833333333 525 L 450.833333333 530"/>
		<text class="x-axis-label" x="475.0" y="540">90</text>
		<path class="x-notch" d="M 499.166666667 525 L 499.166666667 530"/>
		<text class="x-axis-label" x="523.333333333" y="540">100</text>
		<path class="x-notch" d="M 547.5 525 L 547.5 530"/>
		<text class="x-axis-label" x="571.666666667" y="540">110</text>
		<path class="x-notch" d="M 595.833333333 525 L 595.833333333 530"/>
		<text class="x-axis-label" x="620.0" y="540">120</text>
	</g>
</svg>
