<?xml version="1.0" ?>
<svg height="600" version="1.1" width="800" xmlns="http://www.w3.org/2000/svg" xmlns:svg="http://www.w3.org/2000/svg">
	<style type="text/css">
		

.x-axis-path, .y-gridline, .x-notch { fill:none; stroke: #a7a9ac; stroke-width:1; }



.y-gridline { stroke-width: 1; }

.y-axis-path, .y-axis-path2, .x-notch-left, .x-notch-right { display: none;}



.x-axis-label, .data-point-label {font-size: 12px; font-weight:normal; font-family: sans-serif; fill: #58595b; text-anchor:middle;}

.y-axis-label {font-size: 12px; font-family: helvetica; fill: #a7a9ac; text-anchor:end;}



.series-1-line { fill: none; stroke: #10b80c; stroke-width:2; }



.series-2-line { fill: none; stroke: #e90f0a; stroke-width: 2;}

	</style>
	<rect fill="white" height="600" width="800" x="0" y="0"/>
	<g id="grid" transform="translate(70, 30)">
		<g class="x-axis" id="x_axis">
			<path class="x-axis-path" d="M 0 525 L 660 525"/>
			<path class="x-notch-left" d="M 0 525, L 0 535"/>
			<path class="x-notch-right" d="M 660 525, L 660 535"/>
		</g>
		<g class="y-axis" id="y_axis">
			<path class="y-axis-path" d="M 0 525 L 0 0"/>
			<path class="y-axis-path-2" d="M 660 525 L 660 0"/>
			<path class="y-gridline" d="M 0 525 L 660 525"/>
			<text class="y-axis-label" x="-5" y="525">
				-50
			</text>
			<path class="y-gridline" d="M 0 450 L 660 450"/>
			<text class="y-axis-label" x="-5" y="450">
				 0
			</text>
			<path class="y-gridline" d="M 0 375 L 660 375"/>
			<text class="y-axis-label" x="-5" y="375">
				50
			</text>
			<path class="y-gridline" d="M 0 300 L 660 300"/>
			<text class="y-axis-label" x="-5" y="300">
				100
			</text>
			<path class="y-gridline" d="M 0 225 L 660 225"/>
			<text class="y-axis-label" x="-5" y="225">
				150
			</text>
			<path class="y-gridline" d="M 0 150 L 660 150"/>
			<text class="y-axis-label" x="-5" y="150">
				200
			</text>
			<path class="y-gridline" d="M 0 75 L 660 75"/>
			<text class="y-axis-label" x="-5" y="75">
				250
			</text>
			<path class="y-gridline" d="M 0 0 L 660 0"/>
			<text class="y-axis-label" x="-5" y="0">
				300
			</text>
		</g>
		<g>
			<path class="series-1-line" d="M 40 449.03076 L 45 446.037411765 L 51 453.928663529 L 57 436.396715294 L 62 468.518967059 L 68 408.833418824 L 74 432.224470588 L 80 444.923522353 L 85 458.468574118 L 91 413.859825882 L 97 432.750877647 L 103 438.795929412 L 108 449.495181176 L 114 435.655632941 L 120 441.431284706 L 126 462.091736471 L 131 443.098188235 L 137 417.75904 L 143 411.265891765 L 149 436.387343529 L 154 414.586395294 L 160 443.400847059 L 166 379.907698824 L 172 428.529350588 L 177 391.228602353 L 183 365.696854118 L 189 356.049505882 L 195 319.440557647 L 200 368.101209412 L 206 308.069461176 L 212 269.845312941 L 218 263.851964706 L 223 276.666216471 L 229 113.749468235 L 235 128.21792 L 240 224.262971765 L 246 165.692823529 L 252 151.468675294 L 258 138.283127059 L 263 168.558578824 L 269 180.988230588 L 275 179.687482353 L 281 126.463334118 L 286 208.008185882 L 292 148.976637647 L 298 150.329089412 L 304 224.181941176 L 309 148.034792941 L 315 108.618444706 L 321 214.932496471 L 327 234.631748235 L 332 199.9074 L 338 222.645051765 L 344 204.613303529 L 350 212.619755294 L 355 248.587407059 L 361 128.171058824 L 367 186.331510588 L 373 159.761162353 L 378 232.190814118 L 384 141.427665882 L 390 61.3193176471 L 396 170.594969412 L 401 186.563421176 L 407 136.223472941 L 413 218.653924706 L 419 335.660576471 L 424 290.705628235 L 430 283.67368 L 436 254.834131765 L 441 295.148183529 L 447 257.347035294 L 453 289.315687059 L 459 330.322138824 L 464 330.635990588 L 470 326.604642353 L 476 346.611694118 L 482 427.926145882 L 487 397.855997647 L 493 428.901249412 L 499 398.600101176 L 505 409.914352941 L 510 427.959404706 L 516 431.312256471 L 522 378.434308235 L 528 392.59496 L 533 425.716811765 L 539 396.031263529 L 545 432.883915294 L 551 413.082767059 L 556 429.974018824 L 562 377.826870588 L 568 380.102722353 L 574 413.878574118 L 579 447.462425882 L 585 412.315077647 L 591 447.014329412 L 597 386.751581176 L 602 435.642632941 L 608 458.880084706 L 614 467.155936471 L 620 495.700988235"/>
			<path class="series-2-line" d="M 40 449.1 L 45 450.588235294 L 51 450.576470588 L 57 438.564705882 L 62 461.052941176 L 68 473.041176471 L 74 453.529411765 L 80 464.017647059 L 85 459.505882353 L 91 459.494117647 L 97 439.982352941 L 103 435.470588235 L 108 465.458823529 L 114 462.447058824 L 120 441.435294118 L 126 438.423529412 L 131 420.411764706 L 137 456.4 L 143 477.388235294 L 149 421.876470588 L 154 432.364705882 L 160 444.352941176 L 166 465.341176471 L 172 429.329411765 L 177 459.317647059 L 183 466.805882353 L 189 453.294117647 L 195 433.782352941 L 200 450.270588235 L 206 457.758823529 L 212 456.247058824 L 218 457.735294118 L 223 450.223529412 L 229 420.211764706 L 235 447.2 L 240 442.688235294 L 246 456.176470588 L 252 454.664705882 L 258 466.652941176 L 263 426.141176471 L 269 420.129411765 L 275 450.117647059 L 281 448.605882353 L 286 424.594117647 L 292 451.582352941 L 298 418.570588235 L 304 424.558823529 L 309 430.547058824 L 315 439.535294118 L 321 412.523529412 L 327 442.511764706 L 332 421.5 L 338 445.488235294 L 344 452.976470588 L 350 434.964705882 L 355 383.952941176 L 361 392.941176471 L 367 389.929411765 L 373 383.917647059 L 378 377.905882353 L 384 323.894117647 L 390 362.882352941 L 396 341.870588235 L 401 368.858823529 L 407 326.847058824 L 413 398.835294118 L 419 400.323529412 L 424 395.811764706 L 430 383.8 L 436 380.788235294 L 441 353.776470588 L 447 344.764705882 L 453 391.252941176 L 459 373.241176471 L 464 326.729411765 L 470 373.217647059 L 476 413.705882353 L 482 425.694117647 L 487 439.182352941 L 493 454.170588235 L 499 445.158823529 L 505 437.647058824 L 510 433.135294118 L 516 439.123529412 L 522 442.111764706 L 528 458.6 L 533 442.088235294 L 539 454.076470588 L 545 440.564705882 L 551 431.552941176 L 556 431.541176471 L 562 437.529411765 L 568 436.017647059 L 574 434.505882353 L 579 462.994117647 L 585 449.482352941 L 591 479.470588235 L 597 464.458823529 L 602 444.947058824 L 608 449.435294118 L 614 447.923529412 L 620 443.411764706"/>
		</g>
		<text class="x-axis-label" x="40.0" y="540">
			0
		</text>
		<path class="x-notch" d="M 68.7128712871 525 L 68.7128712871 530"/>
		<text class="x-axis-label" x="97.4257425743" y="540">
			10
		</text>
		<path class="x-notch" d="M 126.138613861 525 L 126.138613861 530"/>
		<text class="x-axis-label" x="154.851485149" y="540">
			20
		</text>
		<path class="x-notch" d="M 183.564356436 525 L 183.564356436 530"/>
		<text class="x-axis-label" x="212.277227723" y="540">
			30
		</text>
		<path class="x-notch" d="M 240.99009901 525 L 240.99009901 530"/>
		<text class="x-axis-label" x="269.702970297" y="540">
			40
		</text>
		<path class="x-notch" d="M 298.415841584 525 L 298.415841584 530"/>
		<text class="x-axis-label" x="327.128712871" y="540">
			50
		</text>
		<path class="x-notch" d="M 355.841584158 525 L 355.841584158 530"/>
		<text class="x-axis-label" x="384.554455446" y="540">
			60
		</text>
		<path class="x-notch" d="M 413.267326733 525 L 413.267326733 530"/>
		<text class="x-axis-label" x="441.98019802" y="540">
			70
		</text>
		<path class="x-notch" d="M 470.693069307 525 L 470.693069307 530"/>
		<text class="x-axis-label" x="499.405940594" y="540">
			80
		</text>
		<path class="x-notch" d="M 528.118811881 525 L 528.118811881 530"/>
		<text class="x-axis-label" x="556.831683168" y="540">
			90
		</text>
		<path class="x-notch" d="M 585.544554455 525 L 585.544554455 530"/>
		<text class="x-axis-label" x="614.257425743" y="540">
			100
		</text>
		<path class="x-notch" d="M 642.97029703 525 L 642.97029703 530"/>
	</g>
</svg>
