<?xml version="1.0" ?>
<svg height="600" version="1.1" width="800" xmlns="http://www.w3.org/2000/svg" xmlns:svg="http://www.w3.org/2000/svg">
	<style type="text/css">
		

.x-axis-path, .y-gridline, .x-notch { fill:none; stroke: #a7a9ac; stroke-width:1; }



.y-gridline { stroke-width: 1; }

.y-axis-path, .y-axis-path2, .x-notch-left, .x-notch-right { display: none;}



.x-axis-label, .data-point-label {font-size: 12px; font-weight:normal; font-family: sans-serif; fill: #58595b; text-anchor:middle;}

.y-axis-label {font-size: 12px; font-family: helvetica; fill: #a7a9ac; text-anchor:end;}



.series-1-line { fill: none; stroke: #10b80c; stroke-width:2; }



.series-2-line { fill: none; stroke: #e90f0a; stroke-width: 2;}

	</style>
	<rect fill="white" height="600" width="800" x="0" y="0"/>
	<g id="grid" transform="translate(70, 30)">
		<g class="x-axis" id="x_axis">
			<path class="x-axis-path" d="M 0 525 L 660 525"/>
			<path class="x-notch-left" d="M 0 525, L 0 535"/>
			<path class="x-notch-right" d="M 660 525, L 660 535"/>
		</g>
		<g class="y-axis" id="y_axis">
			<path class="y-axis-path" d="M 0 525 L 0 0"/>
			<path class="y-axis-path-2" d="M 660 525 L 660 0"/>
			<path class="y-gridline" d="M 0 525 L 660 525"/>
			<text class="y-axis-label" x="-5" y="525">
				-100
			</text>
			<path class="y-gridline" d="M 0 438 L 660 438"/>
			<text class="y-axis-label" x="-5" y="438">
				 0
			</text>
			<path class="y-gridline" d="M 0 351 L 660 351"/>
			<text class="y-axis-label" x="-5" y="351">
				100
			</text>
			<path class="y-gridline" d="M 0 264 L 660 264"/>
			<text class="y-axis-label" x="-5" y="264">
				200
			</text>
			<path class="y-gridline" d="M 0 177 L 660 177"/>
			<text class="y-axis-label" x="-5" y="177">
				300
			</text>
			<path class="y-gridline" d="M 0 90 L 660 90"/>
			<text class="y-axis-label" x="-5" y="90">
				400
			</text>
			<path class="y-gridline" d="M 0 3 L 660 3"/>
			<text class="y-axis-label" x="-5" y="3">
				500
			</text>
		</g>
		<g>
			<path class="series-1-line" d="M 40 444.76488 L 46 407.332676154 L 52 451.611822308 L 59 456.426718462 L 65 424.580864615 L 72 448.600960769 L 78 432.550256923 L 85 437.297253077 L 91 445.656949231 L 98 419.128645385 L 104 464.507491538 L 110 428.398637692 L 117 423.902833846 L 123 398.11478 L 130 421.730626154 L 136 379.631872308 L 143 341.795768462 L 149 328.145714615 L 156 350.146310769 L 162 309.169306923 L 168 280.442303077 L 175 221.022749231 L 181 213.632445385 L 188 125.091141538 L 194 114.021287692 L 201 93.4384338462 L 207 165.60558 L 214 28.1094261538 L 220 91.0330723077 L 226 98.0690684615 L 233 115.335214615 L 239 4.94166076923 L 246 87.9679069231 L 252 80.6896030769 L 259 38.2765492308 L 265 42.5079953846 L 272 50.4410415385 L 278 3.98968769231 L 284 35.0542338462 L 291 78.41393 L 297 55.9239261538 L 304 88.0654223077 L 310 96.9410184615 L 317 128.342264615 L 323 78.5701107692 L 330 77.3268569231 L 336 67.4239030769 L 342 108.405349231 L 349 230.671845385 L 355 123.217241538 L 362 213.333087692 L 368 310.516133846 L 375 263.18978 L 381 302.713126154 L 388 225.748772308 L 394 323.807518462 L 400 278.208414615 L 407 371.711910769 L 413 326.673856923 L 420 360.588103077 L 426 373.883499231 L 433 397.701295385 L 439 413.711641538 L 446 469.590487692 L 452 441.828083846 L 458 470.85143 L 465 453.095526154 L 471 475.589622308 L 478 468.109368462 L 484 440.145364615 L 491 476.459910769 L 497 463.034206923 L 504 464.932203077 L 510 441.477599231 L 516 452.843445385 L 523 400.917741538 L 529 410.735537692 L 536 430.492633846 L 542 446.95133 L 549 409.025626154 L 555 427.840172308 L 562 450.379068462 L 568 458.761164615 L 574 427.588710769 L 581 467.784756923 L 587 439.640853077 L 594 434.067749231 L 600 447.295945385 L 607 426.466341538 L 613 445.034137692 L 620 438.810383846"/>
			<path class="series-2-line" d="M 40 450.8 L 46 445.540384615 L 52 421.905769231 L 59 446.396153846 L 65 422.761538462 L 72 454.251923077 L 78 457.742307692 L 85 424.482692308 L 91 441.973076923 L 98 441.963461538 L 104 451.578846154 L 110 410.444230769 L 117 454.184615385 L 123 441.05 L 130 433.165384615 L 136 439.280769231 L 143 428.771153846 L 149 433.136538462 L 156 438.376923077 L 162 440.117307692 L 168 441.857692308 L 175 419.973076923 L 181 437.463461538 L 188 419.953846154 L 194 431.319230769 L 201 425.184615385 L 207 419.05 L 214 428.665384615 L 220 431.280769231 L 226 450.521153846 L 233 409.386538462 L 239 422.501923077 L 246 428.617307692 L 252 428.607692308 L 259 415.473076923 L 265 428.588461538 L 272 410.203846154 L 278 412.819230769 L 284 403.184615385 L 291 420.675 L 297 404.915384615 L 304 397.905769231 L 310 403.146153846 L 317 409.261538462 L 323 383.876923077 L 330 363.742307692 L 336 397.857692308 L 342 410.973076923 L 349 403.963461538 L 355 402.203846154 L 362 394.319230769 L 368 375.934615385 L 375 378.55 L 381 414.415384615 L 388 399.530769231 L 394 449.396153846 L 400 421.386538462 L 407 396.876923077 L 413 383.742307692 L 420 407.357692308 L 426 405.598076923 L 433 400.338461538 L 439 418.703846154 L 446 428.319230769 L 452 416.059615385 L 458 451.925 L 465 448.415384615 L 471 444.905769231 L 478 442.271153846 L 484 461.511538462 L 491 451.876923077 L 497 455.367307692 L 504 457.107692308 L 510 455.348076923 L 516 447.463461538 L 523 450.953846154 L 529 445.694230769 L 536 459.684615385 L 542 442.175 L 549 445.665384615 L 555 436.030769231 L 562 425.521153846 L 568 439.511538462 L 574 447.376923077 L 581 446.492307692 L 587 425.482692308 L 594 432.473076923 L 600 441.213461538 L 607 439.453846154 L 613 434.194230769 L 620 440.309615385"/>
		</g>
		<text class="x-axis-label" x="40.0" y="540">
			0
		</text>
		<path class="x-notch" d="M 72.2222222222 525 L 72.2222222222 530"/>
		<text class="x-axis-label" x="104.444444444" y="540">
			10
		</text>
		<path class="x-notch" d="M 136.666666667 525 L 136.666666667 530"/>
		<text class="x-axis-label" x="168.888888889" y="540">
			20
		</text>
		<path class="x-notch" d="M 201.111111111 525 L 201.111111111 530"/>
		<text class="x-axis-label" x="233.333333333" y="540">
			30
		</text>
		<path class="x-notch" d="M 265.555555556 525 L 265.555555556 530"/>
		<text class="x-axis-label" x="297.777777778" y="540">
			40
		</text>
		<path class="x-notch" d="M 330.0 525 L 330.0 530"/>
		<text class="x-axis-label" x="362.222222222" y="540">
			50
		</text>
		<path class="x-notch" d="M 394.444444444 525 L 394.444444444 530"/>
		<text class="x-axis-label" x="426.666666667" y="540">
			60
		</text>
		<path class="x-notch" d="M 458.888888889 525 L 458.888888889 530"/>
		<text class="x-axis-label" x="491.111111111" y="540">
			70
		</text>
		<path class="x-notch" d="M 523.333333333 525 L 523.333333333 530"/>
		<text class="x-axis-label" x="555.555555556" y="540">
			80
		</text>
		<path class="x-notch" d="M 587.777777778 525 L 587.777777778 530"/>
		<text class="x-axis-label" x="620.0" y="540">
			90
		</text>
	</g>
</svg>
