<?xml version="1.0" ?>
<svg height="600" version="1.1" width="800" xmlns="http://www.w3.org/2000/svg" xmlns:svg="http://www.w3.org/2000/svg">
	<style type="text/css">
		

.x-axis-path, .y-gridline, .x-notch { fill:none; stroke: #a7a9ac; stroke-width:1; }



.y-gridline { stroke-width: 1; }

.y-axis-path, .y-axis-path2, .x-notch-left, .x-notch-right { display: none;}



.x-axis-label, .data-point-label {font-size: 12px; font-weight:normal; font-family: sans-serif; fill: #58595b; text-anchor:middle;}

.y-axis-label {font-size: 12px; font-family: helvetica; fill: #a7a9ac; text-anchor:end;}



.series-1-line { fill: none; stroke: #10b80c; stroke-width:2; }



.series-2-line { fill: none; stroke: #e90f0a; stroke-width: 2;}

	</style>
	<rect fill="white" height="600" width="800" x="0" y="0"/>
	<g id="grid" transform="translate(70, 30)">
		<g class="x-axis" id="x_axis">
			<path class="x-axis-path" d="M 0 525 L 660 525"/>
			<path class="x-notch-left" d="M 0 525, L 0 535"/>
			<path class="x-notch-right" d="M 660 525, L 660 535"/>
		</g>
		<g class="y-axis" id="y_axis">
			<path class="y-axis-path" d="M 0 525 L 0 0"/>
			<path class="y-axis-path-2" d="M 660 525 L 660 0"/>
			<path class="y-gridline" d="M 0 525 L 660 525"/>
			<text class="y-axis-label" x="-5" y="525">
				-200
			</text>
			<path class="y-gridline" d="M 0 420 L 660 420"/>
			<text class="y-axis-label" x="-5" y="420">
				 0
			</text>
			<path class="y-gridline" d="M 0 315 L 660 315"/>
			<text class="y-axis-label" x="-5" y="315">
				200
			</text>
			<path class="y-gridline" d="M 0 210 L 660 210"/>
			<text class="y-axis-label" x="-5" y="210">
				400
			</text>
			<path class="y-gridline" d="M 0 105 L 660 105"/>
			<text class="y-axis-label" x="-5" y="105">
				600
			</text>
			<path class="y-gridline" d="M 0 0 L 660 0"/>
			<text class="y-axis-label" x="-5" y="0">
				800
			</text>
		</g>
		<g>
			<path class="series-1-line" d="M 40 431.899944 L 46 435.90556975 L 52 403.9153055 L 58 420.95185125 L 64 403.768687 L 70 420.79158275 L 76 397.6187985 L 82 414.18410425 L 88 407.59544 L 94 417.34918575 L 101 413.2914415 L 107 415.00848725 L 113 427.414113 L 119 386.62001875 L 125 408.3007145 L 131 413.31623025 L 137 421.023526 L 143 418.13695175 L 149 409.8252375 L 156 420.70962325 L 162 395.678969 L 168 382.68236475 L 174 339.0074905 L 180 295.72279625 L 186 241.668672 L 192 205.46496775 L 198 192.3339635 L 204 138.09167925 L 210 144.816175 L 217 96.01205075 L 223 77.1196965 L 229 71.87755225 L 235 50.925098 L 241 47.67501375 L 247 131.5343995 L 253 28.57442525 L 259 49.958601 L 265 103.46185675 L 272 22.4582225 L 278 71.26419825 L 284 87.438904 L 290 134.89877975 L 296 277.8551055 L 302 276.55697125 L 308 312.655007 L 314 347.58145275 L 320 313.9084585 L 326 358.29876425 L 333 356.6913 L 339 335.18717575 L 345 358.0390415 L 351 360.84661725 L 357 375.971323 L 363 335.36580875 L 369 366.1997745 L 375 342.23298025 L 381 375.692366 L 388 355.09040175 L 394 368.3710975 L 400 369.20005325 L 406 374.659299 L 412 377.97843475 L 418 357.4705505 L 424 385.31642625 L 430 401.733682 L 436 352.39153775 L 442 386.2009935 L 449 380.28558925 L 455 392.341775 L 461 408.46272075 L 467 375.2741965 L 473 415.69340225 L 479 415.445268 L 485 401.53369375 L 491 416.3622995 L 497 411.67161525 L 504 401.139151 L 510 412.75034675 L 516 390.7079925 L 522 390.21751825 L 528 372.603854 L 534 392.00961975 L 540 395.0998555 L 546 411.36927125 L 552 421.984227 L 558 402.05531275 L 565 404.4189485 L 571 413.68801425 L 577 413.02261 L 583 421.95525575 L 589 407.5995315 L 595 423.59930725 L 601 418.343513 L 607 420.16828875 L 613 422.1144445 L 620 421.11241025"/>
			<path class="series-2-line" d="M 40 414.54 L 46 409.535 L 52 430.255 L 58 439.95 L 64 402.92 L 70 394.24 L 76 431.76 L 82 433.055 L 88 422.275 L 94 421.47 L 101 425.39 L 107 408.835 L 113 403.83 L 119 426.125 L 125 427.945 L 131 449.715 L 137 420.035 L 143 425.53 L 149 417.375 L 156 403.97 L 162 424.165 L 168 389.235 L 174 410.48 L 180 411.775 L 186 393.645 L 192 416.465 L 198 402.535 L 204 413.805 L 210 373.625 L 217 355.495 L 223 359.94 L 229 384.86 L 235 342.055 L 241 342.825 L 247 329.42 L 253 303.415 L 259 269.535 L 265 220.955 L 272 250.6 L 278 279.72 L 284 260.015 L 290 294.385 L 296 357.63 L 302 361.025 L 308 365.995 L 314 328.44 L 320 345.485 L 326 346.78 L 333 378.0 L 339 359.87 L 345 363.265 L 351 360.885 L 357 341.18 L 363 375.025 L 369 320.67 L 375 379.715 L 381 366.31 L 388 371.28 L 394 373.1 L 400 392.77 L 406 365.715 L 412 365.435 L 418 355.705 L 424 337.575 L 430 341.495 L 436 366.415 L 442 359.835 L 449 366.905 L 455 416.5 L 461 405.195 L 467 408.065 L 473 414.61 L 479 418.005 L 485 423.5 L 491 409.045 L 497 388.815 L 504 420.035 L 510 395.605 L 516 400.05 L 522 400.295 L 528 389.515 L 534 398.16 L 540 392.63 L 546 419.65 L 552 386.82 L 558 389.165 L 565 415.135 L 571 408.03 L 577 415.1 L 583 419.545 L 589 432.915 L 595 420.035 L 601 426.58 L 607 413.7 L 613 422.87 L 620 421.015"/>
		</g>
		<text class="x-axis-label" x="40.0" y="540">
			0
		</text>
		<path class="x-notch" d="M 70.5263157895 525 L 70.5263157895 530"/>
		<text class="x-axis-label" x="101.052631579" y="540">
			10
		</text>
		<path class="x-notch" d="M 131.578947368 525 L 131.578947368 530"/>
		<text class="x-axis-label" x="162.105263158" y="540">
			20
		</text>
		<path class="x-notch" d="M 192.631578947 525 L 192.631578947 530"/>
		<text class="x-axis-label" x="223.157894737" y="540">
			30
		</text>
		<path class="x-notch" d="M 253.684210526 525 L 253.684210526 530"/>
		<text class="x-axis-label" x="284.210526316" y="540">
			40
		</text>
		<path class="x-notch" d="M 314.736842105 525 L 314.736842105 530"/>
		<text class="x-axis-label" x="345.263157895" y="540">
			50
		</text>
		<path class="x-notch" d="M 375.789473684 525 L 375.789473684 530"/>
		<text class="x-axis-label" x="406.315789474" y="540">
			60
		</text>
		<path class="x-notch" d="M 436.842105263 525 L 436.842105263 530"/>
		<text class="x-axis-label" x="467.368421053" y="540">
			70
		</text>
		<path class="x-notch" d="M 497.894736842 525 L 497.894736842 530"/>
		<text class="x-axis-label" x="528.421052632" y="540">
			80
		</text>
		<path class="x-notch" d="M 558.947368421 525 L 558.947368421 530"/>
		<text class="x-axis-label" x="589.473684211" y="540">
			90
		</text>
		<path class="x-notch" d="M 620.0 525 L 620.0 530"/>
	</g>
</svg>
