<?xml version="1.0" ?>
<svg height="600" version="1.1" width="800" xmlns="http://www.w3.org/2000/svg" xmlns:svg="http://www.w3.org/2000/svg">
	<style type="text/css">
		

.x-axis-path, .y-gridline, .x-notch { fill:none; stroke: #a7a9ac; stroke-width:1; }



.y-gridline { stroke-width: 1; }

.y-axis-path, .y-axis-path2, .x-notch-left, .x-notch-right { display: none;}



.x-axis-label, .data-point-label {font-size: 12px; font-weight:normal; font-family: sans-serif; fill: #58595b; text-anchor:middle;}

.y-axis-label {font-size: 12px; font-family: helvetica; fill: #a7a9ac; text-anchor:end;}



.series-1-line { fill: none; stroke: #10b80c; stroke-width:2; }



.series-2-line { fill: none; stroke: #e90f0a; stroke-width: 2;}

	</style>
	<rect fill="white" height="600" width="800" x="0" y="0"/>
	<g id="grid" transform="translate(70, 30)">
		<g class="x-axis" id="x_axis">
			<path class="x-axis-path" d="M 0 525 L 660 525"/>
			<path class="x-notch-left" d="M 0 525, L 0 535"/>
			<path class="x-notch-right" d="M 660 525, L 660 535"/>
		</g>
		<g class="y-axis" id="y_axis">
			<path class="y-axis-path" d="M 0 525 L 0 0"/>
			<path class="y-axis-path-2" d="M 660 525 L 660 0"/>
			<path class="y-gridline" d="M 0 525 L 660 525"/>
			<text class="y-axis-label" x="-5" y="525">
				-100
			</text>
			<path class="y-gridline" d="M 0 420 L 660 420"/>
			<text class="y-axis-label" x="-5" y="420">
				 0
			</text>
			<path class="y-gridline" d="M 0 315 L 660 315"/>
			<text class="y-axis-label" x="-5" y="315">
				100
			</text>
			<path class="y-gridline" d="M 0 210 L 660 210"/>
			<text class="y-axis-label" x="-5" y="210">
				200
			</text>
			<path class="y-gridline" d="M 0 105 L 660 105"/>
			<text class="y-axis-label" x="-5" y="105">
				300
			</text>
			<path class="y-gridline" d="M 0 0 L 660 0"/>
			<text class="y-axis-label" x="-5" y="0">
				400
			</text>
		</g>
		<g>
			<path class="series-1-line" d="M 40 445.016796 L 46 428.437752565 L 53 410.324029129 L 60 363.321445694 L 67 440.569142259 L 74 398.709458824 L 81 359.299215388 L 88 373.197051953 L 95 389.732908518 L 102 295.938545082 L 109 262.424681647 L 115 275.918478212 L 122 204.739434776 L 129 162.663871341 L 136 180.600007906 L 143 201.228344471 L 150 205.245261035 L 157 136.9201176 L 164 176.690374165 L 171 200.199910729 L 178 186.259307294 L 185 184.702823859 L 191 164.193000424 L 198 171.359916988 L 205 210.403573553 L 212 183.512690118 L 219 184.325846682 L 226 208.588863247 L 233 124.109679812 L 240 92.0498563765 L 247 171.585712941 L 254 210.468089506 L 260 200.027346071 L 267 178.332702635 L 274 179.1458592 L 281 208.820575765 L 288 203.710472329 L 295 197.900228894 L 302 150.225225459 L 309 183.992002024 L 316 172.850698588 L 323 200.506475153 L 330 191.008211718 L 336 279.482508282 L 343 289.449564847 L 350 258.251161412 L 357 269.348437976 L 364 284.807834541 L 371 301.532691106 L 378 248.849187671 L 385 307.923904235 L 392 271.2869208 L 399 260.900357365 L 405 315.371033929 L 412 247.125690494 L 419 257.389687059 L 426 383.610643624 L 433 356.288840188 L 440 319.086536753 L 447 354.469053318 L 454 355.551009882 L 461 369.367786447 L 468 371.042363012 L 475 383.378639576 L 481 369.653496141 L 488 425.497152706 L 495 426.149029271 L 502 409.192825835 L 509 394.8486024 L 516 424.872758965 L 523 409.882155529 L 530 417.883612094 L 537 410.350948659 L 544 432.459785224 L 550 416.419181788 L 557 428.028438353 L 564 409.779894918 L 571 410.216311482 L 578 451.090748047 L 585 433.730924612 L 592 396.582381176 L 599 442.679937741 L 606 407.766214306 L 613 418.514050871 L 620 452.953667435"/>
			<path class="series-2-line" d="M 40 407.61 L 46 425.875058824 L 53 437.840117647 L 60 410.955176471 L 67 411.370235294 L 74 442.235294118 L 81 418.500352941 L 88 432.565411765 L 95 403.580470588 L 102 428.145529412 L 109 426.460588235 L 115 421.625647059 L 122 439.890705882 L 129 422.455764706 L 136 420.770823529 L 143 408.585882353 L 150 407.950941176 L 157 431.466 L 164 381.481058824 L 171 411.296117647 L 178 427.461176471 L 185 395.326235294 L 191 412.541294118 L 198 411.906352941 L 205 393.421411765 L 212 382.286470588 L 219 390.051529412 L 226 384.166588235 L 233 388.781647059 L 240 405.996705882 L 247 377.011764706 L 254 383.726823529 L 260 386.241882353 L 267 383.506941176 L 274 391.272 L 281 401.137058824 L 288 391.052117647 L 295 367.317176471 L 302 404.482235294 L 309 390.197294118 L 316 338.112352941 L 323 376.327411765 L 330 395.642470588 L 336 364.557529412 L 343 377.572588235 L 350 383.237647059 L 357 342.702705882 L 364 358.867764706 L 371 382.382823529 L 378 340.797882353 L 385 350.662941176 L 392 344.778 L 399 379.843058824 L 405 370.808117647 L 412 299.823176471 L 419 389.488235294 L 426 407.753294118 L 433 381.918352941 L 440 382.333411765 L 447 402.698470588 L 454 368.463529412 L 461 354.178588235 L 468 350.393647059 L 475 362.358705882 L 481 385.873764706 L 488 367.388823529 L 495 400.353882353 L 502 395.518941176 L 509 433.734 L 516 388.999058824 L 523 405.164117647 L 530 397.179176471 L 537 437.494235294 L 544 399.059294118 L 550 415.224352941 L 557 417.739411765 L 564 409.754470588 L 571 435.369529412 L 578 417.934588235 L 585 435.149647059 L 592 427.164705882 L 599 413.929764706 L 606 425.894823529 L 613 439.959882353 L 620 402.574941176"/>
		</g>
		<text class="x-axis-label" x="40.0" y="540">
			0
		</text>
		<path class="x-notch" d="M 74.5238095238 525 L 74.5238095238 530"/>
		<text class="x-axis-label" x="109.047619048" y="540">
			10
		</text>
		<path class="x-notch" d="M 143.571428571 525 L 143.571428571 530"/>
		<text class="x-axis-label" x="178.095238095" y="540">
			20
		</text>
		<path class="x-notch" d="M 212.619047619 525 L 212.619047619 530"/>
		<text class="x-axis-label" x="247.142857143" y="540">
			30
		</text>
		<path class="x-notch" d="M 281.666666667 525 L 281.666666667 530"/>
		<text class="x-axis-label" x="316.19047619" y="540">
			40
		</text>
		<path class="x-notch" d="M 350.714285714 525 L 350.714285714 530"/>
		<text class="x-axis-label" x="385.238095238" y="540">
			50
		</text>
		<path class="x-notch" d="M 419.761904762 525 L 419.761904762 530"/>
		<text class="x-axis-label" x="454.285714286" y="540">
			60
		</text>
		<path class="x-notch" d="M 488.80952381 525 L 488.80952381 530"/>
		<text class="x-axis-label" x="523.333333333" y="540">
			70
		</text>
		<path class="x-notch" d="M 557.857142857 525 L 557.857142857 530"/>
		<text class="x-axis-label" x="592.380952381" y="540">
			80
		</text>
		<path class="x-notch" d="M 626.904761905 525 L 626.904761905 530"/>
	</g>
</svg>
