<?xml version="1.0" ?>
<svg height="600" version="1.1" width="800" xmlns="http://www.w3.org/2000/svg" xmlns:svg="http://www.w3.org/2000/svg">
	<style type="text/css">
		

.x-axis-path, .y-gridline, .x-notch { fill:none; stroke: #a7a9ac; stroke-width:1; }



.y-gridline { stroke-width: 1; }

.y-axis-path, .y-axis-path2, .x-notch-left, .x-notch-right { display: none;}



.x-axis-label, .data-point-label {font-size: 12px; font-weight:normal; font-family: sans-serif; fill: #58595b; text-anchor:middle;}

.y-axis-label {font-size: 12px; font-family: helvetica; fill: #a7a9ac; text-anchor:end;}



.series-1-line { fill: none; stroke: #10b80c; stroke-width:2; }



.series-2-line { fill: none; stroke: #e90f0a; stroke-width: 2;}

	</style>
	<rect fill="white" height="600" width="800" x="0" y="0"/>
	<g id="grid" transform="translate(70, 30)">
		<g class="x-axis" id="x_axis">
			<path class="x-axis-path" d="M 0 525 L 660 525"/>
			<path class="x-notch-left" d="M 0 525, L 0 535"/>
			<path class="x-notch-right" d="M 660 525, L 660 535"/>
		</g>
		<g class="y-axis" id="y_axis">
			<path class="y-axis-path" d="M 0 525 L 0 0"/>
			<path class="y-axis-path-2" d="M 660 525 L 660 0"/>
			<path class="y-gridline" d="M 0 525 L 660 525"/>
			<text class="y-axis-label" x="-5" y="525">
				-100
			</text>
			<path class="y-gridline" d="M 0 420 L 660 420"/>
			<text class="y-axis-label" x="-5" y="420">
				 0
			</text>
			<path class="y-gridline" d="M 0 315 L 660 315"/>
			<text class="y-axis-label" x="-5" y="315">
				100
			</text>
			<path class="y-gridline" d="M 0 210 L 660 210"/>
			<text class="y-axis-label" x="-5" y="210">
				200
			</text>
			<path class="y-gridline" d="M 0 105 L 660 105"/>
			<text class="y-axis-label" x="-5" y="105">
				300
			</text>
			<path class="y-gridline" d="M 0 0 L 660 0"/>
			<text class="y-axis-label" x="-5" y="0">
				400
			</text>
		</g>
		<g>
			<path class="series-1-line" d="M 40 433.806156 L 44 423.504530678 L 49 433.449005355 L 54 418.166600033 L 59 390.365254711 L 64 396.971149388 L 69 432.088744066 L 73 411.583218744 L 78 409.439253421 L 83 400.456848099 L 88 401.139902777 L 93 394.499837455 L 98 400.486652132 L 102 387.03502681 L 107 354.226021488 L 112 400.381636165 L 117 338.953410843 L 122 355.844265521 L 127 372.088740198 L 131 341.837114876 L 136 349.762229554 L 141 358.037624231 L 146 326.978338909 L 151 331.188133587 L 156 326.351968264 L 160 281.507862942 L 165 315.03701762 L 170 292.593192298 L 175 279.087806975 L 180 269.566961653 L 185 243.192356331 L 189 284.179031008 L 194 265.773505686 L 199 323.964220364 L 204 278.851315041 L 209 289.737849719 L 214 251.086224397 L 218 212.999919074 L 223 229.325453752 L 228 168.11226843 L 233 244.798943107 L 238 233.366677785 L 243 175.303492463 L 247 197.17512714 L 252 133.188681818 L 257 170.971596496 L 262 178.116351174 L 267 157.072385851 L 272 205.974380529 L 276 148.853675207 L 281 201.363469884 L 286 209.638864562 L 291 177.26035924 L 296 144.962493917 L 301 133.906968595 L 305 121.182363273 L 310 93.2193179504 L 315 121.283012628 L 320 131.523587306 L 325 136.272241983 L 330 109.547356661 L 334 105.518851339 L 339 124.859566017 L 344 130.227300694 L 349 178.133055372 L 354 190.60845005 L 359 187.818524727 L 363 213.728459405 L 368 196.669034083 L 373 198.53648876 L 378 93.034723438 L 383 67.8986981157 L 388 25.4511127934 L 392 107.575947471 L 397 67.3090021488 L 402 314.769356826 L 407 239.340431504 L 412 131.685326182 L 417 217.74136086 L 421 301.078315537 L 426 322.249390215 L 431 307.855704893 L 436 365.69655957 L 441 292.798974248 L 446 325.789688926 L 450 380.265083603 L 455 400.520978281 L 460 384.996232959 L 465 423.452407636 L 470 376.050922314 L 475 428.183976992 L 479 405.632211669 L 484 426.319026347 L 489 400.967541025 L 494 419.042795702 L 499 434.56025038 L 504 406.785785058 L 508 386.764939736 L 513 416.901754413 L 518 423.157789091 L 523 417.863823769 L 528 420.700638446 L 532 427.495113124 L 537 426.131927802 L 542 408.049802479 L 547 428.009597157 L 552 418.138891835 L 557 424.179466512 L 562 403.53954119 L 566 428.184015868 L 571 428.355510545 L 576 444.680625223 L 581 415.613819901 L 586 410.562194579 L 591 432.729929256 L 595 421.701283934 L 600 417.134338612 L 605 412.648033289 L 610 413.950167967 L 615 425.133222645 L 620 432.196917322"/>
			<path class="series-2-line" d="M 40 420.21 L 44 419.179090909 L 49 412.898181818 L 54 410.817272727 L 59 437.086363636 L 64 419.255454545 L 69 417.174545455 L 73 410.893636364 L 78 406.712727273 L 83 404.631818182 L 88 409.900909091 L 93 410.97 L 98 407.839090909 L 102 406.808181818 L 107 436.227272727 L 112 391.096363636 L 117 421.565454545 L 122 437.334545455 L 127 431.053636364 L 131 430.022727273 L 136 411.141818182 L 141 419.560909091 L 146 421.68 L 151 409.099090909 L 156 415.418181818 L 160 397.587272727 L 165 397.606363636 L 170 407.075454545 L 175 414.444545455 L 180 414.463636364 L 185 422.882727273 L 189 406.101818182 L 194 399.820909091 L 199 401.94 L 204 426.109090909 L 209 395.678181818 L 214 394.647272727 L 218 387.316363636 L 223 409.385454545 L 228 406.254545455 L 233 389.473636364 L 238 401.042727273 L 243 397.911818182 L 247 414.730909091 L 252 393.75 L 257 385.369090909 L 262 406.388181818 L 267 402.207272727 L 272 379.126363636 L 276 392.795454545 L 281 380.214545455 L 286 388.633636364 L 291 391.802727273 L 296 382.371818182 L 301 376.090909091 L 305 384.51 L 310 395.029090909 L 315 387.698181818 L 320 376.167272727 L 325 402.436363636 L 330 383.555454545 L 334 386.724545455 L 339 388.843636364 L 344 400.412727273 L 349 368.931818182 L 354 377.350909091 L 359 392.07 L 363 393.139090909 L 368 381.608181818 L 373 365.877272727 L 378 351.196363636 L 383 371.165454545 L 388 389.034545455 L 392 342.853636364 L 397 348.122727273 L 402 390.141818182 L 407 352.360909091 L 412 387.03 L 417 382.849090909 L 421 393.368181818 L 426 355.587272727 L 431 378.706363636 L 436 394.475454545 L 441 412.344545455 L 446 414.463636364 L 450 422.882727273 L 455 405.051818182 L 460 399.820909091 L 465 409.29 L 470 421.909090909 L 475 427.178181818 L 479 412.497272727 L 484 409.366363636 L 489 421.985454545 L 494 416.754545455 L 499 401.023636364 L 504 423.092727273 L 508 423.111818182 L 513 419.980909091 L 518 415.8 L 523 411.619090909 L 528 408.488181818 L 532 402.207272727 L 537 399.076363636 L 542 424.295454545 L 547 411.714545455 L 552 425.383636364 L 557 413.852727273 L 562 428.571818182 L 566 422.290909091 L 571 425.46 L 576 406.579090909 L 581 425.498181818 L 586 424.467272727 L 591 436.036363636 L 595 425.555454545 L 600 430.824545455 L 605 423.493636364 L 610 414.062727273 L 615 419.331818182 L 620 412.000909091"/>
		</g>
		<text class="x-axis-label" x="40.0" y="540">
			0
		</text>
		<path class="x-notch" d="M 64.1666666667 525 L 64.1666666667 530"/>
		<text class="x-axis-label" x="88.3333333333" y="540">
			10
		</text>
		<path class="x-notch" d="M 112.5 525 L 112.5 530"/>
		<text class="x-axis-label" x="136.666666667" y="540">
			20
		</text>
		<path class="x-notch" d="M 160.833333333 525 L 160.833333333 530"/>
		<text class="x-axis-label" x="185.0" y="540">
			30
		</text>
		<path class="x-notch" d="M 209.166666667 525 L 209.166666667 530"/>
		<text class="x-axis-label" x="233.333333333" y="540">
			40
		</text>
		<path class="x-notch" d="M 257.5 525 L 257.5 530"/>
		<text class="x-axis-label" x="281.666666667" y="540">
			50
		</text>
		<path class="x-notch" d="M 305.833333333 525 L 305.833333333 530"/>
		<text class="x-axis-label" x="330.0" y="540">
			60
		</text>
		<path class="x-notch" d="M 354.166666667 525 L 354.166666667 530"/>
		<text class="x-axis-label" x="378.333333333" y="540">
			70
		</text>
		<path class="x-notch" d="M 402.5 525 L 402.5 530"/>
		<text class="x-axis-label" x="426.666666667" y="540">
			80
		</text>
		<path class="x-notch" d="M 450.833333333 525 L 450.833333333 530"/>
		<text class="x-axis-label" x="475.0" y="540">
			90
		</text>
		<path class="x-notch" d="M 499.166666667 525 L 499.166666667 530"/>
		<text class="x-axis-label" x="523.333333333" y="540">
			100
		</text>
		<path class="x-notch" d="M 547.5 525 L 547.5 530"/>
		<text class="x-axis-label" x="571.666666667" y="540">
			110
		</text>
		<path class="x-notch" d="M 595.833333333 525 L 595.833333333 530"/>
		<text class="x-axis-label" x="620.0" y="540">
			120
		</text>
	</g>
</svg>
