<?xml version="1.0" ?>
<svg height="600" version="1.1" width="800" xmlns="http://www.w3.org/2000/svg" xmlns:svg="http://www.w3.org/2000/svg">
	<style type="text/css">
		

.x-axis-path, .y-gridline, .x-notch { fill:none; stroke: #a7a9ac; stroke-width:1; }



.y-gridline { stroke-width: 1; }

.y-axis-path, .y-axis-path2, .x-notch-left, .x-notch-right { display: none;}



.x-axis-label, .data-point-label {font-size: 12px; font-weight:normal; font-family: sans-serif; fill: #58595b; text-anchor:middle;}

.y-axis-label {font-size: 12px; font-family: helvetica; fill: #a7a9ac; text-anchor:end;}



.series-1-line { fill: none; stroke: #10b80c; stroke-width:2; }



.series-2-line { fill: none; stroke: #e90f0a; stroke-width: 2;}

	</style>
	<rect fill="white" height="600" width="800" x="0" y="0"/>
	<g id="grid" transform="translate(70, 30)">
		<g class="x-axis" id="x_axis">
			<path class="x-axis-path" d="M 0 525 L 660 525"/>
			<path class="x-notch-left" d="M 0 525, L 0 535"/>
			<path class="x-notch-right" d="M 660 525, L 660 535"/>
		</g>
		<g class="y-axis" id="y_axis">
			<path class="y-axis-path" d="M 0 525 L 0 0"/>
			<path class="y-axis-path-2" d="M 660 525 L 660 0"/>
			<path class="y-gridline" d="M 0 525 L 660 525"/>
			<text class="y-axis-label" x="-5" y="525">
				-100
			</text>
			<path class="y-gridline" d="M 0 420 L 660 420"/>
			<text class="y-axis-label" x="-5" y="420">
				 0
			</text>
			<path class="y-gridline" d="M 0 315 L 660 315"/>
			<text class="y-axis-label" x="-5" y="315">
				100
			</text>
			<path class="y-gridline" d="M 0 210 L 660 210"/>
			<text class="y-axis-label" x="-5" y="210">
				200
			</text>
			<path class="y-gridline" d="M 0 105 L 660 105"/>
			<text class="y-axis-label" x="-5" y="105">
				300
			</text>
			<path class="y-gridline" d="M 0 0 L 660 0"/>
			<text class="y-axis-label" x="-5" y="0">
				400
			</text>
		</g>
		<g>
			<path class="series-1-line" d="M 40 428.50206 L 44 425.060295333 L 49 425.414910667 L 53 424.745566 L 58 402.780121333 L 63 433.880836667 L 67 415.012052 L 72 449.477387333 L 77 419.543702667 L 81 435.889818 L 86 445.532313333 L 91 407.278848667 L 95 452.244604 L 100 393.071779333 L 104 420.321934667 L 109 395.87975 L 114 416.560685333 L 118 428.599700667 L 123 470.496096 L 128 417.138591333 L 132 414.666186667 L 137 442.508542 L 142 409.290037333 L 146 410.209552667 L 151 439.640348 L 155 411.617663333 L 160 417.921998667 L 165 411.868254 L 169 439.064649333 L 174 432.714804667 L 179 434.19964 L 183 442.038655333 L 188 406.315690667 L 193 420.051086 L 197 419.301101333 L 202 421.028276667 L 207 371.386512 L 211 347.509227333 L 216 307.667742667 L 220 292.325698 L 225 343.752733333 L 230 339.529768667 L 234 321.091904 L 239 254.973119333 L 244 300.315194667 L 248 238.47747 L 253 242.627625333 L 258 225.508560667 L 262 231.192976 L 267 169.920151333 L 271 145.640086667 L 276 112.285922 L 281 145.836497333 L 285 88.2256526667 L 290 197.994888 L 295 62.4144033333 L 299 75.7726386667 L 304 145.345354 L 309 40.2157093333 L 313 82.7038846667 L 318 23.5046 L 323 110.820215333 L 327 41.5245506667 L 332 116.428326 L 336 81.3248613333 L 341 172.113456667 L 346 106.748572 L 350 85.7524873333 L 355 58.4291026667 L 360 106.168538 L 364 170.491253333 L 369 26.2146686667 L 374 65.580144 L 378 81.7376793333 L 383 137.579754667 L 388 63.19579 L 392 75.8803453333 L 397 70.6615606667 L 401 195.749876 L 406 164.792231333 L 411 139.865786667 L 415 74.231262 L 420 145.502037333 L 425 156.166392667 L 429 80.328388 L 434 187.002643333 L 439 159.544438667 L 443 192.314654 L 448 277.018709333 L 452 291.077084667 L 457 274.14618 L 462 259.234215333 L 466 294.670170667 L 471 310.020466 L 476 323.217001333 L 480 377.524396667 L 485 383.909792 L 490 352.009667333 L 494 369.083222667 L 499 396.306498 L 503 424.930893333 L 508 430.857648667 L 513 413.712544 L 517 480.646399333 L 522 461.077894667 L 527 459.81719 L 531 435.940745333 L 536 447.063740667 L 541 482.310276 L 545 453.319491333 L 550 490.396806667 L 555 508.385542 L 559 500.662717333 L 564 483.678472667 L 568 485.728628 L 573 468.044663333 L 578 476.529638667 L 582 480.760434 L 587 441.026469333 L 592 455.057124667 L 596 458.13082 L 601 422.569555333 L 606 404.373190667 L 610 424.300646 L 615 420.724061333 L 620 418.278116667"/>
			<path class="series-2-line" d="M 40 395.85 L 44 419.628333333 L 49 465.456666667 L 53 425.185 L 58 390.163333333 L 63 430.741666667 L 67 445.07 L 72 411.098333333 L 77 472.676666667 L 81 439.755 L 86 428.883333333 L 91 436.911666667 L 95 443.89 L 100 439.318333333 L 104 425.296666667 L 109 408.125 L 114 395.153333333 L 118 419.981666667 L 123 414.36 L 128 403.488333333 L 132 439.866666667 L 137 415.345 L 142 456.973333333 L 146 455.551666667 L 151 428.93 L 155 438.008333333 L 160 456.536666667 L 165 437.265 L 169 431.643333333 L 174 417.621666667 L 179 409.9 L 183 434.728333333 L 188 416.506666667 L 193 463.385 L 197 435.713333333 L 202 431.141666667 L 207 454.92 L 211 390.498333333 L 216 441.576666667 L 220 438.055 L 225 419.833333333 L 230 401.611666667 L 234 430.64 L 239 444.968333333 L 244 393.146666667 L 248 435.825 L 253 421.803333333 L 258 408.831666667 L 262 360.16 L 267 355.588333333 L 271 395.116666667 L 276 334.895 L 281 361.823333333 L 285 400.301666667 L 290 371.58 L 295 370.158333333 L 299 393.936666667 L 304 329.515 L 309 409.993333333 L 313 352.921666667 L 318 393.5 L 323 386.828333333 L 327 405.356666667 L 332 369.285 L 336 377.313333333 L 341 361.191666667 L 346 380.77 L 350 358.348333333 L 355 299.176666667 L 360 364.955 L 364 300.533333333 L 369 304.361666667 L 374 284.04 L 378 239.568333333 L 383 187.746666667 L 388 222.025 L 392 187.003333333 L 397 201.331666667 L 401 157.91 L 406 133.388333333 L 411 150.866666667 L 415 130.545 L 420 251.973333333 L 425 122.451666667 L 429 137.83 L 434 223.558333333 L 439 144.436666667 L 443 211.265 L 448 202.493333333 L 452 239.921666667 L 457 197.55 L 462 126.828333333 L 466 228.306666667 L 471 227.935 L 476 235.963333333 L 480 177.841666667 L 485 224.72 L 490 183.398333333 L 494 200.876666667 L 499 191.055 L 503 290.433333333 L 508 244.911666667 L 513 318.04 L 517 214.768333333 L 522 256.396666667 L 527 308.525 L 531 326.003333333 L 536 288.881666667 L 541 296.91 L 545 416.238333333 L 550 425.316666667 L 555 422.845 L 559 418.273333333 L 564 425.251666667 L 568 411.23 L 573 445.508333333 L 578 451.436666667 L 582 424.815 L 587 459.093333333 L 592 418.821666667 L 596 449.95 L 601 447.478333333 L 606 397.756666667 L 610 420.485 L 615 424.313333333 L 620 415.541666667"/>
		</g>
		<text class="x-axis-label" x="40.0" y="540">
			0
		</text>
		<path class="x-notch" d="M 63.2 525 L 63.2 530"/>
		<text class="x-axis-label" x="86.4" y="540">
			10
		</text>
		<path class="x-notch" d="M 109.6 525 L 109.6 530"/>
		<text class="x-axis-label" x="132.8" y="540">
			20
		</text>
		<path class="x-notch" d="M 156.0 525 L 156.0 530"/>
		<text class="x-axis-label" x="179.2" y="540">
			30
		</text>
		<path class="x-notch" d="M 202.4 525 L 202.4 530"/>
		<text class="x-axis-label" x="225.6" y="540">
			40
		</text>
		<path class="x-notch" d="M 248.8 525 L 248.8 530"/>
		<text class="x-axis-label" x="272.0" y="540">
			50
		</text>
		<path class="x-notch" d="M 295.2 525 L 295.2 530"/>
		<text class="x-axis-label" x="318.4" y="540">
			60
		</text>
		<path class="x-notch" d="M 341.6 525 L 341.6 530"/>
		<text class="x-axis-label" x="364.8" y="540">
			70
		</text>
		<path class="x-notch" d="M 388.0 525 L 388.0 530"/>
		<text class="x-axis-label" x="411.2" y="540">
			80
		</text>
		<path class="x-notch" d="M 434.4 525 L 434.4 530"/>
		<text class="x-axis-label" x="457.6" y="540">
			90
		</text>
		<path class="x-notch" d="M 480.8 525 L 480.8 530"/>
		<text class="x-axis-label" x="504.0" y="540">
			100
		</text>
		<path class="x-notch" d="M 527.2 525 L 527.2 530"/>
		<text class="x-axis-label" x="550.4" y="540">
			110
		</text>
		<path class="x-notch" d="M 573.6 525 L 573.6 530"/>
		<text class="x-axis-label" x="596.8" y="540">
			120
		</text>
		<path class="x-notch" d="M 620.0 525 L 620.0 530"/>
	</g>
</svg>
