<?xml version="1.0" ?>
<svg height="600" version="1.1" width="800" xmlns="http://www.w3.org/2000/svg" xmlns:svg="http://www.w3.org/2000/svg">
	<style type="text/css">
		

.x-axis-path, .y-gridline, .x-notch { fill:none; stroke: #a7a9ac; stroke-width:1; }



.y-gridline { stroke-width: 1; }

.y-axis-path, .y-axis-path2, .x-notch-left, .x-notch-right { display: none;}



.x-axis-label, .data-point-label {font-size: 12px; font-weight:normal; font-family: sans-serif; fill: #58595b; text-anchor:middle;}

.y-axis-label {font-size: 12px; font-family: helvetica; fill: #a7a9ac; text-anchor:end;}



.series-1-line { fill: none; stroke: #10b80c; stroke-width:2; }



.series-2-line { fill: none; stroke: #e90f0a; stroke-width: 2;}

	</style>
	<rect fill="white" height="600" width="800" x="0" y="0"/>
	<g id="grid" transform="translate(70, 30)">
		<g class="x-axis" id="x_axis">
			<path class="x-axis-path" d="M 0 525 L 660 525"/>
			<path class="x-notch-left" d="M 0 525, L 0 535"/>
			<path class="x-notch-right" d="M 660 525, L 660 535"/>
		</g>
		<g class="y-axis" id="y_axis">
			<path class="y-axis-path" d="M 0 525 L 0 0"/>
			<path class="y-axis-path-2" d="M 660 525 L 660 0"/>
			<path class="y-gridline" d="M 0 525 L 660 525"/>
			<text class="y-axis-label" x="-5" y="525">
				-50
			</text>
			<path class="y-gridline" d="M 0 438 L 660 438"/>
			<text class="y-axis-label" x="-5" y="438">
				 0
			</text>
			<path class="y-gridline" d="M 0 351 L 660 351"/>
			<text class="y-axis-label" x="-5" y="351">
				50
			</text>
			<path class="y-gridline" d="M 0 264 L 660 264"/>
			<text class="y-axis-label" x="-5" y="264">
				100
			</text>
			<path class="y-gridline" d="M 0 177 L 660 177"/>
			<text class="y-axis-label" x="-5" y="177">
				150
			</text>
			<path class="y-gridline" d="M 0 90 L 660 90"/>
			<text class="y-axis-label" x="-5" y="90">
				200
			</text>
			<path class="y-gridline" d="M 0 3 L 660 3"/>
			<text class="y-axis-label" x="-5" y="3">
				250
			</text>
		</g>
		<g>
			<path class="series-1-line" d="M 40 434.82572 L 43 427.433431544 L 47 465.047643087 L 51 428.219654631 L 55 431.641666174 L 59 446.012377718 L 63 462.267489262 L 67 433.740800805 L 71 436.265412349 L 75 422.366623893 L 79 422.109435436 L 83 448.32624698 L 87 447.260558523 L 90 425.465070067 L 94 433.508481611 L 98 450.840893154 L 102 383.859004698 L 106 391.857616242 L 110 413.811427785 L 114 383.041239329 L 118 349.668450872 L 122 441.667062416 L 126 447.19817396 L 130 424.100685503 L 134 367.529197047 L 137 391.143408591 L 141 381.777120134 L 145 390.987431678 L 149 359.947743221 L 153 340.485354765 L 157 340.541766309 L 161 333.508577852 L 165 323.244189396 L 169 316.34610094 L 173 344.851212483 L 177 276.971924027 L 181 269.44523557 L 185 284.488647114 L 188 315.506758658 L 192 276.749570201 L 196 228.703381745 L 200 226.067593289 L 204 229.983104832 L 208 228.289516376 L 212 154.756327919 L 216 256.178339463 L 220 207.593851007 L 224 186.83016255 L 228 230.770974094 L 232 213.192985638 L 235 207.820197181 L 239 189.703908725 L 243 180.785620268 L 247 257.438131812 L 251 198.623143356 L 255 136.801654899 L 259 141.569766443 L 263 159.530077987 L 267 233.17608953 L 271 141.155901074 L 275 95.5331126174 L 279 147.192124161 L 282 66.5245357047 L 286 88.7471472483 L 290 139.374358792 L 294 99.7197703356 L 298 147.206081879 L 302 105.665693423 L 306 108.055904966 L 310 175.01621651 L 314 42.4765280537 L 318 73.8537395973 L 322 129.551051141 L 326 62.0756626846 L 330 98.1645742282 L 333 164.361885772 L 337 87.4189973154 L 341 101.609808859 L 345 106.916220403 L 349 115.677831946 L 353 65.0745434899 L 357 148.054355034 L 361 111.629566577 L 365 159.923678121 L 369 165.185289664 L 373 110.543001208 L 377 229.150712752 L 380 170.784424295 L 384 191.840835839 L 388 245.384947383 L 392 227.043958926 L 396 245.36337047 L 400 240.214582013 L 404 197.643093557 L 408 211.833905101 L 412 264.839016644 L 416 323.812328188 L 420 296.811639732 L 424 362.605051275 L 427 328.738762819 L 431 357.243874362 L 435 336.839285906 L 439 333.88919745 L 443 339.330708993 L 447 390.181920537 L 451 367.802632081 L 455 408.557743624 L 459 432.306355168 L 463 406.562166711 L 467 403.522478255 L 471 403.713289799 L 475 441.552201342 L 478 438.467712886 L 482 459.52412443 L 486 430.997435973 L 490 420.823347517 L 494 370.17455906 L 498 427.308270604 L 502 430.954282148 L 506 421.543193691 L 510 466.247005235 L 514 434.175516779 L 518 433.738428322 L 522 445.730539866 L 525 422.544151409 L 529 453.382362953 L 533 417.003074497 L 537 442.14328604 L 541 415.097097584 L 545 419.999609128 L 549 456.626820671 L 553 449.548832215 L 557 451.131243758 L 561 421.975955302 L 565 446.308366846 L 569 463.101778389 L 572 448.215989933 L 576 426.734101477 L 580 437.02171302 L 584 463.956024564 L 588 466.884536107 L 592 395.011747651 L 596 444.292859195 L 600 465.079770738 L 604 419.456982282 L 608 448.769893826 L 612 434.288005369 L 616 453.998316913 L 620 431.484628456"/>
			<path class="series-2-line" d="M 40 445.2 L 43 432.813758389 L 47 429.177516779 L 51 436.041275168 L 55 442.905033557 L 59 448.018791946 L 63 432.132550336 L 67 440.746308725 L 71 451.110067114 L 75 429.973825503 L 79 464.837583893 L 83 464.701342282 L 87 420.815100671 L 90 471.42885906 L 94 439.79261745 L 98 460.656375839 L 102 462.270134228 L 106 437.633892617 L 110 419.997651007 L 114 437.361409396 L 118 451.225167785 L 122 426.588926174 L 126 445.702684564 L 130 426.316442953 L 134 441.930201342 L 137 438.293959732 L 141 460.907718121 L 145 452.02147651 L 149 443.135234899 L 153 470.998993289 L 157 456.862751678 L 161 456.726510067 L 165 414.590268456 L 169 461.704026846 L 173 445.817785235 L 177 450.931543624 L 181 459.545302013 L 185 427.909060403 L 188 429.522818792 L 192 464.386577181 L 196 446.75033557 L 200 443.11409396 L 204 441.227852349 L 208 427.091610738 L 212 426.955369128 L 216 433.819127517 L 220 431.932885906 L 224 458.046644295 L 228 422.910402685 L 232 429.774161074 L 235 443.637919463 L 239 466.251677852 L 243 418.865436242 L 247 399.479194631 L 251 423.84295302 L 255 439.456711409 L 259 441.070469799 L 263 432.184228188 L 267 404.047986577 L 271 421.411744966 L 275 435.275503356 L 279 424.639261745 L 282 445.503020134 L 286 385.866778523 L 290 399.730536913 L 294 438.094295302 L 298 464.208053691 L 302 387.071812081 L 306 418.43557047 L 310 409.549328859 L 314 400.663087248 L 318 414.526845638 L 322 388.140604027 L 326 398.504362416 L 330 428.118120805 L 333 401.731879195 L 337 455.845637584 L 341 420.709395973 L 345 406.573154362 L 349 399.436912752 L 353 439.550671141 L 357 456.91442953 L 361 400.778187919 L 365 437.391946309 L 369 430.255704698 L 373 417.869463087 L 377 405.483221477 L 380 428.096979866 L 384 413.960738255 L 388 450.574496644 L 392 439.938255034 L 396 443.302013423 L 400 422.165771812 L 404 437.779530201 L 408 402.643288591 L 412 386.75704698 L 416 395.370805369 L 420 438.984563758 L 424 407.348322148 L 427 429.962080537 L 431 414.075838926 L 435 452.439597315 L 439 429.553355705 L 443 462.667114094 L 447 441.530872483 L 451 446.644630872 L 455 430.758389262 L 459 406.122147651 L 463 458.48590604 L 467 449.59966443 L 471 414.463422819 L 475 444.077181208 L 478 442.190939597 L 482 428.054697987 L 486 436.668456376 L 490 448.782214765 L 494 427.645973154 L 498 450.259731544 L 502 422.123489933 L 506 451.737248322 L 510 434.101006711 L 514 449.714765101 L 518 444.32852349 L 522 410.942281879 L 525 473.806040268 L 529 435.169798658 L 533 440.283557047 L 537 471.647315436 L 541 454.011073826 L 545 434.624832215 L 549 448.488590604 L 553 455.352348993 L 557 476.216107383 L 561 446.329865772 L 565 467.193624161 L 569 435.55738255 L 572 431.92114094 L 576 433.534899329 L 580 461.398657718 L 584 417.512416107 L 588 433.126174497 L 592 446.989932886 L 596 466.103691275 L 600 425.717449664 L 604 439.581208054 L 608 434.194966443 L 612 435.808724832 L 616 426.922483221 L 620 453.036241611"/>
		</g>
		<text class="x-axis-label" x="40.0" y="540">
			0
		</text>
		<path class="x-notch" d="M 59.5945945946 525 L 59.5945945946 530"/>
		<text class="x-axis-label" x="79.1891891892" y="540">
			10
		</text>
		<path class="x-notch" d="M 98.7837837838 525 L 98.7837837838 530"/>
		<text class="x-axis-label" x="118.378378378" y="540">
			20
		</text>
		<path class="x-notch" d="M 137.972972973 525 L 137.972972973 530"/>
		<text class="x-axis-label" x="157.567567568" y="540">
			30
		</text>
		<path class="x-notch" d="M 177.162162162 525 L 177.162162162 530"/>
		<text class="x-axis-label" x="196.756756757" y="540">
			40
		</text>
		<path class="x-notch" d="M 216.351351351 525 L 216.351351351 530"/>
		<text class="x-axis-label" x="235.945945946" y="540">
			50
		</text>
		<path class="x-notch" d="M 255.540540541 525 L 255.540540541 530"/>
		<text class="x-axis-label" x="275.135135135" y="540">
			60
		</text>
		<path class="x-notch" d="M 294.72972973 525 L 294.72972973 530"/>
		<text class="x-axis-label" x="314.324324324" y="540">
			70
		</text>
		<path class="x-notch" d="M 333.918918919 525 L 333.918918919 530"/>
		<text class="x-axis-label" x="353.513513514" y="540">
			80
		</text>
		<path class="x-notch" d="M 373.108108108 525 L 373.108108108 530"/>
		<text class="x-axis-label" x="392.702702703" y="540">
			90
		</text>
		<path class="x-notch" d="M 412.297297297 525 L 412.297297297 530"/>
		<text class="x-axis-label" x="431.891891892" y="540">
			100
		</text>
		<path class="x-notch" d="M 451.486486486 525 L 451.486486486 530"/>
		<text class="x-axis-label" x="471.081081081" y="540">
			110
		</text>
		<path class="x-notch" d="M 490.675675676 525 L 490.675675676 530"/>
		<text class="x-axis-label" x="510.27027027" y="540">
			120
		</text>
		<path class="x-notch" d="M 529.864864865 525 L 529.864864865 530"/>
		<text class="x-axis-label" x="549.459459459" y="540">
			130
		</text>
		<path class="x-notch" d="M 569.054054054 525 L 569.054054054 530"/>
		<text class="x-axis-label" x="588.648648649" y="540">
			140
		</text>
		<path class="x-notch" d="M 608.243243243 525 L 608.243243243 530"/>
	</g>
</svg>
