<?xml version="1.0" ?>
<svg height="600" version="1.1" width="800" xmlns="http://www.w3.org/2000/svg" xmlns:svg="http://www.w3.org/2000/svg">
	<style type="text/css">
		

.x-axis-path, .y-gridline, .x-notch { fill:none; stroke: #a7a9ac; stroke-width:1; }



.y-gridline { stroke-width: 1; }

.y-axis-path, .y-axis-path2, .x-notch-left, .x-notch-right { display: none;}



.x-axis-label, .data-point-label {font-size: 12px; font-weight:normal; font-family: sans-serif; fill: #58595b; text-anchor:middle;}

.y-axis-label {font-size: 12px; font-family: helvetica; fill: #a7a9ac; text-anchor:end;}



.series-1-line { fill: none; stroke: #10b80c; stroke-width:2; }



.series-2-line { fill: none; stroke: #e90f0a; stroke-width: 2;}

	</style>
	<rect fill="white" height="600" width="800" x="0" y="0"/>
	<g id="grid" transform="translate(70, 30)">
		<g class="x-axis" id="x_axis">
			<path class="x-axis-path" d="M 0 525 L 660 525"/>
			<path class="x-notch-left" d="M 0 525, L 0 535"/>
			<path class="x-notch-right" d="M 660 525, L 660 535"/>
		</g>
		<g class="y-axis" id="y_axis">
			<path class="y-axis-path" d="M 0 525 L 0 0"/>
			<path class="y-axis-path-2" d="M 660 525 L 660 0"/>
			<path class="y-gridline" d="M 0 525 L 660 525"/>
			<text class="y-axis-label" x="-5" y="525">
				-200
			</text>
			<path class="y-gridline" d="M 0 394 L 660 394"/>
			<text class="y-axis-label" x="-5" y="394">
				 0
			</text>
			<path class="y-gridline" d="M 0 263 L 660 263"/>
			<text class="y-axis-label" x="-5" y="263">
				200
			</text>
			<path class="y-gridline" d="M 0 132 L 660 132"/>
			<text class="y-axis-label" x="-5" y="132">
				400
			</text>
			<path class="y-gridline" d="M 0 1 L 660 1"/>
			<text class="y-axis-label" x="-5" y="1">
				600
			</text>
		</g>
		<g>
			<path class="series-1-line" d="M 40 415.36278 L 46 409.183316172 L 52 381.029977344 L 58 372.159101016 L 64 391.322437187 L 70 393.305935859 L 76 381.069284531 L 82 405.634083203 L 88 381.636119375 L 94 389.709618047 L 101 408.384179219 L 107 378.480227891 L 113 379.740014062 L 119 417.933812734 L 125 375.005661406 L 131 418.584647578 L 137 391.87794625 L 143 384.066519922 L 149 389.818468594 L 156 312.916779766 L 162 348.772228438 L 168 326.137164609 L 174 316.930025781 L 180 316.270674453 L 186 278.895185625 L 192 265.800946797 L 198 282.120095469 L 204 283.159906641 L 210 217.582467812 L 217 224.949841484 L 223 156.057290156 L 229 183.802013828 L 235 137.0198375 L 241 147.702061172 L 247 119.951659844 L 253 117.558758516 L 259 220.755432187 L 265 160.074405859 L 272 166.717542031 L 278 126.852503203 L 284 140.984501875 L 290 156.209025547 L 296 102.511811719 L 302 161.840535391 L 308 178.546609063 L 314 192.779145234 L 320 201.912618906 L 326 168.222367578 L 333 182.47065375 L 339 205.992802422 L 345 216.389163594 L 351 263.047274766 L 357 215.020060938 L 363 197.567534609 L 369 238.016470781 L 375 353.833094453 L 381 303.804055625 L 388 261.868941797 L 394 264.692177969 L 400 299.167926641 L 406 314.780162813 L 412 361.960648984 L 418 338.669597656 L 424 353.726383828 L 430 316.8724825 L 436 346.098493672 L 442 373.489104844 L 449 332.311041016 L 455 304.022252188 L 461 335.452475859 L 467 346.824549531 L 473 370.329373203 L 479 361.374496875 L 485 361.556983047 L 491 382.773069219 L 497 355.763180391 L 504 390.272791563 L 510 383.471990234 L 516 394.743001406 L 522 422.605587578 L 528 420.09534875 L 534 360.357484922 L 540 394.798846094 L 546 395.351982266 L 552 377.865855937 L 558 408.387567109 L 565 388.310303281 L 571 381.020989453 L 577 407.722800625 L 583 381.637961797 L 589 372.211635469 L 595 384.761809141 L 601 406.768807812 L 607 402.660206484 L 613 396.666855156 L 620 377.430903828"/>
			<path class="series-2-line" d="M 40 421.05 L 46 312.975195312 L 52 408.337890625 L 58 387.544335938 L 64 421.21953125 L 70 498.863476563 L 76 440.007421875 L 82 475.651367188 L 88 485.7015625 L 94 432.095507812 L 101 388.333203125 L 107 423.977148438 L 113 486.52734375 L 119 443.421289062 L 125 463.315234375 L 131 475.990429688 L 137 524.759375 L 143 440.965820312 L 149 442.484765625 L 156 464.347460937 L 162 478.99140625 L 168 481.166601562 L 174 487.279296875 L 180 465.173242188 L 186 463.4109375 L 192 461.648632813 L 198 452.667578125 L 204 395.780273438 L 210 391.39296875 L 217 396.849414063 L 223 372.118359375 L 229 372.324804687 L 235 327.90625 L 241 328.112695313 L 247 334.881640625 L 253 276.025585937 L 259 278.85703125 L 265 252.813476562 L 272 191.988671875 L 278 271.601367187 L 284 296.7453125 L 290 202.451757813 L 296 238.751953125 L 302 225.833398437 L 308 207.66484375 L 314 191.465039063 L 320 126.046484375 L 326 138.065429688 L 333 16.865625 L 339 112.884570312 L 345 132.122265625 L 351 125.109960937 L 357 95.78515625 L 363 82.8666015625 L 369 71.916796875 L 375 51.1232421875 L 381 78.2359375 L 388 122.411132812 L 394 43.211328125 L 400 68.3552734375 L 406 41.65546875 L 412 106.830664062 L 418 134.599609375 L 424 92.1498046875 L 430 85.79375 L 436 136.531445313 L 442 63.894140625 L 449 92.3193359375 L 455 106.30703125 L 461 145.888476562 L 467 140.844921875 L 473 188.301367188 L 479 180.6328125 L 485 206.433007812 L 491 226.983203125 L 497 246.220898438 L 504 291.70859375 L 510 306.352539062 L 516 291.465234375 L 522 298.890429688 L 528 284.003125 L 534 341.303320312 L 540 294.916015625 L 546 365.341210938 L 552 357.67265625 L 558 411.035351562 L 565 423.710546875 L 571 386.510742188 L 577 421.4984375 L 583 398.736132812 L 589 362.192578125 L 595 378.149023437 L 601 403.29296875 L 607 407.436914062 L 613 398.455859375 L 620 407.849804687"/>
		</g>
		<text class="x-axis-label" x="40.0" y="540">
			0
		</text>
		<path class="x-notch" d="M 70.5263157895 525 L 70.5263157895 530"/>
		<text class="x-axis-label" x="101.052631579" y="540">
			10
		</text>
		<path class="x-notch" d="M 131.578947368 525 L 131.578947368 530"/>
		<text class="x-axis-label" x="162.105263158" y="540">
			20
		</text>
		<path class="x-notch" d="M 192.631578947 525 L 192.631578947 530"/>
		<text class="x-axis-label" x="223.157894737" y="540">
			30
		</text>
		<path class="x-notch" d="M 253.684210526 525 L 253.684210526 530"/>
		<text class="x-axis-label" x="284.210526316" y="540">
			40
		</text>
		<path class="x-notch" d="M 314.736842105 525 L 314.736842105 530"/>
		<text class="x-axis-label" x="345.263157895" y="540">
			50
		</text>
		<path class="x-notch" d="M 375.789473684 525 L 375.789473684 530"/>
		<text class="x-axis-label" x="406.315789474" y="540">
			60
		</text>
		<path class="x-notch" d="M 436.842105263 525 L 436.842105263 530"/>
		<text class="x-axis-label" x="467.368421053" y="540">
			70
		</text>
		<path class="x-notch" d="M 497.894736842 525 L 497.894736842 530"/>
		<text class="x-axis-label" x="528.421052632" y="540">
			80
		</text>
		<path class="x-notch" d="M 558.947368421 525 L 558.947368421 530"/>
		<text class="x-axis-label" x="589.473684211" y="540">
			90
		</text>
		<path class="x-notch" d="M 620.0 525 L 620.0 530"/>
	</g>
</svg>
