<?xml version="1.0" ?>
<svg height="600" version="1.1" width="800" xmlns="http://www.w3.org/2000/svg" xmlns:svg="http://www.w3.org/2000/svg">
	<style type="text/css">

.x-axis-path, .y-gridline, .x-notch { fill:none; stroke: #a7a9ac; stroke-width:1; }



.y-gridline { stroke-width: 1; }

.y-axis-path, .y-axis-path2, .x-notch-left, .x-notch-right { display: none;}



.x-axis-label, .data-point-label {font-size: 12px; font-weight:normal; font-family: sans-serif; fill: #58595b; text-anchor:middle;}

.y-axis-label {font-size: 12px; font-family: helvetica; fill: #a7a9ac; text-anchor:end;}



.series-1-line { fill: none; stroke: #10b80c; stroke-width:2; }



.series-2-line { fill: none; stroke: #e90f0a; stroke-width: 2;}
</style>
	<rect fill="white" height="600" width="800" x="0" y="0"/>
	<g id="grid" transform="translate(70, 30)">
		<g class="x-axis" id="x_axis">
			<path class="x-axis-path" d="M 0 525 L 660 525"/>
			<path class="x-notch-left" d="M 0 525, L 0 535"/>
			<path class="x-notch-right" d="M 660 525, L 660 535"/>
		</g>
		<g class="y-axis" id="y_axis">
			<path class="y-axis-path" d="M 0 525 L 0 0"/>
			<path class="y-axis-path-2" d="M 660 525 L 660 0"/>
			<path class="y-gridline" d="M 0 525 L 660 525"/>
			<text class="y-axis-label" x="-5" y="525">-200</text>
			<path class="y-gridline" d="M 0 420 L 660 420"/>
			<text class="y-axis-label" x="-5" y="420"> 0</text>
			<path class="y-gridline" d="M 0 315 L 660 315"/>
			<text class="y-axis-label" x="-5" y="315">200</text>
			<path class="y-gridline" d="M 0 210 L 660 210"/>
			<text class="y-axis-label" x="-5" y="210">400</text>
			<path class="y-gridline" d="M 0 105 L 660 105"/>
			<text class="y-axis-label" x="-5" y="105">600</text>
			<path class="y-gridline" d="M 0 0 L 660 0"/>
			<text class="y-axis-label" x="-5" y="0">800</text>
		</g>
		<g>
			<path class="series-1-line" d="M 40 429.133113829 L 43 424.046237748 L 46 412.00759532 L 50 409.736570154 L 53 424.420555662 L 57 415.020813447 L 60 416.530880694 L 64 403.428690822 L 67 409.841767081 L 71 412.158864696 L 74 415.953316343 L 78 437.844970862 L 81 428.976695163 L 85 386.611590292 L 88 380.401875995 L 92 428.267497238 L 95 401.321679855 L 99 379.102227988 L 102 401.741929308 L 106 417.765333318 L 109 396.845363162 L 113 408.201692429 L 116 393.976971546 L 120 375.735223982 L 123 349.478162627 L 127 390.25500361 L 130 395.38795214 L 134 348.887239042 L 137 351.854384719 L 141 344.010026879 L 144 335.181380764 L 148 334.308143255 L 151 336.625548077 L 155 346.54384569 L 158 297.876715327 L 162 323.923639263 L 165 318.737228413 L 169 298.782499756 L 172 278.020126319 L 176 324.231750036 L 179 248.250927241 L 183 270.812291011 L 186 297.075795233 L 190 280.586658346 L 193 309.96154573 L 197 239.967554991 L 200 262.488981971 L 204 261.281504249 L 207 271.25878543 L 211 274.44189698 L 214 269.21708537 L 218 255.484815832 L 221 235.766021443 L 225 237.334457845 L 228 207.907029761 L 232 265.994011644 L 235 197.457099335 L 239 199.538262683 L 242 219.421096655 L 246 207.894259553 L 249 186.048370278 L 253 195.198652695 L 256 162.266003256 L 260 185.437478298 L 263 187.852881858 L 267 161.595820503 L 270 189.868452477 L 274 194.057049522 L 277 105.0 L 281 160.368515296 L 284 115.265282648 L 288 224.828943854 L 291 206.684887823 L 295 143.150212089 L 298 208.307234661 L 302 165.921239777 L 305 247.856629527 L 309 216.952154618 L 312 246.563590681 L 316 242.323067347 L 319 250.902560871 L 323 273.444263452 L 326 242.027983216 L 330 274.081093191 L 333 219.05356818 L 336 281.768302429 L 340 283.120465752 L 343 201.585971472 L 347 272.70862888 L 350 277.763854273 L 354 271.376882069 L 357 276.529798994 L 361 341.114803848 L 364 338.92303785 L 368 282.220932506 L 371 327.290978435 L 375 294.77244279 L 378 318.613627083 L 382 366.223960074 L 385 351.369466731 L 389 368.751336019 L 392 342.869373286 L 396 387.210419191 L 399 360.560134055 L 403 393.814727002 L 406 394.399489542 L 410 422.238346533 L 413 391.787922207 L 417 401.371672401 L 420 415.287949919 L 424 389.208453677 L 427 410.332400206 L 431 410.030566003 L 434 393.245589663 L 438 386.268474583 L 441 400.735879805 L 445 355.042811487 L 448 401.964081245 L 452 405.895854008 L 455 407.976402943 L 459 378.529313669 L 462 408.790797795 L 466 382.573366024 L 469 391.054553602 L 473 398.274967435 L 476 388.796580464 L 480 403.263985687 L 483 411.981107533 L 487 409.178308646 L 490 388.691191855 L 494 374.092601175 L 497 387.438089799 L 501 369.570212033 L 504 398.551261224 L 508 374.657843436 L 511 384.162641667 L 515 401.210270743 L 518 391.613302225 L 522 393.930707047 L 525 397.567254769 L 529 402.976381563 L 532 383.414876687 L 536 390.852178011 L 539 384.642463714 L 543 417.345314545 L 546 391.935220347 L 550 407.387528257 L 553 413.820572911 L 557 390.320686109 L 560 392.736396876 L 564 408.680848924 L 567 420.096161757 L 571 400.33804499 L 574 361.044386491 L 578 394.988042673 L 581 406.4030483 L 585 392.809021497 L 588 428.288400864 L 592 397.344910782 L 595 412.482025256 L 599 406.193666203 L 602 412.173581891 L 606 409.646654062 L 609 431.676244111 L 613 415.364057926 L 616 428.039837299 L 620 416.257097533"/>
			<path class="series-2-line" d="M 40 384.978507062 L 43 419.009398364 L 46 429.23181859 L 50 443.294314796 L 53 418.188036005 L 57 436.090608191 L 60 459.369286749 L 64 455.767433446 L 67 432.965200243 L 71 420.147164588 L 74 446.497903931 L 78 435.215898668 L 81 430.078014973 L 85 468.716997452 L 88 468.187204933 L 92 388.551847225 L 95 417.974647351 L 99 458.917675418 L 102 420.755138295 L 106 426.369467344 L 109 444.27203953 L 113 459.102550932 L 116 450.892606454 L 120 470.331209032 L 123 452.137067005 L 127 430.102848998 L 130 397.316418246 L 134 422.131127197 L 137 427.745456246 L 141 412.623375004 L 144 431.293962386 L 148 406.95569879 L 151 424.09025578 L 155 393.607870617 L 158 396.918154079 L 162 396.38836156 L 165 325.969186204 L 169 373.056335839 L 172 396.335014397 L 176 335.132021393 L 179 346.122456815 L 183 350.200755473 L 186 345.830886974 L 190 361.429413572 L 193 350.915423505 L 197 386.4823452 L 200 336.799580136 L 204 364.68634987 L 207 324.987782355 L 211 266.856850135 L 214 292.439574281 L 218 297.285888135 L 221 307.508308361 L 225 261.665619277 L 228 258.831781171 L 232 262.142064632 L 235 280.044636818 L 239 304.091330573 L 242 276.681006193 L 246 266.935031323 L 249 249.508904492 L 253 219.026519329 L 256 223.872833182 L 260 192.622432823 L 263 164.444093248 L 267 146.249951221 L 270 187.960994484 L 274 242.728296079 L 277 226.83819964 L 281 144.898796343 L 284 101.360152848 L 288 101.598375525 L 291 45.7714888935 L 295 92.0906233322 L 298 130.729605811 L 302 52.6302784943 L 305 109.701625677 L 309 97.6516052186 L 312 110.178071032 L 316 101.968126554 L 319 100.670318839 L 323 107.820678281 L 326 115.739052919 L 330 106.761093244 L 333 143.864045331 L 336 144.102268008 L 340 132.05224755 L 343 110.786044739 L 347 27.31061105 L 350 96.6702013693 L 354 93.8363632628 L 357 87.9304643722 L 361 35.9436537205 L 364 97.6230920796 L 368 66.3726917204 L 371 63.5388536139 L 375 123.682261581 L 378 107.792165142 L 382 98.0461902714 L 385 128.237005594 L 389 101.594696411 L 392 174.79436271 L 396 135.863810391 L 399 179.110884045 L 403 192.405365055 L 406 240.260529886 L 410 229.746539819 L 413 326.754677195 L 417 318.544732717 L 420 323.39104657 L 424 337.453542776 L 427 356.124130158 L 431 362.506474404 L 434 334.328134829 L 438 393.7035276 L 441 372.437324789 L 445 421.060504816 L 448 428.978879453 L 452 403.872600662 L 455 368.014109127 L 459 368.252331805 L 462 399.211162323 L 466 404.825491373 L 469 418.887987578 L 473 389.941632807 L 476 420.13244813 L 480 398.866245319 L 483 376.064012116 L 487 383.214371557 L 490 363.484199138 L 494 383.690816913 L 497 417.721708215 L 501 408.74374854 L 504 399.765788866 L 508 432.260649776 L 511 406.386355789 L 515 431.969079935 L 518 420.687074672 L 522 437.821631662 L 525 428.843671988 L 529 442.906168194 L 532 428.552102147 L 536 425.71826404 L 539 425.188471522 L 543 404.690283907 L 546 404.160491388 L 550 409.006805242 L 553 413.0851039 L 557 414.091341773 L 560 415.865594843 L 564 403.815574384 L 567 409.429903434 L 571 425.796445228 L 574 404.530242417 L 578 400.160373918 L 581 375.822110323 L 585 419.069183978 L 588 384.746722835 L 592 408.793416589 L 595 402.887517698 L 599 414.645968316 L 602 399.523887073 L 606 423.570580827 L 609 420.736742721 L 613 408.686722262 L 616 427.357309644 L 620 427.595532322"/>
		</g>
		<text class="x-axis-label" x="40.0" y="540">0</text>
		<path class="x-notch" d="M 57.4698795181 525 L 57.4698795181 530"/>
		<text class="x-axis-label" x="74.9397590361" y="540">10</text>
		<path class="x-notch" d="M 92.4096385542 525 L 92.4096385542 530"/>
		<text class="x-axis-label" x="109.879518072" y="540">20</text>
		<path class="x-notch" d="M 127.34939759 525 L 127.34939759 530"/>
		<text class="x-axis-label" x="144.819277108" y="540">30</text>
		<path class="x-notch" d="M 162.289156627 525 L 162.289156627 530"/>
		<text class="x-axis-label" x="179.759036145" y="540">40</text>
		<path class="x-notch" d="M 197.228915663 525 L 197.228915663 530"/>
		<text class="x-axis-label" x="214.698795181" y="540">50</text>
		<path class="x-notch" d="M 232.168674699 525 L 232.168674699 530"/>
		<text class="x-axis-label" x="249.638554217" y="540">60</text>
		<path class="x-notch" d="M 267.108433735 525 L 267.108433735 530"/>
		<text class="x-axis-label" x="284.578313253" y="540">70</text>
		<path class="x-notch" d="M 302.048192771 525 L 302.048192771 530"/>
		<text class="x-axis-label" x="319.518072289" y="540">80</text>
		<path class="x-notch" d="M 336.987951807 525 L 336.987951807 530"/>
		<text class="x-axis-label" x="354.457831325" y="540">90</text>
		<path class="x-notch" d="M 371.927710843 525 L 371.927710843 530"/>
		<text class="x-axis-label" x="389.397590361" y="540">100</text>
		<path class="x-notch" d="M 406.86746988 525 L 406.86746988 530"/>
		<text class="x-axis-label" x="424.337349398" y="540">110</text>
		<path class="x-notch" d="M 441.807228916 525 L 441.807228916 530"/>
		<text class="x-axis-label" x="459.277108434" y="540">120</text>
		<path class="x-notch" d="M 476.746987952 525 L 476.746987952 530"/>
		<text class="x-axis-label" x="494.21686747" y="540">130</text>
		<path class="x-notch" d="M 511.686746988 525 L 511.686746988 530"/>
		<text class="x-axis-label" x="529.156626506" y="540">140</text>
		<path class="x-notch" d="M 546.626506024 525 L 546.626506024 530"/>
		<text class="x-axis-label" x="564.096385542" y="540">150</text>
		<path class="x-notch" d="M 581.56626506 525 L 581.56626506 530"/>
		<text class="x-axis-label" x="599.036144578" y="540">160</text>
		<path class="x-notch" d="M 616.506024096 525 L 616.506024096 530"/>
	</g>
</svg>
