<?xml version="1.0" ?>
<svg height="600" version="1.1" width="800" xmlns="http://www.w3.org/2000/svg" xmlns:svg="http://www.w3.org/2000/svg">
	<style type="text/css">
		

.x-axis-path, .y-gridline, .x-notch { fill:none; stroke: #a7a9ac; stroke-width:1; }



.y-gridline { stroke-width: 1; }

.y-axis-path, .y-axis-path2, .x-notch-left, .x-notch-right { display: none;}



.x-axis-label, .data-point-label {font-size: 12px; font-weight:normal; font-family: sans-serif; fill: #58595b; text-anchor:middle;}

.y-axis-label {font-size: 12px; font-family: helvetica; fill: #a7a9ac; text-anchor:end;}



.series-1-line { fill: none; stroke: #10b80c; stroke-width:2; }



.series-2-line { fill: none; stroke: #e90f0a; stroke-width: 2;}

	</style>
	<rect fill="white" height="600" width="800" x="0" y="0"/>
	<g id="grid" transform="translate(70, 30)">
		<g class="x-axis" id="x_axis">
			<path class="x-axis-path" d="M 0 525 L 660 525"/>
			<path class="x-notch-left" d="M 0 525, L 0 535"/>
			<path class="x-notch-right" d="M 660 525, L 660 535"/>
		</g>
		<g class="y-axis" id="y_axis">
			<path class="y-axis-path" d="M 0 525 L 0 0"/>
			<path class="y-axis-path-2" d="M 660 525 L 660 0"/>
			<path class="y-gridline" d="M 0 525 L 660 525"/>
			<text class="y-axis-label" x="-5" y="525">
				-250
			</text>
			<path class="y-gridline" d="M 0 420 L 660 420"/>
			<text class="y-axis-label" x="-5" y="420">
				 0
			</text>
			<path class="y-gridline" d="M 0 315 L 660 315"/>
			<text class="y-axis-label" x="-5" y="315">
				250
			</text>
			<path class="y-gridline" d="M 0 210 L 660 210"/>
			<text class="y-axis-label" x="-5" y="210">
				500
			</text>
			<path class="y-gridline" d="M 0 105 L 660 105"/>
			<text class="y-axis-label" x="-5" y="105">
				750
			</text>
			<path class="y-gridline" d="M 0 0 L 660 0"/>
			<text class="y-axis-label" x="-5" y="0">
				1000
			</text>
		</g>
		<g>
			<path class="series-1-line" d="M 40 430.98714919 L 45 403.747676749 L 50 428.040975147 L 55 437.805026992 L 60 401.404957924 L 65 443.194960793 L 70 411.81760721 L 75 425.165436956 L 80 434.735119957 L 85 415.606979838 L 90 422.387668732 L 95 437.369974394 L 100 394.222663379 L 105 397.359930502 L 110 411.502076248 L 115 417.938000188 L 120 424.793302393 L 125 413.761759053 L 130 432.478004828 L 135 395.553069711 L 140 402.303819721 L 145 379.352156736 L 150 375.382915311 L 155 333.330010823 L 160 326.826489698 L 165 376.563161031 L 170 322.275544725 L 175 338.757133531 L 180 326.556102558 L 185 292.104633784 L 190 236.077755471 L 195 257.866946949 L 200 239.503417845 L 205 240.406495795 L 210 229.479738546 L 215 222.451585269 L 220 238.812950747 L 225 227.211399134 L 230 171.559692454 L 235 245.150870824 L 240 189.873634083 L 245 253.569543696 L 250 237.245601023 L 255 260.549278986 L 260 229.156955961 L 265 282.417059633 L 270 205.024343965 L 275 309.322525207 L 280 247.492649261 L 285 294.246425438 L 290 231.666674022 L 295 240.696755428 L 300 252.934507514 L 305 168.0 L 310 293.738164114 L 315 243.229162349 L 320 296.460730523 L 325 337.934971731 L 330 331.92567608 L 335 362.185700379 L 340 408.610382736 L 345 372.207974693 L 350 390.444028846 L 355 374.420176699 L 360 400.677044832 L 365 399.451889188 L 370 379.349799769 L 375 381.287874274 L 380 402.672189134 L 385 403.724961501 L 390 422.320282255 L 395 392.397771287 L 400 400.063996216 L 405 439.305919432 L 410 377.086838001 L 415 404.677857625 L 420 405.956575003 L 425 371.775023974 L 430 411.405918776 L 435 406.176671376 L 440 401.098053983 L 445 420.338230217 L 450 347.129941298 L 455 397.166001465 L 460 389.448084382 L 465 411.416909161 L 470 357.144963989 L 475 392.217663794 L 480 351.529083578 L 485 328.832836692 L 490 383.652569071 L 495 341.73509125 L 500 345.022052791 L 505 352.252526628 L 510 333.57440535 L 515 372.890707979 L 520 371.739931749 L 525 378.055866258 L 530 366.349528553 L 535 355.573167413 L 540 384.978764048 L 545 360.333449074 L 550 374.491032057 L 555 372.665461462 L 560 396.134037181 L 565 388.700539491 L 570 407.566245786 L 575 396.20514083 L 580 396.343373868 L 585 408.386991007 L 590 440.95581779 L 595 416.056022307 L 600 406.073977167 L 605 414.203786995 L 610 428.736073815 L 615 437.870707416 L 620 410.136775604"/>
			<path class="series-2-line" d="M 40 416.374588339 L 45 409.253708087 L 50 436.047969181 L 55 403.198361011 L 60 434.08582882 L 65 399.481989201 L 70 422.183043581 L 75 423.248576757 L 80 443.610655872 L 85 425.37964311 L 90 424.690944837 L 95 444.468280136 L 100 456.059202006 L 105 453.616272284 L 110 421.936151747 L 115 429.433866903 L 120 394.245283468 L 125 390.048122298 L 130 465.960863962 L 135 487.492430709 L 140 491.481682967 L 145 453.954124267 L 150 488.350054973 L 155 488.830844333 L 160 485.218426979 L 165 465.233182768 L 170 458.697046333 L 175 472.626943468 L 180 468.429782297 L 185 446.105562821 L 190 437.230451121 L 195 444.14342246 L 200 420.649715351 L 205 401.833958773 L 210 381.263970746 L 215 391.100661167 L 220 378.132342752 L 225 348.791197481 L 230 372.661739493 L 235 348.583288568 L 240 336.784457786 L 245 351.299098737 L 250 374.584896933 L 255 396.116463681 L 260 421.156493326 L 265 398.83227385 L 270 370.660616211 L 275 391.022695325 L 280 329.520640156 L 285 387.306323515 L 290 305.922978592 L 295 342.073140747 L 300 288.17275519 L 305 250.64519649 L 310 210.193918708 L 315 229.971254007 L 320 349.155038077 L 325 226.839626013 L 330 168.846033742 L 335 131.318475042 L 340 263.366623071 L 345 66.2040025191 L 350 102.93890849 L 355 147.86022789 L 360 119.103826435 L 365 181.567460323 L 370 224.149804458 L 375 249.189834103 L 380 250.840111095 L 385 208.634601865 L 390 189.234101471 L 395 258.714661155 L 400 348.076510594 L 405 391.828342361 L 410 391.139644088 L 415 336.654514715 L 420 396.194429523 L 425 377.378672945 L 430 337.512138979 L 435 317.526894769 L 440 365.37193325 L 445 359.42054063 L 450 454.045084416 L 455 387.280334901 L 460 390.684843342 L 465 369.530111499 L 470 429.070026306 L 475 370.491690219 L 480 363.370809967 L 485 377.300707102 L 490 385.383166075 L 495 433.228204556 L 500 407.395522182 L 505 404.95259246 L 510 407.772357086 L 515 394.219294854 L 520 399.378034745 L 525 402.782543186 L 530 389.814224771 L 535 414.2695106 L 540 396.038497838 L 545 417.570064586 L 550 429.160986456 L 555 425.548569101 L 560 444.156416767 L 565 403.120395169 L 570 432.838375345 L 575 457.293661173 L 580 420.935590106 L 585 443.05190067 L 590 387.397283664 L 595 448.69142992 L 600 440.401062036 L 605 411.64466058 L 610 410.371218491 L 615 407.343544954 L 620 431.798830782"/>
		</g>
		<text class="x-axis-label" x="40.0" y="540">
			0
		</text>
		<path class="x-notch" d="M 65.0 525 L 65.0 530"/>
		<text class="x-axis-label" x="90.0" y="540">
			10
		</text>
		<path class="x-notch" d="M 115.0 525 L 115.0 530"/>
		<text class="x-axis-label" x="140.0" y="540">
			20
		</text>
		<path class="x-notch" d="M 165.0 525 L 165.0 530"/>
		<text class="x-axis-label" x="190.0" y="540">
			30
		</text>
		<path class="x-notch" d="M 215.0 525 L 215.0 530"/>
		<text class="x-axis-label" x="240.0" y="540">
			40
		</text>
		<path class="x-notch" d="M 265.0 525 L 265.0 530"/>
		<text class="x-axis-label" x="290.0" y="540">
			50
		</text>
		<path class="x-notch" d="M 315.0 525 L 315.0 530"/>
		<text class="x-axis-label" x="340.0" y="540">
			60
		</text>
		<path class="x-notch" d="M 365.0 525 L 365.0 530"/>
		<text class="x-axis-label" x="390.0" y="540">
			70
		</text>
		<path class="x-notch" d="M 415.0 525 L 415.0 530"/>
		<text class="x-axis-label" x="440.0" y="540">
			80
		</text>
		<path class="x-notch" d="M 465.0 525 L 465.0 530"/>
		<text class="x-axis-label" x="490.0" y="540">
			90
		</text>
		<path class="x-notch" d="M 515.0 525 L 515.0 530"/>
		<text class="x-axis-label" x="540.0" y="540">
			100
		</text>
		<path class="x-notch" d="M 565.0 525 L 565.0 530"/>
		<text class="x-axis-label" x="590.0" y="540">
			110
		</text>
		<path class="x-notch" d="M 615.0 525 L 615.0 530"/>
	</g>
</svg>
