<?xml version="1.0" ?>
<svg height="600" version="1.1" width="800" xmlns="http://www.w3.org/2000/svg" xmlns:svg="http://www.w3.org/2000/svg">
	<style type="text/css">
		

.x-axis-path, .y-gridline, .x-notch { fill:none; stroke: #a7a9ac; stroke-width:1; }



.y-gridline { stroke-width: 1; }

.y-axis-path, .y-axis-path2, .x-notch-left, .x-notch-right { display: none;}



.x-axis-label, .data-point-label {font-size: 12px; font-weight:normal; font-family: sans-serif; fill: #58595b; text-anchor:middle;}

.y-axis-label {font-size: 12px; font-family: helvetica; fill: #a7a9ac; text-anchor:end;}



.series-1-line { fill: none; stroke: #10b80c; stroke-width:2; }



.series-2-line { fill: none; stroke: #e90f0a; stroke-width: 2;}

	</style>
	<rect fill="white" height="600" width="800" x="0" y="0"/>
	<g id="grid" transform="translate(70, 30)">
		<g class="x-axis" id="x_axis">
			<path class="x-axis-path" d="M 0 525 L 660 525"/>
			<path class="x-notch-left" d="M 0 525, L 0 535"/>
			<path class="x-notch-right" d="M 660 525, L 660 535"/>
		</g>
		<g class="y-axis" id="y_axis">
			<path class="y-axis-path" d="M 0 525 L 0 0"/>
			<path class="y-axis-path-2" d="M 660 525 L 660 0"/>
			<path class="y-gridline" d="M 0 525 L 660 525"/>
			<text class="y-axis-label" x="-5" y="525">
				-100
			</text>
			<path class="y-gridline" d="M 0 420 L 660 420"/>
			<text class="y-axis-label" x="-5" y="420">
				 0
			</text>
			<path class="y-gridline" d="M 0 315 L 660 315"/>
			<text class="y-axis-label" x="-5" y="315">
				100
			</text>
			<path class="y-gridline" d="M 0 210 L 660 210"/>
			<text class="y-axis-label" x="-5" y="210">
				200
			</text>
			<path class="y-gridline" d="M 0 105 L 660 105"/>
			<text class="y-axis-label" x="-5" y="105">
				300
			</text>
			<path class="y-gridline" d="M 0 0 L 660 0"/>
			<text class="y-axis-label" x="-5" y="0">
				400
			</text>
		</g>
		<g>
			<path class="series-1-line" d="M 40 398.09532 L 45 421.467025189 L 50 440.127170378 L 55 406.179795568 L 61 436.847740757 L 66 391.969445946 L 71 435.910231135 L 76 431.793356324 L 82 442.915341514 L 87 455.705986703 L 92 418.931591892 L 98 404.987977081 L 103 430.13670227 L 108 393.012027459 L 113 420.503092649 L 119 384.482597838 L 124 407.611963027 L 129 414.775868216 L 134 438.309273405 L 140 417.661618595 L 145 431.367863784 L 150 403.505028973 L 156 386.518934162 L 161 397.398579351 L 166 363.962344541 L 171 395.41106973 L 177 363.617454919 L 182 399.185120108 L 187 438.306825297 L 192 406.243990486 L 198 437.719595676 L 203 425.902860865 L 208 429.916766054 L 214 416.430951243 L 219 403.240816432 L 224 361.000961622 L 229 376.968906811 L 235 335.806352 L 240 282.393237189 L 245 320.626642378 L 250 318.044447568 L 256 253.027572757 L 261 247.780057946 L 266 238.143963135 L 272 203.873188324 L 277 116.860493514 L 282 182.259078703 L 287 155.446243892 L 293 172.383549081 L 298 165.54717427 L 303 77.7536994595 L 308 125.059944649 L 314 195.950869838 L 319 101.480235027 L 324 135.297760216 L 330 121.192865405 L 335 141.683790595 L 340 122.570395784 L 345 177.146420973 L 351 22.8795461622 L 356 198.770471351 L 361 151.845516541 L 366 163.96374173 L 372 126.677786919 L 377 89.3111921081 L 382 115.348217297 L 388 162.277302486 L 393 130.322407676 L 398 145.751492865 L 403 198.442558054 L 409 195.133343243 L 414 193.789308432 L 419 218.911153622 L 424 211.536758811 L 430 268.912504 L 435 252.384209189 L 440 273.494634378 L 446 255.593359568 L 451 333.780104757 L 456 400.578969946 L 461 369.458615135 L 467 409.737840324 L 472 422.232385514 L 477 379.804370703 L 482 398.653095892 L 488 440.090261081 L 493 434.19636627 L 498 441.844951459 L 504 405.367076649 L 509 429.034881838 L 514 399.287087027 L 519 441.262692216 L 525 453.918937405 L 530 426.271562595 L 535 440.247027784 L 540 468.007312973 L 546 465.021078162 L 551 437.077603351 L 556 477.464768541 L 562 436.84023373 L 567 444.758038919 L 572 463.041444108 L 577 453.701449297 L 583 440.700314486 L 588 447.406419676 L 593 455.028124865 L 598 446.899830054 L 604 411.337135243 L 609 427.116500432 L 614 455.091825622 L 620 355.479130811"/>
			<path class="series-2-line" d="M 40 413.7 L 45 413.73972973 L 50 411.679459459 L 55 426.419189189 L 61 434.858918919 L 66 434.898648649 L 71 420.238378378 L 76 408.728108108 L 82 436.067837838 L 87 407.757567568 L 92 413.047297297 L 98 419.387027027 L 103 428.876756757 L 108 406.866486486 L 113 419.506216216 L 119 430.045945946 L 124 426.935675676 L 129 416.475405405 L 134 432.265135135 L 140 419.704864865 L 145 412.394594595 L 150 419.784324324 L 156 409.324054054 L 161 433.513783784 L 166 409.403513514 L 171 418.893243243 L 177 425.232972973 L 182 406.372702703 L 187 406.412432432 L 192 413.802162162 L 198 419.091891892 L 203 421.231621622 L 208 410.771351351 L 214 427.611081081 L 219 398.250810811 L 224 396.190540541 L 229 404.63027027 L 235 439.32 L 240 419.40972973 L 245 435.199459459 L 250 429.989189189 L 256 418.478918919 L 261 419.568648649 L 266 409.108378378 L 272 392.348108108 L 277 413.387837838 L 282 409.227567568 L 287 416.617297297 L 293 437.657027027 L 298 399.896756757 L 303 419.886486486 L 308 412.576216216 L 314 411.565945946 L 319 408.455675676 L 324 375.945405405 L 330 407.485135135 L 335 406.474864865 L 340 359.264594595 L 345 405.504324324 L 351 393.994054054 L 356 392.983783784 L 361 343.673513514 L 366 379.413243243 L 372 382.602972973 L 377 398.392702703 L 382 392.132432432 L 388 361.722162162 L 393 393.261891892 L 398 362.851621622 L 403 375.491351351 L 409 360.831081081 L 414 326.220810811 L 419 339.910540541 L 424 345.20027027 L 430 364.14 L 435 364.17972973 L 440 389.419459459 L 446 398.909189189 L 451 365.348918919 L 456 388.488648649 L 461 412.678378378 L 467 395.918108108 L 472 372.857837838 L 477 400.197567568 L 482 409.687297297 L 488 417.077027027 L 493 396.116756757 L 498 391.956486486 L 504 432.946216216 L 509 427.735945946 L 514 401.525675676 L 519 406.815405405 L 525 399.505135135 L 530 414.244864865 L 535 405.884594595 L 540 417.474324324 L 546 393.364054054 L 551 413.353783784 L 556 420.743513514 L 562 412.383243243 L 567 407.172972973 L 572 422.962702703 L 577 407.252432432 L 583 430.392162162 L 588 409.431891892 L 593 409.471621622 L 598 409.511351351 L 604 430.551081081 L 609 427.440810811 L 614 405.430540541 L 620 426.47027027"/>
		</g>
		<text class="x-axis-label" x="40.0" y="540">
			0
		</text>
		<path class="x-notch" d="M 66.3636363636 525 L 66.3636363636 530"/>
		<text class="x-axis-label" x="92.7272727273" y="540">
			10
		</text>
		<path class="x-notch" d="M 119.090909091 525 L 119.090909091 530"/>
		<text class="x-axis-label" x="145.454545455" y="540">
			20
		</text>
		<path class="x-notch" d="M 171.818181818 525 L 171.818181818 530"/>
		<text class="x-axis-label" x="198.181818182" y="540">
			30
		</text>
		<path class="x-notch" d="M 224.545454545 525 L 224.545454545 530"/>
		<text class="x-axis-label" x="250.909090909" y="540">
			40
		</text>
		<path class="x-notch" d="M 277.272727273 525 L 277.272727273 530"/>
		<text class="x-axis-label" x="303.636363636" y="540">
			50
		</text>
		<path class="x-notch" d="M 330.0 525 L 330.0 530"/>
		<text class="x-axis-label" x="356.363636364" y="540">
			60
		</text>
		<path class="x-notch" d="M 382.727272727 525 L 382.727272727 530"/>
		<text class="x-axis-label" x="409.090909091" y="540">
			70
		</text>
		<path class="x-notch" d="M 435.454545455 525 L 435.454545455 530"/>
		<text class="x-axis-label" x="461.818181818" y="540">
			80
		</text>
		<path class="x-notch" d="M 488.181818182 525 L 488.181818182 530"/>
		<text class="x-axis-label" x="514.545454545" y="540">
			90
		</text>
		<path class="x-notch" d="M 540.909090909 525 L 540.909090909 530"/>
		<text class="x-axis-label" x="567.272727273" y="540">
			100
		</text>
		<path class="x-notch" d="M 593.636363636 525 L 593.636363636 530"/>
		<text class="x-axis-label" x="620.0" y="540">
			110
		</text>
	</g>
</svg>
