<?xml version="1.0" ?>
<svg height="600" version="1.1" width="800" xmlns="http://www.w3.org/2000/svg" xmlns:svg="http://www.w3.org/2000/svg">
	<style type="text/css">

.x-axis-path, .y-gridline, .x-notch { fill:none; stroke: #a7a9ac; stroke-width:1; }



.y-gridline { stroke-width: 1; }

.y-axis-path, .y-axis-path2, .x-notch-left, .x-notch-right { display: none;}



.x-axis-label, .data-point-label {font-size: 12px; font-weight:normal; font-family: sans-serif; fill: #58595b; text-anchor:middle;}

.y-axis-label {font-size: 12px; font-family: helvetica; fill: #a7a9ac; text-anchor:end;}



.series-1-line { fill: none; stroke: #10b80c; stroke-width:2; }



.series-2-line { fill: none; stroke: #e90f0a; stroke-width: 2;}
</style>
	<rect fill="white" height="600" width="800" x="0" y="0"/>
	<g id="grid" transform="translate(70, 30)">
		<g class="x-axis" id="x_axis">
			<path class="x-axis-path" d="M 0 525 L 660 525"/>
			<path class="x-notch-left" d="M 0 525, L 0 535"/>
			<path class="x-notch-right" d="M 660 525, L 660 535"/>
		</g>
		<g class="y-axis" id="y_axis">
			<path class="y-axis-path" d="M 0 525 L 0 0"/>
			<path class="y-axis-path-2" d="M 660 525 L 660 0"/>
			<path class="y-gridline" d="M 0 525 L 660 525"/>
			<text class="y-axis-label" x="-5" y="525">-200</text>
			<path class="y-gridline" d="M 0 394 L 660 394"/>
			<text class="y-axis-label" x="-5" y="394"> 0</text>
			<path class="y-gridline" d="M 0 263 L 660 263"/>
			<text class="y-axis-label" x="-5" y="263">200</text>
			<path class="y-gridline" d="M 0 132 L 660 132"/>
			<text class="y-axis-label" x="-5" y="132">400</text>
			<path class="y-gridline" d="M 0 1 L 660 1"/>
			<text class="y-axis-label" x="-5" y="1">600</text>
		</g>
		<g>
			<path class="series-1-line" d="M 40 397.775737523 L 44 389.736833169 L 49 393.785337133 L 53 382.493691502 L 58 404.039290663 L 62 397.855913858 L 67 383.471144883 L 71 407.681992337 L 76 393.582803356 L 80 391.666545984 L 85 389.988106961 L 89 411.185268833 L 94 401.400465992 L 98 403.053711069 L 103 382.006316303 L 107 370.175186802 L 112 344.24175097 L 117 331.919394183 L 121 303.812679753 L 126 259.493485157 L 130 267.174348865 L 135 268.716480062 L 139 221.811474936 L 144 188.120607514 L 148 158.42761253 L 153 126.307435072 L 157 129.070829066 L 162 106.008783757 L 166 77.2197954594 L 171 71.7501211676 L 175 32.4911862822 L 180 10.7300890021 L 185 3.45141145896 L 189 17.6211772538 L 194 0.0 L 198 74.5454349119 L 203 45.3760857394 L 207 28.1516023587 L 212 72.921487174 L 216 139.202177683 L 221 109.746753578 L 225 145.141497603 L 230 93.5568411111 L 234 141.166192863 L 239 100.733756826 L 243 127.895185096 L 248 104.166456509 L 252 139.260029952 L 257 169.641533503 L 262 160.665956466 L 266 174.469714627 L 271 242.512141681 L 275 180.552566952 L 280 267.488065583 L 284 204.655665346 L 289 243.587740764 L 293 240.640524768 L 298 289.900004246 L 302 380.181292748 L 307 305.960338526 L 311 352.855987764 L 316 331.205756894 L 320 389.666158518 L 325 322.979170779 L 330 348.82406043 L 334 387.328508266 L 339 372.4354366 L 343 382.004741322 L 348 390.256517547 L 352 360.087143458 L 357 359.899461697 L 361 347.085630156 L 366 394.727152964 L 370 362.225872222 L 375 373.904855838 L 379 396.782089267 L 384 365.534242378 L 388 345.629415055 L 393 364.63795521 L 397 332.137664346 L 402 393.024506036 L 407 354.162265024 L 411 391.713954649 L 416 381.26321094 L 420 361.707068375 L 425 373.639460928 L 429 357.017813652 L 434 366.570785376 L 438 345.793132544 L 443 352.839731501 L 447 353.588227483 L 452 367.281861642 L 456 370.029170108 L 461 335.482057645 L 465 363.928348415 L 470 359.077348286 L 475 373.199599905 L 479 306.194861116 L 484 342.921981817 L 488 305.789553763 L 493 374.861207154 L 497 336.412735422 L 502 410.593894987 L 506 392.417890744 L 511 413.218111274 L 515 413.078686098 L 520 403.865290713 L 524 404.677881338 L 529 414.389233648 L 533 398.989344107 L 538 407.844451376 L 542 397.99654377 L 547 397.539862483 L 552 390.46806958 L 556 405.874688761 L 561 400.658918345 L 565 412.179026436 L 570 402.331118831 L 574 399.431169541 L 579 399.704276296 L 583 400.135763637 L 588 395.840085436 L 592 399.650523583 L 597 401.176816721 L 601 403.257936849 L 606 386.858517332 L 610 388.321210766 L 615 409.169192942 L 620 382.521807126"/>
			<path class="series-2-line" d="M 40 354.40232326 L 44 411.799938591 L 49 417.228924266 L 53 402.860336738 L 58 381.06765926 L 62 390.20868991 L 67 399.968394722 L 71 396.735942121 L 76 410.207691909 L 80 405.11921682 L 85 387.038584317 L 89 419.689233145 L 94 387.379094903 L 98 404.562889666 L 103 416.178616967 L 107 389.436546187 L 112 391.153486887 L 117 416.998719926 L 121 419.953008951 L 126 418.576578837 L 130 388.122463082 L 135 398.500842058 L 139 390.318996156 L 144 371.61968949 L 148 380.76072014 L 153 382.477660839 L 157 371.202444124 L 162 383.436845588 L 166 372.161628873 L 171 366.454479621 L 175 347.755172955 L 180 374.219080157 L 185 312.831256274 L 189 355.999365866 L 194 339.77475585 L 198 326.024842485 L 203 350.014053037 L 207 344.306903785 L 212 342.930473672 L 216 339.69802107 L 221 311.718601966 L 225 325.190351754 L 230 323.195247478 L 234 313.157379088 L 239 332.815870502 L 243 327.727395413 L 248 299.129302146 L 252 335.49199595 L 257 310.605947658 L 262 296.856034293 L 266 228.044120458 L 271 312.04472478 L 275 287.777350651 L 280 343.937617657 L 284 286.880512912 L 289 279.317341172 L 293 290.31439431 L 298 312.447582374 L 302 232.499533613 L 307 311.550744635 L 311 316.361056147 L 316 325.502086797 L 320 360.008758113 L 325 325.22392322 L 330 332.508931383 L 334 391.762569202 L 339 335.942812781 L 343 372.924180747 L 348 325.765862603 L 352 288.50633106 L 357 230.830552151 L 361 285.13479667 L 366 318.404119661 L 370 283.000610605 L 375 304.515124507 L 379 195.489390105 L 384 181.739476739 L 388 232.331676282 L 393 316.950954767 L 397 378.060615074 L 402 347.606499319 L 407 339.424653417 L 411 305.877166849 L 416 305.119410898 L 420 325.396576475 L 425 307.315943972 L 429 304.08349137 L 434 295.282971306 L 438 313.085440232 L 443 309.234313468 L 447 274.449478575 L 452 295.345318314 L 456 262.416505909 L 461 280.837648998 L 465 268.325083958 L 470 262.617934706 L 475 313.210134249 L 479 231.406063 L 484 230.029632887 L 488 289.901944868 L 493 188.91897458 L 497 309.421354494 L 502 352.589464086 L 506 374.72265215 L 511 372.727547874 L 515 380.012556037 L 520 379.254800085 L 524 406.956055613 L 529 373.408569045 L 533 396.779105435 L 538 400.352068622 L 542 402.069009321 L 547 410.591365809 L 552 413.545654833 L 556 408.457179744 L 561 411.411468768 L 565 409.416364492 L 570 411.133305191 L 574 390.577976038 L 579 405.905748314 L 583 396.486554087 L 588 400.678191436 L 592 394.971042184 L 597 407.82411781 L 601 382.319395356 L 606 392.697774331 L 610 391.321344218 L 615 406.030442331 L 620 398.467270592"/>
		</g>
		<text class="x-axis-label" x="40.0" y="540">0</text>
		<path class="x-notch" d="M 62.65625 525 L 62.65625 530"/>
		<text class="x-axis-label" x="85.3125" y="540">10</text>
		<path class="x-notch" d="M 107.96875 525 L 107.96875 530"/>
		<text class="x-axis-label" x="130.625" y="540">20</text>
		<path class="x-notch" d="M 153.28125 525 L 153.28125 530"/>
		<text class="x-axis-label" x="175.9375" y="540">30</text>
		<path class="x-notch" d="M 198.59375 525 L 198.59375 530"/>
		<text class="x-axis-label" x="221.25" y="540">40</text>
		<path class="x-notch" d="M 243.90625 525 L 243.90625 530"/>
		<text class="x-axis-label" x="266.5625" y="540">50</text>
		<path class="x-notch" d="M 289.21875 525 L 289.21875 530"/>
		<text class="x-axis-label" x="311.875" y="540">60</text>
		<path class="x-notch" d="M 334.53125 525 L 334.53125 530"/>
		<text class="x-axis-label" x="357.1875" y="540">70</text>
		<path class="x-notch" d="M 379.84375 525 L 379.84375 530"/>
		<text class="x-axis-label" x="402.5" y="540">80</text>
		<path class="x-notch" d="M 425.15625 525 L 425.15625 530"/>
		<text class="x-axis-label" x="447.8125" y="540">90</text>
		<path class="x-notch" d="M 470.46875 525 L 470.46875 530"/>
		<text class="x-axis-label" x="493.125" y="540">100</text>
		<path class="x-notch" d="M 515.78125 525 L 515.78125 530"/>
		<text class="x-axis-label" x="538.4375" y="540">110</text>
		<path class="x-notch" d="M 561.09375 525 L 561.09375 530"/>
		<text class="x-axis-label" x="583.75" y="540">120</text>
		<path class="x-notch" d="M 606.40625 525 L 606.40625 530"/>
	</g>
</svg>
