<?xml version="1.0" ?>
<svg height="600" version="1.1" width="800" xmlns="http://www.w3.org/2000/svg" xmlns:svg="http://www.w3.org/2000/svg">
	<style type="text/css">
		

.x-axis-path, .y-gridline, .x-notch { fill:none; stroke: #a7a9ac; stroke-width:1; }



.y-gridline { stroke-width: 1; }

.y-axis-path, .y-axis-path2, .x-notch-left, .x-notch-right { display: none;}



.x-axis-label, .data-point-label {font-size: 12px; font-weight:normal; font-family: sans-serif; fill: #58595b; text-anchor:middle;}

.y-axis-label {font-size: 12px; font-family: helvetica; fill: #a7a9ac; text-anchor:end;}



.series-1-line { fill: none; stroke: #10b80c; stroke-width:2; }



.series-2-line { fill: none; stroke: #e90f0a; stroke-width: 2;}

	</style>
	<rect fill="white" height="600" width="800" x="0" y="0"/>
	<g id="grid" transform="translate(70, 30)">
		<g class="x-axis" id="x_axis">
			<path class="x-axis-path" d="M 0 525 L 660 525"/>
			<path class="x-notch-left" d="M 0 525, L 0 535"/>
			<path class="x-notch-right" d="M 660 525, L 660 535"/>
		</g>
		<g class="y-axis" id="y_axis">
			<path class="y-axis-path" d="M 0 525 L 0 0"/>
			<path class="y-axis-path-2" d="M 660 525 L 660 0"/>
			<path class="y-gridline" d="M 0 525 L 660 525"/>
			<text class="y-axis-label" x="-5" y="525">
				-100
			</text>
			<path class="y-gridline" d="M 0 420 L 660 420"/>
			<text class="y-axis-label" x="-5" y="420">
				 0
			</text>
			<path class="y-gridline" d="M 0 315 L 660 315"/>
			<text class="y-axis-label" x="-5" y="315">
				100
			</text>
			<path class="y-gridline" d="M 0 210 L 660 210"/>
			<text class="y-axis-label" x="-5" y="210">
				200
			</text>
			<path class="y-gridline" d="M 0 105 L 660 105"/>
			<text class="y-axis-label" x="-5" y="105">
				300
			</text>
			<path class="y-gridline" d="M 0 0 L 660 0"/>
			<text class="y-axis-label" x="-5" y="0">
				400
			</text>
		</g>
		<g>
			<path class="series-1-line" d="M 40 401.63844 L 46 467.529061125 L 52 416.35938225 L 58 403.338723375 L 64 408.2760045 L 70 423.874985625 L 76 399.03552675 L 82 373.630327875 L 88 366.075549 L 94 319.832050125 L 101 386.04565125 L 107 293.440872375 L 113 285.9931935 L 119 302.937854625 L 125 228.50605575 L 131 258.831916875 L 137 187.011258 L 143 230.286979125 L 149 143.98220025 L 156 227.076441375 L 162 210.5828025 L 168 155.293343625 L 174 61.36934475 L 180 101.547985875 L 186 67.016607 L 192 174.207088125 L 198 111.29840925 L 204 100.377330375 L 210 12.8348115 L 217 36.053012625 L 223 58.73235375 L 229 52.819774875 L 235 57.137136 L 241 109.135417125 L 247 105.72603825 L 253 51.540759375 L 259 116.6241405 L 265 101.126741625 L 272 99.57586275 L 278 67.063003875 L 284 45.561285 L 290 116.163886125 L 296 201.44002725 L 302 221.534268375 L 308 166.4606895 L 314 277.313150625 L 320 233.03525175 L 326 247.825732875 L 333 342.766914 L 339 283.896535125 L 345 282.12977625 L 351 296.113857375 L 357 314.1626985 L 363 365.837159625 L 369 363.29130075 L 375 432.736381875 L 381 431.212803 L 388 419.942704125 L 394 408.53736525 L 400 429.736626375 L 406 423.0945075 L 412 374.456168625 L 418 413.58648975 L 424 433.385050875 L 430 399.095172 L 436 448.482733125 L 442 424.85455425 L 449 443.091555375 L 455 431.0137965 L 461 442.412357625 L 467 428.88055875 L 473 447.952099875 L 479 430.193421 L 485 421.103962125 L 491 431.45252325 L 497 418.297464375 L 504 439.6575855 L 510 431.967986625 L 516 426.32420775 L 522 422.350348875 L 528 428.95671 L 534 417.524911125 L 540 424.88433225 L 546 422.337633375 L 552 426.6822945 L 558 401.331275625 L 565 412.56855675 L 571 416.536477875 L 577 390.324039 L 583 420.622180125 L 589 399.49804125 L 595 402.604542375 L 601 431.9072835 L 607 420.475064625 L 613 439.46638575 L 620 409.834306875"/>
			<path class="series-2-line" d="M 40 417.9 L 46 372.2096875 L 52 447.269375 L 58 426.7790625 L 64 430.43875 L 70 449.8484375 L 76 471.358125 L 82 458.2178125 L 88 486.0275 L 94 488.6371875 L 101 433.496875 L 107 461.3065625 L 113 431.36625 L 119 404.5759375 L 125 422.935625 L 131 438.1453125 L 137 417.655 L 143 419.2146875 L 149 447.024375 L 156 379.2840625 L 162 368.24375 L 168 389.7534375 L 174 418.613125 L 180 329.8728125 L 186 389.1825 L 192 329.8421875 L 198 352.401875 L 204 290.9615625 L 210 389.12125 L 217 407.4809375 L 223 386.990625 L 229 404.3003125 L 235 340.76 L 241 291.9196875 L 247 246.229375 L 253 300.2890625 L 259 298.69875 L 265 296.0584375 L 272 329.118125 L 278 319.1278125 L 284 270.2875 L 290 267.6471875 L 296 310.156875 L 302 242.4165625 L 308 312.22625 L 314 295.9359375 L 320 319.545625 L 326 260.2053125 L 333 269.115 L 339 275.9246875 L 345 260.684375 L 351 327.3440625 L 357 333.10375 L 363 211.8134375 L 369 359.323125 L 375 373.4828125 L 381 443.2925 L 388 477.4021875 L 394 450.611875 L 400 497.3215625 L 406 259.48125 L 412 390.1909375 L 418 465.250625 L 424 443.7103125 L 430 424.27 L 436 455.2296875 L 442 451.539375 L 449 427.8990625 L 455 465.15875 L 461 443.6184375 L 467 461.978125 L 473 430.9878125 L 479 453.5475 L 485 475.0571875 L 491 453.516875 L 497 454.0265625 L 504 434.58625 L 510 442.4459375 L 516 417.755625 L 522 460.2653125 L 528 449.225 L 534 467.5846875 L 540 379.894375 L 546 445.5040625 L 552 418.71375 L 558 438.1234375 L 565 441.783125 L 571 432.8428125 L 577 463.8025 L 583 401.3121875 L 589 416.521875 L 595 419.1315625 L 601 430.14125 L 607 407.5509375 L 613 430.110625 L 620 421.1703125"/>
		</g>
		<text class="x-axis-label" x="40.0" y="540">
			0
		</text>
		<path class="x-notch" d="M 70.5263157895 525 L 70.5263157895 530"/>
		<text class="x-axis-label" x="101.052631579" y="540">
			10
		</text>
		<path class="x-notch" d="M 131.578947368 525 L 131.578947368 530"/>
		<text class="x-axis-label" x="162.105263158" y="540">
			20
		</text>
		<path class="x-notch" d="M 192.631578947 525 L 192.631578947 530"/>
		<text class="x-axis-label" x="223.157894737" y="540">
			30
		</text>
		<path class="x-notch" d="M 253.684210526 525 L 253.684210526 530"/>
		<text class="x-axis-label" x="284.210526316" y="540">
			40
		</text>
		<path class="x-notch" d="M 314.736842105 525 L 314.736842105 530"/>
		<text class="x-axis-label" x="345.263157895" y="540">
			50
		</text>
		<path class="x-notch" d="M 375.789473684 525 L 375.789473684 530"/>
		<text class="x-axis-label" x="406.315789474" y="540">
			60
		</text>
		<path class="x-notch" d="M 436.842105263 525 L 436.842105263 530"/>
		<text class="x-axis-label" x="467.368421053" y="540">
			70
		</text>
		<path class="x-notch" d="M 497.894736842 525 L 497.894736842 530"/>
		<text class="x-axis-label" x="528.421052632" y="540">
			80
		</text>
		<path class="x-notch" d="M 558.947368421 525 L 558.947368421 530"/>
		<text class="x-axis-label" x="589.473684211" y="540">
			90
		</text>
		<path class="x-notch" d="M 620.0 525 L 620.0 530"/>
	</g>
</svg>
