<?xml version="1.0" ?>
<svg height="600" version="1.1" width="800" xmlns="http://www.w3.org/2000/svg" xmlns:svg="http://www.w3.org/2000/svg">
	<style type="text/css">
		

.x-axis-path, .y-gridline, .x-notch { fill:none; stroke: #a7a9ac; stroke-width:1; }



.y-gridline { stroke-width: 1; }

.y-axis-path, .y-axis-path2, .x-notch-left, .x-notch-right { display: none;}



.x-axis-label, .data-point-label {font-size: 12px; font-weight:normal; font-family: sans-serif; fill: #58595b; text-anchor:middle;}

.y-axis-label {font-size: 12px; font-family: helvetica; fill: #a7a9ac; text-anchor:end;}



.series-1-line { fill: none; stroke: #10b80c; stroke-width:2; }



.series-2-line { fill: none; stroke: #e90f0a; stroke-width: 2;}

	</style>
	<rect fill="white" height="600" width="800" x="0" y="0"/>
	<g id="grid" transform="translate(70, 30)">
		<g class="x-axis" id="x_axis">
			<path class="x-axis-path" d="M 0 525 L 660 525"/>
			<path class="x-notch-left" d="M 0 525, L 0 535"/>
			<path class="x-notch-right" d="M 660 525, L 660 535"/>
		</g>
		<g class="y-axis" id="y_axis">
			<path class="y-axis-path" d="M 0 525 L 0 0"/>
			<path class="y-axis-path-2" d="M 660 525 L 660 0"/>
			<path class="y-gridline" d="M 0 525 L 660 525"/>
			<text class="y-axis-label" x="-5" y="525">
				-250
			</text>
			<path class="y-gridline" d="M 0 420 L 660 420"/>
			<text class="y-axis-label" x="-5" y="420">
				 0
			</text>
			<path class="y-gridline" d="M 0 315 L 660 315"/>
			<text class="y-axis-label" x="-5" y="315">
				250
			</text>
			<path class="y-gridline" d="M 0 210 L 660 210"/>
			<text class="y-axis-label" x="-5" y="210">
				500
			</text>
			<path class="y-gridline" d="M 0 105 L 660 105"/>
			<text class="y-axis-label" x="-5" y="105">
				750
			</text>
			<path class="y-gridline" d="M 0 0 L 660 0"/>
			<text class="y-axis-label" x="-5" y="0">
				1000
			</text>
		</g>
		<g>
			<path class="series-1-line" d="M 40 414.0316656 L 46 422.128858447 L 53 419.597027294 L 60 425.378844141 L 67 423.912972988 L 74 420.573229835 L 81 419.775326682 L 88 420.840039529 L 95 403.112776376 L 102 424.380665224 L 109 425.704098071 L 115 428.136834918 L 122 418.550851765 L 129 415.760468612 L 136 406.163901459 L 143 424.168894306 L 150 428.927591153 L 157 421.700328 L 164 432.058968847 L 171 418.283905694 L 178 429.461042541 L 185 407.760075388 L 191 390.269524235 L 198 409.696133082 L 205 398.462573929 L 212 383.782830776 L 219 376.630831624 L 226 379.698776471 L 233 329.513073318 L 240 307.327258165 L 247 286.778267012 L 254 294.638579859 L 260 192.383628706 L 267 225.109957553 L 274 195.0733344 L 281 146.987463247 L 288 167.630896094 L 295 166.681792941 L 302 181.316201788 L 309 177.297906635 L 316 177.318163482 L 323 146.786108329 L 330 128.401965176 L 336 120.183838024 L 343 80.2286628706 L 350 94.5828477176 L 357 49.8033845647 L 364 110.572609412 L 371 145.054706259 L 378 166.818195106 L 385 254.198283953 L 392 247.4234448 L 399 295.226765647 L 405 269.002398494 L 412 264.079591341 L 419 280.038512188 L 426 385.834425035 L 433 448.025433882 L 440 456.887194729 L 447 415.446059576 L 454 417.674172424 L 461 413.375821271 L 468 389.143934118 L 475 344.547422965 L 481 422.461551812 L 488 434.231056659 L 495 446.883737506 L 502 444.696474353 L 509 453.1274832 L 516 430.909412047 L 523 451.649612894 L 530 426.825357741 L 537 423.507118588 L 544 438.539855435 L 550 430.892424282 L 557 430.245049129 L 564 424.977673976 L 571 413.421218824 L 578 414.593787671 L 585 414.086188518 L 592 419.922101365 L 599 425.036286212 L 606 412.919719059 L 613 413.166103906 L 620 421.381736753"/>
			<path class="series-2-line" d="M 40 417.396 L 46 412.286823529 L 53 427.337647059 L 60 423.068470588 L 67 419.219294118 L 74 412.850117647 L 81 435.880941176 L 88 413.971764706 L 95 424.402588235 L 102 412.153411765 L 109 415.444235294 L 115 425.875058824 L 122 411.105882353 L 129 417.336705882 L 136 420.627529412 L 143 426.018352941 L 150 417.549176471 L 157 427.98 L 164 414.050823529 L 171 413.981647059 L 178 403.412470588 L 185 427.703294118 L 191 417.554117647 L 198 430.504941176 L 205 427.075764706 L 212 420.706588235 L 219 419.377411765 L 226 412.588235294 L 233 425.119058824 L 240 426.729882353 L 247 418.680705882 L 254 417.771529412 L 260 428.622352941 L 267 414.273176471 L 274 412.104 L 281 408.254823529 L 288 411.545647059 L 295 392.576470588 L 302 416.027294118 L 309 400.838117647 L 316 394.468941176 L 323 387.679764706 L 330 402.310588235 L 336 403.501411765 L 343 392.512235294 L 350 394.123058824 L 357 415.053882353 L 364 383.064705882 L 371 406.095529412 L 378 414.846352941 L 385 392.097176471 L 392 413.868 L 399 406.238823529 L 405 399.029647059 L 412 393.920470588 L 419 407.291294118 L 426 427.382117647 L 433 419.332941176 L 440 409.603764706 L 447 417.514588235 L 454 427.105411765 L 461 406.456235294 L 468 416.047058824 L 475 424.797882353 L 481 420.948705882 L 488 416.259529412 L 495 421.230352941 L 502 431.661176471 L 509 423.612 L 516 430.262823529 L 523 418.433647059 L 530 422.144470588 L 537 412.415294118 L 544 422.846117647 L 550 416.896941176 L 557 416.407764706 L 564 415.918588235 L 571 430.129411765 L 578 424.180235294 L 585 401.851058824 L 592 421.941882353 L 599 423.552705882 L 606 426.843529412 L 613 417.954352941 L 620 410.745176471"/>
		</g>
		<text class="x-axis-label" x="40.0" y="540">
			0
		</text>
		<path class="x-notch" d="M 74.5238095238 525 L 74.5238095238 530"/>
		<text class="x-axis-label" x="109.047619048" y="540">
			10
		</text>
		<path class="x-notch" d="M 143.571428571 525 L 143.571428571 530"/>
		<text class="x-axis-label" x="178.095238095" y="540">
			20
		</text>
		<path class="x-notch" d="M 212.619047619 525 L 212.619047619 530"/>
		<text class="x-axis-label" x="247.142857143" y="540">
			30
		</text>
		<path class="x-notch" d="M 281.666666667 525 L 281.666666667 530"/>
		<text class="x-axis-label" x="316.19047619" y="540">
			40
		</text>
		<path class="x-notch" d="M 350.714285714 525 L 350.714285714 530"/>
		<text class="x-axis-label" x="385.238095238" y="540">
			50
		</text>
		<path class="x-notch" d="M 419.761904762 525 L 419.761904762 530"/>
		<text class="x-axis-label" x="454.285714286" y="540">
			60
		</text>
		<path class="x-notch" d="M 488.80952381 525 L 488.80952381 530"/>
		<text class="x-axis-label" x="523.333333333" y="540">
			70
		</text>
		<path class="x-notch" d="M 557.857142857 525 L 557.857142857 530"/>
		<text class="x-axis-label" x="592.380952381" y="540">
			80
		</text>
		<path class="x-notch" d="M 626.904761905 525 L 626.904761905 530"/>
	</g>
</svg>
