<?xml version="1.0" ?>
<svg height="600" version="1.1" width="800" xmlns="http://www.w3.org/2000/svg" xmlns:svg="http://www.w3.org/2000/svg">
	<style type="text/css">
		

.x-axis-path, .y-gridline, .x-notch { fill:none; stroke: #a7a9ac; stroke-width:1; }



.y-gridline { stroke-width: 1; }

.y-axis-path, .y-axis-path2, .x-notch-left, .x-notch-right { display: none;}



.x-axis-label, .data-point-label {font-size: 12px; font-weight:normal; font-family: sans-serif; fill: #58595b; text-anchor:middle;}

.y-axis-label {font-size: 12px; font-family: helvetica; fill: #a7a9ac; text-anchor:end;}



.series-1-line { fill: none; stroke: #10b80c; stroke-width:2; }



.series-2-line { fill: none; stroke: #e90f0a; stroke-width: 2;}

	</style>
	<rect fill="white" height="600" width="800" x="0" y="0"/>
	<g id="grid" transform="translate(70, 30)">
		<g class="x-axis" id="x_axis">
			<path class="x-axis-path" d="M 0 525 L 660 525"/>
			<path class="x-notch-left" d="M 0 525, L 0 535"/>
			<path class="x-notch-right" d="M 660 525, L 660 535"/>
		</g>
		<g class="y-axis" id="y_axis">
			<path class="y-axis-path" d="M 0 525 L 0 0"/>
			<path class="y-axis-path-2" d="M 660 525 L 660 0"/>
			<path class="y-gridline" d="M 0 525 L 660 525"/>
			<text class="y-axis-label" x="-5" y="525">
				-200
			</text>
			<path class="y-gridline" d="M 0 394 L 660 394"/>
			<text class="y-axis-label" x="-5" y="394">
				 0
			</text>
			<path class="y-gridline" d="M 0 263 L 660 263"/>
			<text class="y-axis-label" x="-5" y="263">
				200
			</text>
			<path class="y-gridline" d="M 0 132 L 660 132"/>
			<text class="y-axis-label" x="-5" y="132">
				400
			</text>
			<path class="y-gridline" d="M 0 1 L 660 1"/>
			<text class="y-axis-label" x="-5" y="1">
				600
			</text>
		</g>
		<g>
			<path class="series-1-line" d="M 40 394.130490456 L 45 402.339983235 L 51 379.055421176 L 56 397.625484163 L 62 397.009730941 L 67 385.102427404 L 73 369.648356233 L 79 395.724298705 L 84 374.537900583 L 90 374.830181964 L 95 368.720330119 L 101 352.638631909 L 106 346.398868016 L 112 337.217018022 L 118 336.644118905 L 123 278.599816803 L 129 263.231791274 L 134 239.255152302 L 140 230.03011077 L 145 206.44287051 L 151 201.479281595 L 157 176.637124691 L 162 181.08254241 L 168 142.094481902 L 173 199.923628442 L 179 163.834125064 L 185 189.282777931 L 190 66.1306064441 L 196 97.5275439527 L 201 53.5424249446 L 207 75.9194170968 L 212 125.421032626 L 218 32.9189938148 L 224 55.1232198145 L 229 71.7246934779 L 235 68.5562528662 L 240 66.1666096762 L 246 36.1549655534 L 251 0.0 L 257 25.4486528674 L 263 25.6980801437 L 268 24.4118457793 L 274 29.9599974555 L 279 24.368781502 L 285 36.6666233119 L 290 21.4281723974 L 296 61.0669327085 L 302 94.2806142895 L 307 64.0307418393 L 313 85.0883674752 L 318 139.046134977 L 324 104.081298759 L 330 77.789863291 L 335 111.241435766 L 341 90.8119018627 L 346 140.616195592 L 352 140.714452485 L 357 155.866985018 L 363 168.835307971 L 369 168.889698457 L 374 206.018625483 L 380 183.750751738 L 385 206.798562467 L 391 214.639914871 L 396 254.148763133 L 402 235.514714968 L 408 221.509584927 L 413 270.751713793 L 419 283.049218169 L 424 285.808141297 L 430 277.902128847 L 435 313.171457696 L 441 315.627027756 L 447 356.60573805 L 452 372.732104795 L 458 376.269487911 L 463 358.219537811 L 469 334.718343193 L 475 374.35676607 L 480 334.784270063 L 486 399.017236997 L 491 428.900108634 L 497 402.608673166 L 502 421.43856025 L 508 386.515903269 L 514 376.425343805 L 519 372.327947689 L 525 393.991267161 L 530 389.547326439 L 536 409.999258239 L 541 415.656063628 L 547 438.400858722 L 553 423.595335491 L 558 417.744970309 L 564 421.173699712 L 569 422.634177225 L 575 425.154534592 L 580 422.700104095 L 586 427.189050785 L 592 402.996116689 L 597 404.651293558 L 603 381.258752653 L 608 421.156324759 L 614 379.075007767 L 620 380.491956308"/>
			<path class="series-2-line" d="M 40 373.841400395 L 45 398.16234984 L 51 400.55009633 L 56 387.753317698 L 62 407.012758768 L 67 378.187870285 L 73 409.257497561 L 79 409.958074593 L 84 414.032990542 L 90 390.269610432 L 95 411.216220961 L 101 408.542459077 L 106 416.83529867 L 112 390.541164374 L 118 370.15212318 L 123 399.534580999 L 129 384.20704818 L 134 395.874226689 L 140 376.328770225 L 145 393.057457108 L 151 399.663127243 L 157 381.804840237 L 162 368.164476876 L 168 385.736748488 L 173 367.878461482 L 179 393.886580385 L 185 393.743572688 L 190 380.946794056 L 196 374.055108527 L 201 348.604558959 L 207 334.120610869 L 212 332.290433714 L 218 308.527053605 L 224 321.037816843 L 229 286.307835257 L 235 276.041810812 L 240 275.898803115 L 246 274.912210689 L 251 245.243737477 L 257 245.10072978 L 263 260.985831934 L 268 286.150366108 L 274 232.017935754 L 279 204.880216729 L 285 249.447199669 L 290 213.873633354 L 296 270.250802501 L 302 243.113083475 L 307 213.444610263 L 313 207.396509463 L 318 234.248213095 L 324 249.28973052 L 330 227.213519869 L 335 195.857877198 L 341 180.530344379 L 346 164.359226831 L 352 203.864701398 L 357 197.816600598 L 363 236.478490435 L 369 216.933033971 L 374 204.136255339 L 380 212.429094932 L 385 224.93985817 L 391 207.925155893 L 396 251.648554105 L 402 252.349131137 L 408 254.736877627 L 413 260.498963033 L 419 272.166141543 L 424 324.325387044 L 430 263.444278859 L 435 310.542015986 L 441 311.242593018 L 447 257.110162665 L 452 296.615637231 L 458 325.99809505 L 463 334.290934643 L 469 304.622461431 L 475 328.099826146 L 480 305.180030766 L 486 407.110775279 L 491 406.124182854 L 497 384.047972202 L 502 396.558735441 L 508 306.152161739 L 514 257.08123976 L 519 359.011984273 L 525 357.181807118 L 530 414.402560994 L 536 404.136536549 L 541 398.932020478 L 547 392.883919678 L 553 388.522988336 L 558 401.877336304 L 564 382.331879839 L 569 373.753024852 L 575 364.330585136 L 580 374.310594187 L 586 386.821357426 L 592 399.332120664 L 597 393.284019864 L 603 412.543460934 L 608 395.528758657 L 614 402.134428792 L 620 367.404447206"/>
		</g>
		<text class="x-axis-label" x="40.0" y="540">
			0
		</text>
		<path class="x-notch" d="M 67.8846153846 525 L 67.8846153846 530"/>
		<text class="x-axis-label" x="95.7692307692" y="540">
			10
		</text>
		<path class="x-notch" d="M 123.653846154 525 L 123.653846154 530"/>
		<text class="x-axis-label" x="151.538461538" y="540">
			20
		</text>
		<path class="x-notch" d="M 179.423076923 525 L 179.423076923 530"/>
		<text class="x-axis-label" x="207.307692308" y="540">
			30
		</text>
		<path class="x-notch" d="M 235.192307692 525 L 235.192307692 530"/>
		<text class="x-axis-label" x="263.076923077" y="540">
			40
		</text>
		<path class="x-notch" d="M 290.961538462 525 L 290.961538462 530"/>
		<text class="x-axis-label" x="318.846153846" y="540">
			50
		</text>
		<path class="x-notch" d="M 346.730769231 525 L 346.730769231 530"/>
		<text class="x-axis-label" x="374.615384615" y="540">
			60
		</text>
		<path class="x-notch" d="M 402.5 525 L 402.5 530"/>
		<text class="x-axis-label" x="430.384615385" y="540">
			70
		</text>
		<path class="x-notch" d="M 458.269230769 525 L 458.269230769 530"/>
		<text class="x-axis-label" x="486.153846154" y="540">
			80
		</text>
		<path class="x-notch" d="M 514.038461538 525 L 514.038461538 530"/>
		<text class="x-axis-label" x="541.923076923" y="540">
			90
		</text>
		<path class="x-notch" d="M 569.807692308 525 L 569.807692308 530"/>
		<text class="x-axis-label" x="597.692307692" y="540">
			100
		</text>
		<path class="x-notch" d="M 625.576923077 525 L 625.576923077 530"/>
	</g>
</svg>
