<?xml version="1.0" ?>
<svg height="600" version="1.1" width="800" xmlns="http://www.w3.org/2000/svg" xmlns:svg="http://www.w3.org/2000/svg">
	<style type="text/css">
		

.x-axis-path, .y-gridline, .x-notch { fill:none; stroke: #a7a9ac; stroke-width:1; }



.y-gridline { stroke-width: 1; }

.y-axis-path, .y-axis-path2, .x-notch-left, .x-notch-right { display: none;}



.x-axis-label, .data-point-label {font-size: 12px; font-weight:normal; font-family: sans-serif; fill: #58595b; text-anchor:middle;}

.y-axis-label {font-size: 12px; font-family: helvetica; fill: #a7a9ac; text-anchor:end;}



.series-1-line { fill: none; stroke: #10b80c; stroke-width:2; }



.series-2-line { fill: none; stroke: #e90f0a; stroke-width: 2;}

	</style>
	<rect fill="white" height="600" width="800" x="0" y="0"/>
	<g id="grid" transform="translate(70, 30)">
		<g class="x-axis" id="x_axis">
			<path class="x-axis-path" d="M 0 525 L 660 525"/>
			<path class="x-notch-left" d="M 0 525, L 0 535"/>
			<path class="x-notch-right" d="M 660 525, L 660 535"/>
		</g>
		<g class="y-axis" id="y_axis">
			<path class="y-axis-path" d="M 0 525 L 0 0"/>
			<path class="y-axis-path-2" d="M 660 525 L 660 0"/>
			<path class="y-gridline" d="M 0 525 L 660 525"/>
			<text class="y-axis-label" x="-5" y="525">
				-100
			</text>
			<path class="y-gridline" d="M 0 420 L 660 420"/>
			<text class="y-axis-label" x="-5" y="420">
				 0
			</text>
			<path class="y-gridline" d="M 0 315 L 660 315"/>
			<text class="y-axis-label" x="-5" y="315">
				100
			</text>
			<path class="y-gridline" d="M 0 210 L 660 210"/>
			<text class="y-axis-label" x="-5" y="210">
				200
			</text>
			<path class="y-gridline" d="M 0 105 L 660 105"/>
			<text class="y-axis-label" x="-5" y="105">
				300
			</text>
			<path class="y-gridline" d="M 0 0 L 660 0"/>
			<text class="y-axis-label" x="-5" y="0">
				400
			</text>
		</g>
		<g>
			<path class="series-1-line" d="M 40 417.673788 L 45 418.62233596 L 51 421.590243921 L 57 426.792551881 L 63 414.306559842 L 69 416.789787802 L 74 438.711455762 L 80 429.105823723 L 86 390.289191683 L 92 410.433839644 L 98 392.482387604 L 103 419.707815564 L 109 422.460263525 L 115 404.212711485 L 121 412.430619446 L 127 425.736827406 L 132 418.392895366 L 138 409.918323327 L 144 397.539851287 L 150 397.842439248 L 156 394.268007208 L 161 409.162655168 L 167 396.945883129 L 173 355.625211089 L 179 329.51609905 L 185 334.15308701 L 190 266.79745497 L 196 281.611462931 L 202 270.094830891 L 208 250.770398851 L 214 205.626466812 L 219 213.520974772 L 225 184.880942733 L 231 205.536730693 L 237 167.581098653 L 243 130.245386614 L 248 67.5748545743 L 254 157.746102535 L 260 189.279470495 L 266 175.393198455 L 272 101.092026416 L 277 110.575394376 L 283 153.550822337 L 289 227.353410297 L 295 228.921038257 L 301 258.353986218 L 306 195.575514178 L 312 240.059162139 L 318 257.457430099 L 324 267.963498059 L 330 254.48168602 L 335 239.59959398 L 341 264.131981941 L 347 262.227049901 L 353 294.783537861 L 359 281.004785822 L 364 305.618653782 L 370 291.382521743 L 376 357.619649703 L 382 319.960537663 L 388 355.774545624 L 393 397.457633584 L 399 377.163841545 L 405 434.838849505 L 411 404.503277465 L 417 418.374805426 L 422 422.716113386 L 428 399.999341347 L 434 428.086189307 L 440 413.554377267 L 446 414.529805228 L 451 420.997573188 L 457 405.226761149 L 463 406.767929109 L 469 424.301017069 L 475 421.23814503 L 480 433.89797299 L 486 420.73914095 L 492 422.279888911 L 498 405.244036871 L 504 413.730744832 L 509 426.444752792 L 515 402.866560752 L 521 396.303408713 L 527 414.294296673 L 533 387.458164634 L 538 414.387492594 L 544 405.051500554 L 550 396.200188515 L 556 423.048456475 L 562 402.054944436 L 567 422.576332396 L 573 426.432540356 L 579 379.000448317 L 585 413.952616277 L 591 402.758964238 L 596 429.607232198 L 602 420.890320158 L 608 390.877308119 L 614 424.537556079 L 620 435.60936404"/>
			<path class="series-2-line" d="M 40 414.33 L 45 414.587821782 L 51 427.445643564 L 57 419.303465347 L 63 426.911287129 L 69 433.469108911 L 74 437.926930693 L 80 405.634752475 L 86 425.842574257 L 92 420.85039604 L 98 421.108217822 L 103 417.166039604 L 109 422.673861386 L 115 428.181683168 L 121 441.03950495 L 127 438.147326733 L 132 421.605148515 L 138 417.662970297 L 144 408.470792079 L 150 427.628613861 L 156 437.336435644 L 161 432.344257426 L 167 438.902079208 L 173 440.20990099 L 179 443.617722772 L 185 441.775544554 L 190 409.483366337 L 196 417.091188119 L 202 437.299009901 L 208 447.006831683 L 214 430.464653465 L 219 411.822475248 L 225 400.53029703 L 231 356.688118812 L 237 324.395940594 L 243 359.303762376 L 248 374.261584158 L 254 337.769405941 L 260 357.977227723 L 266 338.285049505 L 272 365.842871287 L 277 386.050693069 L 283 382.108514851 L 289 401.266336634 L 295 386.824158416 L 301 366.081980198 L 306 356.88980198 L 312 404.397623762 L 318 377.355445545 L 324 360.813267327 L 330 400.971089109 L 335 413.828910891 L 341 338.486732673 L 347 374.444554455 L 353 398.852376238 L 359 362.36019802 L 364 356.318019802 L 370 350.275841584 L 376 362.083663366 L 382 365.491485149 L 388 373.099306931 L 393 366.007128713 L 399 363.114950495 L 405 318.222772277 L 411 366.780594059 L 417 357.588415842 L 422 401.946237624 L 428 408.504059406 L 434 393.011881188 L 440 433.16970297 L 446 429.227524752 L 451 428.435346535 L 457 416.093168317 L 463 446.800990099 L 469 439.708811881 L 475 451.516633663 L 480 426.574455446 L 486 457.282277228 L 492 447.04009901 L 498 468.297920792 L 504 439.155742574 L 509 446.763564356 L 515 464.871386139 L 521 449.379207921 L 527 452.787029703 L 533 446.744851485 L 538 448.052673267 L 544 455.66049505 L 550 469.568316832 L 556 442.526138614 L 562 466.933960396 L 567 444.091782178 L 573 441.19960396 L 579 454.057425743 L 585 432.265247525 L 591 443.023069307 L 596 415.980891089 L 602 408.888712871 L 608 407.046534653 L 614 423.054356436 L 620 441.162178218"/>
		</g>
		<text class="x-axis-label" x="40.0" y="540">
			0
		</text>
		<path class="x-notch" d="M 69.0 525 L 69.0 530"/>
		<text class="x-axis-label" x="98.0" y="540">
			10
		</text>
		<path class="x-notch" d="M 127.0 525 L 127.0 530"/>
		<text class="x-axis-label" x="156.0" y="540">
			20
		</text>
		<path class="x-notch" d="M 185.0 525 L 185.0 530"/>
		<text class="x-axis-label" x="214.0" y="540">
			30
		</text>
		<path class="x-notch" d="M 243.0 525 L 243.0 530"/>
		<text class="x-axis-label" x="272.0" y="540">
			40
		</text>
		<path class="x-notch" d="M 301.0 525 L 301.0 530"/>
		<text class="x-axis-label" x="330.0" y="540">
			50
		</text>
		<path class="x-notch" d="M 359.0 525 L 359.0 530"/>
		<text class="x-axis-label" x="388.0" y="540">
			60
		</text>
		<path class="x-notch" d="M 417.0 525 L 417.0 530"/>
		<text class="x-axis-label" x="446.0" y="540">
			70
		</text>
		<path class="x-notch" d="M 475.0 525 L 475.0 530"/>
		<text class="x-axis-label" x="504.0" y="540">
			80
		</text>
		<path class="x-notch" d="M 533.0 525 L 533.0 530"/>
		<text class="x-axis-label" x="562.0" y="540">
			90
		</text>
		<path class="x-notch" d="M 591.0 525 L 591.0 530"/>
		<text class="x-axis-label" x="620.0" y="540">
			100
		</text>
	</g>
</svg>
