<?xml version="1.0" ?>
<svg height="600" version="1.1" width="800" xmlns="http://www.w3.org/2000/svg" xmlns:svg="http://www.w3.org/2000/svg">
	<style type="text/css">
		

.x-axis-path, .y-gridline, .x-notch { fill:none; stroke: #a7a9ac; stroke-width:1; }



.y-gridline { stroke-width: 1; }

.y-axis-path, .y-axis-path2, .x-notch-left, .x-notch-right { display: none;}



.x-axis-label, .data-point-label {font-size: 12px; font-weight:normal; font-family: sans-serif; fill: #58595b; text-anchor:middle;}

.y-axis-label {font-size: 12px; font-family: helvetica; fill: #a7a9ac; text-anchor:end;}



.series-1-line { fill: none; stroke: #10b80c; stroke-width:2; }



.series-2-line { fill: none; stroke: #e90f0a; stroke-width: 2;}

	</style>
	<rect fill="white" height="600" width="800" x="0" y="0"/>
	<g id="grid" transform="translate(70, 30)">
		<g class="x-axis" id="x_axis">
			<path class="x-axis-path" d="M 0 525 L 660 525"/>
			<path class="x-notch-left" d="M 0 525, L 0 535"/>
			<path class="x-notch-right" d="M 660 525, L 660 535"/>
		</g>
		<g class="y-axis" id="y_axis">
			<path class="y-axis-path" d="M 0 525 L 0 0"/>
			<path class="y-axis-path-2" d="M 660 525 L 660 0"/>
			<path class="y-gridline" d="M 0 525 L 660 525"/>
			<text class="y-axis-label" x="-5" y="525">
				-100
			</text>
			<path class="y-gridline" d="M 0 420 L 660 420"/>
			<text class="y-axis-label" x="-5" y="420">
				 0
			</text>
			<path class="y-gridline" d="M 0 315 L 660 315"/>
			<text class="y-axis-label" x="-5" y="315">
				100
			</text>
			<path class="y-gridline" d="M 0 210 L 660 210"/>
			<text class="y-axis-label" x="-5" y="210">
				200
			</text>
			<path class="y-gridline" d="M 0 105 L 660 105"/>
			<text class="y-axis-label" x="-5" y="105">
				300
			</text>
			<path class="y-gridline" d="M 0 0 L 660 0"/>
			<text class="y-axis-label" x="-5" y="0">
				400
			</text>
		</g>
		<g>
			<path class="series-1-line" d="M 40 409.03674 L 45 441.785684242 L 51 413.661088485 L 57 436.529112727 L 63 394.78181697 L 69 408.764741212 L 75 413.029285455 L 81 438.185469697 L 87 403.357253939 L 93 397.444358182 L 99 386.416282424 L 105 403.011186667 L 111 397.959710909 L 116 384.131495152 L 122 431.714839394 L 128 355.533003636 L 134 434.454647879 L 140 405.172112121 L 146 416.436796364 L 152 350.888940606 L 158 395.914064848 L 164 325.305629091 L 170 281.808193333 L 176 308.795157576 L 182 292.866521818 L 187 293.119226061 L 193 238.852990303 L 199 217.512654545 L 205 201.153938788 L 211 231.18296303 L 217 97.7622672727 L 223 146.530011515 L 229 136.686755758 L 235 32.18138 L 241 71.2576242424 L 247 120.617148485 L 253 106.250492727 L 258 182.15695697 L 264 120.702001212 L 270 93.1162654545 L 276 133.645289697 L 282 93.6745939394 L 288 135.927298182 L 294 136.260222424 L 300 86.9470466667 L 306 116.061310909 L 312 75.2023151515 L 318 145.400559394 L 324 117.733763636 L 330 17.2671078788 L 335 106.204492121 L 341 155.914296364 L 347 129.620900606 L 353 181.322344848 L 359 196.706389091 L 365 241.543353333 L 371 198.207197576 L 377 211.464361818 L 383 266.451046061 L 389 281.322270303 L 395 237.986954545 L 401 321.377818788 L 406 368.44960303 L 412 337.068327273 L 418 354.955151515 L 424 348.531115758 L 430 319.3036 L 436 374.990004242 L 442 325.219448485 L 448 383.813932727 L 454 398.41677697 L 460 369.835221212 L 466 377.195585455 L 472 419.852329697 L 477 419.055453939 L 483 403.180578182 L 489 420.448742424 L 495 407.455066667 L 501 429.730890909 L 507 454.456155152 L 513 404.120279394 L 519 449.118943636 L 525 408.690867879 L 531 438.747192121 L 537 407.365076364 L 543 427.675300606 L 548 430.404324848 L 554 457.526529091 L 560 416.209733333 L 566 452.458537576 L 572 414.749541818 L 578 454.794306061 L 584 453.808430303 L 590 437.880214545 L 596 428.790438788 L 602 407.39676303 L 608 419.791667273 L 614 433.263451515 L 620 417.066015758"/>
			<path class="series-2-line" d="M 40 402.15 L 45 427.243939394 L 51 407.187878788 L 57 417.581818182 L 63 434.275757576 L 69 397.41969697 L 75 443.513636364 L 81 424.507575758 L 87 426.501515152 L 93 422.195454545 L 99 437.839393939 L 105 444.033333333 L 111 428.177272727 L 116 430.171212121 L 122 434.265151515 L 128 458.309090909 L 134 446.653030303 L 140 402.446969697 L 146 462.190909091 L 152 424.284848485 L 158 376.928787879 L 164 432.472727273 L 170 435.516666667 L 176 417.560606061 L 182 378.604545455 L 187 395.298484848 L 193 440.342424242 L 199 385.636363636 L 205 413.88030303 L 211 371.774242424 L 217 356.968181818 L 223 340.062121212 L 229 375.656060606 L 235 354.55 L 241 416.393939394 L 247 348.037878788 L 253 352.131818182 L 258 360.425757576 L 264 380.26969697 L 270 399.063636364 L 276 356.957575758 L 282 342.151515152 L 288 358.845454545 L 294 321.989393939 L 300 290.383333333 L 306 309.177272727 L 312 310.121212121 L 318 266.965151515 L 324 257.409090909 L 330 261.503030303 L 335 284.496969697 L 341 243.440909091 L 347 265.384848485 L 353 159.228787879 L 359 231.572727273 L 365 213.616666667 L 371 191.460606061 L 377 268.004545455 L 383 222.748484848 L 389 170.142424242 L 395 229.886363636 L 401 217.18030303 L 406 219.174242424 L 412 297.818181818 L 418 266.212121212 L 424 300.756060606 L 430 371.0 L 436 298.443939394 L 442 297.287878788 L 448 262.531818182 L 454 292.875757576 L 460 344.21969697 L 466 357.763636364 L 472 393.357575758 L 477 451.001515152 L 483 403.645454545 L 489 427.689393939 L 495 422.333333333 L 501 443.227272727 L 507 409.521212121 L 513 414.665151515 L 519 412.459090909 L 525 428.103030303 L 531 422.746969697 L 537 419.490909091 L 543 419.384848485 L 548 377.278787879 L 554 420.222727273 L 560 410.666666667 L 566 422.110606061 L 572 423.054545455 L 578 415.598484848 L 584 420.742424242 L 590 422.736363636 L 596 422.63030303 L 602 417.274242424 L 608 423.468181818 L 614 425.462121212 L 620 428.506060606"/>
		</g>
		<text class="x-axis-label" x="40.0" y="540">
			0
		</text>
		<path class="x-notch" d="M 69.5918367347 525 L 69.5918367347 530"/>
		<text class="x-axis-label" x="99.1836734694" y="540">
			10
		</text>
		<path class="x-notch" d="M 128.775510204 525 L 128.775510204 530"/>
		<text class="x-axis-label" x="158.367346939" y="540">
			20
		</text>
		<path class="x-notch" d="M 187.959183673 525 L 187.959183673 530"/>
		<text class="x-axis-label" x="217.551020408" y="540">
			30
		</text>
		<path class="x-notch" d="M 247.142857143 525 L 247.142857143 530"/>
		<text class="x-axis-label" x="276.734693878" y="540">
			40
		</text>
		<path class="x-notch" d="M 306.326530612 525 L 306.326530612 530"/>
		<text class="x-axis-label" x="335.918367347" y="540">
			50
		</text>
		<path class="x-notch" d="M 365.510204082 525 L 365.510204082 530"/>
		<text class="x-axis-label" x="395.102040816" y="540">
			60
		</text>
		<path class="x-notch" d="M 424.693877551 525 L 424.693877551 530"/>
		<text class="x-axis-label" x="454.285714286" y="540">
			70
		</text>
		<path class="x-notch" d="M 483.87755102 525 L 483.87755102 530"/>
		<text class="x-axis-label" x="513.469387755" y="540">
			80
		</text>
		<path class="x-notch" d="M 543.06122449 525 L 543.06122449 530"/>
		<text class="x-axis-label" x="572.653061224" y="540">
			90
		</text>
		<path class="x-notch" d="M 602.244897959 525 L 602.244897959 530"/>
	</g>
</svg>
