<?xml version="1.0" ?>
<svg height="600" version="1.1" width="800" xmlns="http://www.w3.org/2000/svg" xmlns:svg="http://www.w3.org/2000/svg">
	<style type="text/css">
		

.x-axis-path, .y-gridline, .x-notch { fill:none; stroke: #a7a9ac; stroke-width:1; }



.y-gridline { stroke-width: 1; }

.y-axis-path, .y-axis-path2, .x-notch-left, .x-notch-right { display: none;}



.x-axis-label, .data-point-label {font-size: 12px; font-weight:normal; font-family: sans-serif; fill: #58595b; text-anchor:middle;}

.y-axis-label {font-size: 12px; font-family: helvetica; fill: #a7a9ac; text-anchor:end;}



.series-1-line { fill: none; stroke: #10b80c; stroke-width:2; }



.series-2-line { fill: none; stroke: #e90f0a; stroke-width: 2;}

	</style>
	<rect fill="white" height="600" width="800" x="0" y="0"/>
	<g id="grid" transform="translate(70, 30)">
		<g class="x-axis" id="x_axis">
			<path class="x-axis-path" d="M 0 525 L 660 525"/>
			<path class="x-notch-left" d="M 0 525, L 0 535"/>
			<path class="x-notch-right" d="M 660 525, L 660 535"/>
		</g>
		<g class="y-axis" id="y_axis">
			<path class="y-axis-path" d="M 0 525 L 0 0"/>
			<path class="y-axis-path-2" d="M 660 525 L 660 0"/>
			<path class="y-gridline" d="M 0 525 L 660 525"/>
			<text class="y-axis-label" x="-5" y="525">
				-100
			</text>
			<path class="y-gridline" d="M 0 420 L 660 420"/>
			<text class="y-axis-label" x="-5" y="420">
				 0
			</text>
			<path class="y-gridline" d="M 0 315 L 660 315"/>
			<text class="y-axis-label" x="-5" y="315">
				100
			</text>
			<path class="y-gridline" d="M 0 210 L 660 210"/>
			<text class="y-axis-label" x="-5" y="210">
				200
			</text>
			<path class="y-gridline" d="M 0 105 L 660 105"/>
			<text class="y-axis-label" x="-5" y="105">
				300
			</text>
			<path class="y-gridline" d="M 0 0 L 660 0"/>
			<text class="y-axis-label" x="-5" y="0">
				400
			</text>
		</g>
		<g>
			<path class="series-1-line" d="M 40 429.320892 L 45 412.82496075 L 50 432.3251295 L 55 400.80621825 L 60 422.110287 L 66 432.16087575 L 71 420.0262245 L 76 414.75773325 L 81 424.323222 L 87 421.04637075 L 92 417.2046195 L 97 404.23542825 L 102 409.493397 L 107 374.42044575 L 113 384.2555745 L 118 402.14042325 L 123 356.486832 L 128 300.19884075 L 134 361.3222695 L 139 360.01101825 L 144 342.707427 L 149 369.79951575 L 154 342.5347845 L 160 376.76183325 L 165 373.646682 L 170 373.76217075 L 175 325.0396395 L 181 340.44732825 L 186 242.400837 L 191 249.51688575 L 196 299.4401745 L 201 294.14438325 L 207 359.602632 L 212 218.55990075 L 217 269.9909895 L 222 351.11859825 L 228 320.192307 L 233 337.59247575 L 238 394.1925045 L 243 354.21983325 L 249 345.020142 L 254 347.28939075 L 259 336.3941595 L 264 349.62078825 L 269 304.666497 L 275 340.91374575 L 280 268.2289545 L 285 322.16366325 L 290 239.814252 L 296 221.05662075 L 301 236.7881295 L 306 270.20751825 L 311 168.338187 L 316 150.09253575 L 322 218.0275245 L 327 185.13563325 L 332 170.200842 L 337 138.95157075 L 343 177.7284795 L 348 121.68282825 L 353 134.829237 L 358 172.36756575 L 363 115.5675945 L 369 132.32180325 L 374 102.849132 L 379 38.75334075 L 384 52.7347095 L 390 128.31579825 L 395 128.619867 L 400 163.38535575 L 405 165.4933245 L 410 240.91313325 L 416 254.759262 L 421 300.48297075 L 426 266.6754795 L 431 364.54932825 L 437 346.733337 L 442 306.81526575 L 447 343.6269945 L 452 373.25042325 L 458 395.738892 L 463 389.82444075 L 468 417.5633295 L 473 418.21725825 L 478 424.229547 L 484 405.22999575 L 489 416.5187445 L 494 420.51125325 L 499 433.577022 L 505 445.67343075 L 510 444.2546595 L 515 389.85078825 L 520 435.116697 L 525 429.52438575 L 531 448.2979545 L 536 406.89812325 L 541 454.613892 L 546 432.54498075 L 552 446.4184095 L 557 405.69183825 L 562 395.765127 L 567 416.09983575 L 572 435.8158845 L 578 443.73875325 L 583 430.420122 L 588 425.17809075 L 593 446.7244995 L 599 424.03608825 L 604 409.963557 L 609 406.25620575 L 614 442.7449545 L 620 420.91796325"/>
			<path class="series-2-line" d="M 40 431.97 L 45 425.548125 L 50 413.87625 L 55 416.904375 L 60 410.4825 L 66 439.760625 L 71 408.13875 L 76 452.116875 L 81 434.145 L 87 413.023125 L 92 439.15125 L 97 414.879375 L 102 413.7075 L 107 397.835625 L 113 419.76375 L 118 414.391875 L 123 411.12 L 128 428.848125 L 134 435.02625 L 139 434.904375 L 144 431.6325 L 149 382.160625 L 154 417.73875 L 160 401.866875 L 165 396.495 L 170 378.523125 L 175 403.60125 L 181 375.129375 L 186 314.1075 L 191 350.735625 L 196 343.26375 L 201 350.491875 L 207 376.62 L 212 307.198125 L 217 310.22625 L 222 348.954375 L 228 382.4325 L 233 370.760625 L 238 345.43875 L 243 356.866875 L 249 358.845 L 254 332.473125 L 259 394.30125 L 264 337.479375 L 269 265.9575 L 275 344.585625 L 280 299.31375 L 285 280.291875 L 290 309.57 L 296 287.398125 L 301 331.37625 L 306 318.654375 L 311 280.7325 L 316 301.610625 L 322 309.88875 L 327 322.366875 L 332 277.095 L 337 320.023125 L 343 290.50125 L 348 311.379375 L 353 308.1075 L 358 267.035625 L 363 241.71375 L 369 248.941875 L 374 260.37 L 379 267.598125 L 384 297.92625 L 390 300.954375 L 395 294.5325 L 400 276.560625 L 405 275.38875 L 410 303.616875 L 416 273.045 L 421 306.523125 L 426 298.00125 L 431 345.129375 L 437 257.8575 L 442 342.785625 L 447 333.21375 L 452 339.391875 L 458 311.97 L 463 374.848125 L 468 388.37625 L 473 368.304375 L 478 413.3325 L 484 428.960625 L 489 428.83875 L 494 420.316875 L 499 429.645 L 505 426.373125 L 510 443.05125 L 515 412.479375 L 520 435.4575 L 525 406.985625 L 531 426.81375 L 536 415.141875 L 541 424.47 L 546 427.498125 L 552 433.67625 L 557 439.854375 L 562 432.3825 L 567 413.360625 L 572 449.98875 L 578 401.566875 L 583 431.895 L 588 430.723125 L 593 427.45125 L 599 404.229375 L 604 429.3075 L 609 434.435625 L 614 434.31375 L 620 399.541875"/>
		</g>
		<text class="x-axis-label" x="40.0" y="540">
			0
		</text>
		<path class="x-notch" d="M 66.1261261261 525 L 66.1261261261 530"/>
		<text class="x-axis-label" x="92.2522522523" y="540">
			10
		</text>
		<path class="x-notch" d="M 118.378378378 525 L 118.378378378 530"/>
		<text class="x-axis-label" x="144.504504505" y="540">
			20
		</text>
		<path class="x-notch" d="M 170.630630631 525 L 170.630630631 530"/>
		<text class="x-axis-label" x="196.756756757" y="540">
			30
		</text>
		<path class="x-notch" d="M 222.882882883 525 L 222.882882883 530"/>
		<text class="x-axis-label" x="249.009009009" y="540">
			40
		</text>
		<path class="x-notch" d="M 275.135135135 525 L 275.135135135 530"/>
		<text class="x-axis-label" x="301.261261261" y="540">
			50
		</text>
		<path class="x-notch" d="M 327.387387387 525 L 327.387387387 530"/>
		<text class="x-axis-label" x="353.513513514" y="540">
			60
		</text>
		<path class="x-notch" d="M 379.63963964 525 L 379.63963964 530"/>
		<text class="x-axis-label" x="405.765765766" y="540">
			70
		</text>
		<path class="x-notch" d="M 431.891891892 525 L 431.891891892 530"/>
		<text class="x-axis-label" x="458.018018018" y="540">
			80
		</text>
		<path class="x-notch" d="M 484.144144144 525 L 484.144144144 530"/>
		<text class="x-axis-label" x="510.27027027" y="540">
			90
		</text>
		<path class="x-notch" d="M 536.396396396 525 L 536.396396396 530"/>
		<text class="x-axis-label" x="562.522522523" y="540">
			100
		</text>
		<path class="x-notch" d="M 588.648648649 525 L 588.648648649 530"/>
		<text class="x-axis-label" x="614.774774775" y="540">
			110
		</text>
		<path class="x-notch" d="M 640.900900901 525 L 640.900900901 530"/>
	</g>
</svg>
