<?xml version="1.0" ?>
<svg height="600" version="1.1" width="800" xmlns="http://www.w3.org/2000/svg" xmlns:svg="http://www.w3.org/2000/svg">
	<style type="text/css">

.x-axis-path, .y-gridline, .x-notch { fill:none; stroke: #a7a9ac; stroke-width:1; }



.y-gridline { stroke-width: 1; }

.y-axis-path, .y-axis-path2, .x-notch-left, .x-notch-right { display: none;}



.x-axis-label, .data-point-label {font-size: 12px; font-weight:normal; font-family: sans-serif; fill: #58595b; text-anchor:middle;}

.y-axis-label {font-size: 12px; font-family: helvetica; fill: #a7a9ac; text-anchor:end;}



.series-1-line { fill: none; stroke: #10b80c; stroke-width:2; }



.series-2-line { fill: none; stroke: #e90f0a; stroke-width: 2;}
</style>
	<rect fill="white" height="600" width="800" x="0" y="0"/>
	<g id="grid" transform="translate(70, 30)">
		<g class="x-axis" id="x_axis">
			<path class="x-axis-path" d="M 0 525 L 660 525"/>
			<path class="x-notch-left" d="M 0 525, L 0 535"/>
			<path class="x-notch-right" d="M 660 525, L 660 535"/>
		</g>
		<g class="y-axis" id="y_axis">
			<path class="y-axis-path" d="M 0 525 L 0 0"/>
			<path class="y-axis-path-2" d="M 660 525 L 660 0"/>
			<path class="y-gridline" d="M 0 525 L 660 525"/>
			<text class="y-axis-label" x="-5" y="525">-200</text>
			<path class="y-gridline" d="M 0 394 L 660 394"/>
			<text class="y-axis-label" x="-5" y="394"> 0</text>
			<path class="y-gridline" d="M 0 263 L 660 263"/>
			<text class="y-axis-label" x="-5" y="263">200</text>
			<path class="y-gridline" d="M 0 132 L 660 132"/>
			<text class="y-axis-label" x="-5" y="132">400</text>
			<path class="y-gridline" d="M 0 1 L 660 1"/>
			<text class="y-axis-label" x="-5" y="1">600</text>
		</g>
		<g>
			<path class="series-1-line" d="M 40 408.493271961 L 45 407.575810112 L 50 368.660007467 L 55 365.879931707 L 60 421.076256473 L 65 363.114427503 L 70 369.741133149 L 75 353.503599243 L 80 382.295701001 L 85 327.035533938 L 90 336.595638558 L 95 365.99359835 L 100 268.58852255 L 105 259.335790808 L 110 331.249874512 L 115 269.097164243 L 120 185.057287632 L 125 195.176031136 L 130 226.204141323 L 135 219.791823149 L 140 237.734416814 L 145 288.36719221 L 150 231.615626412 L 156 178.031375999 L 161 163.888919519 L 166 203.251573151 L 171 177.188097066 L 176 153.778337288 L 181 158.216980104 L 186 155.390411642 L 191 198.200063325 L 196 141.961370156 L 201 109.750687008 L 206 65.898666921 L 211 170.409946951 L 216 77.9883077437 L 221 101.751206654 L 226 184.421813044 L 231 24.5704992034 L 236 1.86030931504 L 241 150.703108015 L 246 114.114846309 L 251 37.9918052651 L 256 102.734389545 L 261 27.4954363051 L 266 124.137099919 L 272 147.295593691 L 277 195.972043323 L 282 180.106451041 L 287 73.667988356 L 292 108.561530921 L 297 80.914397143 L 302 206.799244437 L 307 55.610102307 L 312 119.607350444 L 317 111.424677317 L 322 67.2007156069 L 327 124.398405943 L 332 105.600141136 L 337 0.0 L 342 99.3418726251 L 347 11.2970855278 L 352 117.53077491 L 357 77.4039826439 L 362 128.083250743 L 367 109.051069524 L 372 160.242483804 L 377 177.067799702 L 382 17.4496758241 L 388 64.4967015088 L 393 62.461961893 L 398 108.53118792 L 403 165.170965821 L 408 75.8701492971 L 413 151.694705184 L 418 133.500119066 L 423 41.6843378938 L 428 206.081125062 L 433 203.022093085 L 438 157.632908008 L 443 172.082737367 L 448 213.495428618 L 453 260.402976194 L 458 183.860774376 L 463 281.666208459 L 468 205.309251004 L 473 285.000692166 L 478 253.16267709 L 483 294.249192972 L 488 282.620974691 L 493 286.733442137 L 498 268.632567873 L 504 334.026776443 L 509 219.624985488 L 514 257.544912433 L 519 260.725346476 L 524 233.264909958 L 529 266.155634056 L 534 308.499632262 L 539 295.195497331 L 544 279.050948831 L 549 356.552874265 L 554 375.985413769 L 559 375.442072888 L 564 396.22580657 L 569 345.202287059 L 574 356.299556669 L 579 325.672531214 L 584 383.056918811 L 589 394.619841898 L 594 394.959862373 L 599 379.373952757 L 604 405.046684729 L 609 399.053527329 L 614 365.772059118 L 620 415.100859487"/>
			<path class="series-2-line" d="M 40 402.830606037 L 45 378.61356911 L 50 403.431804781 L 55 386.479252684 L 60 391.320155074 L 65 412.506148331 L 70 415.530929514 L 75 443.9814076 L 80 388.890310149 L 85 484.537272905 L 90 454.871872357 L 95 446.999926296 L 100 388.27658643 L 105 389.485246406 L 110 407.038997248 L 115 444.57008137 L 120 425.801408066 L 125 379.790916651 L 130 400.976909908 L 135 384.02435781 L 140 392.497502616 L 145 400.970647421 L 150 374.937489287 L 156 421.549179446 L 161 406.412748556 L 166 331.344317824 L 171 334.369099008 L 176 277.461880349 L 181 338.602540167 L 186 328.914472899 L 191 353.73270857 L 196 389.447671485 L 201 359.782270936 L 206 375.519900571 L 211 407.602621071 L 216 421.524129498 L 221 371.881395669 L 226 340.399873913 L 231 319.815079401 L 236 366.42676956 L 241 353.106459878 L 246 298.015362427 L 251 319.201355683 L 256 322.226136866 L 261 276.215645452 L 266 331.907941647 L 272 376.703510599 L 277 336.141382807 L 282 306.475982258 L 287 311.316884649 L 292 367.009180844 L 297 333.711537881 L 302 289.517167674 L 307 334.312736625 L 312 311.911820906 L 317 216.866056894 L 322 290.719565163 L 327 195.673801151 L 332 269.52730942 L 337 285.264939054 L 342 273.760750579 L 347 242.279228823 L 352 218.062191896 L 357 219.270851872 L 362 220.479511848 L 367 188.997990092 L 372 181.126044032 L 377 222.289370569 L 382 236.210878996 L 388 237.419538972 L 393 245.892683777 L 398 257.998070997 L 403 250.126124936 L 408 343.956966485 L 413 247.095081266 L 418 155.681559669 L 423 216.822219486 L 428 256.169424815 L 433 282.803781694 L 438 254.954502353 L 443 241.63419267 L 448 271.900791963 L 453 294.902906427 L 458 310.640536061 L 463 326.378165695 L 468 242.229128928 L 473 321.531000818 L 478 304.578448721 L 483 314.867714733 L 488 261.59273849 L 493 302.756065027 L 498 267.642300856 L 504 239.793021515 L 509 211.943742174 L 514 220.416886979 L 519 194.383728845 L 524 202.85687365 L 529 216.778382077 L 534 243.412738956 L 539 239.17303531 L 544 253.094543737 L 549 248.854840091 L 554 237.350651615 L 559 367.503917311 L 564 428.644577128 L 569 429.853237104 L 574 443.774745531 L 579 450.431769129 L 584 397.156792885 L 589 409.262180105 L 594 401.390234045 L 599 398.966651606 L 604 405.623675204 L 609 394.119486728 L 614 389.879783082 L 620 389.272321851"/>
		</g>
		<text class="x-axis-label" x="40.0" y="540">0</text>
		<path class="x-notch" d="M 65.2173913043 525 L 65.2173913043 530"/>
		<text class="x-axis-label" x="90.4347826087" y="540">10</text>
		<path class="x-notch" d="M 115.652173913 525 L 115.652173913 530"/>
		<text class="x-axis-label" x="140.869565217" y="540">20</text>
		<path class="x-notch" d="M 166.086956522 525 L 166.086956522 530"/>
		<text class="x-axis-label" x="191.304347826" y="540">30</text>
		<path class="x-notch" d="M 216.52173913 525 L 216.52173913 530"/>
		<text class="x-axis-label" x="241.739130435" y="540">40</text>
		<path class="x-notch" d="M 266.956521739 525 L 266.956521739 530"/>
		<text class="x-axis-label" x="292.173913043" y="540">50</text>
		<path class="x-notch" d="M 317.391304348 525 L 317.391304348 530"/>
		<text class="x-axis-label" x="342.608695652" y="540">60</text>
		<path class="x-notch" d="M 367.826086957 525 L 367.826086957 530"/>
		<text class="x-axis-label" x="393.043478261" y="540">70</text>
		<path class="x-notch" d="M 418.260869565 525 L 418.260869565 530"/>
		<text class="x-axis-label" x="443.47826087" y="540">80</text>
		<path class="x-notch" d="M 468.695652174 525 L 468.695652174 530"/>
		<text class="x-axis-label" x="493.913043478" y="540">90</text>
		<path class="x-notch" d="M 519.130434783 525 L 519.130434783 530"/>
		<text class="x-axis-label" x="544.347826087" y="540">100</text>
		<path class="x-notch" d="M 569.565217391 525 L 569.565217391 530"/>
		<text class="x-axis-label" x="594.782608696" y="540">110</text>
		<path class="x-notch" d="M 620.0 525 L 620.0 530"/>
	</g>
</svg>
