<?xml version="1.0" ?>
<svg height="600" version="1.1" width="800" xmlns="http://www.w3.org/2000/svg" xmlns:svg="http://www.w3.org/2000/svg">
	<style type="text/css">

.x-axis-path, .y-gridline, .x-notch { fill:none; stroke: #a7a9ac; stroke-width:1; }



.y-gridline { stroke-width: 1; }

.y-axis-path, .y-axis-path2, .x-notch-left, .x-notch-right { display: none;}



.x-axis-label, .data-point-label {font-size: 12px; font-weight:normal; font-family: sans-serif; fill: #58595b; text-anchor:middle;}

.y-axis-label {font-size: 12px; font-family: helvetica; fill: #a7a9ac; text-anchor:end;}



.series-1-line { fill: none; stroke: #10b80c; stroke-width:2; }



.series-2-line { fill: none; stroke: #e90f0a; stroke-width: 2;}
</style>
	<rect fill="white" height="600" width="800" x="0" y="0"/>
	<g id="grid" transform="translate(70, 30)">
		<g class="x-axis" id="x_axis">
			<path class="x-axis-path" d="M 0 525 L 660 525"/>
			<path class="x-notch-left" d="M 0 525, L 0 535"/>
			<path class="x-notch-right" d="M 660 525, L 660 535"/>
		</g>
		<g class="y-axis" id="y_axis">
			<path class="y-axis-path" d="M 0 525 L 0 0"/>
			<path class="y-axis-path-2" d="M 660 525 L 660 0"/>
			<path class="y-gridline" d="M 0 525 L 660 525"/>
			<text class="y-axis-label" x="-5" y="525">-200</text>
			<path class="y-gridline" d="M 0 394 L 660 394"/>
			<text class="y-axis-label" x="-5" y="394"> 0</text>
			<path class="y-gridline" d="M 0 263 L 660 263"/>
			<text class="y-axis-label" x="-5" y="263">200</text>
			<path class="y-gridline" d="M 0 132 L 660 132"/>
			<text class="y-axis-label" x="-5" y="132">400</text>
			<path class="y-gridline" d="M 0 1 L 660 1"/>
			<text class="y-axis-label" x="-5" y="1">600</text>
		</g>
		<g>
			<path class="series-1-line" d="M 40 413.954613994 L 46 434.036817674 L 52 386.024497585 L 59 337.891046718 L 65 394.805886013 L 72 420.985851176 L 78 351.793402095 L 85 411.837347491 L 91 473.467408485 L 98 430.903436697 L 104 430.984475355 L 110 402.810966992 L 117 335.651105072 L 123 391.101593741 L 130 359.594769272 L 136 333.616835558 L 143 378.822577581 L 149 395.653275995 L 156 379.269407359 L 162 360.893539886 L 168 376.138756894 L 175 341.134994638 L 181 464.354666291 L 188 411.505359532 L 194 423.903051938 L 201 432.684578355 L 207 391.543734676 L 214 383.290848877 L 220 363.57239575 L 226 427.885725474 L 233 375.564701119 L 239 359.790291536 L 246 276.816838082 L 252 255.717113555 L 259 257.139469482 L 265 164.285930105 L 272 130.909505963 L 278 227.013640434 L 284 139.852613494 L 291 141.599676013 L 297 61.3500796129 L 304 84.0337411815 L 310 27.1998025558 L 317 60.6983498843 L 323 59.0296512645 L 330 52.9717059231 L 336 0.0 L 342 36.9948509228 L 349 38.4990176907 L 355 43.2141014 L 362 62.6862118347 L 368 125.291660989 L 375 27.4387816453 L 381 128.136372844 L 388 101.385992589 L 394 76.9529519563 L 400 28.9406318681 L 407 38.8998538727 L 413 120.044019999 L 420 230.864592872 L 426 145.816695548 L 433 173.460377144 L 439 72.0693374974 L 446 120.730794791 L 452 113.900402909 L 458 303.833961122 L 465 134.675006877 L 471 126.664382637 L 478 407.945769096 L 484 274.236276489 L 491 277.936652099 L 497 356.519314468 L 504 325.826159055 L 510 312.044382501 L 516 336.843076264 L 523 385.056793609 L 529 354.973097248 L 536 344.644499194 L 542 299.317350414 L 549 344.034129972 L 555 330.701995944 L 562 346.515449488 L 568 385.33931176 L 574 417.292331815 L 581 399.729499206 L 587 385.418806055 L 594 388.304244223 L 600 406.639247394 L 607 408.71228489 L 613 383.303221904 L 620 384.846708611"/>
			<path class="series-2-line" d="M 40 382.968726446 L 46 371.849449164 L 52 348.046320642 L 59 405.102743775 L 65 460.573685503 L 72 425.672187146 L 78 428.822242509 L 85 366.967560266 L 91 366.946652819 L 98 420.832113142 L 104 438.25150115 L 110 411.277409818 L 117 406.500058156 L 123 381.111448229 L 130 379.505059377 L 136 381.069633334 L 143 346.168134977 L 149 409.56648373 L 156 398.447206448 L 162 388.913410571 L 168 452.311759324 L 175 377.773225842 L 181 353.97009732 L 188 404.684594833 L 194 293.679989035 L 201 376.104114648 L 207 455.357277452 L 214 474.362146865 L 220 364.943022472 L 226 379.19144767 L 233 409.294686918 L 239 364.880300131 L 246 415.594797644 L 252 398.133594742 L 259 391.770761675 L 265 314.061265382 L 272 356.84835587 L 278 358.412929828 L 284 382.174243456 L 291 325.076005429 L 297 383.717909967 L 304 337.718041775 L 310 329.769727302 L 317 389.997113246 L 323 247.282879348 L 330 232.992639256 L 336 240.899138834 L 342 312.224894612 L 349 355.0119851 L 355 329.623375173 L 362 289.9654326 L 368 261.405859863 L 375 283.581692086 L 381 248.680193729 L 388 247.073804877 L 394 254.980304455 L 400 231.177175932 L 407 191.51923336 L 413 239.062768063 L 420 232.699934996 L 426 174.016215564 L 433 158.140494067 L 439 51.8923324838 L 446 34.4311295816 L 452 16.9699266794 L 458 159.642345683 L 465 175.476252286 L 471 32.7620183882 L 478 146.895772102 L 484 135.77649482 L 491 268.936025393 L 497 283.184450591 L 504 340.240873725 L 510 356.074780328 L 516 413.131203461 L 523 341.763632788 L 529 365.524946416 L 536 151.464049293 L 542 327.431577802 L 549 183.131862499 L 555 438.373461258 L 562 412.984851331 L 568 446.259053389 L 574 438.310738917 L 581 425.60598023 L 587 400.217370303 L 594 351.0465393 L 600 427.128739294 L 607 442.962645897 L 613 417.574035969 L 620 330.351651247"/>
		</g>
		<text class="x-axis-label" x="40.0" y="540">0</text>
		<path class="x-notch" d="M 72.2222222222 525 L 72.2222222222 530"/>
		<text class="x-axis-label" x="104.444444444" y="540">10</text>
		<path class="x-notch" d="M 136.666666667 525 L 136.666666667 530"/>
		<text class="x-axis-label" x="168.888888889" y="540">20</text>
		<path class="x-notch" d="M 201.111111111 525 L 201.111111111 530"/>
		<text class="x-axis-label" x="233.333333333" y="540">30</text>
		<path class="x-notch" d="M 265.555555556 525 L 265.555555556 530"/>
		<text class="x-axis-label" x="297.777777778" y="540">40</text>
		<path class="x-notch" d="M 330.0 525 L 330.0 530"/>
		<text class="x-axis-label" x="362.222222222" y="540">50</text>
		<path class="x-notch" d="M 394.444444444 525 L 394.444444444 530"/>
		<text class="x-axis-label" x="426.666666667" y="540">60</text>
		<path class="x-notch" d="M 458.888888889 525 L 458.888888889 530"/>
		<text class="x-axis-label" x="491.111111111" y="540">70</text>
		<path class="x-notch" d="M 523.333333333 525 L 523.333333333 530"/>
		<text class="x-axis-label" x="555.555555556" y="540">80</text>
		<path class="x-notch" d="M 587.777777778 525 L 587.777777778 530"/>
		<text class="x-axis-label" x="620.0" y="540">90</text>
	</g>
</svg>
