<?xml version="1.0" ?>
<svg height="600" version="1.1" width="800" xmlns="http://www.w3.org/2000/svg" xmlns:svg="http://www.w3.org/2000/svg">
	<style type="text/css">

.x-axis-path, .y-gridline, .x-notch { fill:none; stroke: #a7a9ac; stroke-width:1; }



.y-gridline { stroke-width: 1; }

.y-axis-path, .y-axis-path2, .x-notch-left, .x-notch-right { display: none;}



.x-axis-label, .data-point-label {font-size: 12px; font-weight:normal; font-family: sans-serif; fill: #58595b; text-anchor:middle;}

.y-axis-label {font-size: 12px; font-family: helvetica; fill: #a7a9ac; text-anchor:end;}



.series-1-line { fill: none; stroke: #10b80c; stroke-width:2; }



.series-2-line { fill: none; stroke: #e90f0a; stroke-width: 2;}
</style>
	<rect fill="white" height="600" width="800" x="0" y="0"/>
	<g id="grid" transform="translate(70, 30)">
		<g class="x-axis" id="x_axis">
			<path class="x-axis-path" d="M 0 525 L 660 525"/>
			<path class="x-notch-left" d="M 0 525, L 0 535"/>
			<path class="x-notch-right" d="M 660 525, L 660 535"/>
		</g>
		<g class="y-axis" id="y_axis">
			<path class="y-axis-path" d="M 0 525 L 0 0"/>
			<path class="y-axis-path-2" d="M 660 525 L 660 0"/>
			<path class="y-gridline" d="M 0 525 L 660 525"/>
			<text class="y-axis-label" x="-5" y="525">-200</text>
			<path class="y-gridline" d="M 0 394 L 660 394"/>
			<text class="y-axis-label" x="-5" y="394"> 0</text>
			<path class="y-gridline" d="M 0 263 L 660 263"/>
			<text class="y-axis-label" x="-5" y="263">200</text>
			<path class="y-gridline" d="M 0 132 L 660 132"/>
			<text class="y-axis-label" x="-5" y="132">400</text>
			<path class="y-gridline" d="M 0 1 L 660 1"/>
			<text class="y-axis-label" x="-5" y="1">600</text>
		</g>
		<g>
			<path class="series-1-line" d="M 40 393.006530868 L 47 386.60522357 L 54 425.72181116 L 62 382.03150276 L 69 388.031087045 L 76 385.744669339 L 84 368.417544382 L 91 378.134917026 L 98 329.024198925 L 106 336.811845508 L 113 338.838646661 L 120 354.969403438 L 128 278.445419257 L 135 287.453144992 L 142 243.223628897 L 150 209.465278324 L 157 180.673570714 L 164 153.782813712 L 172 182.570342242 L 179 200.375387608 L 186 106.001326692 L 194 126.757848004 L 201 117.007520828 L 208 118.183011311 L 216 136.300159653 L 223 62.8126496745 L 230 81.7244431827 L 238 82.1336212518 L 245 162.34199656 L 252 94.9274349865 L 260 89.2636646504 L 267 121.28599665 L 274 35.2271558751 L 282 13.9272477879 L 289 85.1111987453 L 296 20.5347821076 L 304 88.2284921242 L 311 36.0812998212 L 318 162.063892886 L 326 128.844750008 L 333 147.07567206 L 341 42.7125451132 L 348 78.1405624951 L 355 77.7267626457 L 363 100.866776756 L 370 48.7479172054 L 377 101.344697166 L 385 103.598603038 L 392 7.52192078072 L 399 13.1810693365 L 407 40.4359730389 L 414 89.5987348639 L 421 75.7339607951 L 429 50.6591561449 L 436 89.5211916621 L 443 0.0 L 451 2.62267435324 L 458 63.4487907986 L 465 68.4549579506 L 473 12.5908626873 L 480 72.1968999809 L 487 114.293296268 L 495 69.0703630415 L 502 56.7948793047 L 509 179.88266193 L 517 232.905318575 L 524 321.173476552 L 531 370.676674106 L 539 334.761935453 L 546 311.787738777 L 553 367.846426925 L 561 367.404294323 L 568 364.379896956 L 575 413.372219568 L 583 402.373480488 L 590 441.121742296 L 597 388.804110779 L 605 380.274305454 L 612 385.33758081 L 620 363.243027557"/>
			<path class="series-2-line" d="M 40 397.512943683 L 47 420.666114815 L 54 378.521145565 L 62 391.713583419 L 69 379.450814004 L 76 408.137725847 L 84 409.155934138 L 91 421.241623849 L 98 416.726091429 L 106 427.705032999 L 113 430.936737574 L 120 435.27519029 L 128 434.079902297 L 135 427.350873593 L 142 438.329815163 L 150 412.786068044 L 157 432.618994749 L 164 414.822484625 L 172 430.228418763 L 179 432.353375195 L 186 410.129872503 L 194 426.642554782 L 201 411.059540942 L 208 417.611489943 L 216 414.202705665 L 223 414.114165814 L 230 416.239122247 L 238 412.830337969 L 245 391.713583419 L 252 393.838539851 L 260 388.21625929 L 267 373.739993591 L 274 392.466172155 L 282 408.978854435 L 289 371.260877753 L 296 405.481530306 L 304 394.325509034 L 311 388.703228472 L 318 391.934933047 L 326 368.604682212 L 333 390.651105202 L 341 372.854595078 L 348 388.260529215 L 355 383.744996796 L 363 373.695723666 L 370 363.646450536 L 377 376.838888389 L 385 387.817829959 L 392 372.234816118 L 399 369.932779983 L 407 365.417247563 L 414 353.154478149 L 421 375.200901139 L 429 333.055931889 L 436 373.917073294 L 443 371.615037159 L 451 368.206252881 L 458 349.302994615 L 465 319.332254927 L 473 375.687870321 L 480 374.492582328 L 487 342.308346357 L 495 335.579317653 L 502 368.693222064 L 509 348.683215655 L 517 381.797120066 L 524 398.309802345 L 531 376.086299653 L 539 384.851744938 L 546 403.577923502 L 553 394.635398514 L 561 394.546858662 L 568 408.846044658 L 575 379.982053113 L 583 386.534002114 L 590 401.939936251 L 597 379.716433559 L 605 389.588626986 L 612 393.927079703 L 620 404.906021272"/>
		</g>
		<text class="x-axis-label" x="40.0" y="540">0</text>
		<path class="x-notch" d="M 76.7088607595 525 L 76.7088607595 530"/>
		<text class="x-axis-label" x="113.417721519" y="540">10</text>
		<path class="x-notch" d="M 150.126582278 525 L 150.126582278 530"/>
		<text class="x-axis-label" x="186.835443038" y="540">20</text>
		<path class="x-notch" d="M 223.544303797 525 L 223.544303797 530"/>
		<text class="x-axis-label" x="260.253164557" y="540">30</text>
		<path class="x-notch" d="M 296.962025316 525 L 296.962025316 530"/>
		<text class="x-axis-label" x="333.670886076" y="540">40</text>
		<path class="x-notch" d="M 370.379746835 525 L 370.379746835 530"/>
		<text class="x-axis-label" x="407.088607595" y="540">50</text>
		<path class="x-notch" d="M 443.797468354 525 L 443.797468354 530"/>
		<text class="x-axis-label" x="480.506329114" y="540">60</text>
		<path class="x-notch" d="M 517.215189873 525 L 517.215189873 530"/>
		<text class="x-axis-label" x="553.924050633" y="540">70</text>
		<path class="x-notch" d="M 590.632911392 525 L 590.632911392 530"/>
	</g>
</svg>
