<?xml version="1.0" ?>
<svg height="600" version="1.1" width="800" xmlns="http://www.w3.org/2000/svg" xmlns:svg="http://www.w3.org/2000/svg">
	<style type="text/css">
		

.x-axis-path, .y-gridline, .x-notch { fill:none; stroke: #a7a9ac; stroke-width:1; }



.y-gridline { stroke-width: 1; }

.y-axis-path, .y-axis-path2, .x-notch-left, .x-notch-right { display: none;}



.x-axis-label, .data-point-label {font-size: 12px; font-weight:normal; font-family: sans-serif; fill: #58595b; text-anchor:middle;}

.y-axis-label {font-size: 12px; font-family: helvetica; fill: #a7a9ac; text-anchor:end;}



.series-1-line { fill: none; stroke: #10b80c; stroke-width:2; }



.series-2-line { fill: none; stroke: #e90f0a; stroke-width: 2;}

	</style>
	<rect fill="white" height="600" width="800" x="0" y="0"/>
	<g id="grid" transform="translate(70, 30)">
		<g class="x-axis" id="x_axis">
			<path class="x-axis-path" d="M 0 525 L 660 525"/>
			<path class="x-notch-left" d="M 0 525, L 0 535"/>
			<path class="x-notch-right" d="M 660 525, L 660 535"/>
		</g>
		<g class="y-axis" id="y_axis">
			<path class="y-axis-path" d="M 0 525 L 0 0"/>
			<path class="y-axis-path-2" d="M 660 525 L 660 0"/>
			<path class="y-gridline" d="M 0 525 L 660 525"/>
			<text class="y-axis-label" x="-5" y="525">
				-200
			</text>
			<path class="y-gridline" d="M 0 394 L 660 394"/>
			<text class="y-axis-label" x="-5" y="394">
				 0
			</text>
			<path class="y-gridline" d="M 0 263 L 660 263"/>
			<text class="y-axis-label" x="-5" y="263">
				200
			</text>
			<path class="y-gridline" d="M 0 132 L 660 132"/>
			<text class="y-axis-label" x="-5" y="132">
				400
			</text>
			<path class="y-gridline" d="M 0 1 L 660 1"/>
			<text class="y-axis-label" x="-5" y="1">
				600
			</text>
		</g>
		<g>
			<path class="series-1-line" d="M 40 387.283926406 L 43 404.240319688 L 46 381.651806842 L 49 417.36649954 L 52 377.837077293 L 55 334.085974755 L 58 355.050630052 L 61 367.037545407 L 64 409.432396908 L 68 452.254084962 L 71 313.380122109 L 74 392.701337519 L 77 393.893122919 L 80 417.04948388 L 83 406.270671471 L 86 388.972597631 L 89 422.656482037 L 93 347.055202654 L 96 377.47862268 L 99 350.989390623 L 102 423.63044723 L 105 403.980604018 L 108 383.797215114 L 111 386.485429448 L 114 394.197309943 L 117 352.637079405 L 121 351.905599316 L 124 367.633170175 L 127 380.04775575 L 130 333.197086205 L 133 373.721193121 L 136 322.061109357 L 139 329.986408129 L 142 332.567913325 L 146 275.457326846 L 149 288.726419194 L 152 227.71427984 L 155 309.440619191 L 158 225.128372714 L 161 250.154644594 L 164 285.548376211 L 167 199.419573384 L 170 223.270377411 L 174 226.973995891 L 177 153.135918289 L 180 167.474603017 L 183 140.183385091 L 186 148.589708652 L 189 122.580667718 L 192 228.835936615 L 195 95.8935012653 L 199 210.859737257 L 202 142.472162369 L 205 92.8428868971 L 208 62.1844954527 L 211 66.4224932906 L 214 75.4173844429 L 217 105.627386192 L 220 47.3404981943 L 223 27.1037547209 L 227 111.875472845 L 230 99.3334586548 L 233 93.2039967561 L 236 125.765767877 L 239 43.6443933998 L 242 0.0 L 245 91.6661288686 L 248 71.9095765184 L 252 102.921564136 L 255 49.177317511 L 258 48.2315854806 L 261 102.436971083 L 264 124.417030525 L 267 174.559965878 L 270 71.9712784385 L 273 199.763452677 L 276 140.407805965 L 280 102.374812653 L 283 129.485247394 L 286 174.33774374 L 289 132.991765144 L 292 127.664289114 L 295 123.512280938 L 298 208.070580785 L 301 188.902596027 L 305 221.035863264 L 308 229.175413978 L 311 260.720947288 L 314 164.705709513 L 317 130.680978215 L 320 237.04295625 L 323 165.61000259 L 326 156.595225626 L 330 186.858581944 L 333 183.615268775 L 336 236.216682639 L 339 264.930255454 L 342 272.374529437 L 345 293.232475595 L 348 316.923215914 L 351 286.58578555 L 354 323.101630452 L 358 250.760815449 L 361 306.247544378 L 364 311.875262012 L 367 293.615138596 L 370 359.202554415 L 373 377.815440339 L 376 380.343590966 L 379 412.905362087 L 383 365.841274265 L 386 420.686914698 L 389 395.907529852 L 392 406.718977354 L 395 374.510802406 L 398 406.965030724 L 401 382.666670666 L 404 411.380243481 L 407 384.142380124 L 411 405.748123917 L 414 386.580139159 L 417 417.377874834 L 420 400.614180353 L 423 396.943196965 L 426 415.289310043 L 429 403.709345429 L 432 421.307660873 L 436 414.430401339 L 439 349.891024759 L 442 393.193737601 L 445 420.785197131 L 448 385.050618622 L 451 417.45149237 L 454 432.377911025 L 457 372.434530386 L 460 411.462208368 L 464 370.917381975 L 467 379.644666616 L 470 374.74402714 L 473 382.776868716 L 476 349.927605272 L 479 398.788363632 L 482 412.859441849 L 485 385.087199135 L 489 438.383056064 L 492 423.062435948 L 495 403.840262955 L 498 388.519642839 L 501 387.09288602 L 504 415.005306631 L 507 434.420178424 L 510 406.754644848 L 513 421.734418072 L 517 413.520793312 L 520 412.842667793 L 523 447.167640695 L 526 433.663576928 L 529 403.539564842 L 532 434.230591379 L 535 437.079703086 L 538 414.330292867 L 542 403.071289335 L 545 396.781763728 L 548 387.552734822 L 551 409.853755345 L 554 432.742509795 L 557 434.415319984 L 560 412.735502145 L 563 402.544423663 L 566 416.508792741 L 570 439.344192622 L 573 423.862675132 L 576 421.528056971 L 579 447.248771917 L 582 433.531289873 L 585 387.482606197 L 588 431.212989259 L 591 421.823896645 L 595 411.900424674 L 598 392.731606251 L 601 398.252614746 L 604 404.468066306 L 607 381.077567592 L 610 406.26390318 L 613 375.819763677 L 616 438.788637278 L 620 367.355683618"/>
			<path class="series-2-line" d="M 40 410.840135462 L 43 360.773416719 L 46 383.652398116 L 49 414.868030959 L 52 398.147917995 L 55 389.764456475 L 58 364.707692066 L 61 358.408393408 L 64 404.213166278 L 68 383.324727592 L 71 420.792849018 L 74 395.736084609 L 77 366.510994478 L 80 406.063278765 L 83 374.754025772 L 86 385.128030003 L 89 408.007011401 L 93 410.044364187 L 96 372.482622611 L 99 434.960698371 L 102 395.314793934 L 105 366.089703803 L 108 420.231128118 L 111 401.426852293 L 114 411.800856524 L 117 386.744092115 L 121 413.791399235 L 124 392.902960548 L 127 401.192801918 L 130 388.641014676 L 133 401.099181768 L 136 407.304860277 L 139 384.332258729 L 142 382.201285793 L 146 425.921895802 L 149 382.107665643 L 152 384.145018429 L 155 390.350696938 L 158 369.462258251 L 161 361.078796731 L 164 361.031986656 L 167 379.742642332 L 170 392.200809424 L 174 377.564859321 L 177 348.33976919 L 180 381.639564893 L 183 406.602709152 L 186 389.882596188 L 189 377.330808946 L 192 377.283998871 L 195 383.48967738 L 199 406.368658778 L 202 339.628637145 L 205 354.170967098 L 208 335.366691273 L 211 318.646578309 L 214 372.788002624 L 217 368.572866827 L 220 351.852753863 L 223 414.330829623 L 227 351.759133713 L 230 351.712323638 L 233 326.655559229 L 236 362.039517794 L 239 324.477776218 L 242 299.421011809 L 245 299.374201734 L 248 286.822414492 L 252 320.122210195 L 255 326.327888704 L 258 305.439450017 L 261 378.338340083 L 264 357.449901397 L 267 332.393136988 L 270 317.757186884 L 273 371.8986112 L 276 359.346823958 L 280 353.0475253 L 283 344.66406378 L 286 332.112276538 L 289 354.991257936 L 292 367.449425028 L 295 359.065963508 L 298 329.840873377 L 301 388.150623415 L 305 327.663090366 L 308 352.626234625 L 311 302.559515882 L 314 319.186008696 L 317 337.896664372 L 320 321.176551408 L 323 323.213904194 L 326 341.924559869 L 330 329.372772627 L 333 341.830939719 L 336 339.699966783 L 339 325.06401668 L 342 295.838926549 L 345 287.455465029 L 348 324.923586455 L 351 337.381753547 L 354 324.829966305 L 358 387.308042065 L 361 341.409649045 L 364 351.783653276 L 367 349.65268034 L 370 353.774195987 L 373 289.118337216 L 376 295.324015724 L 379 330.707974289 L 383 351.502792826 L 386 324.361865556 L 389 363.914149843 L 392 378.456479796 L 395 357.56804111 L 398 328.342950978 L 401 374.147723849 L 404 359.511773746 L 407 376.13826656 L 411 332.324036401 L 414 390.633786439 L 417 375.997836335 L 420 384.287677705 L 423 382.156704769 L 426 359.184103221 L 429 371.642270313 L 432 384.100437405 L 436 394.474441636 L 439 377.754328672 L 442 363.118378569 L 445 360.987405633 L 448 402.623852781 L 451 381.735414094 L 454 404.614395492 L 457 402.483422556 L 460 404.520775342 L 464 383.632336656 L 467 398.174666609 L 470 343.939622144 L 473 385.576069292 L 476 383.445096356 L 479 395.903263448 L 482 389.60396479 L 485 408.314620465 L 489 379.089530334 L 492 406.136837454 L 495 391.500887351 L 498 418.548194471 L 501 391.407267201 L 504 420.538737182 L 507 393.397809912 L 510 395.435162698 L 513 409.977492652 L 517 384.920728243 L 520 403.631383918 L 523 407.752899566 L 526 395.201112324 L 529 374.312673637 L 532 376.350026423 L 535 413.818147849 L 538 380.424731996 L 542 424.145342005 L 545 424.09853193 L 548 394.873441799 L 551 405.24744603 L 554 405.200635955 L 557 382.228034407 L 560 425.948644417 L 563 384.218577118 L 566 394.592581349 L 570 402.882422719 L 573 373.657332588 L 576 406.957128291 L 579 371.479549577 L 582 392.274368113 L 585 417.237512372 L 588 417.190702297 L 591 412.9755665 L 595 410.844593564 L 598 387.871992016 L 601 414.919299136 L 604 414.872489061 L 607 400.236538958 L 610 366.843123105 L 613 395.974593086 L 616 402.180271595 L 620 404.217624381"/>
		</g>
		<text class="x-axis-label" x="40.0" y="540">
			0
		</text>
		<path class="x-notch" d="M 55.5913978495 525 L 55.5913978495 530"/>
		<text class="x-axis-label" x="71.1827956989" y="540">
			10
		</text>
		<path class="x-notch" d="M 86.7741935484 525 L 86.7741935484 530"/>
		<text class="x-axis-label" x="102.365591398" y="540">
			20
		</text>
		<path class="x-notch" d="M 117.956989247 525 L 117.956989247 530"/>
		<text class="x-axis-label" x="133.548387097" y="540">
			30
		</text>
		<path class="x-notch" d="M 149.139784946 525 L 149.139784946 530"/>
		<text class="x-axis-label" x="164.731182796" y="540">
			40
		</text>
		<path class="x-notch" d="M 180.322580645 525 L 180.322580645 530"/>
		<text class="x-axis-label" x="195.913978495" y="540">
			50
		</text>
		<path class="x-notch" d="M 211.505376344 525 L 211.505376344 530"/>
		<text class="x-axis-label" x="227.096774194" y="540">
			60
		</text>
		<path class="x-notch" d="M 242.688172043 525 L 242.688172043 530"/>
		<text class="x-axis-label" x="258.279569892" y="540">
			70
		</text>
		<path class="x-notch" d="M 273.870967742 525 L 273.870967742 530"/>
		<text class="x-axis-label" x="289.462365591" y="540">
			80
		</text>
		<path class="x-notch" d="M 305.053763441 525 L 305.053763441 530"/>
		<text class="x-axis-label" x="320.64516129" y="540">
			90
		</text>
		<path class="x-notch" d="M 336.23655914 525 L 336.23655914 530"/>
		<text class="x-axis-label" x="351.827956989" y="540">
			100
		</text>
		<path class="x-notch" d="M 367.419354839 525 L 367.419354839 530"/>
		<text class="x-axis-label" x="383.010752688" y="540">
			110
		</text>
		<path class="x-notch" d="M 398.602150538 525 L 398.602150538 530"/>
		<text class="x-axis-label" x="414.193548387" y="540">
			120
		</text>
		<path class="x-notch" d="M 429.784946237 525 L 429.784946237 530"/>
		<text class="x-axis-label" x="445.376344086" y="540">
			130
		</text>
		<path class="x-notch" d="M 460.967741935 525 L 460.967741935 530"/>
		<text class="x-axis-label" x="476.559139785" y="540">
			140
		</text>
		<path class="x-notch" d="M 492.150537634 525 L 492.150537634 530"/>
		<text class="x-axis-label" x="507.741935484" y="540">
			150
		</text>
		<path class="x-notch" d="M 523.333333333 525 L 523.333333333 530"/>
		<text class="x-axis-label" x="538.924731183" y="540">
			160
		</text>
		<path class="x-notch" d="M 554.516129032 525 L 554.516129032 530"/>
		<text class="x-axis-label" x="570.107526882" y="540">
			170
		</text>
		<path class="x-notch" d="M 585.698924731 525 L 585.698924731 530"/>
		<text class="x-axis-label" x="601.290322581" y="540">
			180
		</text>
		<path class="x-notch" d="M 616.88172043 525 L 616.88172043 530"/>
	</g>
</svg>
