<?xml version="1.0" ?>
<svg height="600" version="1.1" width="800" xmlns="http://www.w3.org/2000/svg" xmlns:svg="http://www.w3.org/2000/svg">
	<style type="text/css">
		

.x-axis-path, .y-gridline, .x-notch { fill:none; stroke: #a7a9ac; stroke-width:1; }



.y-gridline { stroke-width: 1; }

.y-axis-path, .y-axis-path2, .x-notch-left, .x-notch-right { display: none;}



.x-axis-label, .data-point-label {font-size: 12px; font-weight:normal; font-family: sans-serif; fill: #58595b; text-anchor:middle;}

.y-axis-label {font-size: 12px; font-family: helvetica; fill: #a7a9ac; text-anchor:end;}



.series-1-line { fill: none; stroke: #10b80c; stroke-width:2; }



.series-2-line { fill: none; stroke: #e90f0a; stroke-width: 2;}

	</style>
	<rect fill="white" height="600" width="800" x="0" y="0"/>
	<g id="grid" transform="translate(70, 30)">
		<g class="x-axis" id="x_axis">
			<path class="x-axis-path" d="M 0 525 L 660 525"/>
			<path class="x-notch-left" d="M 0 525, L 0 535"/>
			<path class="x-notch-right" d="M 660 525, L 660 535"/>
		</g>
		<g class="y-axis" id="y_axis">
			<path class="y-axis-path" d="M 0 525 L 0 0"/>
			<path class="y-axis-path-2" d="M 660 525 L 660 0"/>
			<path class="y-gridline" d="M 0 525 L 660 525"/>
			<text class="y-axis-label" x="-5" y="525">
				-200
			</text>
			<path class="y-gridline" d="M 0 420 L 660 420"/>
			<text class="y-axis-label" x="-5" y="420">
				 0
			</text>
			<path class="y-gridline" d="M 0 315 L 660 315"/>
			<text class="y-axis-label" x="-5" y="315">
				200
			</text>
			<path class="y-gridline" d="M 0 210 L 660 210"/>
			<text class="y-axis-label" x="-5" y="210">
				400
			</text>
			<path class="y-gridline" d="M 0 105 L 660 105"/>
			<text class="y-axis-label" x="-5" y="105">
				600
			</text>
			<path class="y-gridline" d="M 0 0 L 660 0"/>
			<text class="y-axis-label" x="-5" y="0">
				800
			</text>
		</g>
		<g>
			<path class="series-1-line" d="M 40 432.209568 L 47 398.856274364 L 55 412.174010727 L 62 426.743557091 L 70 426.559553455 L 78 427.465869818 L 85 410.225666182 L 93 413.137692545 L 101 425.082448909 L 108 408.381105273 L 116 421.766041636 L 123 412.387608 L 131 420.361264364 L 139 411.171200727 L 146 393.783367091 L 154 391.593443455 L 162 360.703449818 L 169 359.442356182 L 177 321.404172545 L 185 287.512438909 L 192 284.433795273 L 200 259.022491636 L 207 256.927068 L 215 234.221614364 L 223 243.743180727 L 230 165.832297091 L 238 182.582693455 L 246 169.986849818 L 253 175.846856182 L 261 127.403172545 L 268 129.238108909 L 276 112.226805273 L 284 88.3907116364 L 291 114.120288 L 299 99.8820343636 L 307 49.7825007273 L 314 101.694667091 L 322 105.037193455 L 330 103.978119818 L 337 115.613126182 L 345 123.923202545 L 352 120.710368909 L 360 179.231865273 L 368 161.399671636 L 375 178.513578 L 383 184.629364364 L 391 232.395290727 L 398 253.130227091 L 406 374.207993455 L 413 302.583459818 L 421 397.074386182 L 429 410.472972545 L 436 402.615778909 L 444 398.406285273 L 452 405.572281636 L 459 409.238208 L 467 418.207684364 L 475 411.575840727 L 482 407.662867091 L 490 428.424893455 L 497 430.475289818 L 505 444.910436182 L 513 424.776222545 L 520 437.353498909 L 528 430.129035273 L 536 431.210281636 L 543 425.574258 L 551 424.057384364 L 558 419.309660727 L 566 429.908317091 L 574 426.614423455 L 581 430.576449818 L 589 421.561526182 L 597 419.465892545 L 604 425.931748909 L 612 425.316825273 L 620 412.909561636"/>
			<path class="series-2-line" d="M 40 415.38 L 47 424.932272727 L 55 422.409545455 L 62 408.861818182 L 70 424.189090909 L 78 433.216363636 L 85 406.543636364 L 93 409.795909091 L 101 416.723181818 L 108 428.900454545 L 116 415.877727273 L 123 411.78 L 131 423.957272727 L 139 410.934545455 L 146 427.836818182 L 154 428.464090909 L 162 422.266363636 L 169 421.318636364 L 177 404.095909091 L 185 415.748181818 L 192 391.175454545 L 200 369.752727273 L 207 396.63 L 215 383.082272727 L 223 378.984545455 L 230 398.511818182 L 238 392.839090909 L 246 378.766363636 L 253 372.568636364 L 261 381.595909091 L 268 368.573181818 L 276 347.150454545 L 284 346.202727273 L 291 373.08 L 299 349.032272727 L 307 350.184545455 L 314 367.086818182 L 322 344.089090909 L 330 352.591363636 L 337 346.393636364 L 345 347.020909091 L 352 363.923181818 L 360 353.000454545 L 368 357.302727273 L 375 356.355 L 383 351.207272727 L 391 359.709545455 L 398 346.686818182 L 406 384.589090909 L 413 385.741363636 L 421 394.243636364 L 429 399.595909091 L 436 403.898181818 L 444 371.450454545 L 452 386.777727273 L 459 395.28 L 467 374.907272727 L 475 413.334545455 L 482 416.586818182 L 490 419.839090909 L 497 414.166363636 L 505 421.618636364 L 513 416.470909091 L 520 406.598181818 L 528 414.575454545 L 536 416.777727273 L 543 422.655 L 551 420.657272727 L 558 410.784545455 L 566 422.961818182 L 574 411.514090909 L 581 414.766363636 L 589 415.393636364 L 597 421.795909091 L 604 423.473181818 L 612 424.100454545 L 620 421.577727273"/>
		</g>
		<text class="x-axis-label" x="40.0" y="540">
			0
		</text>
		<path class="x-notch" d="M 78.1578947368 525 L 78.1578947368 530"/>
		<text class="x-axis-label" x="116.315789474" y="540">
			10
		</text>
		<path class="x-notch" d="M 154.473684211 525 L 154.473684211 530"/>
		<text class="x-axis-label" x="192.631578947" y="540">
			20
		</text>
		<path class="x-notch" d="M 230.789473684 525 L 230.789473684 530"/>
		<text class="x-axis-label" x="268.947368421" y="540">
			30
		</text>
		<path class="x-notch" d="M 307.105263158 525 L 307.105263158 530"/>
		<text class="x-axis-label" x="345.263157895" y="540">
			40
		</text>
		<path class="x-notch" d="M 383.421052632 525 L 383.421052632 530"/>
		<text class="x-axis-label" x="421.578947368" y="540">
			50
		</text>
		<path class="x-notch" d="M 459.736842105 525 L 459.736842105 530"/>
		<text class="x-axis-label" x="497.894736842" y="540">
			60
		</text>
		<path class="x-notch" d="M 536.052631579 525 L 536.052631579 530"/>
		<text class="x-axis-label" x="574.210526316" y="540">
			70
		</text>
		<path class="x-notch" d="M 612.368421053 525 L 612.368421053 530"/>
	</g>
</svg>
