<?xml version="1.0" ?>
<svg height="600" version="1.1" width="800" xmlns="http://www.w3.org/2000/svg" xmlns:svg="http://www.w3.org/2000/svg">
	<style type="text/css">
		

.x-axis-path, .y-gridline, .x-notch { fill:none; stroke: #a7a9ac; stroke-width:1; }



.y-gridline { stroke-width: 1; }

.y-axis-path, .y-axis-path2, .x-notch-left, .x-notch-right { display: none;}



.x-axis-label, .data-point-label {font-size: 12px; font-weight:normal; font-family: sans-serif; fill: #58595b; text-anchor:middle;}

.y-axis-label {font-size: 12px; font-family: helvetica; fill: #a7a9ac; text-anchor:end;}



.series-1-line { fill: none; stroke: #10b80c; stroke-width:2; }



.series-2-line { fill: none; stroke: #e90f0a; stroke-width: 2;}

	</style>
	<rect fill="white" height="600" width="800" x="0" y="0"/>
	<g id="grid" transform="translate(70, 30)">
		<g class="x-axis" id="x_axis">
			<path class="x-axis-path" d="M 0 525 L 660 525"/>
			<path class="x-notch-left" d="M 0 525, L 0 535"/>
			<path class="x-notch-right" d="M 660 525, L 660 535"/>
		</g>
		<g class="y-axis" id="y_axis">
			<path class="y-axis-path" d="M 0 525 L 0 0"/>
			<path class="y-axis-path-2" d="M 660 525 L 660 0"/>
			<path class="y-gridline" d="M 0 525 L 660 525"/>
			<text class="y-axis-label" x="-5" y="525">
				-200
			</text>
			<path class="y-gridline" d="M 0 394 L 660 394"/>
			<text class="y-axis-label" x="-5" y="394">
				 0
			</text>
			<path class="y-gridline" d="M 0 263 L 660 263"/>
			<text class="y-axis-label" x="-5" y="263">
				200
			</text>
			<path class="y-gridline" d="M 0 132 L 660 132"/>
			<text class="y-axis-label" x="-5" y="132">
				400
			</text>
			<path class="y-gridline" d="M 0 1 L 660 1"/>
			<text class="y-axis-label" x="-5" y="1">
				600
			</text>
		</g>
		<g>
			<path class="series-1-line" d="M 40 402.4865775 L 46 377.28265129 L 52 417.888525081 L 58 381.797673871 L 65 386.966310161 L 71 397.570008952 L 77 347.007795242 L 84 415.243894032 L 90 378.160005323 L 96 395.090479113 L 103 371.653440403 L 109 410.728414194 L 115 409.267087984 L 121 370.837099274 L 128 392.041860565 L 134 385.196134355 L 140 376.347795645 L 147 387.843469435 L 153 380.660955726 L 159 400.401754516 L 166 366.818040806 L 172 405.623689597 L 178 387.486788387 L 185 386.480112177 L 191 377.766435968 L 197 386.014459758 L 203 341.728883548 L 210 307.051332339 L 216 299.717356129 L 222 304.566267419 L 229 249.20844121 L 235 156.05744 L 241 211.89172629 L 248 170.416212581 L 254 173.296373871 L 260 167.056235161 L 266 178.904971452 L 273 15.8885452419 L 279 97.0979190323 L 285 21.9349928226 L 292 28.6179916129 L 298 80.7337029032 L 304 29.3304391935 L 311 24.5710629839 L 317 6.82134927419 L 323 50.0860855645 L 330 52.3435968548 L 336 38.4977831452 L 342 3.19758193548 L 348 58.7462682258 L 355 27.2153045161 L 361 45.1553533065 L 367 14.5499645968 L 374 40.3314133871 L 380 44.7429996774 L 386 93.9811859677 L 393 161.056247258 L 399 195.974796048 L 405 224.566569839 L 411 230.946381129 L 418 226.473392419 L 424 174.71654121 L 430 257.2386775 L 437 175.88311379 L 443 234.140275081 L 449 295.258948871 L 456 283.937072661 L 462 289.122508952 L 468 285.305507742 L 474 372.757919032 L 481 347.705455323 L 487 352.638366613 L 493 372.261302903 L 500 377.867526694 L 506 355.843787984 L 512 392.276961774 L 519 403.755573065 L 525 367.008471855 L 531 371.705920645 L 538 379.364894435 L 544 363.398868226 L 550 338.144542016 L 556 403.115928306 L 563 400.089839597 L 569 400.698325887 L 575 402.030524677 L 582 404.153373468 L 588 387.581497258 L 594 404.949558548 L 601 376.565444839 L 607 403.053806129 L 613 393.128692419 L 620 394.54489121"/>
			<path class="series-2-line" d="M 40 397.55625 L 46 402.855645161 L 52 379.280040323 L 58 393.766935484 L 65 395.785080645 L 71 394.521975806 L 77 388.665120968 L 84 405.777016129 L 90 395.98266129 L 96 380.282056452 L 103 391.487701613 L 109 402.037096774 L 115 388.961491935 L 121 384.417137097 L 128 392.997782258 L 134 400.922177419 L 140 388.502822581 L 147 401.677217742 L 153 385.320362903 L 159 391.932258065 L 166 399.200403226 L 172 400.562298387 L 178 378.299193548 L 185 396.72358871 L 191 388.897983871 L 197 396.822379032 L 203 409.996774194 L 210 408.733669355 L 216 390.408064516 L 222 391.113709677 L 229 391.163104839 L 235 400.4 L 241 381.418145161 L 248 391.311290323 L 254 392.016935484 L 260 382.222580645 L 266 365.865725806 L 273 371.165120968 L 279 360.714516129 L 285 379.13891129 L 292 375.250806452 L 298 373.331451613 L 304 396.349596774 L 311 385.898991935 L 317 380.042137097 L 323 376.810282258 L 330 372.265927419 L 336 371.659072581 L 342 365.145967742 L 348 390.789112903 L 355 384.932258065 L 361 365.294153226 L 367 368.624798387 L 374 354.236693548 L 380 372.00483871 L 386 358.272983871 L 393 377.353629032 L 399 370.840524194 L 405 378.764919355 L 411 345.345564516 L 418 367.051209677 L 424 368.413104839 L 430 383.55625 L 437 369.824395161 L 443 331.155040323 L 449 383.704435484 L 456 373.253830645 L 462 372.646975806 L 468 368.758870968 L 474 382.589516129 L 481 389.85766129 L 487 377.438306452 L 493 376.831451613 L 500 387.380846774 L 506 382.836491935 L 512 396.010887097 L 519 386.216532258 L 525 400.703427419 L 531 399.440322581 L 538 396.864717742 L 544 394.289112903 L 550 407.463508065 L 556 396.356653226 L 563 397.062298387 L 569 393.830443548 L 575 405.69233871 L 582 396.554233871 L 588 386.103629032 L 594 378.934274194 L 601 394.077419355 L 607 397.408064516 L 613 399.426209677 L 620 398.163104839"/>
		</g>
		<text class="x-axis-label" x="40.0" y="540">
			0
		</text>
		<path class="x-notch" d="M 71.5217391304 525 L 71.5217391304 530"/>
		<text class="x-axis-label" x="103.043478261" y="540">
			10
		</text>
		<path class="x-notch" d="M 134.565217391 525 L 134.565217391 530"/>
		<text class="x-axis-label" x="166.086956522" y="540">
			20
		</text>
		<path class="x-notch" d="M 197.608695652 525 L 197.608695652 530"/>
		<text class="x-axis-label" x="229.130434783" y="540">
			30
		</text>
		<path class="x-notch" d="M 260.652173913 525 L 260.652173913 530"/>
		<text class="x-axis-label" x="292.173913043" y="540">
			40
		</text>
		<path class="x-notch" d="M 323.695652174 525 L 323.695652174 530"/>
		<text class="x-axis-label" x="355.217391304" y="540">
			50
		</text>
		<path class="x-notch" d="M 386.739130435 525 L 386.739130435 530"/>
		<text class="x-axis-label" x="418.260869565" y="540">
			60
		</text>
		<path class="x-notch" d="M 449.782608696 525 L 449.782608696 530"/>
		<text class="x-axis-label" x="481.304347826" y="540">
			70
		</text>
		<path class="x-notch" d="M 512.826086957 525 L 512.826086957 530"/>
		<text class="x-axis-label" x="544.347826087" y="540">
			80
		</text>
		<path class="x-notch" d="M 575.869565217 525 L 575.869565217 530"/>
		<text class="x-axis-label" x="607.391304348" y="540">
			90
		</text>
		<path class="x-notch" d="M 638.913043478 525 L 638.913043478 530"/>
	</g>
</svg>
