<?xml version="1.0" ?>
<svg height="600" version="1.1" width="800" xmlns="http://www.w3.org/2000/svg" xmlns:svg="http://www.w3.org/2000/svg">
	<style type="text/css">
		

.x-axis-path, .y-gridline, .x-notch { fill:none; stroke: #a7a9ac; stroke-width:1; }



.y-gridline { stroke-width: 1; }

.y-axis-path, .y-axis-path2, .x-notch-left, .x-notch-right { display: none;}



.x-axis-label, .data-point-label {font-size: 12px; font-weight:normal; font-family: sans-serif; fill: #58595b; text-anchor:middle;}

.y-axis-label {font-size: 12px; font-family: helvetica; fill: #a7a9ac; text-anchor:end;}



.series-1-line { fill: none; stroke: #10b80c; stroke-width:2; }



.series-2-line { fill: none; stroke: #e90f0a; stroke-width: 2;}

	</style>
	<rect fill="white" height="600" width="800" x="0" y="0"/>
	<g id="grid" transform="translate(70, 30)">
		<g class="x-axis" id="x_axis">
			<path class="x-axis-path" d="M 0 525 L 660 525"/>
			<path class="x-notch-left" d="M 0 525, L 0 535"/>
			<path class="x-notch-right" d="M 660 525, L 660 535"/>
		</g>
		<g class="y-axis" id="y_axis">
			<path class="y-axis-path" d="M 0 525 L 0 0"/>
			<path class="y-axis-path-2" d="M 660 525 L 660 0"/>
			<path class="y-gridline" d="M 0 525 L 660 525"/>
			<text class="y-axis-label" x="-5" y="525">
				-200
			</text>
			<path class="y-gridline" d="M 0 394 L 660 394"/>
			<text class="y-axis-label" x="-5" y="394">
				 0
			</text>
			<path class="y-gridline" d="M 0 263 L 660 263"/>
			<text class="y-axis-label" x="-5" y="263">
				200
			</text>
			<path class="y-gridline" d="M 0 132 L 660 132"/>
			<text class="y-axis-label" x="-5" y="132">
				400
			</text>
			<path class="y-gridline" d="M 0 1 L 660 1"/>
			<text class="y-axis-label" x="-5" y="1">
				600
			</text>
		</g>
		<g>
			<path class="series-1-line" d="M 40 383.031273744 L 45 415.049758074 L 51 387.552476883 L 57 409.910433537 L 63 369.09430447 L 69 382.765341845 L 75 386.934766117 L 81 411.529845732 L 87 377.478467703 L 93 371.69745813 L 99 360.915361821 L 105 377.140119405 L 111 372.201315998 L 116 358.68153636 L 122 405.203541793 L 128 330.720929579 L 134 407.882239292 L 140 379.252845766 L 146 390.266273045 L 152 326.180451625 L 158 370.201297742 L 164 301.167771742 L 170 258.640539264 L 176 285.025563628 L 182 269.452213518 L 187 269.699281233 L 193 216.643445101 L 199 195.779102086 L 205 179.785264842 L 211 209.144496548 L 217 78.6997278629 L 223 126.379715445 L 229 116.756011918 L 235 14.5816116901 L 241 52.7862666151 L 247 101.04483464 L 253 86.9986248194 L 258 161.212007635 L 264 101.127794741 L 270 74.157354365 L 276 113.782385267 L 282 74.7032294231 L 288 116.013493921 L 294 116.338992342 L 300 68.1257390059 L 306 96.590614286 L 312 56.6429718305 L 318 125.275455571 L 324 98.2257632253 L 330 0.0 L 335 86.9536502494 L 341 135.554685336 L 347 109.847759525 L 353 160.396011402 L 359 175.436917022 L 365 219.273800018 L 371 176.904250216 L 377 189.865715551 L 383 243.625930682 L 389 258.165454669 L 395 215.796726131 L 401 297.327570613 L 406 343.34942631 L 412 312.66810484 L 418 330.155966356 L 424 323.875217679 L 430 295.29961694 L 436 349.743944929 L 442 301.08351338 L 448 358.371057114 L 454 372.648187274 L 460 344.704138502 L 466 351.900331008 L 472 393.605623459 L 477 392.826521887 L 483 377.305732669 L 489 394.188733297 L 495 381.484879379 L 501 403.263844959 L 507 427.437616175 L 513 378.224473998 L 519 422.219450301 L 525 382.693116244 L 531 412.079039028 L 537 381.396896295 L 543 401.254104266 L 548 403.922258063 L 554 430.43950592 L 560 390.044274619 L 566 425.484555137 L 572 388.61665244 L 578 427.768224683 L 584 426.804338725 L 590 411.231399248 L 596 402.34436947 L 602 381.427876196 L 608 393.546314101 L 614 406.717612371 L 620 390.881457802"/>
			<path class="series-2-line" d="M 40 376.298141367 L 45 400.832364496 L 51 381.223651082 L 57 391.385755337 L 63 407.707339108 L 69 371.673346982 L 75 416.739168502 L 81 398.157035008 L 87 400.106499906 L 93 395.896485286 L 99 411.191489138 L 105 417.247273714 L 111 401.74487998 L 116 403.694344877 L 122 407.696969614 L 128 431.204612823 L 134 419.808538766 L 140 376.588487203 L 146 434.999847677 L 152 397.939275631 L 158 351.63948431 L 164 405.944525105 L 170 408.920569922 L 176 391.365016348 L 182 353.277864383 L 187 369.599448155 L 193 413.638689755 L 199 360.152838996 L 205 387.766801883 L 211 346.599910159 L 217 332.124096344 L 223 315.595122689 L 229 350.395145013 L 235 329.75985168 L 241 390.224371993 L 247 323.39298228 L 253 327.395607017 L 258 335.504551432 L 264 354.905874963 L 270 373.280618574 L 276 332.11372685 L 282 317.637913034 L 288 333.959496806 L 294 297.92550468 L 300 267.024412151 L 306 285.399155762 L 312 286.32204074 L 318 244.128569097 L 324 234.785654879 L 330 238.788279616 L 335 261.269342905 L 341 221.129031101 L 347 242.583514471 L 353 138.795247653 L 359 209.525567162 L 365 191.970013588 L 371 170.308140335 L 377 245.144779522 L 383 200.89814804 L 389 149.46545712 L 395 207.876817594 L 401 195.454163618 L 406 197.403628516 L 412 274.293427542 L 418 243.392335013 L 424 277.165777417 L 430 345.842937087 L 436 274.905227696 L 442 273.774952835 L 448 239.794120548 L 454 269.461243274 L 460 319.659964391 L 466 332.901808404 L 472 367.701830728 L 477 424.060031363 L 483 377.760240041 L 489 401.267883249 L 495 396.03128871 L 501 416.45919216 L 507 383.504939793 L 513 388.534144449 L 519 386.377289669 L 525 401.672293521 L 531 396.435698981 L 537 393.252264281 L 543 393.14856934 L 548 351.981677616 L 554 393.967759377 L 560 384.624845159 L 566 395.813529333 L 572 396.736414311 L 578 389.446659933 L 584 394.47586459 L 590 396.425329487 L 596 396.321634546 L 602 391.085040007 L 608 397.140824583 L 614 399.090289481 L 620 402.066334298"/>
		</g>
		<text class="x-axis-label" x="40.0" y="540">
			0
		</text>
		<path class="x-notch" d="M 69.5918367347 525 L 69.5918367347 530"/>
		<text class="x-axis-label" x="99.1836734694" y="540">
			10
		</text>
		<path class="x-notch" d="M 128.775510204 525 L 128.775510204 530"/>
		<text class="x-axis-label" x="158.367346939" y="540">
			20
		</text>
		<path class="x-notch" d="M 187.959183673 525 L 187.959183673 530"/>
		<text class="x-axis-label" x="217.551020408" y="540">
			30
		</text>
		<path class="x-notch" d="M 247.142857143 525 L 247.142857143 530"/>
		<text class="x-axis-label" x="276.734693878" y="540">
			40
		</text>
		<path class="x-notch" d="M 306.326530612 525 L 306.326530612 530"/>
		<text class="x-axis-label" x="335.918367347" y="540">
			50
		</text>
		<path class="x-notch" d="M 365.510204082 525 L 365.510204082 530"/>
		<text class="x-axis-label" x="395.102040816" y="540">
			60
		</text>
		<path class="x-notch" d="M 424.693877551 525 L 424.693877551 530"/>
		<text class="x-axis-label" x="454.285714286" y="540">
			70
		</text>
		<path class="x-notch" d="M 483.87755102 525 L 483.87755102 530"/>
		<text class="x-axis-label" x="513.469387755" y="540">
			80
		</text>
		<path class="x-notch" d="M 543.06122449 525 L 543.06122449 530"/>
		<text class="x-axis-label" x="572.653061224" y="540">
			90
		</text>
		<path class="x-notch" d="M 602.244897959 525 L 602.244897959 530"/>
	</g>
</svg>
