<?xml version="1.0" ?>
<svg height="600" version="1.1" width="800" xmlns="http://www.w3.org/2000/svg" xmlns:svg="http://www.w3.org/2000/svg">
	<style type="text/css">

.x-axis-path, .y-gridline, .x-notch { fill:none; stroke: #a7a9ac; stroke-width:1; }



.y-gridline { stroke-width: 1; }

.y-axis-path, .y-axis-path2, .x-notch-left, .x-notch-right { display: none;}



.x-axis-label, .data-point-label {font-size: 12px; font-weight:normal; font-family: sans-serif; fill: #58595b; text-anchor:middle;}

.y-axis-label {font-size: 12px; font-family: helvetica; fill: #a7a9ac; text-anchor:end;}



.series-1-line { fill: none; stroke: #10b80c; stroke-width:2; }



.series-2-line { fill: none; stroke: #e90f0a; stroke-width: 2;}
</style>
	<rect fill="white" height="600" width="800" x="0" y="0"/>
	<g id="grid" transform="translate(70, 30)">
		<g class="x-axis" id="x_axis">
			<path class="x-axis-path" d="M 0 525 L 660 525"/>
			<path class="x-notch-left" d="M 0 525, L 0 535"/>
			<path class="x-notch-right" d="M 660 525, L 660 535"/>
		</g>
		<g class="y-axis" id="y_axis">
			<path class="y-axis-path" d="M 0 525 L 0 0"/>
			<path class="y-axis-path-2" d="M 660 525 L 660 0"/>
			<path class="y-gridline" d="M 0 525 L 660 525"/>
			<text class="y-axis-label" x="-5" y="525">-200</text>
			<path class="y-gridline" d="M 0 394 L 660 394"/>
			<text class="y-axis-label" x="-5" y="394"> 0</text>
			<path class="y-gridline" d="M 0 263 L 660 263"/>
			<text class="y-axis-label" x="-5" y="263">200</text>
			<path class="y-gridline" d="M 0 132 L 660 132"/>
			<text class="y-axis-label" x="-5" y="132">400</text>
			<path class="y-gridline" d="M 0 1 L 660 1"/>
			<text class="y-axis-label" x="-5" y="1">600</text>
		</g>
		<g>
			<path class="series-1-line" d="M 40 383.36308586 L 44 367.087437591 L 49 377.427960684 L 53 419.548607599 L 58 423.124607094 L 63 420.04677911 L 67 375.608659593 L 72 400.859131675 L 77 398.830117124 L 81 397.933907225 L 86 363.545444798 L 91 403.098114019 L 95 404.825014513 L 100 396.003910015 L 104 357.004545002 L 109 353.788885273 L 114 396.268325449 L 118 398.132626963 L 123 393.039009712 L 128 380.13205543 L 132 367.113974304 L 137 401.586682283 L 142 319.294366242 L 146 355.644170294 L 151 322.609043311 L 155 330.796376116 L 160 294.641083011 L 165 266.71348362 L 169 224.732214954 L 174 233.967930468 L 179 136.462866323 L 183 152.407972737 L 188 148.419163065 L 193 203.682497567 L 197 136.493094958 L 202 114.391471128 L 207 170.096728662 L 211 125.603045724 L 216 179.457912084 L 220 119.143729193 L 225 143.206263925 L 230 68.7552819875 L 234 49.331901248 L 239 80.021558557 L 244 174.436000158 L 248 167.107355021 L 253 136.943004847 L 258 84.1656340485 L 262 48.3148629549 L 267 67.5459643084 L 271 169.664338993 L 276 113.767232797 L 281 97.8503777887 L 285 91.6799500318 L 290 0.0 L 295 97.5337462743 L 299 86.1455255299 L 304 64.2372968669 L 309 92.4425369767 L 313 68.9048786562 L 318 91.6420750169 L 323 145.691197993 L 327 96.1718250614 L 332 42.8711243573 L 336 139.825977304 L 341 135.256982131 L 346 153.577532521 L 350 177.39283156 L 355 155.484172173 L 360 133.106023405 L 364 77.2093479333 L 369 173.253219192 L 374 66.387225957 L 378 43.0153964544 L 383 176.885467165 L 388 97.4376537558 L 392 183.955628555 L 397 244.76841368 L 401 160.708405513 L 406 222.239207884 L 411 198.343187027 L 415 273.182505803 L 420 236.088664661 L 425 256.865635177 L 429 261.213923166 L 434 349.307056373 L 439 322.153037649 L 443 338.954854501 L 448 344.547073987 L 452 370.957917069 L 457 419.483432874 L 462 371.013734824 L 466 338.227135706 L 471 390.397870435 L 476 404.632571041 L 480 438.745193587 L 485 426.170327665 L 490 413.429632925 L 494 420.65042062 L 499 427.34701696 L 503 436.99751988 L 508 444.8256287 L 513 388.680856088 L 517 426.355998511 L 522 449.397716883 L 527 395.406134558 L 531 430.154506026 L 536 427.021545344 L 541 440.896160517 L 545 407.529806623 L 550 423.502910109 L 555 394.885290546 L 559 436.895241342 L 564 438.870238976 L 568 456.251810604 L 573 428.407340984 L 578 431.21062126 L 582 426.337965524 L 587 406.583357873 L 592 423.881799731 L 596 411.830694439 L 601 380.838923072 L 606 410.672731391 L 610 389.122865264 L 615 390.407412002 L 620 395.005520029"/>
			<path class="series-2-line" d="M 40 409.902157589 L 44 415.310139241 L 49 384.106563691 L 53 392.744976861 L 58 366.925453841 L 63 371.256624988 L 67 402.508058781 L 72 397.147935374 L 77 363.790738813 L 81 405.810277666 L 86 381.067565153 L 91 370.323389216 L 95 423.111033128 L 100 399.44513112 L 104 380.086471136 L 109 405.9538524 L 114 400.593728993 L 118 389.849553056 L 123 372.644514084 L 128 398.511895348 L 132 357.617025246 L 137 383.48440651 L 142 398.583682715 L 146 383.532264755 L 151 399.708351466 L 155 410.500385648 L 160 409.447504264 L 165 384.70479175 L 169 368.576563284 L 174 299.684620028 L 179 378.315716082 L 183 312.654204343 L 188 333.137533078 L 193 349.313619789 L 197 360.105653971 L 202 350.43828854 L 207 381.689722334 L 211 379.560030444 L 216 363.431801978 L 220 393.606425266 L 225 321.484050492 L 230 331.199274167 L 234 323.685529748 L 239 309.710922294 L 244 265.585620674 L 248 387.289136964 L 253 333.472540791 L 258 279.655944618 L 262 357.210230166 L 267 324.929844111 L 271 338.95230981 L 276 309.902355273 L 281 301.311800348 L 285 284.106761375 L 290 293.821985051 L 295 182.934432064 L 299 223.877160411 L 304 226.054710545 L 309 263.767007375 L 313 226.10256879 L 318 150.749762498 L 323 230.457669058 L 327 172.333830861 L 332 242.350442868 L 336 221.914972378 L 341 206.863554418 L 346 232.730935682 L 350 283.364958582 L 355 243.546898986 L 360 192.96073433 L 364 205.906389523 L 369 201.623076622 L 374 186.571658662 L 378 165.059377666 L 383 139.239854646 L 388 214.640519182 L 392 184.513754139 L 397 174.846388708 L 401 129.644276582 L 406 133.975447728 L 411 152.305155451 L 415 180.326157727 L 420 199.732675956 L 425 136.224785229 L 429 31.7980952778 L 434 134.119022462 L 439 156.755972209 L 443 167.54800639 L 448 205.26030322 L 452 270.969673203 L 457 204.231350959 L 462 192.410364516 L 466 211.816882745 L 471 206.456759338 L 476 281.857423874 L 480 195.736512523 L 485 295.903818696 L 490 379.91896728 L 494 373.482033366 L 499 406.887088172 L 503 399.373343753 L 508 382.168304781 L 513 433.879138187 L 517 422.058151744 L 522 425.312512385 L 527 435.02773606 L 531 417.822697088 L 536 430.768352281 L 541 394.180724202 L 545 420.048105467 L 550 392.074961435 L 555 391.022080052 L 559 374.893851585 L 564 388.916317285 L 568 393.247488431 L 573 397.578659577 L 578 408.370693758 L 582 398.703328327 L 587 400.880878461 L 592 376.138165948 L 596 394.467873671 L 601 427.872928476 L 606 421.435994563 L 610 367.61939839 L 615 363.336085488 L 620 388.126656247"/>
		</g>
		<text class="x-axis-label" x="40.0" y="540">0</text>
		<path class="x-notch" d="M 63.2 525 L 63.2 530"/>
		<text class="x-axis-label" x="86.4" y="540">10</text>
		<path class="x-notch" d="M 109.6 525 L 109.6 530"/>
		<text class="x-axis-label" x="132.8" y="540">20</text>
		<path class="x-notch" d="M 156.0 525 L 156.0 530"/>
		<text class="x-axis-label" x="179.2" y="540">30</text>
		<path class="x-notch" d="M 202.4 525 L 202.4 530"/>
		<text class="x-axis-label" x="225.6" y="540">40</text>
		<path class="x-notch" d="M 248.8 525 L 248.8 530"/>
		<text class="x-axis-label" x="272.0" y="540">50</text>
		<path class="x-notch" d="M 295.2 525 L 295.2 530"/>
		<text class="x-axis-label" x="318.4" y="540">60</text>
		<path class="x-notch" d="M 341.6 525 L 341.6 530"/>
		<text class="x-axis-label" x="364.8" y="540">70</text>
		<path class="x-notch" d="M 388.0 525 L 388.0 530"/>
		<text class="x-axis-label" x="411.2" y="540">80</text>
		<path class="x-notch" d="M 434.4 525 L 434.4 530"/>
		<text class="x-axis-label" x="457.6" y="540">90</text>
		<path class="x-notch" d="M 480.8 525 L 480.8 530"/>
		<text class="x-axis-label" x="504.0" y="540">100</text>
		<path class="x-notch" d="M 527.2 525 L 527.2 530"/>
		<text class="x-axis-label" x="550.4" y="540">110</text>
		<path class="x-notch" d="M 573.6 525 L 573.6 530"/>
		<text class="x-axis-label" x="596.8" y="540">120</text>
		<path class="x-notch" d="M 620.0 525 L 620.0 530"/>
	</g>
</svg>
