<?xml version="1.0" ?>
<svg height="600" version="1.1" width="800" xmlns="http://www.w3.org/2000/svg" xmlns:svg="http://www.w3.org/2000/svg">
	<style type="text/css">
		

.x-axis-path, .y-gridline, .x-notch { fill:none; stroke: #a7a9ac; stroke-width:1; }



.y-gridline { stroke-width: 1; }

.y-axis-path, .y-axis-path2, .x-notch-left, .x-notch-right { display: none;}



.x-axis-label, .data-point-label {font-size: 12px; font-weight:normal; font-family: sans-serif; fill: #58595b; text-anchor:middle;}

.y-axis-label {font-size: 12px; font-family: helvetica; fill: #a7a9ac; text-anchor:end;}



.series-1-line { fill: none; stroke: #10b80c; stroke-width:2; }



.series-2-line { fill: none; stroke: #e90f0a; stroke-width: 2;}

	</style>
	<rect fill="white" height="600" width="800" x="0" y="0"/>
	<g id="grid" transform="translate(70, 30)">
		<g class="x-axis" id="x_axis">
			<path class="x-axis-path" d="M 0 525 L 660 525"/>
			<path class="x-notch-left" d="M 0 525, L 0 535"/>
			<path class="x-notch-right" d="M 660 525, L 660 535"/>
		</g>
		<g class="y-axis" id="y_axis">
			<path class="y-axis-path" d="M 0 525 L 0 0"/>
			<path class="y-axis-path-2" d="M 660 525 L 660 0"/>
			<path class="y-gridline" d="M 0 525 L 660 525"/>
			<text class="y-axis-label" x="-5" y="525">
				-300
			</text>
			<path class="y-gridline" d="M 0 438 L 660 438"/>
			<text class="y-axis-label" x="-5" y="438">
				 0
			</text>
			<path class="y-gridline" d="M 0 351 L 660 351"/>
			<text class="y-axis-label" x="-5" y="351">
				300
			</text>
			<path class="y-gridline" d="M 0 264 L 660 264"/>
			<text class="y-axis-label" x="-5" y="264">
				600
			</text>
			<path class="y-gridline" d="M 0 177 L 660 177"/>
			<text class="y-axis-label" x="-5" y="177">
				900
			</text>
			<path class="y-gridline" d="M 0 90 L 660 90"/>
			<text class="y-axis-label" x="-5" y="90">
				1200
			</text>
			<path class="y-gridline" d="M 0 3 L 660 3"/>
			<text class="y-axis-label" x="-5" y="3">
				1500
			</text>
		</g>
		<g>
			<path class="series-1-line" d="M 40 426.509416667 L 46 437.605991264 L 53 448.186432529 L 60 437.647523793 L 66 436.187381724 L 73 430.113072989 L 80 418.13053092 L 87 396.440738851 L 93 409.519013448 L 100 398.673621379 L 107 388.717812644 L 114 395.282120575 L 120 381.437345172 L 127 376.641936437 L 134 390.258744368 L 141 361.785718966 L 147 370.88566023 L 154 351.827868161 L 161 334.819909425 L 168 346.619284023 L 174 354.095925287 L 181 330.551716552 L 188 352.754024483 L 195 337.608065747 L 201 365.741123678 L 208 345.696214943 L 215 354.78098954 L 222 337.630814138 L 228 338.443922069 L 235 328.031946667 L 242 304.001937931 L 249 326.607445862 L 255 308.298303793 L 262 307.241945057 L 269 310.672352989 L 276 278.161027586 L 282 263.979668851 L 289 260.194126782 L 296 281.311901379 L 303 253.19050931 L 309 257.645717241 L 316 281.261441839 L 323 283.600783103 L 330 258.777207701 L 336 228.950732299 L 343 250.023823563 L 350 249.767681494 L 356 275.709389425 L 363 282.77478069 L 370 266.686038621 L 377 290.287296552 L 383 274.341004483 L 390 287.023545747 L 397 278.690570345 L 404 270.268111609 L 410 284.09351954 L 417 289.446360805 L 424 282.542435402 L 431 276.648026667 L 437 328.399434598 L 444 360.832825862 L 451 369.475667126 L 458 412.530391724 L 464 434.905249655 L 471 445.86719092 L 478 431.805648851 L 485 444.771806782 L 491 443.730731379 L 498 444.12523931 L 505 444.415213908 L 512 447.771538506 L 518 444.53152977 L 525 436.333304368 L 532 446.794162299 L 539 440.480336897 L 545 437.629411494 L 552 450.797519425 L 559 439.473327356 L 566 431.387218621 L 572 449.962243218 L 579 434.547251149 L 586 440.74545908 L 593 438.447650345 L 599 431.221958276 L 606 443.612132874 L 613 429.640424138 L 620 446.622715402"/>
			<path class="series-2-line" d="M 40 438.958333333 L 46 437.596551724 L 53 425.734770115 L 60 443.914655172 L 66 433.511206897 L 73 437.691091954 L 80 430.787643678 L 87 425.342528736 L 93 410.56408046 L 100 442.452298851 L 107 437.882183908 L 114 415.520402299 L 120 403.366954023 L 127 412.79683908 L 134 405.018390805 L 141 388.489942529 L 147 402.87816092 L 154 350.76637931 L 161 365.737931034 L 168 345.709482759 L 174 317.514367816 L 181 339.777586207 L 188 334.915804598 L 195 332.387356322 L 201 346.483908046 L 208 300.497126437 L 215 294.468678161 L 222 297.481896552 L 228 262.286781609 L 235 260.633333333 L 242 313.229885057 L 249 245.368103448 L 255 269.964655172 L 262 253.436206897 L 269 196.657758621 L 276 195.879310345 L 282 179.350862069 L 289 213.280747126 L 296 195.585632184 L 303 192.473850575 L 309 157.862068966 L 316 148.625287356 L 323 171.180172414 L 330 142.693390805 L 336 143.956609195 L 343 144.636494253 L 350 128.399712644 L 356 131.704597701 L 363 110.801149425 L 370 61.8977011494 L 377 100.494252874 L 383 86.299137931 L 390 133.354022989 L 397 125.867241379 L 404 143.75545977 L 410 57.8103448276 L 417 42.4485632184 L 424 96.5034482759 L 431 140.933333333 L 437 235.821551724 L 444 261.584770115 L 451 187.889655172 L 458 376.986206897 L 464 424.916091954 L 471 421.804310345 L 478 420.734195402 L 485 412.080747126 L 491 427.343965517 L 498 411.982183908 L 505 412.953735632 L 512 424.716954023 L 518 418.980172414 L 525 424.618390805 L 532 420.048275862 L 539 404.686494253 L 545 417.908045977 L 552 411.879597701 L 559 427.434482759 L 566 426.947701149 L 572 407.794252874 L 579 424.515804598 L 586 436.570689655 L 593 420.333908046 L 599 456.30545977 L 606 435.110344828 L 613 442.790229885 L 620 444.636781609"/>
		</g>
		<text class="x-axis-label" x="40.0" y="540">
			0
		</text>
		<path class="x-notch" d="M 73.7209302326 525 L 73.7209302326 530"/>
		<text class="x-axis-label" x="107.441860465" y="540">
			10
		</text>
		<path class="x-notch" d="M 141.162790698 525 L 141.162790698 530"/>
		<text class="x-axis-label" x="174.88372093" y="540">
			20
		</text>
		<path class="x-notch" d="M 208.604651163 525 L 208.604651163 530"/>
		<text class="x-axis-label" x="242.325581395" y="540">
			30
		</text>
		<path class="x-notch" d="M 276.046511628 525 L 276.046511628 530"/>
		<text class="x-axis-label" x="309.76744186" y="540">
			40
		</text>
		<path class="x-notch" d="M 343.488372093 525 L 343.488372093 530"/>
		<text class="x-axis-label" x="377.209302326" y="540">
			50
		</text>
		<path class="x-notch" d="M 410.930232558 525 L 410.930232558 530"/>
		<text class="x-axis-label" x="444.651162791" y="540">
			60
		</text>
		<path class="x-notch" d="M 478.372093023 525 L 478.372093023 530"/>
		<text class="x-axis-label" x="512.093023256" y="540">
			70
		</text>
		<path class="x-notch" d="M 545.813953488 525 L 545.813953488 530"/>
		<text class="x-axis-label" x="579.534883721" y="540">
			80
		</text>
		<path class="x-notch" d="M 613.255813953 525 L 613.255813953 530"/>
	</g>
</svg>
