<?xml version="1.0" ?>
<svg height="600" version="1.1" width="800" xmlns="http://www.w3.org/2000/svg" xmlns:svg="http://www.w3.org/2000/svg">
	<style type="text/css">
		

.x-axis-path, .y-gridline, .x-notch { fill:none; stroke: #a7a9ac; stroke-width:1; }



.y-gridline { stroke-width: 1; }

.y-axis-path, .y-axis-path2, .x-notch-left, .x-notch-right { display: none;}



.x-axis-label, .data-point-label {font-size: 12px; font-weight:normal; font-family: sans-serif; fill: #58595b; text-anchor:middle;}

.y-axis-label {font-size: 12px; font-family: helvetica; fill: #a7a9ac; text-anchor:end;}



.series-1-line { fill: none; stroke: #10b80c; stroke-width:2; }



.series-2-line { fill: none; stroke: #e90f0a; stroke-width: 2;}

	</style>
	<rect fill="white" height="600" width="800" x="0" y="0"/>
	<g id="grid" transform="translate(70, 30)">
		<g class="x-axis" id="x_axis">
			<path class="x-axis-path" d="M 0 525 L 660 525"/>
			<path class="x-notch-left" d="M 0 525, L 0 535"/>
			<path class="x-notch-right" d="M 660 525, L 660 535"/>
		</g>
		<g class="y-axis" id="y_axis">
			<path class="y-axis-path" d="M 0 525 L 0 0"/>
			<path class="y-axis-path-2" d="M 660 525 L 660 0"/>
			<path class="y-gridline" d="M 0 525 L 660 525"/>
			<text class="y-axis-label" x="-5" y="525">
				-200
			</text>
			<path class="y-gridline" d="M 0 394 L 660 394"/>
			<text class="y-axis-label" x="-5" y="394">
				 0
			</text>
			<path class="y-gridline" d="M 0 263 L 660 263"/>
			<text class="y-axis-label" x="-5" y="263">
				200
			</text>
			<path class="y-gridline" d="M 0 132 L 660 132"/>
			<text class="y-axis-label" x="-5" y="132">
				400
			</text>
			<path class="y-gridline" d="M 0 1 L 660 1"/>
			<text class="y-axis-label" x="-5" y="1">
				600
			</text>
		</g>
		<g>
			<path class="series-1-line" d="M 40 391.342455778 L 46 401.967154394 L 52 410.155038428 L 59 389.025113154 L 65 378.248719957 L 71 364.22829055 L 78 400.432539108 L 84 362.77572287 L 90 368.52650648 L 97 410.740611528 L 103 378.690612652 L 110 392.503608024 L 116 391.291533406 L 122 402.300977174 L 129 422.930478976 L 135 405.245823632 L 141 336.200834683 L 148 395.71217853 L 154 346.823433593 L 161 401.900203667 L 167 378.901720396 L 173 325.77992125 L 180 295.177147269 L 186 251.675120313 L 192 156.610668502 L 199 178.376397631 L 205 171.099298757 L 212 110.281453183 L 218 214.940897052 L 224 128.104160303 L 231 124.510438871 L 237 153.641207825 L 243 141.215498482 L 250 110.723060036 L 256 67.6235005202 L 263 129.388147516 L 269 84.438609822 L 275 43.9047802399 L 282 0.0 L 288 67.7196215615 L 294 57.932818051 L 301 24.3435527216 L 307 43.414636565 L 314 37.6770899881 L 320 98.0311000385 L 326 48.0598663252 L 333 42.5055453374 L 339 81.7148650619 L 345 182.436245061 L 352 192.858852426 L 358 130.428850344 L 365 220.905890427 L 371 132.60277728 L 377 190.154379101 L 384 274.824511474 L 390 326.182173687 L 396 370.356592447 L 403 255.869370666 L 409 346.274092381 L 416 327.526957295 L 422 347.002223639 L 428 377.010817528 L 435 380.287341077 L 441 390.473270147 L 447 407.419966193 L 454 418.045236495 L 460 376.999747312 L 467 428.68698691 L 473 406.750411695 L 479 383.88027209 L 486 406.379475262 L 492 403.188507114 L 498 426.987154167 L 505 370.677629952 L 511 395.667957942 L 518 365.981311906 L 524 396.157124157 L 530 374.294868213 L 537 374.181861287 L 543 382.809372397 L 549 410.695007706 L 556 380.25716534 L 562 376.993021294 L 569 327.187290882 L 575 376.712697203 L 581 400.475327994 L 588 407.416935011 L 594 363.45670116 L 600 376.20721679 L 607 403.909340666 L 613 397.93311489 L 620 424.260903927"/>
			<path class="series-2-line" d="M 40 407.041715898 L 46 397.097784918 L 52 405.019063479 L 59 360.059321799 L 65 400.137977533 L 71 360.895102906 L 78 373.818640138 L 84 398.890519858 L 90 396.807281076 L 97 391.865608768 L 103 406.218362763 L 110 400.562082073 L 116 397.764234909 L 122 383.532653639 L 129 401.458449543 L 135 404.377469432 L 141 393.004321689 L 148 393.064908052 L 154 442.433472747 L 161 409.622073555 L 167 405.395009628 L 173 418.31854686 L 180 401.943140445 L 186 419.154327967 L 192 369.906935997 L 199 405.697941442 L 205 401.470877515 L 212 388.668513008 L 218 340.850337801 L 224 345.913182836 L 231 380.274971517 L 237 326.025320875 L 243 344.665725161 L 250 366.879171354 L 256 321.204821292 L 263 276.245079612 L 269 296.314700661 L 275 296.375287023 L 282 348.602285246 L 288 294.352634604 L 294 347.294241208 L 301 350.927869479 L 307 277.383792533 L 314 311.745581214 L 320 291.797132892 L 326 203.246279932 L 333 236.893460231 L 339 254.819256135 L 345 347.77893211 L 352 285.668589271 L 358 301.45056003 L 365 236.481783664 L 371 191.522041983 L 377 274.477200616 L 384 363.149226301 L 390 381.075022205 L 396 348.978231394 L 403 291.870147226 L 409 321.944285618 L 416 351.303815627 L 422 382.0925624 L 428 162.768375601 L 435 100.658032762 L 441 187.186233303 L 447 222.262630366 L 454 268.058153153 L 460 403.894332026 L 467 398.238051336 L 473 311.831023521 L 479 315.464651792 L 486 404.136677477 L 492 403.482655459 L 498 344.945354527 L 505 409.320695237 L 511 415.812757035 L 518 395.864308712 L 524 401.641762128 L 530 415.279907741 L 537 380.324683404 L 543 375.383011096 L 549 404.027932724 L 556 389.796351454 L 562 400.576063541 L 569 369.908489494 L 575 394.980369214 L 581 397.899389103 L 588 377.236332398 L 594 382.299177433 L 600 403.083406863 L 607 404.573209989 L 613 392.485453864 L 620 385.39995641"/>
		</g>
		<text class="x-axis-label" x="40.0" y="540">
			0
		</text>
		<path class="x-notch" d="M 71.8681318681 525 L 71.8681318681 530"/>
		<text class="x-axis-label" x="103.736263736" y="540">
			10
		</text>
		<path class="x-notch" d="M 135.604395604 525 L 135.604395604 530"/>
		<text class="x-axis-label" x="167.472527473" y="540">
			20
		</text>
		<path class="x-notch" d="M 199.340659341 525 L 199.340659341 530"/>
		<text class="x-axis-label" x="231.208791209" y="540">
			30
		</text>
		<path class="x-notch" d="M 263.076923077 525 L 263.076923077 530"/>
		<text class="x-axis-label" x="294.945054945" y="540">
			40
		</text>
		<path class="x-notch" d="M 326.813186813 525 L 326.813186813 530"/>
		<text class="x-axis-label" x="358.681318681" y="540">
			50
		</text>
		<path class="x-notch" d="M 390.549450549 525 L 390.549450549 530"/>
		<text class="x-axis-label" x="422.417582418" y="540">
			60
		</text>
		<path class="x-notch" d="M 454.285714286 525 L 454.285714286 530"/>
		<text class="x-axis-label" x="486.153846154" y="540">
			70
		</text>
		<path class="x-notch" d="M 518.021978022 525 L 518.021978022 530"/>
		<text class="x-axis-label" x="549.89010989" y="540">
			80
		</text>
		<path class="x-notch" d="M 581.758241758 525 L 581.758241758 530"/>
		<text class="x-axis-label" x="613.626373626" y="540">
			90
		</text>
		<path class="x-notch" d="M 645.494505495 525 L 645.494505495 530"/>
	</g>
</svg>
