<?xml version="1.0" ?>
<svg height="600" version="1.1" width="800" xmlns="http://www.w3.org/2000/svg" xmlns:svg="http://www.w3.org/2000/svg">
	<style type="text/css">
		

.x-axis-path, .y-gridline, .x-notch { fill:none; stroke: #a7a9ac; stroke-width:1; }



.y-gridline { stroke-width: 1; }

.y-axis-path, .y-axis-path2, .x-notch-left, .x-notch-right { display: none;}



.x-axis-label, .data-point-label {font-size: 12px; font-weight:normal; font-family: sans-serif; fill: #58595b; text-anchor:middle;}

.y-axis-label {font-size: 12px; font-family: helvetica; fill: #a7a9ac; text-anchor:end;}



.series-1-line { fill: none; stroke: #10b80c; stroke-width:2; }



.series-2-line { fill: none; stroke: #e90f0a; stroke-width: 2;}

	</style>
	<rect fill="white" height="600" width="800" x="0" y="0"/>
	<g id="grid" transform="translate(70, 30)">
		<g class="x-axis" id="x_axis">
			<path class="x-axis-path" d="M 0 525 L 660 525"/>
			<path class="x-notch-left" d="M 0 525, L 0 535"/>
			<path class="x-notch-right" d="M 660 525, L 660 535"/>
		</g>
		<g class="y-axis" id="y_axis">
			<path class="y-axis-path" d="M 0 525 L 0 0"/>
			<path class="y-axis-path-2" d="M 660 525 L 660 0"/>
			<path class="y-gridline" d="M 0 525 L 660 525"/>
			<text class="y-axis-label" x="-5" y="525">
				-100
			</text>
			<path class="y-gridline" d="M 0 438 L 660 438"/>
			<text class="y-axis-label" x="-5" y="438">
				 0
			</text>
			<path class="y-gridline" d="M 0 351 L 660 351"/>
			<text class="y-axis-label" x="-5" y="351">
				100
			</text>
			<path class="y-gridline" d="M 0 264 L 660 264"/>
			<text class="y-axis-label" x="-5" y="264">
				200
			</text>
			<path class="y-gridline" d="M 0 177 L 660 177"/>
			<text class="y-axis-label" x="-5" y="177">
				300
			</text>
			<path class="y-gridline" d="M 0 90 L 660 90"/>
			<text class="y-axis-label" x="-5" y="90">
				400
			</text>
			<path class="y-gridline" d="M 0 3 L 660 3"/>
			<text class="y-axis-label" x="-5" y="3">
				500
			</text>
		</g>
		<g>
			<path class="series-1-line" d="M 40 443.93034 L 43 463.412381198 L 46 415.227522395 L 50 426.790463593 L 53 437.09620479 L 57 438.652295988 L 60 439.445387186 L 64 464.604078383 L 67 437.756269581 L 71 425.379560778 L 74 434.271651976 L 78 371.346893174 L 81 393.499084371 L 85 415.000625569 L 88 423.174866766 L 92 392.467957964 L 95 407.216249162 L 99 415.144090359 L 102 413.043031557 L 106 379.374422754 L 109 443.952913952 L 113 418.51840515 L 116 407.846546347 L 120 354.771137545 L 123 413.650928743 L 127 403.29336994 L 130 382.233861138 L 134 379.976002335 L 137 395.396993533 L 141 376.805684731 L 144 330.842625928 L 148 316.985067126 L 151 348.066808323 L 155 335.308249521 L 158 315.527640719 L 162 292.696081916 L 165 281.328773114 L 169 290.849464311 L 172 283.991905509 L 176 220.528146707 L 179 224.754037904 L 183 221.777979102 L 186 231.007120299 L 190 200.322261497 L 193 184.872202695 L 197 197.062693892 L 200 145.06423509 L 204 179.107326287 L 207 130.227367485 L 211 156.373058683 L 214 143.48009988 L 218 95.3631410778 L 221 128.104582275 L 225 95.2217234731 L 228 112.347914671 L 232 68.4939558683 L 235 88.7165970659 L 239 77.1697382635 L 242 127.299179461 L 246 64.7111206587 L 249 127.247711856 L 253 90.8197030539 L 256 141.779344251 L 260 112.127335449 L 263 89.6765766467 L 267 151.001817844 L 270 69.7916590419 L 274 107.35715024 L 277 101.688541437 L 281 140.959582635 L 284 78.4387238323 L 288 106.10971503 L 291 123.236256228 L 295 104.420597425 L 298 166.350988623 L 302 165.95512982 L 305 140.924521018 L 309 147.237112216 L 312 242.597053413 L 316 178.752494611 L 319 246.763435808 L 323 218.323477006 L 326 204.913568204 L 330 267.608359401 L 333 317.289100599 L 336 333.428291796 L 340 360.336632994 L 343 322.360924192 L 347 357.166665389 L 350 350.309106587 L 354 340.602197784 L 357 332.241738982 L 361 366.66598018 L 364 344.125971377 L 368 364.393762575 L 371 409.744303772 L 375 383.99549497 L 378 386.022336168 L 382 395.588177365 L 385 364.544918563 L 389 420.37340976 L 392 392.986950958 L 396 419.850842156 L 399 405.028683353 L 403 444.299024551 L 406 453.505415749 L 410 411.894606946 L 413 440.912048144 L 417 417.115889341 L 420 440.053130539 L 424 435.394271737 L 427 437.354262934 L 431 456.140854132 L 434 427.924545329 L 438 445.275436527 L 441 479.744477725 L 445 452.784668922 L 448 421.44986012 L 452 476.515351317 L 455 478.497392515 L 459 454.139833713 L 462 436.69267491 L 466 459.629916108 L 469 460.669407305 L 473 479.927448503 L 476 475.335789701 L 480 464.933780898 L 483 473.377172096 L 487 488.148213293 L 490 456.229954491 L 494 464.382145689 L 497 475.293736886 L 501 472.991078084 L 504 464.136769281 L 508 451.715610479 L 511 447.438251677 L 515 461.064442874 L 518 478.415334072 L 522 476.359425269 L 525 468.245366467 L 529 475.119007665 L 532 478.985798862 L 536 457.20844006 L 539 475.366781257 L 543 442.057272455 L 546 475.360113653 L 550 459.95450485 L 553 459.087546048 L 557 422.771537246 L 560 469.064628443 L 564 489.309319641 L 567 470.583610838 L 571 448.335152036 L 574 444.102593234 L 578 439.914834431 L 581 460.227425629 L 585 476.613366826 L 588 443.303858024 L 592 477.930399222 L 595 431.653040419 L 599 432.670481617 L 602 449.325922814 L 606 465.016414012 L 609 424.81925521 L 613 462.451946407 L 616 432.328487605 L 620 404.448528802"/>
			<path class="series-2-line" d="M 40 458.15 L 43 439.576946108 L 46 398.253892216 L 50 454.930838323 L 53 434.607784431 L 57 448.409730539 L 60 444.711676647 L 64 462.013622754 L 67 470.565568862 L 71 473.86751497 L 74 435.169461078 L 78 441.096407186 L 81 449.648353293 L 85 457.325299401 L 88 428.252245509 L 92 424.554191617 L 95 427.856137725 L 99 437.283083832 L 102 441.46002994 L 106 422.011976048 L 109 432.313922156 L 113 425.115868263 L 116 401.292814371 L 120 406.344760479 L 123 418.396706587 L 127 413.823652695 L 130 406.625598802 L 134 435.30254491 L 137 401.854491018 L 141 419.156437126 L 144 440.833383234 L 148 436.260329341 L 151 450.937275449 L 155 411.364221557 L 158 409.416167665 L 162 439.843113772 L 165 422.14505988 L 169 421.947005988 L 172 417.373952096 L 176 370.800898204 L 179 377.602844311 L 183 381.779790419 L 186 392.956736527 L 190 351.633682635 L 193 390.810628743 L 197 383.61257485 L 200 391.289520958 L 204 387.591467066 L 207 386.518413174 L 211 386.320359281 L 214 367.747305389 L 218 384.174251497 L 221 344.601197605 L 225 373.278143713 L 228 346.83008982 L 232 380.757035928 L 235 383.183982036 L 239 359.360928144 L 242 337.287874251 L 246 358.964820359 L 249 346.516766467 L 253 348.068712575 L 256 332.995658683 L 260 369.54760479 L 263 340.474550898 L 267 346.401497006 L 270 338.328443114 L 274 331.130389222 L 277 311.682335329 L 281 345.609281437 L 284 356.786227545 L 288 323.338173653 L 291 331.01511976 L 295 349.192065868 L 298 294.744011976 L 302 305.920958084 L 305 303.972904192 L 309 326.524850299 L 312 278.201796407 L 316 291.128742515 L 319 277.805688623 L 323 364.232634731 L 326 255.534580838 L 330 355.086526946 L 333 334.763473054 L 336 325.815419162 L 340 308.992365269 L 343 347.294311377 L 347 326.971257485 L 350 322.398203593 L 354 318.700149701 L 357 343.877095808 L 361 314.804041916 L 364 333.855988024 L 368 363.407934132 L 371 336.08488024 L 375 309.636826347 L 378 284.063772455 L 382 310.990718563 L 385 325.667664671 L 389 335.969610778 L 392 326.146556886 L 396 350.448502994 L 399 359.875449102 L 403 325.55239521 L 406 306.104341317 L 410 297.156287425 L 413 292.583233533 L 417 337.010179641 L 420 325.437125749 L 424 319.114071856 L 427 338.166017964 L 431 325.717964072 L 434 343.01991018 L 438 349.821856287 L 441 313.748802395 L 445 339.800748503 L 448 365.852694611 L 452 358.654640719 L 455 340.081586826 L 459 335.508532934 L 462 344.935479042 L 466 333.36242515 L 469 291.164371257 L 473 307.591317365 L 476 290.768263473 L 480 327.320209581 L 483 290.372155689 L 487 324.299101796 L 490 338.976047904 L 494 347.527994012 L 497 335.07994012 L 501 370.756886228 L 504 370.558832335 L 508 414.985778443 L 511 417.412724551 L 515 390.964670659 L 518 397.766616766 L 522 429.068562874 L 525 415.745508982 L 529 453.17245509 L 532 447.724401198 L 536 450.151347305 L 539 433.328293413 L 543 426.130239521 L 546 435.557185629 L 550 433.609131737 L 553 450.036077844 L 557 434.088023952 L 560 430.38997006 L 564 395.191916168 L 567 433.493862275 L 571 441.170808383 L 574 436.597754491 L 578 425.024700599 L 581 447.576646707 L 585 434.253592814 L 588 427.055538922 L 592 434.73248503 L 595 437.159431138 L 599 432.586377246 L 602 445.513323353 L 606 438.315269461 L 609 447.742215569 L 613 430.044161677 L 616 437.721107784 L 620 436.648053892"/>
		</g>
		<text class="x-axis-label" x="40.0" y="540">
			0
		</text>
		<path class="x-notch" d="M 57.4698795181 525 L 57.4698795181 530"/>
		<text class="x-axis-label" x="74.9397590361" y="540">
			10
		</text>
		<path class="x-notch" d="M 92.4096385542 525 L 92.4096385542 530"/>
		<text class="x-axis-label" x="109.879518072" y="540">
			20
		</text>
		<path class="x-notch" d="M 127.34939759 525 L 127.34939759 530"/>
		<text class="x-axis-label" x="144.819277108" y="540">
			30
		</text>
		<path class="x-notch" d="M 162.289156627 525 L 162.289156627 530"/>
		<text class="x-axis-label" x="179.759036145" y="540">
			40
		</text>
		<path class="x-notch" d="M 197.228915663 525 L 197.228915663 530"/>
		<text class="x-axis-label" x="214.698795181" y="540">
			50
		</text>
		<path class="x-notch" d="M 232.168674699 525 L 232.168674699 530"/>
		<text class="x-axis-label" x="249.638554217" y="540">
			60
		</text>
		<path class="x-notch" d="M 267.108433735 525 L 267.108433735 530"/>
		<text class="x-axis-label" x="284.578313253" y="540">
			70
		</text>
		<path class="x-notch" d="M 302.048192771 525 L 302.048192771 530"/>
		<text class="x-axis-label" x="319.518072289" y="540">
			80
		</text>
		<path class="x-notch" d="M 336.987951807 525 L 336.987951807 530"/>
		<text class="x-axis-label" x="354.457831325" y="540">
			90
		</text>
		<path class="x-notch" d="M 371.927710843 525 L 371.927710843 530"/>
		<text class="x-axis-label" x="389.397590361" y="540">
			100
		</text>
		<path class="x-notch" d="M 406.86746988 525 L 406.86746988 530"/>
		<text class="x-axis-label" x="424.337349398" y="540">
			110
		</text>
		<path class="x-notch" d="M 441.807228916 525 L 441.807228916 530"/>
		<text class="x-axis-label" x="459.277108434" y="540">
			120
		</text>
		<path class="x-notch" d="M 476.746987952 525 L 476.746987952 530"/>
		<text class="x-axis-label" x="494.21686747" y="540">
			130
		</text>
		<path class="x-notch" d="M 511.686746988 525 L 511.686746988 530"/>
		<text class="x-axis-label" x="529.156626506" y="540">
			140
		</text>
		<path class="x-notch" d="M 546.626506024 525 L 546.626506024 530"/>
		<text class="x-axis-label" x="564.096385542" y="540">
			150
		</text>
		<path class="x-notch" d="M 581.56626506 525 L 581.56626506 530"/>
		<text class="x-axis-label" x="599.036144578" y="540">
			160
		</text>
		<path class="x-notch" d="M 616.506024096 525 L 616.506024096 530"/>
	</g>
</svg>
