<?xml version="1.0" ?>
<svg height="600" version="1.1" width="800" xmlns="http://www.w3.org/2000/svg" xmlns:svg="http://www.w3.org/2000/svg">
	<style type="text/css">
		

.x-axis-path, .y-gridline, .x-notch { fill:none; stroke: #a7a9ac; stroke-width:1; }



.y-gridline { stroke-width: 1; }

.y-axis-path, .y-axis-path2, .x-notch-left, .x-notch-right { display: none;}



.x-axis-label, .data-point-label {font-size: 12px; font-weight:normal; font-family: sans-serif; fill: #58595b; text-anchor:middle;}

.y-axis-label {font-size: 12px; font-family: helvetica; fill: #a7a9ac; text-anchor:end;}



.series-1-line { fill: none; stroke: #10b80c; stroke-width:2; }



.series-2-line { fill: none; stroke: #e90f0a; stroke-width: 2;}

	</style>
	<rect fill="white" height="600" width="800" x="0" y="0"/>
	<g id="grid" transform="translate(70, 30)">
		<g class="x-axis" id="x_axis">
			<path class="x-axis-path" d="M 0 525 L 660 525"/>
			<path class="x-notch-left" d="M 0 525, L 0 535"/>
			<path class="x-notch-right" d="M 660 525, L 660 535"/>
		</g>
		<g class="y-axis" id="y_axis">
			<path class="y-axis-path" d="M 0 525 L 0 0"/>
			<path class="y-axis-path-2" d="M 660 525 L 660 0"/>
			<path class="y-gridline" d="M 0 525 L 660 525"/>
			<text class="y-axis-label" x="-5" y="525">
				-300
			</text>
			<path class="y-gridline" d="M 0 420 L 660 420"/>
			<text class="y-axis-label" x="-5" y="420">
				 0
			</text>
			<path class="y-gridline" d="M 0 315 L 660 315"/>
			<text class="y-axis-label" x="-5" y="315">
				300
			</text>
			<path class="y-gridline" d="M 0 210 L 660 210"/>
			<text class="y-axis-label" x="-5" y="210">
				600
			</text>
			<path class="y-gridline" d="M 0 105 L 660 105"/>
			<text class="y-axis-label" x="-5" y="105">
				900
			</text>
			<path class="y-gridline" d="M 0 0 L 660 0"/>
			<text class="y-axis-label" x="-5" y="0">
				1200
			</text>
		</g>
		<g>
			<path class="series-1-line" d="M 40 408.932962818 L 46 420.106728572 L 53 430.760770612 L 60 420.148550014 L 66 418.678250751 L 73 412.561687272 L 80 400.495790986 L 87 378.65511811 L 93 391.824369174 L 100 380.90353325 L 107 370.878468873 L 114 377.488440132 L 120 363.54735625 L 127 358.718589189 L 134 372.430119788 L 141 343.759027339 L 147 352.92227057 L 154 333.731906688 L 161 316.605635405 L 168 328.48709005 L 174 336.015741111 L 181 312.30775168 L 188 334.664505636 L 195 319.413186993 L 201 347.741947053 L 208 327.55759982 L 215 336.70557088 L 222 319.436093628 L 228 320.254857786 L 235 309.770453508 L 242 285.573284704 L 249 308.336043441 L 255 289.899537397 L 262 288.835830308 L 269 292.290101202 L 276 259.552617107 L 282 245.272608516 L 289 241.460733062 L 296 262.725409339 L 303 234.408396292 L 309 238.894596008 L 316 262.674598787 L 323 265.030213222 L 330 240.03395746 L 336 210.0 L 343 231.219682113 L 350 230.961758242 L 356 257.083924603 L 363 264.198464884 L 370 247.997804619 L 377 271.763240097 L 383 255.706020758 L 390 268.476785647 L 397 260.085843527 L 404 251.6047956 L 410 265.526377284 L 417 270.916454545 L 424 263.964503332 L 431 258.029091292 L 437 310.140497797 L 444 342.799505621 L 451 351.502469124 L 458 394.856695515 L 464 417.387199781 L 471 428.425395651 L 478 414.266037208 L 485 427.322391687 L 491 426.274074247 L 498 426.671326495 L 505 426.963318245 L 512 430.34299046 L 518 427.080443235 L 525 418.825188477 L 532 429.358815326 L 539 423.001069029 L 545 420.13031172 L 552 433.390021025 L 559 421.987054423 L 566 413.844696249 L 572 432.548934382 L 579 417.026710928 L 586 423.268035483 L 593 420.95424249 L 599 413.678286303 L 606 426.154650734 L 613 412.085750532 L 620 429.186175792"/>
			<path class="series-2-line" d="M 40 421.468477945 L 46 420.097223367 L 53 408.152927588 L 60 426.45927747 L 66 415.983459635 L 73 420.192421248 L 80 413.240950481 L 87 407.757957658 L 93 392.87670599 L 100 424.986748551 L 107 420.384842496 L 114 397.867505515 L 120 385.629514147 L 127 395.12499636 L 134 387.292438826 L 141 370.649013624 L 147 385.13732085 L 154 332.663033797 L 161 347.7387322 L 168 327.570959931 L 174 299.179711172 L 181 321.597799298 L 188 316.702197654 L 195 314.156160721 L 201 328.350772357 L 208 282.044092672 L 215 275.973708672 L 222 279.007887929 L 228 243.567945034 L 235 241.902994868 L 242 294.865424244 L 249 226.531575389 L 255 251.299228227 L 262 234.655803025 L 269 177.48238655 L 276 176.69852315 L 282 160.055097948 L 289 194.221009632 L 296 176.402802075 L 303 173.269373964 L 309 138.416822248 L 316 129.115786769 L 323 151.827570484 L 330 123.142626136 L 336 124.414631859 L 343 125.099246404 L 350 108.749516791 L 356 112.077391637 L 363 91.0285326007 L 370 41.7848970266 L 377 80.6499381337 L 383 66.3560776432 L 390 113.738290829 L 397 106.199428884 L 404 124.212083177 L 410 37.6691078078 L 417 22.2004649615 L 424 76.6313722823 L 431 121.370325168 L 437 216.91861494 L 444 242.861050134 L 451 168.6532895 L 458 359.065254499 L 464 407.328554452 L 471 404.195126342 L 478 403.117567353 L 485 394.403923052 L 491 409.773317045 L 498 394.304674198 L 505 395.282984332 L 512 407.128031257 L 518 401.351342846 L 525 407.028782403 L 532 402.426876347 L 539 386.958233501 L 545 400.271758371 L 552 394.20137437 L 559 409.864463951 L 566 409.374296141 L 572 390.087610638 L 579 406.925482575 L 586 419.064225089 L 593 402.714495476 L 599 438.936276283 L 606 417.593721658 L 613 425.327030337 L 620 427.186427238"/>
		</g>
		<text class="x-axis-label" x="40.0" y="540">
			0
		</text>
		<path class="x-notch" d="M 73.7209302326 525 L 73.7209302326 530"/>
		<text class="x-axis-label" x="107.441860465" y="540">
			10
		</text>
		<path class="x-notch" d="M 141.162790698 525 L 141.162790698 530"/>
		<text class="x-axis-label" x="174.88372093" y="540">
			20
		</text>
		<path class="x-notch" d="M 208.604651163 525 L 208.604651163 530"/>
		<text class="x-axis-label" x="242.325581395" y="540">
			30
		</text>
		<path class="x-notch" d="M 276.046511628 525 L 276.046511628 530"/>
		<text class="x-axis-label" x="309.76744186" y="540">
			40
		</text>
		<path class="x-notch" d="M 343.488372093 525 L 343.488372093 530"/>
		<text class="x-axis-label" x="377.209302326" y="540">
			50
		</text>
		<path class="x-notch" d="M 410.930232558 525 L 410.930232558 530"/>
		<text class="x-axis-label" x="444.651162791" y="540">
			60
		</text>
		<path class="x-notch" d="M 478.372093023 525 L 478.372093023 530"/>
		<text class="x-axis-label" x="512.093023256" y="540">
			70
		</text>
		<path class="x-notch" d="M 545.813953488 525 L 545.813953488 530"/>
		<text class="x-axis-label" x="579.534883721" y="540">
			80
		</text>
		<path class="x-notch" d="M 613.255813953 525 L 613.255813953 530"/>
	</g>
</svg>
