<?xml version="1.0" ?>
<svg height="600" version="1.1" width="800" xmlns="http://www.w3.org/2000/svg" xmlns:svg="http://www.w3.org/2000/svg">
	<style type="text/css">
		

.x-axis-path, .y-gridline, .x-notch { fill:none; stroke: #a7a9ac; stroke-width:1; }



.y-gridline { stroke-width: 1; }

.y-axis-path, .y-axis-path2, .x-notch-left, .x-notch-right { display: none;}



.x-axis-label, .data-point-label {font-size: 12px; font-weight:normal; font-family: sans-serif; fill: #58595b; text-anchor:middle;}

.y-axis-label {font-size: 12px; font-family: helvetica; fill: #a7a9ac; text-anchor:end;}



.series-1-line { fill: none; stroke: #10b80c; stroke-width:2; }



.series-2-line { fill: none; stroke: #e90f0a; stroke-width: 2;}

	</style>
	<rect fill="white" height="600" width="800" x="0" y="0"/>
	<g id="grid" transform="translate(70, 30)">
		<g class="x-axis" id="x_axis">
			<path class="x-axis-path" d="M 0 525 L 660 525"/>
			<path class="x-notch-left" d="M 0 525, L 0 535"/>
			<path class="x-notch-right" d="M 660 525, L 660 535"/>
		</g>
		<g class="y-axis" id="y_axis">
			<path class="y-axis-path" d="M 0 525 L 0 0"/>
			<path class="y-axis-path-2" d="M 660 525 L 660 0"/>
			<path class="y-gridline" d="M 0 525 L 660 525"/>
			<text class="y-axis-label" x="-5" y="525">
				-200
			</text>
			<path class="y-gridline" d="M 0 394 L 660 394"/>
			<text class="y-axis-label" x="-5" y="394">
				 0
			</text>
			<path class="y-gridline" d="M 0 263 L 660 263"/>
			<text class="y-axis-label" x="-5" y="263">
				200
			</text>
			<path class="y-gridline" d="M 0 132 L 660 132"/>
			<text class="y-axis-label" x="-5" y="132">
				400
			</text>
			<path class="y-gridline" d="M 0 1 L 660 1"/>
			<text class="y-axis-label" x="-5" y="1">
				600
			</text>
		</g>
		<g>
			<path class="series-1-line" d="M 40 388.06236 L 45 378.960137335 L 51 401.87923967 L 56 397.942754505 L 62 405.61690684 L 67 398.971421675 L 73 373.648011509 L 78 388.523851344 L 84 404.594591179 L 89 370.537543514 L 95 385.245383349 L 100 369.597460684 L 106 398.220688019 L 111 382.724227854 L 117 384.559067689 L 122 382.086545024 L 128 361.575547358 L 133 375.643674693 L 139 378.387289528 L 144 336.927216863 L 150 349.009531698 L 156 371.609171533 L 161 346.370023868 L 167 343.728976203 L 172 309.554591038 L 178 316.589293373 L 183 297.306533208 L 189 322.581310542 L 194 306.949925377 L 200 306.732277712 L 205 288.576955047 L 211 227.344857382 L 216 239.747159717 L 222 225.445337052 L 227 232.446176887 L 233 228.930479222 L 238 242.762881557 L 244 183.230208892 L 249 183.281623726 L 255 206.284988561 L 260 203.206353396 L 266 176.789105731 L 272 169.554308066 L 277 192.187547901 L 283 182.327750236 L 288 131.663115071 L 294 129.459392406 L 299 136.123707241 L 305 110.716034575 L 310 121.01492441 L 316 94.3280892453 L 321 35.6703290802 L 327 59.4816689151 L 332 57.58113375 L 338 88.9472235849 L 343 60.9988134198 L 349 89.5207157547 L 354 111.19504309 L 360 117.119370425 L 365 153.281072759 L 371 167.803587594 L 376 154.663064929 L 382 123.584604764 L 388 144.097369599 L 393 121.920284434 L 399 103.529499269 L 404 160.304801604 L 410 103.615791439 L 415 171.496418774 L 421 125.778596108 L 426 173.147210943 L 432 215.013825778 L 437 187.990465613 L 443 241.181067948 L 448 245.085720283 L 454 199.602835118 L 459 168.625437453 L 465 199.874189788 L 470 272.989067123 L 476 219.597319458 L 481 253.891859292 L 487 243.040074127 L 492 350.161826462 L 498 409.646653797 L 504 431.152193632 L 509 405.761583467 L 515 409.481173302 L 520 404.265788137 L 526 421.345840472 L 531 406.236305307 L 537 384.076282642 L 542 412.514447476 L 548 401.931462311 L 553 385.593689646 L 559 400.991116981 L 564 395.102419316 L 570 411.476084151 L 575 414.623686486 L 581 407.944338821 L 586 410.132766156 L 592 389.419905991 L 597 387.199645825 L 603 411.34724816 L 608 382.237537995 L 614 400.98367783 L 620 381.414792665"/>
			<path class="series-2-line" d="M 40 380.1 L 45 398.649587264 L 51 387.011674528 L 56 393.092511792 L 62 405.079599057 L 67 424.285436321 L 73 439.553773585 L 78 428.572110849 L 84 435.965448113 L 89 405.952535377 L 95 421.220872642 L 100 437.145459906 L 106 405.82004717 L 111 423.713384434 L 117 399.606721698 L 122 407.656308962 L 128 414.393396226 L 133 401.442983491 L 139 389.148820755 L 144 439.198408019 L 150 403.279245283 L 156 415.922582547 L 161 443.659669811 L 167 426.771757075 L 172 440.72759434 L 178 450.089681604 L 183 444.358018868 L 189 423.532606132 L 194 411.238443396 L 200 425.85053066 L 205 423.400117925 L 211 435.387205189 L 216 426.374292453 L 222 437.048879717 L 227 426.067216981 L 233 443.304304245 L 238 415.916391509 L 244 418.715978774 L 249 416.921816038 L 255 417.752653302 L 260 392.333490566 L 266 399.07057783 L 272 382.182665094 L 277 389.576002358 L 283 372.688089623 L 288 399.768926887 L 294 365.818514151 L 299 356.149351415 L 305 358.948938679 L 310 345.342275943 L 316 317.298113208 L 321 311.566450472 L 327 339.959787736 L 332 335.540625 L 338 311.433962264 L 343 326.702299528 L 349 259.939386792 L 354 288.988974057 L 360 318.038561321 L 365 288.025648585 L 371 280.981485849 L 376 315.281073113 L 382 306.924410377 L 388 286.755247642 L 393 271.836084906 L 399 280.54192217 L 404 310.904009434 L 410 305.172346698 L 415 292.221933962 L 421 289.771521226 L 426 277.477358491 L 432 304.558195755 L 437 277.826533019 L 443 253.063620283 L 448 238.800707547 L 454 174.006544811 L 459 175.493632075 L 465 195.35571934 L 470 287.405306604 L 476 202.267393868 L 481 233.285731132 L 487 294.491568396 L 492 353.72865566 L 498 422.153242925 L 504 400.671580189 L 509 426.439917453 L 515 415.458254717 L 520 416.289091981 L 526 394.151179245 L 531 402.857016509 L 537 410.906603774 L 542 382.862441038 L 548 402.068278302 L 553 423.242865566 L 559 407.66745283 L 564 385.529540094 L 570 396.860377358 L 575 398.347464623 L 581 397.209551887 L 586 394.759139151 L 592 407.402476415 L 597 401.670813679 L 603 403.157900943 L 608 394.801238208 L 614 394.319575472 L 620 382.025412736"/>
		</g>
		<text class="x-axis-label" x="40.0" y="540">
			0
		</text>
		<path class="x-notch" d="M 67.619047619 525 L 67.619047619 530"/>
		<text class="x-axis-label" x="95.2380952381" y="540">
			10
		</text>
		<path class="x-notch" d="M 122.857142857 525 L 122.857142857 530"/>
		<text class="x-axis-label" x="150.476190476" y="540">
			20
		</text>
		<path class="x-notch" d="M 178.095238095 525 L 178.095238095 530"/>
		<text class="x-axis-label" x="205.714285714" y="540">
			30
		</text>
		<path class="x-notch" d="M 233.333333333 525 L 233.333333333 530"/>
		<text class="x-axis-label" x="260.952380952" y="540">
			40
		</text>
		<path class="x-notch" d="M 288.571428571 525 L 288.571428571 530"/>
		<text class="x-axis-label" x="316.19047619" y="540">
			50
		</text>
		<path class="x-notch" d="M 343.80952381 525 L 343.80952381 530"/>
		<text class="x-axis-label" x="371.428571429" y="540">
			60
		</text>
		<path class="x-notch" d="M 399.047619048 525 L 399.047619048 530"/>
		<text class="x-axis-label" x="426.666666667" y="540">
			70
		</text>
		<path class="x-notch" d="M 454.285714286 525 L 454.285714286 530"/>
		<text class="x-axis-label" x="481.904761905" y="540">
			80
		</text>
		<path class="x-notch" d="M 509.523809524 525 L 509.523809524 530"/>
		<text class="x-axis-label" x="537.142857143" y="540">
			90
		</text>
		<path class="x-notch" d="M 564.761904762 525 L 564.761904762 530"/>
		<text class="x-axis-label" x="592.380952381" y="540">
			100
		</text>
		<path class="x-notch" d="M 620.0 525 L 620.0 530"/>
	</g>
</svg>
