<?xml version="1.0" ?>
<svg height="600" version="1.1" width="800" xmlns="http://www.w3.org/2000/svg" xmlns:svg="http://www.w3.org/2000/svg">
	<style type="text/css">
		

.x-axis-path, .y-gridline, .x-notch { fill:none; stroke: #a7a9ac; stroke-width:1; }



.y-gridline { stroke-width: 1; }

.y-axis-path, .y-axis-path2, .x-notch-left, .x-notch-right { display: none;}



.x-axis-label, .data-point-label {font-size: 12px; font-weight:normal; font-family: sans-serif; fill: #58595b; text-anchor:middle;}

.y-axis-label {font-size: 12px; font-family: helvetica; fill: #a7a9ac; text-anchor:end;}



.series-1-line { fill: none; stroke: #10b80c; stroke-width:2; }



.series-2-line { fill: none; stroke: #e90f0a; stroke-width: 2;}

	</style>
	<rect fill="white" height="600" width="800" x="0" y="0"/>
	<g id="grid" transform="translate(70, 30)">
		<g class="x-axis" id="x_axis">
			<path class="x-axis-path" d="M 0 525 L 660 525"/>
			<path class="x-notch-left" d="M 0 525, L 0 535"/>
			<path class="x-notch-right" d="M 660 525, L 660 535"/>
		</g>
		<g class="y-axis" id="y_axis">
			<path class="y-axis-path" d="M 0 525 L 0 0"/>
			<path class="y-axis-path-2" d="M 660 525 L 660 0"/>
			<path class="y-gridline" d="M 0 525 L 660 525"/>
			<text class="y-axis-label" x="-5" y="525">
				-200
			</text>
			<path class="y-gridline" d="M 0 394 L 660 394"/>
			<text class="y-axis-label" x="-5" y="394">
				 0
			</text>
			<path class="y-gridline" d="M 0 263 L 660 263"/>
			<text class="y-axis-label" x="-5" y="263">
				200
			</text>
			<path class="y-gridline" d="M 0 132 L 660 132"/>
			<text class="y-axis-label" x="-5" y="132">
				400
			</text>
			<path class="y-gridline" d="M 0 1 L 660 1"/>
			<text class="y-axis-label" x="-5" y="1">
				600
			</text>
		</g>
		<g>
			<path class="series-1-line" d="M 40 383.6942025 L 45 417.559381607 L 51 380.936748214 L 57 399.405252321 L 63 389.268081429 L 69 380.981798036 L 75 395.832527143 L 81 394.34446875 L 87 391.695110357 L 93 362.745614464 L 99 374.769481071 L 105 382.519322679 L 111 370.615264286 L 117 359.485318393 L 123 340.36251 L 129 347.355039107 L 135 330.907893214 L 141 320.164609821 L 147 313.948401429 L 153 283.955468036 L 159 301.582659643 L 165 311.36845125 L 171 297.478842857 L 177 287.476334464 L 183 276.918376071 L 189 278.913430179 L 195 281.884459286 L 201 226.836163393 L 207 161.45613 L 213 138.143559107 L 219 122.403063214 L 225 166.751442321 L 231 134.167108929 L 237 166.400063036 L 243 183.354204643 L 249 106.44779625 L 255 155.389925357 L 261 95.4449544643 L 267 126.079546071 L 273 108.033512679 L 279 97.4926167857 L 285 103.223308393 L 291 58.0019625 L 297 117.511291607 L 303 107.710645714 L 309 112.650424821 L 315 140.642953929 L 321 91.2486455357 L 327 103.356512143 L 332 62.59451625 L 338 76.6207328571 L 344 141.901649464 L 350 113.221216071 L 356 45.3172451786 L 362 100.603211786 L 368 34.4997283929 L 374 23.1508575 L 380 58.0930741071 L 386 106.479753214 L 392 71.2200198214 L 398 87.5179114286 L 404 98.8519280357 L 410 75.6065571429 L 416 105.88756125 L 422 58.1254778571 L 428 105.721506964 L 434 132.435136071 L 440 106.716227679 L 446 189.766556786 L 452 231.860060893 L 458 254.165265 L 464 277.816569107 L 470 293.054485714 L 476 333.196039821 L 482 364.015693929 L 488 364.546785536 L 494 383.991264643 L 500 360.74589375 L 506 381.031685357 L 512 381.007589464 L 518 384.668468571 L 524 387.639497679 L 530 409.389251786 L 536 404.165555893 L 542 403.4513475 L 548 410.259076607 L 554 401.720268214 L 560 405.852334821 L 566 404.397876429 L 572 394.748693036 L 578 372.799022143 L 584 401.88538875 L 590 409.450167857 L 596 401.416146964 L 602 389.243026071 L 608 401.788480179 L 614 381.757159286 L 620 391.374688393"/>
			<path class="series-2-line" d="M 40 390.99375 L 45 387.697767857 L 51 400.808035714 L 57 393.574553571 L 63 395.528571429 L 69 390.263839286 L 75 384.342857143 L 81 393.515625 L 87 379.063392857 L 93 398.079910714 L 99 398.065178571 L 105 399.362946429 L 111 395.410714286 L 117 398.677232143 L 123 394.725 L 129 386.179017857 L 135 399.945535714 L 141 368.430803571 L 147 398.603571429 L 153 401.213839286 L 159 397.261607143 L 165 388.059375 L 171 386.732142857 L 177 393.279910714 L 183 384.077678571 L 189 387.344196429 L 195 391.923214286 L 201 387.314732143 L 207 382.05 L 213 391.879017857 L 219 397.770535714 L 225 397.099553571 L 231 394.459821429 L 237 389.851339286 L 243 388.524107143 L 249 389.821875 L 255 389.150892857 L 261 380.604910714 L 267 395.027678571 L 273 376.637946429 L 279 390.404464286 L 285 399.577232143 L 291 397.59375 L 297 386.422767857 L 303 387.064285714 L 309 391.643303571 L 315 383.097321429 L 321 392.270089286 L 327 379.130357143 L 332 398.146875 L 338 392.882142857 L 344 377.117410714 L 350 379.727678571 L 356 384.306696429 L 362 392.166964286 L 368 397.402232143 L 374 383.60625 L 380 391.466517857 L 386 375.045535714 L 392 380.280803571 L 398 378.953571429 L 404 384.188839286 L 410 383.517857143 L 416 376.284375 L 422 386.769642857 L 428 391.348660714 L 434 377.552678571 L 440 378.850446429 L 446 380.804464286 L 452 373.570982143 L 458 382.0875 L 464 385.354017857 L 470 395.839285714 L 476 385.980803571 L 482 397.122321429 L 488 398.420089286 L 494 392.499107143 L 500 391.828125 L 506 382.625892857 L 512 393.767410714 L 518 393.096428571 L 524 397.675446429 L 530 390.441964286 L 536 393.708482143 L 542 384.50625 L 548 404.835267857 L 554 387.758035714 L 560 390.368303571 L 566 394.291071429 L 572 396.901339286 L 578 398.855357143 L 584 398.840625 L 590 403.419642857 L 596 384.373660714 L 602 396.827678571 L 608 392.219196429 L 614 402.048214286 L 620 393.502232143"/>
		</g>
		<text class="x-axis-label" x="40.0" y="540">
			0
		</text>
		<path class="x-notch" d="M 69.8969072165 525 L 69.8969072165 530"/>
		<text class="x-axis-label" x="99.793814433" y="540">
			10
		</text>
		<path class="x-notch" d="M 129.690721649 525 L 129.690721649 530"/>
		<text class="x-axis-label" x="159.587628866" y="540">
			20
		</text>
		<path class="x-notch" d="M 189.484536082 525 L 189.484536082 530"/>
		<text class="x-axis-label" x="219.381443299" y="540">
			30
		</text>
		<path class="x-notch" d="M 249.278350515 525 L 249.278350515 530"/>
		<text class="x-axis-label" x="279.175257732" y="540">
			40
		</text>
		<path class="x-notch" d="M 309.072164948 525 L 309.072164948 530"/>
		<text class="x-axis-label" x="338.969072165" y="540">
			50
		</text>
		<path class="x-notch" d="M 368.865979381 525 L 368.865979381 530"/>
		<text class="x-axis-label" x="398.762886598" y="540">
			60
		</text>
		<path class="x-notch" d="M 428.659793814 525 L 428.659793814 530"/>
		<text class="x-axis-label" x="458.556701031" y="540">
			70
		</text>
		<path class="x-notch" d="M 488.453608247 525 L 488.453608247 530"/>
		<text class="x-axis-label" x="518.350515464" y="540">
			80
		</text>
		<path class="x-notch" d="M 548.24742268 525 L 548.24742268 530"/>
		<text class="x-axis-label" x="578.144329897" y="540">
			90
		</text>
		<path class="x-notch" d="M 608.041237113 525 L 608.041237113 530"/>
	</g>
</svg>
