<?xml version="1.0" ?>
<svg height="600" version="1.1" width="800" xmlns="http://www.w3.org/2000/svg" xmlns:svg="http://www.w3.org/2000/svg">
	<style type="text/css">

.x-axis-path, .y-gridline, .x-notch { fill:none; stroke: #a7a9ac; stroke-width:1; }



.y-gridline { stroke-width: 1; }

.y-axis-path, .y-axis-path2, .x-notch-left, .x-notch-right { display: none;}



.x-axis-label, .data-point-label {font-size: 12px; font-weight:normal; font-family: sans-serif; fill: #58595b; text-anchor:middle;}

.y-axis-label {font-size: 12px; font-family: helvetica; fill: #a7a9ac; text-anchor:end;}



.series-1-line { fill: none; stroke: #10b80c; stroke-width:2; }



.series-2-line { fill: none; stroke: #e90f0a; stroke-width: 2;}
</style>
	<rect fill="white" height="600" width="800" x="0" y="0"/>
	<g id="grid" transform="translate(70, 30)">
		<g class="x-axis" id="x_axis">
			<path class="x-axis-path" d="M 0 525 L 660 525"/>
			<path class="x-notch-left" d="M 0 525, L 0 535"/>
			<path class="x-notch-right" d="M 660 525, L 660 535"/>
		</g>
		<g class="y-axis" id="y_axis">
			<path class="y-axis-path" d="M 0 525 L 0 0"/>
			<path class="y-axis-path-2" d="M 660 525 L 660 0"/>
			<path class="y-gridline" d="M 0 525 L 660 525"/>
			<text class="y-axis-label" x="-5" y="525">-200</text>
			<path class="y-gridline" d="M 0 394 L 660 394"/>
			<text class="y-axis-label" x="-5" y="394"> 0</text>
			<path class="y-gridline" d="M 0 263 L 660 263"/>
			<text class="y-axis-label" x="-5" y="263">200</text>
			<path class="y-gridline" d="M 0 132 L 660 132"/>
			<text class="y-axis-label" x="-5" y="132">400</text>
			<path class="y-gridline" d="M 0 1 L 660 1"/>
			<text class="y-axis-label" x="-5" y="1">600</text>
		</g>
		<g>
			<path class="series-1-line" d="M 40 402.986054299 L 45 379.578469219 L 50 394.643668322 L 55 397.730529646 L 60 396.2394417 L 65 381.691376776 L 70 364.680089157 L 75 392.823541148 L 80 380.094154274 L 85 396.766261895 L 90 378.930326571 L 95 387.852889847 L 100 369.985123121 L 105 376.476295103 L 110 366.960725265 L 115 380.334406995 L 120 357.57186135 L 125 379.752450713 L 130 356.757024556 L 135 393.072570377 L 140 377.742574499 L 145 385.354277782 L 150 341.129615889 L 155 367.190172705 L 160 290.751142993 L 165 318.027230527 L 170 300.540615971 L 175 293.826704248 L 180 279.183969768 L 185 256.717142789 L 190 226.902539827 L 195 204.541597614 L 200 158.117270432 L 205 159.036627728 L 210 113.257834768 L 215 145.281419142 L 220 143.14529176 L 225 109.059838333 L 230 96.5204502898 L 235 107.789466146 L 240 84.4979914628 L 245 61.3656737863 L 250 89.1708552884 L 255 115.399970096 L 260 87.1718243896 L 265 79.2629981414 L 270 121.826899625 L 275 57.0069911507 L 280 31.8236097016 L 285 0.0 L 290 56.0226468227 L 295 66.9222205072 L 300 64.8283150881 L 305 53.1675067104 L 310 14.1018408609 L 315 102.613463188 L 320 71.9422161898 L 325 95.3391609185 L 330 103.743515576 L 335 169.873704393 L 340 144.341002176 L 345 179.980336879 L 350 173.074941958 L 355 310.970757046 L 360 283.904869816 L 365 346.462025055 L 370 274.621725736 L 375 290.162416706 L 380 346.048501868 L 385 357.064515809 L 390 320.843224825 L 395 257.133622021 L 400 301.558423516 L 405 398.783603356 L 410 405.782098606 L 415 412.357879443 L 420 392.935321933 L 425 417.696398896 L 430 407.197189276 L 435 410.083166419 L 440 441.873705352 L 445 421.91281782 L 450 389.899209287 L 455 445.107928825 L 460 419.681111373 L 465 412.005825355 L 470 378.35413662 L 475 439.135000703 L 480 403.061651516 L 485 435.180235306 L 490 412.480197957 L 495 428.962471676 L 500 435.749362325 L 505 430.12514008 L 510 418.664391235 L 515 432.027682404 L 520 427.999318398 L 525 426.022018164 L 530 424.626259493 L 535 418.028623096 L 540 404.664752277 L 545 412.551393106 L 550 409.654280822 L 555 413.227354433 L 560 412.14842541 L 565 422.509174284 L 570 412.084512816 L 575 416.365958807 L 580 397.293051924 L 585 390.758913401 L 590 422.655502028 L 595 401.964801277 L 600 399.363737519 L 605 396.994894555 L 610 375.924031213 L 615 389.519543175 L 620 403.305548758"/>
			<path class="series-2-line" d="M 40 393.75 L 45 400.208330704 L 50 386.875116481 L 55 392.921123332 L 60 389.483681573 L 65 380.686029729 L 70 386.319712727 L 75 391.128748021 L 80 404.184260367 L 85 381.367597533 L 90 387.001280531 L 95 367.070884666 L 100 361.571823643 L 105 367.205506642 L 110 361.294121766 L 115 354.558089186 L 120 372.973811616 L 125 375.308903794 L 130 365.686604245 L 135 333.798816652 L 140 366.645873926 L 145 358.260545934 L 150 363.894228933 L 155 355.921224794 L 160 337.640124339 L 165 300.804450516 L 170 348.495166484 L 175 339.69751464 L 180 377.904781998 L 185 366.220863185 L 190 359.072506752 L 195 363.05689434 L 200 309.72826641 L 205 300.105966861 L 210 306.976621417 L 215 317.558190648 L 220 302.163357162 L 225 334.18576673 L 230 317.553961685 L 235 237.011959481 L 240 225.328040668 L 245 269.307841963 L 250 278.652439636 L 255 212.129448421 L 260 263.118755211 L 265 231.643291471 L 270 205.940361669 L 275 192.194823593 L 280 234.525329477 L 285 203.049865738 L 290 184.35644143 L 295 161.539778596 L 300 139.547763468 L 305 227.233893143 L 310 199.88166793 L 315 178.301976654 L 320 143.940245946 L 325 197.815819704 L 330 162.217117438 L 335 174.860305932 L 340 175.133778846 L 345 184.478376518 L 350 60.6423697863 L 355 86.0675977119 L 360 68.1988211098 L 365 123.723690279 L 370 79.466187107 L 375 40.1565701673 L 380 107.22650721 L 385 98.4288553661 L 390 109.835072302 L 395 115.881079153 L 400 105.434131899 L 405 268.575526608 L 410 259.365550911 L 415 267.885500878 L 420 199.300890401 L 425 281.626809991 L 430 236.132335262 L 435 241.353694408 L 440 207.816611405 L 445 223.346066867 L 450 221.557920518 L 455 217.295831054 L 460 233.237610368 L 465 294.122689621 L 470 355.007768875 L 475 398.162922464 L 480 402.559633905 L 485 398.29754444 L 490 326.414343141 L 495 349.365627951 L 500 324.899669706 L 505 387.43404437 L 510 395.541670484 L 515 406.535563568 L 520 412.993894271 L 525 421.101520386 L 530 434.981680437 L 535 424.12240933 L 540 423.571234539 L 545 420.546116632 L 550 427.416771189 L 555 421.917710166 L 560 402.399638153 L 565 415.4551505 L 570 422.738128909 L 575 419.300687149 L 580 424.934370148 L 585 420.25995683 L 590 418.471810481 L 595 403.076976995 L 600 412.009250815 L 605 384.657025602 L 610 412.556196643 L 615 387.265590693 L 620 380.529558113"/>
		</g>
		<text class="x-axis-label" x="40.0" y="540">0</text>
		<path class="x-notch" d="M 65.0 525 L 65.0 530"/>
		<text class="x-axis-label" x="90.0" y="540">10</text>
		<path class="x-notch" d="M 115.0 525 L 115.0 530"/>
		<text class="x-axis-label" x="140.0" y="540">20</text>
		<path class="x-notch" d="M 165.0 525 L 165.0 530"/>
		<text class="x-axis-label" x="190.0" y="540">30</text>
		<path class="x-notch" d="M 215.0 525 L 215.0 530"/>
		<text class="x-axis-label" x="240.0" y="540">40</text>
		<path class="x-notch" d="M 265.0 525 L 265.0 530"/>
		<text class="x-axis-label" x="290.0" y="540">50</text>
		<path class="x-notch" d="M 315.0 525 L 315.0 530"/>
		<text class="x-axis-label" x="340.0" y="540">60</text>
		<path class="x-notch" d="M 365.0 525 L 365.0 530"/>
		<text class="x-axis-label" x="390.0" y="540">70</text>
		<path class="x-notch" d="M 415.0 525 L 415.0 530"/>
		<text class="x-axis-label" x="440.0" y="540">80</text>
		<path class="x-notch" d="M 465.0 525 L 465.0 530"/>
		<text class="x-axis-label" x="490.0" y="540">90</text>
		<path class="x-notch" d="M 515.0 525 L 515.0 530"/>
		<text class="x-axis-label" x="540.0" y="540">100</text>
		<path class="x-notch" d="M 565.0 525 L 565.0 530"/>
		<text class="x-axis-label" x="590.0" y="540">110</text>
		<path class="x-notch" d="M 615.0 525 L 615.0 530"/>
	</g>
</svg>
