<?xml version="1.0" ?>
<svg height="600" version="1.1" width="800" xmlns="http://www.w3.org/2000/svg" xmlns:svg="http://www.w3.org/2000/svg">
	<style type="text/css">
		

.x-axis-path, .y-gridline, .x-notch { fill:none; stroke: #a7a9ac; stroke-width:1; }



.y-gridline { stroke-width: 1; }

.y-axis-path, .y-axis-path2, .x-notch-left, .x-notch-right { display: none;}



.x-axis-label, .data-point-label {font-size: 12px; font-weight:normal; font-family: sans-serif; fill: #58595b; text-anchor:middle;}

.y-axis-label {font-size: 12px; font-family: helvetica; fill: #a7a9ac; text-anchor:end;}



.series-1-line { fill: none; stroke: #10b80c; stroke-width:2; }



.series-2-line { fill: none; stroke: #e90f0a; stroke-width: 2;}

	</style>
	<rect fill="white" height="600" width="800" x="0" y="0"/>
	<g id="grid" transform="translate(70, 30)">
		<g class="x-axis" id="x_axis">
			<path class="x-axis-path" d="M 0 525 L 660 525"/>
			<path class="x-notch-left" d="M 0 525, L 0 535"/>
			<path class="x-notch-right" d="M 660 525, L 660 535"/>
		</g>
		<g class="y-axis" id="y_axis">
			<path class="y-axis-path" d="M 0 525 L 0 0"/>
			<path class="y-axis-path-2" d="M 660 525 L 660 0"/>
			<path class="y-gridline" d="M 0 525 L 660 525"/>
			<text class="y-axis-label" x="-5" y="525">
				-100
			</text>
			<path class="y-gridline" d="M 0 438 L 660 438"/>
			<text class="y-axis-label" x="-5" y="438">
				 0
			</text>
			<path class="y-gridline" d="M 0 351 L 660 351"/>
			<text class="y-axis-label" x="-5" y="351">
				100
			</text>
			<path class="y-gridline" d="M 0 264 L 660 264"/>
			<text class="y-axis-label" x="-5" y="264">
				200
			</text>
			<path class="y-gridline" d="M 0 177 L 660 177"/>
			<text class="y-axis-label" x="-5" y="177">
				300
			</text>
			<path class="y-gridline" d="M 0 90 L 660 90"/>
			<text class="y-axis-label" x="-5" y="90">
				400
			</text>
			<path class="y-gridline" d="M 0 3 L 660 3"/>
			<text class="y-axis-label" x="-5" y="3">
				500
			</text>
		</g>
		<g>
			<path class="series-1-line" d="M 40 411.24097 L 45 426.665757636 L 50 445.680145273 L 55 445.646482909 L 61 455.686520545 L 66 433.957408182 L 71 447.901345818 L 77 444.434883455 L 82 460.734671091 L 87 410.848408727 L 93 445.635196364 L 98 417.803484 L 103 428.225021636 L 109 424.265059273 L 114 424.859646909 L 119 428.976634545 L 125 437.692972182 L 130 445.758659818 L 135 428.045447455 L 141 429.716985091 L 146 425.510272727 L 151 405.172060364 L 157 401.391648 L 162 398.261885636 L 167 376.173673273 L 173 341.184810909 L 178 343.978098545 L 183 312.399636182 L 188 346.939673818 L 194 248.300161455 L 199 302.022999091 L 204 254.380236727 L 210 184.099824364 L 215 138.543762 L 220 209.429899636 L 226 176.662487273 L 231 196.619074909 L 236 147.428262545 L 242 172.926400182 L 247 199.255087818 L 252 101.558125455 L 258 188.867313091 L 263 125.653750727 L 268 138.610688364 L 274 107.929626 L 279 166.251813636 L 284 123.702251273 L 290 124.947488909 L 295 130.881676545 L 300 81.2197641818 L 306 164.243551818 L 311 87.2098894545 L 316 202.497027091 L 322 109.489014727 L 327 112.080352364 L 332 145.92494 L 337 144.814327636 L 343 161.989115273 L 348 145.330452909 L 353 128.716240545 L 359 120.650778182 L 364 131.812565818 L 369 228.545153455 L 375 195.171891091 L 380 267.673278727 L 385 207.937666364 L 391 232.246854 L 396 272.530741636 L 401 306.352579273 L 407 320.498466909 L 412 340.455404545 L 417 365.123692182 L 423 413.529329818 L 428 382.197617455 L 433 397.038955091 L 439 430.636792727 L 444 416.378780364 L 449 405.889918 L 455 429.279305636 L 460 432.364493273 L 465 434.080830909 L 471 453.386768545 L 476 419.990756182 L 481 441.966843818 L 486 437.804931455 L 492 431.938169091 L 497 430.782756727 L 502 422.178644364 L 508 446.779382 L 513 456.011619636 L 518 436.840307273 L 524 433.710544909 L 529 424.814532545 L 534 433.441270182 L 540 436.638457818 L 545 427.360945455 L 550 432.196133091 L 556 437.524820727 L 561 430.939858364 L 566 454.845146 L 572 438.949483636 L 577 444.345371273 L 582 435.247408909 L 588 430.524796545 L 593 423.558334182 L 598 442.258771818 L 604 442.539059455 L 609 435.505397091 L 614 438.926934727 L 620 432.140022364"/>
			<path class="series-2-line" d="M 40 432.075 L 45 442.619545455 L 50 439.164090909 L 55 438.333636364 L 61 435.753181818 L 66 441.047727273 L 71 443.717272727 L 77 432.386818182 L 82 442.931363636 L 87 438.600909091 L 93 431.645454545 L 98 433.44 L 103 439.609545455 L 109 437.029090909 L 114 440.573636364 L 119 440.618181818 L 125 439.787727273 L 130 438.082272727 L 135 431.126818182 L 141 437.296363636 L 146 439.090909091 L 151 432.135454545 L 157 435.68 L 162 440.099545455 L 167 433.144090909 L 173 425.313636364 L 178 427.108181818 L 183 433.277727273 L 188 430.697272727 L 194 421.991818182 L 199 429.911363636 L 204 416.830909091 L 210 420.375454545 L 215 423.045 L 220 415.214545455 L 226 436.259090909 L 231 422.303636364 L 236 411.848181818 L 242 386.517727273 L 247 402.312272727 L 252 417.231818182 L 258 406.776363636 L 263 365.695909091 L 268 385.865454545 L 274 388.535 L 279 395.579545455 L 284 406.999090909 L 290 411.418636364 L 295 400.963181818 L 300 395.757727273 L 306 371.302272727 L 311 370.471818182 L 316 397.641363636 L 322 397.685909091 L 327 396.855454545 L 332 400.4 L 337 396.944545455 L 343 407.489090909 L 348 406.658636364 L 353 364.703181818 L 359 388.372727273 L 364 381.417272727 L 369 402.461818182 L 375 415.631363636 L 380 394.675909091 L 385 391.220454545 L 391 380.765 L 396 403.559545455 L 401 376.479090909 L 407 381.773636364 L 412 401.943181818 L 417 403.737727273 L 423 422.157272727 L 428 423.951818182 L 433 423.121363636 L 439 431.040909091 L 444 431.085454545 L 449 423.255 L 455 419.799545455 L 460 444.344090909 L 465 443.513636364 L 471 428.683181818 L 476 411.227727273 L 481 423.522272727 L 486 418.316818182 L 492 440.236363636 L 497 443.780909091 L 502 449.075454545 L 508 427.245 L 513 414.164545455 L 518 429.959090909 L 524 434.378636364 L 529 416.923181818 L 534 430.092727273 L 540 437.137272727 L 545 410.931818182 L 550 435.476363636 L 556 451.270909091 L 561 448.690454545 L 566 432.985 L 572 449.654545455 L 577 454.949090909 L 582 434.868636364 L 588 448.913181818 L 593 437.582727273 L 598 449.002272727 L 604 433.296818182 L 609 432.466363636 L 614 438.635909091 L 620 433.430454545"/>
		</g>
		<text class="x-axis-label" x="40.0" y="540">
			0
		</text>
		<path class="x-notch" d="M 66.6055045872 525 L 66.6055045872 530"/>
		<text class="x-axis-label" x="93.2110091743" y="540">
			10
		</text>
		<path class="x-notch" d="M 119.816513761 525 L 119.816513761 530"/>
		<text class="x-axis-label" x="146.422018349" y="540">
			20
		</text>
		<path class="x-notch" d="M 173.027522936 525 L 173.027522936 530"/>
		<text class="x-axis-label" x="199.633027523" y="540">
			30
		</text>
		<path class="x-notch" d="M 226.23853211 525 L 226.23853211 530"/>
		<text class="x-axis-label" x="252.844036697" y="540">
			40
		</text>
		<path class="x-notch" d="M 279.449541284 525 L 279.449541284 530"/>
		<text class="x-axis-label" x="306.055045872" y="540">
			50
		</text>
		<path class="x-notch" d="M 332.660550459 525 L 332.660550459 530"/>
		<text class="x-axis-label" x="359.266055046" y="540">
			60
		</text>
		<path class="x-notch" d="M 385.871559633 525 L 385.871559633 530"/>
		<text class="x-axis-label" x="412.47706422" y="540">
			70
		</text>
		<path class="x-notch" d="M 439.082568807 525 L 439.082568807 530"/>
		<text class="x-axis-label" x="465.688073394" y="540">
			80
		</text>
		<path class="x-notch" d="M 492.293577982 525 L 492.293577982 530"/>
		<text class="x-axis-label" x="518.899082569" y="540">
			90
		</text>
		<path class="x-notch" d="M 545.504587156 525 L 545.504587156 530"/>
		<text class="x-axis-label" x="572.110091743" y="540">
			100
		</text>
		<path class="x-notch" d="M 598.71559633 525 L 598.71559633 530"/>
	</g>
</svg>
