<?xml version="1.0" ?>
<svg height="600" version="1.1" width="800" xmlns="http://www.w3.org/2000/svg" xmlns:svg="http://www.w3.org/2000/svg">
	<style type="text/css">
		

.x-axis-path, .y-gridline, .x-notch { fill:none; stroke: #a7a9ac; stroke-width:1; }



.y-gridline { stroke-width: 1; }

.y-axis-path, .y-axis-path2, .x-notch-left, .x-notch-right { display: none;}



.x-axis-label, .data-point-label {font-size: 12px; font-weight:normal; font-family: sans-serif; fill: #58595b; text-anchor:middle;}

.y-axis-label {font-size: 12px; font-family: helvetica; fill: #a7a9ac; text-anchor:end;}



.series-1-line { fill: none; stroke: #10b80c; stroke-width:2; }



.series-2-line { fill: none; stroke: #e90f0a; stroke-width: 2;}

	</style>
	<rect fill="white" height="600" width="800" x="0" y="0"/>
	<g id="grid" transform="translate(70, 30)">
		<g class="x-axis" id="x_axis">
			<path class="x-axis-path" d="M 0 525 L 660 525"/>
			<path class="x-notch-left" d="M 0 525, L 0 535"/>
			<path class="x-notch-right" d="M 660 525, L 660 535"/>
		</g>
		<g class="y-axis" id="y_axis">
			<path class="y-axis-path" d="M 0 525 L 0 0"/>
			<path class="y-axis-path-2" d="M 660 525 L 660 0"/>
			<path class="y-gridline" d="M 0 525 L 660 525"/>
			<text class="y-axis-label" x="-5" y="525">
				-100
			</text>
			<path class="y-gridline" d="M 0 420 L 660 420"/>
			<text class="y-axis-label" x="-5" y="420">
				 0
			</text>
			<path class="y-gridline" d="M 0 315 L 660 315"/>
			<text class="y-axis-label" x="-5" y="315">
				100
			</text>
			<path class="y-gridline" d="M 0 210 L 660 210"/>
			<text class="y-axis-label" x="-5" y="210">
				200
			</text>
			<path class="y-gridline" d="M 0 105 L 660 105"/>
			<text class="y-axis-label" x="-5" y="105">
				300
			</text>
			<path class="y-gridline" d="M 0 0 L 660 0"/>
			<text class="y-axis-label" x="-5" y="0">
				400
			</text>
		</g>
		<g>
			<path class="series-1-line" d="M 40 380.089584 L 43 429.50110388 L 47 437.370423759 L 50 407.359103639 L 54 444.413383518 L 57 432.252063398 L 61 404.852723277 L 64 438.810343157 L 68 401.180223036 L 71 396.719182916 L 75 412.072482795 L 78 444.603782675 L 82 435.054022554 L 85 458.781282434 L 89 394.389602313 L 92 381.770482193 L 96 414.140082072 L 99 420.770821952 L 103 398.298501831 L 106 409.048601711 L 110 431.61792159 L 113 422.47220147 L 117 393.941801349 L 120 394.353601229 L 124 392.315541108 L 127 437.392660988 L 131 407.408220867 L 134 418.831580747 L 138 385.643800627 L 141 388.262700506 L 145 370.716980386 L 148 364.586440265 L 152 369.440580145 L 156 338.836640024 L 159 290.436879904 L 163 303.825839783 L 166 302.810899663 L 170 304.649439542 L 173 255.253439422 L 177 271.468999301 L 180 185.673699181 L 184 209.05067906 L 187 222.33127894 L 191 166.231658819 L 194 194.185798699 L 198 246.801078578 L 201 168.813578458 L 205 163.732618337 L 208 181.509738217 L 212 205.964018096 L 215 183.975537976 L 219 170.360177855 L 222 168.995377735 L 226 221.288517614 L 229 199.111037494 L 233 150.819217373 L 236 166.711377253 L 240 103.558277133 L 243 132.400717012 L 247 134.993156892 L 250 90.9550967711 L 254 146.827896651 L 257 113.26295653 L 261 110.71375641 L 264 126.202716289 L 268 32.8952961687 L 272 133.621576048 L 275 133.764155928 L 279 92.5531158072 L 282 95.1455556867 L 286 123.260555566 L 289 70.4188754458 L 293 125.969115325 L 296 49.6502752048 L 300 148.950235084 L 303 113.689334964 L 307 111.247234843 L 310 144.048174723 L 314 157.166654602 L 317 115.955194482 L 321 86.6977743614 L 324 159.048014241 L 328 180.67485412 L 331 131.656014 L 335 159.79873388 L 338 152.430033759 L 342 260.184173639 L 345 279.092353518 L 349 223.477413398 L 352 279.107873277 L 356 282.184993157 L 359 327.019773036 L 363 300.427252916 L 366 345.315792795 L 370 363.335672675 L 373 378.340372554 L 377 391.728912434 L 380 425.901992313 L 384 404.641792193 L 388 411.165012072 L 391 411.334051952 L 395 415.084851831 L 398 440.778131711 L 402 465.79815159 L 405 446.60981147 L 409 431.190131349 L 412 446.221711229 L 416 404.176131108 L 419 413.607010988 L 423 422.903910867 L 426 416.208890747 L 430 424.401610627 L 433 419.967450506 L 437 442.536350386 L 440 407.490910265 L 444 411.967890145 L 447 424.629830024 L 451 435.864609904 L 454 440.153429783 L 458 430.953529663 L 461 432.361569542 L 465 450.434789422 L 468 467.080849301 L 472 453.439449181 L 475 441.25124906 L 479 437.86708894 L 482 444.013148819 L 486 446.983168699 L 489 414.602628578 L 493 433.806908458 L 496 418.280128337 L 500 405.634548217 L 504 417.435068096 L 507 425.923887976 L 511 405.254627855 L 514 405.747067735 L 518 412.889787614 L 521 428.647967494 L 525 410.967007373 L 528 429.471147253 L 532 395.475707133 L 535 416.322187012 L 539 382.757246892 L 542 430.768486771 L 546 452.584326651 L 549 444.03080653 L 553 394.71586641 L 556 422.535186289 L 560 427.120106169 L 563 447.347506048 L 567 432.628385928 L 570 417.532945807 L 574 429.359925687 L 577 419.971865566 L 581 409.022245446 L 584 402.353265325 L 588 424.491665205 L 591 436.076725084 L 595 446.907464964 L 598 417.273724843 L 602 410.954604723 L 605 424.693004602 L 609 403.108984482 L 612 452.520924361 L 616 418.174784241 L 620 403.40190412"/>
			<path class="series-2-line" d="M 40 454.44 L 43 424.616204819 L 47 405.292409639 L 50 398.568614458 L 54 412.844819277 L 57 406.121024096 L 61 442.447228916 L 64 407.373433735 L 68 442.649638554 L 71 463.225843373 L 75 381.952048193 L 78 405.678253012 L 82 401.054457831 L 85 405.880662651 L 89 439.05686747 L 92 421.833072289 L 96 429.809277108 L 99 398.935481928 L 103 444.711686747 L 106 426.437891566 L 110 407.114096386 L 113 421.390301205 L 117 429.366506024 L 120 426.842710843 L 124 437.968915663 L 127 429.145120482 L 131 418.221325301 L 134 417.79753012 L 138 456.22373494 L 141 395.949939759 L 145 410.226144578 L 148 404.552349398 L 152 405.178554217 L 156 368.004759036 L 159 363.380963855 L 163 383.957168675 L 166 399.283373494 L 170 378.909578313 L 173 365.885783133 L 177 354.961987952 L 180 410.188192771 L 184 387.71439759 L 187 343.19060241 L 191 352.216807229 L 194 352.843012048 L 198 314.619216867 L 201 380.345421687 L 205 333.721626506 L 208 324.897831325 L 212 339.174036145 L 215 309.350240964 L 219 283.726445783 L 222 312.702650602 L 226 365.828855422 L 229 283.505060241 L 233 303.03126506 L 236 260.60746988 L 240 305.333674699 L 243 290.209879518 L 247 275.086084337 L 250 286.212289157 L 254 231.188493976 L 257 246.514698795 L 261 296.490903614 L 264 317.067108434 L 268 315.593313253 L 272 224.869518072 L 275 223.395722892 L 279 243.971927711 L 282 228.84813253 L 286 163.324337349 L 289 196.500542169 L 293 191.876746988 L 296 201.952951807 L 300 170.029156627 L 303 204.255361446 L 307 196.481566265 L 310 260.107771084 L 314 158.883975904 L 317 138.510180723 L 321 137.036385542 L 324 132.412590361 L 328 96.2887951807 L 331 106.365 L 335 118.541204819 L 338 142.267409639 L 342 142.893614458 L 345 162.419819277 L 349 177.746024096 L 352 119.572228916 L 356 110.748433735 L 359 98.7746385542 L 363 50.0508433735 L 366 29.6770481928 L 370 64.953253012 L 373 120.179457831 L 377 99.8056626506 L 380 72.0818674699 L 384 174.558072289 L 388 160.484277108 L 391 113.860481928 L 395 163.836686747 L 398 230.612891566 L 402 279.539096386 L 405 263.365301205 L 409 191.541506024 L 412 242.567710843 L 416 270.493915663 L 419 253.270120482 L 423 297.996325301 L 426 380.52253012 L 430 392.69873494 L 433 409.074939759 L 437 348.801144578 L 440 390.377349398 L 444 367.903554217 L 447 379.029759036 L 451 367.055963855 L 454 373.982168675 L 458 355.708373494 L 461 361.584578313 L 465 347.510783133 L 468 310.336987952 L 472 370.813192771 L 475 368.28939759 L 479 384.66560241 L 482 347.491807229 L 486 396.418012048 L 489 390.744216867 L 493 405.020421687 L 496 390.946626506 L 500 418.872831325 L 504 441.549036145 L 507 448.475240964 L 511 417.601445783 L 514 402.477650602 L 518 414.653855422 L 521 434.180060241 L 525 387.55626506 L 528 388.18246988 L 532 429.758674699 L 535 433.534879518 L 539 448.861084337 L 542 391.737289157 L 546 408.113493976 L 549 411.889698795 L 553 427.215903614 L 556 407.892108434 L 560 409.568313253 L 563 428.044518072 L 567 410.820722892 L 570 452.396927711 L 574 429.92313253 L 577 441.049337349 L 581 450.075542169 L 584 446.501746988 L 588 412.477951807 L 591 427.804156627 L 595 396.930361446 L 598 454.256566265 L 602 437.032771084 L 605 403.008975904 L 609 433.035180723 L 612 444.161385542 L 616 417.487590361 L 620 408.663795181"/>
		</g>
		<text class="x-axis-label" x="40.0" y="540">
			0
		</text>
		<path class="x-notch" d="M 57.5757575758 525 L 57.5757575758 530"/>
		<text class="x-axis-label" x="75.1515151515" y="540">
			10
		</text>
		<path class="x-notch" d="M 92.7272727273 525 L 92.7272727273 530"/>
		<text class="x-axis-label" x="110.303030303" y="540">
			20
		</text>
		<path class="x-notch" d="M 127.878787879 525 L 127.878787879 530"/>
		<text class="x-axis-label" x="145.454545455" y="540">
			30
		</text>
		<path class="x-notch" d="M 163.03030303 525 L 163.03030303 530"/>
		<text class="x-axis-label" x="180.606060606" y="540">
			40
		</text>
		<path class="x-notch" d="M 198.181818182 525 L 198.181818182 530"/>
		<text class="x-axis-label" x="215.757575758" y="540">
			50
		</text>
		<path class="x-notch" d="M 233.333333333 525 L 233.333333333 530"/>
		<text class="x-axis-label" x="250.909090909" y="540">
			60
		</text>
		<path class="x-notch" d="M 268.484848485 525 L 268.484848485 530"/>
		<text class="x-axis-label" x="286.060606061" y="540">
			70
		</text>
		<path class="x-notch" d="M 303.636363636 525 L 303.636363636 530"/>
		<text class="x-axis-label" x="321.212121212" y="540">
			80
		</text>
		<path class="x-notch" d="M 338.787878788 525 L 338.787878788 530"/>
		<text class="x-axis-label" x="356.363636364" y="540">
			90
		</text>
		<path class="x-notch" d="M 373.939393939 525 L 373.939393939 530"/>
		<text class="x-axis-label" x="391.515151515" y="540">
			100
		</text>
		<path class="x-notch" d="M 409.090909091 525 L 409.090909091 530"/>
		<text class="x-axis-label" x="426.666666667" y="540">
			110
		</text>
		<path class="x-notch" d="M 444.242424242 525 L 444.242424242 530"/>
		<text class="x-axis-label" x="461.818181818" y="540">
			120
		</text>
		<path class="x-notch" d="M 479.393939394 525 L 479.393939394 530"/>
		<text class="x-axis-label" x="496.96969697" y="540">
			130
		</text>
		<path class="x-notch" d="M 514.545454545 525 L 514.545454545 530"/>
		<text class="x-axis-label" x="532.121212121" y="540">
			140
		</text>
		<path class="x-notch" d="M 549.696969697 525 L 549.696969697 530"/>
		<text class="x-axis-label" x="567.272727273" y="540">
			150
		</text>
		<path class="x-notch" d="M 584.848484848 525 L 584.848484848 530"/>
		<text class="x-axis-label" x="602.424242424" y="540">
			160
		</text>
		<path class="x-notch" d="M 620.0 525 L 620.0 530"/>
	</g>
</svg>
