<?xml version="1.0" ?>
<svg height="600" version="1.1" width="800" xmlns="http://www.w3.org/2000/svg" xmlns:svg="http://www.w3.org/2000/svg">
	<style type="text/css">
		

.x-axis-path, .y-gridline, .x-notch { fill:none; stroke: #a7a9ac; stroke-width:1; }



.y-gridline { stroke-width: 1; }

.y-axis-path, .y-axis-path2, .x-notch-left, .x-notch-right { display: none;}



.x-axis-label, .data-point-label {font-size: 12px; font-weight:normal; font-family: sans-serif; fill: #58595b; text-anchor:middle;}

.y-axis-label {font-size: 12px; font-family: helvetica; fill: #a7a9ac; text-anchor:end;}



.series-1-line { fill: none; stroke: #10b80c; stroke-width:2; }



.series-2-line { fill: none; stroke: #e90f0a; stroke-width: 2;}

	</style>
	<rect fill="white" height="600" width="800" x="0" y="0"/>
	<g id="grid" transform="translate(70, 30)">
		<g class="x-axis" id="x_axis">
			<path class="x-axis-path" d="M 0 525 L 660 525"/>
			<path class="x-notch-left" d="M 0 525, L 0 535"/>
			<path class="x-notch-right" d="M 660 525, L 660 535"/>
		</g>
		<g class="y-axis" id="y_axis">
			<path class="y-axis-path" d="M 0 525 L 0 0"/>
			<path class="y-axis-path-2" d="M 660 525 L 660 0"/>
			<path class="y-gridline" d="M 0 525 L 660 525"/>
			<text class="y-axis-label" x="-5" y="525">
				-200
			</text>
			<path class="y-gridline" d="M 0 394 L 660 394"/>
			<text class="y-axis-label" x="-5" y="394">
				 0
			</text>
			<path class="y-gridline" d="M 0 263 L 660 263"/>
			<text class="y-axis-label" x="-5" y="263">
				200
			</text>
			<path class="y-gridline" d="M 0 132 L 660 132"/>
			<text class="y-axis-label" x="-5" y="132">
				400
			</text>
			<path class="y-gridline" d="M 0 1 L 660 1"/>
			<text class="y-axis-label" x="-5" y="1">
				600
			</text>
		</g>
		<g>
			<path class="series-1-line" d="M 40 398.540328155 L 45 405.040507492 L 50 396.627811803 L 55 393.484561562 L 61 371.742293823 L 66 390.655789435 L 71 371.183366677 L 76 399.198661237 L 82 368.583658494 L 87 399.743789809 L 92 387.269676676 L 98 404.20444971 L 103 401.790305129 L 108 408.602726239 L 113 405.292795426 L 119 396.818041279 L 124 403.255512331 L 129 391.552093772 L 134 369.309784317 L 140 396.741859332 L 145 388.599816502 L 150 391.746889598 L 156 391.373850967 L 161 374.775612105 L 166 378.026657487 L 171 375.945549136 L 177 354.599025913 L 182 357.995632496 L 187 264.272376033 L 192 257.85919738 L 198 244.385325729 L 203 240.679650401 L 208 246.409460077 L 214 219.376627519 L 219 240.476790283 L 224 155.647063281 L 229 198.845560813 L 235 179.45696571 L 240 138.448633272 L 245 164.04754691 L 250 110.730845223 L 256 83.1144682071 L 261 104.256544799 L 266 127.314635684 L 272 89.1600175983 L 277 64.3765604773 L 282 14.6624985201 L 287 87.7072156483 L 293 66.8188203125 L 298 71.6528437577 L 303 71.6336358145 L 308 65.6369961343 L 314 45.1235508569 L 319 71.6598396407 L 324 77.8890412062 L 330 62.2908857758 L 335 122.089208683 L 340 74.6661110776 L 345 0.0 L 351 116.158125403 L 356 123.866657658 L 361 117.432684548 L 366 131.367857114 L 372 157.800498525 L 377 204.477193955 L 382 189.941180415 L 388 214.998463422 L 393 254.031571223 L 398 255.304218941 L 403 279.924493431 L 409 307.127504503 L 414 333.455198887 L 419 348.724465855 L 424 357.390517887 L 430 357.163040457 L 435 373.035996514 L 440 358.978580405 L 446 303.724095228 L 451 375.456487152 L 456 365.440993683 L 461 374.815032003 L 467 408.786638929 L 472 408.14294744 L 477 395.148647961 L 482 379.175867386 L 488 408.107417721 L 493 382.741065969 L 498 413.422274939 L 504 412.590783507 L 509 404.615746162 L 514 376.041849369 L 519 373.648499245 L 525 389.979258276 L 530 383.107951735 L 535 389.566217244 L 540 410.312549321 L 546 377.739618456 L 551 388.572193009 L 556 396.717408868 L 562 391.491463762 L 567 383.620398703 L 572 386.18392734 L 577 400.306899849 L 583 394.268671255 L 588 394.624738283 L 593 391.93961593 L 598 390.379343752 L 604 401.753224021 L 609 391.736755812 L 614 384.199051897 L 620 405.653370262"/>
			<path class="series-2-line" d="M 40 387.739102183 L 45 398.474416399 L 50 391.339493863 L 55 385.829138304 L 61 399.001302987 L 66 405.675199759 L 71 381.482323959 L 76 393.842205153 L 82 397.26696797 L 87 394.193462878 L 92 387.058540341 L 98 385.609602226 L 103 393.095782487 L 108 386.77314344 L 113 375.57680346 L 119 409.868338849 L 124 398.67199887 L 129 398.035344243 L 134 394.149555662 L 140 402.448019412 L 145 384.753411522 L 150 411.734395513 L 156 417.596008796 L 161 388.529432064 L 166 399.26474628 L 171 386.443839323 L 177 401.240570983 L 182 389.231947514 L 187 385.346158933 L 192 383.084937329 L 198 373.513164327 L 203 360.692257369 L 208 396.608359736 L 214 379.726035335 L 219 362.031427445 L 224 364.643906774 L 229 352.635283305 L 235 378.803983807 L 240 356.235674985 L 245 333.667366163 L 250 393.951973192 L 256 341.329175287 L 261 348.815355548 L 266 342.4927165 L 272 349.978896761 L 277 330.659721894 L 282 335.709051689 L 287 324.512711709 L 293 331.186608481 L 298 348.420190607 L 303 330.725582717 L 308 326.839794136 L 314 338.387391841 L 319 328.00333535 L 324 317.619278859 L 330 322.668608653 L 335 318.782820072 L 340 314.897031491 L 345 284.205887781 L 351 263.262145937 L 356 307.301083191 L 361 308.288995542 L 366 267.850449968 L 372 305.391119312 L 377 289.3210784 L 382 287.059856796 L 388 253.93186262 L 393 258.168908926 L 398 292.460444316 L 403 295.885207133 L 409 308.245088326 L 414 266.994259263 L 419 335.40170118 L 424 325.017644688 L 430 308.135320287 L 435 345.675989632 L 440 300.363743125 L 446 282.669135235 L 451 254.414841992 L 456 339.067953683 L 461 313.250510906 L 467 283.371650685 L 472 299.792949322 L 477 342.207319599 L 482 374.062004522 L 488 370.17621594 L 493 378.47467969 L 498 386.77314344 L 504 369.07853555 L 509 388.748968142 L 514 390.549163982 L 519 394.786210288 L 525 392.524988685 L 530 398.386601968 L 535 383.941128033 L 540 389.802741317 L 546 381.855535292 L 551 413.710220215 L 556 389.517344415 L 562 392.129823744 L 567 395.554586561 L 572 386.795097048 L 577 380.472458 L 583 383.084937329 L 588 401.943086432 L 593 388.309895986 L 598 389.297808337 L 604 400.033122553 L 609 389.649066062 L 614 404.445797722 L 620 394.87402472"/>
		</g>
		<text class="x-axis-label" x="40.0" y="540">
			0
		</text>
		<path class="x-notch" d="M 66.3636363636 525 L 66.3636363636 530"/>
		<text class="x-axis-label" x="92.7272727273" y="540">
			10
		</text>
		<path class="x-notch" d="M 119.090909091 525 L 119.090909091 530"/>
		<text class="x-axis-label" x="145.454545455" y="540">
			20
		</text>
		<path class="x-notch" d="M 171.818181818 525 L 171.818181818 530"/>
		<text class="x-axis-label" x="198.181818182" y="540">
			30
		</text>
		<path class="x-notch" d="M 224.545454545 525 L 224.545454545 530"/>
		<text class="x-axis-label" x="250.909090909" y="540">
			40
		</text>
		<path class="x-notch" d="M 277.272727273 525 L 277.272727273 530"/>
		<text class="x-axis-label" x="303.636363636" y="540">
			50
		</text>
		<path class="x-notch" d="M 330.0 525 L 330.0 530"/>
		<text class="x-axis-label" x="356.363636364" y="540">
			60
		</text>
		<path class="x-notch" d="M 382.727272727 525 L 382.727272727 530"/>
		<text class="x-axis-label" x="409.090909091" y="540">
			70
		</text>
		<path class="x-notch" d="M 435.454545455 525 L 435.454545455 530"/>
		<text class="x-axis-label" x="461.818181818" y="540">
			80
		</text>
		<path class="x-notch" d="M 488.181818182 525 L 488.181818182 530"/>
		<text class="x-axis-label" x="514.545454545" y="540">
			90
		</text>
		<path class="x-notch" d="M 540.909090909 525 L 540.909090909 530"/>
		<text class="x-axis-label" x="567.272727273" y="540">
			100
		</text>
		<path class="x-notch" d="M 593.636363636 525 L 593.636363636 530"/>
		<text class="x-axis-label" x="620.0" y="540">
			110
		</text>
	</g>
</svg>
