<?xml version="1.0" ?>
<svg height="600" version="1.1" width="800" xmlns="http://www.w3.org/2000/svg" xmlns:svg="http://www.w3.org/2000/svg">
	<style type="text/css">
		

.x-axis-path, .y-gridline, .x-notch { fill:none; stroke: #a7a9ac; stroke-width:1; }



.y-gridline { stroke-width: 1; }

.y-axis-path, .y-axis-path2, .x-notch-left, .x-notch-right { display: none;}



.x-axis-label, .data-point-label {font-size: 12px; font-weight:normal; font-family: sans-serif; fill: #58595b; text-anchor:middle;}

.y-axis-label {font-size: 12px; font-family: helvetica; fill: #a7a9ac; text-anchor:end;}



.series-1-line { fill: none; stroke: #10b80c; stroke-width:2; }



.series-2-line { fill: none; stroke: #e90f0a; stroke-width: 2;}

	</style>
	<rect fill="white" height="600" width="800" x="0" y="0"/>
	<g id="grid" transform="translate(70, 30)">
		<g class="x-axis" id="x_axis">
			<path class="x-axis-path" d="M 0 525 L 660 525"/>
			<path class="x-notch-left" d="M 0 525, L 0 535"/>
			<path class="x-notch-right" d="M 660 525, L 660 535"/>
		</g>
		<g class="y-axis" id="y_axis">
			<path class="y-axis-path" d="M 0 525 L 0 0"/>
			<path class="y-axis-path-2" d="M 660 525 L 660 0"/>
			<path class="y-gridline" d="M 0 525 L 660 525"/>
			<text class="y-axis-label" x="-5" y="525">
				-200
			</text>
			<path class="y-gridline" d="M 0 420 L 660 420"/>
			<text class="y-axis-label" x="-5" y="420">
				 0
			</text>
			<path class="y-gridline" d="M 0 315 L 660 315"/>
			<text class="y-axis-label" x="-5" y="315">
				200
			</text>
			<path class="y-gridline" d="M 0 210 L 660 210"/>
			<text class="y-axis-label" x="-5" y="210">
				400
			</text>
			<path class="y-gridline" d="M 0 105 L 660 105"/>
			<text class="y-axis-label" x="-5" y="105">
				600
			</text>
			<path class="y-gridline" d="M 0 0 L 660 0"/>
			<text class="y-axis-label" x="-5" y="0">
				800
			</text>
		</g>
		<g>
			<path class="series-1-line" d="M 40 429.864582 L 45 405.408191641 L 50 427.219421282 L 55 435.985870923 L 60 403.304830564 L 65 440.825110205 L 70 412.653609846 L 75 424.637679487 L 80 433.229619128 L 85 416.055818769 L 90 422.14371841 L 95 435.595268051 L 100 396.856357692 L 105 399.673087333 L 110 412.370316974 L 115 418.148676615 L 120 424.303566256 L 125 414.399125897 L 130 431.203115538 L 135 398.050835179 L 140 404.111854821 L 145 383.505184462 L 150 379.941484103 L 155 342.185163744 L 160 336.346113385 L 165 381.001143026 L 170 332.260142667 L 175 347.057792308 L 180 336.103351949 L 185 305.17182159 L 190 254.869261231 L 195 274.432230872 L 200 257.944920513 L 205 258.755730154 L 210 248.945369795 L 215 242.635289436 L 220 257.324999077 L 225 246.908788718 L 230 196.943068359 L 235 263.015368 L 240 213.385857641 L 245 270.573897282 L 250 255.917786923 L 255 276.840506564 L 260 248.655566205 L 265 296.474035846 L 270 226.988605487 L 275 320.630545128 L 280 265.117884769 L 285 307.09478441 L 290 250.908864051 L 295 259.016333692 L 300 270.003743333 L 305 193.747072974 L 310 306.638452615 L 315 261.290002256 L 320 309.082851897 L 325 346.319631538 L 330 340.924311179 L 335 368.092640821 L 340 409.774070462 L 345 377.090930103 L 350 393.463789744 L 355 379.077109385 L 360 402.651289026 L 365 401.551308667 L 370 383.503068308 L 375 385.243127949 L 380 404.44258759 L 385 405.387797231 L 390 422.083216872 L 395 395.217916513 L 400 402.100876154 L 405 437.333415795 L 410 381.471315436 L 415 406.243335077 L 420 407.391404718 L 425 376.702214359 L 430 412.283984 L 435 407.589013641 L 440 403.029283282 L 445 420.303672923 L 450 354.575142564 L 455 399.498972205 L 460 392.569601846 L 465 412.293851487 L 470 363.566921128 L 475 395.056210769 L 480 358.52482041 L 485 338.147470051 L 490 387.366219692 L 495 349.731489333 L 500 352.682618974 L 505 359.174348615 L 510 342.404588256 L 515 377.703907897 L 520 376.670707538 L 525 382.341337179 L 530 371.831046821 L 535 362.155716462 L 540 388.556916103 L 545 366.429635744 L 550 379.140725385 L 555 377.501675026 L 560 398.572444667 L 565 391.898434308 L 570 408.836613949 L 575 398.63628359 L 580 398.760393231 L 585 409.573502872 L 590 438.814742513 L 595 416.458982154 L 600 407.496811795 L 605 414.795991436 L 610 427.843501077 L 615 436.044840718 L 620 411.144510359"/>
			<path class="series-2-line" d="M 40 416.745 L 45 410.351666667 L 50 434.408333333 L 55 404.915 L 60 432.646666667 L 65 401.578333333 L 70 421.96 L 75 422.916666667 L 80 441.198333333 L 85 424.83 L 90 424.211666667 L 95 441.968333333 L 100 452.375 L 105 450.181666667 L 110 421.738333333 L 115 428.47 L 120 396.876666667 L 125 393.108333333 L 130 461.265 L 135 480.596666667 L 140 484.178333333 L 145 450.485 L 150 481.366666667 L 155 481.798333333 L 160 478.555 L 165 460.611666667 L 170 454.743333333 L 175 467.25 L 180 463.481666667 L 185 443.438333333 L 190 435.47 L 195 441.676666667 L 200 420.583333333 L 205 403.69 L 210 385.221666667 L 215 394.053333333 L 220 382.41 L 225 356.066666667 L 230 377.498333333 L 235 355.88 L 240 345.286666667 L 245 358.318333333 L 250 379.225 L 255 398.556666667 L 260 421.038333333 L 265 400.995 L 270 375.701666667 L 275 393.983333333 L 280 338.765 L 285 390.646666667 L 290 317.578333333 L 295 350.035 L 300 301.641666667 L 305 267.948333333 L 310 231.63 L 315 249.386666667 L 320 356.393333333 L 325 246.575 L 330 194.506666667 L 335 160.813333333 L 340 279.37 L 345 102.351666667 L 350 135.333333333 L 355 175.665 L 360 149.846666667 L 365 205.928333333 L 370 244.16 L 375 266.641666667 L 380 268.123333333 L 385 230.23 L 390 212.811666667 L 395 275.193333333 L 400 355.425 L 405 394.706666667 L 410 394.088333333 L 415 345.17 L 420 398.626666667 L 425 381.733333333 L 430 345.94 L 435 327.996666667 L 440 370.953333333 L 445 365.61 L 450 450.566666667 L 455 390.623333333 L 460 393.68 L 465 374.686666667 L 470 428.143333333 L 475 375.55 L 480 369.156666667 L 485 381.663333333 L 490 388.92 L 495 431.876666667 L 500 408.683333333 L 505 406.49 L 510 409.021666667 L 515 396.853333333 L 520 401.485 L 525 404.541666667 L 530 392.898333333 L 535 414.855 L 540 398.486666667 L 545 417.818333333 L 550 428.225 L 555 424.981666667 L 560 441.688333333 L 565 404.845 L 570 431.526666667 L 575 453.483333333 L 580 420.84 L 585 440.696666667 L 590 390.728333333 L 595 445.76 L 600 438.316666667 L 605 412.498333333 L 610 411.355 L 615 408.636666667 L 620 430.593333333"/>
		</g>
		<text class="x-axis-label" x="40.0" y="540">
			0
		</text>
		<path class="x-notch" d="M 65.0 525 L 65.0 530"/>
		<text class="x-axis-label" x="90.0" y="540">
			10
		</text>
		<path class="x-notch" d="M 115.0 525 L 115.0 530"/>
		<text class="x-axis-label" x="140.0" y="540">
			20
		</text>
		<path class="x-notch" d="M 165.0 525 L 165.0 530"/>
		<text class="x-axis-label" x="190.0" y="540">
			30
		</text>
		<path class="x-notch" d="M 215.0 525 L 215.0 530"/>
		<text class="x-axis-label" x="240.0" y="540">
			40
		</text>
		<path class="x-notch" d="M 265.0 525 L 265.0 530"/>
		<text class="x-axis-label" x="290.0" y="540">
			50
		</text>
		<path class="x-notch" d="M 315.0 525 L 315.0 530"/>
		<text class="x-axis-label" x="340.0" y="540">
			60
		</text>
		<path class="x-notch" d="M 365.0 525 L 365.0 530"/>
		<text class="x-axis-label" x="390.0" y="540">
			70
		</text>
		<path class="x-notch" d="M 415.0 525 L 415.0 530"/>
		<text class="x-axis-label" x="440.0" y="540">
			80
		</text>
		<path class="x-notch" d="M 465.0 525 L 465.0 530"/>
		<text class="x-axis-label" x="490.0" y="540">
			90
		</text>
		<path class="x-notch" d="M 515.0 525 L 515.0 530"/>
		<text class="x-axis-label" x="540.0" y="540">
			100
		</text>
		<path class="x-notch" d="M 565.0 525 L 565.0 530"/>
		<text class="x-axis-label" x="590.0" y="540">
			110
		</text>
		<path class="x-notch" d="M 615.0 525 L 615.0 530"/>
	</g>
</svg>
