<?xml version="1.0" ?>
<svg height="600" version="1.1" width="800" xmlns="http://www.w3.org/2000/svg" xmlns:svg="http://www.w3.org/2000/svg">
	<style type="text/css">
		

.x-axis-path, .y-gridline, .x-notch { fill:none; stroke: #a7a9ac; stroke-width:1; }



.y-gridline { stroke-width: 1; }

.y-axis-path, .y-axis-path2, .x-notch-left, .x-notch-right { display: none;}



.x-axis-label, .data-point-label {font-size: 12px; font-weight:normal; font-family: sans-serif; fill: #58595b; text-anchor:middle;}

.y-axis-label {font-size: 12px; font-family: helvetica; fill: #a7a9ac; text-anchor:end;}



.series-1-line { fill: none; stroke: #10b80c; stroke-width:2; }



.series-2-line { fill: none; stroke: #e90f0a; stroke-width: 2;}

	</style>
	<rect fill="white" height="600" width="800" x="0" y="0"/>
	<g id="grid" transform="translate(70, 30)">
		<g class="x-axis" id="x_axis">
			<path class="x-axis-path" d="M 0 525 L 660 525"/>
			<path class="x-notch-left" d="M 0 525, L 0 535"/>
			<path class="x-notch-right" d="M 660 525, L 660 535"/>
		</g>
		<g class="y-axis" id="y_axis">
			<path class="y-axis-path" d="M 0 525 L 0 0"/>
			<path class="y-axis-path-2" d="M 660 525 L 660 0"/>
			<path class="y-gridline" d="M 0 525 L 660 525"/>
			<text class="y-axis-label" x="-5" y="525">
				-200
			</text>
			<path class="y-gridline" d="M 0 394 L 660 394"/>
			<text class="y-axis-label" x="-5" y="394">
				 0
			</text>
			<path class="y-gridline" d="M 0 263 L 660 263"/>
			<text class="y-axis-label" x="-5" y="263">
				200
			</text>
			<path class="y-gridline" d="M 0 132 L 660 132"/>
			<text class="y-axis-label" x="-5" y="132">
				400
			</text>
			<path class="y-gridline" d="M 0 1 L 660 1"/>
			<text class="y-axis-label" x="-5" y="1">
				600
			</text>
		</g>
		<g>
			<path class="series-1-line" d="M 40 354.029829906 L 45 385.552331394 L 51 432.129377363 L 57 373.104009588 L 63 418.328369678 L 69 434.503330249 L 75 379.57079206 L 81 370.861576759 L 86 431.579405952 L 92 394.185611596 L 98 361.213555275 L 104 404.209660372 L 110 450.01887327 L 116 432.320823742 L 122 407.314394252 L 127 422.97803614 L 133 368.26439023 L 139 338.946238875 L 145 315.145997046 L 151 301.869115522 L 157 299.006718196 L 163 203.002236086 L 168 198.165818028 L 174 248.725677412 L 180 195.144685038 L 186 52.9163100088 L 192 139.833948875 L 198 133.609502956 L 204 167.835666105 L 209 118.822339953 L 215 122.68289975 L 221 148.906383991 L 227 11.0632649514 L 233 25.4842371327 L 239 35.9223958989 L 245 21.9512154286 L 250 57.7119046567 L 256 7.16348239398 L 262 26.9923479298 L 268 31.255350302 L 274 137.539255514 L 280 115.127611578 L 286 64.7986516262 L 291 0.0 L 297 20.4137183431 L 303 38.37914935 L 309 164.833065995 L 315 115.527313439 L 321 101.629667094 L 327 205.245822659 L 332 120.532533926 L 338 136.999920901 L 344 203.819942395 L 350 191.200877771 L 356 233.136723393 L 362 158.47195833 L 368 278.348276006 L 373 261.381577502 L 379 319.65111936 L 385 273.12256259 L 391 345.204549254 L 397 337.737433627 L 403 339.223810245 L 409 377.688161135 L 414 369.600280687 L 420 368.929086276 L 426 340.708246474 L 432 436.870663924 L 438 440.219905039 L 444 424.860696708 L 450 425.359777944 L 455 412.375322823 L 461 407.430028658 L 467 448.927519691 L 473 434.189076181 L 479 431.107216545 L 485 425.83301393 L 491 421.3625564 L 496 449.047602627 L 502 406.172950823 L 508 442.627938997 L 514 441.519530061 L 520 463.906129073 L 526 393.809030231 L 532 407.49922142 L 537 416.950654836 L 543 403.454881033 L 549 414.002485939 L 555 407.741557973 L 561 424.281909041 L 567 400.920021801 L 573 426.741633498 L 578 420.042350944 L 584 429.457302313 L 590 342.295726244 L 596 403.268929762 L 602 375.851265014 L 608 418.664389847 L 614 383.901863091 L 620 395.472675393"/>
			<path class="series-2-line" d="M 40 331.901530624 L 45 384.270368242 L 51 422.388406465 L 57 427.729606079 L 63 398.868887143 L 69 399.934846938 L 75 433.777645342 L 81 426.293125499 L 86 425.934005355 L 92 391.372966661 L 98 389.588766577 L 104 430.556964679 L 110 421.647364897 L 116 426.98856451 L 122 405.253245272 L 127 430.545564039 L 133 430.186443894 L 139 414.151444415 L 145 426.618043726 L 151 409.157964306 L 157 434.450283073 L 163 428.390843171 L 168 372.453605383 L 174 400.59608403 L 180 390.261404308 L 186 369.95116501 L 192 395.243483777 L 198 389.184043874 L 204 408.776042883 L 209 408.416922738 L 215 385.25652356 L 221 374.921843839 L 227 393.088762908 L 233 389.879482884 L 239 396.645762437 L 245 376.335523139 L 250 378.826562873 L 256 339.990284361 L 262 326.80544476 L 268 352.097763527 L 274 357.43896314 L 280 375.60588221 L 286 358.14580279 L 291 374.88764192 L 297 381.653921473 L 303 381.294801328 L 309 352.434082393 L 315 342.099402671 L 321 365.966641499 L 327 342.806242321 L 332 353.847761693 L 338 364.889281064 L 344 357.404761222 L 350 348.49516144 L 356 332.46016196 L 362 332.101041815 L 368 273.313644149 L 373 331.382801526 L 379 323.898281683 L 385 324.964241478 L 391 330.305441091 L 397 295.744402397 L 403 365.214199291 L 409 334.928400415 L 414 341.694679968 L 420 247.280283813 L 426 338.1262798 L 432 366.268758446 L 438 367.334718241 L 444 396.902276826 L 450 397.968236621 L 455 390.483716779 L 461 407.225555908 L 467 404.016275884 L 473 392.256516223 L 479 396.172635897 L 485 408.639235208 L 491 406.855035124 L 496 390.820035644 L 502 377.635196044 L 508 382.976395657 L 514 412.543954243 L 520 389.383555065 L 526 398.999994497 L 532 398.640874353 L 537 392.58143445 L 543 409.323273579 L 549 398.988593858 L 555 398.629473713 L 561 398.270353568 L 567 397.911233423 L 573 394.7019534 L 578 407.168552711 L 584 406.809432566 L 590 410.72555224 L 596 370.464193788 L 602 391.481272736 L 608 405.372951987 L 614 405.013831842 L 620 401.804551818"/>
		</g>
		<text class="x-axis-label" x="40.0" y="540">
			0
		</text>
		<path class="x-notch" d="M 69.2929292929 525 L 69.2929292929 530"/>
		<text class="x-axis-label" x="98.5858585859" y="540">
			10
		</text>
		<path class="x-notch" d="M 127.878787879 525 L 127.878787879 530"/>
		<text class="x-axis-label" x="157.171717172" y="540">
			20
		</text>
		<path class="x-notch" d="M 186.464646465 525 L 186.464646465 530"/>
		<text class="x-axis-label" x="215.757575758" y="540">
			30
		</text>
		<path class="x-notch" d="M 245.050505051 525 L 245.050505051 530"/>
		<text class="x-axis-label" x="274.343434343" y="540">
			40
		</text>
		<path class="x-notch" d="M 303.636363636 525 L 303.636363636 530"/>
		<text class="x-axis-label" x="332.929292929" y="540">
			50
		</text>
		<path class="x-notch" d="M 362.222222222 525 L 362.222222222 530"/>
		<text class="x-axis-label" x="391.515151515" y="540">
			60
		</text>
		<path class="x-notch" d="M 420.808080808 525 L 420.808080808 530"/>
		<text class="x-axis-label" x="450.101010101" y="540">
			70
		</text>
		<path class="x-notch" d="M 479.393939394 525 L 479.393939394 530"/>
		<text class="x-axis-label" x="508.686868687" y="540">
			80
		</text>
		<path class="x-notch" d="M 537.97979798 525 L 537.97979798 530"/>
		<text class="x-axis-label" x="567.272727273" y="540">
			90
		</text>
		<path class="x-notch" d="M 596.565656566 525 L 596.565656566 530"/>
	</g>
</svg>
