<?xml version="1.0" ?>
<svg height="600" version="1.1" width="800" xmlns="http://www.w3.org/2000/svg" xmlns:svg="http://www.w3.org/2000/svg">
	<style type="text/css">
		

.x-axis-path, .y-gridline, .x-notch { fill:none; stroke: #a7a9ac; stroke-width:1; }



.y-gridline { stroke-width: 1; }

.y-axis-path, .y-axis-path2, .x-notch-left, .x-notch-right { display: none;}



.x-axis-label, .data-point-label {font-size: 12px; font-weight:normal; font-family: sans-serif; fill: #58595b; text-anchor:middle;}

.y-axis-label {font-size: 12px; font-family: helvetica; fill: #a7a9ac; text-anchor:end;}



.series-1-line { fill: none; stroke: #10b80c; stroke-width:2; }



.series-2-line { fill: none; stroke: #e90f0a; stroke-width: 2;}

	</style>
	<rect fill="white" height="600" width="800" x="0" y="0"/>
	<g id="grid" transform="translate(70, 30)">
		<g class="x-axis" id="x_axis">
			<path class="x-axis-path" d="M 0 525 L 660 525"/>
			<path class="x-notch-left" d="M 0 525, L 0 535"/>
			<path class="x-notch-right" d="M 660 525, L 660 535"/>
		</g>
		<g class="y-axis" id="y_axis">
			<path class="y-axis-path" d="M 0 525 L 0 0"/>
			<path class="y-axis-path-2" d="M 660 525 L 660 0"/>
			<path class="y-gridline" d="M 0 525 L 660 525"/>
			<text class="y-axis-label" x="-5" y="525">
				-200
			</text>
			<path class="y-gridline" d="M 0 420 L 660 420"/>
			<text class="y-axis-label" x="-5" y="420">
				 0
			</text>
			<path class="y-gridline" d="M 0 315 L 660 315"/>
			<text class="y-axis-label" x="-5" y="315">
				200
			</text>
			<path class="y-gridline" d="M 0 210 L 660 210"/>
			<text class="y-axis-label" x="-5" y="210">
				400
			</text>
			<path class="y-gridline" d="M 0 105 L 660 105"/>
			<text class="y-axis-label" x="-5" y="105">
				600
			</text>
			<path class="y-gridline" d="M 0 0 L 660 0"/>
			<text class="y-axis-label" x="-5" y="0">
				800
			</text>
		</g>
		<g>
			<path class="series-1-line" d="M 40 423.416196 L 44 416.594471349 L 49 420.029986698 L 53 410.448022047 L 58 428.731377395 L 62 423.484232744 L 67 411.277478093 L 71 431.822533442 L 76 419.858118791 L 80 418.23200414 L 85 416.807699488 L 89 434.795374837 L 94 426.492100186 L 98 427.895025535 L 103 410.034440884 L 107 399.994676233 L 112 377.987851581 L 117 367.53123693 L 121 343.680192279 L 126 306.071417628 L 130 312.589312977 L 135 313.897948326 L 139 274.094883674 L 144 245.505189023 L 148 220.308044372 L 153 193.051219721 L 157 195.39620507 L 162 175.826010419 L 166 151.395995767 L 171 146.754491116 L 175 113.439796465 L 180 94.973571814 L 185 88.7969671628 L 189 100.821272512 L 194 85.8681378605 L 198 149.126563209 L 203 124.373778558 L 207 109.757273907 L 212 147.748499256 L 216 203.993554605 L 221 178.998009953 L 225 209.033595302 L 230 165.259430651 L 234 205.660196 L 239 171.349681349 L 243 194.398566698 L 248 174.262632047 L 252 204.042647395 L 257 229.824052744 L 262 222.207478093 L 266 233.921193442 L 271 291.661238791 L 275 239.08303414 L 280 312.855529488 L 284 259.536654837 L 289 292.573980186 L 293 290.073005535 L 298 331.874050884 L 302 408.485746233 L 307 345.502671581 L 311 385.29779693 L 316 366.925652279 L 320 416.534497628 L 325 359.944662977 L 330 381.876348326 L 334 414.550793674 L 339 401.912699023 L 343 410.033104372 L 348 417.035469721 L 352 391.43407507 L 357 391.274810419 L 361 380.401135767 L 366 420.829201116 L 370 393.248976465 L 375 403.159631814 L 379 422.572997163 L 384 396.056422512 L 388 379.16540786 L 393 395.295843209 L 397 367.716458558 L 402 419.384353907 L 407 386.406289256 L 411 418.272234605 L 416 409.403849953 L 420 392.808725302 L 425 402.934420651 L 429 388.829476 L 434 396.936021349 L 438 379.304336698 L 443 385.284002047 L 447 385.919167395 L 452 397.539432744 L 456 399.870768093 L 461 370.554473442 L 465 394.693678791 L 470 390.57717414 L 475 402.561159488 L 479 345.701684837 L 484 376.867910186 L 488 345.357745535 L 493 403.971180884 L 497 371.344236233 L 502 434.293541581 L 506 418.86958693 L 511 436.520422279 L 515 436.402107628 L 520 428.583722977 L 524 429.273278326 L 529 437.514223674 L 533 424.446049023 L 538 431.960394372 L 542 423.603569721 L 547 423.21603507 L 552 417.214990419 L 556 430.288875767 L 561 425.862831116 L 565 435.638666465 L 570 427.281841814 L 574 424.820977163 L 579 425.052732512 L 583 425.41888786 L 588 421.773623209 L 592 425.007118558 L 597 426.302313907 L 601 428.068329256 L 606 414.151964605 L 610 415.393189953 L 615 433.084555302 L 620 410.471880651"/>
			<path class="series-2-line" d="M 40 386.61 L 44 435.316976744 L 49 439.923953488 L 53 427.730930233 L 58 409.237906977 L 62 416.994883721 L 67 425.276860465 L 71 422.533837209 L 76 433.965813953 L 80 429.647790698 L 85 414.304767442 L 89 442.011744186 L 94 414.59372093 L 98 429.175697674 L 103 439.032674419 L 107 416.339651163 L 112 417.796627907 L 117 439.728604651 L 121 442.235581395 L 126 441.06755814 L 130 415.224534884 L 135 424.031511628 L 139 417.088488372 L 144 401.220465116 L 148 408.97744186 L 153 410.434418605 L 157 400.866395349 L 162 411.248372093 L 166 401.680348837 L 171 396.837325581 L 175 380.969302326 L 180 403.42627907 L 185 351.333255814 L 189 387.965232558 L 194 374.197209302 L 198 362.529186047 L 203 382.886162791 L 207 378.043139535 L 212 376.875116279 L 216 374.132093023 L 221 350.389069767 L 225 361.821046512 L 230 360.128023256 L 234 351.61 L 239 368.291976744 L 243 363.973953488 L 248 339.705930233 L 252 370.562906977 L 257 349.444883721 L 262 337.776860465 L 266 279.383837209 L 271 350.665813953 L 275 330.072790698 L 280 377.729767442 L 284 329.311744186 L 289 322.89372093 L 293 332.225697674 L 298 351.007674419 L 302 283.164651163 L 307 350.246627907 L 311 354.328604651 L 316 362.085581395 L 320 391.36755814 L 325 361.849534884 L 330 368.031511628 L 334 418.313488372 L 339 370.945465116 L 343 402.32744186 L 348 362.309418605 L 352 330.691395349 L 357 281.748372093 L 361 327.830348837 L 366 356.062325581 L 370 326.019302326 L 375 344.27627907 L 379 251.758255814 L 384 240.090232558 L 388 283.022209302 L 393 354.829186047 L 397 406.686162791 L 402 380.843139535 L 407 373.900116279 L 411 345.432093023 L 416 344.789069767 L 420 361.996046512 L 425 346.653023256 L 429 343.91 L 434 336.441976744 L 438 351.548953488 L 443 348.280930233 L 447 318.762906977 L 452 336.494883721 L 456 308.551860465 L 461 324.183837209 L 465 313.565813953 L 470 308.722790698 L 475 351.654767442 L 479 282.236744186 L 484 281.06872093 L 488 331.875697674 L 493 246.182674419 L 497 348.439651163 L 502 385.071627907 L 506 403.853604651 L 511 402.160581395 L 515 408.34255814 L 520 407.699534884 L 524 431.206511628 L 529 402.738488372 L 533 422.570465116 L 538 425.60244186 L 542 427.059418605 L 547 434.291395349 L 552 436.798372093 L 556 432.480348837 L 561 434.987325581 L 565 433.294302326 L 570 434.75127907 L 574 417.308255814 L 579 430.315232558 L 583 422.322209302 L 588 425.879186047 L 592 421.036162791 L 597 431.943139535 L 601 410.300116279 L 606 419.107093023 L 610 417.939069767 L 615 430.421046512 L 620 424.003023256"/>
		</g>
		<text class="x-axis-label" x="40.0" y="540">
			0
		</text>
		<path class="x-notch" d="M 62.65625 525 L 62.65625 530"/>
		<text class="x-axis-label" x="85.3125" y="540">
			10
		</text>
		<path class="x-notch" d="M 107.96875 525 L 107.96875 530"/>
		<text class="x-axis-label" x="130.625" y="540">
			20
		</text>
		<path class="x-notch" d="M 153.28125 525 L 153.28125 530"/>
		<text class="x-axis-label" x="175.9375" y="540">
			30
		</text>
		<path class="x-notch" d="M 198.59375 525 L 198.59375 530"/>
		<text class="x-axis-label" x="221.25" y="540">
			40
		</text>
		<path class="x-notch" d="M 243.90625 525 L 243.90625 530"/>
		<text class="x-axis-label" x="266.5625" y="540">
			50
		</text>
		<path class="x-notch" d="M 289.21875 525 L 289.21875 530"/>
		<text class="x-axis-label" x="311.875" y="540">
			60
		</text>
		<path class="x-notch" d="M 334.53125 525 L 334.53125 530"/>
		<text class="x-axis-label" x="357.1875" y="540">
			70
		</text>
		<path class="x-notch" d="M 379.84375 525 L 379.84375 530"/>
		<text class="x-axis-label" x="402.5" y="540">
			80
		</text>
		<path class="x-notch" d="M 425.15625 525 L 425.15625 530"/>
		<text class="x-axis-label" x="447.8125" y="540">
			90
		</text>
		<path class="x-notch" d="M 470.46875 525 L 470.46875 530"/>
		<text class="x-axis-label" x="493.125" y="540">
			100
		</text>
		<path class="x-notch" d="M 515.78125 525 L 515.78125 530"/>
		<text class="x-axis-label" x="538.4375" y="540">
			110
		</text>
		<path class="x-notch" d="M 561.09375 525 L 561.09375 530"/>
		<text class="x-axis-label" x="583.75" y="540">
			120
		</text>
		<path class="x-notch" d="M 606.40625 525 L 606.40625 530"/>
	</g>
</svg>
