<?xml version="1.0" ?>
<svg height="600" version="1.1" width="800" xmlns="http://www.w3.org/2000/svg" xmlns:svg="http://www.w3.org/2000/svg">
	<style type="text/css">
		

.x-axis-path, .y-gridline, .x-notch { fill:none; stroke: #a7a9ac; stroke-width:1; }



.y-gridline { stroke-width: 1; }

.y-axis-path, .y-axis-path2, .x-notch-left, .x-notch-right { display: none;}



.x-axis-label, .data-point-label {font-size: 12px; font-weight:normal; font-family: sans-serif; fill: #58595b; text-anchor:middle;}

.y-axis-label {font-size: 12px; font-family: helvetica; fill: #a7a9ac; text-anchor:end;}



.series-1-line { fill: none; stroke: #10b80c; stroke-width:2; }



.series-2-line { fill: none; stroke: #e90f0a; stroke-width: 2;}

	</style>
	<rect fill="white" height="600" width="800" x="0" y="0"/>
	<g id="grid" transform="translate(70, 30)">
		<g class="x-axis" id="x_axis">
			<path class="x-axis-path" d="M 0 525 L 660 525"/>
			<path class="x-notch-left" d="M 0 525, L 0 535"/>
			<path class="x-notch-right" d="M 660 525, L 660 535"/>
		</g>
		<g class="y-axis" id="y_axis">
			<path class="y-axis-path" d="M 0 525 L 0 0"/>
			<path class="y-axis-path-2" d="M 660 525 L 660 0"/>
			<path class="y-gridline" d="M 0 525 L 660 525"/>
			<text class="y-axis-label" x="-5" y="525">
				-200
			</text>
			<path class="y-gridline" d="M 0 394 L 660 394"/>
			<text class="y-axis-label" x="-5" y="394">
				 0
			</text>
			<path class="y-gridline" d="M 0 263 L 660 263"/>
			<text class="y-axis-label" x="-5" y="263">
				200
			</text>
			<path class="y-gridline" d="M 0 132 L 660 132"/>
			<text class="y-axis-label" x="-5" y="132">
				400
			</text>
			<path class="y-gridline" d="M 0 1 L 660 1"/>
			<text class="y-axis-label" x="-5" y="1">
				600
			</text>
		</g>
		<g>
			<path class="series-1-line" d="M 40 384.375408712 L 47 382.919958823 L 55 404.768585973 L 62 401.711390407 L 70 393.228244628 L 77 434.990244256 L 85 386.417314552 L 92 376.879661711 L 100 425.895071115 L 107 385.856066032 L 115 384.06086972 L 122 367.590156239 L 130 394.298979397 L 137 412.511496914 L 145 380.535885291 L 152 396.017499906 L 160 373.894828426 L 168 365.826667031 L 175 360.11292483 L 183 344.772250271 L 190 318.109438021 L 198 278.107758021 L 205 310.846198478 L 213 231.940026353 L 220 240.846254545 L 228 193.81776035 L 235 243.266375832 L 243 187.06237705 L 250 180.689420987 L 258 131.154562182 L 265 152.664618503 L 273 143.409401919 L 281 157.119397646 L 288 73.522902725 L 296 69.9948821004 L 303 0.0 L 311 2.14304076239 L 318 33.7311633158 L 326 4.4494234116 L 333 25.7896065215 L 341 32.2464863717 L 348 47.2190691493 L 356 29.5239753956 L 363 163.92036457 L 371 138.387003446 L 378 175.835457884 L 386 221.421662051 L 394 254.781109593 L 401 258.204665201 L 409 264.511656923 L 416 399.248086419 L 424 310.545990419 L 431 344.112342356 L 439 304.693756562 L 446 323.285402872 L 454 346.773688577 L 461 379.532114117 L 469 399.233226469 L 476 368.575160877 L 484 395.24695285 L 491 386.858442319 L 499 386.928912347 L 507 391.652967884 L 514 387.031939523 L 522 378.587000521 L 529 384.893404447 L 537 408.626213529 L 544 402.197122892 L 552 392.263295158 L 559 392.63530483 L 567 407.927942844 L 574 397.221750406 L 582 377.755625562 L 589 386.774710697 L 597 406.343568818 L 604 391.078720017 L 612 391.167999535 L 620 396.004618117"/>
			<path class="series-2-line" d="M 40 394.778644012 L 47 421.506432652 L 55 394.597783526 L 62 384.588286025 L 70 361.353365514 L 77 322.688784823 L 85 392.766571109 L 92 419.494359749 L 100 395.524693515 L 107 423.721973601 L 115 388.731121524 L 122 408.111452936 L 130 339.32229761 L 137 306.535682702 L 145 337.671945679 L 152 387.176851726 L 160 399.944471632 L 168 426.672260272 L 175 401.233102592 L 183 387.549876477 L 190 420.890376623 L 198 414.554607736 L 205 436.873922039 L 213 367.35002099 L 220 382.321878065 L 228 411.988649596 L 235 377.732543243 L 243 348.619656948 L 250 340.079650893 L 258 302.149815925 L 265 328.142858843 L 273 339.440987303 L 281 321.349286852 L 288 324.565212361 L 296 330.720120763 L 303 275.156388447 L 311 313.640108652 L 318 228.686547424 L 326 240.719421608 L 333 235.853144167 L 341 231.721612448 L 348 245.9587238 L 356 284.442444005 L 363 236.960914641 L 371 179.92769088 L 378 212.533445302 L 386 150.357001481 L 394 104.344963563 L 401 86.2532631107 L 409 162.943760902 L 416 205.835955444 L 424 203.173915172 L 431 124.833065449 L 439 27.3888269327 L 446 222.373386098 L 454 254.97914052 L 461 388.979804692 L 469 381.909290082 L 476 293.28200024 L 484 287.680977076 L 491 307.061308488 L 499 324.972148454 L 507 361.986377214 L 514 338.016710979 L 522 366.213991065 L 529 385.594322477 L 537 379.993299313 L 544 408.925325121 L 552 382.751421718 L 559 410.948701804 L 567 403.878187195 L 574 383.582249574 L 582 411.77952966 L 589 409.117489387 L 597 365.309688637 L 604 397.180697337 L 612 412.152554411 L 620 402.877802633"/>
		</g>
		<text class="x-axis-label" x="40.0" y="540">
			0
		</text>
		<path class="x-notch" d="M 77.6623376623 525 L 77.6623376623 530"/>
		<text class="x-axis-label" x="115.324675325" y="540">
			10
		</text>
		<path class="x-notch" d="M 152.987012987 525 L 152.987012987 530"/>
		<text class="x-axis-label" x="190.649350649" y="540">
			20
		</text>
		<path class="x-notch" d="M 228.311688312 525 L 228.311688312 530"/>
		<text class="x-axis-label" x="265.974025974" y="540">
			30
		</text>
		<path class="x-notch" d="M 303.636363636 525 L 303.636363636 530"/>
		<text class="x-axis-label" x="341.298701299" y="540">
			40
		</text>
		<path class="x-notch" d="M 378.961038961 525 L 378.961038961 530"/>
		<text class="x-axis-label" x="416.623376623" y="540">
			50
		</text>
		<path class="x-notch" d="M 454.285714286 525 L 454.285714286 530"/>
		<text class="x-axis-label" x="491.948051948" y="540">
			60
		</text>
		<path class="x-notch" d="M 529.61038961 525 L 529.61038961 530"/>
		<text class="x-axis-label" x="567.272727273" y="540">
			70
		</text>
		<path class="x-notch" d="M 604.935064935 525 L 604.935064935 530"/>
	</g>
</svg>
