<?xml version="1.0" ?>
<svg height="600" version="1.1" width="800" xmlns="http://www.w3.org/2000/svg" xmlns:svg="http://www.w3.org/2000/svg">
	<style type="text/css">

.x-axis-path, .y-gridline, .x-notch { fill:none; stroke: #a7a9ac; stroke-width:1; }



.y-gridline { stroke-width: 1; }

.y-axis-path, .y-axis-path2, .x-notch-left, .x-notch-right { display: none;}



.x-axis-label, .data-point-label {font-size: 12px; font-weight:normal; font-family: sans-serif; fill: #58595b; text-anchor:middle;}

.y-axis-label {font-size: 12px; font-family: helvetica; fill: #a7a9ac; text-anchor:end;}



.series-1-line { fill: none; stroke: #10b80c; stroke-width:2; }



.series-2-line { fill: none; stroke: #e90f0a; stroke-width: 2;}
</style>
	<rect fill="white" height="600" width="800" x="0" y="0"/>
	<g id="grid" transform="translate(70, 30)">
		<g class="x-axis" id="x_axis">
			<path class="x-axis-path" d="M 0 525 L 660 525"/>
			<path class="x-notch-left" d="M 0 525, L 0 535"/>
			<path class="x-notch-right" d="M 660 525, L 660 535"/>
		</g>
		<g class="y-axis" id="y_axis">
			<path class="y-axis-path" d="M 0 525 L 0 0"/>
			<path class="y-axis-path-2" d="M 660 525 L 660 0"/>
			<path class="y-gridline" d="M 0 525 L 660 525"/>
			<text class="y-axis-label" x="-5" y="525">-200</text>
			<path class="y-gridline" d="M 0 394 L 660 394"/>
			<text class="y-axis-label" x="-5" y="394"> 0</text>
			<path class="y-gridline" d="M 0 263 L 660 263"/>
			<text class="y-axis-label" x="-5" y="263">200</text>
			<path class="y-gridline" d="M 0 132 L 660 132"/>
			<text class="y-axis-label" x="-5" y="132">400</text>
			<path class="y-gridline" d="M 0 1 L 660 1"/>
			<text class="y-axis-label" x="-5" y="1">600</text>
		</g>
		<g>
			<path class="series-1-line" d="M 40 403.315996282 L 43 406.198362804 L 47 420.792913036 L 51 376.773546081 L 54 360.494590698 L 58 415.493138888 L 62 425.963572064 L 65 393.719678451 L 69 430.708981853 L 73 398.432157049 L 76 403.592435762 L 80 408.290134159 L 84 382.214664161 L 87 402.943163168 L 91 414.270836396 L 95 403.631861931 L 98 386.329981444 L 102 409.531921585 L 106 391.833837713 L 109 321.988699182 L 113 364.354019428 L 117 281.809790572 L 120 248.675211167 L 124 308.753910036 L 128 280.138107424 L 131 316.138446011 L 135 303.55292946 L 139 270.615937198 L 142 185.400165515 L 146 203.918158362 L 150 119.921869826 L 153 175.646447856 L 157 108.769747415 L 161 95.5580236949 L 164 135.185938733 L 168 74.2461144746 L 172 103.912344395 L 175 97.5281826489 L 179 32.2676832911 L 183 27.2352440035 L 186 82.00275931 L 190 102.566602365 L 194 77.0509626051 L 197 8.95374991825 L 201 37.631529575 L 205 62.2845002966 L 208 71.9959724422 L 212 74.0885049426 L 216 103.953351106 L 219 45.9161025577 L 223 119.913889449 L 227 115.639896642 L 230 38.6697863229 L 234 30.5371841825 L 238 31.838339012 L 241 8.50027422194 L 245 91.7002706502 L 249 39.2371406389 L 252 0.0 L 256 61.3321423067 L 260 48.7471403048 L 263 80.7556011477 L 267 94.1291245835 L 271 41.6006467411 L 274 34.2918389123 L 278 122.637848401 L 282 110.348712564 L 285 75.8618961502 L 289 141.283166124 L 293 24.2718154922 L 296 83.1619042057 L 300 50.1590495626 L 304 85.4673186006 L 307 44.5491435982 L 311 91.3673782552 L 315 140.329742142 L 318 112.407038178 L 322 185.052073511 L 326 112.832287418 L 330 112.911900901 L 333 92.7069301538 L 337 143.747560889 L 341 59.2567899462 L 344 144.733154916 L 348 237.432256145 L 352 136.152238111 L 355 150.086620885 L 359 220.620458178 L 363 129.138498409 L 366 114.57402313 L 370 149.418682752 L 374 173.611131357 L 377 217.890577049 L 381 181.126877544 L 385 169.366184403 L 388 242.769666217 L 392 202.808039388 L 396 220.799133187 L 399 164.080675907 L 403 267.20352802 L 407 267.942279862 L 410 283.987346125 L 414 302.935502647 L 418 304.367867689 L 421 336.574944774 L 425 293.710742235 L 429 319.716464515 L 432 349.218038483 L 436 369.616196486 L 440 331.238354099 L 443 351.670472392 L 447 404.722993045 L 451 333.756135838 L 454 377.342482881 L 458 361.095944138 L 462 389.41096615 L 465 423.332523339 L 469 422.291961796 L 473 396.612180634 L 476 411.370872269 L 480 414.518746514 L 484 388.475693157 L 487 416.955371121 L 491 370.528939963 L 495 439.248989031 L 498 396.746515038 L 502 422.851545439 L 506 371.510648653 L 509 411.699423028 L 513 407.32663665 L 517 389.167516111 L 520 369.852716607 L 524 364.259932531 L 528 422.062777409 L 531 403.177112481 L 535 430.633865341 L 539 370.816274308 L 542 440.129599355 L 546 388.524738495 L 550 397.972246567 L 553 404.58407041 L 557 413.042099118 L 561 398.180728575 L 564 363.364600257 L 568 397.088570303 L 572 429.888923367 L 575 395.566762906 L 579 443.440853857 L 583 410.075756119 L 586 419.391539429 L 590 408.488086341 L 594 387.525698213 L 597 409.738158991 L 601 405.267093591 L 605 429.920064312 L 608 361.295438028 L 612 411.445382971 L 616 396.418841926 L 620 371.432159413"/>
			<path class="series-2-line" d="M 40 456.782356759 L 43 289.26078244 L 47 402.168876966 L 51 377.434886325 L 54 440.17437037 L 58 420.58587824 L 62 424.152129409 L 65 418.713758184 L 69 399.125266054 L 73 398.83239334 L 76 428.126137064 L 80 378.951028497 L 84 414.676645359 L 87 423.388395039 L 91 393.508905887 L 95 429.23452275 L 98 450.810018707 L 102 424.789653439 L 106 407.773910564 L 109 448.645025937 L 113 393.038044231 L 117 408.18166705 L 120 391.165924175 L 124 432.037039549 L 128 412.448547419 L 131 446.887789654 L 135 435.01754529 L 139 387.12881135 L 142 417.708929702 L 146 369.820195762 L 150 310.354090172 L 153 328.070462246 L 157 357.36420597 L 161 393.089822833 L 164 363.210333681 L 168 369.349334105 L 172 288.014859845 L 175 312.163105057 L 179 340.170474154 L 183 303.859111863 L 186 270.120498828 L 190 304.559741063 L 194 252.81188324 L 197 271.814629942 L 201 294.676500527 L 205 242.928642704 L 208 214.33552818 L 212 220.474528604 L 216 208.604284241 L 219 213.456910038 L 223 240.177904506 L 227 185.857297428 L 230 184.278050086 L 234 180.126053489 L 238 209.419797212 L 241 219.41792152 L 245 215.265924923 L 249 203.39568056 L 252 134.924952576 L 256 180.94156646 L 260 219.239932578 L 263 173.923947894 L 267 226.372434916 L 271 274.961798056 L 274 192.340949168 L 278 238.357563052 L 282 180.17783209 L 285 173.453086237 L 289 133.282600064 L 293 257.768066239 L 296 182.865465117 L 300 145.267728199 L 304 237.593828682 L 307 281.03769331 L 311 233.14895937 L 315 201.983095591 L 318 224.844966176 L 322 211.688347185 L 326 271.855081974 L 330 190.520607713 L 333 163.213867817 L 337 159.06187122 L 341 126.609632813 L 344 168.767122814 L 348 137.601259034 L 352 65.2714071674 L 355 130.583640468 L 359 95.5586528049 L 363 200.748499565 L 366 196.596502967 L 370 110.116530196 L 374 180.574262007 L 377 227.877250519 L 381 124.674407586 L 385 134.672531894 L 388 103.506668115 L 392 148.236907371 L 396 182.676149606 L 399 132.214666411 L 403 180.80402955 L 407 46.7281955526 L 410 83.7401870428 L 414 169.634414387 L 418 128.177553585 L 421 152.325798798 L 425 198.342412682 L 429 186.472168319 L 432 130.865186612 L 436 90.6947004389 L 440 189.45267406 L 443 244.473910338 L 447 227.458167464 L 451 242.601790283 L 454 247.45441608 L 458 254.879791132 L 462 284.173534856 L 465 241.430299427 L 469 284.874164055 L 473 309.022409268 L 476 346.034400758 L 480 338.023280278 L 484 318.434788148 L 487 322.001039317 L 491 371.876777085 L 495 369.011155115 L 498 308.258674898 L 502 331.120545483 L 506 395.146404156 L 509 378.130661281 L 513 339.246549735 L 517 394.267786014 L 520 328.369807286 L 524 329.363309199 L 528 374.093548456 L 531 341.641310049 L 535 304.043573131 L 539 386.078676591 L 542 340.762691907 L 546 395.783928185 L 550 358.186191267 L 553 411.921052917 L 557 378.182439883 L 561 370.171319402 L 564 414.901558659 L 568 403.031314295 L 572 384.729196793 L 575 352.276958386 L 579 340.406714022 L 583 359.409460724 L 586 342.39371785 L 590 318.946101837 L 594 409.985827691 L 597 387.824586306 L 601 414.545580774 L 605 362.797722951 L 608 413.959835346 L 612 398.2304671 L 616 365.778228692 L 620 432.37683662"/>
		</g>
		<text class="x-axis-label" x="40.0" y="540">0</text>
		<path class="x-notch" d="M 58.3544303797 525 L 58.3544303797 530"/>
		<text class="x-axis-label" x="76.7088607595" y="540">10</text>
		<path class="x-notch" d="M 95.0632911392 525 L 95.0632911392 530"/>
		<text class="x-axis-label" x="113.417721519" y="540">20</text>
		<path class="x-notch" d="M 131.772151899 525 L 131.772151899 530"/>
		<text class="x-axis-label" x="150.126582278" y="540">30</text>
		<path class="x-notch" d="M 168.481012658 525 L 168.481012658 530"/>
		<text class="x-axis-label" x="186.835443038" y="540">40</text>
		<path class="x-notch" d="M 205.189873418 525 L 205.189873418 530"/>
		<text class="x-axis-label" x="223.544303797" y="540">50</text>
		<path class="x-notch" d="M 241.898734177 525 L 241.898734177 530"/>
		<text class="x-axis-label" x="260.253164557" y="540">60</text>
		<path class="x-notch" d="M 278.607594937 525 L 278.607594937 530"/>
		<text class="x-axis-label" x="296.962025316" y="540">70</text>
		<path class="x-notch" d="M 315.316455696 525 L 315.316455696 530"/>
		<text class="x-axis-label" x="333.670886076" y="540">80</text>
		<path class="x-notch" d="M 352.025316456 525 L 352.025316456 530"/>
		<text class="x-axis-label" x="370.379746835" y="540">90</text>
		<path class="x-notch" d="M 388.734177215 525 L 388.734177215 530"/>
		<text class="x-axis-label" x="407.088607595" y="540">100</text>
		<path class="x-notch" d="M 425.443037975 525 L 425.443037975 530"/>
		<text class="x-axis-label" x="443.797468354" y="540">110</text>
		<path class="x-notch" d="M 462.151898734 525 L 462.151898734 530"/>
		<text class="x-axis-label" x="480.506329114" y="540">120</text>
		<path class="x-notch" d="M 498.860759494 525 L 498.860759494 530"/>
		<text class="x-axis-label" x="517.215189873" y="540">130</text>
		<path class="x-notch" d="M 535.569620253 525 L 535.569620253 530"/>
		<text class="x-axis-label" x="553.924050633" y="540">140</text>
		<path class="x-notch" d="M 572.278481013 525 L 572.278481013 530"/>
		<text class="x-axis-label" x="590.632911392" y="540">150</text>
		<path class="x-notch" d="M 608.987341772 525 L 608.987341772 530"/>
	</g>
</svg>
