<?xml version="1.0" ?>
<svg height="600" version="1.1" width="800" xmlns="http://www.w3.org/2000/svg" xmlns:svg="http://www.w3.org/2000/svg">
	<style type="text/css">
		

.x-axis-path, .y-gridline, .x-notch { fill:none; stroke: #a7a9ac; stroke-width:1; }



.y-gridline { stroke-width: 1; }

.y-axis-path, .y-axis-path2, .x-notch-left, .x-notch-right { display: none;}



.x-axis-label, .data-point-label {font-size: 12px; font-weight:normal; font-family: sans-serif; fill: #58595b; text-anchor:middle;}

.y-axis-label {font-size: 12px; font-family: helvetica; fill: #a7a9ac; text-anchor:end;}



.series-1-line { fill: none; stroke: #10b80c; stroke-width:2; }



.series-2-line { fill: none; stroke: #e90f0a; stroke-width: 2;}

	</style>
	<rect fill="white" height="600" width="800" x="0" y="0"/>
	<g id="grid" transform="translate(70, 30)">
		<g class="x-axis" id="x_axis">
			<path class="x-axis-path" d="M 0 525 L 660 525"/>
			<path class="x-notch-left" d="M 0 525, L 0 535"/>
			<path class="x-notch-right" d="M 660 525, L 660 535"/>
		</g>
		<g class="y-axis" id="y_axis">
			<path class="y-axis-path" d="M 0 525 L 0 0"/>
			<path class="y-axis-path-2" d="M 660 525 L 660 0"/>
			<path class="y-gridline" d="M 0 525 L 660 525"/>
			<text class="y-axis-label" x="-5" y="525">
				-100
			</text>
			<path class="y-gridline" d="M 0 420 L 660 420"/>
			<text class="y-axis-label" x="-5" y="420">
				 0
			</text>
			<path class="y-gridline" d="M 0 315 L 660 315"/>
			<text class="y-axis-label" x="-5" y="315">
				100
			</text>
			<path class="y-gridline" d="M 0 210 L 660 210"/>
			<text class="y-axis-label" x="-5" y="210">
				200
			</text>
			<path class="y-gridline" d="M 0 105 L 660 105"/>
			<text class="y-axis-label" x="-5" y="105">
				300
			</text>
			<path class="y-gridline" d="M 0 0 L 660 0"/>
			<text class="y-axis-label" x="-5" y="0">
				400
			</text>
		</g>
		<g>
			<path class="series-1-line" d="M 40 414.852144 L 46 443.5991784 L 52 404.3385528 L 58 442.4276472 L 64 397.1358216 L 70 395.109456 L 77 415.7794704 L 83 434.3494848 L 89 422.3346792 L 95 421.6817136 L 101 444.613428 L 107 452.5755024 L 114 393.6067968 L 120 449.1687312 L 126 432.3079656 L 132 425.08578 L 138 401.5209744 L 144 412.2831888 L 151 397.4955432 L 157 377.2957776 L 163 386.335572 L 169 376.9865064 L 175 257.7368808 L 181 310.2034152 L 188 245.7692496 L 194 194.851104 L 200 196.4321184 L 206 264.0829128 L 212 136.5676872 L 218 209.5495416 L 225 211.480836 L 231 84.6392904 L 237 154.5244848 L 243 122.3450592 L 249 178.3639536 L 255 155.957508 L 262 165.1312824 L 268 141.2434968 L 274 249.2247912 L 280 26.4023256 L 286 71.97582 L 292 31.2880344 L 299 63.1577688 L 305 8.4697032 L 311 89.6629776 L 317 176.698032 L 323 73.8985464 L 330 153.8797008 L 336 98.8690752 L 342 108.2314296 L 348 141.554784 L 354 123.4550184 L 360 145.2027528 L 367 139.8651072 L 373 184.4419416 L 379 191.947056 L 385 200.7445104 L 391 234.6604848 L 397 237.7219992 L 404 229.8807336 L 410 262.342668 L 416 298.9789824 L 422 336.2608368 L 428 339.5915712 L 434 372.0283056 L 441 446.06016 L 447 463.3374144 L 453 398.5806888 L 459 455.1665832 L 465 469.0787976 L 471 455.933352 L 478 461.1759264 L 484 444.4231008 L 490 446.0855952 L 496 472.0862496 L 502 463.113924 L 508 482.6801784 L 515 448.6157928 L 521 468.3702072 L 527 469.0360416 L 533 461.517756 L 539 454.6185504 L 545 449.2267248 L 552 443.5119192 L 558 458.7975336 L 564 473.167548 L 570 440.0989824 L 576 445.5036768 L 582 420.5658912 L 589 427.2893856 L 595 437.37876 L 601 398.2794144 L 607 429.9609888 L 613 437.3308632 L 620 393.5199576"/>
			<path class="series-2-line" d="M 40 404.04 L 46 419.630842105 L 52 438.371684211 L 58 429.812526316 L 64 406.553368421 L 70 390.644210526 L 77 396.785052632 L 83 402.925894737 L 89 389.116736842 L 95 404.707578947 L 101 426.598421053 L 107 408.589263158 L 114 389.530105263 L 120 357.870947368 L 126 362.961789474 L 132 379.602631579 L 138 365.793473684 L 144 361.434315789 L 151 370.725157895 L 157 323.316 L 163 383.006842105 L 169 403.847684211 L 175 370.088526316 L 181 411.929368421 L 188 385.520210526 L 194 421.061052632 L 200 374.701894737 L 206 381.892736842 L 212 327.133578947 L 218 362.674421053 L 225 343.615263158 L 231 347.656105263 L 237 333.846947368 L 243 394.587789474 L 249 291.528631579 L 255 342.819473684 L 262 340.560315789 L 268 336.201157895 L 274 317.142 L 280 306.482842105 L 286 276.923684211 L 292 272.564526316 L 299 251.405368421 L 305 219.746210526 L 311 243.737052632 L 317 216.277894737 L 323 196.168736842 L 330 163.459578947 L 336 182.200421053 L 342 191.491263158 L 348 148.282105263 L 354 100.872947368 L 360 184.713789474 L 367 194.004631579 L 373 115.095473684 L 379 168.486315789 L 385 225.027157895 L 391 212.268 L 397 139.658842105 L 404 170.999684211 L 410 139.340526316 L 416 234.731368421 L 422 270.272210526 L 428 196.613052632 L 434 332.953894737 L 441 368.494736842 L 447 330.535578947 L 453 354.526421053 L 459 408.967263158 L 465 404.608105263 L 471 403.398947368 L 478 359.139789474 L 484 388.380631579 L 490 411.321473684 L 496 404.862315789 L 502 407.853157895 L 508 422.394 L 515 449.534842105 L 521 434.675684211 L 527 408.266526316 L 533 430.157368421 L 539 437.348210526 L 545 414.089052632 L 552 400.279894737 L 558 427.420736842 L 564 433.561578947 L 570 428.152421053 L 576 440.593263158 L 582 436.234105263 L 589 406.674947368 L 595 425.415789474 L 601 418.956631579 L 607 427.197473684 L 613 419.688315789 L 620 411.129157895"/>
		</g>
		<text class="x-axis-label" x="40.0" y="540">
			0
		</text>
		<path class="x-notch" d="M 70.8510638298 525 L 70.8510638298 530"/>
		<text class="x-axis-label" x="101.70212766" y="540">
			10
		</text>
		<path class="x-notch" d="M 132.553191489 525 L 132.553191489 530"/>
		<text class="x-axis-label" x="163.404255319" y="540">
			20
		</text>
		<path class="x-notch" d="M 194.255319149 525 L 194.255319149 530"/>
		<text class="x-axis-label" x="225.106382979" y="540">
			30
		</text>
		<path class="x-notch" d="M 255.957446809 525 L 255.957446809 530"/>
		<text class="x-axis-label" x="286.808510638" y="540">
			40
		</text>
		<path class="x-notch" d="M 317.659574468 525 L 317.659574468 530"/>
		<text class="x-axis-label" x="348.510638298" y="540">
			50
		</text>
		<path class="x-notch" d="M 379.361702128 525 L 379.361702128 530"/>
		<text class="x-axis-label" x="410.212765957" y="540">
			60
		</text>
		<path class="x-notch" d="M 441.063829787 525 L 441.063829787 530"/>
		<text class="x-axis-label" x="471.914893617" y="540">
			70
		</text>
		<path class="x-notch" d="M 502.765957447 525 L 502.765957447 530"/>
		<text class="x-axis-label" x="533.617021277" y="540">
			80
		</text>
		<path class="x-notch" d="M 564.468085106 525 L 564.468085106 530"/>
		<text class="x-axis-label" x="595.319148936" y="540">
			90
		</text>
		<path class="x-notch" d="M 626.170212766 525 L 626.170212766 530"/>
	</g>
</svg>
