<?xml version="1.0" ?>
<svg height="600" version="1.1" width="800" xmlns="http://www.w3.org/2000/svg" xmlns:svg="http://www.w3.org/2000/svg">
	<style type="text/css">
		

.x-axis-path, .y-gridline, .x-notch { fill:none; stroke: #a7a9ac; stroke-width:1; }



.y-gridline { stroke-width: 1; }

.y-axis-path, .y-axis-path2, .x-notch-left, .x-notch-right { display: none;}



.x-axis-label, .data-point-label {font-size: 12px; font-weight:normal; font-family: sans-serif; fill: #58595b; text-anchor:middle;}

.y-axis-label {font-size: 12px; font-family: helvetica; fill: #a7a9ac; text-anchor:end;}



.series-1-line { fill: none; stroke: #10b80c; stroke-width:2; }



.series-2-line { fill: none; stroke: #e90f0a; stroke-width: 2;}

	</style>
	<rect fill="white" height="600" width="800" x="0" y="0"/>
	<g id="grid" transform="translate(70, 30)">
		<g class="x-axis" id="x_axis">
			<path class="x-axis-path" d="M 0 525 L 660 525"/>
			<path class="x-notch-left" d="M 0 525, L 0 535"/>
			<path class="x-notch-right" d="M 660 525, L 660 535"/>
		</g>
		<g class="y-axis" id="y_axis">
			<path class="y-axis-path" d="M 0 525 L 0 0"/>
			<path class="y-axis-path-2" d="M 660 525 L 660 0"/>
			<path class="y-gridline" d="M 0 525 L 660 525"/>
			<text class="y-axis-label" x="-5" y="525">
				-50
			</text>
			<path class="y-gridline" d="M 0 450 L 660 450"/>
			<text class="y-axis-label" x="-5" y="450">
				 0
			</text>
			<path class="y-gridline" d="M 0 375 L 660 375"/>
			<text class="y-axis-label" x="-5" y="375">
				50
			</text>
			<path class="y-gridline" d="M 0 300 L 660 300"/>
			<text class="y-axis-label" x="-5" y="300">
				100
			</text>
			<path class="y-gridline" d="M 0 225 L 660 225"/>
			<text class="y-axis-label" x="-5" y="225">
				150
			</text>
			<path class="y-gridline" d="M 0 150 L 660 150"/>
			<text class="y-axis-label" x="-5" y="150">
				200
			</text>
			<path class="y-gridline" d="M 0 75 L 660 75"/>
			<text class="y-axis-label" x="-5" y="75">
				250
			</text>
			<path class="y-gridline" d="M 0 0 L 660 0"/>
			<text class="y-axis-label" x="-5" y="0">
				300
			</text>
		</g>
		<g>
			<path class="series-1-line" d="M 40 471.2922 L 45 482.202569143 L 51 423.958738286 L 56 425.714907429 L 62 441.317276571 L 67 474.073645714 L 73 459.291414857 L 79 469.163184 L 84 479.457953143 L 90 443.291122286 L 95 432.777891429 L 101 476.649860571 L 106 456.405829714 L 112 447.854598857 L 118 434.725968 L 123 448.251737143 L 129 438.277306286 L 134 362.956275429 L 140 485.751044571 L 145 343.276813714 L 151 394.571382857 L 157 387.135552 L 162 364.199321143 L 168 336.686290286 L 173 365.096259429 L 179 262.391228571 L 185 278.031997714 L 190 274.903566857 L 196 228.929136 L 201 281.608505143 L 207 118.133674286 L 212 230.351643429 L 218 194.531012571 L 224 194.210581714 L 229 267.120750857 L 235 217.53072 L 240 134.056289143 L 246 85.0434582857 L 251 220.453227429 L 257 186.478796571 L 263 248.888965714 L 268 123.413934857 L 274 205.555104 L 279 147.926873143 L 285 115.875442286 L 290 43.6318114286 L 296 142.772780571 L 302 107.105749714 L 307 192.785118857 L 313 153.887688 L 318 169.297457143 L 324 113.477026286 L 330 230.617995429 L 335 190.143164571 L 341 192.053533714 L 346 190.501902857 L 352 197.065872 L 357 262.091441143 L 363 250.424410286 L 369 286.488579429 L 374 289.168148571 L 380 284.693317714 L 385 289.680486857 L 391 314.321256 L 396 345.116225143 L 402 294.795394286 L 408 339.167163429 L 413 285.769532571 L 419 355.371901714 L 424 296.358870857 L 430 315.92304 L 435 337.487009143 L 441 361.396978286 L 447 386.653347429 L 452 392.794316571 L 458 381.358285714 L 463 364.806654857 L 469 414.447624 L 475 387.934793143 L 480 382.575562286 L 486 412.408731429 L 491 423.126500571 L 497 410.613469714 L 502 435.331038857 L 508 440.587608 L 514 456.536177143 L 519 452.638546286 L 525 452.779515429 L 530 451.497284571 L 536 427.253653714 L 541 438.471222857 L 547 434.419992 L 553 452.676161143 L 558 455.547730286 L 564 459.919299429 L 569 470.983268571 L 575 473.393437714 L 580 481.918806857 L 586 477.829176 L 592 467.470145143 L 597 484.995514286 L 603 430.790283429 L 608 441.085052571 L 614 470.110621714 L 620 431.289990857"/>
			<path class="series-2-line" d="M 40 439.5 L 45 464.777142857 L 51 455.554285714 L 56 446.331428571 L 62 441.608571429 L 67 451.885714286 L 73 448.662857143 L 79 460.44 L 84 464.717142857 L 90 462.994285714 L 95 437.271428571 L 101 468.548571429 L 106 439.825714286 L 112 459.102857143 L 118 431.88 L 123 458.657142857 L 129 465.934285714 L 134 429.711428571 L 140 433.988571429 L 145 460.765714286 L 151 445.542857143 L 157 466.32 L 162 448.097142857 L 168 441.874285714 L 173 428.151428571 L 179 451.928571429 L 185 441.205714286 L 190 433.482857143 L 196 440.76 L 201 443.537142857 L 207 411.814285714 L 212 428.091428571 L 218 430.868571429 L 224 453.145714286 L 229 458.922857143 L 235 445.2 L 240 452.477142857 L 246 465.754285714 L 251 432.531428571 L 257 439.808571429 L 263 445.585714286 L 268 394.362857143 L 274 422.64 L 279 434.417142857 L 285 434.194285714 L 290 444.471428571 L 296 453.248571429 L 302 432.025714286 L 307 434.802857143 L 313 449.58 L 318 416.357142857 L 324 438.634285714 L 330 447.411428571 L 335 415.688571429 L 341 440.965714286 L 346 421.242857143 L 352 422.52 L 357 429.797142857 L 363 408.574285714 L 369 429.351428571 L 374 451.628571429 L 380 419.905714286 L 385 433.182857143 L 391 422.46 L 396 446.237142857 L 402 429.514285714 L 408 441.291428571 L 413 436.568571429 L 419 431.845714286 L 424 425.622857143 L 430 446.4 L 435 447.677142857 L 441 433.954285714 L 447 444.231428571 L 452 453.008571429 L 458 454.285714286 L 463 434.562857143 L 469 443.34 L 475 456.617142857 L 480 445.894285714 L 486 444.171428571 L 491 440.948571429 L 497 434.725714286 L 502 412.002857143 L 508 441.78 L 514 441.557142857 L 519 436.834285714 L 525 445.611428571 L 530 442.388571429 L 536 452.665714286 L 541 429.942857143 L 547 449.22 L 553 439.997142857 L 558 432.274285714 L 564 424.551428571 L 569 425.828571429 L 575 431.605714286 L 580 419.382857143 L 586 444.66 L 592 453.437142857 L 597 441.214285714 L 603 445.491428571 L 608 449.768571429 L 614 457.045714286 L 620 459.822857143"/>
		</g>
		<text class="x-axis-label" x="40.0" y="540">
			0
		</text>
		<path class="x-notch" d="M 67.8846153846 525 L 67.8846153846 530"/>
		<text class="x-axis-label" x="95.7692307692" y="540">
			10
		</text>
		<path class="x-notch" d="M 123.653846154 525 L 123.653846154 530"/>
		<text class="x-axis-label" x="151.538461538" y="540">
			20
		</text>
		<path class="x-notch" d="M 179.423076923 525 L 179.423076923 530"/>
		<text class="x-axis-label" x="207.307692308" y="540">
			30
		</text>
		<path class="x-notch" d="M 235.192307692 525 L 235.192307692 530"/>
		<text class="x-axis-label" x="263.076923077" y="540">
			40
		</text>
		<path class="x-notch" d="M 290.961538462 525 L 290.961538462 530"/>
		<text class="x-axis-label" x="318.846153846" y="540">
			50
		</text>
		<path class="x-notch" d="M 346.730769231 525 L 346.730769231 530"/>
		<text class="x-axis-label" x="374.615384615" y="540">
			60
		</text>
		<path class="x-notch" d="M 402.5 525 L 402.5 530"/>
		<text class="x-axis-label" x="430.384615385" y="540">
			70
		</text>
		<path class="x-notch" d="M 458.269230769 525 L 458.269230769 530"/>
		<text class="x-axis-label" x="486.153846154" y="540">
			80
		</text>
		<path class="x-notch" d="M 514.038461538 525 L 514.038461538 530"/>
		<text class="x-axis-label" x="541.923076923" y="540">
			90
		</text>
		<path class="x-notch" d="M 569.807692308 525 L 569.807692308 530"/>
		<text class="x-axis-label" x="597.692307692" y="540">
			100
		</text>
		<path class="x-notch" d="M 625.576923077 525 L 625.576923077 530"/>
	</g>
</svg>
