<?xml version="1.0" ?>
<svg height="600" version="1.1" width="800" xmlns="http://www.w3.org/2000/svg" xmlns:svg="http://www.w3.org/2000/svg">
	<style type="text/css">
		

.x-axis-path, .y-gridline, .x-notch { fill:none; stroke: #a7a9ac; stroke-width:1; }



.y-gridline { stroke-width: 1; }

.y-axis-path, .y-axis-path2, .x-notch-left, .x-notch-right { display: none;}



.x-axis-label, .data-point-label {font-size: 12px; font-weight:normal; font-family: sans-serif; fill: #58595b; text-anchor:middle;}

.y-axis-label {font-size: 12px; font-family: helvetica; fill: #a7a9ac; text-anchor:end;}



.series-1-line { fill: none; stroke: #10b80c; stroke-width:2; }



.series-2-line { fill: none; stroke: #e90f0a; stroke-width: 2;}

	</style>
	<rect fill="white" height="600" width="800" x="0" y="0"/>
	<g id="grid" transform="translate(70, 30)">
		<g class="x-axis" id="x_axis">
			<path class="x-axis-path" d="M 0 525 L 660 525"/>
			<path class="x-notch-left" d="M 0 525, L 0 535"/>
			<path class="x-notch-right" d="M 660 525, L 660 535"/>
		</g>
		<g class="y-axis" id="y_axis">
			<path class="y-axis-path" d="M 0 525 L 0 0"/>
			<path class="y-axis-path-2" d="M 660 525 L 660 0"/>
			<path class="y-gridline" d="M 0 525 L 660 525"/>
			<text class="y-axis-label" x="-5" y="525">
				-300
			</text>
			<path class="y-gridline" d="M 0 438 L 660 438"/>
			<text class="y-axis-label" x="-5" y="438">
				 0
			</text>
			<path class="y-gridline" d="M 0 351 L 660 351"/>
			<text class="y-axis-label" x="-5" y="351">
				300
			</text>
			<path class="y-gridline" d="M 0 264 L 660 264"/>
			<text class="y-axis-label" x="-5" y="264">
				600
			</text>
			<path class="y-gridline" d="M 0 177 L 660 177"/>
			<text class="y-axis-label" x="-5" y="177">
				900
			</text>
			<path class="y-gridline" d="M 0 90 L 660 90"/>
			<text class="y-axis-label" x="-5" y="90">
				1200
			</text>
			<path class="y-gridline" d="M 0 3 L 660 3"/>
			<text class="y-axis-label" x="-5" y="3">
				1500
			</text>
		</g>
		<g>
			<path class="series-1-line" d="M 40 442.601926667 L 43 442.474806792 L 46 446.087203584 L 49 435.834000376 L 52 416.763363835 L 55 430.060493961 L 58 427.472990753 L 61 415.320337545 L 65 417.032934337 L 68 412.067181129 L 71 425.072527921 L 74 401.99334138 L 77 416.958221505 L 80 398.112284964 L 83 401.006598423 L 87 374.771578548 L 90 404.573658674 L 93 360.763972133 L 96 392.862518925 L 99 365.857382384 L 102 369.962929176 L 105 325.891559301 L 108 324.70242276 L 112 310.388286219 L 115 295.752733011 L 118 325.599963136 L 121 305.938759928 L 124 305.938923387 L 127 306.006170179 L 130 278.357616971 L 134 258.898363763 L 137 256.497643889 L 140 261.433507348 L 143 233.762670806 L 146 258.097984265 L 149 242.647514391 L 152 227.652277849 L 156 221.370524642 L 159 230.517004767 L 162 230.561734892 L 165 199.615365018 L 168 199.53316181 L 171 167.951075269 L 174 168.213038728 L 177 188.98873552 L 181 145.044182312 L 184 197.716312437 L 187 174.151442563 L 190 137.984706022 L 193 150.675752814 L 196 149.688566272 L 199 143.279646398 L 203 172.588226523 L 206 117.747473315 L 209 121.778236774 L 212 61.1341335663 L 215 116.633213692 L 218 127.088460484 L 221 86.3448906093 L 224 85.6793540681 L 228 113.036334194 L 231 138.650780986 L 234 118.862294444 L 237 81.6114912366 L 240 87.1752546953 L 243 111.907351487 L 246 123.00519828 L 250 98.3634950717 L 253 48.7126585305 L 256 104.054821989 L 259 126.273802115 L 262 140.20653224 L 265 76.9675290323 L 268 96.7557591577 L 272 111.728222616 L 275 141.448286075 L 278 168.408949534 L 281 132.369496326 L 284 133.895076452 L 287 140.984723244 L 290 113.986936703 L 293 141.194233495 L 297 149.854796953 L 300 138.756460412 L 303 157.707490538 L 306 158.365653996 L 309 157.998784122 L 312 131.255330914 L 315 184.465877706 L 319 167.339841165 L 322 237.242587957 L 325 196.925901416 L 328 255.879948208 L 331 228.216345 L 334 238.985191792 L 337 233.713188584 L 340 250.95901871 L 344 241.438948835 L 347 244.026895627 L 350 260.524659086 L 353 277.561189211 L 356 246.232969337 L 359 225.517682796 L 362 287.635146254 L 366 272.67047638 L 369 309.181006505 L 372 309.435503297 L 375 326.62930009 L 378 286.222313548 L 381 321.596277007 L 384 344.405940466 L 388 347.846487258 L 391 336.254417384 L 394 367.418114176 L 397 358.010044301 L 400 378.344624427 L 403 355.198471219 L 406 378.075568011 L 409 379.81068147 L 413 387.880211595 L 416 379.10039172 L 419 380.715805179 L 422 407.369635305 L 425 409.314282097 L 428 409.276878889 L 431 406.509942348 L 435 407.078622473 L 438 413.068919265 L 441 415.267666057 L 444 403.563829516 L 447 425.042676308 L 450 411.693489767 L 453 434.450886559 L 456 420.458516685 L 460 421.700013477 L 463 426.187293602 L 466 425.671323728 L 469 411.38717052 L 472 421.745233978 L 475 420.055130771 L 478 411.783744229 L 482 414.962141022 L 485 424.759271147 L 488 430.046651272 L 491 422.957098065 L 494 421.401744857 L 497 430.428524982 L 500 421.484088441 L 504 423.907185233 L 507 422.463832025 L 510 417.670162151 L 513 418.223675609 L 516 433.689522401 L 519 442.54433586 L 522 436.404449319 L 525 442.499629444 L 529 442.73160957 L 532 441.034039695 L 535 438.035169821 L 538 445.95513328 L 541 442.140996738 L 544 441.91669353 L 547 447.585573656 L 551 439.052620448 L 554 434.41586724 L 557 436.375330699 L 560 443.255794158 L 563 445.402274283 L 566 443.256004409 L 569 441.289167867 L 572 447.257064659 L 576 444.175944785 L 579 437.811708244 L 582 440.683621703 L 585 436.824685161 L 588 442.478515287 L 591 438.716878746 L 594 435.501125538 L 598 436.27152233 L 601 441.304685789 L 604 436.421182581 L 607 441.618962706 L 610 439.457642832 L 613 437.640372957 L 616 436.877653082 L 620 437.513416541"/>
			<path class="series-2-line" d="M 40 437.85 L 43 433.223163082 L 46 448.137992832 L 49 442.052822581 L 52 423.71765233 L 55 429.299148746 L 58 433.130645161 L 61 439.003808244 L 65 431.751971326 L 68 431.208467742 L 71 425.414964158 L 74 406.78812724 L 77 413.827956989 L 80 428.742786738 L 83 430.532616487 L 87 426.489112903 L 90 393.862275986 L 93 401.485439068 L 96 420.191935484 L 99 433.940098566 L 102 405.979928315 L 105 420.311424731 L 108 410.72625448 L 112 401.141084229 L 115 407.597580645 L 118 402.095743728 L 121 407.677240143 L 124 417.342069892 L 127 405.131899642 L 130 394.088396057 L 134 402.294892473 L 137 388.334722222 L 140 378.749551971 L 143 382.581048387 L 146 361.037544803 L 149 392.285707885 L 152 329.617204301 L 156 352.40703405 L 159 357.113530466 L 162 337.028360215 L 165 351.359856631 L 168 351.108019713 L 171 362.231182796 L 174 376.562679211 L 177 375.727508961 L 181 358.850672043 L 184 364.432168459 L 187 387.513664875 L 190 374.428494624 L 193 349.384991039 L 196 342.424820789 L 199 362.297983871 L 203 338.421146953 L 206 337.877643369 L 209 310.209139785 L 212 316.373969534 L 215 324.58046595 L 218 329.870295699 L 221 325.535125448 L 224 325.28328853 L 228 332.906451613 L 231 339.362948029 L 234 330.652777778 L 237 350.234274194 L 240 310.899103943 L 243 329.897267025 L 246 280.353763441 L 250 312.185259857 L 253 286.850089606 L 256 308.181586022 L 259 298.304749104 L 262 295.719578853 L 265 319.967741935 L 268 291.132571685 L 272 308.380734767 L 275 299.962231183 L 278 312.543727599 L 281 313.750224014 L 284 301.540053763 L 287 285.829883513 L 290 287.036379928 L 293 283.867876344 L 297 307.532706093 L 300 296.780869176 L 303 307.612365591 L 306 305.610528674 L 309 258.69202509 L 312 265.731854839 L 315 266.938351254 L 319 263.76984767 L 322 254.476344086 L 325 308.766173835 L 328 301.222670251 L 331 281.1375 L 334 237.427329749 L 337 273.342159498 L 340 277.173655914 L 344 293.25515233 L 347 320.128315412 L 350 304.126478495 L 353 317.874641577 L 356 289.331137993 L 359 334.287634409 L 362 322.369130824 L 366 323.283960573 L 369 302.032123656 L 372 317.530286738 L 375 352.278449821 L 378 352.31827957 L 381 349.149775986 L 384 326.731272401 L 388 357.104435484 L 391 332.352598566 L 394 349.017428315 L 397 347.598924731 L 400 358.722087814 L 403 373.345250896 L 406 363.176747312 L 409 363.799910394 L 413 365.88140681 L 416 368.837903226 L 419 365.377732975 L 422 357.542562724 L 425 370.99905914 L 428 363.747222222 L 431 372.828718638 L 435 396.20188172 L 438 381.36671147 L 441 377.906541219 L 444 393.404704301 L 447 408.027867384 L 450 418.567697133 L 453 404.315860215 L 456 412.814023297 L 460 410.81218638 L 463 414.352016129 L 466 413.516845878 L 469 410.640008961 L 472 419.721505376 L 475 420.053001792 L 478 411.926164875 L 482 403.50766129 L 485 409.089157706 L 488 401.545654122 L 491 413.835483871 L 494 427.291980287 L 497 427.915143369 L 500 422.413306452 L 504 418.078136201 L 507 414.034632616 L 510 420.782795699 L 513 423.739292115 L 516 420.862455197 L 519 425.568951613 L 522 426.192114695 L 525 429.148611111 L 529 436.771774194 L 532 438.269937276 L 535 438.018100358 L 538 440.682930108 L 541 431.097759857 L 544 430.262589606 L 547 431.469086022 L 551 441.425582437 L 554 435.04874552 L 557 434.796908602 L 560 440.378405018 L 563 445.084901434 L 566 448.333064516 L 569 446.331227599 L 572 434.996057348 L 576 436.202553763 L 579 437.700716846 L 582 442.990546595 L 585 440.405376344 L 588 432.570206093 L 591 437.568369176 L 594 437.024865591 L 598 440.273028674 L 601 438.271191756 L 604 436.269354839 L 607 442.725851254 L 610 436.93234767 L 613 434.347177419 L 616 437.887007168 L 620 439.385170251"/>
		</g>
		<text class="x-axis-label" x="40.0" y="540">
			0
		</text>
		<path class="x-notch" d="M 55.6756756757 525 L 55.6756756757 530"/>
		<text class="x-axis-label" x="71.3513513514" y="540">
			10
		</text>
		<path class="x-notch" d="M 87.027027027 525 L 87.027027027 530"/>
		<text class="x-axis-label" x="102.702702703" y="540">
			20
		</text>
		<path class="x-notch" d="M 118.378378378 525 L 118.378378378 530"/>
		<text class="x-axis-label" x="134.054054054" y="540">
			30
		</text>
		<path class="x-notch" d="M 149.72972973 525 L 149.72972973 530"/>
		<text class="x-axis-label" x="165.405405405" y="540">
			40
		</text>
		<path class="x-notch" d="M 181.081081081 525 L 181.081081081 530"/>
		<text class="x-axis-label" x="196.756756757" y="540">
			50
		</text>
		<path class="x-notch" d="M 212.432432432 525 L 212.432432432 530"/>
		<text class="x-axis-label" x="228.108108108" y="540">
			60
		</text>
		<path class="x-notch" d="M 243.783783784 525 L 243.783783784 530"/>
		<text class="x-axis-label" x="259.459459459" y="540">
			70
		</text>
		<path class="x-notch" d="M 275.135135135 525 L 275.135135135 530"/>
		<text class="x-axis-label" x="290.810810811" y="540">
			80
		</text>
		<path class="x-notch" d="M 306.486486486 525 L 306.486486486 530"/>
		<text class="x-axis-label" x="322.162162162" y="540">
			90
		</text>
		<path class="x-notch" d="M 337.837837838 525 L 337.837837838 530"/>
		<text class="x-axis-label" x="353.513513514" y="540">
			100
		</text>
		<path class="x-notch" d="M 369.189189189 525 L 369.189189189 530"/>
		<text class="x-axis-label" x="384.864864865" y="540">
			110
		</text>
		<path class="x-notch" d="M 400.540540541 525 L 400.540540541 530"/>
		<text class="x-axis-label" x="416.216216216" y="540">
			120
		</text>
		<path class="x-notch" d="M 431.891891892 525 L 431.891891892 530"/>
		<text class="x-axis-label" x="447.567567568" y="540">
			130
		</text>
		<path class="x-notch" d="M 463.243243243 525 L 463.243243243 530"/>
		<text class="x-axis-label" x="478.918918919" y="540">
			140
		</text>
		<path class="x-notch" d="M 494.594594595 525 L 494.594594595 530"/>
		<text class="x-axis-label" x="510.27027027" y="540">
			150
		</text>
		<path class="x-notch" d="M 525.945945946 525 L 525.945945946 530"/>
		<text class="x-axis-label" x="541.621621622" y="540">
			160
		</text>
		<path class="x-notch" d="M 557.297297297 525 L 557.297297297 530"/>
		<text class="x-axis-label" x="572.972972973" y="540">
			170
		</text>
		<path class="x-notch" d="M 588.648648649 525 L 588.648648649 530"/>
		<text class="x-axis-label" x="604.324324324" y="540">
			180
		</text>
		<path class="x-notch" d="M 620.0 525 L 620.0 530"/>
	</g>
</svg>
