<?xml version="1.0" ?>
<svg height="600" version="1.1" width="800" xmlns="http://www.w3.org/2000/svg" xmlns:svg="http://www.w3.org/2000/svg">
	<style type="text/css">
		

.x-axis-path, .y-gridline, .x-notch { fill:none; stroke: #a7a9ac; stroke-width:1; }



.y-gridline { stroke-width: 1; }

.y-axis-path, .y-axis-path2, .x-notch-left, .x-notch-right { display: none;}



.x-axis-label, .data-point-label {font-size: 12px; font-weight:normal; font-family: sans-serif; fill: #58595b; text-anchor:middle;}

.y-axis-label {font-size: 12px; font-family: helvetica; fill: #a7a9ac; text-anchor:end;}



.series-1-line { fill: none; stroke: #10b80c; stroke-width:2; }



.series-2-line { fill: none; stroke: #e90f0a; stroke-width: 2;}

	</style>
	<rect fill="white" height="600" width="800" x="0" y="0"/>
	<g id="grid" transform="translate(70, 30)">
		<g class="x-axis" id="x_axis">
			<path class="x-axis-path" d="M 0 525 L 660 525"/>
			<path class="x-notch-left" d="M 0 525, L 0 535"/>
			<path class="x-notch-right" d="M 660 525, L 660 535"/>
		</g>
		<g class="y-axis" id="y_axis">
			<path class="y-axis-path" d="M 0 525 L 0 0"/>
			<path class="y-axis-path-2" d="M 660 525 L 660 0"/>
			<path class="y-gridline" d="M 0 525 L 660 525"/>
			<text class="y-axis-label" x="-5" y="525">
				-200
			</text>
			<path class="y-gridline" d="M 0 420 L 660 420"/>
			<text class="y-axis-label" x="-5" y="420">
				 0
			</text>
			<path class="y-gridline" d="M 0 315 L 660 315"/>
			<text class="y-axis-label" x="-5" y="315">
				200
			</text>
			<path class="y-gridline" d="M 0 210 L 660 210"/>
			<text class="y-axis-label" x="-5" y="210">
				400
			</text>
			<path class="y-gridline" d="M 0 105 L 660 105"/>
			<text class="y-axis-label" x="-5" y="105">
				600
			</text>
			<path class="y-gridline" d="M 0 0 L 660 0"/>
			<text class="y-axis-label" x="-5" y="0">
				800
			</text>
		</g>
		<g>
			<path class="series-1-line" d="M 40 428.653023738 L 45 410.629757093 L 50 435.376551563 L 55 404.917032514 L 60 418.316789529 L 65 432.961584344 L 70 411.344901567 L 75 428.324169843 L 81 418.70496352 L 86 444.371465933 L 91 412.185756381 L 96 422.204201735 L 101 431.487013163 L 106 428.899478393 L 111 419.747078476 L 116 421.913244134 L 122 407.865667238 L 127 400.623311128 L 132 397.823451174 L 137 381.01697116 L 142 392.365207818 L 147 350.120316787 L 152 336.242246898 L 158 315.219721497 L 163 320.27214124 L 168 298.966442022 L 173 300.496073552 L 178 300.044812644 L 183 294.019243165 L 188 237.342860995 L 193 264.565605478 L 199 283.497515025 L 204 205.30190925 L 209 218.461310626 L 214 177.418639217 L 219 152.137470963 L 224 153.836830213 L 229 169.528683939 L 235 135.786732316 L 240 137.811421422 L 245 155.087989099 L 250 144.534949248 L 255 159.887347534 L 260 151.767660232 L 265 155.079984601 L 270 155.3928295 L 276 114.166304788 L 281 105.0 L 286 157.845008805 L 291 139.538568345 L 296 138.493370773 L 301 113.891113398 L 306 146.603412949 L 312 172.665873138 L 317 167.48916297 L 322 125.371402195 L 327 137.696069844 L 332 135.264137209 L 337 127.427623724 L 342 207.663684817 L 347 170.766651589 L 353 125.069379553 L 358 102.080087296 L 363 153.029398591 L 368 153.285520443 L 373 131.866595841 L 378 227.184807785 L 383 273.54992566 L 389 279.055246939 L 394 284.192640898 L 399 278.209448171 L 404 209.563840715 L 409 234.961515608 L 414 265.806148104 L 419 292.080933477 L 424 280.721411066 L 430 253.34612499 L 435 274.541659367 L 440 273.510366668 L 445 341.720479427 L 450 351.781522246 L 455 316.667181857 L 460 352.053189597 L 466 393.353623484 L 471 359.611671862 L 476 387.909505712 L 481 375.361668551 L 486 365.912189947 L 491 373.016130048 L 496 422.564580696 L 501 395.104541116 L 507 389.461024541 L 512 410.571584702 L 517 423.830085878 L 522 396.737752905 L 527 406.48737074 L 532 415.756056584 L 537 404.340031837 L 543 417.357956661 L 548 423.938367307 L 553 420.714077698 L 558 417.82946424 L 563 412.51127752 L 568 425.8545322 L 573 425.72882186 L 578 429.620957308 L 584 432.112673533 L 589 416.112676079 L 594 411.105693631 L 599 430.065854346 L 604 428.086602535 L 609 418.255071027 L 614 413.828341083 L 620 412.924399351"/>
			<path class="series-2-line" d="M 40 417.241096882 L 45 419.983543385 L 50 421.62242864 L 55 427.675558884 L 60 413.312806057 L 65 398.398272607 L 70 423.763724674 L 75 410.504533095 L 81 414.902321468 L 86 423.714354829 L 91 419.283653226 L 96 415.956512869 L 101 419.802520619 L 106 424.752089616 L 111 420.873168636 L 116 415.890686409 L 122 422.495597276 L 127 421.927360038 L 132 416.944877811 L 137 423.549788678 L 142 406.428132734 L 147 421.861533577 L 152 401.980974516 L 158 420.7250591 L 163 417.397918744 L 168 415.726120258 L 173 423.986372996 L 178 418.452110146 L 183 421.746337272 L 188 407.383584445 L 193 410.126030948 L 199 415.075599944 L 204 422.232291435 L 209 423.87117669 L 214 402.335275758 L 219 418.320457225 L 224 421.614684351 L 229 415.528640877 L 235 417.167526133 L 240 412.736824529 L 245 417.686393526 L 250 417.118156287 L 255 420.964164037 L 260 406.60141121 L 265 416.517005819 L 270 420.914794192 L 276 406.552041365 L 281 426.399687197 L 286 413.140495617 L 291 395.46705905 L 296 418.073607999 L 301 414.194687019 L 306 421.35137851 L 312 411.402870671 L 317 411.386414056 L 322 406.955712453 L 327 409.698158955 L 332 411.888824834 L 337 417.941955078 L 342 414.063034098 L 347 412.943016236 L 353 407.408753386 L 358 410.151199888 L 363 412.893646391 L 368 404.600480423 L 373 399.066217573 L 378 409.533592804 L 383 395.722620602 L 389 407.845337704 L 394 412.7949067 L 399 409.467766344 L 404 411.658432223 L 409 419.366904337 L 414 416.591544605 L 419 416.575087989 L 424 412.69616701 L 430 411.024368524 L 435 407.145447544 L 440 406.025429682 L 445 406.008973067 L 450 417.579909546 L 455 418.115233554 L 460 395.475771375 L 466 418.634100948 L 471 420.272986203 L 476 405.910233377 L 481 415.274047361 L 486 414.705810123 L 491 414.137572884 L 496 398.671258811 L 501 410.242195289 L 507 418.502448027 L 512 406.346817695 L 517 414.055289809 L 522 411.279930076 L 527 406.849228473 L 532 412.902358716 L 537 417.851927713 L 543 420.042593592 L 548 415.060111365 L 553 411.732971009 L 558 419.993223747 L 563 420.528547755 L 568 414.994284905 L 573 423.254537643 L 578 407.236442946 L 584 416.048476307 L 589 425.964070915 L 594 420.981588688 L 599 421.516912697 L 604 417.637991717 L 609 412.103728867 L 614 424.226445969 L 620 424.761769977"/>
		</g>
		<text class="x-axis-label" x="40.0" y="540">
			0
		</text>
		<path class="x-notch" d="M 65.6637168142 525 L 65.6637168142 530"/>
		<text class="x-axis-label" x="91.3274336283" y="540">
			10
		</text>
		<path class="x-notch" d="M 116.991150442 525 L 116.991150442 530"/>
		<text class="x-axis-label" x="142.654867257" y="540">
			20
		</text>
		<path class="x-notch" d="M 168.318584071 525 L 168.318584071 530"/>
		<text class="x-axis-label" x="193.982300885" y="540">
			30
		</text>
		<path class="x-notch" d="M 219.646017699 525 L 219.646017699 530"/>
		<text class="x-axis-label" x="245.309734513" y="540">
			40
		</text>
		<path class="x-notch" d="M 270.973451327 525 L 270.973451327 530"/>
		<text class="x-axis-label" x="296.637168142" y="540">
			50
		</text>
		<path class="x-notch" d="M 322.300884956 525 L 322.300884956 530"/>
		<text class="x-axis-label" x="347.96460177" y="540">
			60
		</text>
		<path class="x-notch" d="M 373.628318584 525 L 373.628318584 530"/>
		<text class="x-axis-label" x="399.292035398" y="540">
			70
		</text>
		<path class="x-notch" d="M 424.955752212 525 L 424.955752212 530"/>
		<text class="x-axis-label" x="450.619469027" y="540">
			80
		</text>
		<path class="x-notch" d="M 476.283185841 525 L 476.283185841 530"/>
		<text class="x-axis-label" x="501.946902655" y="540">
			90
		</text>
		<path class="x-notch" d="M 527.610619469 525 L 527.610619469 530"/>
		<text class="x-axis-label" x="553.274336283" y="540">
			100
		</text>
		<path class="x-notch" d="M 578.938053097 525 L 578.938053097 530"/>
		<text class="x-axis-label" x="604.601769912" y="540">
			110
		</text>
		<path class="x-notch" d="M 630.265486726 525 L 630.265486726 530"/>
	</g>
</svg>
