<?xml version="1.0" ?>
<svg height="600" version="1.1" width="800" xmlns="http://www.w3.org/2000/svg" xmlns:svg="http://www.w3.org/2000/svg">
	<style type="text/css">
		

.x-axis-path, .y-gridline, .x-notch { fill:none; stroke: #a7a9ac; stroke-width:1; }



.y-gridline { stroke-width: 1; }

.y-axis-path, .y-axis-path2, .x-notch-left, .x-notch-right { display: none;}



.x-axis-label, .data-point-label {font-size: 12px; font-weight:normal; font-family: sans-serif; fill: #58595b; text-anchor:middle;}

.y-axis-label {font-size: 12px; font-family: helvetica; fill: #a7a9ac; text-anchor:end;}



.series-1-line { fill: none; stroke: #10b80c; stroke-width:2; }



.series-2-line { fill: none; stroke: #e90f0a; stroke-width: 2;}

	</style>
	<rect fill="white" height="600" width="800" x="0" y="0"/>
	<g id="grid" transform="translate(70, 30)">
		<g class="x-axis" id="x_axis">
			<path class="x-axis-path" d="M 0 525 L 660 525"/>
			<path class="x-notch-left" d="M 0 525, L 0 535"/>
			<path class="x-notch-right" d="M 660 525, L 660 535"/>
		</g>
		<g class="y-axis" id="y_axis">
			<path class="y-axis-path" d="M 0 525 L 0 0"/>
			<path class="y-axis-path-2" d="M 660 525 L 660 0"/>
			<path class="y-gridline" d="M 0 525 L 660 525"/>
			<text class="y-axis-label" x="-5" y="525">
				-200
			</text>
			<path class="y-gridline" d="M 0 394 L 660 394"/>
			<text class="y-axis-label" x="-5" y="394">
				 0
			</text>
			<path class="y-gridline" d="M 0 263 L 660 263"/>
			<text class="y-axis-label" x="-5" y="263">
				200
			</text>
			<path class="y-gridline" d="M 0 132 L 660 132"/>
			<text class="y-axis-label" x="-5" y="132">
				400
			</text>
			<path class="y-gridline" d="M 0 1 L 660 1"/>
			<text class="y-axis-label" x="-5" y="1">
				600
			</text>
		</g>
		<g>
			<path class="series-1-line" d="M 40 395.127010049 L 45 389.110264533 L 51 390.243592772 L 56 392.894291833 L 62 400.484946519 L 67 404.755180741 L 73 392.60698601 L 79 401.980035029 L 84 381.755137576 L 90 393.684519491 L 95 393.839898263 L 101 407.948892003 L 106 405.435922547 L 112 382.817551371 L 118 381.312878798 L 123 371.47664876 L 129 381.002388184 L 134 390.507790071 L 140 387.668943384 L 145 401.492734964 L 151 392.980510273 L 157 397.586949381 L 162 385.174048912 L 168 396.746888405 L 173 396.831085803 L 179 378.84697167 L 185 372.64687056 L 190 369.930207974 L 196 354.909812997 L 201 339.553530908 L 207 318.340674108 L 212 290.772337426 L 218 298.882393705 L 224 260.273476259 L 229 240.404962341 L 235 236.129936087 L 240 255.199064101 L 246 234.159394128 L 251 241.352672434 L 257 197.763283179 L 263 162.505292501 L 268 129.691619385 L 274 38.4361310145 L 279 124.848718293 L 285 103.004444567 L 290 88.717471968 L 296 34.7597528329 L 302 93.2347627592 L 307 18.8865986317 L 313 49.1184915104 L 318 46.2794859362 L 324 49.9079755768 L 330 59.6170705946 L 335 26.2228243917 L 341 103.235021377 L 346 162.107248796 L 352 138.663936331 L 357 29.4114766917 L 363 92.836452124 L 369 108.371297776 L 374 111.439551865 L 380 63.2058956853 L 385 0.0 L 391 19.4358392031 L 396 103.444625103 L 402 156.2978953 L 408 231.170837757 L 413 179.718448791 L 419 230.676991548 L 424 282.796680479 L 430 284.449410312 L 435 316.810071177 L 441 362.309415602 L 447 378.302968014 L 452 358.067901794 L 458 382.219507069 L 463 382.700921959 L 469 381.216586922 L 475 389.734029462 L 480 401.164347319 L 486 398.284666673 L 491 400.202102243 L 497 391.06878828 L 502 405.758355108 L 508 405.129467662 L 514 400.640579511 L 519 404.106209979 L 525 391.061733698 L 530 394.995921921 L 536 395.772548851 L 541 403.984451696 L 547 395.767756819 L 553 408.399895922 L 558 400.39722183 L 564 391.94632752 L 569 405.505254477 L 575 394.83407327 L 580 399.705218115 L 586 401.133758394 L 592 385.461608955 L 597 406.81219536 L 603 411.072260814 L 608 398.211140126 L 614 393.508390077 L 620 360.480855063"/>
			<path class="series-2-line" d="M 40 392.717234519 L 45 387.846213152 L 51 398.466673998 L 56 389.226260213 L 62 399.449503566 L 67 400.933962081 L 73 392.090765788 L 79 403.108444126 L 84 399.429075237 L 90 398.92744629 L 95 391.673119967 L 101 391.965926005 L 106 398.216994431 L 112 396.126495513 L 118 399.994258984 L 123 386.781670272 L 129 389.457781265 L 134 395.3116322 L 140 405.932093045 L 145 404.23881162 L 151 385.862395504 L 157 396.880073842 L 162 398.364532357 L 168 391.507423527 L 173 395.375186998 L 179 398.448515484 L 185 391.194189162 L 190 398.239692574 L 196 388.204843803 L 201 399.619739634 L 207 395.14593576 L 212 390.672131886 L 218 397.320417805 L 224 395.627136379 L 229 382.81176516 L 235 385.090658661 L 240 386.177899683 L 246 385.676270736 L 251 380.408031876 L 257 381.098055406 L 263 383.376948907 L 268 376.122622584 L 274 376.812646115 L 279 360.025099969 L 285 361.112340992 L 290 360.610712044 L 296 367.656215456 L 302 356.032496715 L 307 368.241827531 L 313 362.973588671 L 318 358.102567305 L 324 351.245458475 L 330 356.304874424 L 335 346.667243146 L 341 371.190316233 L 346 359.566597492 L 352 362.242708485 L 357 366.507689449 L 363 357.267275663 L 369 351.999036804 L 374 339.580883077 L 380 352.187431386 L 385 345.727540049 L 391 351.581390983 L 396 322.480102566 L 402 351.372568073 L 408 337.762761868 L 413 325.741825634 L 419 324.842979194 L 424 328.710742665 L 430 335.756246077 L 435 339.226792055 L 441 337.930728122 L 447 369.603716077 L 452 367.513217159 L 458 381.311417945 L 463 385.179181416 L 469 385.869204946 L 475 390.928620895 L 480 390.82420944 L 486 392.308667955 L 491 389.026516559 L 497 390.113757582 L 502 392.789868575 L 508 383.946672282 L 514 388.608870738 L 519 391.682199224 L 525 383.236220424 L 530 390.678941328 L 536 379.45244008 L 541 385.703508507 L 547 383.215792096 L 553 381.52251067 L 558 392.142971516 L 564 395.216300001 L 569 388.359191172 L 575 396.993564554 L 580 397.683588084 L 586 393.20978421 L 592 391.913720277 L 597 393.398178792 L 603 396.471507278 L 608 390.408833433 L 614 397.454336846 L 620 392.583315479"/>
		</g>
		<text class="x-axis-label" x="40.0" y="540">
			0
		</text>
		<path class="x-notch" d="M 67.8846153846 525 L 67.8846153846 530"/>
		<text class="x-axis-label" x="95.7692307692" y="540">
			10
		</text>
		<path class="x-notch" d="M 123.653846154 525 L 123.653846154 530"/>
		<text class="x-axis-label" x="151.538461538" y="540">
			20
		</text>
		<path class="x-notch" d="M 179.423076923 525 L 179.423076923 530"/>
		<text class="x-axis-label" x="207.307692308" y="540">
			30
		</text>
		<path class="x-notch" d="M 235.192307692 525 L 235.192307692 530"/>
		<text class="x-axis-label" x="263.076923077" y="540">
			40
		</text>
		<path class="x-notch" d="M 290.961538462 525 L 290.961538462 530"/>
		<text class="x-axis-label" x="318.846153846" y="540">
			50
		</text>
		<path class="x-notch" d="M 346.730769231 525 L 346.730769231 530"/>
		<text class="x-axis-label" x="374.615384615" y="540">
			60
		</text>
		<path class="x-notch" d="M 402.5 525 L 402.5 530"/>
		<text class="x-axis-label" x="430.384615385" y="540">
			70
		</text>
		<path class="x-notch" d="M 458.269230769 525 L 458.269230769 530"/>
		<text class="x-axis-label" x="486.153846154" y="540">
			80
		</text>
		<path class="x-notch" d="M 514.038461538 525 L 514.038461538 530"/>
		<text class="x-axis-label" x="541.923076923" y="540">
			90
		</text>
		<path class="x-notch" d="M 569.807692308 525 L 569.807692308 530"/>
		<text class="x-axis-label" x="597.692307692" y="540">
			100
		</text>
		<path class="x-notch" d="M 625.576923077 525 L 625.576923077 530"/>
	</g>
</svg>
