<?xml version="1.0" ?>
<svg height="600" version="1.1" width="800" xmlns="http://www.w3.org/2000/svg" xmlns:svg="http://www.w3.org/2000/svg">
	<style type="text/css">
		

.x-axis-path, .y-gridline, .x-notch { fill:none; stroke: #a7a9ac; stroke-width:1; }



.y-gridline { stroke-width: 1; }

.y-axis-path, .y-axis-path2, .x-notch-left, .x-notch-right { display: none;}



.x-axis-label, .data-point-label {font-size: 12px; font-weight:normal; font-family: sans-serif; fill: #58595b; text-anchor:middle;}

.y-axis-label {font-size: 12px; font-family: helvetica; fill: #a7a9ac; text-anchor:end;}



.series-1-line { fill: none; stroke: #10b80c; stroke-width:2; }



.series-2-line { fill: none; stroke: #e90f0a; stroke-width: 2;}

	</style>
	<rect fill="white" height="600" width="800" x="0" y="0"/>
	<g id="grid" transform="translate(70, 30)">
		<g class="x-axis" id="x_axis">
			<path class="x-axis-path" d="M 0 525 L 660 525"/>
			<path class="x-notch-left" d="M 0 525, L 0 535"/>
			<path class="x-notch-right" d="M 660 525, L 660 535"/>
		</g>
		<g class="y-axis" id="y_axis">
			<path class="y-axis-path" d="M 0 525 L 0 0"/>
			<path class="y-axis-path-2" d="M 660 525 L 660 0"/>
			<path class="y-gridline" d="M 0 525 L 660 525"/>
			<text class="y-axis-label" x="-5" y="525">
				-200
			</text>
			<path class="y-gridline" d="M 0 394 L 660 394"/>
			<text class="y-axis-label" x="-5" y="394">
				 0
			</text>
			<path class="y-gridline" d="M 0 263 L 660 263"/>
			<text class="y-axis-label" x="-5" y="263">
				200
			</text>
			<path class="y-gridline" d="M 0 132 L 660 132"/>
			<text class="y-axis-label" x="-5" y="132">
				400
			</text>
			<path class="y-gridline" d="M 0 1 L 660 1"/>
			<text class="y-axis-label" x="-5" y="1">
				600
			</text>
		</g>
		<g>
			<path class="series-1-line" d="M 40 377.978700512 L 45 387.122080197 L 51 402.295302125 L 56 400.018396479 L 62 399.351836044 L 67 386.534197487 L 73 392.399877071 L 78 406.431123912 L 84 394.618459061 L 89 392.672922161 L 95 377.182776853 L 100 390.585670163 L 106 388.754508927 L 111 367.691133255 L 117 387.763802429 L 122 380.393438481 L 128 382.125025728 L 133 373.555855171 L 139 353.543239103 L 144 375.819866748 L 150 362.728225431 L 156 334.984206425 L 161 335.551014716 L 167 262.914369479 L 172 268.266071197 L 178 223.243488114 L 183 196.664248066 L 189 220.505435026 L 194 183.214076725 L 200 163.681589027 L 205 128.285980632 L 211 119.933446846 L 216 165.998074717 L 222 77.7154800195 L 227 98.1763494612 L 233 99.5769242732 L 238 0.0 L 244 17.628557441 L 249 66.9138757345 L 255 39.9690611342 L 260 61.1151156278 L 266 73.5933832443 L 272 75.5647674443 L 277 91.8343567169 L 283 95.1531289947 L 288 59.8490923925 L 294 57.4804367982 L 299 70.2786712252 L 305 77.7203120602 L 310 50.6500761711 L 316 94.5335494418 L 321 89.047355308 L 327 94.879185397 L 332 151.358590425 L 338 126.138853011 L 343 137.154466109 L 349 131.520759437 L 354 141.737702596 L 360 148.620114133 L 365 215.834797595 L 371 258.062496068 L 376 268.371545486 L 382 271.027580272 L 388 248.685406289 L 393 257.54373759 L 399 285.930377336 L 404 286.14301301 L 410 319.588905252 L 415 372.369451193 L 421 381.364249408 L 426 352.946803596 L 432 386.540920998 L 437 392.452208324 L 443 358.780430028 L 448 360.477811469 L 454 377.775712785 L 459 382.08823499 L 465 384.220137061 L 470 402.11111717 L 476 401.239143745 L 481 398.334240879 L 487 388.428549714 L 492 403.384778559 L 498 400.457071823 L 504 405.340759726 L 509 394.624284065 L 515 397.486622619 L 520 394.113527783 L 526 403.211121571 L 531 404.21173787 L 537 395.916570072 L 542 391.504117568 L 548 400.841686464 L 553 398.975963111 L 559 402.294913544 L 564 402.267930421 L 570 389.438889927 L 575 387.310387596 L 581 394.695018755 L 586 388.683979285 L 592 394.412479335 L 597 400.221327398 L 603 398.766608183 L 608 380.889895284 L 614 398.826661289 L 620 393.021034811"/>
			<path class="series-2-line" d="M 40 394.462620959 L 45 396.087026989 L 51 395.039104423 L 56 389.091912766 L 62 392.497871193 L 67 398.130770116 L 73 389.956637962 L 78 393.362596389 L 84 398.550107213 L 89 410.418439526 L 95 398.681202578 L 100 378.481591745 L 106 407.274671829 L 111 379.058075209 L 117 395.380288514 L 122 384.979215864 L 128 379.032024207 L 133 399.362730405 L 139 380.944671969 L 144 383.459854198 L 150 397.109738907 L 156 386.263278158 L 161 388.333072287 L 167 397.974464104 L 172 383.119510461 L 178 392.760902278 L 183 373.897455742 L 189 375.521861772 L 194 360.221520031 L 200 388.569212015 L 205 372.823482175 L 211 359.30469283 L 216 333.315036707 L 222 317.123918767 L 227 324.983758186 L 233 335.9613143 L 238 344.711929918 L 244 342.773231154 L 249 335.489875199 L 255 304.155561884 L 260 309.343072708 L 266 329.228390807 L 272 320.608870555 L 277 322.233276584 L 283 294.462068064 L 288 299.204190789 L 294 255.399010695 L 299 294.881405161 L 305 284.034944412 L 310 272.297707465 L 316 256.551977624 L 321 230.116933401 L 327 262.02773018 L 332 191.944652231 L 338 221.628508513 L 343 156.890087755 L 349 223.095768176 L 354 230.955607596 L 360 255.294806687 L 365 212.825790891 L 371 212.223256425 L 376 292.681356022 L 382 229.279099562 L 388 226.895012698 L 393 273.058228653 L 399 295.170487248 L 404 282.987862201 L 410 314.89865898 L 415 370.415025019 L 421 360.459340469 L 426 385.243927659 L 432 393.994543277 L 437 378.694201536 L 443 302.375690197 L 448 301.773155731 L 454 351.499476479 L 459 342.434568127 L 465 395.72399367 L 470 370.179725646 L 476 388.283491348 L 481 393.471002172 L 487 379.061436629 L 492 377.122737865 L 498 385.873353483 L 504 391.951640505 L 509 382.441344054 L 515 391.191959671 L 520 399.942575289 L 526 391.323055037 L 531 377.804265692 L 537 390.117986104 L 542 387.288511141 L 548 393.366798164 L 553 392.764263697 L 559 382.363191048 L 564 390.223030467 L 570 397.637481787 L 575 385.900244839 L 581 383.961546075 L 586 404.737640373 L 592 383.201865242 L 597 401.305630944 L 603 388.677617798 L 608 401.882114408 L 614 386.581772667 L 620 392.660059689"/>
		</g>
		<text class="x-axis-label" x="40.0" y="540">
			0
		</text>
		<path class="x-notch" d="M 67.619047619 525 L 67.619047619 530"/>
		<text class="x-axis-label" x="95.2380952381" y="540">
			10
		</text>
		<path class="x-notch" d="M 122.857142857 525 L 122.857142857 530"/>
		<text class="x-axis-label" x="150.476190476" y="540">
			20
		</text>
		<path class="x-notch" d="M 178.095238095 525 L 178.095238095 530"/>
		<text class="x-axis-label" x="205.714285714" y="540">
			30
		</text>
		<path class="x-notch" d="M 233.333333333 525 L 233.333333333 530"/>
		<text class="x-axis-label" x="260.952380952" y="540">
			40
		</text>
		<path class="x-notch" d="M 288.571428571 525 L 288.571428571 530"/>
		<text class="x-axis-label" x="316.19047619" y="540">
			50
		</text>
		<path class="x-notch" d="M 343.80952381 525 L 343.80952381 530"/>
		<text class="x-axis-label" x="371.428571429" y="540">
			60
		</text>
		<path class="x-notch" d="M 399.047619048 525 L 399.047619048 530"/>
		<text class="x-axis-label" x="426.666666667" y="540">
			70
		</text>
		<path class="x-notch" d="M 454.285714286 525 L 454.285714286 530"/>
		<text class="x-axis-label" x="481.904761905" y="540">
			80
		</text>
		<path class="x-notch" d="M 509.523809524 525 L 509.523809524 530"/>
		<text class="x-axis-label" x="537.142857143" y="540">
			90
		</text>
		<path class="x-notch" d="M 564.761904762 525 L 564.761904762 530"/>
		<text class="x-axis-label" x="592.380952381" y="540">
			100
		</text>
		<path class="x-notch" d="M 620.0 525 L 620.0 530"/>
	</g>
</svg>
