<?xml version="1.0" ?>
<svg height="600" version="1.1" width="800" xmlns="http://www.w3.org/2000/svg" xmlns:svg="http://www.w3.org/2000/svg">
	<style type="text/css">

.x-axis-path, .y-gridline, .x-notch { fill:none; stroke: #a7a9ac; stroke-width:1; }



.y-gridline { stroke-width: 1; }

.y-axis-path, .y-axis-path2, .x-notch-left, .x-notch-right { display: none;}



.x-axis-label, .data-point-label {font-size: 12px; font-weight:normal; font-family: sans-serif; fill: #58595b; text-anchor:middle;}

.y-axis-label {font-size: 12px; font-family: helvetica; fill: #a7a9ac; text-anchor:end;}



.series-1-line { fill: none; stroke: #10b80c; stroke-width:2; }



.series-2-line { fill: none; stroke: #e90f0a; stroke-width: 2;}
</style>
	<rect fill="white" height="600" width="800" x="0" y="0"/>
	<g id="grid" transform="translate(70, 30)">
		<g class="x-axis" id="x_axis">
			<path class="x-axis-path" d="M 0 525 L 660 525"/>
			<path class="x-notch-left" d="M 0 525, L 0 535"/>
			<path class="x-notch-right" d="M 660 525, L 660 535"/>
		</g>
		<g class="y-axis" id="y_axis">
			<path class="y-axis-path" d="M 0 525 L 0 0"/>
			<path class="y-axis-path-2" d="M 660 525 L 660 0"/>
			<path class="y-gridline" d="M 0 525 L 660 525"/>
			<text class="y-axis-label" x="-5" y="525">-200</text>
			<path class="y-gridline" d="M 0 394 L 660 394"/>
			<text class="y-axis-label" x="-5" y="394"> 0</text>
			<path class="y-gridline" d="M 0 263 L 660 263"/>
			<text class="y-axis-label" x="-5" y="263">200</text>
			<path class="y-gridline" d="M 0 132 L 660 132"/>
			<text class="y-axis-label" x="-5" y="132">400</text>
			<path class="y-gridline" d="M 0 1 L 660 1"/>
			<text class="y-axis-label" x="-5" y="1">600</text>
		</g>
		<g>
			<path class="series-1-line" d="M 40 392.770623521 L 45 394.105477196 L 51 395.807949025 L 57 380.295983779 L 62 406.58298488 L 68 404.876254589 L 74 397.303016428 L 80 392.988804461 L 85 371.27634634 L 91 360.126783196 L 97 381.767716555 L 103 376.751640706 L 108 356.459857284 L 114 375.96156585 L 120 370.29342404 L 126 329.76230579 L 131 311.476257449 L 137 314.448706605 L 143 330.42414883 L 149 318.789642588 L 154 308.91005677 L 160 281.598852371 L 166 314.28710236 L 172 265.934060524 L 177 275.909505165 L 183 238.938286407 L 189 285.180695973 L 195 292.799473593 L 200 179.951346277 L 206 248.455511965 L 212 192.431504636 L 218 215.543171336 L 223 147.769983496 L 229 176.948392635 L 235 215.486203558 L 240 145.373034911 L 246 145.655092765 L 252 162.649697661 L 258 161.043084655 L 263 195.987362935 L 269 144.141687908 L 275 70.8362379246 L 281 71.4525415046 L 286 59.884780119 L 292 0.0 L 298 15.8586387256 L 304 62.6024168811 L 309 80.9676378327 L 315 41.7398693381 L 321 78.5728184784 L 327 43.5066960718 L 332 107.682353531 L 338 124.760650219 L 344 53.6614306074 L 350 66.7454647929 L 355 49.1943920382 L 361 57.1643623211 L 367 77.3846209819 L 373 127.771990422 L 378 184.760843319 L 384 157.299202271 L 390 176.065674527 L 396 233.389033873 L 401 104.395951517 L 407 113.217961608 L 413 127.004120397 L 419 296.270857933 L 424 260.085194849 L 430 313.748015974 L 436 355.377990949 L 441 318.974885637 L 447 302.978498737 L 453 367.120523046 L 459 387.875522724 L 464 321.873941523 L 470 359.693202351 L 476 372.225548582 L 482 353.855808448 L 487 376.46636728 L 493 386.608674062 L 499 378.233194014 L 505 377.746382408 L 510 393.237142257 L 516 386.064894679 L 522 383.137984981 L 528 389.871089643 L 533 387.495607178 L 539 399.944261616 L 545 413.83053769 L 551 391.950956706 L 556 400.455668007 L 562 394.186040323 L 568 396.172438515 L 574 389.485134034 L 579 370.045911864 L 585 387.174267195 L 591 382.342000424 L 597 394.857660441 L 602 401.941697044 L 608 379.961998775 L 614 386.477661209 L 620 404.291454929"/>
			<path class="series-2-line" d="M 40 394.010722095 L 45 401.659848279 L 51 402.790922075 L 57 394.79672253 L 62 373.766418212 L 68 398.362480601 L 74 397.538138681 L 80 396.713796762 L 85 390.023207694 L 91 413.315659606 L 97 405.321460061 L 103 412.318781006 L 108 412.798049563 L 114 408.062876212 L 120 389.639792848 L 126 395.333503315 L 131 413.411513318 L 137 394.336624715 L 143 405.89658233 L 149 403.116824695 L 154 406.203314207 L 160 408.637998481 L 166 405.858240846 L 172 386.131547004 L 177 393.128867949 L 183 402.733409848 L 189 395.391015542 L 195 388.700426474 L 200 389.179695032 L 206 391.614379306 L 212 399.26350549 L 218 390.617500706 L 223 400.873847844 L 229 386.361595912 L 235 386.189059231 L 240 380.150275402 L 246 399.531895882 L 252 379.153396802 L 258 388.106133463 L 263 363.81680295 L 269 380.591202475 L 275 364.123534828 L 281 382.20154483 L 286 368.992903375 L 292 368.820366695 L 298 398.630870993 L 304 389.333060971 L 309 383.94608238 L 315 364.219388539 L 321 350.358941846 L 327 342.364742301 L 332 359.139141826 L 338 351.144942281 L 344 346.409768929 L 350 351.451674158 L 355 331.073175078 L 361 345.892158887 L 367 330.728101716 L 373 337.725422661 L 378 331.686638832 L 384 332.16590739 L 390 340.466838812 L 396 358.544848814 L 401 335.559128779 L 407 319.091461131 L 413 341.732107804 L 419 360.461923045 L 424 374.629101616 L 430 353.598797297 L 436 379.498470164 L 441 376.718712528 L 447 393.493112053 L 453 390.061549179 L 459 367.727634383 L 464 381.243007714 L 470 391.499354852 L 476 380.897934353 L 482 386.59164482 L 487 405.321460061 L 493 386.246571458 L 499 383.466813823 L 505 395.678576677 L 510 406.586729054 L 516 394.029892838 L 522 405.589850453 L 528 409.979950443 L 533 411.762829478 L 539 388.777109444 L 545 395.774430388 L 551 389.735646559 L 556 397.384772743 L 562 396.560430823 L 568 378.789152698 L 574 392.30452603 L 579 412.337951748 L 585 396.522089339 L 591 400.26038409 L 597 392.266184545 L 602 392.745453103 L 608 402.349995002 L 614 389.793158786 L 620 394.183258776"/>
		</g>
		<text class="x-axis-label" x="40.0" y="540">0</text>
		<path class="x-notch" d="M 68.7128712871 525 L 68.7128712871 530"/>
		<text class="x-axis-label" x="97.4257425743" y="540">10</text>
		<path class="x-notch" d="M 126.138613861 525 L 126.138613861 530"/>
		<text class="x-axis-label" x="154.851485149" y="540">20</text>
		<path class="x-notch" d="M 183.564356436 525 L 183.564356436 530"/>
		<text class="x-axis-label" x="212.277227723" y="540">30</text>
		<path class="x-notch" d="M 240.99009901 525 L 240.99009901 530"/>
		<text class="x-axis-label" x="269.702970297" y="540">40</text>
		<path class="x-notch" d="M 298.415841584 525 L 298.415841584 530"/>
		<text class="x-axis-label" x="327.128712871" y="540">50</text>
		<path class="x-notch" d="M 355.841584158 525 L 355.841584158 530"/>
		<text class="x-axis-label" x="384.554455446" y="540">60</text>
		<path class="x-notch" d="M 413.267326733 525 L 413.267326733 530"/>
		<text class="x-axis-label" x="441.98019802" y="540">70</text>
		<path class="x-notch" d="M 470.693069307 525 L 470.693069307 530"/>
		<text class="x-axis-label" x="499.405940594" y="540">80</text>
		<path class="x-notch" d="M 528.118811881 525 L 528.118811881 530"/>
		<text class="x-axis-label" x="556.831683168" y="540">90</text>
		<path class="x-notch" d="M 585.544554455 525 L 585.544554455 530"/>
		<text class="x-axis-label" x="614.257425743" y="540">100</text>
		<path class="x-notch" d="M 642.97029703 525 L 642.97029703 530"/>
	</g>
</svg>
