<?xml version="1.0" ?>
<svg height="600" version="1.1" width="800" xmlns="http://www.w3.org/2000/svg" xmlns:svg="http://www.w3.org/2000/svg">
	<style type="text/css">
		

.x-axis-path, .y-gridline, .x-notch { fill:none; stroke: #a7a9ac; stroke-width:1; }



.y-gridline { stroke-width: 1; }

.y-axis-path, .y-axis-path2, .x-notch-left, .x-notch-right { display: none;}



.x-axis-label, .data-point-label {font-size: 12px; font-weight:normal; font-family: sans-serif; fill: #58595b; text-anchor:middle;}

.y-axis-label {font-size: 12px; font-family: helvetica; fill: #a7a9ac; text-anchor:end;}



.series-1-line { fill: none; stroke: #10b80c; stroke-width:2; }



.series-2-line { fill: none; stroke: #e90f0a; stroke-width: 2;}

	</style>
	<rect fill="white" height="600" width="800" x="0" y="0"/>
	<g id="grid" transform="translate(70, 30)">
		<g class="x-axis" id="x_axis">
			<path class="x-axis-path" d="M 0 525 L 660 525"/>
			<path class="x-notch-left" d="M 0 525, L 0 535"/>
			<path class="x-notch-right" d="M 660 525, L 660 535"/>
		</g>
		<g class="y-axis" id="y_axis">
			<path class="y-axis-path" d="M 0 525 L 0 0"/>
			<path class="y-axis-path-2" d="M 660 525 L 660 0"/>
			<path class="y-gridline" d="M 0 525 L 660 525"/>
			<text class="y-axis-label" x="-5" y="525">
				-100
			</text>
			<path class="y-gridline" d="M 0 438 L 660 438"/>
			<text class="y-axis-label" x="-5" y="438">
				 0
			</text>
			<path class="y-gridline" d="M 0 351 L 660 351"/>
			<text class="y-axis-label" x="-5" y="351">
				100
			</text>
			<path class="y-gridline" d="M 0 264 L 660 264"/>
			<text class="y-axis-label" x="-5" y="264">
				200
			</text>
			<path class="y-gridline" d="M 0 177 L 660 177"/>
			<text class="y-axis-label" x="-5" y="177">
				300
			</text>
			<path class="y-gridline" d="M 0 90 L 660 90"/>
			<text class="y-axis-label" x="-5" y="90">
				400
			</text>
			<path class="y-gridline" d="M 0 3 L 660 3"/>
			<text class="y-axis-label" x="-5" y="3">
				500
			</text>
		</g>
		<g>
			<path class="series-1-line" d="M 40 425.71669 L 44 435.013454118 L 49 428.201118235 L 54 448.895282353 L 59 448.858596471 L 64 442.674510588 L 69 427.224524706 L 74 426.312838824 L 79 419.770002941 L 84 456.438517059 L 89 453.799231176 L 94 437.317095294 L 98 445.963209412 L 103 419.384973529 L 108 407.367437647 L 113 432.234651765 L 118 434.441815882 L 123 436.91778 L 128 431.092794118 L 133 431.527208235 L 138 423.279172353 L 143 406.931786471 L 148 406.737950588 L 153 403.111664706 L 157 389.905178824 L 162 375.554542941 L 167 373.094807059 L 172 380.731171176 L 177 386.012035294 L 182 363.584099412 L 187 371.310413529 L 192 344.978927647 L 197 366.570491765 L 202 363.572455882 L 207 341.18967 L 212 343.127334118 L 216 325.635448235 L 221 315.368262353 L 226 322.488726471 L 231 311.099440588 L 236 311.399454706 L 241 297.362768824 L 246 306.524782941 L 251 285.510847059 L 256 276.948511176 L 261 292.661825294 L 266 253.250139412 L 271 210.271253529 L 275 251.673867647 L 280 173.717381765 L 285 219.808945882 L 290 222.41966 L 295 183.636224118 L 300 229.077138235 L 305 200.748902353 L 310 156.581066471 L 315 182.973930588 L 320 128.642444706 L 325 137.826858824 L 330 111.293422941 L 334 121.936287059 L 339 173.345401176 L 344 147.395065294 L 349 165.688579412 L 354 121.475593529 L 359 273.173007647 L 364 73.8158717647 L 369 190.849985882 L 374 102.64025 L 379 239.485064118 L 384 271.374678235 L 388 296.825342353 L 393 274.666906471 L 398 301.418520588 L 403 308.112684706 L 408 327.707498824 L 413 293.747762941 L 418 327.993227059 L 423 292.418241176 L 428 401.195855294 L 433 389.492619412 L 438 418.443283529 L 443 424.935497647 L 447 443.924461765 L 452 425.086475882 L 457 443.94104 L 462 450.388454118 L 467 430.675468235 L 472 440.017032353 L 477 440.272246471 L 482 436.444010588 L 487 426.849524706 L 492 438.950838824 L 497 435.683302941 L 502 446.864817059 L 506 446.155081176 L 511 449.147295294 L 516 455.370359412 L 521 430.631723529 L 526 436.450887647 L 531 468.946351765 L 536 435.861615882 L 541 451.55253 L 546 443.349294118 L 551 435.976258235 L 556 449.984372353 L 561 447.614586471 L 565 462.497700588 L 570 457.166214706 L 575 436.062328824 L 580 449.105842941 L 585 468.094807059 L 590 444.343521176 L 595 451.777935294 L 600 452.750999412 L 605 441.900363529 L 610 446.956527647 L 615 417.035441765 L 620 430.078955882"/>
			<path class="series-2-line" d="M 40 439.775 L 44 444.129411765 L 49 436.233823529 L 54 437.088235294 L 59 430.067647059 L 64 426.547058824 L 69 435.276470588 L 74 428.255882353 L 79 446.610294118 L 84 446.589705882 L 89 436.069117647 L 94 435.173529412 L 98 438.652941176 L 103 443.007352941 L 108 428.111764706 L 113 426.341176471 L 118 444.695588235 L 123 421.05 L 128 429.779411765 L 133 417.508823529 L 138 428.863235294 L 143 441.092647059 L 148 424.447058824 L 153 431.426470588 L 157 431.405882353 L 162 439.260294118 L 167 434.864705882 L 172 425.219117647 L 177 441.823529412 L 182 412.927941176 L 187 423.407352941 L 192 423.386764706 L 197 420.741176471 L 202 432.095588235 L 207 430.325 L 212 422.429411765 L 216 408.408823529 L 221 427.638235294 L 226 430.242647059 L 231 419.722058824 L 236 428.451470588 L 241 421.430882353 L 246 412.660294118 L 251 436.264705882 L 256 428.369117647 L 261 421.348529412 L 266 414.327941176 L 271 417.807352941 L 275 430.036764706 L 280 430.016176471 L 285 427.370588235 L 290 416.85 L 295 414.204411765 L 300 410.683823529 L 305 415.038235294 L 310 433.392647059 L 315 432.497058824 L 320 432.476470588 L 325 420.205882353 L 330 417.560294118 L 334 416.664705882 L 339 437.644117647 L 344 412.248529412 L 349 412.227941176 L 354 403.457352941 L 359 408.686764706 L 364 407.791176471 L 369 428.770588235 L 374 424.375 L 379 426.104411765 L 384 420.833823529 L 388 430.438235294 L 393 427.792647059 L 398 405.022058824 L 403 405.876470588 L 408 407.605882353 L 413 403.210294118 L 418 405.814705882 L 423 414.544117647 L 428 426.773529412 L 433 431.127941176 L 438 440.732352941 L 443 438.961764706 L 447 432.816176471 L 452 424.045588235 L 457 438.9 L 462 444.129411765 L 467 435.358823529 L 472 432.713235294 L 477 448.442647059 L 482 452.797058824 L 487 435.276470588 L 492 445.755882353 L 497 430.860294118 L 502 448.339705882 L 506 443.944117647 L 511 442.173529412 L 516 448.277941176 L 521 438.632352941 L 526 439.486764706 L 531 442.091176471 L 536 437.695588235 L 541 434.175 L 546 438.529411765 L 551 449.883823529 L 556 435.863235294 L 561 451.592647059 L 565 437.572058824 L 570 437.551470588 L 575 441.030882353 L 580 441.010294118 L 585 434.864705882 L 590 441.844117647 L 595 429.573529412 L 600 435.677941176 L 605 443.532352941 L 610 426.886764706 L 615 440.866176471 L 620 440.845588235"/>
		</g>
		<text class="x-axis-label" x="40.0" y="540">
			0
		</text>
		<path class="x-notch" d="M 64.5762711864 525 L 64.5762711864 530"/>
		<text class="x-axis-label" x="89.1525423729" y="540">
			10
		</text>
		<path class="x-notch" d="M 113.728813559 525 L 113.728813559 530"/>
		<text class="x-axis-label" x="138.305084746" y="540">
			20
		</text>
		<path class="x-notch" d="M 162.881355932 525 L 162.881355932 530"/>
		<text class="x-axis-label" x="187.457627119" y="540">
			30
		</text>
		<path class="x-notch" d="M 212.033898305 525 L 212.033898305 530"/>
		<text class="x-axis-label" x="236.610169492" y="540">
			40
		</text>
		<path class="x-notch" d="M 261.186440678 525 L 261.186440678 530"/>
		<text class="x-axis-label" x="285.762711864" y="540">
			50
		</text>
		<path class="x-notch" d="M 310.338983051 525 L 310.338983051 530"/>
		<text class="x-axis-label" x="334.915254237" y="540">
			60
		</text>
		<path class="x-notch" d="M 359.491525424 525 L 359.491525424 530"/>
		<text class="x-axis-label" x="384.06779661" y="540">
			70
		</text>
		<path class="x-notch" d="M 408.644067797 525 L 408.644067797 530"/>
		<text class="x-axis-label" x="433.220338983" y="540">
			80
		</text>
		<path class="x-notch" d="M 457.796610169 525 L 457.796610169 530"/>
		<text class="x-axis-label" x="482.372881356" y="540">
			90
		</text>
		<path class="x-notch" d="M 506.949152542 525 L 506.949152542 530"/>
		<text class="x-axis-label" x="531.525423729" y="540">
			100
		</text>
		<path class="x-notch" d="M 556.101694915 525 L 556.101694915 530"/>
		<text class="x-axis-label" x="580.677966102" y="540">
			110
		</text>
		<path class="x-notch" d="M 605.254237288 525 L 605.254237288 530"/>
	</g>
</svg>
