<?xml version="1.0" ?>
<svg height="600" version="1.1" width="800" xmlns="http://www.w3.org/2000/svg" xmlns:svg="http://www.w3.org/2000/svg">
	<style type="text/css">
		

.x-axis-path, .y-gridline, .x-notch { fill:none; stroke: #a7a9ac; stroke-width:1; }



.y-gridline { stroke-width: 1; }

.y-axis-path, .y-axis-path2, .x-notch-left, .x-notch-right { display: none;}



.x-axis-label, .data-point-label {font-size: 12px; font-weight:normal; font-family: sans-serif; fill: #58595b; text-anchor:middle;}

.y-axis-label {font-size: 12px; font-family: helvetica; fill: #a7a9ac; text-anchor:end;}



.series-1-line { fill: none; stroke: #10b80c; stroke-width:2; }



.series-2-line { fill: none; stroke: #e90f0a; stroke-width: 2;}

	</style>
	<rect fill="white" height="600" width="800" x="0" y="0"/>
	<g id="grid" transform="translate(70, 30)">
		<g class="x-axis" id="x_axis">
			<path class="x-axis-path" d="M 0 525 L 660 525"/>
			<path class="x-notch-left" d="M 0 525, L 0 535"/>
			<path class="x-notch-right" d="M 660 525, L 660 535"/>
		</g>
		<g class="y-axis" id="y_axis">
			<path class="y-axis-path" d="M 0 525 L 0 0"/>
			<path class="y-axis-path-2" d="M 660 525 L 660 0"/>
			<path class="y-gridline" d="M 0 525 L 660 525"/>
			<text class="y-axis-label" x="-5" y="525">
				-200
			</text>
			<path class="y-gridline" d="M 0 394 L 660 394"/>
			<text class="y-axis-label" x="-5" y="394">
				 0
			</text>
			<path class="y-gridline" d="M 0 263 L 660 263"/>
			<text class="y-axis-label" x="-5" y="263">
				200
			</text>
			<path class="y-gridline" d="M 0 132 L 660 132"/>
			<text class="y-axis-label" x="-5" y="132">
				400
			</text>
			<path class="y-gridline" d="M 0 1 L 660 1"/>
			<text class="y-axis-label" x="-5" y="1">
				600
			</text>
		</g>
		<g>
			<path class="series-1-line" d="M 40 398.91704998 L 43 398.78830749 L 46 402.446814558 L 49 392.062734799 L 52 372.748671976 L 55 386.21553272 L 58 383.595001444 L 61 371.287226241 L 65 373.021683398 L 68 367.992545057 L 71 381.163898013 L 74 357.790118233 L 77 372.946016898 L 80 353.859522247 L 83 356.79078004 L 87 330.220884435 L 90 360.403371871 L 93 316.034478557 L 96 348.542745806 L 99 321.192903414 L 102 325.350855273 L 105 280.716938381 L 108 279.512623159 L 112 265.015774466 L 115 250.193406398 L 118 280.42162015 L 121 260.509452398 L 124 260.509617943 L 127 260.577723104 L 130 232.576251182 L 134 212.868611212 L 137 210.437247457 L 140 215.436114523 L 143 187.412074833 L 146 212.058015306 L 149 196.410328604 L 152 181.22368604 L 156 174.861749676 L 159 184.124979636 L 162 184.170280717 L 165 152.828897296 L 168 152.745644809 L 171 120.760430145 L 174 121.025737424 L 177 142.066624664 L 181 97.5611431832 L 184 150.905604344 L 187 127.039941748 L 190 90.4115565253 L 193 103.264597613 L 196 102.264810174 L 199 95.7740839299 L 203 125.456772108 L 206 69.9160065727 L 209 73.9982205303 L 212 12.5800283952 L 215 68.7875240322 L 218 79.3762263517 L 221 38.1125870123 L 224 37.4385552599 L 228 65.1447323275 L 231 91.0861335734 L 234 71.0450577859 L 237 33.3187683762 L 240 38.9535502434 L 243 64.0013387724 L 246 75.2408435307 L 250 50.2846024107 L 253 0.0 L 256 56.0485760147 L 259 78.5511693124 L 262 92.6617431448 L 265 28.6155285253 L 268 48.656344624 L 272 63.819923419 L 275 93.9193472909 L 278 121.224148926 L 281 84.7246717384 L 284 86.2697250627 L 287 93.4498673324 L 290 66.1074687594 L 293 93.6620518675 L 297 102.433162699 L 300 91.1931619402 L 303 110.386091637 L 306 111.052656194 L 309 110.681103425 L 312 83.5962846119 L 315 137.486035035 L 319 120.141393971 L 322 190.93641123 L 325 150.105104157 L 328 209.811667227 L 331 181.7949532 L 334 192.701258453 L 337 187.361960997 L 340 204.827924746 L 344 195.186336367 L 347 197.80731689 L 350 214.515665308 L 353 231.769657456 L 356 200.041549928 L 359 179.061844044 L 362 241.972203071 L 366 226.816517341 L 369 263.793084485 L 372 264.05082979 L 375 281.464096028 L 378 240.541336325 L 381 276.366829149 L 384 299.467645531 L 388 302.952109028 L 391 291.212072699 L 394 322.773557097 L 397 313.245398337 L 400 333.839538296 L 403 310.397937057 L 406 333.567047522 L 409 335.324308758 L 413 343.496842038 L 416 334.604952548 L 419 336.240985879 L 422 363.23503762 L 425 365.204506769 L 428 365.166626129 L 431 362.364371151 L 435 362.940310168 L 438 369.007069834 L 441 371.233882431 L 444 359.380652795 L 447 381.13366536 L 450 367.614083728 L 453 390.661966288 L 456 376.490991437 L 460 377.748335259 L 463 382.29289307 L 466 381.770337121 L 469 367.303854483 L 472 377.794132976 L 475 376.082456522 L 478 367.705490239 L 482 370.924457534 L 485 380.846642687 L 488 386.201513338 L 491 379.021465847 L 494 377.446259403 L 497 386.588261457 L 500 377.529654058 L 504 379.98368036 L 507 378.521903535 L 510 373.667045077 L 513 374.227623834 L 516 389.890883732 L 519 398.858724058 L 522 392.640465212 L 525 398.81344699 L 529 399.048388215 L 532 397.329149786 L 535 394.292000972 L 538 402.313058448 L 541 398.450236532 L 544 398.223070216 L 547 403.964310507 L 551 395.322438802 L 554 390.626499966 L 557 392.610974908 L 560 399.579263733 L 563 401.753142508 L 566 399.579476668 L 569 397.58753453 L 572 403.631608272 L 576 400.511159582 L 579 394.06568703 L 582 396.974258899 L 585 393.066065135 L 588 398.792063321 L 591 394.98241154 L 594 391.725610994 L 598 392.505841482 L 601 397.603250529 L 604 392.657412064 L 607 397.92153902 L 610 395.732631075 L 613 393.892164741 L 616 393.119709163 L 620 393.763587796"/>
			<path class="series-2-line" d="M 40 394.104467559 L 43 389.41857159 L 46 404.523781012 L 49 398.36093688 L 52 379.791728173 L 55 385.444469349 L 58 389.324872728 L 61 395.273003536 L 65 387.928600873 L 68 387.378159761 L 71 381.510705261 L 74 362.646106922 L 77 369.775796261 L 80 384.881005684 L 83 386.693681634 L 87 382.59856493 L 90 349.555264221 L 93 357.275732825 L 96 376.221007473 L 99 390.144658365 L 102 361.827591778 L 105 376.342021935 L 108 366.63450221 L 112 356.926982485 L 115 363.465892558 L 118 357.893827691 L 121 363.546568867 L 124 373.3347649 L 127 360.968738481 L 130 349.784270592 L 134 358.095518462 L 137 343.957154246 L 140 334.24963452 L 143 338.1300379 L 146 316.311543233 L 149 347.958572088 L 152 284.490139209 L 156 307.570868714 L 159 312.337440992 L 162 291.995894489 L 165 306.510324646 L 168 306.255273167 L 171 317.520417364 L 174 332.034847522 L 177 331.189016778 L 181 314.096756234 L 184 319.74949741 L 187 343.125616548 L 190 329.873421231 L 193 304.510250971 L 196 297.46123794 L 199 317.588071119 L 203 293.406459391 L 206 292.85601828 L 209 264.834341326 L 212 271.077861767 L 215 279.389109637 L 218 284.74646118 L 221 280.355954844 L 224 280.100903365 L 228 287.82137197 L 231 294.360282044 L 234 285.538931216 L 237 305.370374762 L 240 265.5331125 L 243 284.773776781 L 246 234.597877374 L 250 266.835685493 L 253 241.177125602 L 256 262.780906944 L 259 252.777997586 L 262 250.159829045 L 265 274.717506715 L 268 245.51427123 L 272 262.982597714 L 275 254.45663652 L 278 267.198728881 L 281 268.420625566 L 284 256.054599146 L 287 240.143897134 L 290 241.365793819 L 293 238.156846013 L 297 262.123744417 L 300 251.234666161 L 303 262.204420725 L 306 260.17703145 L 309 212.659638738 L 312 219.789328077 L 315 221.011224762 L 319 217.802276956 L 322 208.390146863 L 325 263.372956702 L 328 255.733164406 L 331 235.391617903 L 334 191.12351115 L 337 227.496774128 L 340 231.377177507 L 344 247.663945461 L 347 274.880129824 L 350 258.674038179 L 353 272.597689071 L 356 243.689843219 L 359 289.220184811 L 362 277.149548024 L 366 278.076055076 L 369 256.552950042 L 372 272.24893873 L 375 307.440643177 L 378 307.480981331 L 381 304.272033526 L 384 281.567369961 L 388 312.328229917 L 391 287.260449291 L 394 304.13799651 L 397 302.7013865 L 400 313.966530697 L 403 328.776350487 L 406 318.478051496 L 409 319.109168916 L 413 321.217234499 L 416 324.21146898 L 419 320.707131542 L 422 312.771949613 L 425 326.400210872 L 428 319.055808208 L 431 328.253224976 L 435 351.924733747 L 438 336.900200633 L 441 333.395863195 L 444 349.091851883 L 447 363.901671673 L 450 374.576036604 L 453 360.142282756 L 456 368.748920258 L 460 366.721530984 L 463 370.30654473 L 466 369.460713986 L 469 366.547155813 L 472 375.744572581 L 475 376.080300368 L 478 367.849728807 L 482 359.323767612 L 485 364.976508788 L 488 357.336716491 L 491 369.783419219 L 494 383.411680478 L 497 384.042797898 L 500 378.47073303 L 504 374.080226694 L 507 369.98510999 L 510 376.819409697 L 513 379.813644178 L 516 376.900086005 L 519 381.666658282 L 522 382.297775702 L 525 385.292010183 L 529 393.012478788 L 532 394.529765106 L 535 394.274713627 L 538 396.973558476 L 541 387.26603875 L 544 386.420208006 L 547 387.642104691 L 551 397.725690358 L 554 391.267456592 L 557 391.012405114 L 560 396.665146289 L 563 401.431718567 L 566 404.721342681 L 569 402.693953406 L 572 391.214095884 L 576 392.435992569 L 579 393.953278887 L 582 399.31063043 L 585 396.69246189 L 588 388.757279961 L 591 393.819241871 L 594 393.26880076 L 598 396.558424874 L 601 394.531035599 L 604 392.503646324 L 607 399.042556398 L 610 393.175101898 L 613 390.556933357 L 616 394.141947104 L 620 395.659233422"/>
		</g>
		<text class="x-axis-label" x="40.0" y="540">
			0
		</text>
		<path class="x-notch" d="M 55.6756756757 525 L 55.6756756757 530"/>
		<text class="x-axis-label" x="71.3513513514" y="540">
			10
		</text>
		<path class="x-notch" d="M 87.027027027 525 L 87.027027027 530"/>
		<text class="x-axis-label" x="102.702702703" y="540">
			20
		</text>
		<path class="x-notch" d="M 118.378378378 525 L 118.378378378 530"/>
		<text class="x-axis-label" x="134.054054054" y="540">
			30
		</text>
		<path class="x-notch" d="M 149.72972973 525 L 149.72972973 530"/>
		<text class="x-axis-label" x="165.405405405" y="540">
			40
		</text>
		<path class="x-notch" d="M 181.081081081 525 L 181.081081081 530"/>
		<text class="x-axis-label" x="196.756756757" y="540">
			50
		</text>
		<path class="x-notch" d="M 212.432432432 525 L 212.432432432 530"/>
		<text class="x-axis-label" x="228.108108108" y="540">
			60
		</text>
		<path class="x-notch" d="M 243.783783784 525 L 243.783783784 530"/>
		<text class="x-axis-label" x="259.459459459" y="540">
			70
		</text>
		<path class="x-notch" d="M 275.135135135 525 L 275.135135135 530"/>
		<text class="x-axis-label" x="290.810810811" y="540">
			80
		</text>
		<path class="x-notch" d="M 306.486486486 525 L 306.486486486 530"/>
		<text class="x-axis-label" x="322.162162162" y="540">
			90
		</text>
		<path class="x-notch" d="M 337.837837838 525 L 337.837837838 530"/>
		<text class="x-axis-label" x="353.513513514" y="540">
			100
		</text>
		<path class="x-notch" d="M 369.189189189 525 L 369.189189189 530"/>
		<text class="x-axis-label" x="384.864864865" y="540">
			110
		</text>
		<path class="x-notch" d="M 400.540540541 525 L 400.540540541 530"/>
		<text class="x-axis-label" x="416.216216216" y="540">
			120
		</text>
		<path class="x-notch" d="M 431.891891892 525 L 431.891891892 530"/>
		<text class="x-axis-label" x="447.567567568" y="540">
			130
		</text>
		<path class="x-notch" d="M 463.243243243 525 L 463.243243243 530"/>
		<text class="x-axis-label" x="478.918918919" y="540">
			140
		</text>
		<path class="x-notch" d="M 494.594594595 525 L 494.594594595 530"/>
		<text class="x-axis-label" x="510.27027027" y="540">
			150
		</text>
		<path class="x-notch" d="M 525.945945946 525 L 525.945945946 530"/>
		<text class="x-axis-label" x="541.621621622" y="540">
			160
		</text>
		<path class="x-notch" d="M 557.297297297 525 L 557.297297297 530"/>
		<text class="x-axis-label" x="572.972972973" y="540">
			170
		</text>
		<path class="x-notch" d="M 588.648648649 525 L 588.648648649 530"/>
		<text class="x-axis-label" x="604.324324324" y="540">
			180
		</text>
		<path class="x-notch" d="M 620.0 525 L 620.0 530"/>
	</g>
</svg>
