<?xml version="1.0" ?>
<svg height="600" version="1.1" width="800" xmlns="http://www.w3.org/2000/svg" xmlns:svg="http://www.w3.org/2000/svg">
	<style type="text/css">
		

.x-axis-path, .y-gridline, .x-notch { fill:none; stroke: #a7a9ac; stroke-width:1; }



.y-gridline { stroke-width: 1; }

.y-axis-path, .y-axis-path2, .x-notch-left, .x-notch-right { display: none;}



.x-axis-label, .data-point-label {font-size: 12px; font-weight:normal; font-family: sans-serif; fill: #58595b; text-anchor:middle;}

.y-axis-label {font-size: 12px; font-family: helvetica; fill: #a7a9ac; text-anchor:end;}



.series-1-line { fill: none; stroke: #10b80c; stroke-width:2; }



.series-2-line { fill: none; stroke: #e90f0a; stroke-width: 2;}

	</style>
	<rect fill="white" height="600" width="800" x="0" y="0"/>
	<g id="grid" transform="translate(70, 30)">
		<g class="x-axis" id="x_axis">
			<path class="x-axis-path" d="M 0 525 L 660 525"/>
			<path class="x-notch-left" d="M 0 525, L 0 535"/>
			<path class="x-notch-right" d="M 660 525, L 660 535"/>
		</g>
		<g class="y-axis" id="y_axis">
			<path class="y-axis-path" d="M 0 525 L 0 0"/>
			<path class="y-axis-path-2" d="M 660 525 L 660 0"/>
			<path class="y-gridline" d="M 0 525 L 660 525"/>
			<text class="y-axis-label" x="-5" y="525">
				-200
			</text>
			<path class="y-gridline" d="M 0 394 L 660 394"/>
			<text class="y-axis-label" x="-5" y="394">
				 0
			</text>
			<path class="y-gridline" d="M 0 263 L 660 263"/>
			<text class="y-axis-label" x="-5" y="263">
				200
			</text>
			<path class="y-gridline" d="M 0 132 L 660 132"/>
			<text class="y-axis-label" x="-5" y="132">
				400
			</text>
			<path class="y-gridline" d="M 0 1 L 660 1"/>
			<text class="y-axis-label" x="-5" y="1">
				600
			</text>
		</g>
		<g>
			<path class="series-1-line" d="M 40 380.576289439 L 46 413.13706627 L 52 406.672112199 L 58 375.566314114 L 64 389.634865783 L 70 388.138431821 L 76 368.717522662 L 82 369.558278861 L 88 324.021579239 L 94 356.015314023 L 101 366.340397096 L 107 342.948777772 L 113 341.066528685 L 119 286.816778481 L 125 326.480093213 L 131 324.053101485 L 137 257.324532698 L 143 290.565972361 L 149 273.300672482 L 156 262.274604916 L 162 273.643512581 L 168 197.997305008 L 174 240.905006384 L 180 217.082265204 L 186 200.815129228 L 192 212.977612593 L 198 186.341606624 L 204 184.958793447 L 210 167.647832879 L 217 213.323492313 L 223 141.421107295 L 229 61.5550025392 L 235 58.424694614 L 241 0.0 L 247 32.1303628928 L 253 87.6758103681 L 259 169.382708995 L 265 111.321176142 L 272 193.141695553 L 278 177.64583587 L 284 116.271248359 L 290 120.220471011 L 296 94.1288537247 L 302 180.758965731 L 308 115.913457924 L 314 206.196779024 L 320 114.259262299 L 326 34.2342300287 L 333 66.5228125188 L 339 110.950413115 L 345 137.203289621 L 351 150.88708804 L 357 220.137821449 L 363 217.688530314 L 369 321.676783388 L 375 213.22142386 L 381 141.273732111 L 388 293.930616518 L 394 324.564087515 L 400 396.922933417 L 406 409.970667818 L 412 415.712691948 L 418 398.152190405 L 424 412.289056128 L 430 424.928675996 L 436 414.810158872 L 442 411.090509494 L 449 403.2638758 L 455 394.075916443 L 461 399.772279884 L 467 394.691304841 L 473 415.476225327 L 479 418.313663291 L 485 383.849503818 L 491 398.417491397 L 497 401.164315901 L 504 371.759997916 L 510 404.343782071 L 516 411.355810486 L 522 401.373921471 L 528 391.663872838 L 534 420.934956295 L 540 392.755689824 L 546 405.395309692 L 552 413.020394803 L 558 418.60313746 L 565 412.251450214 L 571 396.279161945 L 577 419.242345076 L 583 405.993062092 L 589 406.039888633 L 595 396.23922654 L 601 391.634680084 L 607 402.617772623 L 613 400.372715734 L 620 382.63063331"/>
			<path class="series-2-line" d="M 40 385.078008643 L 46 363.506798848 L 52 390.604928304 L 58 430.97651392 L 64 395.246950889 L 70 371.90594694 L 76 383.960826083 L 82 375.663072447 L 88 389.487745744 L 94 387.38427165 L 101 383.511003402 L 107 393.796088389 L 113 361.606113668 L 119 354.19325711 L 125 398.104431034 L 131 347.33161769 L 137 388.588100383 L 143 364.362199356 L 149 385.266049272 L 156 364.579736554 L 162 370.440336156 L 168 353.293611748 L 174 374.197461663 L 180 382.712752496 L 186 385.918660866 L 192 336.915641676 L 198 370.208050673 L 204 363.680091193 L 210 357.152131712 L 217 360.358040082 L 223 345.866006905 L 229 365.884959743 L 235 321.30642594 L 241 309.469083995 L 247 355.150052075 L 253 337.118430589 L 259 344.748824345 L 265 345.300041483 L 272 369.743479708 L 278 356.136343609 L 284 321.291677655 L 290 311.224129865 L 296 328.588391472 L 302 292.858828441 L 308 316.417369588 L 314 297.500851025 L 320 267.965567535 L 326 278.250652523 L 333 264.643516424 L 339 255.460865712 L 345 217.076611449 L 351 276.031035688 L 357 328.791180385 L 363 316.068941364 L 369 333.43320297 L 375 326.905243489 L 381 319.492386931 L 388 267.834676509 L 394 374.573542921 L 400 391.05290745 L 406 376.560874274 L 412 397.464724189 L 418 395.361250095 L 424 383.523908151 L 430 398.233478525 L 436 374.007577499 L 442 386.947353718 L 449 384.843879624 L 455 388.049787994 L 461 381.521828513 L 467 399.770987197 L 473 386.163851098 L 479 376.981200385 L 485 389.036079528 L 491 378.968531738 L 497 383.944234262 L 504 400.423598791 L 510 409.823786702 L 516 370.554635362 L 522 394.113176509 L 528 375.196657946 L 534 383.71194878 L 540 381.608474685 L 546 396.31804506 L 552 399.523953429 L 558 376.18294948 L 565 385.583137391 L 571 377.285383756 L 577 368.987630121 L 583 384.582097572 L 589 396.636976715 L 595 391.878811389 L 601 404.818587608 L 607 401.830216437 L 613 391.762668647 L 620 383.464915012"/>
		</g>
		<text class="x-axis-label" x="40.0" y="540">
			0
		</text>
		<path class="x-notch" d="M 70.5263157895 525 L 70.5263157895 530"/>
		<text class="x-axis-label" x="101.052631579" y="540">
			10
		</text>
		<path class="x-notch" d="M 131.578947368 525 L 131.578947368 530"/>
		<text class="x-axis-label" x="162.105263158" y="540">
			20
		</text>
		<path class="x-notch" d="M 192.631578947 525 L 192.631578947 530"/>
		<text class="x-axis-label" x="223.157894737" y="540">
			30
		</text>
		<path class="x-notch" d="M 253.684210526 525 L 253.684210526 530"/>
		<text class="x-axis-label" x="284.210526316" y="540">
			40
		</text>
		<path class="x-notch" d="M 314.736842105 525 L 314.736842105 530"/>
		<text class="x-axis-label" x="345.263157895" y="540">
			50
		</text>
		<path class="x-notch" d="M 375.789473684 525 L 375.789473684 530"/>
		<text class="x-axis-label" x="406.315789474" y="540">
			60
		</text>
		<path class="x-notch" d="M 436.842105263 525 L 436.842105263 530"/>
		<text class="x-axis-label" x="467.368421053" y="540">
			70
		</text>
		<path class="x-notch" d="M 497.894736842 525 L 497.894736842 530"/>
		<text class="x-axis-label" x="528.421052632" y="540">
			80
		</text>
		<path class="x-notch" d="M 558.947368421 525 L 558.947368421 530"/>
		<text class="x-axis-label" x="589.473684211" y="540">
			90
		</text>
		<path class="x-notch" d="M 620.0 525 L 620.0 530"/>
	</g>
</svg>
