<?xml version="1.0" ?>
<svg height="600" version="1.1" width="800" xmlns="http://www.w3.org/2000/svg" xmlns:svg="http://www.w3.org/2000/svg">
	<style type="text/css">

.x-axis-path, .y-gridline, .x-notch { fill:none; stroke: #a7a9ac; stroke-width:1; }



.y-gridline { stroke-width: 1; }

.y-axis-path, .y-axis-path2, .x-notch-left, .x-notch-right { display: none;}



.x-axis-label, .data-point-label {font-size: 12px; font-weight:normal; font-family: sans-serif; fill: #58595b; text-anchor:middle;}

.y-axis-label {font-size: 12px; font-family: helvetica; fill: #a7a9ac; text-anchor:end;}



.series-1-line { fill: none; stroke: #10b80c; stroke-width:2; }



.series-2-line { fill: none; stroke: #e90f0a; stroke-width: 2;}
</style>
	<rect fill="white" height="600" width="800" x="0" y="0"/>
	<g id="grid" transform="translate(70, 30)">
		<g class="x-axis" id="x_axis">
			<path class="x-axis-path" d="M 0 525 L 660 525"/>
			<path class="x-notch-left" d="M 0 525, L 0 535"/>
			<path class="x-notch-right" d="M 660 525, L 660 535"/>
		</g>
		<g class="y-axis" id="y_axis">
			<path class="y-axis-path" d="M 0 525 L 0 0"/>
			<path class="y-axis-path-2" d="M 660 525 L 660 0"/>
			<path class="y-gridline" d="M 0 525 L 660 525"/>
			<text class="y-axis-label" x="-5" y="525">-200</text>
			<path class="y-gridline" d="M 0 394 L 660 394"/>
			<text class="y-axis-label" x="-5" y="394"> 0</text>
			<path class="y-gridline" d="M 0 263 L 660 263"/>
			<text class="y-axis-label" x="-5" y="263">200</text>
			<path class="y-gridline" d="M 0 132 L 660 132"/>
			<text class="y-axis-label" x="-5" y="132">400</text>
			<path class="y-gridline" d="M 0 1 L 660 1"/>
			<text class="y-axis-label" x="-5" y="1">600</text>
		</g>
		<g>
			<path class="series-1-line" d="M 40 391.690187745 L 44 390.156092386 L 48 396.084326209 L 52 396.526110414 L 56 393.744734623 L 60 387.210152007 L 64 386.393634664 L 68 394.308769168 L 72 385.334559065 L 76 382.266117627 L 80 385.644340592 L 84 383.249220497 L 89 392.04742197 L 93 374.076708811 L 97 398.064247652 L 101 376.627393315 L 105 380.95480995 L 109 372.466390003 L 113 381.209485893 L 117 377.257977486 L 121 360.854501551 L 125 374.002083375 L 129 360.457898384 L 133 368.450180704 L 138 347.101495301 L 142 352.290108876 L 146 348.051534821 L 150 335.19169229 L 154 356.750796966 L 158 322.994572911 L 162 341.981624496 L 166 314.219510243 L 170 319.783358398 L 174 306.316321223 L 178 321.5611871 L 182 285.895210181 L 187 288.467686198 L 191 281.425271193 L 195 285.167535417 L 199 273.588381078 L 203 226.784188174 L 207 247.316606954 L 211 243.35407743 L 215 246.931024904 L 219 211.518878077 L 223 196.67196266 L 227 228.552343052 L 231 199.796606254 L 236 186.804338118 L 240 175.699436204 L 244 165.157816672 L 248 128.354942691 L 252 132.792914901 L 256 153.060310268 L 260 71.7379801075 L 264 90.8464361797 L 268 37.2203442923 L 272 32.0101899256 L 276 6.02523072843 L 280 60.8000866453 L 285 36.7911792173 L 289 23.699548827 L 293 33.9327341254 L 297 0.0 L 301 39.4088362731 L 305 4.92401308699 L 309 56.1882989502 L 313 96.8886723273 L 317 37.9529853029 L 321 100.907576212 L 325 117.697809285 L 330 110.600288697 L 334 147.061492889 L 338 145.626587579 L 342 173.047376453 L 346 169.018548024 L 350 231.774586629 L 354 223.539652365 L 358 259.096263969 L 362 284.563043307 L 366 286.815218122 L 370 266.747220911 L 374 298.771048023 L 379 319.171041199 L 383 320.584233512 L 387 348.468598103 L 391 336.370418053 L 395 332.076738416 L 399 327.628418735 L 403 319.31650886 L 407 295.605343785 L 411 309.901015993 L 415 251.848568143 L 419 340.567774432 L 423 317.364441747 L 428 348.759376393 L 432 332.157348154 L 436 395.619771452 L 440 386.027345589 L 444 386.116109652 L 448 382.297026849 L 452 385.465331984 L 456 389.086536129 L 460 391.967947822 L 464 399.077335378 L 468 400.302996503 L 472 398.029280896 L 477 393.040065476 L 481 408.384293608 L 485 395.82253784 L 489 403.185755488 L 493 388.802587994 L 497 397.081935961 L 501 393.660302176 L 505 397.148908512 L 509 401.818668581 L 513 382.169990417 L 517 405.208163384 L 521 395.836676468 L 526 395.362330354 L 530 398.839915574 L 534 398.818124061 L 538 402.284688164 L 542 394.789718558 L 546 390.871273501 L 550 398.234491149 L 554 397.561420526 L 558 395.773495075 L 562 395.851065817 L 566 397.926730562 L 570 401.691209223 L 575 402.983169253 L 579 399.892685581 L 583 396.879349726 L 587 391.338217451 L 591 396.835938906 L 595 403.327110702 L 599 402.035824318 L 603 391.527268136 L 607 395.832814742 L 611 393.349353509 L 615 396.076297364 L 620 392.787089183"/>
			<path class="series-2-line" d="M 40 396.074766787 L 44 391.708829472 L 48 398.536213725 L 52 388.143103258 L 56 393.678950406 L 60 397.062235715 L 64 398.292959184 L 68 397.371120813 L 72 395.157745338 L 76 395.096931702 L 80 396.758167539 L 84 392.392230224 L 89 388.026292909 L 93 395.714701898 L 97 389.196202742 L 101 400.328710675 L 105 388.213550736 L 109 394.179910253 L 113 398.424220298 L 117 401.807505606 L 121 383.234660147 L 125 388.770507296 L 129 394.306354445 L 133 381.330169769 L 138 378.686281926 L 142 383.361104339 L 146 381.147728864 L 150 380.656402861 L 154 383.609175801 L 158 385.700924006 L 162 386.931647475 L 166 394.189544096 L 170 390.684631517 L 174 384.166132361 L 178 381.522244518 L 182 379.308869043 L 187 389.149839872 L 191 387.797489133 L 195 366.211057097 L 199 384.231762918 L 203 373.408140083 L 207 368.6116904 L 211 373.717025181 L 215 377.961335225 L 219 369.720786598 L 223 360.188700867 L 227 364.86352328 L 231 359.20604886 L 236 362.589334169 L 240 340.141877398 L 244 347.399774019 L 248 354.65767064 L 252 358.901980684 L 256 345.064771273 L 260 346.295494742 L 264 345.373656371 L 268 341.007719055 L 272 322.434873596 L 276 321.082522857 L 280 330.492981318 L 285 339.903439779 L 289 341.995187983 L 293 332.032589884 L 297 344.887147289 L 301 350.422994438 L 305 348.640131331 L 309 334.802921919 L 313 340.338769068 L 317 341.569492537 L 321 350.979950998 L 325 342.308890003 L 330 349.566786623 L 334 327.980354588 L 338 308.115972025 L 342 320.109504694 L 346 318.757153954 L 350 342.374520559 L 354 308.73374222 L 358 344.405455129 L 362 342.192079654 L 366 334.812555763 L 370 350.680699744 L 374 349.758861372 L 379 348.837023001 L 383 338.013400166 L 387 344.840784419 L 391 343.057921311 L 395 349.454793196 L 399 346.380392985 L 403 341.583943302 L 407 321.28904837 L 411 332.421556303 L 415 346.99816318 L 419 366.740918473 L 423 351.18165959 L 428 381.256711715 L 432 376.8907744 L 436 391.036868909 L 440 384.518369753 L 444 395.650877686 L 448 395.159551683 L 452 379.169780432 L 456 393.315874941 L 460 388.519425258 L 464 395.777321878 L 468 397.438557715 L 472 390.92005856 L 477 388.276170717 L 481 386.923819978 L 485 390.307105286 L 489 391.537828755 L 493 393.62957696 L 497 386.250053069 L 501 390.924875482 L 505 392.15559895 L 509 393.816834787 L 513 394.617045888 L 517 385.084960157 L 521 394.495418618 L 526 392.71255551 L 530 395.665328451 L 534 390.4383664 L 538 395.113188813 L 542 397.204937018 L 546 395.42207391 L 550 396.652797379 L 554 392.286860064 L 558 393.948095901 L 562 390.012670954 L 566 393.395956262 L 570 385.155407635 L 575 393.274328992 L 579 396.657614301 L 583 387.986553306 L 587 387.495227302 L 591 394.322611555 L 595 397.275384496 L 599 388.604323501 L 603 390.696071706 L 607 398.814993062 L 611 391.435469171 L 615 393.957729744 L 620 394.757940845"/>
		</g>
		<text class="x-axis-label" x="40.0" y="540">0</text>
		<path class="x-notch" d="M 60.4225352113 525 L 60.4225352113 530"/>
		<text class="x-axis-label" x="80.8450704225" y="540">10</text>
		<path class="x-notch" d="M 101.267605634 525 L 101.267605634 530"/>
		<text class="x-axis-label" x="121.690140845" y="540">20</text>
		<path class="x-notch" d="M 142.112676056 525 L 142.112676056 530"/>
		<text class="x-axis-label" x="162.535211268" y="540">30</text>
		<path class="x-notch" d="M 182.957746479 525 L 182.957746479 530"/>
		<text class="x-axis-label" x="203.38028169" y="540">40</text>
		<path class="x-notch" d="M 223.802816901 525 L 223.802816901 530"/>
		<text class="x-axis-label" x="244.225352113" y="540">50</text>
		<path class="x-notch" d="M 264.647887324 525 L 264.647887324 530"/>
		<text class="x-axis-label" x="285.070422535" y="540">60</text>
		<path class="x-notch" d="M 305.492957746 525 L 305.492957746 530"/>
		<text class="x-axis-label" x="325.915492958" y="540">70</text>
		<path class="x-notch" d="M 346.338028169 525 L 346.338028169 530"/>
		<text class="x-axis-label" x="366.76056338" y="540">80</text>
		<path class="x-notch" d="M 387.183098592 525 L 387.183098592 530"/>
		<text class="x-axis-label" x="407.605633803" y="540">90</text>
		<path class="x-notch" d="M 428.028169014 525 L 428.028169014 530"/>
		<text class="x-axis-label" x="448.450704225" y="540">100</text>
		<path class="x-notch" d="M 468.873239437 525 L 468.873239437 530"/>
		<text class="x-axis-label" x="489.295774648" y="540">110</text>
		<path class="x-notch" d="M 509.718309859 525 L 509.718309859 530"/>
		<text class="x-axis-label" x="530.14084507" y="540">120</text>
		<path class="x-notch" d="M 550.563380282 525 L 550.563380282 530"/>
		<text class="x-axis-label" x="570.985915493" y="540">130</text>
		<path class="x-notch" d="M 591.408450704 525 L 591.408450704 530"/>
		<text class="x-axis-label" x="611.830985915" y="540">140</text>
		<path class="x-notch" d="M 632.253521127 525 L 632.253521127 530"/>
	</g>
</svg>
