<?xml version="1.0" ?>
<svg height="600" version="1.1" width="800" xmlns="http://www.w3.org/2000/svg" xmlns:svg="http://www.w3.org/2000/svg">
	<style type="text/css">
		

.x-axis-path, .y-gridline, .x-notch { fill:none; stroke: #a7a9ac; stroke-width:1; }



.y-gridline { stroke-width: 1; }

.y-axis-path, .y-axis-path2, .x-notch-left, .x-notch-right { display: none;}



.x-axis-label, .data-point-label {font-size: 12px; font-weight:normal; font-family: sans-serif; fill: #58595b; text-anchor:middle;}

.y-axis-label {font-size: 12px; font-family: helvetica; fill: #a7a9ac; text-anchor:end;}



.series-1-line { fill: none; stroke: #10b80c; stroke-width:2; }



.series-2-line { fill: none; stroke: #e90f0a; stroke-width: 2;}

	</style>
	<rect fill="white" height="600" width="800" x="0" y="0"/>
	<g id="grid" transform="translate(70, 30)">
		<g class="x-axis" id="x_axis">
			<path class="x-axis-path" d="M 0 525 L 660 525"/>
			<path class="x-notch-left" d="M 0 525, L 0 535"/>
			<path class="x-notch-right" d="M 660 525, L 660 535"/>
		</g>
		<g class="y-axis" id="y_axis">
			<path class="y-axis-path" d="M 0 525 L 0 0"/>
			<path class="y-axis-path-2" d="M 660 525 L 660 0"/>
			<path class="y-gridline" d="M 0 525 L 660 525"/>
			<text class="y-axis-label" x="-5" y="525">
				-200
			</text>
			<path class="y-gridline" d="M 0 394 L 660 394"/>
			<text class="y-axis-label" x="-5" y="394">
				 0
			</text>
			<path class="y-gridline" d="M 0 263 L 660 263"/>
			<text class="y-axis-label" x="-5" y="263">
				200
			</text>
			<path class="y-gridline" d="M 0 132 L 660 132"/>
			<text class="y-axis-label" x="-5" y="132">
				400
			</text>
			<path class="y-gridline" d="M 0 1 L 660 1"/>
			<text class="y-axis-label" x="-5" y="1">
				600
			</text>
		</g>
		<g>
			<path class="series-1-line" d="M 40 379.371766658 L 46 397.460922176 L 53 399.685216223 L 60 391.708420977 L 66 398.719293795 L 73 397.813012442 L 80 395.454690522 L 86 372.732292957 L 93 387.463788984 L 100 387.207734913 L 106 399.88261584 L 113 385.485769914 L 120 379.044063132 L 126 390.138438776 L 133 363.650220182 L 140 364.384724617 L 146 377.029288344 L 153 374.648316997 L 160 388.971533521 L 166 369.364611737 L 173 352.290886733 L 180 330.687512388 L 186 315.14132604 L 193 344.444778784 L 200 307.702386303 L 206 289.396155014 L 213 248.903159087 L 220 297.232365904 L 226 240.292229502 L 233 260.475985096 L 240 247.984758093 L 246 235.001967759 L 253 213.897706555 L 260 210.495859501 L 266 227.987754366 L 273 206.074365998 L 280 232.043044609 L 286 129.708739156 L 293 132.152213589 L 300 113.656883183 L 306 114.580486736 L 313 107.027188576 L 320 81.4764438941 L 326 129.987200019 L 333 48.0927042303 L 340 0.0 L 346 24.7132869682 L 353 117.015175401 L 360 211.086314336 L 366 198.973167601 L 373 253.397193491 L 380 272.613275937 L 386 269.627376162 L 393 188.31504141 L 400 240.311803776 L 406 241.5607569 L 413 281.654773852 L 420 210.256399728 L 426 165.067540702 L 433 224.179879883 L 440 259.570601892 L 446 247.124791708 L 453 293.623995654 L 460 241.296674455 L 466 277.504073437 L 473 325.697265729 L 480 369.716357489 L 486 384.674819643 L 493 386.921763116 L 500 382.249542769 L 506 373.0930899 L 513 376.232444365 L 520 382.532573465 L 526 406.187235682 L 533 392.682682781 L 540 394.80116154 L 546 397.25973559 L 553 396.549867232 L 560 394.191663278 L 566 389.874991738 L 573 402.74628566 L 580 388.70498854 L 586 390.120037458 L 593 400.6321341 L 600 383.72474082 L 606 385.654120462 L 613 396.408164882 L 620 405.037409992"/>
			<path class="series-2-line" d="M 40 391.626616279 L 46 393.928959423 L 53 398.295703408 L 60 395.28958725 L 66 389.039412629 L 73 398.714615916 L 80 393.349184512 L 86 401.844730176 L 93 387.336952196 L 100 387.574894501 L 106 394.890782542 L 113 392.769409601 L 120 391.827694283 L 126 392.655465399 L 133 402.03575428 L 140 397.260151688 L 146 397.793008398 L 153 395.966549863 L 160 387.651974402 L 166 393.198376009 L 173 394.615975937 L 180 389.545458939 L 186 394.207117329 L 193 395.329802851 L 200 382.591511304 L 206 392.266714591 L 213 389.555512839 L 220 390.088369549 L 226 388.261911014 L 233 385.845623667 L 240 385.49373716 L 246 381.307963379 L 253 378.891676033 L 260 375.295731063 L 266 390.279393653 L 273 387.568191901 L 280 391.345107074 L 286 385.97967567 L 293 379.139672238 L 300 383.801330628 L 306 384.039272932 L 313 383.982300831 L 320 373.603324531 L 326 380.329383761 L 333 372.309722706 L 340 370.48326417 L 346 363.053431927 L 353 381.87098179 L 360 377.685208009 L 366 375.858749474 L 373 368.723831636 L 380 390.785439963 L 386 391.318296673 L 393 372.976631418 L 400 376.458632186 L 406 394.981267644 L 413 368.971827841 L 420 379.826688751 L 426 385.078175952 L 433 371.160226783 L 440 365.79479538 L 446 369.866624958 L 453 368.335080829 L 460 371.52216719 L 466 365.27199257 L 473 375.537024668 L 480 392.880002503 L 486 388.989143128 L 493 389.816914244 L 500 388.875198926 L 506 385.869082768 L 513 397.018858083 L 520 398.141543605 L 526 394.840513041 L 533 391.539482477 L 540 400.919771359 L 546 391.720452681 L 553 382.226219597 L 560 388.362450016 L 566 400.98679736 L 573 389.133249031 L 580 400.577938752 L 586 393.148106508 L 593 392.796220002 L 600 391.264675872 L 606 395.631419856 L 613 392.035474887 L 620 397.8767909"/>
		</g>
		<text class="x-axis-label" x="40.0" y="540">
			0
		</text>
		<path class="x-notch" d="M 73.3333333333 525 L 73.3333333333 530"/>
		<text class="x-axis-label" x="106.666666667" y="540">
			10
		</text>
		<path class="x-notch" d="M 140.0 525 L 140.0 530"/>
		<text class="x-axis-label" x="173.333333333" y="540">
			20
		</text>
		<path class="x-notch" d="M 206.666666667 525 L 206.666666667 530"/>
		<text class="x-axis-label" x="240.0" y="540">
			30
		</text>
		<path class="x-notch" d="M 273.333333333 525 L 273.333333333 530"/>
		<text class="x-axis-label" x="306.666666667" y="540">
			40
		</text>
		<path class="x-notch" d="M 340.0 525 L 340.0 530"/>
		<text class="x-axis-label" x="373.333333333" y="540">
			50
		</text>
		<path class="x-notch" d="M 406.666666667 525 L 406.666666667 530"/>
		<text class="x-axis-label" x="440.0" y="540">
			60
		</text>
		<path class="x-notch" d="M 473.333333333 525 L 473.333333333 530"/>
		<text class="x-axis-label" x="506.666666667" y="540">
			70
		</text>
		<path class="x-notch" d="M 540.0 525 L 540.0 530"/>
		<text class="x-axis-label" x="573.333333333" y="540">
			80
		</text>
		<path class="x-notch" d="M 606.666666667 525 L 606.666666667 530"/>
	</g>
</svg>
