<?xml version="1.0" ?>
<svg height="600" version="1.1" width="800" xmlns="http://www.w3.org/2000/svg" xmlns:svg="http://www.w3.org/2000/svg">
	<style type="text/css">
		

.x-axis-path, .y-gridline, .x-notch { fill:none; stroke: #a7a9ac; stroke-width:1; }



.y-gridline { stroke-width: 1; }

.y-axis-path, .y-axis-path2, .x-notch-left, .x-notch-right { display: none;}



.x-axis-label, .data-point-label {font-size: 12px; font-weight:normal; font-family: sans-serif; fill: #58595b; text-anchor:middle;}

.y-axis-label {font-size: 12px; font-family: helvetica; fill: #a7a9ac; text-anchor:end;}



.series-1-line { fill: none; stroke: #10b80c; stroke-width:2; }



.series-2-line { fill: none; stroke: #e90f0a; stroke-width: 2;}

	</style>
	<rect fill="white" height="600" width="800" x="0" y="0"/>
	<g id="grid" transform="translate(70, 30)">
		<g class="x-axis" id="x_axis">
			<path class="x-axis-path" d="M 0 525 L 660 525"/>
			<path class="x-notch-left" d="M 0 525, L 0 535"/>
			<path class="x-notch-right" d="M 660 525, L 660 535"/>
		</g>
		<g class="y-axis" id="y_axis">
			<path class="y-axis-path" d="M 0 525 L 0 0"/>
			<path class="y-axis-path-2" d="M 660 525 L 660 0"/>
			<path class="y-gridline" d="M 0 525 L 660 525"/>
			<text class="y-axis-label" x="-5" y="525">
				-200
			</text>
			<path class="y-gridline" d="M 0 394 L 660 394"/>
			<text class="y-axis-label" x="-5" y="394">
				 0
			</text>
			<path class="y-gridline" d="M 0 263 L 660 263"/>
			<text class="y-axis-label" x="-5" y="263">
				200
			</text>
			<path class="y-gridline" d="M 0 132 L 660 132"/>
			<text class="y-axis-label" x="-5" y="132">
				400
			</text>
			<path class="y-gridline" d="M 0 1 L 660 1"/>
			<text class="y-axis-label" x="-5" y="1">
				600
			</text>
		</g>
		<g>
			<path class="series-1-line" d="M 40 369.977958584 L 47 398.495927576 L 55 398.543168175 L 62 406.0598784 L 70 393.272686514 L 78 401.198802463 L 85 408.880664312 L 93 405.968956972 L 101 398.25227851 L 108 396.913321074 L 116 363.304363571 L 123 386.679775385 L 131 406.011101208 L 139 391.808916194 L 146 403.78572868 L 154 373.437787489 L 162 377.183909088 L 169 377.489857355 L 177 360.673033047 L 185 379.221737364 L 192 337.71967503 L 200 276.753810236 L 207 278.144224295 L 215 267.561481677 L 223 247.792992236 L 230 218.019608393 L 238 235.878574988 L 246 164.548717449 L 253 159.481859835 L 261 126.497879105 L 268 143.014232456 L 276 119.309666635 L 284 119.701552009 L 291 122.793901742 L 299 88.7396847016 L 307 0.0 L 314 51.1992029726 L 322 80.1978371415 L 330 87.3340487781 L 337 37.4504854578 L 345 98.8121155212 L 352 98.5793602519 L 360 88.9665753115 L 368 80.76844737 L 375 59.1256998678 L 383 128.611131639 L 391 132.241960821 L 398 128.791886074 L 406 129.607406655 L 413 191.321636558 L 421 205.273657996 L 429 277.983916136 L 436 246.16339163 L 444 252.415918825 L 452 284.704140313 L 459 264.023395424 L 467 238.681542836 L 475 339.718665945 L 482 349.986596081 L 490 399.160842936 L 497 404.58772405 L 505 400.246457971 L 513 399.180549728 L 520 400.736003369 L 528 377.081744929 L 536 402.360658069 L 543 394.069198172 L 551 400.063241786 L 558 405.425473995 L 566 398.735783181 L 574 406.482405979 L 581 392.574446316 L 589 400.982011744 L 597 398.486768848 L 604 399.144196523 L 612 386.076560596 L 620 387.661033416"/>
			<path class="series-2-line" d="M 40 372.629863435 L 47 397.969079953 L 55 396.69804483 L 62 388.144203995 L 70 411.802773041 L 78 404.929579678 L 85 392.454228075 L 93 404.90848064 L 101 413.161114526 L 108 409.649216107 L 116 393.252353736 L 123 412.429196189 L 131 385.10812525 L 139 400.083349023 L 146 383.966594564 L 154 394.179983834 L 162 394.869704095 L 169 407.884172485 L 177 393.728173409 L 185 390.216274991 L 192 392.586642724 L 200 405.321003202 L 207 413.013421263 L 215 387.653105707 L 223 397.026171241 L 230 404.998697214 L 238 377.957734187 L 246 390.692094664 L 253 356.928541749 L 261 352.296211682 L 268 370.912838312 L 276 360.678350004 L 284 349.323430049 L 291 331.80613603 L 299 319.330784427 L 307 327.863526224 L 314 321.550548685 L 322 293.669261922 L 330 300.801464159 L 337 321.658954085 L 345 270.248602713 L 352 279.901776158 L 360 288.99473378 L 368 273.998410969 L 375 313.623130999 L 383 327.758031037 L 391 291.753614825 L 398 333.619198151 L 406 310.779853804 L 413 324.63464593 L 421 317.201236743 L 429 330.775920956 L 436 319.421001001 L 444 300.503167422 L 452 283.826197139 L 459 282.555162016 L 467 298.370709525 L 475 317.267444067 L 482 349.329250474 L 490 385.872783472 L 497 397.486712301 L 505 381.650065754 L 513 390.182807552 L 520 383.029506277 L 528 375.876205002 L 536 414.940709208 L 543 403.585789253 L 551 392.230869298 L 558 403.004474392 L 566 403.974302565 L 574 403.263483266 L 581 394.149426607 L 589 410.525189941 L 597 412.615449762 L 604 381.652975966 L 612 372.538919307 L 620 393.676517145"/>
		</g>
		<text class="x-axis-label" x="40.0" y="540">
			0
		</text>
		<path class="x-notch" d="M 78.1578947368 525 L 78.1578947368 530"/>
		<text class="x-axis-label" x="116.315789474" y="540">
			10
		</text>
		<path class="x-notch" d="M 154.473684211 525 L 154.473684211 530"/>
		<text class="x-axis-label" x="192.631578947" y="540">
			20
		</text>
		<path class="x-notch" d="M 230.789473684 525 L 230.789473684 530"/>
		<text class="x-axis-label" x="268.947368421" y="540">
			30
		</text>
		<path class="x-notch" d="M 307.105263158 525 L 307.105263158 530"/>
		<text class="x-axis-label" x="345.263157895" y="540">
			40
		</text>
		<path class="x-notch" d="M 383.421052632 525 L 383.421052632 530"/>
		<text class="x-axis-label" x="421.578947368" y="540">
			50
		</text>
		<path class="x-notch" d="M 459.736842105 525 L 459.736842105 530"/>
		<text class="x-axis-label" x="497.894736842" y="540">
			60
		</text>
		<path class="x-notch" d="M 536.052631579 525 L 536.052631579 530"/>
		<text class="x-axis-label" x="574.210526316" y="540">
			70
		</text>
		<path class="x-notch" d="M 612.368421053 525 L 612.368421053 530"/>
	</g>
</svg>
