<?xml version="1.0" ?>
<svg height="600" version="1.1" width="800" xmlns="http://www.w3.org/2000/svg" xmlns:svg="http://www.w3.org/2000/svg">
	<style type="text/css">
		

.x-axis-path, .y-gridline, .x-notch { fill:none; stroke: #a7a9ac; stroke-width:1; }



.y-gridline { stroke-width: 1; }

.y-axis-path, .y-axis-path2, .x-notch-left, .x-notch-right { display: none;}



.x-axis-label, .data-point-label {font-size: 12px; font-weight:normal; font-family: sans-serif; fill: #58595b; text-anchor:middle;}

.y-axis-label {font-size: 12px; font-family: helvetica; fill: #a7a9ac; text-anchor:end;}



.series-1-line { fill: none; stroke: #10b80c; stroke-width:2; }



.series-2-line { fill: none; stroke: #e90f0a; stroke-width: 2;}

	</style>
	<rect fill="white" height="600" width="800" x="0" y="0"/>
	<g id="grid" transform="translate(70, 30)">
		<g class="x-axis" id="x_axis">
			<path class="x-axis-path" d="M 0 525 L 660 525"/>
			<path class="x-notch-left" d="M 0 525, L 0 535"/>
			<path class="x-notch-right" d="M 660 525, L 660 535"/>
		</g>
		<g class="y-axis" id="y_axis">
			<path class="y-axis-path" d="M 0 525 L 0 0"/>
			<path class="y-axis-path-2" d="M 660 525 L 660 0"/>
			<path class="y-gridline" d="M 0 525 L 660 525"/>
			<text class="y-axis-label" x="-5" y="525">
				-200
			</text>
			<path class="y-gridline" d="M 0 420 L 660 420"/>
			<text class="y-axis-label" x="-5" y="420">
				 0
			</text>
			<path class="y-gridline" d="M 0 315 L 660 315"/>
			<text class="y-axis-label" x="-5" y="315">
				200
			</text>
			<path class="y-gridline" d="M 0 210 L 660 210"/>
			<text class="y-axis-label" x="-5" y="210">
				400
			</text>
			<path class="y-gridline" d="M 0 105 L 660 105"/>
			<text class="y-axis-label" x="-5" y="105">
				600
			</text>
			<path class="y-gridline" d="M 0 0 L 660 0"/>
			<text class="y-axis-label" x="-5" y="0">
				800
			</text>
		</g>
		<g>
			<path class="series-1-line" d="M 40 447.760362 L 45 432.812878615 L 51 412.534545231 L 56 395.204191846 L 62 408.404688462 L 68 400.309085077 L 73 412.284861692 L 79 430.263908308 L 85 409.756884923 L 90 389.007311538 L 96 458.598268154 L 101 405.123764769 L 107 387.308941385 L 113 419.180328 L 118 375.963694615 L 124 387.145041231 L 130 393.884047846 L 135 373.713234462 L 141 404.857811077 L 146 416.241387692 L 152 408.724334308 L 158 357.511530923 L 163 373.565927538 L 169 385.285924154 L 175 375.022700769 L 180 344.028907385 L 186 325.204404 L 192 328.672450615 L 197 331.372947231 L 203 356.755753846 L 208 307.939260462 L 214 327.157097077 L 220 338.190393692 L 225 325.060250308 L 231 266.106846923 L 237 318.749333538 L 242 265.301710154 L 248 264.892946769 L 253 216.237523385 L 259 282.83997 L 265 292.096246615 L 270 341.534973231 L 276 299.072239846 L 282 330.486246462 L 287 291.886673077 L 293 294.842949692 L 299 292.078196308 L 304 244.082592923 L 310 291.838799538 L 315 266.081566154 L 321 281.395502769 L 327 311.584579385 L 332 262.740786 L 338 193.610362615 L 344 199.487739231 L 349 236.447845846 L 355 211.807812462 L 360 187.046819077 L 366 223.643625692 L 372 198.653522308 L 377 179.828808923 L 383 68.8466455385 L 389 279.420262154 L 394 249.113168769 L 400 301.634905385 L 406 228.425862 L 411 211.149478615 L 417 193.172535231 L 422 244.173661846 L 428 229.911408462 L 434 316.396865077 L 439 266.826471692 L 445 238.121888308 L 451 334.325934923 L 456 402.893981538 L 462 396.050398154 L 467 386.474294769 L 473 443.680711385 L 479 409.267698 L 484 422.158234615 L 490 412.326351231 L 496 412.563547846 L 501 386.187234462 L 507 442.114541077 L 513 421.688157692 L 518 431.307734308 L 524 429.135390923 L 529 447.007127538 L 535 442.815214154 L 541 419.656100769 L 546 425.708617385 L 552 436.109184 L 558 416.948050615 L 563 431.790957231 L 569 408.887623846 L 574 436.007340462 L 580 417.101987077 L 586 440.344893692 L 591 420.578120308 L 597 419.469006923 L 603 428.375213538 L 608 421.854610154 L 614 411.955106769 L 620 423.271063385"/>
			<path class="series-2-line" d="M 40 417.795 L 45 425.544807692 L 51 425.419615385 L 56 415.844423077 L 62 414.144230769 L 68 417.694038462 L 73 443.293846154 L 79 412.718653846 L 85 427.818461538 L 90 419.293269231 L 96 424.943076923 L 101 423.242884615 L 107 427.842692308 L 113 400.4175 L 118 416.042307692 L 124 422.217115385 L 130 425.241923077 L 135 408.316730769 L 141 391.916538462 L 146 428.016346154 L 152 402.691153846 L 158 416.740961538 L 163 420.290769231 L 169 444.840576923 L 175 417.940384615 L 180 410.465192308 L 186 408.765 L 192 430.689807692 L 197 428.989615385 L 203 390.014423077 L 208 419.289230769 L 214 420.739038462 L 220 429.538846154 L 225 440.438653846 L 231 433.488461538 L 237 400.813269231 L 242 394.913076923 L 248 427.862884615 L 253 411.462692308 L 259 412.3875 L 265 411.737307692 L 270 387.462115385 L 276 408.336923077 L 282 411.361730769 L 287 402.836538462 L 293 402.186346154 L 299 413.611153846 L 304 417.160961538 L 310 409.685769231 L 315 404.310576923 L 321 400.510384615 L 327 410.360192308 L 332 402.885 L 338 386.484807692 L 344 380.584615385 L 349 378.359423077 L 355 362.484230769 L 360 365.509038462 L 366 379.033846154 L 372 356.333653846 L 377 334.158461538 L 383 335.608269231 L 389 338.108076923 L 394 346.382884615 L 400 353.082692308 L 406 358.7325 L 411 361.232307692 L 417 309.132115385 L 422 368.856923077 L 428 249.031730769 L 434 280.931538462 L 439 304.956346154 L 445 370.456153846 L 451 339.880961538 L 456 361.805769231 L 462 374.805576923 L 467 404.605384615 L 473 417.605192308 L 479 411.18 L 484 375.879807692 L 490 404.629615385 L 496 418.679423077 L 501 428.004230769 L 507 415.279038462 L 513 417.778846154 L 518 401.378653846 L 524 422.778461538 L 529 429.478269231 L 535 417.803076923 L 541 416.627884615 L 546 424.377692308 L 552 429.5025 L 558 418.877307692 L 563 427.152115385 L 569 427.026923077 L 574 424.276730769 L 580 414.701538462 L 586 422.976346154 L 591 424.951153846 L 597 423.775961538 L 603 416.300769231 L 608 419.850576923 L 614 418.150384615 L 620 423.800192308"/>
		</g>
		<text class="x-axis-label" x="40.0" y="540">
			0
		</text>
		<path class="x-notch" d="M 68.1553398058 525 L 68.1553398058 530"/>
		<text class="x-axis-label" x="96.3106796117" y="540">
			10
		</text>
		<path class="x-notch" d="M 124.466019417 525 L 124.466019417 530"/>
		<text class="x-axis-label" x="152.621359223" y="540">
			20
		</text>
		<path class="x-notch" d="M 180.776699029 525 L 180.776699029 530"/>
		<text class="x-axis-label" x="208.932038835" y="540">
			30
		</text>
		<path class="x-notch" d="M 237.087378641 525 L 237.087378641 530"/>
		<text class="x-axis-label" x="265.242718447" y="540">
			40
		</text>
		<path class="x-notch" d="M 293.398058252 525 L 293.398058252 530"/>
		<text class="x-axis-label" x="321.553398058" y="540">
			50
		</text>
		<path class="x-notch" d="M 349.708737864 525 L 349.708737864 530"/>
		<text class="x-axis-label" x="377.86407767" y="540">
			60
		</text>
		<path class="x-notch" d="M 406.019417476 525 L 406.019417476 530"/>
		<text class="x-axis-label" x="434.174757282" y="540">
			70
		</text>
		<path class="x-notch" d="M 462.330097087 525 L 462.330097087 530"/>
		<text class="x-axis-label" x="490.485436893" y="540">
			80
		</text>
		<path class="x-notch" d="M 518.640776699 525 L 518.640776699 530"/>
		<text class="x-axis-label" x="546.796116505" y="540">
			90
		</text>
		<path class="x-notch" d="M 574.951456311 525 L 574.951456311 530"/>
		<text class="x-axis-label" x="603.106796117" y="540">
			100
		</text>
		<path class="x-notch" d="M 631.262135922 525 L 631.262135922 530"/>
	</g>
</svg>
