<?xml version="1.0" ?>
<svg height="600" version="1.1" width="800" xmlns="http://www.w3.org/2000/svg" xmlns:svg="http://www.w3.org/2000/svg">
	<style type="text/css">
		

.x-axis-path, .y-gridline, .x-notch { fill:none; stroke: #a7a9ac; stroke-width:1; }



.y-gridline { stroke-width: 1; }

.y-axis-path, .y-axis-path2, .x-notch-left, .x-notch-right { display: none;}



.x-axis-label, .data-point-label {font-size: 12px; font-weight:normal; font-family: sans-serif; fill: #58595b; text-anchor:middle;}

.y-axis-label {font-size: 12px; font-family: helvetica; fill: #a7a9ac; text-anchor:end;}



.series-1-line { fill: none; stroke: #10b80c; stroke-width:2; }



.series-2-line { fill: none; stroke: #e90f0a; stroke-width: 2;}

	</style>
	<rect fill="white" height="600" width="800" x="0" y="0"/>
	<g id="grid" transform="translate(70, 30)">
		<g class="x-axis" id="x_axis">
			<path class="x-axis-path" d="M 0 525 L 660 525"/>
			<path class="x-notch-left" d="M 0 525, L 0 535"/>
			<path class="x-notch-right" d="M 660 525, L 660 535"/>
		</g>
		<g class="y-axis" id="y_axis">
			<path class="y-axis-path" d="M 0 525 L 0 0"/>
			<path class="y-axis-path-2" d="M 660 525 L 660 0"/>
			<path class="y-gridline" d="M 0 525 L 660 525"/>
			<text class="y-axis-label" x="-5" y="525">
				-200
			</text>
			<path class="y-gridline" d="M 0 420 L 660 420"/>
			<text class="y-axis-label" x="-5" y="420">
				 0
			</text>
			<path class="y-gridline" d="M 0 315 L 660 315"/>
			<text class="y-axis-label" x="-5" y="315">
				200
			</text>
			<path class="y-gridline" d="M 0 210 L 660 210"/>
			<text class="y-axis-label" x="-5" y="210">
				400
			</text>
			<path class="y-gridline" d="M 0 105 L 660 105"/>
			<text class="y-axis-label" x="-5" y="105">
				600
			</text>
			<path class="y-gridline" d="M 0 0 L 660 0"/>
			<text class="y-axis-label" x="-5" y="0">
				800
			</text>
		</g>
		<g>
			<path class="series-1-line" d="M 40 421.895334 L 45 430.128855927 L 50 419.745247855 L 55 423.213239782 L 61 404.698641709 L 66 415.314823636 L 71 414.152315564 L 77 419.262717491 L 82 413.792479418 L 87 403.395221345 L 93 416.663283273 L 98 407.5043952 L 103 424.743767127 L 109 408.463779055 L 114 407.987760982 L 119 407.067382909 L 125 417.925904836 L 130 406.869036764 L 135 405.908338691 L 141 405.189980618 L 146 390.956022545 L 151 405.408904473 L 157 376.8924264 L 162 397.470168327 L 167 354.172840255 L 173 365.556362182 L 178 359.224494109 L 183 356.298406036 L 188 331.981927964 L 194 346.542329891 L 199 282.420141818 L 204 296.819053745 L 210 293.152505673 L 215 286.9552476 L 220 269.019409527 L 226 259.228001455 L 231 238.815213382 L 236 259.218025309 L 242 254.649737236 L 247 251.077269164 L 252 252.957031091 L 258 223.565483018 L 263 214.150814945 L 268 194.061426873 L 274 169.4618688 L 279 188.168510727 L 284 105.213522655 L 290 120.824134582 L 295 95.6863465091 L 300 113.491038436 L 306 86.6705203636 L 311 103.357802291 L 316 96.8913242182 L 322 93.9249161455 L 327 136.969718073 L 332 172.04544 L 337 139.113711927 L 343 147.091243855 L 348 249.865505782 L 353 258.301047709 L 359 212.391949636 L 364 291.662381564 L 369 264.276333491 L 375 320.419675418 L 380 316.658837345 L 385 311.296119273 L 391 349.1045712 L 396 374.340323127 L 401 387.258525055 L 407 367.276656982 L 412 424.995208909 L 417 408.324830836 L 423 403.662252764 L 428 411.330454691 L 433 418.944896618 L 439 419.074518545 L 444 395.928790473 L 449 389.0853624 L 455 391.355304327 L 460 395.968006255 L 465 428.499788182 L 471 428.575650109 L 476 418.609102036 L 481 405.075283964 L 486 427.510685891 L 492 420.977007818 L 497 429.210529745 L 502 417.359441673 L 508 406.6392036 L 513 418.439995527 L 518 430.254227455 L 524 425.968599382 L 529 411.896341309 L 534 426.456743236 L 540 426.815265164 L 545 414.748717091 L 550 423.440039018 L 556 422.654270945 L 561 426.351162873 L 566 422.4021648 L 572 428.373986727 L 577 430.899918655 L 582 420.354610582 L 588 418.693772509 L 593 424.342614436 L 598 410.189716364 L 604 422.030828291 L 609 431.085660218 L 614 426.086452145 L 620 411.085364073"/>
			<path class="series-2-line" d="M 40 415.065 L 45 415.498363636 L 50 433.256727273 L 55 419.515090909 L 61 415.748454545 L 66 413.031818182 L 71 425.540181818 L 77 421.773545455 L 82 430.606909091 L 87 429.990272727 L 93 423.073636364 L 98 413.532 L 103 421.840363636 L 109 417.548727273 L 114 425.332090909 L 119 420.515454545 L 125 420.948818182 L 130 420.857181818 L 135 422.340545455 L 141 426.973909091 L 146 410.607272727 L 151 423.640636364 L 157 424.074 L 162 423.457363636 L 167 416.015727273 L 173 416.449090909 L 178 416.357454545 L 183 417.315818182 L 188 417.749181818 L 194 413.982545455 L 199 420.190909091 L 204 421.149272727 L 210 414.757636364 L 215 414.141 L 220 401.974363636 L 226 409.232727273 L 231 394.441090909 L 236 400.649454545 L 242 412.107818182 L 247 391.016181818 L 252 399.849545455 L 258 393.457909091 L 263 382.866272727 L 268 399.574636364 L 274 362.208 L 279 366.841363636 L 284 362.549727273 L 290 379.258090909 L 295 364.466454545 L 300 366.474818182 L 306 348.008181818 L 311 340.041545455 L 316 340.474909091 L 322 347.733272727 L 327 322.966636364 L 332 312.9 L 337 326.458363636 L 343 305.366727273 L 348 340.450090909 L 353 350.333454545 L 359 320.316818182 L 364 356.975181818 L 369 324.333545455 L 375 344.716909091 L 380 332.550272727 L 385 324.583636364 L 391 318.192 L 396 348.550363636 L 401 355.283727273 L 407 355.192090909 L 412 396.050454545 L 417 391.233818182 L 423 396.917181818 L 428 403.650545455 L 433 418.783909091 L 439 413.967272727 L 444 375.025636364 L 449 372.834 L 455 361.717363636 L 460 394.700727273 L 465 412.984090909 L 471 416.567454545 L 476 410.175818182 L 481 407.459181818 L 486 403.692545455 L 492 414.625909091 L 497 415.059272727 L 502 416.017636364 L 508 424.851 L 513 421.609363636 L 518 416.267727273 L 524 424.576090909 L 529 423.959454545 L 534 420.192818182 L 540 420.626181818 L 545 414.234545455 L 550 425.167909091 L 556 419.826272727 L 561 411.334636364 L 566 428.568 L 572 413.251363636 L 577 423.659727273 L 582 425.668090909 L 588 413.501454545 L 593 407.634818182 L 598 419.618181818 L 604 410.076545455 L 609 425.734909091 L 614 422.493272727 L 620 423.451636364"/>
		</g>
		<text class="x-axis-label" x="40.0" y="540">
			0
		</text>
		<path class="x-notch" d="M 66.6055045872 525 L 66.6055045872 530"/>
		<text class="x-axis-label" x="93.2110091743" y="540">
			10
		</text>
		<path class="x-notch" d="M 119.816513761 525 L 119.816513761 530"/>
		<text class="x-axis-label" x="146.422018349" y="540">
			20
		</text>
		<path class="x-notch" d="M 173.027522936 525 L 173.027522936 530"/>
		<text class="x-axis-label" x="199.633027523" y="540">
			30
		</text>
		<path class="x-notch" d="M 226.23853211 525 L 226.23853211 530"/>
		<text class="x-axis-label" x="252.844036697" y="540">
			40
		</text>
		<path class="x-notch" d="M 279.449541284 525 L 279.449541284 530"/>
		<text class="x-axis-label" x="306.055045872" y="540">
			50
		</text>
		<path class="x-notch" d="M 332.660550459 525 L 332.660550459 530"/>
		<text class="x-axis-label" x="359.266055046" y="540">
			60
		</text>
		<path class="x-notch" d="M 385.871559633 525 L 385.871559633 530"/>
		<text class="x-axis-label" x="412.47706422" y="540">
			70
		</text>
		<path class="x-notch" d="M 439.082568807 525 L 439.082568807 530"/>
		<text class="x-axis-label" x="465.688073394" y="540">
			80
		</text>
		<path class="x-notch" d="M 492.293577982 525 L 492.293577982 530"/>
		<text class="x-axis-label" x="518.899082569" y="540">
			90
		</text>
		<path class="x-notch" d="M 545.504587156 525 L 545.504587156 530"/>
		<text class="x-axis-label" x="572.110091743" y="540">
			100
		</text>
		<path class="x-notch" d="M 598.71559633 525 L 598.71559633 530"/>
	</g>
</svg>
