<?xml version="1.0" ?>
<svg height="600" version="1.1" width="800" xmlns="http://www.w3.org/2000/svg" xmlns:svg="http://www.w3.org/2000/svg">
	<style type="text/css">
		

.x-axis-path, .y-gridline, .x-notch { fill:none; stroke: #a7a9ac; stroke-width:1; }



.y-gridline { stroke-width: 1; }

.y-axis-path, .y-axis-path2, .x-notch-left, .x-notch-right { display: none;}



.x-axis-label, .data-point-label {font-size: 12px; font-weight:normal; font-family: sans-serif; fill: #58595b; text-anchor:middle;}

.y-axis-label {font-size: 12px; font-family: helvetica; fill: #a7a9ac; text-anchor:end;}



.series-1-line { fill: none; stroke: #10b80c; stroke-width:2; }



.series-2-line { fill: none; stroke: #e90f0a; stroke-width: 2;}

	</style>
	<rect fill="white" height="600" width="800" x="0" y="0"/>
	<g id="grid" transform="translate(70, 30)">
		<g class="x-axis" id="x_axis">
			<path class="x-axis-path" d="M 0 525 L 660 525"/>
			<path class="x-notch-left" d="M 0 525, L 0 535"/>
			<path class="x-notch-right" d="M 660 525, L 660 535"/>
		</g>
		<g class="y-axis" id="y_axis">
			<path class="y-axis-path" d="M 0 525 L 0 0"/>
			<path class="y-axis-path-2" d="M 660 525 L 660 0"/>
			<path class="y-gridline" d="M 0 525 L 660 525"/>
			<text class="y-axis-label" x="-5" y="525">
				-200
			</text>
			<path class="y-gridline" d="M 0 394 L 660 394"/>
			<text class="y-axis-label" x="-5" y="394">
				 0
			</text>
			<path class="y-gridline" d="M 0 263 L 660 263"/>
			<text class="y-axis-label" x="-5" y="263">
				200
			</text>
			<path class="y-gridline" d="M 0 132 L 660 132"/>
			<text class="y-axis-label" x="-5" y="132">
				400
			</text>
			<path class="y-gridline" d="M 0 1 L 660 1"/>
			<text class="y-axis-label" x="-5" y="1">
				600
			</text>
		</g>
		<g>
			<path class="series-1-line" d="M 40 419.105932147 L 46 398.399379063 L 53 385.137145917 L 59 388.925227631 L 66 380.191248592 L 72 401.581359094 L 79 388.502394242 L 86 384.377485537 L 92 375.418875568 L 99 384.754959451 L 105 370.941966899 L 112 387.824822787 L 119 384.209629026 L 125 399.379117265 L 132 376.14307991 L 138 372.079578811 L 145 365.649816764 L 152 367.011184449 L 158 374.144867058 L 165 382.787331354 L 171 374.644519834 L 178 375.638714581 L 185 332.353889438 L 191 386.887243728 L 198 356.186523292 L 204 371.396737819 L 211 401.760949439 L 217 363.799495534 L 224 365.589125587 L 231 309.169436331 L 237 305.248159064 L 244 302.530852676 L 250 233.567148652 L 257 259.791278593 L 264 227.173240896 L 270 0.0 L 277 43.9683825625 L 283 84.1632200357 L 290 106.328084526 L 297 39.7516409409 L 303 35.3203305563 L 310 88.5482164231 L 316 115.425239663 L 323 8.52595322311 L 330 53.9623911855 L 336 66.8069811141 L 343 66.5160705817 L 349 63.7987641933 L 356 199.139754822 L 362 167.072794705 L 369 138.309436499 L 376 237.89751919 L 382 146.457676999 L 389 161.790388563 L 395 189.850065016 L 402 252.949621198 L 409 272.952492528 L 415 269.52120341 L 422 337.475142174 L 428 310.588056767 L 435 381.825234299 L 442 344.373813512 L 448 377.103967904 L 455 391.498383982 L 461 357.391927742 L 468 397.301363027 L 475 423.056504313 L 481 418.523378209 L 488 407.749266698 L 494 403.706128742 L 501 416.020004235 L 507 408.427952121 L 514 415.357366943 L 521 422.572502128 L 527 409.595671169 L 534 431.516177934 L 540 403.038540089 L 547 426.713140789 L 554 406.822067981 L 560 433.127650498 L 567 406.567329914 L 573 407.989787029 L 580 411.32987958 L 587 405.308016758 L 593 378.400886381 L 600 407.357813858 L 606 412.614905494 L 613 371.899972736 L 620 393.963021507"/>
			<path class="series-2-line" d="M 40 384.204776334 L 46 403.92799692 L 53 410.128817313 L 59 362.240036931 L 66 406.621751989 L 72 404.868219326 L 79 382.433368721 L 86 390.225059725 L 92 407.561974395 L 99 393.87691215 L 105 392.918814793 L 112 411.846600074 L 119 402.138714357 L 125 409.134970055 L 132 389.086425366 L 138 418.354869619 L 145 413.419595734 L 152 402.916274712 L 158 422.639495298 L 165 393.045726943 L 171 407.200900391 L 178 391.924967535 L 185 397.330352622 L 191 405.917478932 L 198 402.573075658 L 204 403.205848913 L 211 397.475139723 L 217 410.03944256 L 224 394.763509704 L 231 401.759765402 L 237 377.734044186 L 244 414.161406188 L 250 361.500013973 L 257 381.22323456 L 264 366.742737009 L 270 363.398333736 L 277 375.962636573 L 283 356.709527189 L 290 327.115758834 L 297 367.520297364 L 303 329.972175954 L 310 325.03690207 L 316 367.03231121 L 323 369.255955076 L 330 338.866751415 L 336 367.339760362 L 343 335.359686091 L 349 371.787048093 L 356 338.21610321 L 362 361.916500324 L 369 335.504473191 L 376 388.635976609 L 382 336.7700197 L 389 349.334322537 L 395 361.898625373 L 402 368.099445766 L 409 334.528500884 L 415 358.228897998 L 422 382.724730417 L 428 342.790303091 L 435 320.355452485 L 442 346.442155516 L 448 343.893187548 L 455 347.707702024 L 461 379.362452193 L 468 373.631743003 L 475 404.491057867 L 481 382.851642567 L 488 373.14375685 L 494 399.23045988 L 501 386.340832941 L 507 407.654924138 L 514 397.151603115 L 521 404.147858814 L 527 396.826279013 L 534 405.413405322 L 540 396.500954911 L 547 410.656128358 L 554 396.175630808 L 560 403.171886506 L 567 405.395530372 L 573 385.346985683 L 580 407.456512186 L 587 400.93036769 L 593 395.199658501 L 600 391.855255227 L 606 394.078899093 L 613 401.870590096 L 620 388.185527852"/>
		</g>
		<text class="x-axis-label" x="40.0" y="540">
			0
		</text>
		<path class="x-notch" d="M 72.9545454545 525 L 72.9545454545 530"/>
		<text class="x-axis-label" x="105.909090909" y="540">
			10
		</text>
		<path class="x-notch" d="M 138.863636364 525 L 138.863636364 530"/>
		<text class="x-axis-label" x="171.818181818" y="540">
			20
		</text>
		<path class="x-notch" d="M 204.772727273 525 L 204.772727273 530"/>
		<text class="x-axis-label" x="237.727272727" y="540">
			30
		</text>
		<path class="x-notch" d="M 270.681818182 525 L 270.681818182 530"/>
		<text class="x-axis-label" x="303.636363636" y="540">
			40
		</text>
		<path class="x-notch" d="M 336.590909091 525 L 336.590909091 530"/>
		<text class="x-axis-label" x="369.545454545" y="540">
			50
		</text>
		<path class="x-notch" d="M 402.5 525 L 402.5 530"/>
		<text class="x-axis-label" x="435.454545455" y="540">
			60
		</text>
		<path class="x-notch" d="M 468.409090909 525 L 468.409090909 530"/>
		<text class="x-axis-label" x="501.363636364" y="540">
			70
		</text>
		<path class="x-notch" d="M 534.318181818 525 L 534.318181818 530"/>
		<text class="x-axis-label" x="567.272727273" y="540">
			80
		</text>
		<path class="x-notch" d="M 600.227272727 525 L 600.227272727 530"/>
	</g>
</svg>
