<?xml version="1.0" ?>
<svg height="600" version="1.1" width="800" xmlns="http://www.w3.org/2000/svg" xmlns:svg="http://www.w3.org/2000/svg">
	<style type="text/css">

.x-axis-path, .y-gridline, .x-notch { fill:none; stroke: #a7a9ac; stroke-width:1; }



.y-gridline { stroke-width: 1; }

.y-axis-path, .y-axis-path2, .x-notch-left, .x-notch-right { display: none;}



.x-axis-label, .data-point-label {font-size: 12px; font-weight:normal; font-family: sans-serif; fill: #58595b; text-anchor:middle;}

.y-axis-label {font-size: 12px; font-family: helvetica; fill: #a7a9ac; text-anchor:end;}



.series-1-line { fill: none; stroke: #10b80c; stroke-width:2; }



.series-2-line { fill: none; stroke: #e90f0a; stroke-width: 2;}
</style>
	<rect fill="white" height="600" width="800" x="0" y="0"/>
	<g id="grid" transform="translate(70, 30)">
		<g class="x-axis" id="x_axis">
			<path class="x-axis-path" d="M 0 525 L 660 525"/>
			<path class="x-notch-left" d="M 0 525, L 0 535"/>
			<path class="x-notch-right" d="M 660 525, L 660 535"/>
		</g>
		<g class="y-axis" id="y_axis">
			<path class="y-axis-path" d="M 0 525 L 0 0"/>
			<path class="y-axis-path-2" d="M 660 525 L 660 0"/>
			<path class="y-gridline" d="M 0 525 L 660 525"/>
			<text class="y-axis-label" x="-5" y="525">-200</text>
			<path class="y-gridline" d="M 0 394 L 660 394"/>
			<text class="y-axis-label" x="-5" y="394"> 0</text>
			<path class="y-gridline" d="M 0 263 L 660 263"/>
			<text class="y-axis-label" x="-5" y="263">200</text>
			<path class="y-gridline" d="M 0 132 L 660 132"/>
			<text class="y-axis-label" x="-5" y="132">400</text>
			<path class="y-gridline" d="M 0 1 L 660 1"/>
			<text class="y-axis-label" x="-5" y="1">600</text>
		</g>
		<g>
			<path class="series-1-line" d="M 40 389.882796486 L 45 400.345535032 L 51 390.19877706 L 57 391.156681014 L 62 393.292692699 L 68 394.752288992 L 74 376.183432944 L 79 352.456459382 L 85 313.724041766 L 91 310.964579329 L 96 257.123523022 L 102 225.754558136 L 108 220.91741883 L 113 234.57198862 L 119 135.962093426 L 125 180.670053107 L 130 144.190532136 L 136 169.220479025 L 142 127.248296192 L 148 87.7279484029 L 153 151.508909716 L 159 133.537117225 L 165 103.712470644 L 170 106.166883111 L 176 36.9624923222 L 182 62.9157269716 L 187 0.0 L 193 58.7660248076 L 199 73.1768585472 L 204 71.2054504651 L 210 75.0529284466 L 216 49.781636581 L 221 37.0875481683 L 227 75.8490876188 L 233 72.8428769936 L 239 59.7587352043 L 244 42.2089106771 L 250 72.6676902528 L 256 66.7399910124 L 261 115.046103062 L 267 78.1287189239 L 273 102.100020465 L 278 91.642809313 L 284 146.500228571 L 290 118.999882865 L 295 174.733028456 L 301 173.629274925 L 307 180.199303123 L 312 194.665894254 L 318 192.304308614 L 324 213.067635344 L 330 206.041428568 L 335 247.350174279 L 341 224.984351644 L 347 247.140743889 L 352 266.606500504 L 358 271.528643217 L 364 225.735526813 L 369 249.284860391 L 375 269.896810151 L 381 286.249963172 L 386 324.223696631 L 392 305.559469365 L 398 315.607815004 L 403 281.691643858 L 409 331.064348856 L 415 312.638922177 L 420 316.207737383 L 426 334.598953448 L 432 339.600572175 L 438 335.36856821 L 443 350.161631906 L 449 380.811774823 L 455 385.312073753 L 460 378.723605962 L 466 386.384069914 L 472 385.360040759 L 477 394.270389218 L 483 379.681791313 L 489 390.884650242 L 494 399.341240331 L 500 395.85730435 L 506 411.494055611 L 511 388.419778818 L 517 386.591675924 L 523 386.19625237 L 529 393.506649315 L 534 397.744180673 L 540 400.238455329 L 546 385.355423627 L 551 394.003004513 L 557 386.156828795 L 563 378.17529549 L 568 390.269775955 L 574 395.160128262 L 580 405.03362667 L 585 397.951662502 L 591 408.517719866 L 597 392.607709041 L 602 403.173766405 L 608 387.327460573 L 614 398.999973074 L 620 392.451367471"/>
			<path class="series-2-line" d="M 40 386.795848744 L 45 401.369666425 L 51 398.247652784 L 57 394.194279601 L 62 387.96773415 L 68 402.541551831 L 74 393.52092775 L 79 402.19613499 L 85 390.691885461 L 91 397.504373615 L 96 394.071906794 L 102 396.227597232 L 108 400.246006756 L 113 389.052210408 L 119 395.554245381 L 125 395.22631037 L 130 395.519281721 L 136 389.603189451 L 142 387.102082173 L 148 389.568225792 L 153 392.344822592 L 159 387.049636684 L 165 390.447139846 L 170 382.978781671 L 176 391.033082549 L 182 374.251128942 L 187 381.994976639 L 193 392.222449785 L 199 384.133185247 L 204 389.082954315 L 210 382.235502501 L 216 389.668897018 L 221 384.37371111 L 227 379.388978383 L 233 388.374638805 L 239 383.389906078 L 244 384.924690153 L 250 367.521830184 L 256 372.16114607 L 261 379.594540586 L 267 375.541167403 L 273 377.38640466 L 278 374.264391019 L 284 376.730534638 L 290 368.641270101 L 295 379.80010279 L 301 382.57669959 L 307 386.905562295 L 312 382.231282749 L 318 375.383830936 L 324 381.264959547 L 330 387.76699452 L 335 372.847759999 L 341 375.003450437 L 347 381.50548541 L 352 383.971629029 L 358 378.986896302 L 364 379.279867653 L 369 374.295134926 L 375 367.447683113 L 381 359.047965394 L 386 380.141299878 L 392 386.022428489 L 398 356.201441276 L 403 368.291633508 L 409 366.721885773 L 415 371.671654841 L 420 359.85695213 L 426 372.568050725 L 432 355.165190755 L 438 373.77489979 L 443 378.724668858 L 449 392.056673814 L 455 392.349645166 L 460 391.090350612 L 466 382.690632893 L 472 397.264450574 L 477 399.730594193 L 483 399.402659182 L 489 395.349285999 L 494 395.952710531 L 500 394.693415977 L 506 389.087776888 L 511 392.795733232 L 517 399.608221386 L 523 388.724878219 L 529 398.641898183 L 534 391.483993189 L 540 389.914245454 L 546 399.210359057 L 551 394.22562633 L 557 395.449957225 L 563 393.569756308 L 568 395.725446746 L 574 395.707964917 L 580 393.206857639 L 585 396.29390762 L 591 394.724159885 L 597 394.706678055 L 602 393.13693032 L 608 395.292620758 L 614 390.618341212 L 620 395.257657099"/>
		</g>
		<text class="x-axis-label" x="40.0" y="540">0</text>
		<path class="x-notch" d="M 68.431372549 525 L 68.431372549 530"/>
		<text class="x-axis-label" x="96.862745098" y="540">10</text>
		<path class="x-notch" d="M 125.294117647 525 L 125.294117647 530"/>
		<text class="x-axis-label" x="153.725490196" y="540">20</text>
		<path class="x-notch" d="M 182.156862745 525 L 182.156862745 530"/>
		<text class="x-axis-label" x="210.588235294" y="540">30</text>
		<path class="x-notch" d="M 239.019607843 525 L 239.019607843 530"/>
		<text class="x-axis-label" x="267.450980392" y="540">40</text>
		<path class="x-notch" d="M 295.882352941 525 L 295.882352941 530"/>
		<text class="x-axis-label" x="324.31372549" y="540">50</text>
		<path class="x-notch" d="M 352.745098039 525 L 352.745098039 530"/>
		<text class="x-axis-label" x="381.176470588" y="540">60</text>
		<path class="x-notch" d="M 409.607843137 525 L 409.607843137 530"/>
		<text class="x-axis-label" x="438.039215686" y="540">70</text>
		<path class="x-notch" d="M 466.470588235 525 L 466.470588235 530"/>
		<text class="x-axis-label" x="494.901960784" y="540">80</text>
		<path class="x-notch" d="M 523.333333333 525 L 523.333333333 530"/>
		<text class="x-axis-label" x="551.764705882" y="540">90</text>
		<path class="x-notch" d="M 580.196078431 525 L 580.196078431 530"/>
		<text class="x-axis-label" x="608.62745098" y="540">100</text>
		<path class="x-notch" d="M 637.058823529 525 L 637.058823529 530"/>
	</g>
</svg>
