<?xml version="1.0" ?>
<svg height="600" version="1.1" width="800" xmlns="http://www.w3.org/2000/svg" xmlns:svg="http://www.w3.org/2000/svg">
	<style type="text/css">
		

.x-axis-path, .y-gridline, .x-notch { fill:none; stroke: #a7a9ac; stroke-width:1; }



.y-gridline { stroke-width: 1; }

.y-axis-path, .y-axis-path2, .x-notch-left, .x-notch-right { display: none;}



.x-axis-label, .data-point-label {font-size: 12px; font-weight:normal; font-family: sans-serif; fill: #58595b; text-anchor:middle;}

.y-axis-label {font-size: 12px; font-family: helvetica; fill: #a7a9ac; text-anchor:end;}



.series-1-line { fill: none; stroke: #10b80c; stroke-width:2; }



.series-2-line { fill: none; stroke: #e90f0a; stroke-width: 2;}

	</style>
	<rect fill="white" height="600" width="800" x="0" y="0"/>
	<g id="grid" transform="translate(70, 30)">
		<g class="x-axis" id="x_axis">
			<path class="x-axis-path" d="M 0 525 L 660 525"/>
			<path class="x-notch-left" d="M 0 525, L 0 535"/>
			<path class="x-notch-right" d="M 660 525, L 660 535"/>
		</g>
		<g class="y-axis" id="y_axis">
			<path class="y-axis-path" d="M 0 525 L 0 0"/>
			<path class="y-axis-path-2" d="M 660 525 L 660 0"/>
			<path class="y-gridline" d="M 0 525 L 660 525"/>
			<text class="y-axis-label" x="-5" y="525">
				-100
			</text>
			<path class="y-gridline" d="M 0 438 L 660 438"/>
			<text class="y-axis-label" x="-5" y="438">
				 0
			</text>
			<path class="y-gridline" d="M 0 351 L 660 351"/>
			<text class="y-axis-label" x="-5" y="351">
				100
			</text>
			<path class="y-gridline" d="M 0 264 L 660 264"/>
			<text class="y-axis-label" x="-5" y="264">
				200
			</text>
			<path class="y-gridline" d="M 0 177 L 660 177"/>
			<text class="y-axis-label" x="-5" y="177">
				300
			</text>
			<path class="y-gridline" d="M 0 90 L 660 90"/>
			<text class="y-axis-label" x="-5" y="90">
				400
			</text>
			<path class="y-gridline" d="M 0 3 L 660 3"/>
			<text class="y-axis-label" x="-5" y="3">
				500
			</text>
		</g>
		<g>
			<path class="series-1-line" d="M 40 465.3922 L 46 442.614440674 L 53 428.025631348 L 59 432.192622022 L 66 422.585012697 L 72 446.114703371 L 79 431.727494045 L 86 427.189984719 L 92 417.335275393 L 99 427.605216067 L 105 412.410556742 L 112 430.982147416 L 119 427.00533809 L 125 443.692178764 L 132 418.131919438 L 138 413.661960112 L 145 406.589050787 L 152 408.086591461 L 158 415.933832135 L 165 425.440772809 L 171 416.483463483 L 178 417.577104157 L 185 369.962644831 L 191 429.950785506 L 198 396.17917618 L 204 412.910816854 L 211 446.312257528 L 217 404.553648202 L 224 406.522288876 L 231 344.459129551 L 237 340.145620225 L 244 337.156510899 L 250 261.294601573 L 257 290.141842247 L 264 254.261132921 L 270 4.36452359551 L 277 52.7309142697 L 283 96.9463049438 L 290 121.328245618 L 297 48.0923862921 L 303 43.2178269663 L 310 101.76991764 L 316 131.335358315 L 323 13.7432989888 L 330 63.7245896629 L 336 77.8539803371 L 343 77.5339710112 L 349 74.5448616854 L 356 223.42355236 L 362 188.149043034 L 369 156.508583708 L 376 266.058124382 L 382 165.471865056 L 389 182.33825573 L 395 213.204646404 L 402 282.615837079 L 409 304.619527753 L 415 300.845018427 L 422 375.596159101 L 428 346.019649775 L 435 424.382440449 L 442 383.184881124 L 448 419.188921798 L 455 435.023162472 L 461 397.505153146 L 468 441.40659382 L 475 469.737934494 L 481 464.751375169 L 488 452.899565843 L 494 448.452006517 L 501 461.997597191 L 507 453.646137865 L 514 461.268678539 L 521 469.205519213 L 527 454.930659888 L 534 479.043800562 L 540 447.717641236 L 547 473.76033191 L 554 451.879622584 L 560 480.816463258 L 567 451.599403933 L 573 453.164144607 L 580 456.838335281 L 587 450.214125955 L 593 420.615566629 L 600 452.468957303 L 606 458.251897978 L 613 413.464388652 L 620 437.734329326"/>
			<path class="series-2-line" d="M 40 427.0 L 46 448.696067416 L 53 455.517134831 L 59 402.838202247 L 66 451.659269663 L 72 449.730337079 L 79 425.051404494 L 86 433.62247191 L 92 452.693539326 L 99 437.639606742 L 105 436.585674157 L 112 457.406741573 L 119 446.727808989 L 125 454.423876404 L 132 432.36994382 L 138 464.566011236 L 145 459.137078652 L 152 447.583146067 L 158 469.279213483 L 165 436.725280899 L 171 452.296348315 L 178 435.49241573 L 185 441.438483146 L 191 450.884550562 L 198 447.205617978 L 204 447.901685393 L 211 441.597752809 L 217 455.418820225 L 224 438.61488764 L 231 446.310955056 L 237 419.882022472 L 244 459.953089888 L 250 402.024157303 L 257 423.720224719 L 264 407.791292135 L 270 404.112359551 L 277 417.933426966 L 283 396.754494382 L 290 364.200561798 L 297 408.646629213 L 303 367.342696629 L 310 361.913764045 L 316 408.109831461 L 323 410.555898876 L 330 377.126966292 L 336 408.448033708 L 343 373.269101124 L 349 413.340168539 L 356 376.411235955 L 362 402.482303371 L 369 373.428370787 L 376 431.874438202 L 382 374.820505618 L 389 388.641573034 L 395 402.462640449 L 402 409.283707865 L 409 372.354775281 L 415 398.425842697 L 422 425.371910112 L 428 381.442977528 L 435 356.764044944 L 442 385.46011236 L 448 382.656179775 L 455 386.852247191 L 461 421.673314607 L 468 415.369382022 L 475 449.315449438 L 481 425.511516854 L 488 414.83258427 L 494 443.528651685 L 501 429.349719101 L 507 452.795786517 L 514 441.241853933 L 521 448.937921348 L 527 440.883988764 L 534 450.33005618 L 540 440.526123596 L 547 456.097191011 L 554 440.168258427 L 560 447.864325843 L 567 450.310393258 L 573 428.256460674 L 580 452.57752809 L 587 445.398595506 L 593 439.094662921 L 600 435.415730337 L 606 437.861797753 L 613 446.432865169 L 620 431.378932584"/>
		</g>
		<text class="x-axis-label" x="40.0" y="540">
			0
		</text>
		<path class="x-notch" d="M 72.9545454545 525 L 72.9545454545 530"/>
		<text class="x-axis-label" x="105.909090909" y="540">
			10
		</text>
		<path class="x-notch" d="M 138.863636364 525 L 138.863636364 530"/>
		<text class="x-axis-label" x="171.818181818" y="540">
			20
		</text>
		<path class="x-notch" d="M 204.772727273 525 L 204.772727273 530"/>
		<text class="x-axis-label" x="237.727272727" y="540">
			30
		</text>
		<path class="x-notch" d="M 270.681818182 525 L 270.681818182 530"/>
		<text class="x-axis-label" x="303.636363636" y="540">
			40
		</text>
		<path class="x-notch" d="M 336.590909091 525 L 336.590909091 530"/>
		<text class="x-axis-label" x="369.545454545" y="540">
			50
		</text>
		<path class="x-notch" d="M 402.5 525 L 402.5 530"/>
		<text class="x-axis-label" x="435.454545455" y="540">
			60
		</text>
		<path class="x-notch" d="M 468.409090909 525 L 468.409090909 530"/>
		<text class="x-axis-label" x="501.363636364" y="540">
			70
		</text>
		<path class="x-notch" d="M 534.318181818 525 L 534.318181818 530"/>
		<text class="x-axis-label" x="567.272727273" y="540">
			80
		</text>
		<path class="x-notch" d="M 600.227272727 525 L 600.227272727 530"/>
	</g>
</svg>
