<?xml version="1.0" ?>
<svg height="600" version="1.1" width="800" xmlns="http://www.w3.org/2000/svg" xmlns:svg="http://www.w3.org/2000/svg">
	<style type="text/css">
		

.x-axis-path, .y-gridline, .x-notch { fill:none; stroke: #a7a9ac; stroke-width:1; }



.y-gridline { stroke-width: 1; }

.y-axis-path, .y-axis-path2, .x-notch-left, .x-notch-right { display: none;}



.x-axis-label, .data-point-label {font-size: 12px; font-weight:normal; font-family: sans-serif; fill: #58595b; text-anchor:middle;}

.y-axis-label {font-size: 12px; font-family: helvetica; fill: #a7a9ac; text-anchor:end;}



.series-1-line { fill: none; stroke: #10b80c; stroke-width:2; }



.series-2-line { fill: none; stroke: #e90f0a; stroke-width: 2;}

	</style>
	<rect fill="white" height="600" width="800" x="0" y="0"/>
	<g id="grid" transform="translate(70, 30)">
		<g class="x-axis" id="x_axis">
			<path class="x-axis-path" d="M 0 525 L 660 525"/>
			<path class="x-notch-left" d="M 0 525, L 0 535"/>
			<path class="x-notch-right" d="M 660 525, L 660 535"/>
		</g>
		<g class="y-axis" id="y_axis">
			<path class="y-axis-path" d="M 0 525 L 0 0"/>
			<path class="y-axis-path-2" d="M 660 525 L 660 0"/>
			<path class="y-gridline" d="M 0 525 L 660 525"/>
			<text class="y-axis-label" x="-5" y="525">
				-200
			</text>
			<path class="y-gridline" d="M 0 420 L 660 420"/>
			<text class="y-axis-label" x="-5" y="420">
				 0
			</text>
			<path class="y-gridline" d="M 0 315 L 660 315"/>
			<text class="y-axis-label" x="-5" y="315">
				200
			</text>
			<path class="y-gridline" d="M 0 210 L 660 210"/>
			<text class="y-axis-label" x="-5" y="210">
				400
			</text>
			<path class="y-gridline" d="M 0 105 L 660 105"/>
			<text class="y-axis-label" x="-5" y="105">
				600
			</text>
			<path class="y-gridline" d="M 0 0 L 660 0"/>
			<text class="y-axis-label" x="-5" y="0">
				800
			</text>
		</g>
		<g>
			<path class="series-1-line" d="M 40 419.211156 L 45 420.286321 L 51 421.657586 L 57 409.163391 L 62 430.336396 L 68 428.961701 L 74 422.861796 L 80 419.386891 L 85 401.898476 L 91 392.918001 L 97 410.348806 L 103 406.308581 L 108 389.964456 L 114 405.672211 L 120 401.106776 L 126 368.460771 L 131 353.732176 L 137 356.126351 L 143 368.993856 L 149 359.622781 L 154 351.665216 L 160 329.667261 L 166 355.996186 L 172 317.049971 L 177 325.084746 L 183 295.306081 L 189 332.552276 L 195 338.688861 L 200 247.794736 L 206 302.971781 L 212 257.846946 L 218 276.462361 L 223 221.874086 L 229 245.375991 L 235 276.416476 L 240 219.943451 L 246 220.170636 L 252 233.859031 L 258 232.564976 L 263 260.711031 L 269 218.951656 L 275 159.907391 L 281 160.403796 L 286 151.086481 L 292 102.851966 L 298 115.625391 L 304 153.275416 L 309 168.067781 L 315 136.471566 L 321 166.138861 L 327 137.894666 L 332 189.585291 L 338 203.341096 L 344 146.073851 L 350 156.612456 L 355 142.475851 L 361 148.895306 L 367 165.181821 L 373 205.766596 L 378 251.668571 L 384 229.549446 L 390 244.665001 L 396 290.836406 L 401 186.938241 L 407 194.043976 L 413 205.148111 L 419 341.484906 L 424 312.338971 L 430 355.561976 L 436 389.093061 L 441 359.771986 L 447 346.887611 L 453 398.551146 L 459 415.268371 L 464 362.107046 L 470 392.568771 L 476 402.663016 L 482 387.867011 L 487 406.078806 L 493 414.247981 L 499 407.501906 L 505 407.109801 L 510 419.586916 L 516 413.809991 L 522 411.452496 L 528 416.875711 L 533 414.962366 L 539 424.989201 L 545 436.173976 L 551 418.550951 L 556 425.401116 L 562 420.351211 L 568 421.951166 L 574 416.564841 L 579 400.907416 L 585 414.703541 L 591 410.811366 L 597 420.892171 L 602 426.598046 L 608 408.894381 L 614 414.142456 L 620 428.490671"/>
			<path class="series-2-line" d="M 40 420.21 L 45 426.371029412 L 51 427.282058824 L 57 420.843088235 L 62 403.904117647 L 68 423.715147059 L 74 423.051176471 L 80 422.387205882 L 85 416.998235294 L 91 435.759264706 L 97 429.320294118 L 103 434.956323529 L 108 435.342352941 L 114 431.528382353 L 120 416.689411765 L 126 421.275441176 L 131 435.836470588 L 137 420.4725 L 143 429.783529412 L 149 427.544558824 L 154 430.030588235 L 160 431.991617647 L 166 429.752647059 L 172 413.863676471 L 177 419.499705882 L 183 427.235735294 L 189 421.321764706 L 195 415.932794118 L 200 416.318823529 L 206 418.279852941 L 212 424.440882353 L 218 417.476911765 L 223 425.737941176 L 229 414.048970588 L 235 413.91 L 240 409.046029412 L 246 424.657058824 L 252 408.243088235 L 258 415.454117647 L 263 395.890147059 L 269 409.401176471 L 275 396.137205882 L 281 410.698235294 L 286 400.059264706 L 292 399.920294118 L 298 423.931323529 L 304 416.442352941 L 309 412.103382353 L 315 396.214411765 L 321 385.050441176 L 327 378.611470588 L 332 392.1225 L 338 385.683529412 L 344 381.869558824 L 350 385.930588235 L 355 369.516617647 L 361 381.452647059 L 367 369.238676471 L 373 374.874705882 L 378 370.010735294 L 384 370.396764706 L 390 377.082794118 L 396 391.643823529 L 401 373.129852941 L 407 359.865882353 L 413 378.101911765 L 419 393.187941176 L 424 404.598970588 L 430 387.66 L 436 408.521029412 L 441 406.282058824 L 447 419.793088235 L 453 417.029117647 L 459 399.040147059 L 464 409.926176471 L 470 418.187205882 L 476 409.648235294 L 482 414.234264706 L 487 429.320294118 L 493 413.956323529 L 499 411.717352941 L 505 421.553382353 L 510 430.339411765 L 516 420.225441176 L 522 429.536470588 L 528 433.0725 L 533 434.508529412 L 539 415.994558824 L 545 421.630588235 L 551 416.766617647 L 556 422.927647059 L 562 422.263676471 L 568 407.949705882 L 574 418.835735294 L 579 434.971764706 L 585 422.232794118 L 591 425.243823529 L 597 418.804852941 L 602 419.190882353 L 608 426.926911765 L 614 416.812941176 L 620 420.348970588"/>
		</g>
		<text class="x-axis-label" x="40.0" y="540">
			0
		</text>
		<path class="x-notch" d="M 68.7128712871 525 L 68.7128712871 530"/>
		<text class="x-axis-label" x="97.4257425743" y="540">
			10
		</text>
		<path class="x-notch" d="M 126.138613861 525 L 126.138613861 530"/>
		<text class="x-axis-label" x="154.851485149" y="540">
			20
		</text>
		<path class="x-notch" d="M 183.564356436 525 L 183.564356436 530"/>
		<text class="x-axis-label" x="212.277227723" y="540">
			30
		</text>
		<path class="x-notch" d="M 240.99009901 525 L 240.99009901 530"/>
		<text class="x-axis-label" x="269.702970297" y="540">
			40
		</text>
		<path class="x-notch" d="M 298.415841584 525 L 298.415841584 530"/>
		<text class="x-axis-label" x="327.128712871" y="540">
			50
		</text>
		<path class="x-notch" d="M 355.841584158 525 L 355.841584158 530"/>
		<text class="x-axis-label" x="384.554455446" y="540">
			60
		</text>
		<path class="x-notch" d="M 413.267326733 525 L 413.267326733 530"/>
		<text class="x-axis-label" x="441.98019802" y="540">
			70
		</text>
		<path class="x-notch" d="M 470.693069307 525 L 470.693069307 530"/>
		<text class="x-axis-label" x="499.405940594" y="540">
			80
		</text>
		<path class="x-notch" d="M 528.118811881 525 L 528.118811881 530"/>
		<text class="x-axis-label" x="556.831683168" y="540">
			90
		</text>
		<path class="x-notch" d="M 585.544554455 525 L 585.544554455 530"/>
		<text class="x-axis-label" x="614.257425743" y="540">
			100
		</text>
		<path class="x-notch" d="M 642.97029703 525 L 642.97029703 530"/>
	</g>
</svg>
