<?xml version="1.0" ?>
<svg height="600" version="1.1" width="800" xmlns="http://www.w3.org/2000/svg" xmlns:svg="http://www.w3.org/2000/svg">
	<style type="text/css">
		

.x-axis-path, .y-gridline, .x-notch { fill:none; stroke: #a7a9ac; stroke-width:1; }



.y-gridline { stroke-width: 1; }

.y-axis-path, .y-axis-path2, .x-notch-left, .x-notch-right { display: none;}



.x-axis-label, .data-point-label {font-size: 12px; font-weight:normal; font-family: sans-serif; fill: #58595b; text-anchor:middle;}

.y-axis-label {font-size: 12px; font-family: helvetica; fill: #a7a9ac; text-anchor:end;}



.series-1-line { fill: none; stroke: #10b80c; stroke-width:2; }



.series-2-line { fill: none; stroke: #e90f0a; stroke-width: 2;}

	</style>
	<rect fill="white" height="600" width="800" x="0" y="0"/>
	<g id="grid" transform="translate(70, 30)">
		<g class="x-axis" id="x_axis">
			<path class="x-axis-path" d="M 0 525 L 660 525"/>
			<path class="x-notch-left" d="M 0 525, L 0 535"/>
			<path class="x-notch-right" d="M 660 525, L 660 535"/>
		</g>
		<g class="y-axis" id="y_axis">
			<path class="y-axis-path" d="M 0 525 L 0 0"/>
			<path class="y-axis-path-2" d="M 660 525 L 660 0"/>
			<path class="y-gridline" d="M 0 525 L 660 525"/>
			<text class="y-axis-label" x="-5" y="525">
				-200
			</text>
			<path class="y-gridline" d="M 0 394 L 660 394"/>
			<text class="y-axis-label" x="-5" y="394">
				 0
			</text>
			<path class="y-gridline" d="M 0 263 L 660 263"/>
			<text class="y-axis-label" x="-5" y="263">
				200
			</text>
			<path class="y-gridline" d="M 0 132 L 660 132"/>
			<text class="y-axis-label" x="-5" y="132">
				400
			</text>
			<path class="y-gridline" d="M 0 1 L 660 1"/>
			<text class="y-axis-label" x="-5" y="1">
				600
			</text>
		</g>
		<g>
			<path class="series-1-line" d="M 40 402.251571493 L 44 399.939520722 L 48 400.623712643 L 53 386.916512092 L 57 377.921088431 L 62 399.449550144 L 66 392.84816454 L 71 380.485388332 L 75 386.086086745 L 80 367.078087259 L 84 369.580278047 L 89 368.740682521 L 93 336.903627096 L 98 354.424581751 L 102 344.865702278 L 106 354.883566689 L 111 345.644864339 L 115 333.627631752 L 120 335.98900852 L 124 339.041872003 L 129 290.931309921 L 133 358.296632295 L 138 326.369895318 L 142 322.188513479 L 147 298.187308802 L 151 309.613513139 L 156 319.33676666 L 160 318.471804637 L 164 291.128813647 L 169 311.799208657 L 173 280.832803316 L 178 262.695453914 L 182 268.270586094 L 187 268.877879579 L 191 262.007649054 L 196 246.482449638 L 200 200.779108203 L 205 224.381630587 L 209 202.172858543 L 214 207.619760084 L 218 203.246431759 L 222 188.553333339 L 227 188.187512073 L 231 160.89565355 L 236 185.650454054 L 240 173.671770553 L 245 139.235547996 L 249 146.539197225 L 254 158.298361803 L 258 106.782097824 L 263 65.2142943506 L 267 100.864904142 L 272 82.2539802169 L 276 113.256928439 L 280 40.3331385931 L 285 75.7149034637 L 289 0.0 L 294 45.7782336651 L 298 54.8102002075 L 303 75.3525643156 L 307 56.6008263711 L 312 81.1636803903 L 316 101.347717761 L 321 61.7003778221 L 325 34.856727325 L 330 120.825678831 L 334 91.472343018 L 338 147.839191699 L 343 102.199965584 L 347 67.238636565 L 352 14.6981253681 L 356 43.6270129195 L 361 51.5961831572 L 365 111.292035035 L 370 61.350690971 L 374 56.6060530557 L 379 80.4388712746 L 383 80.3804440153 L 388 66.7757081335 L 392 78.1509797402 L 396 81.9848117535 L 401 77.278523188 L 405 121.315456687 L 410 111.65431228 L 414 128.983120713 L 419 162.124244925 L 423 137.188274846 L 428 193.017433685 L 432 151.103886854 L 437 227.098811623 L 441 150.564190806 L 446 158.226366509 L 450 251.954270328 L 454 203.31880152 L 459 193.055851952 L 463 283.160341419 L 468 314.457900531 L 472 339.110236367 L 477 337.976229686 L 481 335.254519975 L 486 359.638010889 L 490 351.410772641 L 495 368.624333289 L 499 343.393752319 L 504 365.818430349 L 508 353.724499062 L 512 393.049855408 L 517 399.034646527 L 521 411.446748733 L 526 400.850838924 L 530 407.475784556 L 535 400.861815572 L 539 404.209090209 L 544 414.137273068 L 548 403.515797026 L 553 416.273642589 L 557 421.784659449 L 562 398.922949777 L 566 396.380403434 L 570 398.396036846 L 575 405.04654871 L 579 408.675451385 L 584 393.815972713 L 588 385.895928737 L 593 356.184266186 L 597 373.103215943 L 602 389.727954281 L 606 393.151927618 L 611 389.53400159 L 615 402.330196503 L 620 395.652311936"/>
			<path class="series-2-line" d="M 40 391.752638029 L 44 384.72909 L 48 397.179821186 L 53 395.649018576 L 57 399.111620894 L 62 412.061692572 L 66 392.554632225 L 71 395.51789405 L 75 400.478517845 L 80 388.461564889 L 84 389.926805235 L 89 386.897981147 L 93 389.861242972 L 98 404.808676622 L 102 398.783809578 L 106 396.254325983 L 111 398.718247315 L 115 386.701294358 L 120 390.663237168 L 124 403.613308847 L 129 394.093058354 L 133 403.547746584 L 138 401.018262989 L 142 393.495374466 L 147 400.952700725 L 151 392.93047171 L 156 377.917475797 L 160 398.357654867 L 164 401.320916692 L 169 392.300006691 L 173 395.762609009 L 178 384.244996545 L 182 393.200344282 L 187 398.160968078 L 191 381.649950686 L 196 391.104638916 L 200 395.565922219 L 205 396.531822073 L 209 396.998381434 L 214 386.978790448 L 218 389.942052273 L 222 386.413887693 L 227 387.379787546 L 231 382.353601488 L 236 378.825436907 L 240 380.290677254 L 245 379.758555629 L 249 391.709946323 L 254 390.179143713 L 258 386.15163864 L 263 388.116219479 L 267 379.095309479 L 272 383.057252289 L 276 378.530406723 L 280 383.990371011 L 285 377.965503967 L 289 390.416235153 L 294 378.898622689 L 298 374.371777123 L 303 365.850207616 L 307 372.308852889 L 312 379.266838656 L 316 387.7228459 L 321 382.197319349 L 325 385.160581173 L 330 394.115928911 L 334 379.60227349 L 338 371.580044475 L 343 385.52879714 L 347 369.517120241 L 352 369.48433911 L 356 376.941665369 L 361 362.927350441 L 365 361.396547832 L 370 364.859150149 L 374 367.323071481 L 379 351.810735075 L 383 363.262785276 L 388 365.227366115 L 392 384.6688642 L 396 392.625530952 L 401 389.097366371 L 405 376.581072922 L 410 386.535101644 L 414 392.494406425 L 419 385.470858396 L 423 382.9413748 L 428 380.911231698 L 432 378.381748103 L 437 385.339733869 L 441 369.827397464 L 446 384.275490621 L 450 390.234795402 L 454 384.70926885 L 459 391.167914124 L 463 397.626559398 L 468 405.583226149 L 472 398.55967812 L 477 402.52162093 L 481 400.99081832 L 486 396.963313247 L 490 397.429872608 L 495 401.891155911 L 499 386.878159998 L 504 396.332848228 L 508 396.300067096 L 512 398.264647936 L 517 401.727250253 L 521 395.702383209 L 526 395.669602077 L 530 396.635501931 L 535 398.60008277 L 539 404.559387551 L 544 396.537158536 L 548 400.499101347 L 553 398.968298737 L 557 398.436177113 L 562 403.396800908 L 566 393.377209922 L 570 392.845088298 L 575 389.81626421 L 579 390.782164064 L 584 393.745425889 L 588 385.223856381 L 593 387.687777713 L 597 379.665548698 L 602 398.108365797 L 606 392.083498753 L 611 394.048079592 L 615 386.52519107 L 620 398.476581763"/>
		</g>
		<text class="x-axis-label" x="40.0" y="540">
			0
		</text>
		<path class="x-notch" d="M 62.3076923077 525 L 62.3076923077 530"/>
		<text class="x-axis-label" x="84.6153846154" y="540">
			10
		</text>
		<path class="x-notch" d="M 106.923076923 525 L 106.923076923 530"/>
		<text class="x-axis-label" x="129.230769231" y="540">
			20
		</text>
		<path class="x-notch" d="M 151.538461538 525 L 151.538461538 530"/>
		<text class="x-axis-label" x="173.846153846" y="540">
			30
		</text>
		<path class="x-notch" d="M 196.153846154 525 L 196.153846154 530"/>
		<text class="x-axis-label" x="218.461538462" y="540">
			40
		</text>
		<path class="x-notch" d="M 240.769230769 525 L 240.769230769 530"/>
		<text class="x-axis-label" x="263.076923077" y="540">
			50
		</text>
		<path class="x-notch" d="M 285.384615385 525 L 285.384615385 530"/>
		<text class="x-axis-label" x="307.692307692" y="540">
			60
		</text>
		<path class="x-notch" d="M 330.0 525 L 330.0 530"/>
		<text class="x-axis-label" x="352.307692308" y="540">
			70
		</text>
		<path class="x-notch" d="M 374.615384615 525 L 374.615384615 530"/>
		<text class="x-axis-label" x="396.923076923" y="540">
			80
		</text>
		<path class="x-notch" d="M 419.230769231 525 L 419.230769231 530"/>
		<text class="x-axis-label" x="441.538461538" y="540">
			90
		</text>
		<path class="x-notch" d="M 463.846153846 525 L 463.846153846 530"/>
		<text class="x-axis-label" x="486.153846154" y="540">
			100
		</text>
		<path class="x-notch" d="M 508.461538462 525 L 508.461538462 530"/>
		<text class="x-axis-label" x="530.769230769" y="540">
			110
		</text>
		<path class="x-notch" d="M 553.076923077 525 L 553.076923077 530"/>
		<text class="x-axis-label" x="575.384615385" y="540">
			120
		</text>
		<path class="x-notch" d="M 597.692307692 525 L 597.692307692 530"/>
		<text class="x-axis-label" x="620.0" y="540">
			130
		</text>
	</g>
</svg>
