<?xml version="1.0" ?>
<svg height="600" version="1.1" width="800" xmlns="http://www.w3.org/2000/svg" xmlns:svg="http://www.w3.org/2000/svg">
	<style type="text/css">
		

.x-axis-path, .y-gridline, .x-notch { fill:none; stroke: #a7a9ac; stroke-width:1; }



.y-gridline { stroke-width: 1; }

.y-axis-path, .y-axis-path2, .x-notch-left, .x-notch-right { display: none;}



.x-axis-label, .data-point-label {font-size: 12px; font-weight:normal; font-family: sans-serif; fill: #58595b; text-anchor:middle;}

.y-axis-label {font-size: 12px; font-family: helvetica; fill: #a7a9ac; text-anchor:end;}



.series-1-line { fill: none; stroke: #10b80c; stroke-width:2; }



.series-2-line { fill: none; stroke: #e90f0a; stroke-width: 2;}

	</style>
	<rect fill="white" height="600" width="800" x="0" y="0"/>
	<g id="grid" transform="translate(70, 30)">
		<g class="x-axis" id="x_axis">
			<path class="x-axis-path" d="M 0 525 L 660 525"/>
			<path class="x-notch-left" d="M 0 525, L 0 535"/>
			<path class="x-notch-right" d="M 660 525, L 660 535"/>
		</g>
		<g class="y-axis" id="y_axis">
			<path class="y-axis-path" d="M 0 525 L 0 0"/>
			<path class="y-axis-path-2" d="M 660 525 L 660 0"/>
			<path class="y-gridline" d="M 0 525 L 660 525"/>
			<text class="y-axis-label" x="-5" y="525">
				-200
			</text>
			<path class="y-gridline" d="M 0 420 L 660 420"/>
			<text class="y-axis-label" x="-5" y="420">
				 0
			</text>
			<path class="y-gridline" d="M 0 315 L 660 315"/>
			<text class="y-axis-label" x="-5" y="315">
				200
			</text>
			<path class="y-gridline" d="M 0 210 L 660 210"/>
			<text class="y-axis-label" x="-5" y="210">
				400
			</text>
			<path class="y-gridline" d="M 0 105 L 660 105"/>
			<text class="y-axis-label" x="-5" y="105">
				600
			</text>
			<path class="y-gridline" d="M 0 0 L 660 0"/>
			<text class="y-axis-label" x="-5" y="0">
				800
			</text>
		</g>
		<g>
			<path class="series-1-line" d="M 40 414.973524 L 44 426.437649591 L 48 414.182905182 L 53 431.368270773 L 57 412.449806364 L 62 407.558291955 L 66 421.943937545 L 70 402.634873136 L 75 406.520518727 L 79 417.217514318 L 84 402.364649909 L 88 415.7000855 L 93 402.233431091 L 97 429.811276682 L 101 407.958272273 L 106 405.718637864 L 110 410.586873455 L 115 393.041599045 L 119 385.538524636 L 124 388.279670227 L 128 357.178475818 L 132 377.594901409 L 137 368.328457 L 141 342.706162591 L 146 347.722448182 L 150 340.138523773 L 155 330.347079364 L 159 352.418934955 L 163 323.633200545 L 168 325.297676136 L 172 308.452331727 L 177 328.585677318 L 181 299.463312909 L 186 274.8240285 L 190 282.653684091 L 194 294.710429682 L 199 261.576645273 L 203 263.980950864 L 208 331.620286455 L 212 269.342282045 L 217 296.852927636 L 221 276.709323227 L 225 253.416138818 L 230 247.043914409 L 234 266.32907 L 239 247.087835591 L 243 236.946321182 L 248 251.681826773 L 252 243.586342364 L 256 245.977627955 L 261 210.245933545 L 265 210.186939136 L 270 230.051484727 L 274 218.523340318 L 279 223.323955909 L 283 215.0940715 L 287 212.477697091 L 292 214.034232682 L 296 226.992718273 L 301 183.735673864 L 305 99.6905394545 L 310 215.347005045 L 314 186.318720636 L 318 179.098516227 L 323 208.628521818 L 327 170.432687409 L 332 179.205033 L 336 185.661498591 L 341 141.812044182 L 345 144.323869773 L 349 175.913765364 L 354 161.006930955 L 358 179.000166545 L 363 185.375992136 L 367 173.766997727 L 372 155.050763318 L 376 195.457298909 L 380 169.6598645 L 385 137.010970091 L 389 176.650375682 L 394 148.672091273 L 398 123.211496864 L 403 177.268242455 L 407 179.861128045 L 411 185.402623636 L 416 183.674549227 L 420 186.348284818 L 425 125.147370409 L 429 150.180856 L 434 213.135511591 L 438 166.742117182 L 442 190.967942773 L 447 206.847738364 L 451 138.861933955 L 456 167.314639545 L 460 179.788865136 L 465 185.599160727 L 469 192.917256318 L 473 244.671981909 L 478 206.8129875 L 482 210.738743091 L 487 232.945418682 L 491 276.959964273 L 496 209.849439864 L 500 287.019205455 L 504 316.077971045 L 509 311.442236636 L 513 309.727812227 L 518 285.639987818 L 522 340.006273409 L 527 396.997769 L 531 391.231184591 L 535 381.035910182 L 540 385.257765773 L 544 356.135611364 L 549 390.821116955 L 553 377.839352545 L 558 410.370888136 L 562 413.192883727 L 566 424.885909318 L 571 408.134854909 L 575 407.6722405 L 580 398.984556091 L 584 420.074031682 L 589 405.086347273 L 593 425.408272864 L 597 425.538068455 L 602 424.321554045 L 606 429.337839636 L 611 417.244375227 L 615 413.456830818 L 620 416.521166409"/>
			<path class="series-2-line" d="M 40 426.09 L 44 409.585113636 L 48 428.255227273 L 53 420.150340909 L 57 413.620454545 L 62 409.715568182 L 66 428.910681818 L 70 401.380795455 L 75 420.575909091 L 79 421.396022727 L 84 435.866136364 L 88 434.58625 L 93 417.031363636 L 97 425.726477273 L 101 426.546590909 L 106 418.441704545 L 110 427.661818182 L 115 432.156931818 L 119 426.152045455 L 124 419.097159091 L 128 408.892272727 L 132 429.137386364 L 137 432.0575 L 141 427.102613636 L 146 433.697727273 L 150 419.817840909 L 155 422.737954545 L 159 409.908068182 L 163 407.053181818 L 168 424.673295455 L 172 422.343409091 L 177 404.788522727 L 181 393.008636364 L 186 419.02875 L 190 416.698863636 L 194 430.643977273 L 199 430.414090909 L 203 393.959204545 L 208 397.929318182 L 212 398.749431818 L 217 417.944545455 L 221 397.764659091 L 225 418.534772727 L 230 420.404886364 L 234 391.825 L 239 415.220113636 L 243 411.315227273 L 248 416.860340909 L 252 400.880454545 L 256 407.475568182 L 261 423.520681818 L 265 402.815795455 L 270 427.260909091 L 274 414.431022727 L 279 393.201136364 L 283 398.22125 L 287 407.966363636 L 292 401.436477273 L 296 397.531590909 L 301 379.451704545 L 305 397.596818182 L 310 384.241931818 L 314 357.762045455 L 318 369.082159091 L 323 400.877272727 L 327 350.772386364 L 332 385.7175 L 336 372.362613636 L 341 344.307727273 L 345 291.052840909 L 349 349.622954545 L 354 352.018068182 L 358 361.238181818 L 363 360.483295455 L 367 339.778409091 L 372 363.173522727 L 376 356.643636364 L 380 338.03875 L 385 364.583863636 L 389 375.378977273 L 394 348.899090909 L 398 359.694204545 L 403 373.639318182 L 407 348.734431818 L 411 375.804545455 L 416 369.799659091 L 420 352.769772727 L 425 369.864886364 L 429 365.96 L 434 363.630113636 L 438 363.925227273 L 442 363.170340909 L 447 374.490454545 L 451 364.810568182 L 456 359.855681818 L 460 390.600795455 L 465 375.670909091 L 469 371.241022727 L 473 375.736136364 L 478 355.03125 L 482 347.451363636 L 487 354.571477273 L 491 379.016590909 L 496 396.636704545 L 500 367.531818182 L 504 390.926931818 L 509 388.072045455 L 513 400.442159091 L 518 381.312272727 L 522 387.907386364 L 527 414.9775 L 531 404.247613636 L 535 408.742727273 L 540 395.912840909 L 544 404.607954545 L 549 410.153068182 L 553 419.373181818 L 558 412.843295455 L 562 413.663409091 L 566 402.408522727 L 571 405.853636364 L 575 407.19875 L 580 401.718863636 L 584 419.338977273 L 589 413.859090909 L 593 407.854204545 L 597 419.174318182 L 602 415.269431818 L 606 421.864545455 L 611 415.334659091 L 615 423.504772727 L 620 427.474886364"/>
		</g>
		<text class="x-axis-label" x="40.0" y="540">
			0
		</text>
		<path class="x-notch" d="M 62.1374045802 525 L 62.1374045802 530"/>
		<text class="x-axis-label" x="84.2748091603" y="540">
			10
		</text>
		<path class="x-notch" d="M 106.41221374 525 L 106.41221374 530"/>
		<text class="x-axis-label" x="128.549618321" y="540">
			20
		</text>
		<path class="x-notch" d="M 150.687022901 525 L 150.687022901 530"/>
		<text class="x-axis-label" x="172.824427481" y="540">
			30
		</text>
		<path class="x-notch" d="M 194.961832061 525 L 194.961832061 530"/>
		<text class="x-axis-label" x="217.099236641" y="540">
			40
		</text>
		<path class="x-notch" d="M 239.236641221 525 L 239.236641221 530"/>
		<text class="x-axis-label" x="261.374045802" y="540">
			50
		</text>
		<path class="x-notch" d="M 283.511450382 525 L 283.511450382 530"/>
		<text class="x-axis-label" x="305.648854962" y="540">
			60
		</text>
		<path class="x-notch" d="M 327.786259542 525 L 327.786259542 530"/>
		<text class="x-axis-label" x="349.923664122" y="540">
			70
		</text>
		<path class="x-notch" d="M 372.061068702 525 L 372.061068702 530"/>
		<text class="x-axis-label" x="394.198473282" y="540">
			80
		</text>
		<path class="x-notch" d="M 416.335877863 525 L 416.335877863 530"/>
		<text class="x-axis-label" x="438.473282443" y="540">
			90
		</text>
		<path class="x-notch" d="M 460.610687023 525 L 460.610687023 530"/>
		<text class="x-axis-label" x="482.748091603" y="540">
			100
		</text>
		<path class="x-notch" d="M 504.885496183 525 L 504.885496183 530"/>
		<text class="x-axis-label" x="527.022900763" y="540">
			110
		</text>
		<path class="x-notch" d="M 549.160305344 525 L 549.160305344 530"/>
		<text class="x-axis-label" x="571.297709924" y="540">
			120
		</text>
		<path class="x-notch" d="M 593.435114504 525 L 593.435114504 530"/>
		<text class="x-axis-label" x="615.572519084" y="540">
			130
		</text>
		<path class="x-notch" d="M 637.709923664 525 L 637.709923664 530"/>
	</g>
</svg>
