<?xml version="1.0" ?>
<svg height="600" version="1.1" width="800" xmlns="http://www.w3.org/2000/svg" xmlns:svg="http://www.w3.org/2000/svg">
	<style type="text/css">
		

.x-axis-path, .y-gridline, .x-notch { fill:none; stroke: #a7a9ac; stroke-width:1; }



.y-gridline { stroke-width: 1; }

.y-axis-path, .y-axis-path2, .x-notch-left, .x-notch-right { display: none;}



.x-axis-label, .data-point-label {font-size: 12px; font-weight:normal; font-family: sans-serif; fill: #58595b; text-anchor:middle;}

.y-axis-label {font-size: 12px; font-family: helvetica; fill: #a7a9ac; text-anchor:end;}



.series-1-line { fill: none; stroke: #10b80c; stroke-width:2; }



.series-2-line { fill: none; stroke: #e90f0a; stroke-width: 2;}

	</style>
	<rect fill="white" height="600" width="800" x="0" y="0"/>
	<g id="grid" transform="translate(70, 30)">
		<g class="x-axis" id="x_axis">
			<path class="x-axis-path" d="M 0 525 L 660 525"/>
			<path class="x-notch-left" d="M 0 525, L 0 535"/>
			<path class="x-notch-right" d="M 660 525, L 660 535"/>
		</g>
		<g class="y-axis" id="y_axis">
			<path class="y-axis-path" d="M 0 525 L 0 0"/>
			<path class="y-axis-path-2" d="M 660 525 L 660 0"/>
			<path class="y-gridline" d="M 0 525 L 660 525"/>
			<text class="y-axis-label" x="-5" y="525">
				-200
			</text>
			<path class="y-gridline" d="M 0 394 L 660 394"/>
			<text class="y-axis-label" x="-5" y="394">
				 0
			</text>
			<path class="y-gridline" d="M 0 263 L 660 263"/>
			<text class="y-axis-label" x="-5" y="263">
				200
			</text>
			<path class="y-gridline" d="M 0 132 L 660 132"/>
			<text class="y-axis-label" x="-5" y="132">
				400
			</text>
			<path class="y-gridline" d="M 0 1 L 660 1"/>
			<text class="y-axis-label" x="-5" y="1">
				600
			</text>
		</g>
		<g>
			<path class="series-1-line" d="M 40 400.444102251 L 47 382.164981044 L 54 392.518485478 L 61 400.735942958 L 69 391.438515165 L 76 395.320068897 L 83 400.034649286 L 90 399.163619336 L 98 394.40518719 L 105 396.620521003 L 112 380.712360267 L 119 386.32394376 L 127 385.880089879 L 134 378.227389917 L 141 388.83713335 L 148 372.384339786 L 156 373.841452736 L 163 370.460680075 L 170 377.065564553 L 177 356.351339823 L 185 332.775002106 L 192 311.056980254 L 199 292.478802478 L 206 253.000152488 L 214 237.679275544 L 221 243.632733177 L 228 229.465264943 L 235 211.111337942 L 243 231.493150481 L 250 172.470528886 L 257 103.398107099 L 264 142.618984086 L 272 126.881593814 L 279 76.8726538561 L 286 79.0666621871 L 293 81.4207782415 L 301 58.4320575278 L 308 38.7004710421 L 315 48.8188953536 L 322 2.65454002204 L 330 0.0 L 337 27.6443055378 L 344 18.9126694494 L 351 18.2124099641 L 359 99.7152209684 L 366 112.631615215 L 373 77.0833515969 L 380 162.622676569 L 388 147.247986104 L 395 89.8276079807 L 402 167.175948442 L 409 256.33577387 L 417 156.579981418 L 424 152.772032687 L 431 269.261796671 L 438 318.575458026 L 446 194.384328045 L 453 344.120685716 L 460 392.665296861 L 467 396.749775887 L 475 393.497122726 L 482 390.842582704 L 489 395.503682781 L 496 396.768533179 L 504 395.577121177 L 511 383.385592173 L 518 394.572123263 L 525 385.894134092 L 533 379.159762715 L 540 395.84643561 L 547 391.258773928 L 554 379.878779493 L 562 383.84580176 L 569 374.388266243 L 576 397.215678441 L 583 387.608531336 L 591 389.588951632 L 598 390.266518237 L 605 398.270554288 L 612 390.212003739 L 620 402.583931762"/>
			<path class="series-2-line" d="M 40 392.333854683 L 47 394.84013365 L 54 397.762925944 L 61 392.771964999 L 69 391.113110682 L 76 396.534982946 L 83 401.956855211 L 90 401.547540879 L 98 406.552899815 L 105 395.730752273 L 112 401.985651194 L 119 397.411203578 L 127 395.335835932 L 134 397.009088241 L 141 392.434640625 L 148 402.438159502 L 156 396.197658572 L 163 397.454397553 L 170 400.377189847 L 177 392.887148932 L 185 393.310861256 L 192 396.233653551 L 199 396.657365875 L 206 392.499431587 L 214 388.341497299 L 221 395.429422877 L 228 390.021948604 L 235 387.946580958 L 243 385.871213312 L 250 392.95913889 L 257 392.133311229 L 264 375.063463761 L 272 370.905529473 L 279 368.830161827 L 286 361.340120912 L 293 345.103300101 L 301 367.602218829 L 308 369.275471139 L 315 360.11937691 L 322 343.049529442 L 330 344.722781751 L 337 363.056567196 L 344 338.072966489 L 351 327.250818947 L 359 358.080004243 L 366 334.762456849 L 373 351.013675652 L 380 336.859421483 L 388 292.299694342 L 395 325.627959608 L 402 354.791091591 L 409 344.385457377 L 417 321.90093664 L 424 324.823728934 L 431 339.408894424 L 438 356.076626555 L 446 344.421452356 L 453 386.913010847 L 460 393.584423097 L 467 399.839322018 L 475 397.347441044 L 482 399.020693353 L 489 396.528812378 L 496 387.789231478 L 504 388.629457131 L 511 399.882515993 L 518 402.805308287 L 525 401.979480626 L 533 390.324306428 L 540 396.162692021 L 547 390.755217748 L 554 389.09636343 L 562 397.433828993 L 569 404.521754572 L 576 394.532633686 L 583 392.45726604 L 591 385.800251782 L 598 387.473504091 L 605 399.55958961 L 612 399.566788606 L 620 396.241880974"/>
		</g>
		<text class="x-axis-label" x="40.0" y="540">
			0
		</text>
		<path class="x-notch" d="M 76.25 525 L 76.25 530"/>
		<text class="x-axis-label" x="112.5" y="540">
			10
		</text>
		<path class="x-notch" d="M 148.75 525 L 148.75 530"/>
		<text class="x-axis-label" x="185.0" y="540">
			20
		</text>
		<path class="x-notch" d="M 221.25 525 L 221.25 530"/>
		<text class="x-axis-label" x="257.5" y="540">
			30
		</text>
		<path class="x-notch" d="M 293.75 525 L 293.75 530"/>
		<text class="x-axis-label" x="330.0" y="540">
			40
		</text>
		<path class="x-notch" d="M 366.25 525 L 366.25 530"/>
		<text class="x-axis-label" x="402.5" y="540">
			50
		</text>
		<path class="x-notch" d="M 438.75 525 L 438.75 530"/>
		<text class="x-axis-label" x="475.0" y="540">
			60
		</text>
		<path class="x-notch" d="M 511.25 525 L 511.25 530"/>
		<text class="x-axis-label" x="547.5" y="540">
			70
		</text>
		<path class="x-notch" d="M 583.75 525 L 583.75 530"/>
		<text class="x-axis-label" x="620.0" y="540">
			80
		</text>
	</g>
</svg>
