<?xml version="1.0" ?>
<svg height="600" version="1.1" width="800" xmlns="http://www.w3.org/2000/svg" xmlns:svg="http://www.w3.org/2000/svg">
	<style type="text/css">
		

.x-axis-path, .y-gridline, .x-notch { fill:none; stroke: #a7a9ac; stroke-width:1; }



.y-gridline { stroke-width: 1; }

.y-axis-path, .y-axis-path2, .x-notch-left, .x-notch-right { display: none;}



.x-axis-label, .data-point-label {font-size: 12px; font-weight:normal; font-family: sans-serif; fill: #58595b; text-anchor:middle;}

.y-axis-label {font-size: 12px; font-family: helvetica; fill: #a7a9ac; text-anchor:end;}



.series-1-line { fill: none; stroke: #10b80c; stroke-width:2; }



.series-2-line { fill: none; stroke: #e90f0a; stroke-width: 2;}

	</style>
	<rect fill="white" height="600" width="800" x="0" y="0"/>
	<g id="grid" transform="translate(70, 30)">
		<g class="x-axis" id="x_axis">
			<path class="x-axis-path" d="M 0 525 L 660 525"/>
			<path class="x-notch-left" d="M 0 525, L 0 535"/>
			<path class="x-notch-right" d="M 660 525, L 660 535"/>
		</g>
		<g class="y-axis" id="y_axis">
			<path class="y-axis-path" d="M 0 525 L 0 0"/>
			<path class="y-axis-path-2" d="M 660 525 L 660 0"/>
			<path class="y-gridline" d="M 0 525 L 660 525"/>
			<text class="y-axis-label" x="-5" y="525">
				-50
			</text>
			<path class="y-gridline" d="M 0 420 L 660 420"/>
			<text class="y-axis-label" x="-5" y="420">
				 0
			</text>
			<path class="y-gridline" d="M 0 315 L 660 315"/>
			<text class="y-axis-label" x="-5" y="315">
				50
			</text>
			<path class="y-gridline" d="M 0 210 L 660 210"/>
			<text class="y-axis-label" x="-5" y="210">
				100
			</text>
			<path class="y-gridline" d="M 0 105 L 660 105"/>
			<text class="y-axis-label" x="-5" y="105">
				150
			</text>
			<path class="y-gridline" d="M 0 0 L 660 0"/>
			<text class="y-axis-label" x="-5" y="0">
				200
			</text>
		</g>
		<g>
			<path class="series-1-line" d="M 40 435.593592 L 43 419.461552263 L 47 422.660432526 L 51 428.066832789 L 55 391.203593053 L 59 431.932833316 L 63 472.016113579 L 66 445.384073842 L 70 439.428634105 L 74 394.058714368 L 78 398.872074632 L 82 399.863434895 L 86 430.200195158 L 89 449.983195421 L 93 455.820515684 L 97 459.288195947 L 101 422.209916211 L 105 401.339436474 L 109 431.676196737 L 112 442.413237 L 116 410.343037263 L 120 403.471997526 L 124 425.570877789 L 128 405.292598053 L 132 403.914318316 L 136 412.820158579 L 139 412.303718842 L 143 386.102599105 L 147 419.077799368 L 151 418.345479632 L 155 404.959399895 L 159 390.873600158 L 162 392.133760421 L 166 391.401440684 L 170 397.238760947 L 174 417.506441211 L 178 320.712561474 L 182 438.334561737 L 185 333.464082 L 189 371.231482263 L 193 341.261282526 L 197 332.344002789 L 201 263.658203053 L 205 233.903043316 L 209 283.624483579 L 212 266.038403842 L 216 227.721124105 L 220 150.689924368 L 224 239.503284632 L 228 69.7486848947 L 232 212.408565158 L 235 150.830005421 L 239 180.467045684 L 243 166.650045947 L 247 113.041406211 L 251 175.416606474 L 255 116.100166737 L 258 112.352247 L 262 79.0430472632 L 266 86.8728475263 L 270 111.340527789 L 274 127.839128053 L 278 118.545528316 L 281 217.967248579 L 285 89.4583288421 L 289 46.9948091053 L 293 200.585609368 L 297 193.445769632 L 301 164.444089895 L 305 213.412050158 L 308 111.126250421 L 312 182.332370684 L 316 229.307850947 L 320 117.383891211 L 324 210.881931474 L 328 237.611731737 L 331 296.540412 L 335 256.501132263 L 339 252.591092526 L 343 316.743732789 L 347 289.196093053 L 351 351.463773316 L 354 364.570453579 L 358 335.623373842 L 362 379.044814105 L 366 410.996894368 L 370 404.072934632 L 374 406.518334895 L 378 406.109415158 L 381 408.284335421 L 385 399.906335684 L 389 431.482095947 L 393 405.442256211 L 397 409.718016474 L 401 409.631656737 L 404 379.822737 L 408 404.613817263 L 412 420.358097526 L 416 392.649177789 L 420 450.070898053 L 424 434.423538316 L 427 412.367818579 L 431 410.343578842 L 435 427.326859105 L 439 418.517939368 L 443 404.754699632 L 447 437.999539895 L 450 432.744660158 L 454 384.304540421 L 458 405.972500684 L 462 400.932660947 L 466 413.338781211 L 470 428.868021474 L 474 393.889741737 L 477 410.334582 L 481 395.386942263 L 485 404.669942526 L 489 418.315062789 L 493 397.067423053 L 497 456.104463316 L 500 449.880223579 L 504 397.724783842 L 508 431.023384105 L 512 410.314184368 L 516 401.989944632 L 520 394.472944895 L 523 426.209985158 L 527 428.008585421 L 531 418.822505684 L 535 406.459545947 L 539 450.635306211 L 543 420.880146474 L 547 403.240306737 L 550 418.769547 L 554 431.660347263 L 558 412.566467526 L 562 425.888187789 L 566 416.056148053 L 570 425.555028316 L 573 399.622708579 L 577 416.444708842 L 581 376.458349105 L 585 404.426309368 L 589 408.432429632 L 593 403.877269895 L 596 425.652750158 L 600 425.889790421 L 604 396.511790684 L 608 377.417910947 L 612 441.193391211 L 616 443.476671474 L 620 445.921231737"/>
			<path class="series-2-line" d="M 40 395.22 L 43 407.529868421 L 47 434.539736842 L 51 444.749605263 L 55 415.059473684 L 59 402.169342105 L 63 408.179210526 L 66 420.489078947 L 70 401.298947368 L 74 470.308815789 L 78 409.118684211 L 82 452.928552632 L 86 423.238421053 L 89 401.948289474 L 93 426.858157895 L 97 411.868026316 L 101 415.777894737 L 105 430.187763158 L 109 400.497631579 L 112 398.1075 L 116 439.817368421 L 120 399.627236842 L 124 426.637105263 L 128 430.546973684 L 132 434.456842105 L 136 390.066710526 L 139 423.376578947 L 143 450.386447368 L 147 418.596315789 L 151 403.606184211 L 155 397.016052632 L 159 417.725921053 L 162 419.535789474 L 166 404.545657895 L 170 429.455526316 L 174 414.465394737 L 178 397.375263158 L 182 428.585131579 L 185 442.995 L 189 400.704868421 L 193 442.414736842 L 197 393.824605263 L 201 414.534473684 L 205 422.644342105 L 209 399.254210526 L 212 392.664078947 L 216 344.073947368 L 220 438.283815789 L 224 377.093684211 L 228 439.803552632 L 232 414.313421053 L 235 390.923289474 L 239 388.533157895 L 243 367.243026316 L 247 411.052894737 L 251 379.262763158 L 255 412.572631579 L 258 376.5825 L 262 365.792368421 L 266 407.502236842 L 270 392.512105263 L 274 392.221973684 L 278 402.431842105 L 281 406.341710526 L 285 422.851578947 L 289 365.861447368 L 293 355.071315789 L 297 356.881184211 L 301 329.291052632 L 305 341.600921053 L 308 362.310789474 L 312 345.220657895 L 316 340.730526316 L 320 390.840394737 L 324 335.950263158 L 328 377.660131579 L 331 310.17 L 335 366.579868421 L 339 273.889736842 L 343 292.499605263 L 347 283.809473684 L 351 268.819342105 L 354 306.329210526 L 358 352.239078947 L 362 328.848947368 L 366 292.858815789 L 370 342.968684211 L 374 405.678552632 L 378 422.188421053 L 381 363.098289474 L 385 394.308157895 L 389 417.118026316 L 393 418.927894737 L 397 441.737763158 L 401 407.847631579 L 404 424.3575 L 408 440.867368421 L 412 394.377236842 L 416 410.887105263 L 420 414.796973684 L 424 433.406842105 L 427 386.916710526 L 431 409.726578947 L 435 415.736447368 L 439 432.246315789 L 443 402.556184211 L 447 410.666052632 L 450 446.075921053 L 454 420.585789474 L 458 432.895657895 L 462 434.705526316 L 466 417.615394737 L 470 404.725263158 L 474 408.635131579 L 477 416.745 L 481 408.054868421 L 485 386.764736842 L 489 422.174605263 L 493 413.484473684 L 497 411.094342105 L 500 433.904210526 L 504 414.714078947 L 508 414.423947368 L 512 403.633815789 L 516 426.443684211 L 520 405.153552632 L 523 402.763421053 L 527 402.473289474 L 531 395.883157895 L 535 393.493026316 L 539 416.302894737 L 543 424.412763158 L 547 426.222631579 L 550 413.3325 L 554 402.542368421 L 558 385.452236842 L 562 389.362105263 L 566 401.671973684 L 570 428.681842105 L 573 413.691710526 L 577 444.901578947 L 581 411.011447368 L 585 423.321315789 L 589 406.231184211 L 593 414.341052632 L 596 409.850921053 L 600 407.460789474 L 604 438.670657895 L 608 421.580526316 L 612 417.090394737 L 616 423.100263158 L 620 403.910131579"/>
		</g>
		<text class="x-axis-label" x="40.0" y="540">
			0
		</text>
		<path class="x-notch" d="M 59.2052980132 525 L 59.2052980132 530"/>
		<text class="x-axis-label" x="78.4105960265" y="540">
			10
		</text>
		<path class="x-notch" d="M 97.6158940397 525 L 97.6158940397 530"/>
		<text class="x-axis-label" x="116.821192053" y="540">
			20
		</text>
		<path class="x-notch" d="M 136.026490066 525 L 136.026490066 530"/>
		<text class="x-axis-label" x="155.231788079" y="540">
			30
		</text>
		<path class="x-notch" d="M 174.437086093 525 L 174.437086093 530"/>
		<text class="x-axis-label" x="193.642384106" y="540">
			40
		</text>
		<path class="x-notch" d="M 212.847682119 525 L 212.847682119 530"/>
		<text class="x-axis-label" x="232.052980132" y="540">
			50
		</text>
		<path class="x-notch" d="M 251.258278146 525 L 251.258278146 530"/>
		<text class="x-axis-label" x="270.463576159" y="540">
			60
		</text>
		<path class="x-notch" d="M 289.668874172 525 L 289.668874172 530"/>
		<text class="x-axis-label" x="308.874172185" y="540">
			70
		</text>
		<path class="x-notch" d="M 328.079470199 525 L 328.079470199 530"/>
		<text class="x-axis-label" x="347.284768212" y="540">
			80
		</text>
		<path class="x-notch" d="M 366.490066225 525 L 366.490066225 530"/>
		<text class="x-axis-label" x="385.695364238" y="540">
			90
		</text>
		<path class="x-notch" d="M 404.900662252 525 L 404.900662252 530"/>
		<text class="x-axis-label" x="424.105960265" y="540">
			100
		</text>
		<path class="x-notch" d="M 443.311258278 525 L 443.311258278 530"/>
		<text class="x-axis-label" x="462.516556291" y="540">
			110
		</text>
		<path class="x-notch" d="M 481.721854305 525 L 481.721854305 530"/>
		<text class="x-axis-label" x="500.927152318" y="540">
			120
		</text>
		<path class="x-notch" d="M 520.132450331 525 L 520.132450331 530"/>
		<text class="x-axis-label" x="539.337748344" y="540">
			130
		</text>
		<path class="x-notch" d="M 558.543046358 525 L 558.543046358 530"/>
		<text class="x-axis-label" x="577.748344371" y="540">
			140
		</text>
		<path class="x-notch" d="M 596.953642384 525 L 596.953642384 530"/>
		<text class="x-axis-label" x="616.158940397" y="540">
			150
		</text>
		<path class="x-notch" d="M 635.364238411 525 L 635.364238411 530"/>
	</g>
</svg>
