<?xml version="1.0" ?>
<svg height="600" version="1.1" width="800" xmlns="http://www.w3.org/2000/svg" xmlns:svg="http://www.w3.org/2000/svg">
	<style type="text/css">

.x-axis-path, .y-gridline, .x-notch { fill:none; stroke: #a7a9ac; stroke-width:1; }



.y-gridline { stroke-width: 1; }

.y-axis-path, .y-axis-path2, .x-notch-left, .x-notch-right { display: none;}



.x-axis-label, .data-point-label {font-size: 12px; font-weight:normal; font-family: sans-serif; fill: #58595b; text-anchor:middle;}

.y-axis-label {font-size: 12px; font-family: helvetica; fill: #a7a9ac; text-anchor:end;}



.series-1-line { fill: none; stroke: #10b80c; stroke-width:2; }



.series-2-line { fill: none; stroke: #e90f0a; stroke-width: 2;}
</style>
	<rect fill="white" height="600" width="800" x="0" y="0"/>
	<g id="grid" transform="translate(70, 30)">
		<g class="x-axis" id="x_axis">
			<path class="x-axis-path" d="M 0 525 L 660 525"/>
			<path class="x-notch-left" d="M 0 525, L 0 535"/>
			<path class="x-notch-right" d="M 660 525, L 660 535"/>
		</g>
		<g class="y-axis" id="y_axis">
			<path class="y-axis-path" d="M 0 525 L 0 0"/>
			<path class="y-axis-path-2" d="M 660 525 L 660 0"/>
			<path class="y-gridline" d="M 0 525 L 660 525"/>
			<text class="y-axis-label" x="-5" y="525">-200</text>
			<path class="y-gridline" d="M 0 394 L 660 394"/>
			<text class="y-axis-label" x="-5" y="394"> 0</text>
			<path class="y-gridline" d="M 0 263 L 660 263"/>
			<text class="y-axis-label" x="-5" y="263">200</text>
			<path class="y-gridline" d="M 0 132 L 660 132"/>
			<text class="y-axis-label" x="-5" y="132">400</text>
			<path class="y-gridline" d="M 0 1 L 660 1"/>
			<text class="y-axis-label" x="-5" y="1">600</text>
		</g>
		<g>
			<path class="series-1-line" d="M 40 410.210834862 L 43 393.181606311 L 47 396.558393376 L 51 402.265472407 L 55 363.352071198 L 59 406.346481853 L 63 448.659007225 L 66 420.545817644 L 70 414.259164123 L 74 366.365981046 L 78 371.447037958 L 82 372.493533056 L 86 404.517482441 L 89 425.400720915 L 93 431.562685708 L 97 435.223222175 L 101 396.082821444 L 105 374.051622959 L 109 406.075572344 L 112 417.409756712 L 116 383.555962034 L 120 376.302787112 L 124 399.630704031 L 128 378.224640948 L 132 376.769707721 L 136 386.170849284 L 139 385.625687578 L 143 357.967383757 L 147 392.77651087 L 151 392.003462925 L 155 377.872911863 L 159 363.003725638 L 162 364.333970138 L 166 363.560922192 L 170 369.722886985 L 174 391.1177611 L 178 288.940657197 L 182 413.104244552 L 185 302.401357825 L 189 342.269204752 L 193 310.63220228 L 197 301.218985032 L 201 228.713201449 L 205 197.303198499 L 209 249.78991338 L 212 231.225777906 L 216 190.777469773 L 220 109.462153963 L 224 203.214899119 L 228 24.0193402419 L 232 174.613297712 L 235 109.610025671 L 239 140.895339893 L 243 126.30990307 L 247 69.7198008098 L 251 135.564018808 L 255 72.9486753312 L 258 68.9923137781 L 262 33.8306116985 L 266 42.0958689358 L 270 67.9243274635 L 274 85.3405029275 L 278 75.5300365166 L 281 180.48112918 L 285 44.8251426643 L 289 0.0 L 293 162.132804261 L 297 154.595879936 L 301 123.98126203 L 305 175.672591867 L 308 67.6981329872 L 312 142.86440557 L 316 192.452442962 L 320 74.3037945731 L 324 173.001759782 L 328 201.218146874 L 331 263.424165503 L 335 221.158087762 L 339 217.03058985 L 343 284.751100771 L 347 255.671389788 L 351 321.402108025 L 354 335.237720718 L 358 304.680739409 L 362 350.517077672 L 366 384.246183622 L 370 376.937145536 L 374 379.518547557 L 378 379.086885612 L 381 381.382764796 L 385 372.538819787 L 389 405.870676574 L 393 378.382622395 L 397 382.896180503 L 401 382.80501784 L 404 351.33826501 L 408 377.508109537 L 412 394.128013241 L 416 364.878052616 L 420 425.493301158 L 424 408.975708249 L 427 385.693352243 L 431 383.556533733 L 435 401.484344838 L 439 392.185514068 L 443 377.656827126 L 447 412.750590358 L 450 407.203458718 L 454 356.069325435 L 458 378.942356593 L 462 373.622224475 L 466 386.718315288 L 470 403.11121947 L 474 366.187610945 L 477 383.547036528 L 481 367.768078782 L 485 377.567356226 L 489 391.97135444 L 493 369.542020075 L 497 431.862425182 L 500 425.29202226 L 504 370.235940206 L 508 405.386453319 L 512 383.525504475 L 516 374.738309347 L 520 366.803249142 L 523 400.30535557 L 527 402.203985592 L 531 392.507018942 L 535 379.456489043 L 539 426.089099066 L 543 394.679096116 L 547 376.058210761 L 550 392.451114943 L 554 406.058841397 L 558 385.903049118 L 562 399.965661333 L 566 389.586809401 L 570 399.613973083 L 573 372.239418665 L 577 389.996980129 L 581 347.786765551 L 585 377.310173328 L 589 381.539095316 L 593 376.730598839 L 596 399.717129759 L 600 399.967353096 L 604 368.955486026 L 608 348.799693748 L 612 416.122068788 L 616 418.532334451 L 620 421.112849755"/>
			<path class="series-2-line" d="M 40 367.591851968 L 43 380.586337861 L 47 409.098369195 L 51 419.876062881 L 55 388.534704652 L 59 374.927684071 L 63 381.271793345 L 66 394.266279237 L 70 374.008882039 L 74 446.856757495 L 78 382.263516174 L 82 428.509885158 L 86 397.168526928 L 89 374.694337523 L 93 400.989576652 L 97 385.165763865 L 101 389.293080933 L 105 404.504359031 L 109 373.163000802 L 112 370.639941252 L 116 414.669518029 L 120 372.244198769 L 124 400.756230104 L 128 404.883547172 L 132 409.01086424 L 136 362.151960568 L 139 397.314368521 L 143 425.826399855 L 147 392.26824942 L 151 376.444436633 L 155 369.487792671 L 159 391.349447387 L 162 393.259972249 L 166 377.436159462 L 170 403.731398591 L 174 387.907585804 L 178 369.866980811 L 182 402.812596558 L 185 418.023874656 L 189 373.381763191 L 193 417.411339968 L 197 366.118851884 L 201 387.980506601 L 205 396.541408081 L 209 371.850426469 L 212 364.893782507 L 216 313.601294423 L 220 413.050676352 L 224 348.457435032 L 228 414.65493387 L 232 387.747160053 L 235 363.056178441 L 239 360.533118891 L 243 338.058929486 L 247 384.305298469 L 251 350.747148034 L 255 385.909555987 L 258 347.917821139 L 262 336.527592765 L 266 380.557169542 L 270 364.733356755 L 274 364.427089411 L 278 375.204783097 L 281 379.332100165 L 285 396.760170469 L 289 336.600513561 L 293 325.210285186 L 297 327.120810048 L 301 297.996244025 L 305 310.990729917 L 308 332.852384634 L 312 314.811779641 L 316 310.071927884 L 320 362.968673486 L 324 305.025808784 L 328 349.055385561 L 331 277.811767622 L 335 337.358889842 L 339 239.513765431 L 343 259.158627941 L 347 249.985191773 L 351 234.161378986 L 354 273.757371351 L 358 322.22053254 L 362 297.529550929 L 366 259.537816082 L 370 312.434561683 L 374 378.632060521 L 378 396.060130825 L 381 333.683681711 L 385 366.629297458 L 389 390.70774438 L 393 392.618269242 L 397 416.696716165 L 401 380.921773523 L 404 398.349843828 L 408 415.777914132 L 412 366.702218254 L 416 384.130288558 L 420 388.257605626 L 424 407.902468137 L 427 358.826772259 L 431 382.905219181 L 435 389.249328455 L 439 406.67739876 L 443 375.33604053 L 447 383.89694201 L 450 421.276142169 L 454 394.368368352 L 458 407.362854244 L 462 409.273379106 L 466 391.232774113 L 470 377.625753533 L 474 381.753070601 L 477 390.313972081 L 481 381.140535912 L 485 358.666346507 L 489 396.045546666 L 493 386.872110497 L 497 384.349050947 L 500 408.42749787 L 504 388.170100671 L 508 387.863833327 L 512 376.473604952 L 516 400.552051874 L 520 378.077862469 L 523 375.554802919 L 527 375.248535575 L 531 368.291891612 L 535 365.768832062 L 539 389.847278985 L 543 398.408180465 L 547 400.318705326 L 550 386.711684746 L 554 375.321456371 L 558 357.280851378 L 562 361.408168446 L 566 374.402654338 L 570 402.914685673 L 573 387.090872886 L 577 420.036488633 L 581 384.261545992 L 585 397.256031884 L 589 379.215426891 L 593 387.776328371 L 596 383.036476615 L 600 380.513417064 L 604 413.459032811 L 608 395.418427818 L 612 390.678576062 L 616 397.022685336 L 620 376.765288137"/>
		</g>
		<text class="x-axis-label" x="40.0" y="540">0</text>
		<path class="x-notch" d="M 59.2052980132 525 L 59.2052980132 530"/>
		<text class="x-axis-label" x="78.4105960265" y="540">10</text>
		<path class="x-notch" d="M 97.6158940397 525 L 97.6158940397 530"/>
		<text class="x-axis-label" x="116.821192053" y="540">20</text>
		<path class="x-notch" d="M 136.026490066 525 L 136.026490066 530"/>
		<text class="x-axis-label" x="155.231788079" y="540">30</text>
		<path class="x-notch" d="M 174.437086093 525 L 174.437086093 530"/>
		<text class="x-axis-label" x="193.642384106" y="540">40</text>
		<path class="x-notch" d="M 212.847682119 525 L 212.847682119 530"/>
		<text class="x-axis-label" x="232.052980132" y="540">50</text>
		<path class="x-notch" d="M 251.258278146 525 L 251.258278146 530"/>
		<text class="x-axis-label" x="270.463576159" y="540">60</text>
		<path class="x-notch" d="M 289.668874172 525 L 289.668874172 530"/>
		<text class="x-axis-label" x="308.874172185" y="540">70</text>
		<path class="x-notch" d="M 328.079470199 525 L 328.079470199 530"/>
		<text class="x-axis-label" x="347.284768212" y="540">80</text>
		<path class="x-notch" d="M 366.490066225 525 L 366.490066225 530"/>
		<text class="x-axis-label" x="385.695364238" y="540">90</text>
		<path class="x-notch" d="M 404.900662252 525 L 404.900662252 530"/>
		<text class="x-axis-label" x="424.105960265" y="540">100</text>
		<path class="x-notch" d="M 443.311258278 525 L 443.311258278 530"/>
		<text class="x-axis-label" x="462.516556291" y="540">110</text>
		<path class="x-notch" d="M 481.721854305 525 L 481.721854305 530"/>
		<text class="x-axis-label" x="500.927152318" y="540">120</text>
		<path class="x-notch" d="M 520.132450331 525 L 520.132450331 530"/>
		<text class="x-axis-label" x="539.337748344" y="540">130</text>
		<path class="x-notch" d="M 558.543046358 525 L 558.543046358 530"/>
		<text class="x-axis-label" x="577.748344371" y="540">140</text>
		<path class="x-notch" d="M 596.953642384 525 L 596.953642384 530"/>
		<text class="x-axis-label" x="616.158940397" y="540">150</text>
		<path class="x-notch" d="M 635.364238411 525 L 635.364238411 530"/>
	</g>
</svg>
