<?xml version="1.0" ?>
<svg height="600" version="1.1" width="800" xmlns="http://www.w3.org/2000/svg" xmlns:svg="http://www.w3.org/2000/svg">
	<style type="text/css">

.x-axis-path, .y-gridline, .x-notch { fill:none; stroke: #a7a9ac; stroke-width:1; }



.y-gridline { stroke-width: 1; }

.y-axis-path, .y-axis-path2, .x-notch-left, .x-notch-right { display: none;}



.x-axis-label, .data-point-label {font-size: 12px; font-weight:normal; font-family: sans-serif; fill: #58595b; text-anchor:middle;}

.y-axis-label {font-size: 12px; font-family: helvetica; fill: #a7a9ac; text-anchor:end;}



.series-1-line { fill: none; stroke: #10b80c; stroke-width:2; }



.series-2-line { fill: none; stroke: #e90f0a; stroke-width: 2;}
</style>
	<rect fill="white" height="600" width="800" x="0" y="0"/>
	<g id="grid" transform="translate(70, 30)">
		<g class="x-axis" id="x_axis">
			<path class="x-axis-path" d="M 0 525 L 660 525"/>
			<path class="x-notch-left" d="M 0 525, L 0 535"/>
			<path class="x-notch-right" d="M 660 525, L 660 535"/>
		</g>
		<g class="y-axis" id="y_axis">
			<path class="y-axis-path" d="M 0 525 L 0 0"/>
			<path class="y-axis-path-2" d="M 660 525 L 660 0"/>
			<path class="y-gridline" d="M 0 525 L 660 525"/>
			<text class="y-axis-label" x="-5" y="525">-200</text>
			<path class="y-gridline" d="M 0 394 L 660 394"/>
			<text class="y-axis-label" x="-5" y="394"> 0</text>
			<path class="y-gridline" d="M 0 263 L 660 263"/>
			<text class="y-axis-label" x="-5" y="263">200</text>
			<path class="y-gridline" d="M 0 132 L 660 132"/>
			<text class="y-axis-label" x="-5" y="132">400</text>
			<path class="y-gridline" d="M 0 1 L 660 1"/>
			<text class="y-axis-label" x="-5" y="1">600</text>
		</g>
		<g>
			<path class="series-1-line" d="M 40 391.695278461 L 44 397.978432005 L 48 392.531039803 L 52 396.138960403 L 57 390.314794146 L 61 380.471508701 L 65 383.61468252 L 69 380.339961925 L 74 378.999465705 L 78 393.509342617 L 82 380.726906052 L 86 386.935018273 L 91 378.988142648 L 95 387.306032835 L 99 393.852908624 L 103 387.425864692 L 108 381.162030739 L 112 402.679944267 L 116 360.495612189 L 121 394.397499166 L 125 386.413004914 L 129 390.184331422 L 133 392.46090532 L 138 367.119137646 L 142 383.651015729 L 146 350.157761939 L 150 355.938746006 L 155 364.821699311 L 159 308.608166668 L 163 296.592013686 L 167 291.621907807 L 172 304.398388947 L 176 314.663043053 L 180 256.879520547 L 185 268.362469543 L 189 260.290198496 L 193 231.996544229 L 197 195.652307974 L 202 151.13189838 L 206 246.262018485 L 210 192.912007849 L 214 201.0792276 L 219 190.909326268 L 223 191.867093008 L 227 143.629101029 L 231 177.103859852 L 236 151.498174002 L 240 143.789941537 L 244 204.669869717 L 248 193.54559167 L 253 102.416291717 L 257 117.817651703 L 261 121.475926402 L 266 39.8167237923 L 270 82.0454545449 L 274 82.1242777521 L 278 27.7820758437 L 283 21.0787701239 L 287 75.8045261358 L 291 29.8395221012 L 295 68.1623814061 L 300 38.2613145799 L 304 76.9609479402 L 308 46.6452925018 L 312 50.2910276581 L 317 4.17535318744 L 321 35.6657294664 L 325 0.0 L 330 50.3549418531 L 334 76.1431572723 L 338 40.4772318755 L 342 77.6321503879 L 347 50.5066328432 L 351 78.9702771371 L 355 55.0727120428 L 359 58.0401363412 L 364 119.321917661 L 368 125.278651248 L 372 116.527873413 L 376 83.1353278207 L 381 113.269278314 L 385 131.496541681 L 389 131.688612628 L 393 87.2812548444 L 398 112.341197167 L 402 152.32182313 L 406 130.973899628 L 411 141.540090536 L 415 184.597802582 L 419 150.438973407 L 423 177.006011952 L 428 221.960525678 L 432 204.493394539 L 436 238.06866563 L 440 215.703275842 L 445 200.986810831 L 449 226.19761952 L 453 210.463688223 L 457 266.056044155 L 462 243.942033001 L 466 246.720972306 L 470 226.578804154 L 475 266.132497892 L 479 248.678102227 L 483 276.513593831 L 487 273.226333694 L 492 269.662811769 L 496 293.177843314 L 500 292.528197495 L 504 285.259436796 L 509 299.60610373 L 513 277.328686667 L 517 291.047200911 L 521 289.98316241 L 526 301.528809118 L 530 333.873245775 L 534 317.473935022 L 538 324.975383458 L 543 316.752246044 L 547 337.441374208 L 551 332.810227828 L 556 363.609949637 L 560 340.013725415 L 564 348.495021511 L 568 370.414984109 L 573 372.239546699 L 577 374.491041513 L 581 376.378497744 L 585 373.053618981 L 590 383.23030036 L 594 366.064706024 L 598 374.508187563 L 602 397.68425961 L 607 385.906749789 L 611 392.089391065 L 615 400.156098549 L 620 393.050743759"/>
			<path class="series-2-line" d="M 40 397.178781055 L 44 389.808510704 L 48 397.622842168 L 52 387.313616626 L 57 396.597425685 L 61 402.452453689 L 65 388.224621228 L 69 381.834002606 L 74 379.361990905 L 78 387.666148234 L 82 374.417967503 L 86 397.906726647 L 91 394.455063216 L 95 394.43218084 L 99 384.122955298 L 103 391.937286762 L 108 393.383881981 L 112 378.17639779 L 116 385.990729254 L 121 387.437324472 L 125 389.863571421 L 129 392.28981837 L 133 379.531463504 L 138 396.162660538 L 142 394.670300567 L 146 383.87124916 L 150 397.563491005 L 155 385.784787868 L 159 385.272079627 L 163 386.228848981 L 167 396.002483905 L 172 388.142387688 L 176 390.078808772 L 180 386.137319476 L 185 389.05339229 L 189 405.194763459 L 193 385.578846482 L 197 380.167879591 L 202 389.45168865 L 206 390.898283869 L 210 383.038187653 L 214 387.423738062 L 219 386.91102982 L 223 369.744242169 L 227 385.885613338 L 231 377.535691257 L 236 378.002634745 L 240 375.530623044 L 244 371.099307883 L 248 385.771201457 L 253 387.707622541 L 257 371.520486619 L 261 372.477255973 L 266 387.149149548 L 270 369.492536031 L 274 374.85773817 L 278 368.956945413 L 283 381.669535528 L 287 382.136479016 L 291 368.39847242 L 295 367.885764179 L 300 369.822185263 L 304 367.839999426 L 308 358.02059975 L 312 360.936672564 L 317 351.607098752 L 321 347.175783591 L 325 369.684891005 L 330 364.273924114 L 334 351.515569248 L 338 354.921467927 L 342 364.695102851 L 347 353.896051444 L 351 363.179860503 L 355 364.626455722 L 359 358.725662966 L 364 348.906263289 L 368 354.271465428 L 372 342.492762292 L 376 354.225700676 L 381 351.26386311 L 385 333.607249593 L 389 359.545138063 L 393 370.298424717 L 398 375.663626856 L 402 364.864575449 L 406 369.739951723 L 411 381.962715972 L 415 368.714535241 L 419 366.24252354 L 423 365.729815298 L 428 381.381360603 L 432 373.031438521 L 436 368.110297495 L 440 359.760375413 L 445 361.696796497 L 449 381.756774587 L 453 370.467897315 L 457 369.465363209 L 462 379.238998133 L 466 364.521339807 L 470 372.335671271 L 475 370.843311299 L 479 379.637294494 L 483 372.267024142 L 487 367.835708981 L 492 368.30265247 L 496 366.320466633 L 500 370.706017042 L 504 356.968010446 L 509 371.63990402 L 513 368.678066454 L 517 366.695880618 L 521 378.428819002 L 526 371.548374515 L 530 367.606885219 L 534 383.748256388 L 538 377.357637767 L 543 378.804232986 L 547 378.291524745 L 551 373.370383718 L 556 381.184715182 L 560 373.814444831 L 564 386.527034945 L 568 385.034674974 L 573 385.501618463 L 577 376.661870516 L 581 386.435505441 L 585 387.882100659 L 590 384.430437228 L 594 386.366858312 L 598 385.854150071 L 602 398.566740185 L 607 400.503161269 L 611 389.704109862 L 615 390.660879216 L 620 389.65834511"/>
		</g>
		<text class="x-axis-label" x="40.0" y="540">0</text>
		<path class="x-notch" d="M 61.3235294118 525 L 61.3235294118 530"/>
		<text class="x-axis-label" x="82.6470588235" y="540">10</text>
		<path class="x-notch" d="M 103.970588235 525 L 103.970588235 530"/>
		<text class="x-axis-label" x="125.294117647" y="540">20</text>
		<path class="x-notch" d="M 146.617647059 525 L 146.617647059 530"/>
		<text class="x-axis-label" x="167.941176471" y="540">30</text>
		<path class="x-notch" d="M 189.264705882 525 L 189.264705882 530"/>
		<text class="x-axis-label" x="210.588235294" y="540">40</text>
		<path class="x-notch" d="M 231.911764706 525 L 231.911764706 530"/>
		<text class="x-axis-label" x="253.235294118" y="540">50</text>
		<path class="x-notch" d="M 274.558823529 525 L 274.558823529 530"/>
		<text class="x-axis-label" x="295.882352941" y="540">60</text>
		<path class="x-notch" d="M 317.205882353 525 L 317.205882353 530"/>
		<text class="x-axis-label" x="338.529411765" y="540">70</text>
		<path class="x-notch" d="M 359.852941176 525 L 359.852941176 530"/>
		<text class="x-axis-label" x="381.176470588" y="540">80</text>
		<path class="x-notch" d="M 402.5 525 L 402.5 530"/>
		<text class="x-axis-label" x="423.823529412" y="540">90</text>
		<path class="x-notch" d="M 445.147058824 525 L 445.147058824 530"/>
		<text class="x-axis-label" x="466.470588235" y="540">100</text>
		<path class="x-notch" d="M 487.794117647 525 L 487.794117647 530"/>
		<text class="x-axis-label" x="509.117647059" y="540">110</text>
		<path class="x-notch" d="M 530.441176471 525 L 530.441176471 530"/>
		<text class="x-axis-label" x="551.764705882" y="540">120</text>
		<path class="x-notch" d="M 573.088235294 525 L 573.088235294 530"/>
		<text class="x-axis-label" x="594.411764706" y="540">130</text>
		<path class="x-notch" d="M 615.735294118 525 L 615.735294118 530"/>
	</g>
</svg>
