<?xml version="1.0" ?>
<svg height="600" version="1.1" width="800" xmlns="http://www.w3.org/2000/svg" xmlns:svg="http://www.w3.org/2000/svg">
	<style type="text/css">
		

.x-axis-path, .y-gridline, .x-notch { fill:none; stroke: #a7a9ac; stroke-width:1; }



.y-gridline { stroke-width: 1; }

.y-axis-path, .y-axis-path2, .x-notch-left, .x-notch-right { display: none;}



.x-axis-label, .data-point-label {font-size: 12px; font-weight:normal; font-family: sans-serif; fill: #58595b; text-anchor:middle;}

.y-axis-label {font-size: 12px; font-family: helvetica; fill: #a7a9ac; text-anchor:end;}



.series-1-line { fill: none; stroke: #10b80c; stroke-width:2; }



.series-2-line { fill: none; stroke: #e90f0a; stroke-width: 2;}

	</style>
	<rect fill="white" height="600" width="800" x="0" y="0"/>
	<g id="grid" transform="translate(70, 30)">
		<g class="x-axis" id="x_axis">
			<path class="x-axis-path" d="M 0 525 L 660 525"/>
			<path class="x-notch-left" d="M 0 525, L 0 535"/>
			<path class="x-notch-right" d="M 660 525, L 660 535"/>
		</g>
		<g class="y-axis" id="y_axis">
			<path class="y-axis-path" d="M 0 525 L 0 0"/>
			<path class="y-axis-path-2" d="M 660 525 L 660 0"/>
			<path class="y-gridline" d="M 0 525 L 660 525"/>
			<text class="y-axis-label" x="-5" y="525">
				-100
			</text>
			<path class="y-gridline" d="M 0 438 L 660 438"/>
			<text class="y-axis-label" x="-5" y="438">
				 0
			</text>
			<path class="y-gridline" d="M 0 351 L 660 351"/>
			<text class="y-axis-label" x="-5" y="351">
				100
			</text>
			<path class="y-gridline" d="M 0 264 L 660 264"/>
			<text class="y-axis-label" x="-5" y="264">
				200
			</text>
			<path class="y-gridline" d="M 0 177 L 660 177"/>
			<text class="y-axis-label" x="-5" y="177">
				300
			</text>
			<path class="y-gridline" d="M 0 90 L 660 90"/>
			<text class="y-axis-label" x="-5" y="90">
				400
			</text>
			<path class="y-gridline" d="M 0 3 L 660 3"/>
			<text class="y-axis-label" x="-5" y="3">
				500
			</text>
		</g>
		<g>
			<path class="series-1-line" d="M 40 446.45195 L 44 424.463536204 L 48 390.561822409 L 52 480.124708613 L 57 440.052844818 L 61 420.106331022 L 65 448.733517226 L 69 466.748003431 L 74 427.573889635 L 78 437.758525839 L 82 438.722062044 L 86 425.797948248 L 91 432.729334453 L 95 441.276320657 L 99 429.316806861 L 103 429.988793066 L 108 420.85622927 L 112 441.271715474 L 116 446.475501679 L 121 460.137737883 L 125 439.562974088 L 129 411.270010292 L 133 464.307246496 L 138 384.210082701 L 142 425.603168905 L 146 396.121255109 L 150 432.713041314 L 155 405.160327518 L 159 418.867713723 L 163 442.087749927 L 167 379.894136131 L 172 400.130072336 L 176 369.57120854 L 180 366.630844745 L 185 355.927830949 L 189 352.426767153 L 193 298.915953358 L 197 366.491489562 L 202 301.650475766 L 206 275.422161971 L 210 306.987948175 L 214 220.16028438 L 219 243.178020584 L 223 269.157456788 L 227 200.210942993 L 231 245.283229197 L 236 248.759765401 L 240 207.005451606 L 244 173.79918781 L 248 210.637724015 L 253 168.681460219 L 257 122.910896423 L 261 191.541332628 L 266 188.623368832 L 270 139.442755036 L 274 186.108241241 L 278 132.350677445 L 283 65.0194136496 L 287 156.399499854 L 291 61.0010360584 L 295 171.339572263 L 300 43.7005084672 L 304 100.170544672 L 308 109.076280876 L 312 109.09761708 L 317 174.631603285 L 321 55.7425394891 L 325 77.4369256934 L 330 77.9293618978 L 334 38.8000481022 L 338 7.29863430657 L 342 49.3647705109 L 347 98.3189067153 L 351 112.09314292 L 355 54.1849291241 L 359 83.6195653285 L 364 93.6698015328 L 368 157.453787737 L 372 95.9783739416 L 376 64.095810146 L 381 193.10089635 L 385 177.910532555 L 389 215.467268759 L 393 203.978854964 L 398 170.548241168 L 402 206.646527372 L 406 193.610063577 L 411 229.932699781 L 415 220.665385985 L 419 240.92372219 L 423 210.768758394 L 428 321.107294599 L 432 312.917280803 L 436 320.992817007 L 440 282.199853212 L 445 295.929639416 L 449 310.19772562 L 453 279.571311825 L 457 320.740048029 L 462 343.354234234 L 466 367.337270438 L 470 354.996256642 L 475 288.786742847 L 479 334.375279051 L 483 320.778115255 L 487 302.06535146 L 492 336.413287664 L 496 364.703773869 L 500 336.388760073 L 504 328.445146277 L 509 347.963232482 L 513 339.301768686 L 517 388.637054891 L 521 377.911641095 L 526 314.685877299 L 530 415.287413504 L 534 388.004199708 L 538 424.618385912 L 543 385.533872117 L 547 396.548708321 L 551 414.047644526 L 556 349.43098073 L 560 383.801666934 L 564 393.829153139 L 568 387.882639343 L 573 417.586425547 L 577 418.393161752 L 581 415.250847956 L 585 452.560484161 L 590 430.662020365 L 594 450.269706569 L 598 422.111492774 L 602 436.088028978 L 607 448.695715182 L 611 440.662501387 L 615 446.404937591 L 620 424.416523796"/>
			<path class="series-2-line" d="M 40 440.125 L 44 434.743430657 L 48 445.111861314 L 52 441.480291971 L 57 424.723722628 L 61 442.092153285 L 65 457.710583942 L 69 422.579014599 L 74 436.447445255 L 78 428.440875912 L 82 425.684306569 L 86 439.552737226 L 91 427.171167883 L 95 435.78959854 L 99 435.658029197 L 103 444.276459854 L 108 446.769890511 L 112 446.638321168 L 116 430.756751825 L 121 426.250182482 L 125 439.243613139 L 129 427.737043796 L 133 423.230474453 L 138 439.723905109 L 142 443.092335766 L 146 446.460766423 L 150 448.07919708 L 155 423.447627737 L 159 446.066058394 L 163 452.059489051 L 167 439.677919708 L 172 433.421350365 L 176 434.164781022 L 180 426.158211679 L 185 434.776642336 L 189 446.020072993 L 193 444.13850365 L 197 423.881934307 L 202 415.000364964 L 206 456.86879562 L 210 423.487226277 L 214 466.230656934 L 219 435.474087591 L 223 420.467518248 L 227 437.835948905 L 231 413.204379562 L 236 427.947810219 L 240 434.816240876 L 244 439.059671533 L 248 436.30310219 L 253 440.546532847 L 257 425.539963504 L 261 445.533394161 L 266 434.026824818 L 270 439.145255474 L 274 439.013686131 L 278 441.507116788 L 283 445.750547445 L 287 431.618978102 L 291 446.362408759 L 295 443.605839416 L 300 437.349270073 L 304 443.34270073 L 308 430.086131387 L 312 437.829562044 L 317 428.947992701 L 321 422.691423358 L 325 427.809854015 L 330 430.303284672 L 334 437.171715328 L 338 414.290145985 L 342 415.033576642 L 347 433.277007299 L 351 411.270437956 L 355 412.888868613 L 359 404.88229927 L 364 417.875729927 L 368 408.994160584 L 372 421.112591241 L 376 423.606021898 L 381 409.474452555 L 385 401.467883212 L 389 423.211313869 L 393 417.829744526 L 398 422.948175182 L 402 433.316605839 L 406 430.560036496 L 411 440.053467153 L 415 429.42189781 L 419 419.665328467 L 423 425.658759124 L 428 422.902189781 L 432 449.020620438 L 436 428.764051095 L 440 417.257481752 L 445 436.375912409 L 449 439.744343066 L 453 416.862773723 L 457 421.10620438 L 462 419.224635036 L 466 442.718065693 L 470 433.83649635 L 475 433.704927007 L 479 430.948357664 L 483 447.441788321 L 487 442.935218978 L 492 419.178649635 L 496 419.047080292 L 500 445.165510949 L 504 432.783941606 L 509 436.152372263 L 513 433.39580292 L 517 426.264233577 L 521 438.382664234 L 526 416.376094891 L 530 431.119525547 L 534 432.737956204 L 538 430.856386861 L 543 430.724817518 L 547 429.718248175 L 551 440.961678832 L 556 431.205109489 L 560 438.073540146 L 564 420.441970803 L 568 437.81040146 L 573 421.928832117 L 577 443.672262774 L 581 433.040693431 L 585 425.034124088 L 590 439.777554745 L 594 429.145985401 L 598 430.764416058 L 602 445.507846715 L 607 434.876277372 L 611 436.494708029 L 615 438.988138686 L 620 433.606569343"/>
		</g>
		<text class="x-axis-label" x="40.0" y="540">
			0
		</text>
		<path class="x-notch" d="M 61.3235294118 525 L 61.3235294118 530"/>
		<text class="x-axis-label" x="82.6470588235" y="540">
			10
		</text>
		<path class="x-notch" d="M 103.970588235 525 L 103.970588235 530"/>
		<text class="x-axis-label" x="125.294117647" y="540">
			20
		</text>
		<path class="x-notch" d="M 146.617647059 525 L 146.617647059 530"/>
		<text class="x-axis-label" x="167.941176471" y="540">
			30
		</text>
		<path class="x-notch" d="M 189.264705882 525 L 189.264705882 530"/>
		<text class="x-axis-label" x="210.588235294" y="540">
			40
		</text>
		<path class="x-notch" d="M 231.911764706 525 L 231.911764706 530"/>
		<text class="x-axis-label" x="253.235294118" y="540">
			50
		</text>
		<path class="x-notch" d="M 274.558823529 525 L 274.558823529 530"/>
		<text class="x-axis-label" x="295.882352941" y="540">
			60
		</text>
		<path class="x-notch" d="M 317.205882353 525 L 317.205882353 530"/>
		<text class="x-axis-label" x="338.529411765" y="540">
			70
		</text>
		<path class="x-notch" d="M 359.852941176 525 L 359.852941176 530"/>
		<text class="x-axis-label" x="381.176470588" y="540">
			80
		</text>
		<path class="x-notch" d="M 402.5 525 L 402.5 530"/>
		<text class="x-axis-label" x="423.823529412" y="540">
			90
		</text>
		<path class="x-notch" d="M 445.147058824 525 L 445.147058824 530"/>
		<text class="x-axis-label" x="466.470588235" y="540">
			100
		</text>
		<path class="x-notch" d="M 487.794117647 525 L 487.794117647 530"/>
		<text class="x-axis-label" x="509.117647059" y="540">
			110
		</text>
		<path class="x-notch" d="M 530.441176471 525 L 530.441176471 530"/>
		<text class="x-axis-label" x="551.764705882" y="540">
			120
		</text>
		<path class="x-notch" d="M 573.088235294 525 L 573.088235294 530"/>
		<text class="x-axis-label" x="594.411764706" y="540">
			130
		</text>
		<path class="x-notch" d="M 615.735294118 525 L 615.735294118 530"/>
	</g>
</svg>
