<?xml version="1.0" ?>
<svg height="600" version="1.1" width="800" xmlns="http://www.w3.org/2000/svg" xmlns:svg="http://www.w3.org/2000/svg">
	<style type="text/css">
		

.x-axis-path, .y-gridline, .x-notch { fill:none; stroke: #a7a9ac; stroke-width:1; }



.y-gridline { stroke-width: 1; }

.y-axis-path, .y-axis-path2, .x-notch-left, .x-notch-right { display: none;}



.x-axis-label, .data-point-label {font-size: 12px; font-weight:normal; font-family: sans-serif; fill: #58595b; text-anchor:middle;}

.y-axis-label {font-size: 12px; font-family: helvetica; fill: #a7a9ac; text-anchor:end;}



.series-1-line { fill: none; stroke: #10b80c; stroke-width:2; }



.series-2-line { fill: none; stroke: #e90f0a; stroke-width: 2;}

	</style>
	<rect fill="white" height="600" width="800" x="0" y="0"/>
	<g id="grid" transform="translate(70, 30)">
		<g class="x-axis" id="x_axis">
			<path class="x-axis-path" d="M 0 525 L 660 525"/>
			<path class="x-notch-left" d="M 0 525, L 0 535"/>
			<path class="x-notch-right" d="M 660 525, L 660 535"/>
		</g>
		<g class="y-axis" id="y_axis">
			<path class="y-axis-path" d="M 0 525 L 0 0"/>
			<path class="y-axis-path-2" d="M 660 525 L 660 0"/>
			<path class="y-gridline" d="M 0 525 L 660 525"/>
			<text class="y-axis-label" x="-5" y="525">
				-100
			</text>
			<path class="y-gridline" d="M 0 394 L 660 394"/>
			<text class="y-axis-label" x="-5" y="394">
				 0
			</text>
			<path class="y-gridline" d="M 0 263 L 660 263"/>
			<text class="y-axis-label" x="-5" y="263">
				100
			</text>
			<path class="y-gridline" d="M 0 132 L 660 132"/>
			<text class="y-axis-label" x="-5" y="132">
				200
			</text>
			<path class="y-gridline" d="M 0 1 L 660 1"/>
			<text class="y-axis-label" x="-5" y="1">
				300
			</text>
		</g>
		<g>
			<path class="series-1-line" d="M 40 405.360375 L 46 409.710775052 L 52 378.085025103 L 58 384.757500155 L 64 386.213575206 L 70 379.525325258 L 76 378.490800309 L 82 387.821875361 L 88 385.879100412 L 94 410.455125464 L 100 413.997550515 L 106 414.309125567 L 112 378.005625619 L 118 409.41347567 L 124 410.835950722 L 130 410.070750773 L 136 419.166100825 L 142 390.131750876 L 148 390.342525928 L 154 379.582375979 L 160 345.802551031 L 166 335.782651082 L 172 356.724101134 L 178 249.848526186 L 185 279.809476237 L 191 207.294101289 L 197 179.60585134 L 203 250.287901392 L 209 124.498676443 L 215 83.8534264948 L 221 107.824126546 L 227 26.9628265979 L 233 114.438051649 L 239 18.836326701 L 245 31.8355767526 L 251 39.8877518041 L 257 40.8051768557 L 263 117.174551907 L 269 36.8519019588 L 275 17.0722520103 L 281 83.3458770619 L 287 91.7004521134 L 293 84.2383521649 L 299 73.3096772165 L 305 153.010702268 L 311 166.54860232 L 317 205.427727371 L 323 232.225027423 L 330 204.839702474 L 336 216.593652526 L 342 226.160452577 L 348 245.352077629 L 354 192.55780268 L 360 285.013702732 L 366 285.056477784 L 372 325.214502835 L 378 285.208702887 L 384 331.996427938 L 390 335.80817799 L 396 324.509378041 L 402 299.345328093 L 408 355.993603144 L 414 337.795778196 L 420 364.828803247 L 426 166.245703299 L 432 281.990603351 L 438 284.759178402 L 444 390.777928454 L 450 423.296153505 L 456 369.963753557 L 462 338.640928608 L 468 396.16437866 L 475 410.846253711 L 481 424.282828763 L 487 397.436153814 L 493 425.882478866 L 499 420.304603918 L 505 413.111828969 L 511 405.851329021 L 517 437.292779072 L 523 413.811354124 L 529 416.950054175 L 535 415.108079227 L 541 403.439154278 L 547 418.82767933 L 553 387.807779381 L 559 416.557029433 L 565 401.253529485 L 571 423.810404536 L 577 398.074104588 L 583 423.155179639 L 589 416.534129691 L 595 413.009529742 L 601 396.157804794 L 607 408.854129845 L 613 393.651429897 L 620 364.011229948"/>
			<path class="series-2-line" d="M 40 374.0625 L 46 390.83814433 L 52 389.23878866 L 58 402.07693299 L 64 409.66507732 L 70 408.065721649 L 76 394.653865979 L 82 402.242010309 L 88 428.205154639 L 94 412.168298969 L 100 401.381443299 L 106 382.719587629 L 112 394.245231959 L 118 387.395876289 L 124 400.234020619 L 130 396.009664948 L 136 389.160309278 L 142 392.810953608 L 148 389.899097938 L 154 409.299742268 L 160 385.387886598 L 166 391.663530928 L 172 379.564175258 L 178 395.027319588 L 185 409.177963918 L 191 387.891108247 L 197 386.291752577 L 203 395.192396907 L 209 392.280541237 L 215 364.431185567 L 221 391.706829897 L 227 392.732474227 L 233 392.445618557 L 239 389.533762887 L 245 387.934407216 L 251 390.272551546 L 257 379.485695876 L 263 371.323840206 L 269 390.724484536 L 275 383.875128866 L 281 415.088273196 L 287 370.176417526 L 293 386.952061856 L 299 381.415206186 L 305 365.378350515 L 311 382.153994845 L 317 387.117139175 L 323 382.892783505 L 330 385.230927835 L 336 373.131572165 L 342 395.157216495 L 348 400.120360825 L 354 373.583505155 L 360 364.109149485 L 366 387.447293814 L 372 397.660438144 L 378 372.436082474 L 384 372.149226804 L 390 370.549871134 L 396 371.575515464 L 402 385.726159794 L 408 382.814304124 L 414 385.152448454 L 420 395.365592784 L 426 333.391237113 L 432 376.416881443 L 438 384.005025773 L 444 408.655670103 L 450 382.118814433 L 456 388.394458763 L 462 390.732603093 L 468 404.883247423 L 475 396.721391753 L 481 378.059536082 L 487 398.772680412 L 493 393.235824742 L 499 371.948969072 L 505 397.912113402 L 511 383.187757732 L 517 371.088402062 L 523 378.676546392 L 529 379.702190722 L 535 389.915335052 L 541 397.503479381 L 547 381.466623711 L 553 387.742268041 L 559 386.142912371 L 565 397.668556701 L 571 389.506701031 L 577 390.532345361 L 583 398.120489691 L 589 386.021134021 L 595 402.796778351 L 601 399.88492268 L 607 394.34806701 L 613 390.12371134 L 620 385.89935567"/>
		</g>
		<text class="x-axis-label" x="40.0" y="540">
			0
		</text>
		<path class="x-notch" d="M 70.2083333333 525 L 70.2083333333 530"/>
		<text class="x-axis-label" x="100.416666667" y="540">
			10
		</text>
		<path class="x-notch" d="M 130.625 525 L 130.625 530"/>
		<text class="x-axis-label" x="160.833333333" y="540">
			20
		</text>
		<path class="x-notch" d="M 191.041666667 525 L 191.041666667 530"/>
		<text class="x-axis-label" x="221.25" y="540">
			30
		</text>
		<path class="x-notch" d="M 251.458333333 525 L 251.458333333 530"/>
		<text class="x-axis-label" x="281.666666667" y="540">
			40
		</text>
		<path class="x-notch" d="M 311.875 525 L 311.875 530"/>
		<text class="x-axis-label" x="342.083333333" y="540">
			50
		</text>
		<path class="x-notch" d="M 372.291666667 525 L 372.291666667 530"/>
		<text class="x-axis-label" x="402.5" y="540">
			60
		</text>
		<path class="x-notch" d="M 432.708333333 525 L 432.708333333 530"/>
		<text class="x-axis-label" x="462.916666667" y="540">
			70
		</text>
		<path class="x-notch" d="M 493.125 525 L 493.125 530"/>
		<text class="x-axis-label" x="523.333333333" y="540">
			80
		</text>
		<path class="x-notch" d="M 553.541666667 525 L 553.541666667 530"/>
		<text class="x-axis-label" x="583.75" y="540">
			90
		</text>
		<path class="x-notch" d="M 613.958333333 525 L 613.958333333 530"/>
	</g>
</svg>
