<?xml version="1.0" ?>
<svg height="600" version="1.1" width="800" xmlns="http://www.w3.org/2000/svg" xmlns:svg="http://www.w3.org/2000/svg">
	<style type="text/css">
		

.x-axis-path, .y-gridline, .x-notch { fill:none; stroke: #a7a9ac; stroke-width:1; }



.y-gridline { stroke-width: 1; }

.y-axis-path, .y-axis-path2, .x-notch-left, .x-notch-right { display: none;}



.x-axis-label, .data-point-label {font-size: 12px; font-weight:normal; font-family: sans-serif; fill: #58595b; text-anchor:middle;}

.y-axis-label {font-size: 12px; font-family: helvetica; fill: #a7a9ac; text-anchor:end;}



.series-1-line { fill: none; stroke: #10b80c; stroke-width:2; }



.series-2-line { fill: none; stroke: #e90f0a; stroke-width: 2;}

	</style>
	<rect fill="white" height="600" width="800" x="0" y="0"/>
	<g id="grid" transform="translate(70, 30)">
		<g class="x-axis" id="x_axis">
			<path class="x-axis-path" d="M 0 525 L 660 525"/>
			<path class="x-notch-left" d="M 0 525, L 0 535"/>
			<path class="x-notch-right" d="M 660 525, L 660 535"/>
		</g>
		<g class="y-axis" id="y_axis">
			<path class="y-axis-path" d="M 0 525 L 0 0"/>
			<path class="y-axis-path-2" d="M 660 525 L 660 0"/>
			<path class="y-gridline" d="M 0 525 L 660 525"/>
			<text class="y-axis-label" x="-5" y="525">
				-250
			</text>
			<path class="y-gridline" d="M 0 420 L 660 420"/>
			<text class="y-axis-label" x="-5" y="420">
				 0
			</text>
			<path class="y-gridline" d="M 0 315 L 660 315"/>
			<text class="y-axis-label" x="-5" y="315">
				250
			</text>
			<path class="y-gridline" d="M 0 210 L 660 210"/>
			<text class="y-axis-label" x="-5" y="210">
				500
			</text>
			<path class="y-gridline" d="M 0 105 L 660 105"/>
			<text class="y-axis-label" x="-5" y="105">
				750
			</text>
			<path class="y-gridline" d="M 0 0 L 660 0"/>
			<text class="y-axis-label" x="-5" y="0">
				1000
			</text>
		</g>
		<g>
			<path class="series-1-line" d="M 40 409.8814272 L 45 407.881584096 L 51 422.283748992 L 57 442.102401888 L 63 415.947686784 L 69 433.87129968 L 75 427.488672576 L 81 425.403149472 L 86 436.218850368 L 92 410.946807264 L 98 413.14746816 L 104 425.029297056 L 110 418.646669952 L 116 419.231842848 L 122 418.761471744 L 127 414.70497264 L 133 413.577889536 L 139 423.855150432 L 145 435.155699328 L 151 427.114744224 L 157 445.72749312 L 163 441.240074016 L 168 427.394382912 L 174 418.771811808 L 180 410.203000704 L 186 417.3465576 L 192 404.717690496 L 198 380.910439392 L 204 378.060180288 L 209 372.549809184 L 215 340.45041408 L 221 309.460154976 L 227 327.254239872 L 233 284.945484768 L 239 321.844361664 L 245 281.92641456 L 250 312.094539456 L 256 275.331800352 L 262 208.921597248 L 268 185.577354144 L 274 235.37779104 L 280 224.374995936 L 286 182.432480832 L 291 133.134085728 L 297 142.269954624 L 303 153.03206352 L 309 81.958852416 L 315 110.705193312 L 321 96.988694208 L 327 87.989131104 L 332 143.723328 L 338 29.659252896 L 344 97.088601792 L 350 145.693718688 L 356 149.337163584 L 362 148.76985648 L 368 230.835029376 L 373 274.454410272 L 379 280.423647168 L 385 256.313996064 L 391 256.32864096 L 397 286.647293856 L 403 293.144218752 L 409 300.201927648 L 414 385.121420544 L 420 426.34982544 L 426 424.178118336 L 432 413.455715232 L 438 410.271640128 L 444 439.685949024 L 450 417.87134592 L 455 425.359302816 L 461 425.384699712 L 467 425.635888608 L 473 427.362453504 L 479 424.5874584 L 485 422.404663296 L 491 412.285212192 L 496 424.307489088 L 502 406.433997984 L 508 414.51449088 L 514 434.074927776 L 520 426.992244672 L 526 430.441985568 L 532 414.604150464 L 537 422.91043536 L 543 425.380232256 L 549 427.376101152 L 555 408.134922048 L 561 425.487838944 L 567 411.78209184 L 573 421.434728736 L 578 416.204413632 L 584 414.991146528 L 590 419.539271424 L 596 415.23530832 L 602 425.307945216 L 608 410.665598112 L 614 424.065811008 L 620 427.580063904"/>
			<path class="series-2-line" d="M 40 439.152 L 45 410.04936 L 51 426.72672 L 57 400.98408 L 63 421.86144 L 69 429.7188 L 75 429.17616 L 81 446.27352 L 86 432.71088 L 92 414.10824 L 98 434.1456 L 104 418.06296 L 110 417.52032 L 116 427.47768 L 122 421.89504 L 127 418.8324 L 133 433.82976 L 139 422.36712 L 145 431.48448 L 151 443.96184 L 157 442.5792 L 163 424.81656 L 168 425.53392 L 174 430.45128 L 180 426.96864 L 186 429.366 L 192 420.42336 L 198 419.04072 L 204 424.37808 L 209 418.79544 L 215 433.3728 L 221 438.71016 L 227 417.58752 L 233 419.56488 L 239 415.66224 L 245 421.4196 L 250 419.19696 L 256 407.73432 L 262 418.53168 L 268 410.42904 L 274 408.6264 L 280 391.70376 L 286 402.08112 L 291 364.15848 L 297 366.97584 L 303 378.1932 L 309 395.71056 L 315 369.54792 L 321 366.48528 L 327 364.68264 L 332 354.48 L 338 362.75736 L 344 329.87472 L 350 334.37208 L 356 325.84944 L 362 319.0068 L 368 328.96416 L 373 374.20152 L 379 330.39888 L 385 245.01624 L 391 278.4936 L 397 252.75096 L 403 208.52832 L 409 240.74568 L 414 296.90304 L 420 321.9804 L 426 336.13776 L 432 357.43512 L 438 365.71248 L 444 366.42984 L 450 398.2272 L 455 379.62456 L 461 411.42192 L 467 407.93928 L 473 403.61664 L 479 397.194 L 485 380.27136 L 491 389.38872 L 496 416.98608 L 502 407.20344 L 508 410.8608 L 514 409.05816 L 520 403.05552 L 526 408.39288 L 532 425.07024 L 537 393.4476 L 543 404.24496 L 549 407.06232 L 555 397.69968 L 561 412.69704 L 567 407.9544 L 573 395.65176 L 578 395.52912 L 584 407.58648 L 590 405.36384 L 596 424.5612 L 602 412.25856 L 608 439.01592 L 614 415.37328 L 620 410.63064"/>
		</g>
		<text class="x-axis-label" x="40.0" y="540">
			0
		</text>
		<path class="x-notch" d="M 69.2929292929 525 L 69.2929292929 530"/>
		<text class="x-axis-label" x="98.5858585859" y="540">
			10
		</text>
		<path class="x-notch" d="M 127.878787879 525 L 127.878787879 530"/>
		<text class="x-axis-label" x="157.171717172" y="540">
			20
		</text>
		<path class="x-notch" d="M 186.464646465 525 L 186.464646465 530"/>
		<text class="x-axis-label" x="215.757575758" y="540">
			30
		</text>
		<path class="x-notch" d="M 245.050505051 525 L 245.050505051 530"/>
		<text class="x-axis-label" x="274.343434343" y="540">
			40
		</text>
		<path class="x-notch" d="M 303.636363636 525 L 303.636363636 530"/>
		<text class="x-axis-label" x="332.929292929" y="540">
			50
		</text>
		<path class="x-notch" d="M 362.222222222 525 L 362.222222222 530"/>
		<text class="x-axis-label" x="391.515151515" y="540">
			60
		</text>
		<path class="x-notch" d="M 420.808080808 525 L 420.808080808 530"/>
		<text class="x-axis-label" x="450.101010101" y="540">
			70
		</text>
		<path class="x-notch" d="M 479.393939394 525 L 479.393939394 530"/>
		<text class="x-axis-label" x="508.686868687" y="540">
			80
		</text>
		<path class="x-notch" d="M 537.97979798 525 L 537.97979798 530"/>
		<text class="x-axis-label" x="567.272727273" y="540">
			90
		</text>
		<path class="x-notch" d="M 596.565656566 525 L 596.565656566 530"/>
	</g>
</svg>
