<?xml version="1.0" ?>
<svg height="600" version="1.1" width="800" xmlns="http://www.w3.org/2000/svg" xmlns:svg="http://www.w3.org/2000/svg">
	<style type="text/css">

.x-axis-path, .y-gridline, .x-notch { fill:none; stroke: #a7a9ac; stroke-width:1; }



.y-gridline { stroke-width: 1; }

.y-axis-path, .y-axis-path2, .x-notch-left, .x-notch-right { display: none;}



.x-axis-label, .data-point-label {font-size: 12px; font-weight:normal; font-family: sans-serif; fill: #58595b; text-anchor:middle;}

.y-axis-label {font-size: 12px; font-family: helvetica; fill: #a7a9ac; text-anchor:end;}



.series-1-line { fill: none; stroke: #10b80c; stroke-width:2; }



.series-2-line { fill: none; stroke: #e90f0a; stroke-width: 2;}
</style>
	<rect fill="white" height="600" width="800" x="0" y="0"/>
	<g id="grid" transform="translate(70, 30)">
		<g class="x-axis" id="x_axis">
			<path class="x-axis-path" d="M 0 525 L 660 525"/>
			<path class="x-notch-left" d="M 0 525, L 0 535"/>
			<path class="x-notch-right" d="M 660 525, L 660 535"/>
		</g>
		<g class="y-axis" id="y_axis">
			<path class="y-axis-path" d="M 0 525 L 0 0"/>
			<path class="y-axis-path-2" d="M 660 525 L 660 0"/>
			<path class="y-gridline" d="M 0 525 L 660 525"/>
			<text class="y-axis-label" x="-5" y="525">-200</text>
			<path class="y-gridline" d="M 0 394 L 660 394"/>
			<text class="y-axis-label" x="-5" y="394"> 0</text>
			<path class="y-gridline" d="M 0 263 L 660 263"/>
			<text class="y-axis-label" x="-5" y="263">200</text>
			<path class="y-gridline" d="M 0 132 L 660 132"/>
			<text class="y-axis-label" x="-5" y="132">400</text>
			<path class="y-gridline" d="M 0 1 L 660 1"/>
			<text class="y-axis-label" x="-5" y="1">600</text>
		</g>
		<g>
			<path class="series-1-line" d="M 40 398.429264326 L 46 367.69477598 L 52 393.655449628 L 58 409.757897638 L 64 395.105346337 L 70 370.481179075 L 77 350.513101991 L 83 348.989732828 L 89 403.525122465 L 95 383.375620863 L 101 358.546996673 L 107 355.456006281 L 114 375.306358844 L 120 358.314069076 L 126 389.06760998 L 132 354.017202428 L 138 330.051762079 L 144 330.66332011 L 151 344.517096258 L 157 331.00021992 L 163 346.058059571 L 169 357.89029885 L 175 384.282564417 L 181 394.252367625 L 188 380.258543236 L 194 360.222431959 L 200 322.832640284 L 206 323.671333308 L 212 293.731640264 L 218 286.779354995 L 225 278.395871231 L 231 194.554670302 L 237 173.133425347 L 243 214.01768301 L 249 168.609778051 L 255 195.706126662 L 262 134.375031112 L 268 133.305931935 L 274 117.92626518 L 280 122.285727764 L 286 176.230424681 L 292 91.4130039311 L 299 57.8164729389 L 305 111.125121008 L 311 33.1217500398 L 317 79.6163483266 L 323 0.0 L 330 100.260037784 L 336 17.1463066517 L 342 76.6102775891 L 348 88.7383947443 L 354 17.0040913138 L 360 56.0712690347 L 367 98.9086750281 L 373 116.124474283 L 379 149.263109783 L 385 231.487353502 L 391 114.074821088 L 397 172.675962529 L 404 196.410642379 L 410 261.712797622 L 416 171.125581105 L 422 189.726868381 L 428 180.866082222 L 434 261.478057272 L 441 227.427256294 L 447 179.929425926 L 453 291.000522413 L 459 278.142727333 L 465 84.1368027901 L 471 265.282765155 L 478 214.127742493 L 484 214.67055764 L 490 278.020273243 L 496 364.605792298 L 502 383.61599343 L 508 377.140656211 L 515 389.245386612 L 521 379.70354982 L 527 359.031389693 L 533 403.54980724 L 539 403.502638357 L 545 367.611725028 L 552 387.212618879 L 558 402.361170789 L 564 381.325807281 L 570 389.751021669 L 576 399.289232955 L 582 398.94654054 L 589 383.226348469 L 595 388.902910534 L 601 391.5586835 L 607 390.920821898 L 613 394.462456769 L 620 409.066026435"/>
			<path class="series-2-line" d="M 40 403.140136205 L 46 400.258753795 L 52 397.377371384 L 58 377.664612757 L 64 388.071158939 L 70 399.363567026 L 77 375.221498868 L 83 410.432178422 L 89 406.664934105 L 95 410.870446944 L 101 419.505269313 L 107 422.824920246 L 114 405.769747337 L 120 401.116641114 L 126 410.63732539 L 132 390.038704856 L 138 402.21697485 L 144 415.28110675 L 151 400.88351956 L 157 406.860756211 L 163 411.952130956 L 169 401.983853296 L 175 400.874194698 L 181 405.079707536 L 188 416.372115624 L 194 402.86039034 L 200 401.750731742 L 206 413.929001736 L 212 390.672795484 L 218 409.052098821 L 225 408.828302129 L 231 364.31141013 L 237 394.206918246 L 243 412.586221583 L 249 418.563458234 L 255 411.252766293 L 262 379.13794098 L 268 412.576896721 L 274 398.179309531 L 280 413.901027149 L 286 398.617578053 L 292 402.823090891 L 299 397.284122762 L 305 377.571364135 L 311 355.20101979 L 317 362.064118347 L 323 314.889640629 L 330 364.274110681 L 336 379.109966393 L 342 331.935488676 L 348 379.548234915 L 354 346.547547696 L 360 372.013746282 L 367 362.045468622 L 373 375.995462429 L 379 393.488903859 L 385 388.835797636 L 391 399.242343818 L 397 383.073032815 L 404 381.963374217 L 410 391.484058493 L 416 362.912680804 L 422 368.004055549 L 428 338.546815954 L 434 378.186805038 L 441 374.419560722 L 447 360.907835438 L 453 312.847495814 L 459 354.259208711 L 465 324.801969116 L 471 366.213682012 L 478 335.870580511 L 484 290.467826606 L 490 397.433320557 L 496 403.410557208 L 502 413.81710339 L 508 426.88123529 L 515 408.940200475 L 521 416.689160938 L 527 398.748126123 L 533 402.953638962 L 539 415.131908956 L 545 387.446393173 L 552 409.369144135 L 558 400.286728381 L 564 404.49224122 L 570 407.811892152 L 576 410.245681179 L 582 399.391541613 L 589 403.597054451 L 595 386.541881543 L 601 391.633256287 L 607 392.295321501 L 613 397.386696246 L 620 404.249794803"/>
		</g>
		<text class="x-axis-label" x="40.0" y="540">0</text>
		<path class="x-notch" d="M 70.8510638298 525 L 70.8510638298 530"/>
		<text class="x-axis-label" x="101.70212766" y="540">10</text>
		<path class="x-notch" d="M 132.553191489 525 L 132.553191489 530"/>
		<text class="x-axis-label" x="163.404255319" y="540">20</text>
		<path class="x-notch" d="M 194.255319149 525 L 194.255319149 530"/>
		<text class="x-axis-label" x="225.106382979" y="540">30</text>
		<path class="x-notch" d="M 255.957446809 525 L 255.957446809 530"/>
		<text class="x-axis-label" x="286.808510638" y="540">40</text>
		<path class="x-notch" d="M 317.659574468 525 L 317.659574468 530"/>
		<text class="x-axis-label" x="348.510638298" y="540">50</text>
		<path class="x-notch" d="M 379.361702128 525 L 379.361702128 530"/>
		<text class="x-axis-label" x="410.212765957" y="540">60</text>
		<path class="x-notch" d="M 441.063829787 525 L 441.063829787 530"/>
		<text class="x-axis-label" x="471.914893617" y="540">70</text>
		<path class="x-notch" d="M 502.765957447 525 L 502.765957447 530"/>
		<text class="x-axis-label" x="533.617021277" y="540">80</text>
		<path class="x-notch" d="M 564.468085106 525 L 564.468085106 530"/>
		<text class="x-axis-label" x="595.319148936" y="540">90</text>
		<path class="x-notch" d="M 626.170212766 525 L 626.170212766 530"/>
	</g>
</svg>
