<?xml version="1.0" ?>
<svg height="600" version="1.1" width="800" xmlns="http://www.w3.org/2000/svg" xmlns:svg="http://www.w3.org/2000/svg">
	<style type="text/css">
		

.x-axis-path, .y-gridline, .x-notch { fill:none; stroke: #a7a9ac; stroke-width:1; }



.y-gridline { stroke-width: 1; }

.y-axis-path, .y-axis-path2, .x-notch-left, .x-notch-right { display: none;}



.x-axis-label, .data-point-label {font-size: 12px; font-weight:normal; font-family: sans-serif; fill: #58595b; text-anchor:middle;}

.y-axis-label {font-size: 12px; font-family: helvetica; fill: #a7a9ac; text-anchor:end;}



.series-1-line { fill: none; stroke: #10b80c; stroke-width:2; }



.series-2-line { fill: none; stroke: #e90f0a; stroke-width: 2;}

	</style>
	<rect fill="white" height="600" width="800" x="0" y="0"/>
	<g id="grid" transform="translate(70, 30)">
		<g class="x-axis" id="x_axis">
			<path class="x-axis-path" d="M 0 525 L 660 525"/>
			<path class="x-notch-left" d="M 0 525, L 0 535"/>
			<path class="x-notch-right" d="M 660 525, L 660 535"/>
		</g>
		<g class="y-axis" id="y_axis">
			<path class="y-axis-path" d="M 0 525 L 0 0"/>
			<path class="y-axis-path-2" d="M 660 525 L 660 0"/>
			<path class="y-gridline" d="M 0 525 L 660 525"/>
			<text class="y-axis-label" x="-5" y="525">
				-200
			</text>
			<path class="y-gridline" d="M 0 394 L 660 394"/>
			<text class="y-axis-label" x="-5" y="394">
				 0
			</text>
			<path class="y-gridline" d="M 0 263 L 660 263"/>
			<text class="y-axis-label" x="-5" y="263">
				200
			</text>
			<path class="y-gridline" d="M 0 132 L 660 132"/>
			<text class="y-axis-label" x="-5" y="132">
				400
			</text>
			<path class="y-gridline" d="M 0 1 L 660 1"/>
			<text class="y-axis-label" x="-5" y="1">
				600
			</text>
		</g>
		<g>
			<path class="series-1-line" d="M 40 402.507940427 L 46 389.032323963 L 52 400.532717313 L 58 398.771454439 L 64 376.581222869 L 70 377.412491286 L 76 395.292887516 L 82 371.107065415 L 88 387.222897139 L 94 364.123172643 L 101 395.90324656 L 107 353.446886821 L 113 359.694243846 L 119 370.040989358 L 125 349.859688962 L 131 329.85478149 L 137 357.033181187 L 143 356.412225509 L 149 340.832599333 L 156 353.704114149 L 162 339.834419376 L 168 311.237080132 L 174 332.049664615 L 180 307.958709296 L 186 287.343096911 L 192 272.061835236 L 198 277.902196823 L 204 268.593519079 L 210 274.09443546 L 217 261.025602677 L 223 264.816164142 L 229 282.615034231 L 235 249.009025329 L 241 208.79198752 L 247 204.926714934 L 253 234.127809958 L 259 223.638379581 L 265 205.099672114 L 272 235.848281527 L 278 251.502696468 L 284 254.790760444 L 290 232.586976477 L 296 214.767393102 L 302 120.620283486 L 308 105.936174326 L 314 113.839888433 L 320 69.0484929555 L 326 0.0 L 333 7.67247632455 L 339 21.2635387454 L 345 83.9250796879 L 351 25.9806589227 L 357 89.5783740738 L 363 94.7127404538 L 369 54.2655236439 L 375 71.2364269479 L 381 64.6018066352 L 388 182.170462542 L 394 176.187627847 L 400 134.409311495 L 406 27.5710168877 L 412 62.5549622769 L 418 167.866321669 L 424 126.061112278 L 430 126.852147015 L 436 161.401356903 L 442 82.5119175555 L 449 95.0846443579 L 455 100.531139393 L 461 96.9098099621 L 467 131.703598274 L 473 139.444683611 L 479 78.4187864636 L 485 349.538647135 L 491 380.15194433 L 497 378.390681457 L 504 393.244022651 L 510 391.767783637 L 516 397.092095339 L 522 400.624737739 L 528 395.442765033 L 534 389.772058993 L 540 393.345358586 L 546 377.439839601 L 552 386.714251662 L 558 398.879983026 L 565 405.290180577 L 571 407.234651396 L 577 390.541822819 L 583 385.875688243 L 589 411.900440103 L 595 402.198319318 L 601 397.342027665 L 607 381.748849092 L 613 393.031980569 L 620 396.415334841"/>
			<path class="series-2-line" d="M 40 386.0208983 L 46 402.802578018 L 52 384.115092401 L 58 390.308961572 L 64 403.914298126 L 70 397.932185166 L 76 395.655805899 L 82 390.203083466 L 88 394.808781055 L 94 405.767164972 L 101 382.315164608 L 107 398.567453799 L 113 394.173512422 L 119 390.308961572 L 125 400.208564434 L 131 403.22609044 L 137 375.00957533 L 143 389.144302412 L 149 403.808420021 L 156 398.355697588 L 162 373.315525642 L 168 374.744880066 L 174 389.938388203 L 180 369.662731003 L 186 385.385629667 L 192 374.109611434 L 198 391.950072207 L 204 378.027101336 L 210 386.867923144 L 217 360.768970143 L 223 368.021620369 L 229 357.80438319 L 235 376.703625018 L 241 353.251624654 L 247 357.327931715 L 253 343.934351372 L 259 349.069439488 L 265 371.14502448 L 272 364.104130466 L 278 378.768248075 L 284 361.139543512 L 290 376.862442176 L 296 369.292157634 L 302 335.252346723 L 308 313.388517941 L 314 339.699227153 L 320 327.893818392 L 326 301.265474864 L 333 280.989817665 L 339 287.183686835 L 345 298.142070752 L 351 314.923750471 L 357 283.001501669 L 363 287.07780873 L 369 320.270594797 L 375 315.347262893 L 381 297.189167803 L 388 290.148273788 L 394 294.224580849 L 400 245.891225698 L 406 271.672544382 L 412 285.277880936 L 418 290.94235958 L 424 267.490359216 L 430 309.153393722 L 436 287.289564941 L 442 288.718919364 L 449 267.913871638 L 455 264.578711315 L 461 230.538900404 L 467 232.497645355 L 473 284.219099882 L 479 286.177844833 L 485 357.486748873 L 491 392.267706523 L 497 398.461575694 L 504 393.538243789 L 510 396.555769795 L 516 391.63243789 L 522 397.826307061 L 528 400.843833067 L 534 397.508672745 L 540 397.349855586 L 546 400.89677212 L 552 399.149783379 L 558 400.579137803 L 565 391.420681679 L 571 397.61455085 L 577 400.102686329 L 583 405.237774445 L 589 391.844194101 L 595 398.038063272 L 601 391.526559785 L 607 408.308239503 L 613 382.209286503 L 620 391.05010831"/>
		</g>
		<text class="x-axis-label" x="40.0" y="540">
			0
		</text>
		<path class="x-notch" d="M 70.5263157895 525 L 70.5263157895 530"/>
		<text class="x-axis-label" x="101.052631579" y="540">
			10
		</text>
		<path class="x-notch" d="M 131.578947368 525 L 131.578947368 530"/>
		<text class="x-axis-label" x="162.105263158" y="540">
			20
		</text>
		<path class="x-notch" d="M 192.631578947 525 L 192.631578947 530"/>
		<text class="x-axis-label" x="223.157894737" y="540">
			30
		</text>
		<path class="x-notch" d="M 253.684210526 525 L 253.684210526 530"/>
		<text class="x-axis-label" x="284.210526316" y="540">
			40
		</text>
		<path class="x-notch" d="M 314.736842105 525 L 314.736842105 530"/>
		<text class="x-axis-label" x="345.263157895" y="540">
			50
		</text>
		<path class="x-notch" d="M 375.789473684 525 L 375.789473684 530"/>
		<text class="x-axis-label" x="406.315789474" y="540">
			60
		</text>
		<path class="x-notch" d="M 436.842105263 525 L 436.842105263 530"/>
		<text class="x-axis-label" x="467.368421053" y="540">
			70
		</text>
		<path class="x-notch" d="M 497.894736842 525 L 497.894736842 530"/>
		<text class="x-axis-label" x="528.421052632" y="540">
			80
		</text>
		<path class="x-notch" d="M 558.947368421 525 L 558.947368421 530"/>
		<text class="x-axis-label" x="589.473684211" y="540">
			90
		</text>
		<path class="x-notch" d="M 620.0 525 L 620.0 530"/>
	</g>
</svg>
