<?xml version="1.0" ?>
<svg height="600" version="1.1" width="800" xmlns="http://www.w3.org/2000/svg" xmlns:svg="http://www.w3.org/2000/svg">
	<style type="text/css">
		

.x-axis-path, .y-gridline, .x-notch { fill:none; stroke: #a7a9ac; stroke-width:1; }



.y-gridline { stroke-width: 1; }

.y-axis-path, .y-axis-path2, .x-notch-left, .x-notch-right { display: none;}



.x-axis-label, .data-point-label {font-size: 12px; font-weight:normal; font-family: sans-serif; fill: #58595b; text-anchor:middle;}

.y-axis-label {font-size: 12px; font-family: helvetica; fill: #a7a9ac; text-anchor:end;}



.series-1-line { fill: none; stroke: #10b80c; stroke-width:2; }



.series-2-line { fill: none; stroke: #e90f0a; stroke-width: 2;}

	</style>
	<rect fill="white" height="600" width="800" x="0" y="0"/>
	<g id="grid" transform="translate(70, 30)">
		<g class="x-axis" id="x_axis">
			<path class="x-axis-path" d="M 0 525 L 660 525"/>
			<path class="x-notch-left" d="M 0 525, L 0 535"/>
			<path class="x-notch-right" d="M 660 525, L 660 535"/>
		</g>
		<g class="y-axis" id="y_axis">
			<path class="y-axis-path" d="M 0 525 L 0 0"/>
			<path class="y-axis-path-2" d="M 660 525 L 660 0"/>
			<path class="y-gridline" d="M 0 525 L 660 525"/>
			<text class="y-axis-label" x="-5" y="525">
				-300
			</text>
			<path class="y-gridline" d="M 0 420 L 660 420"/>
			<text class="y-axis-label" x="-5" y="420">
				 0
			</text>
			<path class="y-gridline" d="M 0 315 L 660 315"/>
			<text class="y-axis-label" x="-5" y="315">
				300
			</text>
			<path class="y-gridline" d="M 0 210 L 660 210"/>
			<text class="y-axis-label" x="-5" y="210">
				600
			</text>
			<path class="y-gridline" d="M 0 105 L 660 105"/>
			<text class="y-axis-label" x="-5" y="105">
				900
			</text>
			<path class="y-gridline" d="M 0 0 L 660 0"/>
			<text class="y-axis-label" x="-5" y="0">
				1200
			</text>
		</g>
		<g>
			<path class="series-1-line" d="M 40 425.709424 L 43 406.127754543 L 47 427.989165086 L 51 417.560975629 L 55 422.793186172 L 59 419.983936715 L 63 401.326827258 L 67 413.549937801 L 70 414.061488344 L 74 412.742258887 L 78 409.60120943 L 82 410.597859974 L 86 416.251890517 L 90 421.98656106 L 94 420.119931603 L 98 412.321082146 L 101 396.508632689 L 105 404.092003232 L 109 417.194453775 L 113 415.597044318 L 117 410.203814861 L 121 407.807985404 L 125 412.501475947 L 128 388.17240649 L 132 397.479037033 L 136 402.513567576 L 140 405.367318119 L 144 375.824088662 L 148 411.389539205 L 152 400.808609748 L 156 350.624200291 L 159 346.433430834 L 163 328.009001377 L 167 335.996411921 L 171 287.274582464 L 175 268.760693007 L 179 281.65706355 L 183 228.708494093 L 186 246.459644636 L 190 213.864975179 L 194 245.005865722 L 198 170.617836265 L 202 197.074046808 L 206 223.117677351 L 210 215.498727894 L 214 167.045978437 L 217 178.47052898 L 221 162.046979523 L 225 204.128310066 L 229 188.746220609 L 233 175.392591152 L 237 232.092721695 L 241 202.584912238 L 244 174.952962781 L 248 182.563493325 L 252 146.746863868 L 256 159.840214411 L 260 143.901764954 L 264 194.598275497 L 268 190.61344604 L 272 169.102296583 L 275 175.644767126 L 279 167.262397669 L 283 168.797348212 L 287 153.711358755 L 291 143.561349298 L 295 199.085479841 L 299 149.906130384 L 302 143.220140927 L 306 210.83299147 L 310 208.607122013 L 314 154.896112556 L 318 118.351343099 L 322 149.600733642 L 326 205.573564185 L 330 133.267474728 L 333 200.529625272 L 337 147.375395815 L 341 187.239406358 L 345 203.536936901 L 349 165.054567444 L 353 206.525357987 L 357 256.84470853 L 360 234.435739073 L 364 278.993249616 L 368 291.710280159 L 372 232.093930702 L 376 219.593041245 L 380 217.124411788 L 384 249.297522331 L 388 189.752712874 L 391 219.099503417 L 395 274.89341396 L 399 302.867224503 L 403 283.087735046 L 407 221.765625589 L 411 341.197796132 L 415 335.132006675 L 418 296.442157219 L 422 326.919587762 L 426 381.565918305 L 430 410.310988848 L 434 401.309819391 L 438 419.132929934 L 442 408.786080477 L 446 428.50297102 L 449 411.263081563 L 453 432.047892106 L 457 408.481402649 L 461 410.042953192 L 465 429.391783735 L 469 419.995534278 L 473 432.488284821 L 476 422.912835364 L 480 412.242305907 L 484 435.30645645 L 488 417.555286993 L 492 434.813077536 L 496 443.643988079 L 500 435.890078623 L 504 427.526189166 L 507 411.794379709 L 511 433.637730252 L 515 427.230340795 L 519 401.994771338 L 523 435.442161881 L 527 419.180872424 L 531 423.659042967 L 534 407.80151351 L 538 419.845284053 L 542 442.963194596 L 546 416.255665139 L 550 404.463455682 L 554 433.684106225 L 558 428.380196768 L 562 432.858787311 L 565 410.198797854 L 569 414.255008397 L 573 438.63837894 L 577 420.806849483 L 581 419.308000026 L 585 421.47085057 L 589 435.973581113 L 592 430.274731656 L 596 429.718502199 L 600 418.797092742 L 604 424.280183285 L 608 415.234213828 L 612 425.859784371 L 616 407.866694914 L 620 426.488365457"/>
			<path class="series-2-line" d="M 40 413.84 L 43 440.637483444 L 47 417.734966887 L 51 408.832450331 L 55 413.929933775 L 59 376.677417219 L 63 423.074900662 L 67 415.922384106 L 70 406.66986755 L 74 396.367350993 L 78 383.614834437 L 82 421.612317881 L 86 429.159801325 L 90 424.107284768 L 94 417.304768212 L 98 394.052251656 L 101 419.799735099 L 105 412.997218543 L 109 391.494701987 L 113 383.64218543 L 117 408.339668874 L 121 429.537152318 L 125 409.434635762 L 128 439.732119205 L 132 450.779602649 L 136 432.077086093 L 140 412.324569536 L 144 437.02205298 L 148 433.019536424 L 152 406.967019868 L 156 416.614503311 L 159 431.161986755 L 163 413.859470199 L 167 425.956953642 L 171 412.154437086 L 175 422.50192053 L 179 433.199403974 L 183 437.246887417 L 186 413.994370861 L 190 423.291854305 L 194 399.689337748 L 198 431.386821192 L 202 401.484304636 L 206 395.031788079 L 210 412.029271523 L 214 383.526754967 L 217 391.774238411 L 221 335.271721854 L 225 379.569205298 L 229 365.416688742 L 233 376.114172185 L 237 378.411655629 L 241 356.559139073 L 244 356.056622517 L 248 372.35410596 L 252 365.551589404 L 256 331.799072848 L 260 322.546556291 L 264 346.894039735 L 268 315.591523179 L 272 343.089006623 L 275 348.536490066 L 279 307.08397351 L 283 329.331456954 L 287 309.928940397 L 291 298.576423841 L 295 265.873907285 L 299 268.871390728 L 302 249.468874172 L 306 241.966357616 L 310 209.26384106 L 314 250.411324503 L 318 124.958807947 L 322 180.106291391 L 326 145.653774834 L 330 166.501258278 L 333 90.7487417219 L 337 167.946225166 L 341 148.543708609 L 345 147.341192053 L 349 105.888675497 L 353 122.53615894 L 357 123.783642384 L 360 113.831125828 L 364 85.6786092715 L 368 110.726092715 L 372 131.223576159 L 376 159.071059603 L 380 82.2685430464 L 384 75.1160264901 L 388 70.7635099338 L 391 122.410993377 L 395 143.258476821 L 399 204.355960265 L 403 193.703443709 L 407 152.600927152 L 411 278.798410596 L 415 353.89589404 L 418 208.143377483 L 422 247.190860927 L 426 378.988344371 L 430 387.935827815 L 434 388.483311258 L 438 381.330794702 L 442 428.078278146 L 446 439.475761589 L 449 414.823245033 L 453 423.420728477 L 457 430.268211921 L 461 421.015695364 L 465 421.563178808 L 469 401.810662252 L 473 434.558145695 L 476 442.805629139 L 480 430.753112583 L 484 425.000596026 L 488 425.54807947 L 492 424.695562914 L 496 428.043046358 L 500 411.440529801 L 504 421.788013245 L 507 434.935496689 L 511 401.182980132 L 515 420.280463576 L 519 441.82794702 L 523 426.975430464 L 527 440.822913907 L 531 427.020397351 L 534 432.467880795 L 538 439.665364238 L 542 425.512847682 L 546 430.960331126 L 550 430.10781457 L 554 433.105298013 L 558 416.502781457 L 562 443.650264901 L 565 459.247748344 L 569 429.345231788 L 573 422.542715232 L 577 462.990198675 L 581 439.737682119 L 585 432.235165563 L 589 438.032649007 L 592 414.78013245 L 596 421.977615894 L 600 449.125099338 L 604 415.022582781 L 608 422.570066225 L 612 405.267549669 L 616 443.615033113 L 620 421.062516556"/>
		</g>
		<text class="x-axis-label" x="40.0" y="540">
			0
		</text>
		<path class="x-notch" d="M 59.3333333333 525 L 59.3333333333 530"/>
		<text class="x-axis-label" x="78.6666666667" y="540">
			10
		</text>
		<path class="x-notch" d="M 98.0 525 L 98.0 530"/>
		<text class="x-axis-label" x="117.333333333" y="540">
			20
		</text>
		<path class="x-notch" d="M 136.666666667 525 L 136.666666667 530"/>
		<text class="x-axis-label" x="156.0" y="540">
			30
		</text>
		<path class="x-notch" d="M 175.333333333 525 L 175.333333333 530"/>
		<text class="x-axis-label" x="194.666666667" y="540">
			40
		</text>
		<path class="x-notch" d="M 214.0 525 L 214.0 530"/>
		<text class="x-axis-label" x="233.333333333" y="540">
			50
		</text>
		<path class="x-notch" d="M 252.666666667 525 L 252.666666667 530"/>
		<text class="x-axis-label" x="272.0" y="540">
			60
		</text>
		<path class="x-notch" d="M 291.333333333 525 L 291.333333333 530"/>
		<text class="x-axis-label" x="310.666666667" y="540">
			70
		</text>
		<path class="x-notch" d="M 330.0 525 L 330.0 530"/>
		<text class="x-axis-label" x="349.333333333" y="540">
			80
		</text>
		<path class="x-notch" d="M 368.666666667 525 L 368.666666667 530"/>
		<text class="x-axis-label" x="388.0" y="540">
			90
		</text>
		<path class="x-notch" d="M 407.333333333 525 L 407.333333333 530"/>
		<text class="x-axis-label" x="426.666666667" y="540">
			100
		</text>
		<path class="x-notch" d="M 446.0 525 L 446.0 530"/>
		<text class="x-axis-label" x="465.333333333" y="540">
			110
		</text>
		<path class="x-notch" d="M 484.666666667 525 L 484.666666667 530"/>
		<text class="x-axis-label" x="504.0" y="540">
			120
		</text>
		<path class="x-notch" d="M 523.333333333 525 L 523.333333333 530"/>
		<text class="x-axis-label" x="542.666666667" y="540">
			130
		</text>
		<path class="x-notch" d="M 562.0 525 L 562.0 530"/>
		<text class="x-axis-label" x="581.333333333" y="540">
			140
		</text>
		<path class="x-notch" d="M 600.666666667 525 L 600.666666667 530"/>
		<text class="x-axis-label" x="620.0" y="540">
			150
		</text>
	</g>
</svg>
