<?xml version="1.0" ?>
<svg height="600" version="1.1" width="800" xmlns="http://www.w3.org/2000/svg" xmlns:svg="http://www.w3.org/2000/svg">
	<style type="text/css">

.x-axis-path, .y-gridline, .x-notch { fill:none; stroke: #a7a9ac; stroke-width:1; }



.y-gridline { stroke-width: 1; }

.y-axis-path, .y-axis-path2, .x-notch-left, .x-notch-right { display: none;}



.x-axis-label, .data-point-label {font-size: 12px; font-weight:normal; font-family: sans-serif; fill: #58595b; text-anchor:middle;}

.y-axis-label {font-size: 12px; font-family: helvetica; fill: #a7a9ac; text-anchor:end;}



.series-1-line { fill: none; stroke: #10b80c; stroke-width:2; }



.series-2-line { fill: none; stroke: #e90f0a; stroke-width: 2;}
</style>
	<rect fill="white" height="600" width="800" x="0" y="0"/>
	<g id="grid" transform="translate(70, 30)">
		<g class="x-axis" id="x_axis">
			<path class="x-axis-path" d="M 0 525 L 660 525"/>
			<path class="x-notch-left" d="M 0 525, L 0 535"/>
			<path class="x-notch-right" d="M 660 525, L 660 535"/>
		</g>
		<g class="y-axis" id="y_axis">
			<path class="y-axis-path" d="M 0 525 L 0 0"/>
			<path class="y-axis-path-2" d="M 660 525 L 660 0"/>
			<path class="y-gridline" d="M 0 525 L 660 525"/>
			<text class="y-axis-label" x="-5" y="525">-200</text>
			<path class="y-gridline" d="M 0 394 L 660 394"/>
			<text class="y-axis-label" x="-5" y="394"> 0</text>
			<path class="y-gridline" d="M 0 263 L 660 263"/>
			<text class="y-axis-label" x="-5" y="263">200</text>
			<path class="y-gridline" d="M 0 132 L 660 132"/>
			<text class="y-axis-label" x="-5" y="132">400</text>
			<path class="y-gridline" d="M 0 1 L 660 1"/>
			<text class="y-axis-label" x="-5" y="1">600</text>
		</g>
		<g>
			<path class="series-1-line" d="M 40 399.501565984 L 47 388.75896933 L 54 403.463062194 L 62 391.338823979 L 69 382.551756506 L 76 409.692046957 L 84 375.367387143 L 91 408.556477506 L 98 384.426152375 L 106 389.222651004 L 113 394.60584906 L 120 387.578676504 L 128 386.87402914 L 135 382.453957677 L 142 373.641063227 L 150 391.73438751 L 157 399.216281609 L 164 365.29590549 L 172 389.059776329 L 179 374.341452191 L 186 337.957141842 L 194 300.751655657 L 201 306.604009892 L 208 317.318953379 L 216 232.323392578 L 223 221.515720078 L 230 172.708227311 L 238 189.862832511 L 245 158.015122097 L 252 168.625740867 L 260 154.532958301 L 267 112.569207581 L 274 95.8955576245 L 282 40.1656217087 L 289 9.32170622284 L 296 0.0 L 304 35.522059453 L 311 57.3308078353 L 318 136.771945861 L 326 198.536043691 L 333 204.714387243 L 341 218.010401483 L 348 248.18810706 L 355 262.93104207 L 363 223.887569952 L 370 222.348731583 L 377 277.894425576 L 385 299.377184641 L 392 314.602494361 L 399 354.504971717 L 407 285.726108449 L 414 335.614271056 L 421 277.655487405 L 429 355.06259851 L 436 366.038252105 L 443 376.531530991 L 451 385.786335176 L 458 400.399118493 L 465 395.887940845 L 473 390.34693793 L 480 391.232784921 L 487 397.280773419 L 495 392.391545776 L 502 395.363073641 L 509 392.025091484 L 517 392.219914332 L 524 397.994177552 L 531 395.555665608 L 539 384.526531868 L 546 391.2002653 L 553 393.976158902 L 561 398.929246286 L 568 398.25062926 L 575 400.84410713 L 583 394.064629515 L 590 397.322897827 L 597 387.036645545 L 605 391.872393044 L 612 410.408843168 L 620 386.812953425"/>
			<path class="series-2-line" d="M 40 400.664308668 L 47 381.797397295 L 54 398.518839361 L 62 396.937699658 L 69 390.272509464 L 76 390.216584909 L 84 382.026179568 L 91 390.104735798 L 98 397.674886979 L 106 393.551722031 L 113 397.054632819 L 120 393.43987292 L 128 394.909163512 L 135 381.126302631 L 142 398.356149745 L 150 401.859060533 L 157 395.193870339 L 164 403.27242657 L 172 394.57361618 L 179 401.126957263 L 186 397.003792314 L 194 402.03191825 L 201 391.807892712 L 208 396.327613599 L 216 401.355739535 L 223 392.656929144 L 230 403.27751062 L 238 394.57870023 L 245 396.556395871 L 252 397.517281414 L 260 385.768040729 L 267 379.611255584 L 274 393.790672404 L 282 373.906950933 L 289 377.918266771 L 296 355.492520054 L 304 316.797811767 L 311 335.552874028 L 318 365.49284737 L 326 377.130238945 L 333 375.549099242 L 341 373.967959539 L 348 375.94565518 L 355 366.738439741 L 363 380.91785656 L 370 393.572058233 L 377 383.856437744 L 385 393.968614171 L 392 388.828639125 L 399 380.638233783 L 407 373.97304359 L 414 374.425524083 L 421 385.046105559 L 429 375.330485071 L 436 378.833395859 L 443 378.269066255 L 451 372.620686159 L 458 383.749672684 L 465 384.202153178 L 473 386.688253868 L 480 397.817240393 L 487 396.744505739 L 495 396.688581184 L 502 399.683086923 L 509 395.559921975 L 517 395.503997419 L 524 397.48169306 L 531 391.833312965 L 539 397.878248999 L 546 398.330729492 L 553 392.173944348 L 561 403.302930873 L 568 400.704981072 L 575 403.191081762 L 583 400.593131961 L 590 398.503587209 L 597 387.771156622 L 605 397.374928 L 612 391.218142855 L 620 394.721053644"/>
		</g>
		<text class="x-axis-label" x="40.0" y="540">0</text>
		<path class="x-notch" d="M 76.7088607595 525 L 76.7088607595 530"/>
		<text class="x-axis-label" x="113.417721519" y="540">10</text>
		<path class="x-notch" d="M 150.126582278 525 L 150.126582278 530"/>
		<text class="x-axis-label" x="186.835443038" y="540">20</text>
		<path class="x-notch" d="M 223.544303797 525 L 223.544303797 530"/>
		<text class="x-axis-label" x="260.253164557" y="540">30</text>
		<path class="x-notch" d="M 296.962025316 525 L 296.962025316 530"/>
		<text class="x-axis-label" x="333.670886076" y="540">40</text>
		<path class="x-notch" d="M 370.379746835 525 L 370.379746835 530"/>
		<text class="x-axis-label" x="407.088607595" y="540">50</text>
		<path class="x-notch" d="M 443.797468354 525 L 443.797468354 530"/>
		<text class="x-axis-label" x="480.506329114" y="540">60</text>
		<path class="x-notch" d="M 517.215189873 525 L 517.215189873 530"/>
		<text class="x-axis-label" x="553.924050633" y="540">70</text>
		<path class="x-notch" d="M 590.632911392 525 L 590.632911392 530"/>
	</g>
</svg>
