<?xml version="1.0" ?>
<svg height="600" version="1.1" width="800" xmlns="http://www.w3.org/2000/svg" xmlns:svg="http://www.w3.org/2000/svg">
	<style type="text/css">
		

.x-axis-path, .y-gridline, .x-notch { fill:none; stroke: #a7a9ac; stroke-width:1; }



.y-gridline { stroke-width: 1; }

.y-axis-path, .y-axis-path2, .x-notch-left, .x-notch-right { display: none;}



.x-axis-label, .data-point-label {font-size: 12px; font-weight:normal; font-family: sans-serif; fill: #58595b; text-anchor:middle;}

.y-axis-label {font-size: 12px; font-family: helvetica; fill: #a7a9ac; text-anchor:end;}



.series-1-line { fill: none; stroke: #10b80c; stroke-width:2; }



.series-2-line { fill: none; stroke: #e90f0a; stroke-width: 2;}

	</style>
	<rect fill="white" height="600" width="800" x="0" y="0"/>
	<g id="grid" transform="translate(70, 30)">
		<g class="x-axis" id="x_axis">
			<path class="x-axis-path" d="M 0 525 L 660 525"/>
			<path class="x-notch-left" d="M 0 525, L 0 535"/>
			<path class="x-notch-right" d="M 660 525, L 660 535"/>
		</g>
		<g class="y-axis" id="y_axis">
			<path class="y-axis-path" d="M 0 525 L 0 0"/>
			<path class="y-axis-path-2" d="M 660 525 L 660 0"/>
			<path class="y-gridline" d="M 0 525 L 660 525"/>
			<text class="y-axis-label" x="-5" y="525">
				-200
			</text>
			<path class="y-gridline" d="M 0 394 L 660 394"/>
			<text class="y-axis-label" x="-5" y="394">
				 0
			</text>
			<path class="y-gridline" d="M 0 263 L 660 263"/>
			<text class="y-axis-label" x="-5" y="263">
				200
			</text>
			<path class="y-gridline" d="M 0 132 L 660 132"/>
			<text class="y-axis-label" x="-5" y="132">
				400
			</text>
			<path class="y-gridline" d="M 0 1 L 660 1"/>
			<text class="y-axis-label" x="-5" y="1">
				600
			</text>
		</g>
		<g>
			<path class="series-1-line" d="M 40 390.709931661 L 45 397.607862236 L 50 391.280444445 L 55 388.256028774 L 60 397.483149689 L 65 409.3644482 L 70 396.417456284 L 75 406.145972967 L 80 380.254000318 L 85 383.008975864 L 90 386.206237676 L 95 388.371498199 L 101 386.880249587 L 106 413.003487883 L 111 411.865976285 L 116 363.667411924 L 121 399.388699204 L 126 413.525358678 L 131 389.462100594 L 136 367.167757578 L 141 394.839112807 L 146 395.102519384 L 151 396.972692398 L 157 358.755583784 L 162 361.864066346 L 167 322.010521545 L 172 301.942329738 L 177 319.485030462 L 182 308.263023986 L 187 278.950750208 L 192 230.369009081 L 197 198.063540568 L 202 165.832361427 L 207 153.828821548 L 212 146.661450847 L 218 138.093161971 L 223 143.678723624 L 228 90.2460934428 L 233 112.477074594 L 238 133.440076447 L 243 157.366603286 L 248 74.8157588885 L 253 108.885660108 L 258 49.1283133134 L 263 57.7953889555 L 268 44.1255131414 L 274 92.7920111529 L 279 125.402114695 L 284 29.5235727948 L 289 60.4822902757 L 294 94.6846703772 L 299 45.823251611 L 304 29.1167114291 L 309 97.2732449273 L 314 50.2249008572 L 319 93.7900419287 L 324 43.777022883 L 330 62.2634056415 L 335 0.0 L 340 70.6186627157 L 345 118.090550811 L 350 94.3219202392 L 355 82.656937502 L 360 90.9263465008 L 365 98.1044147115 L 370 92.7356288289 L 375 132.806409396 L 380 195.065562673 L 385 187.942581598 L 391 197.479279899 L 396 188.866601398 L 401 217.997984303 L 406 236.955633084 L 411 251.387610065 L 416 243.64501422 L 421 254.995477212 L 426 277.240718242 L 431 260.81500569 L 436 261.756676541 L 441 273.858773189 L 447 288.305700044 L 452 333.551436929 L 457 330.969307525 L 462 348.290750116 L 467 327.338215774 L 472 315.5117744 L 477 348.09243819 L 482 346.836937588 L 487 318.984461488 L 492 329.892408215 L 497 358.581274855 L 502 379.485397206 L 508 366.862702553 L 513 384.994888301 L 518 370.39697032 L 523 378.371061812 L 528 369.847162561 L 533 371.525747192 L 538 383.612893966 L 543 374.33736106 L 548 399.75289533 L 553 406.00223138 L 558 403.139734342 L 564 387.863552087 L 569 410.301071494 L 574 384.129191208 L 579 403.441036999 L 584 407.552311096 L 589 384.137647537 L 594 404.849951507 L 599 401.574837951 L 604 395.837365181 L 609 391.441701084 L 614 401.627453907 L 620 383.387516669"/>
			<path class="series-2-line" d="M 40 397.08497185 L 45 410.992854455 L 50 380.051115631 L 55 394.533993382 L 60 381.417104101 L 65 402.799923611 L 70 395.432985794 L 75 393.815999443 L 80 365.174241205 L 85 375.057157784 L 90 383.215088924 L 95 395.39798609 L 101 394.930990031 L 106 392.164013387 L 111 381.347104691 L 116 379.155123194 L 121 381.563102868 L 126 364.996242707 L 131 387.52905251 L 136 380.73710984 L 141 383.145089515 L 146 400.502942999 L 151 391.411019743 L 157 401.868931469 L 162 378.977124696 L 167 398.05996362 L 172 380.343113166 L 177 393.101005478 L 182 385.734067662 L 187 374.917158966 L 192 387.675051278 L 197 350.408365842 L 202 368.916209619 L 207 348.899378579 L 212 359.357290305 L 218 341.640439851 L 223 335.998487474 L 228 320.581617606 L 233 319.539626402 L 238 314.472669171 L 243 318.030639139 L 248 315.263662494 L 253 306.171739238 L 258 313.179680085 L 263 320.187620932 L 268 268.546056833 L 274 314.653667643 L 279 286.586904552 L 284 322.344602725 L 289 282.777936703 L 294 252.986188172 L 299 309.44371162 L 304 305.526744683 L 309 271.135034979 L 314 291.367864196 L 319 325.975572076 L 324 225.459420522 L 330 247.992230325 L 335 287.199899378 L 340 249.933213942 L 345 258.091145081 L 350 257.049153877 L 355 184.132769356 L 360 230.815375313 L 365 245.873248211 L 370 244.831257007 L 375 263.91409593 L 380 230.097381374 L 385 256.080162056 L 391 239.513301895 L 396 206.271582484 L 401 250.079212709 L 406 221.437454471 L 411 248.570225446 L 416 236.603326458 L 421 251.086204209 L 426 202.894610989 L 431 267.402066489 L 436 291.084866585 L 441 277.967977303 L 447 325.225578407 L 452 344.308417331 L 457 357.066309643 L 462 359.474289317 L 467 367.632220457 L 472 364.865243813 L 477 341.398441894 L 482 326.556567172 L 487 334.714498312 L 492 328.497550789 L 497 351.605355738 L 502 355.738320852 L 508 342.621431571 L 513 330.654532582 L 518 356.637313264 L 523 359.620288085 L 528 357.428306587 L 533 355.811320236 L 538 322.569600826 L 543 347.977386362 L 548 343.485424278 L 553 368.893209813 L 558 358.076301118 L 564 377.734135188 L 569 389.342037207 L 574 381.975099391 L 579 387.833049944 L 584 387.941049033 L 589 398.973955905 L 594 388.157047209 L 599 396.889973496 L 604 386.0730648 L 609 390.206029914 L 614 406.988888252 L 620 395.59698441"/>
		</g>
		<text class="x-axis-label" x="40.0" y="540">
			0
		</text>
		<path class="x-notch" d="M 65.4385964912 525 L 65.4385964912 530"/>
		<text class="x-axis-label" x="90.8771929825" y="540">
			10
		</text>
		<path class="x-notch" d="M 116.315789474 525 L 116.315789474 530"/>
		<text class="x-axis-label" x="141.754385965" y="540">
			20
		</text>
		<path class="x-notch" d="M 167.192982456 525 L 167.192982456 530"/>
		<text class="x-axis-label" x="192.631578947" y="540">
			30
		</text>
		<path class="x-notch" d="M 218.070175439 525 L 218.070175439 530"/>
		<text class="x-axis-label" x="243.50877193" y="540">
			40
		</text>
		<path class="x-notch" d="M 268.947368421 525 L 268.947368421 530"/>
		<text class="x-axis-label" x="294.385964912" y="540">
			50
		</text>
		<path class="x-notch" d="M 319.824561404 525 L 319.824561404 530"/>
		<text class="x-axis-label" x="345.263157895" y="540">
			60
		</text>
		<path class="x-notch" d="M 370.701754386 525 L 370.701754386 530"/>
		<text class="x-axis-label" x="396.140350877" y="540">
			70
		</text>
		<path class="x-notch" d="M 421.578947368 525 L 421.578947368 530"/>
		<text class="x-axis-label" x="447.01754386" y="540">
			80
		</text>
		<path class="x-notch" d="M 472.456140351 525 L 472.456140351 530"/>
		<text class="x-axis-label" x="497.894736842" y="540">
			90
		</text>
		<path class="x-notch" d="M 523.333333333 525 L 523.333333333 530"/>
		<text class="x-axis-label" x="548.771929825" y="540">
			100
		</text>
		<path class="x-notch" d="M 574.210526316 525 L 574.210526316 530"/>
		<text class="x-axis-label" x="599.649122807" y="540">
			110
		</text>
		<path class="x-notch" d="M 625.087719298 525 L 625.087719298 530"/>
	</g>
</svg>
