<?xml version="1.0" ?>
<svg height="600" version="1.1" width="800" xmlns="http://www.w3.org/2000/svg" xmlns:svg="http://www.w3.org/2000/svg">
	<style type="text/css">
		

.x-axis-path, .y-gridline, .x-notch { fill:none; stroke: #a7a9ac; stroke-width:1; }



.y-gridline { stroke-width: 1; }

.y-axis-path, .y-axis-path2, .x-notch-left, .x-notch-right { display: none;}



.x-axis-label, .data-point-label {font-size: 12px; font-weight:normal; font-family: sans-serif; fill: #58595b; text-anchor:middle;}

.y-axis-label {font-size: 12px; font-family: helvetica; fill: #a7a9ac; text-anchor:end;}



.series-1-line { fill: none; stroke: #10b80c; stroke-width:2; }



.series-2-line { fill: none; stroke: #e90f0a; stroke-width: 2;}

	</style>
	<rect fill="white" height="600" width="800" x="0" y="0"/>
	<g id="grid" transform="translate(70, 30)">
		<g class="x-axis" id="x_axis">
			<path class="x-axis-path" d="M 0 525 L 660 525"/>
			<path class="x-notch-left" d="M 0 525, L 0 535"/>
			<path class="x-notch-right" d="M 660 525, L 660 535"/>
		</g>
		<g class="y-axis" id="y_axis">
			<path class="y-axis-path" d="M 0 525 L 0 0"/>
			<path class="y-axis-path-2" d="M 660 525 L 660 0"/>
			<path class="y-gridline" d="M 0 525 L 660 525"/>
			<text class="y-axis-label" x="-5" y="525">
				-200
			</text>
			<path class="y-gridline" d="M 0 394 L 660 394"/>
			<text class="y-axis-label" x="-5" y="394">
				 0
			</text>
			<path class="y-gridline" d="M 0 263 L 660 263"/>
			<text class="y-axis-label" x="-5" y="263">
				200
			</text>
			<path class="y-gridline" d="M 0 132 L 660 132"/>
			<text class="y-axis-label" x="-5" y="132">
				400
			</text>
			<path class="y-gridline" d="M 0 1 L 660 1"/>
			<text class="y-axis-label" x="-5" y="1">
				600
			</text>
		</g>
		<g>
			<path class="series-1-line" d="M 40 413.796128139 L 45 393.008923552 L 51 402.083225417 L 57 385.907250653 L 62 371.732729123 L 68 374.209151237 L 74 395.085851423 L 80 391.556988631 L 85 403.819321226 L 91 383.462106419 L 97 375.337048411 L 103 369.317760684 L 108 360.644055147 L 114 363.342758153 L 120 389.112182278 L 126 372.447004511 L 131 345.728994152 L 137 375.857760596 L 143 357.872544276 L 149 339.2651265 L 154 317.573301135 L 160 331.332618051 L 166 337.456667287 L 172 309.537738727 L 177 356.850830435 L 183 323.579118942 L 189 312.637038061 L 195 320.88119828 L 200 318.598126209 L 206 311.985318432 L 212 311.718734202 L 218 314.49168504 L 223 276.593940417 L 229 288.515103069 L 235 293.511788032 L 240 270.529993329 L 246 242.640671381 L 252 256.741852145 L 258 256.756762031 L 263 254.325194297 L 269 197.41931085 L 275 192.615744629 L 281 125.582780757 L 286 186.74436524 L 292 130.253668266 L 298 66.5123582671 L 304 15.6411350363 L 309 114.745211942 L 315 107.139194851 L 321 168.968315915 L 327 90.8893101378 L 332 111.573336044 L 338 0.0 L 344 44.9852718379 L 350 70.9027290231 L 355 53.9856637523 L 361 92.0170825907 L 367 124.118158259 L 373 80.1561468084 L 378 60.5550571161 L 384 161.601374031 L 390 98.4979940003 L 396 77.6365415821 L 401 72.4323608921 L 407 89.454187672 L 413 144.922513183 L 419 41.8004770626 L 424 74.0491231881 L 430 83.419953776 L 436 112.39244324 L 441 101.983512676 L 447 136.782259564 L 453 154.249110731 L 459 186.824354795 L 464 103.45201061 L 470 86.0457423362 L 476 176.298136151 L 482 221.5503301 L 487 202.068360761 L 493 330.559775722 L 499 365.967539871 L 505 378.169734036 L 510 389.987273545 L 516 389.083453252 L 522 404.562960587 L 528 387.527006265 L 533 399.745391545 L 539 419.005755756 L 545 419.702774227 L 551 402.726033129 L 556 398.174354412 L 562 418.487835065 L 568 398.708874398 L 574 413.550914368 L 579 420.134328694 L 585 425.235099402 L 591 404.284595846 L 597 415.701520887 L 602 394.736676628 L 608 382.608249551 L 614 387.635003729 L 620 391.40116388"/>
			<path class="series-2-line" d="M 40 392.246539233 L 45 397.887351688 L 51 390.806573039 L 57 398.760402058 L 62 387.631844421 L 68 395.007419299 L 74 396.022198625 L 80 370.43728746 L 85 384.751912031 L 91 390.970978628 L 97 383.311945837 L 103 408.035144949 L 108 395.750079029 L 114 390.982316944 L 120 372.914709613 L 126 389.54235075 L 131 395.761417346 L 137 396.776196672 L 143 371.191285506 L 149 397.649247042 L 154 386.520689404 L 160 347.635932993 L 166 372.359132105 L 172 385.517248395 L 177 366.871386923 L 183 358.05584585 L 189 361.38364174 L 195 371.072233183 L 200 376.713045638 L 206 358.645438307 L 212 365.442759045 L 218 371.661825641 L 223 362.846284568 L 229 362.704555612 L 235 337.697898587 L 240 324.834578526 L 246 333.366661687 L 252 376.593993315 L 258 361.995910831 L 263 345.663065923 L 269 347.834353532 L 275 363.305486386 L 281 344.081370773 L 286 330.06154243 L 292 335.124100744 L 298 321.1042724 L 304 329.05810142 L 309 327.18161004 L 315 328.774643508 L 321 345.980538785 L 327 336.00848943 L 332 344.540572591 L 338 327.629473542 L 344 311.296628634 L 350 270.098855659 L 355 303.495866887 L 361 289.476038544 L 367 321.13828735 L 373 311.166237995 L 378 312.181017321 L 384 300.474205542 L 390 322.306133949 L 396 316.960117722 L 401 304.675051803 L 407 320.724438798 L 413 337.930334075 L 419 310.610660487 L 424 274.03892064 L 430 265.801633708 L 436 289.368324538 L 441 231.979435611 L 447 180.951342236 L 453 217.817878311 L 459 220.567420061 L 464 201.921558589 L 470 243.992381934 L 476 247.320177825 L 482 234.456857764 L 487 284.623239086 L 493 298.937863657 L 499 356.043294672 L 505 289.402339487 L 510 305.451726482 L 516 344.053024981 L 522 330.033196638 L 528 336.830517376 L 533 403.188014648 L 539 385.698661459 L 545 377.461374527 L 551 375.006629006 L 556 373.708391768 L 562 394.962066033 L 568 401.181132629 L 574 396.413370544 L 579 394.536879165 L 585 398.442929196 L 591 384.423100853 L 597 372.716289075 L 602 406.113300304 L 608 391.515217819 L 614 406.986350673 L 620 393.544776471"/>
		</g>
		<text class="x-axis-label" x="40.0" y="540">
			0
		</text>
		<path class="x-notch" d="M 68.7128712871 525 L 68.7128712871 530"/>
		<text class="x-axis-label" x="97.4257425743" y="540">
			10
		</text>
		<path class="x-notch" d="M 126.138613861 525 L 126.138613861 530"/>
		<text class="x-axis-label" x="154.851485149" y="540">
			20
		</text>
		<path class="x-notch" d="M 183.564356436 525 L 183.564356436 530"/>
		<text class="x-axis-label" x="212.277227723" y="540">
			30
		</text>
		<path class="x-notch" d="M 240.99009901 525 L 240.99009901 530"/>
		<text class="x-axis-label" x="269.702970297" y="540">
			40
		</text>
		<path class="x-notch" d="M 298.415841584 525 L 298.415841584 530"/>
		<text class="x-axis-label" x="327.128712871" y="540">
			50
		</text>
		<path class="x-notch" d="M 355.841584158 525 L 355.841584158 530"/>
		<text class="x-axis-label" x="384.554455446" y="540">
			60
		</text>
		<path class="x-notch" d="M 413.267326733 525 L 413.267326733 530"/>
		<text class="x-axis-label" x="441.98019802" y="540">
			70
		</text>
		<path class="x-notch" d="M 470.693069307 525 L 470.693069307 530"/>
		<text class="x-axis-label" x="499.405940594" y="540">
			80
		</text>
		<path class="x-notch" d="M 528.118811881 525 L 528.118811881 530"/>
		<text class="x-axis-label" x="556.831683168" y="540">
			90
		</text>
		<path class="x-notch" d="M 585.544554455 525 L 585.544554455 530"/>
		<text class="x-axis-label" x="614.257425743" y="540">
			100
		</text>
		<path class="x-notch" d="M 642.97029703 525 L 642.97029703 530"/>
	</g>
</svg>
