<?xml version="1.0" ?>
<svg height="600" version="1.1" width="800" xmlns="http://www.w3.org/2000/svg" xmlns:svg="http://www.w3.org/2000/svg">
	<style type="text/css">
		

.x-axis-path, .y-gridline, .x-notch { fill:none; stroke: #a7a9ac; stroke-width:1; }



.y-gridline { stroke-width: 1; }

.y-axis-path, .y-axis-path2, .x-notch-left, .x-notch-right { display: none;}



.x-axis-label, .data-point-label {font-size: 12px; font-weight:normal; font-family: sans-serif; fill: #58595b; text-anchor:middle;}

.y-axis-label {font-size: 12px; font-family: helvetica; fill: #a7a9ac; text-anchor:end;}



.series-1-line { fill: none; stroke: #10b80c; stroke-width:2; }



.series-2-line { fill: none; stroke: #e90f0a; stroke-width: 2;}

	</style>
	<rect fill="white" height="600" width="800" x="0" y="0"/>
	<g id="grid" transform="translate(70, 30)">
		<g class="x-axis" id="x_axis">
			<path class="x-axis-path" d="M 0 525 L 660 525"/>
			<path class="x-notch-left" d="M 0 525, L 0 535"/>
			<path class="x-notch-right" d="M 660 525, L 660 535"/>
		</g>
		<g class="y-axis" id="y_axis">
			<path class="y-axis-path" d="M 0 525 L 0 0"/>
			<path class="y-axis-path-2" d="M 660 525 L 660 0"/>
			<path class="y-gridline" d="M 0 525 L 660 525"/>
			<text class="y-axis-label" x="-5" y="525">
				-200
			</text>
			<path class="y-gridline" d="M 0 420 L 660 420"/>
			<text class="y-axis-label" x="-5" y="420">
				 0
			</text>
			<path class="y-gridline" d="M 0 315 L 660 315"/>
			<text class="y-axis-label" x="-5" y="315">
				200
			</text>
			<path class="y-gridline" d="M 0 210 L 660 210"/>
			<text class="y-axis-label" x="-5" y="210">
				400
			</text>
			<path class="y-gridline" d="M 0 105 L 660 105"/>
			<text class="y-axis-label" x="-5" y="105">
				600
			</text>
			<path class="y-gridline" d="M 0 0 L 660 0"/>
			<text class="y-axis-label" x="-5" y="0">
				800
			</text>
		</g>
		<g>
			<path class="series-1-line" d="M 40 404.379318 L 44 423.142899951 L 49 431.474311902 L 54 413.945903854 L 59 426.369585805 L 63 429.558517756 L 68 424.131989707 L 73 422.838051659 L 78 418.83847361 L 82 414.206375561 L 87 398.185767512 L 92 424.770589463 L 97 420.299981415 L 101 407.011893366 L 106 420.808555317 L 111 413.591567268 L 116 409.44393922 L 120 413.736631171 L 125 402.952583122 L 130 392.612475073 L 135 392.274457024 L 139 382.903708976 L 144 362.090690927 L 149 378.377952878 L 154 360.418414829 L 158 349.86326678 L 163 352.406028732 L 168 329.990920683 L 173 289.106732634 L 177 257.834034585 L 182 292.617046537 L 187 248.394278488 L 192 228.671790439 L 196 202.20494239 L 201 196.805294341 L 206 200.667276293 L 211 185.871388244 L 215 161.908370195 L 220 211.498902146 L 225 197.443684098 L 230 124.804136049 L 234 129.688398 L 239 115.714239951 L 244 73.1471119024 L 249 125.618423854 L 253 71.9458658049 L 258 94.8155777561 L 263 29.4985197073 L 268 4.56656165854 L 272 23.5458136098 L 277 30.450065561 L 282 83.0963075122 L 287 89.9197094634 L 291 45.0646314146 L 296 41.4420033659 L 301 91.5976453171 L 306 14.1388072683 L 310 76.8948692195 L 315 95.1876311707 L 320 24.620573122 L 325 106.236525073 L 330 104.794537024 L 334 120.691198976 L 339 147.155270927 L 344 174.198102878 L 349 206.396434829 L 353 243.40061678 L 358 256.766778732 L 363 221.899720683 L 368 263.373122634 L 372 244.444644585 L 377 249.100846537 L 382 299.378498488 L 387 311.276760439 L 391 316.33742239 L 396 325.085474341 L 401 334.116606293 L 406 336.672808244 L 410 381.431030195 L 415 440.270172146 L 420 421.287934098 L 425 410.140166049 L 429 397.216218 L 434 406.758909951 L 439 420.662881902 L 444 425.669153854 L 448 415.881135805 L 453 403.711087756 L 458 412.675229707 L 463 413.467851659 L 467 390.86458361 L 472 418.970435561 L 477 411.215007512 L 482 414.956239463 L 486 406.191131415 L 491 412.570383366 L 496 423.472825317 L 501 423.242327268 L 505 427.09086922 L 510 416.024161171 L 515 419.320613122 L 520 416.074935073 L 524 422.615677024 L 529 421.510528976 L 534 426.920630927 L 539 424.603782878 L 543 403.736794829 L 548 425.79884678 L 553 429.256998732 L 558 404.836390683 L 562 408.711812634 L 567 428.337234585 L 572 417.660706537 L 577 435.764888488 L 581 423.069210439 L 586 422.52917239 L 591 415.972004341 L 596 410.491716293 L 600 420.343948244 L 605 410.044370195 L 610 417.271812146 L 615 422.587624098 L 620 430.784216049"/>
			<path class="series-2-line" d="M 40 428.505 L 44 397.867195122 L 49 418.154390244 L 54 418.491585366 L 59 435.103780488 L 63 438.59097561 L 68 434.728170732 L 73 420.890365854 L 78 419.652560976 L 82 435.214756098 L 87 446.05195122 L 92 423.814146341 L 97 434.651341463 L 101 428.688536585 L 106 435.850731707 L 111 424.637926829 L 116 426.025121951 L 120 421.112317073 L 125 434.049512195 L 130 418.636707317 L 135 419.498902439 L 139 416.686097561 L 144 417.548292683 L 149 445.710487805 L 154 410.872682927 L 158 429.059878049 L 163 430.972073171 L 168 415.559268293 L 173 414.846463415 L 177 409.408658537 L 182 398.195853659 L 187 385.93304878 L 192 400.970243902 L 196 403.407439024 L 201 395.344634146 L 206 396.206829268 L 211 379.74402439 L 215 380.606219512 L 220 352.593414634 L 225 363.955609756 L 230 403.142804878 L 234 326.305 L 239 366.017195122 L 244 341.154390244 L 249 314.191585366 L 253 322.403780488 L 258 326.94097561 L 263 308.903170732 L 268 338.115365854 L 272 335.302560976 L 277 332.489756098 L 282 298.70195122 L 287 288.014146341 L 291 313.026341463 L 296 314.413536585 L 301 259.625731707 L 306 293.037926829 L 310 279.200121951 L 315 281.112317073 L 320 263.074512195 L 325 276.011707317 L 330 264.798902439 L 334 271.961097561 L 339 289.098292683 L 344 297.835487805 L 349 280.322682927 L 353 270.684878049 L 358 304.097073171 L 363 286.059268293 L 368 275.371463415 L 372 268.883658537 L 377 268.695853659 L 382 297.38304878 L 387 273.045243902 L 391 332.707439024 L 396 287.894634146 L 401 280.881829268 L 406 280.69402439 L 410 289.956219512 L 415 313.918414634 L 420 315.830609756 L 425 303.567804878 L 429 363.755 L 434 358.842195122 L 439 328.729390244 L 444 335.366585366 L 448 336.228780488 L 453 401.66597561 L 458 425.628170732 L 463 413.890365854 L 467 427.877560976 L 472 393.564756098 L 477 384.45195122 L 482 424.689146341 L 486 409.276341463 L 491 406.463536585 L 496 414.675731707 L 501 398.737926829 L 505 401.700121951 L 510 417.787317073 L 515 404.474512195 L 520 408.486707317 L 524 400.948902439 L 529 419.136097561 L 534 424.198292683 L 539 426.635487805 L 543 415.422682927 L 548 423.109878049 L 553 425.547073171 L 558 436.384268293 L 562 435.146463415 L 567 433.908658537 L 572 430.045853659 L 577 420.40804878 L 581 424.420243902 L 586 415.832439024 L 591 424.569634146 L 596 429.106829268 L 600 416.84402439 L 605 415.606219512 L 610 423.818414634 L 615 423.105609756 L 620 423.442804878"/>
		</g>
		<text class="x-axis-label" x="40.0" y="540">
			0
		</text>
		<path class="x-notch" d="M 63.7704918033 525 L 63.7704918033 530"/>
		<text class="x-axis-label" x="87.5409836066" y="540">
			10
		</text>
		<path class="x-notch" d="M 111.31147541 525 L 111.31147541 530"/>
		<text class="x-axis-label" x="135.081967213" y="540">
			20
		</text>
		<path class="x-notch" d="M 158.852459016 525 L 158.852459016 530"/>
		<text class="x-axis-label" x="182.62295082" y="540">
			30
		</text>
		<path class="x-notch" d="M 206.393442623 525 L 206.393442623 530"/>
		<text class="x-axis-label" x="230.163934426" y="540">
			40
		</text>
		<path class="x-notch" d="M 253.93442623 525 L 253.93442623 530"/>
		<text class="x-axis-label" x="277.704918033" y="540">
			50
		</text>
		<path class="x-notch" d="M 301.475409836 525 L 301.475409836 530"/>
		<text class="x-axis-label" x="325.245901639" y="540">
			60
		</text>
		<path class="x-notch" d="M 349.016393443 525 L 349.016393443 530"/>
		<text class="x-axis-label" x="372.786885246" y="540">
			70
		</text>
		<path class="x-notch" d="M 396.557377049 525 L 396.557377049 530"/>
		<text class="x-axis-label" x="420.327868852" y="540">
			80
		</text>
		<path class="x-notch" d="M 444.098360656 525 L 444.098360656 530"/>
		<text class="x-axis-label" x="467.868852459" y="540">
			90
		</text>
		<path class="x-notch" d="M 491.639344262 525 L 491.639344262 530"/>
		<text class="x-axis-label" x="515.409836066" y="540">
			100
		</text>
		<path class="x-notch" d="M 539.180327869 525 L 539.180327869 530"/>
		<text class="x-axis-label" x="562.950819672" y="540">
			110
		</text>
		<path class="x-notch" d="M 586.721311475 525 L 586.721311475 530"/>
		<text class="x-axis-label" x="610.491803279" y="540">
			120
		</text>
		<path class="x-notch" d="M 634.262295082 525 L 634.262295082 530"/>
	</g>
</svg>
