<?xml version="1.0" ?>
<svg height="600" version="1.1" width="800" xmlns="http://www.w3.org/2000/svg" xmlns:svg="http://www.w3.org/2000/svg">
	<style type="text/css">
		

.x-axis-path, .y-gridline, .x-notch { fill:none; stroke: #a7a9ac; stroke-width:1; }



.y-gridline { stroke-width: 1; }

.y-axis-path, .y-axis-path2, .x-notch-left, .x-notch-right { display: none;}



.x-axis-label, .data-point-label {font-size: 12px; font-weight:normal; font-family: sans-serif; fill: #58595b; text-anchor:middle;}

.y-axis-label {font-size: 12px; font-family: helvetica; fill: #a7a9ac; text-anchor:end;}



.series-1-line { fill: none; stroke: #10b80c; stroke-width:2; }



.series-2-line { fill: none; stroke: #e90f0a; stroke-width: 2;}

	</style>
	<rect fill="white" height="600" width="800" x="0" y="0"/>
	<g id="grid" transform="translate(70, 30)">
		<g class="x-axis" id="x_axis">
			<path class="x-axis-path" d="M 0 525 L 660 525"/>
			<path class="x-notch-left" d="M 0 525, L 0 535"/>
			<path class="x-notch-right" d="M 660 525, L 660 535"/>
		</g>
		<g class="y-axis" id="y_axis">
			<path class="y-axis-path" d="M 0 525 L 0 0"/>
			<path class="y-axis-path-2" d="M 660 525 L 660 0"/>
			<path class="y-gridline" d="M 0 525 L 660 525"/>
			<text class="y-axis-label" x="-5" y="525">
				-200
			</text>
			<path class="y-gridline" d="M 0 420 L 660 420"/>
			<text class="y-axis-label" x="-5" y="420">
				 0
			</text>
			<path class="y-gridline" d="M 0 315 L 660 315"/>
			<text class="y-axis-label" x="-5" y="315">
				200
			</text>
			<path class="y-gridline" d="M 0 210 L 660 210"/>
			<text class="y-axis-label" x="-5" y="210">
				400
			</text>
			<path class="y-gridline" d="M 0 105 L 660 105"/>
			<text class="y-axis-label" x="-5" y="105">
				600
			</text>
			<path class="y-gridline" d="M 0 0 L 660 0"/>
			<text class="y-axis-label" x="-5" y="0">
				800
			</text>
		</g>
		<g>
			<path class="series-1-line" d="M 40 425.438328 L 45 412.686679875 L 50 416.64011175 L 55 415.047863625 L 60 428.3975355 L 66 406.559187375 L 71 410.04179925 L 76 384.406861125 L 81 390.326313 L 87 426.210454875 L 92 418.96416675 L 97 409.672268625 L 102 412.1315505 L 107 405.316182375 L 113 404.80039425 L 118 412.792966125 L 123 419.667498 L 128 408.356239875 L 134 416.05229175 L 139 398.507813625 L 144 382.9963455 L 149 394.973037375 L 154 389.03273925 L 160 386.605531125 L 165 368.913003 L 170 362.164834875 L 175 332.28978675 L 181 317.370518625 L 186 301.4682405 L 191 291.032052375 L 196 288.67204425 L 201 236.773876125 L 207 212.283438 L 212 208.698709875 L 217 207.45611175 L 222 241.294643625 L 228 202.1172255 L 233 192.662997375 L 238 207.34574925 L 243 153.347371125 L 249 165.216753 L 254 173.585854875 L 259 99.28740675 L 264 44.602958625 L 269 61.8834105 L 275 100.325562375 L 280 40.83484425 L 285 148.240576125 L 290 161.321238 L 296 78.892639875 L 301 113.71355175 L 306 128.220743625 L 311 137.1688155 L 316 138.456717375 L 322 172.33577925 L 327 162.895621125 L 332 183.433803 L 337 231.865024875 L 343 219.89310675 L 348 266.197238625 L 353 231.7045005 L 358 260.750622375 L 363 220.25440425 L 369 287.032906125 L 374 264.427218 L 379 276.081139875 L 384 286.42865175 L 390 314.693993625 L 395 338.3823855 L 400 335.336727375 L 405 327.21536925 L 410 406.366021125 L 416 403.520913 L 421 405.887164875 L 426 428.88906675 L 431 421.575578625 L 437 416.5909905 L 442 427.450272375 L 447 421.75210425 L 452 437.201986125 L 458 412.846368 L 463 423.463309875 L 468 418.85546175 L 473 406.601723625 L 478 412.5478455 L 484 410.753367375 L 489 416.61863925 L 494 407.016781125 L 499 421.026063 L 505 414.627964875 L 510 421.07220675 L 515 427.031558625 L 520 417.8335305 L 525 429.756462375 L 531 417.19297425 L 536 408.600586125 L 541 410.575398 L 546 421.879039875 L 552 426.19640175 L 557 428.925113625 L 562 420.4270155 L 567 416.626827375 L 572 429.27677925 L 578 420.280561125 L 583 412.213173 L 588 419.141884875 L 593 417.54942675 L 599 422.970548625 L 604 424.8241905 L 609 419.651022375 L 614 412.78168425 L 620 422.456776125"/>
			<path class="series-2-line" d="M 40 406.98 L 45 443.1628125 L 50 412.145625 L 55 427.3284375 L 60 404.71125 L 66 425.1440625 L 71 426.676875 L 76 404.5846875 L 81 435.5175 L 87 398.7253125 L 92 395.008125 L 97 444.3159375 L 102 421.17375 L 107 432.1565625 L 113 402.189375 L 118 437.3221875 L 123 401.055 L 128 437.7628125 L 134 437.195625 L 139 422.4534375 L 144 438.68625 L 149 425.5190625 L 154 443.326875 L 160 424.9096875 L 165 412.7925 L 170 413.2753125 L 175 417.958125 L 181 423.6909375 L 186 398.44875 L 191 441.9815625 L 196 413.064375 L 201 413.5471875 L 207 417.705 L 212 416.0878125 L 217 397.145625 L 222 413.3784375 L 228 374.48625 L 233 346.6190625 L 238 361.801875 L 243 341.8096875 L 249 365.9175 L 254 362.7253125 L 259 335.908125 L 264 361.5909375 L 269 340.02375 L 275 334.2065625 L 280 311.064375 L 285 316.7971875 L 290 315.705 L 296 349.2628125 L 301 335.045625 L 306 295.6284375 L 311 304.51125 L 316 259.3190625 L 322 289.726875 L 327 321.1846875 L 332 303.2925 L 337 356.8003125 L 343 291.658125 L 348 328.8909375 L 353 296.29875 L 358 302.5565625 L 363 305.664375 L 369 281.4721875 L 374 298.755 L 379 315.5128125 L 384 269.795625 L 390 275.0034375 L 395 277.58625 L 400 335.2940625 L 405 324.751875 L 410 397.6846875 L 416 321.5175 L 421 415.4503125 L 426 422.758125 L 431 429.5409375 L 437 441.57375 L 442 418.4315625 L 447 418.914375 L 452 416.7721875 L 458 440.88 L 463 414.5878125 L 468 408.770625 L 473 428.6784375 L 478 434.93625 L 484 420.1940625 L 489 418.576875 L 494 434.2846875 L 499 411.1425 L 505 418.4503125 L 510 428.908125 L 515 412.5909375 L 520 426.72375 L 525 421.9565625 L 531 428.739375 L 536 430.2721875 L 541 421.305 L 546 410.7628125 L 552 425.420625 L 557 421.7034375 L 562 429.01125 L 567 420.0440625 L 572 424.726875 L 578 427.8346875 L 583 429.3675 L 588 425.6503125 L 593 420.358125 L 599 426.6159375 L 604 416.07375 L 609 416.5565625 L 614 415.464375 L 620 433.7971875"/>
		</g>
		<text class="x-axis-label" x="40.0" y="540">
			0
		</text>
		<path class="x-notch" d="M 66.1261261261 525 L 66.1261261261 530"/>
		<text class="x-axis-label" x="92.2522522523" y="540">
			10
		</text>
		<path class="x-notch" d="M 118.378378378 525 L 118.378378378 530"/>
		<text class="x-axis-label" x="144.504504505" y="540">
			20
		</text>
		<path class="x-notch" d="M 170.630630631 525 L 170.630630631 530"/>
		<text class="x-axis-label" x="196.756756757" y="540">
			30
		</text>
		<path class="x-notch" d="M 222.882882883 525 L 222.882882883 530"/>
		<text class="x-axis-label" x="249.009009009" y="540">
			40
		</text>
		<path class="x-notch" d="M 275.135135135 525 L 275.135135135 530"/>
		<text class="x-axis-label" x="301.261261261" y="540">
			50
		</text>
		<path class="x-notch" d="M 327.387387387 525 L 327.387387387 530"/>
		<text class="x-axis-label" x="353.513513514" y="540">
			60
		</text>
		<path class="x-notch" d="M 379.63963964 525 L 379.63963964 530"/>
		<text class="x-axis-label" x="405.765765766" y="540">
			70
		</text>
		<path class="x-notch" d="M 431.891891892 525 L 431.891891892 530"/>
		<text class="x-axis-label" x="458.018018018" y="540">
			80
		</text>
		<path class="x-notch" d="M 484.144144144 525 L 484.144144144 530"/>
		<text class="x-axis-label" x="510.27027027" y="540">
			90
		</text>
		<path class="x-notch" d="M 536.396396396 525 L 536.396396396 530"/>
		<text class="x-axis-label" x="562.522522523" y="540">
			100
		</text>
		<path class="x-notch" d="M 588.648648649 525 L 588.648648649 530"/>
		<text class="x-axis-label" x="614.774774775" y="540">
			110
		</text>
		<path class="x-notch" d="M 640.900900901 525 L 640.900900901 530"/>
	</g>
</svg>
