<?xml version="1.0" ?>
<svg height="600" version="1.1" width="800" xmlns="http://www.w3.org/2000/svg" xmlns:svg="http://www.w3.org/2000/svg">
	<style type="text/css">
		

.x-axis-path, .y-gridline, .x-notch { fill:none; stroke: #a7a9ac; stroke-width:1; }



.y-gridline { stroke-width: 1; }

.y-axis-path, .y-axis-path2, .x-notch-left, .x-notch-right { display: none;}



.x-axis-label, .data-point-label {font-size: 12px; font-weight:normal; font-family: sans-serif; fill: #58595b; text-anchor:middle;}

.y-axis-label {font-size: 12px; font-family: helvetica; fill: #a7a9ac; text-anchor:end;}



.series-1-line { fill: none; stroke: #10b80c; stroke-width:2; }



.series-2-line { fill: none; stroke: #e90f0a; stroke-width: 2;}

	</style>
	<rect fill="white" height="600" width="800" x="0" y="0"/>
	<g id="grid" transform="translate(70, 30)">
		<g class="x-axis" id="x_axis">
			<path class="x-axis-path" d="M 0 525 L 660 525"/>
			<path class="x-notch-left" d="M 0 525, L 0 535"/>
			<path class="x-notch-right" d="M 660 525, L 660 535"/>
		</g>
		<g class="y-axis" id="y_axis">
			<path class="y-axis-path" d="M 0 525 L 0 0"/>
			<path class="y-axis-path-2" d="M 660 525 L 660 0"/>
			<path class="y-gridline" d="M 0 525 L 660 525"/>
			<text class="y-axis-label" x="-5" y="525">
				-200
			</text>
			<path class="y-gridline" d="M 0 394 L 660 394"/>
			<text class="y-axis-label" x="-5" y="394">
				 0
			</text>
			<path class="y-gridline" d="M 0 263 L 660 263"/>
			<text class="y-axis-label" x="-5" y="263">
				200
			</text>
			<path class="y-gridline" d="M 0 132 L 660 132"/>
			<text class="y-axis-label" x="-5" y="132">
				400
			</text>
			<path class="y-gridline" d="M 0 1 L 660 1"/>
			<text class="y-axis-label" x="-5" y="1">
				600
			</text>
		</g>
		<g>
			<path class="series-1-line" d="M 40 389.450681038 L 44 384.539024333 L 48 397.353602821 L 53 390.056876201 L 57 405.164107945 L 61 385.757438481 L 66 393.140317893 L 70 391.8137074 L 75 390.133513173 L 79 394.423195029 L 83 399.682651689 L 88 404.434176794 L 92 399.368652354 L 97 395.65721199 L 101 393.745856095 L 105 394.204447389 L 110 405.803206723 L 114 392.567089515 L 119 401.380866849 L 123 400.96234004 L 127 405.529271872 L 132 397.601471499 L 136 407.077048125 L 141 412.73641687 L 145 377.742297734 L 149 376.138917353 L 154 361.240740555 L 158 354.205661097 L 163 353.140697767 L 167 333.24169956 L 171 295.508686732 L 176 256.021437698 L 180 251.217320377 L 185 274.618527128 L 189 263.736514253 L 193 231.881440936 L 198 216.152474387 L 202 194.668470479 L 206 140.31702214 L 211 102.476229885 L 215 126.954270738 L 220 117.287836973 L 224 172.556227855 L 228 130.376173438 L 233 101.121488848 L 237 116.336740062 L 242 75.5414952599 L 246 101.666232934 L 250 77.2587420606 L 255 41.8030197191 L 259 47.9547172079 L 264 46.2125918175 L 268 28.2985113961 L 272 80.3356798434 L 277 22.2450775143 L 281 37.0909021389 L 286 26.8550857417 L 290 43.1778965964 L 294 12.2306669208 L 299 39.1401060388 L 303 66.3572806268 L 308 115.008878817 L 312 54.1025689508 L 316 37.9273619653 L 321 28.2297225757 L 325 44.6144645936 L 330 51.9356528857 L 334 0.0 L 338 41.0657508248 L 343 87.0094209054 L 347 84.8368979348 L 351 107.714570318 L 356 171.41520113 L 360 176.351319508 L 365 124.600499939 L 369 205.704267706 L 373 167.602068331 L 378 158.812752669 L 382 176.366745447 L 387 184.410944063 L 391 243.495542825 L 395 257.156273834 L 400 236.934177388 L 404 288.186404347 L 409 247.068061306 L 413 269.099581168 L 417 275.036199889 L 422 328.765673378 L 426 340.103025592 L 431 348.23988091 L 435 373.533588789 L 439 362.359203213 L 444 374.019653666 L 448 375.340000293 L 453 404.418950471 L 457 392.52155457 L 461 399.688875127 L 466 399.54735825 L 470 398.420943843 L 474 406.219338152 L 479 399.614896319 L 483 397.472858843 L 488 400.793486025 L 492 390.342350816 L 496 389.892858426 L 501 389.181958916 L 505 395.502886909 L 510 401.36245174 L 514 389.757188497 L 518 407.572588394 L 523 405.215232107 L 527 385.377684977 L 532 405.439649822 L 536 393.757572733 L 540 399.693951411 L 545 398.290527072 L 549 404.82701392 L 554 399.053601881 L 558 391.77223803 L 562 413.142198645 L 567 389.504046447 L 571 393.686188919 L 576 400.084170801 L 580 395.757259497 L 584 404.401806328 L 589 398.674482596 L 593 385.992145208 L 598 391.759293381 L 602 389.140289932 L 606 389.106312439 L 611 401.413199414 L 615 394.19328664 L 620 398.17547307"/>
			<path class="series-2-line" d="M 40 385.708550511 L 44 392.268229148 L 48 395.22725876 L 53 399.386504714 L 57 395.744344447 L 61 393.302400522 L 66 401.062295501 L 70 386.618188159 L 75 403.979813872 L 79 379.333867625 L 83 390.694411629 L 88 387.652359533 L 92 394.812146341 L 97 401.371824979 L 101 384.527284953 L 105 395.887828957 L 110 377.84307259 L 114 395.804806474 L 119 390.962429865 L 123 398.722324844 L 127 401.081246286 L 132 386.637138944 L 136 395.597250264 L 141 391.354981826 L 145 386.512605218 L 149 391.872067514 L 154 388.229907247 L 158 398.390234909 L 163 389.947209275 L 167 394.106455229 L 171 395.265160329 L 176 389.222567379 L 180 378.979217233 L 185 392.140085749 L 189 393.89889902 L 193 390.856846924 L 198 399.816958244 L 202 393.774365294 L 206 389.532096856 L 211 384.089612077 L 215 369.645504735 L 220 369.003885322 L 224 372.563023105 L 228 365.320213813 L 233 354.476755497 L 237 380.840003771 L 242 368.196220942 L 246 377.756440433 L 250 383.115902729 L 255 380.073850633 L 259 369.230392316 L 264 349.385311437 L 268 348.143583853 L 272 364.304993224 L 277 358.262400273 L 281 372.023376961 L 286 366.580892181 L 290 360.538299231 L 294 356.296030793 L 299 360.455276747 L 303 363.41430636 L 308 345.969658163 L 312 357.930310338 L 316 366.290313488 L 321 323.641122117 L 325 354.805235758 L 330 348.762642808 L 334 342.119941687 L 338 337.877673249 L 343 345.037460058 L 347 369.000275649 L 351 346.754762086 L 356 345.513034503 L 360 337.070008869 L 365 348.430552873 L 369 347.18882529 L 373 359.149477464 L 378 362.108507077 L 382 374.669267422 L 387 349.423213005 L 391 366.184730547 L 395 354.141055888 L 400 361.900950867 L 404 360.059115113 L 409 351.015981308 L 413 343.773172016 L 417 366.535771266 L 422 352.691772095 L 426 352.050152682 L 431 359.209939491 L 435 357.968211907 L 439 358.526808836 L 444 354.284540398 L 448 371.646166111 L 453 365.003464989 L 457 384.765523385 L 461 379.323038606 L 466 390.68358261 L 470 391.84228771 L 474 405.003156226 L 479 394.75980608 L 483 390.517537642 L 488 400.077757134 L 492 404.837111258 L 496 393.993652942 L 501 400.553331579 L 505 386.709332408 L 510 398.069876412 L 514 395.627932486 L 518 390.785555878 L 523 396.745126344 L 527 391.302641565 L 532 387.060373127 L 536 396.620592619 L 540 395.978973206 L 545 393.537029281 L 549 392.895409868 L 554 393.454006797 L 558 395.212820068 L 562 397.571741509 L 567 399.93066295 L 571 392.087745488 L 576 389.645801562 L 580 398.605912883 L 584 396.764077129 L 589 390.121376008 L 593 391.880189278 L 598 394.23911072 L 602 394.197599478 L 606 388.755114698 L 611 400.715766873 L 615 392.87284941 L 620 392.831338169"/>
		</g>
		<text class="x-axis-label" x="40.0" y="540">
			0
		</text>
		<path class="x-notch" d="M 61.9696969697 525 L 61.9696969697 530"/>
		<text class="x-axis-label" x="83.9393939394" y="540">
			10
		</text>
		<path class="x-notch" d="M 105.909090909 525 L 105.909090909 530"/>
		<text class="x-axis-label" x="127.878787879" y="540">
			20
		</text>
		<path class="x-notch" d="M 149.848484848 525 L 149.848484848 530"/>
		<text class="x-axis-label" x="171.818181818" y="540">
			30
		</text>
		<path class="x-notch" d="M 193.787878788 525 L 193.787878788 530"/>
		<text class="x-axis-label" x="215.757575758" y="540">
			40
		</text>
		<path class="x-notch" d="M 237.727272727 525 L 237.727272727 530"/>
		<text class="x-axis-label" x="259.696969697" y="540">
			50
		</text>
		<path class="x-notch" d="M 281.666666667 525 L 281.666666667 530"/>
		<text class="x-axis-label" x="303.636363636" y="540">
			60
		</text>
		<path class="x-notch" d="M 325.606060606 525 L 325.606060606 530"/>
		<text class="x-axis-label" x="347.575757576" y="540">
			70
		</text>
		<path class="x-notch" d="M 369.545454545 525 L 369.545454545 530"/>
		<text class="x-axis-label" x="391.515151515" y="540">
			80
		</text>
		<path class="x-notch" d="M 413.484848485 525 L 413.484848485 530"/>
		<text class="x-axis-label" x="435.454545455" y="540">
			90
		</text>
		<path class="x-notch" d="M 457.424242424 525 L 457.424242424 530"/>
		<text class="x-axis-label" x="479.393939394" y="540">
			100
		</text>
		<path class="x-notch" d="M 501.363636364 525 L 501.363636364 530"/>
		<text class="x-axis-label" x="523.333333333" y="540">
			110
		</text>
		<path class="x-notch" d="M 545.303030303 525 L 545.303030303 530"/>
		<text class="x-axis-label" x="567.272727273" y="540">
			120
		</text>
		<path class="x-notch" d="M 589.242424242 525 L 589.242424242 530"/>
		<text class="x-axis-label" x="611.212121212" y="540">
			130
		</text>
		<path class="x-notch" d="M 633.181818182 525 L 633.181818182 530"/>
	</g>
</svg>
