<?xml version="1.0" ?>
<svg height="600" version="1.1" width="800" xmlns="http://www.w3.org/2000/svg" xmlns:svg="http://www.w3.org/2000/svg">
	<style type="text/css">
		

.x-axis-path, .y-gridline, .x-notch { fill:none; stroke: #a7a9ac; stroke-width:1; }



.y-gridline { stroke-width: 1; }

.y-axis-path, .y-axis-path2, .x-notch-left, .x-notch-right { display: none;}



.x-axis-label, .data-point-label {font-size: 12px; font-weight:normal; font-family: sans-serif; fill: #58595b; text-anchor:middle;}

.y-axis-label {font-size: 12px; font-family: helvetica; fill: #a7a9ac; text-anchor:end;}



.series-1-line { fill: none; stroke: #10b80c; stroke-width:2; }



.series-2-line { fill: none; stroke: #e90f0a; stroke-width: 2;}

	</style>
	<rect fill="white" height="600" width="800" x="0" y="0"/>
	<g id="grid" transform="translate(70, 30)">
		<g class="x-axis" id="x_axis">
			<path class="x-axis-path" d="M 0 525 L 660 525"/>
			<path class="x-notch-left" d="M 0 525, L 0 535"/>
			<path class="x-notch-right" d="M 660 525, L 660 535"/>
		</g>
		<g class="y-axis" id="y_axis">
			<path class="y-axis-path" d="M 0 525 L 0 0"/>
			<path class="y-axis-path-2" d="M 660 525 L 660 0"/>
			<path class="y-gridline" d="M 0 525 L 660 525"/>
			<text class="y-axis-label" x="-5" y="525">
				-300
			</text>
			<path class="y-gridline" d="M 0 420 L 660 420"/>
			<text class="y-axis-label" x="-5" y="420">
				 0
			</text>
			<path class="y-gridline" d="M 0 315 L 660 315"/>
			<text class="y-axis-label" x="-5" y="315">
				300
			</text>
			<path class="y-gridline" d="M 0 210 L 660 210"/>
			<text class="y-axis-label" x="-5" y="210">
				600
			</text>
			<path class="y-gridline" d="M 0 105 L 660 105"/>
			<text class="y-axis-label" x="-5" y="105">
				900
			</text>
			<path class="y-gridline" d="M 0 0 L 660 0"/>
			<text class="y-axis-label" x="-5" y="0">
				1200
			</text>
		</g>
		<g>
			<path class="series-1-line" d="M 40 420.4613 L 45 421.313385055 L 50 429.407670109 L 55 422.640535164 L 61 406.890160218 L 66 419.678085273 L 71 417.451850327 L 77 417.083555382 L 82 420.681740436 L 87 429.799005491 L 93 428.658890545 L 98 425.9840956 L 103 431.825920655 L 109 428.397225709 L 114 427.750470764 L 119 421.279575818 L 125 423.280360873 L 130 414.458025927 L 135 406.542190982 L 141 432.064796036 L 146 400.142461091 L 151 377.849606145 L 157 384.4274112 L 162 388.474296255 L 167 362.636641309 L 173 360.392626364 L 178 364.798471418 L 183 317.637836473 L 188 331.915361527 L 194 330.470046582 L 199 295.343951636 L 204 289.447196691 L 210 287.454481745 L 215 246.6655268 L 220 259.157351855 L 226 248.665796909 L 231 217.936961964 L 236 222.010867018 L 242 195.096192073 L 247 200.291917127 L 252 154.881142182 L 258 166.475707236 L 263 153.686612291 L 268 158.702717345 L 274 129.0868824 L 279 120.910787455 L 284 102.369092509 L 290 130.494297564 L 295 15.2988426182 L 300 51.2675476727 L 306 88.5735327273 L 311 58.6705577818 L 316 101.513542836 L 322 90.0527678909 L 327 54.5583329455 L 332 89.261858 L 337 74.5974630545 L 343 92.7339481091 L 348 69.8757731636 L 353 96.9868182182 L 359 124.932543273 L 364 121.997628327 L 369 129.104493382 L 375 127.273478436 L 380 151.512703491 L 385 171.076348545 L 391 148.5771336 L 396 204.038318655 L 401 190.549223709 L 407 197.225728764 L 412 160.555853818 L 417 186.473398873 L 423 220.988343927 L 428 137.947948982 L 433 225.636154036 L 439 327.288239091 L 444 290.735264145 L 449 236.2422692 L 455 289.002294255 L 460 310.773599309 L 465 291.576984364 L 471 319.585289418 L 476 317.350234473 L 481 315.626599527 L 486 319.745164582 L 492 335.154029636 L 497 382.583134691 L 502 403.430159745 L 508 404.5964048 L 513 399.866409855 L 518 390.721094909 L 524 408.238499964 L 529 407.950845018 L 534 410.732410073 L 540 414.689695127 L 545 420.145540182 L 550 403.901525236 L 556 412.507370291 L 561 417.981275345 L 566 407.9205004 L 572 412.505965455 L 577 422.269470509 L 582 404.661295564 L 588 409.704420618 L 593 412.620665673 L 598 414.755990727 L 604 421.603015782 L 609 411.389640836 L 614 426.475105891 L 620 424.706670945"/>
			<path class="series-2-line" d="M 40 421.75 L 45 422.770090909 L 50 413.290181818 L 55 415.360272727 L 61 426.530363636 L 66 421.950454545 L 71 411.770545455 L 77 425.740636364 L 82 421.510727273 L 87 402.580818182 L 93 414.100909091 L 98 419.321 L 103 419.991090909 L 109 419.961181818 L 114 409.081272727 L 119 419.551363636 L 125 418.821454545 L 130 413.891545455 L 135 417.711636364 L 141 419.431727273 L 146 414.501818182 L 151 408.871909091 L 157 417.592 L 162 411.612090909 L 167 412.982181818 L 173 419.252272727 L 178 411.872363636 L 183 422.692454545 L 188 404.112545455 L 194 408.632636364 L 199 412.102727273 L 204 401.222818182 L 210 409.242909091 L 215 408.863 L 220 409.533090909 L 226 405.653181818 L 231 391.973272727 L 236 395.443363636 L 242 387.363454545 L 247 393.283545455 L 252 390.453636364 L 258 408.273727273 L 263 394.243818182 L 268 387.213909091 L 274 391.034 L 279 394.504090909 L 284 376.974181818 L 290 382.194272727 L 295 373.064363636 L 300 369.534454545 L 306 375.804545455 L 311 383.474636364 L 316 372.244727273 L 322 369.414818182 L 327 334.734909091 L 332 351.155 L 337 370.375090909 L 343 350.395181818 L 348 351.065272727 L 353 350.685363636 L 359 356.605454545 L 364 375.125545455 L 369 342.195636364 L 375 365.965727273 L 380 363.135818182 L 385 366.255909091 L 391 365.526 L 396 378.796090909 L 401 364.766181818 L 407 371.736272727 L 412 356.656363636 L 417 365.026454545 L 423 369.896545455 L 428 354.116636364 L 433 376.836727273 L 439 377.856818182 L 444 385.526909091 L 449 366.247 L 455 391.417090909 L 460 391.387181818 L 465 394.157272727 L 471 376.627363636 L 476 381.497454545 L 481 374.817545455 L 486 357.637636364 L 492 394.707727273 L 497 405.177818182 L 502 412.847909091 L 508 419.468 L 513 417.688090909 L 518 422.208181818 L 524 416.928272727 L 529 418.298363636 L 534 418.618454545 L 540 426.638545455 L 545 419.258636364 L 550 425.528727273 L 556 418.148818182 L 561 421.618909091 L 566 418.789 L 572 424.359090909 L 577 413.829181818 L 582 414.499272727 L 588 416.919363636 L 593 423.539454545 L 598 415.459545455 L 604 423.129636364 L 609 416.799727273 L 614 422.369818182 L 620 422.689909091"/>
		</g>
		<text class="x-axis-label" x="40.0" y="540">
			0
		</text>
		<path class="x-notch" d="M 66.6055045872 525 L 66.6055045872 530"/>
		<text class="x-axis-label" x="93.2110091743" y="540">
			10
		</text>
		<path class="x-notch" d="M 119.816513761 525 L 119.816513761 530"/>
		<text class="x-axis-label" x="146.422018349" y="540">
			20
		</text>
		<path class="x-notch" d="M 173.027522936 525 L 173.027522936 530"/>
		<text class="x-axis-label" x="199.633027523" y="540">
			30
		</text>
		<path class="x-notch" d="M 226.23853211 525 L 226.23853211 530"/>
		<text class="x-axis-label" x="252.844036697" y="540">
			40
		</text>
		<path class="x-notch" d="M 279.449541284 525 L 279.449541284 530"/>
		<text class="x-axis-label" x="306.055045872" y="540">
			50
		</text>
		<path class="x-notch" d="M 332.660550459 525 L 332.660550459 530"/>
		<text class="x-axis-label" x="359.266055046" y="540">
			60
		</text>
		<path class="x-notch" d="M 385.871559633 525 L 385.871559633 530"/>
		<text class="x-axis-label" x="412.47706422" y="540">
			70
		</text>
		<path class="x-notch" d="M 439.082568807 525 L 439.082568807 530"/>
		<text class="x-axis-label" x="465.688073394" y="540">
			80
		</text>
		<path class="x-notch" d="M 492.293577982 525 L 492.293577982 530"/>
		<text class="x-axis-label" x="518.899082569" y="540">
			90
		</text>
		<path class="x-notch" d="M 545.504587156 525 L 545.504587156 530"/>
		<text class="x-axis-label" x="572.110091743" y="540">
			100
		</text>
		<path class="x-notch" d="M 598.71559633 525 L 598.71559633 530"/>
	</g>
</svg>
