<?xml version="1.0" ?>
<svg height="600" version="1.1" width="800" xmlns="http://www.w3.org/2000/svg" xmlns:svg="http://www.w3.org/2000/svg">
	<style type="text/css">

.x-axis-path, .y-gridline, .x-notch { fill:none; stroke: #a7a9ac; stroke-width:1; }



.y-gridline { stroke-width: 1; }

.y-axis-path, .y-axis-path2, .x-notch-left, .x-notch-right { display: none;}



.x-axis-label, .data-point-label {font-size: 12px; font-weight:normal; font-family: sans-serif; fill: #58595b; text-anchor:middle;}

.y-axis-label {font-size: 12px; font-family: helvetica; fill: #a7a9ac; text-anchor:end;}



.series-1-line { fill: none; stroke: #10b80c; stroke-width:2; }



.series-2-line { fill: none; stroke: #e90f0a; stroke-width: 2;}
</style>
	<rect fill="white" height="600" width="800" x="0" y="0"/>
	<g id="grid" transform="translate(70, 30)">
		<g class="x-axis" id="x_axis">
			<path class="x-axis-path" d="M 0 525 L 660 525"/>
			<path class="x-notch-left" d="M 0 525, L 0 535"/>
			<path class="x-notch-right" d="M 660 525, L 660 535"/>
		</g>
		<g class="y-axis" id="y_axis">
			<path class="y-axis-path" d="M 0 525 L 0 0"/>
			<path class="y-axis-path-2" d="M 660 525 L 660 0"/>
			<path class="y-gridline" d="M 0 525 L 660 525"/>
			<text class="y-axis-label" x="-5" y="525">-200</text>
			<path class="y-gridline" d="M 0 394 L 660 394"/>
			<text class="y-axis-label" x="-5" y="394"> 0</text>
			<path class="y-gridline" d="M 0 263 L 660 263"/>
			<text class="y-axis-label" x="-5" y="263">200</text>
			<path class="y-gridline" d="M 0 132 L 660 132"/>
			<text class="y-axis-label" x="-5" y="132">400</text>
			<path class="y-gridline" d="M 0 1 L 660 1"/>
			<text class="y-axis-label" x="-5" y="1">600</text>
		</g>
		<g>
			<path class="series-1-line" d="M 40 391.444292775 L 43 393.17306737 L 47 404.365364887 L 51 384.644074288 L 55 395.804487403 L 59 418.567999647 L 63 381.708178864 L 67 382.085021613 L 71 390.09435909 L 75 395.953492225 L 79 395.915173493 L 83 391.278194072 L 87 391.846675361 L 91 390.946149266 L 95 385.223107411 L 99 385.706563628 L 103 392.981397413 L 107 397.871875781 L 111 393.053719889 L 114 390.311537466 L 118 400.439360946 L 122 393.290156372 L 126 402.108560542 L 130 388.359284812 L 134 403.170960118 L 138 394.084279945 L 142 375.129543505 L 146 405.121183193 L 150 382.24898302 L 154 414.199354575 L 158 399.151287668 L 162 393.40715561 L 166 395.838549495 L 170 401.836014436 L 174 400.222240917 L 178 410.275501395 L 182 376.651781322 L 185 390.654389935 L 189 389.562225301 L 193 399.583601377 L 197 379.93687378 L 201 375.57655797 L 205 385.278591835 L 209 368.825286348 L 213 340.566781124 L 217 335.163247544 L 221 335.124762748 L 225 323.98353144 L 229 310.521713519 L 233 299.529608214 L 237 304.973579869 L 241 256.733850769 L 245 272.546231308 L 249 224.00858233 L 253 240.172189482 L 257 230.691438032 L 260 221.689948996 L 264 220.629668763 L 268 158.136117512 L 272 230.080323025 L 276 162.019622382 L 280 177.480610244 L 284 153.863112181 L 288 129.341060283 L 292 145.632371106 L 296 145.061815357 L 300 129.705034373 L 304 155.246973311 L 308 61.7227584064 L 312 72.3084219676 L 316 86.7793327303 L 320 87.0392660066 L 324 61.0370803977 L 328 29.1910817856 L 331 17.1874770495 L 335 0.0 L 339 39.4765849426 L 343 15.1245831874 L 347 61.6376570352 L 351 72.6276878786 L 355 75.7296505876 L 359 77.309299179 L 363 84.4351730241 L 367 85.8020928728 L 371 110.290185908 L 375 130.648086468 L 379 99.9409588297 L 383 156.428370285 L 387 158.029607273 L 391 171.393365399 L 395 172.940963524 L 399 165.717362013 L 402 134.424690622 L 406 215.406961572 L 410 193.971718316 L 414 139.281044063 L 418 182.355750527 L 422 197.774225854 L 426 200.439438685 L 430 195.791997194 L 434 181.244116839 L 438 175.287422103 L 442 181.774279397 L 446 194.073729551 L 450 203.82907015 L 454 161.785044925 L 458 206.200889036 L 462 247.827844385 L 466 230.757276808 L 470 275.609538668 L 474 295.850363691 L 477 321.402930762 L 481 323.717415175 L 485 335.590909649 L 489 320.75573755 L 493 287.962340439 L 497 347.611289602 L 501 342.101474683 L 505 339.242216723 L 509 374.024155641 L 513 362.702079991 L 517 380.238875257 L 521 396.945513626 L 525 384.154264529 L 529 376.792165148 L 533 399.555843456 L 537 413.324300993 L 541 401.874355608 L 545 404.742167242 L 548 407.939949221 L 552 379.947479473 L 556 391.23559626 L 560 407.676033087 L 564 406.924466932 L 568 402.532266719 L 572 406.326220584 L 576 387.626891487 L 580 381.989206832 L 584 381.620917756 L 588 402.063843387 L 592 397.469376501 L 596 391.927511116 L 600 391.665669443 L 604 391.818989251 L 608 405.214797843 L 612 391.657160653 L 616 382.389470075 L 620 396.647652095"/>
			<path class="series-2-line" d="M 40 397.237356438 L 43 397.199206464 L 47 394.254926125 L 51 388.819676901 L 55 390.857334331 L 59 380.024985858 L 63 392.856841787 L 67 393.233853294 L 71 384.892473705 L 75 388.175615577 L 79 388.552627084 L 83 393.91157636 L 87 396.779556751 L 91 402.138506027 L 95 382.587766458 L 99 398.740914234 L 103 391.645019087 L 107 400.325260209 L 111 385.341296928 L 114 386.548631396 L 118 387.755965864 L 122 396.436206986 L 126 391.416119243 L 130 393.453776673 L 134 392.585303738 L 138 395.86844561 L 142 400.397071924 L 146 395.376984181 L 150 395.753995688 L 154 392.809715349 L 158 386.959304644 L 162 386.921154671 L 166 390.619458023 L 170 388.505500646 L 174 391.788642518 L 178 388.429200698 L 182 398.354926262 L 185 394.165161481 L 189 397.033141872 L 193 398.655637821 L 197 397.787164886 L 201 392.351915662 L 205 395.219896053 L 209 381.896578695 L 213 396.804242029 L 217 392.199315766 L 221 376.385029524 L 225 376.34687955 L 229 382.120990307 L 233 391.216392909 L 237 394.499534781 L 241 385.327832231 L 245 390.271620026 L 249 395.215407821 L 253 393.931773405 L 257 377.702325682 L 260 383.891597919 L 264 381.777640541 L 268 378.003037241 L 272 369.661657652 L 276 392.457389119 L 280 387.437301376 L 284 374.529145499 L 288 389.436808832 L 292 384.416721089 L 296 386.86954 L 300 380.603967815 L 304 373.508072668 L 308 369.318307886 L 312 380.074356412 L 316 367.581362015 L 320 386.225478676 L 324 356.710863568 L 328 364.560781728 L 331 353.313271774 L 335 373.618034357 L 339 378.561822153 L 343 366.899150717 L 347 375.164230359 L 351 371.389627058 L 355 367.615023757 L 359 358.443321207 L 363 358.405171233 L 367 366.255089393 L 371 361.650163131 L 375 369.915242772 L 379 361.989024664 L 383 352.402160632 L 387 372.291761735 L 391 354.401668088 L 395 334.020605557 L 399 354.325368141 L 402 340.586889302 L 406 363.38262077 L 410 350.059303411 L 414 343.378569745 L 418 353.71945679 L 422 355.341952739 L 426 322.506045786 L 430 345.716938734 L 434 326.581360645 L 438 359.756129132 L 442 329.826352544 L 446 332.279171454 L 450 343.03521998 L 454 355.036752948 L 458 350.431826686 L 462 359.94239077 L 466 361.980048199 L 470 354.053830091 L 474 364.394717136 L 477 355.638176066 L 481 377.603584573 L 485 365.525751657 L 489 358.845017991 L 493 368.770743555 L 497 351.71097287 L 501 363.712505838 L 505 366.99564771 L 509 359.484591083 L 513 371.486124051 L 517 366.466036308 L 521 377.637246314 L 525 375.938450417 L 529 385.449014501 L 533 390.807963777 L 537 390.769813803 L 541 390.316502348 L 545 390.693513855 L 548 388.164394997 L 552 393.938505753 L 556 392.239709856 L 560 396.35317469 L 564 394.654378793 L 568 394.201067339 L 572 395.823563288 L 576 392.879282948 L 580 392.425971494 L 584 395.709113366 L 588 390.689025623 L 592 389.405391207 L 596 390.197564194 L 600 393.065544586 L 604 395.933524977 L 608 389.252791311 L 612 393.781417626 L 616 392.91294469 L 620 397.441571005"/>
		</g>
		<text class="x-axis-label" x="40.0" y="540">0</text>
		<path class="x-notch" d="M 59.7278911565 525 L 59.7278911565 530"/>
		<text class="x-axis-label" x="79.4557823129" y="540">10</text>
		<path class="x-notch" d="M 99.1836734694 525 L 99.1836734694 530"/>
		<text class="x-axis-label" x="118.911564626" y="540">20</text>
		<path class="x-notch" d="M 138.639455782 525 L 138.639455782 530"/>
		<text class="x-axis-label" x="158.367346939" y="540">30</text>
		<path class="x-notch" d="M 178.095238095 525 L 178.095238095 530"/>
		<text class="x-axis-label" x="197.823129252" y="540">40</text>
		<path class="x-notch" d="M 217.551020408 525 L 217.551020408 530"/>
		<text class="x-axis-label" x="237.278911565" y="540">50</text>
		<path class="x-notch" d="M 257.006802721 525 L 257.006802721 530"/>
		<text class="x-axis-label" x="276.734693878" y="540">60</text>
		<path class="x-notch" d="M 296.462585034 525 L 296.462585034 530"/>
		<text class="x-axis-label" x="316.19047619" y="540">70</text>
		<path class="x-notch" d="M 335.918367347 525 L 335.918367347 530"/>
		<text class="x-axis-label" x="355.646258503" y="540">80</text>
		<path class="x-notch" d="M 375.37414966 525 L 375.37414966 530"/>
		<text class="x-axis-label" x="395.102040816" y="540">90</text>
		<path class="x-notch" d="M 414.829931973 525 L 414.829931973 530"/>
		<text class="x-axis-label" x="434.557823129" y="540">100</text>
		<path class="x-notch" d="M 454.285714286 525 L 454.285714286 530"/>
		<text class="x-axis-label" x="474.013605442" y="540">110</text>
		<path class="x-notch" d="M 493.741496599 525 L 493.741496599 530"/>
		<text class="x-axis-label" x="513.469387755" y="540">120</text>
		<path class="x-notch" d="M 533.197278912 525 L 533.197278912 530"/>
		<text class="x-axis-label" x="552.925170068" y="540">130</text>
		<path class="x-notch" d="M 572.653061224 525 L 572.653061224 530"/>
		<text class="x-axis-label" x="592.380952381" y="540">140</text>
		<path class="x-notch" d="M 612.108843537 525 L 612.108843537 530"/>
	</g>
</svg>
