<?xml version="1.0" ?>
<svg height="600" version="1.1" width="800" xmlns="http://www.w3.org/2000/svg" xmlns:svg="http://www.w3.org/2000/svg">
	<style type="text/css">
		

.x-axis-path, .y-gridline, .x-notch { fill:none; stroke: #a7a9ac; stroke-width:1; }



.y-gridline { stroke-width: 1; }

.y-axis-path, .y-axis-path2, .x-notch-left, .x-notch-right { display: none;}



.x-axis-label, .data-point-label {font-size: 12px; font-weight:normal; font-family: sans-serif; fill: #58595b; text-anchor:middle;}

.y-axis-label {font-size: 12px; font-family: helvetica; fill: #a7a9ac; text-anchor:end;}



.series-1-line { fill: none; stroke: #10b80c; stroke-width:2; }



.series-2-line { fill: none; stroke: #e90f0a; stroke-width: 2;}

	</style>
	<rect fill="white" height="600" width="800" x="0" y="0"/>
	<g id="grid" transform="translate(70, 30)">
		<g class="x-axis" id="x_axis">
			<path class="x-axis-path" d="M 0 525 L 660 525"/>
			<path class="x-notch-left" d="M 0 525, L 0 535"/>
			<path class="x-notch-right" d="M 660 525, L 660 535"/>
		</g>
		<g class="y-axis" id="y_axis">
			<path class="y-axis-path" d="M 0 525 L 0 0"/>
			<path class="y-axis-path-2" d="M 660 525 L 660 0"/>
			<path class="y-gridline" d="M 0 525 L 660 525"/>
			<text class="y-axis-label" x="-5" y="525">
				-200
			</text>
			<path class="y-gridline" d="M 0 394 L 660 394"/>
			<text class="y-axis-label" x="-5" y="394">
				 0
			</text>
			<path class="y-gridline" d="M 0 263 L 660 263"/>
			<text class="y-axis-label" x="-5" y="263">
				200
			</text>
			<path class="y-gridline" d="M 0 132 L 660 132"/>
			<text class="y-axis-label" x="-5" y="132">
				400
			</text>
			<path class="y-gridline" d="M 0 1 L 660 1"/>
			<text class="y-axis-label" x="-5" y="1">
				600
			</text>
		</g>
		<g>
			<path class="series-1-line" d="M 40 391.400627155 L 45 396.404975114 L 51 392.580931879 L 57 393.816835969 L 63 393.860108665 L 69 378.223320757 L 75 386.614088207 L 81 393.930829627 L 87 393.196795255 L 93 391.810534165 L 99 388.856195071 L 105 378.951211728 L 111 396.842227613 L 116 383.761621658 L 122 386.104337836 L 128 379.150921913 L 134 390.684320363 L 140 381.306380607 L 146 379.939852819 L 152 386.031279565 L 158 357.47472934 L 164 369.212346902 L 170 375.211582132 L 176 363.817659544 L 182 380.404119218 L 187 364.879358906 L 193 357.451521533 L 199 355.84130803 L 205 363.131635604 L 211 368.985954403 L 217 331.963509616 L 223 334.85958045 L 229 309.808055079 L 235 253.732182953 L 241 249.354785063 L 247 207.713822789 L 253 196.932660316 L 258 175.484929083 L 264 108.288005603 L 270 135.725519848 L 276 106.668339882 L 282 101.098413376 L 288 75.5461554867 L 294 87.3627062534 L 300 67.3248782823 L 306 65.8265895973 L 312 0.0 L 318 17.8581270499 L 324 20.3062930563 L 330 39.2646544275 L 335 50.0666874001 L 341 33.1121877467 L 347 69.3778876307 L 353 20.4964482464 L 359 66.6905680908 L 365 72.0308960591 L 371 98.4735230334 L 377 165.019562549 L 383 116.922213556 L 389 118.329242367 L 395 167.145938501 L 401 172.940749063 L 406 186.799902063 L 412 360.630042058 L 418 344.452952251 L 424 318.84786667 L 430 369.232640809 L 436 372.379180679 L 442 375.98678091 L 448 384.726683904 L 454 389.520234984 L 460 392.021023127 L 466 395.075165925 L 472 392.713750866 L 477 390.101969548 L 483 386.712881161 L 489 398.845781413 L 495 390.798708937 L 501 391.553613809 L 507 382.327168251 L 513 386.619986812 L 519 391.057824581 L 525 394.592966597 L 531 387.165129225 L 537 387.340265595 L 543 396.165782338 L 548 385.424086468 L 554 395.949442112 L 560 394.075604038 L 566 386.667602744 L 572 384.681737075 L 578 397.275800465 L 584 393.524318223 L 590 388.217913511 L 596 391.845349821 L 602 396.263351512 L 608 387.728702051 L 614 395.552856534 L 620 398.389521909"/>
			<path class="series-2-line" d="M 40 395.49721938 L 45 395.693950261 L 51 390.237912559 L 57 397.115188129 L 63 389.603598215 L 69 393.14060144 L 75 396.163716612 L 81 386.339630461 L 87 389.876633686 L 93 394.95530107 L 99 394.124255845 L 105 395.348762831 L 111 389.378837077 L 116 384.950575481 L 122 389.515354812 L 128 391.253749852 L 134 395.047697103 L 140 394.216651878 L 146 396.211990945 L 152 397.179553905 L 158 391.98046023 L 164 393.975799296 L 170 399.311410706 L 176 402.334525878 L 182 389.427111409 L 187 395.533554899 L 193 391.105293303 L 199 401.06589719 L 205 385.33209843 L 211 393.237150105 L 217 396.00332125 L 223 394.401443946 L 229 393.570398721 L 235 392.482409469 L 241 393.193028403 L 247 384.910606411 L 253 392.558714059 L 258 390.699892728 L 264 390.896623609 L 270 388.780858252 L 276 391.547029397 L 282 387.889599881 L 288 385.003002444 L 294 374.66502824 L 300 373.320094962 L 306 375.829322081 L 312 372.685780618 L 318 371.854735393 L 324 380.016731094 L 330 377.900965737 L 335 375.528256353 L 341 374.183323075 L 347 357.678692235 L 353 356.590702984 L 359 324.412486529 L 365 322.296721172 L 371 315.042075285 L 377 344.78736921 L 383 351.664644779 L 389 341.840558628 L 395 351.544218488 L 401 338.636804019 L 406 350.396016091 L 412 388.62046289 L 418 386.247753506 L 424 371.541730851 L 430 387.155103321 L 436 396.601819154 L 442 394.229109771 L 448 392.884176493 L 454 395.907291665 L 460 395.847078519 L 466 389.620208738 L 472 386.476667275 L 477 382.305349706 L 483 389.182625275 L 489 389.636300182 L 495 391.631639248 L 501 393.370034288 L 507 388.941772693 L 513 389.909335653 L 519 398.328275381 L 525 397.240286129 L 531 392.812024534 L 537 394.8073636 L 543 390.122157978 L 548 391.603608991 L 554 392.314227925 L 560 393.281790885 L 566 395.791018004 L 572 394.1891407 L 578 392.844207422 L 584 396.12426662 L 590 391.439060998 L 596 396.003840329 L 602 397.485291342 L 608 395.369525985 L 614 396.594032972 L 620 384.200506556"/>
		</g>
		<text class="x-axis-label" x="40.0" y="540">
			0
		</text>
		<path class="x-notch" d="M 69.5918367347 525 L 69.5918367347 530"/>
		<text class="x-axis-label" x="99.1836734694" y="540">
			10
		</text>
		<path class="x-notch" d="M 128.775510204 525 L 128.775510204 530"/>
		<text class="x-axis-label" x="158.367346939" y="540">
			20
		</text>
		<path class="x-notch" d="M 187.959183673 525 L 187.959183673 530"/>
		<text class="x-axis-label" x="217.551020408" y="540">
			30
		</text>
		<path class="x-notch" d="M 247.142857143 525 L 247.142857143 530"/>
		<text class="x-axis-label" x="276.734693878" y="540">
			40
		</text>
		<path class="x-notch" d="M 306.326530612 525 L 306.326530612 530"/>
		<text class="x-axis-label" x="335.918367347" y="540">
			50
		</text>
		<path class="x-notch" d="M 365.510204082 525 L 365.510204082 530"/>
		<text class="x-axis-label" x="395.102040816" y="540">
			60
		</text>
		<path class="x-notch" d="M 424.693877551 525 L 424.693877551 530"/>
		<text class="x-axis-label" x="454.285714286" y="540">
			70
		</text>
		<path class="x-notch" d="M 483.87755102 525 L 483.87755102 530"/>
		<text class="x-axis-label" x="513.469387755" y="540">
			80
		</text>
		<path class="x-notch" d="M 543.06122449 525 L 543.06122449 530"/>
		<text class="x-axis-label" x="572.653061224" y="540">
			90
		</text>
		<path class="x-notch" d="M 602.244897959 525 L 602.244897959 530"/>
	</g>
</svg>
