<?xml version="1.0" ?>
<svg height="600" version="1.1" width="800" xmlns="http://www.w3.org/2000/svg" xmlns:svg="http://www.w3.org/2000/svg">
	<style type="text/css">
		

.x-axis-path, .y-gridline, .x-notch { fill:none; stroke: #a7a9ac; stroke-width:1; }



.y-gridline { stroke-width: 1; }

.y-axis-path, .y-axis-path2, .x-notch-left, .x-notch-right { display: none;}



.x-axis-label, .data-point-label {font-size: 12px; font-weight:normal; font-family: sans-serif; fill: #58595b; text-anchor:middle;}

.y-axis-label {font-size: 12px; font-family: helvetica; fill: #a7a9ac; text-anchor:end;}



.series-1-line { fill: none; stroke: #10b80c; stroke-width:2; }



.series-2-line { fill: none; stroke: #e90f0a; stroke-width: 2;}

	</style>
	<rect fill="white" height="600" width="800" x="0" y="0"/>
	<g id="grid" transform="translate(70, 30)">
		<g class="x-axis" id="x_axis">
			<path class="x-axis-path" d="M 0 525 L 660 525"/>
			<path class="x-notch-left" d="M 0 525, L 0 535"/>
			<path class="x-notch-right" d="M 660 525, L 660 535"/>
		</g>
		<g class="y-axis" id="y_axis">
			<path class="y-axis-path" d="M 0 525 L 0 0"/>
			<path class="y-axis-path-2" d="M 660 525 L 660 0"/>
			<path class="y-gridline" d="M 0 525 L 660 525"/>
			<text class="y-axis-label" x="-5" y="525">
				-200
			</text>
			<path class="y-gridline" d="M 0 394 L 660 394"/>
			<text class="y-axis-label" x="-5" y="394">
				 0
			</text>
			<path class="y-gridline" d="M 0 263 L 660 263"/>
			<text class="y-axis-label" x="-5" y="263">
				200
			</text>
			<path class="y-gridline" d="M 0 132 L 660 132"/>
			<text class="y-axis-label" x="-5" y="132">
				400
			</text>
			<path class="y-gridline" d="M 0 1 L 660 1"/>
			<text class="y-axis-label" x="-5" y="1">
				600
			</text>
		</g>
		<g>
			<path class="series-1-line" d="M 40 390.96163916 L 46 390.906800222 L 52 408.98817563 L 59 400.493452571 L 65 377.560916165 L 72 380.036634758 L 78 387.130179211 L 85 385.217721144 L 91 396.840764842 L 98 369.608654412 L 104 400.977941043 L 110 361.53716022 L 117 394.339546186 L 123 381.545525123 L 130 384.905613952 L 136 405.057144408 L 143 379.505999877 L 149 394.561636666 L 156 393.409891573 L 162 371.680529281 L 168 381.127425993 L 175 382.240430523 L 181 387.529351816 L 188 365.339863062 L 194 374.521227887 L 201 378.18217925 L 207 349.481638838 L 214 334.29893487 L 220 366.906726261 L 226 356.412785467 L 233 336.34644773 L 239 357.98407349 L 246 322.43601222 L 252 375.904618021 L 259 367.05631248 L 265 349.83878411 L 272 331.223487052 L 278 338.476295434 L 284 296.983024886 L 291 286.223828225 L 297 277.339916017 L 304 215.835146671 L 310 205.376812544 L 317 148.224613192 L 323 154.699043276 L 330 151.530139104 L 336 115.203423515 L 342 76.4706357197 L 349 104.796242388 L 355 119.692615249 L 362 69.7420712789 L 368 110.347285652 L 375 45.3392619231 L 381 74.7267201212 L 388 61.3486393139 L 394 52.3410698443 L 400 74.8636178821 L 407 0.0 L 413 57.2727227174 L 420 90.5705657912 L 426 76.6260905627 L 433 42.3698060432 L 439 81.347326507 L 446 61.4405287192 L 452 81.2906446002 L 458 98.151180571 L 465 89.5507415941 L 471 21.4286526315 L 478 95.8640647808 L 484 93.0490191119 L 491 93.8258304619 L 497 160.918264645 L 504 166.826852349 L 510 221.162715105 L 516 219.550567529 L 523 187.841953822 L 529 365.520414554 L 536 286.746135775 L 542 311.409776174 L 549 237.325088632 L 555 285.520043452 L 562 378.287368605 L 568 380.692425905 L 574 388.723612585 L 581 387.377272918 L 587 379.749806814 L 594 401.635299138 L 600 405.915364871 L 607 392.785150628 L 613 373.798329744 L 620 394.374379995"/>
			<path class="series-2-line" d="M 40 408.93113702 L 46 392.973502282 L 52 400.477624757 L 59 382.449834972 L 65 383.053440619 L 72 402.978493383 L 78 402.201995665 L 85 406.94591141 L 91 399.268896865 L 98 397.802347464 L 104 404.616418256 L 110 396.939403712 L 117 395.472854311 L 123 402.286925103 L 130 391.849703828 L 136 399.353826303 L 143 404.787793729 L 149 399.870985915 L 156 393.574074736 L 162 394.867732066 L 168 403.751957907 L 175 394.004788314 L 181 405.649220885 L 188 397.97220634 L 194 394.435501891 L 201 390.898797443 L 207 403.233281697 L 214 405.907042393 L 220 407.890751406 L 226 405.734150323 L 233 389.776515585 L 239 380.719397675 L 246 384.773261736 L 252 388.827125798 L 259 399.091455003 L 265 396.244802238 L 272 396.158356203 L 278 397.452013533 L 284 387.014792257 L 291 399.349276511 L 297 388.222003553 L 304 377.784782277 L 310 397.019783358 L 317 380.372096938 L 323 395.466787923 L 330 380.889256551 L 336 371.83213864 L 342 388.306932991 L 349 358.548264599 L 355 351.561301737 L 362 368.72614777 L 368 361.049133225 L 375 358.892532142 L 381 351.905569279 L 388 342.158399686 L 394 350.352573844 L 400 364.757213146 L 407 339.138854851 L 413 341.812615547 L 420 343.79632456 L 426 314.727707851 L 433 332.582605566 L 439 336.636469628 L 446 349.661005564 L 452 296.44057996 L 458 306.014857483 L 465 331.460323709 L 471 330.683825991 L 478 320.246604715 L 484 304.288969978 L 491 293.161697019 L 497 270.993597137 L 504 320.590872258 L 510 350.866700263 L 516 308.687101582 L 523 305.840448816 L 529 363.718344129 L 536 302.217298332 L 542 332.493126337 L 549 346.897765639 L 555 258.484704216 L 562 375.707044243 L 568 406.672923931 L 574 394.165547607 L 581 391.318894841 L 587 399.513068999 L 594 405.637088108 L 600 386.229194957 L 607 391.663162384 L 613 395.717026445 L 620 390.800218631"/>
		</g>
		<text class="x-axis-label" x="40.0" y="540">
			0
		</text>
		<path class="x-notch" d="M 72.2222222222 525 L 72.2222222222 530"/>
		<text class="x-axis-label" x="104.444444444" y="540">
			10
		</text>
		<path class="x-notch" d="M 136.666666667 525 L 136.666666667 530"/>
		<text class="x-axis-label" x="168.888888889" y="540">
			20
		</text>
		<path class="x-notch" d="M 201.111111111 525 L 201.111111111 530"/>
		<text class="x-axis-label" x="233.333333333" y="540">
			30
		</text>
		<path class="x-notch" d="M 265.555555556 525 L 265.555555556 530"/>
		<text class="x-axis-label" x="297.777777778" y="540">
			40
		</text>
		<path class="x-notch" d="M 330.0 525 L 330.0 530"/>
		<text class="x-axis-label" x="362.222222222" y="540">
			50
		</text>
		<path class="x-notch" d="M 394.444444444 525 L 394.444444444 530"/>
		<text class="x-axis-label" x="426.666666667" y="540">
			60
		</text>
		<path class="x-notch" d="M 458.888888889 525 L 458.888888889 530"/>
		<text class="x-axis-label" x="491.111111111" y="540">
			70
		</text>
		<path class="x-notch" d="M 523.333333333 525 L 523.333333333 530"/>
		<text class="x-axis-label" x="555.555555556" y="540">
			80
		</text>
		<path class="x-notch" d="M 587.777777778 525 L 587.777777778 530"/>
		<text class="x-axis-label" x="620.0" y="540">
			90
		</text>
	</g>
</svg>
