<?xml version="1.0" ?>
<svg height="600" version="1.1" width="800" xmlns="http://www.w3.org/2000/svg" xmlns:svg="http://www.w3.org/2000/svg">
	<style type="text/css">
		

.x-axis-path, .y-gridline, .x-notch { fill:none; stroke: #a7a9ac; stroke-width:1; }



.y-gridline { stroke-width: 1; }

.y-axis-path, .y-axis-path2, .x-notch-left, .x-notch-right { display: none;}



.x-axis-label, .data-point-label {font-size: 12px; font-weight:normal; font-family: sans-serif; fill: #58595b; text-anchor:middle;}

.y-axis-label {font-size: 12px; font-family: helvetica; fill: #a7a9ac; text-anchor:end;}



.series-1-line { fill: none; stroke: #10b80c; stroke-width:2; }



.series-2-line { fill: none; stroke: #e90f0a; stroke-width: 2;}

	</style>
	<rect fill="white" height="600" width="800" x="0" y="0"/>
	<g id="grid" transform="translate(70, 30)">
		<g class="x-axis" id="x_axis">
			<path class="x-axis-path" d="M 0 525 L 660 525"/>
			<path class="x-notch-left" d="M 0 525, L 0 535"/>
			<path class="x-notch-right" d="M 660 525, L 660 535"/>
		</g>
		<g class="y-axis" id="y_axis">
			<path class="y-axis-path" d="M 0 525 L 0 0"/>
			<path class="y-axis-path-2" d="M 660 525 L 660 0"/>
			<path class="y-gridline" d="M 0 525 L 660 525"/>
			<text class="y-axis-label" x="-5" y="525">
				-200
			</text>
			<path class="y-gridline" d="M 0 394 L 660 394"/>
			<text class="y-axis-label" x="-5" y="394">
				 0
			</text>
			<path class="y-gridline" d="M 0 263 L 660 263"/>
			<text class="y-axis-label" x="-5" y="263">
				200
			</text>
			<path class="y-gridline" d="M 0 132 L 660 132"/>
			<text class="y-axis-label" x="-5" y="132">
				400
			</text>
			<path class="y-gridline" d="M 0 1 L 660 1"/>
			<text class="y-axis-label" x="-5" y="1">
				600
			</text>
		</g>
		<g>
			<path class="series-1-line" d="M 40 412.978695323 L 43 384.6720796 L 47 395.708097101 L 51 383.303184453 L 54 392.568907256 L 58 404.459599039 L 62 415.861769478 L 66 396.345204972 L 69 426.945883352 L 73 421.591676432 L 77 427.194441431 L 80 420.833194896 L 84 406.84130209 L 88 413.176849106 L 92 402.633650356 L 95 396.028143149 L 99 392.505177059 L 103 345.854727676 L 106 315.808290321 L 110 389.627871194 L 114 393.979335906 L 118 340.095342398 L 121 324.882622372 L 125 338.421240447 L 129 343.963059313 L 132 367.116405963 L 136 298.093488321 L 140 372.523482804 L 144 319.646528911 L 147 258.895144217 L 151 320.627869007 L 155 278.128422631 L 158 299.022953238 L 162 268.091368533 L 166 269.329819061 L 170 258.481413506 L 173 243.116328148 L 177 240.050934195 L 181 240.556602705 L 185 233.035475082 L 188 232.137477974 L 192 220.861973348 L 196 149.427874331 L 199 246.138917875 L 203 236.816546345 L 207 239.428189425 L 211 200.316967114 L 214 80.5054468423 L 218 187.502578704 L 222 166.55139937 L 225 82.2981383951 L 229 140.795480594 L 233 121.462230627 L 237 141.410667752 L 240 118.353513849 L 244 158.202291725 L 248 179.646289809 L 251 89.3798357883 L 255 72.0916142586 L 259 129.246236971 L 263 112.629375185 L 266 103.734102726 L 270 84.1570682284 L 274 69.981860883 L 277 32.3357264649 L 281 0.0 L 285 80.9002835243 L 289 50.7929000362 L 292 95.2502530561 L 296 45.2120557502 L 300 93.3933127064 L 303 104.642641672 L 307 0.885665949283 L 311 76.231280848 L 315 40.4163872609 L 318 64.3325128527 L 322 88.7981059222 L 326 135.086699773 L 330 82.9425278974 L 333 188.840248662 L 337 159.069021187 L 341 168.731369994 L 344 124.827781857 L 348 218.669595747 L 352 241.761996264 L 356 213.180646802 L 359 207.73454454 L 363 222.89061584 L 367 200.688612361 L 370 173.694243058 L 374 225.690823149 L 378 204.953431422 L 382 250.418300198 L 385 188.689872814 L 389 323.85792609 L 393 213.569715194 L 396 263.399374583 L 400 254.29079066 L 404 257.055275214 L 408 240.316521161 L 411 290.66469882 L 415 293.093503502 L 419 318.322351655 L 422 302.926317089 L 426 315.335527142 L 430 304.670436127 L 434 323.703252836 L 437 312.580113542 L 441 351.177591132 L 445 346.678058494 L 448 370.441342612 L 452 374.762810399 L 456 348.95879525 L 460 351.601387538 L 463 341.180081054 L 467 350.262965458 L 471 384.007131089 L 475 380.423218867 L 478 360.388136091 L 482 384.914675293 L 486 431.599895148 L 489 400.729732718 L 493 394.795585253 L 497 399.238469164 L 501 407.802359157 L 504 414.137906174 L 508 431.766581123 L 512 421.986637456 L 515 431.557567064 L 519 404.410832429 L 523 408.976084747 L 527 371.696103266 L 530 419.785464882 L 534 416.567705597 L 538 404.437526689 L 541 403.295268908 L 545 421.198677596 L 549 423.108487866 L 553 385.461877307 L 556 422.594267003 L 560 454.873344741 L 564 443.10931877 L 567 419.472700465 L 571 402.855838678 L 575 415.082210333 L 579 414.825099902 L 582 416.918224712 L 586 411.930170729 L 590 410.207972404 L 593 399.481935256 L 597 401.666479266 L 601 425.948757796 L 605 413.513372082 L 608 368.999846477 L 612 395.937567054 L 616 378.649345524 L 620 410.928423263"/>
			<path class="series-2-line" d="M 40 383.751025104 L 43 396.852502675 L 47 400.431147011 L 51 393.296603959 L 54 394.494539987 L 58 404.024955095 L 62 396.890412043 L 66 384.994452373 L 69 400.476638253 L 73 407.626345052 L 77 376.684718914 L 80 401.689738028 L 84 410.029798981 L 88 404.085610084 L 92 385.047525489 L 95 401.720065522 L 99 401.727647396 L 103 398.164166807 L 106 404.123519452 L 110 408.892517942 L 114 387.473725039 L 118 398.194494301 L 121 411.295971872 L 125 395.82894974 L 129 374.410156836 L 132 391.08269687 L 136 395.85169536 L 140 398.239985542 L 144 391.10544249 L 147 405.397274215 L 151 392.310960392 L 155 391.128188111 L 158 388.755061676 L 162 393.524060167 L 166 393.53164204 L 170 375.6839116 L 173 412.592472256 L 177 387.60261689 L 181 362.612761523 L 185 382.85636402 L 188 391.196424973 L 192 393.584715156 L 196 403.115130264 L 199 411.455191217 L 203 387.655690005 L 207 359.094772176 L 211 386.480499598 L 214 375.774894083 L 218 404.350975659 L 222 384.12253691 L 225 397.224014481 L 229 378.185929886 L 233 384.145282531 L 237 390.104635176 L 240 373.447258889 L 244 385.358382306 L 248 390.127380797 L 251 366.327879584 L 255 378.239003001 L 259 383.008001492 L 263 383.015583365 L 266 338.98006153 L 270 383.030747113 L 274 373.515495752 L 277 404.472285637 L 281 396.14738843 L 285 364.015408138 L 289 379.497594018 L 292 368.791988503 L 296 383.083820228 L 300 394.994943644 L 303 365.243671661 L 307 356.918774454 L 311 355.736002173 L 315 379.550667133 L 318 370.035415772 L 322 367.662289337 L 326 349.814558896 L 330 367.677453084 L 333 335.545472792 L 337 391.499699917 L 341 377.223031939 L 344 362.946363961 L 348 354.621466755 L 352 380.816840023 L 356 390.347255131 L 359 365.357399764 L 363 329.654357009 L 367 365.372563512 L 370 359.428374614 L 374 379.67197711 L 378 372.537434058 L 382 390.400328246 L 385 371.362243651 L 389 322.565305199 L 393 358.283511701 L 396 391.621009895 L 400 380.91540438 L 404 374.971215482 L 408 394.024463824 L 411 392.841691543 L 415 392.849273417 L 419 410.712167605 L 422 405.958332861 L 426 380.968477495 L 430 380.976059368 L 434 390.506474476 L 437 369.087681573 L 441 390.521638224 L 445 403.623115794 L 448 371.491135502 L 452 401.257571233 L 456 395.313382335 L 460 408.414859906 L 463 370.331108842 L 467 400.097544573 L 471 389.391939058 L 475 398.922354166 L 478 421.546664971 L 482 409.650705302 L 486 376.328370855 L 489 417.998348129 L 493 422.76734662 L 497 387.064303865 L 501 404.927198053 L 504 398.983009155 L 508 395.419528565 L 512 396.617464593 L 515 396.625046467 L 519 414.487940655 L 523 406.163043448 L 527 426.406645945 L 530 406.178207196 L 534 404.995434915 L 538 401.431954326 L 541 401.439536199 L 545 401.447118073 L 549 389.551158404 L 553 374.084136271 L 556 391.947030459 L 560 377.670362481 L 564 363.393694504 L 567 390.779421926 L 571 390.787003799 L 575 394.365648136 L 579 395.563584164 L 582 401.522936809 L 586 397.959456219 L 590 395.586329785 L 593 405.116744892 L 597 396.791847686 L 601 376.563408937 L 605 374.190282502 L 608 408.71813485 L 612 392.060758563 L 616 403.97188198 L 620 389.695214002"/>
		</g>
		<text class="x-axis-label" x="40.0" y="540">
			0
		</text>
		<path class="x-notch" d="M 58.5897435897 525 L 58.5897435897 530"/>
		<text class="x-axis-label" x="77.1794871795" y="540">
			10
		</text>
		<path class="x-notch" d="M 95.7692307692 525 L 95.7692307692 530"/>
		<text class="x-axis-label" x="114.358974359" y="540">
			20
		</text>
		<path class="x-notch" d="M 132.948717949 525 L 132.948717949 530"/>
		<text class="x-axis-label" x="151.538461538" y="540">
			30
		</text>
		<path class="x-notch" d="M 170.128205128 525 L 170.128205128 530"/>
		<text class="x-axis-label" x="188.717948718" y="540">
			40
		</text>
		<path class="x-notch" d="M 207.307692308 525 L 207.307692308 530"/>
		<text class="x-axis-label" x="225.897435897" y="540">
			50
		</text>
		<path class="x-notch" d="M 244.487179487 525 L 244.487179487 530"/>
		<text class="x-axis-label" x="263.076923077" y="540">
			60
		</text>
		<path class="x-notch" d="M 281.666666667 525 L 281.666666667 530"/>
		<text class="x-axis-label" x="300.256410256" y="540">
			70
		</text>
		<path class="x-notch" d="M 318.846153846 525 L 318.846153846 530"/>
		<text class="x-axis-label" x="337.435897436" y="540">
			80
		</text>
		<path class="x-notch" d="M 356.025641026 525 L 356.025641026 530"/>
		<text class="x-axis-label" x="374.615384615" y="540">
			90
		</text>
		<path class="x-notch" d="M 393.205128205 525 L 393.205128205 530"/>
		<text class="x-axis-label" x="411.794871795" y="540">
			100
		</text>
		<path class="x-notch" d="M 430.384615385 525 L 430.384615385 530"/>
		<text class="x-axis-label" x="448.974358974" y="540">
			110
		</text>
		<path class="x-notch" d="M 467.564102564 525 L 467.564102564 530"/>
		<text class="x-axis-label" x="486.153846154" y="540">
			120
		</text>
		<path class="x-notch" d="M 504.743589744 525 L 504.743589744 530"/>
		<text class="x-axis-label" x="523.333333333" y="540">
			130
		</text>
		<path class="x-notch" d="M 541.923076923 525 L 541.923076923 530"/>
		<text class="x-axis-label" x="560.512820513" y="540">
			140
		</text>
		<path class="x-notch" d="M 579.102564103 525 L 579.102564103 530"/>
		<text class="x-axis-label" x="597.692307692" y="540">
			150
		</text>
		<path class="x-notch" d="M 616.282051282 525 L 616.282051282 530"/>
	</g>
</svg>
