<?xml version="1.0" ?>
<svg height="600" version="1.1" width="800" xmlns="http://www.w3.org/2000/svg" xmlns:svg="http://www.w3.org/2000/svg">
	<style type="text/css">
		

.x-axis-path, .y-gridline, .x-notch { fill:none; stroke: #a7a9ac; stroke-width:1; }



.y-gridline { stroke-width: 1; }

.y-axis-path, .y-axis-path2, .x-notch-left, .x-notch-right { display: none;}



.x-axis-label, .data-point-label {font-size: 12px; font-weight:normal; font-family: sans-serif; fill: #58595b; text-anchor:middle;}

.y-axis-label {font-size: 12px; font-family: helvetica; fill: #a7a9ac; text-anchor:end;}



.series-1-line { fill: none; stroke: #10b80c; stroke-width:2; }



.series-2-line { fill: none; stroke: #e90f0a; stroke-width: 2;}

	</style>
	<rect fill="white" height="600" width="800" x="0" y="0"/>
	<g id="grid" transform="translate(70, 30)">
		<g class="x-axis" id="x_axis">
			<path class="x-axis-path" d="M 0 525 L 660 525"/>
			<path class="x-notch-left" d="M 0 525, L 0 535"/>
			<path class="x-notch-right" d="M 660 525, L 660 535"/>
		</g>
		<g class="y-axis" id="y_axis">
			<path class="y-axis-path" d="M 0 525 L 0 0"/>
			<path class="y-axis-path-2" d="M 660 525 L 660 0"/>
			<path class="y-gridline" d="M 0 525 L 660 525"/>
			<text class="y-axis-label" x="-5" y="525">
				-500
			</text>
			<path class="y-gridline" d="M 0 420 L 660 420"/>
			<text class="y-axis-label" x="-5" y="420">
				 0
			</text>
			<path class="y-gridline" d="M 0 315 L 660 315"/>
			<text class="y-axis-label" x="-5" y="315">
				500
			</text>
			<path class="y-gridline" d="M 0 210 L 660 210"/>
			<text class="y-axis-label" x="-5" y="210">
				1000
			</text>
			<path class="y-gridline" d="M 0 105 L 660 105"/>
			<text class="y-axis-label" x="-5" y="105">
				1500
			</text>
			<path class="y-gridline" d="M 0 0 L 660 0"/>
			<text class="y-axis-label" x="-5" y="0">
				2000
			</text>
		</g>
		<g>
			<path class="series-1-line" d="M 40 406.1401512 L 44 434.918397322 L 48 414.320435443 L 52 421.840465565 L 56 423.082251687 L 61 415.794845809 L 65 413.12701993 L 69 424.416466052 L 73 413.930592174 L 78 404.419202296 L 82 428.539984417 L 86 432.947730539 L 90 413.712164661 L 95 414.716818783 L 99 421.951500904 L 103 409.069443026 L 107 411.603485148 L 111 410.18507527 L 116 422.169117391 L 120 407.009735513 L 124 419.617813635 L 128 407.263611757 L 133 398.096621878 L 137 411.453896 L 141 418.936378122 L 145 410.135628243 L 150 418.613930365 L 154 399.598864487 L 158 424.241958609 L 162 407.40240873 L 167 412.095754852 L 171 416.788512974 L 175 411.849159096 L 179 425.302949217 L 183 424.600639339 L 188 422.024625461 L 192 408.361703583 L 196 394.741873704 L 200 409.924383826 L 205 410.395805948 L 209 405.30038007 L 213 425.015950191 L 217 407.487012313 L 222 406.246430435 L 226 411.450916557 L 230 392.381502678 L 234 387.8997808 L 238 409.495018922 L 243 396.913933043 L 247 389.497419165 L 251 407.382461287 L 255 383.457259409 L 260 404.98790153 L 264 395.358239652 L 268 401.822977774 L 272 422.572419896 L 277 404.500170017 L 281 381.274352139 L 285 397.328950261 L 289 405.484188383 L 294 374.084414504 L 298 375.977872626 L 302 384.133278748 L 306 375.90902087 L 310 401.144062991 L 315 389.958301113 L 319 387.532815235 L 323 400.873289357 L 327 401.539171478 L 332 395.2102896 L 336 410.570543722 L 340 392.981965843 L 344 411.082971965 L 349 411.737094087 L 353 419.542724209 L 357 398.40086233 L 361 427.690836452 L 365 406.720922574 L 370 375.783736696 L 374 391.267974817 L 378 389.386220939 L 382 366.268595061 L 387 389.102329183 L 391 414.020607304 L 395 402.295649426 L 399 408.189943548 L 404 365.18666167 L 408 389.776331791 L 412 402.047317913 L 416 405.815572035 L 421 409.141062157 L 425 386.564648278 L 429 356.8562144 L 433 366.061032522 L 437 432.231038643 L 442 421.265104765 L 446 406.709262887 L 450 415.248213009 L 454 401.44005513 L 459 424.850533252 L 463 408.791595374 L 467 419.925053496 L 471 424.736419617 L 476 432.003525739 L 480 424.495199861 L 484 417.369409983 L 488 415.945960104 L 492 406.515126226 L 497 420.249308348 L 501 418.85803047 L 505 416.502768591 L 509 413.135306713 L 514 419.072272835 L 518 422.839098957 L 522 421.378101078 L 526 419.9759032 L 531 422.326657322 L 535 412.696911443 L 539 420.286913565 L 543 431.172487687 L 548 423.196029809 L 552 419.92516793 L 556 415.583138052 L 560 432.283780174 L 564 423.806514296 L 569 420.622256417 L 573 415.596214539 L 577 418.690116661 L 581 425.192402783 L 586 420.333688904 L 590 427.385335026 L 594 415.994781148 L 598 417.32795927 L 603 425.758297391 L 607 421.555959513 L 611 422.717021635 L 615 406.711927757 L 620 422.804241878"/>
			<path class="series-2-line" d="M 40 434.742 L 44 396.45626087 L 48 427.890521739 L 52 413.544782609 L 56 420.409043478 L 61 431.053304348 L 65 400.747565217 L 69 404.461826087 L 73 414.476086957 L 78 411.680347826 L 82 395.654608696 L 86 383.618869565 L 90 423.663130435 L 95 410.157391304 L 99 399.381652174 L 103 406.455913043 L 107 408.280173913 L 111 396.034434783 L 116 397.858695652 L 120 440.842956522 L 124 386.177217391 L 128 409.211478261 L 133 385.41573913 L 137 402.36 L 141 402.08426087 L 145 386.688521739 L 150 353.862782609 L 154 367.657043478 L 158 352.051304348 L 162 378.655565217 L 167 387.619826087 L 171 339.254086957 L 175 384.968347826 L 179 362.222608696 L 183 344.726869565 L 188 341.091130435 L 192 338.925391304 L 196 338.229652174 L 200 340.683913043 L 205 312.058173913 L 209 365.752434783 L 213 291.556695652 L 217 302.830956522 L 222 303.815217391 L 226 273.929478261 L 230 238.79373913 L 234 278.628 L 238 247.06226087 L 243 198.906521739 L 247 221.520782609 L 251 170.845043478 L 255 246.379304348 L 260 216.703565217 L 264 232.387826087 L 268 227.072086957 L 272 155.396347826 L 277 218.750608696 L 281 234.224869565 L 285 215.259130435 L 289 183.693391304 L 294 188.457652174 L 298 208.341913043 L 302 193.156173913 L 306 210.730434783 L 310 160.054695652 L 315 180.988956522 L 319 153.833217391 L 323 107.777478261 L 327 139.00173913 L 332 155.736 L 336 163.23026087 L 340 134.604521739 L 344 140.418782609 L 349 75.0430434783 L 353 81.6973043478 L 357 107.881565217 L 361 88.075826087 L 365 79.1900869565 L 370 36.2843478261 L 374 57.2186086957 L 378 18.9328695652 L 382 83.1271304348 L 387 54.9213913043 L 391 94.7556521739 L 395 44.0799130435 L 399 70.474173913 L 404 108.208434783 L 408 133.762695652 L 412 287.626956522 L 416 400.121217391 L 421 393.125478261 L 425 200.48973913 L 429 260.904 L 433 188.38826087 L 437 246.702521739 L 442 175.866782609 L 446 264.001043478 L 450 369.355304348 L 454 381.679565217 L 459 411.013826087 L 463 422.288086957 L 467 442.172347826 L 471 408.086608696 L 476 408.650869565 L 480 404.595130435 L 484 422.799391304 L 488 444.153652174 L 492 420.567913043 L 497 436.042173913 L 501 444.166434783 L 505 438.850695652 L 509 444.034956522 L 514 430.949217391 L 518 404.213478261 L 522 439.63773913 L 526 433.062 L 531 414.30626087 L 535 421.800521739 L 539 404.724782609 L 543 405.919043478 L 548 433.993304348 L 552 407.677565217 L 556 417.481826087 L 560 387.806086957 L 564 412.100347826 L 569 429.674608696 L 573 423.308869565 L 577 411.483130435 L 581 392.097391304 L 586 425.211652174 L 590 418.425913043 L 594 422.140173913 L 598 414.724434783 L 603 430.408695652 L 607 410.182956522 L 611 421.457217391 L 615 432.521478261 L 620 415.86573913"/>
		</g>
		<text class="x-axis-label" x="40.0" y="540">
			0
		</text>
		<path class="x-notch" d="M 61.1678832117 525 L 61.1678832117 530"/>
		<text class="x-axis-label" x="82.3357664234" y="540">
			10
		</text>
		<path class="x-notch" d="M 103.503649635 525 L 103.503649635 530"/>
		<text class="x-axis-label" x="124.671532847" y="540">
			20
		</text>
		<path class="x-notch" d="M 145.839416058 525 L 145.839416058 530"/>
		<text class="x-axis-label" x="167.00729927" y="540">
			30
		</text>
		<path class="x-notch" d="M 188.175182482 525 L 188.175182482 530"/>
		<text class="x-axis-label" x="209.343065693" y="540">
			40
		</text>
		<path class="x-notch" d="M 230.510948905 525 L 230.510948905 530"/>
		<text class="x-axis-label" x="251.678832117" y="540">
			50
		</text>
		<path class="x-notch" d="M 272.846715328 525 L 272.846715328 530"/>
		<text class="x-axis-label" x="294.01459854" y="540">
			60
		</text>
		<path class="x-notch" d="M 315.182481752 525 L 315.182481752 530"/>
		<text class="x-axis-label" x="336.350364964" y="540">
			70
		</text>
		<path class="x-notch" d="M 357.518248175 525 L 357.518248175 530"/>
		<text class="x-axis-label" x="378.686131387" y="540">
			80
		</text>
		<path class="x-notch" d="M 399.854014599 525 L 399.854014599 530"/>
		<text class="x-axis-label" x="421.02189781" y="540">
			90
		</text>
		<path class="x-notch" d="M 442.189781022 525 L 442.189781022 530"/>
		<text class="x-axis-label" x="463.357664234" y="540">
			100
		</text>
		<path class="x-notch" d="M 484.525547445 525 L 484.525547445 530"/>
		<text class="x-axis-label" x="505.693430657" y="540">
			110
		</text>
		<path class="x-notch" d="M 526.861313869 525 L 526.861313869 530"/>
		<text class="x-axis-label" x="548.02919708" y="540">
			120
		</text>
		<path class="x-notch" d="M 569.197080292 525 L 569.197080292 530"/>
		<text class="x-axis-label" x="590.364963504" y="540">
			130
		</text>
		<path class="x-notch" d="M 611.532846715 525 L 611.532846715 530"/>
	</g>
</svg>
