<?xml version="1.0" ?>
<svg height="600" version="1.1" width="800" xmlns="http://www.w3.org/2000/svg" xmlns:svg="http://www.w3.org/2000/svg">
	<style type="text/css">
		

.x-axis-path, .y-gridline, .x-notch { fill:none; stroke: #a7a9ac; stroke-width:1; }



.y-gridline { stroke-width: 1; }

.y-axis-path, .y-axis-path2, .x-notch-left, .x-notch-right { display: none;}



.x-axis-label, .data-point-label {font-size: 12px; font-weight:normal; font-family: sans-serif; fill: #58595b; text-anchor:middle;}

.y-axis-label {font-size: 12px; font-family: helvetica; fill: #a7a9ac; text-anchor:end;}



.series-1-line { fill: none; stroke: #10b80c; stroke-width:2; }



.series-2-line { fill: none; stroke: #e90f0a; stroke-width: 2;}

	</style>
	<rect fill="white" height="600" width="800" x="0" y="0"/>
	<g id="grid" transform="translate(70, 30)">
		<g class="x-axis" id="x_axis">
			<path class="x-axis-path" d="M 0 525 L 660 525"/>
			<path class="x-notch-left" d="M 0 525, L 0 535"/>
			<path class="x-notch-right" d="M 660 525, L 660 535"/>
		</g>
		<g class="y-axis" id="y_axis">
			<path class="y-axis-path" d="M 0 525 L 0 0"/>
			<path class="y-axis-path-2" d="M 660 525 L 660 0"/>
			<path class="y-gridline" d="M 0 525 L 660 525"/>
			<text class="y-axis-label" x="-5" y="525">
				-200
			</text>
			<path class="y-gridline" d="M 0 420 L 660 420"/>
			<text class="y-axis-label" x="-5" y="420">
				 0
			</text>
			<path class="y-gridline" d="M 0 315 L 660 315"/>
			<text class="y-axis-label" x="-5" y="315">
				200
			</text>
			<path class="y-gridline" d="M 0 210 L 660 210"/>
			<text class="y-axis-label" x="-5" y="210">
				400
			</text>
			<path class="y-gridline" d="M 0 105 L 660 105"/>
			<text class="y-axis-label" x="-5" y="105">
				600
			</text>
			<path class="y-gridline" d="M 0 0 L 660 0"/>
			<text class="y-axis-label" x="-5" y="0">
				800
			</text>
		</g>
		<g>
			<path class="series-1-line" d="M 40 429.754960636 L 46 433.410138118 L 52 406.838391225 L 58 412.444560834 L 64 413.667945506 L 70 408.048521932 L 76 407.179320881 L 82 415.019228707 L 88 413.386921986 L 94 434.035536434 L 100 437.01185864 L 106 437.273641947 L 112 406.7716803 L 118 433.160349135 L 124 434.355503308 L 130 433.712587349 L 136 441.354440582 L 142 416.959970908 L 148 417.137062718 L 154 408.096455573 L 160 379.714869046 L 166 371.296215077 L 172 388.891083539 L 178 299.0949291 L 185 324.267922081 L 191 263.340981466 L 197 240.077496149 L 203 299.464089256 L 209 193.776810608 L 215 159.626939196 L 221 179.766963564 L 227 111.827831711 L 233 185.323939892 L 239 105.0 L 245 115.921884311 L 251 122.687268776 L 257 123.458083264 L 263 187.623129392 L 269 120.136567723 L 275 103.517836059 L 281 159.200499504 L 287 166.219958459 L 293 159.95035121 L 299 150.768150469 L 305 217.732426992 L 311 229.106881487 L 317 261.772866388 L 323 284.287781467 L 330 261.278811741 L 336 271.15440319 L 342 279.192365609 L 348 295.317042626 L 354 250.959640394 L 360 328.640478919 L 366 328.676418235 L 372 362.416926497 L 378 328.804316765 L 384 368.115055318 L 390 371.317662616 L 396 361.824485287 L 402 340.681816192 L 408 388.277323937 L 414 372.987631224 L 420 395.700600896 L 426 228.852387724 L 432 326.100490721 L 438 328.426629252 L 444 417.502885054 L 450 444.824483653 L 456 400.014952339 L 462 373.697721036 L 468 422.028545055 L 475 434.364159812 L 481 445.653481709 L 487 423.097082166 L 493 446.997497194 L 499 442.311003385 L 505 436.267681228 L 511 430.167456972 L 517 456.584356305 L 523 436.855417658 L 529 439.492532777 L 535 437.944917552 L 541 428.140763635 L 547 441.07010107 L 553 415.007385358 L 559 439.162315976 L 565 426.304416072 L 571 445.256553984 L 577 423.633084206 L 583 444.706038339 L 589 439.143075763 L 595 436.181730091 L 601 422.023021736 L 607 432.690390456 L 613 419.917182048 L 620 395.013681193"/>
			<path class="series-2-line" d="M 40 403.458692116 L 46 417.553478037 L 52 416.209709932 L 58 426.996234276 L 64 433.371743184 L 70 432.02797508 L 76 420.759422245 L 82 427.134931153 L 88 448.948994087 L 94 435.474933534 L 100 426.411888417 L 106 410.732320146 L 112 420.416090631 L 118 414.661307091 L 124 425.447831435 L 130 421.898555613 L 136 416.143772073 L 142 419.211019404 L 148 416.764497441 L 154 433.064791079 L 160 412.974207373 L 166 418.246962422 L 172 408.081163446 L 178 421.073195508 L 185 432.962473711 L 191 415.077397722 L 197 413.733629618 L 203 421.211892385 L 209 418.765370422 L 215 395.366525139 L 221 418.283341931 L 227 419.145081544 L 233 418.904067299 L 239 416.457545336 L 245 415.113777231 L 251 417.078270704 L 257 408.015225587 L 263 401.157688188 L 269 417.457981826 L 275 411.703198286 L 281 437.928276655 L 287 400.193631206 L 293 414.288417126 L 299 409.636387445 L 305 396.162326893 L 311 410.257112813 L 317 414.427114004 L 323 410.877838181 L 330 412.842331654 L 336 402.676532678 L 342 421.182334034 L 348 425.352335225 L 354 403.0562438 L 360 395.095952542 L 366 414.704507758 L 372 423.285524384 L 378 402.092186819 L 384 401.851172573 L 390 400.507404469 L 396 401.369144082 L 402 413.258422285 L 408 410.811900322 L 414 412.776393794 L 420 421.35741042 L 426 369.286964805 L 432 405.436827904 L 438 411.812336812 L 444 432.523645887 L 450 410.227554462 L 456 415.500309512 L 462 417.464802984 L 468 429.354081187 L 475 422.496543788 L 481 406.816975517 L 487 424.220023015 L 493 419.567993334 L 499 401.682917345 L 505 423.496980278 L 511 411.125673585 L 517 400.959874609 L 523 407.335383517 L 529 408.19712313 L 535 416.778139756 L 541 423.153648665 L 547 409.679588112 L 553 414.952343161 L 559 413.608575057 L 565 423.292345542 L 571 416.434808143 L 577 417.296547756 L 583 423.672056664 L 589 413.506257688 L 595 427.601043609 L 601 425.154521646 L 607 420.502491965 L 613 416.953216142 L 620 413.40394032"/>
		</g>
		<text class="x-axis-label" x="40.0" y="540">
			0
		</text>
		<path class="x-notch" d="M 70.2083333333 525 L 70.2083333333 530"/>
		<text class="x-axis-label" x="100.416666667" y="540">
			10
		</text>
		<path class="x-notch" d="M 130.625 525 L 130.625 530"/>
		<text class="x-axis-label" x="160.833333333" y="540">
			20
		</text>
		<path class="x-notch" d="M 191.041666667 525 L 191.041666667 530"/>
		<text class="x-axis-label" x="221.25" y="540">
			30
		</text>
		<path class="x-notch" d="M 251.458333333 525 L 251.458333333 530"/>
		<text class="x-axis-label" x="281.666666667" y="540">
			40
		</text>
		<path class="x-notch" d="M 311.875 525 L 311.875 530"/>
		<text class="x-axis-label" x="342.083333333" y="540">
			50
		</text>
		<path class="x-notch" d="M 372.291666667 525 L 372.291666667 530"/>
		<text class="x-axis-label" x="402.5" y="540">
			60
		</text>
		<path class="x-notch" d="M 432.708333333 525 L 432.708333333 530"/>
		<text class="x-axis-label" x="462.916666667" y="540">
			70
		</text>
		<path class="x-notch" d="M 493.125 525 L 493.125 530"/>
		<text class="x-axis-label" x="523.333333333" y="540">
			80
		</text>
		<path class="x-notch" d="M 553.541666667 525 L 553.541666667 530"/>
		<text class="x-axis-label" x="583.75" y="540">
			90
		</text>
		<path class="x-notch" d="M 613.958333333 525 L 613.958333333 530"/>
	</g>
</svg>
