<?xml version="1.0" ?>
<svg height="600" version="1.1" width="800" xmlns="http://www.w3.org/2000/svg" xmlns:svg="http://www.w3.org/2000/svg">
	<style type="text/css">
		

.x-axis-path, .y-gridline, .x-notch { fill:none; stroke: #a7a9ac; stroke-width:1; }



.y-gridline { stroke-width: 1; }

.y-axis-path, .y-axis-path2, .x-notch-left, .x-notch-right { display: none;}



.x-axis-label, .data-point-label {font-size: 12px; font-weight:normal; font-family: sans-serif; fill: #58595b; text-anchor:middle;}

.y-axis-label {font-size: 12px; font-family: helvetica; fill: #a7a9ac; text-anchor:end;}



.series-1-line { fill: none; stroke: #10b80c; stroke-width:2; }



.series-2-line { fill: none; stroke: #e90f0a; stroke-width: 2;}

	</style>
	<rect fill="white" height="600" width="800" x="0" y="0"/>
	<g id="grid" transform="translate(70, 30)">
		<g class="x-axis" id="x_axis">
			<path class="x-axis-path" d="M 0 525 L 660 525"/>
			<path class="x-notch-left" d="M 0 525, L 0 535"/>
			<path class="x-notch-right" d="M 660 525, L 660 535"/>
		</g>
		<g class="y-axis" id="y_axis">
			<path class="y-axis-path" d="M 0 525 L 0 0"/>
			<path class="y-axis-path-2" d="M 660 525 L 660 0"/>
			<path class="y-gridline" d="M 0 525 L 660 525"/>
			<text class="y-axis-label" x="-5" y="525">
				-200
			</text>
			<path class="y-gridline" d="M 0 394 L 660 394"/>
			<text class="y-axis-label" x="-5" y="394">
				 0
			</text>
			<path class="y-gridline" d="M 0 263 L 660 263"/>
			<text class="y-axis-label" x="-5" y="263">
				200
			</text>
			<path class="y-gridline" d="M 0 132 L 660 132"/>
			<text class="y-axis-label" x="-5" y="132">
				400
			</text>
			<path class="y-gridline" d="M 0 1 L 660 1"/>
			<text class="y-axis-label" x="-5" y="1">
				600
			</text>
		</g>
		<g>
			<path class="series-1-line" d="M 40 383.053498118 L 44 398.29821306 L 49 393.823091345 L 54 389.575927478 L 59 402.083566577 L 64 406.149845508 L 69 403.195694933 L 73 365.781553887 L 78 401.126891967 L 83 393.039439083 L 88 408.702702822 L 93 396.534349731 L 98 393.605505838 L 102 396.189366778 L 107 392.145051786 L 112 392.054905881 L 117 395.310580149 L 122 393.116420873 L 127 398.526721877 L 131 398.25903378 L 136 392.072943101 L 141 406.646240131 L 146 383.743504219 L 151 388.507100869 L 156 404.58832028 L 160 404.688369908 L 165 408.805855329 L 170 401.326949067 L 175 391.668109388 L 180 383.69493199 L 185 361.540127161 L 189 360.828583583 L 194 356.099801922 L 199 344.260633408 L 204 307.25219011 L 209 293.069187869 L 214 262.651158189 L 218 220.535114682 L 223 242.724536791 L 228 272.4557456 L 233 219.060237062 L 238 216.802613372 L 243 219.171367514 L 247 192.454242392 L 252 158.575523927 L 257 118.943489439 L 262 85.6739107223 L 267 111.172379232 L 272 130.270036532 L 276 115.896443341 L 281 74.2746709694 L 286 157.639636155 L 291 92.8505848083 L 296 7.60622135617 L 301 16.8704532611 L 305 0.0 L 310 2.29303180391 L 315 38.4485791297 L 320 30.0194860363 L 325 21.2220620925 L 330 72.2316433034 L 334 112.912341733 L 339 135.672745858 L 344 152.273938505 L 349 150.434665904 L 354 137.252859276 L 359 174.29631527 L 363 152.078441444 L 368 212.644063088 L 373 198.536980894 L 378 195.4560992 L 383 196.785499997 L 388 264.587844197 L 392 257.248520104 L 397 236.094120053 L 402 266.458786751 L 407 270.487896492 L 412 297.062887537 L 417 300.192028394 L 421 320.21496126 L 426 323.597366648 L 431 332.023710123 L 436 374.758203976 L 441 362.77984871 L 446 358.672464721 L 450 369.836081747 L 455 369.06186459 L 460 335.678405803 L 465 380.515924485 L 470 373.72188031 L 475 387.58520628 L 479 365.8103971 L 484 371.017651521 L 489 395.780644581 L 494 391.88836739 L 499 379.986327587 L 504 382.21549956 L 508 380.287653572 L 513 379.96935211 L 518 392.502297891 L 523 394.90861664 L 528 375.161900784 L 532 382.295626385 L 537 389.315274208 L 542 383.737532443 L 547 379.617099696 L 552 403.327888361 L 557 379.310076766 L 562 384.821406791 L 566 384.515956379 L 571 378.202936872 L 576 374.500855215 L 581 379.556071834 L 586 375.169721216 L 591 385.598455917 L 595 396.648390582 L 600 399.789987072 L 605 393.41370086 L 610 396.26367738 L 615 391.015515609 L 620 391.140674211"/>
			<path class="series-2-line" d="M 40 396.91333527 L 44 379.149802529 L 49 392.031080215 L 54 388.601410416 L 59 412.356653092 L 64 364.936852196 L 69 391.163450552 L 73 376.365544626 L 78 384.304110953 L 83 363.08068026 L 88 376.456229082 L 93 355.727069526 L 98 377.999498794 L 102 369.1328465 L 107 372.622972603 L 112 376.113098707 L 117 378.120411403 L 122 362.828234341 L 127 375.709512027 L 131 368.325673141 L 136 378.241324011 L 141 388.156974882 L 146 384.233033947 L 151 363.009603254 L 156 349.694510736 L 160 362.081517286 L 165 364.583101118 L 170 364.119058134 L 175 356.735219248 L 180 356.271176264 L 185 370.635267358 L 189 336.066515995 L 194 330.659761652 L 199 277.802978261 L 204 276.844664141 L 209 300.599906818 L 214 312.492642232 L 218 298.683278578 L 223 238.412428148 L 228 274.030178086 L 233 265.657796928 L 238 240.974468284 L 243 265.718253232 L 247 297.876105219 L 252 232.66254343 L 257 216.876095232 L 262 230.251644054 L 267 290.088679653 L 272 288.141823261 L 276 264.447036889 L 281 250.637673235 L 286 188.884009397 L 291 184.465797326 L 296 171.150704809 L 301 296.231530349 L 305 257.214338763 L 310 313.097205274 L 315 233.055509407 L 320 265.213361394 L 325 219.770645041 L 330 193.60450299 L 334 178.806597064 L 339 183.779536576 L 344 205.063423572 L 349 192.24260219 L 354 214.020760323 L 359 207.625463708 L 363 251.151551821 L 368 237.836459304 L 373 249.729194718 L 378 276.45006421 L 383 289.825613032 L 388 284.913129824 L 392 301.254305462 L 397 236.535014809 L 402 250.404834766 L 407 286.022584705 L 412 274.190305595 L 417 295.968463727 L 421 303.907030054 L 426 305.420071614 L 431 291.116436825 L 436 341.562320841 L 441 310.45346743 L 446 343.105590553 L 450 306.559754647 L 455 339.706148905 L 460 370.87545862 L 465 343.720774297 L 470 390.706760361 L 475 376.403125572 L 479 370.007828957 L 484 356.692736439 L 489 376.988081164 L 494 376.029767044 L 499 371.611554973 L 504 379.5501213 L 508 380.568891724 L 513 381.093391012 L 518 400.894464601 L 523 381.153847316 L 528 405.403361129 L 532 399.996606786 L 537 393.107039035 L 542 404.505503313 L 547 400.581562378 L 552 392.209181219 L 557 408.056085721 L 562 385.844112757 L 566 403.668101802 L 571 394.801449507 L 576 402.740015834 L 581 393.87336354 L 586 412.191623721 L 591 393.933819844 L 595 394.458319132 L 600 394.98281842 L 605 396.001588844 L 610 384.169309734 L 615 401.993298779 L 620 391.149561941"/>
		</g>
		<text class="x-axis-label" x="40.0" y="540">
			0
		</text>
		<path class="x-notch" d="M 64.1666666667 525 L 64.1666666667 530"/>
		<text class="x-axis-label" x="88.3333333333" y="540">
			10
		</text>
		<path class="x-notch" d="M 112.5 525 L 112.5 530"/>
		<text class="x-axis-label" x="136.666666667" y="540">
			20
		</text>
		<path class="x-notch" d="M 160.833333333 525 L 160.833333333 530"/>
		<text class="x-axis-label" x="185.0" y="540">
			30
		</text>
		<path class="x-notch" d="M 209.166666667 525 L 209.166666667 530"/>
		<text class="x-axis-label" x="233.333333333" y="540">
			40
		</text>
		<path class="x-notch" d="M 257.5 525 L 257.5 530"/>
		<text class="x-axis-label" x="281.666666667" y="540">
			50
		</text>
		<path class="x-notch" d="M 305.833333333 525 L 305.833333333 530"/>
		<text class="x-axis-label" x="330.0" y="540">
			60
		</text>
		<path class="x-notch" d="M 354.166666667 525 L 354.166666667 530"/>
		<text class="x-axis-label" x="378.333333333" y="540">
			70
		</text>
		<path class="x-notch" d="M 402.5 525 L 402.5 530"/>
		<text class="x-axis-label" x="426.666666667" y="540">
			80
		</text>
		<path class="x-notch" d="M 450.833333333 525 L 450.833333333 530"/>
		<text class="x-axis-label" x="475.0" y="540">
			90
		</text>
		<path class="x-notch" d="M 499.166666667 525 L 499.166666667 530"/>
		<text class="x-axis-label" x="523.333333333" y="540">
			100
		</text>
		<path class="x-notch" d="M 547.5 525 L 547.5 530"/>
		<text class="x-axis-label" x="571.666666667" y="540">
			110
		</text>
		<path class="x-notch" d="M 595.833333333 525 L 595.833333333 530"/>
		<text class="x-axis-label" x="620.0" y="540">
			120
		</text>
	</g>
</svg>
