<?xml version="1.0" ?>
<svg height="600" version="1.1" width="800" xmlns="http://www.w3.org/2000/svg" xmlns:svg="http://www.w3.org/2000/svg">
	<style type="text/css">

.x-axis-path, .y-gridline, .x-notch { fill:none; stroke: #a7a9ac; stroke-width:1; }



.y-gridline { stroke-width: 1; }

.y-axis-path, .y-axis-path2, .x-notch-left, .x-notch-right { display: none;}



.x-axis-label, .data-point-label {font-size: 12px; font-weight:normal; font-family: sans-serif; fill: #58595b; text-anchor:middle;}

.y-axis-label {font-size: 12px; font-family: helvetica; fill: #a7a9ac; text-anchor:end;}



.series-1-line { fill: none; stroke: #10b80c; stroke-width:2; }



.series-2-line { fill: none; stroke: #e90f0a; stroke-width: 2;}
</style>
	<rect fill="white" height="600" width="800" x="0" y="0"/>
	<g id="grid" transform="translate(70, 30)">
		<g class="x-axis" id="x_axis">
			<path class="x-axis-path" d="M 0 525 L 660 525"/>
			<path class="x-notch-left" d="M 0 525, L 0 535"/>
			<path class="x-notch-right" d="M 660 525, L 660 535"/>
		</g>
		<g class="y-axis" id="y_axis">
			<path class="y-axis-path" d="M 0 525 L 0 0"/>
			<path class="y-axis-path-2" d="M 660 525 L 660 0"/>
			<path class="y-gridline" d="M 0 525 L 660 525"/>
			<text class="y-axis-label" x="-5" y="525">-200</text>
			<path class="y-gridline" d="M 0 394 L 660 394"/>
			<text class="y-axis-label" x="-5" y="394"> 0</text>
			<path class="y-gridline" d="M 0 263 L 660 263"/>
			<text class="y-axis-label" x="-5" y="263">200</text>
			<path class="y-gridline" d="M 0 132 L 660 132"/>
			<text class="y-axis-label" x="-5" y="132">400</text>
			<path class="y-gridline" d="M 0 1 L 660 1"/>
			<text class="y-axis-label" x="-5" y="1">600</text>
		</g>
		<g>
			<path class="series-1-line" d="M 40 396.034894969 L 45 397.488122658 L 50 394.302658264 L 55 378.966238433 L 60 402.66736664 L 65 393.588044675 L 70 382.926357174 L 75 384.834486576 L 80 401.368145927 L 85 397.218959625 L 90 393.4332974 L 95 394.686742926 L 101 391.355982414 L 106 365.013381638 L 111 403.212621909 L 116 363.645520354 L 121 358.222438986 L 126 388.709066176 L 131 388.707062432 L 136 371.369131818 L 141 343.735041524 L 146 342.259928114 L 151 338.983653646 L 157 345.839796945 L 162 317.896101055 L 167 332.392776938 L 172 326.005973661 L 177 315.107612405 L 182 298.897429395 L 187 302.351884085 L 192 309.371769298 L 197 277.044217095 L 202 236.567312113 L 207 273.347928763 L 212 237.127462209 L 218 233.741931871 L 223 230.611237303 L 228 219.076070405 L 233 249.125957897 L 238 208.303407071 L 243 224.546474186 L 248 206.20764629 L 253 169.241402005 L 258 179.881487566 L 263 147.754001307 L 268 25.7622849218 L 274 81.9893113128 L 279 0.0 L 284 71.2160804163 L 289 7.38197310831 L 294 31.3010454925 L 299 30.8810316275 L 304 81.9960184264 L 309 96.2018182915 L 314 51.3768134635 L 319 44.4806224291 L 324 85.9538496421 L 330 100.614267439 L 335 52.3330879586 L 340 77.3081112323 L 345 100.590661755 L 350 102.971854886 L 355 54.5992977683 L 360 76.2449967112 L 365 123.357813289 L 370 156.919212822 L 375 136.906925534 L 380 96.2665624194 L 385 110.544442781 L 391 132.353599856 L 396 110.83131131 L 401 123.800391483 L 406 92.819382406 L 411 129.03555769 L 416 196.668329351 L 421 189.517586328 L 426 174.234801197 L 431 147.000275227 L 436 200.953076832 L 441 169.863095667 L 447 194.7651871 L 452 215.173031224 L 457 217.172538263 L 462 217.461978099 L 467 248.76703108 L 472 219.04090371 L 477 243.597065519 L 482 308.11930837 L 487 256.909787791 L 492 334.820273335 L 497 314.062208316 L 502 322.483122699 L 508 313.222464368 L 513 326.263625036 L 518 376.014758039 L 523 344.215323172 L 528 352.908383995 L 533 392.491058984 L 538 385.667516008 L 543 387.666739266 L 548 380.570482287 L 553 396.995453331 L 558 400.486232051 L 564 384.530601029 L 569 391.02322025 L 574 399.098205008 L 579 402.643753553 L 584 398.2394477 L 589 394.053653587 L 594 385.829649005 L 599 404.346089561 L 604 376.45773106 L 609 396.57526673 L 614 382.038543111 L 620 408.268448092"/>
			<path class="series-2-line" d="M 40 402.5472259 L 45 380.41227041 L 50 362.534037131 L 55 414.182266605 L 60 407.655292551 L 65 396.162142585 L 70 410.209325877 L 75 400.135083314 L 80 377.290674123 L 85 399.141848132 L 90 391.905420376 L 95 400.986427756 L 101 405.810712927 L 106 403.540461082 L 111 376.439329682 L 116 417.445753633 L 121 388.925714829 L 126 402.97289812 L 131 386.513572244 L 136 390.628403713 L 141 396.162142585 L 146 415.884955489 L 151 412.195796241 L 157 404.959368485 L 162 375.72987598 L 167 394.033781481 L 172 405.243149966 L 177 400.844537016 L 182 395.027016663 L 187 392.756764818 L 192 387.648698166 L 197 378.283909306 L 202 395.168907403 L 207 395.736470364 L 212 384.9527741 L 218 370.621809329 L 223 371.898825992 L 228 356.148953817 L 233 355.297609375 L 238 370.763700069 L 243 393.324327779 L 248 359.838113065 L 253 354.730046413 L 258 365.939414898 L 263 353.02735753 L 268 330.892402041 L 274 341.392316824 L 279 332.027527963 L 284 300.669674353 L 289 336.709922393 L 294 296.129170663 L 299 317.27089097 L 304 295.135935481 L 309 331.176183521 L 314 306.912866927 L 319 314.574966904 L 324 247.034974514 L 330 267.46724112 L 335 256.683544856 L 340 300.527783613 L 345 276.264467019 L 350 275.413122577 L 355 223.481111622 L 360 233.271572704 L 365 199.075904288 L 370 259.237578182 L 375 237.812076394 L 380 280.237407748 L 385 249.58900784 L 391 233.839135665 L 396 198.934013548 L 401 261.933502247 L 406 291.588666973 L 411 241.785017123 L 416 243.771487487 L 421 263.494300391 L 426 223.623002362 L 431 166.724815496 L 436 144.589860007 L 441 191.271913571 L 447 218.798717192 L 452 144.873641488 L 457 175.947713617 L 462 197.089433924 L 467 194.109728377 L 472 193.967837637 L 477 192.407039493 L 482 209.292037591 L 487 240.36610972 L 492 216.102793126 L 497 200.352920951 L 502 225.751363467 L 508 270.305055926 L 513 266.615896678 L 518 291.304885493 L 523 337.986939056 L 528 293.149465117 L 533 354.730046413 L 538 351.040887165 L 543 354.446264933 L 548 365.655633418 L 553 387.506807426 L 558 379.560925969 L 564 361.682692689 L 569 383.533866697 L 574 379.844707449 L 579 391.054075934 L 584 369.628574146 L 589 369.486683406 L 594 390.628403713 L 599 362.817818611 L 604 408.080964772 L 609 407.22962033 L 614 389.35138705 L 620 403.398570341"/>
		</g>
		<text class="x-axis-label" x="40.0" y="540">0</text>
		<path class="x-notch" d="M 65.4385964912 525 L 65.4385964912 530"/>
		<text class="x-axis-label" x="90.8771929825" y="540">10</text>
		<path class="x-notch" d="M 116.315789474 525 L 116.315789474 530"/>
		<text class="x-axis-label" x="141.754385965" y="540">20</text>
		<path class="x-notch" d="M 167.192982456 525 L 167.192982456 530"/>
		<text class="x-axis-label" x="192.631578947" y="540">30</text>
		<path class="x-notch" d="M 218.070175439 525 L 218.070175439 530"/>
		<text class="x-axis-label" x="243.50877193" y="540">40</text>
		<path class="x-notch" d="M 268.947368421 525 L 268.947368421 530"/>
		<text class="x-axis-label" x="294.385964912" y="540">50</text>
		<path class="x-notch" d="M 319.824561404 525 L 319.824561404 530"/>
		<text class="x-axis-label" x="345.263157895" y="540">60</text>
		<path class="x-notch" d="M 370.701754386 525 L 370.701754386 530"/>
		<text class="x-axis-label" x="396.140350877" y="540">70</text>
		<path class="x-notch" d="M 421.578947368 525 L 421.578947368 530"/>
		<text class="x-axis-label" x="447.01754386" y="540">80</text>
		<path class="x-notch" d="M 472.456140351 525 L 472.456140351 530"/>
		<text class="x-axis-label" x="497.894736842" y="540">90</text>
		<path class="x-notch" d="M 523.333333333 525 L 523.333333333 530"/>
		<text class="x-axis-label" x="548.771929825" y="540">100</text>
		<path class="x-notch" d="M 574.210526316 525 L 574.210526316 530"/>
		<text class="x-axis-label" x="599.649122807" y="540">110</text>
		<path class="x-notch" d="M 625.087719298 525 L 625.087719298 530"/>
	</g>
</svg>
