<?xml version="1.0" ?>
<svg height="600" version="1.1" width="800" xmlns="http://www.w3.org/2000/svg" xmlns:svg="http://www.w3.org/2000/svg">
	<style type="text/css">

.x-axis-path, .y-gridline, .x-notch { fill:none; stroke: #a7a9ac; stroke-width:1; }



.y-gridline { stroke-width: 1; }

.y-axis-path, .y-axis-path2, .x-notch-left, .x-notch-right { display: none;}



.x-axis-label, .data-point-label {font-size: 12px; font-weight:normal; font-family: sans-serif; fill: #58595b; text-anchor:middle;}

.y-axis-label {font-size: 12px; font-family: helvetica; fill: #a7a9ac; text-anchor:end;}



.series-1-line { fill: none; stroke: #10b80c; stroke-width:2; }



.series-2-line { fill: none; stroke: #e90f0a; stroke-width: 2;}
</style>
	<rect fill="white" height="600" width="800" x="0" y="0"/>
	<g id="grid" transform="translate(70, 30)">
		<g class="x-axis" id="x_axis">
			<path class="x-axis-path" d="M 0 525 L 660 525"/>
			<path class="x-notch-left" d="M 0 525, L 0 535"/>
			<path class="x-notch-right" d="M 660 525, L 660 535"/>
		</g>
		<g class="y-axis" id="y_axis">
			<path class="y-axis-path" d="M 0 525 L 0 0"/>
			<path class="y-axis-path-2" d="M 660 525 L 660 0"/>
			<path class="y-gridline" d="M 0 525 L 660 525"/>
			<text class="y-axis-label" x="-5" y="525">-200</text>
			<path class="y-gridline" d="M 0 394 L 660 394"/>
			<text class="y-axis-label" x="-5" y="394"> 0</text>
			<path class="y-gridline" d="M 0 263 L 660 263"/>
			<text class="y-axis-label" x="-5" y="263">200</text>
			<path class="y-gridline" d="M 0 132 L 660 132"/>
			<text class="y-axis-label" x="-5" y="132">400</text>
			<path class="y-gridline" d="M 0 1 L 660 1"/>
			<text class="y-axis-label" x="-5" y="1">600</text>
		</g>
		<g>
			<path class="series-1-line" d="M 40 393.86709022 L 45 423.753967328 L 50 392.866369862 L 55 391.82794804 L 60 366.997076182 L 65 402.903297155 L 70 411.563230395 L 75 387.902377699 L 80 387.524464808 L 85 389.25994502 L 90 418.29763841 L 95 390.598674297 L 100 381.277694187 L 105 362.427901416 L 110 389.84287389 L 115 392.389861732 L 120 371.332485637 L 125 389.540069582 L 130 359.369495179 L 135 320.179912691 L 140 361.14238251 L 145 375.500529826 L 150 327.895639705 L 156 377.103580413 L 161 351.725522235 L 166 333.630428616 L 171 357.34755185 L 176 340.93169328 L 181 292.817292928 L 186 323.383517012 L 191 303.608894 L 196 343.28890508 L 201 340.571542554 L 206 326.740616885 L 211 319.230149446 L 216 291.210644234 L 221 305.795731116 L 226 269.54959306 L 231 257.397902439 L 236 264.227896275 L 241 288.661748228 L 246 303.321892943 L 251 293.491108257 L 256 278.754779081 L 261 264.772560368 L 266 250.6025499 L 272 268.130492525 L 277 195.958732138 L 282 224.166668542 L 287 205.279199682 L 292 248.788926313 L 297 171.523240991 L 302 209.239974634 L 307 118.842406321 L 312 162.275897741 L 317 95.6142653307 L 322 114.746973861 L 327 134.78390852 L 332 117.009944689 L 337 160.576479798 L 342 118.631833321 L 347 70.4232427469 L 352 94.5362592567 L 357 123.423542636 L 362 89.5730740037 L 367 130.932025788 L 372 96.1008014706 L 377 123.553450034 L 382 141.836386156 L 388 133.156782588 L 393 84.1372730729 L 398 93.7782563416 L 403 138.21193018 L 408 45.0404598332 L 413 93.6073183436 L 418 158.910013208 L 423 110.361454802 L 428 59.5299608946 L 433 0.0 L 438 112.982962537 L 443 128.850213814 L 448 157.114370007 L 453 211.020931062 L 458 186.661010314 L 463 125.452697404 L 468 132.886097348 L 473 242.020800635 L 478 57.4889359259 L 483 272.114921606 L 488 317.039561975 L 493 383.193206625 L 498 371.474791025 L 504 316.304071335 L 509 386.833440479 L 514 398.02208683 L 519 389.606510227 L 524 413.794878915 L 529 424.45517699 L 534 386.322291053 L 539 406.00130287 L 544 411.359574489 L 549 420.925499925 L 554 414.566507948 L 559 400.151014214 L 564 420.867884538 L 569 416.075099343 L 574 407.602714263 L 579 393.677598372 L 584 409.885111825 L 589 414.771549302 L 594 408.771363201 L 599 391.714128089 L 604 380.260622488 L 609 408.109753016 L 614 384.279063576 L 620 403.542755383"/>
			<path class="series-2-line" d="M 40 404.199227735 L 45 399.6191267 L 50 405.341081179 L 55 375.00584136 L 60 382.935379163 L 65 415.148333534 L 70 392.907565904 L 75 419.23363141 L 80 400.672169321 L 85 396.827929394 L 90 381.209911737 L 95 377.36567181 L 100 405.163459532 L 105 398.375775173 L 110 377.606729759 L 115 390.687295319 L 120 383.89961096 L 125 393.300870979 L 130 401.96626989 L 135 411.367529909 L 140 400.900540009 L 145 379.395633487 L 150 381.438282426 L 156 376.122320282 L 161 383.315996977 L 166 373.584868185 L 171 384.457850421 L 176 371.047416088 L 181 366.467315053 L 186 370.717547316 L 191 335.967140848 L 196 382.161456273 L 201 384.204105211 L 206 369.321948663 L 211 315.439153383 L 216 332.934885592 L 221 362.204395531 L 226 371.60565555 L 231 353.04419346 L 236 358.030286831 L 241 343.148130282 L 246 331.945279274 L 251 324.421733807 L 256 336.03057715 L 261 287.298809628 L 266 325.398652864 L 272 297.270996369 L 277 257.369562144 L 282 285.167349867 L 287 284.266554372 L 292 278.214731121 L 297 286.880130032 L 302 237.412501402 L 307 285.814400151 L 312 205.44060498 L 317 224.408059405 L 322 290.470624749 L 327 215.247857335 L 332 241.573922841 L 337 255.390349509 L 342 235.357165203 L 347 245.494286331 L 352 223.253518701 L 357 259.88163972 L 362 211.149872198 L 367 224.966298866 L 372 214.499308966 L 377 187.843374688 L 382 185.470856977 L 388 199.287283645 L 393 249.896765719 L 398 218.089803683 L 403 153.904952891 L 408 175.815851748 L 413 213.179833876 L 418 222.581093895 L 423 199.604465157 L 428 188.401614149 L 433 156.594652114 L 438 189.543467593 L 443 133.453088989 L 448 123.721960197 L 453 160.350081217 L 458 94.6935082081 L 463 152.661601363 L 468 120.854639328 L 473 237.691621132 L 478 219.866020151 L 483 238.097613468 L 488 212.177540298 L 493 404.808216239 L 498 318.547532202 L 504 352.968069898 L 509 379.294135404 L 514 393.110562072 L 519 394.417349902 L 524 360.402804542 L 529 370.539925669 L 534 387.29979677 L 539 368.002473572 L 544 372.988566943 L 549 381.653965854 L 554 377.809725927 L 559 396.777180352 L 564 387.781912668 L 569 397.919033795 L 574 379.357571706 L 579 379.19263732 L 584 384.914591798 L 589 377.391046331 L 594 403.717111837 L 599 404.288038559 L 604 391.613465334 L 609 389.240947624 L 614 413.359429805 L 620 372.722134472"/>
		</g>
		<text class="x-axis-label" x="40.0" y="540">0</text>
		<path class="x-notch" d="M 65.2173913043 525 L 65.2173913043 530"/>
		<text class="x-axis-label" x="90.4347826087" y="540">10</text>
		<path class="x-notch" d="M 115.652173913 525 L 115.652173913 530"/>
		<text class="x-axis-label" x="140.869565217" y="540">20</text>
		<path class="x-notch" d="M 166.086956522 525 L 166.086956522 530"/>
		<text class="x-axis-label" x="191.304347826" y="540">30</text>
		<path class="x-notch" d="M 216.52173913 525 L 216.52173913 530"/>
		<text class="x-axis-label" x="241.739130435" y="540">40</text>
		<path class="x-notch" d="M 266.956521739 525 L 266.956521739 530"/>
		<text class="x-axis-label" x="292.173913043" y="540">50</text>
		<path class="x-notch" d="M 317.391304348 525 L 317.391304348 530"/>
		<text class="x-axis-label" x="342.608695652" y="540">60</text>
		<path class="x-notch" d="M 367.826086957 525 L 367.826086957 530"/>
		<text class="x-axis-label" x="393.043478261" y="540">70</text>
		<path class="x-notch" d="M 418.260869565 525 L 418.260869565 530"/>
		<text class="x-axis-label" x="443.47826087" y="540">80</text>
		<path class="x-notch" d="M 468.695652174 525 L 468.695652174 530"/>
		<text class="x-axis-label" x="493.913043478" y="540">90</text>
		<path class="x-notch" d="M 519.130434783 525 L 519.130434783 530"/>
		<text class="x-axis-label" x="544.347826087" y="540">100</text>
		<path class="x-notch" d="M 569.565217391 525 L 569.565217391 530"/>
		<text class="x-axis-label" x="594.782608696" y="540">110</text>
		<path class="x-notch" d="M 620.0 525 L 620.0 530"/>
	</g>
</svg>
