<?xml version="1.0" ?>
<svg height="600" version="1.1" width="800" xmlns="http://www.w3.org/2000/svg" xmlns:svg="http://www.w3.org/2000/svg">
	<style type="text/css">

.x-axis-path, .y-gridline, .x-notch { fill:none; stroke: #a7a9ac; stroke-width:1; }



.y-gridline { stroke-width: 1; }

.y-axis-path, .y-axis-path2, .x-notch-left, .x-notch-right { display: none;}



.x-axis-label, .data-point-label {font-size: 12px; font-weight:normal; font-family: sans-serif; fill: #58595b; text-anchor:middle;}

.y-axis-label {font-size: 12px; font-family: helvetica; fill: #a7a9ac; text-anchor:end;}



.series-1-line { fill: none; stroke: #10b80c; stroke-width:2; }



.series-2-line { fill: none; stroke: #e90f0a; stroke-width: 2;}
</style>
	<rect fill="white" height="600" width="800" x="0" y="0"/>
	<g id="grid" transform="translate(70, 30)">
		<g class="x-axis" id="x_axis">
			<path class="x-axis-path" d="M 0 525 L 660 525"/>
			<path class="x-notch-left" d="M 0 525, L 0 535"/>
			<path class="x-notch-right" d="M 660 525, L 660 535"/>
		</g>
		<g class="y-axis" id="y_axis">
			<path class="y-axis-path" d="M 0 525 L 0 0"/>
			<path class="y-axis-path-2" d="M 660 525 L 660 0"/>
			<path class="y-gridline" d="M 0 525 L 660 525"/>
			<text class="y-axis-label" x="-5" y="525">-200</text>
			<path class="y-gridline" d="M 0 394 L 660 394"/>
			<text class="y-axis-label" x="-5" y="394"> 0</text>
			<path class="y-gridline" d="M 0 263 L 660 263"/>
			<text class="y-axis-label" x="-5" y="263">200</text>
			<path class="y-gridline" d="M 0 132 L 660 132"/>
			<text class="y-axis-label" x="-5" y="132">400</text>
			<path class="y-gridline" d="M 0 1 L 660 1"/>
			<text class="y-axis-label" x="-5" y="1">600</text>
		</g>
		<g>
			<path class="series-1-line" d="M 40 401.482237081 L 45 394.600540894 L 51 406.213829093 L 57 395.803424602 L 63 372.546236099 L 69 391.545902155 L 75 382.933390672 L 81 396.352284646 L 87 400.49715918 L 93 387.974391088 L 99 381.264011843 L 105 375.483956045 L 111 395.734609729 L 117 389.017569457 L 123 373.288743863 L 129 382.542626158 L 135 393.615903723 L 141 373.587326727 L 147 375.058324763 L 153 377.809992898 L 159 371.662295151 L 165 391.38088469 L 171 397.25645766 L 177 387.138203479 L 183 364.510189884 L 189 382.348383168 L 195 346.452655394 L 201 307.501269099 L 207 320.485677132 L 213 321.320138073 L 219 325.772939033 L 225 362.054347667 L 231 316.788775152 L 237 326.214909269 L 243 315.407764657 L 249 328.968760543 L 255 325.143073459 L 261 275.862070222 L 267 268.545771235 L 273 245.475792651 L 279 241.110562374 L 285 232.288637549 L 291 221.316486442 L 297 189.789106964 L 303 197.859196203 L 309 184.916783405 L 315 173.210400139 L 321 121.891706921 L 327 158.607601495 L 332 159.636167102 L 338 154.881675753 L 344 66.4598931645 L 350 94.5910093099 L 356 94.9829209614 L 362 98.2511108449 L 368 69.0910837588 L 374 71.1304894384 L 380 26.0372856057 L 386 84.4168268277 L 392 74.2988063671 L 398 73.0122560575 L 404 0.0 L 410 19.5468051567 L 416 57.3260099997 L 422 95.3301705814 L 428 163.051042675 L 434 129.906085361 L 440 111.345622102 L 446 68.7685335993 L 452 156.15415992 L 458 115.022748011 L 464 166.601614316 L 470 318.088641315 L 476 364.296148881 L 482 331.120340494 L 488 326.680904039 L 494 370.805496755 L 500 377.257774437 L 506 375.544450954 L 512 364.347110388 L 518 380.313671926 L 524 367.498636664 L 530 377.224283279 L 536 389.219704083 L 542 373.528390589 L 548 366.94632376 L 554 383.354149126 L 560 381.83574833 L 566 368.833736869 L 572 384.424826829 L 578 376.097337188 L 584 391.703618963 L 590 377.607563022 L 596 388.539439837 L 602 389.995246057 L 608 401.039191732 L 614 399.049026616 L 620 387.282694106"/>
			<path class="series-2-line" d="M 40 392.990409194 L 45 413.402772486 L 51 397.004196718 L 57 375.34691537 L 63 386.702619053 L 69 391.631015915 L 75 374.355989217 L 81 383.958791039 L 87 381.875580461 L 93 370.735710273 L 99 295.907072506 L 105 361.018433228 L 111 364.48607854 L 117 370.583076642 L 123 369.668467304 L 129 379.563419436 L 135 299.183925779 L 141 308.202426981 L 147 347.312410113 L 153 357.499512555 L 159 365.933713137 L 165 349.827287679 L 171 374.037605002 L 177 352.380323654 L 183 356.724419896 L 189 326.302629248 L 195 224.01186234 L 201 188.331366112 L 207 197.349867315 L 213 256.033921217 L 219 331.370542789 L 225 329.287332211 L 231 367.228714103 L 237 373.033561895 L 243 379.130559998 L 249 366.52993826 L 255 354.513617142 L 261 369.375124544 L 267 377.809325126 L 273 382.737721988 L 279 352.315931341 L 285 367.761739363 L 291 353.992516385 L 297 356.583710767 L 303 346.028141199 L 309 320.572905821 L 315 295.994121374 L 321 298.293165446 L 327 296.794255488 L 332 290.91309088 L 338 287.076978442 L 344 289.376022514 L 350 282.618406977 L 356 284.917451049 L 362 260.046516291 L 368 280.751029893 L 374 231.047318785 L 380 276.292458427 L 386 233.60035476 L 392 234.730797592 L 398 191.162242994 L 404 239.328885736 L 410 272.888012978 L 416 230.78020993 L 422 210.583680132 L 428 169.060177705 L 434 218.979722307 L 440 215.435760179 L 446 175.665159611 L 452 211.269339023 L 458 162.442078845 L 464 235.149347628 L 470 331.81294183 L 476 376.473780852 L 482 339.916833694 L 488 378.150365896 L 494 383.078762758 L 500 397.063819231 L 506 374.530086953 L 512 316.061866545 L 518 395.488592457 L 524 372.954860179 L 530 366.197244641 L 536 358.563178174 L 542 363.199424726 L 548 382.443186778 L 554 392.92243953 L 560 385.580523372 L 566 392.261822094 L 572 381.998402837 L 578 400.073563649 L 584 410.260666091 L 590 382.468228233 L 596 392.655330675 L 602 411.314792107 L 608 392.57901386 L 614 401.889665372 L 620 375.265828754"/>
		</g>
		<text class="x-axis-label" x="40.0" y="540">0</text>
		<path class="x-notch" d="M 69.8969072165 525 L 69.8969072165 530"/>
		<text class="x-axis-label" x="99.793814433" y="540">10</text>
		<path class="x-notch" d="M 129.690721649 525 L 129.690721649 530"/>
		<text class="x-axis-label" x="159.587628866" y="540">20</text>
		<path class="x-notch" d="M 189.484536082 525 L 189.484536082 530"/>
		<text class="x-axis-label" x="219.381443299" y="540">30</text>
		<path class="x-notch" d="M 249.278350515 525 L 249.278350515 530"/>
		<text class="x-axis-label" x="279.175257732" y="540">40</text>
		<path class="x-notch" d="M 309.072164948 525 L 309.072164948 530"/>
		<text class="x-axis-label" x="338.969072165" y="540">50</text>
		<path class="x-notch" d="M 368.865979381 525 L 368.865979381 530"/>
		<text class="x-axis-label" x="398.762886598" y="540">60</text>
		<path class="x-notch" d="M 428.659793814 525 L 428.659793814 530"/>
		<text class="x-axis-label" x="458.556701031" y="540">70</text>
		<path class="x-notch" d="M 488.453608247 525 L 488.453608247 530"/>
		<text class="x-axis-label" x="518.350515464" y="540">80</text>
		<path class="x-notch" d="M 548.24742268 525 L 548.24742268 530"/>
		<text class="x-axis-label" x="578.144329897" y="540">90</text>
		<path class="x-notch" d="M 608.041237113 525 L 608.041237113 530"/>
	</g>
</svg>
