<?xml version="1.0" ?>
<svg height="600" version="1.1" width="800" xmlns="http://www.w3.org/2000/svg" xmlns:svg="http://www.w3.org/2000/svg">
	<style type="text/css">
		

.x-axis-path, .y-gridline, .x-notch { fill:none; stroke: #a7a9ac; stroke-width:1; }



.y-gridline { stroke-width: 1; }

.y-axis-path, .y-axis-path2, .x-notch-left, .x-notch-right { display: none;}



.x-axis-label, .data-point-label {font-size: 12px; font-weight:normal; font-family: sans-serif; fill: #58595b; text-anchor:middle;}

.y-axis-label {font-size: 12px; font-family: helvetica; fill: #a7a9ac; text-anchor:end;}



.series-1-line { fill: none; stroke: #10b80c; stroke-width:2; }



.series-2-line { fill: none; stroke: #e90f0a; stroke-width: 2;}

	</style>
	<rect fill="white" height="600" width="800" x="0" y="0"/>
	<g id="grid" transform="translate(70, 30)">
		<g class="x-axis" id="x_axis">
			<path class="x-axis-path" d="M 0 525 L 660 525"/>
			<path class="x-notch-left" d="M 0 525, L 0 535"/>
			<path class="x-notch-right" d="M 660 525, L 660 535"/>
		</g>
		<g class="y-axis" id="y_axis">
			<path class="y-axis-path" d="M 0 525 L 0 0"/>
			<path class="y-axis-path-2" d="M 660 525 L 660 0"/>
			<path class="y-gridline" d="M 0 525 L 660 525"/>
			<text class="y-axis-label" x="-5" y="525">
				-200
			</text>
			<path class="y-gridline" d="M 0 394 L 660 394"/>
			<text class="y-axis-label" x="-5" y="394">
				 0
			</text>
			<path class="y-gridline" d="M 0 263 L 660 263"/>
			<text class="y-axis-label" x="-5" y="263">
				200
			</text>
			<path class="y-gridline" d="M 0 132 L 660 132"/>
			<text class="y-axis-label" x="-5" y="132">
				400
			</text>
			<path class="y-gridline" d="M 0 1 L 660 1"/>
			<text class="y-axis-label" x="-5" y="1">
				600
			</text>
		</g>
		<g>
			<path class="series-1-line" d="M 40 385.682462633 L 46 406.789700683 L 52 370.640019128 L 58 400.694796746 L 64 400.788471726 L 70 397.643350632 L 76 394.574100537 L 82 372.657074886 L 88 395.801001467 L 94 407.614971521 L 100 364.359269656 L 106 407.498837485 L 112 360.874564652 L 118 392.521450405 L 124 399.450105423 L 130 374.500436524 L 136 374.929870245 L 142 334.588020287 L 148 297.88561259 L 154 307.078231181 L 160 281.402633971 L 166 219.830253543 L 172 184.21099307 L 178 223.093843004 L 185 187.8321394 L 191 139.49629118 L 197 124.251857973 L 203 181.158886027 L 209 107.9096378 L 215 109.920534059 L 221 96.5282657058 L 227 47.315254111 L 233 71.7915700613 L 239 26.8677200851 L 245 59.2944380428 L 251 61.966206188 L 257 76.0872291348 L 263 0.0 L 269 26.2417952314 L 275 34.6111543412 L 281 86.5784565313 L 287 122.731471302 L 293 118.254129817 L 299 124.045226784 L 305 161.877373218 L 311 116.585320776 L 317 157.341795736 L 323 78.3515292693 L 330 156.575942344 L 336 211.652265714 L 342 202.798739081 L 348 265.143301379 L 354 302.021906506 L 360 274.830410116 L 366 291.843486843 L 372 382.123784756 L 378 369.804187007 L 384 414.416902652 L 390 381.126831154 L 396 399.266313402 L 402 396.868749768 L 408 403.125718325 L 414 400.738800288 L 420 387.9317018 L 426 401.142779693 L 432 387.728882191 L 438 382.536764924 L 444 402.506782878 L 450 392.559294447 L 456 397.9605598 L 462 401.856064637 L 468 405.275390242 L 475 388.157163031 L 481 400.404222997 L 487 415.630022316 L 493 414.705437519 L 499 398.421284364 L 505 414.600287036 L 511 401.543946402 L 517 412.361285828 L 523 404.688406566 L 529 403.157360711 L 535 391.704111764 L 541 401.936450303 L 547 408.637492324 L 553 401.029669487 L 559 401.924805821 L 565 392.324059684 L 571 413.128151693 L 577 397.017369685 L 583 408.00791128 L 589 388.820720792 L 595 385.545655827 L 601 395.604623219 L 607 400.356000238 L 613 398.586526811 L 620 394.889017531"/>
			<path class="series-2-line" d="M 40 400.171153587 L 46 370.494658217 L 52 392.778813585 L 58 400.699862245 L 64 403.551579126 L 70 400.911519912 L 76 402.918348163 L 82 379.578517517 L 88 378.205791248 L 94 397.955280727 L 100 391.935666994 L 106 385.071164631 L 112 393.837101921 L 118 384.015489353 L 124 391.514093698 L 130 396.478032153 L 136 396.37263883 L 142 397.112134135 L 148 390.247631772 L 154 407.040011046 L 160 393.416399644 L 166 394.578339265 L 172 383.489393752 L 178 398.169551452 L 185 397.219269498 L 191 392.889433024 L 197 383.067820457 L 203 386.764425967 L 209 380.744812234 L 215 381.061863225 L 221 362.368920043 L 227 379.583743632 L 233 384.547682088 L 239 375.148513835 L 245 358.990236543 L 251 371.558172667 L 257 377.366999753 L 263 369.235164445 L 269 362.370662082 L 275 375.783486836 L 281 342.727436946 L 287 338.397600472 L 293 345.896204818 L 299 333.117482045 L 305 346.952751115 L 311 345.580024846 L 317 331.533969129 L 323 314.953247522 L 330 337.659847205 L 336 330.372900527 L 342 328.577729943 L 348 324.24789347 L 354 305.554950288 L 360 347.271544144 L 366 346.743706505 L 372 366.915640299 L 378 378.638687794 L 384 372.61907406 L 390 393.635896484 L 396 382.124506656 L 402 394.692442781 L 408 391.629939252 L 414 386.032769834 L 420 391.419152605 L 426 390.891314966 L 432 375.577926303 L 438 395.749860097 L 444 378.746694175 L 450 382.865744001 L 456 381.493017732 L 462 367.86940633 L 468 395.645337792 L 475 398.074610358 L 481 399.658994294 L 487 397.86382371 L 493 394.801320182 L 499 398.920370007 L 505 396.702755109 L 511 391.528030005 L 517 401.983744555 L 523 397.231463767 L 529 406.419845372 L 535 398.288010064 L 541 401.139726944 L 547 394.697668896 L 553 396.282052832 L 559 389.417550469 L 565 405.365041113 L 571 390.051652451 L 577 400.084922686 L 583 399.979529362 L 589 395.649692888 L 595 396.811632509 L 601 393.749128981 L 607 394.911068602 L 613 391.848565073 L 620 393.010504694"/>
		</g>
		<text class="x-axis-label" x="40.0" y="540">
			0
		</text>
		<path class="x-notch" d="M 70.2083333333 525 L 70.2083333333 530"/>
		<text class="x-axis-label" x="100.416666667" y="540">
			10
		</text>
		<path class="x-notch" d="M 130.625 525 L 130.625 530"/>
		<text class="x-axis-label" x="160.833333333" y="540">
			20
		</text>
		<path class="x-notch" d="M 191.041666667 525 L 191.041666667 530"/>
		<text class="x-axis-label" x="221.25" y="540">
			30
		</text>
		<path class="x-notch" d="M 251.458333333 525 L 251.458333333 530"/>
		<text class="x-axis-label" x="281.666666667" y="540">
			40
		</text>
		<path class="x-notch" d="M 311.875 525 L 311.875 530"/>
		<text class="x-axis-label" x="342.083333333" y="540">
			50
		</text>
		<path class="x-notch" d="M 372.291666667 525 L 372.291666667 530"/>
		<text class="x-axis-label" x="402.5" y="540">
			60
		</text>
		<path class="x-notch" d="M 432.708333333 525 L 432.708333333 530"/>
		<text class="x-axis-label" x="462.916666667" y="540">
			70
		</text>
		<path class="x-notch" d="M 493.125 525 L 493.125 530"/>
		<text class="x-axis-label" x="523.333333333" y="540">
			80
		</text>
		<path class="x-notch" d="M 553.541666667 525 L 553.541666667 530"/>
		<text class="x-axis-label" x="583.75" y="540">
			90
		</text>
		<path class="x-notch" d="M 613.958333333 525 L 613.958333333 530"/>
	</g>
</svg>
