<?xml version="1.0" ?>
<svg height="600" version="1.1" width="800" xmlns="http://www.w3.org/2000/svg" xmlns:svg="http://www.w3.org/2000/svg">
	<style type="text/css">
		

.x-axis-path, .y-gridline, .x-notch { fill:none; stroke: #a7a9ac; stroke-width:1; }



.y-gridline { stroke-width: 1; }

.y-axis-path, .y-axis-path2, .x-notch-left, .x-notch-right { display: none;}



.x-axis-label, .data-point-label {font-size: 12px; font-weight:normal; font-family: sans-serif; fill: #58595b; text-anchor:middle;}

.y-axis-label {font-size: 12px; font-family: helvetica; fill: #a7a9ac; text-anchor:end;}



.series-1-line { fill: none; stroke: #10b80c; stroke-width:2; }



.series-2-line { fill: none; stroke: #e90f0a; stroke-width: 2;}

	</style>
	<rect fill="white" height="600" width="800" x="0" y="0"/>
	<g id="grid" transform="translate(70, 30)">
		<g class="x-axis" id="x_axis">
			<path class="x-axis-path" d="M 0 525 L 660 525"/>
			<path class="x-notch-left" d="M 0 525, L 0 535"/>
			<path class="x-notch-right" d="M 660 525, L 660 535"/>
		</g>
		<g class="y-axis" id="y_axis">
			<path class="y-axis-path" d="M 0 525 L 0 0"/>
			<path class="y-axis-path-2" d="M 660 525 L 660 0"/>
			<path class="y-gridline" d="M 0 525 L 660 525"/>
			<text class="y-axis-label" x="-5" y="525">
				-250
			</text>
			<path class="y-gridline" d="M 0 420 L 660 420"/>
			<text class="y-axis-label" x="-5" y="420">
				 0
			</text>
			<path class="y-gridline" d="M 0 315 L 660 315"/>
			<text class="y-axis-label" x="-5" y="315">
				250
			</text>
			<path class="y-gridline" d="M 0 210 L 660 210"/>
			<text class="y-axis-label" x="-5" y="210">
				500
			</text>
			<path class="y-gridline" d="M 0 105 L 660 105"/>
			<text class="y-axis-label" x="-5" y="105">
				750
			</text>
			<path class="y-gridline" d="M 0 0 L 660 0"/>
			<text class="y-axis-label" x="-5" y="0">
				1000
			</text>
		</g>
		<g>
			<path class="series-1-line" d="M 40 410.3357664 L 46 417.982399353 L 52 426.652152306 L 58 426.02831326 L 64 422.453218213 L 71 428.269323166 L 77 425.448380119 L 83 433.289053072 L 89 419.407998026 L 96 432.450118979 L 102 431.944551932 L 108 414.671240885 L 114 411.990241838 L 121 444.998490791 L 127 458.212643745 L 133 424.516828698 L 139 437.095605651 L 146 425.648702604 L 152 429.493831557 L 158 429.968376511 L 164 425.747321464 L 170 409.551058417 L 177 420.93468337 L 183 410.036468323 L 189 402.348061277 L 195 390.23335823 L 202 374.585951183 L 208 378.259048136 L 214 354.136209089 L 220 344.283122043 L 227 337.682178996 L 233 315.024299949 L 239 339.589372902 L 245 300.379293855 L 252 290.245982809 L 258 295.372615762 L 264 287.672784715 L 270 273.673625668 L 276 238.437418621 L 283 214.519203574 L 289 234.098372528 L 295 273.180325481 L 301 195.222558434 L 308 190.516991387 L 314 210.06356834 L 320 202.320897294 L 326 136.725914247 L 333 162.9924912 L 339 165.136116153 L 345 105.809381106 L 351 80.4482140596 L 358 114.479247013 L 364 106.467943966 L 370 41.9820969191 L 376 121.470401872 L 383 84.8448348255 L 389 122.289963779 L 395 48.5212767319 L 401 42.8031736851 L 407 67.0240146383 L 414 55.2532075915 L 420 66.0552165447 L 426 118.071153498 L 432 151.402802451 L 439 121.012891404 L 445 116.425596357 L 451 111.612005311 L 457 132.300646264 L 464 135.176415217 L 470 160.52739217 L 476 229.785001123 L 482 229.785786077 L 489 219.25397903 L 495 250.000779983 L 501 244.174316936 L 507 279.413269889 L 513 324.763302843 L 520 270.066311796 L 526 307.038016749 L 532 411.630225702 L 538 411.522986655 L 545 433.256083609 L 551 428.238036562 L 557 405.030965515 L 563 438.297598468 L 570 422.704287421 L 576 419.258888374 L 582 426.851761328 L 588 417.999954281 L 595 425.011379234 L 601 429.954892187 L 607 418.73411714 L 613 424.474454094 L 620 396.647383047"/>
			<path class="series-2-line" d="M 40 427.224 L 46 418.08587234 L 52 413.147744681 L 58 432.989617021 L 64 405.371489362 L 71 419.753361702 L 77 421.955234043 L 83 431.717106383 L 89 422.998978723 L 96 423.940851064 L 102 425.302723404 L 108 421.624595745 L 114 418.366468085 L 121 416.788340426 L 127 390.850212766 L 133 443.032085106 L 139 417.933957447 L 146 439.035829787 L 152 433.257702128 L 158 445.539574468 L 164 436.821446809 L 170 445.323319149 L 177 442.905191489 L 183 411.08706383 L 189 435.54893617 L 195 446.150808511 L 202 418.112680851 L 208 439.214553191 L 214 406.556425532 L 220 424.718297872 L 227 426.920170213 L 233 427.862042553 L 239 416.623914894 L 245 428.065787234 L 252 424.387659574 L 258 415.249531915 L 264 375.871404255 L 270 402.013276596 L 276 415.975148936 L 283 384.157021277 L 289 397.278893617 L 295 381.840765957 L 301 393.702638298 L 308 395.064510638 L 314 380.466382979 L 320 364.188255319 L 326 347.49012766 L 333 332.892 L 339 330.47387234 L 345 367.955744681 L 351 348.317617021 L 358 318.179489362 L 364 360.281361702 L 370 334.343234043 L 376 338.225106383 L 383 339.586978723 L 389 333.808851064 L 395 330.970723404 L 401 310.072595745 L 407 336.214468085 L 414 276.676340426 L 420 266.698212766 L 426 264.700085106 L 432 294.621957447 L 439 322.443829787 L 445 305.325702128 L 451 274.347574468 L 457 310.989446809 L 464 292.611319149 L 470 257.013191489 L 476 268.03506383 L 482 288.71693617 L 489 281.678808511 L 495 288.920680851 L 501 202.922553191 L 507 344.984425532 L 513 367.346297872 L 520 304.868170213 L 526 340.250042553 L 532 424.771914894 L 538 413.113787234 L 545 434.215659574 L 551 418.777531915 L 557 423.499404255 L 563 414.361276596 L 570 410.683148936 L 576 428.425021277 L 582 427.686893617 L 588 420.648765957 L 595 428.730638298 L 601 415.392510638 L 607 433.974382979 L 613 410.976255319 L 620 415.69812766"/>
		</g>
		<text class="x-axis-label" x="40.0" y="540">
			0
		</text>
		<path class="x-notch" d="M 71.1827956989 525 L 71.1827956989 530"/>
		<text class="x-axis-label" x="102.365591398" y="540">
			10
		</text>
		<path class="x-notch" d="M 133.548387097 525 L 133.548387097 530"/>
		<text class="x-axis-label" x="164.731182796" y="540">
			20
		</text>
		<path class="x-notch" d="M 195.913978495 525 L 195.913978495 530"/>
		<text class="x-axis-label" x="227.096774194" y="540">
			30
		</text>
		<path class="x-notch" d="M 258.279569892 525 L 258.279569892 530"/>
		<text class="x-axis-label" x="289.462365591" y="540">
			40
		</text>
		<path class="x-notch" d="M 320.64516129 525 L 320.64516129 530"/>
		<text class="x-axis-label" x="351.827956989" y="540">
			50
		</text>
		<path class="x-notch" d="M 383.010752688 525 L 383.010752688 530"/>
		<text class="x-axis-label" x="414.193548387" y="540">
			60
		</text>
		<path class="x-notch" d="M 445.376344086 525 L 445.376344086 530"/>
		<text class="x-axis-label" x="476.559139785" y="540">
			70
		</text>
		<path class="x-notch" d="M 507.741935484 525 L 507.741935484 530"/>
		<text class="x-axis-label" x="538.924731183" y="540">
			80
		</text>
		<path class="x-notch" d="M 570.107526882 525 L 570.107526882 530"/>
		<text class="x-axis-label" x="601.290322581" y="540">
			90
		</text>
		<path class="x-notch" d="M 632.47311828 525 L 632.47311828 530"/>
	</g>
</svg>
