<?xml version="1.0" ?>
<svg height="600" version="1.1" width="800" xmlns="http://www.w3.org/2000/svg" xmlns:svg="http://www.w3.org/2000/svg">
	<style type="text/css">
		

.x-axis-path, .y-gridline, .x-notch { fill:none; stroke: #a7a9ac; stroke-width:1; }



.y-gridline { stroke-width: 1; }

.y-axis-path, .y-axis-path2, .x-notch-left, .x-notch-right { display: none;}



.x-axis-label, .data-point-label {font-size: 12px; font-weight:normal; font-family: sans-serif; fill: #58595b; text-anchor:middle;}

.y-axis-label {font-size: 12px; font-family: helvetica; fill: #a7a9ac; text-anchor:end;}



.series-1-line { fill: none; stroke: #10b80c; stroke-width:2; }



.series-2-line { fill: none; stroke: #e90f0a; stroke-width: 2;}

	</style>
	<rect fill="white" height="600" width="800" x="0" y="0"/>
	<g id="grid" transform="translate(70, 30)">
		<g class="x-axis" id="x_axis">
			<path class="x-axis-path" d="M 0 525 L 660 525"/>
			<path class="x-notch-left" d="M 0 525, L 0 535"/>
			<path class="x-notch-right" d="M 660 525, L 660 535"/>
		</g>
		<g class="y-axis" id="y_axis">
			<path class="y-axis-path" d="M 0 525 L 0 0"/>
			<path class="y-axis-path-2" d="M 660 525 L 660 0"/>
			<path class="y-gridline" d="M 0 525 L 660 525"/>
			<text class="y-axis-label" x="-5" y="525">
				-300
			</text>
			<path class="y-gridline" d="M 0 420 L 660 420"/>
			<text class="y-axis-label" x="-5" y="420">
				 0
			</text>
			<path class="y-gridline" d="M 0 315 L 660 315"/>
			<text class="y-axis-label" x="-5" y="315">
				300
			</text>
			<path class="y-gridline" d="M 0 210 L 660 210"/>
			<text class="y-axis-label" x="-5" y="210">
				600
			</text>
			<path class="y-gridline" d="M 0 105 L 660 105"/>
			<text class="y-axis-label" x="-5" y="105">
				900
			</text>
			<path class="y-gridline" d="M 0 0 L 660 0"/>
			<text class="y-axis-label" x="-5" y="0">
				1200
			</text>
		</g>
		<g>
			<path class="series-1-line" d="M 40 412.190436 L 48 409.598714959 L 56 427.665953918 L 64 425.594332877 L 72 420.839751836 L 80 408.968410795 L 88 419.389129753 L 96 401.927168712 L 104 406.245707671 L 112 387.10514663 L 120 407.092625589 L 128 372.301044548 L 136 366.397203507 L 144 340.580182466 L 152 320.048581425 L 160 306.498640384 L 168 292.302879342 L 176 269.079218301 L 185 253.38461726 L 193 249.509096219 L 201 219.913335178 L 209 245.052674137 L 217 206.339133096 L 225 193.749592055 L 233 161.901231014 L 241 182.507929973 L 249 193.305948932 L 257 243.07912789 L 265 216.956206849 L 273 234.817365808 L 281 205.347464767 L 289 216.468603726 L 297 258.613742685 L 305 135.064821644 L 313 35.4958006027 L 321 107.705239562 L 330 219.456558521 L 338 222.545337479 L 346 309.087136438 L 354 243.898755397 L 362 222.164134356 L 370 291.223713315 L 378 296.566072274 L 386 341.089671233 L 394 337.403150192 L 402 360.917649151 L 410 339.87448811 L 418 358.120787068 L 426 341.430646027 L 434 333.516684986 L 442 357.470923945 L 450 369.399722904 L 458 369.266681863 L 466 388.967300822 L 475 392.172979781 L 483 392.47995874 L 491 394.509917699 L 499 403.450416658 L 507 399.458555616 L 515 405.149934575 L 523 428.574833534 L 531 415.761432493 L 539 412.639811452 L 547 419.192750411 L 555 394.63166937 L 563 415.471888329 L 571 407.863407288 L 579 415.188026247 L 587 424.388645205 L 595 412.508344164 L 603 423.835983123 L 611 417.367102082 L 620 428.066141041"/>
			<path class="series-2-line" d="M 40 412.51 L 48 424.503013699 L 56 435.096027397 L 64 406.839041096 L 72 414.982054795 L 80 414.025068493 L 88 388.918082192 L 96 427.51109589 L 104 439.854109589 L 112 439.947123288 L 120 423.940136986 L 128 449.583150685 L 136 404.876164384 L 144 450.119178082 L 152 448.812191781 L 160 409.355205479 L 168 402.448219178 L 176 425.291232877 L 185 406.484246575 L 193 372.977260274 L 201 366.070273973 L 209 406.413287671 L 217 415.95630137 L 225 390.499315068 L 233 380.092328767 L 241 363.035342466 L 249 374.678356164 L 257 339.421369863 L 265 309.414383562 L 273 352.20739726 L 281 366.650410959 L 289 382.493424658 L 297 363.336438356 L 305 298.329452055 L 313 273.572465753 L 321 273.665479452 L 330 357.058493151 L 338 342.801506849 L 346 372.994520548 L 354 335.637534247 L 362 289.880547945 L 370 303.623561644 L 378 388.416575342 L 386 394.109589041 L 394 413.10260274 L 402 406.545616438 L 410 403.138630137 L 418 372.081643836 L 426 413.124657534 L 434 381.717671233 L 442 374.810684932 L 450 387.50369863 L 458 370.796712329 L 466 385.939726027 L 475 394.432739726 L 483 404.675753425 L 491 405.468767123 L 499 433.911780822 L 507 432.254794521 L 515 421.497808219 L 523 428.940821918 L 531 452.133835616 L 539 423.876849315 L 547 415.219863014 L 555 414.612876712 L 563 415.755890411 L 571 418.64890411 L 579 398.791917808 L 587 413.934931507 L 595 414.377945205 L 603 438.970958904 L 611 427.863972603 L 620 413.956986301"/>
		</g>
		<text class="x-axis-label" x="40.0" y="540">
			0
		</text>
		<path class="x-notch" d="M 80.2777777778 525 L 80.2777777778 530"/>
		<text class="x-axis-label" x="120.555555556" y="540">
			10
		</text>
		<path class="x-notch" d="M 160.833333333 525 L 160.833333333 530"/>
		<text class="x-axis-label" x="201.111111111" y="540">
			20
		</text>
		<path class="x-notch" d="M 241.388888889 525 L 241.388888889 530"/>
		<text class="x-axis-label" x="281.666666667" y="540">
			30
		</text>
		<path class="x-notch" d="M 321.944444444 525 L 321.944444444 530"/>
		<text class="x-axis-label" x="362.222222222" y="540">
			40
		</text>
		<path class="x-notch" d="M 402.5 525 L 402.5 530"/>
		<text class="x-axis-label" x="442.777777778" y="540">
			50
		</text>
		<path class="x-notch" d="M 483.055555556 525 L 483.055555556 530"/>
		<text class="x-axis-label" x="523.333333333" y="540">
			60
		</text>
		<path class="x-notch" d="M 563.611111111 525 L 563.611111111 530"/>
		<text class="x-axis-label" x="603.888888889" y="540">
			70
		</text>
		<path class="x-notch" d="M 644.166666667 525 L 644.166666667 530"/>
	</g>
</svg>
