<?xml version="1.0" ?>
<svg height="600" version="1.1" width="800" xmlns="http://www.w3.org/2000/svg" xmlns:svg="http://www.w3.org/2000/svg">
	<style type="text/css">

.x-axis-path, .y-gridline, .x-notch { fill:none; stroke: #a7a9ac; stroke-width:1; }



.y-gridline { stroke-width: 1; }

.y-axis-path, .y-axis-path2, .x-notch-left, .x-notch-right { display: none;}



.x-axis-label, .data-point-label {font-size: 12px; font-weight:normal; font-family: sans-serif; fill: #58595b; text-anchor:middle;}

.y-axis-label {font-size: 12px; font-family: helvetica; fill: #a7a9ac; text-anchor:end;}



.series-1-line { fill: none; stroke: #10b80c; stroke-width:2; }



.series-2-line { fill: none; stroke: #e90f0a; stroke-width: 2;}
</style>
	<rect fill="white" height="600" width="800" x="0" y="0"/>
	<g id="grid" transform="translate(70, 30)">
		<g class="x-axis" id="x_axis">
			<path class="x-axis-path" d="M 0 525 L 660 525"/>
			<path class="x-notch-left" d="M 0 525, L 0 535"/>
			<path class="x-notch-right" d="M 660 525, L 660 535"/>
		</g>
		<g class="y-axis" id="y_axis">
			<path class="y-axis-path" d="M 0 525 L 0 0"/>
			<path class="y-axis-path-2" d="M 660 525 L 660 0"/>
			<path class="y-gridline" d="M 0 525 L 660 525"/>
			<text class="y-axis-label" x="-5" y="525">-200</text>
			<path class="y-gridline" d="M 0 394 L 660 394"/>
			<text class="y-axis-label" x="-5" y="394"> 0</text>
			<path class="y-gridline" d="M 0 263 L 660 263"/>
			<text class="y-axis-label" x="-5" y="263">200</text>
			<path class="y-gridline" d="M 0 132 L 660 132"/>
			<text class="y-axis-label" x="-5" y="132">400</text>
			<path class="y-gridline" d="M 0 1 L 660 1"/>
			<text class="y-axis-label" x="-5" y="1">600</text>
		</g>
		<g>
			<path class="series-1-line" d="M 40 378.944635362 L 44 396.72885712 L 49 404.62541323 L 54 388.011895799 L 59 399.78712696 L 63 402.809613452 L 68 397.666321598 L 73 396.439920304 L 78 392.649099172 L 82 388.258772255 L 87 373.074355602 L 92 398.271589809 L 97 394.034323964 L 101 381.439804153 L 106 394.516352986 L 111 387.676053718 L 116 383.744910018 L 120 387.813546049 L 125 377.592368533 L 130 367.791959687 L 135 367.471584401 L 139 358.589940066 L 144 338.863251984 L 149 354.300404609 L 154 337.278259895 L 158 327.274035004 L 163 329.684078169 L 168 308.438920751 L 173 269.688672074 L 177 240.048244222 L 182 273.015766072 L 187 231.101193695 L 192 212.408115689 L 196 187.322697768 L 201 182.20488292 L 206 185.865289745 L 211 171.841669156 L 215 149.129394491 L 220 196.131561755 L 225 182.809952091 L 230 113.961806024 L 234 118.591135216 L 239 105.346354647 L 244 65.0010065784 L 249 114.733592292 L 253 63.8624592029 L 258 85.5384925929 L 263 23.6306410984 L 268 0.0 L 272 17.9886349198 L 277 24.5325212681 L 282 74.4309065571 L 287 80.8981628497 L 291 38.3842837258 L 296 34.950737789 L 301 82.4885192857 L 306 9.0726247841 L 310 68.5531506944 L 315 85.891126778 L 320 19.0072976437 L 325 96.3633265881 L 330 94.9966027238 L 334 110.063542613 L 339 135.146329334 L 344 160.77766783 L 349 191.295416369 L 353 226.368174839 L 358 239.036693505 L 363 205.989512321 L 368 245.298221036 L 372 227.357709889 L 377 231.770882612 L 382 279.424305829 L 387 290.701541147 L 391 295.498063187 L 396 303.789512883 L 401 312.349267292 L 406 314.772048959 L 410 357.194127364 L 415 412.962175877 L 420 394.970710718 L 425 384.404797472 L 429 372.15541147 L 434 381.200025141 L 439 394.378282957 L 444 399.123253869 L 448 389.846118831 L 453 378.311283219 L 458 386.807544154 L 463 387.558795412 L 467 366.135298956 L 472 392.774173404 L 477 385.42353787 L 482 388.969497209 L 486 380.661881655 L 491 386.708170239 L 496 397.041562119 L 501 396.823094855 L 505 400.470763178 L 510 389.981679026 L 515 393.10607354 L 520 390.029802798 L 524 396.229152455 L 529 395.181687316 L 534 400.309410428 L 539 398.113489649 L 543 378.335648518 L 548 399.246177508 L 553 402.523832133 L 558 379.377851257 L 562 383.050996586 L 567 401.652074833 L 572 391.53280534 L 577 408.692044306 L 581 396.659013813 L 586 396.147162907 L 591 389.932244509 L 596 384.737998644 L 600 394.075995956 L 605 384.314001657 L 610 391.164209189 L 615 396.202563743 L 620 403.971336747"/>
			<path class="series-2-line" d="M 40 401.811083776 L 44 372.772411014 L 49 392.000721357 L 54 392.320316668 L 59 408.065442663 L 63 411.370624559 L 68 407.709437759 L 73 394.593893444 L 78 393.420695464 L 82 408.170625931 L 87 418.442176522 L 92 397.365067983 L 97 407.636618574 L 101 401.985040718 L 106 408.773406962 L 111 398.145851466 L 116 399.460642306 L 120 394.804259978 L 125 407.066201625 L 130 392.457864018 L 135 393.275057094 L 139 390.609065822 L 144 391.426258897 L 149 418.1185357 L 154 385.099080825 L 158 402.337000112 L 163 404.149388716 L 168 389.541051109 L 173 388.865450892 L 177 383.711470801 L 182 373.083915305 L 187 361.461164281 L 192 375.713496984 L 196 378.023483352 L 201 370.38151444 L 206 371.198707516 L 211 355.595174381 L 215 356.412367457 L 220 329.861683514 L 225 340.630831869 L 230 377.772661715 L 234 304.945385722 L 239 342.584813332 L 244 319.019715973 L 249 293.464227558 L 253 301.24778933 L 258 305.548166753 L 263 288.451840326 L 268 316.139312657 L 272 313.473321385 L 277 310.807330112 L 282 278.783070766 L 287 268.653113034 L 291 292.359803253 L 296 293.674594093 L 301 241.746424187 L 306 273.414678629 L 310 260.299134314 L 315 262.111522917 L 320 245.01519649 L 325 257.277138137 L 330 246.649582642 L 334 253.437948885 L 339 269.680672644 L 344 277.96183218 L 349 261.363103516 L 353 252.228341313 L 358 283.896595755 L 363 266.800269328 L 368 256.670311596 L 372 250.521135976 L 377 250.343133524 L 382 277.53300809 L 387 254.465508495 L 391 311.013651137 L 396 268.539838746 L 401 261.893065363 L 406 261.71506291 L 410 270.49382021 L 415 293.205314901 L 420 295.017703504 L 425 283.394952481 L 429 340.440692886 L 434 335.784310558 L 439 307.243235559 L 444 313.534004039 L 448 314.351197114 L 453 376.372915159 L 458 399.08440985 L 463 387.959256591 L 467 401.216393766 L 472 368.694536655 L 477 360.057372215 L 482 398.194397589 L 486 383.586059982 L 491 380.92006871 L 496 388.703630481 L 501 373.59769511 L 505 376.405279242 L 510 391.652807473 L 515 379.034860921 L 520 382.837640581 L 524 375.693269433 L 529 392.93118872 L 534 397.729163908 L 539 400.039150275 L 543 389.41159478 L 548 396.697558787 L 553 399.007545155 L 558 409.279095746 L 562 408.105897766 L 567 406.932699786 L 572 403.271512986 L 577 394.136750782 L 581 397.939530442 L 586 389.799963766 L 591 398.081123302 L 596 402.381500725 L 600 390.758749702 L 605 389.585551722 L 610 397.369113493 L 615 396.693513277 L 620 397.013108589"/>
		</g>
		<text class="x-axis-label" x="40.0" y="540">0</text>
		<path class="x-notch" d="M 63.7704918033 525 L 63.7704918033 530"/>
		<text class="x-axis-label" x="87.5409836066" y="540">10</text>
		<path class="x-notch" d="M 111.31147541 525 L 111.31147541 530"/>
		<text class="x-axis-label" x="135.081967213" y="540">20</text>
		<path class="x-notch" d="M 158.852459016 525 L 158.852459016 530"/>
		<text class="x-axis-label" x="182.62295082" y="540">30</text>
		<path class="x-notch" d="M 206.393442623 525 L 206.393442623 530"/>
		<text class="x-axis-label" x="230.163934426" y="540">40</text>
		<path class="x-notch" d="M 253.93442623 525 L 253.93442623 530"/>
		<text class="x-axis-label" x="277.704918033" y="540">50</text>
		<path class="x-notch" d="M 301.475409836 525 L 301.475409836 530"/>
		<text class="x-axis-label" x="325.245901639" y="540">60</text>
		<path class="x-notch" d="M 349.016393443 525 L 349.016393443 530"/>
		<text class="x-axis-label" x="372.786885246" y="540">70</text>
		<path class="x-notch" d="M 396.557377049 525 L 396.557377049 530"/>
		<text class="x-axis-label" x="420.327868852" y="540">80</text>
		<path class="x-notch" d="M 444.098360656 525 L 444.098360656 530"/>
		<text class="x-axis-label" x="467.868852459" y="540">90</text>
		<path class="x-notch" d="M 491.639344262 525 L 491.639344262 530"/>
		<text class="x-axis-label" x="515.409836066" y="540">100</text>
		<path class="x-notch" d="M 539.180327869 525 L 539.180327869 530"/>
		<text class="x-axis-label" x="562.950819672" y="540">110</text>
		<path class="x-notch" d="M 586.721311475 525 L 586.721311475 530"/>
		<text class="x-axis-label" x="610.491803279" y="540">120</text>
		<path class="x-notch" d="M 634.262295082 525 L 634.262295082 530"/>
	</g>
</svg>
