<?xml version="1.0" ?>
<svg height="600" version="1.1" width="800" xmlns="http://www.w3.org/2000/svg" xmlns:svg="http://www.w3.org/2000/svg">
	<style type="text/css">
		

.x-axis-path, .y-gridline, .x-notch { fill:none; stroke: #a7a9ac; stroke-width:1; }



.y-gridline { stroke-width: 1; }

.y-axis-path, .y-axis-path2, .x-notch-left, .x-notch-right { display: none;}



.x-axis-label, .data-point-label {font-size: 12px; font-weight:normal; font-family: sans-serif; fill: #58595b; text-anchor:middle;}

.y-axis-label {font-size: 12px; font-family: helvetica; fill: #a7a9ac; text-anchor:end;}



.series-1-line { fill: none; stroke: #10b80c; stroke-width:2; }



.series-2-line { fill: none; stroke: #e90f0a; stroke-width: 2;}

	</style>
	<rect fill="white" height="600" width="800" x="0" y="0"/>
	<g id="grid" transform="translate(70, 30)">
		<g class="x-axis" id="x_axis">
			<path class="x-axis-path" d="M 0 525 L 660 525"/>
			<path class="x-notch-left" d="M 0 525, L 0 535"/>
			<path class="x-notch-right" d="M 660 525, L 660 535"/>
		</g>
		<g class="y-axis" id="y_axis">
			<path class="y-axis-path" d="M 0 525 L 0 0"/>
			<path class="y-axis-path-2" d="M 660 525 L 660 0"/>
			<path class="y-gridline" d="M 0 525 L 660 525"/>
			<text class="y-axis-label" x="-5" y="525">
				-200
			</text>
			<path class="y-gridline" d="M 0 420 L 660 420"/>
			<text class="y-axis-label" x="-5" y="420">
				 0
			</text>
			<path class="y-gridline" d="M 0 315 L 660 315"/>
			<text class="y-axis-label" x="-5" y="315">
				200
			</text>
			<path class="y-gridline" d="M 0 210 L 660 210"/>
			<text class="y-axis-label" x="-5" y="210">
				400
			</text>
			<path class="y-gridline" d="M 0 105 L 660 105"/>
			<text class="y-axis-label" x="-5" y="105">
				600
			</text>
			<path class="y-gridline" d="M 0 0 L 660 0"/>
			<text class="y-axis-label" x="-5" y="0">
				800
			</text>
		</g>
		<g>
			<path class="series-1-line" d="M 40 430.435446 L 46 437.208588821 L 52 410.866411642 L 58 405.416714463 L 64 409.632267284 L 70 433.986190105 L 77 428.213302926 L 83 376.617365747 L 89 391.965648568 L 95 388.306201389 L 101 406.710194211 L 107 388.714047032 L 114 291.887469853 L 120 304.785682674 L 126 269.720315495 L 132 294.127998316 L 138 264.555181137 L 144 184.057153958 L 151 207.213236779 L 157 261.2227296 L 163 193.513072421 L 169 158.367065242 L 175 120.273078063 L 181 149.271360884 L 188 188.594503705 L 194 183.575516526 L 200 129.179649347 L 206 118.655092168 L 212 107.107204989 L 218 120.799637811 L 225 79.7711106316 L 231 80.8095734526 L 237 107.263706274 L 243 69.6004290947 L 249 126.585201916 L 255 90.1602947368 L 262 56.7646375579 L 268 120.978030379 L 274 64.9263132 L 280 63.8649860211 L 286 69.4940488421 L 292 36.2594616632 L 299 63.2381744842 L 305 91.6849973053 L 311 63.9832801263 L 317 102.175572947 L 323 157.168075768 L 330 168.787388589 L 336 221.168331411 L 342 209.849554232 L 348 280.013297053 L 354 244.247789874 L 360 289.575042695 L 367 289.402015516 L 373 320.136788337 L 379 331.998441158 L 385 279.217893979 L 391 302.5755768 L 397 353.973929621 L 404 347.689692442 L 410 347.368615263 L 416 386.974418084 L 422 363.432380905 L 428 378.969033726 L 434 395.286676547 L 441 423.383009368 L 447 409.290972189 L 453 424.612375011 L 459 422.904877832 L 465 422.516600653 L 471 433.018713474 L 478 438.257386295 L 484 432.955529116 L 490 433.576931937 L 496 431.142414758 L 502 432.235057579 L 508 434.4043704 L 515 431.996943221 L 521 419.022106042 L 527 428.743438863 L 533 425.770481684 L 539 425.220714505 L 545 426.218857326 L 552 426.571040147 L 558 426.303932968 L 564 426.655905789 L 570 423.104188611 L 576 427.454351432 L 582 431.494974253 L 589 411.022087074 L 595 420.353029895 L 601 421.580072716 L 607 427.491795537 L 613 420.143908358 L 620 420.092051179"/>
			<path class="series-2-line" d="M 40 425.985 L 46 415.436368421 L 52 411.187736842 L 58 423.739105263 L 64 423.165473684 L 70 413.666842105 L 77 415.193210526 L 83 419.344578947 L 89 422.445947368 L 95 421.872315789 L 101 419.198684211 L 107 402.875052632 L 114 419.626421053 L 120 415.902789474 L 126 400.629157895 L 132 382.730526316 L 138 391.081894737 L 144 378.958263158 L 151 392.559631579 L 157 363.636 L 163 342.587368421 L 169 339.913736842 L 175 346.690105263 L 181 349.791473684 L 188 339.242842105 L 194 346.019210526 L 200 356.995578947 L 206 383.196947368 L 212 384.723315789 L 218 379.949684211 L 225 394.076052632 L 231 377.227421053 L 237 388.203789474 L 243 389.205157895 L 249 387.581526316 L 255 379.657894737 L 262 411.109263158 L 268 387.435631579 L 274 390.537 L 280 394.163368421 L 286 398.314736842 L 292 384.091105263 L 299 354.117473684 L 305 402.368842105 L 311 405.470210526 L 317 387.046578947 L 323 389.097947368 L 330 380.124315789 L 336 380.075684211 L 342 407.327052632 L 348 417.778421053 L 354 388.854789474 L 360 404.031157895 L 367 391.907526316 L 373 390.283894737 L 379 384.460263158 L 385 389.136631579 L 391 371.238 L 397 381.164368421 L 404 401.065736842 L 410 391.567105263 L 416 377.868473684 L 422 387.269842105 L 428 381.446210526 L 434 397.147578947 L 441 397.623947368 L 447 407.025315789 L 453 414.326684211 L 459 416.378052632 L 465 417.379421053 L 471 418.905789474 L 478 422.532157895 L 484 411.983526316 L 490 419.284894737 L 496 411.886263158 L 502 427.587631579 L 508 418.614 L 515 427.490368421 L 521 426.391736842 L 527 426.868105263 L 533 421.569473684 L 539 427.295842105 L 545 416.747210526 L 552 425.098578947 L 558 427.674947368 L 564 415.551315789 L 570 418.652684211 L 576 417.554052632 L 582 423.805421053 L 589 425.331789474 L 595 425.283157895 L 601 419.984526316 L 607 420.985894737 L 613 422.512263158 L 620 411.963631579"/>
		</g>
		<text class="x-axis-label" x="40.0" y="540">
			0
		</text>
		<path class="x-notch" d="M 70.8510638298 525 L 70.8510638298 530"/>
		<text class="x-axis-label" x="101.70212766" y="540">
			10
		</text>
		<path class="x-notch" d="M 132.553191489 525 L 132.553191489 530"/>
		<text class="x-axis-label" x="163.404255319" y="540">
			20
		</text>
		<path class="x-notch" d="M 194.255319149 525 L 194.255319149 530"/>
		<text class="x-axis-label" x="225.106382979" y="540">
			30
		</text>
		<path class="x-notch" d="M 255.957446809 525 L 255.957446809 530"/>
		<text class="x-axis-label" x="286.808510638" y="540">
			40
		</text>
		<path class="x-notch" d="M 317.659574468 525 L 317.659574468 530"/>
		<text class="x-axis-label" x="348.510638298" y="540">
			50
		</text>
		<path class="x-notch" d="M 379.361702128 525 L 379.361702128 530"/>
		<text class="x-axis-label" x="410.212765957" y="540">
			60
		</text>
		<path class="x-notch" d="M 441.063829787 525 L 441.063829787 530"/>
		<text class="x-axis-label" x="471.914893617" y="540">
			70
		</text>
		<path class="x-notch" d="M 502.765957447 525 L 502.765957447 530"/>
		<text class="x-axis-label" x="533.617021277" y="540">
			80
		</text>
		<path class="x-notch" d="M 564.468085106 525 L 564.468085106 530"/>
		<text class="x-axis-label" x="595.319148936" y="540">
			90
		</text>
		<path class="x-notch" d="M 626.170212766 525 L 626.170212766 530"/>
	</g>
</svg>
