<?xml version="1.0" ?>
<svg height="600" version="1.1" width="800" xmlns="http://www.w3.org/2000/svg" xmlns:svg="http://www.w3.org/2000/svg">
	<style type="text/css">
		

.x-axis-path, .y-gridline, .x-notch { fill:none; stroke: #a7a9ac; stroke-width:1; }



.y-gridline { stroke-width: 1; }

.y-axis-path, .y-axis-path2, .x-notch-left, .x-notch-right { display: none;}



.x-axis-label, .data-point-label {font-size: 12px; font-weight:normal; font-family: sans-serif; fill: #58595b; text-anchor:middle;}

.y-axis-label {font-size: 12px; font-family: helvetica; fill: #a7a9ac; text-anchor:end;}



.series-1-line { fill: none; stroke: #10b80c; stroke-width:2; }



.series-2-line { fill: none; stroke: #e90f0a; stroke-width: 2;}

	</style>
	<rect fill="white" height="600" width="800" x="0" y="0"/>
	<g id="grid" transform="translate(70, 30)">
		<g class="x-axis" id="x_axis">
			<path class="x-axis-path" d="M 0 525 L 660 525"/>
			<path class="x-notch-left" d="M 0 525, L 0 535"/>
			<path class="x-notch-right" d="M 660 525, L 660 535"/>
		</g>
		<g class="y-axis" id="y_axis">
			<path class="y-axis-path" d="M 0 525 L 0 0"/>
			<path class="y-axis-path-2" d="M 660 525 L 660 0"/>
			<path class="y-gridline" d="M 0 525 L 660 525"/>
			<text class="y-axis-label" x="-5" y="525">
				-100
			</text>
			<path class="y-gridline" d="M 0 438 L 660 438"/>
			<text class="y-axis-label" x="-5" y="438">
				 0
			</text>
			<path class="y-gridline" d="M 0 351 L 660 351"/>
			<text class="y-axis-label" x="-5" y="351">
				100
			</text>
			<path class="y-gridline" d="M 0 264 L 660 264"/>
			<text class="y-axis-label" x="-5" y="264">
				200
			</text>
			<path class="y-gridline" d="M 0 177 L 660 177"/>
			<text class="y-axis-label" x="-5" y="177">
				300
			</text>
			<path class="y-gridline" d="M 0 90 L 660 90"/>
			<text class="y-axis-label" x="-5" y="90">
				400
			</text>
			<path class="y-gridline" d="M 0 3 L 660 3"/>
			<text class="y-axis-label" x="-5" y="3">
				500
			</text>
		</g>
		<g>
			<path class="series-1-line" d="M 40 414.75007 L 44 458.8423795 L 48 426.091839 L 52 447.2773485 L 56 438.802458 L 60 431.8980175 L 65 444.198777 L 69 432.5829865 L 73 412.127246 L 77 422.2069055 L 81 439.914815 L 85 435.6353745 L 90 436.179634 L 94 412.5381935 L 98 446.152903 L 102 436.4890625 L 106 410.267422 L 110 418.3051815 L 115 436.461791 L 119 389.8236005 L 123 405.96071 L 127 435.2903695 L 131 395.921329 L 135 421.2574885 L 140 406.343298 L 144 388.7596575 L 148 397.178917 L 152 393.8416765 L 156 409.283686 L 161 381.7159455 L 165 370.144955 L 169 371.8781645 L 173 369.797774 L 177 301.3290335 L 181 278.652543 L 186 258.2188525 L 190 197.378712 L 194 240.7531715 L 198 224.784781 L 202 169.5085905 L 206 158.83465 L 211 140.4656095 L 215 92.548519 L 219 113.6440785 L 223 86.928588 L 227 61.3127975 L 231 75.857057 L 236 65.2058665 L 240 52.176426 L 244 53.8875855 L 248 40.992895 L 252 20.5595545 L 256 78.898264 L 261 73.6094235 L 265 83.263133 L 269 78.5570425 L 273 96.085052 L 277 139.9313115 L 282 139.173921 L 286 197.5805305 L 290 207.03194 L 294 250.3832995 L 298 259.991509 L 302 219.8377685 L 307 265.837578 L 311 326.8016375 L 315 378.163097 L 319 392.8428065 L 323 380.553616 L 327 414.1907255 L 332 412.671385 L 336 425.7571945 L 340 441.917754 L 344 425.1188135 L 348 407.781923 L 352 459.7940325 L 357 431.732442 L 361 440.8916015 L 365 451.127711 L 369 421.8327205 L 373 446.02438 L 377 421.0595895 L 382 437.130899 L 386 439.9634585 L 390 448.987868 L 394 443.0259775 L 398 430.243637 L 403 428.3189965 L 407 439.116156 L 411 406.2994655 L 415 429.054725 L 419 461.7268845 L 423 406.518594 L 428 463.2872035 L 432 441.911663 L 436 443.4649725 L 440 440.935882 L 444 435.0649915 L 448 446.984601 L 453 431.8016105 L 457 412.28842 L 461 423.2430795 L 465 417.999039 L 469 403.2867985 L 473 426.267108 L 478 439.8243675 L 482 430.025777 L 486 415.6502365 L 490 434.165946 L 494 429.6845555 L 498 436.757715 L 503 435.1032745 L 507 440.157284 L 511 433.8138935 L 515 420.335753 L 519 438.0884625 L 524 430.488572 L 528 449.8789315 L 532 421.234241 L 536 424.1567505 L 540 429.41271 L 544 444.2712695 L 549 433.126579 L 553 438.9208385 L 557 441.192698 L 561 421.4327575 L 565 426.778317 L 569 447.9186765 L 574 443.594436 L 578 417.3055955 L 582 419.083955 L 586 420.9743145 L 590 444.784824 L 594 438.2170835 L 599 428.059393 L 603 431.9468525 L 607 441.645012 L 611 420.9201215 L 615 449.195231 L 620 446.3966405"/>
			<path class="series-2-line" d="M 40 444.325 L 44 432.00125 L 48 429.3025 L 52 441.47875 L 56 439.655 L 60 431.70625 L 65 430.7575 L 69 441.18375 L 73 431.485 L 77 435.78625 L 81 444.4625 L 85 436.51375 L 90 426.815 L 94 436.36625 L 98 420.5425 L 102 433.59375 L 106 436.145 L 110 417.69625 L 115 424.6225 L 119 438.54875 L 123 419.225 L 127 423.52625 L 131 429.5775 L 135 442.62875 L 140 421.555 L 144 441.60625 L 148 431.9075 L 152 413.45875 L 156 434.385 L 161 442.18625 L 165 445.6125 L 169 421.03875 L 173 445.465 L 177 418.26625 L 181 447.9425 L 186 400.61875 L 190 411.92 L 194 409.22125 L 198 416.1475 L 202 412.57375 L 206 378.375 L 211 384.42625 L 215 393.1025 L 219 385.15375 L 223 362.33 L 227 372.75625 L 231 363.0575 L 236 359.48375 L 240 351.535 L 244 364.58625 L 248 369.7625 L 252 356.56375 L 256 305.74 L 261 318.79125 L 265 355.4675 L 269 311.64375 L 273 280.07 L 277 340.37125 L 282 294.7975 L 286 301.72375 L 290 301.65 L 294 234.20125 L 298 209.6275 L 302 269.92875 L 307 301.355 L 311 284.65625 L 315 264.4575 L 319 336.13375 L 323 315.06 L 327 295.73625 L 332 335.0375 L 336 313.96375 L 340 393.515 L 344 359.31625 L 348 374.9925 L 352 355.66875 L 357 338.095 L 361 281.14625 L 365 226.8225 L 369 265.24875 L 373 252.05 L 377 297.47625 L 382 425.1525 L 386 399.70375 L 390 329.63 L 394 345.30625 L 398 367.1075 L 403 264.65875 L 407 225.21 L 411 335.38625 L 415 273.1875 L 419 233.73875 L 423 287.915 L 428 277.34125 L 432 274.6425 L 436 209.81875 L 440 235.995 L 444 374.17125 L 448 398.5975 L 453 419.52375 L 457 433.45 L 461 437.75125 L 465 443.8025 L 469 425.35375 L 473 430.53 L 478 438.33125 L 482 438.2575 L 486 435.55875 L 490 454.735 L 494 444.16125 L 498 439.7125 L 503 431.76375 L 507 435.19 L 511 442.11625 L 515 435.9175 L 519 437.59375 L 524 435.77 L 528 420.82125 L 532 425.9975 L 536 420.67375 L 540 426.725 L 544 436.27625 L 549 441.4525 L 553 431.75375 L 557 425.555 L 561 443.85625 L 565 435.9075 L 569 420.95875 L 574 420.01 L 578 433.06125 L 582 435.6125 L 586 420.66375 L 590 432.84 L 594 440.64125 L 599 428.3175 L 603 443.11875 L 607 438.67 L 611 436.84625 L 615 435.0225 L 620 434.94875"/>
		</g>
		<text class="x-axis-label" x="40.0" y="540">
			0
		</text>
		<path class="x-notch" d="M 60.8633093525 525 L 60.8633093525 530"/>
		<text class="x-axis-label" x="81.726618705" y="540">
			10
		</text>
		<path class="x-notch" d="M 102.589928058 525 L 102.589928058 530"/>
		<text class="x-axis-label" x="123.45323741" y="540">
			20
		</text>
		<path class="x-notch" d="M 144.316546763 525 L 144.316546763 530"/>
		<text class="x-axis-label" x="165.179856115" y="540">
			30
		</text>
		<path class="x-notch" d="M 186.043165468 525 L 186.043165468 530"/>
		<text class="x-axis-label" x="206.90647482" y="540">
			40
		</text>
		<path class="x-notch" d="M 227.769784173 525 L 227.769784173 530"/>
		<text class="x-axis-label" x="248.633093525" y="540">
			50
		</text>
		<path class="x-notch" d="M 269.496402878 525 L 269.496402878 530"/>
		<text class="x-axis-label" x="290.35971223" y="540">
			60
		</text>
		<path class="x-notch" d="M 311.223021583 525 L 311.223021583 530"/>
		<text class="x-axis-label" x="332.086330935" y="540">
			70
		</text>
		<path class="x-notch" d="M 352.949640288 525 L 352.949640288 530"/>
		<text class="x-axis-label" x="373.81294964" y="540">
			80
		</text>
		<path class="x-notch" d="M 394.676258993 525 L 394.676258993 530"/>
		<text class="x-axis-label" x="415.539568345" y="540">
			90
		</text>
		<path class="x-notch" d="M 436.402877698 525 L 436.402877698 530"/>
		<text class="x-axis-label" x="457.26618705" y="540">
			100
		</text>
		<path class="x-notch" d="M 478.129496403 525 L 478.129496403 530"/>
		<text class="x-axis-label" x="498.992805755" y="540">
			110
		</text>
		<path class="x-notch" d="M 519.856115108 525 L 519.856115108 530"/>
		<text class="x-axis-label" x="540.71942446" y="540">
			120
		</text>
		<path class="x-notch" d="M 561.582733813 525 L 561.582733813 530"/>
		<text class="x-axis-label" x="582.446043165" y="540">
			130
		</text>
		<path class="x-notch" d="M 603.309352518 525 L 603.309352518 530"/>
	</g>
</svg>
