<?xml version="1.0" ?>
<svg height="600" version="1.1" width="800" xmlns="http://www.w3.org/2000/svg" xmlns:svg="http://www.w3.org/2000/svg">
	<style type="text/css">
		

.x-axis-path, .y-gridline, .x-notch { fill:none; stroke: #a7a9ac; stroke-width:1; }



.y-gridline { stroke-width: 1; }

.y-axis-path, .y-axis-path2, .x-notch-left, .x-notch-right { display: none;}



.x-axis-label, .data-point-label {font-size: 12px; font-weight:normal; font-family: sans-serif; fill: #58595b; text-anchor:middle;}

.y-axis-label {font-size: 12px; font-family: helvetica; fill: #a7a9ac; text-anchor:end;}



.series-1-line { fill: none; stroke: #10b80c; stroke-width:2; }



.series-2-line { fill: none; stroke: #e90f0a; stroke-width: 2;}

	</style>
	<rect fill="white" height="600" width="800" x="0" y="0"/>
	<g id="grid" transform="translate(70, 30)">
		<g class="x-axis" id="x_axis">
			<path class="x-axis-path" d="M 0 525 L 660 525"/>
			<path class="x-notch-left" d="M 0 525, L 0 535"/>
			<path class="x-notch-right" d="M 660 525, L 660 535"/>
		</g>
		<g class="y-axis" id="y_axis">
			<path class="y-axis-path" d="M 0 525 L 0 0"/>
			<path class="y-axis-path-2" d="M 660 525 L 660 0"/>
			<path class="y-gridline" d="M 0 525 L 660 525"/>
			<text class="y-axis-label" x="-5" y="525">
				-200
			</text>
			<path class="y-gridline" d="M 0 394 L 660 394"/>
			<text class="y-axis-label" x="-5" y="394">
				 0
			</text>
			<path class="y-gridline" d="M 0 263 L 660 263"/>
			<text class="y-axis-label" x="-5" y="263">
				200
			</text>
			<path class="y-gridline" d="M 0 132 L 660 132"/>
			<text class="y-axis-label" x="-5" y="132">
				400
			</text>
			<path class="y-gridline" d="M 0 1 L 660 1"/>
			<text class="y-axis-label" x="-5" y="1">
				600
			</text>
		</g>
		<g>
			<path class="series-1-line" d="M 40 402.959174321 L 46 385.627409854 L 52 381.181707649 L 59 391.682418688 L 65 405.866313139 L 72 396.125254091 L 78 387.046385288 L 85 374.806957063 L 91 386.06562278 L 98 392.093052189 L 104 361.544463433 L 110 360.26931346 L 117 346.375408906 L 123 331.509536983 L 130 329.156329301 L 136 323.418889789 L 143 306.161571761 L 149 291.434932998 L 156 286.925276805 L 162 262.248130418 L 168 278.353975425 L 175 208.784127769 L 181 226.405715586 L 188 188.821355488 L 194 169.546655563 L 201 151.574351942 L 207 179.968022954 L 214 121.575800054 L 220 108.984125258 L 226 105.894280894 L 233 10.8938962879 L 239 0.0 L 246 132.806049951 L 252 135.086341962 L 259 252.870866043 L 265 239.788377704 L 272 234.210989707 L 278 183.911111314 L 284 191.241436669 L 291 277.681178893 L 297 251.135710032 L 304 316.927807515 L 310 313.389619052 L 317 324.850972276 L 323 284.031772866 L 330 309.233573651 L 336 287.919840738 L 342 315.064410435 L 349 304.351883659 L 355 222.856615926 L 362 267.317893523 L 368 315.259833572 L 375 294.010054646 L 381 319.841402494 L 388 262.014106482 L 394 364.73563453 L 400 393.343484781 L 407 382.566004736 L 413 382.006839636 L 420 396.180408183 L 426 391.147628359 L 433 382.292431965 L 439 373.544491736 L 446 407.116603708 L 452 399.072823528 L 458 415.840525686 L 465 406.355782228 L 471 384.08090749 L 478 400.635096597 L 484 397.534260141 L 491 393.910633148 L 497 381.714174009 L 504 382.595805639 L 510 401.466661318 L 516 389.825136257 L 523 402.877344916 L 529 392.592010788 L 536 398.106975565 L 542 394.89954913 L 549 405.987504334 L 555 388.880078464 L 562 391.715304552 L 568 399.952810554 L 574 389.966094915 L 581 399.110948113 L 587 389.209671004 L 594 398.173154691 L 600 384.076229537 L 607 400.42756459 L 613 396.825255593 L 620 391.397260113"/>
			<path class="series-2-line" d="M 40 392.584172106 L 46 394.321932837 L 52 399.390630408 L 59 394.882884563 L 65 384.129632141 L 72 387.116494188 L 78 416.750850958 L 85 403.499395906 L 91 394.411611905 L 98 389.487498955 L 104 407.047209679 L 110 388.382982261 L 117 405.942692985 L 123 380.200224781 L 130 383.603453932 L 136 395.334025184 L 143 369.175189875 L 149 386.734900599 L 156 401.796408692 L 162 380.217611539 L 168 394.446385422 L 175 393.685943522 L 181 382.516323996 L 188 377.175843941 L 194 389.739149403 L 201 393.975112765 L 207 374.894518242 L 214 351.650252668 L 220 344.644304193 L 226 349.296634659 L 233 337.294280922 L 239 357.768561381 L 246 369.915499739 L 252 381.229703887 L 259 365.896413309 L 265 386.787060874 L 272 389.77392292 L 278 354.455011299 L 284 389.918507541 L 291 392.905369587 L 297 370.493838224 L 304 363.071522643 L 310 372.72025837 L 317 348.226891481 L 323 344.135512741 L 330 352.118780048 L 336 374.258528927 L 342 355.177934405 L 349 363.577568817 L 355 339.500569033 L 362 330.829152137 L 368 347.55612865 L 375 359.703067008 L 381 334.376965909 L 388 222.862874061 L 394 300.379447914 L 400 345.419387573 L 407 266.38192992 L 413 314.752806419 L 420 338.141656613 L 426 353.619531811 L 433 332.040734658 L 439 358.760521693 L 446 392.558549515 L 452 374.310689202 L 458 382.710323614 L 465 394.440894867 L 471 387.851313496 L 478 397.083682118 L 484 370.924846809 L 491 377.659012801 L 497 390.222318264 L 504 392.3764461 L 510 397.445143671 L 516 388.35735967 L 523 375.522271723 L 529 398.494754813 L 536 392.321540547 L 542 382.817389441 L 549 384.138783067 L 555 399.616658265 L 562 389.279772949 L 568 396.846673151 L 574 389.42435757 L 581 385.33297883 L 587 380.825232985 L 594 388.808500291 L 600 389.297159707 L 607 397.696794119 L 613 401.10002327 L 620 397.00864453"/>
		</g>
		<text class="x-axis-label" x="40.0" y="540">
			0
		</text>
		<path class="x-notch" d="M 72.2222222222 525 L 72.2222222222 530"/>
		<text class="x-axis-label" x="104.444444444" y="540">
			10
		</text>
		<path class="x-notch" d="M 136.666666667 525 L 136.666666667 530"/>
		<text class="x-axis-label" x="168.888888889" y="540">
			20
		</text>
		<path class="x-notch" d="M 201.111111111 525 L 201.111111111 530"/>
		<text class="x-axis-label" x="233.333333333" y="540">
			30
		</text>
		<path class="x-notch" d="M 265.555555556 525 L 265.555555556 530"/>
		<text class="x-axis-label" x="297.777777778" y="540">
			40
		</text>
		<path class="x-notch" d="M 330.0 525 L 330.0 530"/>
		<text class="x-axis-label" x="362.222222222" y="540">
			50
		</text>
		<path class="x-notch" d="M 394.444444444 525 L 394.444444444 530"/>
		<text class="x-axis-label" x="426.666666667" y="540">
			60
		</text>
		<path class="x-notch" d="M 458.888888889 525 L 458.888888889 530"/>
		<text class="x-axis-label" x="491.111111111" y="540">
			70
		</text>
		<path class="x-notch" d="M 523.333333333 525 L 523.333333333 530"/>
		<text class="x-axis-label" x="555.555555556" y="540">
			80
		</text>
		<path class="x-notch" d="M 587.777777778 525 L 587.777777778 530"/>
		<text class="x-axis-label" x="620.0" y="540">
			90
		</text>
	</g>
</svg>
