<?xml version="1.0" ?>
<svg height="600" version="1.1" width="800" xmlns="http://www.w3.org/2000/svg" xmlns:svg="http://www.w3.org/2000/svg">
	<style type="text/css">
		

.x-axis-path, .y-gridline, .x-notch { fill:none; stroke: #a7a9ac; stroke-width:1; }



.y-gridline { stroke-width: 1; }

.y-axis-path, .y-axis-path2, .x-notch-left, .x-notch-right { display: none;}



.x-axis-label, .data-point-label {font-size: 12px; font-weight:normal; font-family: sans-serif; fill: #58595b; text-anchor:middle;}

.y-axis-label {font-size: 12px; font-family: helvetica; fill: #a7a9ac; text-anchor:end;}



.series-1-line { fill: none; stroke: #10b80c; stroke-width:2; }



.series-2-line { fill: none; stroke: #e90f0a; stroke-width: 2;}

	</style>
	<rect fill="white" height="600" width="800" x="0" y="0"/>
	<g id="grid" transform="translate(70, 30)">
		<g class="x-axis" id="x_axis">
			<path class="x-axis-path" d="M 0 525 L 660 525"/>
			<path class="x-notch-left" d="M 0 525, L 0 535"/>
			<path class="x-notch-right" d="M 660 525, L 660 535"/>
		</g>
		<g class="y-axis" id="y_axis">
			<path class="y-axis-path" d="M 0 525 L 0 0"/>
			<path class="y-axis-path-2" d="M 660 525 L 660 0"/>
			<path class="y-gridline" d="M 0 525 L 660 525"/>
			<text class="y-axis-label" x="-5" y="525">
				-300
			</text>
			<path class="y-gridline" d="M 0 420 L 660 420"/>
			<text class="y-axis-label" x="-5" y="420">
				 0
			</text>
			<path class="y-gridline" d="M 0 315 L 660 315"/>
			<text class="y-axis-label" x="-5" y="315">
				300
			</text>
			<path class="y-gridline" d="M 0 210 L 660 210"/>
			<text class="y-axis-label" x="-5" y="210">
				600
			</text>
			<path class="y-gridline" d="M 0 105 L 660 105"/>
			<text class="y-axis-label" x="-5" y="105">
				900
			</text>
			<path class="y-gridline" d="M 0 0 L 660 0"/>
			<text class="y-axis-label" x="-5" y="0">
				1200
			</text>
		</g>
		<g>
			<path class="series-1-line" d="M 40 418.783950196 L 42 417.318839296 L 44 445.805656129 L 47 407.627617879 L 49 411.302741591 L 52 432.865237253 L 54 427.103963893 L 56 437.492848477 L 59 424.947871606 L 61 406.135521694 L 64 441.92310489 L 66 413.744300544 L 69 431.175420066 L 71 390.297449509 L 73 440.333922708 L 76 426.12167447 L 78 421.605087114 L 81 417.252553694 L 83 414.824724493 L 86 427.138313296 L 88 411.119274605 L 90 434.043271464 L 93 419.479112883 L 95 430.994403514 L 98 431.853145919 L 100 432.852139793 L 103 395.120123182 L 105 416.541634993 L 107 430.404947589 L 110 444.431947929 L 112 437.990290162 L 115 386.032453634 L 117 432.266390949 L 120 413.876260208 L 122 399.875670843 L 124 425.029409708 L 127 410.043398149 L 129 423.507195466 L 132 428.309457607 L 134 434.120944411 L 137 411.341272295 L 139 425.063601039 L 141 417.119092033 L 144 417.038918605 L 146 423.554592284 L 149 416.502492749 L 151 426.046206607 L 154 403.454757088 L 156 404.101474428 L 158 429.959766359 L 161 420.466265944 L 163 405.667744598 L 166 408.638681435 L 168 422.314137626 L 171 394.135699471 L 173 397.55302414 L 175 409.537772686 L 178 406.452629164 L 180 395.574557469 L 183 384.86053971 L 185 408.981251444 L 188 410.94332981 L 190 427.787077649 L 192 413.45838041 L 195 385.655288874 L 197 372.523306511 L 200 393.710455555 L 202 370.883544694 L 205 419.957665784 L 207 403.58635056 L 209 394.420958018 L 212 391.124888006 L 214 412.006633071 L 217 376.598103574 L 219 415.531274525 L 222 368.338692183 L 224 388.210846393 L 226 388.3888382 L 229 410.819574673 L 231 382.382971284 L 234 359.697044274 L 236 383.606829518 L 238 398.620350628 L 241 387.999345592 L 243 399.327878393 L 246 385.186671367 L 248 364.02629949 L 251 363.875451041 L 253 406.30648628 L 255 411.930116679 L 258 358.540836317 L 260 362.967019457 L 263 355.327914431 L 265 360.905038468 L 268 358.617826927 L 270 371.189947157 L 272 331.720350349 L 275 285.161646051 L 277 305.338838049 L 280 390.257279487 L 282 355.693554524 L 285 334.041387029 L 287 343.701916078 L 289 341.016287834 L 292 328.353397196 L 294 346.253974634 L 297 327.019039359 L 299 301.140652041 L 302 332.373907542 L 304 341.801172401 L 306 314.349625014 L 309 337.649334682 L 311 257.711147193 L 314 254.414710989 L 316 307.642912113 L 319 324.487026143 L 321 245.159280423 L 323 285.547697676 L 326 319.856232102 L 328 316.677343474 L 331 292.043275968 L 333 312.5727445 L 336 321.74111174 L 338 285.83968805 L 340 269.820649359 L 343 311.734255554 L 345 344.705091252 L 348 328.47475988 L 350 307.995870984 L 353 311.130861757 L 355 274.408436002 L 357 289.444294813 L 360 272.956164398 L 362 285.997742544 L 365 318.146111409 L 367 285.319600452 L 370 290.685065616 L 372 330.064258208 L 374 286.814829409 L 377 308.119526028 L 379 344.166006843 L 382 295.729104688 L 384 249.944896094 L 387 219.324690867 L 389 292.60006331 L 391 263.388231833 L 394 235.79679917 L 396 318.555441238 L 399 246.856203563 L 401 278.559649364 L 404 293.525565537 L 406 270.37018061 L 408 336.110423923 L 411 306.148265402 L 413 252.14817708 L 416 302.794725855 L 418 269.592868281 L 421 293.31479712 L 423 264.080261749 L 425 282.755334892 L 428 210.0 L 430 297.382912403 L 433 287.677753114 L 435 292.339763788 L 437 311.460126186 L 440 224.855782762 L 442 314.420832234 L 445 280.209749997 L 447 272.171495884 L 450 341.550221145 L 452 365.906028029 L 454 356.764437955 L 457 298.375906833 L 459 350.594517103 L 462 349.22315131 L 464 386.559725915 L 467 386.433046127 L 469 356.422916476 L 471 355.614021322 L 474 366.213832396 L 476 380.241198928 L 479 399.29381584 L 481 426.420962436 L 484 429.95583468 L 486 413.560716987 L 488 400.311553242 L 491 440.112965004 L 493 427.169205238 L 496 404.48364442 L 498 408.792646177 L 501 441.6459343 L 503 424.617670947 L 505 467.541234187 L 508 446.123063267 L 510 445.713683391 L 513 445.656580049 L 515 437.17303668 L 518 451.904223895 L 520 411.965901554 L 522 410.429749441 L 525 431.992245103 L 527 445.996175359 L 530 446.690131444 L 532 434.121718296 L 535 420.403096634 L 537 445.768128181 L 539 459.795494713 L 542 456.404947211 L 544 420.175049456 L 547 427.888170394 L 549 439.07498696 L 552 442.539184182 L 554 439.242747978 L 556 455.077637345 L 559 445.325971696 L 561 442.498993408 L 564 449.883640282 L 566 439.403985289 L 569 444.675705346 L 571 435.017784803 L 573 457.918345385 L 576 441.147514883 L 578 448.461852926 L 581 419.508552875 L 583 458.840506721 L 586 450.239049586 L 588 450.863063033 L 590 399.914817359 L 593 437.862199925 L 595 442.452803193 L 598 448.099869868 L 600 452.972440839 L 603 436.436705487 L 605 422.600902442 L 607 433.904900391 L 610 377.83949019 L 612 418.086923592 L 615 401.645299539 L 617 443.301472882 L 620 457.86860616"/>
			<path class="series-2-line" d="M 40 409.746628972 L 42 437.276625023 L 44 397.976613479 L 47 440.154282427 L 49 415.501943781 L 52 421.060430486 L 54 404.647407844 L 56 403.797537656 L 59 410.271503917 L 61 430.477663519 L 64 430.543272888 L 66 412.299291134 L 69 419.688736951 L 71 418.838866763 L 73 445.453383258 L 76 390.590219261 L 78 430.021449541 L 81 443.81925225 L 83 442.969382062 L 86 427.471838977 L 88 440.35416213 L 90 447.743607947 L 93 412.105514628 L 95 378.298380421 L 98 400.335499135 L 100 364.697405816 L 103 408.706033876 L 105 400.53232724 L 107 428.977802847 L 110 396.086148196 L 112 414.461348686 L 115 392.555448708 L 117 441.141474549 L 120 431.1368088 L 122 414.723786158 L 124 395.564324849 L 127 425.840759568 L 129 409.427736926 L 132 423.225539636 L 134 422.375669448 L 137 418.779360592 L 139 433.492642858 L 141 400.600988206 L 144 426.300025145 L 146 422.703716289 L 149 429.17768255 L 151 417.342057689 L 154 455.857808413 L 156 403.741083084 L 158 417.538885793 L 161 412.111617825 L 163 413.092706749 L 166 391.186806771 L 168 413.223925486 L 171 430.68364642 L 173 446.312408241 L 175 410.674314922 L 178 405.247046954 L 180 437.354440785 L 183 443.828407046 L 185 407.27483417 L 188 435.720309777 L 190 391.842900453 L 192 426.696732953 L 195 421.269464984 L 197 412.180278792 L 200 440.625754399 L 202 408.649579304 L 205 442.587932247 L 207 438.991623391 L 209 382.297500282 L 212 409.827496333 L 214 414.470503481 L 217 417.282551518 L 219 426.502956447 L 222 411.005413361 L 224 394.59239072 L 226 415.714029878 L 229 392.892650344 L 231 414.929769059 L 234 396.685787305 L 236 393.089478449 L 238 420.6194745 L 241 341.038362488 L 243 407.933979451 L 246 413.492466155 L 248 371.446015943 L 251 372.427104868 L 253 407.280937367 L 255 400.022710287 L 258 422.975308557 L 260 388.252694794 L 263 379.163508601 L 265 414.932820657 L 268 392.111441123 L 270 407.740202945 L 272 401.39745542 L 275 394.13922834 L 277 365.824971469 L 280 377.791815066 L 282 355.885915088 L 285 426.443450276 L 287 360.594531605 L 289 400.025761885 L 292 353.401913893 L 294 358.960400598 L 297 373.673682863 L 299 353.598741997 L 302 314.298730454 L 304 392.18010209 L 306 331.824060756 L 309 352.030220358 L 311 374.982818628 L 314 366.809111992 L 316 323.847182224 L 319 315.673475587 L 321 350.527308087 L 323 346.930999231 L 326 327.771537921 L 328 336.99194285 L 331 337.057552218 L 333 325.221927357 L 336 336.273291398 L 338 344.578216771 L 340 357.460539925 L 343 294.358059923 L 345 305.409423964 L 348 315.545308449 L 350 345.821743168 L 353 298.28241562 L 355 363.347073471 L 357 280.104043234 L 360 330.521028188 L 362 344.318830897 L 365 269.315116666 L 367 262.056889585 L 370 259.376060285 L 372 270.427424326 L 374 210.986862549 L 377 256.826449721 L 379 323.722066684 L 382 288.083973365 L 384 267.093552943 L 387 236.94833696 L 389 244.337782777 L 391 208.699689458 L 394 241.722562845 L 396 233.548856209 L 399 220.797751791 L 401 251.074186511 L 404 214.520613635 L 406 198.107590994 L 408 202.750598142 L 411 248.590185315 L 413 223.937846669 L 416 226.749894705 L 418 242.378656527 L 421 232.373990778 L 423 271.805221058 L 425 263.631514422 L 428 272.851919351 L 430 257.354376265 L 433 213.476966941 L 435 284.949981685 L 437 207.199828785 L 440 270.433527524 L 442 164.303508385 L 445 194.579943104 L 447 176.335961351 L 450 184.640886724 L 452 182.87553698 L 454 158.223198333 L 457 247.090324642 L 459 183.072365084 L 462 195.954688238 L 464 168.555910923 L 467 237.282486998 L 469 183.334802557 L 471 108.331088326 L 474 74.5239541184 L 476 77.3360021548 L 479 260.497522741 L 481 397.885065523 L 484 430.907938911 L 486 395.269845591 L 488 404.490250521 L 491 385.330789211 L 493 418.353662598 L 496 435.813383532 L 498 419.400360891 L 501 413.057613366 L 503 440.587609417 L 505 434.244861893 L 508 432.479512149 L 510 402.334296166 L 513 388.667712193 L 515 440.000176702 L 518 404.362083383 L 520 471.257700346 L 522 438.366045694 L 525 443.924532399 L 527 450.39849866 L 530 426.66163957 L 532 436.797524055 L 535 447.848888096 L 537 431.435865455 L 539 434.247913491 L 542 405.018177065 L 544 428.886254891 L 547 452.754332718 L 549 434.510350964 L 552 442.815276337 L 554 434.6415697 L 556 441.115535961 L 559 440.265665773 L 561 430.261000025 L 564 469.692230305 L 566 439.547014322 L 569 451.513857919 L 571 436.016314834 L 573 447.067678875 L 576 398.61287177 L 578 449.029856724 L 581 444.518068311 L 583 427.189566114 L 586 425.42421637 L 588 448.37681464 L 590 447.526944452 L 593 467.733104055 L 595 443.080765408 L 598 432.160620103 L 600 434.97266814 L 603 421.306084167 L 605 450.66703933 L 607 414.113466454 L 610 426.080310052 L 612 408.751807854 L 615 416.141253671 L 617 429.023576825 L 620 419.018911076"/>
		</g>
		<text class="x-axis-label" x="40.0" y="540">
			0
		</text>
		<path class="x-notch" d="M 52.1338912134 525 L 52.1338912134 530"/>
		<text class="x-axis-label" x="64.2677824268" y="540">
			10
		</text>
		<path class="x-notch" d="M 76.4016736402 525 L 76.4016736402 530"/>
		<text class="x-axis-label" x="88.5355648536" y="540">
			20
		</text>
		<path class="x-notch" d="M 100.669456067 525 L 100.669456067 530"/>
		<text class="x-axis-label" x="112.80334728" y="540">
			30
		</text>
		<path class="x-notch" d="M 124.937238494 525 L 124.937238494 530"/>
		<text class="x-axis-label" x="137.071129707" y="540">
			40
		</text>
		<path class="x-notch" d="M 149.205020921 525 L 149.205020921 530"/>
		<text class="x-axis-label" x="161.338912134" y="540">
			50
		</text>
		<path class="x-notch" d="M 173.472803347 525 L 173.472803347 530"/>
		<text class="x-axis-label" x="185.606694561" y="540">
			60
		</text>
		<path class="x-notch" d="M 197.740585774 525 L 197.740585774 530"/>
		<text class="x-axis-label" x="209.874476987" y="540">
			70
		</text>
		<path class="x-notch" d="M 222.008368201 525 L 222.008368201 530"/>
		<text class="x-axis-label" x="234.142259414" y="540">
			80
		</text>
		<path class="x-notch" d="M 246.276150628 525 L 246.276150628 530"/>
		<text class="x-axis-label" x="258.410041841" y="540">
			90
		</text>
		<path class="x-notch" d="M 270.543933054 525 L 270.543933054 530"/>
		<text class="x-axis-label" x="282.677824268" y="540">
			100
		</text>
		<path class="x-notch" d="M 294.811715481 525 L 294.811715481 530"/>
		<text class="x-axis-label" x="306.945606695" y="540">
			110
		</text>
		<path class="x-notch" d="M 319.079497908 525 L 319.079497908 530"/>
		<text class="x-axis-label" x="331.213389121" y="540">
			120
		</text>
		<path class="x-notch" d="M 343.347280335 525 L 343.347280335 530"/>
		<text class="x-axis-label" x="355.481171548" y="540">
			130
		</text>
		<path class="x-notch" d="M 367.615062762 525 L 367.615062762 530"/>
		<text class="x-axis-label" x="379.748953975" y="540">
			140
		</text>
		<path class="x-notch" d="M 391.882845188 525 L 391.882845188 530"/>
		<text class="x-axis-label" x="404.016736402" y="540">
			150
		</text>
		<path class="x-notch" d="M 416.150627615 525 L 416.150627615 530"/>
		<text class="x-axis-label" x="428.284518828" y="540">
			160
		</text>
		<path class="x-notch" d="M 440.418410042 525 L 440.418410042 530"/>
		<text class="x-axis-label" x="452.552301255" y="540">
			170
		</text>
		<path class="x-notch" d="M 464.686192469 525 L 464.686192469 530"/>
		<text class="x-axis-label" x="476.820083682" y="540">
			180
		</text>
		<path class="x-notch" d="M 488.953974895 525 L 488.953974895 530"/>
		<text class="x-axis-label" x="501.087866109" y="540">
			190
		</text>
		<path class="x-notch" d="M 513.221757322 525 L 513.221757322 530"/>
		<text class="x-axis-label" x="525.355648536" y="540">
			200
		</text>
		<path class="x-notch" d="M 537.489539749 525 L 537.489539749 530"/>
		<text class="x-axis-label" x="549.623430962" y="540">
			210
		</text>
		<path class="x-notch" d="M 561.757322176 525 L 561.757322176 530"/>
		<text class="x-axis-label" x="573.891213389" y="540">
			220
		</text>
		<path class="x-notch" d="M 586.025104603 525 L 586.025104603 530"/>
		<text class="x-axis-label" x="598.158995816" y="540">
			230
		</text>
		<path class="x-notch" d="M 610.292887029 525 L 610.292887029 530"/>
	</g>
</svg>
