<?xml version="1.0" ?>
<svg height="600" version="1.1" width="800" xmlns="http://www.w3.org/2000/svg" xmlns:svg="http://www.w3.org/2000/svg">
	<style type="text/css">
		

.x-axis-path, .y-gridline, .x-notch { fill:none; stroke: #a7a9ac; stroke-width:1; }



.y-gridline { stroke-width: 1; }

.y-axis-path, .y-axis-path2, .x-notch-left, .x-notch-right { display: none;}



.x-axis-label, .data-point-label {font-size: 12px; font-weight:normal; font-family: sans-serif; fill: #58595b; text-anchor:middle;}

.y-axis-label {font-size: 12px; font-family: helvetica; fill: #a7a9ac; text-anchor:end;}



.series-1-line { fill: none; stroke: #10b80c; stroke-width:2; }



.series-2-line { fill: none; stroke: #e90f0a; stroke-width: 2;}

	</style>
	<rect fill="white" height="600" width="800" x="0" y="0"/>
	<g id="grid" transform="translate(70, 30)">
		<g class="x-axis" id="x_axis">
			<path class="x-axis-path" d="M 0 525 L 660 525"/>
			<path class="x-notch-left" d="M 0 525, L 0 535"/>
			<path class="x-notch-right" d="M 660 525, L 660 535"/>
		</g>
		<g class="y-axis" id="y_axis">
			<path class="y-axis-path" d="M 0 525 L 0 0"/>
			<path class="y-axis-path-2" d="M 660 525 L 660 0"/>
			<path class="y-gridline" d="M 0 525 L 660 525"/>
			<text class="y-axis-label" x="-5" y="525">
				-100
			</text>
			<path class="y-gridline" d="M 0 450 L 660 450"/>
			<text class="y-axis-label" x="-5" y="450">
				 0
			</text>
			<path class="y-gridline" d="M 0 375 L 660 375"/>
			<text class="y-axis-label" x="-5" y="375">
				100
			</text>
			<path class="y-gridline" d="M 0 300 L 660 300"/>
			<text class="y-axis-label" x="-5" y="300">
				200
			</text>
			<path class="y-gridline" d="M 0 225 L 660 225"/>
			<text class="y-axis-label" x="-5" y="225">
				300
			</text>
			<path class="y-gridline" d="M 0 150 L 660 150"/>
			<text class="y-axis-label" x="-5" y="150">
				400
			</text>
			<path class="y-gridline" d="M 0 75 L 660 75"/>
			<text class="y-axis-label" x="-5" y="75">
				500
			</text>
			<path class="y-gridline" d="M 0 0 L 660 0"/>
			<text class="y-axis-label" x="-5" y="0">
				600
			</text>
		</g>
		<g>
			<path class="series-1-line" d="M 40 442.34622 L 46 449.793931648 L 52 465.241743297 L 59 431.419954945 L 65 456.637266593 L 72 436.892678242 L 78 464.26338989 L 85 421.788101538 L 91 425.178313187 L 98 400.318424835 L 104 353.573836484 L 110 401.906148132 L 117 366.91165978 L 123 336.301671429 L 130 331.114883077 L 136 327.254994725 L 143 281.818106374 L 149 282.515818022 L 156 193.34822967 L 162 203.872741319 L 168 175.647452967 L 175 129.229864615 L 181 157.004676264 L 188 194.260087912 L 194 200.01549956 L 201 132.366911209 L 207 46.2569228571 L 214 164.050934505 L 220 115.960246154 L 226 120.061757802 L 233 60.1633694505 L 239 144.168981099 L 246 130.808692747 L 252 99.1607043956 L 259 151.512416044 L 265 140.633127692 L 272 171.503939341 L 278 138.951750989 L 284 212.110862637 L 291 150.654874286 L 297 167.890985934 L 304 200.800297582 L 310 206.940309231 L 317 203.772820879 L 323 227.009232527 L 330 227.341244176 L 336 264.943155824 L 342 264.621767473 L 349 328.069279121 L 355 277.901690769 L 362 346.157002418 L 368 332.278014066 L 375 325.418125714 L 381 346.750137363 L 388 310.140449011 L 394 380.049660659 L 400 339.170672308 L 407 350.906583956 L 413 363.181295604 L 420 375.956107253 L 426 395.307818901 L 433 408.313330549 L 439 386.838042198 L 446 406.670353846 L 452 407.810265495 L 458 385.354277143 L 465 391.840488791 L 471 398.90360044 L 478 406.332112088 L 484 421.530023736 L 491 434.900635385 L 497 406.021647033 L 504 403.642558681 L 510 415.59027033 L 516 432.556981978 L 523 426.120393626 L 529 446.145005275 L 536 440.381316923 L 542 441.406028571 L 549 454.69984022 L 555 440.416751868 L 562 450.518563516 L 568 456.427875165 L 574 460.106386813 L 581 441.246498462 L 587 454.17491011 L 594 453.295821758 L 600 455.512733407 L 607 456.095245055 L 613 441.966056703 L 620 449.971468352"/>
			<path class="series-2-line" d="M 40 456.45 L 46 451.742307692 L 52 456.784615385 L 59 425.826923077 L 65 457.119230769 L 72 453.161538462 L 78 440.953846154 L 85 443.746153846 L 91 457.788461538 L 98 462.080769231 L 104 458.123076923 L 110 451.915384615 L 117 457.707692308 L 123 452.25 L 130 458.792307692 L 136 463.084615385 L 143 459.876923077 L 149 455.169230769 L 156 458.711538462 L 162 442.003846154 L 168 444.796153846 L 175 448.338461538 L 181 460.880769231 L 188 456.923076923 L 194 452.965384615 L 201 434.007692308 L 207 428.55 L 214 438.092307692 L 220 439.384615385 L 226 430.176923077 L 233 430.719230769 L 239 446.261538462 L 246 411.553846154 L 252 451.096153846 L 259 461.388461538 L 265 449.180769231 L 272 446.723076923 L 278 451.765384615 L 284 433.557692308 L 291 443.1 L 297 432.392307692 L 304 433.684615385 L 310 428.226923077 L 317 441.519230769 L 323 460.061538462 L 330 424.603846154 L 336 454.396153846 L 342 462.438461538 L 349 438.230769231 L 355 441.773076923 L 362 428.065384615 L 368 445.107692308 L 375 449.4 L 381 413.942307692 L 388 437.734615385 L 394 429.276923077 L 400 446.319230769 L 407 416.111538462 L 413 418.903846154 L 420 431.446153846 L 426 441.738461538 L 433 447.530769231 L 439 450.323076923 L 446 444.115384615 L 452 428.907692308 L 458 438.45 L 465 437.492307692 L 471 434.284615385 L 478 432.576923077 L 484 447.369230769 L 491 425.411538462 L 497 442.453846154 L 504 449.746153846 L 510 445.038461538 L 516 417.830769231 L 523 443.873076923 L 529 436.915384615 L 536 445.707692308 L 542 448.5 L 549 438.542307692 L 555 430.834615385 L 562 450.876923077 L 568 452.169230769 L 574 450.461538462 L 581 454.753846154 L 587 443.296153846 L 594 450.588461538 L 600 442.880769231 L 607 456.173076923 L 613 453.715384615 L 620 449.757692308"/>
		</g>
		<text class="x-axis-label" x="40.0" y="540">
			0
		</text>
		<path class="x-notch" d="M 72.2222222222 525 L 72.2222222222 530"/>
		<text class="x-axis-label" x="104.444444444" y="540">
			10
		</text>
		<path class="x-notch" d="M 136.666666667 525 L 136.666666667 530"/>
		<text class="x-axis-label" x="168.888888889" y="540">
			20
		</text>
		<path class="x-notch" d="M 201.111111111 525 L 201.111111111 530"/>
		<text class="x-axis-label" x="233.333333333" y="540">
			30
		</text>
		<path class="x-notch" d="M 265.555555556 525 L 265.555555556 530"/>
		<text class="x-axis-label" x="297.777777778" y="540">
			40
		</text>
		<path class="x-notch" d="M 330.0 525 L 330.0 530"/>
		<text class="x-axis-label" x="362.222222222" y="540">
			50
		</text>
		<path class="x-notch" d="M 394.444444444 525 L 394.444444444 530"/>
		<text class="x-axis-label" x="426.666666667" y="540">
			60
		</text>
		<path class="x-notch" d="M 458.888888889 525 L 458.888888889 530"/>
		<text class="x-axis-label" x="491.111111111" y="540">
			70
		</text>
		<path class="x-notch" d="M 523.333333333 525 L 523.333333333 530"/>
		<text class="x-axis-label" x="555.555555556" y="540">
			80
		</text>
		<path class="x-notch" d="M 587.777777778 525 L 587.777777778 530"/>
		<text class="x-axis-label" x="620.0" y="540">
			90
		</text>
	</g>
</svg>
