<?xml version="1.0" ?>
<svg height="600" version="1.1" width="800" xmlns="http://www.w3.org/2000/svg" xmlns:svg="http://www.w3.org/2000/svg">
	<style type="text/css">
		

.x-axis-path, .y-gridline, .x-notch { fill:none; stroke: #a7a9ac; stroke-width:1; }



.y-gridline { stroke-width: 1; }

.y-axis-path, .y-axis-path2, .x-notch-left, .x-notch-right { display: none;}



.x-axis-label, .data-point-label {font-size: 12px; font-weight:normal; font-family: sans-serif; fill: #58595b; text-anchor:middle;}

.y-axis-label {font-size: 12px; font-family: helvetica; fill: #a7a9ac; text-anchor:end;}



.series-1-line { fill: none; stroke: #10b80c; stroke-width:2; }



.series-2-line { fill: none; stroke: #e90f0a; stroke-width: 2;}

	</style>
	<rect fill="white" height="600" width="800" x="0" y="0"/>
	<g id="grid" transform="translate(70, 30)">
		<g class="x-axis" id="x_axis">
			<path class="x-axis-path" d="M 0 525 L 660 525"/>
			<path class="x-notch-left" d="M 0 525, L 0 535"/>
			<path class="x-notch-right" d="M 660 525, L 660 535"/>
		</g>
		<g class="y-axis" id="y_axis">
			<path class="y-axis-path" d="M 0 525 L 0 0"/>
			<path class="y-axis-path-2" d="M 660 525 L 660 0"/>
			<path class="y-gridline" d="M 0 525 L 660 525"/>
			<text class="y-axis-label" x="-5" y="525">
				-200
			</text>
			<path class="y-gridline" d="M 0 394 L 660 394"/>
			<text class="y-axis-label" x="-5" y="394">
				 0
			</text>
			<path class="y-gridline" d="M 0 263 L 660 263"/>
			<text class="y-axis-label" x="-5" y="263">
				200
			</text>
			<path class="y-gridline" d="M 0 132 L 660 132"/>
			<text class="y-axis-label" x="-5" y="132">
				400
			</text>
			<path class="y-gridline" d="M 0 1 L 660 1"/>
			<text class="y-axis-label" x="-5" y="1">
				600
			</text>
		</g>
		<g>
			<path class="series-1-line" d="M 40 419.234733183 L 46 366.108099542 L 53 412.646819061 L 60 371.238482382 L 66 393.191579558 L 73 404.401572822 L 80 385.004847737 L 86 407.45801393 L 93 406.125356397 L 100 353.273507369 L 106 367.481576144 L 113 324.349307069 L 120 329.837544159 L 126 312.639485734 L 133 178.136850893 L 140 109.220041085 L 146 163.803908369 L 153 206.319859122 L 160 213.332078952 L 166 224.567017202 L 173 248.519221151 L 180 204.037584238 L 186 169.050242873 L 193 126.767272621 L 200 161.712809874 L 206 110.360388366 L 213 142.357740081 L 220 107.620238342 L 226 128.024407791 L 233 45.8154283092 L 240 102.447902572 L 246 94.2943504169 L 253 62.1304696606 L 260 87.8564959767 L 266 58.7655256891 L 273 41.6173572369 L 280 85.3076711609 L 286 56.666490153 L 293 78.8448717347 L 300 82.384281789 L 306 47.1969907708 L 313 17.6063412314 L 320 55.1005544806 L 326 33.2303781228 L 333 35.3206403939 L 340 49.5536541543 L 346 0.0 L 353 23.6025843788 L 360 77.1867033937 L 366 100.814232759 L 373 159.82037835 L 380 128.530741402 L 386 167.948446934 L 393 197.772076974 L 400 168.106592477 L 406 127.347604965 L 413 164.591588823 L 420 140.922645112 L 426 181.639828512 L 433 194.398749503 L 440 186.894936281 L 446 144.911695627 L 453 215.010954466 L 460 187.719141297 L 466 150.208068923 L 473 171.611986641 L 480 174.327042859 L 486 110.906704821 L 493 151.573998248 L 500 137.223955653 L 506 188.809357661 L 513 208.789072582 L 520 200.810525094 L 526 200.252331425 L 533 244.592384282 L 540 323.761484142 L 546 316.532455533 L 553 333.813434776 L 560 418.329336489 L 566 425.941405281 L 573 397.050384647 L 580 404.262554131 L 586 409.550841567 L 593 404.245695006 L 600 382.400463634 L 606 416.346642383 L 613 408.193090228 L 620 367.059538161"/>
			<path class="series-2-line" d="M 40 400.765777326 L 46 381.224357148 L 53 394.812996565 L 60 409.376049498 L 66 382.039321181 L 73 396.602374115 L 80 397.523637804 L 86 406.240209633 L 93 401.314992217 L 100 376.901504453 L 106 379.771595177 L 113 397.257888663 L 120 392.332671247 L 126 392.279521419 L 133 374.686928277 L 140 386.326740658 L 146 398.940966557 L 153 394.015749141 L 160 379.346396551 L 166 390.011795415 L 173 392.881886139 L 180 392.828736311 L 186 393.75 L 193 392.722436654 L 200 390.720459791 L 206 398.462618103 L 213 400.358295309 L 220 400.305145481 L 226 386.610206408 L 233 381.684988993 L 240 378.708598612 L 246 373.783381197 L 253 390.295261165 L 260 382.446803197 L 266 375.572758747 L 273 367.724300779 L 280 369.619977986 L 286 368.59241464 L 293 382.181054056 L 300 377.255836641 L 306 371.356205708 L 313 366.430988292 L 320 384.891695296 L 326 391.65944009 L 333 384.785395639 L 340 383.757832294 L 346 376.883787843 L 353 396.318908364 L 360 374.828661152 L 366 390.366127603 L 373 397.133872397 L 380 391.234241464 L 386 375.590475356 L 393 374.562912011 L 400 381.330656805 L 406 370.558958284 L 413 351.991951624 L 420 373.37589918 L 426 383.066884527 L 433 383.988148216 L 440 391.730306527 L 446 381.933021525 L 453 368.238082452 L 460 384.749962421 L 466 361.310888173 L 473 381.720422212 L 480 391.411407558 L 486 381.614122555 L 493 399.100416041 L 500 372.738101242 L 506 359.043162169 L 513 373.606215103 L 520 379.399546379 L 526 367.653434341 L 533 382.216487275 L 540 397.753953726 L 546 400.62404445 L 553 380.108210756 L 560 397.594504242 L 566 403.387835518 L 573 403.33468569 L 580 395.486227722 L 586 383.740115684 L 593 390.507860478 L 600 393.377951202 L 606 395.273628409 L 613 390.348410994 L 620 400.03939634"/>
		</g>
		<text class="x-axis-label" x="40.0" y="540">
			0
		</text>
		<path class="x-notch" d="M 73.3333333333 525 L 73.3333333333 530"/>
		<text class="x-axis-label" x="106.666666667" y="540">
			10
		</text>
		<path class="x-notch" d="M 140.0 525 L 140.0 530"/>
		<text class="x-axis-label" x="173.333333333" y="540">
			20
		</text>
		<path class="x-notch" d="M 206.666666667 525 L 206.666666667 530"/>
		<text class="x-axis-label" x="240.0" y="540">
			30
		</text>
		<path class="x-notch" d="M 273.333333333 525 L 273.333333333 530"/>
		<text class="x-axis-label" x="306.666666667" y="540">
			40
		</text>
		<path class="x-notch" d="M 340.0 525 L 340.0 530"/>
		<text class="x-axis-label" x="373.333333333" y="540">
			50
		</text>
		<path class="x-notch" d="M 406.666666667 525 L 406.666666667 530"/>
		<text class="x-axis-label" x="440.0" y="540">
			60
		</text>
		<path class="x-notch" d="M 473.333333333 525 L 473.333333333 530"/>
		<text class="x-axis-label" x="506.666666667" y="540">
			70
		</text>
		<path class="x-notch" d="M 540.0 525 L 540.0 530"/>
		<text class="x-axis-label" x="573.333333333" y="540">
			80
		</text>
		<path class="x-notch" d="M 606.666666667 525 L 606.666666667 530"/>
	</g>
</svg>
