<?xml version="1.0" ?>
<svg height="600" version="1.1" width="800" xmlns="http://www.w3.org/2000/svg" xmlns:svg="http://www.w3.org/2000/svg">
	<style type="text/css">
		

.x-axis-path, .y-gridline, .x-notch { fill:none; stroke: #a7a9ac; stroke-width:1; }



.y-gridline { stroke-width: 1; }

.y-axis-path, .y-axis-path2, .x-notch-left, .x-notch-right { display: none;}



.x-axis-label, .data-point-label {font-size: 12px; font-weight:normal; font-family: sans-serif; fill: #58595b; text-anchor:middle;}

.y-axis-label {font-size: 12px; font-family: helvetica; fill: #a7a9ac; text-anchor:end;}



.series-1-line { fill: none; stroke: #10b80c; stroke-width:2; }



.series-2-line { fill: none; stroke: #e90f0a; stroke-width: 2;}

	</style>
	<rect fill="white" height="600" width="800" x="0" y="0"/>
	<g id="grid" transform="translate(70, 30)">
		<g class="x-axis" id="x_axis">
			<path class="x-axis-path" d="M 0 525 L 660 525"/>
			<path class="x-notch-left" d="M 0 525, L 0 535"/>
			<path class="x-notch-right" d="M 660 525, L 660 535"/>
		</g>
		<g class="y-axis" id="y_axis">
			<path class="y-axis-path" d="M 0 525 L 0 0"/>
			<path class="y-axis-path-2" d="M 660 525 L 660 0"/>
			<path class="y-gridline" d="M 0 525 L 660 525"/>
			<text class="y-axis-label" x="-5" y="525">
				-200
			</text>
			<path class="y-gridline" d="M 0 420 L 660 420"/>
			<text class="y-axis-label" x="-5" y="420">
				 0
			</text>
			<path class="y-gridline" d="M 0 315 L 660 315"/>
			<text class="y-axis-label" x="-5" y="315">
				200
			</text>
			<path class="y-gridline" d="M 0 210 L 660 210"/>
			<text class="y-axis-label" x="-5" y="210">
				400
			</text>
			<path class="y-gridline" d="M 0 105 L 660 105"/>
			<text class="y-axis-label" x="-5" y="105">
				600
			</text>
			<path class="y-gridline" d="M 0 0 L 660 0"/>
			<text class="y-axis-label" x="-5" y="0">
				800
			</text>
		</g>
		<g>
			<path class="series-1-line" d="M 40 404.799234 L 45 419.674667236 L 50 432.652120473 L 55 415.098933709 L 61 424.953476945 L 66 414.938450182 L 71 420.458383418 L 77 409.608816655 L 82 415.626869891 L 87 430.165673127 L 93 421.954546364 L 98 409.0589496 L 103 433.922822836 L 109 392.677226073 L 114 399.637549309 L 119 390.403302545 L 125 417.219545782 L 130 405.831539018 L 135 409.156972255 L 141 420.142155491 L 146 401.336948727 L 151 406.466281964 L 157 366.7551552 L 162 339.832818436 L 167 355.448711673 L 173 331.662724909 L 178 266.064898145 L 183 267.048201382 L 188 310.637354618 L 194 274.991827855 L 199 246.009601091 L 204 192.931344327 L 210 205.020077564 L 215 113.9265708 L 220 111.975124036 L 226 112.096587273 L 231 159.616310509 L 236 144.540073745 L 242 135.548376982 L 247 65.9391302182 L 252 64.4051634545 L 258 52.5192466909 L 263 115.560069927 L 268 59.6951131636 L 274 97.7516064 L 279 98.0616496364 L 284 84.6946028727 L 290 105.103116109 L 295 112.615319345 L 300 167.794582582 L 306 177.729765818 L 311 131.624559055 L 316 216.217262291 L 322 202.150495527 L 327 238.900998764 L 332 257.262852 L 337 213.230765236 L 343 248.918038473 L 348 236.385741709 L 353 271.561244945 L 359 300.504158182 L 364 313.037461418 L 369 321.639774655 L 375 330.323147891 L 380 308.179151127 L 385 334.685434364 L 391 296.4823176 L 396 333.003920836 L 401 335.871764073 L 407 341.714467309 L 412 354.853620545 L 417 347.612063782 L 423 362.541047018 L 428 381.777550255 L 433 307.578543491 L 439 381.604046727 L 444 371.037139964 L 449 369.4496232 L 455 408.246576436 L 460 399.079739673 L 465 393.399742909 L 471 409.594606145 L 476 415.747059382 L 481 417.093662618 L 486 419.975155855 L 492 415.290979091 L 497 410.243502327 L 502 417.688295564 L 508 432.5502888 L 513 415.252882036 L 518 430.545585273 L 524 434.436548509 L 529 424.193041745 L 534 432.068544982 L 540 423.709368218 L 545 428.313911455 L 550 418.245124691 L 556 411.905307927 L 561 422.863611164 L 566 422.7160644 L 572 423.322417636 L 577 414.397920873 L 582 423.390834109 L 588 413.752757345 L 593 421.022410582 L 598 414.103833818 L 604 418.385187055 L 609 408.504980291 L 614 432.843853527 L 620 430.394496764"/>
			<path class="series-2-line" d="M 40 420.315 L 45 410.055545455 L 50 409.246090909 L 55 421.036636364 L 61 436.502181818 L 66 418.892727273 L 71 434.883272727 L 77 424.623818182 L 82 444.814363636 L 87 425.629909091 L 93 413.270454545 L 98 415.086 L 103 402.726545455 L 109 404.542090909 L 114 421.057636364 L 119 404.498181818 L 125 435.713727273 L 130 427.554272727 L 135 417.294818182 L 141 420.160363636 L 146 422.500909091 L 151 417.491454545 L 157 405.132 L 162 424.797545455 L 167 421.888090909 L 173 423.178636364 L 178 395.069181818 L 183 402.134727273 L 188 417.075272727 L 194 425.715818182 L 199 418.606363636 L 204 423.571909091 L 210 397.562454545 L 215 415.653 L 220 409.593545455 L 226 387.259090909 L 231 382.774636364 L 236 397.190181818 L 242 404.255727273 L 247 387.696272727 L 252 398.436818182 L 258 406.552363636 L 263 396.817909091 L 268 386.033454545 L 274 404.124 L 279 393.339545455 L 284 366.280090909 L 290 393.820636364 L 295 406.136181818 L 300 394.301727273 L 306 397.167272727 L 311 399.507818182 L 316 385.573363636 L 322 385.813909091 L 327 382.379454545 L 332 360.57 L 337 367.110545455 L 343 386.251090909 L 348 372.316636364 L 353 368.882181818 L 359 375.422727273 L 364 382.488272727 L 369 368.028818182 L 375 381.919363636 L 380 352.234909091 L 385 349.850454545 L 391 368.466 L 396 359.781545455 L 401 359.497090909 L 407 345.562636364 L 412 360.503181818 L 417 381.218727273 L 423 342.084272727 L 428 286.149818182 L 433 330.490363636 L 439 327.055909091 L 444 313.646454545 L 449 353.262 L 455 378.702545455 L 460 372.118090909 L 465 394.933636364 L 471 404.099181818 L 476 403.289727273 L 481 394.605272727 L 486 412.695818182 L 492 402.961363636 L 497 408.976909091 L 502 411.317454545 L 508 403.158 L 513 415.998545455 L 518 402.064090909 L 524 405.979636364 L 529 424.070181818 L 534 420.635727273 L 540 410.901272727 L 545 426.366818182 L 550 417.157363636 L 556 420.022909091 L 561 427.088454545 L 566 426.279 L 572 430.719545455 L 577 427.285090909 L 582 433.825636364 L 588 418.841181818 L 593 407.531727273 L 598 418.797272727 L 604 423.237818182 L 609 425.578363636 L 614 413.218909091 L 620 423.434454545"/>
		</g>
		<text class="x-axis-label" x="40.0" y="540">
			0
		</text>
		<path class="x-notch" d="M 66.6055045872 525 L 66.6055045872 530"/>
		<text class="x-axis-label" x="93.2110091743" y="540">
			10
		</text>
		<path class="x-notch" d="M 119.816513761 525 L 119.816513761 530"/>
		<text class="x-axis-label" x="146.422018349" y="540">
			20
		</text>
		<path class="x-notch" d="M 173.027522936 525 L 173.027522936 530"/>
		<text class="x-axis-label" x="199.633027523" y="540">
			30
		</text>
		<path class="x-notch" d="M 226.23853211 525 L 226.23853211 530"/>
		<text class="x-axis-label" x="252.844036697" y="540">
			40
		</text>
		<path class="x-notch" d="M 279.449541284 525 L 279.449541284 530"/>
		<text class="x-axis-label" x="306.055045872" y="540">
			50
		</text>
		<path class="x-notch" d="M 332.660550459 525 L 332.660550459 530"/>
		<text class="x-axis-label" x="359.266055046" y="540">
			60
		</text>
		<path class="x-notch" d="M 385.871559633 525 L 385.871559633 530"/>
		<text class="x-axis-label" x="412.47706422" y="540">
			70
		</text>
		<path class="x-notch" d="M 439.082568807 525 L 439.082568807 530"/>
		<text class="x-axis-label" x="465.688073394" y="540">
			80
		</text>
		<path class="x-notch" d="M 492.293577982 525 L 492.293577982 530"/>
		<text class="x-axis-label" x="518.899082569" y="540">
			90
		</text>
		<path class="x-notch" d="M 545.504587156 525 L 545.504587156 530"/>
		<text class="x-axis-label" x="572.110091743" y="540">
			100
		</text>
		<path class="x-notch" d="M 598.71559633 525 L 598.71559633 530"/>
	</g>
</svg>
