<?xml version="1.0" ?>
<svg height="600" version="1.1" width="800" xmlns="http://www.w3.org/2000/svg" xmlns:svg="http://www.w3.org/2000/svg">
	<style type="text/css">
		

.x-axis-path, .y-gridline, .x-notch { fill:none; stroke: #a7a9ac; stroke-width:1; }



.y-gridline { stroke-width: 1; }

.y-axis-path, .y-axis-path2, .x-notch-left, .x-notch-right { display: none;}



.x-axis-label, .data-point-label {font-size: 12px; font-weight:normal; font-family: sans-serif; fill: #58595b; text-anchor:middle;}

.y-axis-label {font-size: 12px; font-family: helvetica; fill: #a7a9ac; text-anchor:end;}



.series-1-line { fill: none; stroke: #10b80c; stroke-width:2; }



.series-2-line { fill: none; stroke: #e90f0a; stroke-width: 2;}

	</style>
	<rect fill="white" height="600" width="800" x="0" y="0"/>
	<g id="grid" transform="translate(70, 30)">
		<g class="x-axis" id="x_axis">
			<path class="x-axis-path" d="M 0 525 L 660 525"/>
			<path class="x-notch-left" d="M 0 525, L 0 535"/>
			<path class="x-notch-right" d="M 660 525, L 660 535"/>
		</g>
		<g class="y-axis" id="y_axis">
			<path class="y-axis-path" d="M 0 525 L 0 0"/>
			<path class="y-axis-path-2" d="M 660 525 L 660 0"/>
			<path class="y-gridline" d="M 0 525 L 660 525"/>
			<text class="y-axis-label" x="-5" y="525">
				-100
			</text>
			<path class="y-gridline" d="M 0 438 L 660 438"/>
			<text class="y-axis-label" x="-5" y="438">
				 0
			</text>
			<path class="y-gridline" d="M 0 351 L 660 351"/>
			<text class="y-axis-label" x="-5" y="351">
				100
			</text>
			<path class="y-gridline" d="M 0 264 L 660 264"/>
			<text class="y-axis-label" x="-5" y="264">
				200
			</text>
			<path class="y-gridline" d="M 0 177 L 660 177"/>
			<text class="y-axis-label" x="-5" y="177">
				300
			</text>
			<path class="y-gridline" d="M 0 90 L 660 90"/>
			<text class="y-axis-label" x="-5" y="90">
				400
			</text>
			<path class="y-gridline" d="M 0 3 L 660 3"/>
			<text class="y-axis-label" x="-5" y="3">
				500
			</text>
		</g>
		<g>
			<path class="series-1-line" d="M 40 439.75232 L 46 432.721919885 L 53 431.83856977 L 60 430.484119655 L 66 450.15206954 L 73 429.076519425 L 80 449.61946931 L 87 460.200719195 L 93 453.39431908 L 100 442.482418966 L 107 419.252968851 L 114 457.632268736 L 120 444.992768621 L 127 408.929868506 L 134 409.101068391 L 141 362.201818276 L 147 388.151568161 L 154 364.944868046 L 161 345.776117931 L 168 333.271017816 L 174 296.153567701 L 181 309.472167586 L 188 275.810267471 L 195 260.119117356 L 201 240.838367241 L 208 278.970917126 L 215 242.953167011 L 222 236.258766897 L 228 254.535816782 L 235 188.924866667 L 242 204.352216552 L 249 181.863016437 L 255 229.553366322 L 262 223.891466207 L 269 86.889616092 L 276 136.980965977 L 282 174.866765862 L 289 56.5087157471 L 296 21.8370656322 L 303 77.4248155172 L 309 132.720665402 L 316 121.942815287 L 323 176.341965172 L 330 190.176465057 L 336 344.976264943 L 343 236.311114828 L 350 313.145614713 L 356 299.697964598 L 363 232.965264483 L 370 296.383564368 L 377 376.067414253 L 383 343.415264138 L 390 422.156564023 L 397 407.385563908 L 404 389.630813793 L 410 384.170513678 L 417 389.883613563 L 424 451.125263448 L 431 454.863663333 L 437 443.570263218 L 444 447.779763103 L 451 460.806812989 L 458 446.282562874 L 464 456.998562759 L 471 451.089562644 L 478 435.421162529 L 485 436.669312414 L 491 439.510312299 L 498 429.585412184 L 505 436.016012069 L 512 438.767411954 L 518 424.871411839 L 525 440.680261724 L 532 444.418661609 L 539 427.224611494 L 545 442.293211379 L 552 456.082911264 L 559 462.446311149 L 566 443.502261034 L 572 445.44586092 L 579 425.424860805 L 586 432.21456069 L 593 435.616610575 L 599 441.06021046 L 606 421.128810345 L 613 449.18766023 L 620 444.333210115"/>
			<path class="series-2-line" d="M 40 413.7 L 46 446.815229885 L 53 442.30545977 L 60 443.045689655 L 66 440.28591954 L 73 446.276149425 L 80 443.51637931 L 87 425.006609195 L 93 423.12183908 L 100 447.487068966 L 107 448.227298851 L 114 427.092528736 L 120 447.957758621 L 127 437.322988506 L 134 438.938218391 L 141 446.678448276 L 147 419.418678161 L 154 450.783908046 L 161 432.274137931 L 168 432.139367816 L 174 415.379597701 L 181 413.494827586 L 188 437.860057471 L 195 422.850287356 L 201 421.840517241 L 208 405.080747126 L 215 421.570977011 L 222 402.186206897 L 228 411.676436782 L 235 403.666666667 L 242 379.906896552 L 249 367.522126437 L 255 361.262356322 L 262 385.627586207 L 269 389.867816092 L 276 418.608045977 L 282 406.223275862 L 289 368.463505747 L 296 379.703735632 L 303 369.943965517 L 309 337.434195402 L 316 306.674425287 L 323 345.914655172 L 330 331.779885057 L 336 371.895114943 L 343 391.885344828 L 350 377.750574713 L 356 353.990804598 L 363 350.356034483 L 370 381.721264368 L 377 366.711494253 L 383 404.201724138 L 390 365.566954023 L 397 377.682183908 L 404 411.672413793 L 410 404.537643678 L 417 428.902873563 L 424 424.393103448 L 431 415.508333333 L 437 431.123563218 L 444 416.988793103 L 451 426.479022989 L 458 434.219252874 L 464 428.834482759 L 471 423.449712644 L 478 439.064942529 L 485 443.305172414 L 491 437.920402299 L 498 444.785632184 L 505 425.400862069 L 512 434.016091954 L 518 446.131321839 L 525 431.121551724 L 532 422.236781609 L 539 436.977011494 L 545 435.092241379 L 552 427.957471264 L 559 419.072701149 L 566 433.812931034 L 572 431.92816092 L 579 444.043390805 L 586 436.90862069 L 593 446.398850575 L 599 444.51408046 L 606 442.629310345 L 613 427.61954023 L 620 428.359770115"/>
		</g>
		<text class="x-axis-label" x="40.0" y="540">
			0
		</text>
		<path class="x-notch" d="M 73.7209302326 525 L 73.7209302326 530"/>
		<text class="x-axis-label" x="107.441860465" y="540">
			10
		</text>
		<path class="x-notch" d="M 141.162790698 525 L 141.162790698 530"/>
		<text class="x-axis-label" x="174.88372093" y="540">
			20
		</text>
		<path class="x-notch" d="M 208.604651163 525 L 208.604651163 530"/>
		<text class="x-axis-label" x="242.325581395" y="540">
			30
		</text>
		<path class="x-notch" d="M 276.046511628 525 L 276.046511628 530"/>
		<text class="x-axis-label" x="309.76744186" y="540">
			40
		</text>
		<path class="x-notch" d="M 343.488372093 525 L 343.488372093 530"/>
		<text class="x-axis-label" x="377.209302326" y="540">
			50
		</text>
		<path class="x-notch" d="M 410.930232558 525 L 410.930232558 530"/>
		<text class="x-axis-label" x="444.651162791" y="540">
			60
		</text>
		<path class="x-notch" d="M 478.372093023 525 L 478.372093023 530"/>
		<text class="x-axis-label" x="512.093023256" y="540">
			70
		</text>
		<path class="x-notch" d="M 545.813953488 525 L 545.813953488 530"/>
		<text class="x-axis-label" x="579.534883721" y="540">
			80
		</text>
		<path class="x-notch" d="M 613.255813953 525 L 613.255813953 530"/>
	</g>
</svg>
