<?xml version="1.0" ?>
<svg height="600" version="1.1" width="800" xmlns="http://www.w3.org/2000/svg" xmlns:svg="http://www.w3.org/2000/svg">
	<style type="text/css">
		

.x-axis-path, .y-gridline, .x-notch { fill:none; stroke: #a7a9ac; stroke-width:1; }



.y-gridline { stroke-width: 1; }

.y-axis-path, .y-axis-path2, .x-notch-left, .x-notch-right { display: none;}



.x-axis-label, .data-point-label {font-size: 12px; font-weight:normal; font-family: sans-serif; fill: #58595b; text-anchor:middle;}

.y-axis-label {font-size: 12px; font-family: helvetica; fill: #a7a9ac; text-anchor:end;}



.series-1-line { fill: none; stroke: #10b80c; stroke-width:2; }



.series-2-line { fill: none; stroke: #e90f0a; stroke-width: 2;}

	</style>
	<rect fill="white" height="600" width="800" x="0" y="0"/>
	<g id="grid" transform="translate(70, 30)">
		<g class="x-axis" id="x_axis">
			<path class="x-axis-path" d="M 0 525 L 660 525"/>
			<path class="x-notch-left" d="M 0 525, L 0 535"/>
			<path class="x-notch-right" d="M 660 525, L 660 535"/>
		</g>
		<g class="y-axis" id="y_axis">
			<path class="y-axis-path" d="M 0 525 L 0 0"/>
			<path class="y-axis-path-2" d="M 660 525 L 660 0"/>
			<path class="y-gridline" d="M 0 525 L 660 525"/>
			<text class="y-axis-label" x="-5" y="525">
				-100
			</text>
			<path class="y-gridline" d="M 0 420 L 660 420"/>
			<text class="y-axis-label" x="-5" y="420">
				 0
			</text>
			<path class="y-gridline" d="M 0 315 L 660 315"/>
			<text class="y-axis-label" x="-5" y="315">
				100
			</text>
			<path class="y-gridline" d="M 0 210 L 660 210"/>
			<text class="y-axis-label" x="-5" y="210">
				200
			</text>
			<path class="y-gridline" d="M 0 105 L 660 105"/>
			<text class="y-axis-label" x="-5" y="105">
				300
			</text>
			<path class="y-gridline" d="M 0 0 L 660 0"/>
			<text class="y-axis-label" x="-5" y="0">
				400
			</text>
		</g>
		<g>
			<path class="series-1-line" d="M 40 432.282312 L 45 439.145229923 L 51 388.042687846 L 56 419.189585769 L 62 417.275763692 L 68 398.022661615 L 73 381.704939538 L 79 428.925237462 L 85 404.611555385 L 90 389.020433308 L 96 386.137251231 L 101 384.492229154 L 107 374.124227077 L 113 369.975585 L 118 351.180702923 L 124 322.531780846 L 130 323.498318769 L 135 311.757336692 L 141 304.296574615 L 146 291.048212538 L 152 221.718930462 L 158 336.516388385 L 163 277.687106308 L 169 334.034004231 L 175 239.962102154 L 180 187.943960077 L 186 210.853398 L 192 188.207955923 L 197 213.809593846 L 203 177.541031769 L 208 180.742389692 L 214 152.525227615 L 220 207.418505538 L 225 182.781423462 L 231 154.105621385 L 237 222.998759308 L 242 182.423097231 L 248 190.982395154 L 253 169.764533077 L 259 153.311991 L 265 113.409168923 L 270 213.748966846 L 276 170.103944769 L 282 210.943602692 L 287 120.829360615 L 293 76.2426985385 L 299 166.027476462 L 304 144.648334385 L 310 193.700252308 L 315 133.981830231 L 321 256.101988154 L 327 166.498886077 L 332 165.150384 L 338 133.486281923 L 344 129.553099846 L 349 180.219497769 L 355 134.205675692 L 360 171.356893615 L 366 222.346271538 L 372 183.924789462 L 377 137.130187385 L 383 110.931125308 L 389 259.946823231 L 394 194.145541154 L 400 186.335339077 L 406 195.890037 L 411 173.352954923 L 417 295.688572846 L 422 269.246750769 L 428 252.202848692 L 434 330.895846615 L 439 325.454864538 L 445 294.167502462 L 451 279.976660385 L 456 338.397098308 L 462 329.348316231 L 467 363.753994154 L 473 319.517192077 L 479 322.09863 L 484 356.611827923 L 490 372.547585846 L 496 344.922203769 L 501 375.908241692 L 507 326.609599615 L 513 383.710397538 L 518 362.465655462 L 524 372.990133385 L 529 398.322131308 L 535 380.011929231 L 541 400.766767154 L 546 379.441385077 L 552 398.958063 L 558 434.790060923 L 563 415.564258846 L 569 432.361856769 L 574 400.213074692 L 580 406.456912615 L 586 396.358130538 L 591 415.255308462 L 597 421.391206385 L 603 409.785044308 L 608 424.859382231 L 614 418.879960154 L 620 431.181038077"/>
			<path class="series-2-line" d="M 40 420.42 L 45 432.321346154 L 51 436.872692308 L 56 386.824038462 L 62 416.575384615 L 68 366.526730769 L 73 391.028076923 L 79 372.479423077 L 85 415.880769231 L 90 408.882115385 L 96 426.033461538 L 101 413.784807692 L 107 410.986153846 L 113 420.7875 L 118 422.188846154 L 124 404.690192308 L 130 394.541538462 L 135 401.192884615 L 141 354.294230769 L 146 391.395576923 L 152 413.796923077 L 158 418.348269231 L 163 440.749615385 L 169 390.700961538 L 175 382.652307692 L 180 366.203653846 L 186 413.805 L 192 360.606346154 L 197 397.707692308 L 203 340.309038462 L 208 350.110384615 L 214 429.211730769 L 220 401.213076923 L 225 413.114423077 L 231 399.815769231 L 237 358.167115385 L 242 358.518461538 L 248 392.469807692 L 253 403.321153846 L 259 407.8725 L 265 385.123846154 L 270 392.825192308 L 276 380.576538462 L 282 374.627884615 L 287 363.429230769 L 293 416.280576923 L 299 309.531923077 L 304 345.583269231 L 310 409.984615385 L 315 366.235961538 L 321 334.037307692 L 327 283.988653846 L 332 307.44 L 338 309.891346154 L 344 327.042692308 L 349 303.244038462 L 355 332.995384615 L 360 329.146730769 L 366 295.898076923 L 372 328.799423077 L 377 357.500769231 L 383 326.352115385 L 389 234.303461538 L 394 361.704807692 L 400 369.406153846 L 406 329.8575 L 411 341.758846154 L 417 316.910192308 L 422 241.661538462 L 428 338.612884615 L 434 283.314230769 L 439 289.965576923 L 445 274.566923077 L 451 294.868269231 L 456 289.969615385 L 462 286.120961538 L 467 342.122307692 L 473 381.323653846 L 479 323.925 L 484 363.126346154 L 490 351.927692308 L 496 379.579038462 L 501 395.680384615 L 507 405.481730769 L 513 360.683076923 L 518 375.734423077 L 524 389.735769231 L 529 386.937115385 L 535 394.638461538 L 541 368.739807692 L 546 396.391153846 L 552 399.8925 L 558 397.093846154 L 563 383.795192308 L 569 401.996538462 L 574 398.147884615 L 580 424.749230769 L 586 420.900576923 L 591 398.151923077 L 597 400.603269231 L 603 427.204615385 L 608 427.555961538 L 614 436.307307692 L 620 418.808653846"/>
		</g>
		<text class="x-axis-label" x="40.0" y="540">
			0
		</text>
		<path class="x-notch" d="M 68.1553398058 525 L 68.1553398058 530"/>
		<text class="x-axis-label" x="96.3106796117" y="540">
			10
		</text>
		<path class="x-notch" d="M 124.466019417 525 L 124.466019417 530"/>
		<text class="x-axis-label" x="152.621359223" y="540">
			20
		</text>
		<path class="x-notch" d="M 180.776699029 525 L 180.776699029 530"/>
		<text class="x-axis-label" x="208.932038835" y="540">
			30
		</text>
		<path class="x-notch" d="M 237.087378641 525 L 237.087378641 530"/>
		<text class="x-axis-label" x="265.242718447" y="540">
			40
		</text>
		<path class="x-notch" d="M 293.398058252 525 L 293.398058252 530"/>
		<text class="x-axis-label" x="321.553398058" y="540">
			50
		</text>
		<path class="x-notch" d="M 349.708737864 525 L 349.708737864 530"/>
		<text class="x-axis-label" x="377.86407767" y="540">
			60
		</text>
		<path class="x-notch" d="M 406.019417476 525 L 406.019417476 530"/>
		<text class="x-axis-label" x="434.174757282" y="540">
			70
		</text>
		<path class="x-notch" d="M 462.330097087 525 L 462.330097087 530"/>
		<text class="x-axis-label" x="490.485436893" y="540">
			80
		</text>
		<path class="x-notch" d="M 518.640776699 525 L 518.640776699 530"/>
		<text class="x-axis-label" x="546.796116505" y="540">
			90
		</text>
		<path class="x-notch" d="M 574.951456311 525 L 574.951456311 530"/>
		<text class="x-axis-label" x="603.106796117" y="540">
			100
		</text>
		<path class="x-notch" d="M 631.262135922 525 L 631.262135922 530"/>
	</g>
</svg>
