<?xml version="1.0" ?>
<svg height="600" version="1.1" width="800" xmlns="http://www.w3.org/2000/svg" xmlns:svg="http://www.w3.org/2000/svg">
	<style type="text/css">

.x-axis-path, .y-gridline, .x-notch { fill:none; stroke: #a7a9ac; stroke-width:1; }



.y-gridline { stroke-width: 1; }

.y-axis-path, .y-axis-path2, .x-notch-left, .x-notch-right { display: none;}



.x-axis-label, .data-point-label {font-size: 12px; font-weight:normal; font-family: sans-serif; fill: #58595b; text-anchor:middle;}

.y-axis-label {font-size: 12px; font-family: helvetica; fill: #a7a9ac; text-anchor:end;}



.series-1-line { fill: none; stroke: #10b80c; stroke-width:2; }



.series-2-line { fill: none; stroke: #e90f0a; stroke-width: 2;}
</style>
	<rect fill="white" height="600" width="800" x="0" y="0"/>
	<g id="grid" transform="translate(70, 30)">
		<g class="x-axis" id="x_axis">
			<path class="x-axis-path" d="M 0 525 L 660 525"/>
			<path class="x-notch-left" d="M 0 525, L 0 535"/>
			<path class="x-notch-right" d="M 660 525, L 660 535"/>
		</g>
		<g class="y-axis" id="y_axis">
			<path class="y-axis-path" d="M 0 525 L 0 0"/>
			<path class="y-axis-path-2" d="M 660 525 L 660 0"/>
			<path class="y-gridline" d="M 0 525 L 660 525"/>
			<text class="y-axis-label" x="-5" y="525">-200</text>
			<path class="y-gridline" d="M 0 394 L 660 394"/>
			<text class="y-axis-label" x="-5" y="394"> 0</text>
			<path class="y-gridline" d="M 0 263 L 660 263"/>
			<text class="y-axis-label" x="-5" y="263">200</text>
			<path class="y-gridline" d="M 0 132 L 660 132"/>
			<text class="y-axis-label" x="-5" y="132">400</text>
			<path class="y-gridline" d="M 0 1 L 660 1"/>
			<text class="y-axis-label" x="-5" y="1">600</text>
		</g>
		<g>
			<path class="series-1-line" d="M 40 399.397516966 L 45 386.155368068 L 50 390.260871375 L 55 388.607376349 L 60 402.470552385 L 66 379.792177424 L 71 383.408750321 L 76 356.787746957 L 81 362.934894553 L 87 400.199344224 L 92 392.674322723 L 97 383.02500545 L 102 385.578885266 L 107 378.501359395 L 113 377.965731131 L 118 386.265742691 L 123 393.404708086 L 128 381.658354764 L 134 389.650440481 L 139 371.431102135 L 144 355.322974894 L 149 367.760358325 L 154 361.591562614 L 160 359.070990286 L 165 340.697907096 L 170 333.690166119 L 175 302.665954055 L 181 287.172806187 L 186 270.658836175 L 191 259.821213013 L 196 257.370425579 L 201 203.475959304 L 207 178.043479907 L 212 174.320862789 L 217 173.030467286 L 222 208.170621184 L 228 167.486217165 L 233 157.668325758 L 238 172.915859618 L 243 116.840397345 L 249 129.166343024 L 254 137.857368065 L 259 60.7009798642 L 264 3.91305744385 L 269 21.8582135918 L 275 61.7790688477 L 280 0.0 L 285 111.53716602 L 290 125.120984404 L 296 39.5217144827 L 301 75.682036292 L 306 90.7472571177 L 311 100.039522631 L 316 101.376964523 L 322 136.559207435 L 327 126.755927241 L 332 148.084124177 L 337 198.378285769 L 343 185.945859714 L 348 234.031111349 L 353 198.211586716 L 358 228.37498732 L 363 186.321054766 L 369 255.668236897 L 374 232.193005684 L 379 244.295203548 L 384 255.040739468 L 390 284.393326842 L 395 308.992908738 L 400 305.830097312 L 405 297.396345652 L 410 379.591580903 L 416 376.637033769 L 421 379.094305124 L 426 402.980990717 L 431 395.386184323 L 437 390.209860643 L 442 401.486852143 L 447 395.569500125 L 452 411.61367216 L 458 386.321198705 L 463 397.346528433 L 468 392.561436312 L 473 379.836349859 L 478 386.011193335 L 484 384.147689395 L 489 390.238572921 L 494 380.267372827 L 499 394.815531208 L 505 388.171325909 L 510 394.863449908 L 515 401.052032285 L 520 391.500195785 L 525 403.881751301 L 531 390.835000105 L 536 381.912099958 L 541 383.962874308 L 546 395.701318415 L 552 400.184750536 L 557 403.018424159 L 562 394.19344094 L 567 390.247076008 L 572 403.38361684 L 578 394.041353098 L 583 385.663647431 L 588 392.858876896 L 593 391.205163792 L 599 396.834812788 L 604 398.759756252 L 609 393.387598715 L 614 386.254026851 L 620 396.301277681"/>
			<path class="series-2-line" d="M 40 380.229176891 L 45 417.803785754 L 50 385.593501152 L 55 401.360330807 L 60 377.873157887 L 66 399.091932344 L 71 400.683705514 L 76 377.741727075 L 81 409.864391136 L 87 371.656967251 L 92 367.796795619 L 97 419.001266488 L 102 394.968899088 L 107 406.374172901 L 113 375.254277259 L 118 411.738497162 L 123 374.076267757 L 128 412.196071101 L 134 411.60706635 L 139 396.297810633 L 144 413.155029249 L 149 399.481356973 L 154 417.974159029 L 160 398.848541951 L 165 386.265258636 L 170 386.766642846 L 175 391.629582897 L 181 397.582911908 L 186 371.369766588 L 191 416.577098174 L 196 386.547591492 L 201 387.048975701 L 207 391.366721272 L 212 389.687327561 L 217 370.016516003 L 222 386.873734618 L 228 346.485532813 L 233 317.546415091 L 238 333.313244746 L 243 312.552044228 L 249 337.587180047 L 254 334.272202895 L 259 306.423474134 L 264 333.094193393 L 269 310.697409434 L 275 304.656459881 L 280 280.624092481 L 285 286.577421493 L 290 285.443222261 L 296 320.291858724 L 301 305.527797488 L 306 264.594401202 L 311 273.818897094 L 316 226.888361526 L 322 258.465831107 L 327 291.133689649 L 332 272.553267051 L 337 328.119293761 L 343 260.471367945 L 348 299.136365769 L 353 265.290497725 L 358 271.789021217 L 363 275.016377828 L 369 249.893621468 L 374 267.841229044 L 379 285.243642139 L 384 237.767912091 L 390 243.176046622 L 395 245.858208753 L 400 305.785791304 L 405 294.838091429 L 410 370.576313907 L 416 291.479304007 L 421 389.025305692 L 426 396.614218144 L 431 403.657936116 L 437 416.15359889 L 442 392.12123149 L 447 392.6226157 L 452 390.398027508 L 458 415.433163327 L 463 388.129629046 L 468 382.088679493 L 473 402.76225947 L 478 409.260782962 L 484 393.951527245 L 489 392.272133534 L 494 408.584157669 L 499 384.55179027 L 505 392.140702722 L 510 403.000782055 L 515 386.055942898 L 520 400.732383593 L 525 395.781823 L 531 402.825540972 L 536 404.417314142 L 541 395.105197708 L 546 384.157497833 L 552 399.379133008 L 557 395.518961376 L 562 403.107873828 L 567 393.795757394 L 572 398.658697445 L 578 401.886054055 L 583 403.477827225 L 588 399.617655593 L 593 394.12190052 L 599 400.620424012 L 604 389.672724137 L 609 390.174108347 L 614 389.039909116 L 620 408.077905652"/>
		</g>
		<text class="x-axis-label" x="40.0" y="540">0</text>
		<path class="x-notch" d="M 66.1261261261 525 L 66.1261261261 530"/>
		<text class="x-axis-label" x="92.2522522523" y="540">10</text>
		<path class="x-notch" d="M 118.378378378 525 L 118.378378378 530"/>
		<text class="x-axis-label" x="144.504504505" y="540">20</text>
		<path class="x-notch" d="M 170.630630631 525 L 170.630630631 530"/>
		<text class="x-axis-label" x="196.756756757" y="540">30</text>
		<path class="x-notch" d="M 222.882882883 525 L 222.882882883 530"/>
		<text class="x-axis-label" x="249.009009009" y="540">40</text>
		<path class="x-notch" d="M 275.135135135 525 L 275.135135135 530"/>
		<text class="x-axis-label" x="301.261261261" y="540">50</text>
		<path class="x-notch" d="M 327.387387387 525 L 327.387387387 530"/>
		<text class="x-axis-label" x="353.513513514" y="540">60</text>
		<path class="x-notch" d="M 379.63963964 525 L 379.63963964 530"/>
		<text class="x-axis-label" x="405.765765766" y="540">70</text>
		<path class="x-notch" d="M 431.891891892 525 L 431.891891892 530"/>
		<text class="x-axis-label" x="458.018018018" y="540">80</text>
		<path class="x-notch" d="M 484.144144144 525 L 484.144144144 530"/>
		<text class="x-axis-label" x="510.27027027" y="540">90</text>
		<path class="x-notch" d="M 536.396396396 525 L 536.396396396 530"/>
		<text class="x-axis-label" x="562.522522523" y="540">100</text>
		<path class="x-notch" d="M 588.648648649 525 L 588.648648649 530"/>
		<text class="x-axis-label" x="614.774774775" y="540">110</text>
		<path class="x-notch" d="M 640.900900901 525 L 640.900900901 530"/>
	</g>
</svg>
