<?xml version="1.0" ?>
<svg height="600" version="1.1" width="800" xmlns="http://www.w3.org/2000/svg" xmlns:svg="http://www.w3.org/2000/svg">
	<style type="text/css">
		

.x-axis-path, .y-gridline, .x-notch { fill:none; stroke: #a7a9ac; stroke-width:1; }



.y-gridline { stroke-width: 1; }

.y-axis-path, .y-axis-path2, .x-notch-left, .x-notch-right { display: none;}



.x-axis-label, .data-point-label {font-size: 12px; font-weight:normal; font-family: sans-serif; fill: #58595b; text-anchor:middle;}

.y-axis-label {font-size: 12px; font-family: helvetica; fill: #a7a9ac; text-anchor:end;}



.series-1-line { fill: none; stroke: #10b80c; stroke-width:2; }



.series-2-line { fill: none; stroke: #e90f0a; stroke-width: 2;}

	</style>
	<rect fill="white" height="600" width="800" x="0" y="0"/>
	<g id="grid" transform="translate(70, 30)">
		<g class="x-axis" id="x_axis">
			<path class="x-axis-path" d="M 0 525 L 660 525"/>
			<path class="x-notch-left" d="M 0 525, L 0 535"/>
			<path class="x-notch-right" d="M 660 525, L 660 535"/>
		</g>
		<g class="y-axis" id="y_axis">
			<path class="y-axis-path" d="M 0 525 L 0 0"/>
			<path class="y-axis-path-2" d="M 660 525 L 660 0"/>
			<path class="y-gridline" d="M 0 525 L 660 525"/>
			<text class="y-axis-label" x="-5" y="525">
				-200
			</text>
			<path class="y-gridline" d="M 0 438 L 660 438"/>
			<text class="y-axis-label" x="-5" y="438">
				 0
			</text>
			<path class="y-gridline" d="M 0 351 L 660 351"/>
			<text class="y-axis-label" x="-5" y="351">
				200
			</text>
			<path class="y-gridline" d="M 0 264 L 660 264"/>
			<text class="y-axis-label" x="-5" y="264">
				400
			</text>
			<path class="y-gridline" d="M 0 177 L 660 177"/>
			<text class="y-axis-label" x="-5" y="177">
				600
			</text>
			<path class="y-gridline" d="M 0 90 L 660 90"/>
			<text class="y-axis-label" x="-5" y="90">
				800
			</text>
			<path class="y-gridline" d="M 0 3 L 660 3"/>
			<text class="y-axis-label" x="-5" y="3">
				1000
			</text>
		</g>
		<g>
			<path class="series-1-line" d="M 40 435.664775 L 44 441.276727883 L 48 436.411255766 L 52 439.63375865 L 57 434.431761533 L 61 425.639989416 L 65 428.447392299 L 69 425.522495182 L 74 424.325198066 L 78 437.285050949 L 82 425.868103832 L 86 431.413031715 L 91 424.315084599 L 95 431.744412482 L 99 437.591915365 L 103 431.851443248 L 108 426.256746131 L 112 445.475999015 L 116 407.798026898 L 121 438.078329781 L 125 430.946782664 L 129 434.315235547 L 133 436.348613431 L 138 413.713991314 L 142 428.479844197 L 146 398.56452208 L 150 403.727949964 L 155 411.661977847 L 159 361.45348073 L 163 350.720958613 L 167 346.281786496 L 172 357.69341438 L 176 366.861542263 L 180 315.250770146 L 185 325.507048029 L 189 318.297100912 L 193 293.025928796 L 197 260.564181679 L 202 220.799684562 L 206 305.767487445 L 210 258.116615328 L 214 265.411368212 L 219 256.327871095 L 223 257.183323978 L 227 214.098376861 L 231 243.997179745 L 236 221.126832628 L 240 214.242035511 L 244 268.618438394 L 248 258.682516277 L 253 177.288144161 L 257 191.044247044 L 261 194.311724927 L 266 121.37580281 L 270 159.093430693 L 274 159.163833577 L 278 110.62676146 L 283 104.639539343 L 287 153.519192226 L 291 112.464420109 L 295 146.693422993 L 300 119.986550876 L 304 154.552078759 L 308 127.474906642 L 312 130.731184526 L 317 89.5418374088 L 321 117.668240292 L 325 85.8125181752 L 330 130.788271058 L 334 153.821648942 L 338 121.965751825 L 342 155.151579708 L 347 130.923757591 L 351 156.346760474 L 355 135.002063358 L 359 137.652491241 L 364 192.387819124 L 368 197.708222007 L 372 189.892249891 L 376 160.066877774 L 381 186.981755657 L 385 203.26188354 L 389 203.433436423 L 393 163.769914307 L 398 186.15281719 L 402 221.862495073 L 406 202.795072956 L 411 212.232525839 L 415 250.690578723 L 419 220.180781606 L 423 243.909784489 L 428 284.062012372 L 432 268.460815255 L 436 298.449393139 L 440 278.473196022 L 445 265.328823905 L 449 287.846476788 L 453 273.793329672 L 457 323.447007555 L 462 303.695335438 L 466 306.177413321 L 470 288.186941204 L 475 323.515294088 L 479 307.925471971 L 483 332.787424854 L 487 329.851327737 L 492 326.66848062 L 496 347.671508504 L 500 347.091261387 L 504 340.59898927 L 509 353.413067153 L 513 333.515445036 L 517 345.76847292 L 521 344.818100803 L 526 355.130378686 L 530 384.019606569 L 534 369.372159453 L 538 376.072262336 L 543 368.727565219 L 547 387.206568102 L 551 383.070145985 L 556 410.579673869 L 560 389.504126752 L 564 397.079404635 L 568 416.657757518 L 573 418.287410401 L 577 420.298388285 L 581 421.984216168 L 585 419.014519051 L 590 428.104071934 L 594 412.772199818 L 598 420.313702701 L 602 441.013980584 L 607 430.494608467 L 611 436.01678635 L 615 443.221764234 L 620 436.875442117"/>
			<path class="series-2-line" d="M 40 440.5625 L 44 433.979562044 L 48 440.959124088 L 52 431.751186131 L 57 440.043248175 L 61 445.272810219 L 65 432.564872263 L 69 426.856934307 L 74 424.64899635 L 78 432.066058394 L 82 420.233120438 L 86 441.212682482 L 91 438.129744526 L 95 438.109306569 L 99 428.901368613 L 103 435.880930657 L 108 437.172992701 L 112 423.590054745 L 116 430.569616788 L 121 431.861678832 L 125 434.028740876 L 129 436.19580292 L 133 424.800364964 L 138 439.654927007 L 142 438.321989051 L 146 428.676551095 L 150 440.906113139 L 155 430.385675182 L 159 429.927737226 L 163 430.78229927 L 167 439.511861314 L 172 432.491423358 L 176 434.220985401 L 180 430.700547445 L 185 433.305109489 L 189 447.722171533 L 193 430.201733577 L 197 425.36879562 L 202 433.660857664 L 206 434.952919708 L 210 427.932481752 L 214 431.849543796 L 219 431.391605839 L 223 416.058667883 L 227 430.475729927 L 231 423.017791971 L 236 423.434854015 L 240 421.226916058 L 244 417.268978102 L 248 430.373540146 L 253 432.10310219 L 257 417.645164234 L 261 418.499726277 L 266 431.604288321 L 270 415.833850365 L 274 420.625912409 L 278 415.355474453 L 283 426.710036496 L 287 427.12709854 L 291 414.856660584 L 295 414.398722628 L 300 416.128284672 L 304 414.357846715 L 308 405.587408759 L 312 408.191970803 L 317 399.859032847 L 321 395.901094891 L 325 416.005656934 L 330 411.172718978 L 334 399.777281022 L 338 402.819343066 L 342 411.548905109 L 347 401.903467153 L 351 410.195529197 L 355 411.487591241 L 359 406.217153285 L 364 397.446715328 L 368 402.238777372 L 372 391.718339416 L 376 402.19790146 L 381 399.552463504 L 385 383.782025547 L 389 406.949087591 L 393 416.553649635 L 398 421.345711679 L 402 411.700273723 L 406 416.054835766 L 411 426.97189781 L 415 415.138959854 L 419 412.931021898 L 423 412.473083942 L 428 426.452645985 L 432 418.994708029 L 436 414.599270073 L 440 407.141332117 L 445 408.870894161 L 449 426.787956204 L 453 416.705018248 L 457 415.809580292 L 462 424.539142336 L 466 411.39370438 L 470 418.373266423 L 475 417.040328467 L 479 424.894890511 L 483 418.311952555 L 487 414.354014599 L 492 414.771076642 L 496 413.000638686 L 500 416.91770073 L 504 404.647262774 L 509 417.751824818 L 513 415.106386861 L 517 413.335948905 L 521 423.815510949 L 526 417.670072993 L 530 414.149635036 L 534 428.56669708 L 538 422.858759124 L 543 424.150821168 L 547 423.692883212 L 551 419.297445255 L 556 426.277007299 L 560 419.694069343 L 564 431.048631387 L 568 429.715693431 L 573 430.132755474 L 577 422.237317518 L 581 430.966879562 L 585 432.258941606 L 590 429.17600365 L 594 430.905565693 L 598 430.447627737 L 602 441.802189781 L 607 443.531751825 L 611 433.886313869 L 615 434.740875912 L 620 433.845437956"/>
		</g>
		<text class="x-axis-label" x="40.0" y="540">
			0
		</text>
		<path class="x-notch" d="M 61.3235294118 525 L 61.3235294118 530"/>
		<text class="x-axis-label" x="82.6470588235" y="540">
			10
		</text>
		<path class="x-notch" d="M 103.970588235 525 L 103.970588235 530"/>
		<text class="x-axis-label" x="125.294117647" y="540">
			20
		</text>
		<path class="x-notch" d="M 146.617647059 525 L 146.617647059 530"/>
		<text class="x-axis-label" x="167.941176471" y="540">
			30
		</text>
		<path class="x-notch" d="M 189.264705882 525 L 189.264705882 530"/>
		<text class="x-axis-label" x="210.588235294" y="540">
			40
		</text>
		<path class="x-notch" d="M 231.911764706 525 L 231.911764706 530"/>
		<text class="x-axis-label" x="253.235294118" y="540">
			50
		</text>
		<path class="x-notch" d="M 274.558823529 525 L 274.558823529 530"/>
		<text class="x-axis-label" x="295.882352941" y="540">
			60
		</text>
		<path class="x-notch" d="M 317.205882353 525 L 317.205882353 530"/>
		<text class="x-axis-label" x="338.529411765" y="540">
			70
		</text>
		<path class="x-notch" d="M 359.852941176 525 L 359.852941176 530"/>
		<text class="x-axis-label" x="381.176470588" y="540">
			80
		</text>
		<path class="x-notch" d="M 402.5 525 L 402.5 530"/>
		<text class="x-axis-label" x="423.823529412" y="540">
			90
		</text>
		<path class="x-notch" d="M 445.147058824 525 L 445.147058824 530"/>
		<text class="x-axis-label" x="466.470588235" y="540">
			100
		</text>
		<path class="x-notch" d="M 487.794117647 525 L 487.794117647 530"/>
		<text class="x-axis-label" x="509.117647059" y="540">
			110
		</text>
		<path class="x-notch" d="M 530.441176471 525 L 530.441176471 530"/>
		<text class="x-axis-label" x="551.764705882" y="540">
			120
		</text>
		<path class="x-notch" d="M 573.088235294 525 L 573.088235294 530"/>
		<text class="x-axis-label" x="594.411764706" y="540">
			130
		</text>
		<path class="x-notch" d="M 615.735294118 525 L 615.735294118 530"/>
	</g>
</svg>
