<?xml version="1.0" ?>
<svg height="600" version="1.1" width="800" xmlns="http://www.w3.org/2000/svg" xmlns:svg="http://www.w3.org/2000/svg">
	<style type="text/css">

.x-axis-path, .y-gridline, .x-notch { fill:none; stroke: #a7a9ac; stroke-width:1; }



.y-gridline { stroke-width: 1; }

.y-axis-path, .y-axis-path2, .x-notch-left, .x-notch-right { display: none;}



.x-axis-label, .data-point-label {font-size: 12px; font-weight:normal; font-family: sans-serif; fill: #58595b; text-anchor:middle;}

.y-axis-label {font-size: 12px; font-family: helvetica; fill: #a7a9ac; text-anchor:end;}



.series-1-line { fill: none; stroke: #10b80c; stroke-width:2; }



.series-2-line { fill: none; stroke: #e90f0a; stroke-width: 2;}
</style>
	<rect fill="white" height="600" width="800" x="0" y="0"/>
	<g id="grid" transform="translate(70, 30)">
		<g class="x-axis" id="x_axis">
			<path class="x-axis-path" d="M 0 525 L 660 525"/>
			<path class="x-notch-left" d="M 0 525, L 0 535"/>
			<path class="x-notch-right" d="M 660 525, L 660 535"/>
		</g>
		<g class="y-axis" id="y_axis">
			<path class="y-axis-path" d="M 0 525 L 0 0"/>
			<path class="y-axis-path-2" d="M 660 525 L 660 0"/>
			<path class="y-gridline" d="M 0 525 L 660 525"/>
			<text class="y-axis-label" x="-5" y="525">-200</text>
			<path class="y-gridline" d="M 0 394 L 660 394"/>
			<text class="y-axis-label" x="-5" y="394"> 0</text>
			<path class="y-gridline" d="M 0 263 L 660 263"/>
			<text class="y-axis-label" x="-5" y="263">200</text>
			<path class="y-gridline" d="M 0 132 L 660 132"/>
			<text class="y-axis-label" x="-5" y="132">400</text>
			<path class="y-gridline" d="M 0 1 L 660 1"/>
			<text class="y-axis-label" x="-5" y="1">600</text>
		</g>
		<g>
			<path class="series-1-line" d="M 40 398.39938964 L 45 379.52258573 L 50 419.456866819 L 56 383.217269132 L 61 384.809080224 L 66 397.801440515 L 72 396.955898453 L 77 397.17193275 L 82 403.874151585 L 88 404.195055644 L 93 400.571384808 L 99 417.521198737 L 104 380.980074931 L 109 392.019976949 L 115 398.683150708 L 120 389.018531865 L 125 406.689146534 L 131 366.924248573 L 136 372.159108443 L 142 335.329541687 L 147 281.64824237 L 152 288.416081466 L 158 298.328991289 L 163 234.884991761 L 168 235.533383848 L 174 238.396306399 L 179 220.423671993 L 185 185.520397174 L 190 138.849835629 L 195 175.337928722 L 201 160.746066477 L 206 104.352054222 L 211 111.211679912 L 217 115.647240039 L 222 70.5621948117 L 227 115.227267372 L 233 78.7384762353 L 238 80.3957031637 L 244 85.8664688912 L 249 99.3437240645 L 254 96.3359842066 L 260 24.6888388771 L 265 34.0906874837 L 270 0.0 L 276 72.4326638613 L 281 34.7907141948 L 287 61.2673224767 L 292 97.7684987369 L 297 84.9590135912 L 303 62.9107681939 L 308 80.6731694572 L 313 68.5317435339 L 319 101.57364863 L 324 107.882963602 L 330 94.483509388 L 335 136.239621503 L 340 131.986936521 L 346 118.823592589 L 351 133.834031412 L 356 91.8022703187 L 362 149.597732084 L 367 134.678381811 L 372 214.528179323 L 378 227.310800091 L 383 256.290381787 L 389 193.645682003 L 394 222.153451985 L 399 237.622619356 L 405 257.796003015 L 410 247.764442219 L 415 238.348812402 L 421 275.30871721 L 426 308.40275055 L 432 332.8612803 L 437 291.327497256 L 442 326.112121101 L 448 305.335191587 L 453 337.525259847 L 458 307.653893769 L 464 362.51402433 L 469 356.911728886 L 475 397.711338828 L 480 395.738804571 L 485 387.921774239 L 491 396.60302653 L 496 408.809170245 L 501 405.224953335 L 507 399.832192991 L 512 390.547599269 L 517 401.57441812 L 523 395.264405104 L 528 395.925880358 L 534 407.843785547 L 539 404.22011471 L 544 404.35744558 L 550 402.135922298 L 555 402.286336335 L 560 414.243491025 L 566 403.831905108 L 571 408.542620594 L 577 403.542968538 L 582 396.499071615 L 587 397.60619225 L 593 403.548565268 L 598 395.35171424 L 603 403.141675769 L 609 391.1576567 L 614 394.308817778 L 620 389.807348195"/>
			<path class="series-2-line" d="M 40 397.940701977 L 45 400.414425812 L 50 376.824027593 L 56 397.184894013 L 61 395.570128113 L 66 389.355811263 L 72 389.274229014 L 77 402.991299616 L 82 381.445146264 L 88 398.739645384 L 93 393.547450967 L 99 387.844195334 L 104 395.428531336 L 109 394.83588787 L 115 399.353856571 L 120 399.783335538 L 125 401.234936939 L 131 393.487436439 L 136 401.582833657 L 142 394.346394374 L 147 404.997097676 L 152 393.161107442 L 158 388.991035459 L 163 387.887330776 L 168 393.938483128 L 174 393.345839662 L 179 394.286379846 L 185 385.516756912 L 190 398.722766298 L 195 394.552694315 L 201 386.294132598 L 206 381.612999398 L 211 375.398682548 L 217 388.604691934 L 222 393.633721852 L 227 389.463649869 L 233 388.871006403 L 238 377.035016169 L 244 388.196780687 L 249 386.070953571 L 254 384.456187672 L 260 387.440972723 L 265 383.27090074 L 270 387.277808224 L 276 376.463940424 L 281 376.382358174 L 287 379.367143225 L 292 373.152826375 L 297 385.847774544 L 303 364.812682409 L 308 371.885957194 L 313 360.04996696 L 319 375.300221213 L 324 375.218638963 L 330 360.316281429 L 335 371.478045948 L 340 364.752667881 L 346 372.848065099 L 351 370.722237983 L 356 377.795512768 L 362 378.224991736 L 367 381.209776787 L 372 389.305174005 L 378 375.936000121 L 383 387.09776464 L 389 380.88344779 L 394 385.912477708 L 399 391.963630059 L 405 381.660823475 L 410 379.534996359 L 415 380.98659776 L 421 382.949260378 L 426 370.09114771 L 432 368.987443027 L 437 378.104962679 L 442 380.578686514 L 448 380.497104264 L 453 389.103562699 L 458 372.668021515 L 464 372.586439266 L 469 377.104407967 L 475 397.976335603 L 480 394.317324837 L 485 385.547701903 L 491 394.154160338 L 496 391.006210789 L 501 399.612669224 L 507 391.354107507 L 512 392.294647691 L 517 393.746249092 L 523 389.065115892 L 528 393.072023377 L 534 395.034685994 L 539 389.842491578 L 544 395.893643929 L 550 391.212510729 L 555 395.219418214 L 560 391.049346231 L 566 388.412457898 L 571 398.552099983 L 577 388.760354616 L 582 378.968609249 L 587 393.196741068 L 593 390.559852735 L 598 401.210556037 L 603 389.374565803 L 609 392.870412071 L 614 387.167156438 L 620 399.35104339"/>
		</g>
		<text class="x-axis-label" x="40.0" y="540">0</text>
		<path class="x-notch" d="M 66.8518518519 525 L 66.8518518519 530"/>
		<text class="x-axis-label" x="93.7037037037" y="540">10</text>
		<path class="x-notch" d="M 120.555555556 525 L 120.555555556 530"/>
		<text class="x-axis-label" x="147.407407407" y="540">20</text>
		<path class="x-notch" d="M 174.259259259 525 L 174.259259259 530"/>
		<text class="x-axis-label" x="201.111111111" y="540">30</text>
		<path class="x-notch" d="M 227.962962963 525 L 227.962962963 530"/>
		<text class="x-axis-label" x="254.814814815" y="540">40</text>
		<path class="x-notch" d="M 281.666666667 525 L 281.666666667 530"/>
		<text class="x-axis-label" x="308.518518519" y="540">50</text>
		<path class="x-notch" d="M 335.37037037 525 L 335.37037037 530"/>
		<text class="x-axis-label" x="362.222222222" y="540">60</text>
		<path class="x-notch" d="M 389.074074074 525 L 389.074074074 530"/>
		<text class="x-axis-label" x="415.925925926" y="540">70</text>
		<path class="x-notch" d="M 442.777777778 525 L 442.777777778 530"/>
		<text class="x-axis-label" x="469.62962963" y="540">80</text>
		<path class="x-notch" d="M 496.481481481 525 L 496.481481481 530"/>
		<text class="x-axis-label" x="523.333333333" y="540">90</text>
		<path class="x-notch" d="M 550.185185185 525 L 550.185185185 530"/>
		<text class="x-axis-label" x="577.037037037" y="540">100</text>
		<path class="x-notch" d="M 603.888888889 525 L 603.888888889 530"/>
	</g>
</svg>
