<?xml version="1.0" ?>
<svg height="600" version="1.1" width="800" xmlns="http://www.w3.org/2000/svg" xmlns:svg="http://www.w3.org/2000/svg">
	<style type="text/css">

.x-axis-path, .y-gridline, .x-notch { fill:none; stroke: #a7a9ac; stroke-width:1; }



.y-gridline { stroke-width: 1; }

.y-axis-path, .y-axis-path2, .x-notch-left, .x-notch-right { display: none;}



.x-axis-label, .data-point-label {font-size: 12px; font-weight:normal; font-family: sans-serif; fill: #58595b; text-anchor:middle;}

.y-axis-label {font-size: 12px; font-family: helvetica; fill: #a7a9ac; text-anchor:end;}



.series-1-line { fill: none; stroke: #10b80c; stroke-width:2; }



.series-2-line { fill: none; stroke: #e90f0a; stroke-width: 2;}
</style>
	<rect fill="white" height="600" width="800" x="0" y="0"/>
	<g id="grid" transform="translate(70, 30)">
		<g class="x-axis" id="x_axis">
			<path class="x-axis-path" d="M 0 525 L 660 525"/>
			<path class="x-notch-left" d="M 0 525, L 0 535"/>
			<path class="x-notch-right" d="M 660 525, L 660 535"/>
		</g>
		<g class="y-axis" id="y_axis">
			<path class="y-axis-path" d="M 0 525 L 0 0"/>
			<path class="y-axis-path-2" d="M 660 525 L 660 0"/>
			<path class="y-gridline" d="M 0 525 L 660 525"/>
			<text class="y-axis-label" x="-5" y="525">-200</text>
			<path class="y-gridline" d="M 0 394 L 660 394"/>
			<text class="y-axis-label" x="-5" y="394"> 0</text>
			<path class="y-gridline" d="M 0 263 L 660 263"/>
			<text class="y-axis-label" x="-5" y="263">200</text>
			<path class="y-gridline" d="M 0 132 L 660 132"/>
			<text class="y-axis-label" x="-5" y="132">400</text>
			<path class="y-gridline" d="M 0 1 L 660 1"/>
			<text class="y-axis-label" x="-5" y="1">600</text>
		</g>
		<g>
			<path class="series-1-line" d="M 40 378.978058225 L 45 390.37382501 L 50 405.24477652 L 55 410.742010783 L 60 378.10665296 L 65 394.631419514 L 70 388.77616704 L 75 362.546270676 L 80 408.753595089 L 85 389.853858687 L 90 415.02281975 L 95 401.408061251 L 101 412.087100381 L 106 388.252930686 L 111 410.70080444 L 116 411.589372245 L 121 382.873168161 L 126 362.709765149 L 131 312.407649471 L 136 325.937757689 L 141 278.578104538 L 146 232.897450399 L 151 205.31350947 L 157 180.606430889 L 162 119.069421364 L 167 142.570959916 L 172 79.0939723364 L 177 104.067554538 L 182 87.0551941885 L 187 138.288142236 L 192 55.8547338361 L 197 36.278076699 L 202 53.7659269975 L 207 0.0 L 212 82.2449757929 L 218 18.8715674437 L 223 65.1696760056 L 228 83.2172603408 L 233 74.6931163664 L 238 47.6953120231 L 243 153.907506225 L 248 96.5358034338 L 253 119.842978606 L 258 210.185616147 L 263 186.85898468 L 268 183.450842296 L 274 209.817666693 L 279 241.092724931 L 284 181.846238072 L 289 225.215897767 L 294 196.706852144 L 299 265.802343102 L 304 205.51478343 L 309 222.664071813 L 314 305.428771626 L 319 208.466446759 L 324 251.288964403 L 330 287.264082538 L 335 253.185317676 L 340 301.982732136 L 345 294.174706527 L 350 297.17161941 L 355 340.697460337 L 360 307.762738229 L 365 318.000042406 L 370 325.150482424 L 375 352.286230284 L 380 364.604258411 L 385 353.243465202 L 391 318.539163028 L 396 417.956153529 L 401 400.240469897 L 406 366.576225052 L 411 390.990885603 L 416 383.508220635 L 421 387.521225457 L 426 390.20679136 L 431 387.215403055 L 436 393.494152767 L 441 368.52690753 L 447 395.8962164 L 452 375.173891737 L 457 412.957787568 L 462 404.78500059 L 467 390.337546318 L 472 377.530299623 L 477 383.782849882 L 482 408.353082375 L 487 414.682403122 L 492 369.74528538 L 497 414.794350282 L 502 421.788202876 L 508 354.887413993 L 513 376.671771384 L 518 411.721987921 L 523 368.684635121 L 528 397.641955759 L 533 373.052673165 L 538 378.3935231 L 543 422.856654514 L 548 394.361622551 L 553 407.826333687 L 558 389.902679207 L 564 390.191909152 L 569 418.199550415 L 574 408.816105023 L 579 387.63782865 L 584 405.932784559 L 589 405.089751349 L 594 411.32930343 L 599 397.584766248 L 604 390.127894539 L 609 393.073424 L 614 406.225569576 L 620 389.695360389"/>
			<path class="series-2-line" d="M 40 337.69535772 L 45 416.295480887 L 50 408.071837479 L 55 396.80174612 L 60 393.655515962 L 65 424.527954579 L 70 421.889465746 L 75 429.405803413 L 80 384.117043279 L 85 436.314617546 L 90 425.552267513 L 95 405.65057363 L 101 417.736583222 L 106 447.593539189 L 111 425.660880005 L 116 420.483684547 L 121 459.479984364 L 126 431.454429281 L 131 431.862388397 L 136 434.809054139 L 141 451.464735656 L 146 423.946921898 L 151 424.862622339 L 157 392.775136656 L 162 442.941745623 L 167 335.708543839 L 172 371.658395706 L 177 351.756701823 L 182 366.889159365 L 187 349.526172106 L 192 312.869014498 L 197 371.66722599 L 202 371.059702457 L 207 297.845169448 L 212 353.59693299 L 218 333.695239107 L 223 254.387810198 L 228 245.656425465 L 233 243.525677957 L 238 271.859409949 L 243 251.957716065 L 248 226.470867607 L 253 209.107880349 L 258 249.119662816 L 263 259.174707108 L 268 211.347240349 L 274 211.755199466 L 279 218.763795808 L 284 188.707275424 L 289 190.130717191 L 294 117.423925507 L 299 145.249916174 L 304 158.859149741 L 309 151.650988983 L 314 106.362228849 L 319 98.6463267661 L 324 66.5588410827 L 330 92.8616077747 L 335 255.746790893 L 340 142.928434534 L 345 147.906065575 L 350 71.1373432917 L 355 67.9911131334 L 360 71.9532615252 L 365 172.894002993 L 370 141.314258634 L 375 219.914381802 L 380 94.9102336425 L 385 238.50124641 L 391 340.457470528 L 396 390.624079495 L 401 376.815281511 L 406 336.096193303 L 411 403.52600732 L 416 397.333329212 L 421 379.970341954 L 426 411.350521896 L 431 377.739812237 L 436 403.027096279 L 441 391.757004921 L 447 394.195929338 L 452 453.501882155 L 457 395.519588896 L 462 378.156601638 L 467 409.029040255 L 472 421.622791172 L 477 431.170094139 L 482 434.624501205 L 487 313.174542321 L 492 427.316558239 L 497 424.170328081 L 502 357.556432297 L 508 412.800454514 L 513 435.041290606 L 518 407.523476848 L 523 423.163675715 L 528 395.645861956 L 533 424.487335273 L 538 397.985004165 L 543 387.222654131 L 548 411.494455523 L 553 384.992124415 L 558 403.678771232 L 564 353.312597848 L 569 394.84760429 L 574 388.147184857 L 579 419.527364799 L 584 411.811462716 L 589 399.525888708 L 594 411.104156974 L 599 431.314027766 L 604 401.257507383 L 609 392.018381325 L 614 354.853482391 L 620 413.651693883"/>
		</g>
		<text class="x-axis-label" x="40.0" y="540">0</text>
		<path class="x-notch" d="M 65.4385964912 525 L 65.4385964912 530"/>
		<text class="x-axis-label" x="90.8771929825" y="540">10</text>
		<path class="x-notch" d="M 116.315789474 525 L 116.315789474 530"/>
		<text class="x-axis-label" x="141.754385965" y="540">20</text>
		<path class="x-notch" d="M 167.192982456 525 L 167.192982456 530"/>
		<text class="x-axis-label" x="192.631578947" y="540">30</text>
		<path class="x-notch" d="M 218.070175439 525 L 218.070175439 530"/>
		<text class="x-axis-label" x="243.50877193" y="540">40</text>
		<path class="x-notch" d="M 268.947368421 525 L 268.947368421 530"/>
		<text class="x-axis-label" x="294.385964912" y="540">50</text>
		<path class="x-notch" d="M 319.824561404 525 L 319.824561404 530"/>
		<text class="x-axis-label" x="345.263157895" y="540">60</text>
		<path class="x-notch" d="M 370.701754386 525 L 370.701754386 530"/>
		<text class="x-axis-label" x="396.140350877" y="540">70</text>
		<path class="x-notch" d="M 421.578947368 525 L 421.578947368 530"/>
		<text class="x-axis-label" x="447.01754386" y="540">80</text>
		<path class="x-notch" d="M 472.456140351 525 L 472.456140351 530"/>
		<text class="x-axis-label" x="497.894736842" y="540">90</text>
		<path class="x-notch" d="M 523.333333333 525 L 523.333333333 530"/>
		<text class="x-axis-label" x="548.771929825" y="540">100</text>
		<path class="x-notch" d="M 574.210526316 525 L 574.210526316 530"/>
		<text class="x-axis-label" x="599.649122807" y="540">110</text>
		<path class="x-notch" d="M 625.087719298 525 L 625.087719298 530"/>
	</g>
</svg>
