<?xml version="1.0" ?>
<svg height="600" version="1.1" width="800" xmlns="http://www.w3.org/2000/svg" xmlns:svg="http://www.w3.org/2000/svg">
	<style type="text/css">

.x-axis-path, .y-gridline, .x-notch { fill:none; stroke: #a7a9ac; stroke-width:1; }



.y-gridline { stroke-width: 1; }

.y-axis-path, .y-axis-path2, .x-notch-left, .x-notch-right { display: none;}



.x-axis-label, .data-point-label {font-size: 12px; font-weight:normal; font-family: sans-serif; fill: #58595b; text-anchor:middle;}

.y-axis-label {font-size: 12px; font-family: helvetica; fill: #a7a9ac; text-anchor:end;}



.series-1-line { fill: none; stroke: #10b80c; stroke-width:2; }



.series-2-line { fill: none; stroke: #e90f0a; stroke-width: 2;}
</style>
	<rect fill="white" height="600" width="800" x="0" y="0"/>
	<g id="grid" transform="translate(70, 30)">
		<g class="x-axis" id="x_axis">
			<path class="x-axis-path" d="M 0 525 L 660 525"/>
			<path class="x-notch-left" d="M 0 525, L 0 535"/>
			<path class="x-notch-right" d="M 660 525, L 660 535"/>
		</g>
		<g class="y-axis" id="y_axis">
			<path class="y-axis-path" d="M 0 525 L 0 0"/>
			<path class="y-axis-path-2" d="M 660 525 L 660 0"/>
			<path class="y-gridline" d="M 0 525 L 660 525"/>
			<text class="y-axis-label" x="-5" y="525">-250</text>
			<path class="y-gridline" d="M 0 420 L 660 420"/>
			<text class="y-axis-label" x="-5" y="420"> 0</text>
			<path class="y-gridline" d="M 0 315 L 660 315"/>
			<text class="y-axis-label" x="-5" y="315">250</text>
			<path class="y-gridline" d="M 0 210 L 660 210"/>
			<text class="y-axis-label" x="-5" y="210">500</text>
			<path class="y-gridline" d="M 0 105 L 660 105"/>
			<text class="y-axis-label" x="-5" y="105">750</text>
			<path class="y-gridline" d="M 0 0 L 660 0"/>
			<text class="y-axis-label" x="-5" y="0">1000</text>
		</g>
		<g>
			<path class="series-1-line" d="M 40 424.783941218 L 45 415.585297674 L 51 431.395868445 L 57 413.633471132 L 63 409.146606114 L 69 419.995196665 L 74 401.757840203 L 80 419.652011528 L 86 455.963218617 L 92 447.738524044 L 98 387.138981489 L 103 397.240147486 L 109 408.882810365 L 115 376.758199668 L 121 422.878161333 L 127 360.874238079 L 132 390.072719872 L 138 330.787089607 L 144 367.641460546 L 150 322.967185183 L 156 364.013494684 L 161 348.131850789 L 167 329.2594485 L 173 368.901730695 L 179 355.578999895 L 185 289.951039382 L 190 327.009671026 L 196 318.014228011 L 202 285.346806858 L 208 334.161737624 L 214 286.497764044 L 219 346.573538035 L 225 235.410989433 L 231 332.750206506 L 237 316.710242894 L 243 266.531176854 L 248 334.873501754 L 254 296.021716677 L 260 325.808596523 L 266 309.044532244 L 272 306.662471313 L 277 168.0 L 283 280.948198223 L 289 260.354069018 L 295 237.90215689 L 301 272.401522046 L 306 336.940639828 L 312 344.414334638 L 318 313.015944962 L 324 376.714342643 L 330 366.019789815 L 335 270.422401728 L 341 390.910929839 L 347 365.016270663 L 353 380.305587903 L 359 322.991179465 L 364 363.064600174 L 370 345.074971661 L 376 427.757953018 L 382 397.764297433 L 388 399.258242418 L 393 441.93475025 L 399 391.437631208 L 405 379.02241164 L 411 391.458440062 L 417 322.863045043 L 422 347.825060852 L 428 365.085599919 L 434 400.558207261 L 440 345.05634754 L 446 366.393972698 L 451 382.046223753 L 457 364.963753079 L 463 359.660905415 L 469 420.913475513 L 475 355.873913053 L 480 387.428814197 L 486 414.791776778 L 492 419.954639834 L 498 410.416386363 L 504 387.376429573 L 509 373.646590931 L 515 412.49515419 L 521 393.034000456 L 527 398.446711814 L 533 405.5352091 L 538 425.536304865 L 544 416.767739659 L 550 417.083121575 L 556 409.424207952 L 562 437.535301871 L 567 436.536771498 L 573 416.396397909 L 579 446.319333761 L 585 425.340713816 L 591 449.64577348 L 596 409.321403005 L 602 397.992864526 L 608 422.887029028 L 614 424.76511136 L 620 453.215815207"/>
			<path class="series-2-line" d="M 40 376.532756423 L 45 416.502816554 L 51 448.52155164 L 57 411.628803006 L 63 440.11361585 L 69 384.667775445 L 74 421.987393895 L 80 404.531217592 L 86 373.822832882 L 92 399.657204044 L 98 395.453236149 L 103 353.259604152 L 109 415.316678296 L 115 379.307410223 L 121 334.463336544 L 127 342.628096496 L 132 353.44329813 L 138 351.006291356 L 144 269.939514697 L 150 262.20162456 L 156 285.385554041 L 161 299.734677917 L 167 263.725409843 L 173 333.733809032 L 179 258.851396295 L 185 315.607587076 L 190 271.646993958 L 196 245.35601205 L 202 294.160877786 L 208 173.337475903 L 214 218.608419397 L 219 305.402949236 L 225 229.637055939 L 231 188.326904502 L 237 227.413484073 L 243 217.025152254 L 248 116.521803263 L 254 165.326668999 L 260 118.715634199 L 266 236.431983656 L 272 74.0849954285 L 277 119.355938923 L 283 158.442518493 L 289 115.365405935 L 295 51.9682404859 L 301 62.7834421197 L 306 211.421611194 L 312 200.149798815 L 318 292.245212016 L 324 192.625343586 L 330 155.732594952 L 335 305.254244587 L 341 28.9382640529 L 347 20.3168933554 L 353 30.2486144288 L 359 64.9177911966 L 364 205.604635226 L 370 100.683883433 L 376 106.198201703 L 382 220.380628918 L 388 280.67074194 L 393 221.690979294 L 399 122.954591423 L 405 182.361223886 L 411 293.009728858 L 417 364.785089167 L 422 347.328912865 L 428 394.36681748 L 434 322.134846425 L 440 384.191920569 L 446 380.871433235 L 451 437.627624015 L 457 432.54017556 L 463 415.967479818 L 469 387.909536789 L 475 387.239491136 L 480 443.995681917 L 486 396.501166557 L 492 366.676262407 L 498 425.199414309 L 504 453.684227153 L 509 442.412414774 L 515 429.373641274 L 521 416.334867774 L 527 451.004044542 L 533 430.897426557 L 538 429.343900344 L 544 436.625179736 L 550 439.489056325 L 556 411.431113296 L 562 419.595873249 L 567 420.692788717 L 573 444.760198758 L 579 411.401372366 L 585 428.400937924 L 591 410.061281061 L 596 447.38089951 L 602 440.526489934 L 608 433.672080357 L 614 399.429773405 L 620 389.041441586"/>
		</g>
		<text class="x-axis-label" x="40.0" y="540">0</text>
		<path class="x-notch" d="M 69.0 525 L 69.0 530"/>
		<text class="x-axis-label" x="98.0" y="540">10</text>
		<path class="x-notch" d="M 127.0 525 L 127.0 530"/>
		<text class="x-axis-label" x="156.0" y="540">20</text>
		<path class="x-notch" d="M 185.0 525 L 185.0 530"/>
		<text class="x-axis-label" x="214.0" y="540">30</text>
		<path class="x-notch" d="M 243.0 525 L 243.0 530"/>
		<text class="x-axis-label" x="272.0" y="540">40</text>
		<path class="x-notch" d="M 301.0 525 L 301.0 530"/>
		<text class="x-axis-label" x="330.0" y="540">50</text>
		<path class="x-notch" d="M 359.0 525 L 359.0 530"/>
		<text class="x-axis-label" x="388.0" y="540">60</text>
		<path class="x-notch" d="M 417.0 525 L 417.0 530"/>
		<text class="x-axis-label" x="446.0" y="540">70</text>
		<path class="x-notch" d="M 475.0 525 L 475.0 530"/>
		<text class="x-axis-label" x="504.0" y="540">80</text>
		<path class="x-notch" d="M 533.0 525 L 533.0 530"/>
		<text class="x-axis-label" x="562.0" y="540">90</text>
		<path class="x-notch" d="M 591.0 525 L 591.0 530"/>
		<text class="x-axis-label" x="620.0" y="540">100</text>
	</g>
</svg>
