<?xml version="1.0" ?>
<svg height="600" version="1.1" width="800" xmlns="http://www.w3.org/2000/svg" xmlns:svg="http://www.w3.org/2000/svg">
	<style type="text/css">
		

.x-axis-path, .y-gridline, .x-notch { fill:none; stroke: #a7a9ac; stroke-width:1; }



.y-gridline { stroke-width: 1; }

.y-axis-path, .y-axis-path2, .x-notch-left, .x-notch-right { display: none;}



.x-axis-label, .data-point-label {font-size: 12px; font-weight:normal; font-family: sans-serif; fill: #58595b; text-anchor:middle;}

.y-axis-label {font-size: 12px; font-family: helvetica; fill: #a7a9ac; text-anchor:end;}



.series-1-line { fill: none; stroke: #10b80c; stroke-width:2; }



.series-2-line { fill: none; stroke: #e90f0a; stroke-width: 2;}

	</style>
	<rect fill="white" height="600" width="800" x="0" y="0"/>
	<g id="grid" transform="translate(70, 30)">
		<g class="x-axis" id="x_axis">
			<path class="x-axis-path" d="M 0 525 L 660 525"/>
			<path class="x-notch-left" d="M 0 525, L 0 535"/>
			<path class="x-notch-right" d="M 660 525, L 660 535"/>
		</g>
		<g class="y-axis" id="y_axis">
			<path class="y-axis-path" d="M 0 525 L 0 0"/>
			<path class="y-axis-path-2" d="M 660 525 L 660 0"/>
			<path class="y-gridline" d="M 0 525 L 660 525"/>
			<text class="y-axis-label" x="-5" y="525">
				-200
			</text>
			<path class="y-gridline" d="M 0 420 L 660 420"/>
			<text class="y-axis-label" x="-5" y="420">
				 0
			</text>
			<path class="y-gridline" d="M 0 315 L 660 315"/>
			<text class="y-axis-label" x="-5" y="315">
				200
			</text>
			<path class="y-gridline" d="M 0 210 L 660 210"/>
			<text class="y-axis-label" x="-5" y="210">
				400
			</text>
			<path class="y-gridline" d="M 0 105 L 660 105"/>
			<text class="y-axis-label" x="-5" y="105">
				600
			</text>
			<path class="y-gridline" d="M 0 0 L 660 0"/>
			<text class="y-axis-label" x="-5" y="0">
				800
			</text>
		</g>
		<g>
			<path class="series-1-line" d="M 40 422.37993 L 47 419.597175375 L 54 414.43155075 L 62 427.277416125 L 69 415.6771815 L 76 408.869356875 L 84 423.55944225 L 91 414.665057625 L 98 410.899503 L 106 414.927888375 L 113 409.46637375 L 120 421.625749125 L 128 404.4525345 L 135 420.219499875 L 142 397.29816525 L 150 406.953710625 L 157 393.334116 L 164 384.776361375 L 172 393.42222675 L 179 368.939332125 L 186 363.3833175 L 194 363.992692875 L 201 354.70791825 L 208 332.042363625 L 216 334.899789 L 223 322.383954375 L 230 280.52229975 L 238 270.146995125 L 245 330.9833205 L 252 296.242765875 L 260 254.46175125 L 267 262.932686625 L 274 244.790112 L 282 240.122397375 L 289 184.83943275 L 296 179.094628125 L 304 146.5349235 L 311 179.209618875 L 318 165.71161425 L 326 142.386029625 L 333 195.320475 L 341 104.485350375 L 348 129.83713575 L 355 126.960301125 L 363 94.5076965 L 370 100.784341875 L 377 105.02797725 L 385 70.193132625 L 392 35.976738 L 399 51.434373375 L 407 15.10558875 L 414 32.164684125 L 421 71.6106195 L 429 41.110384875 L 436 119.20472025 L 443 135.888125625 L 451 352.919721 L 458 433.517676375 L 465 403.21946175 L 473 421.598197125 L 480 412.9325025 L 487 407.712907875 L 495 423.38600325 L 502 433.283888625 L 509 427.054824 L 517 413.152779375 L 524 414.87914475 L 531 427.819720125 L 539 429.3848055 L 546 419.480740875 L 553 411.64979625 L 561 430.162931625 L 568 421.834077 L 575 432.970332375 L 583 422.21828775 L 590 422.060323125 L 597 434.8387785 L 605 412.321483875 L 612 421.22312925 L 620 410.511404625"/>
			<path class="series-2-line" d="M 40 413.175 L 47 427.7240625 L 54 424.948125 L 62 417.4471875 L 69 415.19625 L 76 422.9203125 L 84 414.369375 L 91 419.9934375 L 98 424.0425 L 106 399.7415625 L 113 422.690625 L 120 419.9146875 L 128 427.11375 L 135 414.3628125 L 142 417.361875 L 150 416.1609375 L 157 401.31 L 164 415.8590625 L 172 408.358125 L 179 409.2571875 L 186 405.95625 L 194 403.1803125 L 201 408.279375 L 208 412.3284375 L 216 406.9275 L 223 383.6765625 L 230 392.975625 L 238 383.8996875 L 245 383.74875 L 252 387.7978125 L 260 384.496875 L 267 383.8209375 L 274 378.42 L 282 359.3690625 L 289 353.443125 L 296 318.1171875 L 304 330.04125 L 311 320.9653125 L 318 348.639375 L 326 312.2634375 L 333 316.3125 L 341 287.2865625 L 348 294.485625 L 355 323.7346875 L 363 277.90875 L 370 271.4578125 L 377 234.031875 L 385 232.3059375 L 392 154.455 L 399 169.5290625 L 407 196.153125 L 414 166.0771875 L 421 165.40125 L 429 163.1503125 L 436 193.974375 L 443 284.1234375 L 451 385.2975 L 458 394.0715625 L 465 401.270625 L 473 411.0946875 L 480 401.49375 L 487 386.6428125 L 495 409.066875 L 502 411.0159375 L 509 410.34 L 517 419.1140625 L 524 385.363125 L 531 424.5871875 L 539 416.03625 L 546 415.3603125 L 553 418.884375 L 561 407.7084375 L 568 427.5075 L 575 420.5315625 L 583 429.305625 L 590 423.3796875 L 597 405.90375 L 605 427.8028125 L 612 421.351875 L 620 423.8259375"/>
		</g>
		<text class="x-axis-label" x="40.0" y="540">
			0
		</text>
		<path class="x-notch" d="M 76.7088607595 525 L 76.7088607595 530"/>
		<text class="x-axis-label" x="113.417721519" y="540">
			10
		</text>
		<path class="x-notch" d="M 150.126582278 525 L 150.126582278 530"/>
		<text class="x-axis-label" x="186.835443038" y="540">
			20
		</text>
		<path class="x-notch" d="M 223.544303797 525 L 223.544303797 530"/>
		<text class="x-axis-label" x="260.253164557" y="540">
			30
		</text>
		<path class="x-notch" d="M 296.962025316 525 L 296.962025316 530"/>
		<text class="x-axis-label" x="333.670886076" y="540">
			40
		</text>
		<path class="x-notch" d="M 370.379746835 525 L 370.379746835 530"/>
		<text class="x-axis-label" x="407.088607595" y="540">
			50
		</text>
		<path class="x-notch" d="M 443.797468354 525 L 443.797468354 530"/>
		<text class="x-axis-label" x="480.506329114" y="540">
			60
		</text>
		<path class="x-notch" d="M 517.215189873 525 L 517.215189873 530"/>
		<text class="x-axis-label" x="553.924050633" y="540">
			70
		</text>
		<path class="x-notch" d="M 590.632911392 525 L 590.632911392 530"/>
	</g>
</svg>
