<?xml version="1.0" ?>
<svg height="600" version="1.1" width="800" xmlns="http://www.w3.org/2000/svg" xmlns:svg="http://www.w3.org/2000/svg">
	<style type="text/css">
		

.x-axis-path, .y-gridline, .x-notch { fill:none; stroke: #a7a9ac; stroke-width:1; }



.y-gridline { stroke-width: 1; }

.y-axis-path, .y-axis-path2, .x-notch-left, .x-notch-right { display: none;}



.x-axis-label, .data-point-label {font-size: 12px; font-weight:normal; font-family: sans-serif; fill: #58595b; text-anchor:middle;}

.y-axis-label {font-size: 12px; font-family: helvetica; fill: #a7a9ac; text-anchor:end;}



.series-1-line { fill: none; stroke: #10b80c; stroke-width:2; }



.series-2-line { fill: none; stroke: #e90f0a; stroke-width: 2;}

	</style>
	<rect fill="white" height="600" width="800" x="0" y="0"/>
	<g id="grid" transform="translate(70, 30)">
		<g class="x-axis" id="x_axis">
			<path class="x-axis-path" d="M 0 525 L 660 525"/>
			<path class="x-notch-left" d="M 0 525, L 0 535"/>
			<path class="x-notch-right" d="M 660 525, L 660 535"/>
		</g>
		<g class="y-axis" id="y_axis">
			<path class="y-axis-path" d="M 0 525 L 0 0"/>
			<path class="y-axis-path-2" d="M 660 525 L 660 0"/>
			<path class="y-gridline" d="M 0 525 L 660 525"/>
			<text class="y-axis-label" x="-5" y="525">
				-100
			</text>
			<path class="y-gridline" d="M 0 438 L 660 438"/>
			<text class="y-axis-label" x="-5" y="438">
				 0
			</text>
			<path class="y-gridline" d="M 0 351 L 660 351"/>
			<text class="y-axis-label" x="-5" y="351">
				100
			</text>
			<path class="y-gridline" d="M 0 264 L 660 264"/>
			<text class="y-axis-label" x="-5" y="264">
				200
			</text>
			<path class="y-gridline" d="M 0 177 L 660 177"/>
			<text class="y-axis-label" x="-5" y="177">
				300
			</text>
			<path class="y-gridline" d="M 0 90 L 660 90"/>
			<text class="y-axis-label" x="-5" y="90">
				400
			</text>
			<path class="y-gridline" d="M 0 3 L 660 3"/>
			<text class="y-axis-label" x="-5" y="3">
				500
			</text>
		</g>
		<g>
			<path class="series-1-line" d="M 40 460.38468 L 46 412.678235455 L 53 454.468890909 L 60 417.285196364 L 66 436.998551818 L 73 447.064857273 L 80 429.647062727 L 86 449.809468182 L 93 448.612773636 L 100 401.153079091 L 106 413.911584545 L 113 375.17984 L 120 380.108145455 L 126 364.664700909 L 133 243.884556364 L 140 181.998911818 L 146 231.013917273 L 153 269.192222727 L 160 275.489028182 L 166 285.577733636 L 173 307.086239091 L 180 267.142794545 L 186 235.725 L 193 197.755905455 L 200 229.136160909 L 206 183.022916364 L 213 211.755771818 L 220 180.562327273 L 226 198.884782727 L 233 125.063088182 L 240 175.917693636 L 246 168.595999091 L 253 139.713604545 L 260 162.81496 L 266 136.691965455 L 273 121.293320909 L 280 160.526176364 L 286 134.807081818 L 293 154.722737273 L 300 157.901042727 L 306 126.303698182 L 313 99.7320036364 L 320 133.400909091 L 326 113.762014545 L 333 115.63902 L 340 128.419925455 L 346 83.9219309091 L 353 105.116486364 L 360 153.233741818 L 366 174.450697273 L 373 227.436802727 L 380 199.339458182 L 386 234.735613636 L 393 261.516519091 L 400 234.877624545 L 406 198.27703 L 413 231.721235455 L 420 210.467090909 L 426 247.030146364 L 433 258.487351818 L 440 251.749107273 L 446 214.049162727 L 453 276.996618182 L 460 252.489223636 L 466 218.805179091 L 473 238.025384545 L 480 240.46344 L 486 183.513495455 L 493 220.031750909 L 500 207.145756364 L 506 253.468211818 L 513 271.409517273 L 520 264.244972727 L 526 263.743728182 L 533 303.560033636 L 540 374.651989091 L 546 368.160494545 L 553 383.6784 L 560 459.571655455 L 566 466.407110909 L 573 440.463666364 L 580 446.940021818 L 586 451.688777273 L 593 446.924882727 L 600 427.308388182 L 606 457.791243636 L 613 450.469549091 L 620 413.532604545"/>
			<path class="series-2-line" d="M 40 443.8 L 46 426.252272727 L 53 438.454545455 L 60 451.531818182 L 66 426.984090909 L 73 440.061363636 L 80 440.888636364 L 86 448.715909091 L 93 444.293181818 L 100 422.370454545 L 106 424.947727273 L 113 440.65 L 120 436.227272727 L 126 436.179545455 L 133 420.381818182 L 140 430.834090909 L 146 442.161363636 L 153 437.738636364 L 160 424.565909091 L 166 434.143181818 L 173 436.720454545 L 180 436.672727273 L 186 437.5 L 193 436.577272727 L 200 434.779545455 L 206 441.731818182 L 213 443.434090909 L 220 443.386363636 L 226 431.088636364 L 233 426.665909091 L 240 423.993181818 L 246 419.570454545 L 253 434.397727273 L 260 427.35 L 266 421.177272727 L 273 414.129545455 L 280 415.831818182 L 286 414.909090909 L 293 427.111363636 L 300 422.688636364 L 306 417.390909091 L 313 412.968181818 L 320 429.545454545 L 326 435.622727273 L 333 429.45 L 340 428.527272727 L 346 422.354545455 L 353 439.806818182 L 360 420.509090909 L 366 434.461363636 L 373 440.538636364 L 380 435.240909091 L 386 421.193181818 L 393 420.270454545 L 400 426.347727273 L 406 416.675 L 413 400.002272727 L 420 419.204545455 L 426 427.906818182 L 433 428.734090909 L 440 435.686363636 L 446 426.888636364 L 453 414.590909091 L 460 429.418181818 L 466 408.370454545 L 473 426.697727273 L 480 435.4 L 486 426.602272727 L 493 442.304545455 L 500 418.631818182 L 506 406.334090909 L 513 419.411363636 L 520 424.613636364 L 526 414.065909091 L 533 427.143181818 L 540 441.095454545 L 546 443.672727273 L 553 425.25 L 560 440.952272727 L 566 446.154545455 L 573 446.106818182 L 580 439.059090909 L 586 428.511363636 L 593 434.588636364 L 600 437.165909091 L 606 438.868181818 L 613 434.445454545 L 620 443.147727273"/>
		</g>
		<text class="x-axis-label" x="40.0" y="540">
			0
		</text>
		<path class="x-notch" d="M 73.3333333333 525 L 73.3333333333 530"/>
		<text class="x-axis-label" x="106.666666667" y="540">
			10
		</text>
		<path class="x-notch" d="M 140.0 525 L 140.0 530"/>
		<text class="x-axis-label" x="173.333333333" y="540">
			20
		</text>
		<path class="x-notch" d="M 206.666666667 525 L 206.666666667 530"/>
		<text class="x-axis-label" x="240.0" y="540">
			30
		</text>
		<path class="x-notch" d="M 273.333333333 525 L 273.333333333 530"/>
		<text class="x-axis-label" x="306.666666667" y="540">
			40
		</text>
		<path class="x-notch" d="M 340.0 525 L 340.0 530"/>
		<text class="x-axis-label" x="373.333333333" y="540">
			50
		</text>
		<path class="x-notch" d="M 406.666666667 525 L 406.666666667 530"/>
		<text class="x-axis-label" x="440.0" y="540">
			60
		</text>
		<path class="x-notch" d="M 473.333333333 525 L 473.333333333 530"/>
		<text class="x-axis-label" x="506.666666667" y="540">
			70
		</text>
		<path class="x-notch" d="M 540.0 525 L 540.0 530"/>
		<text class="x-axis-label" x="573.333333333" y="540">
			80
		</text>
		<path class="x-notch" d="M 606.666666667 525 L 606.666666667 530"/>
	</g>
</svg>
