<?xml version="1.0" ?>
<svg height="600" version="1.1" width="800" xmlns="http://www.w3.org/2000/svg" xmlns:svg="http://www.w3.org/2000/svg">
	<style type="text/css">

.x-axis-path, .y-gridline, .x-notch { fill:none; stroke: #a7a9ac; stroke-width:1; }



.y-gridline { stroke-width: 1; }

.y-axis-path, .y-axis-path2, .x-notch-left, .x-notch-right { display: none;}



.x-axis-label, .data-point-label {font-size: 12px; font-weight:normal; font-family: sans-serif; fill: #58595b; text-anchor:middle;}

.y-axis-label {font-size: 12px; font-family: helvetica; fill: #a7a9ac; text-anchor:end;}



.series-1-line { fill: none; stroke: #10b80c; stroke-width:2; }



.series-2-line { fill: none; stroke: #e90f0a; stroke-width: 2;}
</style>
	<rect fill="white" height="600" width="800" x="0" y="0"/>
	<g id="grid" transform="translate(70, 30)">
		<g class="x-axis" id="x_axis">
			<path class="x-axis-path" d="M 0 525 L 660 525"/>
			<path class="x-notch-left" d="M 0 525, L 0 535"/>
			<path class="x-notch-right" d="M 660 525, L 660 535"/>
		</g>
		<g class="y-axis" id="y_axis">
			<path class="y-axis-path" d="M 0 525 L 0 0"/>
			<path class="y-axis-path-2" d="M 660 525 L 660 0"/>
			<path class="y-gridline" d="M 0 525 L 660 525"/>
			<text class="y-axis-label" x="-5" y="525">-200</text>
			<path class="y-gridline" d="M 0 394 L 660 394"/>
			<text class="y-axis-label" x="-5" y="394"> 0</text>
			<path class="y-gridline" d="M 0 263 L 660 263"/>
			<text class="y-axis-label" x="-5" y="263">200</text>
			<path class="y-gridline" d="M 0 132 L 660 132"/>
			<text class="y-axis-label" x="-5" y="132">400</text>
			<path class="y-gridline" d="M 0 1 L 660 1"/>
			<text class="y-axis-label" x="-5" y="1">600</text>
		</g>
		<g>
			<path class="series-1-line" d="M 40 394.966529078 L 48 373.444336993 L 57 412.477458727 L 65 394.917790408 L 74 387.046965374 L 82 400.331127727 L 91 420.007859334 L 99 398.630067529 L 108 424.444503628 L 116 406.129936959 L 125 365.451506695 L 133 405.683289271 L 142 390.898045527 L 150 355.857632453 L 159 380.861764819 L 167 347.985624534 L 176 328.838938263 L 185 302.488513296 L 193 295.58330021 L 202 227.413238114 L 210 226.112972129 L 219 186.988316587 L 227 149.061629319 L 236 156.440962932 L 244 163.609582947 L 253 115.127823852 L 261 110.098602421 L 270 83.4046640762 L 278 78.7527186779 L 287 128.907086001 L 295 80.9582574379 L 304 109.791767508 L 312 36.7037850648 L 321 76.6142164171 L 330 83.7274310482 L 338 123.759061677 L 347 125.000517657 L 355 127.962310793 L 364 87.3725291422 L 372 0.0 L 381 60.5648657274 L 389 90.5191228192 L 398 72.1933019323 L 406 112.314446883 L 415 101.013855474 L 423 50.0909698132 L 432 143.597625684 L 440 135.761255873 L 449 228.046742465 L 457 220.598037196 L 466 234.447853885 L 475 248.785584232 L 483 229.594227371 L 492 199.792393299 L 500 277.882328089 L 509 259.346313029 L 517 278.823412114 L 526 329.46621252 L 534 397.590450249 L 543 385.35835583 L 551 364.402337507 L 560 407.253409585 L 568 411.469442088 L 577 395.71893268 L 585 390.234694537 L 594 400.909955897 L 602 412.59584608 L 611 393.35999177 L 620 380.494890846"/>
			<path class="series-2-line" d="M 40 403.186229365 L 48 393.076252471 L 57 389.891948504 L 65 403.156117744 L 74 373.567685737 L 82 403.280328182 L 91 397.931751426 L 99 399.07599304 L 108 398.488816422 L 116 394.43880334 L 125 418.524336531 L 133 414.041468891 L 142 399.602946415 L 150 405.07573361 L 159 395.831465831 L 167 401.304253026 L 176 425.822640775 L 185 392.338517746 L 193 364.048649413 L 202 405.881219483 L 210 381.054187615 L 219 399.079756993 L 227 348.281451642 L 236 353.754238837 L 244 375.242644679 L 253 316.652957284 L 261 316.498635224 L 270 336.688477392 L 278 328.309918729 L 287 345.902633549 L 295 305.492837591 L 304 323.518406969 L 312 254.540210181 L 321 300.268471273 L 330 330.413968277 L 338 289.571317761 L 347 273.401377053 L 355 258.962854578 L 364 269.197041911 L 372 166.456189595 L 381 163.704740187 L 389 158.789017989 L 398 139.589095375 L 406 169.30173782 L 415 117.637723354 L 423 119.214819526 L 432 160.18168048 L 440 243.568288123 L 449 255.533893688 L 457 261.439535441 L 466 253.493831336 L 475 203.128380543 L 483 200.809785693 L 492 199.356899959 L 500 197.471159667 L 509 244.930838992 L 517 253.866462651 L 526 279.683414074 L 534 380.817058596 L 543 407.066864577 L 551 409.942524423 L 560 401.996820319 L 568 394.483970772 L 577 412.50954015 L 585 415.818054555 L 594 379.736804177 L 602 405.5537556 L 611 393.279505915 L 620 383.16952902"/>
		</g>
		<text class="x-axis-label" x="40.0" y="540">0</text>
		<path class="x-notch" d="M 82.6470588235 525 L 82.6470588235 530"/>
		<text class="x-axis-label" x="125.294117647" y="540">10</text>
		<path class="x-notch" d="M 167.941176471 525 L 167.941176471 530"/>
		<text class="x-axis-label" x="210.588235294" y="540">20</text>
		<path class="x-notch" d="M 253.235294118 525 L 253.235294118 530"/>
		<text class="x-axis-label" x="295.882352941" y="540">30</text>
		<path class="x-notch" d="M 338.529411765 525 L 338.529411765 530"/>
		<text class="x-axis-label" x="381.176470588" y="540">40</text>
		<path class="x-notch" d="M 423.823529412 525 L 423.823529412 530"/>
		<text class="x-axis-label" x="466.470588235" y="540">50</text>
		<path class="x-notch" d="M 509.117647059 525 L 509.117647059 530"/>
		<text class="x-axis-label" x="551.764705882" y="540">60</text>
		<path class="x-notch" d="M 594.411764706 525 L 594.411764706 530"/>
	</g>
</svg>
