<?xml version="1.0" ?>
<svg height="600" version="1.1" width="800" xmlns="http://www.w3.org/2000/svg" xmlns:svg="http://www.w3.org/2000/svg">
	<style type="text/css">
		

.x-axis-path, .y-gridline, .x-notch { fill:none; stroke: #a7a9ac; stroke-width:1; }



.y-gridline { stroke-width: 1; }

.y-axis-path, .y-axis-path2, .x-notch-left, .x-notch-right { display: none;}



.x-axis-label, .data-point-label {font-size: 12px; font-weight:normal; font-family: sans-serif; fill: #58595b; text-anchor:middle;}

.y-axis-label {font-size: 12px; font-family: helvetica; fill: #a7a9ac; text-anchor:end;}



.series-1-line { fill: none; stroke: #10b80c; stroke-width:2; }



.series-2-line { fill: none; stroke: #e90f0a; stroke-width: 2;}

	</style>
	<rect fill="white" height="600" width="800" x="0" y="0"/>
	<g id="grid" transform="translate(70, 30)">
		<g class="x-axis" id="x_axis">
			<path class="x-axis-path" d="M 0 525 L 660 525"/>
			<path class="x-notch-left" d="M 0 525, L 0 535"/>
			<path class="x-notch-right" d="M 660 525, L 660 535"/>
		</g>
		<g class="y-axis" id="y_axis">
			<path class="y-axis-path" d="M 0 525 L 0 0"/>
			<path class="y-axis-path-2" d="M 660 525 L 660 0"/>
			<path class="y-gridline" d="M 0 525 L 660 525"/>
			<text class="y-axis-label" x="-5" y="525">
				-200
			</text>
			<path class="y-gridline" d="M 0 394 L 660 394"/>
			<text class="y-axis-label" x="-5" y="394">
				 0
			</text>
			<path class="y-gridline" d="M 0 263 L 660 263"/>
			<text class="y-axis-label" x="-5" y="263">
				200
			</text>
			<path class="y-gridline" d="M 0 132 L 660 132"/>
			<text class="y-axis-label" x="-5" y="132">
				400
			</text>
			<path class="y-gridline" d="M 0 1 L 660 1"/>
			<text class="y-axis-label" x="-5" y="1">
				600
			</text>
		</g>
		<g>
			<path class="series-1-line" d="M 40 363.172005 L 43 408.4781829 L 46 397.7511108 L 50 397.1872512 L 53 400.2241041 L 56 399.693582 L 60 400.6446099 L 63 409.6885128 L 66 411.2955282 L 70 386.0464311 L 73 391.540284 L 76 423.5697369 L 80 414.6263523 L 83 388.8895302 L 86 389.8733706 L 90 392.6912985 L 93 393.0868764 L 96 381.6864918 L 100 388.8797697 L 103 401.3902476 L 106 397.6462005 L 110 379.6497159 L 113 354.0808938 L 116 385.6900842 L 120 370.5372621 L 123 359.843265 L 126 387.9354804 L 130 380.1360708 L 133 343.7813862 L 136 362.2991766 L 140 349.501767 L 143 335.0225199 L 146 347.6505978 L 150 318.2114757 L 153 314.6695536 L 156 331.588719 L 160 331.1088594 L 163 284.6410998 L 166 287.4931527 L 170 282.4195431 L 173 313.910871 L 176 303.2171364 L 180 280.7781018 L 183 270.4718172 L 186 286.9365951 L 190 244.6924605 L 193 265.8853884 L 196 252.9706413 L 200 221.5630317 L 203 240.9221346 L 206 271.42095 L 210 213.2582904 L 213 228.1081683 L 216 214.9571712 L 220 251.7659616 L 223 213.3414645 L 226 191.4576174 L 230 143.4922953 L 233 181.0583982 L 236 170.3982636 L 240 161.4204915 L 243 132.2005569 L 246 149.0861223 L 250 162.0848502 L 253 144.0206406 L 256 140.2765935 L 260 134.6811339 L 263 137.1798618 L 266 162.8156022 L 270 108.9101676 L 273 171.2284455 L 276 107.5637859 L 280 122.8000638 L 283 112.4767167 L 286 150.7828071 L 290 149.2933725 L 293 113.7632004 L 296 123.4969533 L 300 136.4959437 L 303 79.0564716 L 306 32.319912 L 310 61.9264899 L 313 152.9683053 L 316 88.9335207 L 320 74.6724111 L 323 117.067464 L 326 97.3376919 L 330 156.3408573 L 333 86.3488977 L 336 81.6795381 L 340 114.180441 L 343 111.2942439 L 346 147.9683718 L 350 115.9042497 L 353 190.0854276 L 356 77.841468 L 360 146.9907834 L 363 187.1149488 L 366 146.0147892 L 370 220.9535421 L 373 144.98787 L 376 177.2029104 L 380 196.8988008 L 383 200.5079037 L 386 218.0833191 L 390 219.1348845 L 393 234.8756874 L 396 297.8334153 L 400 250.2558057 L 403 257.0957586 L 406 281.6712615 L 410 304.9846644 L 413 238.4595423 L 416 273.1478577 L 420 292.1533731 L 423 295.1232885 L 426 301.8960414 L 430 331.1999568 L 433 287.8617222 L 436 301.4831001 L 440 334.051203 L 443 328.4058684 L 446 342.0603213 L 450 356.5899492 L 453 322.5240021 L 456 357.9698925 L 460 341.9082954 L 463 361.6881858 L 466 365.6338137 L 470 324.2984541 L 473 350.118732 L 476 383.1417474 L 480 367.4161503 L 483 355.8981657 L 486 356.4617436 L 490 366.3136215 L 493 371.6728119 L 496 389.5340898 L 500 361.3743927 L 503 391.5196206 L 506 388.6166235 L 510 404.7283389 L 513 407.6814543 L 516 393.0499572 L 520 400.3778976 L 523 385.208538 L 526 405.9812034 L 530 395.6239938 L 533 398.1056592 L 536 396.8015496 L 540 397.1966025 L 543 395.1519804 L 546 401.9076708 L 550 400.7211612 L 553 374.9504766 L 556 382.5138795 L 560 401.5871199 L 563 396.3284478 L 566 400.3079382 L 570 392.7439911 L 573 399.903669 L 576 404.5727469 L 580 399.1964748 L 583 408.9136902 L 586 401.5686681 L 590 404.201796 L 593 401.2819989 L 596 380.3239893 L 600 402.2744922 L 603 404.6214951 L 606 392.396598 L 610 403.3591134 L 613 392.0427288 L 616 393.3465567 L 620 390.5110221"/>
			<path class="series-2-line" d="M 40 382.9875 L 43 374.08275 L 46 404.553 L 50 410.742 L 53 392.64975 L 56 367.995 L 60 419.46525 L 63 385.623 L 66 411.4995 L 70 403.90725 L 73 412.065 L 76 375.59775 L 80 409.34925 L 83 426.6945 L 86 396.1335 L 90 360.97875 L 93 396.699 L 96 404.2005 L 100 403.17075 L 103 391.641 L 106 407.67375 L 110 420.42525 L 113 411.5205 L 116 415.0845 L 120 419.30475 L 123 393.3375 L 126 382.464 L 130 391.278 L 133 401.4045 L 136 399.7185 L 140 369.1575 L 143 421.94025 L 146 392.0355 L 150 372.63075 L 153 408.351 L 156 400.1025 L 160 393.1665 L 163 394.1055 L 166 404.88825 L 170 397.95225 L 173 394.2975 L 176 393.924 L 180 383.0505 L 183 424.677 L 186 410.52225 L 190 418.02375 L 193 382.869 L 196 396.27675 L 200 402.46575 L 203 397.4985 L 206 420.75 L 210 403.314 L 213 436.40925 L 216 384.192 L 220 395.631 L 223 395.91375 L 226 375.1965 L 230 379.41675 L 233 400.6995 L 236 395.076 L 240 357.29625 L 243 380.54775 L 246 377.54925 L 250 392.2695 L 253 364.3335 L 256 380.36625 L 260 352.43025 L 263 367.1505 L 266 381.2145 L 270 365.091 L 273 364.06125 L 276 386.00025 L 280 358.7205 L 283 377.37825 L 286 359.94225 L 290 356.94375 L 293 366.414 L 296 327.32175 L 300 367.63575 L 303 314.106 L 306 357.045 L 310 340.26525 L 313 337.26675 L 316 365.76825 L 320 358.83225 L 323 343.365 L 326 344.96025 L 330 323.58675 L 333 308.77575 L 336 341.21475 L 340 333.6225 L 343 318.15525 L 346 325.0005 L 350 305.59575 L 353 296.691 L 356 321.255 L 360 252.6315 L 363 310.008 L 366 292.572 L 370 319.10475 L 373 289.2 L 376 300.639 L 380 319.953 L 383 314.98575 L 386 306.73725 L 390 316.86375 L 393 262.0215 L 396 263.61675 L 400 335.43075 L 403 338.3385 L 406 338.62125 L 410 331.029 L 413 364.12425 L 416 348.00075 L 420 321.37725 L 423 339.37875 L 426 352.7865 L 430 357.663 L 433 331.0395 L 436 351.00975 L 440 332.9175 L 443 364.044 L 446 327.57675 L 450 308.172 L 453 345.20475 L 456 364.51875 L 460 356.9265 L 463 363.1155 L 466 356.83575 L 470 376.14975 L 473 335.745 L 476 374.7465 L 480 314.65425 L 483 340.53075 L 486 350.001 L 490 343.72125 L 493 347.28525 L 496 320.0055 L 500 357.03825 L 503 358.6335 L 506 345.79125 L 510 361.16775 L 513 381.79425 L 516 355.827 L 520 359.391 L 523 391.83 L 526 396.7065 L 530 395.0205 L 533 386.772 L 536 406.086 L 540 390.61875 L 543 397.464 L 546 387.903 L 550 388.842 L 553 385.8435 L 556 378.25125 L 560 392.31525 L 563 388.6605 L 566 402.7245 L 570 400.38225 L 573 404.6025 L 576 387.82275 L 580 402.543 L 583 391.6695 L 586 406.38975 L 590 400.11 L 593 389.89275 L 596 403.95675 L 600 404.2395 L 603 391.39725 L 606 399.555 L 610 399.1815 L 613 393.558 L 616 389.90325 L 620 392.15475"/>
		</g>
		<text class="x-axis-label" x="40.0" y="540">
			0
		</text>
		<path class="x-notch" d="M 56.6666666667 525 L 56.6666666667 530"/>
		<text class="x-axis-label" x="73.3333333333" y="540">
			10
		</text>
		<path class="x-notch" d="M 90.0 525 L 90.0 530"/>
		<text class="x-axis-label" x="106.666666667" y="540">
			20
		</text>
		<path class="x-notch" d="M 123.333333333 525 L 123.333333333 530"/>
		<text class="x-axis-label" x="140.0" y="540">
			30
		</text>
		<path class="x-notch" d="M 156.666666667 525 L 156.666666667 530"/>
		<text class="x-axis-label" x="173.333333333" y="540">
			40
		</text>
		<path class="x-notch" d="M 190.0 525 L 190.0 530"/>
		<text class="x-axis-label" x="206.666666667" y="540">
			50
		</text>
		<path class="x-notch" d="M 223.333333333 525 L 223.333333333 530"/>
		<text class="x-axis-label" x="240.0" y="540">
			60
		</text>
		<path class="x-notch" d="M 256.666666667 525 L 256.666666667 530"/>
		<text class="x-axis-label" x="273.333333333" y="540">
			70
		</text>
		<path class="x-notch" d="M 290.0 525 L 290.0 530"/>
		<text class="x-axis-label" x="306.666666667" y="540">
			80
		</text>
		<path class="x-notch" d="M 323.333333333 525 L 323.333333333 530"/>
		<text class="x-axis-label" x="340.0" y="540">
			90
		</text>
		<path class="x-notch" d="M 356.666666667 525 L 356.666666667 530"/>
		<text class="x-axis-label" x="373.333333333" y="540">
			100
		</text>
		<path class="x-notch" d="M 390.0 525 L 390.0 530"/>
		<text class="x-axis-label" x="406.666666667" y="540">
			110
		</text>
		<path class="x-notch" d="M 423.333333333 525 L 423.333333333 530"/>
		<text class="x-axis-label" x="440.0" y="540">
			120
		</text>
		<path class="x-notch" d="M 456.666666667 525 L 456.666666667 530"/>
		<text class="x-axis-label" x="473.333333333" y="540">
			130
		</text>
		<path class="x-notch" d="M 490.0 525 L 490.0 530"/>
		<text class="x-axis-label" x="506.666666667" y="540">
			140
		</text>
		<path class="x-notch" d="M 523.333333333 525 L 523.333333333 530"/>
		<text class="x-axis-label" x="540.0" y="540">
			150
		</text>
		<path class="x-notch" d="M 556.666666667 525 L 556.666666667 530"/>
		<text class="x-axis-label" x="573.333333333" y="540">
			160
		</text>
		<path class="x-notch" d="M 590.0 525 L 590.0 530"/>
		<text class="x-axis-label" x="606.666666667" y="540">
			170
		</text>
		<path class="x-notch" d="M 623.333333333 525 L 623.333333333 530"/>
	</g>
</svg>
