<?xml version="1.0" ?>
<svg height="600" version="1.1" width="800" xmlns="http://www.w3.org/2000/svg" xmlns:svg="http://www.w3.org/2000/svg">
	<style type="text/css">
		

.x-axis-path, .y-gridline, .x-notch { fill:none; stroke: #a7a9ac; stroke-width:1; }



.y-gridline { stroke-width: 1; }

.y-axis-path, .y-axis-path2, .x-notch-left, .x-notch-right { display: none;}



.x-axis-label, .data-point-label {font-size: 12px; font-weight:normal; font-family: sans-serif; fill: #58595b; text-anchor:middle;}

.y-axis-label {font-size: 12px; font-family: helvetica; fill: #a7a9ac; text-anchor:end;}



.series-1-line { fill: none; stroke: #10b80c; stroke-width:2; }



.series-2-line { fill: none; stroke: #e90f0a; stroke-width: 2;}

	</style>
	<rect fill="white" height="600" width="800" x="0" y="0"/>
	<g id="grid" transform="translate(70, 30)">
		<g class="x-axis" id="x_axis">
			<path class="x-axis-path" d="M 0 525 L 660 525"/>
			<path class="x-notch-left" d="M 0 525, L 0 535"/>
			<path class="x-notch-right" d="M 660 525, L 660 535"/>
		</g>
		<g class="y-axis" id="y_axis">
			<path class="y-axis-path" d="M 0 525 L 0 0"/>
			<path class="y-axis-path-2" d="M 660 525 L 660 0"/>
			<path class="y-gridline" d="M 0 525 L 660 525"/>
			<text class="y-axis-label" x="-5" y="525">
				-200
			</text>
			<path class="y-gridline" d="M 0 394 L 660 394"/>
			<text class="y-axis-label" x="-5" y="394">
				 0
			</text>
			<path class="y-gridline" d="M 0 263 L 660 263"/>
			<text class="y-axis-label" x="-5" y="263">
				200
			</text>
			<path class="y-gridline" d="M 0 132 L 660 132"/>
			<text class="y-axis-label" x="-5" y="132">
				400
			</text>
			<path class="y-gridline" d="M 0 1 L 660 1"/>
			<text class="y-axis-label" x="-5" y="1">
				600
			</text>
		</g>
		<g>
			<path class="series-1-line" d="M 40 401.94344287 L 44 381.818128024 L 48 350.788938273 L 52 432.763077026 L 57 396.086539879 L 61 377.830112928 L 65 404.031690763 L 69 420.519792635 L 74 384.664938287 L 78 393.986620702 L 82 394.868515579 L 86 383.039474082 L 91 389.383557424 L 95 397.206349462 L 99 386.2601765 L 103 386.875224683 L 108 378.516471593 L 112 397.20213448 L 116 401.964998993 L 121 414.469621095 L 125 395.638176356 L 129 369.742501951 L 133 418.285843328 L 138 344.975387435 L 142 382.861198575 L 146 355.877315021 L 150 389.368644819 L 155 364.150498336 L 159 376.696444835 L 163 397.949025568 L 167 341.025135071 L 172 359.546461399 L 176 331.576878829 L 180 328.885654819 L 185 319.089517433 L 189 315.88510206 L 193 266.908309766 L 197 328.758107332 L 202 269.411133523 L 206 245.405169385 L 210 274.296356883 L 214 194.825682576 L 219 215.893104377 L 223 239.671278556 L 227 176.566667618 L 231 217.819936687 L 236 221.001902714 L 240 182.785471136 L 244 152.392805254 L 248 186.109977693 L 253 147.708707527 L 257 105.816326583 L 261 168.63164148 L 266 165.960919497 L 270 120.947425291 L 274 163.658901029 L 278 114.456266094 L 283 52.8300435069 L 287 136.467409197 L 291 49.1521468224 L 295 150.141595241 L 300 33.31750918 L 304 85.0027861889 L 308 93.1539310018 L 312 93.1734593695 L 317 153.154689383 L 321 44.3392076054 L 325 64.1954080947 L 330 64.646119717 L 334 28.8322694235 L 338 0.0 L 342 38.5018329818 L 347 83.3080392555 L 351 95.9151714916 L 355 42.9135750293 L 359 69.8541868677 L 364 79.0528571208 L 368 137.432366278 L 372 81.1658220215 L 376 51.9846977955 L 381 170.059061904 L 385 156.155791897 L 389 190.530310576 L 393 180.015320869 L 398 149.417314373 L 402 182.45695889 L 406 170.525086913 L 411 203.770072044 L 415 195.287986448 L 419 213.829814803 L 423 186.229909406 L 428 287.219357825 L 432 279.723291589 L 436 287.114580028 L 440 251.608580483 L 445 264.175029009 L 449 277.234166871 L 453 249.202757876 L 457 286.883228402 L 462 307.581293374 L 466 329.5322244 L 470 318.236876292 L 475 257.637356774 L 479 299.363133496 L 483 286.918070157 L 487 269.79085641 L 492 301.228459725 L 496 327.121866468 L 500 301.20601038 L 504 293.935466441 L 509 311.799766873 L 513 303.872197038 L 517 349.027258114 L 521 339.210618701 L 526 281.342033244 L 530 373.419506816 L 534 348.448025346 L 538 381.95985717 L 543 346.187010931 L 547 356.26854972 L 551 372.284784628 L 556 313.143151433 L 560 344.60157712 L 564 353.779425002 L 568 348.336764904 L 573 375.523721411 L 577 376.262102099 L 581 373.386039502 L 585 407.534395195 L 590 387.491408801 L 594 405.43771734 L 598 379.665375441 L 602 392.457666609 L 607 403.997091722 L 611 396.644539675 L 615 401.900413867 L 620 381.77509902"/>
			<path class="series-2-line" d="M 40 396.152581285 L 44 391.226997366 L 48 400.716901157 L 52 397.393038094 L 57 382.056268607 L 61 397.953055825 L 65 412.248122186 L 69 380.093283703 L 74 392.786629207 L 78 385.458464003 L 82 382.935461369 L 86 395.628806873 L 91 384.296339528 L 95 392.184522462 L 99 392.064101113 L 103 399.952284047 L 108 402.234443983 L 112 402.114022634 L 116 387.578113575 L 121 383.453390084 L 125 395.34587516 L 129 384.814268243 L 133 380.689544752 L 138 395.785471541 L 142 398.868491905 L 146 401.95151227 L 150 403.432811777 L 155 380.888298435 L 159 401.590248223 L 163 407.075849872 L 167 395.743382526 L 172 390.016938179 L 176 390.697377258 L 180 383.369212054 L 185 391.257394988 L 189 401.548159207 L 193 399.826017002 L 197 381.285805801 L 202 373.156780168 L 206 411.477659379 L 210 380.924541754 L 214 420.046281393 L 219 391.895745052 L 223 378.160696421 L 227 394.057483639 L 231 371.512970296 L 236 385.007176229 L 240 391.293638307 L 244 395.177519099 L 248 392.654516465 L 253 396.538397258 L 257 382.803348627 L 261 401.10271713 L 266 390.571110212 L 270 395.255851433 L 274 395.135430084 L 278 397.41759002 L 283 401.301470813 L 287 388.36728261 L 291 401.861488543 L 295 399.338485909 L 300 393.612041561 L 304 399.097643211 L 308 386.964315436 L 312 394.051637942 L 317 385.92261231 L 321 380.196167962 L 325 384.880909183 L 330 387.163069119 L 334 393.449531197 L 338 372.506738711 L 342 373.18717779 L 347 389.884825436 L 351 369.742893379 L 355 371.224192886 L 359 363.896027682 L 364 375.788512758 L 368 367.659487126 L 372 378.751111774 L 376 381.033271709 L 381 368.099083507 L 385 360.770918303 L 389 380.672007662 L 393 375.746423743 L 398 380.431164964 L 402 389.921068755 L 406 387.398066121 L 411 396.087109484 L 415 386.356362994 L 419 377.426476934 L 423 382.912078583 L 428 380.389075949 L 432 404.29446745 L 436 385.754256249 L 440 375.222649332 L 445 392.721157406 L 449 395.80417777 L 453 374.861385284 L 457 378.745266077 L 462 377.023123871 L 466 398.525934087 L 470 390.396908455 L 475 390.276487106 L 479 387.753484472 L 483 402.849411261 L 487 398.72468777 L 492 376.981034856 L 496 376.860613507 L 500 400.766005008 L 504 389.433537662 L 509 392.516558026 L 513 389.993555392 L 517 383.466250617 L 521 394.557875264 L 526 374.415943207 L 530 387.910149139 L 534 389.391448647 L 538 387.669306441 L 543 387.548885092 L 547 386.627603315 L 551 396.918367534 L 556 387.988481473 L 560 394.274943551 L 564 378.137313635 L 568 394.034100853 L 573 379.498191794 L 577 399.399281153 L 581 389.668534664 L 585 382.34036946 L 590 395.834575392 L 594 386.103828903 L 598 387.585128411 L 602 401.079334343 L 607 391.348587854 L 611 392.829887362 L 615 395.112047298 L 620 390.186463379"/>
		</g>
		<text class="x-axis-label" x="40.0" y="540">
			0
		</text>
		<path class="x-notch" d="M 61.3235294118 525 L 61.3235294118 530"/>
		<text class="x-axis-label" x="82.6470588235" y="540">
			10
		</text>
		<path class="x-notch" d="M 103.970588235 525 L 103.970588235 530"/>
		<text class="x-axis-label" x="125.294117647" y="540">
			20
		</text>
		<path class="x-notch" d="M 146.617647059 525 L 146.617647059 530"/>
		<text class="x-axis-label" x="167.941176471" y="540">
			30
		</text>
		<path class="x-notch" d="M 189.264705882 525 L 189.264705882 530"/>
		<text class="x-axis-label" x="210.588235294" y="540">
			40
		</text>
		<path class="x-notch" d="M 231.911764706 525 L 231.911764706 530"/>
		<text class="x-axis-label" x="253.235294118" y="540">
			50
		</text>
		<path class="x-notch" d="M 274.558823529 525 L 274.558823529 530"/>
		<text class="x-axis-label" x="295.882352941" y="540">
			60
		</text>
		<path class="x-notch" d="M 317.205882353 525 L 317.205882353 530"/>
		<text class="x-axis-label" x="338.529411765" y="540">
			70
		</text>
		<path class="x-notch" d="M 359.852941176 525 L 359.852941176 530"/>
		<text class="x-axis-label" x="381.176470588" y="540">
			80
		</text>
		<path class="x-notch" d="M 402.5 525 L 402.5 530"/>
		<text class="x-axis-label" x="423.823529412" y="540">
			90
		</text>
		<path class="x-notch" d="M 445.147058824 525 L 445.147058824 530"/>
		<text class="x-axis-label" x="466.470588235" y="540">
			100
		</text>
		<path class="x-notch" d="M 487.794117647 525 L 487.794117647 530"/>
		<text class="x-axis-label" x="509.117647059" y="540">
			110
		</text>
		<path class="x-notch" d="M 530.441176471 525 L 530.441176471 530"/>
		<text class="x-axis-label" x="551.764705882" y="540">
			120
		</text>
		<path class="x-notch" d="M 573.088235294 525 L 573.088235294 530"/>
		<text class="x-axis-label" x="594.411764706" y="540">
			130
		</text>
		<path class="x-notch" d="M 615.735294118 525 L 615.735294118 530"/>
	</g>
</svg>
