<?xml version="1.0" ?>
<svg height="600" version="1.1" width="800" xmlns="http://www.w3.org/2000/svg" xmlns:svg="http://www.w3.org/2000/svg">
	<style type="text/css">
		

.x-axis-path, .y-gridline, .x-notch { fill:none; stroke: #a7a9ac; stroke-width:1; }



.y-gridline { stroke-width: 1; }

.y-axis-path, .y-axis-path2, .x-notch-left, .x-notch-right { display: none;}



.x-axis-label, .data-point-label {font-size: 12px; font-weight:normal; font-family: sans-serif; fill: #58595b; text-anchor:middle;}

.y-axis-label {font-size: 12px; font-family: helvetica; fill: #a7a9ac; text-anchor:end;}



.series-1-line { fill: none; stroke: #10b80c; stroke-width:2; }



.series-2-line { fill: none; stroke: #e90f0a; stroke-width: 2;}

	</style>
	<rect fill="white" height="600" width="800" x="0" y="0"/>
	<g id="grid" transform="translate(70, 30)">
		<g class="x-axis" id="x_axis">
			<path class="x-axis-path" d="M 0 525 L 660 525"/>
			<path class="x-notch-left" d="M 0 525, L 0 535"/>
			<path class="x-notch-right" d="M 660 525, L 660 535"/>
		</g>
		<g class="y-axis" id="y_axis">
			<path class="y-axis-path" d="M 0 525 L 0 0"/>
			<path class="y-axis-path-2" d="M 660 525 L 660 0"/>
			<path class="y-gridline" d="M 0 525 L 660 525"/>
			<text class="y-axis-label" x="-5" y="525">
				-200
			</text>
			<path class="y-gridline" d="M 0 420 L 660 420"/>
			<text class="y-axis-label" x="-5" y="420">
				 0
			</text>
			<path class="y-gridline" d="M 0 315 L 660 315"/>
			<text class="y-axis-label" x="-5" y="315">
				200
			</text>
			<path class="y-gridline" d="M 0 210 L 660 210"/>
			<text class="y-axis-label" x="-5" y="210">
				400
			</text>
			<path class="y-gridline" d="M 0 105 L 660 105"/>
			<text class="y-axis-label" x="-5" y="105">
				600
			</text>
			<path class="y-gridline" d="M 0 0 L 660 0"/>
			<text class="y-axis-label" x="-5" y="0">
				800
			</text>
		</g>
		<g>
			<path class="series-1-line" d="M 40 424.776198 L 45 405.384544459 L 50 446.408000917 L 56 409.179997376 L 61 410.815223835 L 66 424.161940294 L 72 423.293336752 L 77 423.515263211 L 82 430.40027967 L 88 430.729936128 L 93 427.007432587 L 99 444.419539046 L 104 406.881785505 L 109 418.222791963 L 115 425.067698422 L 120 415.139484881 L 125 433.292051339 L 131 392.442597798 L 136 397.820234257 L 142 359.986170716 L 147 304.840757174 L 152 311.793183633 L 158 321.976460092 L 163 256.80207655 L 168 257.468153009 L 174 260.409159468 L 179 241.946335927 L 185 206.091102385 L 190 158.147638844 L 195 195.630915303 L 201 180.641071761 L 206 122.70895822 L 211 129.755674679 L 217 134.312211138 L 222 87.9975075963 L 227 133.880784055 L 233 96.3967905138 L 238 98.0992169725 L 244 103.719193431 L 249 117.56402989 L 254 114.474256349 L 260 40.8729928073 L 265 50.5312692661 L 270 15.5107857248 L 276 89.9189921835 L 281 51.2503886422 L 287 78.4491251009 L 292 115.94584156 L 297 102.786988018 L 303 80.1373944771 L 308 98.3842509358 L 313 85.9116773945 L 319 119.854773853 L 324 126.336170312 L 330 112.571256771 L 335 155.466233229 L 340 151.097559688 L 346 137.575196147 L 351 152.995032606 L 356 109.816889064 L 362 169.188675523 L 367 153.862411982 L 372 235.89004844 L 378 249.021304899 L 383 278.791281358 L 389 214.437997817 L 394 243.723294275 L 399 259.614370734 L 405 280.337967193 L 410 270.032803651 L 415 260.36037011 L 421 298.328326569 L 426 332.324973028 L 432 357.450589486 L 437 314.784005945 L 442 350.517352404 L 448 329.173748862 L 453 362.241775321 L 458 331.55569178 L 464 387.912088239 L 469 382.156994697 L 475 424.069381156 L 480 422.043047615 L 485 414.012814073 L 491 422.930840532 L 496 435.469896991 L 501 431.78792345 L 507 426.248079908 L 512 416.710256367 L 517 428.037822826 L 523 421.555709284 L 528 422.235225743 L 534 434.478182202 L 539 430.755678661 L 544 430.896755119 L 550 428.614641578 L 555 428.769158037 L 560 441.052434495 L 566 430.356880954 L 571 435.196077413 L 577 430.060063872 L 582 422.82405033 L 587 423.961366789 L 593 430.065813248 L 598 421.645399706 L 603 429.647826165 L 609 417.336952624 L 614 420.574059083 L 620 415.949815541"/>
			<path class="series-2-line" d="M 40 424.305 L 45 426.846192661 L 50 402.612385321 L 56 423.528577982 L 61 421.869770642 L 66 415.485963303 L 72 415.402155963 L 77 429.493348624 L 82 407.359541284 L 88 425.125733945 L 93 419.791926606 L 99 413.933119266 L 104 421.724311927 L 109 421.115504587 L 115 425.756697248 L 120 426.197889908 L 125 427.689082569 L 131 419.730275229 L 136 428.04646789 L 142 420.61266055 L 147 431.553853211 L 152 419.395045872 L 158 415.111238532 L 163 413.977431193 L 168 420.193623853 L 174 419.584816514 L 179 420.551009174 L 185 411.542201835 L 190 425.108394495 L 195 420.824587156 L 201 412.340779817 L 206 407.531972477 L 211 401.148165138 L 217 414.714357798 L 222 419.880550459 L 227 415.596743119 L 233 414.98793578 L 238 402.82912844 L 244 414.295321101 L 249 412.111513761 L 254 410.452706422 L 260 413.518899083 L 265 409.235091743 L 270 413.351284404 L 276 402.242477064 L 281 402.158669725 L 287 405.224862385 L 292 398.841055046 L 297 411.882247706 L 303 390.273440367 L 308 397.539633028 L 313 385.380825688 L 319 401.047018349 L 324 400.963211009 L 330 385.65440367 L 335 397.12059633 L 340 390.211788991 L 346 398.527981651 L 351 396.344174312 L 356 403.610366972 L 362 404.051559633 L 367 407.117752294 L 372 415.433944954 L 378 401.700137615 L 383 413.166330275 L 389 406.782522936 L 394 411.948715596 L 399 418.164908257 L 405 407.581100917 L 410 405.397293578 L 415 406.888486239 L 421 408.904678899 L 426 395.69587156 L 432 394.56206422 L 437 403.928256881 L 442 406.469449541 L 448 406.385642202 L 453 415.226834862 L 458 398.343027523 L 464 398.259220183 L 469 402.900412844 L 475 424.341605505 L 480 420.582798165 L 485 411.573990826 L 491 420.415183486 L 496 417.181376147 L 501 426.022568807 L 507 417.538761468 L 512 418.504954128 L 517 419.996146789 L 523 415.18733945 L 528 419.30353211 L 534 421.319724771 L 539 415.985917431 L 544 422.202110092 L 550 417.393302752 L 555 421.509495413 L 560 417.225688073 L 566 414.516880734 L 571 424.933073394 L 577 414.874266055 L 582 404.815458716 L 587 419.431651376 L 593 416.722844037 L 598 427.664036697 L 603 415.505229358 L 609 419.096422018 L 614 413.237614679 L 620 425.753807339"/>
		</g>
		<text class="x-axis-label" x="40.0" y="540">
			0
		</text>
		<path class="x-notch" d="M 66.8518518519 525 L 66.8518518519 530"/>
		<text class="x-axis-label" x="93.7037037037" y="540">
			10
		</text>
		<path class="x-notch" d="M 120.555555556 525 L 120.555555556 530"/>
		<text class="x-axis-label" x="147.407407407" y="540">
			20
		</text>
		<path class="x-notch" d="M 174.259259259 525 L 174.259259259 530"/>
		<text class="x-axis-label" x="201.111111111" y="540">
			30
		</text>
		<path class="x-notch" d="M 227.962962963 525 L 227.962962963 530"/>
		<text class="x-axis-label" x="254.814814815" y="540">
			40
		</text>
		<path class="x-notch" d="M 281.666666667 525 L 281.666666667 530"/>
		<text class="x-axis-label" x="308.518518519" y="540">
			50
		</text>
		<path class="x-notch" d="M 335.37037037 525 L 335.37037037 530"/>
		<text class="x-axis-label" x="362.222222222" y="540">
			60
		</text>
		<path class="x-notch" d="M 389.074074074 525 L 389.074074074 530"/>
		<text class="x-axis-label" x="415.925925926" y="540">
			70
		</text>
		<path class="x-notch" d="M 442.777777778 525 L 442.777777778 530"/>
		<text class="x-axis-label" x="469.62962963" y="540">
			80
		</text>
		<path class="x-notch" d="M 496.481481481 525 L 496.481481481 530"/>
		<text class="x-axis-label" x="523.333333333" y="540">
			90
		</text>
		<path class="x-notch" d="M 550.185185185 525 L 550.185185185 530"/>
		<text class="x-axis-label" x="577.037037037" y="540">
			100
		</text>
		<path class="x-notch" d="M 603.888888889 525 L 603.888888889 530"/>
	</g>
</svg>
