<?xml version="1.0" ?>
<svg height="600" version="1.1" width="800" xmlns="http://www.w3.org/2000/svg" xmlns:svg="http://www.w3.org/2000/svg">
	<style type="text/css">

.x-axis-path, .y-gridline, .x-notch { fill:none; stroke: #a7a9ac; stroke-width:1; }



.y-gridline { stroke-width: 1; }

.y-axis-path, .y-axis-path2, .x-notch-left, .x-notch-right { display: none;}



.x-axis-label, .data-point-label {font-size: 12px; font-weight:normal; font-family: sans-serif; fill: #58595b; text-anchor:middle;}

.y-axis-label {font-size: 12px; font-family: helvetica; fill: #a7a9ac; text-anchor:end;}



.series-1-line { fill: none; stroke: #10b80c; stroke-width:2; }



.series-2-line { fill: none; stroke: #e90f0a; stroke-width: 2;}
</style>
	<rect fill="white" height="600" width="800" x="0" y="0"/>
	<g id="grid" transform="translate(70, 30)">
		<g class="x-axis" id="x_axis">
			<path class="x-axis-path" d="M 0 525 L 660 525"/>
			<path class="x-notch-left" d="M 0 525, L 0 535"/>
			<path class="x-notch-right" d="M 660 525, L 660 535"/>
		</g>
		<g class="y-axis" id="y_axis">
			<path class="y-axis-path" d="M 0 525 L 0 0"/>
			<path class="y-axis-path-2" d="M 660 525 L 660 0"/>
			<path class="y-gridline" d="M 0 525 L 660 525"/>
			<text class="y-axis-label" x="-5" y="525">-200</text>
			<path class="y-gridline" d="M 0 394 L 660 394"/>
			<text class="y-axis-label" x="-5" y="394"> 0</text>
			<path class="y-gridline" d="M 0 263 L 660 263"/>
			<text class="y-axis-label" x="-5" y="263">200</text>
			<path class="y-gridline" d="M 0 132 L 660 132"/>
			<text class="y-axis-label" x="-5" y="132">400</text>
			<path class="y-gridline" d="M 0 1 L 660 1"/>
			<text class="y-axis-label" x="-5" y="1">600</text>
		</g>
		<g>
			<path class="series-1-line" d="M 40 419.048718508 L 42 381.553487727 L 45 394.663325984 L 48 382.910067179 L 51 387.89776562 L 54 412.187322092 L 57 409.282139472 L 60 388.490003958 L 62 412.20626448 L 65 416.257549723 L 68 423.595970247 L 71 386.42569661 L 74 364.199874032 L 77 398.273919887 L 80 388.049748409 L 82 386.157597322 L 85 375.206893222 L 88 376.296298453 L 91 422.505555774 L 94 410.675976759 L 97 399.802189121 L 100 393.304590381 L 102 402.821416265 L 105 415.567839148 L 108 382.085978145 L 111 386.405278499 L 114 397.030238053 L 117 380.518891175 L 120 399.743588107 L 122 355.597766554 L 125 415.299900322 L 128 387.856577784 L 131 381.492837537 L 134 399.303821834 L 137 410.674394062 L 140 398.883273278 L 142 423.535648872 L 145 366.127104006 L 148 413.177076137 L 151 363.031174349 L 154 367.999792737 L 157 327.485143661 L 160 349.461840029 L 162 353.226924485 L 165 311.450905069 L 168 290.849570079 L 171 242.117380926 L 174 241.906957585 L 177 180.294242417 L 180 183.714991553 L 182 251.71009123 L 185 210.947401472 L 188 217.540209323 L 191 169.38131612 L 194 169.820807064 L 197 120.553482066 L 200 111.131567166 L 202 114.074420614 L 205 100.372015204 L 208 94.9253099763 L 211 82.2359360996 L 214 43.4411748739 L 217 91.9245359431 L 220 102.110654291 L 222 104.747630649 L 225 90.0512737577 L 228 131.005765391 L 231 68.6858957811 L 234 78.4319804204 L 237 15.2713960001 L 240 93.4146985593 L 242 50.2243702569 L 245 27.903147417 L 248 99.5678778015 L 251 102.587051459 L 254 58.3073714134 L 257 47.2424851249 L 260 139.030708298 L 262 75.4876284521 L 265 117.970313035 L 268 82.787644233 L 271 71.9901768044 L 274 0.0 L 277 72.2761864394 L 280 64.0774817758 L 282 119.498230655 L 285 36.2713936034 L 288 45.7885176137 L 291 74.683819865 L 294 73.8619404691 L 297 118.886147659 L 300 102.469902918 L 302 126.64468095 L 305 41.0674199403 L 308 116.745520101 L 311 72.3131996367 L 314 115.617817102 L 317 151.35451065 L 320 101.112612349 L 322 95.3984882616 L 325 110.113734054 L 328 146.308646985 L 331 104.743402523 L 334 95.5507463784 L 337 109.348659025 L 340 89.7597593171 L 342 131.764846337 L 345 81.6565084029 L 348 133.198044124 L 351 111.60305578 L 354 147.091112394 L 357 118.902475309 L 360 184.967806559 L 362 141.223262359 L 365 250.325738728 L 368 173.501153641 L 371 121.138090137 L 374 199.835310468 L 377 209.925432302 L 380 216.518538279 L 382 224.18161782 L 385 233.450104897 L 388 209.275135714 L 391 197.579415193 L 394 269.225363651 L 397 296.170923045 L 400 244.839673001 L 402 284.608816378 L 405 282.392006274 L 408 329.862633936 L 411 297.316888004 L 414 234.309838381 L 417 328.888221095 L 420 293.322758742 L 422 273.046380895 L 425 329.747878293 L 428 299.954131798 L 431 367.242375158 L 434 347.883032331 L 437 331.256310761 L 440 373.356798044 L 442 416.108093989 L 445 416.661767122 L 448 392.162138922 L 451 403.781646209 L 454 394.168632659 L 457 365.445754106 L 460 406.820006893 L 462 411.9227819 L 465 382.339214107 L 468 404.144190003 L 471 405.825971235 L 474 405.654006125 L 477 421.477385587 L 480 402.958757569 L 482 349.754979255 L 485 392.887876249 L 488 421.93581892 L 491 399.824774782 L 494 399.786370039 L 497 430.535120508 L 500 403.875868874 L 502 409.28392472 L 505 406.264559911 L 508 382.987545695 L 511 405.270417279 L 514 388.529513521 L 517 392.064742971 L 520 404.123687715 L 522 395.294148818 L 525 407.104456629 L 528 389.732718637 L 531 405.040340432 L 534 411.480507863 L 537 382.890891551 L 540 394.510100712 L 542 400.2431137 L 545 407.696014539 L 548 408.918980136 L 551 388.891239222 L 554 395.120929825 L 557 404.332176745 L 560 399.458767468 L 562 401.809244913 L 565 412.090763523 L 568 404.752151848 L 571 402.515963566 L 574 389.635491039 L 577 400.318287002 L 580 401.254455561 L 582 413.61897927 L 585 388.297418186 L 588 403.757382274 L 591 412.08975428 L 594 389.176155437 L 597 390.112323996 L 600 383.442706659 L 602 422.3708371 L 605 391.12491974 L 608 400.584505467 L 611 396.20807193 L 614 372.35805989 L 617 407.693177959 L 620 395.921137228"/>
			<path class="series-2-line" d="M 40 400.30876802 L 42 394.124849375 L 45 399.865963495 L 48 389.210157564 L 51 383.026238919 L 54 388.767353038 L 57 363.9505707 L 60 397.268323086 L 62 405.245380848 L 65 399.806776751 L 68 404.802576323 L 71 406.071803155 L 74 401.378513606 L 77 392.213336771 L 80 404.66228182 L 82 396.242419532 L 85 376.642839028 L 88 397.290244102 L 91 384.398494528 L 94 385.66772136 L 97 412.277642816 L 100 424.726587865 L 102 409.598894647 L 105 384.782112309 L 108 392.013855524 L 111 432.039438839 L 114 389.335107355 L 117 423.398174289 L 120 376.221955519 L 122 361.094262301 L 125 423.479282048 L 128 389.718725137 L 131 410.366130211 L 134 409.399413401 L 137 395.762349279 L 140 420.136327091 L 142 398.300802944 L 145 388.390311561 L 148 360.592271032 L 151 409.56162892 L 154 406.358968466 L 157 406.137566204 L 160 365.669178363 L 162 404.949447131 L 165 398.020213938 L 168 401.525384414 L 171 404.285240342 L 174 395.120063507 L 177 401.606492174 L 180 407.347606293 L 182 367.624533 L 185 406.15948722 L 188 382.08801943 L 191 382.611931715 L 194 388.353045834 L 197 387.386329023 L 200 361.824232138 L 202 354.894998945 L 205 357.654854873 L 208 351.470936229 L 211 370.627712207 L 214 363.698479015 L 217 344.844213059 L 220 370.708819967 L 222 353.345183106 L 225 336.726860793 L 228 387.932162324 L 231 388.456074609 L 234 366.620550462 L 237 382.050753702 L 240 387.046553274 L 242 368.192287317 L 245 378.405288723 L 248 376.693257365 L 251 357.838991409 L 254 334.512838166 L 257 361.86807417 L 260 360.156042812 L 262 348.009607785 L 265 335.117858211 L 268 346.076174164 L 271 360.761062856 L 274 329.236449589 L 277 319.325958205 L 280 306.434208631 L 282 309.939379107 L 285 316.425807774 L 288 330.365381918 L 291 344.304956063 L 294 343.338239252 L 297 311.813625984 L 300 301.903134601 L 302 296.464530504 L 305 320.838508317 L 308 332.542138818 L 311 333.066051103 L 314 337.316536127 L 317 330.387302934 L 320 336.128417054 L 322 342.61484572 L 325 359.535678056 L 328 310.123515642 L 331 357.602244435 L 334 325.332316619 L 337 340.017205311 L 340 301.784761114 L 342 305.28993159 L 345 290.162238373 L 348 317.517474376 L 351 330.711733973 L 354 304.404322539 L 357 270.643765629 L 360 270.422363366 L 362 250.822782862 L 365 251.346695147 L 368 276.465987507 L 371 293.386819843 L 374 270.0606666 L 377 252.697029739 L 380 257.692829311 L 382 241.074506998 L 385 235.635902901 L 388 244.358275211 L 391 253.825962069 L 394 284.162456263 L 397 253.383157544 L 400 254.652384376 L 402 258.157554852 L 405 271.351814449 L 408 265.167895804 L 411 242.587057109 L 414 321.368996907 L 417 320.402280096 L 420 274.716690422 L 422 285.675006375 L 425 321.974016951 L 428 306.101009186 L 431 289.482686873 L 434 273.609679108 L 437 238.358493102 L 440 226.957372623 L 442 317.664345184 L 445 276.450642796 L 448 306.78713699 L 451 341.595518471 L 454 316.778736133 L 457 366.493408569 L 460 352.111029899 L 462 386.174096832 L 465 366.574516329 L 468 352.937452207 L 471 368.367655446 L 474 382.307229591 L 477 371.65142366 L 480 340.87212494 L 482 372.69924823 L 485 403.781056972 L 488 393.870565589 L 491 400.356994256 L 494 393.427761063 L 497 379.790696941 L 500 398.202158372 L 502 384.56509425 L 505 406.703128419 L 508 391.575435202 L 511 390.608718391 L 514 402.312348893 L 517 390.165913866 L 520 414.539891679 L 522 383.760592959 L 525 388.75639253 L 528 382.572473886 L 531 394.276104387 L 534 394.054702124 L 537 393.833299861 L 540 399.57441398 L 542 393.390495336 L 545 380.498745762 L 548 380.277343499 L 551 410.613837693 L 554 385.051740808 L 557 388.556911284 L 560 380.137048996 L 562 378.425017638 L 565 389.383333591 L 568 387.671302233 L 571 374.779552659 L 574 394.681643185 L 577 401.168071852 L 580 387.53100773 L 582 393.272121849 L 585 406.466381445 L 588 365.252679057 L 591 389.62665687 L 594 405.056860109 L 597 391.419795988 L 600 401.632797393 L 602 390.976991462 L 605 398.208734677 L 608 392.024816032 L 611 393.294042865 L 614 409.469560652 L 617 377.944947385 L 620 399.337667006"/>
		</g>
		<text class="x-axis-label" x="40.0" y="540">0</text>
		<path class="x-notch" d="M 54.2857142857 525 L 54.2857142857 530"/>
		<text class="x-axis-label" x="68.5714285714" y="540">10</text>
		<path class="x-notch" d="M 82.8571428571 525 L 82.8571428571 530"/>
		<text class="x-axis-label" x="97.1428571429" y="540">20</text>
		<path class="x-notch" d="M 111.428571429 525 L 111.428571429 530"/>
		<text class="x-axis-label" x="125.714285714" y="540">30</text>
		<path class="x-notch" d="M 140.0 525 L 140.0 530"/>
		<text class="x-axis-label" x="154.285714286" y="540">40</text>
		<path class="x-notch" d="M 168.571428571 525 L 168.571428571 530"/>
		<text class="x-axis-label" x="182.857142857" y="540">50</text>
		<path class="x-notch" d="M 197.142857143 525 L 197.142857143 530"/>
		<text class="x-axis-label" x="211.428571429" y="540">60</text>
		<path class="x-notch" d="M 225.714285714 525 L 225.714285714 530"/>
		<text class="x-axis-label" x="240.0" y="540">70</text>
		<path class="x-notch" d="M 254.285714286 525 L 254.285714286 530"/>
		<text class="x-axis-label" x="268.571428571" y="540">80</text>
		<path class="x-notch" d="M 282.857142857 525 L 282.857142857 530"/>
		<text class="x-axis-label" x="297.142857143" y="540">90</text>
		<path class="x-notch" d="M 311.428571429 525 L 311.428571429 530"/>
		<text class="x-axis-label" x="325.714285714" y="540">100</text>
		<path class="x-notch" d="M 340.0 525 L 340.0 530"/>
		<text class="x-axis-label" x="354.285714286" y="540">110</text>
		<path class="x-notch" d="M 368.571428571 525 L 368.571428571 530"/>
		<text class="x-axis-label" x="382.857142857" y="540">120</text>
		<path class="x-notch" d="M 397.142857143 525 L 397.142857143 530"/>
		<text class="x-axis-label" x="411.428571429" y="540">130</text>
		<path class="x-notch" d="M 425.714285714 525 L 425.714285714 530"/>
		<text class="x-axis-label" x="440.0" y="540">140</text>
		<path class="x-notch" d="M 454.285714286 525 L 454.285714286 530"/>
		<text class="x-axis-label" x="468.571428571" y="540">150</text>
		<path class="x-notch" d="M 482.857142857 525 L 482.857142857 530"/>
		<text class="x-axis-label" x="497.142857143" y="540">160</text>
		<path class="x-notch" d="M 511.428571429 525 L 511.428571429 530"/>
		<text class="x-axis-label" x="525.714285714" y="540">170</text>
		<path class="x-notch" d="M 540.0 525 L 540.0 530"/>
		<text class="x-axis-label" x="554.285714286" y="540">180</text>
		<path class="x-notch" d="M 568.571428571 525 L 568.571428571 530"/>
		<text class="x-axis-label" x="582.857142857" y="540">190</text>
		<path class="x-notch" d="M 597.142857143 525 L 597.142857143 530"/>
		<text class="x-axis-label" x="611.428571429" y="540">200</text>
		<path class="x-notch" d="M 625.714285714 525 L 625.714285714 530"/>
	</g>
</svg>
