<?xml version="1.0" ?>
<svg height="600" version="1.1" width="800" xmlns="http://www.w3.org/2000/svg" xmlns:svg="http://www.w3.org/2000/svg">
	<style type="text/css">
		

.x-axis-path, .y-gridline, .x-notch { fill:none; stroke: #a7a9ac; stroke-width:1; }



.y-gridline { stroke-width: 1; }

.y-axis-path, .y-axis-path2, .x-notch-left, .x-notch-right { display: none;}



.x-axis-label, .data-point-label {font-size: 12px; font-weight:normal; font-family: sans-serif; fill: #58595b; text-anchor:middle;}

.y-axis-label {font-size: 12px; font-family: helvetica; fill: #a7a9ac; text-anchor:end;}



.series-1-line { fill: none; stroke: #10b80c; stroke-width:2; }



.series-2-line { fill: none; stroke: #e90f0a; stroke-width: 2;}

	</style>
	<rect fill="white" height="600" width="800" x="0" y="0"/>
	<g id="grid" transform="translate(70, 30)">
		<g class="x-axis" id="x_axis">
			<path class="x-axis-path" d="M 0 525 L 660 525"/>
			<path class="x-notch-left" d="M 0 525, L 0 535"/>
			<path class="x-notch-right" d="M 660 525, L 660 535"/>
		</g>
		<g class="y-axis" id="y_axis">
			<path class="y-axis-path" d="M 0 525 L 0 0"/>
			<path class="y-axis-path-2" d="M 660 525 L 660 0"/>
			<path class="y-gridline" d="M 0 525 L 660 525"/>
			<text class="y-axis-label" x="-5" y="525">
				-100
			</text>
			<path class="y-gridline" d="M 0 450 L 660 450"/>
			<text class="y-axis-label" x="-5" y="450">
				 0
			</text>
			<path class="y-gridline" d="M 0 375 L 660 375"/>
			<text class="y-axis-label" x="-5" y="375">
				100
			</text>
			<path class="y-gridline" d="M 0 300 L 660 300"/>
			<text class="y-axis-label" x="-5" y="300">
				200
			</text>
			<path class="y-gridline" d="M 0 225 L 660 225"/>
			<text class="y-axis-label" x="-5" y="225">
				300
			</text>
			<path class="y-gridline" d="M 0 150 L 660 150"/>
			<text class="y-axis-label" x="-5" y="150">
				400
			</text>
			<path class="y-gridline" d="M 0 75 L 660 75"/>
			<text class="y-axis-label" x="-5" y="75">
				500
			</text>
			<path class="y-gridline" d="M 0 0 L 660 0"/>
			<text class="y-axis-label" x="-5" y="0">
				600
			</text>
		</g>
		<g>
			<path class="series-1-line" d="M 40 452.41548 L 45 453.951761739 L 50 450.584243478 L 55 434.371325217 L 60 459.427006957 L 65 449.828788696 L 70 438.557770435 L 75 440.574952174 L 80 458.053533913 L 85 453.667215652 L 90 449.665197391 L 95 450.99027913 L 101 447.46916087 L 106 419.621042609 L 111 460.003424348 L 116 418.175006087 L 121 412.441987826 L 126 444.670969565 L 131 444.668851304 L 136 426.340033043 L 141 397.126614783 L 146 395.567196522 L 151 392.103678261 L 157 399.35166 L 162 369.810941739 L 167 385.136123478 L 172 378.384305217 L 177 366.863086957 L 182 349.726468696 L 187 353.378350435 L 192 360.799432174 L 197 326.624313913 L 202 283.834095652 L 207 322.716777391 L 212 284.42625913 L 218 280.84724087 L 223 277.537622609 L 228 265.343204348 L 233 297.110486087 L 238 253.954867826 L 243 271.126249565 L 248 251.739331304 L 253 212.660413043 L 258 223.908594783 L 263 189.944976522 L 268 60.9812582609 L 274 120.42174 L 279 33.7466217391 L 284 109.032803478 L 289 41.5504852174 L 294 66.8365669565 L 299 66.3925486957 L 304 120.428830435 L 309 135.446512174 L 314 88.059693913 L 319 80.7693756522 L 324 124.612857391 L 330 140.11113913 L 335 89.0706208696 L 340 115.473002609 L 345 140.086184348 L 350 142.603466087 L 355 91.4663478261 L 360 114.349129565 L 365 164.154511304 L 370 199.633993043 L 375 178.477974783 L 380 135.514956522 L 385 150.608838261 L 391 173.66442 L 396 150.912101739 L 401 164.622383478 L 406 131.870765217 L 411 170.156746957 L 416 241.654828696 L 421 234.095410435 L 426 217.939192174 L 431 189.148173913 L 436 246.184455652 L 441 213.317637391 L 447 239.64291913 L 452 261.21710087 L 457 263.330882609 L 462 263.636864348 L 467 296.731046087 L 472 265.306027826 L 477 291.265609565 L 482 359.475391304 L 487 305.339173043 L 492 387.702354783 L 497 365.757936522 L 502 374.660118261 L 508 364.8702 L 513 378.656681739 L 518 431.251163478 L 523 397.634345217 L 528 406.824226957 L 533 448.669108696 L 538 441.455590435 L 543 443.569072174 L 548 436.067253913 L 553 453.430935652 L 558 457.121217391 L 564 440.25369913 L 569 447.11738087 L 574 455.653862609 L 579 459.402044348 L 584 454.746026087 L 589 450.321007826 L 594 441.626989565 L 599 461.201671304 L 604 431.719453043 L 609 452.986734783 L 614 437.619216522 L 620 465.348198261"/>
			<path class="series-2-line" d="M 40 459.3 L 45 435.9 L 50 417.0 L 55 471.6 L 60 464.7 L 65 452.55 L 70 467.4 L 75 456.75 L 80 432.6 L 85 455.7 L 90 448.05 L 95 457.65 L 101 462.75 L 106 460.35 L 111 431.7 L 116 475.05 L 121 444.9 L 126 459.75 L 131 442.35 L 136 446.7 L 141 452.55 L 146 473.4 L 151 469.5 L 157 461.85 L 162 430.95 L 167 450.3 L 172 462.15 L 177 457.5 L 182 451.35 L 187 448.95 L 192 443.55 L 197 433.65 L 202 451.5 L 207 452.1 L 212 440.7 L 218 425.55 L 223 426.9 L 228 410.25 L 233 409.35 L 238 425.7 L 243 449.55 L 248 414.15 L 253 408.75 L 258 420.6 L 263 406.95 L 268 383.55 L 274 394.65 L 279 384.75 L 284 351.6 L 289 389.7 L 294 346.8 L 299 369.15 L 304 345.75 L 309 383.85 L 314 358.2 L 319 366.3 L 324 294.9 L 330 316.5 L 335 305.1 L 340 351.45 L 345 325.8 L 350 324.9 L 355 270.0 L 360 280.35 L 365 244.2 L 370 307.8 L 375 285.15 L 380 330.0 L 385 297.6 L 391 280.95 L 396 244.05 L 401 310.65 L 406 342.0 L 411 289.35 L 416 291.45 L 421 312.3 L 426 270.15 L 431 210.0 L 436 186.6 L 441 235.95 L 447 265.05 L 452 186.9 L 457 219.75 L 462 242.1 L 467 238.95 L 472 238.8 L 477 237.15 L 482 255.0 L 487 287.85 L 492 262.2 L 497 245.55 L 502 272.4 L 508 319.5 L 513 315.6 L 518 341.7 L 523 391.05 L 528 343.65 L 533 408.75 L 538 404.85 L 543 408.45 L 548 420.3 L 553 443.4 L 558 435.0 L 564 416.1 L 569 439.2 L 574 435.3 L 579 447.15 L 584 424.5 L 589 424.35 L 594 446.7 L 599 417.3 L 604 465.15 L 609 464.25 L 614 445.35 L 620 460.2"/>
		</g>
		<text class="x-axis-label" x="40.0" y="540">
			0
		</text>
		<path class="x-notch" d="M 65.4385964912 525 L 65.4385964912 530"/>
		<text class="x-axis-label" x="90.8771929825" y="540">
			10
		</text>
		<path class="x-notch" d="M 116.315789474 525 L 116.315789474 530"/>
		<text class="x-axis-label" x="141.754385965" y="540">
			20
		</text>
		<path class="x-notch" d="M 167.192982456 525 L 167.192982456 530"/>
		<text class="x-axis-label" x="192.631578947" y="540">
			30
		</text>
		<path class="x-notch" d="M 218.070175439 525 L 218.070175439 530"/>
		<text class="x-axis-label" x="243.50877193" y="540">
			40
		</text>
		<path class="x-notch" d="M 268.947368421 525 L 268.947368421 530"/>
		<text class="x-axis-label" x="294.385964912" y="540">
			50
		</text>
		<path class="x-notch" d="M 319.824561404 525 L 319.824561404 530"/>
		<text class="x-axis-label" x="345.263157895" y="540">
			60
		</text>
		<path class="x-notch" d="M 370.701754386 525 L 370.701754386 530"/>
		<text class="x-axis-label" x="396.140350877" y="540">
			70
		</text>
		<path class="x-notch" d="M 421.578947368 525 L 421.578947368 530"/>
		<text class="x-axis-label" x="447.01754386" y="540">
			80
		</text>
		<path class="x-notch" d="M 472.456140351 525 L 472.456140351 530"/>
		<text class="x-axis-label" x="497.894736842" y="540">
			90
		</text>
		<path class="x-notch" d="M 523.333333333 525 L 523.333333333 530"/>
		<text class="x-axis-label" x="548.771929825" y="540">
			100
		</text>
		<path class="x-notch" d="M 574.210526316 525 L 574.210526316 530"/>
		<text class="x-axis-label" x="599.649122807" y="540">
			110
		</text>
		<path class="x-notch" d="M 625.087719298 525 L 625.087719298 530"/>
	</g>
</svg>
