<?xml version="1.0" ?>
<svg height="600" version="1.1" width="800" xmlns="http://www.w3.org/2000/svg" xmlns:svg="http://www.w3.org/2000/svg">
	<style type="text/css">
		

.x-axis-path, .y-gridline, .x-notch { fill:none; stroke: #a7a9ac; stroke-width:1; }



.y-gridline { stroke-width: 1; }

.y-axis-path, .y-axis-path2, .x-notch-left, .x-notch-right { display: none;}



.x-axis-label, .data-point-label {font-size: 12px; font-weight:normal; font-family: sans-serif; fill: #58595b; text-anchor:middle;}

.y-axis-label {font-size: 12px; font-family: helvetica; fill: #a7a9ac; text-anchor:end;}



.series-1-line { fill: none; stroke: #10b80c; stroke-width:2; }



.series-2-line { fill: none; stroke: #e90f0a; stroke-width: 2;}

	</style>
	<rect fill="white" height="600" width="800" x="0" y="0"/>
	<g id="grid" transform="translate(70, 30)">
		<g class="x-axis" id="x_axis">
			<path class="x-axis-path" d="M 0 525 L 660 525"/>
			<path class="x-notch-left" d="M 0 525, L 0 535"/>
			<path class="x-notch-right" d="M 660 525, L 660 535"/>
		</g>
		<g class="y-axis" id="y_axis">
			<path class="y-axis-path" d="M 0 525 L 0 0"/>
			<path class="y-axis-path-2" d="M 660 525 L 660 0"/>
			<path class="y-gridline" d="M 0 525 L 660 525"/>
			<text class="y-axis-label" x="-5" y="525">
				-200
			</text>
			<path class="y-gridline" d="M 0 394 L 660 394"/>
			<text class="y-axis-label" x="-5" y="394">
				 0
			</text>
			<path class="y-gridline" d="M 0 263 L 660 263"/>
			<text class="y-axis-label" x="-5" y="263">
				200
			</text>
			<path class="y-gridline" d="M 0 132 L 660 132"/>
			<text class="y-axis-label" x="-5" y="132">
				400
			</text>
			<path class="y-gridline" d="M 0 1 L 660 1"/>
			<text class="y-axis-label" x="-5" y="1">
				600
			</text>
		</g>
		<g>
			<path class="series-1-line" d="M 40 418.15343885 L 44 387.573201898 L 48 387.252691484 L 52 396.708623293 L 57 377.659791293 L 61 394.390307199 L 65 427.011264122 L 70 399.707950239 L 74 395.182128998 L 78 384.69764389 L 83 394.385370822 L 87 376.98727423 L 91 361.499072871 L 96 345.004011446 L 100 384.770374975 L 104 363.529147436 L 109 361.737381866 L 113 374.650521839 L 117 342.419549479 L 122 341.273268939 L 126 325.268760041 L 130 340.863640813 L 135 302.699759599 L 139 339.319182396 L 143 299.065925698 L 148 328.203919443 L 152 289.446868071 L 156 277.001782547 L 161 233.781870211 L 165 212.127355187 L 169 238.067703015 L 174 227.350215518 L 178 209.384703781 L 182 168.461011883 L 187 212.303106327 L 191 165.110885554 L 195 162.003602176 L 200 139.162746834 L 204 130.560792257 L 208 90.3590455866 L 213 123.032317381 L 217 137.028375195 L 221 72.938450917 L 226 78.9383818282 L 230 52.8986733034 L 234 66.2496485088 L 239 24.113056436 L 243 61.5827971055 L 247 28.1662892728 L 252 66.6948024577 L 256 0.0 L 260 8.94002669119 L 265 56.4715268444 L 269 172.698489649 L 273 117.40551223 L 278 169.528245994 L 282 38.0338291253 L 286 169.480395324 L 291 56.9714477568 L 295 105.3025606 L 299 110.786183972 L 304 129.450740436 L 308 178.633378419 L 312 137.502439146 L 317 155.058725179 L 321 192.916400742 L 325 276.227248801 L 330 203.057474936 L 334 271.40667216 L 338 325.850978953 L 342 288.461357838 L 347 309.654332286 L 351 205.195033759 L 355 357.614631955 L 360 338.771437642 L 364 322.792281335 L 368 352.886027541 L 373 389.06681026 L 377 318.244766861 L 381 281.420146359 L 386 383.976025966 L 390 322.054351902 L 394 368.449412077 L 399 389.644801058 L 403 390.71667107 L 407 370.352321263 L 412 374.984419494 L 416 386.01382167 L 420 401.789792382 L 425 390.42802712 L 429 374.242025859 L 433 371.23856738 L 438 414.643229014 L 442 382.257726572 L 446 392.616693548 L 451 379.990920506 L 455 381.011682914 L 459 400.682697022 L 464 401.85758709 L 468 386.57542584 L 472 380.528046682 L 477 392.718436583 L 481 391.67557852 L 485 406.264806493 L 490 406.098826161 L 494 387.25603427 L 498 401.639222133 L 503 399.125511336 L 507 378.271413846 L 511 396.884862705 L 516 394.732526944 L 520 393.044586272 L 524 367.495027852 L 529 383.348263604 L 533 393.578455512 L 537 405.355960351 L 542 376.659461196 L 546 408.325872925 L 550 393.584969384 L 555 398.629550257 L 559 365.522102588 L 563 373.842801685 L 568 389.386977274 L 572 393.683455483 L 576 393.285680028 L 581 371.605409991 L 585 380.984076758 L 589 405.11795183 L 594 382.251341475 L 598 384.097471587 L 602 391.102652875 L 607 396.431343743 L 611 391.260842316 L 615 411.731871536 L 620 380.326669303"/>
			<path class="series-2-line" d="M 40 408.438406238 L 44 369.412406347 L 48 396.786051091 L 52 389.953818297 L 57 396.200303385 L 61 392.386236255 L 65 381.529782573 L 70 419.970034757 L 74 397.040918414 L 78 401.275293059 L 83 358.225072281 L 87 342.33834249 L 91 421.020803544 L 96 421.230957302 L 100 394.277620072 L 104 428.693651369 L 109 371.558657487 L 113 414.023130557 L 117 397.130345545 L 122 396.334444081 L 126 437.79286193 L 130 375.627591939 L 135 381.874077027 L 139 375.041844232 L 143 393.360991981 L 148 337.232053321 L 152 357.563311513 L 156 353.749244383 L 161 364.019950358 L 165 345.115054902 L 169 395.627969747 L 174 318.37187143 L 178 312.545693857 L 182 357.022277371 L 187 322.020498368 L 191 363.478916217 L 195 315.39841933 L 200 324.663070083 L 204 270.546241867 L 208 280.816947841 L 213 340.384359682 L 217 331.540016444 L 221 262.332359901 L 226 323.911882185 L 230 322.109925499 L 234 296.162643491 L 239 294.360686804 L 243 193.965318387 L 247 283.71438688 L 252 292.979037633 L 256 277.092307843 L 260 272.272185491 L 265 289.585278019 L 269 301.868094437 L 273 272.902646764 L 278 240.919033425 L 282 289.419837827 L 286 281.58154981 L 291 271.73115135 L 295 282.001857325 L 299 306.357336404 L 304 236.143624639 L 308 270.559655936 L 312 229.521545602 L 317 253.877024681 L 321 250.062957552 L 325 257.315497861 L 330 231.368215853 L 334 257.735805376 L 338 216.697695042 L 342 259.162168113 L 347 226.172499553 L 351 334.030562037 L 355 389.573752991 L 360 324.390317334 L 364 322.588360648 L 368 392.216324706 L 373 375.323539694 L 377 375.533693452 L 381 172.520692416 L 386 277.360589235 L 390 340.952221963 L 394 221.441804332 L 399 423.869057661 L 403 390.879389101 L 407 406.180371184 L 412 406.390524942 L 416 389.497739929 L 420 377.635231026 L 425 361.748501235 L 429 313.668004349 L 433 327.962931211 L 438 400.609060934 L 442 407.861601244 L 446 417.126251997 L 451 402.245577428 L 455 416.54050429 L 459 385.562946173 L 464 336.476394065 L 468 382.965088023 L 472 401.284235772 L 477 399.482279086 L 481 421.825647722 L 485 398.896531379 L 490 402.124850801 L 494 376.177568793 L 498 385.442219547 L 503 362.513103204 L 507 415.038128492 L 511 392.109012149 L 516 391.313110685 L 520 396.553540551 L 524 396.763694309 L 529 372.828522744 L 533 402.214277932 L 537 386.327548142 L 542 406.658806334 L 546 387.753910878 L 550 388.970119858 L 555 364.028893071 L 559 405.48731092 L 563 379.540028912 L 568 403.895507992 L 572 377.948225984 L 576 417.394533389 L 581 402.513858821 L 585 407.754288687 L 589 386.837282787 L 594 400.126154428 L 598 403.35447385 L 602 386.461688838 L 607 395.726339591 L 611 394.930438127 L 615 396.146647106 L 620 407.423408303"/>
		</g>
		<text class="x-axis-label" x="40.0" y="540">
			0
		</text>
		<path class="x-notch" d="M 61.6417910448 525 L 61.6417910448 530"/>
		<text class="x-axis-label" x="83.2835820896" y="540">
			10
		</text>
		<path class="x-notch" d="M 104.925373134 525 L 104.925373134 530"/>
		<text class="x-axis-label" x="126.567164179" y="540">
			20
		</text>
		<path class="x-notch" d="M 148.208955224 525 L 148.208955224 530"/>
		<text class="x-axis-label" x="169.850746269" y="540">
			30
		</text>
		<path class="x-notch" d="M 191.492537313 525 L 191.492537313 530"/>
		<text class="x-axis-label" x="213.134328358" y="540">
			40
		</text>
		<path class="x-notch" d="M 234.776119403 525 L 234.776119403 530"/>
		<text class="x-axis-label" x="256.417910448" y="540">
			50
		</text>
		<path class="x-notch" d="M 278.059701493 525 L 278.059701493 530"/>
		<text class="x-axis-label" x="299.701492537" y="540">
			60
		</text>
		<path class="x-notch" d="M 321.343283582 525 L 321.343283582 530"/>
		<text class="x-axis-label" x="342.985074627" y="540">
			70
		</text>
		<path class="x-notch" d="M 364.626865672 525 L 364.626865672 530"/>
		<text class="x-axis-label" x="386.268656716" y="540">
			80
		</text>
		<path class="x-notch" d="M 407.910447761 525 L 407.910447761 530"/>
		<text class="x-axis-label" x="429.552238806" y="540">
			90
		</text>
		<path class="x-notch" d="M 451.194029851 525 L 451.194029851 530"/>
		<text class="x-axis-label" x="472.835820896" y="540">
			100
		</text>
		<path class="x-notch" d="M 494.47761194 525 L 494.47761194 530"/>
		<text class="x-axis-label" x="516.119402985" y="540">
			110
		</text>
		<path class="x-notch" d="M 537.76119403 525 L 537.76119403 530"/>
		<text class="x-axis-label" x="559.402985075" y="540">
			120
		</text>
		<path class="x-notch" d="M 581.044776119 525 L 581.044776119 530"/>
		<text class="x-axis-label" x="602.686567164" y="540">
			130
		</text>
		<path class="x-notch" d="M 624.328358209 525 L 624.328358209 530"/>
	</g>
</svg>
