<?xml version="1.0" ?>
<svg height="600" version="1.1" width="800" xmlns="http://www.w3.org/2000/svg" xmlns:svg="http://www.w3.org/2000/svg">
	<style type="text/css">
		

.x-axis-path, .y-gridline, .x-notch { fill:none; stroke: #a7a9ac; stroke-width:1; }



.y-gridline { stroke-width: 1; }

.y-axis-path, .y-axis-path2, .x-notch-left, .x-notch-right { display: none;}



.x-axis-label, .data-point-label {font-size: 12px; font-weight:normal; font-family: sans-serif; fill: #58595b; text-anchor:middle;}

.y-axis-label {font-size: 12px; font-family: helvetica; fill: #a7a9ac; text-anchor:end;}



.series-1-line { fill: none; stroke: #10b80c; stroke-width:2; }



.series-2-line { fill: none; stroke: #e90f0a; stroke-width: 2;}

	</style>
	<rect fill="white" height="600" width="800" x="0" y="0"/>
	<g id="grid" transform="translate(70, 30)">
		<g class="x-axis" id="x_axis">
			<path class="x-axis-path" d="M 0 525 L 660 525"/>
			<path class="x-notch-left" d="M 0 525, L 0 535"/>
			<path class="x-notch-right" d="M 660 525, L 660 535"/>
		</g>
		<g class="y-axis" id="y_axis">
			<path class="y-axis-path" d="M 0 525 L 0 0"/>
			<path class="y-axis-path-2" d="M 660 525 L 660 0"/>
			<path class="y-gridline" d="M 0 525 L 660 525"/>
			<text class="y-axis-label" x="-5" y="525">
				-200
			</text>
			<path class="y-gridline" d="M 0 420 L 660 420"/>
			<text class="y-axis-label" x="-5" y="420">
				 0
			</text>
			<path class="y-gridline" d="M 0 315 L 660 315"/>
			<text class="y-axis-label" x="-5" y="315">
				200
			</text>
			<path class="y-gridline" d="M 0 210 L 660 210"/>
			<text class="y-axis-label" x="-5" y="210">
				400
			</text>
			<path class="y-gridline" d="M 0 105 L 660 105"/>
			<text class="y-axis-label" x="-5" y="105">
				600
			</text>
			<path class="y-gridline" d="M 0 0 L 660 0"/>
			<text class="y-axis-label" x="-5" y="0">
				800
			</text>
		</g>
		<g>
			<path class="series-1-line" d="M 40 438.199986 L 45 419.327172765 L 51 427.565779529 L 57 412.879526294 L 62 400.010403059 L 68 402.258759824 L 74 421.212826588 L 80 418.008953353 L 85 429.141990118 L 91 410.659566882 L 97 403.282783647 L 103 397.817840412 L 108 389.942937176 L 114 392.393103941 L 120 415.789300706 L 126 400.658897471 L 131 376.401474235 L 137 403.755541 L 143 387.426667765 L 149 370.532894529 L 154 350.838771294 L 160 363.330928059 L 166 368.890984824 L 172 343.543241588 L 177 386.499048353 L 183 356.291485118 L 189 346.357111882 L 195 353.842028647 L 200 351.769215412 L 206 345.765412176 L 212 345.523378941 L 218 348.040955706 L 223 313.633392471 L 229 324.456679235 L 235 328.993196 L 240 308.127902765 L 246 282.807039529 L 252 295.609576294 L 258 295.623113059 L 263 293.415479824 L 269 241.750326588 L 275 237.389143353 L 281 176.529560118 L 286 232.058486882 L 292 180.770283647 L 298 122.899210412 L 304 76.7129571765 L 309 166.690073941 L 315 159.784530706 L 321 215.919517471 L 327 145.031174235 L 332 163.810311 L 338 62.5122877647 L 344 103.354654529 L 350 126.885251294 L 355 111.526158059 L 361 146.055084824 L 367 175.199821588 L 373 135.286478353 L 378 117.490545118 L 384 209.231031882 L 390 151.939138647 L 396 132.998915412 L 401 128.274012176 L 407 143.728218941 L 413 194.088205706 L 419 100.463162471 L 424 129.741879235 L 430 138.249706 L 436 164.553982765 L 441 155.103659529 L 447 186.697626294 L 453 202.555873059 L 459 232.131109824 L 464 156.436916588 L 470 140.633673353 L 476 222.574300118 L 482 263.659006882 L 487 245.971223647 L 493 362.629260412 L 499 394.776157176 L 505 405.854593941 L 510 416.583800706 L 516 415.763217471 L 522 429.817144235 L 528 414.350111 L 533 425.443247765 L 539 442.929834529 L 545 443.562661294 L 551 428.149388059 L 556 424.016894824 L 562 442.459611588 L 568 424.502188353 L 574 437.977355118 L 579 443.954471882 L 585 448.585488647 L 591 429.564415412 L 597 439.929902176 L 602 420.895808941 L 608 409.884345706 L 614 414.448162471 L 620 417.867479235"/>
			<path class="series-2-line" d="M 40 418.635 L 45 423.756323529 L 51 417.327647059 L 57 424.548970588 L 62 414.445294118 L 68 421.141617647 L 74 422.062941176 L 80 398.834264706 L 85 411.830588235 L 91 417.476911765 L 97 410.523235294 L 103 432.969558824 L 108 421.815882353 L 114 417.487205882 L 120 401.083529412 L 126 416.179852941 L 131 421.826176471 L 137 422.7475 L 143 399.518823529 L 149 423.540147059 L 154 413.436470588 L 160 378.132794118 L 166 400.579117647 L 172 412.525441176 L 177 395.596764706 L 183 387.593088235 L 189 390.614411765 L 195 399.410735294 L 200 404.532058824 L 206 388.128382353 L 212 394.299705882 L 218 399.946029412 L 223 391.942352941 L 229 391.813676471 L 235 369.11 L 240 357.431323529 L 246 365.177647059 L 252 404.423970588 L 258 391.170294118 L 263 376.341617647 L 269 378.312941176 L 275 392.359264706 L 281 374.905588235 L 286 362.176911765 L 292 366.773235294 L 298 354.044558824 L 304 361.265882353 L 309 359.562205882 L 315 361.008529412 L 321 376.629852941 L 327 367.576176471 L 332 375.3225 L 338 359.968823529 L 344 345.140147059 L 350 307.736470588 L 355 338.057794118 L 361 325.329117647 L 367 354.075441176 L 373 345.021764706 L 378 345.943088235 L 384 335.314411765 L 390 355.135735294 L 396 350.282058824 L 401 339.128382353 L 407 353.699705882 L 413 369.321029412 L 419 344.517352941 L 424 311.313676471 L 430 303.835 L 436 325.231323529 L 441 273.127647059 L 447 226.798970588 L 453 260.270294118 L 459 262.766617647 L 464 245.837941176 L 470 284.034264706 L 476 287.055588235 L 482 275.376911765 L 487 320.923235294 L 493 333.919558824 L 499 385.765882353 L 505 325.262205882 L 510 339.833529412 L 516 374.879852941 L 522 362.151176471 L 528 368.3225 L 533 428.568823529 L 539 412.690147059 L 545 405.211470588 L 551 402.982794118 L 556 401.804117647 L 562 421.100441176 L 568 426.746764706 L 574 422.418088235 L 579 420.714411765 L 585 424.260735294 L 591 411.532058824 L 597 400.903382353 L 602 431.224705882 L 608 417.971029412 L 614 432.017352941 L 620 419.813676471"/>
		</g>
		<text class="x-axis-label" x="40.0" y="540">
			0
		</text>
		<path class="x-notch" d="M 68.7128712871 525 L 68.7128712871 530"/>
		<text class="x-axis-label" x="97.4257425743" y="540">
			10
		</text>
		<path class="x-notch" d="M 126.138613861 525 L 126.138613861 530"/>
		<text class="x-axis-label" x="154.851485149" y="540">
			20
		</text>
		<path class="x-notch" d="M 183.564356436 525 L 183.564356436 530"/>
		<text class="x-axis-label" x="212.277227723" y="540">
			30
		</text>
		<path class="x-notch" d="M 240.99009901 525 L 240.99009901 530"/>
		<text class="x-axis-label" x="269.702970297" y="540">
			40
		</text>
		<path class="x-notch" d="M 298.415841584 525 L 298.415841584 530"/>
		<text class="x-axis-label" x="327.128712871" y="540">
			50
		</text>
		<path class="x-notch" d="M 355.841584158 525 L 355.841584158 530"/>
		<text class="x-axis-label" x="384.554455446" y="540">
			60
		</text>
		<path class="x-notch" d="M 413.267326733 525 L 413.267326733 530"/>
		<text class="x-axis-label" x="441.98019802" y="540">
			70
		</text>
		<path class="x-notch" d="M 470.693069307 525 L 470.693069307 530"/>
		<text class="x-axis-label" x="499.405940594" y="540">
			80
		</text>
		<path class="x-notch" d="M 528.118811881 525 L 528.118811881 530"/>
		<text class="x-axis-label" x="556.831683168" y="540">
			90
		</text>
		<path class="x-notch" d="M 585.544554455 525 L 585.544554455 530"/>
		<text class="x-axis-label" x="614.257425743" y="540">
			100
		</text>
		<path class="x-notch" d="M 642.97029703 525 L 642.97029703 530"/>
	</g>
</svg>
