<?xml version="1.0" ?>
<svg height="600" version="1.1" width="800" xmlns="http://www.w3.org/2000/svg" xmlns:svg="http://www.w3.org/2000/svg">
	<style type="text/css">
		

.x-axis-path, .y-gridline, .x-notch { fill:none; stroke: #a7a9ac; stroke-width:1; }



.y-gridline { stroke-width: 1; }

.y-axis-path, .y-axis-path2, .x-notch-left, .x-notch-right { display: none;}



.x-axis-label, .data-point-label {font-size: 12px; font-weight:normal; font-family: sans-serif; fill: #58595b; text-anchor:middle;}

.y-axis-label {font-size: 12px; font-family: helvetica; fill: #a7a9ac; text-anchor:end;}



.series-1-line { fill: none; stroke: #10b80c; stroke-width:2; }



.series-2-line { fill: none; stroke: #e90f0a; stroke-width: 2;}

	</style>
	<rect fill="white" height="600" width="800" x="0" y="0"/>
	<g id="grid" transform="translate(70, 30)">
		<g class="x-axis" id="x_axis">
			<path class="x-axis-path" d="M 0 525 L 660 525"/>
			<path class="x-notch-left" d="M 0 525, L 0 535"/>
			<path class="x-notch-right" d="M 660 525, L 660 535"/>
		</g>
		<g class="y-axis" id="y_axis">
			<path class="y-axis-path" d="M 0 525 L 0 0"/>
			<path class="y-axis-path-2" d="M 660 525 L 660 0"/>
			<path class="y-gridline" d="M 0 525 L 660 525"/>
			<text class="y-axis-label" x="-5" y="525">
				-100
			</text>
			<path class="y-gridline" d="M 0 450 L 660 450"/>
			<text class="y-axis-label" x="-5" y="450">
				 0
			</text>
			<path class="y-gridline" d="M 0 375 L 660 375"/>
			<text class="y-axis-label" x="-5" y="375">
				100
			</text>
			<path class="y-gridline" d="M 0 300 L 660 300"/>
			<text class="y-axis-label" x="-5" y="300">
				200
			</text>
			<path class="y-gridline" d="M 0 225 L 660 225"/>
			<text class="y-axis-label" x="-5" y="225">
				300
			</text>
			<path class="y-gridline" d="M 0 150 L 660 150"/>
			<text class="y-axis-label" x="-5" y="150">
				400
			</text>
			<path class="y-gridline" d="M 0 75 L 660 75"/>
			<text class="y-axis-label" x="-5" y="75">
				500
			</text>
			<path class="y-gridline" d="M 0 0 L 660 0"/>
			<text class="y-axis-label" x="-5" y="0">
				600
			</text>
		</g>
		<g>
			<path class="series-1-line" d="M 40 446.9694 L 46 446.909796923 L 52 466.561993846 L 59 457.329290769 L 65 432.404487692 L 72 435.095284615 L 78 442.805081538 L 85 440.726478462 L 91 453.359275385 L 98 423.761372308 L 104 457.855869231 L 110 414.988666154 L 117 450.640763077 L 123 436.73526 L 130 440.387256923 L 136 462.289453846 L 143 434.518550769 L 149 450.882147692 L 156 449.630344615 L 162 426.013241538 L 168 436.280838462 L 175 437.490535385 L 181 443.238932308 L 188 419.121729231 L 194 429.100726154 L 201 433.079723077 L 207 401.88582 L 214 385.384116923 L 220 420.824713846 L 226 409.419110769 L 233 387.609507692 L 239 411.126904615 L 246 372.490601538 L 252 430.604298462 L 259 420.987295385 L 265 402.273992308 L 272 382.041489231 L 278 389.924386154 L 284 344.826383077 L 291 333.13248 L 297 323.476776923 L 304 256.628773846 L 310 245.261870769 L 317 183.144567692 L 323 190.181464615 L 330 186.737261538 L 336 147.254658462 L 342 105.156955385 L 349 135.943352308 L 355 152.133849231 L 362 97.8438461538 L 368 141.976643077 L 375 71.32104 L 381 103.261536923 L 388 88.7212338462 L 394 78.9311307692 L 400 103.410327692 L 407 22.0429246154 L 413 84.2912215385 L 420 120.481818462 L 426 105.325915385 L 433 68.0936123077 L 439 110.457309231 L 446 88.8211061538 L 452 110.395703077 L 458 128.721 L 465 119.373396923 L 471 45.3331938462 L 478 126.235190769 L 484 123.175587692 L 491 124.019884615 L 497 196.940981538 L 504 203.362878462 L 510 262.419175385 L 516 260.666972308 L 523 226.203669231 L 529 419.317966154 L 536 333.700163077 L 542 360.50646 L 549 279.985656923 L 555 332.367553846 L 562 433.194050769 L 568 435.808047692 L 574 444.536944615 L 581 443.073641538 L 587 434.783538462 L 594 458.570335385 L 600 463.222232308 L 607 448.951329231 L 613 428.315026154 L 620 450.678623077"/>
			<path class="series-2-line" d="M 40 466.5 L 46 449.156043956 L 52 457.312087912 L 59 437.718131868 L 65 438.374175824 L 72 460.03021978 L 78 459.186263736 L 85 464.342307692 L 91 455.998351648 L 98 454.404395604 L 104 461.81043956 L 110 453.466483516 L 117 451.872527473 L 123 459.278571429 L 130 447.934615385 L 136 456.090659341 L 143 461.996703297 L 149 456.652747253 L 156 449.808791209 L 162 451.214835165 L 168 460.870879121 L 175 450.276923077 L 181 462.932967033 L 188 454.589010989 L 194 450.745054945 L 201 446.901098901 L 207 460.307142857 L 214 463.213186813 L 220 465.369230769 L 226 463.025274725 L 233 445.681318681 L 239 435.837362637 L 246 440.243406593 L 252 444.649450549 L 259 455.805494505 L 265 452.711538462 L 272 452.617582418 L 278 454.023626374 L 284 442.67967033 L 291 456.085714286 L 297 443.991758242 L 304 432.647802198 L 310 453.553846154 L 317 435.45989011 L 323 451.865934066 L 330 436.021978022 L 336 426.178021978 L 342 444.084065934 L 349 411.74010989 L 355 404.146153846 L 362 422.802197802 L 368 414.458241758 L 375 412.114285714 L 381 404.52032967 L 388 393.926373626 L 394 402.832417582 L 400 418.488461538 L 407 390.644505495 L 413 393.550549451 L 420 395.706593407 L 426 364.112637363 L 433 383.518681319 L 439 387.924725275 L 446 402.080769231 L 452 344.236813187 L 458 354.642857143 L 465 382.298901099 L 471 381.454945055 L 478 370.110989011 L 484 352.767032967 L 491 340.673076923 L 497 316.579120879 L 504 370.485164835 L 510 403.391208791 L 516 357.547252747 L 523 354.453296703 L 529 417.359340659 L 536 350.515384615 L 542 383.421428571 L 549 399.077472527 L 555 302.983516484 L 562 430.38956044 L 568 464.045604396 L 574 450.451648352 L 581 447.357692308 L 587 456.263736264 L 594 462.91978022 L 600 441.825824176 L 607 447.731868132 L 613 452.137912088 L 620 446.793956044"/>
		</g>
		<text class="x-axis-label" x="40.0" y="540">
			0
		</text>
		<path class="x-notch" d="M 72.2222222222 525 L 72.2222222222 530"/>
		<text class="x-axis-label" x="104.444444444" y="540">
			10
		</text>
		<path class="x-notch" d="M 136.666666667 525 L 136.666666667 530"/>
		<text class="x-axis-label" x="168.888888889" y="540">
			20
		</text>
		<path class="x-notch" d="M 201.111111111 525 L 201.111111111 530"/>
		<text class="x-axis-label" x="233.333333333" y="540">
			30
		</text>
		<path class="x-notch" d="M 265.555555556 525 L 265.555555556 530"/>
		<text class="x-axis-label" x="297.777777778" y="540">
			40
		</text>
		<path class="x-notch" d="M 330.0 525 L 330.0 530"/>
		<text class="x-axis-label" x="362.222222222" y="540">
			50
		</text>
		<path class="x-notch" d="M 394.444444444 525 L 394.444444444 530"/>
		<text class="x-axis-label" x="426.666666667" y="540">
			60
		</text>
		<path class="x-notch" d="M 458.888888889 525 L 458.888888889 530"/>
		<text class="x-axis-label" x="491.111111111" y="540">
			70
		</text>
		<path class="x-notch" d="M 523.333333333 525 L 523.333333333 530"/>
		<text class="x-axis-label" x="555.555555556" y="540">
			80
		</text>
		<path class="x-notch" d="M 587.777777778 525 L 587.777777778 530"/>
		<text class="x-axis-label" x="620.0" y="540">
			90
		</text>
	</g>
</svg>
