<?xml version="1.0" ?>
<svg height="600" version="1.1" width="800" xmlns="http://www.w3.org/2000/svg" xmlns:svg="http://www.w3.org/2000/svg">
	<style type="text/css">
		

.x-axis-path, .y-gridline, .x-notch { fill:none; stroke: #a7a9ac; stroke-width:1; }



.y-gridline { stroke-width: 1; }

.y-axis-path, .y-axis-path2, .x-notch-left, .x-notch-right { display: none;}



.x-axis-label, .data-point-label {font-size: 12px; font-weight:normal; font-family: sans-serif; fill: #58595b; text-anchor:middle;}

.y-axis-label {font-size: 12px; font-family: helvetica; fill: #a7a9ac; text-anchor:end;}



.series-1-line { fill: none; stroke: #10b80c; stroke-width:2; }



.series-2-line { fill: none; stroke: #e90f0a; stroke-width: 2;}

	</style>
	<rect fill="white" height="600" width="800" x="0" y="0"/>
	<g id="grid" transform="translate(70, 30)">
		<g class="x-axis" id="x_axis">
			<path class="x-axis-path" d="M 0 525 L 660 525"/>
			<path class="x-notch-left" d="M 0 525, L 0 535"/>
			<path class="x-notch-right" d="M 660 525, L 660 535"/>
		</g>
		<g class="y-axis" id="y_axis">
			<path class="y-axis-path" d="M 0 525 L 0 0"/>
			<path class="y-axis-path-2" d="M 660 525 L 660 0"/>
			<path class="y-gridline" d="M 0 525 L 660 525"/>
			<text class="y-axis-label" x="-5" y="525">
				-200
			</text>
			<path class="y-gridline" d="M 0 394 L 660 394"/>
			<text class="y-axis-label" x="-5" y="394">
				 0
			</text>
			<path class="y-gridline" d="M 0 263 L 660 263"/>
			<text class="y-axis-label" x="-5" y="263">
				200
			</text>
			<path class="y-gridline" d="M 0 132 L 660 132"/>
			<text class="y-axis-label" x="-5" y="132">
				400
			</text>
			<path class="y-gridline" d="M 0 1 L 660 1"/>
			<text class="y-axis-label" x="-5" y="1">
				600
			</text>
		</g>
		<g>
			<path class="series-1-line" d="M 40 395.298015 L 47 390.659093734 L 54 389.486484968 L 62 396.912063703 L 69 391.734754937 L 77 418.864896171 L 84 376.685062405 L 92 396.831916139 L 99 347.113607373 L 106 350.131023608 L 114 338.980002342 L 121 303.900793576 L 129 273.29799731 L 136 255.399151044 L 144 250.709829778 L 151 175.162308513 L 158 185.667274747 L 166 198.023390981 L 173 188.554994715 L 181 165.675473449 L 188 115.385177184 L 196 96.4767559177 L 203 87.8496721519 L 211 89.5375258861 L 218 103.45814212 L 225 36.0381458544 L 233 57.0601745886 L 240 5.38991582278 L 248 26.462344557 L 255 41.3930607911 L 263 55.8861895253 L 270 42.5306932595 L 277 18.2376094937 L 285 65.4763007278 L 292 48.654491962 L 300 22.2243956962 L 307 69.8668119304 L 315 77.3601156646 L 322 118.675231899 L 330 138.738348133 L 337 202.332364367 L 344 158.671505601 L 352 271.905059335 L 359 262.41986307 L 367 239.389141804 L 374 267.444858038 L 382 251.649161772 L 389 265.317778006 L 396 258.205319241 L 404 271.436347975 L 411 253.773751709 L 419 324.468655443 L 426 315.420784177 L 434 380.395025411 L 441 377.606466646 L 448 381.80198288 L 456 394.612224114 L 463 389.418377848 L 471 375.238894082 L 478 411.203210316 L 486 389.939376551 L 493 405.257017785 L 501 394.240659019 L 508 407.555687753 L 515 400.948016487 L 523 383.991807722 L 530 402.388836456 L 538 418.36272769 L 545 399.908693924 L 553 409.589410158 L 560 392.700401392 L 567 381.650180127 L 575 390.439183861 L 582 386.018925095 L 590 392.519191329 L 597 387.897070063 L 605 404.998398797 L 612 403.976990032 L 620 386.347731266"/>
			<path class="series-2-line" d="M 40 387.7125 L 47 398.664398734 L 54 406.335047468 L 62 377.911946203 L 69 396.082594937 L 77 390.628243671 L 84 396.986392405 L 92 380.375791139 L 99 385.421439873 L 106 404.904588608 L 114 407.981487342 L 121 381.527136076 L 129 399.04153481 L 136 379.805933544 L 144 398.632832278 L 151 414.834731013 L 158 392.317879747 L 166 388.176028481 L 173 384.690427215 L 181 374.642325949 L 188 392.156724684 L 196 376.858623418 L 203 370.091772152 L 211 366.606170886 L 218 323.08931962 L 225 351.103718354 L 233 351.555617089 L 240 353.976265823 L 248 346.553164557 L 255 350.286313291 L 263 345.488212025 L 270 334.127610759 L 277 314.235759494 L 285 345.531408228 L 292 337.452056962 L 300 318.216455696 L 307 337.69960443 L 315 349.964003165 L 322 332.697151899 L 330 354.805300633 L 337 342.788449367 L 344 324.209098101 L 352 323.348496835 L 359 322.48789557 L 367 336.064794304 L 374 339.797943038 L 382 299.562341772 L 389 295.420490506 L 396 308.341139241 L 404 295.668037975 L 411 342.057436709 L 419 322.821835443 L 426 304.898734177 L 434 333.569382911 L 441 286.115031646 L 448 326.59818038 L 456 302.768829114 L 463 349.158227848 L 471 389.641376582 L 478 388.124525316 L 486 407.607674051 L 493 402.153322785 L 501 409.823971519 L 508 384.025870253 L 515 394.977768987 L 523 407.898417722 L 530 408.350316456 L 538 402.89596519 L 545 393.504113924 L 553 397.237262658 L 560 399.657911392 L 567 386.984810127 L 575 401.874208861 L 582 404.294857595 L 590 392.278006329 L 597 400.604905063 L 605 398.431803797 L 612 382.477452532 L 620 398.023101266"/>
		</g>
		<text class="x-axis-label" x="40.0" y="540">
			0
		</text>
		<path class="x-notch" d="M 77.1794871795 525 L 77.1794871795 530"/>
		<text class="x-axis-label" x="114.358974359" y="540">
			10
		</text>
		<path class="x-notch" d="M 151.538461538 525 L 151.538461538 530"/>
		<text class="x-axis-label" x="188.717948718" y="540">
			20
		</text>
		<path class="x-notch" d="M 225.897435897 525 L 225.897435897 530"/>
		<text class="x-axis-label" x="263.076923077" y="540">
			30
		</text>
		<path class="x-notch" d="M 300.256410256 525 L 300.256410256 530"/>
		<text class="x-axis-label" x="337.435897436" y="540">
			40
		</text>
		<path class="x-notch" d="M 374.615384615 525 L 374.615384615 530"/>
		<text class="x-axis-label" x="411.794871795" y="540">
			50
		</text>
		<path class="x-notch" d="M 448.974358974 525 L 448.974358974 530"/>
		<text class="x-axis-label" x="486.153846154" y="540">
			60
		</text>
		<path class="x-notch" d="M 523.333333333 525 L 523.333333333 530"/>
		<text class="x-axis-label" x="560.512820513" y="540">
			70
		</text>
		<path class="x-notch" d="M 597.692307692 525 L 597.692307692 530"/>
	</g>
</svg>
