<?xml version="1.0" ?>
<svg height="600" version="1.1" width="800" xmlns="http://www.w3.org/2000/svg" xmlns:svg="http://www.w3.org/2000/svg">
	<style type="text/css">
		

.x-axis-path, .y-gridline, .x-notch { fill:none; stroke: #a7a9ac; stroke-width:1; }



.y-gridline { stroke-width: 1; }

.y-axis-path, .y-axis-path2, .x-notch-left, .x-notch-right { display: none;}



.x-axis-label, .data-point-label {font-size: 12px; font-weight:normal; font-family: sans-serif; fill: #58595b; text-anchor:middle;}

.y-axis-label {font-size: 12px; font-family: helvetica; fill: #a7a9ac; text-anchor:end;}



.series-1-line { fill: none; stroke: #10b80c; stroke-width:2; }



.series-2-line { fill: none; stroke: #e90f0a; stroke-width: 2;}

	</style>
	<rect fill="white" height="600" width="800" x="0" y="0"/>
	<g id="grid" transform="translate(70, 30)">
		<g class="x-axis" id="x_axis">
			<path class="x-axis-path" d="M 0 525 L 660 525"/>
			<path class="x-notch-left" d="M 0 525, L 0 535"/>
			<path class="x-notch-right" d="M 660 525, L 660 535"/>
		</g>
		<g class="y-axis" id="y_axis">
			<path class="y-axis-path" d="M 0 525 L 0 0"/>
			<path class="y-axis-path-2" d="M 660 525 L 660 0"/>
			<path class="y-gridline" d="M 0 525 L 660 525"/>
			<text class="y-axis-label" x="-5" y="525">
				-250
			</text>
			<path class="y-gridline" d="M 0 420 L 660 420"/>
			<text class="y-axis-label" x="-5" y="420">
				 0
			</text>
			<path class="y-gridline" d="M 0 315 L 660 315"/>
			<text class="y-axis-label" x="-5" y="315">
				250
			</text>
			<path class="y-gridline" d="M 0 210 L 660 210"/>
			<text class="y-axis-label" x="-5" y="210">
				500
			</text>
			<path class="y-gridline" d="M 0 105 L 660 105"/>
			<text class="y-axis-label" x="-5" y="105">
				750
			</text>
			<path class="y-gridline" d="M 0 0 L 660 0"/>
			<text class="y-axis-label" x="-5" y="0">
				1000
			</text>
		</g>
		<g>
			<path class="series-1-line" d="M 40 406.120512 L 45 428.975129615 L 51 416.19442723 L 56 430.368988845 L 62 417.28655846 L 67 412.259560075 L 73 415.384929691 L 78 419.016483306 L 84 420.106532921 L 89 432.794798536 L 95 434.196992151 L 100 443.223865766 L 106 430.884667381 L 111 409.046916996 L 117 408.176910611 L 122 405.863784226 L 128 402.484361842 L 133 401.775971457 L 139 415.713485072 L 144 386.692726687 L 150 385.618096302 L 156 383.681793917 L 161 393.042483532 L 167 365.992533147 L 172 381.459350762 L 178 378.683048377 L 183 345.979057992 L 189 363.136795608 L 194 329.679157223 L 200 325.384470838 L 205 339.935856453 L 211 308.222730068 L 216 274.894115683 L 222 269.414861298 L 227 266.563294913 L 233 273.834736528 L 238 234.841666143 L 244 229.265475758 L 249 242.632293374 L 255 242.742230989 L 260 222.713672604 L 266 209.932802219 L 272 252.409147834 L 277 234.286717449 L 283 214.053535064 L 288 220.754112679 L 294 210.644106294 L 299 207.447803909 L 305 230.442365525 L 310 175.71559114 L 316 167.317840755 L 321 198.21697037 L 327 204.411531985 L 332 179.8059816 L 338 192.063663215 L 343 180.67215283 L 349 201.082034445 L 354 211.18578806 L 360 198.340405675 L 365 220.494967291 L 371 201.564960906 L 376 177.282306521 L 382 232.240212136 L 388 211.220789751 L 393 221.367719366 L 399 232.096096981 L 404 219.745978596 L 410 207.944884211 L 415 181.681005826 L 421 118.704759442 L 426 119.708625057 L 432 53.8891466717 L 437 161.874236287 L 443 139.304509902 L 448 157.129879517 L 454 251.890849132 L 459 231.291594747 L 465 196.519860362 L 470 239.793029977 L 476 234.066143592 L 481 250.125329208 L 487 267.961450823 L 492 186.612724438 L 498 275.525782053 L 504 252.751095668 L 509 220.413345283 L 515 220.598714898 L 520 243.657788513 L 526 281.815526128 L 531 330.839503743 L 537 337.185097358 L 542 246.111690974 L 548 238.801572589 L 553 278.638974204 L 559 369.490751819 L 564 399.507041434 L 570 324.264443049 L 575 368.991484664 L 581 416.733790279 L 586 420.440607894 L 592 422.963025509 L 597 419.551515125 L 603 412.05844474 L 608 427.611446355 L 614 425.64288797 L 620 416.717281585"/>
			<path class="series-2-line" d="M 40 409.92 L 45 415.231811321 L 51 426.843622642 L 56 426.695433962 L 62 419.827245283 L 67 417.579056604 L 73 421.210867925 L 78 427.782679245 L 84 437.714490566 L 89 423.706301887 L 95 417.678113208 L 100 417.949924528 L 106 426.201735849 L 111 425.63354717 L 117 430.105358491 L 122 430.377169811 L 128 416.788981132 L 133 428.820792453 L 139 416.492603774 L 144 422.644415094 L 150 426.276226415 L 156 416.888037736 L 161 414.219849057 L 167 424.151660377 L 172 418.963471698 L 178 409.575283019 L 183 400.60709434 L 189 410.11890566 L 194 420.470716981 L 200 418.642528302 L 205 408.834339623 L 211 409.106150943 L 216 399.297962264 L 222 402.089773585 L 227 404.461584906 L 233 400.113396226 L 238 405.845207547 L 244 407.377018868 L 249 402.188830189 L 255 401.200641509 L 260 396.85245283 L 266 392.084264151 L 272 415.876075472 L 277 409.007886792 L 283 403.819698113 L 288 390.231509434 L 294 394.703320755 L 299 385.315132075 L 305 385.166943396 L 310 404.758754717 L 316 404.190566038 L 321 399.422377358 L 327 399.274188679 L 332 388.206 L 338 392.257811321 L 343 400.089622642 L 349 393.641433962 L 354 389.713245283 L 360 395.025056604 L 365 394.876867925 L 371 399.348679245 L 376 370.640490566 L 382 396.532301887 L 388 382.944113208 L 393 388.675924528 L 399 385.587735849 L 404 379.13954717 L 410 352.531358491 L 415 354.483169811 L 421 350.554981132 L 426 357.546792453 L 432 338.498603774 L 437 314.830415094 L 443 346.602226415 L 448 350.234037736 L 454 374.865849057 L 459 377.657660377 L 465 363.649471698 L 470 377.781283019 L 476 386.45309434 L 481 387.14490566 L 487 389.096716981 L 492 368.368528302 L 498 371.580339623 L 504 369.752150943 L 509 369.183962264 L 515 372.815773585 L 520 362.587584906 L 526 372.099396226 L 531 390.011207547 L 537 415.483018868 L 542 388.454830189 L 548 382.006641509 L 553 358.75845283 L 559 387.170264151 L 564 405.502075472 L 570 382.253886792 L 575 398.905698113 L 581 403.797509434 L 586 398.609320755 L 592 414.421132075 L 597 422.252943396 L 603 427.984754717 L 608 425.736566038 L 614 421.388377358 L 620 404.860188679"/>
		</g>
		<text class="x-axis-label" x="40.0" y="540">
			0
		</text>
		<path class="x-notch" d="M 67.619047619 525 L 67.619047619 530"/>
		<text class="x-axis-label" x="95.2380952381" y="540">
			10
		</text>
		<path class="x-notch" d="M 122.857142857 525 L 122.857142857 530"/>
		<text class="x-axis-label" x="150.476190476" y="540">
			20
		</text>
		<path class="x-notch" d="M 178.095238095 525 L 178.095238095 530"/>
		<text class="x-axis-label" x="205.714285714" y="540">
			30
		</text>
		<path class="x-notch" d="M 233.333333333 525 L 233.333333333 530"/>
		<text class="x-axis-label" x="260.952380952" y="540">
			40
		</text>
		<path class="x-notch" d="M 288.571428571 525 L 288.571428571 530"/>
		<text class="x-axis-label" x="316.19047619" y="540">
			50
		</text>
		<path class="x-notch" d="M 343.80952381 525 L 343.80952381 530"/>
		<text class="x-axis-label" x="371.428571429" y="540">
			60
		</text>
		<path class="x-notch" d="M 399.047619048 525 L 399.047619048 530"/>
		<text class="x-axis-label" x="426.666666667" y="540">
			70
		</text>
		<path class="x-notch" d="M 454.285714286 525 L 454.285714286 530"/>
		<text class="x-axis-label" x="481.904761905" y="540">
			80
		</text>
		<path class="x-notch" d="M 509.523809524 525 L 509.523809524 530"/>
		<text class="x-axis-label" x="537.142857143" y="540">
			90
		</text>
		<path class="x-notch" d="M 564.761904762 525 L 564.761904762 530"/>
		<text class="x-axis-label" x="592.380952381" y="540">
			100
		</text>
		<path class="x-notch" d="M 620.0 525 L 620.0 530"/>
	</g>
</svg>
