<?xml version="1.0" ?>
<svg height="600" version="1.1" width="800" xmlns="http://www.w3.org/2000/svg" xmlns:svg="http://www.w3.org/2000/svg">
	<style type="text/css">
		

.x-axis-path, .y-gridline, .x-notch { fill:none; stroke: #a7a9ac; stroke-width:1; }



.y-gridline { stroke-width: 1; }

.y-axis-path, .y-axis-path2, .x-notch-left, .x-notch-right { display: none;}



.x-axis-label, .data-point-label {font-size: 12px; font-weight:normal; font-family: sans-serif; fill: #58595b; text-anchor:middle;}

.y-axis-label {font-size: 12px; font-family: helvetica; fill: #a7a9ac; text-anchor:end;}



.series-1-line { fill: none; stroke: #10b80c; stroke-width:2; }



.series-2-line { fill: none; stroke: #e90f0a; stroke-width: 2;}

	</style>
	<rect fill="white" height="600" width="800" x="0" y="0"/>
	<g id="grid" transform="translate(70, 30)">
		<g class="x-axis" id="x_axis">
			<path class="x-axis-path" d="M 0 525 L 660 525"/>
			<path class="x-notch-left" d="M 0 525, L 0 535"/>
			<path class="x-notch-right" d="M 660 525, L 660 535"/>
		</g>
		<g class="y-axis" id="y_axis">
			<path class="y-axis-path" d="M 0 525 L 0 0"/>
			<path class="y-axis-path-2" d="M 660 525 L 660 0"/>
			<path class="y-gridline" d="M 0 525 L 660 525"/>
			<text class="y-axis-label" x="-5" y="525">
				-500
			</text>
			<path class="y-gridline" d="M 0 420 L 660 420"/>
			<text class="y-axis-label" x="-5" y="420">
				 0
			</text>
			<path class="y-gridline" d="M 0 315 L 660 315"/>
			<text class="y-axis-label" x="-5" y="315">
				500
			</text>
			<path class="y-gridline" d="M 0 210 L 660 210"/>
			<text class="y-axis-label" x="-5" y="210">
				1000
			</text>
			<path class="y-gridline" d="M 0 105 L 660 105"/>
			<text class="y-axis-label" x="-5" y="105">
				1500
			</text>
			<path class="y-gridline" d="M 0 0 L 660 0"/>
			<text class="y-axis-label" x="-5" y="0">
				2000
			</text>
		</g>
		<g>
			<path class="series-1-line" d="M 40 421.8823728 L 44 423.351472566 L 49 438.981964332 L 54 407.061064098 L 59 406.613283863 L 63 418.878315629 L 68 420.126579395 L 73 419.393283161 L 78 416.258594927 L 82 418.411454693 L 87 426.600386459 L 92 391.308650224 L 97 412.81914199 L 101 413.593729756 L 106 406.560265522 L 111 398.132401288 L 116 404.786905054 L 120 388.03438882 L 125 390.251760585 L 130 391.101528351 L 135 369.653664117 L 139 362.921759883 L 144 383.021471649 L 149 352.118231415 L 154 359.25716318 L 158 342.655510946 L 163 311.197702712 L 168 290.121202478 L 173 279.168130244 L 177 264.57475001 L 182 298.873653776 L 187 259.963365541 L 192 212.486253307 L 196 191.587413073 L 201 193.277264839 L 206 209.036864605 L 211 144.119168371 L 215 220.245956137 L 220 123.688147902 L 225 177.856075668 L 230 160.818295434 L 234 129.8934672 L 239 77.9202549659 L 244 138.011610732 L 249 114.948258498 L 253 114.419670263 L 258 138.902502029 L 263 84.7751097951 L 268 84.456437561 L 272 118.674953327 L 277 86.3392610927 L 282 107.542816859 L 287 76.0687126244 L 291 62.9615443902 L 296 62.8474961561 L 301 71.381331922 L 306 108.189483688 L 310 96.7731514537 L 315 136.90375522 L 320 59.7843029854 L 325 81.7738467512 L 330 83.9914705171 L 334 82.1595382829 L 339 52.4517020488 L 344 111.477013815 L 349 99.9690375805 L 353 158.073373346 L 358 140.082445112 L 363 164.926056878 L 368 183.949140644 L 372 164.19748841 L 377 197.354664176 L 382 249.972287941 L 387 195.915203707 L 391 303.218843473 L 396 270.328667239 L 401 284.289827005 L 406 296.969650771 L 410 309.509698537 L 415 329.797738302 L 420 322.452214068 L 425 322.558917834 L 429 301.6064016 L 434 344.989149366 L 439 318.420477132 L 444 325.413920898 L 448 340.920764663 L 453 344.462984429 L 458 355.096652195 L 463 343.421683961 L 467 369.568471727 L 472 353.887627493 L 477 352.098787259 L 482 363.475687024 L 486 368.32083079 L 491 391.645806556 L 496 361.491174322 L 501 399.575622088 L 505 418.286309854 L 510 416.26613362 L 515 415.532837385 L 520 417.723329151 L 524 417.431788917 L 529 426.191416683 L 534 422.571964449 L 539 417.951064215 L 543 420.31929998 L 548 418.379763746 L 553 424.484991512 L 558 420.348687278 L 562 420.713859044 L 567 418.59674681 L 572 424.852670576 L 577 425.454722341 L 581 419.212958107 L 586 417.995065873 L 591 425.957953639 L 596 422.753125405 L 600 424.836013171 L 605 418.244220937 L 610 419.777832702 L 615 415.135428468 L 620 425.171268234"/>
			<path class="series-2-line" d="M 40 411.348 L 44 419.184926829 L 49 412.741853659 L 54 420.578780488 L 59 432.615707317 L 63 418.822634146 L 68 420.149560976 L 73 419.376487805 L 78 432.883414634 L 82 432.320341463 L 87 423.777268293 L 92 425.104195122 L 97 418.661121951 L 101 436.57804878 L 106 419.42497561 L 111 423.271902439 L 116 432.998829268 L 120 433.275756098 L 125 422.632682927 L 130 420.599609756 L 135 424.446536585 L 139 409.393463415 L 144 401.900390244 L 149 406.587317073 L 154 398.044243902 L 158 407.561170732 L 163 416.868097561 L 168 403.70502439 L 173 424.77195122 L 177 415.808878049 L 182 404.535804878 L 187 397.042731707 L 192 399.209658537 L 196 382.896585366 L 201 389.053512195 L 206 370.640439024 L 211 390.867365854 L 215 398.284292683 L 220 407.591219512 L 225 376.158146341 L 230 388.195073171 L 234 388.052 L 239 395.468926829 L 244 398.265853659 L 249 392.032780488 L 253 400.289707317 L 258 396.996634146 L 263 371.863560976 L 268 371.930487805 L 272 397.827414634 L 277 388.444341463 L 282 380.741268293 L 287 376.188195122 L 291 372.895121951 L 296 373.80204878 L 301 393.39897561 L 306 383.805902439 L 310 387.022829268 L 315 391.499756098 L 320 390.516682927 L 325 366.643609756 L 330 380.570536585 L 334 362.787463415 L 339 369.364390244 L 344 382.871317073 L 349 375.798243902 L 353 369.145170732 L 358 374.252097561 L 363 372.00902439 L 368 393.28595122 L 372 402.802878049 L 377 373.049804878 L 382 386.976731707 L 387 391.873658537 L 391 392.360585366 L 396 395.787512195 L 401 379.474439024 L 406 382.901365854 L 410 408.168292683 L 415 387.655219512 L 420 394.652146341 L 425 393.879073171 L 429 394.156 L 434 382.672926829 L 439 382.739853659 L 444 364.116780488 L 448 376.993707317 L 453 389.030634146 L 458 392.247560976 L 463 378.454487805 L 467 385.871414634 L 472 399.168341463 L 477 382.855268293 L 482 401.192195122 L 486 398.319121951 L 491 379.06604878 L 496 398.03297561 L 501 402.299902439 L 505 414.966829268 L 510 418.393756098 L 515 417.620682927 L 520 411.177609756 L 524 431.614536585 L 529 415.931463415 L 534 414.948390244 L 539 422.785317073 L 543 421.382243902 L 548 412.209170732 L 553 417.526097561 L 558 423.47302439 L 562 423.32995122 L 567 425.496878049 L 572 423.673804878 L 577 419.330731707 L 581 417.927658537 L 586 419.044585366 L 591 421.211512195 L 596 421.068439024 L 600 423.235365854 L 605 419.102292683 L 610 416.859219512 L 615 428.056146341 L 620 418.043073171"/>
		</g>
		<text class="x-axis-label" x="40.0" y="540">
			0
		</text>
		<path class="x-notch" d="M 63.7704918033 525 L 63.7704918033 530"/>
		<text class="x-axis-label" x="87.5409836066" y="540">
			10
		</text>
		<path class="x-notch" d="M 111.31147541 525 L 111.31147541 530"/>
		<text class="x-axis-label" x="135.081967213" y="540">
			20
		</text>
		<path class="x-notch" d="M 158.852459016 525 L 158.852459016 530"/>
		<text class="x-axis-label" x="182.62295082" y="540">
			30
		</text>
		<path class="x-notch" d="M 206.393442623 525 L 206.393442623 530"/>
		<text class="x-axis-label" x="230.163934426" y="540">
			40
		</text>
		<path class="x-notch" d="M 253.93442623 525 L 253.93442623 530"/>
		<text class="x-axis-label" x="277.704918033" y="540">
			50
		</text>
		<path class="x-notch" d="M 301.475409836 525 L 301.475409836 530"/>
		<text class="x-axis-label" x="325.245901639" y="540">
			60
		</text>
		<path class="x-notch" d="M 349.016393443 525 L 349.016393443 530"/>
		<text class="x-axis-label" x="372.786885246" y="540">
			70
		</text>
		<path class="x-notch" d="M 396.557377049 525 L 396.557377049 530"/>
		<text class="x-axis-label" x="420.327868852" y="540">
			80
		</text>
		<path class="x-notch" d="M 444.098360656 525 L 444.098360656 530"/>
		<text class="x-axis-label" x="467.868852459" y="540">
			90
		</text>
		<path class="x-notch" d="M 491.639344262 525 L 491.639344262 530"/>
		<text class="x-axis-label" x="515.409836066" y="540">
			100
		</text>
		<path class="x-notch" d="M 539.180327869 525 L 539.180327869 530"/>
		<text class="x-axis-label" x="562.950819672" y="540">
			110
		</text>
		<path class="x-notch" d="M 586.721311475 525 L 586.721311475 530"/>
		<text class="x-axis-label" x="610.491803279" y="540">
			120
		</text>
		<path class="x-notch" d="M 634.262295082 525 L 634.262295082 530"/>
	</g>
</svg>
