<?xml version="1.0" ?>
<svg height="600" version="1.1" width="800" xmlns="http://www.w3.org/2000/svg" xmlns:svg="http://www.w3.org/2000/svg">
	<style type="text/css">

.x-axis-path, .y-gridline, .x-notch { fill:none; stroke: #a7a9ac; stroke-width:1; }



.y-gridline { stroke-width: 1; }

.y-axis-path, .y-axis-path2, .x-notch-left, .x-notch-right { display: none;}



.x-axis-label, .data-point-label {font-size: 12px; font-weight:normal; font-family: sans-serif; fill: #58595b; text-anchor:middle;}

.y-axis-label {font-size: 12px; font-family: helvetica; fill: #a7a9ac; text-anchor:end;}



.series-1-line { fill: none; stroke: #10b80c; stroke-width:2; }



.series-2-line { fill: none; stroke: #e90f0a; stroke-width: 2;}
</style>
	<rect fill="white" height="600" width="800" x="0" y="0"/>
	<g id="grid" transform="translate(70, 30)">
		<g class="x-axis" id="x_axis">
			<path class="x-axis-path" d="M 0 525 L 660 525"/>
			<path class="x-notch-left" d="M 0 525, L 0 535"/>
			<path class="x-notch-right" d="M 660 525, L 660 535"/>
		</g>
		<g class="y-axis" id="y_axis">
			<path class="y-axis-path" d="M 0 525 L 0 0"/>
			<path class="y-axis-path-2" d="M 660 525 L 660 0"/>
			<path class="y-gridline" d="M 0 525 L 660 525"/>
			<text class="y-axis-label" x="-5" y="525">-200</text>
			<path class="y-gridline" d="M 0 394 L 660 394"/>
			<text class="y-axis-label" x="-5" y="394"> 0</text>
			<path class="y-gridline" d="M 0 263 L 660 263"/>
			<text class="y-axis-label" x="-5" y="263">200</text>
			<path class="y-gridline" d="M 0 132 L 660 132"/>
			<text class="y-axis-label" x="-5" y="132">400</text>
			<path class="y-gridline" d="M 0 1 L 660 1"/>
			<text class="y-axis-label" x="-5" y="1">600</text>
		</g>
		<g>
			<path class="series-1-line" d="M 40 383.764484823 L 44 395.689214686 L 48 399.053188365 L 52 395.251768586 L 57 396.222655724 L 61 379.293392067 L 65 414.847771594 L 70 392.681151219 L 74 396.947705497 L 78 405.932168665 L 83 407.627722854 L 87 392.982109707 L 91 378.541929109 L 96 349.10026592 L 100 363.021083389 L 104 372.456730193 L 109 370.856830569 L 113 355.062672411 L 117 320.014385897 L 122 296.904226409 L 126 309.129318712 L 130 315.638564985 L 135 317.963429683 L 139 285.896155054 L 143 261.445670844 L 148 275.107084388 L 152 251.682269646 L 156 246.854967074 L 161 225.495144105 L 165 146.510104428 L 169 209.523328074 L 174 159.172983204 L 178 75.6616010218 L 182 134.626971476 L 187 73.542082594 L 191 96.8300270013 L 195 97.2678134742 L 200 117.834576574 L 204 105.732444512 L 208 70.3560632313 L 213 83.3745134272 L 217 77.480582873 L 221 41.5845404389 L 226 64.1753367971 L 230 0.0 L 234 80.7491137319 L 239 80.2843196064 L 243 58.8969776358 L 247 14.4679113452 L 252 31.2880369948 L 256 90.1712770942 L 260 77.1121664076 L 265 91.4978203509 L 269 111.832271876 L 273 100.099619748 L 278 56.2994373153 L 282 117.439235574 L 286 135.079598141 L 291 92.7155236241 L 295 91.9497270821 L 299 49.2298254699 L 304 80.3946041992 L 308 72.258408301 L 312 143.36691168 L 317 126.396689509 L 321 139.825364826 L 325 130.731763651 L 330 147.824946064 L 334 149.807849832 L 338 174.4497718 L 342 213.751002102 L 347 194.059598623 L 351 229.545500633 L 355 198.107323187 L 360 229.955810453 L 364 210.660979258 L 368 234.660151204 L 373 246.557148739 L 377 232.403891068 L 381 253.216831906 L 386 231.95279213 L 390 241.784797892 L 394 249.101054896 L 399 267.958439991 L 403 290.467319321 L 407 276.368459677 L 412 287.650226193 L 416 273.141354753 L 420 293.188670025 L 425 272.485249916 L 429 283.028483217 L 433 287.130990111 L 438 320.073411035 L 442 247.734103663 L 446 275.329731839 L 451 322.699149523 L 455 342.103714773 L 459 340.927693109 L 464 348.653961909 L 468 350.978613282 L 472 335.157149448 L 477 311.267284905 L 481 346.452397825 L 485 440.261304569 L 490 452.801052127 L 494 450.462619288 L 498 417.178535456 L 503 432.316588778 L 507 445.252695294 L 511 442.982953297 L 516 433.383343808 L 520 437.431026023 L 524 415.496930549 L 529 414.225125692 L 533 401.097324163 L 537 403.6683666 L 542 383.416130128 L 546 386.301614495 L 550 385.9462564 L 555 404.42072205 L 559 402.560991849 L 563 400.933786549 L 568 408.878927411 L 572 393.672694596 L 576 399.197229916 L 581 411.326752351 L 585 408.510043525 L 589 423.89406126 L 594 421.815458998 L 598 398.226810197 L 602 410.534032855 L 607 393.35859146 L 611 390.049527157 L 615 386.343677246 L 620 386.617203009"/>
			<path class="series-2-line" d="M 40 370.710835587 L 44 401.446313462 L 48 394.849811964 L 52 403.719416206 L 57 396.056286726 L 61 393.726297156 L 65 398.862703461 L 70 402.399167792 L 74 400.602492214 L 78 411.60535242 L 83 394.875885092 L 87 389.879325567 L 91 415.281663531 L 96 409.751790016 L 100 399.42209058 L 104 402.425240921 L 109 400.628565342 L 113 408.431541602 L 117 403.968296068 L 122 409.104702373 L 126 392.908549036 L 130 394.845071395 L 135 404.781303619 L 139 392.851662211 L 143 378.255450847 L 148 408.457614731 L 152 400.261171259 L 156 381.931761959 L 161 384.401598308 L 165 391.137946586 L 169 397.340980873 L 174 388.07790942 L 178 393.747629716 L 182 386.617814227 L 187 388.021022594 L 191 372.358183248 L 195 385.494299419 L 200 378.36448393 L 204 371.767982432 L 208 376.904388736 L 213 382.574109032 L 217 364.244699731 L 221 367.247850072 L 226 377.184082296 L 230 382.320488601 L 234 367.190963246 L 239 375.527253497 L 243 361.464356125 L 247 364.467506465 L 252 380.270192591 L 256 365.140667236 L 260 383.076609326 L 265 362.613944061 L 269 370.950234312 L 273 389.952804384 L 278 378.023162975 L 282 385.292825244 L 286 377.096381773 L 291 390.765811935 L 295 383.635996446 L 299 369.573099073 L 304 373.109563405 L 308 392.645447467 L 312 383.915690005 L 317 387.985468328 L 321 392.055246651 L 325 394.525083 L 330 367.662649843 L 334 368.532544219 L 338 370.469066578 L 342 373.472216919 L 347 386.075019098 L 351 381.078459573 L 355 375.015272066 L 360 375.885166442 L 364 389.021282613 L 368 387.224607034 L 373 380.628105536 L 377 382.031313904 L 381 378.101382361 L 386 386.437672612 L 390 369.174891293 L 394 390.84403132 L 399 379.981017894 L 403 402.716785903 L 407 374.787724763 L 412 380.99075905 L 416 375.460885534 L 420 386.997059731 L 425 391.066838054 L 429 387.670220502 L 433 390.673370843 L 438 387.276753291 L 442 376.413739865 L 446 375.150378277 L 451 388.286494447 L 455 396.089470707 L 459 390.559597191 L 464 389.829549595 L 468 378.966536168 L 472 391.036024357 L 477 372.173301065 L 481 372.50988145 L 485 400.045475379 L 490 397.182171818 L 494 385.785844401 L 498 397.322018598 L 503 405.124994858 L 507 381.995759638 L 511 401.5316437 L 516 399.734968122 L 520 390.471896668 L 524 399.34150091 L 529 387.945173493 L 533 374.948904103 L 537 388.085020273 L 542 384.15508873 L 546 389.824809026 L 550 401.894297214 L 555 388.364713833 L 559 385.501410272 L 563 387.971246622 L 568 394.707594899 L 572 393.977547303 L 576 383.114533877 L 581 381.851172289 L 585 403.520312316 L 589 393.723926872 L 594 383.394227436 L 598 400.796855535 L 602 392.600412064 L 607 387.070538548 L 611 402.339910682 L 615 396.276723175 L 620 393.413419615"/>
		</g>
		<text class="x-axis-label" x="40.0" y="540">0</text>
		<path class="x-notch" d="M 61.6417910448 525 L 61.6417910448 530"/>
		<text class="x-axis-label" x="83.2835820896" y="540">10</text>
		<path class="x-notch" d="M 104.925373134 525 L 104.925373134 530"/>
		<text class="x-axis-label" x="126.567164179" y="540">20</text>
		<path class="x-notch" d="M 148.208955224 525 L 148.208955224 530"/>
		<text class="x-axis-label" x="169.850746269" y="540">30</text>
		<path class="x-notch" d="M 191.492537313 525 L 191.492537313 530"/>
		<text class="x-axis-label" x="213.134328358" y="540">40</text>
		<path class="x-notch" d="M 234.776119403 525 L 234.776119403 530"/>
		<text class="x-axis-label" x="256.417910448" y="540">50</text>
		<path class="x-notch" d="M 278.059701493 525 L 278.059701493 530"/>
		<text class="x-axis-label" x="299.701492537" y="540">60</text>
		<path class="x-notch" d="M 321.343283582 525 L 321.343283582 530"/>
		<text class="x-axis-label" x="342.985074627" y="540">70</text>
		<path class="x-notch" d="M 364.626865672 525 L 364.626865672 530"/>
		<text class="x-axis-label" x="386.268656716" y="540">80</text>
		<path class="x-notch" d="M 407.910447761 525 L 407.910447761 530"/>
		<text class="x-axis-label" x="429.552238806" y="540">90</text>
		<path class="x-notch" d="M 451.194029851 525 L 451.194029851 530"/>
		<text class="x-axis-label" x="472.835820896" y="540">100</text>
		<path class="x-notch" d="M 494.47761194 525 L 494.47761194 530"/>
		<text class="x-axis-label" x="516.119402985" y="540">110</text>
		<path class="x-notch" d="M 537.76119403 525 L 537.76119403 530"/>
		<text class="x-axis-label" x="559.402985075" y="540">120</text>
		<path class="x-notch" d="M 581.044776119 525 L 581.044776119 530"/>
		<text class="x-axis-label" x="602.686567164" y="540">130</text>
		<path class="x-notch" d="M 624.328358209 525 L 624.328358209 530"/>
	</g>
</svg>
