<?xml version="1.0" ?>
<svg height="600" version="1.1" width="800" xmlns="http://www.w3.org/2000/svg" xmlns:svg="http://www.w3.org/2000/svg">
	<style type="text/css">
		

.x-axis-path, .y-gridline, .x-notch { fill:none; stroke: #a7a9ac; stroke-width:1; }



.y-gridline { stroke-width: 1; }

.y-axis-path, .y-axis-path2, .x-notch-left, .x-notch-right { display: none;}



.x-axis-label, .data-point-label {font-size: 12px; font-weight:normal; font-family: sans-serif; fill: #58595b; text-anchor:middle;}

.y-axis-label {font-size: 12px; font-family: helvetica; fill: #a7a9ac; text-anchor:end;}



.series-1-line { fill: none; stroke: #10b80c; stroke-width:2; }



.series-2-line { fill: none; stroke: #e90f0a; stroke-width: 2;}

	</style>
	<rect fill="white" height="600" width="800" x="0" y="0"/>
	<g id="grid" transform="translate(70, 30)">
		<g class="x-axis" id="x_axis">
			<path class="x-axis-path" d="M 0 525 L 660 525"/>
			<path class="x-notch-left" d="M 0 525, L 0 535"/>
			<path class="x-notch-right" d="M 660 525, L 660 535"/>
		</g>
		<g class="y-axis" id="y_axis">
			<path class="y-axis-path" d="M 0 525 L 0 0"/>
			<path class="y-axis-path-2" d="M 660 525 L 660 0"/>
			<path class="y-gridline" d="M 0 525 L 660 525"/>
			<text class="y-axis-label" x="-5" y="525">
				-100
			</text>
			<path class="y-gridline" d="M 0 450 L 660 450"/>
			<text class="y-axis-label" x="-5" y="450">
				 0
			</text>
			<path class="y-gridline" d="M 0 375 L 660 375"/>
			<text class="y-axis-label" x="-5" y="375">
				100
			</text>
			<path class="y-gridline" d="M 0 300 L 660 300"/>
			<text class="y-axis-label" x="-5" y="300">
				200
			</text>
			<path class="y-gridline" d="M 0 225 L 660 225"/>
			<text class="y-axis-label" x="-5" y="225">
				300
			</text>
			<path class="y-gridline" d="M 0 150 L 660 150"/>
			<text class="y-axis-label" x="-5" y="150">
				400
			</text>
			<path class="y-gridline" d="M 0 75 L 660 75"/>
			<text class="y-axis-label" x="-5" y="75">
				500
			</text>
			<path class="y-gridline" d="M 0 0 L 660 0"/>
			<text class="y-axis-label" x="-5" y="0">
				600
			</text>
		</g>
		<g>
			<path class="series-1-line" d="M 40 462.8769 L 43 442.374754444 L 47 449.238008889 L 50 446.139763333 L 54 444.926117778 L 58 447.981772222 L 61 432.210326667 L 65 467.188981111 L 68 453.725135556 L 72 448.76149 L 76 466.836344444 L 79 439.853298889 L 83 466.351253333 L 86 429.983607778 L 90 450.346862222 L 94 465.325716667 L 97 478.669571111 L 101 483.109725556 L 104 471.31928 L 108 466.374834444 L 112 440.314888889 L 115 457.466643333 L 119 465.060697778 L 122 451.616352222 L 126 463.537306667 L 130 470.823561111 L 133 452.744515556 L 137 476.10747 L 140 459.509524444 L 144 470.218778889 L 148 466.428433333 L 151 449.926187778 L 155 457.616242222 L 158 408.229496667 L 162 424.208251111 L 166 375.956105556 L 169 377.14636 L 173 368.682614444 L 176 339.699768889 L 180 317.774423333 L 184 295.195377778 L 187 331.462232222 L 191 308.748786667 L 194 279.881141111 L 198 251.974995556 L 202 239.28065 L 205 252.663204444 L 209 221.968858889 L 212 209.524413333 L 216 151.733767778 L 220 208.462422222 L 223 138.440776667 L 227 172.342731111 L 230 150.667285556 L 234 171.45354 L 238 139.451494444 L 241 155.141648889 L 245 178.235803333 L 248 159.483557778 L 252 186.115912222 L 256 185.152166667 L 259 127.669621111 L 263 138.109775556 L 266 137.87683 L 270 109.663184444 L 274 135.737838889 L 277 120.216593333 L 281 106.310547778 L 284 165.654602222 L 288 151.806156667 L 292 160.131011111 L 295 161.167065556 L 299 115.53062 L 302 138.663174444 L 306 64.4109288889 L 310 143.927883333 L 313 153.579637778 L 317 143.827692222 L 320 98.4216466667 L 324 130.958001111 L 328 140.821255556 L 331 164.03061 L 335 164.893864444 L 339 179.622518889 L 342 165.524173333 L 346 171.810527778 L 349 177.885382222 L 353 160.806236667 L 357 169.361791111 L 360 183.148145556 L 364 209.7421 L 367 159.970754444 L 371 228.180108889 L 375 275.966363333 L 378 267.194817778 L 382 273.250472222 L 385 245.421726667 L 389 280.092281111 L 393 293.417235556 L 396 284.26109 L 400 277.336044444 L 403 315.660598889 L 407 340.696653333 L 411 321.829507778 L 414 373.846662222 L 418 366.825016667 L 421 363.496371111 L 425 385.224925556 L 429 400.99218 L 432 405.220834444 L 436 421.257188889 L 439 449.601043333 L 443 421.464497778 L 447 415.923952222 L 450 414.171806667 L 454 444.150361111 L 457 450.590615556 L 461 464.53087 L 465 458.663324444 L 468 443.449578889 L 472 455.582033333 L 475 457.849287778 L 479 459.500942222 L 483 471.825696667 L 486 462.169751111 L 490 457.994505556 L 493 448.39616 L 497 459.759414444 L 501 465.834268889 L 504 478.601223333 L 508 457.310677778 L 511 446.654832222 L 515 455.787286667 L 519 461.746641111 L 522 452.282995556 L 526 451.47315 L 529 457.663204444 L 533 458.314958889 L 537 454.678213333 L 540 454.560767778 L 544 455.635522222 L 547 457.941176667 L 551 455.265931111 L 555 456.129185556 L 558 459.28084 L 562 457.759394444 L 565 450.930348889 L 569 444.351203333 L 573 449.118357778 L 576 427.424012222 L 580 450.633366667 L 583 457.131221111 L 587 445.533075556 L 591 452.91533 L 594 440.624784444 L 598 452.911138889 L 601 451.543593333 L 605 452.829847778 L 609 451.174002222 L 612 443.998756667 L 616 457.438911111 L 620 451.225165556"/>
			<path class="series-2-line" d="M 40 447.75 L 43 446.891666667 L 47 447.533333333 L 50 451.925 L 54 454.816666667 L 58 464.458333333 L 61 456.85 L 65 458.991666667 L 68 442.383333333 L 72 445.275 L 76 451.916666667 L 79 438.308333333 L 83 447.2 L 86 435.091666667 L 90 435.733333333 L 94 457.375 L 97 441.516666667 L 101 439.908333333 L 104 454.8 L 108 454.691666667 L 112 443.333333333 L 115 447.725 L 119 451.366666667 L 122 461.008333333 L 126 462.4 L 130 455.541666667 L 133 456.933333333 L 137 428.325 L 140 461.966666667 L 144 447.608333333 L 148 472.25 L 151 461.641666667 L 155 450.283333333 L 158 450.925 L 162 462.816666667 L 166 461.958333333 L 169 470.1 L 173 463.241666667 L 176 469.133333333 L 180 456.275 L 184 457.666666667 L 187 434.308333333 L 191 456.7 L 194 444.591666667 L 198 428.733333333 L 202 438.375 L 205 445.766666667 L 209 455.408333333 L 212 455.3 L 216 450.691666667 L 220 452.833333333 L 223 425.725 L 227 449.616666667 L 230 427.008333333 L 234 420.15 L 238 429.041666667 L 241 427.433333333 L 245 440.825 L 248 430.216666667 L 252 418.108333333 L 256 411.25 L 259 446.391666667 L 263 444.783333333 L 266 440.925 L 270 443.816666667 L 274 430.958333333 L 277 442.85 L 281 436.741666667 L 284 440.383333333 L 288 425.275 L 292 431.916666667 L 295 405.558333333 L 299 435.45 L 302 442.841666667 L 306 432.233333333 L 310 418.625 L 313 423.016666667 L 317 441.658333333 L 320 435.55 L 324 438.441666667 L 328 439.083333333 L 331 434.475 L 335 435.116666667 L 339 437.258333333 L 342 431.9 L 346 434.791666667 L 349 441.433333333 L 353 433.075 L 357 432.966666667 L 360 435.858333333 L 364 429.75 L 367 431.891666667 L 371 427.283333333 L 375 420.425 L 378 403.066666667 L 382 412.708333333 L 385 443.35 L 389 405.741666667 L 393 422.133333333 L 396 406.275 L 400 422.666666667 L 403 400.058333333 L 407 373.7 L 411 410.341666667 L 414 416.233333333 L 418 389.125 L 421 429.516666667 L 425 421.908333333 L 429 437.55 L 432 439.691666667 L 436 442.583333333 L 439 426.725 L 443 446.866666667 L 447 452.008333333 L 450 451.15 L 454 443.541666667 L 457 451.683333333 L 461 459.825 L 465 457.466666667 L 468 450.608333333 L 472 448.25 L 475 463.891666667 L 479 458.533333333 L 483 455.425 L 486 459.066666667 L 490 455.958333333 L 493 450.6 L 497 451.241666667 L 501 457.883333333 L 504 444.275 L 508 449.416666667 L 511 462.808333333 L 515 460.45 L 519 455.841666667 L 522 458.733333333 L 526 457.125 L 529 445.766666667 L 533 450.158333333 L 537 450.8 L 540 458.191666667 L 544 455.083333333 L 547 464.725 L 551 461.616666667 L 555 462.258333333 L 558 456.9 L 562 449.291666667 L 565 450.683333333 L 569 442.325 L 573 448.216666667 L 576 457.858333333 L 580 453.25 L 583 452.391666667 L 587 466.533333333 L 591 444.675 L 594 449.816666667 L 598 452.708333333 L 601 450.35 L 605 443.491666667 L 609 456.883333333 L 612 453.775 L 616 452.166666667 L 620 445.308333333"/>
		</g>
		<text class="x-axis-label" x="40.0" y="540">
			0
		</text>
		<path class="x-notch" d="M 58.0124223602 525 L 58.0124223602 530"/>
		<text class="x-axis-label" x="76.0248447205" y="540">
			10
		</text>
		<path class="x-notch" d="M 94.0372670807 525 L 94.0372670807 530"/>
		<text class="x-axis-label" x="112.049689441" y="540">
			20
		</text>
		<path class="x-notch" d="M 130.062111801 525 L 130.062111801 530"/>
		<text class="x-axis-label" x="148.074534161" y="540">
			30
		</text>
		<path class="x-notch" d="M 166.086956522 525 L 166.086956522 530"/>
		<text class="x-axis-label" x="184.099378882" y="540">
			40
		</text>
		<path class="x-notch" d="M 202.111801242 525 L 202.111801242 530"/>
		<text class="x-axis-label" x="220.124223602" y="540">
			50
		</text>
		<path class="x-notch" d="M 238.136645963 525 L 238.136645963 530"/>
		<text class="x-axis-label" x="256.149068323" y="540">
			60
		</text>
		<path class="x-notch" d="M 274.161490683 525 L 274.161490683 530"/>
		<text class="x-axis-label" x="292.173913043" y="540">
			70
		</text>
		<path class="x-notch" d="M 310.186335404 525 L 310.186335404 530"/>
		<text class="x-axis-label" x="328.198757764" y="540">
			80
		</text>
		<path class="x-notch" d="M 346.211180124 525 L 346.211180124 530"/>
		<text class="x-axis-label" x="364.223602484" y="540">
			90
		</text>
		<path class="x-notch" d="M 382.236024845 525 L 382.236024845 530"/>
		<text class="x-axis-label" x="400.248447205" y="540">
			100
		</text>
		<path class="x-notch" d="M 418.260869565 525 L 418.260869565 530"/>
		<text class="x-axis-label" x="436.273291925" y="540">
			110
		</text>
		<path class="x-notch" d="M 454.285714286 525 L 454.285714286 530"/>
		<text class="x-axis-label" x="472.298136646" y="540">
			120
		</text>
		<path class="x-notch" d="M 490.310559006 525 L 490.310559006 530"/>
		<text class="x-axis-label" x="508.322981366" y="540">
			130
		</text>
		<path class="x-notch" d="M 526.335403727 525 L 526.335403727 530"/>
		<text class="x-axis-label" x="544.347826087" y="540">
			140
		</text>
		<path class="x-notch" d="M 562.360248447 525 L 562.360248447 530"/>
		<text class="x-axis-label" x="580.372670807" y="540">
			150
		</text>
		<path class="x-notch" d="M 598.385093168 525 L 598.385093168 530"/>
		<text class="x-axis-label" x="616.397515528" y="540">
			160
		</text>
		<path class="x-notch" d="M 634.409937888 525 L 634.409937888 530"/>
	</g>
</svg>
