<?xml version="1.0" ?>
<svg height="600" version="1.1" width="800" xmlns="http://www.w3.org/2000/svg" xmlns:svg="http://www.w3.org/2000/svg">
	<style type="text/css">
		

.x-axis-path, .y-gridline, .x-notch { fill:none; stroke: #a7a9ac; stroke-width:1; }



.y-gridline { stroke-width: 1; }

.y-axis-path, .y-axis-path2, .x-notch-left, .x-notch-right { display: none;}



.x-axis-label, .data-point-label {font-size: 12px; font-weight:normal; font-family: sans-serif; fill: #58595b; text-anchor:middle;}

.y-axis-label {font-size: 12px; font-family: helvetica; fill: #a7a9ac; text-anchor:end;}



.series-1-line { fill: none; stroke: #10b80c; stroke-width:2; }



.series-2-line { fill: none; stroke: #e90f0a; stroke-width: 2;}

	</style>
	<rect fill="white" height="600" width="800" x="0" y="0"/>
	<g id="grid" transform="translate(70, 30)">
		<g class="x-axis" id="x_axis">
			<path class="x-axis-path" d="M 0 525 L 660 525"/>
			<path class="x-notch-left" d="M 0 525, L 0 535"/>
			<path class="x-notch-right" d="M 660 525, L 660 535"/>
		</g>
		<g class="y-axis" id="y_axis">
			<path class="y-axis-path" d="M 0 525 L 0 0"/>
			<path class="y-axis-path-2" d="M 660 525 L 660 0"/>
			<path class="y-gridline" d="M 0 525 L 660 525"/>
			<text class="y-axis-label" x="-5" y="525">
				-200
			</text>
			<path class="y-gridline" d="M 0 420 L 660 420"/>
			<text class="y-axis-label" x="-5" y="420">
				 0
			</text>
			<path class="y-gridline" d="M 0 315 L 660 315"/>
			<text class="y-axis-label" x="-5" y="315">
				200
			</text>
			<path class="y-gridline" d="M 0 210 L 660 210"/>
			<text class="y-axis-label" x="-5" y="210">
				400
			</text>
			<path class="y-gridline" d="M 0 105 L 660 105"/>
			<text class="y-axis-label" x="-5" y="105">
				600
			</text>
			<path class="y-gridline" d="M 0 0 L 660 0"/>
			<text class="y-axis-label" x="-5" y="0">
				800
			</text>
		</g>
		<g>
			<path class="series-1-line" d="M 40 420.04305 L 45 428.328462288 L 51 414.752244577 L 56 410.329926865 L 62 425.669239154 L 68 431.019901442 L 73 420.364783731 L 79 423.979166019 L 85 407.333798308 L 90 417.221090596 L 96 403.685192885 L 101 425.984115173 L 107 415.463607462 L 113 414.93174975 L 118 409.230532038 L 124 421.729384327 L 130 425.316676615 L 135 421.136698904 L 141 421.950941192 L 146 424.393943481 L 152 421.950455769 L 158 407.970408058 L 163 401.421210346 L 169 399.812262635 L 175 385.078524923 L 180 347.042767212 L 186 352.2319395 L 192 328.653841788 L 197 323.464184077 L 203 288.430376365 L 208 304.092668654 L 214 262.758650942 L 220 238.776723231 L 225 195.665895519 L 231 195.874287808 L 237 186.713530096 L 242 180.433552385 L 248 158.511304673 L 253 145.985086962 L 259 162.68393925 L 265 159.150131538 L 270 138.318203827 L 276 156.645816115 L 282 93.2754484038 L 287 88.5030606923 L 293 106.224822981 L 299 105.679315269 L 304 106.278307558 L 310 71.6077998462 L 315 100.058672135 L 321 109.070894423 L 327 65.7446067115 L 332 92.351049 L 338 152.490291288 L 344 258.035313577 L 349 373.622745865 L 355 362.779258154 L 360 406.280200442 L 366 420.152242731 L 372 421.222265019 L 377 427.084487308 L 383 421.181459596 L 389 424.364921885 L 394 423.913704173 L 400 425.387556462 L 406 436.49977875 L 411 423.260191038 L 417 426.430213327 L 422 423.744385615 L 428 430.118167904 L 434 430.676630192 L 439 427.923602481 L 445 421.401284769 L 451 409.979037058 L 456 421.508529346 L 462 416.170821635 L 467 413.700453923 L 473 411.256966212 L 479 424.7249685 L 484 422.914210788 L 490 434.255333077 L 496 436.550285365 L 501 421.978037654 L 507 420.423059942 L 513 419.002692231 L 518 418.282254519 L 524 416.915646808 L 529 426.560599096 L 535 413.872891385 L 541 407.175643673 L 546 430.645525962 L 552 418.53678825 L 558 430.174010538 L 563 409.974812827 L 569 415.379445115 L 574 416.462907404 L 580 418.771299692 L 586 427.245081981 L 591 409.697764269 L 597 419.975446558 L 603 432.326248846 L 608 422.276981135 L 614 420.385373423 L 620 406.351565712"/>
			<path class="series-2-line" d="M 40 417.375 L 45 421.515432692 L 51 416.730865385 L 56 417.196298077 L 62 426.586730769 L 68 417.602163462 L 73 407.567596154 L 79 423.783028846 L 85 426.873461538 L 90 426.813894231 L 96 415.729326923 L 101 424.594759615 L 107 414.035192308 L 113 421.850625 L 118 417.066057692 L 124 419.106490385 L 130 419.046923077 L 135 422.662355769 L 141 425.227788462 L 146 419.393221154 L 152 418.283653846 L 158 415.074086538 L 163 419.739519231 L 169 411.279951923 L 175 423.295384615 L 180 425.860817308 L 186 421.60125 L 192 421.016682692 L 197 418.332115385 L 203 423.522548077 L 208 423.462980769 L 214 408.178413462 L 220 409.168846154 L 225 404.909278846 L 231 399.599711538 L 237 402.165144231 L 242 405.780576923 L 248 413.071009615 L 253 408.286442308 L 259 410.326875 L 265 415.517307692 L 270 416.507740385 L 276 410.148173077 L 282 413.238605769 L 287 406.879038462 L 293 392.644471154 L 299 382.084903846 L 304 397.775336538 L 310 387.215769231 L 315 398.706201923 L 321 391.821634615 L 327 380.212067308 L 332 372.2775 L 338 374.842932692 L 344 378.458365385 L 349 392.048798077 L 355 390.939230769 L 360 409.254663462 L 366 422.320096154 L 372 425.935528846 L 377 419.050961538 L 383 425.291394231 L 389 426.806826923 L 394 422.022259615 L 400 424.062692308 L 406 417.178125 L 411 421.318557692 L 417 424.933990385 L 422 420.674423077 L 428 415.889855769 L 434 417.405288462 L 439 423.645721154 L 445 424.111153846 L 451 431.401586538 L 456 420.842019231 L 462 420.782451923 L 467 423.872884615 L 473 422.763317308 L 479 416.92875 L 484 419.494182692 L 490 417.859615385 L 496 414.650048077 L 501 421.940480769 L 507 425.555913462 L 513 428.646346154 L 518 424.911778846 L 524 419.602211538 L 529 416.392644231 L 535 416.333076923 L 541 423.623509615 L 546 413.588942308 L 552 425.604375 L 558 418.719807692 L 563 423.385240385 L 569 426.475673077 L 574 427.991105769 L 580 422.681538462 L 586 417.896971154 L 591 418.362403846 L 597 418.827836538 L 603 423.493269231 L 608 421.333701923 L 614 416.024134615 L 620 421.214567308"/>
		</g>
		<text class="x-axis-label" x="40.0" y="540">
			0
		</text>
		<path class="x-notch" d="M 68.1553398058 525 L 68.1553398058 530"/>
		<text class="x-axis-label" x="96.3106796117" y="540">
			10
		</text>
		<path class="x-notch" d="M 124.466019417 525 L 124.466019417 530"/>
		<text class="x-axis-label" x="152.621359223" y="540">
			20
		</text>
		<path class="x-notch" d="M 180.776699029 525 L 180.776699029 530"/>
		<text class="x-axis-label" x="208.932038835" y="540">
			30
		</text>
		<path class="x-notch" d="M 237.087378641 525 L 237.087378641 530"/>
		<text class="x-axis-label" x="265.242718447" y="540">
			40
		</text>
		<path class="x-notch" d="M 293.398058252 525 L 293.398058252 530"/>
		<text class="x-axis-label" x="321.553398058" y="540">
			50
		</text>
		<path class="x-notch" d="M 349.708737864 525 L 349.708737864 530"/>
		<text class="x-axis-label" x="377.86407767" y="540">
			60
		</text>
		<path class="x-notch" d="M 406.019417476 525 L 406.019417476 530"/>
		<text class="x-axis-label" x="434.174757282" y="540">
			70
		</text>
		<path class="x-notch" d="M 462.330097087 525 L 462.330097087 530"/>
		<text class="x-axis-label" x="490.485436893" y="540">
			80
		</text>
		<path class="x-notch" d="M 518.640776699 525 L 518.640776699 530"/>
		<text class="x-axis-label" x="546.796116505" y="540">
			90
		</text>
		<path class="x-notch" d="M 574.951456311 525 L 574.951456311 530"/>
		<text class="x-axis-label" x="603.106796117" y="540">
			100
		</text>
		<path class="x-notch" d="M 631.262135922 525 L 631.262135922 530"/>
	</g>
</svg>
