<?xml version="1.0" ?>
<svg height="600" version="1.1" width="800" xmlns="http://www.w3.org/2000/svg" xmlns:svg="http://www.w3.org/2000/svg">
	<style type="text/css">
		

.x-axis-path, .y-gridline, .x-notch { fill:none; stroke: #a7a9ac; stroke-width:1; }



.y-gridline { stroke-width: 1; }

.y-axis-path, .y-axis-path2, .x-notch-left, .x-notch-right { display: none;}



.x-axis-label, .data-point-label {font-size: 12px; font-weight:normal; font-family: sans-serif; fill: #58595b; text-anchor:middle;}

.y-axis-label {font-size: 12px; font-family: helvetica; fill: #a7a9ac; text-anchor:end;}



.series-1-line { fill: none; stroke: #10b80c; stroke-width:2; }



.series-2-line { fill: none; stroke: #e90f0a; stroke-width: 2;}

	</style>
	<rect fill="white" height="600" width="800" x="0" y="0"/>
	<g id="grid" transform="translate(70, 30)">
		<g class="x-axis" id="x_axis">
			<path class="x-axis-path" d="M 0 525 L 660 525"/>
			<path class="x-notch-left" d="M 0 525, L 0 535"/>
			<path class="x-notch-right" d="M 660 525, L 660 535"/>
		</g>
		<g class="y-axis" id="y_axis">
			<path class="y-axis-path" d="M 0 525 L 0 0"/>
			<path class="y-axis-path-2" d="M 660 525 L 660 0"/>
			<path class="y-gridline" d="M 0 525 L 660 525"/>
			<text class="y-axis-label" x="-5" y="525">
				-200
			</text>
			<path class="y-gridline" d="M 0 420 L 660 420"/>
			<text class="y-axis-label" x="-5" y="420">
				 0
			</text>
			<path class="y-gridline" d="M 0 315 L 660 315"/>
			<text class="y-axis-label" x="-5" y="315">
				200
			</text>
			<path class="y-gridline" d="M 0 210 L 660 210"/>
			<text class="y-axis-label" x="-5" y="210">
				400
			</text>
			<path class="y-gridline" d="M 0 105 L 660 105"/>
			<text class="y-axis-label" x="-5" y="105">
				600
			</text>
			<path class="y-gridline" d="M 0 0 L 660 0"/>
			<text class="y-axis-label" x="-5" y="0">
				800
			</text>
		</g>
		<g>
			<path class="series-1-line" d="M 40 404.180406 L 45 404.307443235 L 51 436.782670471 L 57 422.667297706 L 62 435.623654941 L 68 401.168522176 L 74 410.678779412 L 80 432.707766647 L 85 404.713913882 L 91 433.729811118 L 97 401.872168353 L 103 375.171075588 L 108 403.823252824 L 114 414.033230059 L 120 380.816257294 L 126 404.447544529 L 131 407.886071765 L 137 350.923349 L 143 381.998506235 L 149 376.660293471 L 154 385.913930706 L 160 360.316807941 L 166 355.490155176 L 172 342.385092412 L 177 373.514219647 L 183 343.595296882 L 189 360.966694118 L 195 318.568521353 L 200 330.542078588 L 206 346.984855824 L 212 294.464473059 L 218 346.418460294 L 223 304.518407529 L 229 303.986674765 L 235 323.726872 L 240 344.746599235 L 246 317.977886471 L 252 348.272053706 L 258 287.270820941 L 263 307.873068176 L 269 319.684505412 L 275 293.023312647 L 281 281.641509882 L 286 303.629967118 L 292 289.743704353 L 298 242.540101588 L 304 273.211428824 L 309 238.809636059 L 315 193.180823294 L 321 208.937320529 L 327 192.413247765 L 332 192.607485 L 338 199.398032235 L 344 198.340459471 L 350 206.247996706 L 355 223.121693941 L 361 196.946021176 L 367 146.618668412 L 373 126.567855647 L 378 175.882772882 L 384 152.371580118 L 390 148.366237353 L 396 113.802744588 L 401 133.638071824 L 407 144.238649059 L 413 80.3156862941 L 419 49.6703735294 L 424 133.097480765 L 430 120.677858 L 436 157.151065235 L 441 104.361672471 L 447 145.963919706 L 453 220.035526941 L 459 88.1458541765 L 464 220.330341412 L 470 329.700218647 L 476 374.735335882 L 482 380.960773118 L 487 455.678760353 L 493 426.150227588 L 499 445.406584824 L 505 377.054932059 L 510 425.374869294 L 516 434.710196529 L 522 443.950393765 L 528 456.893311 L 533 465.743748235 L 539 441.774965471 L 545 432.869062706 L 551 419.830989941 L 556 421.668267176 L 562 453.053174412 L 568 433.055281647 L 574 427.179258882 L 579 440.081436118 L 585 448.257773353 L 591 447.645400588 L 597 448.472997824 L 602 437.265495059 L 608 418.587242294 L 614 409.668109529 L 620 380.663946765"/>
			<path class="series-2-line" d="M 40 459.585 L 45 433.583088235 L 51 418.606176471 L 57 382.629264706 L 62 402.827352941 L 68 427.750441176 L 74 453.198529412 L 80 429.821617647 L 85 429.544705882 L 91 442.392794118 L 97 410.090882353 L 103 453.913970588 L 108 441.562058824 L 114 439.710147059 L 120 435.233235294 L 126 448.606323529 L 131 417.879411765 L 137 452.7775 L 143 430.975588235 L 149 418.098676471 L 154 360.596764706 L 160 416.494852941 L 166 405.717941176 L 172 437.466029412 L 177 427.739117647 L 183 420.637205882 L 189 407.235294118 L 195 360.758382353 L 200 370.456470588 L 206 379.104558824 L 212 417.152647059 L 218 393.775735294 L 223 351.498823529 L 229 407.921911765 L 235 352.52 L 240 363.793088235 L 246 377.166176471 L 252 333.839264706 L 258 364.012352941 L 263 358.485441176 L 269 311.483529412 L 275 308.056617647 L 281 357.654705882 L 286 320.102794118 L 292 309.850882353 L 298 296.448970588 L 304 276.222058824 L 309 251.795147059 L 315 217.918235294 L 321 251.766323529 L 327 305.039411765 L 332 268.5375 L 338 247.260588235 L 344 221.783676471 L 350 169.531764706 L 355 192.879852941 L 361 277.652941176 L 367 198.626029412 L 373 269.749117647 L 378 187.047205882 L 384 183.620294118 L 390 188.068382353 L 396 147.891470588 L 401 180.164558824 L 407 199.312647059 L 413 173.310735294 L 419 218.183823529 L 424 199.006911765 L 430 123.655 L 436 99.2280882353 L 441 158.801176471 L 447 153.274264706 L 453 160.347352941 L 459 192.620441176 L 464 142.993529412 L 470 356.391617647 L 476 368.189705882 L 482 373.687794118 L 487 402.810882353 L 493 396.233970588 L 499 416.432058824 L 505 405.655147059 L 510 437.403235294 L 516 469.676323529 L 522 414.274411765 L 528 436.5725 L 533 442.070588235 L 539 448.618676471 L 545 398.466764706 L 551 399.239852941 L 556 434.137941176 L 562 425.461029412 L 568 406.284117647 L 574 456.932205882 L 579 444.580294118 L 585 350.328382353 L 591 419.351470588 L 597 447.949558824 L 602 429.297647059 L 608 450.020735294 L 614 422.443823529 L 620 354.441911765"/>
		</g>
		<text class="x-axis-label" x="40.0" y="540">
			0
		</text>
		<path class="x-notch" d="M 68.7128712871 525 L 68.7128712871 530"/>
		<text class="x-axis-label" x="97.4257425743" y="540">
			10
		</text>
		<path class="x-notch" d="M 126.138613861 525 L 126.138613861 530"/>
		<text class="x-axis-label" x="154.851485149" y="540">
			20
		</text>
		<path class="x-notch" d="M 183.564356436 525 L 183.564356436 530"/>
		<text class="x-axis-label" x="212.277227723" y="540">
			30
		</text>
		<path class="x-notch" d="M 240.99009901 525 L 240.99009901 530"/>
		<text class="x-axis-label" x="269.702970297" y="540">
			40
		</text>
		<path class="x-notch" d="M 298.415841584 525 L 298.415841584 530"/>
		<text class="x-axis-label" x="327.128712871" y="540">
			50
		</text>
		<path class="x-notch" d="M 355.841584158 525 L 355.841584158 530"/>
		<text class="x-axis-label" x="384.554455446" y="540">
			60
		</text>
		<path class="x-notch" d="M 413.267326733 525 L 413.267326733 530"/>
		<text class="x-axis-label" x="441.98019802" y="540">
			70
		</text>
		<path class="x-notch" d="M 470.693069307 525 L 470.693069307 530"/>
		<text class="x-axis-label" x="499.405940594" y="540">
			80
		</text>
		<path class="x-notch" d="M 528.118811881 525 L 528.118811881 530"/>
		<text class="x-axis-label" x="556.831683168" y="540">
			90
		</text>
		<path class="x-notch" d="M 585.544554455 525 L 585.544554455 530"/>
		<text class="x-axis-label" x="614.257425743" y="540">
			100
		</text>
		<path class="x-notch" d="M 642.97029703 525 L 642.97029703 530"/>
	</g>
</svg>
