<?xml version="1.0" ?>
<svg height="600" version="1.1" width="800" xmlns="http://www.w3.org/2000/svg" xmlns:svg="http://www.w3.org/2000/svg">
	<style type="text/css">
		

.x-axis-path, .y-gridline, .x-notch { fill:none; stroke: #a7a9ac; stroke-width:1; }



.y-gridline { stroke-width: 1; }

.y-axis-path, .y-axis-path2, .x-notch-left, .x-notch-right { display: none;}



.x-axis-label, .data-point-label {font-size: 12px; font-weight:normal; font-family: sans-serif; fill: #58595b; text-anchor:middle;}

.y-axis-label {font-size: 12px; font-family: helvetica; fill: #a7a9ac; text-anchor:end;}



.series-1-line { fill: none; stroke: #10b80c; stroke-width:2; }



.series-2-line { fill: none; stroke: #e90f0a; stroke-width: 2;}

	</style>
	<rect fill="white" height="600" width="800" x="0" y="0"/>
	<g id="grid" transform="translate(70, 30)">
		<g class="x-axis" id="x_axis">
			<path class="x-axis-path" d="M 0 525 L 660 525"/>
			<path class="x-notch-left" d="M 0 525, L 0 535"/>
			<path class="x-notch-right" d="M 660 525, L 660 535"/>
		</g>
		<g class="y-axis" id="y_axis">
			<path class="y-axis-path" d="M 0 525 L 0 0"/>
			<path class="y-axis-path-2" d="M 660 525 L 660 0"/>
			<path class="y-gridline" d="M 0 525 L 660 525"/>
			<text class="y-axis-label" x="-5" y="525">
				-200
			</text>
			<path class="y-gridline" d="M 0 420 L 660 420"/>
			<text class="y-axis-label" x="-5" y="420">
				 0
			</text>
			<path class="y-gridline" d="M 0 315 L 660 315"/>
			<text class="y-axis-label" x="-5" y="315">
				200
			</text>
			<path class="y-gridline" d="M 0 210 L 660 210"/>
			<text class="y-axis-label" x="-5" y="210">
				400
			</text>
			<path class="y-gridline" d="M 0 105 L 660 105"/>
			<text class="y-axis-label" x="-5" y="105">
				600
			</text>
			<path class="y-gridline" d="M 0 0 L 660 0"/>
			<text class="y-axis-label" x="-5" y="0">
				800
			</text>
		</g>
		<g>
			<path class="series-1-line" d="M 40 389.256751057 L 43 408.395121108 L 46 435.559345445 L 49 446.501516715 L 52 417.507786087 L 56 437.416475955 L 59 397.457429678 L 62 359.731913537 L 65 385.655536839 L 68 377.736436041 L 72 386.405954994 L 75 390.751657911 L 78 395.162971985 L 81 381.006837871 L 84 345.913205322 L 88 369.949590918 L 91 354.611437161 L 94 361.889775436 L 97 334.665508449 L 100 320.79056501 L 104 313.328908462 L 107 325.00248113 L 110 344.819580267 L 113 326.986674312 L 116 321.509959042 L 120 285.626241824 L 123 307.69683971 L 126 293.580031538 L 129 295.829539475 L 132 298.437973046 L 136 262.429961399 L 139 284.794383165 L 142 258.837206188 L 145 269.916610733 L 148 272.512309219 L 152 271.953578108 L 155 289.119334443 L 158 264.749356572 L 161 269.545677734 L 164 235.836603618 L 168 240.228152841 L 171 254.651077524 L 174 236.916282664 L 177 254.787257062 L 180 257.036764999 L 184 239.315214627 L 187 244.954089008 L 190 223.522859335 L 193 244.639752181 L 197 236.413684896 L 200 214.714712797 L 203 246.457556749 L 206 247.126487825 L 209 251.256814986 L 213 221.844966049 L 216 250.145873126 L 219 257.312652057 L 222 207.76011348 L 225 265.972067358 L 229 250.261539717 L 232 247.488941441 L 235 214.465422418 L 238 257.61757802 L 241 269.819911414 L 245 242.047220729 L 248 244.52514515 L 251 262.814339738 L 254 252.603025532 L 257 230.342487128 L 261 258.715220085 L 264 252.677142271 L 267 219.405543793 L 270 269.336534164 L 273 268.412051413 L 277 245.700589123 L 280 238.728265478 L 283 268.159233052 L 286 203.141207333 L 289 217.655620867 L 293 265.947147344 L 296 224.891253672 L 299 223.137054668 L 302 210.528895597 L 305 229.823754372 L 309 203.19406303 L 312 198.004855037 L 315 185.207401664 L 318 215.003611474 L 321 132.568166676 L 325 149.303069618 L 328 145.093546239 L 331 141.687148256 L 334 105.0 L 338 154.336312845 L 341 135.974748044 L 344 138.041380162 L 347 134.746032119 L 350 167.376868074 L 354 136.554379249 L 357 154.425353648 L 360 144.553709628 L 363 160.857249773 L 366 193.618900519 L 370 145.254698187 L 373 164.477731083 L 376 140.64283054 L 379 116.089976848 L 382 170.239744275 L 386 155.835632587 L 389 142.907466302 L 392 164.854279163 L 395 157.744518482 L 398 189.617973465 L 402 181.705494911 L 405 162.866924769 L 408 125.219449228 L 411 154.545785344 L 414 143.328806951 L 418 120.362744842 L 421 148.454592765 L 424 135.075808235 L 427 102.097931757 L 430 200.768435418 L 434 100.68002341 L 437 169.478602451 L 440 146.701936526 L 443 168.315293923 L 446 174.900843578 L 450 134.654697546 L 453 149.573679257 L 456 129.566333961 L 459 151.832440871 L 462 164.726951601 L 466 159.303010523 L 469 144.983459799 L 472 124.545159228 L 475 134.174597943 L 479 122.29784027 L 482 122.464193954 L 485 133.575792794 L 488 166.435350873 L 491 176.593346553 L 495 208.179701781 L 498 200.698280382 L 501 186.215211167 L 504 187.204964503 L 507 196.696660539 L 511 167.800633483 L 514 170.226496876 L 517 176.473191391 L 520 217.744222127 L 523 221.495960683 L 527 247.759457932 L 530 309.432706014 L 533 302.382749292 L 536 368.601607648 L 539 378.002527999 L 543 410.489712195 L 546 368.989313119 L 549 379.676477048 L 552 409.949692198 L 555 414.145426755 L 559 407.617608515 L 562 437.80595706 L 565 376.654506888 L 568 434.637942402 L 571 432.381064125 L 575 447.359136631 L 578 420.618191587 L 581 433.983289175 L 584 449.000585742 L 587 429.867886079 L 591 441.410847715 L 594 441.485508788 L 597 451.154069684 L 600 420.344519706 L 603 406.495046437 L 607 417.05842534 L 610 414.782189734 L 613 424.332976565 L 616 422.644490599 L 620 425.351137145"/>
			<path class="series-2-line" d="M 40 410.168514433 L 43 430.714264861 L 46 401.083780659 L 49 418.827812402 L 52 438.354756037 L 56 428.08160093 L 59 439.712791907 L 62 450.579877787 L 65 445.655458352 L 68 435.637004945 L 72 460.257982552 L 75 444.126688376 L 78 457.540791243 L 81 437.079568192 L 84 444.63553199 L 88 456.012021268 L 91 441.154235586 L 94 454.313636754 L 97 436.14472899 L 100 451.341743747 L 104 469.34047719 L 107 482.245176659 L 110 456.435217936 L 113 443.360344145 L 116 419.842700709 L 120 441.407257933 L 123 451.510238717 L 126 444.802907392 L 129 447.774240615 L 132 424.511298878 L 136 425.69972021 L 139 429.689860227 L 142 422.473125505 L 145 448.622313303 L 148 457.197083896 L 152 461.187223914 L 155 451.678173903 L 158 465.09227677 L 161 448.196877499 L 164 458.299858284 L 168 454.903649041 L 171 456.092070373 L 174 457.535193404 L 177 437.328672051 L 180 440.300005273 L 184 459.572247209 L 187 450.317898897 L 190 452.270425325 L 193 442.251971918 L 197 430.450606619 L 200 434.440746637 L 203 455.495900463 L 206 446.750955548 L 209 444.3735531 L 213 449.63720161 L 216 451.33502634 L 219 412.280579287 L 222 450.400746922 L 225 444.712222391 L 229 418.392860271 L 232 430.024051247 L 235 422.552614826 L 238 441.824856762 L 241 431.806403354 L 245 429.683702604 L 248 416.863530511 L 251 420.853670528 L 254 420.768583368 L 257 432.909177741 L 261 433.333493978 L 264 437.833037392 L 267 439.276160423 L 270 444.030405537 L 273 445.473528568 L 277 428.578129297 L 280 399.966451888 L 283 424.078026098 L 286 411.257854005 L 289 418.049712708 L 293 400.390208341 L 296 444.113813346 L 299 416.011539335 L 302 412.360628393 L 305 408.455015752 L 309 416.775084646 L 312 408.030139732 L 315 414.057893338 L 318 391.0496533 L 321 403.444949372 L 325 411.510316568 L 328 408.878212421 L 331 390.199901259 L 334 398.010566756 L 338 366.342468964 L 341 386.124114297 L 344 387.821939027 L 347 371.690644852 L 350 373.388469581 L 354 380.180328284 L 357 359.97380693 L 360 366.510963934 L 363 342.483917101 L 366 363.539070927 L 370 375.170261904 L 373 372.538157757 L 376 342.143568458 L 379 354.284162832 L 382 346.558024712 L 386 344.944727359 L 389 341.548518116 L 392 380.942194244 L 395 324.058628287 L 398 344.604378716 L 402 343.50048476 L 405 338.321363626 L 408 317.096035479 L 411 327.708419661 L 414 335.519085158 L 418 328.557052133 L 421 323.123229301 L 424 320.491125154 L 427 305.888041171 L 430 316.245723654 L 434 311.06660252 L 437 322.697793497 L 440 315.990462171 L 443 317.9429886 L 446 280.16205004 L 450 316.754007483 L 453 290.179943664 L 456 308.433378805 L 459 278.038789506 L 462 259.360478345 L 466 287.292578034 L 469 252.568059859 L 472 278.462545959 L 475 292.386052223 L 479 283.895809007 L 482 303.932156039 L 485 285.253844877 L 488 300.960263032 L 491 272.093883925 L 495 317.60040082 L 498 318.788822153 L 501 259.867642606 L 504 330.334925968 L 507 286.186444943 L 511 280.497920412 L 514 285.761568923 L 517 320.825316174 L 520 315.64619504 L 523 332.626121688 L 527 354.190678912 L 530 344.9363306 L 533 388.150532207 L 536 394.94239091 L 539 414.724036243 L 543 418.968877958 L 546 422.704316277 L 549 410.64824928 L 552 412.600775709 L 555 419.902037808 L 559 431.278527086 L 562 436.542175597 L 565 456.323820929 L 568 456.493435467 L 571 447.239087155 L 575 451.229227173 L 578 437.135546587 L 581 454.370174933 L 584 462.18084043 L 587 433.314461323 L 591 446.72856419 L 594 441.294741358 L 597 449.105406855 L 600 443.926285721 L 603 395.447875819 L 607 412.682504166 L 610 426.351308731 L 613 412.767031543 L 616 424.14352082 L 620 425.331942153"/>
		</g>
		<text class="x-axis-label" x="40.0" y="540">
			0
		</text>
		<path class="x-notch" d="M 56.0220994475 525 L 56.0220994475 530"/>
		<text class="x-axis-label" x="72.044198895" y="540">
			10
		</text>
		<path class="x-notch" d="M 88.0662983425 525 L 88.0662983425 530"/>
		<text class="x-axis-label" x="104.08839779" y="540">
			20
		</text>
		<path class="x-notch" d="M 120.110497238 525 L 120.110497238 530"/>
		<text class="x-axis-label" x="136.132596685" y="540">
			30
		</text>
		<path class="x-notch" d="M 152.154696133 525 L 152.154696133 530"/>
		<text class="x-axis-label" x="168.17679558" y="540">
			40
		</text>
		<path class="x-notch" d="M 184.198895028 525 L 184.198895028 530"/>
		<text class="x-axis-label" x="200.220994475" y="540">
			50
		</text>
		<path class="x-notch" d="M 216.243093923 525 L 216.243093923 530"/>
		<text class="x-axis-label" x="232.26519337" y="540">
			60
		</text>
		<path class="x-notch" d="M 248.287292818 525 L 248.287292818 530"/>
		<text class="x-axis-label" x="264.309392265" y="540">
			70
		</text>
		<path class="x-notch" d="M 280.331491713 525 L 280.331491713 530"/>
		<text class="x-axis-label" x="296.35359116" y="540">
			80
		</text>
		<path class="x-notch" d="M 312.375690608 525 L 312.375690608 530"/>
		<text class="x-axis-label" x="328.397790055" y="540">
			90
		</text>
		<path class="x-notch" d="M 344.419889503 525 L 344.419889503 530"/>
		<text class="x-axis-label" x="360.44198895" y="540">
			100
		</text>
		<path class="x-notch" d="M 376.464088398 525 L 376.464088398 530"/>
		<text class="x-axis-label" x="392.486187845" y="540">
			110
		</text>
		<path class="x-notch" d="M 408.508287293 525 L 408.508287293 530"/>
		<text class="x-axis-label" x="424.53038674" y="540">
			120
		</text>
		<path class="x-notch" d="M 440.552486188 525 L 440.552486188 530"/>
		<text class="x-axis-label" x="456.574585635" y="540">
			130
		</text>
		<path class="x-notch" d="M 472.596685083 525 L 472.596685083 530"/>
		<text class="x-axis-label" x="488.61878453" y="540">
			140
		</text>
		<path class="x-notch" d="M 504.640883978 525 L 504.640883978 530"/>
		<text class="x-axis-label" x="520.662983425" y="540">
			150
		</text>
		<path class="x-notch" d="M 536.685082873 525 L 536.685082873 530"/>
		<text class="x-axis-label" x="552.70718232" y="540">
			160
		</text>
		<path class="x-notch" d="M 568.729281768 525 L 568.729281768 530"/>
		<text class="x-axis-label" x="584.751381215" y="540">
			170
		</text>
		<path class="x-notch" d="M 600.773480663 525 L 600.773480663 530"/>
		<text class="x-axis-label" x="616.79558011" y="540">
			180
		</text>
		<path class="x-notch" d="M 632.817679558 525 L 632.817679558 530"/>
	</g>
</svg>
