<?xml version="1.0" ?>
<svg height="600" version="1.1" width="800" xmlns="http://www.w3.org/2000/svg" xmlns:svg="http://www.w3.org/2000/svg">
	<style type="text/css">
		

.x-axis-path, .y-gridline, .x-notch { fill:none; stroke: #a7a9ac; stroke-width:1; }



.y-gridline { stroke-width: 1; }

.y-axis-path, .y-axis-path2, .x-notch-left, .x-notch-right { display: none;}



.x-axis-label, .data-point-label {font-size: 12px; font-weight:normal; font-family: sans-serif; fill: #58595b; text-anchor:middle;}

.y-axis-label {font-size: 12px; font-family: helvetica; fill: #a7a9ac; text-anchor:end;}



.series-1-line { fill: none; stroke: #10b80c; stroke-width:2; }



.series-2-line { fill: none; stroke: #e90f0a; stroke-width: 2;}

	</style>
	<rect fill="white" height="600" width="800" x="0" y="0"/>
	<g id="grid" transform="translate(70, 30)">
		<g class="x-axis" id="x_axis">
			<path class="x-axis-path" d="M 0 525 L 660 525"/>
			<path class="x-notch-left" d="M 0 525, L 0 535"/>
			<path class="x-notch-right" d="M 660 525, L 660 535"/>
		</g>
		<g class="y-axis" id="y_axis">
			<path class="y-axis-path" d="M 0 525 L 0 0"/>
			<path class="y-axis-path-2" d="M 660 525 L 660 0"/>
			<path class="y-gridline" d="M 0 525 L 660 525"/>
			<text class="y-axis-label" x="-5" y="525">
				-200
			</text>
			<path class="y-gridline" d="M 0 394 L 660 394"/>
			<text class="y-axis-label" x="-5" y="394">
				 0
			</text>
			<path class="y-gridline" d="M 0 263 L 660 263"/>
			<text class="y-axis-label" x="-5" y="263">
				200
			</text>
			<path class="y-gridline" d="M 0 132 L 660 132"/>
			<text class="y-axis-label" x="-5" y="132">
				400
			</text>
			<path class="y-gridline" d="M 0 1 L 660 1"/>
			<text class="y-axis-label" x="-5" y="1">
				600
			</text>
		</g>
		<g>
			<path class="series-1-line" d="M 40 401.843526271 L 45 385.750173413 L 50 422.530138936 L 55 363.723251564 L 60 392.033449484 L 65 343.044005075 L 70 374.113283846 L 75 388.584367322 L 80 380.618774825 L 85 373.594119322 L 90 366.185081046 L 95 371.993871868 L 101 419.810494458 L 106 369.644878807 L 111 391.473956104 L 116 377.840386052 L 121 359.88618014 L 126 368.432697213 L 131 328.918688526 L 136 268.528891546 L 141 288.689974506 L 146 290.712995425 L 151 242.793282931 L 157 200.306313744 L 162 221.001595331 L 167 218.297575688 L 172 154.33622212 L 177 215.263567149 L 182 139.623583899 L 187 172.682510646 L 192 208.456808049 L 197 149.885488591 L 202 155.587506421 L 207 90.2144136972 L 212 119.123207705 L 218 120.63305093 L 223 99.1283093633 L 228 115.610061747 L 233 96.2444503448 L 238 51.2546554885 L 243 131.667737919 L 248 19.452999874 L 253 115.158977771 L 258 83.3663247449 L 263 98.0729761344 L 268 42.6671422282 L 274 108.129336433 L 279 0.0 L 284 63.323397706 L 289 44.0855802285 L 294 59.7978997378 L 299 59.9604012684 L 304 69.0628052324 L 309 66.9573816766 L 314 86.7978119949 L 319 76.5863163413 L 324 88.6193052743 L 330 171.877220615 L 335 155.184938003 L 340 147.133927113 L 345 96.4764883668 L 350 96.50986131 L 355 106.275926153 L 360 117.453396487 L 365 108.332653681 L 370 161.624728774 L 375 148.140974577 L 380 98.1682176434 L 385 143.781312608 L 391 176.989387878 L 396 172.274699326 L 401 127.157110545 L 406 126.270901093 L 411 120.059388658 L 416 196.066083169 L 421 239.134310599 L 426 169.461936613 L 431 252.526993237 L 436 302.461391393 L 441 290.838490249 L 447 234.705598999 L 452 241.412951283 L 457 267.540976177 L 462 278.483212262 L 467 324.310520542 L 472 297.073737624 L 477 301.706023539 L 482 307.407707703 L 487 329.943155076 L 492 350.018485977 L 497 328.770333257 L 502 323.392984823 L 508 339.896091805 L 513 365.532627269 L 518 374.891953745 L 523 359.098232596 L 528 383.429801897 L 533 340.835392386 L 538 378.428500978 L 543 359.875365312 L 548 345.771326763 L 553 390.743450109 L 558 400.829500263 L 564 397.869225439 L 569 400.106126008 L 574 400.88891189 L 579 384.367799731 L 584 404.999017523 L 589 407.706386588 L 594 397.987047695 L 599 387.690133648 L 604 409.946970245 L 609 391.522295836 L 614 373.653841982 L 620 410.240948788"/>
			<path class="series-2-line" d="M 40 393.4163344 L 45 386.64002127 L 50 394.878660162 L 55 382.263199024 L 60 410.521773944 L 65 395.403820802 L 70 416.154919712 L 75 391.026998556 L 80 385.084849428 L 85 362.459420276 L 90 399.893799209 L 95 392.283322078 L 101 403.024452973 L 106 408.760599861 L 111 406.989270739 L 116 406.886269619 L 121 397.607464485 L 126 385.826167349 L 131 389.059822233 L 136 363.097737077 L 141 393.858804 L 146 391.253310876 L 151 404.496933775 L 157 416.072228671 L 162 395.949291523 L 167 382.499666384 L 172 393.240797279 L 177 343.087956089 L 182 321.296690938 L 187 389.595137914 L 192 359.462232752 L 197 375.208347654 L 202 384.281150547 L 207 387.514805431 L 212 387.411804311 L 218 399.821263209 L 223 391.376622077 L 228 377.926996938 L 233 393.67311184 L 238 372.71601069 L 243 373.447173571 L 248 364.168368438 L 253 354.055399304 L 258 356.454890187 L 263 359.688545072 L 268 369.595511966 L 274 360.316706833 L 279 364.384525719 L 284 363.447360597 L 289 326.641143425 L 294 368.246342364 L 299 395.670753283 L 304 362.201192116 L 309 320.389990937 L 314 368.668501885 L 319 355.218876746 L 324 352.613383622 L 330 365.022842519 L 335 354.075709384 L 340 361.480184275 L 345 378.894627179 L 350 328.741785988 L 355 354.497868905 L 360 355.229031786 L 365 334.271930636 L 370 336.67142152 L 375 345.744224412 L 380 386.51525935 L 385 350.543206179 L 391 362.952665077 L 396 337.824743921 L 401 369.419974846 L 406 332.613757674 L 411 345.857380572 L 416 318.226967414 L 421 321.460622298 L 426 312.181817165 L 431 289.556388013 L 436 327.824930947 L 441 339.400225843 L 447 365.15630876 L 452 380.068259661 L 457 358.27699451 L 462 363.178977397 L 467 358.905156271 L 472 366.309631161 L 477 347.020858014 L 482 323.561264861 L 487 374.342267813 L 492 385.917562709 L 497 369.965445566 L 502 383.209068465 L 508 366.422787321 L 513 388.842214233 L 518 380.397573101 L 523 391.972867997 L 528 390.201538875 L 533 353.395321703 L 538 397.503012645 L 543 384.053387506 L 548 392.292026398 L 553 423.887257322 L 558 367.061104122 L 564 393.65135104 L 569 390.211693915 L 574 418.470268835 L 579 413.362283708 L 584 403.249314573 L 589 391.468017437 L 594 398.872492327 L 599 398.769491207 L 604 395.329834082 L 609 394.392668961 L 614 404.299635855 L 620 377.503386697"/>
		</g>
		<text class="x-axis-label" x="40.0" y="540">
			0
		</text>
		<path class="x-notch" d="M 65.4385964912 525 L 65.4385964912 530"/>
		<text class="x-axis-label" x="90.8771929825" y="540">
			10
		</text>
		<path class="x-notch" d="M 116.315789474 525 L 116.315789474 530"/>
		<text class="x-axis-label" x="141.754385965" y="540">
			20
		</text>
		<path class="x-notch" d="M 167.192982456 525 L 167.192982456 530"/>
		<text class="x-axis-label" x="192.631578947" y="540">
			30
		</text>
		<path class="x-notch" d="M 218.070175439 525 L 218.070175439 530"/>
		<text class="x-axis-label" x="243.50877193" y="540">
			40
		</text>
		<path class="x-notch" d="M 268.947368421 525 L 268.947368421 530"/>
		<text class="x-axis-label" x="294.385964912" y="540">
			50
		</text>
		<path class="x-notch" d="M 319.824561404 525 L 319.824561404 530"/>
		<text class="x-axis-label" x="345.263157895" y="540">
			60
		</text>
		<path class="x-notch" d="M 370.701754386 525 L 370.701754386 530"/>
		<text class="x-axis-label" x="396.140350877" y="540">
			70
		</text>
		<path class="x-notch" d="M 421.578947368 525 L 421.578947368 530"/>
		<text class="x-axis-label" x="447.01754386" y="540">
			80
		</text>
		<path class="x-notch" d="M 472.456140351 525 L 472.456140351 530"/>
		<text class="x-axis-label" x="497.894736842" y="540">
			90
		</text>
		<path class="x-notch" d="M 523.333333333 525 L 523.333333333 530"/>
		<text class="x-axis-label" x="548.771929825" y="540">
			100
		</text>
		<path class="x-notch" d="M 574.210526316 525 L 574.210526316 530"/>
		<text class="x-axis-label" x="599.649122807" y="540">
			110
		</text>
		<path class="x-notch" d="M 625.087719298 525 L 625.087719298 530"/>
	</g>
</svg>
