<?xml version="1.0" ?>
<svg height="600" version="1.1" width="800" xmlns="http://www.w3.org/2000/svg" xmlns:svg="http://www.w3.org/2000/svg">
	<style type="text/css">

.x-axis-path, .y-gridline, .x-notch { fill:none; stroke: #a7a9ac; stroke-width:1; }



.y-gridline { stroke-width: 1; }

.y-axis-path, .y-axis-path2, .x-notch-left, .x-notch-right { display: none;}



.x-axis-label, .data-point-label {font-size: 12px; font-weight:normal; font-family: sans-serif; fill: #58595b; text-anchor:middle;}

.y-axis-label {font-size: 12px; font-family: helvetica; fill: #a7a9ac; text-anchor:end;}



.series-1-line { fill: none; stroke: #10b80c; stroke-width:2; }



.series-2-line { fill: none; stroke: #e90f0a; stroke-width: 2;}
</style>
	<rect fill="white" height="600" width="800" x="0" y="0"/>
	<g id="grid" transform="translate(70, 30)">
		<g class="x-axis" id="x_axis">
			<path class="x-axis-path" d="M 0 525 L 660 525"/>
			<path class="x-notch-left" d="M 0 525, L 0 535"/>
			<path class="x-notch-right" d="M 660 525, L 660 535"/>
		</g>
		<g class="y-axis" id="y_axis">
			<path class="y-axis-path" d="M 0 525 L 0 0"/>
			<path class="y-axis-path-2" d="M 660 525 L 660 0"/>
			<path class="y-gridline" d="M 0 525 L 660 525"/>
			<text class="y-axis-label" x="-5" y="525">-200</text>
			<path class="y-gridline" d="M 0 394 L 660 394"/>
			<text class="y-axis-label" x="-5" y="394"> 0</text>
			<path class="y-gridline" d="M 0 263 L 660 263"/>
			<text class="y-axis-label" x="-5" y="263">200</text>
			<path class="y-gridline" d="M 0 132 L 660 132"/>
			<text class="y-axis-label" x="-5" y="132">400</text>
			<path class="y-gridline" d="M 0 1 L 660 1"/>
			<text class="y-axis-label" x="-5" y="1">600</text>
		</g>
		<g>
			<path class="series-1-line" d="M 40 354.297445299 L 43 408.717586484 L 47 391.203306509 L 51 394.128474492 L 55 419.888015203 L 59 416.434382547 L 63 392.967395555 L 66 423.617173195 L 70 410.327123926 L 74 399.177050828 L 78 404.511737342 L 82 422.475776925 L 86 436.088443179 L 89 407.54636494 L 93 415.50328512 L 97 417.082068013 L 101 422.629248544 L 105 424.136831568 L 109 389.954043252 L 112 381.89408867 L 116 360.893005198 L 120 364.285615796 L 124 330.031406494 L 128 386.025020549 L 132 360.474221258 L 136 388.133383304 L 139 361.505077928 L 143 363.352739827 L 147 355.320867181 L 151 348.678497558 L 155 348.811613556 L 159 345.018123142 L 162 294.633826866 L 166 297.063028063 L 170 329.201590531 L 174 307.803158724 L 178 272.798476275 L 182 275.241607881 L 185 232.794991352 L 189 250.659528013 L 193 184.485223637 L 197 181.868299994 L 201 171.143436049 L 205 123.608240099 L 209 185.412603669 L 212 123.973090547 L 216 170.01574907 L 220 107.130126817 L 224 107.90050375 L 228 89.2669264634 L 232 95.2676192004 L 235 98.8304903537 L 239 59.9697380082 L 243 183.375697105 L 247 55.0759695978 L 251 0.0 L 255 107.389084335 L 258 51.1790025465 L 262 28.5624338595 L 266 64.456015478 L 270 89.6494951225 L 274 18.9820810332 L 278 123.833840863 L 281 102.591518084 L 285 67.1897084178 L 289 163.069179231 L 293 162.109974265 L 297 116.829293406 L 301 40.2511846447 L 305 75.6633932393 L 308 121.890242727 L 312 109.223966219 L 316 111.227737146 L 320 100.219400433 L 324 120.77714951 L 328 186.720613509 L 331 123.041179058 L 335 120.168864583 L 339 160.910449668 L 343 206.9393989 L 347 200.070162615 L 351 215.425898941 L 354 276.692062263 L 358 237.8034491 L 362 278.885776413 L 366 301.342925708 L 370 244.707634767 L 374 214.124862162 L 378 241.798175735 L 381 298.273383932 L 385 250.001424126 L 389 274.783625027 L 393 291.698461579 L 397 282.844915916 L 401 330.517874533 L 404 303.308250976 L 408 339.174192894 L 412 297.890212727 L 416 327.632744838 L 420 328.88493703 L 424 347.827200892 L 427 326.783883958 L 431 329.382903475 L 435 306.440186322 L 439 270.413940542 L 443 339.816568337 L 447 303.720007159 L 450 331.633896686 L 454 318.528038381 L 458 341.707136653 L 462 380.210569351 L 466 357.693282468 L 470 354.580170922 L 474 330.375314486 L 477 329.062984707 L 481 387.508129637 L 485 358.654717812 L 489 359.51044614 L 493 393.547524356 L 497 395.339022383 L 500 376.875263417 L 504 370.729081697 L 508 359.990287343 L 512 374.523466182 L 516 414.954159916 L 520 407.829753917 L 523 390.896571005 L 527 381.81615868 L 531 393.883655118 L 535 408.020370093 L 539 415.466950842 L 543 415.330524481 L 547 410.530727852 L 550 390.833796008 L 554 399.074188956 L 558 383.657872807 L 562 404.62667951 L 566 383.143780778 L 570 392.999880058 L 573 406.512822273 L 577 412.783278487 L 581 399.634744484 L 585 379.328412524 L 589 413.464993661 L 593 396.120974241 L 596 402.702985159 L 600 402.268713385 L 604 383.379966383 L 608 394.865923522 L 612 419.576924555 L 616 391.602234088 L 620 380.097709471"/>
			<path class="series-2-line" d="M 40 386.784795475 L 43 404.52439167 L 47 390.201935289 L 51 399.649621335 L 55 382.563194904 L 59 352.209712235 L 63 382.663570659 L 66 378.844200466 L 70 395.478208642 L 74 380.050164241 L 78 380.100352118 L 82 393.417596233 L 86 417.237926538 L 89 376.93415169 L 93 377.537133577 L 97 403.015845911 L 101 391.45735958 L 105 384.874019338 L 109 405.377585583 L 112 403.76939143 L 116 394.422081138 L 120 374.018890648 L 124 340.901437929 L 128 371.908090363 L 132 382.461364429 L 136 392.461844485 L 139 377.033800084 L 143 360.500167663 L 147 332.910655043 L 151 347.333487179 L 155 382.762491692 L 159 383.918267589 L 162 366.279047148 L 166 388.440995423 L 170 432.714704095 L 174 377.485490979 L 178 418.442435591 L 182 416.834241439 L 185 411.356489217 L 189 397.034032835 L 193 384.922752494 L 197 396.58161458 L 201 379.495188149 L 205 370.147877857 L 209 335.372043108 L 212 382.40972183 L 216 348.739475101 L 220 362.609513227 L 224 341.653528727 L 228 372.66018116 L 232 355.02096072 L 235 351.201590527 L 239 325.270459937 L 243 339.140498063 L 247 338.63789193 L 251 319.89308347 L 255 331.551945555 L 258 295.670522787 L 262 322.807617151 L 266 255.416935816 L 270 326.777550975 L 274 325.722150832 L 278 323.56116267 L 281 287.126945891 L 285 303.760954066 L 289 299.941583874 L 293 246.923546797 L 297 317.178573937 L 301 311.148027704 L 305 297.378365333 L 308 256.521796475 L 312 283.658890839 L 316 285.920254756 L 320 269.939416345 L 324 266.672840163 L 328 254.561559821 L 331 262.903657848 L 335 249.686789486 L 339 223.755658896 L 343 235.414520982 L 347 242.098236979 L 351 231.092544657 L 354 237.223466644 L 358 258.832620909 L 362 287.628097303 L 366 289.88946122 L 370 255.666420481 L 374 253.505432318 L 378 261.294736334 L 381 260.239336192 L 385 279.637314417 L 389 328.886169179 L 393 311.799742748 L 397 326.222574883 L 401 318.533646621 L 404 285.968987912 L 408 287.677557819 L 412 316.473034213 L 416 303.256165852 L 420 271.797095163 L 424 305.014923636 L 427 323.860107851 L 431 319.487943649 L 435 332.805187765 L 439 274.259210589 L 443 326.2720354 L 447 321.899871198 L 450 292.099182538 L 454 301.546868584 L 458 212.597220862 L 462 320.442240677 L 466 353.66006915 L 470 356.474227077 L 474 307.87854208 L 477 374.81680516 L 481 346.67449853 L 485 355.016596556 L 489 363.911488592 L 493 327.477271814 L 497 362.906276327 L 500 367.378816284 L 504 390.646352578 L 508 397.330068575 L 512 342.100855458 L 516 407.933530518 L 520 411.300482455 L 523 392.555673994 L 527 399.239389991 L 531 405.370311977 L 535 390.495061586 L 539 384.464515354 L 543 397.22896546 L 547 404.465475466 L 550 407.279633393 L 554 406.777027261 L 558 410.143979197 L 562 407.430197025 L 566 408.585972922 L 570 393.157928521 L 573 367.779591941 L 577 394.363892295 L 581 388.886140073 L 585 400.545002159 L 589 391.750485877 L 593 394.011849794 L 596 393.509243661 L 600 388.031491439 L 604 415.721379813 L 608 383.156721104 L 612 400.34352329 L 616 400.946505177 L 620 376.120962607"/>
		</g>
		<text class="x-axis-label" x="40.0" y="540">0</text>
		<path class="x-notch" d="M 59.2052980132 525 L 59.2052980132 530"/>
		<text class="x-axis-label" x="78.4105960265" y="540">10</text>
		<path class="x-notch" d="M 97.6158940397 525 L 97.6158940397 530"/>
		<text class="x-axis-label" x="116.821192053" y="540">20</text>
		<path class="x-notch" d="M 136.026490066 525 L 136.026490066 530"/>
		<text class="x-axis-label" x="155.231788079" y="540">30</text>
		<path class="x-notch" d="M 174.437086093 525 L 174.437086093 530"/>
		<text class="x-axis-label" x="193.642384106" y="540">40</text>
		<path class="x-notch" d="M 212.847682119 525 L 212.847682119 530"/>
		<text class="x-axis-label" x="232.052980132" y="540">50</text>
		<path class="x-notch" d="M 251.258278146 525 L 251.258278146 530"/>
		<text class="x-axis-label" x="270.463576159" y="540">60</text>
		<path class="x-notch" d="M 289.668874172 525 L 289.668874172 530"/>
		<text class="x-axis-label" x="308.874172185" y="540">70</text>
		<path class="x-notch" d="M 328.079470199 525 L 328.079470199 530"/>
		<text class="x-axis-label" x="347.284768212" y="540">80</text>
		<path class="x-notch" d="M 366.490066225 525 L 366.490066225 530"/>
		<text class="x-axis-label" x="385.695364238" y="540">90</text>
		<path class="x-notch" d="M 404.900662252 525 L 404.900662252 530"/>
		<text class="x-axis-label" x="424.105960265" y="540">100</text>
		<path class="x-notch" d="M 443.311258278 525 L 443.311258278 530"/>
		<text class="x-axis-label" x="462.516556291" y="540">110</text>
		<path class="x-notch" d="M 481.721854305 525 L 481.721854305 530"/>
		<text class="x-axis-label" x="500.927152318" y="540">120</text>
		<path class="x-notch" d="M 520.132450331 525 L 520.132450331 530"/>
		<text class="x-axis-label" x="539.337748344" y="540">130</text>
		<path class="x-notch" d="M 558.543046358 525 L 558.543046358 530"/>
		<text class="x-axis-label" x="577.748344371" y="540">140</text>
		<path class="x-notch" d="M 596.953642384 525 L 596.953642384 530"/>
		<text class="x-axis-label" x="616.158940397" y="540">150</text>
		<path class="x-notch" d="M 635.364238411 525 L 635.364238411 530"/>
	</g>
</svg>
