<?xml version="1.0" ?>
<svg height="600" version="1.1" width="800" xmlns="http://www.w3.org/2000/svg" xmlns:svg="http://www.w3.org/2000/svg">
	<style type="text/css">
		

.x-axis-path, .y-gridline, .x-notch { fill:none; stroke: #a7a9ac; stroke-width:1; }



.y-gridline { stroke-width: 1; }

.y-axis-path, .y-axis-path2, .x-notch-left, .x-notch-right { display: none;}



.x-axis-label, .data-point-label {font-size: 12px; font-weight:normal; font-family: sans-serif; fill: #58595b; text-anchor:middle;}

.y-axis-label {font-size: 12px; font-family: helvetica; fill: #a7a9ac; text-anchor:end;}



.series-1-line { fill: none; stroke: #10b80c; stroke-width:2; }



.series-2-line { fill: none; stroke: #e90f0a; stroke-width: 2;}

	</style>
	<rect fill="white" height="600" width="800" x="0" y="0"/>
	<g id="grid" transform="translate(70, 30)">
		<g class="x-axis" id="x_axis">
			<path class="x-axis-path" d="M 0 525 L 660 525"/>
			<path class="x-notch-left" d="M 0 525, L 0 535"/>
			<path class="x-notch-right" d="M 660 525, L 660 535"/>
		</g>
		<g class="y-axis" id="y_axis">
			<path class="y-axis-path" d="M 0 525 L 0 0"/>
			<path class="y-axis-path-2" d="M 660 525 L 660 0"/>
			<path class="y-gridline" d="M 0 525 L 660 525"/>
			<text class="y-axis-label" x="-5" y="525">
				-200
			</text>
			<path class="y-gridline" d="M 0 394 L 660 394"/>
			<text class="y-axis-label" x="-5" y="394">
				 0
			</text>
			<path class="y-gridline" d="M 0 263 L 660 263"/>
			<text class="y-axis-label" x="-5" y="263">
				200
			</text>
			<path class="y-gridline" d="M 0 132 L 660 132"/>
			<text class="y-axis-label" x="-5" y="132">
				400
			</text>
			<path class="y-gridline" d="M 0 1 L 660 1"/>
			<text class="y-axis-label" x="-5" y="1">
				600
			</text>
		</g>
		<g>
			<path class="series-1-line" d="M 40 395.472663215 L 42 395.048920282 L 45 383.508657123 L 47 397.207370263 L 50 396.921686371 L 52 389.609135463 L 55 383.055601805 L 58 376.728528023 L 60 378.837661169 L 63 376.511839762 L 65 394.546959743 L 68 380.907368944 L 71 389.402732104 L 73 391.117520659 L 76 387.599287301 L 78 382.740743554 L 81 371.210166052 L 84 387.717719615 L 86 386.72252294 L 89 384.071386462 L 91 385.047144041 L 94 378.739902795 L 96 395.71052299 L 99 385.135904424 L 102 394.360459162 L 104 388.969819262 L 107 396.824391679 L 109 391.89681841 L 112 386.299243688 L 115 380.238294853 L 117 365.140320898 L 120 370.127016508 L 122 372.965494973 L 125 369.703393423 L 128 371.979950063 L 130 359.690662791 L 133 352.93019431 L 135 340.473329805 L 138 340.236842899 L 140 339.576646951 L 143 336.265194675 L 146 348.052143685 L 148 314.140473553 L 151 311.538841542 L 153 308.17834602 L 156 306.217197272 L 159 297.022400424 L 161 303.191668586 L 164 280.76149882 L 166 286.743664694 L 169 270.433292514 L 172 238.926432557 L 174 232.146131542 L 177 240.335858426 L 179 218.546171921 L 182 231.99859265 L 185 211.874377865 L 187 209.706294294 L 190 201.585682889 L 192 192.706054233 L 195 215.816612031 L 197 200.078001073 L 200 189.099352258 L 203 174.001224563 L 205 175.361333596 L 208 155.818719431 L 210 168.58115243 L 213 159.337004855 L 216 180.939521289 L 218 145.687694508 L 221 127.02217036 L 223 123.415228687 L 226 111.293364909 L 229 98.3437618393 L 231 133.763251812 L 234 113.747424137 L 236 119.000398434 L 239 88.5677239198 L 241 76.7611820738 L 244 97.8414417526 L 247 66.0094204661 L 249 36.8973775472 L 252 45.737427091 L 254 58.519692625 L 257 56.4500030259 L 260 59.3868754626 L 262 39.6568515284 L 265 14.8515435184 L 267 38.8095194014 L 270 58.8057542402 L 273 46.8906715437 L 275 21.9474582321 L 278 67.3305678094 L 280 0.0 L 283 34.9170657525 L 285 33.5078456914 L 288 13.1963748781 L 291 46.4478151709 L 293 42.3974856605 L 296 83.7006276865 L 298 63.2707766254 L 301 62.6105806773 L 304 80.2610417239 L 306 60.4819745442 L 309 97.7638779211 L 311 99.8533322727 L 314 72.5053087856 L 317 50.1343291427 L 319 68.6621876878 L 322 91.3684077564 L 324 98.4050802794 L 327 115.001188418 L 330 93.1227935985 L 332 89.9987510916 L 335 107.343883343 L 337 131.420085733 L 340 118.697250022 L 342 104.288802575 L 345 155.880879276 L 348 146.764797606 L 350 135.746944943 L 353 193.586885135 L 355 171.550906219 L 358 169.146215893 L 361 174.487898505 L 363 186.767278597 L 366 222.324981352 L 368 217.998533758 L 371 189.793252788 L 374 134.190324015 L 376 175.296370616 L 379 189.310405689 L 381 183.249610594 L 384 201.333773821 L 386 211.494762441 L 389 206.113808198 L 392 206.981024927 L 394 187.487454007 L 397 179.721675864 L 399 223.458838776 L 402 251.615316199 L 405 234.270269905 L 407 218.669564249 L 410 268.339729941 L 412 262.436518942 L 415 274.696527721 L 418 283.467701484 L 420 273.228237385 L 423 279.545403987 L 425 269.631101218 L 428 282.186599395 L 430 288.513759134 L 433 298.073314599 L 436 293.29348603 L 438 303.257225484 L 441 332.073864963 L 443 329.846745008 L 446 345.99931157 L 449 337.277728232 L 451 342.274263238 L 454 342.106805854 L 456 347.950912687 L 459 342.885434117 L 462 343.940060614 L 464 332.350446729 L 467 325.402568479 L 469 349.104412554 L 472 363.049571846 L 475 368.70642265 L 477 373.732629589 L 480 374.797095484 L 482 350.819526765 L 485 378.157796813 L 487 393.226492275 L 490 400.608004922 L 493 393.482863782 L 495 398.538588913 L 498 387.382523467 L 500 394.537422497 L 503 390.920795167 L 506 391.52188695 L 508 390.211214601 L 511 396.46934482 L 513 399.485086175 L 516 383.707117628 L 519 393.49328671 L 521 391.285691809 L 524 394.005790026 L 526 393.877843971 L 529 393.079588981 L 531 397.120318793 L 534 390.950982848 L 537 395.85896328 L 539 399.870021159 L 542 388.901365482 L 544 399.988333625 L 547 397.820403794 L 550 398.362459193 L 552 386.634786265 L 555 401.614773412 L 557 395.967847963 L 560 394.736044533 L 563 393.445050979 L 565 390.025365333 L 568 391.98660004 L 570 395.938621536 L 573 399.437262058 L 575 392.321806575 L 578 387.611161267 L 581 395.071542832 L 583 394.697150625 L 586 395.505330971 L 588 390.567918305 L 591 399.033609533 L 594 391.937986585 L 596 394.983246132 L 599 402.354919382 L 601 397.250083223 L 604 390.381073892 L 607 392.51972523 L 609 394.75692428 L 612 394.628824484 L 614 398.482298268 L 617 389.041055268 L 620 392.726951818"/>
			<path class="series-2-line" d="M 40 391.828242732 L 42 388.694668035 L 45 395.938582589 L 47 393.189359346 L 50 398.511516631 L 52 390.765724491 L 55 399.547044859 L 58 387.957738181 L 60 394.432949828 L 63 388.224563502 L 65 398.543289685 L 68 388.491388822 L 71 403.037980996 L 73 396.060891762 L 76 396.002128696 L 78 395.174662722 L 81 385.891464766 L 84 394.672785135 L 86 405.760214225 L 89 390.327393011 L 91 393.727793027 L 94 394.053381414 L 96 390.535455264 L 99 382.020960216 L 102 387.727468955 L 104 394.971383508 L 107 389.53170009 L 109 384.476368125 L 112 394.026391401 L 115 385.896247807 L 117 393.524513814 L 120 385.778721673 L 122 398.403556579 L 125 388.351655716 L 128 383.680675205 L 130 387.849778129 L 133 398.937207219 L 135 399.262795606 L 138 396.897923817 L 140 400.682675287 L 143 383.328096804 L 146 394.031174441 L 148 383.594922125 L 151 390.454485225 L 153 395.77664251 L 156 392.643067813 L 159 393.737359108 L 161 381.379349523 L 164 393.619832974 L 166 395.482827176 L 169 382.356114684 L 172 386.525217608 L 174 385.697751634 L 177 387.945097289 L 179 390.192442945 L 182 395.898951683 L 185 393.149728441 L 187 392.322262467 L 190 390.726093585 L 192 372.602812195 L 195 385.611998554 L 197 388.243695663 L 200 382.804012244 L 203 375.442571557 L 205 378.842971574 L 208 390.314752118 L 210 383.722014339 L 213 377.513628013 L 216 370.920890233 L 218 374.705641704 L 221 384.255664979 L 223 383.043847552 L 226 376.066758318 L 229 378.314103974 L 231 374.796177824 L 234 370.125197313 L 236 380.82827495 L 239 382.306917698 L 241 371.101962474 L 244 371.043199407 L 247 380.977574136 L 249 386.299731422 L 252 377.016533466 L 254 382.338690751 L 257 366.137166629 L 260 363.387943387 L 262 359.101314329 L 265 367.11393179 L 267 367.823871631 L 270 371.992974555 L 273 347.720069905 L 275 362.266662079 L 278 363.360953373 L 280 349.849889427 L 283 364.780833055 L 285 365.490772895 L 288 361.972846745 L 291 366.910652577 L 293 374.923270038 L 296 382.935887499 L 298 367.887417738 L 301 371.672169208 L 304 352.011482003 L 306 370.401588714 L 309 346.128684064 L 311 355.67870734 L 314 355.619944273 L 317 373.62569953 L 319 382.022668445 L 322 368.127253045 L 324 370.3745987 L 327 365.319266736 L 330 366.41355803 L 332 364.817389149 L 335 362.836868813 L 337 360.087645571 L 340 371.943777569 L 342 346.902170012 L 345 368.751439806 L 348 357.546484582 L 350 373.246131117 L 353 364.731636069 L 355 375.434713706 L 358 366.535867204 L 361 378.391999202 L 363 357.193906182 L 366 377.121418707 L 368 368.222572205 L 371 382.000461472 L 374 367.720694618 L 376 376.502014987 L 379 369.524925753 L 381 376.384488853 L 384 364.026479268 L 386 388.566209238 L 389 379.283011283 L 392 369.615461874 L 394 358.41050665 L 397 361.426555213 L 399 349.452897081 L 402 369.764761061 L 405 368.168592179 L 407 364.266314575 L 410 371.125877675 L 412 368.376654433 L 415 380.232786431 L 418 381.711429179 L 420 380.883963205 L 423 375.444279786 L 425 368.851542007 L 428 364.564912949 L 430 372.57753041 L 433 370.981361529 L 436 357.854649036 L 438 368.173375219 L 441 375.417289773 L 443 383.814258688 L 446 372.993654917 L 449 390.230707267 L 451 380.947509312 L 454 382.810503513 L 456 376.217765734 L 459 377.696408482 L 462 383.787268674 L 464 383.728505608 L 467 379.057525097 L 469 389.760602733 L 472 393.545354204 L 475 386.183913517 L 477 387.278204811 L 480 391.831659189 L 482 390.619841761 L 485 388.639321426 L 487 397.036290341 L 490 390.443552561 L 493 398.456170022 L 495 394.938243872 L 498 387.192451731 L 500 385.980634304 L 503 401.295929385 L 506 388.169216892 L 508 388.494805279 L 511 392.27955675 L 513 392.220793683 L 516 401.002114051 L 519 394.025024818 L 521 384.357475409 L 524 385.451766703 L 526 396.15484434 L 529 391.483863829 L 531 396.42166966 L 534 390.213283335 L 537 394.766737712 L 539 389.327054294 L 542 397.339671755 L 544 382.291201994 L 547 396.453442714 L 550 392.55116511 L 552 384.036670062 L 555 391.280584616 L 557 393.527930271 L 560 396.543978834 L 563 393.794755591 L 565 393.351641071 L 568 392.908526551 L 570 396.693278021 L 573 396.250163501 L 575 387.735668453 L 578 393.826528645 L 581 389.924251041 L 583 394.093353965 L 586 393.650239445 L 588 390.132313295 L 591 394.301416219 L 594 397.701816235 L 596 393.030835724 L 599 387.97550376 L 601 395.603769767 L 604 393.623249432 L 607 395.486243634 L 609 396.964886382 L 612 392.678257324 L 614 396.847360248 L 617 391.40767683 L 620 391.733265217"/>
		</g>
		<text class="x-axis-label" x="40.0" y="540">
			0
		</text>
		<path class="x-notch" d="M 52.9464285714 525 L 52.9464285714 530"/>
		<text class="x-axis-label" x="65.8928571429" y="540">
			10
		</text>
		<path class="x-notch" d="M 78.8392857143 525 L 78.8392857143 530"/>
		<text class="x-axis-label" x="91.7857142857" y="540">
			20
		</text>
		<path class="x-notch" d="M 104.732142857 525 L 104.732142857 530"/>
		<text class="x-axis-label" x="117.678571429" y="540">
			30
		</text>
		<path class="x-notch" d="M 130.625 525 L 130.625 530"/>
		<text class="x-axis-label" x="143.571428571" y="540">
			40
		</text>
		<path class="x-notch" d="M 156.517857143 525 L 156.517857143 530"/>
		<text class="x-axis-label" x="169.464285714" y="540">
			50
		</text>
		<path class="x-notch" d="M 182.410714286 525 L 182.410714286 530"/>
		<text class="x-axis-label" x="195.357142857" y="540">
			60
		</text>
		<path class="x-notch" d="M 208.303571429 525 L 208.303571429 530"/>
		<text class="x-axis-label" x="221.25" y="540">
			70
		</text>
		<path class="x-notch" d="M 234.196428571 525 L 234.196428571 530"/>
		<text class="x-axis-label" x="247.142857143" y="540">
			80
		</text>
		<path class="x-notch" d="M 260.089285714 525 L 260.089285714 530"/>
		<text class="x-axis-label" x="273.035714286" y="540">
			90
		</text>
		<path class="x-notch" d="M 285.982142857 525 L 285.982142857 530"/>
		<text class="x-axis-label" x="298.928571429" y="540">
			100
		</text>
		<path class="x-notch" d="M 311.875 525 L 311.875 530"/>
		<text class="x-axis-label" x="324.821428571" y="540">
			110
		</text>
		<path class="x-notch" d="M 337.767857143 525 L 337.767857143 530"/>
		<text class="x-axis-label" x="350.714285714" y="540">
			120
		</text>
		<path class="x-notch" d="M 363.660714286 525 L 363.660714286 530"/>
		<text class="x-axis-label" x="376.607142857" y="540">
			130
		</text>
		<path class="x-notch" d="M 389.553571429 525 L 389.553571429 530"/>
		<text class="x-axis-label" x="402.5" y="540">
			140
		</text>
		<path class="x-notch" d="M 415.446428571 525 L 415.446428571 530"/>
		<text class="x-axis-label" x="428.392857143" y="540">
			150
		</text>
		<path class="x-notch" d="M 441.339285714 525 L 441.339285714 530"/>
		<text class="x-axis-label" x="454.285714286" y="540">
			160
		</text>
		<path class="x-notch" d="M 467.232142857 525 L 467.232142857 530"/>
		<text class="x-axis-label" x="480.178571429" y="540">
			170
		</text>
		<path class="x-notch" d="M 493.125 525 L 493.125 530"/>
		<text class="x-axis-label" x="506.071428571" y="540">
			180
		</text>
		<path class="x-notch" d="M 519.017857143 525 L 519.017857143 530"/>
		<text class="x-axis-label" x="531.964285714" y="540">
			190
		</text>
		<path class="x-notch" d="M 544.910714286 525 L 544.910714286 530"/>
		<text class="x-axis-label" x="557.857142857" y="540">
			200
		</text>
		<path class="x-notch" d="M 570.803571429 525 L 570.803571429 530"/>
		<text class="x-axis-label" x="583.75" y="540">
			210
		</text>
		<path class="x-notch" d="M 596.696428571 525 L 596.696428571 530"/>
		<text class="x-axis-label" x="609.642857143" y="540">
			220
		</text>
		<path class="x-notch" d="M 622.589285714 525 L 622.589285714 530"/>
	</g>
</svg>
