<?xml version="1.0" ?>
<svg height="600" version="1.1" width="800" xmlns="http://www.w3.org/2000/svg" xmlns:svg="http://www.w3.org/2000/svg">
	<style type="text/css">
		

.x-axis-path, .y-gridline, .x-notch { fill:none; stroke: #a7a9ac; stroke-width:1; }



.y-gridline { stroke-width: 1; }

.y-axis-path, .y-axis-path2, .x-notch-left, .x-notch-right { display: none;}



.x-axis-label, .data-point-label {font-size: 12px; font-weight:normal; font-family: sans-serif; fill: #58595b; text-anchor:middle;}

.y-axis-label {font-size: 12px; font-family: helvetica; fill: #a7a9ac; text-anchor:end;}



.series-1-line { fill: none; stroke: #10b80c; stroke-width:2; }



.series-2-line { fill: none; stroke: #e90f0a; stroke-width: 2;}

	</style>
	<rect fill="white" height="600" width="800" x="0" y="0"/>
	<g id="grid" transform="translate(70, 30)">
		<g class="x-axis" id="x_axis">
			<path class="x-axis-path" d="M 0 525 L 660 525"/>
			<path class="x-notch-left" d="M 0 525, L 0 535"/>
			<path class="x-notch-right" d="M 660 525, L 660 535"/>
		</g>
		<g class="y-axis" id="y_axis">
			<path class="y-axis-path" d="M 0 525 L 0 0"/>
			<path class="y-axis-path-2" d="M 660 525 L 660 0"/>
			<path class="y-gridline" d="M 0 525 L 660 525"/>
			<text class="y-axis-label" x="-5" y="525">
				-200
			</text>
			<path class="y-gridline" d="M 0 394 L 660 394"/>
			<text class="y-axis-label" x="-5" y="394">
				 0
			</text>
			<path class="y-gridline" d="M 0 263 L 660 263"/>
			<text class="y-axis-label" x="-5" y="263">
				200
			</text>
			<path class="y-gridline" d="M 0 132 L 660 132"/>
			<text class="y-axis-label" x="-5" y="132">
				400
			</text>
			<path class="y-gridline" d="M 0 1 L 660 1"/>
			<text class="y-axis-label" x="-5" y="1">
				600
			</text>
		</g>
		<g>
			<path class="series-1-line" d="M 40 414.102156845 L 43 392.59752801 L 46 384.06994218 L 49 392.053365491 L 52 384.881341875 L 56 389.863994773 L 59 402.767122844 L 62 387.355039274 L 65 385.041892384 L 69 372.752235294 L 72 372.205952668 L 75 369.375054671 L 78 353.901905459 L 81 375.075507499 L 85 366.04537757 L 88 366.215012376 L 91 368.45612683 L 94 366.38676729 L 98 366.266993722 L 101 341.472186099 L 104 363.483599247 L 107 335.399088056 L 110 358.232867693 L 114 352.7516733 L 117 349.326751546 L 120 358.010647672 L 123 354.539867283 L 127 358.395538309 L 130 367.643044176 L 133 343.77752732 L 136 324.892543256 L 139 332.632179217 L 143 314.34145652 L 146 349.192811988 L 149 309.395340349 L 152 268.196447861 L 156 291.471943564 L 159 268.581338499 L 162 247.853455129 L 165 241.763029971 L 168 263.622135426 L 172 222.194900206 L 175 247.709390256 L 178 191.553217166 L 181 193.87060427 L 185 222.172491399 L 188 181.217386261 L 191 140.277488132 L 194 168.183517828 L 197 149.81652248 L 201 173.533734249 L 204 185.873252578 L 207 160.956788891 L 210 112.00517354 L 214 118.69386267 L 217 140.598589151 L 220 92.2714115741 L 223 115.912588302 L 226 119.950743426 L 230 122.527124888 L 233 95.4477018951 L 236 79.9595832849 L 239 132.981887883 L 243 83.5277284336 L 246 39.8919128836 L 249 75.8854572326 L 252 44.7852062304 L 255 51.9156114261 L 259 80.3393922297 L 262 22.9343435926 L 265 28.6329139235 L 268 0.0 L 272 32.2466800968 L 275 0.460925678474 L 278 82.9867270399 L 281 88.0760666052 L 284 104.908780635 L 288 54.1750940129 L 291 65.509286535 L 294 85.860522085 L 297 85.7863695415 L 301 26.1268819403 L 304 77.6567612499 L 307 57.2793518973 L 310 41.7603440517 L 313 16.3413362653 L 317 76.263820829 L 320 38.8269996018 L 323 133.157003461 L 326 141.505870188 L 330 100.413664367 L 333 107.89430597 L 336 121.254357114 L 339 112.010853852 L 342 156.305761405 L 346 171.554332879 L 349 76.5126518017 L 352 168.542595672 L 355 146.337494023 L 359 192.810330281 L 362 171.640968455 L 365 177.705219811 L 368 235.967051558 L 371 190.442715679 L 375 191.526196634 L 378 197.34666064 L 381 205.025230959 L 384 187.89190415 L 388 199.972428121 L 391 162.855666894 L 394 203.175129854 L 397 200.633640232 L 400 183.469899407 L 404 209.091313732 L 407 284.321077696 L 410 298.473081314 L 413 211.062229423 L 417 255.494237661 L 420 236.974934621 L 423 241.850900853 L 426 301.514391058 L 429 315.574915017 L 433 343.419879072 L 436 289.822760329 L 439 321.171038895 L 442 316.207595609 L 446 255.421363745 L 449 329.295565494 L 452 324.1494005 L 455 367.241053531 L 458 349.468081941 L 462 356.521976876 L 465 365.419483946 L 468 384.628293005 L 471 395.231361087 L 475 400.305493644 L 478 385.91394289 L 481 393.577306201 L 484 380.860902443 L 487 362.996688803 L 491 388.953132528 L 494 373.982765025 L 497 379.331098948 L 500 380.582094603 L 504 410.132857279 L 507 415.740185561 L 510 392.270763746 L 513 394.527085207 L 516 413.583586576 L 520 398.658840097 L 523 401.493978308 L 526 399.637754492 L 529 399.685495624 L 533 394.051993539 L 536 409.81855373 L 539 424.625409137 L 542 392.687347028 L 545 397.532899243 L 549 409.430701506 L 552 400.446192602 L 555 405.215709776 L 558 405.933509706 L 562 390.338704429 L 565 406.562187693 L 568 397.501643748 L 571 396.696366763 L 574 394.520320557 L 578 394.948949721 L 581 410.289000854 L 584 397.69472838 L 587 406.393831515 L 591 401.99399797 L 594 393.420791115 L 597 399.682971187 L 600 385.337041457 L 603 401.545317714 L 607 397.891815617 L 610 395.136952661 L 613 392.641084064 L 616 401.919003947 L 620 382.729642109"/>
			<path class="series-2-line" d="M 40 392.680757237 L 43 395.037160871 L 46 388.483208144 L 49 400.938015655 L 52 391.413944141 L 56 385.454015171 L 59 394.938703895 L 62 396.701083772 L 65 393.711273589 L 69 394.879629709 L 72 394.265914556 L 75 402.562555765 L 78 390.662389221 L 81 384.108436494 L 85 386.464840129 L 88 390.009291278 L 91 394.741789942 L 94 400.068312363 L 98 402.424715998 L 101 385.178335638 L 104 386.940715515 L 107 396.425404238 L 110 385.713285209 L 114 390.445783873 L 117 398.742425082 L 120 394.564567384 L 123 386.822567143 L 127 394.525184594 L 130 395.099516956 L 133 395.079825561 L 136 382.58563526 L 139 386.724110167 L 143 397.396846405 L 146 388.466798648 L 149 394.981368584 L 152 388.427415858 L 156 378.309320587 L 159 388.388033067 L 162 385.398222885 L 165 392.506816578 L 168 394.863220213 L 172 400.783766392 L 175 388.883599848 L 178 375.79538579 L 181 391.814335845 L 185 385.260383118 L 188 387.022762995 L 191 386.409047842 L 194 395.299712808 L 197 394.685997655 L 201 385.161926142 L 204 389.894424806 L 207 391.656804682 L 210 389.855042015 L 214 395.775588194 L 217 391.003706739 L 220 384.449754013 L 223 386.806157647 L 226 365.995634742 L 230 387.954822371 L 233 379.618798372 L 236 393.261653397 L 239 376.015273037 L 243 383.123866731 L 246 386.074294123 L 249 361.105604916 L 252 377.718578728 L 255 384.233148665 L 259 381.83736224 L 262 378.2535283 L 265 376.451765632 L 268 378.808169267 L 272 359.185693877 L 275 366.888311328 L 278 380.531166353 L 281 381.105498715 L 284 379.897759805 L 288 378.095997138 L 291 377.482281985 L 294 383.402828164 L 297 378.630946709 L 301 356.038352533 L 304 363.146946226 L 307 375.007729979 L 310 347.068921986 L 313 357.741658224 L 317 376.136703308 L 320 361.860441735 L 323 364.216845369 L 326 365.979225246 L 330 365.959533851 L 333 364.157771184 L 336 371.860388635 L 339 361.148269606 L 342 361.722601968 L 346 352.792554212 L 349 359.307124148 L 352 349.783052634 L 355 368.772121476 L 359 353.901836146 L 362 373.484928745 L 365 384.157664983 L 368 360.377023291 L 371 379.96011589 L 375 379.940424495 L 378 382.296828129 L 381 372.772756616 L 384 365.030756374 L 388 363.823017464 L 391 369.149539885 L 394 364.377658431 L 397 373.862347154 L 400 370.872536972 L 404 388.673558299 L 407 382.119605572 L 410 382.099914177 L 413 379.704127752 L 417 382.060531386 L 420 382.040839991 L 423 369.54664969 L 426 382.0014572 L 429 373.071409444 L 433 368.299527989 L 436 373.032026653 L 439 377.764525317 L 442 371.210572591 L 446 385.447451373 L 449 381.863617433 L 452 380.655878523 L 455 383.606305915 L 458 382.992590762 L 462 355.053782769 L 465 387.111374274 L 468 385.903635364 L 471 383.507848939 L 475 386.45827633 L 478 391.190774994 L 481 384.04279851 L 484 359.074109304 L 487 372.716964329 L 491 384.577748082 L 494 386.934151716 L 497 393.448721652 L 500 390.45891147 L 504 374.400578625 L 507 386.855386135 L 510 394.558003586 L 513 396.91440722 L 516 396.300692068 L 520 391.528810613 L 523 396.261309277 L 526 391.489427823 L 529 390.87571267 L 533 396.202235091 L 536 399.152662483 L 539 389.628590969 L 542 397.925232178 L 545 390.183231936 L 549 394.321706843 L 552 389.549825388 L 555 393.688300295 L 558 381.194109994 L 562 388.302703688 L 565 389.471059807 L 568 396.579653501 L 571 390.025700774 L 574 388.817961864 L 578 398.302650587 L 581 398.282959192 L 584 400.639362826 L 587 394.085410099 L 591 392.283647432 L 594 392.857979794 L 597 395.808407186 L 600 393.412620761 L 603 396.95707191 L 607 394.561285485 L 610 390.977451546 L 613 393.33385518 L 616 389.155997483 L 620 401.016781236"/>
		</g>
		<text class="x-axis-label" x="40.0" y="540">
			0
		</text>
		<path class="x-notch" d="M 56.1111111111 525 L 56.1111111111 530"/>
		<text class="x-axis-label" x="72.2222222222" y="540">
			10
		</text>
		<path class="x-notch" d="M 88.3333333333 525 L 88.3333333333 530"/>
		<text class="x-axis-label" x="104.444444444" y="540">
			20
		</text>
		<path class="x-notch" d="M 120.555555556 525 L 120.555555556 530"/>
		<text class="x-axis-label" x="136.666666667" y="540">
			30
		</text>
		<path class="x-notch" d="M 152.777777778 525 L 152.777777778 530"/>
		<text class="x-axis-label" x="168.888888889" y="540">
			40
		</text>
		<path class="x-notch" d="M 185.0 525 L 185.0 530"/>
		<text class="x-axis-label" x="201.111111111" y="540">
			50
		</text>
		<path class="x-notch" d="M 217.222222222 525 L 217.222222222 530"/>
		<text class="x-axis-label" x="233.333333333" y="540">
			60
		</text>
		<path class="x-notch" d="M 249.444444444 525 L 249.444444444 530"/>
		<text class="x-axis-label" x="265.555555556" y="540">
			70
		</text>
		<path class="x-notch" d="M 281.666666667 525 L 281.666666667 530"/>
		<text class="x-axis-label" x="297.777777778" y="540">
			80
		</text>
		<path class="x-notch" d="M 313.888888889 525 L 313.888888889 530"/>
		<text class="x-axis-label" x="330.0" y="540">
			90
		</text>
		<path class="x-notch" d="M 346.111111111 525 L 346.111111111 530"/>
		<text class="x-axis-label" x="362.222222222" y="540">
			100
		</text>
		<path class="x-notch" d="M 378.333333333 525 L 378.333333333 530"/>
		<text class="x-axis-label" x="394.444444444" y="540">
			110
		</text>
		<path class="x-notch" d="M 410.555555556 525 L 410.555555556 530"/>
		<text class="x-axis-label" x="426.666666667" y="540">
			120
		</text>
		<path class="x-notch" d="M 442.777777778 525 L 442.777777778 530"/>
		<text class="x-axis-label" x="458.888888889" y="540">
			130
		</text>
		<path class="x-notch" d="M 475.0 525 L 475.0 530"/>
		<text class="x-axis-label" x="491.111111111" y="540">
			140
		</text>
		<path class="x-notch" d="M 507.222222222 525 L 507.222222222 530"/>
		<text class="x-axis-label" x="523.333333333" y="540">
			150
		</text>
		<path class="x-notch" d="M 539.444444444 525 L 539.444444444 530"/>
		<text class="x-axis-label" x="555.555555556" y="540">
			160
		</text>
		<path class="x-notch" d="M 571.666666667 525 L 571.666666667 530"/>
		<text class="x-axis-label" x="587.777777778" y="540">
			170
		</text>
		<path class="x-notch" d="M 603.888888889 525 L 603.888888889 530"/>
		<text class="x-axis-label" x="620.0" y="540">
			180
		</text>
	</g>
</svg>
