<?xml version="1.0" ?>
<svg height="600" version="1.1" width="800" xmlns="http://www.w3.org/2000/svg" xmlns:svg="http://www.w3.org/2000/svg">
	<style type="text/css">
		

.x-axis-path, .y-gridline, .x-notch { fill:none; stroke: #a7a9ac; stroke-width:1; }



.y-gridline { stroke-width: 1; }

.y-axis-path, .y-axis-path2, .x-notch-left, .x-notch-right { display: none;}



.x-axis-label, .data-point-label {font-size: 12px; font-weight:normal; font-family: sans-serif; fill: #58595b; text-anchor:middle;}

.y-axis-label {font-size: 12px; font-family: helvetica; fill: #a7a9ac; text-anchor:end;}



.series-1-line { fill: none; stroke: #10b80c; stroke-width:2; }



.series-2-line { fill: none; stroke: #e90f0a; stroke-width: 2;}

	</style>
	<rect fill="white" height="600" width="800" x="0" y="0"/>
	<g id="grid" transform="translate(70, 30)">
		<g class="x-axis" id="x_axis">
			<path class="x-axis-path" d="M 0 525 L 660 525"/>
			<path class="x-notch-left" d="M 0 525, L 0 535"/>
			<path class="x-notch-right" d="M 660 525, L 660 535"/>
		</g>
		<g class="y-axis" id="y_axis">
			<path class="y-axis-path" d="M 0 525 L 0 0"/>
			<path class="y-axis-path-2" d="M 660 525 L 660 0"/>
			<path class="y-gridline" d="M 0 525 L 660 525"/>
			<text class="y-axis-label" x="-5" y="525">
				-250
			</text>
			<path class="y-gridline" d="M 0 438 L 660 438"/>
			<text class="y-axis-label" x="-5" y="438">
				 0
			</text>
			<path class="y-gridline" d="M 0 351 L 660 351"/>
			<text class="y-axis-label" x="-5" y="351">
				250
			</text>
			<path class="y-gridline" d="M 0 264 L 660 264"/>
			<text class="y-axis-label" x="-5" y="264">
				500
			</text>
			<path class="y-gridline" d="M 0 177 L 660 177"/>
			<text class="y-axis-label" x="-5" y="177">
				750
			</text>
			<path class="y-gridline" d="M 0 90 L 660 90"/>
			<text class="y-axis-label" x="-5" y="90">
				1000
			</text>
			<path class="y-gridline" d="M 0 3 L 660 3"/>
			<text class="y-axis-label" x="-5" y="3">
				1250
			</text>
		</g>
		<g>
			<path class="series-1-line" d="M 40 438.544596 L 43 436.682918994 L 47 444.872541987 L 51 432.178784981 L 55 433.296587974 L 58 422.855430968 L 62 427.706473961 L 66 427.298696955 L 70 427.833119948 L 73 392.407282942 L 77 379.004565935 L 81 410.285228929 L 85 398.192771923 L 88 386.611874916 L 92 390.43097791 L 96 391.979420903 L 100 375.408783897 L 104 362.20346689 L 107 383.989329884 L 111 370.766092877 L 115 349.932595871 L 119 356.740138865 L 122 355.892481858 L 126 373.370544852 L 130 342.037047845 L 134 339.654850839 L 137 319.898233832 L 141 304.987716826 L 145 295.506819819 L 149 285.397602813 L 152 330.768005806 L 156 346.2268488 L 160 310.442191794 L 164 307.332974787 L 168 293.346877781 L 171 272.253120774 L 175 265.697943768 L 179 314.290026761 L 183 287.946409755 L 186 260.184732748 L 190 291.375655742 L 194 295.858778735 L 198 224.921381729 L 201 210.172564723 L 205 173.517107716 L 209 230.76959071 L 213 202.029733703 L 217 207.536116697 L 220 189.94207969 L 224 133.040662684 L 228 156.037945677 L 232 194.803288671 L 235 160.885251665 L 239 182.581374658 L 243 187.970717652 L 247 172.477100645 L 250 152.971783639 L 254 130.217906632 L 258 156.589609626 L 262 190.086892619 L 265 178.963795613 L 269 183.599518606 L 273 181.6660216 L 277 179.499144594 L 281 201.311887587 L 284 207.383450581 L 288 215.914253574 L 292 190.979456568 L 296 166.349719561 L 299 199.640642555 L 303 184.828965548 L 307 198.071048542 L 311 228.876131535 L 314 243.643934529 L 318 196.174457523 L 322 215.187060516 L 326 137.78824351 L 330 160.435526503 L 333 167.790469497 L 337 163.62229249 L 341 179.251655484 L 345 180.710358477 L 348 163.520501471 L 352 140.407524465 L 356 150.320127458 L 360 135.005990452 L 363 127.643013445 L 367 67.7889964387 L 371 132.211859432 L 375 131.104082426 L 378 135.614225419 L 382 144.988388413 L 386 117.585671406 L 390 156.7008744 L 394 122.361017394 L 397 96.1609003871 L 401 147.948063381 L 405 100.415866374 L 409 145.113009368 L 412 158.642512361 L 416 145.697315355 L 420 158.625378348 L 424 161.798381342 L 427 204.969944335 L 431 228.487887329 L 435 246.298030323 L 439 194.960633316 L 442 162.28089631 L 446 153.805059303 L 450 187.463902297 L 454 163.05858529 L 458 162.417568284 L 461 336.713831277 L 465 421.777734271 L 469 391.278917265 L 473 385.423600258 L 476 384.396463252 L 480 376.934786245 L 484 399.600129239 L 488 386.493512232 L 491 394.117675226 L 495 403.043278219 L 499 421.670041213 L 503 431.250704206 L 507 436.0659072 L 510 441.940070194 L 514 429.722033187 L 518 437.050096181 L 522 440.635819174 L 525 444.122842168 L 529 448.902205161 L 533 444.572468155 L 537 437.586511148 L 540 436.963274142 L 544 436.205497135 L 548 448.218100129 L 552 435.829543123 L 555 439.146046116 L 559 440.73046911 L 563 434.399572103 L 567 436.190495097 L 571 440.51205809 L 574 441.863241084 L 578 443.510524077 L 582 432.225727071 L 586 441.330810065 L 589 436.103673058 L 593 428.300956052 L 597 430.405899045 L 601 438.416042039 L 604 429.805665032 L 608 442.778528026 L 612 442.074511019 L 616 437.296214013 L 620 438.431937006"/>
			<path class="series-2-line" d="M 40 435.61 L 43 436.618 L 47 439.376 L 51 437.584 L 55 437.892 L 58 439.6 L 62 430.808 L 66 437.066 L 70 432.824 L 73 428.232 L 77 427.84 L 81 431.998 L 85 431.956 L 88 434.014 L 92 436.072 L 96 423.78 L 100 426.188 L 104 422.296 L 107 433.454 L 111 432.362 L 115 430.92 L 119 430.878 L 122 423.836 L 126 424.494 L 130 423.052 L 134 423.36 L 137 417.718 L 141 406.826 L 145 408.884 L 149 399.742 L 152 403.55 L 156 405.258 L 160 415.716 L 164 406.574 L 168 401.632 L 171 399.84 L 175 409.598 L 179 402.206 L 183 414.064 L 186 415.072 L 190 419.58 L 194 413.588 L 198 406.896 L 201 411.754 L 205 394.212 L 209 400.82 L 213 404.278 L 217 416.136 L 220 387.044 L 224 388.402 L 228 388.01 L 232 398.468 L 235 404.376 L 239 415.884 L 243 391.342 L 247 403.2 L 250 399.308 L 254 410.816 L 258 416.374 L 262 415.982 L 265 428.54 L 269 426.048 L 273 424.606 L 277 418.614 L 281 425.572 L 284 417.48 L 288 435.288 L 292 432.096 L 296 422.254 L 299 426.762 L 303 427.77 L 307 420.378 L 311 430.486 L 314 430.794 L 318 421.302 L 322 414.61 L 326 419.468 L 330 419.076 L 333 415.534 L 337 407.792 L 341 410.2 L 345 398.258 L 348 401.716 L 352 400.974 L 356 394.282 L 360 405.44 L 363 404.698 L 367 402.556 L 371 396.214 L 375 402.472 L 378 405.93 L 382 401.338 L 386 400.946 L 390 397.754 L 394 401.212 L 397 404.32 L 401 417.228 L 405 417.536 L 409 403.494 L 412 419.552 L 416 402.36 L 420 403.018 L 424 410.326 L 427 402.234 L 431 416.192 L 435 419.65 L 439 412.958 L 442 403.116 L 446 398.524 L 450 400.232 L 454 396.34 L 458 411.698 L 461 436.856 L 465 431.914 L 469 436.772 L 473 432.88 L 476 426.538 L 480 427.546 L 484 438.004 L 488 432.362 L 491 427.77 L 495 438.578 L 499 437.486 L 503 441.644 L 507 438.452 L 510 433.86 L 514 439.768 L 518 440.426 L 522 437.934 L 525 437.192 L 529 439.6 L 533 429.758 L 537 438.466 L 540 437.374 L 544 443.632 L 548 436.94 L 552 442.148 L 555 440.706 L 559 436.464 L 563 438.522 L 567 443.03 L 571 434.938 L 574 439.796 L 578 439.404 L 582 436.212 L 586 446.32 L 589 439.978 L 593 439.586 L 597 436.044 L 601 439.502 L 604 442.26 L 608 435.918 L 612 433.776 L 616 439.334 L 620 436.842"/>
		</g>
		<text class="x-axis-label" x="40.0" y="540">
			0
		</text>
		<path class="x-notch" d="M 58.8311688312 525 L 58.8311688312 530"/>
		<text class="x-axis-label" x="77.6623376623" y="540">
			10
		</text>
		<path class="x-notch" d="M 96.4935064935 525 L 96.4935064935 530"/>
		<text class="x-axis-label" x="115.324675325" y="540">
			20
		</text>
		<path class="x-notch" d="M 134.155844156 525 L 134.155844156 530"/>
		<text class="x-axis-label" x="152.987012987" y="540">
			30
		</text>
		<path class="x-notch" d="M 171.818181818 525 L 171.818181818 530"/>
		<text class="x-axis-label" x="190.649350649" y="540">
			40
		</text>
		<path class="x-notch" d="M 209.480519481 525 L 209.480519481 530"/>
		<text class="x-axis-label" x="228.311688312" y="540">
			50
		</text>
		<path class="x-notch" d="M 247.142857143 525 L 247.142857143 530"/>
		<text class="x-axis-label" x="265.974025974" y="540">
			60
		</text>
		<path class="x-notch" d="M 284.805194805 525 L 284.805194805 530"/>
		<text class="x-axis-label" x="303.636363636" y="540">
			70
		</text>
		<path class="x-notch" d="M 322.467532468 525 L 322.467532468 530"/>
		<text class="x-axis-label" x="341.298701299" y="540">
			80
		</text>
		<path class="x-notch" d="M 360.12987013 525 L 360.12987013 530"/>
		<text class="x-axis-label" x="378.961038961" y="540">
			90
		</text>
		<path class="x-notch" d="M 397.792207792 525 L 397.792207792 530"/>
		<text class="x-axis-label" x="416.623376623" y="540">
			100
		</text>
		<path class="x-notch" d="M 435.454545455 525 L 435.454545455 530"/>
		<text class="x-axis-label" x="454.285714286" y="540">
			110
		</text>
		<path class="x-notch" d="M 473.116883117 525 L 473.116883117 530"/>
		<text class="x-axis-label" x="491.948051948" y="540">
			120
		</text>
		<path class="x-notch" d="M 510.779220779 525 L 510.779220779 530"/>
		<text class="x-axis-label" x="529.61038961" y="540">
			130
		</text>
		<path class="x-notch" d="M 548.441558442 525 L 548.441558442 530"/>
		<text class="x-axis-label" x="567.272727273" y="540">
			140
		</text>
		<path class="x-notch" d="M 586.103896104 525 L 586.103896104 530"/>
		<text class="x-axis-label" x="604.935064935" y="540">
			150
		</text>
		<path class="x-notch" d="M 623.766233766 525 L 623.766233766 530"/>
	</g>
</svg>
