<?xml version="1.0" ?>
<svg height="600" version="1.1" width="800" xmlns="http://www.w3.org/2000/svg" xmlns:svg="http://www.w3.org/2000/svg">
	<style type="text/css">
		

.x-axis-path, .y-gridline, .x-notch { fill:none; stroke: #a7a9ac; stroke-width:1; }



.y-gridline { stroke-width: 1; }

.y-axis-path, .y-axis-path2, .x-notch-left, .x-notch-right { display: none;}



.x-axis-label, .data-point-label {font-size: 12px; font-weight:normal; font-family: sans-serif; fill: #58595b; text-anchor:middle;}

.y-axis-label {font-size: 12px; font-family: helvetica; fill: #a7a9ac; text-anchor:end;}



.series-1-line { fill: none; stroke: #10b80c; stroke-width:2; }



.series-2-line { fill: none; stroke: #e90f0a; stroke-width: 2;}

	</style>
	<rect fill="white" height="600" width="800" x="0" y="0"/>
	<g id="grid" transform="translate(70, 30)">
		<g class="x-axis" id="x_axis">
			<path class="x-axis-path" d="M 0 525 L 660 525"/>
			<path class="x-notch-left" d="M 0 525, L 0 535"/>
			<path class="x-notch-right" d="M 660 525, L 660 535"/>
		</g>
		<g class="y-axis" id="y_axis">
			<path class="y-axis-path" d="M 0 525 L 0 0"/>
			<path class="y-axis-path-2" d="M 660 525 L 660 0"/>
			<path class="y-gridline" d="M 0 525 L 660 525"/>
			<text class="y-axis-label" x="-5" y="525">
				-100
			</text>
			<path class="y-gridline" d="M 0 438 L 660 438"/>
			<text class="y-axis-label" x="-5" y="438">
				 0
			</text>
			<path class="y-gridline" d="M 0 351 L 660 351"/>
			<text class="y-axis-label" x="-5" y="351">
				100
			</text>
			<path class="y-gridline" d="M 0 264 L 660 264"/>
			<text class="y-axis-label" x="-5" y="264">
				200
			</text>
			<path class="y-gridline" d="M 0 177 L 660 177"/>
			<text class="y-axis-label" x="-5" y="177">
				300
			</text>
			<path class="y-gridline" d="M 0 90 L 660 90"/>
			<text class="y-axis-label" x="-5" y="90">
				400
			</text>
			<path class="y-gridline" d="M 0 3 L 660 3"/>
			<text class="y-axis-label" x="-5" y="3">
				500
			</text>
		</g>
		<g>
			<path class="series-1-line" d="M 40 451.65708 L 48 465.262669565 L 57 425.85200913 L 65 407.778398696 L 74 426.499238261 L 82 421.326277826 L 91 398.249067391 L 99 486.924756957 L 108 457.386196522 L 116 434.040186087 L 125 425.770425652 L 133 363.565315217 L 142 403.286154783 L 150 394.545644348 L 159 397.606083913 L 167 390.683123478 L 176 384.141313043 L 185 395.301102609 L 193 351.470992174 L 202 338.624981739 L 210 360.060421304 L 219 280.06341087 L 227 235.178750435 L 236 213.04374 L 244 88.0402295652 L 253 146.78671913 L 261 343.559208696 L 270 144.450198261 L 278 88.9531878261 L 287 104.420777391 L 295 24.0198669565 L 304 156.378356522 L 312 159.484296087 L 321 152.471385652 L 330 114.878275217 L 338 148.429314783 L 347 169.887154348 L 355 151.544393913 L 364 164.678883478 L 372 205.656223043 L 381 216.120562609 L 389 246.867402174 L 398 189.911941739 L 406 238.517531304 L 415 248.17442087 L 423 227.587460435 L 432 150.1927 L 440 169.137889565 L 449 56.4291791304 L 457 147.932518696 L 466 178.432258261 L 475 153.582647826 L 483 282.756137391 L 492 247.496126957 L 500 311.380616522 L 509 337.550506087 L 517 434.550595652 L 526 443.062985217 L 534 416.777674783 L 543 438.460214348 L 551 433.399253913 L 560 442.921393478 L 568 409.905233043 L 577 457.972172609 L 585 453.696612174 L 594 438.965501739 L 602 451.090241304 L 611 418.94908087 L 620 440.474470435"/>
			<path class="series-2-line" d="M 40 440.3 L 48 440.898550725 L 57 419.622101449 L 65 448.220652174 L 74 435.694202899 L 82 465.167753623 L 91 455.266304348 L 99 415.614855072 L 108 424.088405797 L 116 456.186956522 L 125 422.660507246 L 133 442.509057971 L 142 429.982608696 L 150 435.83115942 L 159 409.304710145 L 167 438.77826087 L 176 442.876811594 L 185 415.475362319 L 193 435.323913043 L 202 467.422463768 L 210 440.896014493 L 219 437.994565217 L 227 451.718115942 L 236 431.316666667 L 244 419.665217391 L 253 408.013768116 L 261 431.362318841 L 270 445.960869565 L 278 443.05942029 L 287 426.157971014 L 295 418.006521739 L 304 388.855072464 L 312 423.578623188 L 321 432.927173913 L 330 435.275724638 L 338 429.749275362 L 347 399.722826087 L 355 436.196376812 L 364 442.044927536 L 372 438.268478261 L 381 416.992028986 L 389 439.46557971 L 398 425.189130435 L 406 425.787681159 L 415 428.136231884 L 423 405.109782609 L 432 371.583333333 L 440 358.181884058 L 449 339.530434783 L 457 370.753985507 L 466 363.477536232 L 475 357.076086957 L 483 415.424637681 L 492 395.023188406 L 500 400.87173913 L 509 420.720289855 L 517 447.56884058 L 526 423.667391304 L 534 436.515942029 L 543 439.739492754 L 551 451.713043478 L 560 440.936594203 L 568 445.910144928 L 577 428.133695652 L 585 454.107246377 L 594 438.955797101 L 602 431.679347826 L 611 436.652898551 L 620 430.251449275"/>
		</g>
		<text class="x-axis-label" x="40.0" y="540">
			0
		</text>
		<path class="x-notch" d="M 82.6470588235 525 L 82.6470588235 530"/>
		<text class="x-axis-label" x="125.294117647" y="540">
			10
		</text>
		<path class="x-notch" d="M 167.941176471 525 L 167.941176471 530"/>
		<text class="x-axis-label" x="210.588235294" y="540">
			20
		</text>
		<path class="x-notch" d="M 253.235294118 525 L 253.235294118 530"/>
		<text class="x-axis-label" x="295.882352941" y="540">
			30
		</text>
		<path class="x-notch" d="M 338.529411765 525 L 338.529411765 530"/>
		<text class="x-axis-label" x="381.176470588" y="540">
			40
		</text>
		<path class="x-notch" d="M 423.823529412 525 L 423.823529412 530"/>
		<text class="x-axis-label" x="466.470588235" y="540">
			50
		</text>
		<path class="x-notch" d="M 509.117647059 525 L 509.117647059 530"/>
		<text class="x-axis-label" x="551.764705882" y="540">
			60
		</text>
		<path class="x-notch" d="M 594.411764706 525 L 594.411764706 530"/>
	</g>
</svg>
