<?xml version="1.0" ?>
<svg height="600" version="1.1" width="800" xmlns="http://www.w3.org/2000/svg" xmlns:svg="http://www.w3.org/2000/svg">
	<style type="text/css">

.x-axis-path, .y-gridline, .x-notch { fill:none; stroke: #a7a9ac; stroke-width:1; }



.y-gridline { stroke-width: 1; }

.y-axis-path, .y-axis-path2, .x-notch-left, .x-notch-right { display: none;}



.x-axis-label, .data-point-label {font-size: 12px; font-weight:normal; font-family: sans-serif; fill: #58595b; text-anchor:middle;}

.y-axis-label {font-size: 12px; font-family: helvetica; fill: #a7a9ac; text-anchor:end;}



.series-1-line { fill: none; stroke: #10b80c; stroke-width:2; }



.series-2-line { fill: none; stroke: #e90f0a; stroke-width: 2;}
</style>
	<rect fill="white" height="600" width="800" x="0" y="0"/>
	<g id="grid" transform="translate(70, 30)">
		<g class="x-axis" id="x_axis">
			<path class="x-axis-path" d="M 0 525 L 660 525"/>
			<path class="x-notch-left" d="M 0 525, L 0 535"/>
			<path class="x-notch-right" d="M 660 525, L 660 535"/>
		</g>
		<g class="y-axis" id="y_axis">
			<path class="y-axis-path" d="M 0 525 L 0 0"/>
			<path class="y-axis-path-2" d="M 660 525 L 660 0"/>
			<path class="y-gridline" d="M 0 525 L 660 525"/>
			<text class="y-axis-label" x="-5" y="525">-200</text>
			<path class="y-gridline" d="M 0 394 L 660 394"/>
			<text class="y-axis-label" x="-5" y="394"> 0</text>
			<path class="y-gridline" d="M 0 263 L 660 263"/>
			<text class="y-axis-label" x="-5" y="263">200</text>
			<path class="y-gridline" d="M 0 132 L 660 132"/>
			<text class="y-axis-label" x="-5" y="132">400</text>
			<path class="y-gridline" d="M 0 1 L 660 1"/>
			<text class="y-axis-label" x="-5" y="1">600</text>
		</g>
		<g>
			<path class="series-1-line" d="M 40 378.661407885 L 45 436.300221741 L 50 376.863085542 L 55 330.893558052 L 60 436.189786981 L 65 408.587676999 L 70 400.519621422 L 75 423.989804398 L 80 388.370457127 L 85 272.855010876 L 90 377.303558655 L 95 330.80365143 L 101 382.567260691 L 106 367.436519002 L 111 229.502189328 L 116 362.3291962 L 121 351.715781106 L 126 403.988594617 L 131 407.522058099 L 136 387.937185405 L 141 379.105488886 L 146 331.078961511 L 151 321.059452608 L 157 308.30400482 L 162 320.639191151 L 167 248.370041673 L 172 277.90633948 L 177 224.895301364 L 182 239.372520388 L 187 159.97748921 L 192 210.998633014 L 197 246.664572108 L 202 164.554115794 L 207 186.05166996 L 212 103.941875381 L 218 175.663379622 L 223 159.111564344 L 228 187.1202494 L 233 181.491345046 L 238 184.388882232 L 243 212.270845243 L 248 171.900579304 L 253 208.668967106 L 258 184.269649289 L 263 121.587369954 L 268 154.771475987 L 274 225.602286374 L 279 163.174443731 L 284 141.998762697 L 289 140.314454232 L 294 128.237945444 L 299 137.413021447 L 304 113.650291659 L 309 77.3735117399 L 314 112.063393304 L 319 112.203485251 L 324 35.9894090185 L 330 83.4262710536 L 335 70.3525292506 L 340 103.939962106 L 345 76.8682318595 L 350 120.19043239 L 355 154.604701776 L 360 128.338963442 L 365 158.702428647 L 370 78.9037397781 L 375 101.207616723 L 380 161.242899965 L 385 81.1054033295 L 391 110.896137828 L 396 128.936463137 L 401 74.1016863413 L 406 103.362041104 L 411 0.0 L 416 49.6424211853 L 421 153.942078833 L 426 169.713318535 L 431 65.5237791659 L 436 121.423556284 L 441 174.438835252 L 447 202.659606029 L 452 339.876224849 L 457 298.169918128 L 462 327.472623862 L 467 203.197474866 L 472 284.52768647 L 477 259.767723668 L 482 385.4251744 L 487 397.102928083 L 492 406.38421238 L 497 422.516097068 L 502 402.358493668 L 508 385.955237654 L 513 414.409600505 L 518 414.8676556 L 523 419.588600598 L 528 403.673042483 L 533 368.35081374 L 538 404.440593409 L 543 397.454141922 L 548 406.565691469 L 553 397.819027758 L 558 423.706855606 L 564 406.49760768 L 569 423.09601478 L 574 403.829436101 L 579 407.956474908 L 584 398.59472952 L 589 421.683092026 L 594 379.425560951 L 599 408.495005479 L 604 388.783079873 L 609 404.342233855 L 614 397.313431397 L 620 384.579159094"/>
			<path class="series-2-line" d="M 40 373.236248528 L 45 389.47750057 L 50 410.681757 L 55 395.490647916 L 60 396.842886793 L 65 387.441949495 L 70 395.411527556 L 75 386.837757656 L 80 369.992313776 L 85 332.467684943 L 90 401.647650462 L 95 372.39469561 L 101 369.611097496 L 106 382.543679946 L 111 293.734672434 L 116 387.729659894 L 121 373.365718208 L 126 387.952635454 L 131 392.613543923 L 136 390.657113207 L 141 388.700682492 L 146 404.114767136 L 151 393.88666244 L 157 391.103064326 L 162 377.566290038 L 167 368.16535274 L 172 381.09793519 L 177 367.561160901 L 182 342.44404304 L 187 380.191647432 L 192 364.173370949 L 197 388.686296972 L 202 366.050681305 L 207 342.58789824 L 212 384.471339622 L 218 365.144393547 L 223 373.941139006 L 228 334.762175378 L 233 349.349092624 L 238 388.751031812 L 243 401.683614261 L 248 384.011002983 L 253 365.511224306 L 258 372.653634969 L 263 383.931882623 L 268 376.185280121 L 274 366.784342823 L 279 370.618083894 L 284 358.735644402 L 289 338.581530929 L 294 358.958619961 L 299 354.520687052 L 304 391.441124045 L 309 380.385851951 L 314 363.540408071 L 319 381.435994909 L 324 374.516559805 L 330 369.251459497 L 335 351.578848219 L 340 377.746109037 L 345 382.407017507 L 350 373.833247607 L 355 367.740979901 L 360 375.710557962 L 365 388.643140412 L 370 360.217352958 L 375 372.32276801 L 380 369.539169897 L 385 394.052095919 L 391 399.540171786 L 396 366.978547343 L 401 379.911129792 L 406 371.337359892 L 411 373.516766167 L 416 346.74531351 L 421 374.566909125 L 426 373.437645808 L 431 343.357523558 L 436 372.833453969 L 441 400.655049584 L 447 360.648918557 L 452 382.680342386 L 457 379.896744272 L 462 364.705635188 L 467 306.501821404 L 472 369.064447738 L 477 367.93518442 L 482 386.657938657 L 487 378.911336155 L 492 390.189583808 L 497 397.331994472 L 502 387.931057174 L 508 405.826644012 L 513 393.94420452 L 518 394.469275998 L 523 375.142329924 L 528 381.457573189 L 533 382.809812066 L 538 373.408874768 L 543 373.933946246 L 548 379.422022114 L 553 396.490441554 L 558 365.583151906 L 564 380.170069152 L 569 379.040805834 L 574 391.973388284 L 579 368.510605219 L 584 384.751857261 L 589 371.215082973 L 594 389.937837209 L 599 378.882565115 L 604 396.778151953 L 609 396.476056034 L 614 403.618466697 L 620 397.526198991"/>
		</g>
		<text class="x-axis-label" x="40.0" y="540">0</text>
		<path class="x-notch" d="M 65.4385964912 525 L 65.4385964912 530"/>
		<text class="x-axis-label" x="90.8771929825" y="540">10</text>
		<path class="x-notch" d="M 116.315789474 525 L 116.315789474 530"/>
		<text class="x-axis-label" x="141.754385965" y="540">20</text>
		<path class="x-notch" d="M 167.192982456 525 L 167.192982456 530"/>
		<text class="x-axis-label" x="192.631578947" y="540">30</text>
		<path class="x-notch" d="M 218.070175439 525 L 218.070175439 530"/>
		<text class="x-axis-label" x="243.50877193" y="540">40</text>
		<path class="x-notch" d="M 268.947368421 525 L 268.947368421 530"/>
		<text class="x-axis-label" x="294.385964912" y="540">50</text>
		<path class="x-notch" d="M 319.824561404 525 L 319.824561404 530"/>
		<text class="x-axis-label" x="345.263157895" y="540">60</text>
		<path class="x-notch" d="M 370.701754386 525 L 370.701754386 530"/>
		<text class="x-axis-label" x="396.140350877" y="540">70</text>
		<path class="x-notch" d="M 421.578947368 525 L 421.578947368 530"/>
		<text class="x-axis-label" x="447.01754386" y="540">80</text>
		<path class="x-notch" d="M 472.456140351 525 L 472.456140351 530"/>
		<text class="x-axis-label" x="497.894736842" y="540">90</text>
		<path class="x-notch" d="M 523.333333333 525 L 523.333333333 530"/>
		<text class="x-axis-label" x="548.771929825" y="540">100</text>
		<path class="x-notch" d="M 574.210526316 525 L 574.210526316 530"/>
		<text class="x-axis-label" x="599.649122807" y="540">110</text>
		<path class="x-notch" d="M 625.087719298 525 L 625.087719298 530"/>
	</g>
</svg>
