<?xml version="1.0" ?>
<svg height="600" version="1.1" width="800" xmlns="http://www.w3.org/2000/svg" xmlns:svg="http://www.w3.org/2000/svg">
	<style type="text/css">
		

.x-axis-path, .y-gridline, .x-notch { fill:none; stroke: #a7a9ac; stroke-width:1; }



.y-gridline { stroke-width: 1; }

.y-axis-path, .y-axis-path2, .x-notch-left, .x-notch-right { display: none;}



.x-axis-label, .data-point-label {font-size: 12px; font-weight:normal; font-family: sans-serif; fill: #58595b; text-anchor:middle;}

.y-axis-label {font-size: 12px; font-family: helvetica; fill: #a7a9ac; text-anchor:end;}



.series-1-line { fill: none; stroke: #10b80c; stroke-width:2; }



.series-2-line { fill: none; stroke: #e90f0a; stroke-width: 2;}

	</style>
	<rect fill="white" height="600" width="800" x="0" y="0"/>
	<g id="grid" transform="translate(70, 30)">
		<g class="x-axis" id="x_axis">
			<path class="x-axis-path" d="M 0 525 L 660 525"/>
			<path class="x-notch-left" d="M 0 525, L 0 535"/>
			<path class="x-notch-right" d="M 660 525, L 660 535"/>
		</g>
		<g class="y-axis" id="y_axis">
			<path class="y-axis-path" d="M 0 525 L 0 0"/>
			<path class="y-axis-path-2" d="M 660 525 L 660 0"/>
			<path class="y-gridline" d="M 0 525 L 660 525"/>
			<text class="y-axis-label" x="-5" y="525">
				-250
			</text>
			<path class="y-gridline" d="M 0 420 L 660 420"/>
			<text class="y-axis-label" x="-5" y="420">
				 0
			</text>
			<path class="y-gridline" d="M 0 315 L 660 315"/>
			<text class="y-axis-label" x="-5" y="315">
				250
			</text>
			<path class="y-gridline" d="M 0 210 L 660 210"/>
			<text class="y-axis-label" x="-5" y="210">
				500
			</text>
			<path class="y-gridline" d="M 0 105 L 660 105"/>
			<text class="y-axis-label" x="-5" y="105">
				750
			</text>
			<path class="y-gridline" d="M 0 0 L 660 0"/>
			<text class="y-axis-label" x="-5" y="0">
				1000
			</text>
		</g>
		<g>
			<path class="series-1-line" d="M 40 413.6030304 L 45 423.579347262 L 51 418.467752123 L 56 419.602396985 L 62 423.386401846 L 68 419.179486708 L 73 419.883379569 L 79 426.585712431 L 85 429.389605292 L 90 418.613554154 L 96 420.835831015 L 101 422.799723877 L 107 415.555872738 L 113 424.8213816 L 118 412.591458462 L 124 411.055239323 L 130 403.940748185 L 135 388.867761046 L 141 392.543909908 L 146 385.224794769 L 152 356.927183631 L 158 377.931020492 L 163 328.137977354 L 169 331.221758215 L 175 315.588827077 L 180 298.038847938 L 186 329.0796768 L 192 314.911201662 L 197 289.661278523 L 203 258.412915385 L 208 207.219760246 L 214 272.646829108 L 220 220.258353969 L 225 217.171494831 L 231 191.049147692 L 237 155.256048554 L 242 191.756877415 L 248 147.639210277 L 253 160.781655138 L 259 161.507052 L 265 168.672560862 L 270 100.194893723 L 276 99.1326025846 L 282 64.7181114462 L 287 111.611084308 L 293 113.251913169 L 299 97.6512380308 L 304 93.9503388923 L 310 89.1404717538 L 315 74.6166766154 L 321 82.5790094769 L 327 163.233766338 L 332 151.2405552 L 338 98.4645040615 L 344 137.130012923 L 349 121.389225785 L 355 123.105486646 L 360 83.9955635077 L 366 161.290320369 L 372 165.407973231 L 377 200.939610092 L 383 229.320326954 L 389 220.762715815 L 394 226.312736677 L 400 281.142701538 L 406 264.4542264 L 411 171.961295262 L 417 287.023796123 L 422 245.199832985 L 428 268.034533846 L 434 275.404666708 L 439 313.488559569 L 445 254.196964431 L 451 298.763977292 L 456 383.338846154 L 462 360.081067015 L 467 362.475711877 L 473 383.985732738 L 479 386.7787056 L 484 415.245942462 L 490 397.879083323 L 496 408.016848185 L 501 413.609877046 L 507 429.240065908 L 513 412.917830769 L 518 425.338547631 L 524 403.416368492 L 529 408.191069354 L 535 431.887274215 L 541 433.323311077 L 546 419.575003938 L 552 426.5251368 L 558 420.939781662 L 563 442.805122523 L 569 418.718263385 L 574 425.399092246 L 580 423.184489108 L 586 412.623813969 L 591 431.290770831 L 597 422.226975692 L 603 405.667860554 L 608 423.710193415 L 614 439.070910277 L 620 411.365667138"/>
			<path class="series-2-line" d="M 40 415.464 L 45 426.742615385 L 51 416.601230769 L 56 414.859846154 L 62 425.718461538 L 68 421.877076923 L 73 421.815692308 L 79 419.654307692 L 85 419.592923077 L 90 424.991538462 L 96 417.370153846 L 101 417.308769231 L 107 412.207384615 L 113 419.706 L 118 422.584615385 L 124 411.603230769 L 130 419.101846154 L 135 423.240461538 L 141 418.139076923 L 146 424.797692308 L 152 428.096307692 L 158 422.574923077 L 163 421.253538462 L 169 410.272153846 L 175 419.870769231 L 180 417.289384615 L 186 418.488 L 192 412.546615385 L 197 415.425230769 L 203 420.403846154 L 208 408.162461538 L 214 417.761076923 L 220 411.819692308 L 225 413.438307692 L 231 404.976923077 L 237 398.195538462 L 242 399.394153846 L 248 397.232769231 L 253 405.991384615 L 259 402.57 L 265 410.068615385 L 270 407.907230769 L 276 404.905846154 L 282 412.404461538 L 287 397.643076923 L 293 398.841692308 L 299 403.400307692 L 304 386.118923077 L 310 394.457538462 L 315 394.816153846 L 321 392.654769231 L 327 401.833384615 L 332 384.132 L 338 389.530615385 L 344 397.029230769 L 349 390.667846154 L 355 396.486461538 L 360 399.365076923 L 366 408.543692308 L 372 400.082307692 L 377 405.060923077 L 383 395.339538462 L 389 398.638153846 L 394 396.056769231 L 400 388.015384615 L 406 382.074 L 411 391.672615385 L 417 405.891230769 L 422 389.869846154 L 428 393.588461538 L 434 401.927076923 L 439 401.865692308 L 445 391.724307692 L 451 395.862923077 L 456 415.961538462 L 462 402.880153846 L 467 401.138769231 L 473 398.557384615 L 479 383.796 L 484 409.774615385 L 490 411.393230769 L 496 413.851846154 L 501 404.550461538 L 507 418.349076923 L 513 420.807692308 L 518 411.086307692 L 524 419.004923077 L 529 422.723538462 L 535 423.082153846 L 541 407.060769231 L 546 417.499384615 L 552 425.838 L 558 424.096615385 L 563 415.215230769 L 569 416.833846154 L 574 418.032461538 L 580 414.611076923 L 586 419.169692308 L 591 417.848307692 L 597 418.206923077 L 603 424.865538462 L 608 422.704153846 L 614 412.982769231 L 620 422.161384615"/>
		</g>
		<text class="x-axis-label" x="40.0" y="540">
			0
		</text>
		<path class="x-notch" d="M 68.1553398058 525 L 68.1553398058 530"/>
		<text class="x-axis-label" x="96.3106796117" y="540">
			10
		</text>
		<path class="x-notch" d="M 124.466019417 525 L 124.466019417 530"/>
		<text class="x-axis-label" x="152.621359223" y="540">
			20
		</text>
		<path class="x-notch" d="M 180.776699029 525 L 180.776699029 530"/>
		<text class="x-axis-label" x="208.932038835" y="540">
			30
		</text>
		<path class="x-notch" d="M 237.087378641 525 L 237.087378641 530"/>
		<text class="x-axis-label" x="265.242718447" y="540">
			40
		</text>
		<path class="x-notch" d="M 293.398058252 525 L 293.398058252 530"/>
		<text class="x-axis-label" x="321.553398058" y="540">
			50
		</text>
		<path class="x-notch" d="M 349.708737864 525 L 349.708737864 530"/>
		<text class="x-axis-label" x="377.86407767" y="540">
			60
		</text>
		<path class="x-notch" d="M 406.019417476 525 L 406.019417476 530"/>
		<text class="x-axis-label" x="434.174757282" y="540">
			70
		</text>
		<path class="x-notch" d="M 462.330097087 525 L 462.330097087 530"/>
		<text class="x-axis-label" x="490.485436893" y="540">
			80
		</text>
		<path class="x-notch" d="M 518.640776699 525 L 518.640776699 530"/>
		<text class="x-axis-label" x="546.796116505" y="540">
			90
		</text>
		<path class="x-notch" d="M 574.951456311 525 L 574.951456311 530"/>
		<text class="x-axis-label" x="603.106796117" y="540">
			100
		</text>
		<path class="x-notch" d="M 631.262135922 525 L 631.262135922 530"/>
	</g>
</svg>
