<?xml version="1.0" ?>
<svg height="600" version="1.1" width="800" xmlns="http://www.w3.org/2000/svg" xmlns:svg="http://www.w3.org/2000/svg">
	<style type="text/css">

.x-axis-path, .y-gridline, .x-notch { fill:none; stroke: #a7a9ac; stroke-width:1; }



.y-gridline { stroke-width: 1; }

.y-axis-path, .y-axis-path2, .x-notch-left, .x-notch-right { display: none;}



.x-axis-label, .data-point-label {font-size: 12px; font-weight:normal; font-family: sans-serif; fill: #58595b; text-anchor:middle;}

.y-axis-label {font-size: 12px; font-family: helvetica; fill: #a7a9ac; text-anchor:end;}



.series-1-line { fill: none; stroke: #10b80c; stroke-width:2; }



.series-2-line { fill: none; stroke: #e90f0a; stroke-width: 2;}
</style>
	<rect fill="white" height="600" width="800" x="0" y="0"/>
	<g id="grid" transform="translate(70, 30)">
		<g class="x-axis" id="x_axis">
			<path class="x-axis-path" d="M 0 525 L 660 525"/>
			<path class="x-notch-left" d="M 0 525, L 0 535"/>
			<path class="x-notch-right" d="M 660 525, L 660 535"/>
		</g>
		<g class="y-axis" id="y_axis">
			<path class="y-axis-path" d="M 0 525 L 0 0"/>
			<path class="y-axis-path-2" d="M 660 525 L 660 0"/>
			<path class="y-gridline" d="M 0 525 L 660 525"/>
			<text class="y-axis-label" x="-5" y="525">-200</text>
			<path class="y-gridline" d="M 0 394 L 660 394"/>
			<text class="y-axis-label" x="-5" y="394"> 0</text>
			<path class="y-gridline" d="M 0 263 L 660 263"/>
			<text class="y-axis-label" x="-5" y="263">200</text>
			<path class="y-gridline" d="M 0 132 L 660 132"/>
			<text class="y-axis-label" x="-5" y="132">400</text>
			<path class="y-gridline" d="M 0 1 L 660 1"/>
			<text class="y-axis-label" x="-5" y="1">600</text>
		</g>
		<g>
			<path class="series-1-line" d="M 40 384.555039633 L 47 399.102295585 L 55 387.129564998 L 63 391.787712908 L 70 403.854066893 L 78 398.066060824 L 86 364.499245378 L 94 391.794326481 L 101 409.614016943 L 109 403.214831068 L 117 410.390344173 L 125 394.335975891 L 132 399.281902819 L 140 374.848845613 L 148 372.495114691 L 156 396.715784664 L 163 403.369873601 L 171 392.889050032 L 179 398.914008035 L 186 415.780886289 L 194 367.092489518 L 202 326.782781672 L 210 0.0 L 217 43.8726671885 L 225 45.7624145996 L 233 87.6385797873 L 241 8.43887539551 L 248 8.80025256183 L 256 16.3533003239 L 264 67.633612615 L 272 170.210675175 L 279 178.842754013 L 287 80.6196223662 L 295 109.37070823 L 302 118.560113491 L 310 146.071449588 L 318 115.183559487 L 326 172.343146636 L 333 251.186854771 L 341 199.909849266 L 349 239.557550223 L 357 351.681807937 L 364 336.220668333 L 372 364.432939876 L 380 331.2433786 L 388 236.257059694 L 395 318.930248276 L 403 350.738355116 L 411 349.068169485 L 418 382.062733681 L 426 355.687588831 L 434 388.143058219 L 442 399.849548188 L 449 401.613357217 L 457 374.573179177 L 465 411.703234452 L 473 401.114704115 L 480 415.787898448 L 488 406.475861593 L 496 392.704932872 L 504 394.037073374 L 511 398.893244662 L 519 369.048202895 L 527 375.217050408 L 534 381.367666306 L 542 397.227598482 L 550 380.112430739 L 558 358.502188387 L 565 371.089686052 L 573 408.381581965 L 581 399.249336875 L 589 400.41963674 L 596 394.290278756 L 604 393.806269995 L 612 411.67981384 L 620 372.035980643"/>
			<path class="series-2-line" d="M 40 389.682947596 L 47 381.065372856 L 55 407.508594702 L 63 382.763053533 L 70 405.700195721 L 78 397.082620981 L 86 401.086933012 L 94 400.182733521 L 101 400.680965894 L 109 405.386493856 L 117 398.17135098 L 125 404.980526738 L 132 390.052008613 L 140 391.251456917 L 148 393.853337085 L 156 407.67467216 L 163 399.758313352 L 171 384.829795227 L 179 393.041402848 L 186 405.46030606 L 194 361.781934734 L 202 323.713290862 L 210 344.546785254 L 217 355.563256603 L 225 379.902830654 L 233 319.395276967 L 241 331.814180179 L 248 348.440378981 L 256 337.017940514 L 264 341.022252545 L 272 355.544803552 L 279 367.262490832 L 287 311.663448667 L 295 274.997236659 L 302 281.806412417 L 310 329.286112214 L 318 325.577048996 L 326 314.855826461 L 333 339.896616444 L 341 344.602144407 L 349 385.770900819 L 357 387.671565055 L 364 383.962501837 L 372 404.094780298 L 380 376.544375402 L 388 363.01828914 L 395 364.918953376 L 403 371.026913202 L 411 403.781078434 L 418 388.852560308 L 426 364.808235071 L 434 379.330786078 L 442 376.322938792 L 449 392.949137594 L 457 390.642506239 L 465 386.933443022 L 473 388.834107258 L 480 387.929907767 L 488 382.117196754 L 496 388.22515658 L 504 390.125820816 L 511 389.221621325 L 519 386.914989971 L 527 400.035109114 L 534 388.612670648 L 542 394.019414542 L 550 402.231022164 L 558 400.625606741 L 565 396.916543523 L 573 395.311128101 L 581 388.797201156 L 589 388.594217597 L 596 405.921632331 L 604 390.291898274 L 612 382.375539466 L 620 404.611465721"/>
		</g>
		<text class="x-axis-label" x="40.0" y="540">0</text>
		<path class="x-notch" d="M 78.6666666667 525 L 78.6666666667 530"/>
		<text class="x-axis-label" x="117.333333333" y="540">10</text>
		<path class="x-notch" d="M 156.0 525 L 156.0 530"/>
		<text class="x-axis-label" x="194.666666667" y="540">20</text>
		<path class="x-notch" d="M 233.333333333 525 L 233.333333333 530"/>
		<text class="x-axis-label" x="272.0" y="540">30</text>
		<path class="x-notch" d="M 310.666666667 525 L 310.666666667 530"/>
		<text class="x-axis-label" x="349.333333333" y="540">40</text>
		<path class="x-notch" d="M 388.0 525 L 388.0 530"/>
		<text class="x-axis-label" x="426.666666667" y="540">50</text>
		<path class="x-notch" d="M 465.333333333 525 L 465.333333333 530"/>
		<text class="x-axis-label" x="504.0" y="540">60</text>
		<path class="x-notch" d="M 542.666666667 525 L 542.666666667 530"/>
		<text class="x-axis-label" x="581.333333333" y="540">70</text>
		<path class="x-notch" d="M 620.0 525 L 620.0 530"/>
	</g>
</svg>
