<?xml version="1.0" ?>
<svg height="600" version="1.1" width="800" xmlns="http://www.w3.org/2000/svg" xmlns:svg="http://www.w3.org/2000/svg">
	<style type="text/css">
		

.x-axis-path, .y-gridline, .x-notch { fill:none; stroke: #a7a9ac; stroke-width:1; }



.y-gridline { stroke-width: 1; }

.y-axis-path, .y-axis-path2, .x-notch-left, .x-notch-right { display: none;}



.x-axis-label, .data-point-label {font-size: 12px; font-weight:normal; font-family: sans-serif; fill: #58595b; text-anchor:middle;}

.y-axis-label {font-size: 12px; font-family: helvetica; fill: #a7a9ac; text-anchor:end;}



.series-1-line { fill: none; stroke: #10b80c; stroke-width:2; }



.series-2-line { fill: none; stroke: #e90f0a; stroke-width: 2;}

	</style>
	<rect fill="white" height="600" width="800" x="0" y="0"/>
	<g id="grid" transform="translate(70, 30)">
		<g class="x-axis" id="x_axis">
			<path class="x-axis-path" d="M 0 525 L 660 525"/>
			<path class="x-notch-left" d="M 0 525, L 0 535"/>
			<path class="x-notch-right" d="M 660 525, L 660 535"/>
		</g>
		<g class="y-axis" id="y_axis">
			<path class="y-axis-path" d="M 0 525 L 0 0"/>
			<path class="y-axis-path-2" d="M 660 525 L 660 0"/>
			<path class="y-gridline" d="M 0 525 L 660 525"/>
			<text class="y-axis-label" x="-5" y="525">
				-200
			</text>
			<path class="y-gridline" d="M 0 394 L 660 394"/>
			<text class="y-axis-label" x="-5" y="394">
				 0
			</text>
			<path class="y-gridline" d="M 0 263 L 660 263"/>
			<text class="y-axis-label" x="-5" y="263">
				200
			</text>
			<path class="y-gridline" d="M 0 132 L 660 132"/>
			<text class="y-axis-label" x="-5" y="132">
				400
			</text>
			<path class="y-gridline" d="M 0 1 L 660 1"/>
			<text class="y-axis-label" x="-5" y="1">
				600
			</text>
		</g>
		<g>
			<path class="series-1-line" d="M 40 391.353735044 L 42 396.829978666 L 45 375.316887585 L 48 404.803235393 L 51 399.492993944 L 54 388.875097768 L 57 394.708461668 L 60 382.088270784 L 63 386.773281141 L 66 393.211933646 L 69 400.721462753 L 72 390.941528123 L 75 388.502533705 L 78 387.817665666 L 81 382.2437605 L 84 397.311649486 L 87 385.529662263 L 90 400.349140805 L 92 396.792783621 L 95 400.577608763 L 98 408.102633258 L 101 381.514318275 L 104 398.01020414 L 107 380.640918854 L 110 387.529663967 L 113 367.025225818 L 116 365.750322447 L 119 371.863087567 L 122 375.477221322 L 125 364.703887032 L 128 375.007186229 L 131 342.909292239 L 134 338.219834784 L 137 359.356105217 L 140 358.407089231 L 143 348.30150933 L 145 344.88461064 L 148 346.993270575 L 151 348.232736072 L 154 326.176337938 L 157 330.76813385 L 160 341.319601375 L 163 333.200336563 L 166 317.895085424 L 169 308.146383686 L 172 289.50429752 L 175 298.162422285 L 178 288.552936926 L 181 301.168922828 L 184 302.998181542 L 187 292.364547862 L 190 271.394521718 L 193 299.623564034 L 196 306.636514369 L 198 288.677435866 L 201 282.063644875 L 204 257.322186486 L 207 198.187745282 L 210 207.156262044 L 213 207.557765995 L 216 162.996737496 L 219 216.710367042 L 222 220.47945468 L 225 183.849401726 L 228 206.956733975 L 231 190.999708064 L 234 187.458846268 L 237 216.991922356 L 240 221.024915827 L 243 196.066279885 L 246 202.799829 L 249 142.454810584 L 251 161.915157925 L 254 173.863389436 L 257 170.167573757 L 260 131.830122703 L 263 112.986354373 L 266 126.750693818 L 269 115.791172753 L 272 145.696380276 L 275 109.50092454 L 278 155.764661925 L 281 114.33927052 L 284 153.261583462 L 287 110.082065677 L 290 121.859847917 L 293 122.369335355 L 296 84.343002645 L 299 126.881551834 L 302 118.870996857 L 304 63.151351851 L 307 39.5120029551 L 310 76.1218713076 L 313 39.7712195736 L 316 65.2842108575 L 319 39.3169219836 L 322 63.0605336149 L 325 24.8787627904 L 328 29.9826328625 L 331 60.0122877232 L 334 31.6236023104 L 337 79.3303477316 L 340 73.5857511789 L 343 60.8103642962 L 346 0.0 L 349 64.5306211629 L 352 61.765739359 L 355 41.6186636034 L 357 54.2031744974 L 360 85.3034638441 L 363 53.4225052911 L 366 57.1300956072 L 369 57.2052279419 L 372 125.367822855 L 375 111.381858761 L 378 125.19268437 L 381 125.997552648 L 384 130.573853171 L 387 195.306640729 L 390 132.6801685 L 393 173.868924098 L 396 153.87656011 L 399 130.578351872 L 402 174.902018217 L 405 158.40192737 L 408 191.876642859 L 410 201.062579289 L 413 195.209272903 L 416 185.134199549 L 419 181.966195533 L 422 198.586044505 L 425 185.96585362 L 428 172.849326079 L 431 182.686795165 L 434 237.843432747 L 437 220.753548681 L 440 240.120439462 L 443 207.5259667 L 446 215.703008082 L 449 220.65144004 L 452 274.908376638 L 455 323.903418328 L 458 301.769301137 L 461 344.649475215 L 463 340.736481984 L 466 314.116934108 L 469 331.06291258 L 472 338.619169968 L 475 319.170113032 L 478 326.617418471 L 481 345.286290431 L 484 373.655033357 L 487 372.364634597 L 490 375.264769913 L 493 399.210305823 L 496 404.143484508 L 499 393.680784331 L 502 395.541033822 L 505 400.924305114 L 508 385.945183476 L 511 379.967671867 L 514 387.539424643 L 516 381.142811204 L 519 393.603358992 L 522 393.088940224 L 525 394.607806942 L 528 395.040059554 L 531 388.193595623 L 534 387.198093472 L 537 377.899242226 L 540 385.005407006 L 543 388.355392814 L 546 381.772592599 L 549 401.310416882 L 552 385.431110028 L 555 396.882762768 L 558 386.047446924 L 561 385.548765661 L 564 392.359791717 L 567 384.318245963 L 569 392.464054452 L 572 388.73700588 L 575 404.037809922 L 578 379.529266588 L 581 406.594217857 L 584 378.919530884 L 587 389.03640119 L 590 364.093260637 L 593 391.375631573 L 596 396.883108088 L 599 380.770886179 L 602 388.342638955 L 605 388.914592177 L 608 390.914542278 L 611 391.11412195 L 614 389.839218579 L 617 399.025155009 L 620 399.286716234"/>
			<path class="series-2-line" d="M 40 399.318655174 L 42 379.868103237 L 45 392.497847409 L 48 404.522302976 L 51 391.729925703 L 54 404.359669876 L 57 400.041333085 L 60 394.512419082 L 63 404.115720226 L 66 399.797383435 L 69 393.663180826 L 72 393.581864276 L 75 381.394775609 L 78 402.498560264 L 81 407.25955256 L 84 402.335927163 L 87 407.702208066 L 90 394.304542187 L 92 391.196782608 L 95 399.58950654 L 98 391.034149508 L 101 392.768698775 L 104 401.161422707 L 107 404.711837792 L 110 400.998789607 L 113 397.891030028 L 116 392.967404631 L 119 392.280799475 L 122 403.699966436 L 125 393.328743586 L 128 399.905601701 L 131 411.324768662 L 134 396.111236965 L 137 388.766457145 L 140 380.211100113 L 143 407.367770826 L 145 382.469621437 L 148 392.678211186 L 151 396.833914877 L 154 399.779041356 L 157 400.303013412 L 160 391.74765638 L 163 392.271628435 L 166 380.689828374 L 169 399.372458605 L 172 389.001235756 L 175 392.551650841 L 178 365.837635634 L 181 389.362574712 L 184 395.939432826 L 187 387.384075794 L 190 386.092182032 L 193 381.773845241 L 196 382.297817297 L 198 383.427077959 L 201 385.161627226 L 204 382.053867647 L 207 361.998027104 L 210 364.337864977 L 213 381.204629391 L 216 353.885325578 L 219 387.094882349 L 222 374.302505076 L 225 360.904839197 L 228 352.954770771 L 231 348.63643398 L 234 343.107519978 L 237 371.474767902 L 240 364.735276688 L 243 371.917423408 L 246 368.809663829 L 249 348.753823286 L 251 366.831164911 L 254 352.828210427 L 257 371.510840658 L 260 341.165093815 L 263 338.662622842 L 266 348.265923985 L 269 343.342298589 L 272 337.20809598 L 275 326.836873131 L 278 341.887771727 L 281 368.439153834 L 284 348.383313291 L 287 341.643822076 L 290 354.273566249 L 293 306.979738443 L 296 346.242181273 L 299 328.607495153 L 302 335.789641873 L 304 349.629963258 L 307 363.470284642 L 310 350.072618763 L 313 340.30668452 L 316 334.777770517 L 319 357.697420989 L 322 344.905043716 L 325 361.166519524 L 328 352.611162492 L 331 374.320235752 L 334 373.633630597 L 337 352.367212842 L 340 360.154648168 L 343 355.231022771 L 346 360.597303673 L 349 335.093865678 L 352 326.538508646 L 355 362.169219841 L 357 343.32395651 L 360 339.610908324 L 363 317.133913358 L 366 361.238665035 L 369 334.524649827 L 372 332.62746746 L 375 327.703842063 L 378 330.043679936 L 381 331.172940598 L 384 334.118067077 L 387 347.958388461 L 390 329.718413736 L 393 357.480373055 L 396 345.293284388 L 399 329.474464086 L 402 340.288342441 L 405 349.891643584 L 408 329.835803041 L 410 345.491990243 L 413 346.621250905 L 416 321.723101515 L 419 352.511503863 L 422 341.534992408 L 425 336.006078405 L 428 360.741594695 L 431 345.528062999 L 434 342.420303419 L 437 349.602450139 L 440 334.994207049 L 443 353.071548674 L 446 360.858984 L 449 329.302659946 L 452 372.196834411 L 455 362.430900167 L 458 353.875543135 L 461 353.794226585 L 463 382.766763116 L 466 365.737365602 L 469 374.73537814 L 472 384.943967889 L 475 382.441496915 L 478 362.385656373 L 481 385.91059545 L 484 383.408124477 L 487 380.905653503 L 490 385.6666458 L 493 388.611772279 L 496 383.082858277 L 499 395.107313843 L 502 396.841863111 L 505 391.918237714 L 508 400.310961646 L 511 397.203202066 L 514 404.990637392 L 516 396.43528036 L 519 396.959252416 L 522 391.430338414 L 525 399.217773739 L 528 387.635973678 L 531 402.081583669 L 534 400.789689907 L 537 396.471353116 L 540 406.074654259 L 543 387.834679534 L 546 384.726919955 L 549 390.698489463 L 552 397.880636183 L 555 390.535856363 L 558 389.849251207 L 561 405.505438409 L 564 390.291906712 L 567 402.316362279 L 569 391.339850824 L 572 391.258534274 L 575 397.230103782 L 578 405.017539108 L 581 393.435739047 L 584 399.407308555 L 587 387.825508494 L 590 392.586500791 L 593 394.321050058 L 596 393.634444903 L 599 389.921396717 L 602 397.708832043 L 605 387.9428978 L 608 391.493312885 L 611 392.622573546 L 614 387.698948149 L 617 403.355135351 L 620 394.799778319"/>
		</g>
		<text class="x-axis-label" x="40.0" y="540">
			0
		</text>
		<path class="x-notch" d="M 54.7208121827 525 L 54.7208121827 530"/>
		<text class="x-axis-label" x="69.4416243655" y="540">
			10
		</text>
		<path class="x-notch" d="M 84.1624365482 525 L 84.1624365482 530"/>
		<text class="x-axis-label" x="98.883248731" y="540">
			20
		</text>
		<path class="x-notch" d="M 113.604060914 525 L 113.604060914 530"/>
		<text class="x-axis-label" x="128.324873096" y="540">
			30
		</text>
		<path class="x-notch" d="M 143.045685279 525 L 143.045685279 530"/>
		<text class="x-axis-label" x="157.766497462" y="540">
			40
		</text>
		<path class="x-notch" d="M 172.487309645 525 L 172.487309645 530"/>
		<text class="x-axis-label" x="187.208121827" y="540">
			50
		</text>
		<path class="x-notch" d="M 201.92893401 525 L 201.92893401 530"/>
		<text class="x-axis-label" x="216.649746193" y="540">
			60
		</text>
		<path class="x-notch" d="M 231.370558376 525 L 231.370558376 530"/>
		<text class="x-axis-label" x="246.091370558" y="540">
			70
		</text>
		<path class="x-notch" d="M 260.812182741 525 L 260.812182741 530"/>
		<text class="x-axis-label" x="275.532994924" y="540">
			80
		</text>
		<path class="x-notch" d="M 290.253807107 525 L 290.253807107 530"/>
		<text class="x-axis-label" x="304.974619289" y="540">
			90
		</text>
		<path class="x-notch" d="M 319.695431472 525 L 319.695431472 530"/>
		<text class="x-axis-label" x="334.416243655" y="540">
			100
		</text>
		<path class="x-notch" d="M 349.137055838 525 L 349.137055838 530"/>
		<text class="x-axis-label" x="363.85786802" y="540">
			110
		</text>
		<path class="x-notch" d="M 378.578680203 525 L 378.578680203 530"/>
		<text class="x-axis-label" x="393.299492386" y="540">
			120
		</text>
		<path class="x-notch" d="M 408.020304569 525 L 408.020304569 530"/>
		<text class="x-axis-label" x="422.741116751" y="540">
			130
		</text>
		<path class="x-notch" d="M 437.461928934 525 L 437.461928934 530"/>
		<text class="x-axis-label" x="452.182741117" y="540">
			140
		</text>
		<path class="x-notch" d="M 466.903553299 525 L 466.903553299 530"/>
		<text class="x-axis-label" x="481.624365482" y="540">
			150
		</text>
		<path class="x-notch" d="M 496.345177665 525 L 496.345177665 530"/>
		<text class="x-axis-label" x="511.065989848" y="540">
			160
		</text>
		<path class="x-notch" d="M 525.78680203 525 L 525.78680203 530"/>
		<text class="x-axis-label" x="540.507614213" y="540">
			170
		</text>
		<path class="x-notch" d="M 555.228426396 525 L 555.228426396 530"/>
		<text class="x-axis-label" x="569.949238579" y="540">
			180
		</text>
		<path class="x-notch" d="M 584.670050761 525 L 584.670050761 530"/>
		<text class="x-axis-label" x="599.390862944" y="540">
			190
		</text>
		<path class="x-notch" d="M 614.111675127 525 L 614.111675127 530"/>
	</g>
</svg>
