<?xml version="1.0" ?>
<svg height="600" version="1.1" width="800" xmlns="http://www.w3.org/2000/svg" xmlns:svg="http://www.w3.org/2000/svg">
	<style type="text/css">
		

.x-axis-path, .y-gridline, .x-notch { fill:none; stroke: #a7a9ac; stroke-width:1; }



.y-gridline { stroke-width: 1; }

.y-axis-path, .y-axis-path2, .x-notch-left, .x-notch-right { display: none;}



.x-axis-label, .data-point-label {font-size: 12px; font-weight:normal; font-family: sans-serif; fill: #58595b; text-anchor:middle;}

.y-axis-label {font-size: 12px; font-family: helvetica; fill: #a7a9ac; text-anchor:end;}



.series-1-line { fill: none; stroke: #10b80c; stroke-width:2; }



.series-2-line { fill: none; stroke: #e90f0a; stroke-width: 2;}

	</style>
	<rect fill="white" height="600" width="800" x="0" y="0"/>
	<g id="grid" transform="translate(70, 30)">
		<g class="x-axis" id="x_axis">
			<path class="x-axis-path" d="M 0 525 L 660 525"/>
			<path class="x-notch-left" d="M 0 525, L 0 535"/>
			<path class="x-notch-right" d="M 660 525, L 660 535"/>
		</g>
		<g class="y-axis" id="y_axis">
			<path class="y-axis-path" d="M 0 525 L 0 0"/>
			<path class="y-axis-path-2" d="M 660 525 L 660 0"/>
			<path class="y-gridline" d="M 0 525 L 660 525"/>
			<text class="y-axis-label" x="-5" y="525">
				-200
			</text>
			<path class="y-gridline" d="M 0 394 L 660 394"/>
			<text class="y-axis-label" x="-5" y="394">
				 0
			</text>
			<path class="y-gridline" d="M 0 263 L 660 263"/>
			<text class="y-axis-label" x="-5" y="263">
				200
			</text>
			<path class="y-gridline" d="M 0 132 L 660 132"/>
			<text class="y-axis-label" x="-5" y="132">
				400
			</text>
			<path class="y-gridline" d="M 0 1 L 660 1"/>
			<text class="y-axis-label" x="-5" y="1">
				600
			</text>
		</g>
		<g>
			<path class="series-1-line" d="M 40 408.717204535 L 42 382.518429008 L 45 399.367846947 L 48 392.221174041 L 51 384.737713895 L 54 395.503962791 L 56 392.434273068 L 59 403.653609833 L 62 396.260807643 L 65 392.181563844 L 68 390.043692533 L 71 394.545456473 L 73 395.242211099 L 76 392.379479961 L 79 390.500660227 L 82 384.505686612 L 85 401.963461837 L 88 390.661868174 L 90 407.692602025 L 93 401.930835402 L 96 404.141921142 L 99 396.671383289 L 102 385.227442501 L 105 404.13493738 L 107 375.23096075 L 110 394.410227587 L 113 373.841533234 L 116 384.879554087 L 119 385.783267298 L 122 373.045280095 L 124 350.159659137 L 127 381.414808015 L 130 371.006265888 L 133 360.753195089 L 136 358.654090655 L 139 320.677049629 L 141 344.826351184 L 144 324.47773962 L 147 320.942039735 L 150 322.363452277 L 153 315.281390832 L 156 293.586639862 L 158 302.295013728 L 161 285.104287315 L 164 281.581509722 L 167 262.876654106 L 170 243.045741872 L 172 257.94086503 L 175 258.068029245 L 178 252.254371542 L 181 247.02302463 L 184 238.335772204 L 187 228.872374604 L 189 213.364372925 L 192 171.012530264 L 195 202.151176602 L 198 144.177292249 L 201 180.933097469 L 204 145.350516801 L 206 114.647312895 L 209 107.319324078 L 212 112.520305171 L 215 100.972784135 L 218 123.154666706 L 221 93.0470997058 L 223 127.201485981 L 226 89.1206627954 L 229 87.5134131075 L 232 72.5750018394 L 235 71.2266018167 L 238 46.5550796969 L 240 44.6760580517 L 243 58.250886388 L 246 83.0733586016 L 249 59.9807790575 L 252 77.593621789 L 255 67.6125248582 L 257 56.7379725696 L 260 6.51705970311 L 263 52.9284420212 L 266 35.9707206892 L 269 58.6703025907 L 272 37.0793337799 L 274 71.0651245243 L 277 86.6719833059 L 280 83.459946458 L 283 52.7957113401 L 286 97.2269542925 L 288 47.7823885108 L 291 32.7662415788 L 294 47.3637481946 L 297 17.3724818241 L 300 30.7530719561 L 303 58.0994293609 L 305 17.4430318153 L 308 57.2662661409 L 311 66.5054635403 L 314 67.1374047941 L 317 0.0 L 320 85.4340798591 L 322 88.4608852932 L 325 92.6650326914 L 328 55.0245769939 L 331 73.1555228776 L 334 72.7260189754 L 337 130.423408226 L 339 95.8633039264 L 342 123.869909697 L 345 87.8730080363 L 348 103.803731766 L 351 106.092351259 L 354 124.960877351 L 356 147.039381585 L 359 116.97037955 L 362 138.401961531 L 365 145.41468837 L 368 164.296338665 L 371 188.78222555 L 373 154.726898289 L 376 186.499544587 L 379 176.854831074 L 382 195.80109283 L 385 180.655521065 L 388 218.343144698 L 390 189.491059147 L 393 168.508245712 L 396 235.162398729 L 399 207.682095257 L 402 228.246268376 L 404 207.910377193 L 407 195.146343495 L 410 197.771548318 L 413 240.830403459 L 416 243.520421653 L 419 233.655827262 L 421 208.945134444 L 424 260.533510067 L 427 260.311166661 L 430 260.153838538 L 433 270.376543519 L 436 269.986008404 L 438 266.320883686 L 441 273.941967812 L 444 301.689723918 L 447 311.265304735 L 450 301.762736437 L 453 299.197823752 L 455 306.327053131 L 458 326.658221169 L 461 304.303221833 L 464 323.404954917 L 467 321.953176557 L 470 312.567110799 L 472 322.052235571 L 475 347.081868281 L 478 333.062151223 L 481 353.030889347 L 484 354.478348384 L 487 356.236346255 L 489 347.316088748 L 492 356.477550483 L 495 350.625125903 L 498 357.404847662 L 501 351.151226292 L 504 375.14525843 L 506 364.957001003 L 509 371.490795388 L 512 349.304391583 L 515 364.160545953 L 518 364.339399338 L 520 357.619767806 L 523 359.753117883 L 526 358.624800649 L 529 359.865099189 L 532 365.661313366 L 535 353.531481539 L 537 357.049737897 L 540 386.285576712 L 543 394.670489452 L 546 383.899517411 L 549 378.991833537 L 552 376.155148894 L 554 372.580682133 L 557 376.991788117 L 560 371.230021493 L 563 389.192573757 L 566 370.966650594 L 569 376.24496353 L 571 394.091215164 L 574 383.087238043 L 577 387.79636439 L 580 360.859604833 L 583 373.813355502 L 586 376.477327201 L 588 383.671369952 L 591 375.074977392 L 594 362.893254485 L 597 367.925841959 L 600 392.45049572 L 603 390.325748612 L 605 381.703511468 L 608 390.644688504 L 611 394.421794528 L 614 396.335061816 L 617 395.465594247 L 620 393.664308266"/>
			<path class="series-2-line" d="M 40 385.774522796 L 42 398.73308051 L 45 389.481448541 L 48 402.944783293 L 51 390.159712056 L 54 384.946296393 L 56 392.352306686 L 59 395.215323635 L 62 387.982799819 L 65 395.388810113 L 68 395.223164832 L 71 382.942870633 L 73 393.377543156 L 76 388.164127493 L 79 406.675232628 L 82 397.928377697 L 85 392.210184996 L 88 384.472884142 L 90 386.326347014 L 93 400.294458805 L 96 410.729131328 L 99 395.924951938 L 102 390.711536275 L 105 395.088884338 L 107 396.942347211 L 110 398.291033045 L 113 399.134941841 L 116 390.892863949 L 119 388.708110515 L 122 408.228769726 L 124 396.453252566 L 127 403.859262859 L 130 394.60763089 L 133 400.499310069 L 136 394.276340329 L 139 394.110695049 L 141 387.887725309 L 144 393.779404488 L 147 395.128090322 L 150 390.924228735 L 153 394.292022723 L 156 393.621600404 L 158 394.4655092 L 161 380.166106848 L 164 379.495684529 L 167 384.88258667 L 170 388.755157695 L 172 389.094289453 L 175 389.938198249 L 178 392.29643816 L 181 382.540029152 L 184 360.668971227 L 187 381.199184515 L 189 380.023985158 L 192 373.29623838 L 195 379.187917559 L 198 388.108258967 L 201 383.90439738 L 204 384.243529138 L 206 371.458457901 L 209 373.816697812 L 212 390.308694794 L 215 381.561839863 L 218 367.262437511 L 221 379.716218187 L 223 387.627005518 L 226 364.241616478 L 229 360.037754892 L 232 368.453319262 L 235 363.239903598 L 238 374.17935316 L 240 373.004153803 L 243 362.742967757 L 246 369.644201012 L 249 370.488109808 L 252 340.54061927 L 255 363.089940711 L 257 347.780984283 L 260 367.806420533 L 263 373.193322673 L 266 361.922582551 L 269 345.604072046 L 272 368.153393487 L 274 343.253673332 L 277 330.973379134 L 280 340.903274618 L 283 341.747183414 L 286 360.763065587 L 288 358.073535116 L 291 358.917443912 L 294 366.323454205 L 297 360.605261504 L 300 341.258088769 L 303 348.159322024 L 305 332.850365596 L 308 322.589179551 L 311 339.081176533 L 314 339.925085329 L 317 360.960075655 L 320 322.431375467 L 322 363.152670285 L 325 357.939254622 L 328 364.335710839 L 331 371.741721132 L 334 360.975758048 L 337 338.095146046 L 339 336.415169651 L 342 358.459714054 L 345 344.66508874 L 348 360.652308684 L 351 358.972332289 L 354 349.72070032 L 356 351.574163192 L 359 338.284314917 L 362 362.347967473 L 365 352.086781427 L 368 360.502345797 L 371 360.841477555 L 373 359.161501159 L 376 344.862098808 L 379 354.287217254 L 382 352.607240859 L 385 353.955926693 L 388 342.180409533 L 390 355.643744285 L 393 362.040200502 L 396 359.35067003 L 399 355.651585482 L 402 357.505048354 L 404 341.691314888 L 407 345.563885913 L 410 350.446011015 L 413 327.565399013 L 416 342.038287842 L 419 366.101940398 L 421 343.726105434 L 424 328.921926044 L 427 325.222841496 L 430 350.800825166 L 433 351.644733962 L 436 354.507750911 L 438 356.361213784 L 441 349.633467006 L 444 372.687565485 L 447 376.055359473 L 450 363.270288236 L 453 370.676298529 L 455 361.929443598 L 458 360.754244241 L 461 344.940510775 L 464 358.403845527 L 467 369.343295088 L 470 358.072554966 L 472 375.574106024 L 475 389.542217815 L 478 372.718930272 L 481 369.019845724 L 484 380.464072323 L 487 382.822312234 L 489 357.922592079 L 492 366.842933487 L 495 375.258497857 L 498 361.968649582 L 501 373.917653219 L 504 372.237676824 L 506 387.720119729 L 509 373.420717378 L 512 390.417491398 L 515 377.127643123 L 518 369.895119307 L 520 375.786798485 L 523 378.649815434 L 526 378.484170154 L 529 382.861518218 L 532 385.219758128 L 535 388.587552116 L 537 391.955346103 L 540 379.675051904 L 543 391.624055542 L 546 379.848538381 L 549 378.673339024 L 552 389.108011547 L 554 396.514021841 L 557 378.681180221 L 560 392.649292012 L 563 386.93109931 L 566 396.356217757 L 569 381.047261329 L 571 393.501042004 L 574 378.696862615 L 577 393.169751443 L 580 383.413342436 L 583 391.324129768 L 586 390.148930411 L 588 390.992839207 L 591 394.360633194 L 594 386.118555301 L 597 389.486349289 L 600 383.768156587 L 603 401.269707646 L 605 408.675717939 L 608 392.861984473 L 611 395.220224383 L 614 393.03547095 L 617 391.860271593 L 620 398.25672781"/>
		</g>
		<text class="x-axis-label" x="40.0" y="540">
			0
		</text>
		<path class="x-notch" d="M 54.1463414634 525 L 54.1463414634 530"/>
		<text class="x-axis-label" x="68.2926829268" y="540">
			10
		</text>
		<path class="x-notch" d="M 82.4390243902 525 L 82.4390243902 530"/>
		<text class="x-axis-label" x="96.5853658537" y="540">
			20
		</text>
		<path class="x-notch" d="M 110.731707317 525 L 110.731707317 530"/>
		<text class="x-axis-label" x="124.87804878" y="540">
			30
		</text>
		<path class="x-notch" d="M 139.024390244 525 L 139.024390244 530"/>
		<text class="x-axis-label" x="153.170731707" y="540">
			40
		</text>
		<path class="x-notch" d="M 167.317073171 525 L 167.317073171 530"/>
		<text class="x-axis-label" x="181.463414634" y="540">
			50
		</text>
		<path class="x-notch" d="M 195.609756098 525 L 195.609756098 530"/>
		<text class="x-axis-label" x="209.756097561" y="540">
			60
		</text>
		<path class="x-notch" d="M 223.902439024 525 L 223.902439024 530"/>
		<text class="x-axis-label" x="238.048780488" y="540">
			70
		</text>
		<path class="x-notch" d="M 252.195121951 525 L 252.195121951 530"/>
		<text class="x-axis-label" x="266.341463415" y="540">
			80
		</text>
		<path class="x-notch" d="M 280.487804878 525 L 280.487804878 530"/>
		<text class="x-axis-label" x="294.634146341" y="540">
			90
		</text>
		<path class="x-notch" d="M 308.780487805 525 L 308.780487805 530"/>
		<text class="x-axis-label" x="322.926829268" y="540">
			100
		</text>
		<path class="x-notch" d="M 337.073170732 525 L 337.073170732 530"/>
		<text class="x-axis-label" x="351.219512195" y="540">
			110
		</text>
		<path class="x-notch" d="M 365.365853659 525 L 365.365853659 530"/>
		<text class="x-axis-label" x="379.512195122" y="540">
			120
		</text>
		<path class="x-notch" d="M 393.658536585 525 L 393.658536585 530"/>
		<text class="x-axis-label" x="407.804878049" y="540">
			130
		</text>
		<path class="x-notch" d="M 421.951219512 525 L 421.951219512 530"/>
		<text class="x-axis-label" x="436.097560976" y="540">
			140
		</text>
		<path class="x-notch" d="M 450.243902439 525 L 450.243902439 530"/>
		<text class="x-axis-label" x="464.390243902" y="540">
			150
		</text>
		<path class="x-notch" d="M 478.536585366 525 L 478.536585366 530"/>
		<text class="x-axis-label" x="492.682926829" y="540">
			160
		</text>
		<path class="x-notch" d="M 506.829268293 525 L 506.829268293 530"/>
		<text class="x-axis-label" x="520.975609756" y="540">
			170
		</text>
		<path class="x-notch" d="M 535.12195122 525 L 535.12195122 530"/>
		<text class="x-axis-label" x="549.268292683" y="540">
			180
		</text>
		<path class="x-notch" d="M 563.414634146 525 L 563.414634146 530"/>
		<text class="x-axis-label" x="577.56097561" y="540">
			190
		</text>
		<path class="x-notch" d="M 591.707317073 525 L 591.707317073 530"/>
		<text class="x-axis-label" x="605.853658537" y="540">
			200
		</text>
		<path class="x-notch" d="M 620.0 525 L 620.0 530"/>
	</g>
</svg>
