<?xml version="1.0" ?>
<svg height="600" version="1.1" width="800" xmlns="http://www.w3.org/2000/svg" xmlns:svg="http://www.w3.org/2000/svg">
	<style type="text/css">
		

.x-axis-path, .y-gridline, .x-notch { fill:none; stroke: #a7a9ac; stroke-width:1; }



.y-gridline { stroke-width: 1; }

.y-axis-path, .y-axis-path2, .x-notch-left, .x-notch-right { display: none;}



.x-axis-label, .data-point-label {font-size: 12px; font-weight:normal; font-family: sans-serif; fill: #58595b; text-anchor:middle;}

.y-axis-label {font-size: 12px; font-family: helvetica; fill: #a7a9ac; text-anchor:end;}



.series-1-line { fill: none; stroke: #10b80c; stroke-width:2; }



.series-2-line { fill: none; stroke: #e90f0a; stroke-width: 2;}

	</style>
	<rect fill="white" height="600" width="800" x="0" y="0"/>
	<g id="grid" transform="translate(70, 30)">
		<g class="x-axis" id="x_axis">
			<path class="x-axis-path" d="M 0 525 L 660 525"/>
			<path class="x-notch-left" d="M 0 525, L 0 535"/>
			<path class="x-notch-right" d="M 660 525, L 660 535"/>
		</g>
		<g class="y-axis" id="y_axis">
			<path class="y-axis-path" d="M 0 525 L 0 0"/>
			<path class="y-axis-path-2" d="M 660 525 L 660 0"/>
			<path class="y-gridline" d="M 0 525 L 660 525"/>
			<text class="y-axis-label" x="-5" y="525">
				-200
			</text>
			<path class="y-gridline" d="M 0 438 L 660 438"/>
			<text class="y-axis-label" x="-5" y="438">
				 0
			</text>
			<path class="y-gridline" d="M 0 351 L 660 351"/>
			<text class="y-axis-label" x="-5" y="351">
				200
			</text>
			<path class="y-gridline" d="M 0 264 L 660 264"/>
			<text class="y-axis-label" x="-5" y="264">
				400
			</text>
			<path class="y-gridline" d="M 0 177 L 660 177"/>
			<text class="y-axis-label" x="-5" y="177">
				600
			</text>
			<path class="y-gridline" d="M 0 90 L 660 90"/>
			<text class="y-axis-label" x="-5" y="90">
				800
			</text>
			<path class="y-gridline" d="M 0 3 L 660 3"/>
			<text class="y-axis-label" x="-5" y="3">
				1000
			</text>
		</g>
		<g>
			<path class="series-1-line" d="M 40 424.2987 L 48 441.42354806 L 57 456.001971119 L 66 433.134944179 L 75 424.290317239 L 83 400.794865299 L 92 423.596013358 L 101 384.081586418 L 110 369.504484478 L 119 399.406607537 L 127 369.326430597 L 136 377.589103657 L 145 381.824326716 L 154 387.652924776 L 163 366.838647836 L 171 384.053270896 L 180 359.694193955 L 189 320.482517015 L 198 322.048115075 L 206 280.873288134 L 215 270.603986194 L 224 300.046034254 L 233 269.360007313 L 242 267.515380373 L 250 266.399978433 L 259 261.605026493 L 268 263.327599552 L 277 222.455697612 L 286 272.965295672 L 294 250.513193731 L 303 250.115466791 L 312 266.959789851 L 321 231.87636291 L 330 198.03806097 L 338 198.11178403 L 347 141.10838209 L 356 206.638755149 L 365 193.733253209 L 373 231.992676269 L 382 228.139749328 L 391 81.6621723881 L 400 106.179720448 L 409 171.362193507 L 417 127.293216567 L 426 93.2977646269 L 435 100.416462687 L 444 236.115360746 L 453 317.698658806 L 461 291.006131866 L 470 323.365079925 L 479 359.100652985 L 488 424.563651045 L 496 429.595649104 L 505 429.433647164 L 514 434.297295224 L 523 438.835618284 L 532 446.290666343 L 540 451.457239403 L 549 442.231112463 L 558 454.038760522 L 567 446.428058582 L 576 443.685856642 L 584 439.294804701 L 593 448.645627761 L 602 439.464475821 L 611 444.025198881 L 620 428.59567194"/>
			<path class="series-2-line" d="M 40 435.75 L 48 432.129850746 L 57 433.322201493 L 66 440.639552239 L 75 444.456902985 L 83 430.336753731 L 92 428.466604478 L 101 439.283955224 L 110 433.03880597 L 119 432.481156716 L 127 438.923507463 L 136 435.740858209 L 145 412.433208955 L 154 430.688059701 L 163 424.880410448 L 171 424.322761194 L 180 425.51511194 L 189 423.207462687 L 198 423.962313433 L 206 420.779664179 L 215 425.034514925 L 224 410.914365672 L 233 409.481716418 L 242 413.299067164 L 250 422.80391791 L 259 426.183768657 L 268 419.501119403 L 277 420.255970149 L 286 429.760820896 L 294 423.515671642 L 303 406.333022388 L 312 395.275373134 L 321 397.342723881 L 330 392.847574627 L 338 404.539925373 L 347 396.544776119 L 356 400.362126866 L 365 406.366977612 L 373 398.809328358 L 382 374.626679104 L 391 384.569029851 L 400 387.948880597 L 409 377.766231343 L 417 382.45858209 L 426 368.338432836 L 435 390.093283582 L 444 418.848134328 L 453 426.602985075 L 461 416.420335821 L 470 425.050186567 L 479 435.867537313 L 488 433.12238806 L 496 439.127238806 L 505 436.382089552 L 514 434.511940299 L 523 432.204291045 L 532 435.584141791 L 540 437.651492537 L 549 432.718843284 L 558 439.59869403 L 567 438.603544776 L 576 428.858395522 L 584 437.488246269 L 593 435.180597015 L 602 440.310447761 L 611 434.502798507 L 620 441.820149254"/>
		</g>
		<text class="x-axis-label" x="40.0" y="540">
			0
		</text>
		<path class="x-notch" d="M 83.9393939394 525 L 83.9393939394 530"/>
		<text class="x-axis-label" x="127.878787879" y="540">
			10
		</text>
		<path class="x-notch" d="M 171.818181818 525 L 171.818181818 530"/>
		<text class="x-axis-label" x="215.757575758" y="540">
			20
		</text>
		<path class="x-notch" d="M 259.696969697 525 L 259.696969697 530"/>
		<text class="x-axis-label" x="303.636363636" y="540">
			30
		</text>
		<path class="x-notch" d="M 347.575757576 525 L 347.575757576 530"/>
		<text class="x-axis-label" x="391.515151515" y="540">
			40
		</text>
		<path class="x-notch" d="M 435.454545455 525 L 435.454545455 530"/>
		<text class="x-axis-label" x="479.393939394" y="540">
			50
		</text>
		<path class="x-notch" d="M 523.333333333 525 L 523.333333333 530"/>
		<text class="x-axis-label" x="567.272727273" y="540">
			60
		</text>
		<path class="x-notch" d="M 611.212121212 525 L 611.212121212 530"/>
	</g>
</svg>
