<?xml version="1.0" ?>
<svg height="600" version="1.1" width="800" xmlns="http://www.w3.org/2000/svg" xmlns:svg="http://www.w3.org/2000/svg">
	<style type="text/css">
		

.x-axis-path, .y-gridline, .x-notch { fill:none; stroke: #a7a9ac; stroke-width:1; }



.y-gridline { stroke-width: 1; }

.y-axis-path, .y-axis-path2, .x-notch-left, .x-notch-right { display: none;}



.x-axis-label, .data-point-label {font-size: 12px; font-weight:normal; font-family: sans-serif; fill: #58595b; text-anchor:middle;}

.y-axis-label {font-size: 12px; font-family: helvetica; fill: #a7a9ac; text-anchor:end;}



.series-1-line { fill: none; stroke: #10b80c; stroke-width:2; }



.series-2-line { fill: none; stroke: #e90f0a; stroke-width: 2;}

	</style>
	<rect fill="white" height="600" width="800" x="0" y="0"/>
	<g id="grid" transform="translate(70, 30)">
		<g class="x-axis" id="x_axis">
			<path class="x-axis-path" d="M 0 525 L 660 525"/>
			<path class="x-notch-left" d="M 0 525, L 0 535"/>
			<path class="x-notch-right" d="M 660 525, L 660 535"/>
		</g>
		<g class="y-axis" id="y_axis">
			<path class="y-axis-path" d="M 0 525 L 0 0"/>
			<path class="y-axis-path-2" d="M 660 525 L 660 0"/>
			<path class="y-gridline" d="M 0 525 L 660 525"/>
			<text class="y-axis-label" x="-5" y="525">
				-200
			</text>
			<path class="y-gridline" d="M 0 438 L 660 438"/>
			<text class="y-axis-label" x="-5" y="438">
				 0
			</text>
			<path class="y-gridline" d="M 0 351 L 660 351"/>
			<text class="y-axis-label" x="-5" y="351">
				200
			</text>
			<path class="y-gridline" d="M 0 264 L 660 264"/>
			<text class="y-axis-label" x="-5" y="264">
				400
			</text>
			<path class="y-gridline" d="M 0 177 L 660 177"/>
			<text class="y-axis-label" x="-5" y="177">
				600
			</text>
			<path class="y-gridline" d="M 0 90 L 660 90"/>
			<text class="y-axis-label" x="-5" y="90">
				800
			</text>
			<path class="y-gridline" d="M 0 3 L 660 3"/>
			<text class="y-axis-label" x="-5" y="3">
				1000
			</text>
		</g>
		<g>
			<path class="series-1-line" d="M 40 430.751265 L 45 438.223948077 L 50 434.489981154 L 55 453.741389231 L 60 426.382247308 L 65 431.039355385 L 70 431.702613462 L 75 438.905971538 L 80 423.651404615 L 85 419.233012692 L 90 419.167045769 L 95 423.083728846 L 100 421.828811923 L 105 431.01772 L 110 421.181153077 L 115 423.471211154 L 120 417.672944231 L 125 433.547902308 L 130 431.474160385 L 135 428.940343462 L 140 401.749551538 L 145 370.261984615 L 150 371.228517692 L 155 356.568075769 L 160 350.758783846 L 165 345.644766923 L 170 326.553325 L 175 341.306533077 L 180 246.336841154 L 185 231.867149231 L 190 257.109157308 L 195 211.711540385 L 200 243.616498462 L 205 229.214181538 L 210 201.417714615 L 215 195.742822692 L 220 183.359830769 L 225 118.072938846 L 230 68.5246719231 L 235 147.56763 L 240 62.5934130769 L 245 74.7440211538 L 250 119.112129231 L 255 109.141162308 L 260 103.275520385 L 265 74.7162284615 L 270 102.796211538 L 275 122.698444615 L 280 128.208152692 L 285 108.802410769 L 290 130.073143846 L 295 111.284451923 L 300 127.799035 L 305 142.708868077 L 310 186.303301154 L 315 127.679884231 L 320 156.343317308 L 325 194.014525385 L 330 163.761233462 L 335 219.459891538 L 340 238.217799615 L 345 226.317282692 L 350 266.276790769 L 355 222.954673846 L 360 245.279956923 L 365 256.56694 L 370 275.044323077 L 375 264.972381154 L 380 272.220889231 L 385 307.379097308 L 390 333.092380385 L 395 313.686813462 L 400 334.755596538 L 405 334.723404615 L 410 360.335712692 L 415 372.609695769 L 420 390.043903846 L 425 392.401161923 L 430 389.463445 L 435 390.396378077 L 440 414.381711154 L 445 395.525994231 L 450 402.852902308 L 455 375.662285385 L 460 404.897618462 L 465 416.891076538 L 470 401.501584615 L 475 420.147142692 L 480 405.924375769 L 485 417.076608846 L 490 424.167966923 L 495 406.5348 L 500 422.521933077 L 505 447.382616154 L 510 433.642149231 L 515 442.808657308 L 520 447.903265385 L 525 445.750773462 L 530 444.922156538 L 535 434.333964615 L 540 442.176947692 L 545 427.954005769 L 550 444.860938846 L 555 433.206996923 L 560 442.104355 L 565 429.452038077 L 570 436.969521154 L 575 440.313954231 L 580 433.461312308 L 585 435.897145385 L 590 437.760903462 L 595 440.073186538 L 600 445.964219615 L 605 439.739827692 L 610 437.363160769 L 615 437.072843846 L 620 433.226701923"/>
			<path class="series-2-line" d="M 40 435.8375 L 45 437.234508547 L 50 446.506517094 L 55 436.091025641 L 60 428.300534188 L 65 442.385042735 L 70 431.094551282 L 75 423.304059829 L 80 455.326068376 L 85 451.910576923 L 90 434.93258547 L 95 445.079594017 L 100 442.976602564 L 105 432.561111111 L 110 438.333119658 L 115 446.292628205 L 120 436.314636752 L 125 440.774145299 L 130 446.983653846 L 135 439.630662393 L 140 439.71517094 L 145 410.487179487 L 150 437.259188034 L 155 427.718696581 L 160 436.553205128 L 165 422.200213675 L 170 421.409722222 L 175 430.244230769 L 180 425.078739316 L 185 419.913247863 L 190 430.49775641 L 195 421.394764957 L 200 382.104273504 L 205 383.501282051 L 210 392.773290598 L 215 380.607799145 L 220 391.192307692 L 225 396.526816239 L 230 386.548824786 L 235 364.758333333 L 240 387.15534188 L 245 392.489850427 L 250 354.074358974 L 255 380.846367521 L 260 364.305876068 L 265 373.140384615 L 270 367.537393162 L 275 375.059401709 L 280 392.643910256 L 285 372.603418803 L 290 371.37542735 L 295 357.459935897 L 300 381.606944444 L 305 348.878952991 L 310 345.900961538 L 315 352.547970085 L 320 358.319978632 L 325 340.904487179 L 330 340.988995726 L 335 343.698504274 L 340 342.033012821 L 345 362.680021368 L 350 329.514529915 L 355 337.911538462 L 360 342.808547009 L 365 363.455555556 L 370 354.352564103 L 375 379.81207265 L 380 399.146581197 L 385 364.231089744 L 390 386.628098291 L 395 383.650106838 L 400 379.797115385 L 405 374.631623932 L 410 395.716132479 L 415 398.863141026 L 420 398.947649573 L 425 396.40715812 L 430 383.804166667 L 435 415.826175214 L 440 400.598183761 L 445 414.245192308 L 450 421.329700855 L 455 438.476709402 L 460 423.248717949 L 465 418.958226496 L 470 420.792735043 L 475 402.50224359 L 480 410.024252137 L 485 417.546260684 L 490 427.255769231 L 495 420.777777778 L 500 424.799786325 L 505 443.696794872 L 510 444.218803419 L 515 437.303311966 L 520 451.387820513 L 525 435.72232906 L 530 435.369337607 L 535 438.953846154 L 540 450.850854701 L 545 441.310363248 L 550 438.332371795 L 555 437.541880342 L 560 438.501388889 L 565 439.898397436 L 570 434.295405983 L 575 431.31741453 L 580 432.276923077 L 585 434.548931624 L 590 440.758440171 L 595 428.155448718 L 600 437.427457265 L 605 442.761965812 L 610 445.033974359 L 615 428.930982906 L 620 438.640491453"/>
		</g>
		<text class="x-axis-label" x="40.0" y="540">
			0
		</text>
		<path class="x-notch" d="M 65.0 525 L 65.0 530"/>
		<text class="x-axis-label" x="90.0" y="540">
			10
		</text>
		<path class="x-notch" d="M 115.0 525 L 115.0 530"/>
		<text class="x-axis-label" x="140.0" y="540">
			20
		</text>
		<path class="x-notch" d="M 165.0 525 L 165.0 530"/>
		<text class="x-axis-label" x="190.0" y="540">
			30
		</text>
		<path class="x-notch" d="M 215.0 525 L 215.0 530"/>
		<text class="x-axis-label" x="240.0" y="540">
			40
		</text>
		<path class="x-notch" d="M 265.0 525 L 265.0 530"/>
		<text class="x-axis-label" x="290.0" y="540">
			50
		</text>
		<path class="x-notch" d="M 315.0 525 L 315.0 530"/>
		<text class="x-axis-label" x="340.0" y="540">
			60
		</text>
		<path class="x-notch" d="M 365.0 525 L 365.0 530"/>
		<text class="x-axis-label" x="390.0" y="540">
			70
		</text>
		<path class="x-notch" d="M 415.0 525 L 415.0 530"/>
		<text class="x-axis-label" x="440.0" y="540">
			80
		</text>
		<path class="x-notch" d="M 465.0 525 L 465.0 530"/>
		<text class="x-axis-label" x="490.0" y="540">
			90
		</text>
		<path class="x-notch" d="M 515.0 525 L 515.0 530"/>
		<text class="x-axis-label" x="540.0" y="540">
			100
		</text>
		<path class="x-notch" d="M 565.0 525 L 565.0 530"/>
		<text class="x-axis-label" x="590.0" y="540">
			110
		</text>
		<path class="x-notch" d="M 615.0 525 L 615.0 530"/>
	</g>
</svg>
