<?xml version="1.0" ?>
<svg height="600" version="1.1" width="800" xmlns="http://www.w3.org/2000/svg" xmlns:svg="http://www.w3.org/2000/svg">
	<style type="text/css">
		

.x-axis-path, .y-gridline, .x-notch { fill:none; stroke: #a7a9ac; stroke-width:1; }



.y-gridline { stroke-width: 1; }

.y-axis-path, .y-axis-path2, .x-notch-left, .x-notch-right { display: none;}



.x-axis-label, .data-point-label {font-size: 12px; font-weight:normal; font-family: sans-serif; fill: #58595b; text-anchor:middle;}

.y-axis-label {font-size: 12px; font-family: helvetica; fill: #a7a9ac; text-anchor:end;}



.series-1-line { fill: none; stroke: #10b80c; stroke-width:2; }



.series-2-line { fill: none; stroke: #e90f0a; stroke-width: 2;}

	</style>
	<rect fill="white" height="600" width="800" x="0" y="0"/>
	<g id="grid" transform="translate(70, 30)">
		<g class="x-axis" id="x_axis">
			<path class="x-axis-path" d="M 0 525 L 660 525"/>
			<path class="x-notch-left" d="M 0 525, L 0 535"/>
			<path class="x-notch-right" d="M 660 525, L 660 535"/>
		</g>
		<g class="y-axis" id="y_axis">
			<path class="y-axis-path" d="M 0 525 L 0 0"/>
			<path class="y-axis-path-2" d="M 660 525 L 660 0"/>
			<path class="y-gridline" d="M 0 525 L 660 525"/>
			<text class="y-axis-label" x="-5" y="525">
				-200
			</text>
			<path class="y-gridline" d="M 0 394 L 660 394"/>
			<text class="y-axis-label" x="-5" y="394">
				 0
			</text>
			<path class="y-gridline" d="M 0 263 L 660 263"/>
			<text class="y-axis-label" x="-5" y="263">
				200
			</text>
			<path class="y-gridline" d="M 0 132 L 660 132"/>
			<text class="y-axis-label" x="-5" y="132">
				400
			</text>
			<path class="y-gridline" d="M 0 1 L 660 1"/>
			<text class="y-axis-label" x="-5" y="1">
				600
			</text>
		</g>
		<g>
			<path class="series-1-line" d="M 40 390.74469 L 44 424.282672938 L 48 405.775568376 L 52 387.671663814 L 57 361.474359252 L 61 375.25790469 L 65 401.207012628 L 69 390.793308066 L 74 386.033328504 L 78 390.461111442 L 82 386.34031938 L 86 385.921827318 L 91 375.474522755 L 95 381.281743193 L 99 372.550926131 L 103 370.920734069 L 108 367.574054507 L 112 368.198999945 L 116 359.232457883 L 121 336.484403321 L 125 350.066086259 L 129 334.301056697 L 133 316.265139635 L 138 310.915847573 L 142 305.684943011 L 146 269.104975949 L 150 258.557133887 L 155 295.830754325 L 159 258.460137263 L 163 259.623207701 L 167 230.346515639 L 172 274.754886077 L 176 273.511881515 L 180 264.326676953 L 185 269.915234891 L 189 249.606592828 L 193 216.628388266 L 197 185.719208704 L 202 221.579529142 L 206 156.69733708 L 210 138.609970018 L 214 174.622015456 L 219 160.337748394 L 223 144.489243832 L 227 152.70280177 L 231 105.269509708 L 236 132.531380146 L 240 69.6854005839 L 244 62.2662960219 L 248 85.6917289599 L 253 134.188799398 L 257 97.4912323358 L 261 102.457402774 L 266 130.661648212 L 270 58.6612436496 L 274 110.321701588 L 278 50.6724470255 L 283 73.3573674635 L 287 39.2514629015 L 291 72.9571833394 L 295 25.6593412774 L 300 61.4185992153 L 304 92.9542321533 L 308 54.7423025912 L 312 120.049610529 L 317 102.972080967 L 321 94.6617889051 L 325 143.630309343 L 330 90.526754781 L 334 71.935650219 L 338 123.276120657 L 342 150.470791095 L 347 94.0353240328 L 351 144.484344471 L 355 122.006139909 L 359 112.938272847 L 364 125.207718285 L 368 222.536613723 L 372 246.836434161 L 376 237.752292099 L 381 227.304462536 L 385 187.292307974 L 389 153.758390912 L 393 191.67119885 L 398 207.120569288 L 402 110.569589726 L 406 223.935135164 L 411 334.339418102 L 415 318.54052604 L 419 285.090608978 L 423 254.669679416 L 428 267.022862354 L 432 321.039257792 L 436 266.60561573 L 440 338.761811168 L 445 348.288131606 L 449 322.562539544 L 453 358.943922482 L 457 323.03753042 L 462 360.766063358 L 466 311.161633796 L 470 288.312779234 L 475 340.444949672 L 479 347.918257609 L 483 347.096040547 L 487 352.684860985 L 492 328.203518923 L 496 353.244114361 L 500 345.287147299 L 504 353.215105237 L 509 355.606938175 L 513 401.226746113 L 517 376.930729051 L 521 376.461836989 L 526 386.812407427 L 530 402.497240365 L 534 393.816560803 L 538 371.826081241 L 543 375.563751679 L 547 382.061084617 L 551 391.435680055 L 556 403.233150493 L 560 394.249808431 L 564 384.879278869 L 568 414.093099307 L 573 380.054657245 L 577 408.813827682 L 581 378.74622312 L 585 412.806056058 L 590 399.194838996 L 594 407.728646934 L 598 382.423054872 L 602 392.63896281 L 607 402.703670748 L 611 367.436466186 L 615 392.510661624 L 620 411.661807062"/>
			<path class="series-2-line" d="M 40 391.65 L 44 373.385173358 L 48 412.214096715 L 52 388.043020073 L 57 397.996943431 L 61 415.825866788 L 65 404.123540146 L 69 408.827463504 L 74 401.718886861 L 78 420.204060219 L 82 390.126733577 L 86 396.799406934 L 91 406.753330292 L 95 389.14475365 L 99 412.879927007 L 103 403.802600365 L 108 380.944023723 L 112 404.02294708 L 116 413.320620438 L 121 397.024543796 L 125 420.759717153 L 129 390.026140511 L 133 432.136313869 L 138 388.933987226 L 142 404.137910584 L 146 370.123083942 L 150 421.420757299 L 155 409.062180657 L 159 396.047354015 L 163 386.313777372 L 167 390.36145073 L 172 391.127874088 L 176 398.456797445 L 180 416.285720803 L 185 407.208394161 L 189 343.006067518 L 193 387.084990876 L 197 364.226414234 L 202 367.617837591 L 206 397.915510949 L 210 345.525684307 L 214 376.479607664 L 219 345.089781022 L 223 378.66870438 L 227 369.591377737 L 231 339.514051095 L 236 353.405474453 L 240 398.79689781 L 244 345.750821168 L 248 369.485994526 L 253 346.627417883 L 257 330.987591241 L 261 342.254014599 L 266 362.707937956 L 270 351.661861314 L 274 321.584534672 L 278 328.913458029 L 283 340.179881387 L 287 355.383804745 L 291 285.275228102 L 295 336.57290146 L 300 330.120574818 L 304 317.105748175 L 308 307.372171533 L 312 298.294844891 L 317 267.561268248 L 321 276.858941606 L 325 282.875364964 L 330 292.829288321 L 334 344.783211679 L 338 287.799635036 L 342 312.191058394 L 347 304.426231752 L 351 284.192655109 L 355 328.271578467 L 359 302.131751825 L 364 351.460675182 L 368 337.78959854 L 372 301.806021898 L 376 329.478695255 L 381 288.245118613 L 385 303.449041971 L 389 306.184215328 L 393 270.856888686 L 398 284.748312044 L 402 264.514735401 L 406 308.593658759 L 411 379.578832117 L 415 328.501505474 L 419 318.111678832 L 423 321.50310219 L 428 332.113275547 L 432 318.442198905 L 436 254.239872263 L 440 277.31879562 L 445 293.835218978 L 449 358.257892336 L 453 305.868065693 L 457 320.415739051 L 462 365.150912409 L 466 289.792335766 L 470 289.246259124 L 475 313.637682482 L 479 317.685355839 L 483 336.170529197 L 487 352.686952555 L 492 325.234625912 L 496 327.31354927 L 500 332.673722628 L 504 368.221395985 L 509 397.206569343 L 513 388.129242701 L 517 382.989416058 L 521 397.537089416 L 526 387.803512774 L 530 390.538686131 L 534 380.805109489 L 538 399.946532847 L 543 398.087956204 L 547 400.823129562 L 551 389.77705292 L 556 359.043476277 L 560 370.966149635 L 564 366.482572993 L 568 382.99899635 L 573 413.296669708 L 577 398.313093066 L 581 397.767016423 L 585 400.502189781 L 590 366.487363139 L 594 409.910036496 L 598 408.707709854 L 602 394.380383212 L 607 403.678056569 L 611 395.256979927 L 615 392.085903285 L 620 391.539826642"/>
		</g>
		<text class="x-axis-label" x="40.0" y="540">
			0
		</text>
		<path class="x-notch" d="M 61.3235294118 525 L 61.3235294118 530"/>
		<text class="x-axis-label" x="82.6470588235" y="540">
			10
		</text>
		<path class="x-notch" d="M 103.970588235 525 L 103.970588235 530"/>
		<text class="x-axis-label" x="125.294117647" y="540">
			20
		</text>
		<path class="x-notch" d="M 146.617647059 525 L 146.617647059 530"/>
		<text class="x-axis-label" x="167.941176471" y="540">
			30
		</text>
		<path class="x-notch" d="M 189.264705882 525 L 189.264705882 530"/>
		<text class="x-axis-label" x="210.588235294" y="540">
			40
		</text>
		<path class="x-notch" d="M 231.911764706 525 L 231.911764706 530"/>
		<text class="x-axis-label" x="253.235294118" y="540">
			50
		</text>
		<path class="x-notch" d="M 274.558823529 525 L 274.558823529 530"/>
		<text class="x-axis-label" x="295.882352941" y="540">
			60
		</text>
		<path class="x-notch" d="M 317.205882353 525 L 317.205882353 530"/>
		<text class="x-axis-label" x="338.529411765" y="540">
			70
		</text>
		<path class="x-notch" d="M 359.852941176 525 L 359.852941176 530"/>
		<text class="x-axis-label" x="381.176470588" y="540">
			80
		</text>
		<path class="x-notch" d="M 402.5 525 L 402.5 530"/>
		<text class="x-axis-label" x="423.823529412" y="540">
			90
		</text>
		<path class="x-notch" d="M 445.147058824 525 L 445.147058824 530"/>
		<text class="x-axis-label" x="466.470588235" y="540">
			100
		</text>
		<path class="x-notch" d="M 487.794117647 525 L 487.794117647 530"/>
		<text class="x-axis-label" x="509.117647059" y="540">
			110
		</text>
		<path class="x-notch" d="M 530.441176471 525 L 530.441176471 530"/>
		<text class="x-axis-label" x="551.764705882" y="540">
			120
		</text>
		<path class="x-notch" d="M 573.088235294 525 L 573.088235294 530"/>
		<text class="x-axis-label" x="594.411764706" y="540">
			130
		</text>
		<path class="x-notch" d="M 615.735294118 525 L 615.735294118 530"/>
	</g>
</svg>
