<?xml version="1.0" ?>
<svg height="600" version="1.1" width="800" xmlns="http://www.w3.org/2000/svg" xmlns:svg="http://www.w3.org/2000/svg">
	<style type="text/css">
		

.x-axis-path, .y-gridline, .x-notch { fill:none; stroke: #a7a9ac; stroke-width:1; }



.y-gridline { stroke-width: 1; }

.y-axis-path, .y-axis-path2, .x-notch-left, .x-notch-right { display: none;}



.x-axis-label, .data-point-label {font-size: 12px; font-weight:normal; font-family: sans-serif; fill: #58595b; text-anchor:middle;}

.y-axis-label {font-size: 12px; font-family: helvetica; fill: #a7a9ac; text-anchor:end;}



.series-1-line { fill: none; stroke: #10b80c; stroke-width:2; }



.series-2-line { fill: none; stroke: #e90f0a; stroke-width: 2;}

	</style>
	<rect fill="white" height="600" width="800" x="0" y="0"/>
	<g id="grid" transform="translate(70, 30)">
		<g class="x-axis" id="x_axis">
			<path class="x-axis-path" d="M 0 525 L 660 525"/>
			<path class="x-notch-left" d="M 0 525, L 0 535"/>
			<path class="x-notch-right" d="M 660 525, L 660 535"/>
		</g>
		<g class="y-axis" id="y_axis">
			<path class="y-axis-path" d="M 0 525 L 0 0"/>
			<path class="y-axis-path-2" d="M 660 525 L 660 0"/>
			<path class="y-gridline" d="M 0 525 L 660 525"/>
			<text class="y-axis-label" x="-5" y="525">
				-100
			</text>
			<path class="y-gridline" d="M 0 450 L 660 450"/>
			<text class="y-axis-label" x="-5" y="450">
				 0
			</text>
			<path class="y-gridline" d="M 0 375 L 660 375"/>
			<text class="y-axis-label" x="-5" y="375">
				100
			</text>
			<path class="y-gridline" d="M 0 300 L 660 300"/>
			<text class="y-axis-label" x="-5" y="300">
				200
			</text>
			<path class="y-gridline" d="M 0 225 L 660 225"/>
			<text class="y-axis-label" x="-5" y="225">
				300
			</text>
			<path class="y-gridline" d="M 0 150 L 660 150"/>
			<text class="y-axis-label" x="-5" y="150">
				400
			</text>
			<path class="y-gridline" d="M 0 75 L 660 75"/>
			<text class="y-axis-label" x="-5" y="75">
				500
			</text>
			<path class="y-gridline" d="M 0 0 L 660 0"/>
			<text class="y-axis-label" x="-5" y="0">
				600
			</text>
		</g>
		<g>
			<path class="series-1-line" d="M 40 450.03102 L 44 468.598117674 L 49 451.473615349 L 53 431.771513023 L 58 449.761710698 L 62 455.156408372 L 67 473.704606047 L 71 446.675903721 L 76 438.589501395 L 80 457.71399907 L 85 462.647596744 L 89 470.118894419 L 94 427.686692093 L 98 399.042489767 L 103 457.051787442 L 107 423.023185116 L 112 417.360182791 L 117 464.138680465 L 121 421.41757814 L 126 395.927575814 L 130 411.225573488 L 135 402.677471163 L 139 297.763668837 L 144 291.485366512 L 148 261.783664186 L 153 261.17806186 L 157 272.207359535 L 162 248.024457209 L 166 224.668954884 L 171 252.332652558 L 175 212.995850233 L 180 199.928247907 L 185 205.688645581 L 189 189.678643256 L 194 217.51484093 L 198 165.871438605 L 203 121.611936279 L 207 143.467033953 L 212 151.937931628 L 216 172.621229302 L 221 143.342526977 L 225 178.755824651 L 230 158.342722326 L 234 229.73652 L 239 151.496917674 L 243 178.659915349 L 248 200.035013023 L 252 251.179110698 L 257 164.997308372 L 262 160.544806047 L 266 183.362603721 L 271 212.102701395 L 275 202.34349907 L 280 198.603496744 L 284 231.536694419 L 289 255.719492093 L 293 231.190389767 L 298 215.642387442 L 302 229.729285116 L 307 302.930882791 L 311 310.382980465 L 316 232.47007814 L 320 273.479875814 L 325 274.296873488 L 330 311.306171163 L 334 318.912768837 L 339 366.152966512 L 343 296.278564186 L 348 286.88446186 L 352 339.529159535 L 357 373.500057209 L 361 359.086354884 L 366 401.423352558 L 370 374.337650233 L 375 386.308347907 L 379 421.645445581 L 384 422.655343256 L 388 373.43444093 L 393 408.002038605 L 397 369.145836279 L 402 433.251433953 L 407 405.665031628 L 411 450.464729302 L 416 457.529226977 L 420 447.656624651 L 425 438.433822326 L 429 444.42282 L 434 443.164717674 L 438 448.250715349 L 443 409.857113023 L 447 447.097410698 L 452 460.589708372 L 456 438.521506047 L 461 454.608503721 L 465 483.888001395 L 470 483.97479907 L 475 446.332096744 L 479 458.379894419 L 484 452.427692093 L 488 429.130389767 L 493 459.255287442 L 497 425.129785116 L 502 402.523982791 L 506 399.822580465 L 511 461.73667814 L 515 435.631075814 L 520 494.851173488 L 524 432.824171163 L 529 464.198268837 L 533 416.977466512 L 538 445.275364186 L 542 460.05436186 L 547 448.467859535 L 552 447.169857209 L 556 473.814154884 L 561 422.266752558 L 565 459.777050233 L 570 452.536347907 L 574 437.353445581 L 579 459.844543256 L 583 462.87344093 L 588 466.460038605 L 592 433.932036279 L 597 441.383833953 L 601 435.489831628 L 606 448.172129302 L 610 445.374426977 L 615 469.076924651 L 620 449.432722326"/>
			<path class="series-2-line" d="M 40 474.45 L 44 440.891860465 L 49 476.33372093 L 53 445.775581395 L 58 414.46744186 L 62 446.909302326 L 67 445.601162791 L 71 446.543023256 L 76 446.734883721 L 80 384.676744186 L 85 459.868604651 L 89 460.810465116 L 94 495.502325581 L 98 485.194186047 L 103 441.136046512 L 107 451.827906977 L 112 483.519767442 L 117 436.461627907 L 121 428.403488372 L 126 452.595348837 L 130 431.787209302 L 135 416.229069767 L 139 369.920930233 L 144 409.862790698 L 148 418.304651163 L 153 421.496511628 L 157 452.438372093 L 162 418.880232558 L 166 431.822093023 L 171 441.763953488 L 175 402.955813953 L 180 361.147674419 L 185 424.339534884 L 189 373.531395349 L 194 327.223255814 L 198 394.915116279 L 203 392.856976744 L 207 314.298837209 L 212 276.240697674 L 216 322.18255814 L 221 323.124418605 L 225 294.06627907 L 230 316.008139535 L 234 260.7 L 239 323.891860465 L 243 265.58372093 L 248 262.025581395 L 252 235.96744186 L 257 309.659302326 L 262 240.101162791 L 266 274.793023256 L 271 233.734883721 L 275 260.926744186 L 280 285.118604651 L 284 321.310465116 L 289 318.502325581 L 293 280.444186047 L 298 274.636046512 L 302 296.577906977 L 307 251.769767442 L 311 255.711627907 L 316 297.153488372 L 320 301.845348837 L 325 258.537209302 L 330 214.479069767 L 334 282.170930233 L 339 250.862790698 L 343 296.054651163 L 348 295.496511628 L 352 327.938372093 L 357 289.880232558 L 361 253.322093023 L 366 285.013953488 L 370 353.455813953 L 375 295.897674419 L 379 337.339534884 L 384 351.781395349 L 388 363.223255814 L 393 378.415116279 L 397 323.106976744 L 402 293.298837209 L 407 293.490697674 L 411 438.43255814 L 416 151.374418605 L 420 372.06627907 L 425 198.258139535 L 429 49.95 L 434 184.391860465 L 438 118.58372093 L 443 166.775581395 L 447 145.21744186 L 452 318.659302326 L 456 218.351162791 L 461 250.043023256 L 465 300.484883721 L 470 312.676744186 L 475 448.618604651 L 479 408.310465116 L 484 368.002325581 L 488 430.444186047 L 493 407.386046512 L 497 345.327906977 L 502 329.019767442 L 506 366.711627907 L 511 415.653488372 L 515 418.845348837 L 520 302.787209302 L 524 469.479069767 L 529 368.420930233 L 533 389.612790698 L 538 359.054651163 L 542 360.746511628 L 547 351.188372093 L 552 345.380232558 L 556 338.822093023 L 561 391.513953488 L 565 444.955813953 L 570 400.897674419 L 574 367.339534884 L 579 423.781395349 L 583 415.723255814 L 588 408.415116279 L 592 477.606976744 L 597 452.298837209 L 601 461.490697674 L 606 409.93255814 L 610 433.374418605 L 615 476.31627907 L 620 466.008139535"/>
		</g>
		<text class="x-axis-label" x="40.0" y="540">
			0
		</text>
		<path class="x-notch" d="M 62.65625 525 L 62.65625 530"/>
		<text class="x-axis-label" x="85.3125" y="540">
			10
		</text>
		<path class="x-notch" d="M 107.96875 525 L 107.96875 530"/>
		<text class="x-axis-label" x="130.625" y="540">
			20
		</text>
		<path class="x-notch" d="M 153.28125 525 L 153.28125 530"/>
		<text class="x-axis-label" x="175.9375" y="540">
			30
		</text>
		<path class="x-notch" d="M 198.59375 525 L 198.59375 530"/>
		<text class="x-axis-label" x="221.25" y="540">
			40
		</text>
		<path class="x-notch" d="M 243.90625 525 L 243.90625 530"/>
		<text class="x-axis-label" x="266.5625" y="540">
			50
		</text>
		<path class="x-notch" d="M 289.21875 525 L 289.21875 530"/>
		<text class="x-axis-label" x="311.875" y="540">
			60
		</text>
		<path class="x-notch" d="M 334.53125 525 L 334.53125 530"/>
		<text class="x-axis-label" x="357.1875" y="540">
			70
		</text>
		<path class="x-notch" d="M 379.84375 525 L 379.84375 530"/>
		<text class="x-axis-label" x="402.5" y="540">
			80
		</text>
		<path class="x-notch" d="M 425.15625 525 L 425.15625 530"/>
		<text class="x-axis-label" x="447.8125" y="540">
			90
		</text>
		<path class="x-notch" d="M 470.46875 525 L 470.46875 530"/>
		<text class="x-axis-label" x="493.125" y="540">
			100
		</text>
		<path class="x-notch" d="M 515.78125 525 L 515.78125 530"/>
		<text class="x-axis-label" x="538.4375" y="540">
			110
		</text>
		<path class="x-notch" d="M 561.09375 525 L 561.09375 530"/>
		<text class="x-axis-label" x="583.75" y="540">
			120
		</text>
		<path class="x-notch" d="M 606.40625 525 L 606.40625 530"/>
	</g>
</svg>
