<?xml version="1.0" ?>
<svg height="600" version="1.1" width="800" xmlns="http://www.w3.org/2000/svg" xmlns:svg="http://www.w3.org/2000/svg">
	<style type="text/css">

.x-axis-path, .y-gridline, .x-notch { fill:none; stroke: #a7a9ac; stroke-width:1; }



.y-gridline { stroke-width: 1; }

.y-axis-path, .y-axis-path2, .x-notch-left, .x-notch-right { display: none;}



.x-axis-label, .data-point-label {font-size: 12px; font-weight:normal; font-family: sans-serif; fill: #58595b; text-anchor:middle;}

.y-axis-label {font-size: 12px; font-family: helvetica; fill: #a7a9ac; text-anchor:end;}



.series-1-line { fill: none; stroke: #10b80c; stroke-width:2; }



.series-2-line { fill: none; stroke: #e90f0a; stroke-width: 2;}
</style>
	<rect fill="white" height="600" width="800" x="0" y="0"/>
	<g id="grid" transform="translate(70, 30)">
		<g class="x-axis" id="x_axis">
			<path class="x-axis-path" d="M 0 525 L 660 525"/>
			<path class="x-notch-left" d="M 0 525, L 0 535"/>
			<path class="x-notch-right" d="M 660 525, L 660 535"/>
		</g>
		<g class="y-axis" id="y_axis">
			<path class="y-axis-path" d="M 0 525 L 0 0"/>
			<path class="y-axis-path-2" d="M 660 525 L 660 0"/>
			<path class="y-gridline" d="M 0 525 L 660 525"/>
			<text class="y-axis-label" x="-5" y="525">-200</text>
			<path class="y-gridline" d="M 0 394 L 660 394"/>
			<text class="y-axis-label" x="-5" y="394"> 0</text>
			<path class="y-gridline" d="M 0 263 L 660 263"/>
			<text class="y-axis-label" x="-5" y="263">200</text>
			<path class="y-gridline" d="M 0 132 L 660 132"/>
			<text class="y-axis-label" x="-5" y="132">400</text>
			<path class="y-gridline" d="M 0 1 L 660 1"/>
			<text class="y-axis-label" x="-5" y="1">600</text>
		</g>
		<g>
			<path class="series-1-line" d="M 40 427.5148645 L 42 385.382387856 L 45 382.760993523 L 48 378.373677927 L 51 393.56165579 L 54 408.911603502 L 57 377.016689833 L 60 405.633824041 L 63 405.103977857 L 66 394.605393654 L 69 425.151262568 L 72 397.492872749 L 75 388.364564712 L 78 401.696075666 L 81 395.992473852 L 83 404.582992366 L 86 418.310429616 L 89 409.254389376 L 92 413.321000038 L 95 419.928512698 L 98 380.084984955 L 101 390.117203839 L 104 418.644354797 L 107 397.07867454 L 110 405.524938657 L 113 378.731794019 L 116 372.956205606 L 119 397.8598436 L 122 373.373644512 L 124 400.332274959 L 127 386.986002117 L 130 342.239512085 L 133 358.472701627 L 136 351.110314854 L 139 338.070828653 L 142 344.408391566 L 145 332.467825795 L 148 288.568584293 L 151 326.14411335 L 154 311.031075651 L 157 276.000245749 L 160 318.262496099 L 163 321.175071591 L 165 304.656326821 L 168 274.9609412 L 171 250.744973057 L 174 289.492252737 L 177 232.632611379 L 180 234.986165935 L 183 187.01265163 L 186 222.461482832 L 189 191.558634486 L 192 232.594863067 L 195 235.579706355 L 198 231.750568101 L 201 201.316195046 L 204 181.408737352 L 206 233.729146575 L 209 210.486122314 L 212 223.078364636 L 215 168.075471385 L 218 171.907000809 L 221 206.147525694 L 224 174.253174421 L 227 132.102138732 L 230 101.649487829 L 233 128.283897381 L 236 151.565587309 L 239 124.195143888 L 242 111.136817443 L 245 92.4376660672 L 247 131.70712979 L 250 121.569322176 L 253 48.2525881395 L 256 143.545341593 L 259 125.097862117 L 262 90.4272464099 L 265 39.1729990796 L 268 68.331157573 L 271 62.2670603676 L 274 83.3669377008 L 277 91.7412152188 L 280 107.974967156 L 283 114.816998659 L 286 54.3161288845 L 288 114.189507084 L 291 98.031538904 L 294 67.5966034534 L 297 104.018659735 L 300 119.368888645 L 303 63.6264455649 L 306 50.2801727233 L 309 120.842436133 L 312 139.166892625 L 315 31.4928668718 L 318 83.1105631586 L 321 107.887943406 L 324 73.0373612004 L 327 48.9299353519 L 330 95.0856484145 L 332 26.8158498652 L 335 57.3794342314 L 338 78.7503861027 L 341 37.897077585 L 344 0.0 L 347 43.1089364855 L 350 74.2683786798 L 353 54.9185359331 L 356 106.068600522 L 359 87.1520833594 L 362 71.9127879135 L 365 64.0644915958 L 368 86.8588659898 L 371 43.1575876361 L 373 103.174939035 L 376 104.789506157 L 379 114.60604644 L 382 85.99270939 L 385 147.181249016 L 388 133.780986225 L 391 151.132217637 L 394 178.613594522 L 397 164.023584459 L 400 151.524560147 L 403 122.495612965 L 406 126.255155789 L 409 208.137593141 L 412 242.88343021 L 414 216.828991808 L 417 234.882936157 L 420 188.514498058 L 423 293.468921693 L 426 230.012102184 L 429 221.081757295 L 432 247.986678989 L 435 254.59419165 L 438 336.566612251 L 441 272.550490608 L 444 252.535334213 L 447 271.797303682 L 450 296.340727482 L 453 323.857535271 L 455 306.023066679 L 458 324.473780918 L 461 353.180898375 L 464 330.713417242 L 467 379.140363753 L 470 340.12608789 L 473 359.965918538 L 476 344.92458624 L 479 352.108835288 L 482 391.775912493 L 485 362.675541106 L 488 389.976951493 L 491 405.886482535 L 494 393.873930165 L 496 393.559762581 L 499 357.843091602 L 502 403.458342774 L 505 390.058361181 L 508 366.617654969 L 511 388.835855371 L 514 372.965833588 L 517 385.107316072 L 520 369.237575486 L 523 375.755104897 L 526 406.012746216 L 529 380.246535409 L 532 360.717850955 L 535 412.371259344 L 537 402.143468481 L 540 395.249838197 L 543 384.968057385 L 546 389.286902342 L 549 408.728557112 L 552 392.75055543 L 555 397.808387821 L 558 377.28820044 L 561 376.415293118 L 564 393.910216532 L 567 374.868004018 L 570 361.810239969 L 573 394.104314696 L 576 384.831752262 L 578 384.860364618 L 581 398.642354213 L 584 382.610362582 L 587 386.910929692 L 590 373.25787021 L 593 384.011923471 L 596 393.14346627 L 599 387.980607544 L 602 397.238126892 L 605 376.89790601 L 608 370.14881132 L 611 395.016456014 L 614 399.767782963 L 617 393.505441411 L 620 412.046138899"/>
			<path class="series-2-line" d="M 40 346.50879419 L 42 402.753270604 L 45 381.668392269 L 48 416.82304466 L 51 414.016013811 L 54 385.901194135 L 57 352.865415521 L 60 366.227249756 L 63 402.787890415 L 66 376.782053142 L 69 390.846881511 L 72 409.832668818 L 75 416.867555846 L 78 429.526395947 L 81 423.204394428 L 83 407.743469165 L 86 358.538825467 L 89 381.742577579 L 92 414.085253434 L 95 378.940492418 L 98 407.065203468 L 101 358.563553904 L 104 385.985270821 L 107 414.109981871 L 110 393.72809767 L 113 414.82286738 L 116 419.748772006 L 119 409.208805682 L 122 399.371833492 L 124 397.267796777 L 127 404.302683806 L 130 429.61541832 L 133 400.79760451 L 136 351.592960812 L 139 393.07456041 L 142 400.109447438 L 145 379.727563237 L 148 409.96125669 L 151 396.60931383 L 154 377.633417897 L 157 395.213216936 L 160 391.000197819 L 163 383.975202166 L 165 392.416077462 L 168 400.153958624 L 171 375.554109619 L 174 371.341090502 L 177 394.544842614 L 180 365.02403467 L 183 345.345144603 L 186 362.221949508 L 189 393.861631229 L 192 361.528846749 L 195 370.672716179 L 198 346.072867174 L 201 359.434701409 L 204 375.60851218 L 206 365.068545856 L 209 298.289048806 L 212 289.15507075 L 215 324.309723141 L 218 283.541009052 L 221 242.069300828 L 224 263.867064672 L 227 268.089975164 L 230 256.847014706 L 233 277.941784416 L 236 301.145536528 L 239 275.139699255 L 242 237.182961701 L 245 311.705285602 L 247 253.36171816 L 250 253.366663847 L 253 294.145269312 L 256 242.128649077 L 259 249.866530239 L 262 238.623569781 L 265 209.805755971 L 268 248.475379033 L 271 243.559365782 L 274 195.760710352 L 277 186.626732296 L 280 212.642460944 L 283 195.775547414 L 286 211.246364051 L 288 228.82616309 L 291 263.277821348 L 294 221.806113124 L 297 223.920041214 L 300 223.221992767 L 303 209.167055773 L 306 216.201942801 L 309 211.28592955 L 312 212.696863505 L 315 184.582043829 L 318 201.458848735 L 321 183.185946936 L 324 200.062751841 L 327 213.424586076 L 330 204.993602155 L 332 226.088371865 L 335 209.924452468 L 338 229.61323391 L 341 223.29123239 L 344 221.89018981 L 347 167.764587173 L 350 250.722840682 L 353 152.308607597 L 356 269.713573677 L 359 240.895759867 L 362 214.186928459 L 365 240.905651242 L 368 202.948913688 L 371 202.250865242 L 373 197.33485199 L 376 173.437997119 L 379 186.09683722 L 382 244.450296036 L 385 193.83966407 L 388 209.310480707 L 391 225.484291478 L 394 224.083248897 L 397 233.227118328 L 400 245.182964295 L 403 203.711256071 L 406 174.190448127 L 409 185.44329996 L 412 202.320104865 L 414 190.374150273 L 417 179.131189815 L 420 238.187642765 L 423 186.874016665 L 426 224.840645592 L 429 200.943790721 L 432 234.692454844 L 435 199.547693828 L 438 196.740662979 L 441 184.794708387 L 444 245.257149605 L 447 264.945931047 L 450 283.22872422 L 453 221.370186108 L 455 243.167949952 L 458 252.311819383 L 461 251.613770936 L 464 228.419910199 L 467 222.097908679 L 470 257.955555205 L 473 379.578486089 L 476 321.937912781 L 479 279.06021629 L 482 323.353792424 L 485 347.963532805 L 488 374.682255587 L 491 423.896790661 L 494 414.762812605 L 496 390.162963599 L 499 322.680472415 L 502 343.775242124 L 505 386.662829991 L 508 378.231846069 L 511 402.84158645 L 514 392.301620126 L 517 371.216741791 L 520 388.093546696 L 523 367.008668361 L 526 398.648350082 L 529 369.127542138 L 532 408.500159334 L 535 392.336239937 L 537 406.401068306 L 540 366.335348351 L 543 388.836106329 L 546 409.227881905 L 549 373.380126754 L 552 379.712019648 L 555 394.479842151 L 558 424.01054147 L 561 404.331651403 L 564 370.592878655 L 567 388.875671828 L 570 405.752476733 L 573 393.806522141 L 576 395.920450231 L 578 400.143360723 L 581 397.336329874 L 584 412.104152377 L 587 407.89113326 L 590 380.479307718 L 593 411.415995305 L 596 421.26285887 L 599 412.831874948 L 602 402.994902758 L 605 404.405836714 L 608 396.677846926 L 611 391.761833675 L 614 399.499714837 L 617 398.098672257 L 620 393.182659005"/>
		</g>
		<text class="x-axis-label" x="40.0" y="540">0</text>
		<path class="x-notch" d="M 54.6464646465 525 L 54.6464646465 530"/>
		<text class="x-axis-label" x="69.2929292929" y="540">10</text>
		<path class="x-notch" d="M 83.9393939394 525 L 83.9393939394 530"/>
		<text class="x-axis-label" x="98.5858585859" y="540">20</text>
		<path class="x-notch" d="M 113.232323232 525 L 113.232323232 530"/>
		<text class="x-axis-label" x="127.878787879" y="540">30</text>
		<path class="x-notch" d="M 142.525252525 525 L 142.525252525 530"/>
		<text class="x-axis-label" x="157.171717172" y="540">40</text>
		<path class="x-notch" d="M 171.818181818 525 L 171.818181818 530"/>
		<text class="x-axis-label" x="186.464646465" y="540">50</text>
		<path class="x-notch" d="M 201.111111111 525 L 201.111111111 530"/>
		<text class="x-axis-label" x="215.757575758" y="540">60</text>
		<path class="x-notch" d="M 230.404040404 525 L 230.404040404 530"/>
		<text class="x-axis-label" x="245.050505051" y="540">70</text>
		<path class="x-notch" d="M 259.696969697 525 L 259.696969697 530"/>
		<text class="x-axis-label" x="274.343434343" y="540">80</text>
		<path class="x-notch" d="M 288.98989899 525 L 288.98989899 530"/>
		<text class="x-axis-label" x="303.636363636" y="540">90</text>
		<path class="x-notch" d="M 318.282828283 525 L 318.282828283 530"/>
		<text class="x-axis-label" x="332.929292929" y="540">100</text>
		<path class="x-notch" d="M 347.575757576 525 L 347.575757576 530"/>
		<text class="x-axis-label" x="362.222222222" y="540">110</text>
		<path class="x-notch" d="M 376.868686869 525 L 376.868686869 530"/>
		<text class="x-axis-label" x="391.515151515" y="540">120</text>
		<path class="x-notch" d="M 406.161616162 525 L 406.161616162 530"/>
		<text class="x-axis-label" x="420.808080808" y="540">130</text>
		<path class="x-notch" d="M 435.454545455 525 L 435.454545455 530"/>
		<text class="x-axis-label" x="450.101010101" y="540">140</text>
		<path class="x-notch" d="M 464.747474747 525 L 464.747474747 530"/>
		<text class="x-axis-label" x="479.393939394" y="540">150</text>
		<path class="x-notch" d="M 494.04040404 525 L 494.04040404 530"/>
		<text class="x-axis-label" x="508.686868687" y="540">160</text>
		<path class="x-notch" d="M 523.333333333 525 L 523.333333333 530"/>
		<text class="x-axis-label" x="537.97979798" y="540">170</text>
		<path class="x-notch" d="M 552.626262626 525 L 552.626262626 530"/>
		<text class="x-axis-label" x="567.272727273" y="540">180</text>
		<path class="x-notch" d="M 581.919191919 525 L 581.919191919 530"/>
		<text class="x-axis-label" x="596.565656566" y="540">190</text>
		<path class="x-notch" d="M 611.212121212 525 L 611.212121212 530"/>
	</g>
</svg>
