<?xml version="1.0" ?>
<svg height="600" version="1.1" width="800" xmlns="http://www.w3.org/2000/svg" xmlns:svg="http://www.w3.org/2000/svg">
	<style type="text/css">
		

.x-axis-path, .y-gridline, .x-notch { fill:none; stroke: #a7a9ac; stroke-width:1; }



.y-gridline { stroke-width: 1; }

.y-axis-path, .y-axis-path2, .x-notch-left, .x-notch-right { display: none;}



.x-axis-label, .data-point-label {font-size: 12px; font-weight:normal; font-family: sans-serif; fill: #58595b; text-anchor:middle;}

.y-axis-label {font-size: 12px; font-family: helvetica; fill: #a7a9ac; text-anchor:end;}



.series-1-line { fill: none; stroke: #10b80c; stroke-width:2; }



.series-2-line { fill: none; stroke: #e90f0a; stroke-width: 2;}

	</style>
	<rect fill="white" height="600" width="800" x="0" y="0"/>
	<g id="grid" transform="translate(70, 30)">
		<g class="x-axis" id="x_axis">
			<path class="x-axis-path" d="M 0 525 L 660 525"/>
			<path class="x-notch-left" d="M 0 525, L 0 535"/>
			<path class="x-notch-right" d="M 660 525, L 660 535"/>
		</g>
		<g class="y-axis" id="y_axis">
			<path class="y-axis-path" d="M 0 525 L 0 0"/>
			<path class="y-axis-path-2" d="M 660 525 L 660 0"/>
			<path class="y-gridline" d="M 0 525 L 660 525"/>
			<text class="y-axis-label" x="-5" y="525">
				-100
			</text>
			<path class="y-gridline" d="M 0 438 L 660 438"/>
			<text class="y-axis-label" x="-5" y="438">
				 0
			</text>
			<path class="y-gridline" d="M 0 351 L 660 351"/>
			<text class="y-axis-label" x="-5" y="351">
				100
			</text>
			<path class="y-gridline" d="M 0 264 L 660 264"/>
			<text class="y-axis-label" x="-5" y="264">
				200
			</text>
			<path class="y-gridline" d="M 0 177 L 660 177"/>
			<text class="y-axis-label" x="-5" y="177">
				300
			</text>
			<path class="y-gridline" d="M 0 90 L 660 90"/>
			<text class="y-axis-label" x="-5" y="90">
				400
			</text>
			<path class="y-gridline" d="M 0 3 L 660 3"/>
			<text class="y-axis-label" x="-5" y="3">
				500
			</text>
		</g>
		<g>
			<path class="series-1-line" d="M 40 408.72846 L 47 409.462485122 L 54 437.075460244 L 61 454.255635366 L 68 468.721210488 L 75 482.73738561 L 82 476.629260732 L 90 496.501985854 L 97 489.608110976 L 104 386.083086098 L 111 432.20546122 L 118 359.552186341 L 125 231.370011463 L 133 347.223236585 L 140 275.131011707 L 147 345.753386829 L 154 355.821211951 L 161 331.360137073 L 168 325.767912195 L 176 350.800337317 L 183 210.615262439 L 190 147.654187561 L 197 188.144712683 L 204 173.398937805 L 211 230.783962927 L 219 218.348188049 L 226 223.973813171 L 233 175.506938293 L 240 40.8637634146 L 247 193.399088537 L 254 201.357813659 L 261 199.98378878 L 269 242.920463902 L 276 270.375939024 L 283 322.668114146 L 290 248.982689268 L 297 305.31351439 L 304 352.781639512 L 312 219.664114634 L 319 293.427739756 L 326 310.248814878 L 333 304.47704 L 340 316.496465122 L 347 288.962040244 L 355 331.000965366 L 362 308.312640488 L 369 371.08241561 L 376 369.349290732 L 383 370.756715854 L 390 375.933640976 L 398 449.742066098 L 405 409.59854122 L 412 428.304366341 L 419 419.009841463 L 426 436.257916585 L 433 436.027691707 L 440 395.547466829 L 448 444.451641951 L 455 465.446117073 L 462 437.529842195 L 469 422.806117317 L 476 430.339242439 L 483 453.307717561 L 491 419.962242683 L 498 435.324867805 L 505 450.799842927 L 512 462.954368049 L 519 439.458243171 L 526 467.116018293 L 534 451.247443415 L 541 419.921468537 L 548 450.854893659 L 555 453.98991878 L 562 444.247043902 L 569 437.779819024 L 577 444.773944146 L 584 451.117419268 L 591 400.56349439 L 598 469.525819512 L 605 429.000794634 L 612 456.994919756 L 620 445.300094878"/>
			<path class="series-2-line" d="M 40 462.35 L 47 407.848170732 L 54 425.971341463 L 61 433.594512195 L 68 455.217682927 L 75 410.340853659 L 82 433.71402439 L 90 464.962195122 L 97 440.210365854 L 104 440.833536585 L 111 437.956707317 L 118 434.204878049 L 125 425.20304878 L 133 430.201219512 L 140 441.324390244 L 147 438.447560976 L 154 429.445731707 L 161 415.193902439 L 168 426.317073171 L 176 403.315243902 L 183 424.063414634 L 190 409.811585366 L 197 364.059756098 L 204 404.057926829 L 211 384.556097561 L 219 337.054268293 L 226 338.552439024 L 233 383.800609756 L 240 427.298780488 L 247 374.54695122 L 254 353.295121951 L 261 388.918292683 L 269 405.291463415 L 276 379.664634146 L 283 369.787804878 L 290 356.41097561 L 297 364.909146341 L 304 322.657317073 L 312 367.030487805 L 319 386.028658537 L 326 381.401829268 L 333 386.4 L 340 345.898170732 L 347 367.521341463 L 355 353.269512195 L 362 369.642682927 L 369 363.265853659 L 376 386.63902439 L 383 363.637195122 L 390 366.885365854 L 398 378.883536585 L 405 388.256707317 L 412 396.754878049 L 419 371.12804878 L 426 436.501219512 L 433 430.124390244 L 440 423.747560976 L 448 396.370731707 L 455 423.243902439 L 462 401.992073171 L 469 404.365243902 L 476 449.613414634 L 483 441.486585366 L 491 448.234756098 L 498 432.232926829 L 505 432.856097561 L 512 439.604268293 L 519 445.477439024 L 526 456.600609756 L 534 398.598780488 L 541 431.59695122 L 548 443.595121951 L 555 424.093292683 L 562 434.341463415 L 569 445.464634146 L 577 438.212804878 L 584 430.08597561 L 591 425.459146341 L 598 442.707317073 L 605 443.330487805 L 612 436.078658537 L 620 443.701829268"/>
		</g>
		<text class="x-axis-label" x="40.0" y="540">
			0
		</text>
		<path class="x-notch" d="M 75.8024691358 525 L 75.8024691358 530"/>
		<text class="x-axis-label" x="111.604938272" y="540">
			10
		</text>
		<path class="x-notch" d="M 147.407407407 525 L 147.407407407 530"/>
		<text class="x-axis-label" x="183.209876543" y="540">
			20
		</text>
		<path class="x-notch" d="M 219.012345679 525 L 219.012345679 530"/>
		<text class="x-axis-label" x="254.814814815" y="540">
			30
		</text>
		<path class="x-notch" d="M 290.617283951 525 L 290.617283951 530"/>
		<text class="x-axis-label" x="326.419753086" y="540">
			40
		</text>
		<path class="x-notch" d="M 362.222222222 525 L 362.222222222 530"/>
		<text class="x-axis-label" x="398.024691358" y="540">
			50
		</text>
		<path class="x-notch" d="M 433.827160494 525 L 433.827160494 530"/>
		<text class="x-axis-label" x="469.62962963" y="540">
			60
		</text>
		<path class="x-notch" d="M 505.432098765 525 L 505.432098765 530"/>
		<text class="x-axis-label" x="541.234567901" y="540">
			70
		</text>
		<path class="x-notch" d="M 577.037037037 525 L 577.037037037 530"/>
		<text class="x-axis-label" x="612.839506173" y="540">
			80
		</text>
		<path class="x-notch" d="M 648.641975309 525 L 648.641975309 530"/>
	</g>
</svg>
