<?xml version="1.0" ?>
<svg height="600" version="1.1" width="800" xmlns="http://www.w3.org/2000/svg" xmlns:svg="http://www.w3.org/2000/svg">
	<style type="text/css">
		

.x-axis-path, .y-gridline, .x-notch { fill:none; stroke: #a7a9ac; stroke-width:1; }



.y-gridline { stroke-width: 1; }

.y-axis-path, .y-axis-path2, .x-notch-left, .x-notch-right { display: none;}



.x-axis-label, .data-point-label {font-size: 12px; font-weight:normal; font-family: sans-serif; fill: #58595b; text-anchor:middle;}

.y-axis-label {font-size: 12px; font-family: helvetica; fill: #a7a9ac; text-anchor:end;}



.series-1-line { fill: none; stroke: #10b80c; stroke-width:2; }



.series-2-line { fill: none; stroke: #e90f0a; stroke-width: 2;}

	</style>
	<rect fill="white" height="600" width="800" x="0" y="0"/>
	<g id="grid" transform="translate(70, 30)">
		<g class="x-axis" id="x_axis">
			<path class="x-axis-path" d="M 0 525 L 660 525"/>
			<path class="x-notch-left" d="M 0 525, L 0 535"/>
			<path class="x-notch-right" d="M 660 525, L 660 535"/>
		</g>
		<g class="y-axis" id="y_axis">
			<path class="y-axis-path" d="M 0 525 L 0 0"/>
			<path class="y-axis-path-2" d="M 660 525 L 660 0"/>
			<path class="y-gridline" d="M 0 525 L 660 525"/>
			<text class="y-axis-label" x="-5" y="525">
				-200
			</text>
			<path class="y-gridline" d="M 0 394 L 660 394"/>
			<text class="y-axis-label" x="-5" y="394">
				 0
			</text>
			<path class="y-gridline" d="M 0 263 L 660 263"/>
			<text class="y-axis-label" x="-5" y="263">
				200
			</text>
			<path class="y-gridline" d="M 0 132 L 660 132"/>
			<text class="y-axis-label" x="-5" y="132">
				400
			</text>
			<path class="y-gridline" d="M 0 1 L 660 1"/>
			<text class="y-axis-label" x="-5" y="1">
				600
			</text>
		</g>
		<g>
			<path class="series-1-line" d="M 40 397.922855653 L 45 377.191332242 L 51 402.979584802 L 57 407.551079738 L 63 380.10544948 L 69 387.144549922 L 75 387.069066969 L 81 384.269243542 L 87 407.733882165 L 93 413.315067977 L 99 381.109716432 L 105 373.935149174 L 111 389.243265413 L 116 388.879299352 L 122 393.835271774 L 128 390.907455843 L 134 391.616926925 L 140 390.323515289 L 146 390.215784224 L 152 380.589360538 L 158 374.408485094 L 164 399.075053336 L 170 385.698849224 L 176 389.324899522 L 182 389.137173141 L 187 376.129447452 L 193 379.354771215 L 199 379.760010112 L 205 375.998742984 L 211 383.022094349 L 217 317.886171097 L 223 283.757932149 L 229 298.312842493 L 235 229.619627543 L 241 240.777236821 L 247 215.35073833 L 253 201.237327386 L 258 184.752305315 L 264 179.885102947 L 270 165.146978584 L 276 113.503765249 L 282 119.950150399 L 288 96.8630149234 L 294 75.4105337288 L 300 58.3807935546 L 306 3.32428008974 L 312 31.9648656276 L 318 0.0 L 324 49.6811034818 L 330 13.5337327664 L 335 63.5833146715 L 341 50.8160749008 L 347 39.8757281539 L 353 76.4328501283 L 359 93.102886618 L 365 69.4070367869 L 371 86.3495573208 L 377 86.6583018681 L 383 84.3874474674 L 389 104.422786897 L 395 166.330674423 L 401 205.86812188 L 406 194.334809855 L 412 211.517816307 L 418 201.362923567 L 424 228.417101999 L 430 212.492797095 L 436 282.910186335 L 442 305.73386249 L 448 235.854466999 L 454 114.728072346 L 460 285.091609104 L 466 311.93754973 L 472 324.31308769 L 477 329.173065733 L 483 330.379507715 L 489 371.791845386 L 495 345.355656019 L 501 373.195038472 L 507 378.32750056 L 513 382.995239861 L 519 371.045202238 L 525 385.487869154 L 531 354.196214105 L 537 349.8419817 L 543 346.593434549 L 548 361.885551725 L 554 383.651539814 L 560 384.745738368 L 566 386.833628735 L 572 400.346850076 L 578 389.518746757 L 584 396.862579355 L 590 385.313268267 L 596 391.871896844 L 602 399.375970059 L 608 393.835807097 L 614 400.089953503 L 620 388.075919627"/>
			<path class="series-2-line" d="M 40 395.999868256 L 45 390.343633808 L 51 390.937033404 L 57 386.530725765 L 63 404.623100685 L 69 380.842927508 L 75 394.560558597 L 81 394.528994789 L 87 391.997577363 L 93 400.715501217 L 99 381.310071871 L 105 381.278508063 L 111 383.746797872 L 116 393.714648535 L 122 378.058999616 L 128 398.026264749 L 134 386.745359661 L 140 395.463283515 L 146 389.807049067 L 152 382.275924405 L 158 397.868445708 L 164 402.836589135 L 170 395.305464473 L 176 392.149083643 L 182 398.992117283 L 187 382.71150496 L 193 368.930746254 L 199 380.77348713 L 205 384.491703748 L 211 387.584956962 L 217 386.928429749 L 223 375.022561257 L 229 373.116107235 L 235 391.208482155 L 241 383.05239409 L 247 403.019659223 L 253 388.613937113 L 258 378.582958834 L 264 359.802492893 L 270 369.770343555 L 276 360.364328681 L 282 355.958021041 L 288 352.176676807 L 294 361.519564065 L 300 363.36289047 L 306 350.207095168 L 312 344.55086072 L 318 336.394772655 L 324 338.863062464 L 330 325.082303758 L 335 318.801105906 L 341 313.769834862 L 347 316.238124672 L 353 343.079987253 L 359 328.049301739 L 365 346.141676659 L 371 337.360625189 L 377 315.455342226 L 383 330.422900123 L 389 326.641555889 L 395 322.860211654 L 401 323.45361125 L 406 320.922193824 L 412 323.390483633 L 418 349.607382811 L 424 347.700928789 L 430 323.295792208 L 436 357.012252239 L 442 356.98068843 L 448 340.700076107 L 454 324.419463784 L 460 365.635484667 L 466 371.853554903 L 472 368.697174073 L 477 368.04064686 L 483 376.758570714 L 489 377.35197031 L 495 384.19500395 L 501 381.663586524 L 507 387.256693356 L 513 392.224836783 L 519 381.568895099 L 525 372.787843629 L 531 381.505767483 L 537 380.224276866 L 543 377.067896035 L 548 382.036039462 L 554 376.379805014 L 560 378.223131419 L 566 395.690542935 L 572 385.659564656 L 578 395.002451914 L 584 396.845778318 L 590 396.81421451 L 596 399.28250432 L 602 400.50086732 L 608 389.219962232 L 614 390.438325233 L 620 389.78179802"/>
		</g>
		<text class="x-axis-label" x="40.0" y="540">
			0
		</text>
		<path class="x-notch" d="M 69.5918367347 525 L 69.5918367347 530"/>
		<text class="x-axis-label" x="99.1836734694" y="540">
			10
		</text>
		<path class="x-notch" d="M 128.775510204 525 L 128.775510204 530"/>
		<text class="x-axis-label" x="158.367346939" y="540">
			20
		</text>
		<path class="x-notch" d="M 187.959183673 525 L 187.959183673 530"/>
		<text class="x-axis-label" x="217.551020408" y="540">
			30
		</text>
		<path class="x-notch" d="M 247.142857143 525 L 247.142857143 530"/>
		<text class="x-axis-label" x="276.734693878" y="540">
			40
		</text>
		<path class="x-notch" d="M 306.326530612 525 L 306.326530612 530"/>
		<text class="x-axis-label" x="335.918367347" y="540">
			50
		</text>
		<path class="x-notch" d="M 365.510204082 525 L 365.510204082 530"/>
		<text class="x-axis-label" x="395.102040816" y="540">
			60
		</text>
		<path class="x-notch" d="M 424.693877551 525 L 424.693877551 530"/>
		<text class="x-axis-label" x="454.285714286" y="540">
			70
		</text>
		<path class="x-notch" d="M 483.87755102 525 L 483.87755102 530"/>
		<text class="x-axis-label" x="513.469387755" y="540">
			80
		</text>
		<path class="x-notch" d="M 543.06122449 525 L 543.06122449 530"/>
		<text class="x-axis-label" x="572.653061224" y="540">
			90
		</text>
		<path class="x-notch" d="M 602.244897959 525 L 602.244897959 530"/>
	</g>
</svg>
