<?xml version="1.0" ?>
<svg height="600" version="1.1" width="800" xmlns="http://www.w3.org/2000/svg" xmlns:svg="http://www.w3.org/2000/svg">
	<style type="text/css">
		

.x-axis-path, .y-gridline, .x-notch { fill:none; stroke: #a7a9ac; stroke-width:1; }



.y-gridline { stroke-width: 1; }

.y-axis-path, .y-axis-path2, .x-notch-left, .x-notch-right { display: none;}



.x-axis-label, .data-point-label {font-size: 12px; font-weight:normal; font-family: sans-serif; fill: #58595b; text-anchor:middle;}

.y-axis-label {font-size: 12px; font-family: helvetica; fill: #a7a9ac; text-anchor:end;}



.series-1-line { fill: none; stroke: #10b80c; stroke-width:2; }



.series-2-line { fill: none; stroke: #e90f0a; stroke-width: 2;}

	</style>
	<rect fill="white" height="600" width="800" x="0" y="0"/>
	<g id="grid" transform="translate(70, 30)">
		<g class="x-axis" id="x_axis">
			<path class="x-axis-path" d="M 0 525 L 660 525"/>
			<path class="x-notch-left" d="M 0 525, L 0 535"/>
			<path class="x-notch-right" d="M 660 525, L 660 535"/>
		</g>
		<g class="y-axis" id="y_axis">
			<path class="y-axis-path" d="M 0 525 L 0 0"/>
			<path class="y-axis-path-2" d="M 660 525 L 660 0"/>
			<path class="y-gridline" d="M 0 525 L 660 525"/>
			<text class="y-axis-label" x="-5" y="525">
				-200
			</text>
			<path class="y-gridline" d="M 0 394 L 660 394"/>
			<text class="y-axis-label" x="-5" y="394">
				 0
			</text>
			<path class="y-gridline" d="M 0 263 L 660 263"/>
			<text class="y-axis-label" x="-5" y="263">
				200
			</text>
			<path class="y-gridline" d="M 0 132 L 660 132"/>
			<text class="y-axis-label" x="-5" y="132">
				400
			</text>
			<path class="y-gridline" d="M 0 1 L 660 1"/>
			<text class="y-axis-label" x="-5" y="1">
				600
			</text>
		</g>
		<g>
			<path class="series-1-line" d="M 40 407.542679508 L 45 411.305305376 L 51 385.41417125 L 57 370.153174032 L 63 390.769104806 L 69 405.538443007 L 75 384.984660926 L 81 384.118518414 L 87 376.387302272 L 93 411.88556291 L 99 383.691100019 L 105 404.307030793 L 111 388.31533906 L 117 396.839398411 L 123 358.014798612 L 129 374.688779303 L 135 356.127737633 L 141 372.403032048 L 147 348.128753872 L 153 359.57593677 L 159 354.746078805 L 165 313.08645338 L 171 289.697991156 L 177 299.307209598 L 183 292.727485097 L 189 265.97264587 L 195 214.081569811 L 201 171.403463331 L 207 182.252962298 L 213 211.483833237 L 219 170.976044936 L 225 215.952950842 L 231 191.013965219 L 237 182.175479137 L 243 152.940078858 L 249 124.767726817 L 255 216.761283633 L 261 155.037443216 L 267 140.263575675 L 273 136.607320203 L 279 145.773630668 L 285 132.062811367 L 291 143.820237137 L 297 127.49619168 L 303 153.139231627 L 309 143.725172465 L 315 149.923792202 L 321 66.0314056833 L 327 118.13940639 L 332 80.0455011061 L 338 67.4419517449 L 344 26.7351657882 L 350 90.580573343 L 356 0.0 L 362 21.2139601865 L 368 43.3137363251 L 374 77.0182542087 L 380 85.0994055845 L 386 67.6459793368 L 392 86.5566107584 L 398 62.3262088016 L 404 95.5878187091 L 410 115.118590394 L 416 131.593227947 L 422 87.453386952 L 428 120.980672549 L 434 110.392665413 L 440 161.349174477 L 446 229.291653552 L 452 197.664481105 L 458 283.811445347 L 464 352.839083512 L 470 410.528001103 L 476 386.96196111 L 482 391.854313251 L 488 390.036022234 L 494 408.016616002 L 500 407.017808386 L 506 396.119558377 L 512 399.616508556 L 518 363.670810601 L 524 358.863063487 L 530 380.320588512 L 536 355.38160289 L 542 402.196473251 L 548 422.746071474 L 554 393.732125182 L 560 410.716348745 L 566 417.291543906 L 572 405.352356509 L 578 391.486761253 L 584 420.296835067 L 590 399.233466977 L 596 378.989582287 L 602 398.121667696 L 608 399.448299696 L 614 399.822437709 L 620 397.716360152"/>
			<path class="series-2-line" d="M 40 391.158884695 L 45 388.439094957 L 51 396.947471539 L 57 397.682502207 L 63 393.235302266 L 69 391.379217629 L 75 409.388350329 L 81 387.667048356 L 87 392.720604532 L 93 390.864519895 L 99 388.144730157 L 105 383.697530216 L 111 397.388137408 L 117 392.940937466 L 123 397.994493642 L 129 402.184344717 L 135 378.73563254 L 141 377.743253005 L 147 403.525731619 L 153 380.940724544 L 159 404.995792955 L 165 380.683375677 L 171 403.011033885 L 177 397.700128842 L 183 391.525518698 L 189 400.03389528 L 195 388.677054526 L 201 388.548380092 L 207 391.874526065 L 213 390.88214653 L 219 389.026061893 L 225 390.624797663 L 231 385.31389262 L 237 394.685974304 L 243 385.920248855 L 249 379.74563871 L 255 389.981425496 L 261 396.762391875 L 267 388.860371527 L 273 398.232453211 L 279 394.648958371 L 285 389.338053328 L 291 385.754558488 L 297 383.898473851 L 303 369.950517793 L 309 401.778932118 L 315 389.558386262 L 321 385.111186321 L 327 385.846216989 L 332 377.944196641 L 338 368.31476609 L 344 397.55206511 L 350 386.195224356 L 356 380.884319313 L 362 384.210465286 L 368 384.081790853 L 374 392.590167435 L 380 389.870377697 L 386 395.787638974 L 392 387.885618627 L 398 373.073957466 L 404 383.309744252 L 410 379.726249412 L 416 381.324985181 L 422 373.422964834 L 428 375.885405705 L 434 388.712307795 L 440 400.675504784 L 446 390.182369131 L 452 384.007758987 L 458 396.834661077 L 464 385.477820323 L 470 391.395081601 L 476 373.992305135 L 482 397.183668445 L 488 389.281648097 L 494 391.744088968 L 500 390.751709433 L 506 384.577099288 L 512 389.630655464 L 518 383.45604532 L 524 404.056293324 L 530 403.063913789 L 536 397.753008746 L 542 382.077642484 L 548 387.994903762 L 554 378.365473211 L 560 401.55683652 L 566 397.97334168 L 572 385.752795825 L 578 404.625633626 L 584 401.905843888 L 590 398.322349048 L 596 401.648495021 L 602 392.882769571 L 608 399.663735951 L 614 386.579484993 L 620 389.905630966"/>
		</g>
		<text class="x-axis-label" x="40.0" y="540">
			0
		</text>
		<path class="x-notch" d="M 69.8969072165 525 L 69.8969072165 530"/>
		<text class="x-axis-label" x="99.793814433" y="540">
			10
		</text>
		<path class="x-notch" d="M 129.690721649 525 L 129.690721649 530"/>
		<text class="x-axis-label" x="159.587628866" y="540">
			20
		</text>
		<path class="x-notch" d="M 189.484536082 525 L 189.484536082 530"/>
		<text class="x-axis-label" x="219.381443299" y="540">
			30
		</text>
		<path class="x-notch" d="M 249.278350515 525 L 249.278350515 530"/>
		<text class="x-axis-label" x="279.175257732" y="540">
			40
		</text>
		<path class="x-notch" d="M 309.072164948 525 L 309.072164948 530"/>
		<text class="x-axis-label" x="338.969072165" y="540">
			50
		</text>
		<path class="x-notch" d="M 368.865979381 525 L 368.865979381 530"/>
		<text class="x-axis-label" x="398.762886598" y="540">
			60
		</text>
		<path class="x-notch" d="M 428.659793814 525 L 428.659793814 530"/>
		<text class="x-axis-label" x="458.556701031" y="540">
			70
		</text>
		<path class="x-notch" d="M 488.453608247 525 L 488.453608247 530"/>
		<text class="x-axis-label" x="518.350515464" y="540">
			80
		</text>
		<path class="x-notch" d="M 548.24742268 525 L 548.24742268 530"/>
		<text class="x-axis-label" x="578.144329897" y="540">
			90
		</text>
		<path class="x-notch" d="M 608.041237113 525 L 608.041237113 530"/>
	</g>
</svg>
