<?xml version="1.0" ?>
<svg height="600" version="1.1" width="800" xmlns="http://www.w3.org/2000/svg" xmlns:svg="http://www.w3.org/2000/svg">
	<style type="text/css">

.x-axis-path, .y-gridline, .x-notch { fill:none; stroke: #a7a9ac; stroke-width:1; }



.y-gridline { stroke-width: 1; }

.y-axis-path, .y-axis-path2, .x-notch-left, .x-notch-right { display: none;}



.x-axis-label, .data-point-label {font-size: 12px; font-weight:normal; font-family: sans-serif; fill: #58595b; text-anchor:middle;}

.y-axis-label {font-size: 12px; font-family: helvetica; fill: #a7a9ac; text-anchor:end;}



.series-1-line { fill: none; stroke: #10b80c; stroke-width:2; }



.series-2-line { fill: none; stroke: #e90f0a; stroke-width: 2;}
</style>
	<rect fill="white" height="600" width="800" x="0" y="0"/>
	<g id="grid" transform="translate(70, 30)">
		<g class="x-axis" id="x_axis">
			<path class="x-axis-path" d="M 0 525 L 660 525"/>
			<path class="x-notch-left" d="M 0 525, L 0 535"/>
			<path class="x-notch-right" d="M 660 525, L 660 535"/>
		</g>
		<g class="y-axis" id="y_axis">
			<path class="y-axis-path" d="M 0 525 L 0 0"/>
			<path class="y-axis-path-2" d="M 660 525 L 660 0"/>
			<path class="y-gridline" d="M 0 525 L 660 525"/>
			<text class="y-axis-label" x="-5" y="525">-200</text>
			<path class="y-gridline" d="M 0 394 L 660 394"/>
			<text class="y-axis-label" x="-5" y="394"> 0</text>
			<path class="y-gridline" d="M 0 263 L 660 263"/>
			<text class="y-axis-label" x="-5" y="263">200</text>
			<path class="y-gridline" d="M 0 132 L 660 132"/>
			<text class="y-axis-label" x="-5" y="132">400</text>
			<path class="y-gridline" d="M 0 1 L 660 1"/>
			<text class="y-axis-label" x="-5" y="1">600</text>
		</g>
		<g>
			<path class="series-1-line" d="M 40 394.863877105 L 44 409.254252536 L 48 407.455886674 L 53 368.803215868 L 57 385.31782067 L 62 331.853754596 L 66 366.336545786 L 71 402.426837702 L 75 387.827571909 L 80 402.849305564 L 84 365.80323994 L 89 414.466068174 L 93 378.79824412 L 98 369.537313606 L 102 405.7422351 L 107 337.237514602 L 111 319.939976002 L 116 319.23238222 L 120 371.798884919 L 125 322.122968188 L 129 293.34366535 L 134 322.488121261 L 138 287.049556363 L 143 276.985323258 L 147 254.291239046 L 152 267.533527608 L 156 223.771780678 L 161 117.148247702 L 165 234.584345154 L 170 169.294626107 L 174 169.218390549 L 179 123.504358616 L 183 142.429766736 L 188 78.5756040477 L 192 92.965979479 L 197 75.553811301 L 201 124.101114413 L 206 50.6019473699 L 210 70.560812781 L 215 163.139307086 L 219 150.836215031 L 224 35.8895000232 L 228 91.6127938412 L 233 142.743740181 L 237 113.907122555 L 242 147.069882508 L 246 51.6415398235 L 251 123.668204513 L 255 23.1881004949 L 260 21.0458458977 L 264 90.7190220598 L 269 94.8912452445 L 273 122.14073094 L 278 153.695990167 L 282 0.0 L 287 125.587335117 L 291 32.9718948166 L 296 51.4960994128 L 300 62.0974299576 L 305 156.628209267 L 309 20.3263620524 L 314 58.8274572853 L 318 143.139188804 L 323 121.248407183 L 327 117.72880656 L 332 187.401982722 L 336 80.3199314328 L 341 122.954855831 L 345 182.581824113 L 350 134.169519374 L 354 132.715937789 L 359 199.748155934 L 363 216.09081637 L 368 113.831267258 L 372 141.654796388 L 377 164.599404094 L 381 200.344911732 L 386 96.0757628268 L 390 194.682160968 L 395 267.68496816 L 399 123.403827649 L 404 243.823876309 L 408 221.991305021 L 413 168.010510302 L 417 205.134259509 L 422 270.215088193 L 426 233.054392991 L 431 230.969453183 L 435 222.683769628 L 440 149.357442495 L 444 338.723600285 L 449 224.293613922 L 453 245.859980059 L 458 268.976532133 L 462 321.944238356 L 467 275.082119553 L 471 266.797331541 L 476 320.28176641 L 480 284.211843288 L 485 308.820370966 L 489 253.060131153 L 494 255.682168401 L 498 259.56781764 L 503 267.64371529 L 507 281.86125081 L 512 218.983230624 L 516 241.468424474 L 521 251.094508061 L 525 262.327196829 L 530 300.541718117 L 534 336.632010033 L 539 343.043092167 L 543 319.717649731 L 548 297.654923743 L 552 309.46255149 L 557 399.916816423 L 561 376.591373987 L 566 368.937944199 L 570 347.965990291 L 575 353.286300345 L 579 384.956189151 L 584 395.673044817 L 588 430.959138599 L 593 385.130477087 L 597 345.099564711 L 602 412.074468067 L 606 383.639949508 L 611 378.914051683 L 615 398.069614503 L 620 400.634336961"/>
			<path class="series-2-line" d="M 40 412.108643388 L 44 389.420391231 L 48 360.015562225 L 53 404.49307856 L 57 399.715698001 L 62 397.177176392 L 66 383.444360034 L 71 380.905838425 L 75 427.62221371 L 80 393.739666805 L 84 362.095978849 L 89 406.573495184 L 93 421.945845173 L 98 421.646182514 L 102 401.196789307 L 107 387.463972949 L 111 418.508335586 L 116 393.581224479 L 120 440.297599764 L 125 370.593309663 L 129 359.099352255 L 134 392.382573841 L 138 371.933180634 L 143 409.694120121 L 147 409.394457461 L 152 391.183923204 L 156 446.855734288 L 161 354.762854689 L 165 410.434665773 L 170 419.090438913 L 174 382.969033057 L 179 393.863665147 L 183 362.219977191 L 188 408.936352476 L 192 386.248100319 L 197 435.203334554 L 201 410.276223448 L 206 389.82683024 L 210 371.616295983 L 215 375.794351223 L 219 413.555290709 L 224 397.583615402 L 228 388.328516943 L 233 396.984290083 L 237 394.445768474 L 242 412.056977412 L 246 407.279596853 L 251 386.830203646 L 255 384.291682037 L 260 408.619467825 L 264 406.080946216 L 269 405.781283556 L 273 385.331890349 L 278 391.748804539 L 282 395.926859779 L 287 402.343773969 L 291 395.32753446 L 296 426.371897097 L 300 383.533914392 L 305 432.489148627 L 309 429.950627018 L 314 400.545798012 L 318 384.574122704 L 323 346.213857899 L 327 410.841104783 L 332 408.302583173 L 336 387.853189966 L 341 412.180975754 L 345 405.164736245 L 350 400.387355686 L 354 404.565410926 L 359 377.39944087 L 363 399.488367708 L 368 412.621858747 L 372 389.93360659 L 377 429.933405026 L 381 393.811999171 L 386 371.123747014 L 390 395.451532802 L 395 397.390729092 L 399 417.24079698 L 404 356.491942678 L 408 396.491741114 L 413 387.236642655 L 417 398.131274745 L 422 413.503624734 L 426 399.770808376 L 431 415.143158364 L 435 349.916586162 L 440 389.916384598 L 444 400.811016688 L 449 391.555918229 L 453 384.539678721 L 458 397.67316976 L 462 381.701494452 L 467 397.073844441 L 471 419.162771279 L 476 409.90767282 L 480 400.652574362 L 485 355.575732708 L 489 361.992646897 L 494 341.54325369 L 498 386.020770026 L 503 387.959966316 L 507 304.822522516 L 512 373.927487299 L 516 398.255273087 L 521 420.344199925 L 525 366.311922471 L 530 381.68427246 L 534 379.145750851 L 539 378.846088191 L 543 389.740720281 L 548 378.246762873 L 552 409.29112551 L 557 395.558309152 L 561 406.452941241 L 566 417.34757333 L 570 410.331333822 L 575 405.553953263 L 579 394.059995855 L 584 420.626640592 L 588 368.833222089 L 593 397.638725776 L 597 395.100204167 L 602 376.889669909 L 606 398.978596747 L 611 389.723498289 L 615 409.573566177 L 620 398.079608769"/>
		</g>
		<text class="x-axis-label" x="40.0" y="540">0</text>
		<path class="x-notch" d="M 62.480620155 525 L 62.480620155 530"/>
		<text class="x-axis-label" x="84.9612403101" y="540">10</text>
		<path class="x-notch" d="M 107.441860465 525 L 107.441860465 530"/>
		<text class="x-axis-label" x="129.92248062" y="540">20</text>
		<path class="x-notch" d="M 152.403100775 525 L 152.403100775 530"/>
		<text class="x-axis-label" x="174.88372093" y="540">30</text>
		<path class="x-notch" d="M 197.364341085 525 L 197.364341085 530"/>
		<text class="x-axis-label" x="219.84496124" y="540">40</text>
		<path class="x-notch" d="M 242.325581395 525 L 242.325581395 530"/>
		<text class="x-axis-label" x="264.80620155" y="540">50</text>
		<path class="x-notch" d="M 287.286821705 525 L 287.286821705 530"/>
		<text class="x-axis-label" x="309.76744186" y="540">60</text>
		<path class="x-notch" d="M 332.248062016 525 L 332.248062016 530"/>
		<text class="x-axis-label" x="354.728682171" y="540">70</text>
		<path class="x-notch" d="M 377.209302326 525 L 377.209302326 530"/>
		<text class="x-axis-label" x="399.689922481" y="540">80</text>
		<path class="x-notch" d="M 422.170542636 525 L 422.170542636 530"/>
		<text class="x-axis-label" x="444.651162791" y="540">90</text>
		<path class="x-notch" d="M 467.131782946 525 L 467.131782946 530"/>
		<text class="x-axis-label" x="489.612403101" y="540">100</text>
		<path class="x-notch" d="M 512.093023256 525 L 512.093023256 530"/>
		<text class="x-axis-label" x="534.573643411" y="540">110</text>
		<path class="x-notch" d="M 557.054263566 525 L 557.054263566 530"/>
		<text class="x-axis-label" x="579.534883721" y="540">120</text>
		<path class="x-notch" d="M 602.015503876 525 L 602.015503876 530"/>
	</g>
</svg>
