<?xml version="1.0" ?>
<svg height="600" version="1.1" width="800" xmlns="http://www.w3.org/2000/svg" xmlns:svg="http://www.w3.org/2000/svg">
	<style type="text/css">
		

.x-axis-path, .y-gridline, .x-notch { fill:none; stroke: #a7a9ac; stroke-width:1; }



.y-gridline { stroke-width: 1; }

.y-axis-path, .y-axis-path2, .x-notch-left, .x-notch-right { display: none;}



.x-axis-label, .data-point-label {font-size: 12px; font-weight:normal; font-family: sans-serif; fill: #58595b; text-anchor:middle;}

.y-axis-label {font-size: 12px; font-family: helvetica; fill: #a7a9ac; text-anchor:end;}



.series-1-line { fill: none; stroke: #10b80c; stroke-width:2; }



.series-2-line { fill: none; stroke: #e90f0a; stroke-width: 2;}

	</style>
	<rect fill="white" height="600" width="800" x="0" y="0"/>
	<g id="grid" transform="translate(70, 30)">
		<g class="x-axis" id="x_axis">
			<path class="x-axis-path" d="M 0 525 L 660 525"/>
			<path class="x-notch-left" d="M 0 525, L 0 535"/>
			<path class="x-notch-right" d="M 660 525, L 660 535"/>
		</g>
		<g class="y-axis" id="y_axis">
			<path class="y-axis-path" d="M 0 525 L 0 0"/>
			<path class="y-axis-path-2" d="M 660 525 L 660 0"/>
			<path class="y-gridline" d="M 0 525 L 660 525"/>
			<text class="y-axis-label" x="-5" y="525">
				-100
			</text>
			<path class="y-gridline" d="M 0 420 L 660 420"/>
			<text class="y-axis-label" x="-5" y="420">
				 0
			</text>
			<path class="y-gridline" d="M 0 315 L 660 315"/>
			<text class="y-axis-label" x="-5" y="315">
				100
			</text>
			<path class="y-gridline" d="M 0 210 L 660 210"/>
			<text class="y-axis-label" x="-5" y="210">
				200
			</text>
			<path class="y-gridline" d="M 0 105 L 660 105"/>
			<text class="y-axis-label" x="-5" y="105">
				300
			</text>
			<path class="y-gridline" d="M 0 0 L 660 0"/>
			<text class="y-axis-label" x="-5" y="0">
				400
			</text>
		</g>
		<g>
			<path class="series-1-line" d="M 40 419.628384 L 45 386.451799745 L 50 451.005435491 L 55 410.183171236 L 61 440.463966982 L 66 427.722062727 L 71 427.229878473 L 77 406.114854218 L 82 393.453169964 L 87 376.699425709 L 93 384.688301455 L 98 412.7884572 L 103 432.489032945 L 109 416.273308691 L 114 422.216364436 L 119 437.042840182 L 125 394.470855927 L 130 431.670731673 L 135 437.478547418 L 141 397.571043164 L 146 418.967578909 L 151 408.406314655 L 157 406.3794504 L 162 428.799106145 L 167 467.560541891 L 173 366.241897636 L 178 446.680353382 L 183 402.141929127 L 188 417.023004873 L 194 360.854360618 L 199 407.315656364 L 204 386.631132109 L 210 382.127947855 L 215 308.7548436 L 220 317.308619345 L 226 226.543735091 L 231 297.559070836 L 236 238.509226582 L 242 137.513142327 L 247 121.351598073 L 252 180.413733818 L 258 168.425309564 L 263 117.155965309 L 268 108.425481055 L 274 120.6676968 L 279 168.367152545 L 284 41.4982282909 L 290 57.0798640364 L 295 94.2524397818 L 300 87.7298955273 L 306 47.1491312727 L 311 75.5722670182 L 316 84.1268827636 L 322 154.631078509 L 327 132.680674255 L 332 61.11189 L 337 106.550065745 L 343 10.0505014909 L 348 107.289377236 L 353 107.523372982 L 359 68.0467887273 L 364 72.9927644727 L 369 35.1579602182 L 375 69.7466959636 L 380 135.782511709 L 385 270.336287455 L 391 258.6448032 L 396 258.018218945 L 401 247.672414691 L 407 311.257530436 L 412 303.980666182 L 417 370.473021927 L 423 419.169137673 L 428 368.142973418 L 433 441.015969164 L 439 378.789244909 L 444 466.281600655 L 449 466.3551564 L 455 442.439152145 L 460 423.478307891 L 465 434.186683636 L 471 433.182939382 L 476 401.916935127 L 481 439.037010873 L 486 454.267946618 L 492 463.682722364 L 497 424.555998109 L 502 446.921473855 L 508 440.6148096 L 513 458.860925345 L 518 483.327661091 L 524 443.635616836 L 529 476.043712582 L 534 487.936068327 L 540 440.947364073 L 545 490.047939818 L 550 433.205615564 L 556 476.301871309 L 561 428.775567055 L 566 464.7910428 L 572 494.641338545 L 577 436.506674291 L 582 459.895270036 L 588 453.103085782 L 593 440.738341527 L 598 421.157577273 L 604 421.499933018 L 609 419.903988764 L 614 393.888824509 L 620 431.950540255"/>
			<path class="series-2-line" d="M 40 412.44 L 45 425.702454545 L 50 385.414909091 L 55 444.877363636 L 61 427.689818182 L 66 447.252272727 L 71 439.514727273 L 77 454.877181818 L 82 420.889636364 L 87 411.052090909 L 93 431.664545455 L 98 427.077 L 103 463.439454545 L 109 410.551909091 L 114 463.714363636 L 119 400.326818182 L 125 487.089272727 L 130 455.201727273 L 135 447.464181818 L 141 446.026636364 L 146 463.489090909 L 151 470.451545455 L 157 456.414 L 162 478.076454545 L 167 448.288909091 L 173 485.701363636 L 178 465.363818182 L 183 449.226272727 L 188 459.338727273 L 194 496.751181818 L 199 453.313636364 L 204 442.426090909 L 210 487.188545455 L 215 464.751 L 220 438.113454545 L 226 467.125909091 L 231 442.588363636 L 236 438.000818182 L 242 425.013272727 L 247 404.675727273 L 252 443.138181818 L 258 427.000636364 L 263 396.163090909 L 268 404.175545455 L 274 375.438 L 279 302.600454545 L 284 312.712909091 L 290 377.425363636 L 295 308.787818182 L 300 340.950272727 L 306 321.662727273 L 311 307.625181818 L 316 362.887636364 L 322 377.200090909 L 327 318.012545455 L 332 341.775 L 337 294.137454545 L 343 316.849909091 L 348 337.462363636 L 353 257.274818182 L 359 270.537272727 L 364 233.399727273 L 369 195.212181818 L 375 202.174636364 L 380 299.437090909 L 385 272.799545455 L 391 333.312 L 396 346.574454545 L 401 360.886909091 L 407 389.899363636 L 412 375.861818182 L 417 360.774272727 L 423 337.286727273 L 428 391.499181818 L 433 363.811636364 L 439 363.424090909 L 444 348.336545455 L 449 375.249 L 455 295.061454545 L 460 342.973909091 L 465 389.836363636 L 471 379.998818182 L 476 299.811272727 L 481 362.423727273 L 486 358.886181818 L 492 279.748636364 L 497 279.361090909 L 502 268.473545455 L 508 348.936 L 513 325.448454545 L 518 437.410909091 L 524 443.323363636 L 529 462.885818182 L 534 447.798272727 L 540 404.360727273 L 545 440.723181818 L 550 419.335636364 L 556 409.498090909 L 561 450.060545455 L 566 439.173 L 572 448.235454545 L 577 423.697909091 L 582 417.010363636 L 588 409.272818182 L 593 451.935272727 L 598 432.647727273 L 604 417.560181818 L 609 418.222636364 L 614 419.935090909 L 620 417.447545455"/>
		</g>
		<text class="x-axis-label" x="40.0" y="540">
			0
		</text>
		<path class="x-notch" d="M 66.6055045872 525 L 66.6055045872 530"/>
		<text class="x-axis-label" x="93.2110091743" y="540">
			10
		</text>
		<path class="x-notch" d="M 119.816513761 525 L 119.816513761 530"/>
		<text class="x-axis-label" x="146.422018349" y="540">
			20
		</text>
		<path class="x-notch" d="M 173.027522936 525 L 173.027522936 530"/>
		<text class="x-axis-label" x="199.633027523" y="540">
			30
		</text>
		<path class="x-notch" d="M 226.23853211 525 L 226.23853211 530"/>
		<text class="x-axis-label" x="252.844036697" y="540">
			40
		</text>
		<path class="x-notch" d="M 279.449541284 525 L 279.449541284 530"/>
		<text class="x-axis-label" x="306.055045872" y="540">
			50
		</text>
		<path class="x-notch" d="M 332.660550459 525 L 332.660550459 530"/>
		<text class="x-axis-label" x="359.266055046" y="540">
			60
		</text>
		<path class="x-notch" d="M 385.871559633 525 L 385.871559633 530"/>
		<text class="x-axis-label" x="412.47706422" y="540">
			70
		</text>
		<path class="x-notch" d="M 439.082568807 525 L 439.082568807 530"/>
		<text class="x-axis-label" x="465.688073394" y="540">
			80
		</text>
		<path class="x-notch" d="M 492.293577982 525 L 492.293577982 530"/>
		<text class="x-axis-label" x="518.899082569" y="540">
			90
		</text>
		<path class="x-notch" d="M 545.504587156 525 L 545.504587156 530"/>
		<text class="x-axis-label" x="572.110091743" y="540">
			100
		</text>
		<path class="x-notch" d="M 598.71559633 525 L 598.71559633 530"/>
	</g>
</svg>
