<?xml version="1.0" ?>
<svg height="600" version="1.1" width="800" xmlns="http://www.w3.org/2000/svg" xmlns:svg="http://www.w3.org/2000/svg">
	<style type="text/css">

.x-axis-path, .y-gridline, .x-notch { fill:none; stroke: #a7a9ac; stroke-width:1; }



.y-gridline { stroke-width: 1; }

.y-axis-path, .y-axis-path2, .x-notch-left, .x-notch-right { display: none;}



.x-axis-label, .data-point-label {font-size: 12px; font-weight:normal; font-family: sans-serif; fill: #58595b; text-anchor:middle;}

.y-axis-label {font-size: 12px; font-family: helvetica; fill: #a7a9ac; text-anchor:end;}



.series-1-line { fill: none; stroke: #10b80c; stroke-width:2; }



.series-2-line { fill: none; stroke: #e90f0a; stroke-width: 2;}
</style>
	<rect fill="white" height="600" width="800" x="0" y="0"/>
	<g id="grid" transform="translate(70, 30)">
		<g class="x-axis" id="x_axis">
			<path class="x-axis-path" d="M 0 525 L 660 525"/>
			<path class="x-notch-left" d="M 0 525, L 0 535"/>
			<path class="x-notch-right" d="M 660 525, L 660 535"/>
		</g>
		<g class="y-axis" id="y_axis">
			<path class="y-axis-path" d="M 0 525 L 0 0"/>
			<path class="y-axis-path-2" d="M 660 525 L 660 0"/>
			<path class="y-gridline" d="M 0 525 L 660 525"/>
			<text class="y-axis-label" x="-5" y="525">-200</text>
			<path class="y-gridline" d="M 0 394 L 660 394"/>
			<text class="y-axis-label" x="-5" y="394"> 0</text>
			<path class="y-gridline" d="M 0 263 L 660 263"/>
			<text class="y-axis-label" x="-5" y="263">200</text>
			<path class="y-gridline" d="M 0 132 L 660 132"/>
			<text class="y-axis-label" x="-5" y="132">400</text>
			<path class="y-gridline" d="M 0 1 L 660 1"/>
			<text class="y-axis-label" x="-5" y="1">600</text>
		</g>
		<g>
			<path class="series-1-line" d="M 40 383.255352155 L 47 390.950606862 L 55 397.510179998 L 62 398.351051197 L 70 393.422892057 L 78 399.540249431 L 85 419.873812684 L 93 403.217097509 L 101 403.8017015 L 108 390.189854684 L 116 392.322331431 L 123 383.389066232 L 131 388.229947936 L 139 382.402462573 L 146 382.821186657 L 154 393.290226208 L 162 357.954539883 L 169 343.227393715 L 177 364.767270768 L 185 356.788990928 L 192 370.584722215 L 200 346.706743588 L 207 288.491389141 L 215 297.45794557 L 223 253.66998815 L 230 246.244301628 L 238 208.83833059 L 246 199.714099676 L 253 175.821226351 L 261 159.74211191 L 268 140.889134231 L 276 149.664646552 L 284 133.077936461 L 291 130.516936894 L 299 90.0808354098 L 307 94.6907708924 L 314 67.4657183117 L 322 35.2358118229 L 330 65.7606414285 L 337 65.6666743079 L 345 52.3665186591 L 352 40.8451819886 L 360 22.9772926391 L 368 13.3105027301 L 375 58.5085702825 L 383 23.3839967111 L 391 32.9588055949 L 398 32.4627600053 L 406 52.168550909 L 413 53.0241600204 L 421 0.0 L 429 35.8463918417 L 436 62.928821422 L 444 52.3775999891 L 452 78.2641420584 L 459 92.592633196 L 467 141.63039726 L 475 137.606816684 L 482 317.415879592 L 490 401.423887381 L 497 412.239659838 L 505 404.120664293 L 513 401.89620652 L 520 391.244485069 L 528 405.939699364 L 536 403.298111638 L 543 404.415397086 L 551 401.954662358 L 558 403.182482148 L 566 399.289661347 L 574 400.597834117 L 581 403.398534079 L 589 395.334727311 L 597 398.61284156 L 604 400.453617394 L 612 389.761680256 L 620 392.477010077"/>
			<path class="series-2-line" d="M 40 392.18213699 L 47 393.434900259 L 55 396.059543661 L 62 396.528375425 L 70 387.394046251 L 78 390.214672531 L 85 384.216069377 L 93 400.951479872 L 101 403.184157522 L 108 380.527009885 L 116 393.538745731 L 123 382.444587794 L 131 378.013847651 L 139 386.909943095 L 146 384.439031714 L 154 373.344873778 L 162 361.27080146 L 169 367.423136636 L 177 387.294273151 L 185 395.406437089 L 192 385.096210658 L 200 397.128032122 L 207 392.501309103 L 215 386.502705949 L 223 385.991623332 L 230 376.661311282 L 238 374.190399901 L 246 362.31231046 L 253 391.982590788 L 261 379.712535594 L 268 372.146069431 L 276 357.720202598 L 284 340.550575497 L 291 359.637780507 L 299 363.634304043 L 307 379.977748785 L 314 363.788036066 L 322 371.704217128 L 330 380.992278324 L 337 366.762394367 L 345 356.648150812 L 352 336.538780567 L 360 343.475047248 L 368 347.471570785 L 375 322.462628633 L 383 315.680093974 L 391 329.475761325 L 398 309.170408203 L 406 340.01658579 L 413 307.560294339 L 421 318.612201422 L 429 315.553341413 L 436 311.514567022 L 444 315.903056311 L 452 322.643340116 L 459 320.956360241 L 467 339.063650869 L 475 334.044962097 L 482 397.816262898 L 490 402.59671794 L 497 390.914611374 L 505 398.046860932 L 513 402.827315973 L 520 407.607771015 L 528 394.553784316 L 536 395.610564709 L 543 398.82315674 L 551 394.588399473 L 558 395.841162742 L 566 401.013583537 L 574 397.366774899 L 581 397.835606662 L 589 396.344609663 L 597 398.77327019 L 604 388.463043758 L 612 391.871618666 L 620 398.023953842"/>
		</g>
		<text class="x-axis-label" x="40.0" y="540">0</text>
		<path class="x-notch" d="M 78.1578947368 525 L 78.1578947368 530"/>
		<text class="x-axis-label" x="116.315789474" y="540">10</text>
		<path class="x-notch" d="M 154.473684211 525 L 154.473684211 530"/>
		<text class="x-axis-label" x="192.631578947" y="540">20</text>
		<path class="x-notch" d="M 230.789473684 525 L 230.789473684 530"/>
		<text class="x-axis-label" x="268.947368421" y="540">30</text>
		<path class="x-notch" d="M 307.105263158 525 L 307.105263158 530"/>
		<text class="x-axis-label" x="345.263157895" y="540">40</text>
		<path class="x-notch" d="M 383.421052632 525 L 383.421052632 530"/>
		<text class="x-axis-label" x="421.578947368" y="540">50</text>
		<path class="x-notch" d="M 459.736842105 525 L 459.736842105 530"/>
		<text class="x-axis-label" x="497.894736842" y="540">60</text>
		<path class="x-notch" d="M 536.052631579 525 L 536.052631579 530"/>
		<text class="x-axis-label" x="574.210526316" y="540">70</text>
		<path class="x-notch" d="M 612.368421053 525 L 612.368421053 530"/>
	</g>
</svg>
