<?xml version="1.0" ?>
<svg height="600" version="1.1" width="800" xmlns="http://www.w3.org/2000/svg" xmlns:svg="http://www.w3.org/2000/svg">
	<style type="text/css">
		

.x-axis-path, .y-gridline, .x-notch { fill:none; stroke: #a7a9ac; stroke-width:1; }



.y-gridline { stroke-width: 1; }

.y-axis-path, .y-axis-path2, .x-notch-left, .x-notch-right { display: none;}



.x-axis-label, .data-point-label {font-size: 12px; font-weight:normal; font-family: sans-serif; fill: #58595b; text-anchor:middle;}

.y-axis-label {font-size: 12px; font-family: helvetica; fill: #a7a9ac; text-anchor:end;}



.series-1-line { fill: none; stroke: #10b80c; stroke-width:2; }



.series-2-line { fill: none; stroke: #e90f0a; stroke-width: 2;}

	</style>
	<rect fill="white" height="600" width="800" x="0" y="0"/>
	<g id="grid" transform="translate(70, 30)">
		<g class="x-axis" id="x_axis">
			<path class="x-axis-path" d="M 0 525 L 660 525"/>
			<path class="x-notch-left" d="M 0 525, L 0 535"/>
			<path class="x-notch-right" d="M 660 525, L 660 535"/>
		</g>
		<g class="y-axis" id="y_axis">
			<path class="y-axis-path" d="M 0 525 L 0 0"/>
			<path class="y-axis-path-2" d="M 660 525 L 660 0"/>
			<path class="y-gridline" d="M 0 525 L 660 525"/>
			<text class="y-axis-label" x="-5" y="525">
				-100
			</text>
			<path class="y-gridline" d="M 0 450 L 660 450"/>
			<text class="y-axis-label" x="-5" y="450">
				 0
			</text>
			<path class="y-gridline" d="M 0 375 L 660 375"/>
			<text class="y-axis-label" x="-5" y="375">
				100
			</text>
			<path class="y-gridline" d="M 0 300 L 660 300"/>
			<text class="y-axis-label" x="-5" y="300">
				200
			</text>
			<path class="y-gridline" d="M 0 225 L 660 225"/>
			<text class="y-axis-label" x="-5" y="225">
				300
			</text>
			<path class="y-gridline" d="M 0 150 L 660 150"/>
			<text class="y-axis-label" x="-5" y="150">
				400
			</text>
			<path class="y-gridline" d="M 0 75 L 660 75"/>
			<text class="y-axis-label" x="-5" y="75">
				500
			</text>
			<path class="y-gridline" d="M 0 0 L 660 0"/>
			<text class="y-axis-label" x="-5" y="0">
				600
			</text>
		</g>
		<g>
			<path class="series-1-line" d="M 40 464.2422 L 43 440.532714783 L 47 437.650729565 L 50 473.402144348 L 54 433.23135913 L 58 402.867873913 L 61 481.273588696 L 65 452.603003478 L 69 448.701318261 L 72 413.357233043 L 76 483.243547826 L 79 445.592162609 L 83 423.555777391 L 87 466.250692174 L 90 415.156306957 L 94 449.908421739 L 98 444.814236522 L 101 449.700751304 L 105 415.298666087 L 108 427.95518087 L 112 413.476695652 L 116 407.478610435 L 119 393.557225217 L 123 361.17504 L 127 344.311554783 L 130 374.909869565 L 134 354.854084348 L 137 341.74089913 L 141 308.300313913 L 145 286.456228696 L 148 319.343243478 L 152 291.652458261 L 156 336.116173043 L 159 279.618787826 L 163 267.120302609 L 166 254.545917391 L 170 221.086132174 L 174 259.665046957 L 177 187.031861739 L 181 231.071976522 L 185 241.017391304 L 188 235.499906087 L 192 224.34812087 L 195 208.312335652 L 199 251.640850435 L 203 196.873565217 L 206 218.60628 L 210 272.069994783 L 214 195.438109565 L 217 250.669124348 L 221 234.88383913 L 224 281.539353913 L 228 250.580068696 L 232 193.274783478 L 235 212.065398261 L 239 243.605713043 L 243 252.799627826 L 246 168.186242609 L 250 191.938257391 L 253 208.767472174 L 257 235.673086957 L 261 192.560201739 L 264 218.696916522 L 268 216.064231304 L 272 205.816046087 L 275 135.45326087 L 279 190.723875652 L 282 167.032990435 L 286 180.438905217 L 290 226.44042 L 293 169.883934783 L 297 136.636849565 L 301 99.6394643478 L 304 126.91047913 L 308 151.778493913 L 311 192.357208696 L 315 173.724023478 L 319 172.668738261 L 322 190.651453043 L 326 194.595967826 L 330 149.328782609 L 333 170.023197391 L 337 197.871712174 L 340 134.642926957 L 344 179.491241739 L 348 178.589256522 L 351 212.245171304 L 355 251.112386087 L 359 202.40270087 L 362 189.289215652 L 366 181.965430435 L 369 201.985745217 L 373 288.29616 L 377 249.625074783 L 380 212.531389565 L 384 274.186604348 L 388 263.53521913 L 391 242.288133913 L 395 256.097248696 L 398 334.580063478 L 402 301.178478261 L 406 283.930693043 L 409 335.241307826 L 413 311.146922609 L 417 268.822137391 L 420 296.382052174 L 424 325.383766957 L 427 334.904381739 L 431 313.849596522 L 435 311.659111304 L 438 348.122126087 L 442 328.35554087 L 446 311.357955652 L 449 381.359170435 L 453 360.841985217 L 456 388.7289 L 460 409.807914783 L 464 388.329229565 L 467 351.466844348 L 471 368.21835913 L 475 376.028673913 L 478 406.627288696 L 482 434.514503478 L 485 437.977218261 L 489 410.941333043 L 493 435.308647826 L 496 416.618762609 L 500 438.140577391 L 504 425.564992174 L 507 393.625306957 L 511 467.089121739 L 514 438.341736522 L 518 449.362651304 L 522 402.307166087 L 525 473.52068087 L 529 453.792195652 L 533 409.101910435 L 536 437.315825217 L 540 448.49064 L 543 456.089154783 L 547 436.379569565 L 551 432.689684348 L 554 458.11419913 L 558 444.635613913 L 562 412.887928696 L 565 451.794143478 L 569 467.525658261 L 572 446.124073043 L 576 423.415387826 L 580 456.301802609 L 583 442.841817391 L 587 436.671532174 L 591 459.385246957 L 594 451.945061739 L 598 468.562476522 L 601 448.718191304 L 605 438.758906087 L 609 463.16462087 L 612 474.243735652 L 616 429.419050435 L 620 445.824965217"/>
			<path class="series-2-line" d="M 40 439.5 L 43 437.051552795 L 47 490.85310559 L 50 426.154658385 L 54 446.95621118 L 58 429.507763975 L 61 409.05931677 L 65 449.360869565 L 69 457.41242236 L 72 456.463975155 L 76 419.51552795 L 79 456.817080745 L 83 456.61863354 L 87 508.170186335 L 90 477.97173913 L 94 481.523291925 L 98 470.82484472 L 101 453.376397516 L 105 422.427950311 L 108 479.979503106 L 112 500.031055901 L 116 484.082608696 L 119 446.384161491 L 123 480.685714286 L 127 463.237267081 L 130 471.288819876 L 134 454.590372671 L 137 466.391925466 L 141 431.693478261 L 145 430.745031056 L 148 462.046583851 L 152 407.848136646 L 156 417.399689441 L 159 469.701242236 L 163 414.752795031 L 166 459.554347826 L 170 427.855900621 L 174 419.407453416 L 177 356.209006211 L 181 314.760559006 L 185 415.062111801 L 188 382.613664596 L 192 380.915217391 L 195 439.216770186 L 199 391.768322981 L 203 378.819875776 L 206 365.871428571 L 210 375.422981366 L 214 438.974534161 L 217 260.276086957 L 221 367.327639752 L 224 327.379192547 L 228 344.430745342 L 232 376.482298137 L 235 383.783850932 L 239 361.835403727 L 243 315.886956522 L 246 308.188509317 L 250 301.990062112 L 253 322.791614907 L 257 292.593167702 L 261 333.644720497 L 264 335.696273292 L 268 321.247826087 L 272 295.549378882 L 275 346.350931677 L 279 278.652484472 L 282 214.704037267 L 286 213.755590062 L 290 158.807142857 L 293 73.8586956522 L 297 155.410248447 L 301 207.711801242 L 304 179.013354037 L 308 232.814906832 L 311 204.866459627 L 315 141.668012422 L 319 173.719565217 L 322 160.771118012 L 326 173.322670807 L 330 170.124223602 L 333 172.925776398 L 337 200.477329193 L 340 191.278881988 L 344 199.330434783 L 348 178.131987578 L 351 177.183540373 L 355 152.985093168 L 359 131.036645963 L 362 113.588198758 L 366 216.889751553 L 369 119.941304348 L 373 182.742857143 L 377 174.294409938 L 380 212.345962733 L 384 143.147515528 L 388 180.449068323 L 391 262.000621118 L 395 198.052173913 L 398 194.853726708 L 402 212.655279503 L 406 225.956832298 L 409 308.258385093 L 413 278.059937888 L 417 283.861490683 L 420 297.913043478 L 424 262.464596273 L 427 194.766149068 L 431 275.567701863 L 435 250.619254658 L 438 191.920807453 L 442 247.222360248 L 446 280.023913043 L 449 195.825465839 L 453 192.627018634 L 456 214.178571429 L 460 215.480124224 L 464 216.031677019 L 467 305.833229814 L 471 250.884782609 L 475 303.936335404 L 478 341.237888199 L 482 392.039440994 L 485 304.090993789 L 489 352.642546584 L 493 338.194099379 L 496 371.745652174 L 500 421.047204969 L 504 348.848757764 L 507 401.900310559 L 511 421.201863354 L 514 473.503416149 L 518 435.054968944 L 522 447.606521739 L 525 437.658074534 L 529 457.709627329 L 533 452.261180124 L 536 481.312732919 L 540 448.114285714 L 543 475.665838509 L 547 463.467391304 L 551 497.018944099 L 554 434.570496894 L 558 444.872049689 L 562 467.923602484 L 565 496.22515528 L 569 366.276708075 L 572 384.07826087 L 576 459.629813665 L 580 432.43136646 L 583 381.232919255 L 587 450.78447205 L 591 460.336024845 L 594 464.63757764 L 598 459.939130435 L 601 439.49068323 L 605 456.542236025 L 609 436.09378882 L 612 447.145341615 L 616 462.69689441 L 620 461.748447205"/>
		</g>
		<text class="x-axis-label" x="40.0" y="540">
			0
		</text>
		<path class="x-notch" d="M 58.125 525 L 58.125 530"/>
		<text class="x-axis-label" x="76.25" y="540">
			10
		</text>
		<path class="x-notch" d="M 94.375 525 L 94.375 530"/>
		<text class="x-axis-label" x="112.5" y="540">
			20
		</text>
		<path class="x-notch" d="M 130.625 525 L 130.625 530"/>
		<text class="x-axis-label" x="148.75" y="540">
			30
		</text>
		<path class="x-notch" d="M 166.875 525 L 166.875 530"/>
		<text class="x-axis-label" x="185.0" y="540">
			40
		</text>
		<path class="x-notch" d="M 203.125 525 L 203.125 530"/>
		<text class="x-axis-label" x="221.25" y="540">
			50
		</text>
		<path class="x-notch" d="M 239.375 525 L 239.375 530"/>
		<text class="x-axis-label" x="257.5" y="540">
			60
		</text>
		<path class="x-notch" d="M 275.625 525 L 275.625 530"/>
		<text class="x-axis-label" x="293.75" y="540">
			70
		</text>
		<path class="x-notch" d="M 311.875 525 L 311.875 530"/>
		<text class="x-axis-label" x="330.0" y="540">
			80
		</text>
		<path class="x-notch" d="M 348.125 525 L 348.125 530"/>
		<text class="x-axis-label" x="366.25" y="540">
			90
		</text>
		<path class="x-notch" d="M 384.375 525 L 384.375 530"/>
		<text class="x-axis-label" x="402.5" y="540">
			100
		</text>
		<path class="x-notch" d="M 420.625 525 L 420.625 530"/>
		<text class="x-axis-label" x="438.75" y="540">
			110
		</text>
		<path class="x-notch" d="M 456.875 525 L 456.875 530"/>
		<text class="x-axis-label" x="475.0" y="540">
			120
		</text>
		<path class="x-notch" d="M 493.125 525 L 493.125 530"/>
		<text class="x-axis-label" x="511.25" y="540">
			130
		</text>
		<path class="x-notch" d="M 529.375 525 L 529.375 530"/>
		<text class="x-axis-label" x="547.5" y="540">
			140
		</text>
		<path class="x-notch" d="M 565.625 525 L 565.625 530"/>
		<text class="x-axis-label" x="583.75" y="540">
			150
		</text>
		<path class="x-notch" d="M 601.875 525 L 601.875 530"/>
		<text class="x-axis-label" x="620.0" y="540">
			160
		</text>
	</g>
</svg>
