<?xml version="1.0" ?>
<svg height="600" version="1.1" width="800" xmlns="http://www.w3.org/2000/svg" xmlns:svg="http://www.w3.org/2000/svg">
	<style type="text/css">
		

.x-axis-path, .y-gridline, .x-notch { fill:none; stroke: #a7a9ac; stroke-width:1; }



.y-gridline { stroke-width: 1; }

.y-axis-path, .y-axis-path2, .x-notch-left, .x-notch-right { display: none;}



.x-axis-label, .data-point-label {font-size: 12px; font-weight:normal; font-family: sans-serif; fill: #58595b; text-anchor:middle;}

.y-axis-label {font-size: 12px; font-family: helvetica; fill: #a7a9ac; text-anchor:end;}



.series-1-line { fill: none; stroke: #10b80c; stroke-width:2; }



.series-2-line { fill: none; stroke: #e90f0a; stroke-width: 2;}

	</style>
	<rect fill="white" height="600" width="800" x="0" y="0"/>
	<g id="grid" transform="translate(70, 30)">
		<g class="x-axis" id="x_axis">
			<path class="x-axis-path" d="M 0 525 L 660 525"/>
			<path class="x-notch-left" d="M 0 525, L 0 535"/>
			<path class="x-notch-right" d="M 660 525, L 660 535"/>
		</g>
		<g class="y-axis" id="y_axis">
			<path class="y-axis-path" d="M 0 525 L 0 0"/>
			<path class="y-axis-path-2" d="M 660 525 L 660 0"/>
			<path class="y-gridline" d="M 0 525 L 660 525"/>
			<text class="y-axis-label" x="-5" y="525">
				-100
			</text>
			<path class="y-gridline" d="M 0 438 L 660 438"/>
			<text class="y-axis-label" x="-5" y="438">
				 0
			</text>
			<path class="y-gridline" d="M 0 351 L 660 351"/>
			<text class="y-axis-label" x="-5" y="351">
				100
			</text>
			<path class="y-gridline" d="M 0 264 L 660 264"/>
			<text class="y-axis-label" x="-5" y="264">
				200
			</text>
			<path class="y-gridline" d="M 0 177 L 660 177"/>
			<text class="y-axis-label" x="-5" y="177">
				300
			</text>
			<path class="y-gridline" d="M 0 90 L 660 90"/>
			<text class="y-axis-label" x="-5" y="90">
				400
			</text>
			<path class="y-gridline" d="M 0 3 L 660 3"/>
			<text class="y-axis-label" x="-5" y="3">
				500
			</text>
		</g>
		<g>
			<path class="series-1-line" d="M 40 434.62356 L 43 444.95709872 L 47 440.348087439 L 50 430.107576159 L 54 437.367064878 L 57 458.021053598 L 61 438.806192317 L 64 446.267631037 L 68 465.036869756 L 72 440.639208476 L 75 426.180847195 L 79 429.042935915 L 82 412.901424634 L 86 384.375513354 L 89 414.295052073 L 93 434.433140793 L 96 369.247879512 L 100 394.276518232 L 104 329.920756951 L 107 364.641945671 L 111 347.55858439 L 114 359.50737311 L 118 315.904861829 L 121 323.186750549 L 125 349.225489268 L 128 374.052177988 L 132 349.587316707 L 136 305.401355427 L 139 340.436494146 L 143 328.939832866 L 146 323.657771585 L 150 315.907510305 L 153 260.481649024 L 157 313.106387744 L 160 328.913926463 L 164 304.987365183 L 168 302.846203902 L 171 288.746942622 L 175 263.003531341 L 178 312.756520061 L 182 241.78225878 L 185 310.8076475 L 189 246.87818622 L 193 261.474374939 L 196 261.554313659 L 200 300.314152378 L 203 270.868791098 L 207 264.800979817 L 210 211.102368537 L 214 257.063807256 L 217 184.496345976 L 221 177.531484695 L 225 252.884173415 L 228 231.066712134 L 232 235.364850854 L 235 174.531489573 L 239 240.887078293 L 242 210.275167012 L 246 170.329455732 L 249 169.332444451 L 253 233.332533171 L 257 170.68162189 L 260 159.36451061 L 264 184.415549329 L 267 185.326038049 L 271 148.947526768 L 274 77.0758654878 L 278 159.652904207 L 281 145.665292927 L 285 110.790031646 L 289 97.0050703659 L 292 126.094759085 L 296 160.725997805 L 299 148.578686524 L 303 118.774225244 L 306 130.273963963 L 310 94.3217526829 L 313 26.6682914024 L 317 87.729080122 L 321 63.8924688415 L 324 85.219157561 L 328 70.2000962805 L 331 127.155035 L 335 29.2353237195 L 338 24.760712439 L 342 156.225401159 L 346 162.699489878 L 349 127.802528598 L 353 138.651617317 L 356 191.366656037 L 360 140.898194756 L 363 167.564833476 L 367 182.564922195 L 370 168.712410915 L 374 162.196249634 L 378 122.250538354 L 381 191.747027073 L 385 175.427015793 L 388 173.913754512 L 392 96.6342432317 L 395 177.775581951 L 399 220.326620671 L 402 155.92640939 L 406 195.76319811 L 410 176.794736829 L 413 206.983425549 L 417 220.682564268 L 420 266.621602988 L 424 263.672641707 L 427 231.018830427 L 431 286.246519146 L 434 289.580057866 L 438 242.701896585 L 442 263.175985305 L 445 241.134174024 L 449 267.419312744 L 452 281.656401463 L 456 271.079540183 L 459 294.717628902 L 463 282.211217622 L 466 339.210606341 L 470 306.826295061 L 474 255.07893378 L 477 212.3734725 L 481 230.85151122 L 484 331.152549939 L 488 316.537738659 L 491 334.992327378 L 495 315.553466098 L 499 321.130154817 L 502 335.142893537 L 506 345.790382256 L 509 335.482670976 L 513 386.940859695 L 516 368.040298415 L 520 333.972487134 L 523 301.677425854 L 527 279.568414573 L 531 360.104253293 L 534 370.662142012 L 538 379.200880732 L 541 425.319119451 L 545 398.565958171 L 548 374.88649689 L 552 392.53363561 L 555 374.822024329 L 559 397.944213049 L 563 436.972851768 L 566 425.946940488 L 570 427.283729207 L 573 445.088367927 L 577 430.876756646 L 580 426.514495366 L 584 460.023634085 L 587 417.834772805 L 591 452.286811524 L 595 460.443700244 L 598 434.273988963 L 602 433.209777683 L 605 438.764416402 L 609 422.668055122 L 612 445.632743841 L 616 447.889332561 L 620 432.69037128"/>
			<path class="series-2-line" d="M 40 422.1 L 43 446.31722561 L 47 446.90945122 L 50 438.751676829 L 54 430.593902439 L 57 448.686128049 L 61 441.403353659 L 64 435.870579268 L 68 440.837804878 L 72 423.055030488 L 75 424.522256098 L 79 419.864481707 L 82 376.706707317 L 86 354.548932927 L 89 326.266158537 L 93 356.608384146 L 96 422.825609756 L 100 406.792835366 L 104 411.760060976 L 107 419.352286585 L 111 420.819512195 L 114 431.911737805 L 118 441.253963415 L 121 429.596189024 L 125 460.813414634 L 128 442.155640244 L 132 434.872865854 L 136 432.840091463 L 139 425.557317073 L 143 442.774542683 L 146 445.991768293 L 150 424.708993902 L 153 469.926219512 L 157 448.643445122 L 160 437.860670732 L 164 414.827896341 L 168 405.795121951 L 171 419.512347561 L 175 441.104573171 L 178 424.19679878 L 182 437.91402439 L 185 417.50625 L 189 424.22347561 L 193 431.81570122 L 196 417.532926829 L 200 443.500152439 L 203 462.467378049 L 207 417.559603659 L 210 432.151829268 L 214 426.619054878 L 217 415.836280488 L 221 408.553506098 L 225 424.895731707 L 228 414.112957317 L 232 424.330182927 L 235 425.797408537 L 239 412.389634146 L 242 442.731859756 L 246 427.574085366 L 249 410.666310976 L 253 423.508536585 L 257 401.350762195 L 260 424.692987805 L 264 405.160213415 L 267 432.002439024 L 271 406.344664634 L 274 423.561890244 L 278 439.029115854 L 281 401.121341463 L 285 379.838567073 L 289 412.805792683 L 292 411.648018293 L 296 399.115243902 L 299 415.457469512 L 303 422.174695122 L 306 400.891920732 L 310 376.984146341 L 313 418.701371951 L 317 412.293597561 L 321 409.385823171 L 324 390.72804878 L 328 411.44527439 L 331 397.1625 L 335 417.00472561 L 338 396.59695122 L 342 395.439176829 L 346 373.281402439 L 349 423.748628049 L 353 401.590853659 L 356 434.558079268 L 360 388.775304878 L 363 390.242530488 L 367 403.084756098 L 370 412.426981707 L 374 403.394207317 L 378 388.236432927 L 381 362.578658537 L 385 415.670884146 L 388 376.888109756 L 392 316.230335366 L 395 350.947560976 L 399 331.414786585 L 402 377.507012195 L 406 406.099237805 L 410 360.316463415 L 413 324.158689024 L 417 369.375914634 L 420 367.343140244 L 424 347.810365854 L 427 355.402591463 L 431 371.744817073 L 434 395.962042683 L 438 404.429268293 L 442 382.271493902 L 445 372.363719512 L 449 365.080945122 L 452 360.423170732 L 456 370.640396341 L 459 400.982621951 L 463 405.074847561 L 466 349.667073171 L 470 383.50929878 L 474 332.47652439 L 477 304.19375 L 481 354.66097561 L 484 335.12820122 L 488 395.220426829 L 491 346.812652439 L 495 374.529878049 L 499 355.872103659 L 502 352.089329268 L 506 361.431554878 L 509 363.773780488 L 513 353.866006098 L 516 365.833231707 L 520 320.925457317 L 523 306.642682927 L 527 307.234908537 L 531 368.202134146 L 534 391.544359756 L 538 422.761585366 L 541 392.728810976 L 545 401.196036585 L 548 407.913262195 L 552 383.130487805 L 555 380.222713415 L 559 422.814939024 L 563 406.782164634 L 566 384.624390244 L 570 413.216615854 L 573 432.183841463 L 577 429.276067073 L 580 425.493292683 L 584 383.210518293 L 587 410.927743902 L 591 426.394969512 L 595 414.737195122 L 598 434.579420732 L 602 428.171646341 L 605 447.138871951 L 609 431.106097561 L 612 429.948323171 L 616 451.54054878 L 620 432.00777439"/>
		</g>
		<text class="x-axis-label" x="40.0" y="540">
			0
		</text>
		<path class="x-notch" d="M 57.7914110429 525 L 57.7914110429 530"/>
		<text class="x-axis-label" x="75.5828220859" y="540">
			10
		</text>
		<path class="x-notch" d="M 93.3742331288 525 L 93.3742331288 530"/>
		<text class="x-axis-label" x="111.165644172" y="540">
			20
		</text>
		<path class="x-notch" d="M 128.957055215 525 L 128.957055215 530"/>
		<text class="x-axis-label" x="146.748466258" y="540">
			30
		</text>
		<path class="x-notch" d="M 164.539877301 525 L 164.539877301 530"/>
		<text class="x-axis-label" x="182.331288344" y="540">
			40
		</text>
		<path class="x-notch" d="M 200.122699387 525 L 200.122699387 530"/>
		<text class="x-axis-label" x="217.914110429" y="540">
			50
		</text>
		<path class="x-notch" d="M 235.705521472 525 L 235.705521472 530"/>
		<text class="x-axis-label" x="253.496932515" y="540">
			60
		</text>
		<path class="x-notch" d="M 271.288343558 525 L 271.288343558 530"/>
		<text class="x-axis-label" x="289.079754601" y="540">
			70
		</text>
		<path class="x-notch" d="M 306.871165644 525 L 306.871165644 530"/>
		<text class="x-axis-label" x="324.662576687" y="540">
			80
		</text>
		<path class="x-notch" d="M 342.45398773 525 L 342.45398773 530"/>
		<text class="x-axis-label" x="360.245398773" y="540">
			90
		</text>
		<path class="x-notch" d="M 378.036809816 525 L 378.036809816 530"/>
		<text class="x-axis-label" x="395.828220859" y="540">
			100
		</text>
		<path class="x-notch" d="M 413.619631902 525 L 413.619631902 530"/>
		<text class="x-axis-label" x="431.411042945" y="540">
			110
		</text>
		<path class="x-notch" d="M 449.202453988 525 L 449.202453988 530"/>
		<text class="x-axis-label" x="466.993865031" y="540">
			120
		</text>
		<path class="x-notch" d="M 484.785276074 525 L 484.785276074 530"/>
		<text class="x-axis-label" x="502.576687117" y="540">
			130
		</text>
		<path class="x-notch" d="M 520.36809816 525 L 520.36809816 530"/>
		<text class="x-axis-label" x="538.159509202" y="540">
			140
		</text>
		<path class="x-notch" d="M 555.950920245 525 L 555.950920245 530"/>
		<text class="x-axis-label" x="573.742331288" y="540">
			150
		</text>
		<path class="x-notch" d="M 591.533742331 525 L 591.533742331 530"/>
		<text class="x-axis-label" x="609.325153374" y="540">
			160
		</text>
		<path class="x-notch" d="M 627.116564417 525 L 627.116564417 530"/>
	</g>
</svg>
