<?xml version="1.0" ?>
<svg height="600" version="1.1" width="800" xmlns="http://www.w3.org/2000/svg" xmlns:svg="http://www.w3.org/2000/svg">
	<style type="text/css">
		

.x-axis-path, .y-gridline, .x-notch { fill:none; stroke: #a7a9ac; stroke-width:1; }



.y-gridline { stroke-width: 1; }

.y-axis-path, .y-axis-path2, .x-notch-left, .x-notch-right { display: none;}



.x-axis-label, .data-point-label {font-size: 12px; font-weight:normal; font-family: sans-serif; fill: #58595b; text-anchor:middle;}

.y-axis-label {font-size: 12px; font-family: helvetica; fill: #a7a9ac; text-anchor:end;}



.series-1-line { fill: none; stroke: #10b80c; stroke-width:2; }



.series-2-line { fill: none; stroke: #e90f0a; stroke-width: 2;}

	</style>
	<rect fill="white" height="600" width="800" x="0" y="0"/>
	<g id="grid" transform="translate(70, 30)">
		<g class="x-axis" id="x_axis">
			<path class="x-axis-path" d="M 0 525 L 660 525"/>
			<path class="x-notch-left" d="M 0 525, L 0 535"/>
			<path class="x-notch-right" d="M 660 525, L 660 535"/>
		</g>
		<g class="y-axis" id="y_axis">
			<path class="y-axis-path" d="M 0 525 L 0 0"/>
			<path class="y-axis-path-2" d="M 660 525 L 660 0"/>
			<path class="y-gridline" d="M 0 525 L 660 525"/>
			<text class="y-axis-label" x="-5" y="525">
				-200
			</text>
			<path class="y-gridline" d="M 0 394 L 660 394"/>
			<text class="y-axis-label" x="-5" y="394">
				 0
			</text>
			<path class="y-gridline" d="M 0 263 L 660 263"/>
			<text class="y-axis-label" x="-5" y="263">
				200
			</text>
			<path class="y-gridline" d="M 0 132 L 660 132"/>
			<text class="y-axis-label" x="-5" y="132">
				400
			</text>
			<path class="y-gridline" d="M 0 1 L 660 1"/>
			<text class="y-axis-label" x="-5" y="1">
				600
			</text>
		</g>
		<g>
			<path class="series-1-line" d="M 40 395.357690979 L 42 394.550567218 L 44 399.738720701 L 46 388.620505351 L 49 390.804370755 L 51 384.78787226 L 53 380.760511383 L 56 408.180649962 L 58 410.90576007 L 60 401.506482173 L 62 393.676476168 L 65 364.575384402 L 67 396.90746644 L 69 392.473960941 L 72 398.148685814 L 74 387.342045028 L 76 395.236210939 L 78 386.594760066 L 81 403.027040081 L 83 393.492451007 L 85 390.71033292 L 88 393.894994401 L 90 383.832881725 L 92 387.572720108 L 95 398.71456534 L 97 388.665751578 L 99 366.005134045 L 101 373.073922892 L 104 385.528138767 L 106 352.529620722 L 108 386.715529201 L 111 374.732040043 L 113 347.294790227 L 115 354.525699172 L 117 317.765277118 L 120 366.024181196 L 122 337.383062991 L 124 329.958779421 L 127 329.409401286 L 129 340.618585465 L 131 318.729516058 L 133 282.199186332 L 136 271.811355801 L 138 201.059330867 L 140 228.317138254 L 143 230.82608823 L 145 266.081187204 L 147 266.451756192 L 150 228.175891184 L 152 197.748074392 L 154 192.800766392 L 156 236.932785145 L 159 221.132929757 L 161 216.158390647 L 163 201.644096979 L 166 171.040438986 L 168 213.372671331 L 170 179.792378556 L 172 196.617293186 L 175 217.271450771 L 177 190.93062256 L 179 196.145373872 L 182 185.785407733 L 184 208.320411776 L 186 174.794159035 L 189 212.755481531 L 191 198.43096126 L 193 211.087827258 L 195 159.118091258 L 198 141.288146041 L 200 159.128211132 L 202 196.169375412 L 205 163.766142104 L 207 135.544045248 L 209 166.495995509 L 211 198.977109825 L 214 164.300184352 L 216 140.381869491 L 218 133.621265075 L 221 114.966153887 L 223 107.01413562 L 225 140.280519165 L 227 165.332606615 L 230 124.756240519 L 232 106.073898221 L 234 91.370253344 L 237 110.414397918 L 239 76.766132915 L 241 111.966980762 L 244 73.8264269305 L 246 41.8968882863 L 248 69.5065891684 L 250 93.3949160663 L 253 92.5474733749 L 255 138.316947343 L 257 123.640111389 L 260 139.450508838 L 262 117.912910739 L 264 130.340106597 L 266 158.017568615 L 269 142.582905637 L 271 177.323779922 L 273 127.397221572 L 276 142.016416265 L 278 148.976913952 L 280 140.335463078 L 283 150.380675612 L 285 105.122458385 L 287 175.871093184 L 289 149.368144875 L 292 114.231456934 L 294 172.652842511 L 296 125.513567733 L 299 141.566934236 L 301 155.604354199 L 303 112.226772336 L 305 122.218578118 L 308 122.778709409 L 310 148.669895026 L 312 153.749335161 L 315 162.035924593 L 317 171.053321031 L 319 134.631282465 L 321 169.493957919 L 324 93.0044013667 L 326 144.064310118 L 328 125.5447212 L 331 136.266911802 L 333 163.849381573 L 335 144.477395574 L 338 134.279549534 L 340 101.497613808 L 342 46.0902139965 L 344 44.8912999973 L 347 59.0368000267 L 349 80.7738692088 L 351 57.0174633525 L 354 50.3919590186 L 356 37.4338494234 L 358 78.4123367252 L 360 41.1649210936 L 363 61.5488785145 L 365 65.2344657701 L 367 35.4428859273 L 370 49.7099760308 L 372 0.0 L 374 67.636055561 L 376 34.2183050733 L 379 51.2325709116 L 381 2.55083316308 L 383 10.4582979888 L 386 34.306094862 L 388 20.2384758414 L 390 28.2542318268 L 393 55.9046738274 L 395 73.893137915 L 397 63.4791317436 L 399 100.317434806 L 402 102.379710136 L 404 95.5378345767 L 406 155.474874201 L 409 147.902402728 L 411 138.300052519 L 413 185.841870692 L 415 129.325594736 L 418 163.294920896 L 420 127.427637042 L 422 165.632772968 L 425 178.019016614 L 427 171.366914451 L 429 229.963719041 L 432 222.174876343 L 434 194.007030613 L 436 209.736156919 L 438 206.493854176 L 441 224.753362804 L 443 239.602649824 L 445 240.852424816 L 448 227.068727062 L 450 232.391769533 L 452 215.496125822 L 454 271.941672696 L 457 237.292189427 L 459 226.147165154 L 461 225.178132389 L 464 238.985460025 L 466 258.86891386 L 468 233.434522763 L 470 272.897356017 L 473 282.348339282 L 475 247.157400215 L 477 304.44225635 L 480 302.363291971 L 482 255.142323862 L 484 247.502091254 L 487 269.482973866 L 489 309.514705123 L 491 284.432418615 L 493 269.715052637 L 496 276.526729139 L 498 323.134879087 L 500 339.797673617 L 503 340.141222588 L 505 335.139874556 L 507 336.511450715 L 509 333.782950472 L 512 339.931581102 L 514 339.124668435 L 516 317.018805615 L 519 301.760406026 L 521 324.065739929 L 523 311.797696223 L 526 344.306041649 L 528 377.477221854 L 530 290.080866788 L 532 296.648940955 L 535 286.613848295 L 537 288.607940302 L 539 310.980824246 L 542 348.171442992 L 544 361.085843522 L 546 363.540120184 L 548 349.404528935 L 551 358.787328877 L 553 351.32293747 L 555 366.578369113 L 558 338.464563417 L 560 343.882387039 L 562 369.164777911 L 564 387.27525426 L 567 377.023368187 L 569 413.293406529 L 571 395.923857061 L 574 406.821888863 L 576 389.601371673 L 578 397.075882954 L 581 388.244869778 L 583 386.287917661 L 585 379.567843269 L 587 403.25330895 L 590 389.307280003 L 592 381.761828547 L 594 383.24190696 L 597 370.851850992 L 599 386.675547355 L 601 381.741749364 L 603 382.382940703 L 606 395.486692442 L 608 368.590898425 L 610 402.614686806 L 613 398.384464711 L 615 380.270598227 L 617 385.715441866 L 620 401.282025886"/>
			<path class="series-2-line" d="M 40 406.41563271 L 42 372.36760294 L 44 411.674695951 L 46 380.793074359 L 49 394.768901949 L 51 391.329484562 L 53 386.306863087 L 56 373.895955864 L 58 385.760844669 L 60 395.514794689 L 62 366.216377185 L 65 403.412531411 L 67 386.252011922 L 69 362.230941381 L 72 346.125891284 L 74 349.019290253 L 76 357.190036184 L 78 372.221333166 L 81 345.033854448 L 83 355.315539164 L 85 382.484734161 L 88 343.159357428 L 90 374.022695299 L 92 371.638747305 L 95 387.72551368 L 97 395.896259611 L 99 375.041597248 L 101 388.489690142 L 104 385.050272755 L 106 392.165549294 L 108 373.949560412 L 111 416.4230616 L 113 399.790276807 L 115 387.90710428 L 117 384.99542159 L 120 373.639983759 L 122 400.809178756 L 124 349.345904009 L 127 378.098303095 L 129 363.048722391 L 131 365.942121359 L 133 368.307785631 L 136 305.762082263 L 138 295.462113825 L 140 287.800818869 L 143 333.440728234 L 145 333.695453722 L 147 342.393934349 L 150 349.509210888 L 152 326.015875043 L 154 341.047172026 L 156 356.078469009 L 159 355.8054598 L 161 354.476981198 L 163 359.481318952 L 166 342.848534158 L 168 350.491545393 L 170 366.050577072 L 172 359.972486204 L 175 332.785007486 L 177 350.982712646 L 179 344.904621778 L 182 360.463653457 L 184 327.998827776 L 186 335.114104315 L 189 324.814135877 L 191 362.010290102 L 193 326.90679094 L 195 350.381843063 L 198 316.861547989 L 200 337.697926631 L 202 326.870223496 L 205 323.43080611 L 207 305.742551924 L 209 298.081256967 L 211 298.863717151 L 214 259.010605722 L 216 310.983331443 L 218 320.737281463 L 221 313.075986507 L 223 261.61271176 L 225 304.613947645 L 227 291.147571029 L 230 286.65268425 L 232 262.631613709 L 234 276.607441299 L 237 274.223493305 L 239 259.173912601 L 241 247.290740074 L 244 253.878281916 L 246 258.88261967 L 248 258.081875765 L 250 240.921356275 L 253 233.787796015 L 255 260.956991011 L 257 250.129287877 L 260 278.881686963 L 262 247.472330674 L 264 248.254790857 L 266 257.481006181 L 269 241.375956084 L 271 239.519742787 L 273 252.96783568 L 276 241.084663154 L 278 250.838613174 L 280 265.869910156 L 283 226.544533424 L 285 232.076605874 L 287 231.803596665 L 289 275.332567245 L 292 266.0880682 L 294 274.786548827 L 296 265.014315086 L 299 235.188162886 L 301 231.748745499 L 303 211.421817832 L 305 242.285155703 L 308 262.593799648 L 310 262.320790439 L 312 256.770434267 L 315 265.468914895 L 317 283.666620055 L 319 289.726427201 L 321 289.453417992 L 324 268.598755629 L 326 252.493705532 L 328 264.886329033 L 331 264.085585128 L 333 246.925065639 L 335 268.816913673 L 338 259.044679931 L 340 273.548242217 L 342 236.33380427 L 344 263.502999266 L 347 243.176071599 L 349 252.930021619 L 351 258.989828766 L 354 247.634390935 L 356 256.860606259 L 358 208.036004993 L 360 219.373159102 L 363 234.404456085 L 365 219.882610077 L 367 220.66507026 L 370 181.339693528 L 372 202.176072169 L 374 172.877654666 L 376 204.268727233 L 379 189.219146528 L 381 193.695749586 L 383 179.173903577 L 386 168.346200443 L 388 186.016170907 L 390 175.188467773 L 393 188.636560667 L 395 165.670959518 L 397 189.673746337 L 399 189.928471825 L 402 222.90274848 L 404 224.740678056 L 406 243.993852609 L 409 256.914210807 L 411 257.168936294 L 413 254.7849883 L 415 287.759264955 L 418 262.154990326 L 420 263.992919902 L 422 277.441012796 L 425 243.392983026 L 427 277.422729074 L 429 238.097352341 L 432 264.211077946 L 434 258.660721774 L 436 279.497100415 L 438 296.111601487 L 441 313.253837255 L 443 306.64801169 L 445 281.043737061 L 448 274.965646193 L 450 272.581698199 L 452 299.223158499 L 454 286.812251276 L 457 283.900568586 L 459 277.822477718 L 461 289.687366523 L 464 280.970602174 L 466 312.36167474 L 468 312.616400228 L 470 253.237105037 L 473 327.374688001 L 475 305.992290942 L 477 327.35640428 L 480 306.501741916 L 482 247.650181422 L 484 250.543580391 L 487 284.045591742 L 489 280.07843966 L 491 307.775369353 L 493 303.280482573 L 496 315.673106075 L 498 314.872362169 L 500 334.125536722 L 503 347.04589492 L 505 370.520947043 L 507 346.499876502 L 509 324.06201005 L 512 336.982368247 L 514 323.515991632 L 516 298.439451698 L 519 316.637156858 L 521 320.058290523 L 523 324.534893581 L 526 341.677129348 L 528 337.709977265 L 530 289.413110696 L 532 298.63932602 L 535 325.280786321 L 537 307.064797439 L 539 299.931237178 L 542 348.209820025 L 544 355.325096564 L 546 347.663801607 L 548 334.725159688 L 551 357.672477115 L 553 353.705325032 L 555 366.097948533 L 558 352.103837221 L 560 355.524970886 L 562 367.917594387 L 564 367.116850482 L 567 365.788371881 L 569 372.375913723 L 571 369.991965729 L 574 362.330670772 L 576 377.889702451 L 578 369.172938102 L 581 372.594071767 L 583 373.904266647 L 585 377.325400311 L 587 371.247309443 L 590 369.918830842 L 592 378.617311469 L 594 378.872036957 L 597 361.183782771 L 599 367.243589917 L 601 380.163948115 L 603 387.80695935 L 606 385.950746052 L 608 387.788675628 L 610 394.903952167 L 613 400.963759313 L 615 391.191525571 L 617 390.390781666 L 620 395.395119419"/>
		</g>
		<text class="x-axis-label" x="40.0" y="540">
			0
		</text>
		<path class="x-notch" d="M 51.4624505929 525 L 51.4624505929 530"/>
		<text class="x-axis-label" x="62.9249011858" y="540">
			10
		</text>
		<path class="x-notch" d="M 74.3873517787 525 L 74.3873517787 530"/>
		<text class="x-axis-label" x="85.8498023715" y="540">
			20
		</text>
		<path class="x-notch" d="M 97.3122529644 525 L 97.3122529644 530"/>
		<text class="x-axis-label" x="108.774703557" y="540">
			30
		</text>
		<path class="x-notch" d="M 120.23715415 525 L 120.23715415 530"/>
		<text class="x-axis-label" x="131.699604743" y="540">
			40
		</text>
		<path class="x-notch" d="M 143.162055336 525 L 143.162055336 530"/>
		<text class="x-axis-label" x="154.624505929" y="540">
			50
		</text>
		<path class="x-notch" d="M 166.086956522 525 L 166.086956522 530"/>
		<text class="x-axis-label" x="177.549407115" y="540">
			60
		</text>
		<path class="x-notch" d="M 189.011857708 525 L 189.011857708 530"/>
		<text class="x-axis-label" x="200.4743083" y="540">
			70
		</text>
		<path class="x-notch" d="M 211.936758893 525 L 211.936758893 530"/>
		<text class="x-axis-label" x="223.399209486" y="540">
			80
		</text>
		<path class="x-notch" d="M 234.861660079 525 L 234.861660079 530"/>
		<text class="x-axis-label" x="246.324110672" y="540">
			90
		</text>
		<path class="x-notch" d="M 257.786561265 525 L 257.786561265 530"/>
		<text class="x-axis-label" x="269.249011858" y="540">
			100
		</text>
		<path class="x-notch" d="M 280.711462451 525 L 280.711462451 530"/>
		<text class="x-axis-label" x="292.173913043" y="540">
			110
		</text>
		<path class="x-notch" d="M 303.636363636 525 L 303.636363636 530"/>
		<text class="x-axis-label" x="315.098814229" y="540">
			120
		</text>
		<path class="x-notch" d="M 326.561264822 525 L 326.561264822 530"/>
		<text class="x-axis-label" x="338.023715415" y="540">
			130
		</text>
		<path class="x-notch" d="M 349.486166008 525 L 349.486166008 530"/>
		<text class="x-axis-label" x="360.948616601" y="540">
			140
		</text>
		<path class="x-notch" d="M 372.411067194 525 L 372.411067194 530"/>
		<text class="x-axis-label" x="383.873517787" y="540">
			150
		</text>
		<path class="x-notch" d="M 395.335968379 525 L 395.335968379 530"/>
		<text class="x-axis-label" x="406.798418972" y="540">
			160
		</text>
		<path class="x-notch" d="M 418.260869565 525 L 418.260869565 530"/>
		<text class="x-axis-label" x="429.723320158" y="540">
			170
		</text>
		<path class="x-notch" d="M 441.185770751 525 L 441.185770751 530"/>
		<text class="x-axis-label" x="452.648221344" y="540">
			180
		</text>
		<path class="x-notch" d="M 464.110671937 525 L 464.110671937 530"/>
		<text class="x-axis-label" x="475.57312253" y="540">
			190
		</text>
		<path class="x-notch" d="M 487.035573123 525 L 487.035573123 530"/>
		<text class="x-axis-label" x="498.498023715" y="540">
			200
		</text>
		<path class="x-notch" d="M 509.960474308 525 L 509.960474308 530"/>
		<text class="x-axis-label" x="521.422924901" y="540">
			210
		</text>
		<path class="x-notch" d="M 532.885375494 525 L 532.885375494 530"/>
		<text class="x-axis-label" x="544.347826087" y="540">
			220
		</text>
		<path class="x-notch" d="M 555.81027668 525 L 555.81027668 530"/>
		<text class="x-axis-label" x="567.272727273" y="540">
			230
		</text>
		<path class="x-notch" d="M 578.735177866 525 L 578.735177866 530"/>
		<text class="x-axis-label" x="590.197628458" y="540">
			240
		</text>
		<path class="x-notch" d="M 601.660079051 525 L 601.660079051 530"/>
		<text class="x-axis-label" x="613.122529644" y="540">
			250
		</text>
		<path class="x-notch" d="M 624.584980237 525 L 624.584980237 530"/>
	</g>
</svg>
