<?xml version="1.0" ?>
<svg height="600" version="1.1" width="800" xmlns="http://www.w3.org/2000/svg" xmlns:svg="http://www.w3.org/2000/svg">
	<style type="text/css">
		

.x-axis-path, .y-gridline, .x-notch { fill:none; stroke: #a7a9ac; stroke-width:1; }



.y-gridline { stroke-width: 1; }

.y-axis-path, .y-axis-path2, .x-notch-left, .x-notch-right { display: none;}



.x-axis-label, .data-point-label {font-size: 12px; font-weight:normal; font-family: sans-serif; fill: #58595b; text-anchor:middle;}

.y-axis-label {font-size: 12px; font-family: helvetica; fill: #a7a9ac; text-anchor:end;}



.series-1-line { fill: none; stroke: #10b80c; stroke-width:2; }



.series-2-line { fill: none; stroke: #e90f0a; stroke-width: 2;}

	</style>
	<rect fill="white" height="600" width="800" x="0" y="0"/>
	<g id="grid" transform="translate(70, 30)">
		<g class="x-axis" id="x_axis">
			<path class="x-axis-path" d="M 0 525 L 660 525"/>
			<path class="x-notch-left" d="M 0 525, L 0 535"/>
			<path class="x-notch-right" d="M 660 525, L 660 535"/>
		</g>
		<g class="y-axis" id="y_axis">
			<path class="y-axis-path" d="M 0 525 L 0 0"/>
			<path class="y-axis-path-2" d="M 660 525 L 660 0"/>
			<path class="y-gridline" d="M 0 525 L 660 525"/>
			<text class="y-axis-label" x="-5" y="525">
				-200
			</text>
			<path class="y-gridline" d="M 0 394 L 660 394"/>
			<text class="y-axis-label" x="-5" y="394">
				 0
			</text>
			<path class="y-gridline" d="M 0 263 L 660 263"/>
			<text class="y-axis-label" x="-5" y="263">
				200
			</text>
			<path class="y-gridline" d="M 0 132 L 660 132"/>
			<text class="y-axis-label" x="-5" y="132">
				400
			</text>
			<path class="y-gridline" d="M 0 1 L 660 1"/>
			<text class="y-axis-label" x="-5" y="1">
				600
			</text>
		</g>
		<g>
			<path class="series-1-line" d="M 40 388.731632321 L 44 397.255339648 L 49 389.355549147 L 54 400.298222624 L 58 392.056883747 L 63 393.749099424 L 68 388.621091926 L 73 376.70657933 L 77 389.776898283 L 82 381.742672245 L 87 380.456079432 L 91 385.860777465 L 96 383.868463594 L 101 376.870238514 L 106 381.250204064 L 110 367.224555619 L 115 367.119231015 L 120 360.776237234 L 124 346.532120121 L 129 341.124147778 L 134 345.728172557 L 139 328.650776263 L 143 321.327687139 L 148 319.77772646 L 153 307.616792388 L 157 305.339010462 L 162 290.848559227 L 167 280.294649576 L 172 283.901807328 L 176 258.402841353 L 181 265.509690707 L 186 237.042835309 L 190 246.40634982 L 195 241.88858707 L 200 196.539283672 L 205 204.22859967 L 209 187.347309797 L 214 169.642722367 L 219 165.724023239 L 223 157.633804232 L 228 139.061456808 L 233 155.368448908 L 238 118.093401548 L 242 104.280543857 L 247 94.9024865584 L 252 6.96882672759 L 256 65.5745325008 L 261 33.2383969621 L 266 11.563986634 L 271 33.0784995721 L 275 45.34255471 L 280 26.9548705259 L 285 0.0 L 289 19.8570861095 L 294 16.0336885883 L 299 51.0149910525 L 304 25.6783260711 L 308 48.7437831086 L 313 34.2701909103 L 318 51.28264201 L 322 45.7180465877 L 327 50.4171982674 L 332 65.1452061067 L 337 66.159828239 L 341 105.004907634 L 346 126.04352401 L 351 156.741233304 L 355 161.361855063 L 360 170.305553334 L 365 139.929171717 L 370 184.592104049 L 374 153.420727093 L 379 153.914640817 L 384 155.114100895 L 388 203.343898922 L 393 225.395979306 L 398 215.323644131 L 403 226.630228231 L 407 248.951004984 L 412 285.43870176 L 417 258.343717782 L 421 260.349616379 L 426 265.104761028 L 431 291.546829959 L 436 288.960955674 L 440 291.493153241 L 445 295.380450544 L 450 303.775312894 L 454 306.940117454 L 459 304.947803584 L 464 318.903090978 L 469 316.670033545 L 473 327.360607632 L 478 332.97818377 L 483 343.691207456 L 487 345.50091228 L 492 351.24165548 L 497 367.39752771 L 502 366.525160575 L 506 380.133046973 L 511 366.146707165 L 516 377.072521604 L 520 364.79392368 L 525 379.219429721 L 530 378.251935686 L 535 386.506771937 L 539 385.326399796 L 544 388.810565191 L 549 386.599870005 L 553 377.154638614 L 558 385.913411588 L 563 378.080707828 L 568 389.336976873 L 572 393.644177769 L 577 391.562327559 L 582 389.45252454 L 586 391.183874149 L 591 386.873486295 L 596 391.287082567 L 601 394.082385942 L 605 393.646781437 L 610 392.623294433 L 615 392.266132496 L 620 397.70996446"/>
			<path class="series-2-line" d="M 40 386.237682762 L 44 394.085320987 L 49 391.887418719 L 54 397.114481163 L 58 397.100392046 L 63 397.523065559 L 68 397.290595127 L 73 408.195571762 L 77 396.607272948 L 82 389.823363064 L 87 403.567296795 L 91 403.989970308 L 96 400.04501752 L 101 401.996360238 L 106 400.453601916 L 110 400.002750169 L 115 391.25340845 L 120 401.721622455 L 124 392.753899421 L 129 393.613335564 L 134 399.713923268 L 139 398.389546261 L 143 391.387255062 L 148 386.568777014 L 153 393.324508664 L 157 399.861858998 L 162 395.261762265 L 167 398.305011558 L 172 389.555669839 L 176 398.931977269 L 181 389.30911029 L 186 384.709013557 L 190 380.764060769 L 195 370.486049845 L 200 376.368256234 L 205 378.101217637 L 209 388.787812958 L 214 383.095809649 L 219 364.519308753 L 223 357.953780185 L 228 368.42199419 L 233 371.465243483 L 238 352.670361273 L 242 353.093034786 L 247 351.550276463 L 252 357.432482852 L 256 353.924292694 L 261 348.232289386 L 266 365.688705473 L 271 365.45623504 L 275 360.419375677 L 280 359.09499867 L 285 365.632349004 L 289 368.457216983 L 294 360.581400524 L 299 354.671015901 L 304 355.748833359 L 308 343.505390599 L 313 344.801589372 L 318 339.983111324 L 322 356.784383466 L 327 356.551913034 L 332 367.456889669 L 337 362.856792936 L 341 367.428711434 L 346 373.310917824 L 351 371.331396871 L 355 357.777666221 L 360 368.245880226 L 365 354.910530891 L 370 354.678060459 L 374 354.663971342 L 379 354.649882225 L 384 355.290937053 L 388 352.219509525 L 393 353.297326984 L 398 357.869245482 L 403 357.418393735 L 407 350.634483852 L 412 356.735071556 L 417 351.043068248 L 421 362.166426198 L 426 361.715574451 L 431 359.299290868 L 436 354.262431505 L 440 359.926256579 L 445 367.118750858 L 450 369.506856207 L 454 361.631039748 L 459 357.68608696 L 464 369.901351485 L 469 369.450499738 L 473 362.88497117 L 478 372.69804123 L 483 371.155282907 L 487 361.750797243 L 492 369.380054153 L 497 378.974742898 L 502 379.179035096 L 506 368.901024171 L 511 379.369238176 L 516 378.700005114 L 520 378.249153367 L 525 376.706395045 L 530 383.243745379 L 535 381.919368371 L 539 379.066322159 L 544 389.534536164 L 549 385.589583376 L 553 386.012256889 L 558 382.722448046 L 563 370.042242656 L 568 377.453118251 L 572 378.749317024 L 577 380.263897112 L 582 386.146103501 L 586 380.454100193 L 591 388.956882363 L 596 390.689843766 L 601 389.365466759 L 605 389.569758957 L 610 396.325490606 L 615 401.334171735 L 620 395.642168426"/>
		</g>
		<text class="x-axis-label" x="40.0" y="540">
			0
		</text>
		<path class="x-notch" d="M 63.5772357724 525 L 63.5772357724 530"/>
		<text class="x-axis-label" x="87.1544715447" y="540">
			10
		</text>
		<path class="x-notch" d="M 110.731707317 525 L 110.731707317 530"/>
		<text class="x-axis-label" x="134.308943089" y="540">
			20
		</text>
		<path class="x-notch" d="M 157.886178862 525 L 157.886178862 530"/>
		<text class="x-axis-label" x="181.463414634" y="540">
			30
		</text>
		<path class="x-notch" d="M 205.040650407 525 L 205.040650407 530"/>
		<text class="x-axis-label" x="228.617886179" y="540">
			40
		</text>
		<path class="x-notch" d="M 252.195121951 525 L 252.195121951 530"/>
		<text class="x-axis-label" x="275.772357724" y="540">
			50
		</text>
		<path class="x-notch" d="M 299.349593496 525 L 299.349593496 530"/>
		<text class="x-axis-label" x="322.926829268" y="540">
			60
		</text>
		<path class="x-notch" d="M 346.504065041 525 L 346.504065041 530"/>
		<text class="x-axis-label" x="370.081300813" y="540">
			70
		</text>
		<path class="x-notch" d="M 393.658536585 525 L 393.658536585 530"/>
		<text class="x-axis-label" x="417.235772358" y="540">
			80
		</text>
		<path class="x-notch" d="M 440.81300813 525 L 440.81300813 530"/>
		<text class="x-axis-label" x="464.390243902" y="540">
			90
		</text>
		<path class="x-notch" d="M 487.967479675 525 L 487.967479675 530"/>
		<text class="x-axis-label" x="511.544715447" y="540">
			100
		</text>
		<path class="x-notch" d="M 535.12195122 525 L 535.12195122 530"/>
		<text class="x-axis-label" x="558.699186992" y="540">
			110
		</text>
		<path class="x-notch" d="M 582.276422764 525 L 582.276422764 530"/>
		<text class="x-axis-label" x="605.853658537" y="540">
			120
		</text>
		<path class="x-notch" d="M 629.430894309 525 L 629.430894309 530"/>
	</g>
</svg>
