<?xml version="1.0" ?>
<svg height="600" version="1.1" width="800" xmlns="http://www.w3.org/2000/svg" xmlns:svg="http://www.w3.org/2000/svg">
	<style type="text/css">
		

.x-axis-path, .y-gridline, .x-notch { fill:none; stroke: #a7a9ac; stroke-width:1; }



.y-gridline { stroke-width: 1; }

.y-axis-path, .y-axis-path2, .x-notch-left, .x-notch-right { display: none;}



.x-axis-label, .data-point-label {font-size: 12px; font-weight:normal; font-family: sans-serif; fill: #58595b; text-anchor:middle;}

.y-axis-label {font-size: 12px; font-family: helvetica; fill: #a7a9ac; text-anchor:end;}



.series-1-line { fill: none; stroke: #10b80c; stroke-width:2; }



.series-2-line { fill: none; stroke: #e90f0a; stroke-width: 2;}

	</style>
	<rect fill="white" height="600" width="800" x="0" y="0"/>
	<g id="grid" transform="translate(70, 30)">
		<g class="x-axis" id="x_axis">
			<path class="x-axis-path" d="M 0 525 L 660 525"/>
			<path class="x-notch-left" d="M 0 525, L 0 535"/>
			<path class="x-notch-right" d="M 660 525, L 660 535"/>
		</g>
		<g class="y-axis" id="y_axis">
			<path class="y-axis-path" d="M 0 525 L 0 0"/>
			<path class="y-axis-path-2" d="M 660 525 L 660 0"/>
			<path class="y-gridline" d="M 0 525 L 660 525"/>
			<text class="y-axis-label" x="-5" y="525">
				-250
			</text>
			<path class="y-gridline" d="M 0 420 L 660 420"/>
			<text class="y-axis-label" x="-5" y="420">
				 0
			</text>
			<path class="y-gridline" d="M 0 315 L 660 315"/>
			<text class="y-axis-label" x="-5" y="315">
				250
			</text>
			<path class="y-gridline" d="M 0 210 L 660 210"/>
			<text class="y-axis-label" x="-5" y="210">
				500
			</text>
			<path class="y-gridline" d="M 0 105 L 660 105"/>
			<text class="y-axis-label" x="-5" y="105">
				750
			</text>
			<path class="y-gridline" d="M 0 0 L 660 0"/>
			<text class="y-axis-label" x="-5" y="0">
				1000
			</text>
		</g>
		<g>
			<path class="series-1-line" d="M 40 422.483544 L 45 413.161271435 L 51 422.297662871 L 57 412.404526306 L 62 427.000749741 L 68 431.915637176 L 74 410.822948612 L 80 440.969756047 L 85 417.938515482 L 91 396.813066918 L 97 442.575642353 L 103 420.610529788 L 108 394.822577224 L 114 401.406208659 L 120 401.614744094 L 126 412.032471529 L 131 396.744518965 L 137 396.3067584 L 143 379.403317835 L 149 347.325445271 L 154 369.976932706 L 160 337.221684141 L 166 345.399299576 L 172 334.720259012 L 177 279.833530447 L 183 307.331481882 L 189 292.172217318 L 195 248.248664753 L 200 249.178760188 L 206 282.825847624 L 212 199.799119059 L 218 221.169270494 L 223 249.001037929 L 229 167.029517365 L 235 166.7752128 L 240 153.371380235 L 246 164.575011671 L 252 143.460483106 L 258 84.9768745412 L 263 111.257665976 L 269 133.230937412 L 275 140.536464847 L 281 92.6712962824 L 286 64.2554877176 L 292 93.9070311529 L 298 71.9960145882 L 304 113.525830024 L 309 166.202277459 L 315 153.068084894 L 321 149.270324329 L 327 131.601643765 L 332 152.5091232 L 338 126.903618635 L 344 146.873658071 L 350 206.076401506 L 355 196.420144941 L 361 193.634752376 L 367 174.049191812 L 373 159.536055247 L 378 175.478798682 L 384 175.773182118 L 390 250.235533553 L 396 262.614324988 L 401 322.699404424 L 407 288.856523859 L 413 357.664667294 L 419 325.436602729 L 424 284.237674165 L 430 320.5872096 L 436 340.697025035 L 441 285.250520471 L 447 234.962119906 L 453 286.097671341 L 459 264.357342776 L 464 237.750894212 L 470 296.490797647 L 476 349.124741082 L 482 341.558068518 L 487 351.168219953 L 493 358.377147388 L 499 321.591914824 L 505 339.290090259 L 510 401.207041694 L 516 387.211009129 L 522 368.886456565 L 528 373.4892 L 533 393.611111435 L 539 440.989174871 L 545 415.287238306 L 551 415.043517741 L 556 416.479797176 L 562 407.103932612 L 568 433.890908047 L 574 419.528803482 L 579 420.448146918 L 585 422.046042353 L 591 427.337753788 L 597 425.500049224 L 602 423.307360659 L 608 417.216064094 L 614 412.686327529 L 620 425.268566965"/>
			<path class="series-2-line" d="M 40 435.54 L 45 422.788470588 L 51 429.776941176 L 57 407.785411765 L 62 398.393882353 L 68 408.742352941 L 74 430.430823529 L 80 402.979294118 L 85 415.847764706 L 91 393.436235294 L 97 403.364705882 L 103 413.713176471 L 108 447.161647059 L 114 410.050117647 L 120 401.078588235 L 126 388.327058824 L 131 421.775529412 L 137 398.944 L 143 422.312470588 L 149 388.560941176 L 154 367.409411765 L 160 439.497882353 L 166 415.826352941 L 172 418.194823529 L 177 420.983294118 L 183 430.071764706 L 189 410.600235294 L 195 423.048705882 L 200 416.177176471 L 206 416.025647059 L 212 418.814117647 L 218 417.402588235 L 223 423.551058824 L 229 409.119529412 L 235 423.248 L 240 408.396470588 L 246 371.284941176 L 252 363.573411765 L 258 370.561882353 L 263 356.550352941 L 269 359.338823529 L 275 357.087294118 L 281 361.975764706 L 286 379.464235294 L 292 363.772705882 L 298 398.481176471 L 304 364.309647059 L 309 376.758117647 L 315 401.806588235 L 321 378.975058824 L 327 341.443529412 L 332 379.512 L 338 351.640470588 L 344 339.308941176 L 350 365.617411765 L 355 339.425882353 L 361 322.474352941 L 367 289.142823529 L 373 267.151294118 L 378 293.459764706 L 384 254.668235294 L 390 242.756705882 L 396 333.745176471 L 401 287.813647059 L 407 365.782117647 L 413 318.590588235 L 419 341.119058824 L 424 354.407529412 L 430 292.936 L 436 258.764470588 L 441 283.392941176 L 447 273.161411765 L 453 198.249882353 L 459 75.0383529412 L 464 105.126823529 L 470 154.535294118 L 476 222.843764706 L 482 231.092235294 L 487 229.680705882 L 493 258.929176471 L 499 107.577647059 L 505 138.506117647 L 510 200.094588235 L 516 195.743058824 L 522 260.691529412 L 528 287.0 L 533 382.188470588 L 539 402.196941176 L 545 422.205411765 L 551 418.273882353 L 556 414.342352941 L 562 426.370823529 L 568 415.299294118 L 574 418.927764706 L 579 413.736235294 L 585 417.364705882 L 591 418.053176471 L 597 400.681647059 L 602 422.370117647 L 608 429.778588235 L 614 439.287058824 L 620 416.455529412"/>
		</g>
		<text class="x-axis-label" x="40.0" y="540">
			0
		</text>
		<path class="x-notch" d="M 68.7128712871 525 L 68.7128712871 530"/>
		<text class="x-axis-label" x="97.4257425743" y="540">
			10
		</text>
		<path class="x-notch" d="M 126.138613861 525 L 126.138613861 530"/>
		<text class="x-axis-label" x="154.851485149" y="540">
			20
		</text>
		<path class="x-notch" d="M 183.564356436 525 L 183.564356436 530"/>
		<text class="x-axis-label" x="212.277227723" y="540">
			30
		</text>
		<path class="x-notch" d="M 240.99009901 525 L 240.99009901 530"/>
		<text class="x-axis-label" x="269.702970297" y="540">
			40
		</text>
		<path class="x-notch" d="M 298.415841584 525 L 298.415841584 530"/>
		<text class="x-axis-label" x="327.128712871" y="540">
			50
		</text>
		<path class="x-notch" d="M 355.841584158 525 L 355.841584158 530"/>
		<text class="x-axis-label" x="384.554455446" y="540">
			60
		</text>
		<path class="x-notch" d="M 413.267326733 525 L 413.267326733 530"/>
		<text class="x-axis-label" x="441.98019802" y="540">
			70
		</text>
		<path class="x-notch" d="M 470.693069307 525 L 470.693069307 530"/>
		<text class="x-axis-label" x="499.405940594" y="540">
			80
		</text>
		<path class="x-notch" d="M 528.118811881 525 L 528.118811881 530"/>
		<text class="x-axis-label" x="556.831683168" y="540">
			90
		</text>
		<path class="x-notch" d="M 585.544554455 525 L 585.544554455 530"/>
		<text class="x-axis-label" x="614.257425743" y="540">
			100
		</text>
		<path class="x-notch" d="M 642.97029703 525 L 642.97029703 530"/>
	</g>
</svg>
