<?xml version="1.0" ?>
<svg height="600" version="1.1" width="800" xmlns="http://www.w3.org/2000/svg" xmlns:svg="http://www.w3.org/2000/svg">
	<style type="text/css">
		

.x-axis-path, .y-gridline, .x-notch { fill:none; stroke: #a7a9ac; stroke-width:1; }



.y-gridline { stroke-width: 1; }

.y-axis-path, .y-axis-path2, .x-notch-left, .x-notch-right { display: none;}



.x-axis-label, .data-point-label {font-size: 12px; font-weight:normal; font-family: sans-serif; fill: #58595b; text-anchor:middle;}

.y-axis-label {font-size: 12px; font-family: helvetica; fill: #a7a9ac; text-anchor:end;}



.series-1-line { fill: none; stroke: #10b80c; stroke-width:2; }



.series-2-line { fill: none; stroke: #e90f0a; stroke-width: 2;}

	</style>
	<rect fill="white" height="600" width="800" x="0" y="0"/>
	<g id="grid" transform="translate(70, 30)">
		<g class="x-axis" id="x_axis">
			<path class="x-axis-path" d="M 0 525 L 660 525"/>
			<path class="x-notch-left" d="M 0 525, L 0 535"/>
			<path class="x-notch-right" d="M 660 525, L 660 535"/>
		</g>
		<g class="y-axis" id="y_axis">
			<path class="y-axis-path" d="M 0 525 L 0 0"/>
			<path class="y-axis-path-2" d="M 660 525 L 660 0"/>
			<path class="y-gridline" d="M 0 525 L 660 525"/>
			<text class="y-axis-label" x="-5" y="525">
				-200
			</text>
			<path class="y-gridline" d="M 0 420 L 660 420"/>
			<text class="y-axis-label" x="-5" y="420">
				 0
			</text>
			<path class="y-gridline" d="M 0 315 L 660 315"/>
			<text class="y-axis-label" x="-5" y="315">
				200
			</text>
			<path class="y-gridline" d="M 0 210 L 660 210"/>
			<text class="y-axis-label" x="-5" y="210">
				400
			</text>
			<path class="y-gridline" d="M 0 105 L 660 105"/>
			<text class="y-axis-label" x="-5" y="105">
				600
			</text>
			<path class="y-gridline" d="M 0 0 L 660 0"/>
			<text class="y-axis-label" x="-5" y="0">
				800
			</text>
		</g>
		<g>
			<path class="series-1-line" d="M 40 436.731424401 L 43 419.722793818 L 47 397.617598412 L 50 418.193268336 L 54 426.162644168 L 58 425.043886502 L 61 436.350322407 L 65 435.993884747 L 69 441.16950207 L 72 414.456713247 L 76 439.965957526 L 80 400.71931482 L 83 439.488512884 L 87 409.909808313 L 91 416.137789447 L 94 442.119026959 L 98 443.159044099 L 102 419.89282457 L 105 435.606794409 L 109 402.037653042 L 112 410.769065911 L 116 390.132482543 L 120 428.792454356 L 123 406.632928793 L 127 395.338019654 L 131 426.252548551 L 134 374.308495553 L 138 389.15289992 L 142 373.323403512 L 145 425.605813122 L 149 388.40900194 L 153 391.408300344 L 156 421.179632201 L 160 396.172300943 L 164 384.932004929 L 167 380.72972792 L 171 394.902645512 L 174 382.465105271 L 178 366.925935636 L 182 369.852227892 L 185 335.17582662 L 189 379.278435033 L 193 309.231404155 L 196 322.061348195 L 200 329.921497775 L 204 336.494135838 L 207 345.043599277 L 211 329.540649746 L 215 306.437137716 L 218 314.097793754 L 222 315.047260633 L 226 310.010789349 L 229 294.380786483 L 233 323.300096982 L 236 245.653069545 L 240 334.866685908 L 244 299.247713016 L 247 240.120194657 L 251 327.809736947 L 255 348.966343387 L 258 326.225598339 L 262 285.890088748 L 266 266.977638937 L 269 237.724915304 L 273 262.744622236 L 277 279.329289425 L 280 301.610982853 L 284 271.813825778 L 288 242.253514229 L 291 245.579076541 L 295 260.313688718 L 298 280.472827443 L 302 258.185399637 L 306 256.577670564 L 309 260.047830323 L 313 229.344887673 L 317 228.878657822 L 320 243.232958905 L 324 244.980116986 L 328 255.92378591 L 331 226.598622068 L 335 220.81794083 L 339 193.941878568 L 342 177.76772523 L 346 134.168161715 L 350 189.208675669 L 353 180.307972014 L 357 160.868915843 L 361 175.476757655 L 364 138.914081266 L 368 105.0 L 371 201.396515785 L 375 110.671766961 L 379 138.920439592 L 382 109.812596377 L 386 153.262111036 L 390 195.278384851 L 393 153.873533277 L 397 159.574625082 L 401 199.268850652 L 404 158.026423608 L 408 202.146576135 L 412 188.494247554 L 415 176.63736086 L 419 194.927202644 L 423 190.616265322 L 426 223.19974871 L 430 216.839262833 L 433 268.995468018 L 437 235.916146966 L 441 298.755868053 L 444 259.671649877 L 448 303.42988433 L 452 246.098090827 L 455 270.409807909 L 459 353.184451835 L 463 288.57920865 L 466 346.122305431 L 470 324.905917426 L 474 295.944086505 L 477 345.124866721 L 481 327.300151914 L 485 358.451243367 L 488 374.709929618 L 492 354.636172714 L 495 375.610829724 L 499 411.024008755 L 503 408.9623965 L 506 401.568222805 L 510 410.228044375 L 514 426.921937815 L 517 429.721459707 L 521 427.242184375 L 525 429.02641147 L 528 429.177621208 L 532 436.656610785 L 536 399.278416112 L 539 413.124220888 L 543 387.971726243 L 547 410.089297323 L 550 437.738923387 L 554 410.065169923 L 557 430.622446826 L 561 418.874503414 L 565 432.176723656 L 568 428.790247901 L 572 393.842195847 L 576 422.490138533 L 579 416.020426405 L 583 413.015676592 L 587 423.632798638 L 590 418.705270636 L 594 429.413225912 L 598 429.510105494 L 601 421.262495593 L 605 423.499756961 L 609 438.651749245 L 612 408.093687012 L 616 417.223803997 L 620 414.889409083"/>
			<path class="series-2-line" d="M 40 414.340608713 L 43 393.88367777 L 47 423.6538445 L 50 416.637967864 L 54 444.993286772 L 58 428.780899294 L 61 405.494272707 L 65 435.971863348 L 69 431.078258445 L 72 434.673740472 L 76 402.898026954 L 80 430.545921952 L 83 427.06716487 L 87 436.322038184 L 91 460.432813627 L 94 465.443143476 L 98 471.160897235 L 102 488.90485748 L 105 440.150970102 L 109 464.969169455 L 112 512.424933957 L 116 478.526948708 L 120 436.847300438 L 123 475.106554098 L 127 446.160536225 L 131 398.821496668 L 134 420.810000378 L 138 480.291971365 L 142 469.031551264 L 145 426.644479083 L 149 465.611156654 L 153 496.796171206 L 156 407.011696996 L 160 448.1006463 L 164 438.25507402 L 167 434.068893028 L 171 460.301940203 L 174 444.089552726 L 178 442.733067376 L 182 430.057799453 L 185 379.181640342 L 189 426.637404844 L 193 430.940310782 L 196 390.675510334 L 200 380.829938054 L 204 406.355561319 L 207 399.339684683 L 211 392.323808046 L 215 357.010974975 L 218 350.702522249 L 222 370.568754227 L 226 386.190442739 L 229 371.392903083 L 233 331.835526546 L 236 363.020541098 L 240 325.585436293 L 244 339.084853073 L 247 322.872465595 L 251 247.236469603 L 255 287.617994996 L 258 250.890314102 L 262 227.603687516 L 266 283.548538948 L 269 241.868890679 L 273 231.315894488 L 277 184.684278842 L 280 270.340934532 L 284 203.19402547 L 288 237.208735666 L 291 245.048761158 L 295 211.150775908 L 298 269.217899074 L 302 216.926892141 L 306 277.116287039 L 309 234.729214858 L 313 281.477555449 L 317 218.575189853 L 320 244.100813118 L 324 222.229034353 L 328 200.357255588 L 331 169.996389892 L 335 136.098404642 L 339 137.571614937 L 342 124.896347013 L 346 197.111948397 L 350 248.812256364 L 353 205.010336362 L 357 205.068698834 L 361 190.978583089 L 364 158.495445661 L 368 154.309264668 L 371 99.8959860026 L 375 184.845217782 L 379 194.807515007 L 382 130.490301589 L 386 169.45697916 L 390 183.663819851 L 393 244.56063866 L 397 185.195392618 L 401 175.349820338 L 404 155.600313306 L 408 145.047317115 L 412 180.476875132 L 415 184.072357159 L 419 147.344676266 L 423 160.136669134 L 426 128.360955617 L 430 157.423698436 L 433 190.023560809 L 437 221.208575361 L 441 214.900122636 L 444 161.901691792 L 448 235.532140997 L 452 215.075210054 L 455 149.343148814 L 459 150.816359108 L 463 161.486080244 L 466 153.762779697 L 470 182.825522516 L 474 206.228874048 L 477 178.697703996 L 481 175.218946914 L 485 201.45199409 L 488 205.754900028 L 492 222.084012451 L 495 207.993896706 L 499 176.218183189 L 503 196.791839077 L 506 249.199570955 L 510 390.742715605 L 514 382.311991147 L 517 389.444592729 L 521 364.743118321 L 525 419.980545842 L 528 426.405723513 L 532 393.215162174 L 536 432.889263656 L 539 399.698702317 L 543 435.835684245 L 547 436.601470629 L 550 401.996061468 L 554 445.207282505 L 557 413.431568987 L 561 427.638409678 L 565 451.749185121 L 568 402.995297742 L 572 394.564573284 L 576 425.042163925 L 579 415.904015556 L 583 445.674182286 L 587 419.557860056 L 590 445.790907231 L 594 433.115639308 L 598 448.029903909 L 601 412.717070837 L 605 424.801639795 L 609 408.589252317 L 612 432.70002776 L 616 445.492020629 L 620 398.152981072"/>
		</g>
		<text class="x-axis-label" x="40.0" y="540">
			0
		</text>
		<path class="x-notch" d="M 58.2389937107 525 L 58.2389937107 530"/>
		<text class="x-axis-label" x="76.4779874214" y="540">
			10
		</text>
		<path class="x-notch" d="M 94.7169811321 525 L 94.7169811321 530"/>
		<text class="x-axis-label" x="112.955974843" y="540">
			20
		</text>
		<path class="x-notch" d="M 131.194968553 525 L 131.194968553 530"/>
		<text class="x-axis-label" x="149.433962264" y="540">
			30
		</text>
		<path class="x-notch" d="M 167.672955975 525 L 167.672955975 530"/>
		<text class="x-axis-label" x="185.911949686" y="540">
			40
		</text>
		<path class="x-notch" d="M 204.150943396 525 L 204.150943396 530"/>
		<text class="x-axis-label" x="222.389937107" y="540">
			50
		</text>
		<path class="x-notch" d="M 240.628930818 525 L 240.628930818 530"/>
		<text class="x-axis-label" x="258.867924528" y="540">
			60
		</text>
		<path class="x-notch" d="M 277.106918239 525 L 277.106918239 530"/>
		<text class="x-axis-label" x="295.34591195" y="540">
			70
		</text>
		<path class="x-notch" d="M 313.58490566 525 L 313.58490566 530"/>
		<text class="x-axis-label" x="331.823899371" y="540">
			80
		</text>
		<path class="x-notch" d="M 350.062893082 525 L 350.062893082 530"/>
		<text class="x-axis-label" x="368.301886792" y="540">
			90
		</text>
		<path class="x-notch" d="M 386.540880503 525 L 386.540880503 530"/>
		<text class="x-axis-label" x="404.779874214" y="540">
			100
		</text>
		<path class="x-notch" d="M 423.018867925 525 L 423.018867925 530"/>
		<text class="x-axis-label" x="441.257861635" y="540">
			110
		</text>
		<path class="x-notch" d="M 459.496855346 525 L 459.496855346 530"/>
		<text class="x-axis-label" x="477.735849057" y="540">
			120
		</text>
		<path class="x-notch" d="M 495.974842767 525 L 495.974842767 530"/>
		<text class="x-axis-label" x="514.213836478" y="540">
			130
		</text>
		<path class="x-notch" d="M 532.452830189 525 L 532.452830189 530"/>
		<text class="x-axis-label" x="550.691823899" y="540">
			140
		</text>
		<path class="x-notch" d="M 568.93081761 525 L 568.93081761 530"/>
		<text class="x-axis-label" x="587.169811321" y="540">
			150
		</text>
		<path class="x-notch" d="M 605.408805031 525 L 605.408805031 530"/>
	</g>
</svg>
