<?xml version="1.0" ?>
<svg height="600" version="1.1" width="800" xmlns="http://www.w3.org/2000/svg" xmlns:svg="http://www.w3.org/2000/svg">
	<style type="text/css">
		

.x-axis-path, .y-gridline, .x-notch { fill:none; stroke: #a7a9ac; stroke-width:1; }



.y-gridline { stroke-width: 1; }

.y-axis-path, .y-axis-path2, .x-notch-left, .x-notch-right { display: none;}



.x-axis-label, .data-point-label {font-size: 12px; font-weight:normal; font-family: sans-serif; fill: #58595b; text-anchor:middle;}

.y-axis-label {font-size: 12px; font-family: helvetica; fill: #a7a9ac; text-anchor:end;}



.series-1-line { fill: none; stroke: #10b80c; stroke-width:2; }



.series-2-line { fill: none; stroke: #e90f0a; stroke-width: 2;}

	</style>
	<rect fill="white" height="600" width="800" x="0" y="0"/>
	<g id="grid" transform="translate(70, 30)">
		<g class="x-axis" id="x_axis">
			<path class="x-axis-path" d="M 0 525 L 660 525"/>
			<path class="x-notch-left" d="M 0 525, L 0 535"/>
			<path class="x-notch-right" d="M 660 525, L 660 535"/>
		</g>
		<g class="y-axis" id="y_axis">
			<path class="y-axis-path" d="M 0 525 L 0 0"/>
			<path class="y-axis-path-2" d="M 660 525 L 660 0"/>
			<path class="y-gridline" d="M 0 525 L 660 525"/>
			<text class="y-axis-label" x="-5" y="525">
				-200
			</text>
			<path class="y-gridline" d="M 0 420 L 660 420"/>
			<text class="y-axis-label" x="-5" y="420">
				 0
			</text>
			<path class="y-gridline" d="M 0 315 L 660 315"/>
			<text class="y-axis-label" x="-5" y="315">
				200
			</text>
			<path class="y-gridline" d="M 0 210 L 660 210"/>
			<text class="y-axis-label" x="-5" y="210">
				400
			</text>
			<path class="y-gridline" d="M 0 105 L 660 105"/>
			<text class="y-axis-label" x="-5" y="105">
				600
			</text>
			<path class="y-gridline" d="M 0 0 L 660 0"/>
			<text class="y-axis-label" x="-5" y="0">
				800
			</text>
		</g>
		<g>
			<path class="series-1-line" d="M 40 433.20039 L 45 406.679785842 L 50 421.216911684 L 55 414.888437526 L 60 421.442833368 L 65 450.464709211 L 70 409.042085053 L 75 416.350380895 L 81 415.110206737 L 86 443.472472579 L 91 432.930768421 L 96 410.340944263 L 101 449.606830105 L 106 424.176545947 L 111 423.367501789 L 116 392.794947632 L 122 426.649343474 L 127 417.399979316 L 132 422.486895158 L 137 391.631681 L 142 403.072566842 L 147 372.486572684 L 152 341.725648526 L 158 358.658664368 L 163 333.632420211 L 168 308.498446053 L 173 298.346921895 L 178 302.262667737 L 183 267.315393579 L 188 265.536989421 L 193 261.335605263 L 199 230.507061105 L 204 169.161526947 L 209 179.861952789 L 214 143.635568632 L 219 166.061134474 L 224 164.188650316 L 229 150.119786158 L 235 197.422372 L 240 172.557617842 L 245 162.432973684 L 250 203.018079526 L 255 197.120735368 L 260 177.896161211 L 265 201.735027053 L 270 201.343252895 L 276 222.826338737 L 281 172.344314579 L 286 218.152540421 L 291 177.268356263 L 296 172.084172105 L 301 196.407717947 L 306 133.271723789 L 312 146.785939632 L 317 177.409065474 L 322 149.703851316 L 327 77.9796971579 L 332 163.876293 L 337 123.220588842 L 342 72.7656546842 L 347 97.2504805263 L 353 86.1300163684 L 358 146.153352211 L 363 163.558238053 L 368 147.671823895 L 373 147.293699737 L 378 130.640155579 L 383 200.530971421 L 389 170.039267263 L 394 203.086213105 L 399 180.455858947 L 404 201.293194789 L 409 201.345570632 L 414 190.992026474 L 419 208.598302316 L 424 227.497128158 L 430 252.641774 L 435 234.440319842 L 440 283.331555684 L 445 277.837831526 L 450 163.278717368 L 455 187.494533211 L 460 275.007079053 L 466 418.222964895 L 471 434.133490737 L 476 427.414626579 L 481 433.632602421 L 486 425.325298263 L 491 412.360404105 L 496 416.451289947 L 501 415.642245789 L 507 412.894691632 L 512 419.785507474 L 517 399.080433316 L 522 412.877099158 L 527 403.062205 L 532 425.016530842 L 537 410.503726684 L 543 411.888552526 L 548 426.048938368 L 553 408.937804211 L 558 412.449930053 L 563 406.592905895 L 568 425.518401737 L 573 411.274607579 L 578 408.729073421 L 584 432.272049263 L 589 418.472405105 L 594 417.313290947 L 599 429.333146789 L 604 421.779742632 L 609 414.630378474 L 614 413.727044316 L 620 424.387150158"/>
			<path class="series-2-line" d="M 40 420.525 L 45 422.474868421 L 50 428.099736842 L 55 412.724605263 L 60 414.674473684 L 65 433.424342105 L 70 425.924210526 L 75 433.124078947 L 81 401.998947368 L 86 421.273815789 L 91 428.473684211 L 96 431.473552632 L 101 428.698421053 L 106 424.348289474 L 111 428.398157895 L 116 427.723026316 L 122 429.672894737 L 127 440.022763158 L 132 425.172631579 L 137 427.6475 L 142 424.872368421 L 147 426.297236842 L 152 434.547105263 L 158 414.446973684 L 163 428.996842105 L 168 439.871710526 L 173 427.121578947 L 178 410.696447368 L 183 437.321315789 L 188 428.771184211 L 193 429.671052632 L 199 407.470921053 L 204 416.245789474 L 209 406.120657895 L 214 407.020526316 L 219 410.545394737 L 224 416.695263158 L 229 400.795131579 L 235 413.77 L 240 423.594868421 L 245 406.644736842 L 250 402.819605263 L 255 422.619473684 L 260 412.494342105 L 265 400.269210526 L 270 400.644078947 L 276 387.368947368 L 281 400.868815789 L 286 401.243684211 L 291 391.643552632 L 296 382.043421053 L 301 376.118289474 L 306 377.543157895 L 312 399.443026316 L 317 352.567894737 L 322 355.042763158 L 327 385.867631579 L 332 377.3175 L 337 332.017368421 L 342 361.792236842 L 347 330.667105263 L 353 346.266973684 L 358 319.866842105 L 363 369.591710526 L 368 330.066578947 L 373 348.816447368 L 378 326.616315789 L 383 317.016184211 L 389 324.216052632 L 394 349.790921053 L 399 338.615789474 L 404 364.715657895 L 409 357.215526316 L 414 335.015394737 L 419 332.765263158 L 424 354.140131579 L 430 342.965 L 435 337.039868421 L 440 368.389736842 L 445 366.139605263 L 450 363.364473684 L 455 353.764342105 L 460 400.339210526 L 466 397.564078947 L 471 434.688947368 L 476 418.788815789 L 481 432.288684211 L 486 418.488552632 L 491 414.663421053 L 496 411.888289474 L 501 415.938157895 L 507 415.263026316 L 512 405.662894737 L 517 421.787763158 L 522 420.062631579 L 527 416.2375 L 532 411.362368421 L 537 423.812236842 L 543 392.687105263 L 548 416.161973684 L 553 403.936842105 L 558 409.561710526 L 563 423.061578947 L 568 419.761447368 L 573 410.686315789 L 578 419.461184211 L 584 432.961052632 L 589 416.010921053 L 594 413.235789474 L 599 422.535657895 L 604 413.985526316 L 609 424.335394737 L 614 422.610263158 L 620 418.785131579"/>
		</g>
		<text class="x-axis-label" x="40.0" y="540">
			0
		</text>
		<path class="x-notch" d="M 65.6637168142 525 L 65.6637168142 530"/>
		<text class="x-axis-label" x="91.3274336283" y="540">
			10
		</text>
		<path class="x-notch" d="M 116.991150442 525 L 116.991150442 530"/>
		<text class="x-axis-label" x="142.654867257" y="540">
			20
		</text>
		<path class="x-notch" d="M 168.318584071 525 L 168.318584071 530"/>
		<text class="x-axis-label" x="193.982300885" y="540">
			30
		</text>
		<path class="x-notch" d="M 219.646017699 525 L 219.646017699 530"/>
		<text class="x-axis-label" x="245.309734513" y="540">
			40
		</text>
		<path class="x-notch" d="M 270.973451327 525 L 270.973451327 530"/>
		<text class="x-axis-label" x="296.637168142" y="540">
			50
		</text>
		<path class="x-notch" d="M 322.300884956 525 L 322.300884956 530"/>
		<text class="x-axis-label" x="347.96460177" y="540">
			60
		</text>
		<path class="x-notch" d="M 373.628318584 525 L 373.628318584 530"/>
		<text class="x-axis-label" x="399.292035398" y="540">
			70
		</text>
		<path class="x-notch" d="M 424.955752212 525 L 424.955752212 530"/>
		<text class="x-axis-label" x="450.619469027" y="540">
			80
		</text>
		<path class="x-notch" d="M 476.283185841 525 L 476.283185841 530"/>
		<text class="x-axis-label" x="501.946902655" y="540">
			90
		</text>
		<path class="x-notch" d="M 527.610619469 525 L 527.610619469 530"/>
		<text class="x-axis-label" x="553.274336283" y="540">
			100
		</text>
		<path class="x-notch" d="M 578.938053097 525 L 578.938053097 530"/>
		<text class="x-axis-label" x="604.601769912" y="540">
			110
		</text>
		<path class="x-notch" d="M 630.265486726 525 L 630.265486726 530"/>
	</g>
</svg>
