<?xml version="1.0" ?>
<svg height="600" version="1.1" width="800" xmlns="http://www.w3.org/2000/svg" xmlns:svg="http://www.w3.org/2000/svg">
	<style type="text/css">

.x-axis-path, .y-gridline, .x-notch { fill:none; stroke: #a7a9ac; stroke-width:1; }



.y-gridline { stroke-width: 1; }

.y-axis-path, .y-axis-path2, .x-notch-left, .x-notch-right { display: none;}



.x-axis-label, .data-point-label {font-size: 12px; font-weight:normal; font-family: sans-serif; fill: #58595b; text-anchor:middle;}

.y-axis-label {font-size: 12px; font-family: helvetica; fill: #a7a9ac; text-anchor:end;}



.series-1-line { fill: none; stroke: #10b80c; stroke-width:2; }



.series-2-line { fill: none; stroke: #e90f0a; stroke-width: 2;}
</style>
	<rect fill="white" height="600" width="800" x="0" y="0"/>
	<g id="grid" transform="translate(70, 30)">
		<g class="x-axis" id="x_axis">
			<path class="x-axis-path" d="M 0 525 L 660 525"/>
			<path class="x-notch-left" d="M 0 525, L 0 535"/>
			<path class="x-notch-right" d="M 660 525, L 660 535"/>
		</g>
		<g class="y-axis" id="y_axis">
			<path class="y-axis-path" d="M 0 525 L 0 0"/>
			<path class="y-axis-path-2" d="M 660 525 L 660 0"/>
			<path class="y-gridline" d="M 0 525 L 660 525"/>
			<text class="y-axis-label" x="-5" y="525">-200</text>
			<path class="y-gridline" d="M 0 394 L 660 394"/>
			<text class="y-axis-label" x="-5" y="394"> 0</text>
			<path class="y-gridline" d="M 0 263 L 660 263"/>
			<text class="y-axis-label" x="-5" y="263">200</text>
			<path class="y-gridline" d="M 0 132 L 660 132"/>
			<text class="y-axis-label" x="-5" y="132">400</text>
			<path class="y-gridline" d="M 0 1 L 660 1"/>
			<text class="y-axis-label" x="-5" y="1">600</text>
		</g>
		<g>
			<path class="series-1-line" d="M 40 395.2617783 L 48 394.802753637 L 56 397.519136215 L 64 385.467909215 L 72 393.197577221 L 80 376.260103793 L 88 382.224568436 L 96 333.604845774 L 104 349.350319853 L 112 324.98823302 L 120 336.64858706 L 128 320.429913073 L 136 287.159766359 L 144 273.534391297 L 152 272.247129129 L 160 233.572218146 L 168 214.387218982 L 176 221.607311556 L 185 204.069277222 L 193 181.854362411 L 201 168.974897905 L 209 162.046110514 L 217 156.755061657 L 225 178.242130785 L 233 184.679833447 L 241 162.619778469 L 249 170.413178889 L 257 157.142235542 L 265 157.064895652 L 273 90.4475081117 L 281 132.370539271 L 289 85.8977047458 L 297 75.7754833512 L 305 76.5622925515 L 313 84.4194253867 L 321 87.9637615841 L 330 98.1862328597 L 338 99.646419734 L 346 72.0085719471 L 354 93.0956456532 L 362 95.1661875019 L 370 107.972589464 L 378 56.0040051955 L 386 52.3691474638 L 394 0.0 L 402 84.0244656355 L 410 111.116438689 L 418 78.428400289 L 426 112.207876659 L 434 137.070776569 L 442 137.658297773 L 450 166.160616646 L 458 221.969649301 L 466 200.381980684 L 475 149.52381664 L 483 307.33310153 L 491 368.08231896 L 499 371.062573607 L 507 396.807933255 L 515 367.841782712 L 523 359.065323064 L 531 368.460550435 L 539 368.574123904 L 547 373.856552348 L 555 380.476225959 L 563 382.419019092 L 571 401.413143008 L 579 408.469433339 L 587 391.12259625 L 595 393.028768085 L 603 407.94657243 L 611 398.998077845 L 620 381.405253507"/>
			<path class="series-2-line" d="M 40 348.825035023 L 48 381.317347224 L 56 402.809075584 L 64 416.848795535 L 72 417.403928842 L 80 418.668777236 L 88 417.804480371 L 96 434.683060668 L 104 402.591299996 L 112 413.437302058 L 120 409.734144846 L 128 409.579563067 L 136 398.424397447 L 144 408.915541965 L 152 418.342113854 L 160 406.122375604 L 168 398.160927873 L 176 395.167485748 L 185 393.238616253 L 193 387.406313781 L 201 378.380293421 L 209 368.28970043 L 217 351.811671661 L 225 337.462788152 L 233 345.824787411 L 241 357.380504559 L 249 361.839070843 L 257 330.8118828 L 265 317.52757192 L 273 332.631864501 L 281 299.475531199 L 289 271.996918589 L 297 289.585213973 L 305 252.170590151 L 313 260.532589411 L 321 277.411169708 L 330 248.867984468 L 338 217.131081339 L 346 213.073066584 L 354 233.500222314 L 362 272.734827836 L 370 228.577910693 L 378 200.389582997 L 386 202.364146477 L 394 153.594081271 L 402 195.66754714 L 410 178.834660828 L 418 146.033185069 L 426 110.03799142 L 434 108.818837012 L 442 157.989453746 L 450 142.575997606 L 458 213.038066936 L 466 150.783415086 L 475 157.016269086 L 483 369.421355719 L 491 388.783938819 L 499 410.630524722 L 507 396.281641213 L 515 405.708213102 L 523 337.77584056 L 531 383.043024318 L 539 353.790123992 L 547 390.185869168 L 555 397.838153341 L 563 401.587004538 L 571 402.496995388 L 579 397.374408003 L 587 407.155837436 L 595 388.90352095 L 603 389.103796714 L 611 403.498374209 L 620 382.407197378"/>
		</g>
		<text class="x-axis-label" x="40.0" y="540">0</text>
		<path class="x-notch" d="M 80.2777777778 525 L 80.2777777778 530"/>
		<text class="x-axis-label" x="120.555555556" y="540">10</text>
		<path class="x-notch" d="M 160.833333333 525 L 160.833333333 530"/>
		<text class="x-axis-label" x="201.111111111" y="540">20</text>
		<path class="x-notch" d="M 241.388888889 525 L 241.388888889 530"/>
		<text class="x-axis-label" x="281.666666667" y="540">30</text>
		<path class="x-notch" d="M 321.944444444 525 L 321.944444444 530"/>
		<text class="x-axis-label" x="362.222222222" y="540">40</text>
		<path class="x-notch" d="M 402.5 525 L 402.5 530"/>
		<text class="x-axis-label" x="442.777777778" y="540">50</text>
		<path class="x-notch" d="M 483.055555556 525 L 483.055555556 530"/>
		<text class="x-axis-label" x="523.333333333" y="540">60</text>
		<path class="x-notch" d="M 563.611111111 525 L 563.611111111 530"/>
		<text class="x-axis-label" x="603.888888889" y="540">70</text>
		<path class="x-notch" d="M 644.166666667 525 L 644.166666667 530"/>
	</g>
</svg>
