<?xml version="1.0" ?>
<svg height="600" version="1.1" width="800" xmlns="http://www.w3.org/2000/svg" xmlns:svg="http://www.w3.org/2000/svg">
	<style type="text/css">
		

.x-axis-path, .y-gridline, .x-notch { fill:none; stroke: #a7a9ac; stroke-width:1; }



.y-gridline { stroke-width: 1; }

.y-axis-path, .y-axis-path2, .x-notch-left, .x-notch-right { display: none;}



.x-axis-label, .data-point-label {font-size: 12px; font-weight:normal; font-family: sans-serif; fill: #58595b; text-anchor:middle;}

.y-axis-label {font-size: 12px; font-family: helvetica; fill: #a7a9ac; text-anchor:end;}



.series-1-line { fill: none; stroke: #10b80c; stroke-width:2; }



.series-2-line { fill: none; stroke: #e90f0a; stroke-width: 2;}

	</style>
	<rect fill="white" height="600" width="800" x="0" y="0"/>
	<g id="grid" transform="translate(70, 30)">
		<g class="x-axis" id="x_axis">
			<path class="x-axis-path" d="M 0 525 L 660 525"/>
			<path class="x-notch-left" d="M 0 525, L 0 535"/>
			<path class="x-notch-right" d="M 660 525, L 660 535"/>
		</g>
		<g class="y-axis" id="y_axis">
			<path class="y-axis-path" d="M 0 525 L 0 0"/>
			<path class="y-axis-path-2" d="M 660 525 L 660 0"/>
			<path class="y-gridline" d="M 0 525 L 660 525"/>
			<text class="y-axis-label" x="-5" y="525">
				-300
			</text>
			<path class="y-gridline" d="M 0 420 L 660 420"/>
			<text class="y-axis-label" x="-5" y="420">
				 0
			</text>
			<path class="y-gridline" d="M 0 315 L 660 315"/>
			<text class="y-axis-label" x="-5" y="315">
				300
			</text>
			<path class="y-gridline" d="M 0 210 L 660 210"/>
			<text class="y-axis-label" x="-5" y="210">
				600
			</text>
			<path class="y-gridline" d="M 0 105 L 660 105"/>
			<text class="y-axis-label" x="-5" y="105">
				900
			</text>
			<path class="y-gridline" d="M 0 0 L 660 0"/>
			<text class="y-axis-label" x="-5" y="0">
				1200
			</text>
		</g>
		<g>
			<path class="series-1-line" d="M 40 408.045381458 L 43 432.393389832 L 46 412.810110113 L 49 418.786600198 L 52 427.293164467 L 55 413.56766622 L 59 438.609299946 L 62 423.879054371 L 65 433.99188047 L 68 438.500545386 L 71 429.143192457 L 74 439.290447465 L 78 410.567464028 L 81 423.349161483 L 84 441.273023816 L 87 426.947453116 L 90 437.972915692 L 93 426.581913793 L 97 426.895659473 L 100 402.864200742 L 103 432.238829853 L 106 425.284831091 L 109 423.692549099 L 112 412.486129414 L 116 426.631644287 L 119 398.01230809 L 122 391.960310696 L 125 417.244388835 L 128 407.135908867 L 131 432.582037212 L 135 406.793442321 L 138 413.717538561 L 141 418.838353087 L 144 414.068517112 L 147 404.861497744 L 150 424.633886064 L 154 402.889876847 L 157 390.875369206 L 160 378.132446791 L 163 379.636062782 L 166 366.327316566 L 169 355.063575452 L 173 365.869486136 L 176 373.347689532 L 179 349.154180595 L 182 352.54129225 L 185 306.740127819 L 188 311.848684933 L 192 303.704455348 L 195 295.688207571 L 198 322.50932921 L 201 285.270508309 L 204 274.69985178 L 207 275.603575574 L 211 283.855618274 L 214 313.554167541 L 217 278.810631402 L 220 294.88542698 L 223 238.48827005 L 226 255.510311271 L 230 239.86688845 L 233 210.0 L 236 219.407664357 L 239 232.11978297 L 242 250.310063773 L 246 307.115881196 L 249 277.664482984 L 252 261.201075306 L 255 263.213373924 L 258 235.390769551 L 261 269.792199656 L 265 277.524383853 L 268 277.398484981 L 271 309.304630324 L 274 307.82753196 L 277 307.35626246 L 280 339.076744052 L 284 331.302039408 L 287 363.947054378 L 290 308.289848611 L 293 322.064757006 L 296 332.409392409 L 299 356.549385279 L 303 387.829861807 L 306 385.198403577 L 309 329.805993976 L 312 376.386245121 L 315 357.149778079 L 318 379.741731829 L 322 378.346289464 L 325 385.985461529 L 328 353.796334143 L 331 379.86596823 L 334 352.633341971 L 337 360.238806151 L 341 402.924624927 L 344 417.925094335 L 347 398.053044394 L 350 417.964049631 L 353 416.684151406 L 356 444.614568893 L 360 388.633983738 L 363 417.038114175 L 366 434.534228856 L 369 420.277876486 L 372 427.386374684 L 375 435.708176482 L 379 427.945548995 L 382 415.526546735 L 385 409.970614044 L 388 429.396550199 L 391 427.480708563 L 394 432.578270056 L 398 432.915809538 L 401 417.943299806 L 404 437.380411838 L 407 413.579861131 L 410 427.008497617 L 413 421.325664653 L 417 444.992665598 L 420 415.148309156 L 423 420.489396599 L 426 403.598061013 L 429 442.747976742 L 433 405.070052057 L 436 419.954977324 L 439 419.853232766 L 442 438.423853874 L 445 443.463733425 L 448 434.580634214 L 452 415.89863484 L 455 427.998964354 L 458 416.307475589 L 461 415.778704403 L 464 413.712529206 L 467 420.323881166 L 471 428.772583236 L 474 407.514183869 L 477 434.011385352 L 480 429.807913945 L 483 429.17459424 L 486 416.085399916 L 490 411.327100329 L 493 426.489439687 L 496 425.220537082 L 499 425.615578249 L 502 405.569761458 L 505 424.810935143 L 509 434.253388921 L 512 424.503258018 L 515 426.35440771 L 518 435.738999291 L 521 416.074964853 L 524 421.080415495 L 528 433.145775332 L 531 435.308587768 L 534 421.27178729 L 537 435.752217938 L 540 410.021845757 L 543 434.18509166 L 547 421.950851871 L 550 420.000040558 L 553 417.71467398 L 556 435.072352001 L 559 432.682436904 L 562 426.133293272 L 566 406.318745017 L 569 425.282504612 L 572 415.232067098 L 575 440.551114914 L 578 419.546335836 L 581 425.672618715 L 585 427.685277845 L 588 420.396363307 L 591 428.533402634 L 594 424.36417988 L 597 422.598311294 L 600 427.731202977 L 604 428.160853309 L 607 412.413783249 L 610 412.542766459 L 613 425.53283993 L 616 425.246152645 L 620 425.271488615"/>
			<path class="series-2-line" d="M 40 425.497810102 L 43 394.90766945 L 46 398.566181892 L 49 439.627828635 L 52 437.428018837 L 55 388.361631121 L 59 390.217582874 L 62 392.5241748 L 65 403.392929999 L 68 409.755283474 L 71 399.894590748 L 74 387.78069716 L 78 411.267377183 L 81 392.393881011 L 84 397.40431397 L 87 424.496115371 L 90 415.987343162 L 93 407.02793078 L 97 364.721145648 L 100 412.091754803 L 103 405.836183454 L 106 390.117168488 L 109 399.183362998 L 112 361.382979589 L 116 375.856856166 L 119 365.545523268 L 122 420.126375179 L 125 401.703519179 L 128 385.984504212 L 131 395.050698722 L 135 364.911198242 L 138 416.337568948 L 141 397.464072775 L 144 410.135388663 L 147 411.991340416 L 150 392.216563899 L 154 399.029557548 L 157 434.683522223 L 160 425.724109841 L 163 355.928274199 L 166 382.569435428 L 169 388.931788904 L 173 379.52173635 L 176 379.575127414 L 179 399.456686059 L 182 334.617892313 L 185 350.894329579 L 188 263.523527219 L 192 240.143629323 L 195 302.385364163 L 198 307.846437295 L 201 341.69784128 L 204 327.781387003 L 207 351.718707199 L 211 318.875365685 L 214 350.022928637 L 217 328.445591431 L 220 305.516333708 L 223 305.1190846 L 226 257.404617401 L 230 226.363836577 L 233 252.554357633 L 236 232.779581116 L 239 189.57151564 L 242 258.572853065 L 246 243.755118443 L 249 222.628421409 L 252 231.694615919 L 255 188.035910271 L 258 123.647756697 L 261 159.301721372 L 265 137.273743993 L 268 40.4394980147 L 271 131.522203881 L 274 104.98782478 L 277 132.530266354 L 280 147.004142931 L 284 101.092236421 L 287 129.535958339 L 290 171.949525599 L 293 103.505610474 L 296 183.772952206 L 299 150.47897052 L 303 75.2754528117 L 306 158.697275749 L 309 106.927047 L 312 140.778450986 L 315 160.66000963 L 318 158.00955966 L 322 206.732089332 L 325 128.824730589 L 328 183.4055825 L 331 147.858399953 L 334 149.714351706 L 337 165.089508628 L 341 156.130096246 L 344 160.239248861 L 347 173.811845093 L 350 149.981307026 L 353 198.253196525 L 356 206.41811069 L 360 264.153443807 L 363 268.713236594 L 366 252.543581455 L 369 268.820018722 L 372 273.830451681 L 375 282.896646191 L 379 287.90707915 L 382 316.350801068 L 385 293.421543345 L 388 292.573654064 L 391 299.386647713 L 394 266.543306199 L 398 290.931266567 L 401 331.091632965 L 404 293.291249556 L 407 322.185611647 L 410 290.243550478 L 413 287.142460336 L 417 327.753466906 L 420 297.613966426 L 423 349.941617476 L 426 320.252757168 L 429 300.477980651 L 433 332.526823948 L 436 337.086616735 L 439 342.097049694 L 442 316.463950937 L 445 292.63341287 L 448 331.892498923 L 452 335.551011365 L 455 352.728728976 L 458 337.910994354 L 461 392.041206093 L 464 387.137555262 L 467 364.208297539 L 471 353.446324468 L 474 390.001569487 L 477 358.059508319 L 480 387.855150754 L 483 387.908541818 L 486 415.450983391 L 490 426.31973859 L 493 440.342974995 L 496 434.087403647 L 499 431.887593849 L 502 402.198733542 L 505 412.616848569 L 509 405.009356703 L 512 403.71082725 L 515 420.437904689 L 518 404.268249551 L 521 420.544686817 L 524 419.696797536 L 528 407.132263776 L 531 392.765169327 L 534 409.942886938 L 537 407.292436968 L 540 420.8650332 L 543 401.540896856 L 547 418.718614467 L 550 395.789356744 L 553 425.134359006 L 556 430.595432138 L 559 405.863613726 L 562 432.504774955 L 566 419.489601022 L 569 420.444272431 L 572 430.862387457 L 575 442.181782828 L 578 421.505725967 L 581 421.559117031 L 585 413.050344821 L 588 414.455656402 L 591 434.787855219 L 594 424.025882148 L 597 407.405586837 L 600 439.454430134 L 604 431.846938269 L 607 434.604170366 L 610 403.563389542 L 613 422.543667842 L 616 421.245138389 L 620 424.002370487"/>
		</g>
		<text class="x-axis-label" x="40.0" y="540">
			0
		</text>
		<path class="x-notch" d="M 55.8469945355 525 L 55.8469945355 530"/>
		<text class="x-axis-label" x="71.693989071" y="540">
			10
		</text>
		<path class="x-notch" d="M 87.5409836066 525 L 87.5409836066 530"/>
		<text class="x-axis-label" x="103.387978142" y="540">
			20
		</text>
		<path class="x-notch" d="M 119.234972678 525 L 119.234972678 530"/>
		<text class="x-axis-label" x="135.081967213" y="540">
			30
		</text>
		<path class="x-notch" d="M 150.928961749 525 L 150.928961749 530"/>
		<text class="x-axis-label" x="166.775956284" y="540">
			40
		</text>
		<path class="x-notch" d="M 182.62295082 525 L 182.62295082 530"/>
		<text class="x-axis-label" x="198.469945355" y="540">
			50
		</text>
		<path class="x-notch" d="M 214.316939891 525 L 214.316939891 530"/>
		<text class="x-axis-label" x="230.163934426" y="540">
			60
		</text>
		<path class="x-notch" d="M 246.010928962 525 L 246.010928962 530"/>
		<text class="x-axis-label" x="261.857923497" y="540">
			70
		</text>
		<path class="x-notch" d="M 277.704918033 525 L 277.704918033 530"/>
		<text class="x-axis-label" x="293.551912568" y="540">
			80
		</text>
		<path class="x-notch" d="M 309.398907104 525 L 309.398907104 530"/>
		<text class="x-axis-label" x="325.245901639" y="540">
			90
		</text>
		<path class="x-notch" d="M 341.092896175 525 L 341.092896175 530"/>
		<text class="x-axis-label" x="356.93989071" y="540">
			100
		</text>
		<path class="x-notch" d="M 372.786885246 525 L 372.786885246 530"/>
		<text class="x-axis-label" x="388.633879781" y="540">
			110
		</text>
		<path class="x-notch" d="M 404.480874317 525 L 404.480874317 530"/>
		<text class="x-axis-label" x="420.327868852" y="540">
			120
		</text>
		<path class="x-notch" d="M 436.174863388 525 L 436.174863388 530"/>
		<text class="x-axis-label" x="452.021857923" y="540">
			130
		</text>
		<path class="x-notch" d="M 467.868852459 525 L 467.868852459 530"/>
		<text class="x-axis-label" x="483.715846995" y="540">
			140
		</text>
		<path class="x-notch" d="M 499.56284153 525 L 499.56284153 530"/>
		<text class="x-axis-label" x="515.409836066" y="540">
			150
		</text>
		<path class="x-notch" d="M 531.256830601 525 L 531.256830601 530"/>
		<text class="x-axis-label" x="547.103825137" y="540">
			160
		</text>
		<path class="x-notch" d="M 562.950819672 525 L 562.950819672 530"/>
		<text class="x-axis-label" x="578.797814208" y="540">
			170
		</text>
		<path class="x-notch" d="M 594.644808743 525 L 594.644808743 530"/>
		<text class="x-axis-label" x="610.491803279" y="540">
			180
		</text>
		<path class="x-notch" d="M 626.338797814 525 L 626.338797814 530"/>
	</g>
</svg>
