<?xml version="1.0" ?>
<svg height="600" version="1.1" width="800" xmlns="http://www.w3.org/2000/svg" xmlns:svg="http://www.w3.org/2000/svg">
	<style type="text/css">
		

.x-axis-path, .y-gridline, .x-notch { fill:none; stroke: #a7a9ac; stroke-width:1; }



.y-gridline { stroke-width: 1; }

.y-axis-path, .y-axis-path2, .x-notch-left, .x-notch-right { display: none;}



.x-axis-label, .data-point-label {font-size: 12px; font-weight:normal; font-family: sans-serif; fill: #58595b; text-anchor:middle;}

.y-axis-label {font-size: 12px; font-family: helvetica; fill: #a7a9ac; text-anchor:end;}



.series-1-line { fill: none; stroke: #10b80c; stroke-width:2; }



.series-2-line { fill: none; stroke: #e90f0a; stroke-width: 2;}

	</style>
	<rect fill="white" height="600" width="800" x="0" y="0"/>
	<g id="grid" transform="translate(70, 30)">
		<g class="x-axis" id="x_axis">
			<path class="x-axis-path" d="M 0 525 L 660 525"/>
			<path class="x-notch-left" d="M 0 525, L 0 535"/>
			<path class="x-notch-right" d="M 660 525, L 660 535"/>
		</g>
		<g class="y-axis" id="y_axis">
			<path class="y-axis-path" d="M 0 525 L 0 0"/>
			<path class="y-axis-path-2" d="M 660 525 L 660 0"/>
			<path class="y-gridline" d="M 0 525 L 660 525"/>
			<text class="y-axis-label" x="-5" y="525">
				-500
			</text>
			<path class="y-gridline" d="M 0 420 L 660 420"/>
			<text class="y-axis-label" x="-5" y="420">
				 0
			</text>
			<path class="y-gridline" d="M 0 315 L 660 315"/>
			<text class="y-axis-label" x="-5" y="315">
				500
			</text>
			<path class="y-gridline" d="M 0 210 L 660 210"/>
			<text class="y-axis-label" x="-5" y="210">
				1000
			</text>
			<path class="y-gridline" d="M 0 105 L 660 105"/>
			<text class="y-axis-label" x="-5" y="105">
				1500
			</text>
			<path class="y-gridline" d="M 0 0 L 660 0"/>
			<text class="y-axis-label" x="-5" y="0">
				2000
			</text>
		</g>
		<g>
			<path class="series-1-line" d="M 40 410.256188984 L 44 416.905042818 L 48 417.674042187 L 52 426.107942533 L 56 429.43560658 L 60 423.413606148 L 65 420.604627068 L 69 431.759934802 L 73 427.734060806 L 77 415.569269288 L 81 425.070954271 L 85 416.772694319 L 90 429.576100552 L 94 416.691596885 L 98 418.908529684 L 102 413.703361333 L 106 420.343839687 L 110 430.782420151 L 115 419.165821638 L 119 420.448843834 L 123 412.879027915 L 127 411.060672131 L 131 410.375857413 L 135 418.984128131 L 140 407.164602423 L 144 407.376498701 L 148 399.663943214 L 152 405.43047584 L 156 392.619836781 L 161 397.452681557 L 165 382.44325617 L 169 394.147068763 L 173 379.240376661 L 177 365.384673684 L 181 373.013547813 L 186 349.251166368 L 190 352.387397229 L 194 348.295544051 L 198 358.445660499 L 202 350.776096174 L 206 347.861042527 L 211 348.809446465 L 215 350.597848706 L 219 326.050132333 L 223 325.554077775 L 227 330.012208908 L 231 325.380582755 L 236 344.018268367 L 240 325.787223397 L 244 296.450737068 L 248 309.022570181 L 252 299.756140348 L 256 321.238103426 L 261 300.719884081 L 265 310.752922007 L 269 314.417832786 L 273 306.759272416 L 277 294.0 L 282 308.542744007 L 286 319.56961286 L 290 320.050014562 L 294 328.464580023 L 298 323.673418791 L 302 325.761600856 L 307 332.188192609 L 311 338.985755769 L 315 326.45774462 L 319 328.697309036 L 323 322.072363124 L 327 333.84750095 L 332 332.037832499 L 336 340.674169986 L 340 339.364134575 L 344 355.485612066 L 348 343.797911072 L 352 321.66625346 L 357 316.057814643 L 361 343.988452039 L 365 336.158773479 L 369 349.527658283 L 373 331.66557995 L 377 356.814533231 L 382 362.516155885 L 386 368.448326999 L 390 360.552580155 L 394 340.297386531 L 398 352.586725387 L 403 371.898503511 L 407 352.85998205 L 411 383.705776642 L 415 371.107197616 L 419 382.473852576 L 423 367.990033128 L 428 366.520418087 L 432 372.943534907 L 436 381.954719687 L 440 390.68866716 L 444 390.55026343 L 448 403.085030588 L 453 399.738951559 L 457 403.872666483 L 461 406.520446462 L 465 421.066086246 L 469 417.314331028 L 473 432.562219195 L 478 429.941510219 L 482 421.606273413 L 486 437.350898841 L 490 422.995607375 L 494 439.351598314 L 498 430.907925768 L 503 428.092887829 L 507 433.927983563 L 511 434.300038626 L 515 437.844663253 L 519 432.904881796 L 524 427.062731439 L 528 420.729412623 L 532 424.85408381 L 536 426.813871544 L 540 426.289304712 L 544 428.608926246 L 549 424.069118523 L 553 423.450193887 L 557 428.494118586 L 561 425.407902197 L 565 425.925548057 L 569 415.768109682 L 574 427.611810615 L 578 426.073409715 L 582 429.615272215 L 586 425.255403667 L 590 420.224071083 L 594 431.219620985 L 599 419.049037912 L 603 410.645327099 L 607 424.456463993 L 611 423.551971119 L 615 420.854189905 L 620 419.923813233"/>
			<path class="series-2-line" d="M 40 436.283181094 L 44 416.037080403 L 48 418.288945383 L 52 414.972006979 L 56 404.638376311 L 60 415.132070299 L 65 450.017123108 L 69 430.439278823 L 73 433.582152344 L 77 446.748871957 L 81 415.810668769 L 85 407.815935522 L 90 417.864125239 L 94 426.018921806 L 98 432.614453425 L 102 450.347591812 L 106 448.812670491 L 110 436.808398808 L 115 438.280631314 L 119 438.527727075 L 123 451.58307062 L 127 453.500807396 L 131 434.925347721 L 135 447.869315197 L 140 433.19201789 L 144 413.725549673 L 148 431.681440195 L 152 423.12982661 L 156 393.639512302 L 161 400.457796057 L 165 388.230772239 L 169 387.364107323 L 173 367.786263039 L 177 353.66584607 L 181 380.420445938 L 186 374.096353707 L 190 354.518509422 L 194 328.814981415 L 198 314.02630804 L 202 347.017967699 L 206 341.919012212 L 211 294.38577494 L 215 285.277281017 L 219 279.844197327 L 223 288.333122097 L 227 236.23346605 L 231 207.856912419 L 236 206.878871436 L 240 167.25333497 L 244 200.913251034 L 248 186.235953727 L 252 172.895169232 L 256 162.561538564 L 261 154.00992498 L 265 140.112260146 L 269 155.395125044 L 273 147.511767865 L 277 114.346043324 L 282 139.76413038 L 286 127.202978359 L 290 113.639441729 L 294 174.252366171 L 298 183.855051617 L 302 167.061609025 L 307 194.595841367 L 311 194.620184993 L 315 155.774281 L 319 141.431111896 L 323 115.616207821 L 327 107.955602778 L 332 121.567826661 L 336 86.6200850365 L 340 87.4240611364 L 344 61.9432852647 L 348 91.9277910959 L 352 91.8407586545 L 357 50.767333308 L 361 68.2777195595 L 365 82.7809519836 L 369 95.836295528 L 373 111.676040764 L 377 115.709922827 L 382 182.559907059 L 386 174.23104561 L 390 151.200543227 L 394 171.161202967 L 398 178.870495263 L 403 190.032445657 L 407 220.016951488 L 411 177.941141532 L 415 219.731510537 L 419 201.935683335 L 423 203.296539774 L 428 237.736088312 L 432 204.904491974 L 436 241.905690068 L 440 256.965802831 L 444 331.389359665 L 448 322.503617877 L 453 336.895474234 L 457 396.394637999 L 461 366.124691217 L 465 395.440940643 L 469 394.90840393 L 473 397.16026891 L 478 411.329373131 L 482 417.813528683 L 486 403.358983511 L 490 406.390480965 L 494 413.877021125 L 498 428.603005685 L 503 429.62973392 L 507 423.417017756 L 511 426.782643413 L 515 408.652688008 L 519 406.672262416 L 524 410.817520546 L 528 417.747180368 L 532 430.802523913 L 536 425.369440223 L 540 438.313407699 L 544 433.214452212 L 549 447.049428231 L 553 448.633036804 L 557 431.171337805 L 561 444.115305282 L 565 442.13487969 L 569 428.794095195 L 574 423.472387573 L 578 433.854705493 L 582 424.857587637 L 586 441.031461077 L 590 422.901505672 L 594 419.584567268 L 599 424.954962142 L 603 437.787553551 L 607 412.195401612 L 611 414.892770862 L 615 432.403157114 L 620 417.391731604"/>
		</g>
		<text class="x-axis-label" x="40.0" y="540">
			0
		</text>
		<path class="x-notch" d="M 60.8633093525 525 L 60.8633093525 530"/>
		<text class="x-axis-label" x="81.726618705" y="540">
			10
		</text>
		<path class="x-notch" d="M 102.589928058 525 L 102.589928058 530"/>
		<text class="x-axis-label" x="123.45323741" y="540">
			20
		</text>
		<path class="x-notch" d="M 144.316546763 525 L 144.316546763 530"/>
		<text class="x-axis-label" x="165.179856115" y="540">
			30
		</text>
		<path class="x-notch" d="M 186.043165468 525 L 186.043165468 530"/>
		<text class="x-axis-label" x="206.90647482" y="540">
			40
		</text>
		<path class="x-notch" d="M 227.769784173 525 L 227.769784173 530"/>
		<text class="x-axis-label" x="248.633093525" y="540">
			50
		</text>
		<path class="x-notch" d="M 269.496402878 525 L 269.496402878 530"/>
		<text class="x-axis-label" x="290.35971223" y="540">
			60
		</text>
		<path class="x-notch" d="M 311.223021583 525 L 311.223021583 530"/>
		<text class="x-axis-label" x="332.086330935" y="540">
			70
		</text>
		<path class="x-notch" d="M 352.949640288 525 L 352.949640288 530"/>
		<text class="x-axis-label" x="373.81294964" y="540">
			80
		</text>
		<path class="x-notch" d="M 394.676258993 525 L 394.676258993 530"/>
		<text class="x-axis-label" x="415.539568345" y="540">
			90
		</text>
		<path class="x-notch" d="M 436.402877698 525 L 436.402877698 530"/>
		<text class="x-axis-label" x="457.26618705" y="540">
			100
		</text>
		<path class="x-notch" d="M 478.129496403 525 L 478.129496403 530"/>
		<text class="x-axis-label" x="498.992805755" y="540">
			110
		</text>
		<path class="x-notch" d="M 519.856115108 525 L 519.856115108 530"/>
		<text class="x-axis-label" x="540.71942446" y="540">
			120
		</text>
		<path class="x-notch" d="M 561.582733813 525 L 561.582733813 530"/>
		<text class="x-axis-label" x="582.446043165" y="540">
			130
		</text>
		<path class="x-notch" d="M 603.309352518 525 L 603.309352518 530"/>
	</g>
</svg>
