<?xml version="1.0" ?>
<svg height="600" version="1.1" width="800" xmlns="http://www.w3.org/2000/svg" xmlns:svg="http://www.w3.org/2000/svg">
	<style type="text/css">
		

.x-axis-path, .y-gridline, .x-notch { fill:none; stroke: #a7a9ac; stroke-width:1; }



.y-gridline { stroke-width: 1; }

.y-axis-path, .y-axis-path2, .x-notch-left, .x-notch-right { display: none;}



.x-axis-label, .data-point-label {font-size: 12px; font-weight:normal; font-family: sans-serif; fill: #58595b; text-anchor:middle;}

.y-axis-label {font-size: 12px; font-family: helvetica; fill: #a7a9ac; text-anchor:end;}



.series-1-line { fill: none; stroke: #10b80c; stroke-width:2; }



.series-2-line { fill: none; stroke: #e90f0a; stroke-width: 2;}

	</style>
	<rect fill="white" height="600" width="800" x="0" y="0"/>
	<g id="grid" transform="translate(70, 30)">
		<g class="x-axis" id="x_axis">
			<path class="x-axis-path" d="M 0 525 L 660 525"/>
			<path class="x-notch-left" d="M 0 525, L 0 535"/>
			<path class="x-notch-right" d="M 660 525, L 660 535"/>
		</g>
		<g class="y-axis" id="y_axis">
			<path class="y-axis-path" d="M 0 525 L 0 0"/>
			<path class="y-axis-path-2" d="M 660 525 L 660 0"/>
			<path class="y-gridline" d="M 0 525 L 660 525"/>
			<text class="y-axis-label" x="-5" y="525">
				-200
			</text>
			<path class="y-gridline" d="M 0 394 L 660 394"/>
			<text class="y-axis-label" x="-5" y="394">
				 0
			</text>
			<path class="y-gridline" d="M 0 263 L 660 263"/>
			<text class="y-axis-label" x="-5" y="263">
				200
			</text>
			<path class="y-gridline" d="M 0 132 L 660 132"/>
			<text class="y-axis-label" x="-5" y="132">
				400
			</text>
			<path class="y-gridline" d="M 0 1 L 660 1"/>
			<text class="y-axis-label" x="-5" y="1">
				600
			</text>
		</g>
		<g>
			<path class="series-1-line" d="M 40 403.137012519 L 43 396.40521055 L 47 399.947087565 L 51 403.651204243 L 55 365.521107041 L 59 401.975141231 L 62 394.594661791 L 66 393.612667189 L 70 403.535033654 L 74 370.199301233 L 78 385.565272306 L 81 388.710688449 L 85 416.657403372 L 89 405.221213558 L 93 398.3631627 L 97 380.834971985 L 101 387.783319549 L 104 385.864158926 L 108 405.771715826 L 112 379.501703456 L 116 383.674543733 L 120 358.251720448 L 123 366.227210968 L 127 312.235867077 L 131 309.631757031 L 135 260.525036034 L 139 306.513813625 L 143 243.925173532 L 146 210.318947948 L 150 250.32397814 L 154 201.234971352 L 158 178.173199094 L 162 184.653104237 L 165 157.661870492 L 169 224.036047569 L 173 148.505912348 L 177 188.654905637 L 181 119.288752865 L 185 135.736134233 L 188 122.425331199 L 192 159.997047637 L 196 134.141210349 L 200 76.3289396494 L 204 81.492932108 L 207 47.6527664917 L 211 85.8188930608 L 215 108.466810008 L 219 54.3852080031 L 223 119.732242123 L 226 103.862157626 L 230 41.4531902259 L 234 14.2640072225 L 238 102.573998857 L 242 19.1489498881 L 246 154.339736781 L 249 73.2757388392 L 253 90.083590306 L 257 59.4336694147 L 261 94.0853531125 L 265 63.2009298327 L 268 107.441905448 L 272 133.405753652 L 276 100.01603507 L 280 101.701575432 L 284 32.4976623219 L 288 90.2745431961 L 291 0.0 L 295 89.3371345907 L 299 49.8014289472 L 303 65.455607392 L 307 121.736621711 L 310 130.235103169 L 314 101.117320786 L 318 128.920072612 L 322 97.9094004445 L 326 126.991511825 L 330 167.285030567 L 333 204.00955792 L 337 202.937024025 L 341 222.160193859 L 345 203.929058334 L 349 170.845823689 L 352 136.338422859 L 356 173.279176036 L 360 203.73146744 L 364 203.109661757 L 368 198.46869883 L 371 182.363830766 L 375 215.122905858 L 379 213.564215333 L 383 245.981096892 L 387 269.133165856 L 391 274.513384138 L 394 239.447563952 L 398 294.827403024 L 402 286.220987836 L 406 298.252188731 L 410 321.080059549 L 413 305.318228553 L 417 325.244343196 L 421 314.330863142 L 425 322.649109551 L 429 322.406050532 L 433 355.796088885 L 436 332.734316627 L 440 348.622716283 L 444 362.168341476 L 448 338.40334323 L 452 353.733042351 L 455 342.531354925 L 459 331.34710053 L 463 362.484622534 L 467 319.577874761 L 471 301.09424146 L 475 362.99853308 L 478 334.926170217 L 482 350.508367114 L 486 370.398209805 L 490 357.628393097 L 494 378.599927261 L 497 382.790481747 L 501 391.48747482 L 505 405.862012533 L 509 370.183224472 L 513 379.132434143 L 516 361.531418346 L 520 382.466961736 L 524 383.954552839 L 528 394.471891791 L 532 385.756941924 L 536 401.537650435 L 539 405.962988487 L 543 405.611675968 L 547 406.990732392 L 551 402.277506739 L 555 395.924170255 L 558 401.358655877 L 562 408.127049569 L 566 398.99792462 L 570 412.561264023 L 574 411.70523713 L 578 398.322452548 L 581 402.387039324 L 585 410.30882486 L 589 407.200000441 L 593 406.037489611 L 597 414.139510196 L 600 409.138077171 L 604 405.434280264 L 608 404.848746534 L 612 375.874927248 L 616 393.691926283 L 620 389.032686791"/>
			<path class="series-2-line" d="M 40 393.328233114 L 43 400.123366276 L 47 394.265492861 L 51 390.516453875 L 55 388.173304509 L 59 374.583038185 L 62 400.357681213 L 66 414.885207283 L 70 400.591996149 L 74 390.516453875 L 78 404.341035135 L 81 405.512609818 L 85 403.169460452 L 89 403.638090325 L 93 402.700830579 L 97 421.446025508 L 101 405.043979945 L 104 428.709788543 L 108 391.922343494 L 112 403.638090325 L 116 409.027333867 L 120 425.663694367 L 123 386.064470079 L 127 390.750768811 L 131 411.60479817 L 135 421.914655381 L 139 401.294940959 L 143 431.287252846 L 146 408.558703994 L 150 416.759726776 L 154 396.842957163 L 158 401.529255896 L 162 403.403775389 L 165 390.516453875 L 169 369.896739453 L 173 390.047824001 L 177 375.754612868 L 181 366.382015403 L 185 375.988927805 L 188 367.31927515 L 192 371.302629072 L 196 345.762300981 L 200 370.833999199 L 204 358.649622495 L 207 372.474203755 L 211 338.498537946 L 215 367.787905023 L 219 359.118252368 L 223 361.695716671 L 226 368.490849833 L 230 342.950521742 L 234 360.992771861 L 238 372.708518692 L 242 363.335921227 L 246 353.963323763 L 249 332.640664531 L 253 340.841687312 L 257 350.448599714 L 261 343.887781488 L 265 335.218128834 L 268 368.02221996 L 272 345.996615918 L 276 344.356411362 L 280 353.963323763 L 284 346.699560728 L 288 351.38585946 L 291 313.895469602 L 295 302.414037708 L 299 327.485735925 L 303 323.736696939 L 307 342.481891869 L 310 331.000459975 L 314 348.339765284 L 318 368.490849833 L 322 352.08880427 L 326 337.092648327 L 330 355.134898446 L 333 354.197638699 L 337 327.954365799 L 341 343.184836679 L 345 361.930031608 L 349 367.31927515 L 352 348.105450347 L 356 340.841687312 L 360 358.883937432 L 364 344.590726298 L 368 354.197638699 L 371 315.301359221 L 375 302.414037708 L 379 324.673956686 L 383 337.795593136 L 387 315.769989095 L 391 297.259109102 L 394 310.380745552 L 398 332.640664531 L 402 330.297515165 L 406 316.004304031 L 410 317.175878714 L 413 334.515184024 L 417 349.745654904 L 421 350.917229587 L 425 340.138742503 L 429 349.042710094 L 433 347.402505538 L 436 352.08880427 L 440 339.201482756 L 444 362.867291354 L 448 340.138742503 L 452 332.172034658 L 455 350.917229587 L 459 312.020950109 L 463 360.289827051 L 467 335.45244377 L 471 338.732852883 L 475 330.063200228 L 478 348.808395157 L 482 356.306473129 L 486 349.745654904 L 490 366.382015403 L 494 383.018375903 L 497 358.180992622 L 501 370.599684262 L 505 374.583038185 L 509 373.645778438 L 513 374.114408312 L 516 321.862177447 L 520 344.122096425 L 524 384.658580459 L 528 387.236044762 L 532 346.933875664 L 536 378.332077171 L 539 399.186106529 L 543 397.545901973 L 547 400.123366276 L 551 393.562548051 L 555 396.140012353 L 558 396.608642227 L 562 408.324389057 L 566 405.278294881 L 570 398.717476656 L 574 393.562548051 L 578 396.140012353 L 581 390.985083748 L 585 387.236044762 L 589 404.575350072 L 593 392.390973368 L 597 387.938989572 L 600 398.951791593 L 604 399.420421466 L 608 406.918499438 L 612 401.763570832 L 616 389.579194128 L 620 374.583038185"/>
		</g>
		<text class="x-axis-label" x="40.0" y="540">
			0
		</text>
		<path class="x-notch" d="M 59.0789473684 525 L 59.0789473684 530"/>
		<text class="x-axis-label" x="78.1578947368" y="540">
			10
		</text>
		<path class="x-notch" d="M 97.2368421053 525 L 97.2368421053 530"/>
		<text class="x-axis-label" x="116.315789474" y="540">
			20
		</text>
		<path class="x-notch" d="M 135.394736842 525 L 135.394736842 530"/>
		<text class="x-axis-label" x="154.473684211" y="540">
			30
		</text>
		<path class="x-notch" d="M 173.552631579 525 L 173.552631579 530"/>
		<text class="x-axis-label" x="192.631578947" y="540">
			40
		</text>
		<path class="x-notch" d="M 211.710526316 525 L 211.710526316 530"/>
		<text class="x-axis-label" x="230.789473684" y="540">
			50
		</text>
		<path class="x-notch" d="M 249.868421053 525 L 249.868421053 530"/>
		<text class="x-axis-label" x="268.947368421" y="540">
			60
		</text>
		<path class="x-notch" d="M 288.026315789 525 L 288.026315789 530"/>
		<text class="x-axis-label" x="307.105263158" y="540">
			70
		</text>
		<path class="x-notch" d="M 326.184210526 525 L 326.184210526 530"/>
		<text class="x-axis-label" x="345.263157895" y="540">
			80
		</text>
		<path class="x-notch" d="M 364.342105263 525 L 364.342105263 530"/>
		<text class="x-axis-label" x="383.421052632" y="540">
			90
		</text>
		<path class="x-notch" d="M 402.5 525 L 402.5 530"/>
		<text class="x-axis-label" x="421.578947368" y="540">
			100
		</text>
		<path class="x-notch" d="M 440.657894737 525 L 440.657894737 530"/>
		<text class="x-axis-label" x="459.736842105" y="540">
			110
		</text>
		<path class="x-notch" d="M 478.815789474 525 L 478.815789474 530"/>
		<text class="x-axis-label" x="497.894736842" y="540">
			120
		</text>
		<path class="x-notch" d="M 516.973684211 525 L 516.973684211 530"/>
		<text class="x-axis-label" x="536.052631579" y="540">
			130
		</text>
		<path class="x-notch" d="M 555.131578947 525 L 555.131578947 530"/>
		<text class="x-axis-label" x="574.210526316" y="540">
			140
		</text>
		<path class="x-notch" d="M 593.289473684 525 L 593.289473684 530"/>
		<text class="x-axis-label" x="612.368421053" y="540">
			150
		</text>
		<path class="x-notch" d="M 631.447368421 525 L 631.447368421 530"/>
	</g>
</svg>
