<?xml version="1.0" ?>
<svg height="600" version="1.1" width="800" xmlns="http://www.w3.org/2000/svg" xmlns:svg="http://www.w3.org/2000/svg">
	<style type="text/css">

.x-axis-path, .y-gridline, .x-notch { fill:none; stroke: #a7a9ac; stroke-width:1; }



.y-gridline { stroke-width: 1; }

.y-axis-path, .y-axis-path2, .x-notch-left, .x-notch-right { display: none;}



.x-axis-label, .data-point-label {font-size: 12px; font-weight:normal; font-family: sans-serif; fill: #58595b; text-anchor:middle;}

.y-axis-label {font-size: 12px; font-family: helvetica; fill: #a7a9ac; text-anchor:end;}



.series-1-line { fill: none; stroke: #10b80c; stroke-width:2; }



.series-2-line { fill: none; stroke: #e90f0a; stroke-width: 2;}
</style>
	<rect fill="white" height="600" width="800" x="0" y="0"/>
	<g id="grid" transform="translate(70, 30)">
		<g class="x-axis" id="x_axis">
			<path class="x-axis-path" d="M 0 525 L 660 525"/>
			<path class="x-notch-left" d="M 0 525, L 0 535"/>
			<path class="x-notch-right" d="M 660 525, L 660 535"/>
		</g>
		<g class="y-axis" id="y_axis">
			<path class="y-axis-path" d="M 0 525 L 0 0"/>
			<path class="y-axis-path-2" d="M 660 525 L 660 0"/>
			<path class="y-gridline" d="M 0 525 L 660 525"/>
			<text class="y-axis-label" x="-5" y="525">-200</text>
			<path class="y-gridline" d="M 0 394 L 660 394"/>
			<text class="y-axis-label" x="-5" y="394"> 0</text>
			<path class="y-gridline" d="M 0 263 L 660 263"/>
			<text class="y-axis-label" x="-5" y="263">200</text>
			<path class="y-gridline" d="M 0 132 L 660 132"/>
			<text class="y-axis-label" x="-5" y="132">400</text>
			<path class="y-gridline" d="M 0 1 L 660 1"/>
			<text class="y-axis-label" x="-5" y="1">600</text>
		</g>
		<g>
			<path class="series-1-line" d="M 40 395.766562977 L 44 397.340391603 L 49 414.085146421 L 54 379.888676087 L 59 379.408974594 L 63 392.548353241 L 68 393.885602959 L 73 393.100031665 L 78 389.741878467 L 82 392.048210825 L 87 400.820913354 L 92 363.013307606 L 97 386.057234567 L 101 386.887040975 L 106 379.352176693 L 111 370.323508731 L 116 377.452397294 L 120 359.505631376 L 125 361.881074651 L 130 362.791420474 L 135 339.814585622 L 139 332.602778883 L 144 354.135354471 L 149 321.029090858 L 154 328.676941218 L 158 310.891794059 L 163 277.191428526 L 168 254.612431388 L 173 242.878538955 L 177 227.244829048 L 182 263.988825505 L 187 222.30470922 L 192 171.443059074 L 196 149.054386923 L 201 150.864704469 L 206 167.74777111 L 211 98.2022364556 L 215 179.755933888 L 220 76.3147339036 L 225 134.344172964 L 230 116.091807208 L 234 82.9624166355 L 239 27.2841495036 L 244 91.6592845939 L 249 66.9517971893 L 253 66.3855270736 L 258 92.6136855539 L 263 34.627671713 L 268 34.2862820429 L 272 70.9441598181 L 277 36.3033278835 L 282 59.018438059 L 287 25.3006148198 L 291 11.2590656657 L 296 11.1368871862 L 301 20.2790811551 L 306 59.7112043307 L 310 47.4810271207 L 315 90.4724525221 L 320 7.85532577589 L 325 31.4124552908 L 330 33.7881685308 L 334 31.8256419154 L 339 0.0 L 344 63.2330951806 L 349 50.9047408732 L 353 113.15120572 L 358 93.8777441592 L 363 120.492401845 L 368 140.871599013 L 372 119.711895348 L 377 155.232772551 L 382 211.601389882 L 387 153.690696142 L 391 268.643774128 L 396 233.40893026 L 401 248.365350106 L 406 261.949090353 L 410 275.38309028 L 415 297.117419353 L 420 289.248249006 L 425 289.362559447 L 429 266.916384854 L 434 313.39179238 L 439 284.929098496 L 444 292.421089339 L 448 309.033381566 L 453 312.828118313 L 458 324.219836643 L 463 311.712585847 L 467 339.723320055 L 472 322.924623254 L 477 321.008260572 L 482 333.19619426 L 486 338.386737567 L 491 363.374499064 L 496 331.070210054 L 501 371.869613537 L 505 391.914144688 L 510 389.749954576 L 515 388.964383282 L 520 391.311030342 L 524 390.998706851 L 529 400.382789031 L 534 396.505314083 L 539 391.555000132 L 543 394.092062167 L 548 392.014260701 L 553 398.554716599 L 558 394.12354442 L 562 394.51474847 L 567 392.246712006 L 572 398.948606686 L 577 399.593577385 L 581 392.906851638 L 586 391.602138571 L 591 400.132682925 L 596 396.699389602 L 600 398.930761812 L 605 391.869055346 L 610 393.511994889 L 615 388.538643965 L 620 399.289916464"/>
			<path class="series-2-line" d="M 40 384.481218131 L 44 392.876822073 L 49 385.974436522 L 54 394.370040464 L 59 407.26505308 L 63 392.488702349 L 68 393.910222845 L 73 393.082039005 L 78 407.551844657 L 82 406.94863125 L 87 397.796541362 L 92 399.218061859 L 97 392.315676308 L 101 411.509861068 L 106 393.133983398 L 111 397.255149099 L 116 407.675486944 L 120 407.972155272 L 125 396.570361047 L 130 394.392354604 L 135 398.513520305 L 139 382.387346972 L 144 374.360109253 L 149 379.381156689 L 154 370.229066801 L 158 380.424434213 L 163 390.39483119 L 168 376.293391761 L 173 398.862133026 L 177 389.260102271 L 182 377.183396745 L 187 369.156159026 L 192 371.477561257 L 196 354.001565322 L 201 360.597405794 L 206 340.871705521 L 211 362.540565052 L 215 370.486228126 L 220 380.456625104 L 225 346.782757942 L 230 359.677770557 L 234 359.524498018 L 239 367.470161092 L 244 370.466474625 L 249 363.789059508 L 253 372.634604317 L 258 369.106775272 L 263 342.182021121 L 268 342.253719015 L 272 369.996780256 L 277 359.944808633 L 282 351.69260048 L 287 346.814948833 L 291 343.287119788 L 296 344.258699417 L 301 365.252647646 L 306 354.97570559 L 310 358.42195999 L 315 363.218036992 L 320 362.164882718 L 325 336.589951169 L 330 351.509697689 L 334 332.458908717 L 339 339.504690057 L 344 353.974495709 L 349 346.397198857 L 353 339.269842872 L 358 344.740831176 L 363 342.337854299 L 368 365.131565998 L 372 375.32693341 L 377 343.452829717 L 382 358.372576236 L 387 363.618594106 L 391 364.140232868 L 396 367.811457701 L 401 350.335461766 L 406 354.0066866 L 410 381.07483654 L 415 359.09943193 L 420 366.595154137 L 425 365.766970297 L 429 366.063638625 L 434 353.761962665 L 439 353.833660559 L 444 333.882989853 L 448 347.677884204 L 453 360.57289682 L 458 364.01915122 L 463 349.242800489 L 467 357.188463563 L 472 371.433298781 L 477 353.957302846 L 482 373.601428473 L 486 370.523540296 L 491 349.897958289 L 496 370.216995217 L 501 374.788101786 L 505 388.358025703 L 510 392.029250536 L 515 391.201066696 L 520 384.298681145 L 524 406.192511109 L 529 389.391426475 L 534 388.338272201 L 539 396.733876143 L 543 395.230781001 L 548 385.403779812 L 553 391.099738549 L 558 397.470608587 L 562 397.317336048 L 567 399.638738279 L 572 397.68570227 L 577 393.033021057 L 581 391.529925915 L 586 392.726475978 L 591 395.047878209 L 596 394.89460567 L 600 397.216007901 L 605 392.788297122 L 610 390.385320245 L 615 402.380451126 L 620 391.653568202"/>
		</g>
		<text class="x-axis-label" x="40.0" y="540">0</text>
		<path class="x-notch" d="M 63.7704918033 525 L 63.7704918033 530"/>
		<text class="x-axis-label" x="87.5409836066" y="540">10</text>
		<path class="x-notch" d="M 111.31147541 525 L 111.31147541 530"/>
		<text class="x-axis-label" x="135.081967213" y="540">20</text>
		<path class="x-notch" d="M 158.852459016 525 L 158.852459016 530"/>
		<text class="x-axis-label" x="182.62295082" y="540">30</text>
		<path class="x-notch" d="M 206.393442623 525 L 206.393442623 530"/>
		<text class="x-axis-label" x="230.163934426" y="540">40</text>
		<path class="x-notch" d="M 253.93442623 525 L 253.93442623 530"/>
		<text class="x-axis-label" x="277.704918033" y="540">50</text>
		<path class="x-notch" d="M 301.475409836 525 L 301.475409836 530"/>
		<text class="x-axis-label" x="325.245901639" y="540">60</text>
		<path class="x-notch" d="M 349.016393443 525 L 349.016393443 530"/>
		<text class="x-axis-label" x="372.786885246" y="540">70</text>
		<path class="x-notch" d="M 396.557377049 525 L 396.557377049 530"/>
		<text class="x-axis-label" x="420.327868852" y="540">80</text>
		<path class="x-notch" d="M 444.098360656 525 L 444.098360656 530"/>
		<text class="x-axis-label" x="467.868852459" y="540">90</text>
		<path class="x-notch" d="M 491.639344262 525 L 491.639344262 530"/>
		<text class="x-axis-label" x="515.409836066" y="540">100</text>
		<path class="x-notch" d="M 539.180327869 525 L 539.180327869 530"/>
		<text class="x-axis-label" x="562.950819672" y="540">110</text>
		<path class="x-notch" d="M 586.721311475 525 L 586.721311475 530"/>
		<text class="x-axis-label" x="610.491803279" y="540">120</text>
		<path class="x-notch" d="M 634.262295082 525 L 634.262295082 530"/>
	</g>
</svg>
