<?xml version="1.0" ?>
<svg height="600" version="1.1" width="800" xmlns="http://www.w3.org/2000/svg" xmlns:svg="http://www.w3.org/2000/svg">
	<style type="text/css">

.x-axis-path, .y-gridline, .x-notch { fill:none; stroke: #a7a9ac; stroke-width:1; }



.y-gridline { stroke-width: 1; }

.y-axis-path, .y-axis-path2, .x-notch-left, .x-notch-right { display: none;}



.x-axis-label, .data-point-label {font-size: 12px; font-weight:normal; font-family: sans-serif; fill: #58595b; text-anchor:middle;}

.y-axis-label {font-size: 12px; font-family: helvetica; fill: #a7a9ac; text-anchor:end;}



.series-1-line { fill: none; stroke: #10b80c; stroke-width:2; }



.series-2-line { fill: none; stroke: #e90f0a; stroke-width: 2;}
</style>
	<rect fill="white" height="600" width="800" x="0" y="0"/>
	<g id="grid" transform="translate(70, 30)">
		<g class="x-axis" id="x_axis">
			<path class="x-axis-path" d="M 0 525 L 660 525"/>
			<path class="x-notch-left" d="M 0 525, L 0 535"/>
			<path class="x-notch-right" d="M 660 525, L 660 535"/>
		</g>
		<g class="y-axis" id="y_axis">
			<path class="y-axis-path" d="M 0 525 L 0 0"/>
			<path class="y-axis-path-2" d="M 660 525 L 660 0"/>
			<path class="y-gridline" d="M 0 525 L 660 525"/>
			<text class="y-axis-label" x="-5" y="525">-200</text>
			<path class="y-gridline" d="M 0 394 L 660 394"/>
			<text class="y-axis-label" x="-5" y="394"> 0</text>
			<path class="y-gridline" d="M 0 263 L 660 263"/>
			<text class="y-axis-label" x="-5" y="263">200</text>
			<path class="y-gridline" d="M 0 132 L 660 132"/>
			<text class="y-axis-label" x="-5" y="132">400</text>
			<path class="y-gridline" d="M 0 1 L 660 1"/>
			<text class="y-axis-label" x="-5" y="1">600</text>
		</g>
		<g>
			<path class="series-1-line" d="M 40 393.108038501 L 47 387.243306348 L 54 399.408753262 L 61 391.683910242 L 68 390.962530826 L 75 381.160446901 L 82 376.109385762 L 90 352.025902318 L 97 382.700891585 L 104 384.638335196 L 111 381.476169387 L 118 385.316560584 L 125 365.184481168 L 133 371.887226471 L 140 370.046879423 L 147 354.782093887 L 154 353.101761251 L 161 283.382893023 L 168 239.147566342 L 176 234.27079852 L 183 204.782409038 L 190 199.934425678 L 197 218.289438534 L 204 188.757305735 L 211 223.921764487 L 219 157.181521459 L 226 111.493372717 L 233 139.59679894 L 240 103.977092389 L 247 127.373465793 L 254 116.191087585 L 261 89.6953755598 L 269 75.0119454978 L 276 60.7494032 L 283 111.401489087 L 290 0.0 L 297 108.709212622 L 304 133.412899232 L 312 137.268022635 L 319 87.1776643914 L 326 112.535234254 L 333 207.515165069 L 340 127.495312461 L 347 156.281633048 L 355 206.236319016 L 362 123.993716648 L 369 143.336693835 L 376 282.236954123 L 383 185.770747809 L 390 256.342134742 L 398 286.959328437 L 405 290.538619632 L 412 337.093792635 L 419 322.221110401 L 426 299.706493464 L 433 325.340348832 L 440 331.781314185 L 448 332.759804576 L 455 359.497442072 L 462 349.797350336 L 469 343.700075993 L 476 358.655349234 L 483 332.508223844 L 491 324.26072752 L 498 342.179667108 L 505 363.338558547 L 512 369.852504977 L 519 378.647223389 L 526 368.975916115 L 534 353.01373066 L 541 387.350239491 L 548 370.850668528 L 555 381.577798936 L 562 391.912599393 L 569 390.91516112 L 577 403.051823573 L 584 406.630661469 L 591 390.697713775 L 598 389.583777758 L 605 399.758790453 L 612 402.960030603 L 620 395.264878642"/>
			<path class="series-2-line" d="M 40 414.37508699 L 47 412.244030696 L 54 403.880118443 L 61 360.385563514 L 68 373.553335481 L 75 366.889293035 L 82 370.42446943 L 90 403.99067908 L 97 380.894561834 L 104 399.161943223 L 111 417.429324611 L 118 403.965802937 L 125 395.601890684 L 133 399.703690348 L 140 388.50666175 L 147 394.308331221 L 154 402.376493768 L 161 395.145828053 L 168 390.181655414 L 176 388.617222388 L 183 403.484864162 L 190 375.289137496 L 197 395.82301196 L 204 395.391825472 L 211 379.095187454 L 219 393.396205959 L 226 394.098266009 L 233 374.401888377 L 240 373.40407862 L 247 380.905617898 L 254 368.575342762 L 261 358.511560703 L 269 384.145044587 L 276 366.148536762 L 283 342.485796247 L 290 385.1179782 L 297 364.854977299 L 304 345.158599667 L 312 351.526892407 L 319 353.928822264 L 326 342.731793666 L 333 364.965537937 L 340 351.502016263 L 347 335.772001514 L 355 310.409391192 L 362 312.24469778 L 369 333.345195513 L 376 332.347385756 L 383 343.248664648 L 390 350.183580657 L 398 358.251743204 L 405 385.585096895 L 412 382.320794063 L 419 371.123765465 L 426 380.891797819 L 433 392.926323248 L 440 371.530075809 L 448 384.697847776 L 455 357.068744379 L 462 378.735865381 L 469 368.672083321 L 476 389.205957785 L 483 368.942956883 L 491 362.845537706 L 498 362.980974487 L 505 365.949527614 L 512 377.417429774 L 519 364.520531369 L 526 359.55635873 L 534 363.658158394 L 541 366.060088251 L 548 387.727209253 L 555 382.763036614 L 562 372.699254554 L 569 384.733779984 L 577 403.001161372 L 584 386.137900084 L 591 407.805021086 L 598 393.774876144 L 605 386.544210428 L 612 384.413154134 L 620 402.680535522"/>
		</g>
		<text class="x-axis-label" x="40.0" y="540">0</text>
		<path class="x-notch" d="M 75.8024691358 525 L 75.8024691358 530"/>
		<text class="x-axis-label" x="111.604938272" y="540">10</text>
		<path class="x-notch" d="M 147.407407407 525 L 147.407407407 530"/>
		<text class="x-axis-label" x="183.209876543" y="540">20</text>
		<path class="x-notch" d="M 219.012345679 525 L 219.012345679 530"/>
		<text class="x-axis-label" x="254.814814815" y="540">30</text>
		<path class="x-notch" d="M 290.617283951 525 L 290.617283951 530"/>
		<text class="x-axis-label" x="326.419753086" y="540">40</text>
		<path class="x-notch" d="M 362.222222222 525 L 362.222222222 530"/>
		<text class="x-axis-label" x="398.024691358" y="540">50</text>
		<path class="x-notch" d="M 433.827160494 525 L 433.827160494 530"/>
		<text class="x-axis-label" x="469.62962963" y="540">60</text>
		<path class="x-notch" d="M 505.432098765 525 L 505.432098765 530"/>
		<text class="x-axis-label" x="541.234567901" y="540">70</text>
		<path class="x-notch" d="M 577.037037037 525 L 577.037037037 530"/>
		<text class="x-axis-label" x="612.839506173" y="540">80</text>
		<path class="x-notch" d="M 648.641975309 525 L 648.641975309 530"/>
	</g>
</svg>
