<?xml version="1.0" ?>
<svg height="600" version="1.1" width="800" xmlns="http://www.w3.org/2000/svg" xmlns:svg="http://www.w3.org/2000/svg">
	<style type="text/css">
		

.x-axis-path, .y-gridline, .x-notch { fill:none; stroke: #a7a9ac; stroke-width:1; }



.y-gridline { stroke-width: 1; }

.y-axis-path, .y-axis-path2, .x-notch-left, .x-notch-right { display: none;}



.x-axis-label, .data-point-label {font-size: 12px; font-weight:normal; font-family: sans-serif; fill: #58595b; text-anchor:middle;}

.y-axis-label {font-size: 12px; font-family: helvetica; fill: #a7a9ac; text-anchor:end;}



.series-1-line { fill: none; stroke: #10b80c; stroke-width:2; }



.series-2-line { fill: none; stroke: #e90f0a; stroke-width: 2;}

	</style>
	<rect fill="white" height="600" width="800" x="0" y="0"/>
	<g id="grid" transform="translate(70, 30)">
		<g class="x-axis" id="x_axis">
			<path class="x-axis-path" d="M 0 525 L 660 525"/>
			<path class="x-notch-left" d="M 0 525, L 0 535"/>
			<path class="x-notch-right" d="M 660 525, L 660 535"/>
		</g>
		<g class="y-axis" id="y_axis">
			<path class="y-axis-path" d="M 0 525 L 0 0"/>
			<path class="y-axis-path-2" d="M 660 525 L 660 0"/>
			<path class="y-gridline" d="M 0 525 L 660 525"/>
			<text class="y-axis-label" x="-5" y="525">
				-200
			</text>
			<path class="y-gridline" d="M 0 394 L 660 394"/>
			<text class="y-axis-label" x="-5" y="394">
				 0
			</text>
			<path class="y-gridline" d="M 0 263 L 660 263"/>
			<text class="y-axis-label" x="-5" y="263">
				200
			</text>
			<path class="y-gridline" d="M 0 132 L 660 132"/>
			<text class="y-axis-label" x="-5" y="132">
				400
			</text>
			<path class="y-gridline" d="M 0 1 L 660 1"/>
			<text class="y-axis-label" x="-5" y="1">
				600
			</text>
		</g>
		<g>
			<path class="series-1-line" d="M 40 365.629059325 L 44 401.747603519 L 48 398.675926012 L 53 398.208836736 L 57 402.778436246 L 61 405.945022461 L 66 387.278415496 L 70 392.456222606 L 74 408.862758449 L 79 392.675692231 L 83 413.183736853 L 87 393.503369458 L 92 404.030484062 L 96 387.999362273 L 101 379.640901014 L 105 382.08980226 L 109 390.901771429 L 114 383.97795026 L 118 377.210316802 L 122 348.203937335 L 127 377.2580286 L 131 362.006628956 L 135 325.623907703 L 140 326.607028631 L 144 321.58592412 L 149 315.301450781 L 153 330.117402105 L 157 303.777648044 L 162 297.35280039 L 166 265.835983228 L 170 262.904680035 L 175 268.488283258 L 179 274.570859996 L 183 245.221451442 L 188 231.529009521 L 192 218.445748333 L 196 237.004365952 L 201 220.068717819 L 205 225.090580501 L 210 219.55493236 L 214 213.348796159 L 218 153.074220636 L 223 147.195543408 L 227 104.9336442 L 231 93.8455472268 L 236 94.8753784983 L 240 88.0294079015 L 244 103.874446487 L 249 37.1438689195 L 253 65.8707444959 L 258 76.2263445566 L 262 50.1050586658 L 266 48.7171430813 L 271 105.593082852 L 275 64.3449440726 L 279 0.0 L 284 10.0281410882 L 288 60.5251995384 L 292 66.218280129 L 297 15.737549965 L 301 84.6995479015 L 306 39.2557498068 L 310 50.1108099495 L 314 12.6048508982 L 319 36.5594863534 L 323 68.6234753955 L 327 61.5748500261 L 332 74.2075793452 L 336 126.326849109 L 340 116.704532455 L 345 102.607754121 L 349 148.972163563 L 353 105.056426245 L 358 95.4044290602 L 362 88.3407201423 L 367 112.778515716 L 371 142.144252556 L 375 181.49140598 L 380 229.181707993 L 384 203.59077913 L 388 201.408301136 L 393 252.981643757 L 397 235.328067371 L 401 253.653133271 L 406 276.937280666 L 410 285.936091211 L 415 287.371718593 L 419 297.727075371 L 423 310.079056061 L 428 310.547146793 L 432 325.191583573 L 436 361.824914681 L 441 355.338273135 L 445 367.908478712 L 449 356.462025821 L 454 386.623541487 L 458 384.784092579 L 463 385.829493965 L 467 386.578819891 L 471 396.092417349 L 476 386.392493405 L 480 382.307298751 L 484 385.676296456 L 489 388.530750531 L 493 394.972169754 L 497 407.246056588 L 502 386.052955248 L 506 387.207347436 L 510 389.562827995 L 515 391.575036183 L 519 381.532569718 L 524 371.333915541 L 528 402.75831347 L 532 391.218439891 L 537 403.63270104 L 541 393.340626175 L 545 381.021030452 L 550 399.751162614 L 554 383.454862311 L 558 381.630983518 L 563 394.310179898 L 567 399.12963109 L 572 393.001345463 L 576 411.856038541 L 580 386.156118876 L 585 392.909426957 L 589 394.516082318 L 593 385.658647542 L 598 378.080151711 L 602 394.767192899 L 606 390.214164958 L 611 395.470065925 L 615 395.533090394 L 620 395.330693066"/>
			<path class="series-2-line" d="M 40 401.899981855 L 44 385.751616159 L 48 387.241270896 L 53 409.40998407 L 57 381.097466352 L 61 405.69900993 L 66 420.569231891 L 70 392.256714173 L 74 391.313538505 L 79 398.885269253 L 83 398.550301186 L 87 405.513824332 L 92 396.66394985 L 96 403.627472996 L 101 399.643259323 L 105 393.834422846 L 109 415.394928419 L 114 401.071185527 L 118 409.859331476 L 122 401.009456994 L 127 395.808828118 L 131 399.731313259 L 135 403.045590799 L 140 412.44194435 L 144 409.674145878 L 149 390.484742177 L 153 400.489303329 L 157 378.867069224 L 162 357.85304272 L 166 384.887416702 L 170 388.201694242 L 175 391.515971782 L 179 388.139965709 L 183 385.372167238 L 188 335.772383482 L 192 381.052985498 L 196 376.460564223 L 201 382.207672167 L 205 354.503362051 L 210 360.858677596 L 214 376.945314759 L 218 359.580533861 L 223 372.017925417 L 227 391.145600586 L 231 338.504778824 L 236 340.602641162 L 240 314.114746248 L 244 305.873079366 L 249 323.176131731 L 253 345.344844905 L 258 339.536008429 L 262 331.294341547 L 266 283.519180595 L 271 302.646855763 L 275 329.681229746 L 279 306.842580438 L 284 304.682989568 L 288 275.154056648 L 292 308.878714243 L 297 305.502708171 L 301 313.074438918 L 306 282.937298397 L 310 317.878371194 L 314 282.875569865 L 319 290.447300612 L 323 290.112332545 L 327 271.531136445 L 332 290.050604012 L 336 292.14846635 L 340 224.302454561 L 345 285.396454205 L 349 260.124974493 L 353 205.051322327 L 358 284.391550005 L 362 315.683377195 L 367 295.277558292 L 371 265.140417771 L 375 290.958376551 L 380 296.097276894 L 384 300.019762035 L 388 328.878758821 L 393 321.245299541 L 397 272.861930987 L 401 304.761965779 L 406 322.065018144 L 410 314.431558864 L 415 348.156216458 L 419 318.627283539 L 423 333.497505499 L 428 304.576780181 L 432 317.622379338 L 436 316.070996069 L 441 352.228484068 L 445 356.75917681 L 449 336.353357907 L 454 348.182541862 L 458 370.959462637 L 463 370.62449457 L 467 392.793207744 L 471 399.75673089 L 476 367.794967566 L 480 385.098019931 L 484 378.072768252 L 489 380.17063059 L 493 391.999814545 L 497 395.314092085 L 502 401.061200029 L 506 383.696419131 L 510 392.484565081 L 515 383.634690598 L 519 405.195196171 L 524 403.643812902 L 528 384.454409201 L 532 378.645572724 L 537 383.784473067 L 541 396.830072225 L 545 394.062273753 L 550 386.428814473 L 554 387.310261609 L 558 407.654351979 L 563 395.15523189 L 567 399.077717031 L 572 403.000202172 L 576 375.904099657 L 580 396.856397628 L 585 407.469166381 L 589 390.712593085 L 593 393.418663023 L 598 410.113507787 L 602 389.099481283 L 606 408.227156451 L 611 391.470583155 L 615 402.083351908 L 620 382.893948207"/>
		</g>
		<text class="x-axis-label" x="40.0" y="540">
			0
		</text>
		<path class="x-notch" d="M 61.8045112782 525 L 61.8045112782 530"/>
		<text class="x-axis-label" x="83.6090225564" y="540">
			10
		</text>
		<path class="x-notch" d="M 105.413533835 525 L 105.413533835 530"/>
		<text class="x-axis-label" x="127.218045113" y="540">
			20
		</text>
		<path class="x-notch" d="M 149.022556391 525 L 149.022556391 530"/>
		<text class="x-axis-label" x="170.827067669" y="540">
			30
		</text>
		<path class="x-notch" d="M 192.631578947 525 L 192.631578947 530"/>
		<text class="x-axis-label" x="214.436090226" y="540">
			40
		</text>
		<path class="x-notch" d="M 236.240601504 525 L 236.240601504 530"/>
		<text class="x-axis-label" x="258.045112782" y="540">
			50
		</text>
		<path class="x-notch" d="M 279.84962406 525 L 279.84962406 530"/>
		<text class="x-axis-label" x="301.654135338" y="540">
			60
		</text>
		<path class="x-notch" d="M 323.458646617 525 L 323.458646617 530"/>
		<text class="x-axis-label" x="345.263157895" y="540">
			70
		</text>
		<path class="x-notch" d="M 367.067669173 525 L 367.067669173 530"/>
		<text class="x-axis-label" x="388.872180451" y="540">
			80
		</text>
		<path class="x-notch" d="M 410.676691729 525 L 410.676691729 530"/>
		<text class="x-axis-label" x="432.481203008" y="540">
			90
		</text>
		<path class="x-notch" d="M 454.285714286 525 L 454.285714286 530"/>
		<text class="x-axis-label" x="476.090225564" y="540">
			100
		</text>
		<path class="x-notch" d="M 497.894736842 525 L 497.894736842 530"/>
		<text class="x-axis-label" x="519.69924812" y="540">
			110
		</text>
		<path class="x-notch" d="M 541.503759398 525 L 541.503759398 530"/>
		<text class="x-axis-label" x="563.308270677" y="540">
			120
		</text>
		<path class="x-notch" d="M 585.112781955 525 L 585.112781955 530"/>
		<text class="x-axis-label" x="606.917293233" y="540">
			130
		</text>
		<path class="x-notch" d="M 628.721804511 525 L 628.721804511 530"/>
	</g>
</svg>
