<?xml version="1.0" ?>
<svg height="600" version="1.1" width="800" xmlns="http://www.w3.org/2000/svg" xmlns:svg="http://www.w3.org/2000/svg">
	<style type="text/css">
		

.x-axis-path, .y-gridline, .x-notch { fill:none; stroke: #a7a9ac; stroke-width:1; }



.y-gridline { stroke-width: 1; }

.y-axis-path, .y-axis-path2, .x-notch-left, .x-notch-right { display: none;}



.x-axis-label, .data-point-label {font-size: 12px; font-weight:normal; font-family: sans-serif; fill: #58595b; text-anchor:middle;}

.y-axis-label {font-size: 12px; font-family: helvetica; fill: #a7a9ac; text-anchor:end;}



.series-1-line { fill: none; stroke: #10b80c; stroke-width:2; }



.series-2-line { fill: none; stroke: #e90f0a; stroke-width: 2;}

	</style>
	<rect fill="white" height="600" width="800" x="0" y="0"/>
	<g id="grid" transform="translate(70, 30)">
		<g class="x-axis" id="x_axis">
			<path class="x-axis-path" d="M 0 525 L 660 525"/>
			<path class="x-notch-left" d="M 0 525, L 0 535"/>
			<path class="x-notch-right" d="M 660 525, L 660 535"/>
		</g>
		<g class="y-axis" id="y_axis">
			<path class="y-axis-path" d="M 0 525 L 0 0"/>
			<path class="y-axis-path-2" d="M 660 525 L 660 0"/>
			<path class="y-gridline" d="M 0 525 L 660 525"/>
			<text class="y-axis-label" x="-5" y="525">
				-200
			</text>
			<path class="y-gridline" d="M 0 438 L 660 438"/>
			<text class="y-axis-label" x="-5" y="438">
				 0
			</text>
			<path class="y-gridline" d="M 0 351 L 660 351"/>
			<text class="y-axis-label" x="-5" y="351">
				200
			</text>
			<path class="y-gridline" d="M 0 264 L 660 264"/>
			<text class="y-axis-label" x="-5" y="264">
				400
			</text>
			<path class="y-gridline" d="M 0 177 L 660 177"/>
			<text class="y-axis-label" x="-5" y="177">
				600
			</text>
			<path class="y-gridline" d="M 0 90 L 660 90"/>
			<text class="y-axis-label" x="-5" y="90">
				800
			</text>
			<path class="y-gridline" d="M 0 3 L 660 3"/>
			<text class="y-axis-label" x="-5" y="3">
				1000
			</text>
		</g>
		<g>
			<path class="series-1-line" d="M 40 441.36127 L 46 430.727310349 L 53 450.169025698 L 60 436.495141047 L 67 425.053906395 L 74 412.905496744 L 80 423.686987093 L 87 421.253702442 L 94 432.068617791 L 101 401.51143314 L 108 372.345848488 L 115 411.306713837 L 121 398.160279186 L 128 413.069669535 L 135 400.091409884 L 142 396.737975233 L 149 395.594440581 L 156 419.14200593 L 162 388.540196279 L 169 359.890336628 L 176 344.937901977 L 183 314.571817326 L 190 257.226507674 L 196 268.994823023 L 203 224.718513372 L 210 211.605503721 L 217 202.34004407 L 224 160.374959419 L 231 171.952349767 L 237 213.347465116 L 244 149.787555465 L 251 129.382995814 L 258 148.880361163 L 265 119.007426512 L 272 152.92059186 L 278 123.911807209 L 285 165.037772558 L 292 167.259837907 L 299 207.241478256 L 306 85.0674186047 L 312 110.555383953 L 319 209.016249302 L 326 208.938639651 L 333 121.69703 L 340 170.541195349 L 347 149.182885698 L 353 213.227201047 L 360 244.918916395 L 367 236.461431744 L 374 216.550022093 L 381 196.414612442 L 388 183.223377791 L 394 243.77854314 L 401 240.986683488 L 408 273.575623837 L 415 258.387464186 L 422 328.848329535 L 428 356.692144884 L 435 350.489535233 L 442 264.033675581 L 449 376.12424093 L 456 352.623406279 L 463 382.834271628 L 469 359.221436977 L 476 410.409727326 L 483 388.748842674 L 490 382.579658023 L 497 347.053348372 L 504 410.458213721 L 510 460.64830407 L 517 413.331894419 L 524 415.733334767 L 531 429.195650116 L 538 413.984915465 L 544 423.521280814 L 551 424.385696163 L 558 451.388111512 L 565 442.19037686 L 572 428.628842209 L 579 426.801057558 L 585 433.958997907 L 592 440.836413256 L 599 439.390128605 L 606 423.663493953 L 613 438.752434302 L 620 450.397549651"/>
			<path class="series-2-line" d="M 40 442.575 L 46 422.57005814 L 53 437.127616279 L 60 430.685174419 L 67 451.367732558 L 74 428.737790698 L 80 446.357848837 L 87 460.915406977 L 94 456.222965116 L 101 421.780523256 L 108 443.338081395 L 115 450.020639535 L 121 463.703197674 L 128 451.573255814 L 135 456.068313953 L 142 443.500872093 L 149 427.433430233 L 156 449.865988372 L 162 439.486046512 L 169 431.731104651 L 176 454.163662791 L 183 458.22122093 L 190 456.59127907 L 196 439.648837209 L 203 446.768895349 L 210 438.138953488 L 217 409.384011628 L 224 448.441569767 L 231 410.061627907 L 237 412.369186047 L 244 424.739244186 L 251 427.484302326 L 258 399.166860465 L 265 360.349418605 L 272 403.781976744 L 278 400.839534884 L 285 411.022093023 L 292 415.954651163 L 299 416.949709302 L 306 393.444767442 L 312 386.127325581 L 319 392.809883721 L 326 398.17994186 L 333 351.05 L 340 385.73255814 L 347 366.602616279 L 353 384.660174419 L 360 399.217732558 L 367 398.025290698 L 374 357.895348837 L 381 352.765406977 L 388 373.447965116 L 394 355.630523256 L 401 409.125581395 L 408 403.120639535 L 415 411.115697674 L 422 417.798255814 L 428 418.355813953 L 435 423.725872093 L 442 424.720930233 L 449 420.903488372 L 456 411.836046512 L 463 418.518604651 L 469 426.951162791 L 476 420.07122093 L 483 431.12877907 L 490 414.186337209 L 497 421.306395349 L 504 436.738953488 L 510 449.109011628 L 517 452.729069767 L 524 446.724127907 L 531 438.531686047 L 538 432.964244186 L 544 457.146802326 L 551 434.954360465 L 558 430.261918605 L 565 442.194476744 L 572 452.377034884 L 579 440.684593023 L 585 443.429651163 L 592 438.737209302 L 599 435.794767442 L 606 442.477325581 L 613 436.472383721 L 620 438.77994186"/>
		</g>
		<text class="x-axis-label" x="40.0" y="540">
			0
		</text>
		<path class="x-notch" d="M 74.1176470588 525 L 74.1176470588 530"/>
		<text class="x-axis-label" x="108.235294118" y="540">
			10
		</text>
		<path class="x-notch" d="M 142.352941176 525 L 142.352941176 530"/>
		<text class="x-axis-label" x="176.470588235" y="540">
			20
		</text>
		<path class="x-notch" d="M 210.588235294 525 L 210.588235294 530"/>
		<text class="x-axis-label" x="244.705882353" y="540">
			30
		</text>
		<path class="x-notch" d="M 278.823529412 525 L 278.823529412 530"/>
		<text class="x-axis-label" x="312.941176471" y="540">
			40
		</text>
		<path class="x-notch" d="M 347.058823529 525 L 347.058823529 530"/>
		<text class="x-axis-label" x="381.176470588" y="540">
			50
		</text>
		<path class="x-notch" d="M 415.294117647 525 L 415.294117647 530"/>
		<text class="x-axis-label" x="449.411764706" y="540">
			60
		</text>
		<path class="x-notch" d="M 483.529411765 525 L 483.529411765 530"/>
		<text class="x-axis-label" x="517.647058824" y="540">
			70
		</text>
		<path class="x-notch" d="M 551.764705882 525 L 551.764705882 530"/>
		<text class="x-axis-label" x="585.882352941" y="540">
			80
		</text>
		<path class="x-notch" d="M 620.0 525 L 620.0 530"/>
	</g>
</svg>
