<?xml version="1.0" ?>
<svg height="600" version="1.1" width="800" xmlns="http://www.w3.org/2000/svg" xmlns:svg="http://www.w3.org/2000/svg">
	<style type="text/css">

.x-axis-path, .y-gridline, .x-notch { fill:none; stroke: #a7a9ac; stroke-width:1; }



.y-gridline { stroke-width: 1; }

.y-axis-path, .y-axis-path2, .x-notch-left, .x-notch-right { display: none;}



.x-axis-label, .data-point-label {font-size: 12px; font-weight:normal; font-family: sans-serif; fill: #58595b; text-anchor:middle;}

.y-axis-label {font-size: 12px; font-family: helvetica; fill: #a7a9ac; text-anchor:end;}



.series-1-line { fill: none; stroke: #10b80c; stroke-width:2; }



.series-2-line { fill: none; stroke: #e90f0a; stroke-width: 2;}
</style>
	<rect fill="white" height="600" width="800" x="0" y="0"/>
	<g id="grid" transform="translate(70, 30)">
		<g class="x-axis" id="x_axis">
			<path class="x-axis-path" d="M 0 525 L 660 525"/>
			<path class="x-notch-left" d="M 0 525, L 0 535"/>
			<path class="x-notch-right" d="M 660 525, L 660 535"/>
		</g>
		<g class="y-axis" id="y_axis">
			<path class="y-axis-path" d="M 0 525 L 0 0"/>
			<path class="y-axis-path-2" d="M 660 525 L 660 0"/>
			<path class="y-gridline" d="M 0 525 L 660 525"/>
			<text class="y-axis-label" x="-5" y="525">-200</text>
			<path class="y-gridline" d="M 0 420 L 660 420"/>
			<text class="y-axis-label" x="-5" y="420"> 0</text>
			<path class="y-gridline" d="M 0 315 L 660 315"/>
			<text class="y-axis-label" x="-5" y="315">200</text>
			<path class="y-gridline" d="M 0 210 L 660 210"/>
			<text class="y-axis-label" x="-5" y="210">400</text>
			<path class="y-gridline" d="M 0 105 L 660 105"/>
			<text class="y-axis-label" x="-5" y="105">600</text>
			<path class="y-gridline" d="M 0 0 L 660 0"/>
			<text class="y-axis-label" x="-5" y="0">800</text>
		</g>
		<g>
			<path class="series-1-line" d="M 40 414.441654219 L 46 424.28625641 L 53 392.982421661 L 60 430.77903389 L 67 434.536617479 L 74 448.752465379 L 81 401.065859402 L 88 417.364406091 L 95 432.88735779 L 102 424.960510461 L 109 388.631400127 L 115 439.818656654 L 122 411.649544873 L 129 381.928765139 L 136 388.830949857 L 143 384.315891988 L 150 375.021237967 L 157 388.072100132 L 164 383.771334634 L 171 425.592500976 L 178 408.106461341 L 185 394.30720643 L 191 382.551456313 L 198 339.419320006 L 205 339.62204012 L 212 318.766432197 L 219 291.57780759 L 226 266.400344763 L 233 264.959306968 L 240 267.510958249 L 247 271.635627059 L 254 157.686314931 L 260 182.69724058 L 267 139.637278581 L 274 136.38869659 L 281 152.360308003 L 288 105.0 L 295 115.468200955 L 302 105.375965069 L 309 122.808429082 L 316 113.461835051 L 323 109.150554091 L 330 140.575114966 L 336 108.882845422 L 343 127.346939992 L 350 192.189639272 L 357 181.596325686 L 364 259.767054468 L 371 197.046683584 L 378 202.203620252 L 385 255.983734801 L 392 298.491433355 L 399 211.279754725 L 405 384.720251055 L 412 408.750052229 L 419 423.057990086 L 426 310.374038559 L 433 426.068875025 L 440 432.511725242 L 447 424.95339706 L 454 414.728443297 L 461 407.926113106 L 468 415.145514263 L 475 440.554274893 L 481 406.134836198 L 488 415.468482528 L 495 420.543366727 L 502 431.663685654 L 509 429.906228047 L 516 422.193991738 L 523 445.233427578 L 530 396.117834038 L 537 424.52955571 L 544 404.285915814 L 550 414.916628455 L 557 411.443079306 L 564 424.402488816 L 571 440.629657823 L 578 404.882721706 L 585 432.446674082 L 592 410.875058788 L 599 418.840261124 L 606 432.504843893 L 613 418.583067918 L 620 423.657792791"/>
			<path class="series-2-line" d="M 40 386.063736102 L 46 415.359888358 L 53 479.309267833 L 60 373.179014863 L 67 404.466731902 L 74 435.356135984 L 81 414.066542758 L 88 368.479859183 L 95 381.843493177 L 102 356.172457429 L 109 380.688854206 L 115 391.662610461 L 122 385.90722254 L 129 451.449853842 L 136 380.371141048 L 143 412.853796956 L 150 460.87065817 L 157 424.843485552 L 164 439.402058415 L 171 389.035619361 L 178 394.432994224 L 185 383.897850825 L 191 458.601680128 L 198 379.158395246 L 205 343.529535585 L 212 424.208059235 L 219 420.842549054 L 226 336.619508694 L 233 355.559524079 L 240 310.769466417 L 247 284.700117713 L 254 285.716050054 L 260 294.698241526 L 267 281.773220387 L 274 318.637318818 L 281 261.897872459 L 288 189.624220795 L 295 277.074064707 L 302 231.885694088 L 309 211.392726776 L 316 174.170615288 L 323 159.254029367 L 330 146.329008229 L 336 177.616725268 L 343 167.081581869 L 350 222.666389257 L 357 115.739510373 L 364 158.179990195 L 371 136.492084013 L 378 182.517380444 L 385 68.4208683421 L 392 237.524868346 L 399 199.506130945 L 405 386.135901038 L 412 330.591393549 L 419 378.209941806 L 426 274.867879531 L 433 413.301781881 L 440 367.31678535 L 447 424.096531607 L 454 384.086229424 L 461 462.773188292 L 468 451.043106023 L 475 413.422681579 L 481 419.616682355 L 488 419.835988783 L 495 432.004683907 L 502 370.883795026 L 509 408.146206413 L 516 395.619498231 L 523 370.34677544 L 530 432.304590133 L 537 423.36269856 L 544 423.980317945 L 550 423.801311416 L 557 433.580128801 L 564 442.960633229 L 571 408.526712438 L 578 435.432986954 L 585 418.923149207 L 592 393.650426416 L 599 405.420808583 L 606 460.208990058 L 613 453.258663268 L 620 449.893153087"/>
		</g>
		<text class="x-axis-label" x="40.0" y="540">0</text>
		<path class="x-notch" d="M 74.5238095238 525 L 74.5238095238 530"/>
		<text class="x-axis-label" x="109.047619048" y="540">10</text>
		<path class="x-notch" d="M 143.571428571 525 L 143.571428571 530"/>
		<text class="x-axis-label" x="178.095238095" y="540">20</text>
		<path class="x-notch" d="M 212.619047619 525 L 212.619047619 530"/>
		<text class="x-axis-label" x="247.142857143" y="540">30</text>
		<path class="x-notch" d="M 281.666666667 525 L 281.666666667 530"/>
		<text class="x-axis-label" x="316.19047619" y="540">40</text>
		<path class="x-notch" d="M 350.714285714 525 L 350.714285714 530"/>
		<text class="x-axis-label" x="385.238095238" y="540">50</text>
		<path class="x-notch" d="M 419.761904762 525 L 419.761904762 530"/>
		<text class="x-axis-label" x="454.285714286" y="540">60</text>
		<path class="x-notch" d="M 488.80952381 525 L 488.80952381 530"/>
		<text class="x-axis-label" x="523.333333333" y="540">70</text>
		<path class="x-notch" d="M 557.857142857 525 L 557.857142857 530"/>
		<text class="x-axis-label" x="592.380952381" y="540">80</text>
		<path class="x-notch" d="M 626.904761905 525 L 626.904761905 530"/>
	</g>
</svg>
