<?xml version="1.0" ?>
<svg height="600" version="1.1" width="800" xmlns="http://www.w3.org/2000/svg" xmlns:svg="http://www.w3.org/2000/svg">
	<style type="text/css">
		

.x-axis-path, .y-gridline, .x-notch { fill:none; stroke: #a7a9ac; stroke-width:1; }



.y-gridline { stroke-width: 1; }

.y-axis-path, .y-axis-path2, .x-notch-left, .x-notch-right { display: none;}



.x-axis-label, .data-point-label {font-size: 12px; font-weight:normal; font-family: sans-serif; fill: #58595b; text-anchor:middle;}

.y-axis-label {font-size: 12px; font-family: helvetica; fill: #a7a9ac; text-anchor:end;}



.series-1-line { fill: none; stroke: #10b80c; stroke-width:2; }



.series-2-line { fill: none; stroke: #e90f0a; stroke-width: 2;}

	</style>
	<rect fill="white" height="600" width="800" x="0" y="0"/>
	<g id="grid" transform="translate(70, 30)">
		<g class="x-axis" id="x_axis">
			<path class="x-axis-path" d="M 0 525 L 660 525"/>
			<path class="x-notch-left" d="M 0 525, L 0 535"/>
			<path class="x-notch-right" d="M 660 525, L 660 535"/>
		</g>
		<g class="y-axis" id="y_axis">
			<path class="y-axis-path" d="M 0 525 L 0 0"/>
			<path class="y-axis-path-2" d="M 660 525 L 660 0"/>
			<path class="y-gridline" d="M 0 525 L 660 525"/>
			<text class="y-axis-label" x="-5" y="525">
				-500
			</text>
			<path class="y-gridline" d="M 0 420 L 660 420"/>
			<text class="y-axis-label" x="-5" y="420">
				 0
			</text>
			<path class="y-gridline" d="M 0 315 L 660 315"/>
			<text class="y-axis-label" x="-5" y="315">
				500
			</text>
			<path class="y-gridline" d="M 0 210 L 660 210"/>
			<text class="y-axis-label" x="-5" y="210">
				1000
			</text>
			<path class="y-gridline" d="M 0 105 L 660 105"/>
			<text class="y-axis-label" x="-5" y="105">
				1500
			</text>
			<path class="y-gridline" d="M 0 0 L 660 0"/>
			<text class="y-axis-label" x="-5" y="0">
				2000
			</text>
		</g>
		<g>
			<path class="series-1-line" d="M 40 420.8788416 L 48 425.671329745 L 57 424.400613891 L 66 413.545582036 L 75 420.190354182 L 84 426.872674327 L 93 418.290010473 L 102 397.597066618 L 111 403.757326764 L 120 378.778114909 L 129 394.113779055 L 138 374.3360992 L 147 323.397779345 L 156 339.605447491 L 164 317.189411636 L 173 312.429587782 L 182 284.855195927 L 191 279.508380073 L 200 298.591452218 L 209 278.539008364 L 218 224.036400509 L 227 261.189972655 L 236 171.1649408 L 245 219.954948945 L 254 234.052201091 L 263 208.690957236 L 272 204.097789382 L 280 218.205793527 L 289 201.788449673 L 298 169.922245818 L 307 157.866097964 L 316 165.431762109 L 325 160.025558255 L 334 179.2054824 L 343 169.163402545 L 352 146.246306691 L 361 163.515062836 L 370 141.588914982 L 379 189.927171127 L 388 171.182943273 L 396 152.402343418 L 405 196.534887564 L 414 171.044451709 L 423 174.350223855 L 432 171.64252 L 441 183.532000145 L 450 237.006940291 L 459 242.839180436 L 468 396.393988582 L 477 367.850404727 L 486 416.086180873 L 495 422.149757018 L 504 417.169097164 L 512 430.878605309 L 521 397.300313455 L 530 419.9588456 L 539 418.499969745 L 548 418.930925891 L 557 419.932662036 L 566 421.079634182 L 575 405.943794327 L 584 415.932522473 L 593 424.569690618 L 602 413.725242764 L 611 420.326838909 L 620 418.415623055"/>
			<path class="series-2-line" d="M 40 427.056 L 48 423.968363636 L 57 408.490727273 L 66 422.203090909 L 75 416.805454545 L 84 397.337818182 L 93 416.930181818 L 102 409.222545455 L 111 413.904909091 L 120 395.067272727 L 129 401.639636364 L 138 382.172 L 147 375.304363636 L 156 352.266727273 L 164 343.089090909 L 173 339.581454545 L 182 340.693818182 L 191 330.466181818 L 200 309.318545455 L 209 275.360909091 L 218 300.413272727 L 227 253.015636364 L 236 266.728 L 245 246.840363636 L 254 258.242727273 L 263 266.285090909 L 272 236.737454545 L 280 246.459818182 L 289 259.752181818 L 298 234.194545455 L 307 214.096909091 L 316 220.669272727 L 325 195.111636364 L 334 167.034 L 343 168.566363636 L 352 131.038727273 L 361 139.081090909 L 370 118.983454545 L 379 153.275818182 L 388 95.3781818182 L 396 166.210545455 L 405 168.582909091 L 414 180.405272727 L 423 122.507636364 L 432 175.7 L 441 179.332363636 L 450 190.314727273 L 459 238.047090909 L 468 386.159454545 L 477 391.051818182 L 486 408.544181818 L 495 436.536545455 L 504 426.518909091 L 512 432.881272727 L 521 428.743636364 L 530 414.946 L 539 428.868363636 L 548 426.410727273 L 557 425.003090909 L 566 409.105454545 L 575 419.037818182 L 584 424.350181818 L 593 427.562545455 L 602 423.214909091 L 611 408.157272727 L 620 418.929636364"/>
		</g>
		<text class="x-axis-label" x="40.0" y="540">
			0
		</text>
		<path class="x-notch" d="M 84.6153846154 525 L 84.6153846154 530"/>
		<text class="x-axis-label" x="129.230769231" y="540">
			10
		</text>
		<path class="x-notch" d="M 173.846153846 525 L 173.846153846 530"/>
		<text class="x-axis-label" x="218.461538462" y="540">
			20
		</text>
		<path class="x-notch" d="M 263.076923077 525 L 263.076923077 530"/>
		<text class="x-axis-label" x="307.692307692" y="540">
			30
		</text>
		<path class="x-notch" d="M 352.307692308 525 L 352.307692308 530"/>
		<text class="x-axis-label" x="396.923076923" y="540">
			40
		</text>
		<path class="x-notch" d="M 441.538461538 525 L 441.538461538 530"/>
		<text class="x-axis-label" x="486.153846154" y="540">
			50
		</text>
		<path class="x-notch" d="M 530.769230769 525 L 530.769230769 530"/>
		<text class="x-axis-label" x="575.384615385" y="540">
			60
		</text>
		<path class="x-notch" d="M 620.0 525 L 620.0 530"/>
	</g>
</svg>
