<?xml version="1.0" ?>
<svg height="600" version="1.1" width="800" xmlns="http://www.w3.org/2000/svg" xmlns:svg="http://www.w3.org/2000/svg">
	<style type="text/css">
		

.x-axis-path, .y-gridline, .x-notch { fill:none; stroke: #a7a9ac; stroke-width:1; }



.y-gridline { stroke-width: 1; }

.y-axis-path, .y-axis-path2, .x-notch-left, .x-notch-right { display: none;}



.x-axis-label, .data-point-label {font-size: 12px; font-weight:normal; font-family: sans-serif; fill: #58595b; text-anchor:middle;}

.y-axis-label {font-size: 12px; font-family: helvetica; fill: #a7a9ac; text-anchor:end;}



.series-1-line { fill: none; stroke: #10b80c; stroke-width:2; }



.series-2-line { fill: none; stroke: #e90f0a; stroke-width: 2;}

	</style>
	<rect fill="white" height="600" width="800" x="0" y="0"/>
	<g id="grid" transform="translate(70, 30)">
		<g class="x-axis" id="x_axis">
			<path class="x-axis-path" d="M 0 525 L 660 525"/>
			<path class="x-notch-left" d="M 0 525, L 0 535"/>
			<path class="x-notch-right" d="M 660 525, L 660 535"/>
		</g>
		<g class="y-axis" id="y_axis">
			<path class="y-axis-path" d="M 0 525 L 0 0"/>
			<path class="y-axis-path-2" d="M 660 525 L 660 0"/>
			<path class="y-gridline" d="M 0 525 L 660 525"/>
			<text class="y-axis-label" x="-5" y="525">
				-200
			</text>
			<path class="y-gridline" d="M 0 394 L 660 394"/>
			<text class="y-axis-label" x="-5" y="394">
				 0
			</text>
			<path class="y-gridline" d="M 0 263 L 660 263"/>
			<text class="y-axis-label" x="-5" y="263">
				200
			</text>
			<path class="y-gridline" d="M 0 132 L 660 132"/>
			<text class="y-axis-label" x="-5" y="132">
				400
			</text>
			<path class="y-gridline" d="M 0 1 L 660 1"/>
			<text class="y-axis-label" x="-5" y="1">
				600
			</text>
		</g>
		<g>
			<path class="series-1-line" d="M 40 393.797849483 L 45 403.00697135 L 51 387.917191984 L 56 383.001846637 L 62 400.051281389 L 68 405.998468972 L 73 394.155452102 L 79 398.172788332 L 85 379.67169093 L 90 390.661280397 L 96 375.616316157 L 101 400.401261756 L 107 388.707862051 L 113 388.116709516 L 118 381.779884399 L 124 395.672186907 L 130 399.659412974 L 135 395.013425206 L 141 395.918444317 L 146 398.633807779 L 152 395.917904776 L 158 380.379273916 L 163 373.099930686 L 169 371.311607422 L 175 354.935260487 L 180 312.659038635 L 186 318.426732303 L 192 292.220000804 L 197 286.451767595 L 203 247.512171903 L 208 264.920594486 L 214 218.978401982 L 220 192.322818989 L 225 144.405726595 L 231 144.637351759 L 237 134.455295488 L 242 127.475186587 L 248 103.108909601 L 253 89.1861908019 L 259 107.746735576 L 265 103.818956881 L 270 80.6645555878 L 276 101.035444713 L 282 30.6001520985 L 287 25.295708759 L 293 44.993203937 L 299 44.3868796142 L 304 45.052651309 L 310 6.51685857292 L 315 38.1396120322 L 321 48.1565732227 L 327 0.0 L 332 29.5726948681 L 338 96.4166359899 L 344 213.728477428 L 349 342.202319537 L 355 330.149932002 L 360 378.500631386 L 366 393.919215703 L 372 395.108530767 L 377 401.624310258 L 383 395.063176101 L 389 398.601550674 L 394 398.10002839 L 400 399.738194949 L 406 412.089277273 L 411 397.373657524 L 417 400.897093722 L 422 397.911833141 L 428 404.996204539 L 434 405.616927696 L 439 402.556975239 L 445 395.307508759 L 451 382.611837439 L 456 395.426709632 L 462 389.493920883 L 467 386.74814113 L 473 384.032238127 L 479 399.001737538 L 484 396.989105232 L 490 409.594606759 L 496 412.145414681 L 501 395.948561662 L 507 394.22022531 L 513 392.641506124 L 518 391.84074951 L 524 390.321783825 L 529 401.042015713 L 535 386.939802998 L 541 379.495904228 L 546 405.582355771 L 552 392.123660253 L 558 405.05827286 L 563 382.607142265 L 569 388.61431676 L 574 389.818570201 L 580 392.384316498 L 586 401.80280903 L 591 382.299206601 L 597 393.722709186 L 603 407.450456154 L 608 396.280833231 L 614 394.178337262 L 620 378.579952902"/>
			<path class="series-2-line" d="M 40 390.832348584 L 45 395.434382606 L 51 390.116401813 L 56 390.633723853 L 62 401.071060708 L 68 391.084837648 L 73 379.931554022 L 79 397.95478456 L 85 401.389758017 L 90 401.323549773 L 96 389.00320558 L 101 398.857012152 L 107 387.120198243 L 113 395.806944249 L 118 390.488963455 L 124 392.756876345 L 130 392.690668101 L 135 396.70917184 L 141 399.560615013 L 146 393.075573653 L 152 391.842304843 L 158 388.2749149 L 163 393.460479206 L 169 384.057786429 L 175 397.412774701 L 180 400.264217874 L 186 395.529767364 L 192 394.880028837 L 197 391.896169177 L 203 397.665263766 L 208 397.599055522 L 214 380.610469064 L 220 381.711321386 L 225 376.976870876 L 231 371.0753598 L 237 373.926802973 L 242 377.945306712 L 248 386.048522434 L 253 380.730541641 L 259 382.998454531 L 265 388.76754912 L 270 389.868401443 L 276 382.799829799 L 282 386.234803255 L 287 379.166231612 L 293 363.34470572 L 299 351.607891811 L 304 369.047592066 L 310 357.310778156 L 315 370.082236145 L 321 362.430134218 L 327 349.526259743 L 332 340.70709725 L 338 343.558540422 L 344 347.577044162 L 349 362.682623283 L 355 361.449354473 L 360 381.806706144 L 366 396.328754983 L 372 400.347258722 L 377 392.695156796 L 383 399.631311951 L 389 401.315694557 L 394 395.997713764 L 400 398.265626654 L 406 390.613524727 L 411 395.21555875 L 417 399.234062489 L 422 394.499611979 L 428 389.181631186 L 434 390.866013792 L 439 397.802168948 L 445 398.319490988 L 451 406.42270671 L 456 394.6858928 L 462 394.619684557 L 467 398.054658013 L 473 396.821389203 L 479 390.336347843 L 484 393.187791016 L 490 391.370991922 L 496 387.803601979 L 501 395.906817701 L 507 399.92532144 L 513 403.360294896 L 518 399.20937467 L 524 393.307863593 L 529 389.74047365 L 535 389.674265406 L 541 397.777481128 L 546 386.624197502 L 552 399.979185774 L 558 392.327083848 L 563 397.512648154 L 569 400.94762161 L 574 402.632004216 L 580 396.730493139 L 586 391.412512346 L 591 391.929834386 L 597 392.447156425 L 603 397.632720731 L 608 395.232391354 L 614 389.330880278 L 620 395.099974867"/>
		</g>
		<text class="x-axis-label" x="40.0" y="540">
			0
		</text>
		<path class="x-notch" d="M 68.1553398058 525 L 68.1553398058 530"/>
		<text class="x-axis-label" x="96.3106796117" y="540">
			10
		</text>
		<path class="x-notch" d="M 124.466019417 525 L 124.466019417 530"/>
		<text class="x-axis-label" x="152.621359223" y="540">
			20
		</text>
		<path class="x-notch" d="M 180.776699029 525 L 180.776699029 530"/>
		<text class="x-axis-label" x="208.932038835" y="540">
			30
		</text>
		<path class="x-notch" d="M 237.087378641 525 L 237.087378641 530"/>
		<text class="x-axis-label" x="265.242718447" y="540">
			40
		</text>
		<path class="x-notch" d="M 293.398058252 525 L 293.398058252 530"/>
		<text class="x-axis-label" x="321.553398058" y="540">
			50
		</text>
		<path class="x-notch" d="M 349.708737864 525 L 349.708737864 530"/>
		<text class="x-axis-label" x="377.86407767" y="540">
			60
		</text>
		<path class="x-notch" d="M 406.019417476 525 L 406.019417476 530"/>
		<text class="x-axis-label" x="434.174757282" y="540">
			70
		</text>
		<path class="x-notch" d="M 462.330097087 525 L 462.330097087 530"/>
		<text class="x-axis-label" x="490.485436893" y="540">
			80
		</text>
		<path class="x-notch" d="M 518.640776699 525 L 518.640776699 530"/>
		<text class="x-axis-label" x="546.796116505" y="540">
			90
		</text>
		<path class="x-notch" d="M 574.951456311 525 L 574.951456311 530"/>
		<text class="x-axis-label" x="603.106796117" y="540">
			100
		</text>
		<path class="x-notch" d="M 631.262135922 525 L 631.262135922 530"/>
	</g>
</svg>
