<?xml version="1.0" ?>
<svg height="600" version="1.1" width="800" xmlns="http://www.w3.org/2000/svg" xmlns:svg="http://www.w3.org/2000/svg">
	<style type="text/css">
		

.x-axis-path, .y-gridline, .x-notch { fill:none; stroke: #a7a9ac; stroke-width:1; }



.y-gridline { stroke-width: 1; }

.y-axis-path, .y-axis-path2, .x-notch-left, .x-notch-right { display: none;}



.x-axis-label, .data-point-label {font-size: 12px; font-weight:normal; font-family: sans-serif; fill: #58595b; text-anchor:middle;}

.y-axis-label {font-size: 12px; font-family: helvetica; fill: #a7a9ac; text-anchor:end;}



.series-1-line { fill: none; stroke: #10b80c; stroke-width:2; }



.series-2-line { fill: none; stroke: #e90f0a; stroke-width: 2;}

	</style>
	<rect fill="white" height="600" width="800" x="0" y="0"/>
	<g id="grid" transform="translate(70, 30)">
		<g class="x-axis" id="x_axis">
			<path class="x-axis-path" d="M 0 525 L 660 525"/>
			<path class="x-notch-left" d="M 0 525, L 0 535"/>
			<path class="x-notch-right" d="M 660 525, L 660 535"/>
		</g>
		<g class="y-axis" id="y_axis">
			<path class="y-axis-path" d="M 0 525 L 0 0"/>
			<path class="y-axis-path-2" d="M 660 525 L 660 0"/>
			<path class="y-gridline" d="M 0 525 L 660 525"/>
			<text class="y-axis-label" x="-5" y="525">
				-200
			</text>
			<path class="y-gridline" d="M 0 420 L 660 420"/>
			<text class="y-axis-label" x="-5" y="420">
				 0
			</text>
			<path class="y-gridline" d="M 0 315 L 660 315"/>
			<text class="y-axis-label" x="-5" y="315">
				200
			</text>
			<path class="y-gridline" d="M 0 210 L 660 210"/>
			<text class="y-axis-label" x="-5" y="210">
				400
			</text>
			<path class="y-gridline" d="M 0 105 L 660 105"/>
			<text class="y-axis-label" x="-5" y="105">
				600
			</text>
			<path class="y-gridline" d="M 0 0 L 660 0"/>
			<text class="y-axis-label" x="-5" y="0">
				800
			</text>
		</g>
		<g>
			<path class="series-1-line" d="M 40 395.726226 L 44 426.903468224 L 48 424.252020448 L 53 423.848832672 L 57 427.793274896 L 61 430.526647119 L 66 414.413779343 L 70 418.883221567 L 74 433.045213791 L 79 419.072666015 L 83 436.775048239 L 87 419.787110463 L 92 428.874032687 L 96 415.03609491 L 101 407.821137134 L 105 409.935009358 L 109 417.541431582 L 114 411.564843806 L 118 405.72307603 L 122 380.684998254 L 127 405.764260478 L 131 392.599372701 L 135 361.194094925 L 140 362.042717149 L 144 357.708539373 L 149 352.283831597 L 153 365.072843821 L 157 342.336576045 L 162 336.790698269 L 166 309.585630493 L 170 307.055352716 L 175 311.87507494 L 179 317.125507164 L 183 291.791329388 L 188 279.972121612 L 192 268.678753836 L 196 284.69840606 L 201 270.079688284 L 205 274.414520507 L 210 269.636192731 L 214 264.279104955 L 218 212.250567179 L 223 207.176139403 L 227 170.696001627 L 231 161.124843851 L 236 162.013786075 L 240 156.104398299 L 244 169.781710522 L 249 112.180402746 L 253 136.97721497 L 258 145.916087194 L 262 123.368399418 L 266 122.170361642 L 271 171.265223866 L 275 135.66015609 L 279 80.1181083134 L 284 88.7743205373 L 288 132.362982761 L 292 137.277204985 L 297 93.702637209 L 301 153.230089433 L 306 114.003361657 L 310 123.373363881 L 314 90.9985161045 L 319 111.675968328 L 323 139.353350552 L 327 133.269032776 L 332 144.173505 L 336 189.162447224 L 340 180.856539448 L 345 168.688311672 L 349 208.709703896 L 353 170.801986119 L 358 162.470458343 L 362 156.373120567 L 367 177.467632791 L 371 202.815905015 L 375 236.780057239 L 380 277.945949463 L 384 255.856061687 L 388 253.97216391 L 393 298.489866134 L 397 283.251438358 L 401 299.069490582 L 406 319.168182806 L 410 326.93588503 L 415 328.175107254 L 419 337.113769478 L 423 347.775901701 L 428 348.179953925 L 432 360.820916149 L 436 392.442518373 L 441 386.843300597 L 445 397.693802821 L 449 387.813315045 L 454 413.848497269 L 458 412.260699493 L 463 413.163081716 L 467 413.80989394 L 471 422.021956164 L 476 413.649058388 L 480 410.122750612 L 484 413.030842836 L 489 415.49478506 L 493 421.054967284 L 497 431.649689507 L 502 413.355971731 L 506 414.352433955 L 510 416.385666179 L 515 418.122588403 L 519 409.454010627 L 524 400.650612851 L 528 427.775905075 L 532 417.814777299 L 537 428.530669522 L 541 419.646631746 L 545 409.01245397 L 550 425.180156194 L 554 411.113318418 L 558 409.538960642 L 563 420.483542866 L 567 424.64365509 L 572 419.353767313 L 576 435.628989537 L 580 413.445021761 L 585 419.274423985 L 589 420.661276209 L 593 413.015608433 L 598 406.473910657 L 602 420.878032881 L 606 416.947895104 L 611 421.484747328 L 615 421.539149552 L 620 421.364441776"/>
			<path class="series-2-line" d="M 40 427.035 L 44 413.095858209 L 48 414.381716418 L 53 433.517574627 L 57 409.078432836 L 61 430.314291045 L 66 443.150149254 L 70 418.711007463 L 74 417.896865672 L 79 424.432723881 L 83 424.14358209 L 87 430.154440299 L 92 422.515298507 L 96 428.526156716 L 101 425.087014925 L 105 420.072873134 L 109 438.683731343 L 114 426.319589552 L 118 433.905447761 L 122 426.26630597 L 127 421.777164179 L 131 425.163022388 L 135 428.023880597 L 140 436.134738806 L 144 433.745597015 L 149 417.181455224 L 153 425.817313433 L 157 407.153171642 L 162 389.014029851 L 166 412.34988806 L 170 415.210746269 L 175 418.071604478 L 179 415.157462687 L 183 412.768320896 L 188 369.954179104 L 192 409.040037313 L 196 405.075895522 L 201 410.036753731 L 205 386.12261194 L 210 391.608470149 L 214 405.494328358 L 218 390.505186567 L 223 401.241044776 L 227 417.751902985 L 231 372.312761194 L 236 374.123619403 L 240 351.259477612 L 244 344.145335821 L 249 359.08119403 L 253 378.217052239 L 258 373.202910448 L 262 366.088768657 L 266 324.849626866 L 271 341.360485075 L 275 364.696343284 L 279 344.982201493 L 284 343.118059701 L 288 317.62891791 L 292 346.739776119 L 297 343.825634328 L 301 350.361492537 L 306 324.347350746 L 310 354.508208955 L 314 324.294067164 L 319 330.829925373 L 323 330.540783582 L 327 314.501641791 L 332 330.4875 L 336 332.298358209 L 340 273.734216418 L 345 326.470074627 L 349 304.655932836 L 353 257.116791045 L 358 325.602649254 L 362 352.613507463 L 367 334.999365672 L 371 308.985223881 L 375 331.27108209 L 380 335.706940299 L 384 339.092798507 L 388 364.003656716 L 393 357.414514925 L 397 315.650373134 L 401 343.186231343 L 406 358.122089552 L 410 351.532947761 L 415 380.64380597 L 419 355.154664179 L 423 367.990522388 L 428 343.026380597 L 432 354.287238806 L 436 352.948097015 L 441 384.158955224 L 445 388.069813433 L 449 370.455671642 L 454 380.666529851 L 458 400.32738806 L 463 400.038246269 L 467 419.174104478 L 471 425.184962687 L 476 397.595820896 L 480 412.531679104 L 484 406.467537313 L 489 408.278395522 L 493 418.489253731 L 497 421.35011194 L 502 426.310970149 L 506 411.321828358 L 510 418.907686567 L 515 411.268544776 L 519 429.879402985 L 524 428.540261194 L 528 411.976119403 L 532 406.961977612 L 537 411.397835821 L 541 422.65869403 L 545 420.269552239 L 550 413.680410448 L 554 414.441268657 L 558 432.002126866 L 563 421.212985075 L 567 424.598843284 L 572 427.984701493 L 576 404.595559701 L 580 422.68141791 L 585 431.842276119 L 589 417.378134328 L 593 419.713992537 L 598 434.124850746 L 602 415.985708955 L 606 432.496567164 L 611 418.032425373 L 615 427.193283582 L 620 410.629141791"/>
		</g>
		<text class="x-axis-label" x="40.0" y="540">
			0
		</text>
		<path class="x-notch" d="M 61.8045112782 525 L 61.8045112782 530"/>
		<text class="x-axis-label" x="83.6090225564" y="540">
			10
		</text>
		<path class="x-notch" d="M 105.413533835 525 L 105.413533835 530"/>
		<text class="x-axis-label" x="127.218045113" y="540">
			20
		</text>
		<path class="x-notch" d="M 149.022556391 525 L 149.022556391 530"/>
		<text class="x-axis-label" x="170.827067669" y="540">
			30
		</text>
		<path class="x-notch" d="M 192.631578947 525 L 192.631578947 530"/>
		<text class="x-axis-label" x="214.436090226" y="540">
			40
		</text>
		<path class="x-notch" d="M 236.240601504 525 L 236.240601504 530"/>
		<text class="x-axis-label" x="258.045112782" y="540">
			50
		</text>
		<path class="x-notch" d="M 279.84962406 525 L 279.84962406 530"/>
		<text class="x-axis-label" x="301.654135338" y="540">
			60
		</text>
		<path class="x-notch" d="M 323.458646617 525 L 323.458646617 530"/>
		<text class="x-axis-label" x="345.263157895" y="540">
			70
		</text>
		<path class="x-notch" d="M 367.067669173 525 L 367.067669173 530"/>
		<text class="x-axis-label" x="388.872180451" y="540">
			80
		</text>
		<path class="x-notch" d="M 410.676691729 525 L 410.676691729 530"/>
		<text class="x-axis-label" x="432.481203008" y="540">
			90
		</text>
		<path class="x-notch" d="M 454.285714286 525 L 454.285714286 530"/>
		<text class="x-axis-label" x="476.090225564" y="540">
			100
		</text>
		<path class="x-notch" d="M 497.894736842 525 L 497.894736842 530"/>
		<text class="x-axis-label" x="519.69924812" y="540">
			110
		</text>
		<path class="x-notch" d="M 541.503759398 525 L 541.503759398 530"/>
		<text class="x-axis-label" x="563.308270677" y="540">
			120
		</text>
		<path class="x-notch" d="M 585.112781955 525 L 585.112781955 530"/>
		<text class="x-axis-label" x="606.917293233" y="540">
			130
		</text>
		<path class="x-notch" d="M 628.721804511 525 L 628.721804511 530"/>
	</g>
</svg>
