<?xml version="1.0" ?>
<svg height="600" version="1.1" width="800" xmlns="http://www.w3.org/2000/svg" xmlns:svg="http://www.w3.org/2000/svg">
	<style type="text/css">
		

.x-axis-path, .y-gridline, .x-notch { fill:none; stroke: #a7a9ac; stroke-width:1; }



.y-gridline { stroke-width: 1; }

.y-axis-path, .y-axis-path2, .x-notch-left, .x-notch-right { display: none;}



.x-axis-label, .data-point-label {font-size: 12px; font-weight:normal; font-family: sans-serif; fill: #58595b; text-anchor:middle;}

.y-axis-label {font-size: 12px; font-family: helvetica; fill: #a7a9ac; text-anchor:end;}



.series-1-line { fill: none; stroke: #10b80c; stroke-width:2; }



.series-2-line { fill: none; stroke: #e90f0a; stroke-width: 2;}

	</style>
	<rect fill="white" height="600" width="800" x="0" y="0"/>
	<g id="grid" transform="translate(70, 30)">
		<g class="x-axis" id="x_axis">
			<path class="x-axis-path" d="M 0 525 L 660 525"/>
			<path class="x-notch-left" d="M 0 525, L 0 535"/>
			<path class="x-notch-right" d="M 660 525, L 660 535"/>
		</g>
		<g class="y-axis" id="y_axis">
			<path class="y-axis-path" d="M 0 525 L 0 0"/>
			<path class="y-axis-path-2" d="M 660 525 L 660 0"/>
			<path class="y-gridline" d="M 0 525 L 660 525"/>
			<text class="y-axis-label" x="-5" y="525">
				-250
			</text>
			<path class="y-gridline" d="M 0 420 L 660 420"/>
			<text class="y-axis-label" x="-5" y="420">
				 0
			</text>
			<path class="y-gridline" d="M 0 315 L 660 315"/>
			<text class="y-axis-label" x="-5" y="315">
				250
			</text>
			<path class="y-gridline" d="M 0 210 L 660 210"/>
			<text class="y-axis-label" x="-5" y="210">
				500
			</text>
			<path class="y-gridline" d="M 0 105 L 660 105"/>
			<text class="y-axis-label" x="-5" y="105">
				750
			</text>
			<path class="y-gridline" d="M 0 0 L 660 0"/>
			<text class="y-axis-label" x="-5" y="0">
				1000
			</text>
		</g>
		<g>
			<path class="series-1-line" d="M 40 412.6144176 L 43 419.75814974 L 46 414.161433879 L 50 430.436974019 L 53 423.602266158 L 56 435.193294298 L 60 431.287666437 L 63 416.386606577 L 67 421.397578716 L 70 415.208662856 L 73 427.855402995 L 77 419.943479135 L 80 421.691555274 L 84 433.799519414 L 87 424.789043553 L 90 395.241911693 L 94 407.630099833 L 97 402.227423972 L 101 403.986420112 L 104 422.006640251 L 107 393.310092391 L 111 403.15677653 L 114 393.40340467 L 118 401.268192809 L 121 424.802340949 L 124 421.823065088 L 128 394.860277228 L 131 414.560833367 L 134 397.042501507 L 138 398.402833647 L 141 379.797205786 L 145 376.613137926 L 148 392.985614065 L 151 337.409402205 L 155 360.566222344 L 158 348.422378484 L 162 348.156638623 L 165 328.958642763 L 168 310.557302902 L 172 287.364099042 L 175 288.605991181 L 179 265.293675321 L 182 226.62531946 L 185 192.2532276 L 189 292.37823974 L 192 262.895283879 L 196 202.085200019 L 199 219.190156158 L 202 201.812272298 L 206 231.280180437 L 209 192.169648577 L 212 174.479452716 L 216 224.947528856 L 219 191.921620995 L 223 158.206745135 L 226 164.197997274 L 229 179.784401414 L 233 177.903341553 L 236 131.437601693 L 240 117.193253833 L 243 135.429017972 L 246 121.712526112 L 250 118.215810251 L 253 65.1056703907 L 257 93.7444985302 L 260 91.7446626698 L 263 70.7588108093 L 267 117.920982949 L 270 65.3061070884 L 274 62.0571912279 L 277 103.252843367 L 280 100.962703507 L 284 111.767659647 L 287 108.518743786 L 290 71.1636439256 L 294 103.937960065 L 297 90.2428042047 L 301 83.0415203442 L 304 48.5083164837 L 307 111.683912623 L 311 149.853884763 L 314 172.149536902 L 318 158.195997042 L 321 134.841177181 L 324 164.136885321 L 328 131.36952946 L 331 98.0208936 L 335 128.64144974 L 338 199.021557879 L 341 184.885066019 L 345 170.404006158 L 348 142.999882298 L 352 208.253638437 L 355 222.128458577 L 358 194.712910716 L 362 146.621602856 L 365 156.500374995 L 369 170.438867135 L 372 139.168391274 L 375 118.796243414 L 379 178.881815553 L 382 156.625379693 L 385 126.453119833 L 389 217.693955972 L 392 220.594680112 L 396 235.254900251 L 399 222.571944391 L 402 248.31394853 L 406 239.55127267 L 409 245.768652809 L 413 245.405976949 L 416 247.552549088 L 419 239.521849228 L 423 278.477557367 L 426 260.528977507 L 430 291.310813647 L 433 282.903457786 L 436 265.029805926 L 440 300.776042065 L 443 304.269134205 L 447 314.201834344 L 450 273.637430484 L 453 300.155258623 L 457 303.184334763 L 460 350.174138902 L 463 327.917871042 L 467 295.850739181 L 470 298.406391321 L 474 358.92254746 L 477 345.0015996 L 480 359.64065174 L 484 384.488559879 L 487 386.064604019 L 491 356.075800158 L 494 393.556132298 L 497 396.488776437 L 501 379.907716577 L 504 388.375624716 L 508 393.871780856 L 511 396.847432995 L 514 410.936957135 L 518 395.788265274 L 521 408.660797414 L 525 414.964193553 L 528 435.300293693 L 531 434.129873833 L 535 415.416557972 L 538 425.575386112 L 541 413.161902251 L 545 443.545410391 L 548 432.34891853 L 552 424.65237067 L 555 425.991366809 L 558 427.222506949 L 562 433.235095088 L 565 427.498603228 L 569 433.435927367 L 572 433.783891507 L 575 442.575199647 L 579 439.563331786 L 582 420.839095926 L 586 411.074972065 L 589 430.430792205 L 592 433.115636344 L 596 430.965440484 L 599 424.184156623 L 603 425.469224763 L 606 414.886604902 L 609 422.525433042 L 613 412.373565181 L 616 424.901697321 L 620 424.45283746"/>
			<path class="series-2-line" d="M 40 415.716 L 43 440.181 L 46 420.966 L 50 396.711 L 53 423.276 L 56 409.101 L 60 420.966 L 63 428.211 L 67 408.576 L 70 399.861 L 73 417.606 L 77 415.611 L 80 413.616 L 84 400.701 L 87 389.886 L 90 405.111 L 94 414.036 L 97 413.721 L 101 426.426 L 104 408.471 L 107 405.636 L 111 417.921 L 114 424.746 L 118 402.171 L 121 392.196 L 124 423.381 L 128 412.146 L 131 426.951 L 134 400.176 L 138 393.141 L 141 405.006 L 145 418.971 L 148 395.976 L 151 425.901 L 155 376.446 L 158 412.251 L 162 413.196 L 165 419.181 L 168 399.126 L 172 422.331 L 175 417.396 L 179 377.181 L 182 423.066 L 185 404.691 L 189 403.956 L 192 376.341 L 196 403.746 L 199 397.551 L 202 414.456 L 206 396.081 L 209 379.806 L 212 396.291 L 216 394.296 L 219 378.861 L 223 389.046 L 226 396.711 L 229 381.696 L 233 388.941 L 236 389.886 L 240 376.551 L 243 374.136 L 246 376.761 L 250 357.546 L 253 379.491 L 257 375.816 L 260 352.401 L 263 342.426 L 267 364.791 L 270 374.976 L 274 366.261 L 277 352.926 L 280 374.871 L 284 368.676 L 287 359.961 L 290 348.306 L 294 354.711 L 297 337.596 L 301 323.001 L 304 346.206 L 307 327.411 L 311 360.276 L 314 346.941 L 318 337.386 L 321 353.031 L 324 345.156 L 328 338.541 L 331 357.126 L 335 371.931 L 338 343.056 L 341 345.681 L 345 352.926 L 348 361.431 L 352 313.236 L 355 368.781 L 358 313.446 L 362 371.511 L 365 362.376 L 369 325.941 L 372 315.126 L 375 291.291 L 379 345.156 L 382 353.241 L 385 318.486 L 389 360.591 L 392 391.776 L 396 373.821 L 399 346.206 L 402 352.191 L 406 351.876 L 409 357.021 L 413 356.706 L 416 358.071 L 419 325.416 L 423 317.541 L 426 341.586 L 430 331.191 L 433 324.576 L 436 304.101 L 440 272.706 L 443 309.771 L 447 308.616 L 450 289.821 L 453 338.646 L 457 284.151 L 460 300.636 L 463 325.101 L 467 340.326 L 470 326.991 L 474 362.796 L 477 380.961 L 480 399.126 L 484 380.751 L 487 405.636 L 491 407.841 L 494 400.806 L 497 394.191 L 501 401.436 L 504 383.061 L 508 418.866 L 511 405.531 L 514 394.716 L 518 407.841 L 521 390.306 L 525 382.011 L 528 412.356 L 531 407.001 L 535 419.286 L 538 415.611 L 541 411.516 L 545 414.141 L 548 416.766 L 552 413.931 L 555 426.636 L 558 423.381 L 562 411.306 L 565 413.931 L 569 413.616 L 572 400.701 L 575 413.826 L 579 417.291 L 582 414.876 L 586 423.381 L 589 426.426 L 592 409.311 L 596 425.796 L 599 411.201 L 603 415.926 L 606 421.071 L 609 417.396 L 613 420.861 L 616 424.326 L 620 421.071"/>
		</g>
		<text class="x-axis-label" x="40.0" y="540">
			0
		</text>
		<path class="x-notch" d="M 56.9590643275 525 L 56.9590643275 530"/>
		<text class="x-axis-label" x="73.918128655" y="540">
			10
		</text>
		<path class="x-notch" d="M 90.8771929825 525 L 90.8771929825 530"/>
		<text class="x-axis-label" x="107.83625731" y="540">
			20
		</text>
		<path class="x-notch" d="M 124.795321637 525 L 124.795321637 530"/>
		<text class="x-axis-label" x="141.754385965" y="540">
			30
		</text>
		<path class="x-notch" d="M 158.713450292 525 L 158.713450292 530"/>
		<text class="x-axis-label" x="175.67251462" y="540">
			40
		</text>
		<path class="x-notch" d="M 192.631578947 525 L 192.631578947 530"/>
		<text class="x-axis-label" x="209.590643275" y="540">
			50
		</text>
		<path class="x-notch" d="M 226.549707602 525 L 226.549707602 530"/>
		<text class="x-axis-label" x="243.50877193" y="540">
			60
		</text>
		<path class="x-notch" d="M 260.467836257 525 L 260.467836257 530"/>
		<text class="x-axis-label" x="277.426900585" y="540">
			70
		</text>
		<path class="x-notch" d="M 294.385964912 525 L 294.385964912 530"/>
		<text class="x-axis-label" x="311.34502924" y="540">
			80
		</text>
		<path class="x-notch" d="M 328.304093567 525 L 328.304093567 530"/>
		<text class="x-axis-label" x="345.263157895" y="540">
			90
		</text>
		<path class="x-notch" d="M 362.222222222 525 L 362.222222222 530"/>
		<text class="x-axis-label" x="379.18128655" y="540">
			100
		</text>
		<path class="x-notch" d="M 396.140350877 525 L 396.140350877 530"/>
		<text class="x-axis-label" x="413.099415205" y="540">
			110
		</text>
		<path class="x-notch" d="M 430.058479532 525 L 430.058479532 530"/>
		<text class="x-axis-label" x="447.01754386" y="540">
			120
		</text>
		<path class="x-notch" d="M 463.976608187 525 L 463.976608187 530"/>
		<text class="x-axis-label" x="480.935672515" y="540">
			130
		</text>
		<path class="x-notch" d="M 497.894736842 525 L 497.894736842 530"/>
		<text class="x-axis-label" x="514.85380117" y="540">
			140
		</text>
		<path class="x-notch" d="M 531.812865497 525 L 531.812865497 530"/>
		<text class="x-axis-label" x="548.771929825" y="540">
			150
		</text>
		<path class="x-notch" d="M 565.730994152 525 L 565.730994152 530"/>
		<text class="x-axis-label" x="582.69005848" y="540">
			160
		</text>
		<path class="x-notch" d="M 599.649122807 525 L 599.649122807 530"/>
		<text class="x-axis-label" x="616.608187135" y="540">
			170
		</text>
		<path class="x-notch" d="M 633.567251462 525 L 633.567251462 530"/>
	</g>
</svg>
