<?xml version="1.0" ?>
<svg height="600" version="1.1" width="800" xmlns="http://www.w3.org/2000/svg" xmlns:svg="http://www.w3.org/2000/svg">
	<style type="text/css">

.x-axis-path, .y-gridline, .x-notch { fill:none; stroke: #a7a9ac; stroke-width:1; }



.y-gridline { stroke-width: 1; }

.y-axis-path, .y-axis-path2, .x-notch-left, .x-notch-right { display: none;}



.x-axis-label, .data-point-label {font-size: 12px; font-weight:normal; font-family: sans-serif; fill: #58595b; text-anchor:middle;}

.y-axis-label {font-size: 12px; font-family: helvetica; fill: #a7a9ac; text-anchor:end;}



.series-1-line { fill: none; stroke: #10b80c; stroke-width:2; }



.series-2-line { fill: none; stroke: #e90f0a; stroke-width: 2;}
</style>
	<rect fill="white" height="600" width="800" x="0" y="0"/>
	<g id="grid" transform="translate(70, 30)">
		<g class="x-axis" id="x_axis">
			<path class="x-axis-path" d="M 0 525 L 660 525"/>
			<path class="x-notch-left" d="M 0 525, L 0 535"/>
			<path class="x-notch-right" d="M 660 525, L 660 535"/>
		</g>
		<g class="y-axis" id="y_axis">
			<path class="y-axis-path" d="M 0 525 L 0 0"/>
			<path class="y-axis-path-2" d="M 660 525 L 660 0"/>
			<path class="y-gridline" d="M 0 525 L 660 525"/>
			<text class="y-axis-label" x="-5" y="525">-200</text>
			<path class="y-gridline" d="M 0 420 L 660 420"/>
			<text class="y-axis-label" x="-5" y="420"> 0</text>
			<path class="y-gridline" d="M 0 315 L 660 315"/>
			<text class="y-axis-label" x="-5" y="315">200</text>
			<path class="y-gridline" d="M 0 210 L 660 210"/>
			<text class="y-axis-label" x="-5" y="210">400</text>
			<path class="y-gridline" d="M 0 105 L 660 105"/>
			<text class="y-axis-label" x="-5" y="105">600</text>
			<path class="y-gridline" d="M 0 0 L 660 0"/>
			<text class="y-axis-label" x="-5" y="0">800</text>
		</g>
		<g>
			<path class="series-1-line" d="M 40 432.59905915 L 44 420.947447589 L 48 430.857360026 L 52 423.227062274 L 56 389.091421826 L 60 447.274764185 L 64 409.164313692 L 68 411.56332759 L 72 431.848626197 L 76 422.854939038 L 80 406.837020633 L 84 401.794711391 L 88 428.180294378 L 92 424.687029101 L 96 431.961728276 L 100 439.606294593 L 104 396.712805856 L 108 422.612803035 L 113 407.957913541 L 117 389.328574497 L 121 384.217050351 L 125 361.820545972 L 129 341.52680479 L 133 319.939249599 L 137 286.750988146 L 141 347.684180952 L 145 341.579134542 L 149 310.655858715 L 153 300.645577657 L 157 260.293573667 L 161 259.734731914 L 165 228.672305291 L 169 202.809287817 L 173 189.956869775 L 177 176.387789084 L 181 174.072979642 L 186 223.497752723 L 190 219.102530732 L 194 229.335446053 L 198 205.06725532 L 202 204.693347137 L 206 142.503320028 L 210 130.737071283 L 214 160.796812077 L 218 171.560735488 L 222 145.143998785 L 226 105.0 L 230 149.73438187 L 234 151.993884478 L 238 149.955934651 L 242 109.026058314 L 246 137.353624043 L 250 165.657397149 L 254 144.093274088 L 259 140.160205777 L 263 164.050086792 L 267 103.478318553 L 271 138.621749829 L 275 193.986026838 L 279 107.925509801 L 283 108.221039516 L 287 180.223930494 L 291 130.535484879 L 295 146.499538427 L 299 203.735501791 L 303 172.488141598 L 307 201.230996749 L 311 234.272385819 L 315 208.38629671 L 319 165.21522737 L 323 186.30911467 L 327 191.504122284 L 332 235.521841505 L 336 233.506602819 L 340 197.268920164 L 344 261.529114775 L 348 205.279312582 L 352 270.464175047 L 356 292.643150161 L 360 249.911162866 L 364 278.97774189 L 368 252.422214885 L 372 261.892324288 L 376 274.344081966 L 380 268.793475774 L 384 248.431601171 L 388 287.918988645 L 392 290.364145813 L 396 276.495133872 L 400 317.37006387 L 405 305.765316567 L 409 326.628127027 L 413 336.237026732 L 417 342.056410456 L 421 324.952322755 L 425 320.7189627 L 429 299.501274651 L 433 348.394679148 L 437 344.230894492 L 441 330.985177179 L 445 348.867060352 L 449 364.391310867 L 453 351.05366751 L 457 414.228413813 L 461 358.994845024 L 465 377.593390846 L 469 392.817710111 L 473 392.582231736 L 478 418.251873063 L 482 420.859613155 L 486 374.962125497 L 490 406.385976686 L 494 435.105039215 L 498 420.727730325 L 502 437.384653899 L 506 454.272654314 L 510 436.012821917 L 514 435.893062209 L 518 432.79201472 L 522 419.662376569 L 526 412.817956369 L 530 409.578479073 L 534 429.63270084 L 538 416.132835052 L 542 444.228602953 L 546 420.260343469 L 551 433.775198809 L 555 419.119948821 L 559 415.649394685 L 563 429.44110964 L 567 405.912292696 L 571 419.680936017 L 575 438.972351865 L 579 423.878019832 L 583 414.029600711 L 587 421.281588745 L 591 429.45788414 L 595 426.010401638 L 599 424.827544268 L 603 434.505658877 L 607 424.541521089 L 611 408.292165349 L 615 411.222547831 L 620 426.354580558"/>
			<path class="series-2-line" d="M 40 443.972870306 L 44 381.926545734 L 48 436.139629789 L 52 414.648912878 L 56 415.689089112 L 60 425.741622603 L 64 414.164498676 L 68 409.797260554 L 72 427.059679852 L 76 407.371434392 L 80 464.288225625 L 84 425.674029924 L 88 405.084548738 L 92 441.272918277 L 96 414.374787012 L 100 400.093955907 L 104 431.776146817 L 108 381.445886681 L 113 401.412013156 L 117 443.909032775 L 121 416.109665784 L 125 413.544899114 L 129 399.264068009 L 133 411.119072952 L 137 404.949363379 L 141 407.792011064 L 145 394.412415685 L 149 421.588427967 L 153 419.924897023 L 157 406.545301644 L 161 406.684242151 L 165 385.19352524 L 169 360.999101152 L 173 380.965227627 L 177 372.091810877 L 181 400.169058884 L 186 370.56722044 L 190 336.459203368 L 194 340.203086779 L 198 348.453148819 L 202 354.900739407 L 206 303.669243545 L 210 329.944020101 L 214 298.539710206 L 218 254.51810015 L 222 316.842305737 L 226 306.166417535 L 230 340.552315623 L 234 252.370155003 L 238 237.188088173 L 242 208.487485455 L 246 271.712926768 L 250 268.246924373 L 254 311.645179718 L 259 275.734691194 L 263 257.848917186 L 267 270.605157855 L 271 219.373661993 L 275 247.45091 L 279 264.713329298 L 283 201.765769 L 287 270.398624668 L 291 202.043650016 L 295 225.614719394 L 299 242.877138692 L 303 215.0777717 L 307 213.414240756 L 311 244.195195941 L 315 223.605714755 L 319 228.250833892 L 323 224.784831496 L 327 205.997821763 L 332 211.544176625 L 336 157.608973585 L 340 240.661600866 L 344 181.318983471 L 348 258.062960671 L 352 230.263593679 L 356 127.661661447 L 360 134.109252035 L 364 152.272907059 L 368 201.078576759 L 372 183.192802751 L 376 227.492293823 L 380 197.890455379 L 384 299.869032901 L 388 203.575750749 L 392 191.998626822 L 396 229.989467813 L 400 233.733351224 L 405 234.773527457 L 409 232.208760788 L 413 227.841522666 L 417 252.31382777 L 421 302.921968922 L 425 278.727544834 L 429 303.199849938 L 433 286.215311655 L 437 286.354252163 L 441 262.159828075 L 445 267.706182937 L 449 219.178394252 L 453 244.551935082 L 457 249.197054219 L 461 272.768123597 L 465 307.154021685 L 469 305.490490741 L 473 290.30842391 L 478 311.175786111 L 482 379.808641779 L 486 423.206897124 L 490 460.296502389 L 494 391.941527737 L 498 438.944725986 L 502 424.663894881 L 506 409.48182805 L 510 429.447954525 L 514 431.389366485 L 518 406.29370667 L 522 434.370954677 L 526 430.904952282 L 530 427.438949887 L 534 445.60260491 L 538 425.91435945 L 542 419.744649878 L 546 381.130454176 L 551 435.343538232 L 555 420.161471401 L 559 417.596704731 L 563 428.550473948 L 567 426.886943005 L 571 441.445655125 L 575 437.979652729 L 579 420.995114447 L 583 429.245176487 L 587 441.10018143 L 591 449.35024347 L 595 443.180533897 L 599 435.208352873 L 603 420.026286042 L 607 411.152869292 L 611 433.822702944 L 615 416.838164662 L 620 429.594405331"/>
		</g>
		<text class="x-axis-label" x="40.0" y="540">0</text>
		<path class="x-notch" d="M 60.2797202797 525 L 60.2797202797 530"/>
		<text class="x-axis-label" x="80.5594405594" y="540">10</text>
		<path class="x-notch" d="M 100.839160839 525 L 100.839160839 530"/>
		<text class="x-axis-label" x="121.118881119" y="540">20</text>
		<path class="x-notch" d="M 141.398601399 525 L 141.398601399 530"/>
		<text class="x-axis-label" x="161.678321678" y="540">30</text>
		<path class="x-notch" d="M 181.958041958 525 L 181.958041958 530"/>
		<text class="x-axis-label" x="202.237762238" y="540">40</text>
		<path class="x-notch" d="M 222.517482517 525 L 222.517482517 530"/>
		<text class="x-axis-label" x="242.797202797" y="540">50</text>
		<path class="x-notch" d="M 263.076923077 525 L 263.076923077 530"/>
		<text class="x-axis-label" x="283.356643357" y="540">60</text>
		<path class="x-notch" d="M 303.636363636 525 L 303.636363636 530"/>
		<text class="x-axis-label" x="323.916083916" y="540">70</text>
		<path class="x-notch" d="M 344.195804196 525 L 344.195804196 530"/>
		<text class="x-axis-label" x="364.475524476" y="540">80</text>
		<path class="x-notch" d="M 384.755244755 525 L 384.755244755 530"/>
		<text class="x-axis-label" x="405.034965035" y="540">90</text>
		<path class="x-notch" d="M 425.314685315 525 L 425.314685315 530"/>
		<text class="x-axis-label" x="445.594405594" y="540">100</text>
		<path class="x-notch" d="M 465.874125874 525 L 465.874125874 530"/>
		<text class="x-axis-label" x="486.153846154" y="540">110</text>
		<path class="x-notch" d="M 506.433566434 525 L 506.433566434 530"/>
		<text class="x-axis-label" x="526.713286713" y="540">120</text>
		<path class="x-notch" d="M 546.993006993 525 L 546.993006993 530"/>
		<text class="x-axis-label" x="567.272727273" y="540">130</text>
		<path class="x-notch" d="M 587.552447552 525 L 587.552447552 530"/>
		<text class="x-axis-label" x="607.832167832" y="540">140</text>
		<path class="x-notch" d="M 628.111888112 525 L 628.111888112 530"/>
	</g>
</svg>
