<?xml version="1.0" ?>
<svg height="600" version="1.1" width="800" xmlns="http://www.w3.org/2000/svg" xmlns:svg="http://www.w3.org/2000/svg">
	<style type="text/css">
		

.x-axis-path, .y-gridline, .x-notch { fill:none; stroke: #a7a9ac; stroke-width:1; }



.y-gridline { stroke-width: 1; }

.y-axis-path, .y-axis-path2, .x-notch-left, .x-notch-right { display: none;}



.x-axis-label, .data-point-label {font-size: 12px; font-weight:normal; font-family: sans-serif; fill: #58595b; text-anchor:middle;}

.y-axis-label {font-size: 12px; font-family: helvetica; fill: #a7a9ac; text-anchor:end;}



.series-1-line { fill: none; stroke: #10b80c; stroke-width:2; }



.series-2-line { fill: none; stroke: #e90f0a; stroke-width: 2;}

	</style>
	<rect fill="white" height="600" width="800" x="0" y="0"/>
	<g id="grid" transform="translate(70, 30)">
		<g class="x-axis" id="x_axis">
			<path class="x-axis-path" d="M 0 525 L 660 525"/>
			<path class="x-notch-left" d="M 0 525, L 0 535"/>
			<path class="x-notch-right" d="M 660 525, L 660 535"/>
		</g>
		<g class="y-axis" id="y_axis">
			<path class="y-axis-path" d="M 0 525 L 0 0"/>
			<path class="y-axis-path-2" d="M 660 525 L 660 0"/>
			<path class="y-gridline" d="M 0 525 L 660 525"/>
			<text class="y-axis-label" x="-5" y="525">
				-300
			</text>
			<path class="y-gridline" d="M 0 394 L 660 394"/>
			<text class="y-axis-label" x="-5" y="394">
				 0
			</text>
			<path class="y-gridline" d="M 0 263 L 660 263"/>
			<text class="y-axis-label" x="-5" y="263">
				300
			</text>
			<path class="y-gridline" d="M 0 132 L 660 132"/>
			<text class="y-axis-label" x="-5" y="132">
				600
			</text>
			<path class="y-gridline" d="M 0 1 L 660 1"/>
			<text class="y-axis-label" x="-5" y="1">
				900
			</text>
		</g>
		<g>
			<path class="series-1-line" d="M 40 421.31418 L 44 384.929746127 L 48 336.126087254 L 52 426.34575338 L 56 398.744394507 L 60 402.665260634 L 64 393.875876761 L 68 372.993992887 L 72 411.846959014 L 77 406.187625141 L 81 426.598741268 L 85 394.880332394 L 89 410.680723521 L 93 363.156139648 L 97 383.410105775 L 101 371.996246901 L 105 389.927613028 L 109 373.039929155 L 114 383.298070282 L 118 393.602061408 L 122 386.203402535 L 126 360.957893662 L 130 362.937659789 L 134 336.984800915 L 138 399.260992042 L 142 324.118258169 L 146 305.703349296 L 151 310.028290423 L 155 329.059531549 L 159 321.189947676 L 163 291.916463803 L 167 302.66897993 L 171 255.996996056 L 175 282.285837183 L 179 250.03997831 L 183 240.397994437 L 188 189.990110563 L 192 180.66225169 L 196 213.053692817 L 200 159.909333944 L 204 149.31377507 L 208 154.782866197 L 212 158.074782324 L 216 106.365773451 L 220 151.355114577 L 225 109.495455704 L 229 131.869546831 L 233 144.281587958 L 237 119.518204085 L 241 119.702820211 L 245 121.077786338 L 249 95.3939024648 L 253 130.298343592 L 258 75.7293097183 L 262 86.3133008451 L 266 118.481091972 L 270 112.439558099 L 274 139.042699225 L 278 172.073765352 L 282 149.912981479 L 286 138.644722606 L 290 150.025138732 L 295 133.765179859 L 299 94.1610959859 L 303 116.187112113 L 307 153.524753239 L 311 157.939469366 L 315 153.245260493 L 319 148.86500162 L 323 148.769617746 L 327 156.482033873 L 332 140.72625 L 336 175.080841127 L 340 136.014532254 L 344 191.66189838 L 348 162.545564507 L 352 171.300455634 L 356 161.423446761 L 360 210.765562887 L 364 214.125379014 L 369 170.448695141 L 373 113.354761268 L 377 200.859477394 L 381 161.906743521 L 385 181.318784648 L 389 223.313350775 L 393 230.061516901 L 397 253.804808028 L 401 234.773024155 L 406 255.005465282 L 410 312.760706408 L 414 343.088197535 L 418 325.886213662 L 422 354.676504789 L 426 384.612345915 L 430 337.469437042 L 434 369.558303169 L 439 364.481894296 L 443 354.246485423 L 447 379.816951549 L 451 409.270142676 L 455 370.955633803 L 459 403.44822493 L 463 398.013766056 L 467 384.546807183 L 471 407.82967331 L 476 399.601339437 L 480 423.848805563 L 484 387.63219669 L 488 381.669587817 L 492 438.516578944 L 496 403.78029507 L 500 398.637211197 L 504 394.133927324 L 508 416.249893451 L 513 413.080809577 L 517 382.158825704 L 521 420.069241831 L 525 418.134782958 L 529 410.343949085 L 533 401.420165211 L 537 406.687306338 L 541 376.113222465 L 545 410.232263592 L 550 402.609429718 L 554 385.766020845 L 558 397.045811972 L 562 409.278828099 L 566 422.857944225 L 570 412.688860352 L 574 405.997551479 L 578 425.914467606 L 582 399.210683732 L 587 407.607174859 L 591 407.119265986 L 595 412.913332113 L 599 410.339073239 L 603 388.895789366 L 607 371.626080493 L 611 392.78899662 L 615 408.218562746 L 620 409.155328873"/>
			<path class="series-2-line" d="M 40 338.8 L 44 430.000880282 L 48 428.014260563 L 52 356.465140845 L 56 391.228521127 L 60 405.429401408 L 64 389.00528169 L 68 416.331161972 L 72 372.782042254 L 77 379.982922535 L 81 381.058802817 L 85 409.697183099 L 89 396.33556338 L 93 416.661443662 L 97 408.112323944 L 101 442.875704225 L 105 387.076584507 L 109 473.902464789 L 114 403.66584507 L 118 428.804225352 L 122 383.067605634 L 126 425.705985915 L 130 401.406866197 L 134 383.670246479 L 138 354.558626761 L 142 417.759507042 L 146 350.147887324 L 151 386.661267606 L 155 381.174647887 L 159 357.750528169 L 163 329.076408451 L 167 335.402288732 L 171 359.228169014 L 175 313.491549296 L 179 322.004929577 L 183 302.080809859 L 188 294.406690141 L 192 276.670070423 L 196 234.433450704 L 200 295.446830986 L 204 270.710211268 L 208 299.348591549 L 212 240.924471831 L 216 248.562852113 L 220 220.326232394 L 225 227.089612676 L 229 211.977992958 L 233 146.991373239 L 237 165.567253521 L 241 114.143133803 L 245 184.344014085 L 249 141.669894366 L 253 116.933274648 L 258 178.38415493 L 262 159.772535211 L 266 186.660915493 L 270 116.861795775 L 274 90.3751760563 L 278 67.826056338 L 282 89.9019366197 L 286 101.915316901 L 290 78.4911971831 L 295 118.504577465 L 299 200.080457746 L 303 153.906338028 L 307 22.4197183099 L 311 61.9955985915 L 315 106.383978873 L 319 135.897359155 L 323 128.223239437 L 327 131.049119718 L 332 109.375 L 336 68.0133802817 L 340 82.6517605634 L 344 149.352640845 L 348 130.303521127 L 352 55.6919014085 L 356 89.5802816901 L 360 81.9061619718 L 364 81.2320422535 L 369 115.557922535 L 373 93.0088028169 L 377 1.33468309859 L 381 152.03556338 L 385 87.048943662 L 389 99.4998239437 L 393 150.450704225 L 397 194.839084507 L 401 138.164964789 L 406 218.42834507 L 410 177.941725352 L 414 150.580105634 L 418 218.155985915 L 422 157.544366197 L 426 225.557746479 L 430 271.696126761 L 434 259.647007042 L 439 227.035387324 L 443 316.923767606 L 447 229.624647887 L 451 270.513028169 L 455 304.401408451 L 459 280.539788732 L 463 338.053169014 L 467 351.816549296 L 471 348.517429577 L 476 346.968309859 L 480 329.669190141 L 484 377.557570423 L 488 346.695950704 L 492 345.584330986 L 496 350.160211268 L 500 379.236091549 L 504 445.061971831 L 508 419.012852113 L 513 413.088732394 L 517 436.914612676 L 521 369.740492958 L 525 427.253873239 L 529 425.704753521 L 533 430.280633803 L 537 456.294014085 L 541 494.119894366 L 545 455.383274648 L 550 427.58415493 L 554 456.222535211 L 558 465.610915493 L 562 445.686795775 L 566 420.512676056 L 570 414.588556338 L 574 429.22693662 L 578 370.802816901 L 582 419.128697183 L 587 400.517077465 L 591 402.905457746 L 595 397.856338028 L 599 418.61971831 L 603 396.945598592 L 607 423.833978873 L 611 444.159859155 L 615 369.110739437 L 620 371.061619718"/>
		</g>
		<text class="x-axis-label" x="40.0" y="540">
			0
		</text>
		<path class="x-notch" d="M 60.5673758865 525 L 60.5673758865 530"/>
		<text class="x-axis-label" x="81.134751773" y="540">
			10
		</text>
		<path class="x-notch" d="M 101.70212766 525 L 101.70212766 530"/>
		<text class="x-axis-label" x="122.269503546" y="540">
			20
		</text>
		<path class="x-notch" d="M 142.836879433 525 L 142.836879433 530"/>
		<text class="x-axis-label" x="163.404255319" y="540">
			30
		</text>
		<path class="x-notch" d="M 183.971631206 525 L 183.971631206 530"/>
		<text class="x-axis-label" x="204.539007092" y="540">
			40
		</text>
		<path class="x-notch" d="M 225.106382979 525 L 225.106382979 530"/>
		<text class="x-axis-label" x="245.673758865" y="540">
			50
		</text>
		<path class="x-notch" d="M 266.241134752 525 L 266.241134752 530"/>
		<text class="x-axis-label" x="286.808510638" y="540">
			60
		</text>
		<path class="x-notch" d="M 307.375886525 525 L 307.375886525 530"/>
		<text class="x-axis-label" x="327.943262411" y="540">
			70
		</text>
		<path class="x-notch" d="M 348.510638298 525 L 348.510638298 530"/>
		<text class="x-axis-label" x="369.078014184" y="540">
			80
		</text>
		<path class="x-notch" d="M 389.645390071 525 L 389.645390071 530"/>
		<text class="x-axis-label" x="410.212765957" y="540">
			90
		</text>
		<path class="x-notch" d="M 430.780141844 525 L 430.780141844 530"/>
		<text class="x-axis-label" x="451.34751773" y="540">
			100
		</text>
		<path class="x-notch" d="M 471.914893617 525 L 471.914893617 530"/>
		<text class="x-axis-label" x="492.482269504" y="540">
			110
		</text>
		<path class="x-notch" d="M 513.04964539 525 L 513.04964539 530"/>
		<text class="x-axis-label" x="533.617021277" y="540">
			120
		</text>
		<path class="x-notch" d="M 554.184397163 525 L 554.184397163 530"/>
		<text class="x-axis-label" x="574.75177305" y="540">
			130
		</text>
		<path class="x-notch" d="M 595.319148936 525 L 595.319148936 530"/>
		<text class="x-axis-label" x="615.886524823" y="540">
			140
		</text>
		<path class="x-notch" d="M 636.453900709 525 L 636.453900709 530"/>
	</g>
</svg>
