<?xml version="1.0" ?>
<svg height="600" version="1.1" width="800" xmlns="http://www.w3.org/2000/svg" xmlns:svg="http://www.w3.org/2000/svg">
	<style type="text/css">
		

.x-axis-path, .y-gridline, .x-notch { fill:none; stroke: #a7a9ac; stroke-width:1; }



.y-gridline { stroke-width: 1; }

.y-axis-path, .y-axis-path2, .x-notch-left, .x-notch-right { display: none;}



.x-axis-label, .data-point-label {font-size: 12px; font-weight:normal; font-family: sans-serif; fill: #58595b; text-anchor:middle;}

.y-axis-label {font-size: 12px; font-family: helvetica; fill: #a7a9ac; text-anchor:end;}



.series-1-line { fill: none; stroke: #10b80c; stroke-width:2; }



.series-2-line { fill: none; stroke: #e90f0a; stroke-width: 2;}

	</style>
	<rect fill="white" height="600" width="800" x="0" y="0"/>
	<g id="grid" transform="translate(70, 30)">
		<g class="x-axis" id="x_axis">
			<path class="x-axis-path" d="M 0 525 L 660 525"/>
			<path class="x-notch-left" d="M 0 525, L 0 535"/>
			<path class="x-notch-right" d="M 660 525, L 660 535"/>
		</g>
		<g class="y-axis" id="y_axis">
			<path class="y-axis-path" d="M 0 525 L 0 0"/>
			<path class="y-axis-path-2" d="M 660 525 L 660 0"/>
			<path class="y-gridline" d="M 0 525 L 660 525"/>
			<text class="y-axis-label" x="-5" y="525">
				-300
			</text>
			<path class="y-gridline" d="M 0 420 L 660 420"/>
			<text class="y-axis-label" x="-5" y="420">
				 0
			</text>
			<path class="y-gridline" d="M 0 315 L 660 315"/>
			<text class="y-axis-label" x="-5" y="315">
				300
			</text>
			<path class="y-gridline" d="M 0 210 L 660 210"/>
			<text class="y-axis-label" x="-5" y="210">
				600
			</text>
			<path class="y-gridline" d="M 0 105 L 660 105"/>
			<text class="y-axis-label" x="-5" y="105">
				900
			</text>
			<path class="y-gridline" d="M 0 0 L 660 0"/>
			<text class="y-axis-label" x="-5" y="0">
				1200
			</text>
		</g>
		<g>
			<path class="series-1-line" d="M 40 426.619872 L 44 414.451743778 L 49 434.564955556 L 53 407.948407333 L 58 413.289939111 L 63 425.092190889 L 67 433.395842667 L 72 413.402274444 L 77 421.481086222 L 81 418.063798 L 86 429.381649778 L 91 425.694721556 L 95 432.022973333 L 100 443.799465111 L 104 403.146656889 L 109 411.548588667 L 114 457.481020444 L 118 430.963172222 L 123 436.923924 L 128 394.880635778 L 132 422.146167556 L 137 433.823119333 L 142 416.773891111 L 146 402.200982889 L 151 418.096134667 L 155 417.326246444 L 160 410.148558222 L 165 404.02045 L 169 405.727721778 L 174 425.220873556 L 179 424.441885333 L 183 436.720557111 L 188 403.140548889 L 193 390.398140667 L 197 409.326952444 L 202 390.069504222 L 207 375.460616 L 211 385.208507778 L 216 390.989359556 L 220 375.250251333 L 225 344.433703111 L 230 312.845754889 L 234 301.682966667 L 239 279.535918444 L 244 288.664590222 L 248 295.530862 L 253 247.474853778 L 258 217.161185556 L 262 236.753877333 L 267 263.274749111 L 271 277.536240889 L 276 225.746852667 L 281 199.184344444 L 285 227.005676222 L 290 202.920188 L 295 197.608979778 L 299 188.008171556 L 304 185.765763333 L 309 154.688955111 L 313 138.456066889 L 318 169.993838667 L 323 135.255750444 L 327 112.955822222 L 332 128.106454 L 336 164.444685778 L 341 132.802557556 L 346 157.160429333 L 350 145.639241111 L 355 126.202592889 L 360 127.388644667 L 364 153.253616444 L 369 127.041668222 L 374 85.74318 L 378 108.907551778 L 383 219.445923556 L 388 145.695575333 L 392 132.819607111 L 397 212.279798889 L 401 193.947190667 L 406 156.831062444 L 411 219.599054222 L 415 224.159666 L 420 218.399897778 L 425 234.922949556 L 429 234.736161333 L 434 205.050533111 L 439 221.430224889 L 443 246.515816667 L 448 291.693928444 L 452 312.436020222 L 457 328.950392 L 462 340.860583778 L 466 300.953415556 L 471 335.237007333 L 476 334.583319111 L 480 347.705210889 L 485 351.835042667 L 490 324.949694444 L 494 329.753346222 L 499 345.577378 L 503 347.489749778 L 508 366.714801556 L 513 392.876853333 L 517 397.886165111 L 522 387.720036889 L 527 403.731808667 L 531 395.675480444 L 536 379.540732222 L 541 406.554964 L 545 397.304435778 L 550 432.575167556 L 555 418.208759333 L 559 427.535111111 L 564 396.225062889 L 568 390.573374667 L 573 402.528786444 L 578 437.350398222 L 582 416.90883 L 587 413.230861778 L 592 419.227593556 L 596 407.078505333 L 601 417.139857111 L 606 411.622568889 L 610 441.508620667 L 615 437.776752444 L 620 396.639824222"/>
			<path class="series-2-line" d="M 40 457.52 L 44 408.073888889 L 49 414.277777778 L 53 393.881666667 L 58 411.285555556 L 63 348.889444444 L 67 422.993333333 L 72 393.147222222 L 77 420.351111111 L 81 452.805 L 86 411.408888889 L 91 403.962777778 L 95 376.566666667 L 100 427.570555556 L 104 371.824444444 L 109 403.228333333 L 114 408.382222222 L 118 386.236111111 L 123 402.59 L 128 400.043888889 L 132 382.447777778 L 137 353.301666667 L 142 396.605555556 L 146 381.109444444 L 151 376.463333333 L 155 405.417222222 L 160 423.871111111 L 165 401.375 L 169 453.428888889 L 174 378.782777778 L 179 395.486666667 L 183 409.040555556 L 188 451.294444444 L 193 409.548333333 L 197 436.752222222 L 202 428.606111111 L 207 405.06 L 211 417.563888889 L 216 393.667777778 L 220 423.671666667 L 225 403.275555556 L 230 421.379444444 L 234 392.583333333 L 239 398.437222222 L 244 411.991111111 L 248 341.545 L 253 348.798888889 L 258 359.202777778 L 262 364.706666667 L 267 367.760555556 L 271 331.264444444 L 276 333.968333333 L 281 332.472222222 L 285 255.376111111 L 290 263.33 L 295 263.583888889 L 299 277.837777778 L 304 236.091666667 L 309 215.345555556 L 313 226.799444444 L 318 252.603333333 L 323 257.057222222 L 327 232.111111111 L 332 261.765 L 336 207.418888889 L 341 192.972777778 L 346 178.526666667 L 350 205.730555556 L 355 225.584444444 L 360 208.688333333 L 364 136.492222222 L 369 189.596111111 L 374 180.05 L 378 174.353888889 L 383 133.657777778 L 388 67.7616666667 L 392 128.915555556 L 397 90.6694444444 L 401 129.423333333 L 406 149.977222222 L 411 122.231111111 L 415 124.935 L 420 140.588888889 L 425 106.192777778 L 429 112.396666667 L 434 106.700555556 L 439 94.7044444444 L 443 157.958333333 L 448 116.912222222 L 452 188.916111111 L 457 183.22 L 462 144.973888889 L 466 164.127777778 L 471 157.381666667 L 476 140.835555556 L 480 118.339444444 L 485 119.993333333 L 490 141.597222222 L 494 215.701111111 L 499 276.855 L 503 201.158888889 L 508 236.762777778 L 513 254.866666667 L 517 255.820555556 L 522 276.374444444 L 527 267.178333333 L 531 368.232222222 L 536 323.336111111 L 541 303.99 L 545 345.543888889 L 550 334.947777778 L 555 328.201666667 L 559 365.555555556 L 564 353.909444444 L 568 407.363333333 L 573 403.067222222 L 578 353.271111111 L 582 393.425 L 587 384.578888889 L 592 408.982777778 L 596 465.936666667 L 601 415.790555556 L 606 448.244444444 L 610 431.348333333 L 615 417.252222222 L 620 409.806111111"/>
		</g>
		<text class="x-axis-label" x="40.0" y="540">
			0
		</text>
		<path class="x-notch" d="M 63.2 525 L 63.2 530"/>
		<text class="x-axis-label" x="86.4" y="540">
			10
		</text>
		<path class="x-notch" d="M 109.6 525 L 109.6 530"/>
		<text class="x-axis-label" x="132.8" y="540">
			20
		</text>
		<path class="x-notch" d="M 156.0 525 L 156.0 530"/>
		<text class="x-axis-label" x="179.2" y="540">
			30
		</text>
		<path class="x-notch" d="M 202.4 525 L 202.4 530"/>
		<text class="x-axis-label" x="225.6" y="540">
			40
		</text>
		<path class="x-notch" d="M 248.8 525 L 248.8 530"/>
		<text class="x-axis-label" x="272.0" y="540">
			50
		</text>
		<path class="x-notch" d="M 295.2 525 L 295.2 530"/>
		<text class="x-axis-label" x="318.4" y="540">
			60
		</text>
		<path class="x-notch" d="M 341.6 525 L 341.6 530"/>
		<text class="x-axis-label" x="364.8" y="540">
			70
		</text>
		<path class="x-notch" d="M 388.0 525 L 388.0 530"/>
		<text class="x-axis-label" x="411.2" y="540">
			80
		</text>
		<path class="x-notch" d="M 434.4 525 L 434.4 530"/>
		<text class="x-axis-label" x="457.6" y="540">
			90
		</text>
		<path class="x-notch" d="M 480.8 525 L 480.8 530"/>
		<text class="x-axis-label" x="504.0" y="540">
			100
		</text>
		<path class="x-notch" d="M 527.2 525 L 527.2 530"/>
		<text class="x-axis-label" x="550.4" y="540">
			110
		</text>
		<path class="x-notch" d="M 573.6 525 L 573.6 530"/>
		<text class="x-axis-label" x="596.8" y="540">
			120
		</text>
		<path class="x-notch" d="M 620.0 525 L 620.0 530"/>
	</g>
</svg>
