<?xml version="1.0" ?>
<svg height="600" version="1.1" width="800" xmlns="http://www.w3.org/2000/svg" xmlns:svg="http://www.w3.org/2000/svg">
	<style type="text/css">
		

.x-axis-path, .y-gridline, .x-notch { fill:none; stroke: #a7a9ac; stroke-width:1; }



.y-gridline { stroke-width: 1; }

.y-axis-path, .y-axis-path2, .x-notch-left, .x-notch-right { display: none;}



.x-axis-label, .data-point-label {font-size: 12px; font-weight:normal; font-family: sans-serif; fill: #58595b; text-anchor:middle;}

.y-axis-label {font-size: 12px; font-family: helvetica; fill: #a7a9ac; text-anchor:end;}



.series-1-line { fill: none; stroke: #10b80c; stroke-width:2; }



.series-2-line { fill: none; stroke: #e90f0a; stroke-width: 2;}

	</style>
	<rect fill="white" height="600" width="800" x="0" y="0"/>
	<g id="grid" transform="translate(70, 30)">
		<g class="x-axis" id="x_axis">
			<path class="x-axis-path" d="M 0 525 L 660 525"/>
			<path class="x-notch-left" d="M 0 525, L 0 535"/>
			<path class="x-notch-right" d="M 660 525, L 660 535"/>
		</g>
		<g class="y-axis" id="y_axis">
			<path class="y-axis-path" d="M 0 525 L 0 0"/>
			<path class="y-axis-path-2" d="M 660 525 L 660 0"/>
			<path class="y-gridline" d="M 0 525 L 660 525"/>
			<text class="y-axis-label" x="-5" y="525">
				-300
			</text>
			<path class="y-gridline" d="M 0 420 L 660 420"/>
			<text class="y-axis-label" x="-5" y="420">
				 0
			</text>
			<path class="y-gridline" d="M 0 315 L 660 315"/>
			<text class="y-axis-label" x="-5" y="315">
				300
			</text>
			<path class="y-gridline" d="M 0 210 L 660 210"/>
			<text class="y-axis-label" x="-5" y="210">
				600
			</text>
			<path class="y-gridline" d="M 0 105 L 660 105"/>
			<text class="y-axis-label" x="-5" y="105">
				900
			</text>
			<path class="y-gridline" d="M 0 0 L 660 0"/>
			<text class="y-axis-label" x="-5" y="0">
				1200
			</text>
		</g>
		<g>
			<path class="series-1-line" d="M 40 421.895376 L 42 413.058342288 L 45 432.275208577 L 47 411.493374865 L 50 422.022961153 L 53 411.759047441 L 55 409.94889373 L 58 402.870820018 L 60 412.368326306 L 63 386.058452595 L 66 413.064778883 L 68 379.171525171 L 71 412.029291459 L 74 396.596157748 L 76 388.405364036 L 79 395.982350324 L 81 405.874796613 L 84 396.840222901 L 87 392.329049189 L 89 398.542015477 L 92 403.435761766 L 95 411.039908054 L 97 429.888714342 L 100 393.231020631 L 102 399.004106919 L 105 386.308393207 L 108 398.175119495 L 110 411.199785784 L 113 384.234432072 L 116 380.35143836 L 118 387.748944649 L 121 377.206850937 L 123 413.483977225 L 126 403.857203514 L 129 389.806009802 L 131 410.53067609 L 134 407.535842378 L 137 392.883488667 L 139 405.710474955 L 142 404.779941243 L 144 392.873827532 L 147 396.52899382 L 150 410.630400108 L 152 399.307526396 L 155 390.632052685 L 158 380.520738973 L 160 383.206825261 L 163 382.55433155 L 165 384.567157838 L 168 366.136624126 L 171 340.661290414 L 173 351.415296703 L 176 356.865262991 L 179 348.737329279 L 181 344.710555568 L 184 352.745341856 L 186 335.894148144 L 189 289.077914432 L 192 316.353600721 L 194 325.842147009 L 197 301.865373297 L 200 283.336139586 L 202 301.727285874 L 205 259.326232162 L 207 267.71983845 L 210 235.450864739 L 213 262.286811027 L 215 241.989517315 L 218 190.407683604 L 221 264.942469892 L 223 259.72205618 L 226 214.646722468 L 228 214.954348757 L 231 209.204455045 L 234 198.007301333 L 236 202.829367622 L 239 178.66401391 L 242 184.616720198 L 244 189.133586486 L 247 195.768512775 L 249 201.658219063 L 252 157.515985351 L 255 176.99297164 L 257 152.792057928 L 260 117.327864216 L 263 140.547190505 L 265 166.674316793 L 268 128.051443081 L 270 89.5901293694 L 273 143.887635658 L 276 115.298001946 L 278 92.1021482342 L 281 109.766414523 L 284 114.731840811 L 286 86.7794870991 L 289 84.2064733874 L 291 107.802959676 L 294 49.319825964 L 297 103.626292252 L 299 121.900958541 L 302 122.801064829 L 305 112.914311117 L 307 147.189857405 L 310 163.562063694 L 312 127.316809982 L 315 112.49393627 L 318 128.390562559 L 320 135.877948847 L 323 129.113615135 L 326 129.206201423 L 328 150.083467712 L 331 130.746434 L 333 140.450440288 L 336 179.491586577 L 339 141.838072865 L 341 165.703499153 L 344 172.939445441 L 347 149.45631173 L 349 181.003958018 L 352 204.259404306 L 354 186.905610595 L 357 174.487936883 L 360 187.458563171 L 362 199.154909459 L 365 194.230875748 L 368 217.575782036 L 370 234.055508324 L 373 234.704594613 L 375 244.273920901 L 378 238.622867189 L 381 247.545953477 L 383 248.509199766 L 386 235.920726054 L 389 227.505372342 L 391 224.780038631 L 394 262.520024919 L 396 260.117391207 L 399 268.924137495 L 402 303.038403784 L 404 290.979550072 L 407 297.24627636 L 410 300.946522649 L 412 282.013388937 L 415 301.059875225 L 417 319.459841514 L 420 297.672947802 L 423 309.82681409 L 425 325.265500378 L 428 331.568206667 L 431 305.796632955 L 433 335.181419243 L 436 315.970245532 L 438 332.68321182 L 441 354.691258108 L 444 339.015644396 L 446 323.771090685 L 449 323.145476973 L 452 368.791823261 L 454 384.21230955 L 457 361.348675838 L 459 347.485922126 L 462 377.830688414 L 465 383.056934703 L 467 395.309640991 L 470 363.282587279 L 473 384.994533568 L 475 372.729319856 L 478 380.485786144 L 480 328.464212432 L 483 373.240178721 L 486 385.394185009 L 488 361.273771297 L 491 385.552197586 L 494 373.430623874 L 496 376.125670162 L 499 396.21305645 L 501 410.036422739 L 504 455.934209027 L 507 442.816395315 L 509 447.566501604 L 512 442.848687892 L 515 444.13491418 L 517 445.860460468 L 520 459.235126757 L 522 452.605893045 L 525 456.700939333 L 528 459.207545622 L 530 453.52051191 L 533 453.774518198 L 536 438.601504486 L 538 452.640330775 L 541 464.812257063 L 543 456.621323351 L 546 460.27662964 L 549 444.376875928 L 551 451.801262216 L 554 443.475928505 L 557 448.782534793 L 559 444.136401081 L 562 434.096907369 L 564 450.621433658 L 567 444.728039946 L 570 431.771786234 L 572 432.025792523 L 575 441.756678811 L 578 427.831205099 L 580 420.690411387 L 583 431.964797676 L 585 429.526603964 L 588 440.505030252 L 591 436.873056541 L 593 435.233562829 L 596 417.126009117 L 599 428.903135405 L 601 443.713501694 L 604 437.649587982 L 606 423.75099427 L 609 424.624220559 L 612 420.642386847 L 614 412.577313135 L 617 421.276119423 L 620 419.762065712"/>
			<path class="series-2-line" d="M 40 419.16 L 42 416.931666667 L 45 419.953333333 L 47 424.725 L 50 417.946666667 L 53 419.918333333 L 55 413.49 L 58 409.861666667 L 60 400.283333333 L 63 421.155 L 66 396.526666667 L 68 412.848333333 L 71 403.62 L 74 406.641666667 L 76 412.813333333 L 79 402.535 L 81 399.606666667 L 84 387.228333333 L 87 406.35 L 89 404.121666667 L 92 402.943333333 L 95 415.765 L 97 407.936666667 L 100 391.358333333 L 102 375.83 L 105 402.301666667 L 108 391.673333333 L 110 405.195 L 113 391.766666667 L 116 408.438333333 L 118 398.86 L 121 403.281666667 L 123 406.653333333 L 126 404.775 L 129 396.946666667 L 131 410.468333333 L 134 397.74 L 137 401.811666667 L 139 391.533333333 L 142 398.055 L 144 410.526666667 L 147 397.798333333 L 150 393.47 L 152 396.841666667 L 155 396.713333333 L 158 402.185 L 160 404.156666667 L 163 394.578333333 L 165 378.7 L 168 385.221666667 L 171 398.743333333 L 173 397.915 L 176 378.186666667 L 179 388.208333333 L 181 386.33 L 184 386.551666667 L 186 378.723333333 L 189 404.495 L 192 392.466666667 L 194 384.288333333 L 197 382.41 L 200 390.681666667 L 202 386.003333333 L 205 391.825 L 207 376.996666667 L 210 385.618333333 L 213 373.94 L 215 371.361666667 L 218 376.133333333 L 221 376.355 L 223 369.576666667 L 226 383.098333333 L 228 360.22 L 231 354.141666667 L 234 365.213333333 L 236 375.235 L 239 361.806666667 L 242 359.228333333 L 244 362.25 L 247 376.121666667 L 249 356.043333333 L 252 346.815 L 255 336.536666667 L 257 356.008333333 L 260 330.68 L 263 323.551666667 L 265 326.923333333 L 268 330.295 L 270 335.766666667 L 273 326.188333333 L 276 320.46 L 278 333.281666667 L 281 332.803333333 L 284 320.425 L 286 324.496666667 L 289 314.218333333 L 291 330.19 L 294 333.211666667 L 297 322.233333333 L 299 335.755 L 302 329.676666667 L 305 354.748333333 L 307 329.07 L 310 352.741666667 L 312 299.063333333 L 315 302.435 L 318 332.056666667 L 320 335.778333333 L 323 296.8 L 326 307.521666667 L 328 324.543333333 L 331 322.315 L 333 321.486666667 L 336 316.808333333 L 339 332.78 L 341 320.401666667 L 344 308.723333333 L 347 311.745 L 349 315.816666667 L 352 330.388333333 L 354 319.06 L 357 329.431666667 L 360 324.053333333 L 362 326.375 L 365 341.646666667 L 368 328.568333333 L 370 335.44 L 373 354.911666667 L 375 347.783333333 L 378 353.605 L 381 338.076666667 L 383 363.148333333 L 386 345.52 L 389 332.091666667 L 391 345.613333333 L 394 352.835 L 396 329.606666667 L 399 345.928333333 L 402 345.45 L 404 340.771666667 L 407 330.143333333 L 410 337.715 L 412 340.736666667 L 415 356.708333333 L 417 336.98 L 420 348.401666667 L 423 333.923333333 L 425 339.395 L 428 336.816666667 L 431 341.938333333 L 433 342.16 L 436 361.281666667 L 438 359.053333333 L 441 377.125 L 444 363.346666667 L 446 377.918333333 L 449 364.14 L 452 366.461666667 L 454 347.433333333 L 457 376.705 L 459 366.776666667 L 462 340.048333333 L 465 382.62 L 467 380.041666667 L 470 350.863333333 L 473 374.185 L 475 374.406666667 L 478 363.428333333 L 480 368.55 L 483 383.821666667 L 486 382.993333333 L 488 376.215 L 491 381.336666667 L 494 386.458333333 L 496 387.03 L 499 390.751666667 L 501 402.523333333 L 504 420.245 L 507 416.966666667 L 509 410.888333333 L 512 407.61 L 515 423.231666667 L 517 397.553333333 L 520 411.075 L 522 419.346666667 L 525 419.918333333 L 528 422.59 L 530 420.361666667 L 533 419.533333333 L 536 409.255 L 538 428.376666667 L 541 424.748333333 L 543 417.27 L 546 418.191666667 L 549 425.763333333 L 551 411.985 L 554 425.506666667 L 557 428.178333333 L 559 413.7 L 562 421.621666667 L 564 421.493333333 L 567 424.165 L 570 422.986666667 L 572 422.158333333 L 575 417.13 L 578 417.001666667 L 580 423.173333333 L 583 409.395 L 585 419.066666667 L 588 424.188333333 L 591 415.31 L 593 423.231666667 L 596 420.303333333 L 599 423.675 L 601 417.946666667 L 604 419.918333333 L 606 415.59 L 609 413.711666667 L 612 418.483333333 L 614 432.355 L 617 424.526666667 L 620 412.848333333"/>
		</g>
		<text class="x-axis-label" x="40.0" y="540">
			0
		</text>
		<path class="x-notch" d="M 53.1221719457 525 L 53.1221719457 530"/>
		<text class="x-axis-label" x="66.2443438914" y="540">
			10
		</text>
		<path class="x-notch" d="M 79.3665158371 525 L 79.3665158371 530"/>
		<text class="x-axis-label" x="92.4886877828" y="540">
			20
		</text>
		<path class="x-notch" d="M 105.610859729 525 L 105.610859729 530"/>
		<text class="x-axis-label" x="118.733031674" y="540">
			30
		</text>
		<path class="x-notch" d="M 131.85520362 525 L 131.85520362 530"/>
		<text class="x-axis-label" x="144.977375566" y="540">
			40
		</text>
		<path class="x-notch" d="M 158.099547511 525 L 158.099547511 530"/>
		<text class="x-axis-label" x="171.221719457" y="540">
			50
		</text>
		<path class="x-notch" d="M 184.343891403 525 L 184.343891403 530"/>
		<text class="x-axis-label" x="197.466063348" y="540">
			60
		</text>
		<path class="x-notch" d="M 210.588235294 525 L 210.588235294 530"/>
		<text class="x-axis-label" x="223.71040724" y="540">
			70
		</text>
		<path class="x-notch" d="M 236.832579186 525 L 236.832579186 530"/>
		<text class="x-axis-label" x="249.954751131" y="540">
			80
		</text>
		<path class="x-notch" d="M 263.076923077 525 L 263.076923077 530"/>
		<text class="x-axis-label" x="276.199095023" y="540">
			90
		</text>
		<path class="x-notch" d="M 289.321266968 525 L 289.321266968 530"/>
		<text class="x-axis-label" x="302.443438914" y="540">
			100
		</text>
		<path class="x-notch" d="M 315.56561086 525 L 315.56561086 530"/>
		<text class="x-axis-label" x="328.687782805" y="540">
			110
		</text>
		<path class="x-notch" d="M 341.809954751 525 L 341.809954751 530"/>
		<text class="x-axis-label" x="354.932126697" y="540">
			120
		</text>
		<path class="x-notch" d="M 368.054298643 525 L 368.054298643 530"/>
		<text class="x-axis-label" x="381.176470588" y="540">
			130
		</text>
		<path class="x-notch" d="M 394.298642534 525 L 394.298642534 530"/>
		<text class="x-axis-label" x="407.42081448" y="540">
			140
		</text>
		<path class="x-notch" d="M 420.542986425 525 L 420.542986425 530"/>
		<text class="x-axis-label" x="433.665158371" y="540">
			150
		</text>
		<path class="x-notch" d="M 446.787330317 525 L 446.787330317 530"/>
		<text class="x-axis-label" x="459.909502262" y="540">
			160
		</text>
		<path class="x-notch" d="M 473.031674208 525 L 473.031674208 530"/>
		<text class="x-axis-label" x="486.153846154" y="540">
			170
		</text>
		<path class="x-notch" d="M 499.2760181 525 L 499.2760181 530"/>
		<text class="x-axis-label" x="512.398190045" y="540">
			180
		</text>
		<path class="x-notch" d="M 525.520361991 525 L 525.520361991 530"/>
		<text class="x-axis-label" x="538.642533937" y="540">
			190
		</text>
		<path class="x-notch" d="M 551.764705882 525 L 551.764705882 530"/>
		<text class="x-axis-label" x="564.886877828" y="540">
			200
		</text>
		<path class="x-notch" d="M 578.009049774 525 L 578.009049774 530"/>
		<text class="x-axis-label" x="591.131221719" y="540">
			210
		</text>
		<path class="x-notch" d="M 604.253393665 525 L 604.253393665 530"/>
		<text class="x-axis-label" x="617.375565611" y="540">
			220
		</text>
		<path class="x-notch" d="M 630.497737557 525 L 630.497737557 530"/>
	</g>
</svg>
