<?xml version="1.0" ?>
<svg height="600" version="1.1" width="800" xmlns="http://www.w3.org/2000/svg" xmlns:svg="http://www.w3.org/2000/svg">
	<style type="text/css">
		

.x-axis-path, .y-gridline, .x-notch { fill:none; stroke: #a7a9ac; stroke-width:1; }



.y-gridline { stroke-width: 1; }

.y-axis-path, .y-axis-path2, .x-notch-left, .x-notch-right { display: none;}



.x-axis-label, .data-point-label {font-size: 12px; font-weight:normal; font-family: sans-serif; fill: #58595b; text-anchor:middle;}

.y-axis-label {font-size: 12px; font-family: helvetica; fill: #a7a9ac; text-anchor:end;}



.series-1-line { fill: none; stroke: #10b80c; stroke-width:2; }



.series-2-line { fill: none; stroke: #e90f0a; stroke-width: 2;}

	</style>
	<rect fill="white" height="600" width="800" x="0" y="0"/>
	<g id="grid" transform="translate(70, 30)">
		<g class="x-axis" id="x_axis">
			<path class="x-axis-path" d="M 0 525 L 660 525"/>
			<path class="x-notch-left" d="M 0 525, L 0 535"/>
			<path class="x-notch-right" d="M 660 525, L 660 535"/>
		</g>
		<g class="y-axis" id="y_axis">
			<path class="y-axis-path" d="M 0 525 L 0 0"/>
			<path class="y-axis-path-2" d="M 660 525 L 660 0"/>
			<path class="y-gridline" d="M 0 525 L 660 525"/>
			<text class="y-axis-label" x="-5" y="525">
				-400
			</text>
			<path class="y-gridline" d="M 0 438 L 660 438"/>
			<text class="y-axis-label" x="-5" y="438">
				-200
			</text>
			<path class="y-gridline" d="M 0 351 L 660 351"/>
			<text class="y-axis-label" x="-5" y="351">
				 0
			</text>
			<path class="y-gridline" d="M 0 264 L 660 264"/>
			<text class="y-axis-label" x="-5" y="264">
				200
			</text>
			<path class="y-gridline" d="M 0 177 L 660 177"/>
			<text class="y-axis-label" x="-5" y="177">
				400
			</text>
			<path class="y-gridline" d="M 0 90 L 660 90"/>
			<text class="y-axis-label" x="-5" y="90">
				600
			</text>
			<path class="y-gridline" d="M 0 3 L 660 3"/>
			<text class="y-axis-label" x="-5" y="3">
				800
			</text>
		</g>
		<g>
			<path class="series-1-line" d="M 40 341.96031168 L 46 360.033860707 L 53 353.051622096 L 60 353.004646875 L 66 350.61856426 L 73 381.607087054 L 80 364.202734328 L 86 371.076770179 L 93 358.668933965 L 100 343.492045488 L 106 367.974817874 L 113 332.214345795 L 120 344.542483883 L 126 311.038628519 L 133 329.125782029 L 140 293.988092975 L 146 326.498806317 L 153 261.765535061 L 160 288.809621404 L 166 262.101745431 L 173 245.069680476 L 180 240.039793227 L 186 240.546930779 L 193 169.626426785 L 200 198.648777791 L 206 183.16762396 L 213 152.057941756 L 220 110.262261644 L 226 157.252464361 L 233 152.817503336 L 240 134.595154043 L 246 187.523605854 L 253 123.109068213 L 260 166.293038755 L 266 86.9980033913 L 273 212.198870394 L 280 212.38770622 L 286 98.7616486602 L 293 90.9780411857 L 300 161.734844765 L 306 194.413562681 L 313 143.563127022 L 320 174.384940906 L 326 250.100470766 L 333 87.5 L 340 253.05154925 L 346 186.1463114 L 353 198.156795593 L 360 222.500283981 L 366 197.771968335 L 373 224.1915441 L 380 231.481704393 L 386 260.933352434 L 393 221.89204038 L 400 191.184446245 L 406 253.041326256 L 413 231.719098214 L 420 239.563155336 L 426 280.43457962 L 433 262.973865462 L 440 240.94549994 L 446 292.157843327 L 453 252.742515947 L 460 303.48388507 L 466 349.31230808 L 473 311.33668057 L 480 305.932130162 L 486 306.079288761 L 493 349.982353434 L 500 282.39861896 L 506 383.776091778 L 513 315.224927363 L 520 389.401207084 L 526 336.863383577 L 533 382.317359374 L 540 382.630147161 L 546 393.076331692 L 553 395.009348686 L 560 360.42490863 L 566 365.029587059 L 573 374.658206912 L 580 392.981387415 L 586 372.018274549 L 593 334.126433381 L 600 323.849318423 L 606 338.905263433 L 613 386.629892316 L 620 353.485584018"/>
			<path class="series-2-line" d="M 40 357.773990597 L 46 387.460181014 L 53 346.424651421 L 60 318.345772821 L 66 318.339638043 L 73 333.449596092 L 80 423.600157818 L 86 368.528256313 L 93 394.975283982 L 100 369.055847215 L 106 409.539246795 L 113 415.471577056 L 120 372.816466088 L 126 405.741819255 L 133 412.214009974 L 140 405.189689241 L 146 372.252066519 L 153 350.111652958 L 160 433.244028728 L 166 395.447661883 L 173 343.075062669 L 180 355.485718428 L 186 367.356513728 L 193 384.086053151 L 200 347.90926768 L 206 348.442993361 L 213 323.60327751 L 220 344.651700598 L 226 326.830170703 L 233 309.548501265 L 240 274.451436711 L 246 235.57534895 L 253 247.986004708 L 260 276.592474209 L 266 315.456292415 L 273 308.431971682 L 280 327.860813395 L 286 226.900772952 L 293 332.167427504 L 300 206.913666447 L 306 358.608320396 L 313 212.83986193 L 320 169.644890504 L 326 345.093404609 L 333 304.597735474 L 340 256.004159466 L 346 362.350534935 L 353 390.417143978 L 360 347.222172552 L 366 316.443991662 L 373 244.096555498 L 380 271.623304084 L 386 252.722053272 L 393 244.078151165 L 400 282.94196937 L 406 240.82671886 L 413 289.408025311 L 420 335.82988993 L 426 282.917430258 L 433 276.432969983 L 440 308.818462691 L 446 306.113025623 L 453 271.555821526 L 460 236.99861743 L 466 316.351969993 L 473 288.812951852 L 480 212.146632023 L 486 216.999241368 L 493 175.423851317 L 500 261.255529377 L 506 222.919302074 L 513 459.911908403 L 520 369.749077122 L 526 361.105175014 L 533 372.436109857 L 540 330.320859347 L 546 349.74970106 L 553 370.798124148 L 560 319.505245851 L 566 344.872552604 L 573 281.16288377 L 580 356.197352668 L 586 327.578613611 L 593 371.301175939 L 600 296.794297943 L 606 334.038534774 L 613 391.257608555 L 620 389.092031945"/>
		</g>
		<text class="x-axis-label" x="40.0" y="540">
			0
		</text>
		<path class="x-notch" d="M 73.3333333333 525 L 73.3333333333 530"/>
		<text class="x-axis-label" x="106.666666667" y="540">
			10
		</text>
		<path class="x-notch" d="M 140.0 525 L 140.0 530"/>
		<text class="x-axis-label" x="173.333333333" y="540">
			20
		</text>
		<path class="x-notch" d="M 206.666666667 525 L 206.666666667 530"/>
		<text class="x-axis-label" x="240.0" y="540">
			30
		</text>
		<path class="x-notch" d="M 273.333333333 525 L 273.333333333 530"/>
		<text class="x-axis-label" x="306.666666667" y="540">
			40
		</text>
		<path class="x-notch" d="M 340.0 525 L 340.0 530"/>
		<text class="x-axis-label" x="373.333333333" y="540">
			50
		</text>
		<path class="x-notch" d="M 406.666666667 525 L 406.666666667 530"/>
		<text class="x-axis-label" x="440.0" y="540">
			60
		</text>
		<path class="x-notch" d="M 473.333333333 525 L 473.333333333 530"/>
		<text class="x-axis-label" x="506.666666667" y="540">
			70
		</text>
		<path class="x-notch" d="M 540.0 525 L 540.0 530"/>
		<text class="x-axis-label" x="573.333333333" y="540">
			80
		</text>
		<path class="x-notch" d="M 606.666666667 525 L 606.666666667 530"/>
	</g>
</svg>
