<?xml version="1.0" ?>
<svg height="600" version="1.1" width="800" xmlns="http://www.w3.org/2000/svg" xmlns:svg="http://www.w3.org/2000/svg">
	<style type="text/css">
		

.x-axis-path, .y-gridline, .x-notch { fill:none; stroke: #a7a9ac; stroke-width:1; }



.y-gridline { stroke-width: 1; }

.y-axis-path, .y-axis-path2, .x-notch-left, .x-notch-right { display: none;}



.x-axis-label, .data-point-label {font-size: 12px; font-weight:normal; font-family: sans-serif; fill: #58595b; text-anchor:middle;}

.y-axis-label {font-size: 12px; font-family: helvetica; fill: #a7a9ac; text-anchor:end;}



.series-1-line { fill: none; stroke: #10b80c; stroke-width:2; }



.series-2-line { fill: none; stroke: #e90f0a; stroke-width: 2;}

	</style>
	<rect fill="white" height="600" width="800" x="0" y="0"/>
	<g id="grid" transform="translate(70, 30)">
		<g class="x-axis" id="x_axis">
			<path class="x-axis-path" d="M 0 525 L 660 525"/>
			<path class="x-notch-left" d="M 0 525, L 0 535"/>
			<path class="x-notch-right" d="M 660 525, L 660 535"/>
		</g>
		<g class="y-axis" id="y_axis">
			<path class="y-axis-path" d="M 0 525 L 0 0"/>
			<path class="y-axis-path-2" d="M 660 525 L 660 0"/>
			<path class="y-gridline" d="M 0 525 L 660 525"/>
			<text class="y-axis-label" x="-5" y="525">
				-200
			</text>
			<path class="y-gridline" d="M 0 394 L 660 394"/>
			<text class="y-axis-label" x="-5" y="394">
				 0
			</text>
			<path class="y-gridline" d="M 0 263 L 660 263"/>
			<text class="y-axis-label" x="-5" y="263">
				200
			</text>
			<path class="y-gridline" d="M 0 132 L 660 132"/>
			<text class="y-axis-label" x="-5" y="132">
				400
			</text>
			<path class="y-gridline" d="M 0 1 L 660 1"/>
			<text class="y-axis-label" x="-5" y="1">
				600
			</text>
		</g>
		<g>
			<path class="series-1-line" d="M 40 379.074481483 L 43 404.936748375 L 47 377.701046349 L 51 399.525585927 L 55 405.243309994 L 59 389.896821676 L 63 387.987377533 L 67 379.729483813 L 70 382.306753303 L 74 406.172553361 L 78 388.358565018 L 82 372.608233979 L 86 383.889119003 L 90 397.548266708 L 94 396.311777117 L 98 386.349275169 L 101 395.746027426 L 105 408.126106547 L 109 406.710442369 L 113 378.734245369 L 117 394.703765386 L 121 367.288538822 L 125 370.269651033 L 128 362.101344608 L 132 390.431461475 L 136 363.038631735 L 140 347.243157099 L 144 341.206398348 L 148 341.181436921 L 152 359.416535603 L 156 303.175197553 L 159 360.847252745 L 163 284.349037803 L 167 305.545416475 L 171 307.292603698 L 175 255.627566575 L 179 288.264522588 L 183 278.997022065 L 186 259.971855508 L 190 291.779079205 L 194 244.151769395 L 198 253.413790762 L 202 247.062776583 L 206 243.044531538 L 210 172.760385232 L 214 203.939098073 L 217 205.148061634 L 221 166.898021812 L 225 107.919721956 L 229 134.163434746 L 233 140.823225196 L 237 171.486111199 L 241 152.572928759 L 244 148.173587766 L 248 121.812761653 L 252 101.23941468 L 256 133.539368491 L 260 86.7652376725 L 264 85.5287480815 L 268 111.211490436 L 272 93.3971521428 L 275 114.055307153 L 279 80.1792969464 L 283 132.871208491 L 287 107.676766945 L 291 56.5051598362 L 295 113.436720055 L 299 92.0560375899 L 302 79.1770492976 L 306 104.321567991 L 310 140.435630832 L 314 66.1134072616 L 318 108.463935563 L 322 91.4348858888 L 326 124.767543228 L 330 84.3187652607 L 333 76.7114292705 L 337 73.1645673681 L 341 87.5187164992 L 345 68.8298522431 L 349 131.504097956 L 353 65.9085866432 L 357 146.125144265 L 360 96.0530812042 L 364 129.811278187 L 368 160.519657737 L 372 137.81511304 L 376 178.841779109 L 380 85.4294131639 L 384 83.2281104159 L 388 0.0 L 391 120.394009105 L 395 101.637954379 L 399 178.490089189 L 403 137.076848016 L 407 239.659083431 L 411 236.762779257 L 415 166.1419807 L 418 219.327322259 L 422 238.549630921 L 426 218.088268065 L 430 150.473543145 L 434 87.6818341583 L 438 41.6695452846 L 442 123.075234248 L 446 221.641789221 L 449 274.782337134 L 453 332.499535923 L 457 297.659062509 L 461 207.207976555 L 465 182.327440487 L 469 199.508488668 L 473 345.744932445 L 476 309.737724514 L 480 264.465930613 L 484 368.977442391 L 488 381.223140572 L 492 367.604007257 L 496 391.155551887 L 500 395.348192263 L 504 393.954924908 L 507 398.19200898 L 511 394.914258909 L 515 396.414731124 L 519 379.273697334 L 523 392.483858721 L 527 392.16738864 L 531 390.706580865 L 534 365.91598204 L 538 385.497339777 L 542 399.986219798 L 546 381.880372851 L 550 409.043755201 L 554 375.033364054 L 558 401.11994913 L 562 398.268438603 L 565 388.619842133 L 569 390.120314348 L 573 396.623327035 L 577 392.246382866 L 581 383.360328241 L 585 411.645651462 L 589 396.186829077 L 592 389.633893538 L 596 400.646016681 L 600 383.863682014 L 604 383.075828792 L 608 402.634439755 L 612 404.247246037 L 616 378.918073601 L 620 403.277653625"/>
			<path class="series-2-line" d="M 40 390.250496348 L 43 380.58978047 L 47 397.175341986 L 51 403.262392544 L 55 397.101180319 L 59 401.438479051 L 63 390.90288726 L 67 381.242171383 L 70 387.329221941 L 74 382.042885629 L 78 396.003819405 L 82 395.091862659 L 86 374.057759911 L 90 391.51819734 L 94 378.357977809 L 98 395.818415238 L 101 395.781334405 L 105 373.872355744 L 109 388.708165433 L 113 384.296705034 L 117 382.509872375 L 121 392.971302499 L 125 404.307608536 L 128 380.648878048 L 132 395.484687738 L 136 402.446614209 L 140 374.413504156 L 144 393.623693411 L 148 396.211240317 L 152 382.176144874 L 156 385.638567693 L 159 395.225121904 L 163 385.564406026 L 167 387.277077019 L 171 386.365120273 L 175 392.452170831 L 179 383.666330866 L 183 360.882476292 L 186 393.215804244 L 190 411.551117586 L 194 401.890401708 L 198 388.730182178 L 202 388.693101345 L 206 365.90924677 L 210 376.370676894 L 214 356.211450059 L 217 371.047259749 L 221 399.881084048 L 225 386.720864518 L 229 385.808907771 L 233 369.149184589 L 237 361.238220538 L 241 376.074030227 L 244 378.661577133 L 248 395.247138649 L 252 396.084933728 L 256 337.431166717 L 260 399.510275714 L 264 386.350056184 L 268 370.565208915 L 272 350.40598208 L 275 367.866419508 L 279 362.580083196 L 283 364.292754189 L 287 369.504928834 L 291 366.843220262 L 295 355.432752558 L 299 379.892197292 L 302 374.605860979 L 306 374.568780146 L 310 369.282443834 L 314 361.371479783 L 318 372.70778582 L 322 366.546573594 L 326 385.756762849 L 330 382.220178364 L 333 373.434338399 L 337 379.521388957 L 341 356.737534383 L 345 370.69846816 L 349 350.539241325 L 353 380.247941537 L 357 353.089707397 L 360 383.673283523 L 364 336.392903381 L 368 389.723253248 L 372 381.812289196 L 376 360.778186448 L 380 362.490857441 L 384 329.208491909 L 388 311.673892814 L 391 329.134330243 L 395 353.593774976 L 399 373.678840144 L 403 384.140270268 L 407 382.353437609 L 411 389.31536408 L 415 384.029027768 L 418 376.99293963 L 422 379.580486536 L 426 362.920763353 L 430 366.383186172 L 434 368.095857165 L 438 345.312002591 L 442 337.401038539 L 446 313.742308052 L 449 313.705227219 L 453 350.412934736 L 457 359.124613034 L 461 376.585050462 L 465 366.924334585 L 469 380.885268361 L 473 393.096450311 L 476 379.061354868 L 480 377.274522208 L 484 381.611820941 L 488 380.699864194 L 492 388.536666579 L 496 364.003060178 L 500 391.087132651 L 504 402.423438688 L 507 388.388343245 L 511 386.601510585 L 515 390.063933404 L 519 401.400239442 L 523 386.490268085 L 527 400.451201862 L 531 388.165858245 L 534 398.627288369 L 538 413.463098058 L 542 403.80238218 L 546 395.016542216 L 550 387.105578165 L 554 402.816263767 L 558 392.280671976 L 562 392.243591143 L 565 394.831138049 L 569 398.293560868 L 573 406.130363253 L 577 405.218406506 L 581 391.183311063 L 585 413.018128057 L 589 400.73278444 L 592 398.071075868 L 596 419.031016949 L 600 408.495425158 L 604 393.585453802 L 608 377.800606532 L 612 397.885671701 L 616 389.974707649 L 620 410.059772817"/>
		</g>
		<text class="x-axis-label" x="40.0" y="540">
			0
		</text>
		<path class="x-notch" d="M 59.3333333333 525 L 59.3333333333 530"/>
		<text class="x-axis-label" x="78.6666666667" y="540">
			10
		</text>
		<path class="x-notch" d="M 98.0 525 L 98.0 530"/>
		<text class="x-axis-label" x="117.333333333" y="540">
			20
		</text>
		<path class="x-notch" d="M 136.666666667 525 L 136.666666667 530"/>
		<text class="x-axis-label" x="156.0" y="540">
			30
		</text>
		<path class="x-notch" d="M 175.333333333 525 L 175.333333333 530"/>
		<text class="x-axis-label" x="194.666666667" y="540">
			40
		</text>
		<path class="x-notch" d="M 214.0 525 L 214.0 530"/>
		<text class="x-axis-label" x="233.333333333" y="540">
			50
		</text>
		<path class="x-notch" d="M 252.666666667 525 L 252.666666667 530"/>
		<text class="x-axis-label" x="272.0" y="540">
			60
		</text>
		<path class="x-notch" d="M 291.333333333 525 L 291.333333333 530"/>
		<text class="x-axis-label" x="310.666666667" y="540">
			70
		</text>
		<path class="x-notch" d="M 330.0 525 L 330.0 530"/>
		<text class="x-axis-label" x="349.333333333" y="540">
			80
		</text>
		<path class="x-notch" d="M 368.666666667 525 L 368.666666667 530"/>
		<text class="x-axis-label" x="388.0" y="540">
			90
		</text>
		<path class="x-notch" d="M 407.333333333 525 L 407.333333333 530"/>
		<text class="x-axis-label" x="426.666666667" y="540">
			100
		</text>
		<path class="x-notch" d="M 446.0 525 L 446.0 530"/>
		<text class="x-axis-label" x="465.333333333" y="540">
			110
		</text>
		<path class="x-notch" d="M 484.666666667 525 L 484.666666667 530"/>
		<text class="x-axis-label" x="504.0" y="540">
			120
		</text>
		<path class="x-notch" d="M 523.333333333 525 L 523.333333333 530"/>
		<text class="x-axis-label" x="542.666666667" y="540">
			130
		</text>
		<path class="x-notch" d="M 562.0 525 L 562.0 530"/>
		<text class="x-axis-label" x="581.333333333" y="540">
			140
		</text>
		<path class="x-notch" d="M 600.666666667 525 L 600.666666667 530"/>
		<text class="x-axis-label" x="620.0" y="540">
			150
		</text>
	</g>
</svg>
