<?xml version="1.0" ?>
<svg height="600" version="1.1" width="800" xmlns="http://www.w3.org/2000/svg" xmlns:svg="http://www.w3.org/2000/svg">
	<style type="text/css">
		

.x-axis-path, .y-gridline, .x-notch { fill:none; stroke: #a7a9ac; stroke-width:1; }



.y-gridline { stroke-width: 1; }

.y-axis-path, .y-axis-path2, .x-notch-left, .x-notch-right { display: none;}



.x-axis-label, .data-point-label {font-size: 12px; font-weight:normal; font-family: sans-serif; fill: #58595b; text-anchor:middle;}

.y-axis-label {font-size: 12px; font-family: helvetica; fill: #a7a9ac; text-anchor:end;}



.series-1-line { fill: none; stroke: #10b80c; stroke-width:2; }



.series-2-line { fill: none; stroke: #e90f0a; stroke-width: 2;}

	</style>
	<rect fill="white" height="600" width="800" x="0" y="0"/>
	<g id="grid" transform="translate(70, 30)">
		<g class="x-axis" id="x_axis">
			<path class="x-axis-path" d="M 0 525 L 660 525"/>
			<path class="x-notch-left" d="M 0 525, L 0 535"/>
			<path class="x-notch-right" d="M 660 525, L 660 535"/>
		</g>
		<g class="y-axis" id="y_axis">
			<path class="y-axis-path" d="M 0 525 L 0 0"/>
			<path class="y-axis-path-2" d="M 660 525 L 660 0"/>
			<path class="y-gridline" d="M 0 525 L 660 525"/>
			<text class="y-axis-label" x="-5" y="525">
				-200
			</text>
			<path class="y-gridline" d="M 0 420 L 660 420"/>
			<text class="y-axis-label" x="-5" y="420">
				 0
			</text>
			<path class="y-gridline" d="M 0 315 L 660 315"/>
			<text class="y-axis-label" x="-5" y="315">
				200
			</text>
			<path class="y-gridline" d="M 0 210 L 660 210"/>
			<text class="y-axis-label" x="-5" y="210">
				400
			</text>
			<path class="y-gridline" d="M 0 105 L 660 105"/>
			<text class="y-axis-label" x="-5" y="105">
				600
			</text>
			<path class="y-gridline" d="M 0 0 L 660 0"/>
			<text class="y-axis-label" x="-5" y="0">
				800
			</text>
		</g>
		<g>
			<path class="series-1-line" d="M 40 411.46518 L 45 425.873979446 L 51 414.449838891 L 57 432.089278337 L 63 414.688117782 L 69 421.450607228 L 74 427.122566673 L 80 415.590696119 L 86 427.939605564 L 92 424.95599501 L 98 428.191324455 L 103 405.742393901 L 109 410.633573347 L 115 416.682482792 L 121 437.808342238 L 127 426.397851683 L 132 434.788891129 L 138 428.076310574 L 144 404.67146002 L 150 398.672459465 L 156 373.517258911 L 161 388.222158356 L 167 403.734297802 L 173 377.058277248 L 179 373.293886693 L 185 356.350526139 L 190 326.726525584 L 196 345.57745503 L 202 344.316684475 L 208 370.705773921 L 214 310.941313366 L 219 295.922602812 L 225 298.283282257 L 231 287.061161703 L 237 281.748231149 L 243 264.427710594 L 248 295.95949004 L 254 215.666269485 L 260 231.555358931 L 266 226.740968376 L 272 230.676227822 L 277 167.586627267 L 283 151.020216713 L 289 158.294266158 L 295 146.358565604 L 301 203.31798505 L 306 113.319614495 L 312 126.543593941 L 318 79.0156233861 L 324 75.8432228317 L 330 138.161002277 L 335 92.8945217228 L 341 110.803181168 L 347 174.157520614 L 353 152.153160059 L 359 203.971149505 L 364 138.99700895 L 370 149.959498396 L 376 138.561817842 L 382 151.180157287 L 388 190.761026733 L 393 82.9668361782 L 399 114.027165624 L 405 110.356435069 L 411 104.061754515 L 417 117.77020396 L 422 152.653373406 L 428 153.883412851 L 434 191.540262297 L 440 170.194461743 L 446 277.528471188 L 451 402.874600634 L 457 401.250950079 L 463 409.574999525 L 469 392.53734897 L 475 416.423028416 L 480 400.866087861 L 486 403.293967307 L 492 419.425606752 L 498 387.714836198 L 504 418.950515644 L 509 402.949425089 L 515 422.203974535 L 521 418.03596398 L 527 412.319203426 L 533 425.274172871 L 538 411.857762317 L 544 427.787381762 L 550 401.649801208 L 556 403.889100653 L 562 422.443930099 L 567 435.519649545 L 573 423.16667899 L 579 406.788848436 L 585 431.320487881 L 591 427.771347327 L 596 430.387386772 L 602 419.730796218 L 608 421.391335663 L 614 426.834395109 L 620 403.806494554"/>
			<path class="series-2-line" d="M 40 400.05 L 45 422.971188119 L 51 421.742376238 L 57 432.063564356 L 63 421.384752475 L 69 429.080940594 L 74 422.602128713 L 80 417.698316832 L 86 413.84450495 L 92 426.790693069 L 98 411.386881188 L 103 430.633069307 L 109 423.104257426 L 115 419.250445545 L 121 418.021633663 L 127 435.167821782 L 132 413.989009901 L 138 414.86019802 L 144 419.406386139 L 150 431.827574257 L 156 402.248762376 L 161 419.919950495 L 167 393.491138614 L 173 396.462326733 L 179 408.358514851 L 185 408.17970297 L 190 420.600891089 L 196 426.197079208 L 202 416.043267327 L 208 392.239455446 L 214 397.310643564 L 219 363.006831683 L 225 381.728019802 L 231 389.949207921 L 237 356.69539604 L 243 333.416584158 L 248 346.887772277 L 254 360.358960396 L 260 336.555148515 L 266 348.451336634 L 272 326.222524752 L 277 317.643712871 L 283 320.08990099 L 289 329.886089109 L 295 326.557277228 L 301 222.428465347 L 306 296.274653465 L 312 299.245841584 L 318 299.592029703 L 324 280.513217822 L 330 241.484405941 L 335 237.105594059 L 341 246.376782178 L 347 209.447970297 L 353 261.769158416 L 359 243.215346535 L 364 241.986534653 L 370 249.682722772 L 376 203.303910891 L 382 218.87509901 L 388 143.621287129 L 393 250.017475248 L 399 234.613663366 L 405 190.859851485 L 411 249.481039604 L 417 238.277227723 L 422 199.773415842 L 428 231.09460396 L 434 251.390792079 L 440 200.811980198 L 446 244.208168317 L 451 344.304356436 L 457 390.850544554 L 463 400.646732673 L 469 394.692920792 L 475 413.414108911 L 480 401.68529703 L 486 409.906485149 L 492 409.727673267 L 498 399.573861386 L 504 418.295049505 L 509 414.441237624 L 515 397.987425743 L 521 431.933613861 L 527 400.25480198 L 533 424.750990099 L 538 427.197178218 L 544 417.568366337 L 550 418.439554455 L 556 415.110742574 L 562 425.956930693 L 567 411.078118812 L 573 411.424306931 L 579 425.42049505 L 585 425.241683168 L 591 424.012871287 L 596 402.834059406 L 602 425.230247525 L 608 430.301435644 L 614 418.572623762 L 620 425.743811881"/>
		</g>
		<text class="x-axis-label" x="40.0" y="540">
			0
		</text>
		<path class="x-notch" d="M 69.0 525 L 69.0 530"/>
		<text class="x-axis-label" x="98.0" y="540">
			10
		</text>
		<path class="x-notch" d="M 127.0 525 L 127.0 530"/>
		<text class="x-axis-label" x="156.0" y="540">
			20
		</text>
		<path class="x-notch" d="M 185.0 525 L 185.0 530"/>
		<text class="x-axis-label" x="214.0" y="540">
			30
		</text>
		<path class="x-notch" d="M 243.0 525 L 243.0 530"/>
		<text class="x-axis-label" x="272.0" y="540">
			40
		</text>
		<path class="x-notch" d="M 301.0 525 L 301.0 530"/>
		<text class="x-axis-label" x="330.0" y="540">
			50
		</text>
		<path class="x-notch" d="M 359.0 525 L 359.0 530"/>
		<text class="x-axis-label" x="388.0" y="540">
			60
		</text>
		<path class="x-notch" d="M 417.0 525 L 417.0 530"/>
		<text class="x-axis-label" x="446.0" y="540">
			70
		</text>
		<path class="x-notch" d="M 475.0 525 L 475.0 530"/>
		<text class="x-axis-label" x="504.0" y="540">
			80
		</text>
		<path class="x-notch" d="M 533.0 525 L 533.0 530"/>
		<text class="x-axis-label" x="562.0" y="540">
			90
		</text>
		<path class="x-notch" d="M 591.0 525 L 591.0 530"/>
		<text class="x-axis-label" x="620.0" y="540">
			100
		</text>
	</g>
</svg>
