<?xml version="1.0" ?>
<svg height="600" version="1.1" width="800" xmlns="http://www.w3.org/2000/svg" xmlns:svg="http://www.w3.org/2000/svg">
	<style type="text/css">
		

.x-axis-path, .y-gridline, .x-notch { fill:none; stroke: #a7a9ac; stroke-width:1; }



.y-gridline { stroke-width: 1; }

.y-axis-path, .y-axis-path2, .x-notch-left, .x-notch-right { display: none;}



.x-axis-label, .data-point-label {font-size: 12px; font-weight:normal; font-family: sans-serif; fill: #58595b; text-anchor:middle;}

.y-axis-label {font-size: 12px; font-family: helvetica; fill: #a7a9ac; text-anchor:end;}



.series-1-line { fill: none; stroke: #10b80c; stroke-width:2; }



.series-2-line { fill: none; stroke: #e90f0a; stroke-width: 2;}

	</style>
	<rect fill="white" height="600" width="800" x="0" y="0"/>
	<g id="grid" transform="translate(70, 30)">
		<g class="x-axis" id="x_axis">
			<path class="x-axis-path" d="M 0 525 L 660 525"/>
			<path class="x-notch-left" d="M 0 525, L 0 535"/>
			<path class="x-notch-right" d="M 660 525, L 660 535"/>
		</g>
		<g class="y-axis" id="y_axis">
			<path class="y-axis-path" d="M 0 525 L 0 0"/>
			<path class="y-axis-path-2" d="M 660 525 L 660 0"/>
			<path class="y-gridline" d="M 0 525 L 660 525"/>
			<text class="y-axis-label" x="-5" y="525">
				-200
			</text>
			<path class="y-gridline" d="M 0 420 L 660 420"/>
			<text class="y-axis-label" x="-5" y="420">
				 0
			</text>
			<path class="y-gridline" d="M 0 315 L 660 315"/>
			<text class="y-axis-label" x="-5" y="315">
				200
			</text>
			<path class="y-gridline" d="M 0 210 L 660 210"/>
			<text class="y-axis-label" x="-5" y="210">
				400
			</text>
			<path class="y-gridline" d="M 0 105 L 660 105"/>
			<text class="y-axis-label" x="-5" y="105">
				600
			</text>
			<path class="y-gridline" d="M 0 0 L 660 0"/>
			<text class="y-axis-label" x="-5" y="0">
				800
			</text>
		</g>
		<g>
			<path class="series-1-line" d="M 40 434.535696 L 46 433.556178205 L 53 415.844070409 L 60 414.689412614 L 66 399.790464818 L 73 407.116657023 L 80 419.921749227 L 86 417.555601432 L 93 425.514523636 L 100 411.140785841 L 106 415.128608045 L 113 421.59317025 L 120 418.648262455 L 126 407.235944659 L 133 417.617846864 L 140 432.697869068 L 146 423.560691273 L 153 401.190783477 L 160 415.866765682 L 166 409.327707886 L 173 401.738440091 L 180 407.920552295 L 186 398.5679145 L 193 376.494106705 L 200 342.224128909 L 206 294.627341114 L 213 313.382153318 L 220 292.977635523 L 226 289.521167727 L 233 246.353069932 L 240 207.735042136 L 246 204.911094341 L 253 166.024056545 L 260 163.29439875 L 266 153.389670955 L 273 149.138983159 L 280 181.611205364 L 286 140.314417568 L 293 114.148339773 L 300 112.818541977 L 306 127.589234182 L 313 131.415146386 L 320 92.2855585909 L 326 111.026930795 L 333 116.159043 L 340 114.573675205 L 346 93.1865674091 L 353 81.0875496136 L 360 113.007891818 L 366 114.612844023 L 373 116.850526227 L 380 95.6383484318 L 386 126.710710636 L 393 82.5197028409 L 400 174.034475045 L 406 202.68364725 L 413 181.363739455 L 420 163.315001659 L 426 100.183253864 L 433 184.212996068 L 440 193.033758273 L 446 170.757300477 L 453 227.191992682 L 460 158.648964886 L 466 234.749947091 L 473 335.903299295 L 480 311.4871515 L 486 419.910073705 L 493 430.009525909 L 500 422.177918114 L 506 433.098470318 L 513 437.220902523 L 520 436.618124727 L 526 411.757826932 L 533 427.214799136 L 540 426.814041341 L 546 424.865163545 L 553 420.31837575 L 560 419.675277955 L 566 429.182320159 L 573 430.019932364 L 580 436.592224568 L 586 431.493346773 L 593 415.194748977 L 600 446.092181182 L 606 414.864473386 L 613 408.931055591 L 620 417.293807795"/>
			<path class="series-2-line" d="M 40 412.86 L 46 418.113579545 L 53 433.342159091 L 60 424.945738636 L 66 410.774318182 L 73 410.252897727 L 80 414.981477273 L 86 411.310056818 L 93 414.463636364 L 100 420.767215909 L 106 429.170795455 L 113 419.724375 L 120 424.452954545 L 126 419.206534091 L 133 412.910113636 L 140 410.813693182 L 146 419.217272727 L 153 423.945852273 L 160 402.949431818 L 166 415.553011364 L 173 407.681590909 L 180 421.860170455 L 186 422.91375 L 193 422.392329545 L 200 420.295909091 L 206 429.224488636 L 213 406.653068182 L 220 411.906647727 L 226 414.535227273 L 233 408.238806818 L 240 408.767386364 L 246 394.595965909 L 253 416.649545455 L 260 408.253125 L 266 393.031704545 L 273 396.710284091 L 280 384.113863636 L 286 393.042443182 L 293 396.196022727 L 300 374.149602273 L 306 399.878181818 L 313 372.056761364 L 320 370.485340909 L 326 350.013920455 L 333 364.1925 L 340 361.571079545 L 346 376.799659091 L 353 355.803238636 L 360 347.406818182 L 366 338.485397727 L 373 333.238977273 L 380 341.642556818 L 386 342.696136364 L 393 352.674715909 L 400 363.703295455 L 406 353.731875 L 413 358.460454545 L 420 364.764034091 L 426 340.092613636 L 433 310.696193182 L 440 343.249772727 L 446 271.853352273 L 453 350.081931818 L 460 350.610511364 L 466 329.614090909 L 473 352.192670455 L 480 348.52125 L 486 404.174829545 L 493 421.503409091 L 500 410.481988636 L 506 422.560568182 L 513 430.439147727 L 520 417.842727273 L 526 422.046306818 L 533 422.574886364 L 540 419.428465909 L 546 412.082045455 L 553 421.010625 L 560 414.714204545 L 566 422.067784091 L 573 409.996363636 L 580 404.224943182 L 586 396.878522727 L 593 416.832102273 L 600 424.710681818 L 606 418.939261364 L 613 418.942840909 L 620 420.521420455"/>
		</g>
		<text class="x-axis-label" x="40.0" y="540">
			0
		</text>
		<path class="x-notch" d="M 73.3333333333 525 L 73.3333333333 530"/>
		<text class="x-axis-label" x="106.666666667" y="540">
			10
		</text>
		<path class="x-notch" d="M 140.0 525 L 140.0 530"/>
		<text class="x-axis-label" x="173.333333333" y="540">
			20
		</text>
		<path class="x-notch" d="M 206.666666667 525 L 206.666666667 530"/>
		<text class="x-axis-label" x="240.0" y="540">
			30
		</text>
		<path class="x-notch" d="M 273.333333333 525 L 273.333333333 530"/>
		<text class="x-axis-label" x="306.666666667" y="540">
			40
		</text>
		<path class="x-notch" d="M 340.0 525 L 340.0 530"/>
		<text class="x-axis-label" x="373.333333333" y="540">
			50
		</text>
		<path class="x-notch" d="M 406.666666667 525 L 406.666666667 530"/>
		<text class="x-axis-label" x="440.0" y="540">
			60
		</text>
		<path class="x-notch" d="M 473.333333333 525 L 473.333333333 530"/>
		<text class="x-axis-label" x="506.666666667" y="540">
			70
		</text>
		<path class="x-notch" d="M 540.0 525 L 540.0 530"/>
		<text class="x-axis-label" x="573.333333333" y="540">
			80
		</text>
		<path class="x-notch" d="M 606.666666667 525 L 606.666666667 530"/>
	</g>
</svg>
