<?xml version="1.0" ?>
<svg height="600" version="1.1" width="800" xmlns="http://www.w3.org/2000/svg" xmlns:svg="http://www.w3.org/2000/svg">
	<style type="text/css">

.x-axis-path, .y-gridline, .x-notch { fill:none; stroke: #a7a9ac; stroke-width:1; }



.y-gridline { stroke-width: 1; }

.y-axis-path, .y-axis-path2, .x-notch-left, .x-notch-right { display: none;}



.x-axis-label, .data-point-label {font-size: 12px; font-weight:normal; font-family: sans-serif; fill: #58595b; text-anchor:middle;}

.y-axis-label {font-size: 12px; font-family: helvetica; fill: #a7a9ac; text-anchor:end;}



.series-1-line { fill: none; stroke: #10b80c; stroke-width:2; }



.series-2-line { fill: none; stroke: #e90f0a; stroke-width: 2;}
</style>
	<rect fill="white" height="600" width="800" x="0" y="0"/>
	<g id="grid" transform="translate(70, 30)">
		<g class="x-axis" id="x_axis">
			<path class="x-axis-path" d="M 0 525 L 660 525"/>
			<path class="x-notch-left" d="M 0 525, L 0 535"/>
			<path class="x-notch-right" d="M 660 525, L 660 535"/>
		</g>
		<g class="y-axis" id="y_axis">
			<path class="y-axis-path" d="M 0 525 L 0 0"/>
			<path class="y-axis-path-2" d="M 660 525 L 660 0"/>
			<path class="y-gridline" d="M 0 525 L 660 525"/>
			<text class="y-axis-label" x="-5" y="525">-200</text>
			<path class="y-gridline" d="M 0 394 L 660 394"/>
			<text class="y-axis-label" x="-5" y="394"> 0</text>
			<path class="y-gridline" d="M 0 263 L 660 263"/>
			<text class="y-axis-label" x="-5" y="263">200</text>
			<path class="y-gridline" d="M 0 132 L 660 132"/>
			<text class="y-axis-label" x="-5" y="132">400</text>
			<path class="y-gridline" d="M 0 1 L 660 1"/>
			<text class="y-axis-label" x="-5" y="1">600</text>
		</g>
		<g>
			<path class="series-1-line" d="M 40 389.239688361 L 45 400.373561014 L 51 402.965055632 L 57 393.740043093 L 63 385.473741994 L 69 384.41117644 L 74 397.746902038 L 80 368.352969832 L 86 372.719302137 L 92 382.08781317 L 98 377.399467582 L 103 345.224605916 L 109 343.251005384 L 115 329.878436885 L 121 350.550711027 L 127 330.723904636 L 132 342.996682061 L 138 332.034736102 L 144 323.084973689 L 150 299.271852537 L 156 279.919737865 L 161 272.564619807 L 167 315.142895099 L 173 286.973152265 L 179 199.891590913 L 185 189.726819068 L 190 211.728111569 L 196 214.414662982 L 202 242.642027455 L 208 126.298668149 L 214 207.231175492 L 219 180.807990208 L 225 164.312761593 L 231 195.843127579 L 237 210.555103806 L 243 183.704755202 L 248 139.219742528 L 254 103.922220746 L 260 128.799203374 L 266 108.270279664 L 272 78.4016557407 L 277 164.269713218 L 283 65.1245266565 L 289 70.9716424524 L 295 64.1953047837 L 301 106.488705819 L 306 60.5895382486 L 312 13.0863983196 L 318 24.4290405683 L 324 4.89643643728 L 330 77.2769416143 L 335 0.0 L 341 45.1976674264 L 347 48.2733298291 L 353 62.2735646067 L 359 42.7788647426 L 364 118.301278297 L 370 125.363107398 L 376 194.080372463 L 382 101.455756261 L 388 66.860647926 L 393 197.773928951 L 399 24.3788734149 L 405 149.758723721 L 411 88.0092058348 L 417 144.824086889 L 422 149.855076438 L 428 157.657371315 L 434 152.171999676 L 440 200.606484211 L 446 244.427901007 L 451 235.421282194 L 457 254.840938764 L 463 320.815030573 L 469 319.268445298 L 475 333.448873407 L 480 333.77203455 L 486 338.356908644 L 492 329.853113622 L 498 328.486869742 L 504 331.676541072 L 509 370.287453736 L 515 382.503078633 L 521 378.318001026 L 527 391.3309481 L 533 395.7923372 L 538 408.311788486 L 544 362.298611988 L 550 344.018773492 L 556 349.087815371 L 562 363.135282419 L 567 358.73195915 L 573 325.740823173 L 579 360.033166485 L 585 354.130107591 L 591 350.001886385 L 596 397.183309157 L 602 372.487581227 L 608 402.224305455 L 614 390.085402395 L 620 402.206266625"/>
			<path class="series-2-line" d="M 40 387.087140576 L 45 401.178831712 L 51 390.840038293 L 57 390.495534011 L 63 399.40500115 L 69 396.099226013 L 74 398.715992585 L 80 397.631170589 L 86 384.701265172 L 92 399.903432878 L 98 384.75257432 L 103 384.408070038 L 109 393.317537177 L 115 404.818116315 L 121 388.926940043 L 127 382.289735193 L 132 391.939520047 L 138 388.263586052 L 144 388.289240626 L 150 382.762512347 L 156 388.710708632 L 161 399.841128912 L 167 402.457895485 L 173 383.605448358 L 179 402.509204633 L 185 389.949458073 L 190 397.748448642 L 196 401.475691785 L 202 390.76673951 L 208 383.759375803 L 214 394.14947837 L 219 391.584020946 L 225 399.383011515 L 231 393.115965522 L 237 397.583526379 L 243 389.465686102 L 248 389.491340676 L 254 385.445247825 L 260 377.697566404 L 266 394.010210682 L 272 380.339987551 L 277 400.354220397 L 283 395.567809832 L 289 397.074099834 L 295 390.066736127 L 301 379.357783852 L 306 383.455185852 L 312 392.364652991 L 318 402.754755558 L 324 393.52643871 L 330 366.530496732 L 335 400.610766139 L 341 384.349431011 L 347 385.115403299 L 353 399.577253292 L 359 384.426394734 L 364 387.043161306 L 370 372.262461605 L 376 382.652564172 L 382 385.639489601 L 388 387.51593846 L 393 381.989210181 L 399 396.82121903 L 405 388.333219896 L 411 396.502369322 L 417 372.467698199 L 422 385.819071621 L 428 385.474567338 L 434 393.643716764 L 440 406.624931329 L 446 388.512801916 L 451 397.422269055 L 457 403.740624197 L 463 394.512307349 L 469 394.537961923 L 475 395.303934211 L 480 392.36831793 L 486 403.128579354 L 492 391.309150508 L 498 392.075122796 L 504 403.945860791 L 509 404.711833079 L 515 394.37303966 L 521 401.801871372 L 527 397.015460807 L 533 398.151591952 L 538 398.177246526 L 544 391.169882819 L 550 374.168229977 L 556 396.033257107 L 562 388.655734544 L 567 401.266790252 L 573 398.331173971 L 579 394.28508112 L 585 395.421212265 L 591 393.966231411 L 596 385.848391134 L 602 388.09499885 L 608 401.816531129 L 614 394.068849708 L 620 398.536410565"/>
		</g>
		<text class="x-axis-label" x="40.0" y="540">0</text>
		<path class="x-notch" d="M 69.0 525 L 69.0 530"/>
		<text class="x-axis-label" x="98.0" y="540">10</text>
		<path class="x-notch" d="M 127.0 525 L 127.0 530"/>
		<text class="x-axis-label" x="156.0" y="540">20</text>
		<path class="x-notch" d="M 185.0 525 L 185.0 530"/>
		<text class="x-axis-label" x="214.0" y="540">30</text>
		<path class="x-notch" d="M 243.0 525 L 243.0 530"/>
		<text class="x-axis-label" x="272.0" y="540">40</text>
		<path class="x-notch" d="M 301.0 525 L 301.0 530"/>
		<text class="x-axis-label" x="330.0" y="540">50</text>
		<path class="x-notch" d="M 359.0 525 L 359.0 530"/>
		<text class="x-axis-label" x="388.0" y="540">60</text>
		<path class="x-notch" d="M 417.0 525 L 417.0 530"/>
		<text class="x-axis-label" x="446.0" y="540">70</text>
		<path class="x-notch" d="M 475.0 525 L 475.0 530"/>
		<text class="x-axis-label" x="504.0" y="540">80</text>
		<path class="x-notch" d="M 533.0 525 L 533.0 530"/>
		<text class="x-axis-label" x="562.0" y="540">90</text>
		<path class="x-notch" d="M 591.0 525 L 591.0 530"/>
		<text class="x-axis-label" x="620.0" y="540">100</text>
	</g>
</svg>
