<?xml version="1.0" ?>
<svg height="600" version="1.1" width="800" xmlns="http://www.w3.org/2000/svg" xmlns:svg="http://www.w3.org/2000/svg">
	<style type="text/css">
		

.x-axis-path, .y-gridline, .x-notch { fill:none; stroke: #a7a9ac; stroke-width:1; }



.y-gridline { stroke-width: 1; }

.y-axis-path, .y-axis-path2, .x-notch-left, .x-notch-right { display: none;}



.x-axis-label, .data-point-label {font-size: 12px; font-weight:normal; font-family: sans-serif; fill: #58595b; text-anchor:middle;}

.y-axis-label {font-size: 12px; font-family: helvetica; fill: #a7a9ac; text-anchor:end;}



.series-1-line { fill: none; stroke: #10b80c; stroke-width:2; }



.series-2-line { fill: none; stroke: #e90f0a; stroke-width: 2;}

	</style>
	<rect fill="white" height="600" width="800" x="0" y="0"/>
	<g id="grid" transform="translate(70, 30)">
		<g class="x-axis" id="x_axis">
			<path class="x-axis-path" d="M 0 525 L 660 525"/>
			<path class="x-notch-left" d="M 0 525, L 0 535"/>
			<path class="x-notch-right" d="M 660 525, L 660 535"/>
		</g>
		<g class="y-axis" id="y_axis">
			<path class="y-axis-path" d="M 0 525 L 0 0"/>
			<path class="y-axis-path-2" d="M 660 525 L 660 0"/>
			<path class="y-gridline" d="M 0 525 L 660 525"/>
			<text class="y-axis-label" x="-5" y="525">
				-200
			</text>
			<path class="y-gridline" d="M 0 420 L 660 420"/>
			<text class="y-axis-label" x="-5" y="420">
				 0
			</text>
			<path class="y-gridline" d="M 0 315 L 660 315"/>
			<text class="y-axis-label" x="-5" y="315">
				200
			</text>
			<path class="y-gridline" d="M 0 210 L 660 210"/>
			<text class="y-axis-label" x="-5" y="210">
				400
			</text>
			<path class="y-gridline" d="M 0 105 L 660 105"/>
			<text class="y-axis-label" x="-5" y="105">
				600
			</text>
			<path class="y-gridline" d="M 0 0 L 660 0"/>
			<text class="y-axis-label" x="-5" y="0">
				800
			</text>
		</g>
		<g>
			<path class="series-1-line" d="M 40 422.032464 L 43 429.678264437 L 47 409.121904874 L 51 408.528985311 L 55 428.747485748 L 59 406.535276185 L 63 413.871326623 L 67 422.41844706 L 70 426.308397497 L 74 388.467357934 L 78 401.309398371 L 82 388.587298808 L 86 413.517359245 L 90 379.270679682 L 94 416.491200119 L 98 374.679060556 L 101 372.416850993 L 105 374.30067143 L 109 373.438531868 L 113 361.363022305 L 117 370.637372742 L 121 344.494593179 L 125 328.784403616 L 128 335.097124053 L 132 325.30977449 L 136 330.317344927 L 140 343.737515364 L 144 356.161865801 L 148 346.765116238 L 152 342.039396675 L 156 328.025587113 L 159 324.24192755 L 163 348.014467987 L 167 326.058038424 L 171 313.174868861 L 175 293.439189298 L 179 301.125519735 L 183 261.965050172 L 186 283.879930609 L 190 284.929001046 L 194 269.662751483 L 198 260.764121921 L 202 231.027192358 L 206 217.173822795 L 210 198.758203232 L 214 222.005533669 L 217 189.751334106 L 221 213.281324543 L 225 211.30177498 L 229 208.999245417 L 233 245.573385854 L 237 235.988266291 L 241 187.350916728 L 244 214.919417166 L 248 197.862497603 L 252 154.26073804 L 256 188.774568477 L 260 166.522878914 L 264 178.219579351 L 268 156.195739788 L 272 170.881370225 L 275 122.486570662 L 279 89.2625910993 L 283 105.348921536 L 287 66.4444419735 L 291 88.0088324106 L 295 116.022112848 L 299 110.663243285 L 302 142.472063722 L 306 113.166474159 L 310 94.777104596 L 314 124.229935033 L 318 83.8046354702 L 322 129.182185907 L 326 123.271856344 L 330 124.738616781 L 333 149.721807219 L 337 81.6863376556 L 341 81.3502480927 L 345 174.62459853 L 349 161.849368967 L 353 180.249899404 L 357 192.809279841 L 360 163.705290278 L 364 146.662230715 L 368 127.316941152 L 372 122.389201589 L 376 141.746282026 L 380 147.803432464 L 384 132.872972901 L 388 180.432633338 L 391 139.320213775 L 395 229.484674212 L 399 197.122954649 L 403 180.685955086 L 407 250.456895523 L 411 163.79022596 L 415 240.157266397 L 418 213.435936834 L 422 260.874217272 L 426 223.868137709 L 430 205.801748146 L 434 263.429858583 L 438 258.55629902 L 442 215.182599457 L 446 228.630699894 L 449 257.383600331 L 453 312.844510768 L 457 241.619351205 L 461 299.139941642 L 465 314.444652079 L 469 311.173182517 L 473 298.505472954 L 476 342.052663391 L 480 328.536763828 L 484 327.527204265 L 488 382.356434702 L 492 418.123335139 L 496 429.457155576 L 500 397.229416013 L 504 415.50961645 L 507 412.843786887 L 511 422.952677325 L 515 431.230997762 L 519 427.474638199 L 523 423.125868636 L 527 403.228909073 L 531 435.09169951 L 534 406.929559947 L 538 407.157950384 L 542 424.563080821 L 546 410.535621258 L 550 414.384831695 L 554 412.284322132 L 558 417.93743257 L 562 403.169513007 L 565 431.168933444 L 569 416.105123881 L 573 428.892774318 L 577 423.628614755 L 581 416.507005192 L 585 411.390685629 L 589 425.888366066 L 592 417.851156503 L 596 416.01986694 L 600 418.644147377 L 604 420.851367815 L 608 422.210188252 L 612 406.822978689 L 616 426.866549126 L 620 426.085259563"/>
			<path class="series-2-line" d="M 40 397.74 L 43 424.126986755 L 47 427.41397351 L 51 428.600960265 L 55 418.23794702 L 59 413.649933775 L 63 426.91192053 L 67 394.498907285 L 70 413.01089404 L 74 409.997880795 L 78 444.78486755 L 82 413.421854305 L 86 405.15884106 L 90 414.745827815 L 94 413.83281457 L 98 416.069801325 L 101 411.481788079 L 105 394.818774834 L 109 397.055761589 L 113 408.217748344 L 117 405.729735099 L 121 420.566721854 L 125 425.428708609 L 128 414.015695364 L 132 395.777682119 L 136 444.739668874 L 140 409.701655629 L 144 407.213642384 L 148 409.975629139 L 152 400.662615894 L 156 427.574602649 L 159 394.111589404 L 163 402.648576159 L 167 399.110562914 L 171 413.422549669 L 175 370.509536424 L 179 411.071523179 L 183 388.633509934 L 186 400.320496689 L 190 370.532483444 L 194 347.044470199 L 198 354.006456954 L 202 376.718443709 L 206 296.530430464 L 210 334.467417219 L 214 322.529403974 L 217 348.916390728 L 221 333.828377483 L 225 326.090364238 L 229 327.802350993 L 233 304.839337748 L 237 316.526324503 L 241 298.288311258 L 244 287.925298013 L 248 236.612284768 L 252 313.399271523 L 256 222.711258278 L 260 306.323245033 L 264 232.960231788 L 268 219.447218543 L 272 191.759205298 L 275 197.146192053 L 279 169.983178808 L 283 210.545165563 L 287 209.632152318 L 291 173.544139073 L 295 216.731125828 L 299 162.793112583 L 302 146.130099338 L 306 224.492086093 L 310 196.804072848 L 314 158.616059603 L 318 190.253046358 L 322 124.765033113 L 326 115.977019868 L 330 123.464006623 L 333 45.3759933775 L 337 22.9379801325 L 341 127.549966887 L 345 125.061953642 L 349 163.523940397 L 353 88.5859271523 L 357 126.522913907 L 360 173.384900662 L 364 160.921887417 L 368 118.533874172 L 372 99.7708609272 L 376 100.957847682 L 380 108.969834437 L 384 12.5068211921 L 388 77.743807947 L 391 52.680794702 L 395 23.417781457 L 399 66.6047682119 L 403 82.4917549669 L 407 122.528741722 L 411 58.0907284768 L 415 92.8777152318 L 418 136.589701987 L 422 179.776688742 L 426 210.363675497 L 430 173.225662252 L 434 162.337649007 L 438 176.124635762 L 442 176.261622517 L 446 239.398609272 L 449 208.035596026 L 453 207.647582781 L 457 252.934569536 L 461 258.846556291 L 465 216.458543046 L 469 246.520529801 L 473 268.182516556 L 476 242.594503311 L 480 253.231490066 L 484 319.518476821 L 488 417.830463576 L 492 438.967450331 L 496 422.304437086 L 500 403.541423841 L 504 408.928410596 L 507 426.390397351 L 511 416.552384106 L 515 426.139370861 L 519 429.426357616 L 523 422.738344371 L 527 405.025331126 L 531 400.437317881 L 534 402.674304636 L 538 419.086291391 L 542 417.648278146 L 546 426.185264901 L 550 410.047251656 L 554 421.209238411 L 558 410.321225166 L 562 411.508211921 L 565 415.845198675 L 569 442.75718543 L 573 424.519172185 L 577 417.30615894 L 581 433.718145695 L 585 403.40513245 L 589 425.592119205 L 592 421.00410596 L 596 431.116092715 L 600 421.80307947 L 604 436.640066225 L 608 419.97705298 L 612 415.389039735 L 616 411.85102649 L 620 421.963013245"/>
		</g>
		<text class="x-axis-label" x="40.0" y="540">
			0
		</text>
		<path class="x-notch" d="M 59.3333333333 525 L 59.3333333333 530"/>
		<text class="x-axis-label" x="78.6666666667" y="540">
			10
		</text>
		<path class="x-notch" d="M 98.0 525 L 98.0 530"/>
		<text class="x-axis-label" x="117.333333333" y="540">
			20
		</text>
		<path class="x-notch" d="M 136.666666667 525 L 136.666666667 530"/>
		<text class="x-axis-label" x="156.0" y="540">
			30
		</text>
		<path class="x-notch" d="M 175.333333333 525 L 175.333333333 530"/>
		<text class="x-axis-label" x="194.666666667" y="540">
			40
		</text>
		<path class="x-notch" d="M 214.0 525 L 214.0 530"/>
		<text class="x-axis-label" x="233.333333333" y="540">
			50
		</text>
		<path class="x-notch" d="M 252.666666667 525 L 252.666666667 530"/>
		<text class="x-axis-label" x="272.0" y="540">
			60
		</text>
		<path class="x-notch" d="M 291.333333333 525 L 291.333333333 530"/>
		<text class="x-axis-label" x="310.666666667" y="540">
			70
		</text>
		<path class="x-notch" d="M 330.0 525 L 330.0 530"/>
		<text class="x-axis-label" x="349.333333333" y="540">
			80
		</text>
		<path class="x-notch" d="M 368.666666667 525 L 368.666666667 530"/>
		<text class="x-axis-label" x="388.0" y="540">
			90
		</text>
		<path class="x-notch" d="M 407.333333333 525 L 407.333333333 530"/>
		<text class="x-axis-label" x="426.666666667" y="540">
			100
		</text>
		<path class="x-notch" d="M 446.0 525 L 446.0 530"/>
		<text class="x-axis-label" x="465.333333333" y="540">
			110
		</text>
		<path class="x-notch" d="M 484.666666667 525 L 484.666666667 530"/>
		<text class="x-axis-label" x="504.0" y="540">
			120
		</text>
		<path class="x-notch" d="M 523.333333333 525 L 523.333333333 530"/>
		<text class="x-axis-label" x="542.666666667" y="540">
			130
		</text>
		<path class="x-notch" d="M 562.0 525 L 562.0 530"/>
		<text class="x-axis-label" x="581.333333333" y="540">
			140
		</text>
		<path class="x-notch" d="M 600.666666667 525 L 600.666666667 530"/>
		<text class="x-axis-label" x="620.0" y="540">
			150
		</text>
	</g>
</svg>
