<?xml version="1.0" ?>
<svg height="600" version="1.1" width="800" xmlns="http://www.w3.org/2000/svg" xmlns:svg="http://www.w3.org/2000/svg">
	<style type="text/css">
		

.x-axis-path, .y-gridline, .x-notch { fill:none; stroke: #a7a9ac; stroke-width:1; }



.y-gridline { stroke-width: 1; }

.y-axis-path, .y-axis-path2, .x-notch-left, .x-notch-right { display: none;}



.x-axis-label, .data-point-label {font-size: 12px; font-weight:normal; font-family: sans-serif; fill: #58595b; text-anchor:middle;}

.y-axis-label {font-size: 12px; font-family: helvetica; fill: #a7a9ac; text-anchor:end;}



.series-1-line { fill: none; stroke: #10b80c; stroke-width:2; }



.series-2-line { fill: none; stroke: #e90f0a; stroke-width: 2;}

	</style>
	<rect fill="white" height="600" width="800" x="0" y="0"/>
	<g id="grid" transform="translate(70, 30)">
		<g class="x-axis" id="x_axis">
			<path class="x-axis-path" d="M 0 525 L 660 525"/>
			<path class="x-notch-left" d="M 0 525, L 0 535"/>
			<path class="x-notch-right" d="M 660 525, L 660 535"/>
		</g>
		<g class="y-axis" id="y_axis">
			<path class="y-axis-path" d="M 0 525 L 0 0"/>
			<path class="y-axis-path-2" d="M 660 525 L 660 0"/>
			<path class="y-gridline" d="M 0 525 L 660 525"/>
			<text class="y-axis-label" x="-5" y="525">
				-200
			</text>
			<path class="y-gridline" d="M 0 450 L 660 450"/>
			<text class="y-axis-label" x="-5" y="450">
				-100
			</text>
			<path class="y-gridline" d="M 0 375 L 660 375"/>
			<text class="y-axis-label" x="-5" y="375">
				 0
			</text>
			<path class="y-gridline" d="M 0 300 L 660 300"/>
			<text class="y-axis-label" x="-5" y="300">
				100
			</text>
			<path class="y-gridline" d="M 0 225 L 660 225"/>
			<text class="y-axis-label" x="-5" y="225">
				200
			</text>
			<path class="y-gridline" d="M 0 150 L 660 150"/>
			<text class="y-axis-label" x="-5" y="150">
				300
			</text>
			<path class="y-gridline" d="M 0 75 L 660 75"/>
			<text class="y-axis-label" x="-5" y="75">
				400
			</text>
			<path class="y-gridline" d="M 0 0 L 660 0"/>
			<text class="y-axis-label" x="-5" y="0">
				500
			</text>
		</g>
		<g>
			<path class="series-1-line" d="M 40 383.0997 L 47 371.501923077 L 55 377.116046154 L 62 379.422069231 L 70 372.304492308 L 77 353.380115385 L 85 366.936138462 L 92 370.838161538 L 100 378.548084615 L 107 364.950207692 L 115 358.236730769 L 122 358.177553846 L 130 367.694976923 L 137 388.8086 L 145 337.941423077 L 152 380.458846154 L 160 404.668769231 L 168 392.263092308 L 175 387.184915385 L 183 349.259138462 L 190 354.026361538 L 198 363.159184615 L 205 381.177107692 L 213 360.330030769 L 220 391.040053846 L 228 384.595976923 L 235 374.2483 L 243 386.265323077 L 250 359.282946154 L 258 334.589269231 L 265 335.356292308 L 273 309.277815385 L 281 298.449238462 L 288 289.524161538 L 296 242.657184615 L 303 209.655307692 L 311 187.999730769 L 318 164.651553846 L 326 113.208076923 L 333 166.5138 L 341 131.416123077 L 348 130.740746154 L 356 172.277469231 L 363 76.0832923077 L 371 130.350515385 L 378 92.0413384615 L 386 51.7899615385 L 394 104.095484615 L 401 78.4208076923 L 409 100.669030769 L 416 92.4747538462 L 424 139.588176923 L 431 36.5285 L 439 85.8346230769 L 446 136.448446154 L 454 102.869369231 L 461 301.830192308 L 469 251.847115385 L 476 337.115438462 L 484 341.324961538 L 491 375.746284615 L 499 359.648807692 L 507 397.685430769 L 514 394.106953846 L 522 382.393376923 L 529 398.5456 L 537 393.967223077 L 544 338.484546154 L 552 351.617569231 L 559 393.711692308 L 567 363.133215385 L 574 411.996538462 L 582 375.302861538 L 589 397.954884615 L 597 357.126007692 L 604 374.143730769 L 612 369.199653846 L 620 363.909376923"/>
			<path class="series-2-line" d="M 40 345.75 L 47 355.769230769 L 55 401.038461538 L 62 406.557692308 L 70 361.076923077 L 77 402.596153846 L 85 408.115384615 L 92 398.634615385 L 100 409.403846154 L 107 409.673076923 L 115 388.942307692 L 122 412.461538462 L 130 404.480769231 L 137 401.0 L 145 394.519230769 L 152 386.538461538 L 160 397.307692308 L 168 387.076923077 L 175 433.096153846 L 183 338.115384615 L 190 310.634615385 L 198 304.153846154 L 205 344.923076923 L 213 423.192307692 L 220 443.711538462 L 228 439.480769231 L 235 459.25 L 243 412.269230769 L 250 423.788461538 L 258 458.557692308 L 265 411.576923077 L 273 428.346153846 L 281 435.365384615 L 288 408.634615385 L 296 421.653846154 L 303 406.923076923 L 311 406.442307692 L 318 377.461538462 L 326 431.730769231 L 333 408.0 L 341 427.769230769 L 348 371.788461538 L 356 370.557692308 L 363 356.576923077 L 371 329.096153846 L 378 352.615384615 L 386 386.634615385 L 394 343.403846154 L 401 355.673076923 L 409 350.692307692 L 416 326.961538462 L 424 303.980769231 L 431 278.75 L 439 294.019230769 L 446 310.038461538 L 454 268.307692308 L 461 366.826923077 L 469 310.096153846 L 476 389.865384615 L 484 361.634615385 L 491 358.903846154 L 499 398.173076923 L 507 387.192307692 L 514 403.961538462 L 522 373.480769231 L 529 383.5 L 537 410.019230769 L 544 392.288461538 L 552 405.307692308 L 559 375.576923077 L 567 392.346153846 L 574 359.615384615 L 582 394.384615385 L 589 384.903846154 L 597 362.673076923 L 604 383.942307692 L 612 379.711538462 L 620 370.980769231"/>
		</g>
		<text class="x-axis-label" x="40.0" y="540">
			0
		</text>
		<path class="x-notch" d="M 77.6623376623 525 L 77.6623376623 530"/>
		<text class="x-axis-label" x="115.324675325" y="540">
			10
		</text>
		<path class="x-notch" d="M 152.987012987 525 L 152.987012987 530"/>
		<text class="x-axis-label" x="190.649350649" y="540">
			20
		</text>
		<path class="x-notch" d="M 228.311688312 525 L 228.311688312 530"/>
		<text class="x-axis-label" x="265.974025974" y="540">
			30
		</text>
		<path class="x-notch" d="M 303.636363636 525 L 303.636363636 530"/>
		<text class="x-axis-label" x="341.298701299" y="540">
			40
		</text>
		<path class="x-notch" d="M 378.961038961 525 L 378.961038961 530"/>
		<text class="x-axis-label" x="416.623376623" y="540">
			50
		</text>
		<path class="x-notch" d="M 454.285714286 525 L 454.285714286 530"/>
		<text class="x-axis-label" x="491.948051948" y="540">
			60
		</text>
		<path class="x-notch" d="M 529.61038961 525 L 529.61038961 530"/>
		<text class="x-axis-label" x="567.272727273" y="540">
			70
		</text>
		<path class="x-notch" d="M 604.935064935 525 L 604.935064935 530"/>
	</g>
</svg>
