<?xml version="1.0" ?>
<svg height="600" version="1.1" width="800" xmlns="http://www.w3.org/2000/svg" xmlns:svg="http://www.w3.org/2000/svg">
	<style type="text/css">
		

.x-axis-path, .y-gridline, .x-notch { fill:none; stroke: #a7a9ac; stroke-width:1; }



.y-gridline { stroke-width: 1; }

.y-axis-path, .y-axis-path2, .x-notch-left, .x-notch-right { display: none;}



.x-axis-label, .data-point-label {font-size: 12px; font-weight:normal; font-family: sans-serif; fill: #58595b; text-anchor:middle;}

.y-axis-label {font-size: 12px; font-family: helvetica; fill: #a7a9ac; text-anchor:end;}



.series-1-line { fill: none; stroke: #10b80c; stroke-width:2; }



.series-2-line { fill: none; stroke: #e90f0a; stroke-width: 2;}

	</style>
	<rect fill="white" height="600" width="800" x="0" y="0"/>
	<g id="grid" transform="translate(70, 30)">
		<g class="x-axis" id="x_axis">
			<path class="x-axis-path" d="M 0 525 L 660 525"/>
			<path class="x-notch-left" d="M 0 525, L 0 535"/>
			<path class="x-notch-right" d="M 660 525, L 660 535"/>
		</g>
		<g class="y-axis" id="y_axis">
			<path class="y-axis-path" d="M 0 525 L 0 0"/>
			<path class="y-axis-path-2" d="M 660 525 L 660 0"/>
			<path class="y-gridline" d="M 0 525 L 660 525"/>
			<text class="y-axis-label" x="-5" y="525">
				-200
			</text>
			<path class="y-gridline" d="M 0 420 L 660 420"/>
			<text class="y-axis-label" x="-5" y="420">
				 0
			</text>
			<path class="y-gridline" d="M 0 315 L 660 315"/>
			<text class="y-axis-label" x="-5" y="315">
				200
			</text>
			<path class="y-gridline" d="M 0 210 L 660 210"/>
			<text class="y-axis-label" x="-5" y="210">
				400
			</text>
			<path class="y-gridline" d="M 0 105 L 660 105"/>
			<text class="y-axis-label" x="-5" y="105">
				600
			</text>
			<path class="y-gridline" d="M 0 0 L 660 0"/>
			<text class="y-axis-label" x="-5" y="0">
				800
			</text>
		</g>
		<g>
			<path class="series-1-line" d="M 40 412.663482 L 45 433.764758 L 51 399.377314 L 56 427.86912 L 62 427.472486 L 67 416.912062 L 73 414.496068 L 79 403.424294 L 84 414.25426 L 90 419.982486 L 95 419.962592 L 101 421.813798 L 106 423.355464 L 112 411.55667 L 118 414.108016 L 123 419.701632 L 129 419.735498 L 134 406.509964 L 140 418.33617 L 145 417.710426 L 151 422.065462 L 157 418.316808 L 162 423.008474 L 168 409.8367 L 173 404.580036 L 179 417.469892 L 185 428.932588 L 190 413.781774 L 196 400.04447 L 201 406.701736 L 207 379.408722 L 212 356.436878 L 218 406.696024 L 224 404.60301 L 229 397.650596 L 235 427.986202 L 240 419.418258 L 246 419.586944 L 251 374.39017 L 257 392.543256 L 263 369.638822 L 268 343.301518 L 274 334.491234 L 279 327.14822 L 285 302.924566 L 290 305.987262 L 296 280.363538 L 302 268.766554 L 307 250.56024 L 313 212.713256 L 318 201.008962 L 324 153.725208 L 330 105.284564 L 335 104.42992 L 341 142.708146 L 346 158.236232 L 352 137.472118 L 357 96.475134 L 363 108.05921 L 369 116.479636 L 374 58.938642 L 380 73.605098 L 385 56.071834 L 391 110.71935 L 396 46.581836 L 402 62.917582 L 408 125.668788 L 413 70.254674 L 419 80.55964 L 424 130.024146 L 430 132.871382 L 435 127.399678 L 441 97.508544 L 447 100.24805 L 452 67.462906 L 458 118.798512 L 463 111.361628 L 469 163.384354 L 475 168.61446 L 480 436.035866 L 486 447.794872 L 491 439.213488 L 497 440.445404 L 502 433.65448 L 508 433.620936 L 514 440.035652 L 519 452.777248 L 525 439.524834 L 530 434.92799 L 536 430.034836 L 541 433.030542 L 547 433.118168 L 553 437.904124 L 558 433.68402 L 564 429.195116 L 569 420.909832 L 575 429.357348 L 580 435.448874 L 586 426.55774 L 592 413.776356 L 597 419.410292 L 603 420.494158 L 608 422.520504 L 614 404.93327 L 620 430.921036"/>
			<path class="series-2-line" d="M 40 421.995 L 45 423.905 L 51 400.615 L 56 416.7 L 62 434.885 L 67 421.045 L 73 426.63 L 79 431.165 L 84 417.85 L 90 422.385 L 95 422.72 L 101 417.805 L 106 420.24 L 112 415.325 L 118 424.06 L 123 429.12 L 129 421.055 L 134 433.99 L 140 429.075 L 145 421.535 L 151 415.045 L 157 423.78 L 162 426.215 L 168 430.75 L 173 408.51 L 179 421.97 L 185 412.33 L 190 397.965 L 196 388.325 L 201 411.76 L 207 407.895 L 212 405.605 L 218 424.84 L 224 420.975 L 229 438.11 L 235 412.195 L 240 415.155 L 246 427.04 L 251 431.575 L 257 422.46 L 263 430.145 L 268 420.505 L 274 420.315 L 279 416.45 L 285 425.185 L 290 415.545 L 296 417.455 L 302 401.515 L 307 413.4 L 313 397.46 L 318 418.795 L 324 380.28 L 330 419.99 L 335 407.2 L 341 411.735 L 346 402.62 L 352 404.005 L 357 388.065 L 363 400.475 L 369 394.51 L 374 400.095 L 380 382.055 L 385 391.315 L 391 401.625 L 396 371.51 L 402 359.245 L 408 354.33 L 413 355.715 L 419 342.4 L 424 321.735 L 430 304.745 L 435 316.105 L 441 308.04 L 447 287.375 L 452 300.835 L 458 274.92 L 463 306.23 L 469 337.015 L 475 337.35 L 480 426.935 L 486 432.52 L 491 437.58 L 497 426.89 L 502 439.3 L 508 421.26 L 514 421.07 L 519 416.68 L 525 433.815 L 530 431.525 L 536 414.01 L 541 435.345 L 547 418.88 L 553 427.09 L 558 406.95 L 564 428.81 L 569 428.62 L 575 438.93 L 580 427.715 L 586 419.65 L 592 424.71 L 597 423.47 L 603 415.405 L 608 424.14 L 614 421.325 L 620 418.51"/>
		</g>
		<text class="x-axis-label" x="40.0" y="540">
			0
		</text>
		<path class="x-notch" d="M 67.8846153846 525 L 67.8846153846 530"/>
		<text class="x-axis-label" x="95.7692307692" y="540">
			10
		</text>
		<path class="x-notch" d="M 123.653846154 525 L 123.653846154 530"/>
		<text class="x-axis-label" x="151.538461538" y="540">
			20
		</text>
		<path class="x-notch" d="M 179.423076923 525 L 179.423076923 530"/>
		<text class="x-axis-label" x="207.307692308" y="540">
			30
		</text>
		<path class="x-notch" d="M 235.192307692 525 L 235.192307692 530"/>
		<text class="x-axis-label" x="263.076923077" y="540">
			40
		</text>
		<path class="x-notch" d="M 290.961538462 525 L 290.961538462 530"/>
		<text class="x-axis-label" x="318.846153846" y="540">
			50
		</text>
		<path class="x-notch" d="M 346.730769231 525 L 346.730769231 530"/>
		<text class="x-axis-label" x="374.615384615" y="540">
			60
		</text>
		<path class="x-notch" d="M 402.5 525 L 402.5 530"/>
		<text class="x-axis-label" x="430.384615385" y="540">
			70
		</text>
		<path class="x-notch" d="M 458.269230769 525 L 458.269230769 530"/>
		<text class="x-axis-label" x="486.153846154" y="540">
			80
		</text>
		<path class="x-notch" d="M 514.038461538 525 L 514.038461538 530"/>
		<text class="x-axis-label" x="541.923076923" y="540">
			90
		</text>
		<path class="x-notch" d="M 569.807692308 525 L 569.807692308 530"/>
		<text class="x-axis-label" x="597.692307692" y="540">
			100
		</text>
		<path class="x-notch" d="M 625.576923077 525 L 625.576923077 530"/>
	</g>
</svg>
