<?xml version="1.0" ?>
<svg height="600" version="1.1" width="800" xmlns="http://www.w3.org/2000/svg" xmlns:svg="http://www.w3.org/2000/svg">
	<style type="text/css">

.x-axis-path, .y-gridline, .x-notch { fill:none; stroke: #a7a9ac; stroke-width:1; }



.y-gridline { stroke-width: 1; }

.y-axis-path, .y-axis-path2, .x-notch-left, .x-notch-right { display: none;}



.x-axis-label, .data-point-label {font-size: 12px; font-weight:normal; font-family: sans-serif; fill: #58595b; text-anchor:middle;}

.y-axis-label {font-size: 12px; font-family: helvetica; fill: #a7a9ac; text-anchor:end;}



.series-1-line { fill: none; stroke: #10b80c; stroke-width:2; }



.series-2-line { fill: none; stroke: #e90f0a; stroke-width: 2;}
</style>
	<rect fill="white" height="600" width="800" x="0" y="0"/>
	<g id="grid" transform="translate(70, 30)">
		<g class="x-axis" id="x_axis">
			<path class="x-axis-path" d="M 0 525 L 660 525"/>
			<path class="x-notch-left" d="M 0 525, L 0 535"/>
			<path class="x-notch-right" d="M 660 525, L 660 535"/>
		</g>
		<g class="y-axis" id="y_axis">
			<path class="y-axis-path" d="M 0 525 L 0 0"/>
			<path class="y-axis-path-2" d="M 660 525 L 660 0"/>
			<path class="y-gridline" d="M 0 525 L 660 525"/>
			<text class="y-axis-label" x="-5" y="525">-200</text>
			<path class="y-gridline" d="M 0 394 L 660 394"/>
			<text class="y-axis-label" x="-5" y="394"> 0</text>
			<path class="y-gridline" d="M 0 263 L 660 263"/>
			<text class="y-axis-label" x="-5" y="263">200</text>
			<path class="y-gridline" d="M 0 132 L 660 132"/>
			<text class="y-axis-label" x="-5" y="132">400</text>
			<path class="y-gridline" d="M 0 1 L 660 1"/>
			<text class="y-axis-label" x="-5" y="1">600</text>
		</g>
		<g>
			<path class="series-1-line" d="M 40 403.172527081 L 47 389.68062403 L 55 396.211634652 L 62 398.894272884 L 70 390.61426729 L 77 368.59919833 L 85 384.369164447 L 92 388.908458262 L 100 397.87755082 L 107 382.058895369 L 115 374.248986592 L 122 374.180145011 L 130 385.251934915 L 137 409.813793407 L 145 350.639089145 L 152 400.100374176 L 160 428.264214298 L 168 413.832466607 L 175 407.924931812 L 183 363.805191557 L 190 369.350988136 L 198 379.975365924 L 205 400.935940777 L 213 376.684160233 L 220 412.409683908 L 228 404.91317301 L 235 392.875533834 L 243 406.855153496 L 250 375.466067817 L 258 346.739468122 L 265 347.6317599 L 273 317.294197392 L 281 304.697118573 L 288 294.314415633 L 296 239.793216171 L 303 201.401537585 L 311 176.209214411 L 318 149.047859131 L 326 89.2027346866 L 333 151.214243666 L 341 110.384483144 L 348 109.59880499 L 356 157.919224025 L 363 46.0148032291 L 371 109.144842498 L 378 64.5790861099 L 386 17.7539334354 L 394 78.6018917171 L 401 48.7340770311 L 409 74.6158361646 L 416 65.0832860431 L 424 119.89118076 L 431 0.0 L 439 57.35870217 L 446 116.238675333 L 454 77.1755295782 L 461 308.630243155 L 469 250.484028368 L 476 349.678206346 L 484 354.575220457 L 491 394.618166352 L 499 375.891681143 L 507 420.140370727 L 514 415.977463987 L 522 402.350848708 L 529 421.141021105 L 537 415.814912663 L 544 351.270914015 L 552 366.548796604 L 559 415.517649111 L 567 379.945155449 L 574 436.788740394 L 582 394.10232429 L 589 420.453831245 L 597 372.956862406 L 604 392.753886562 L 612 387.002352715 L 620 380.848078165"/>
			<path class="series-2-line" d="M 40 359.722947501 L 47 371.378499343 L 55 424.04101189 L 62 430.461632578 L 70 377.553033524 L 77 425.853103443 L 85 432.273724131 L 92 421.244574307 L 100 433.772614675 L 107 434.085815685 L 115 409.969337976 L 122 437.32968328 L 130 428.045510507 L 137 423.996268888 L 145 416.457073167 L 152 407.172900394 L 160 419.700940762 L 168 407.799302413 L 175 461.334303485 L 183 350.84146174 L 190 318.872587301 L 198 311.33339158 L 205 358.760972973 L 213 449.812980646 L 220 473.683371847 L 228 468.761641703 L 235 491.759544378 L 243 437.105968273 L 250 450.506497167 L 258 490.954170355 L 265 436.30059425 L 273 455.808542822 L 281 463.974140562 L 288 432.877754649 L 296 448.023260594 L 303 430.886691091 L 311 430.327403574 L 318 396.613552084 L 326 459.745926938 L 333 432.139495127 L 341 455.137397803 L 348 390.01395939 L 356 388.582183348 L 363 372.318102371 L 371 340.349227932 L 378 367.709573235 L 386 407.284757897 L 394 356.993624421 L 401 371.26664184 L 409 365.47242317 L 416 337.865991359 L 424 311.132048074 L 431 281.780639212 L 439 299.543610734 L 446 318.179070781 L 454 269.632914355 L 461 384.242112221 L 469 318.246185283 L 476 411.043170008 L 484 378.201807043 L 491 375.02505395 L 499 420.707658292 L 507 407.933531417 L 514 427.441479989 L 522 391.982651448 L 529 403.63820329 L 537 434.488502696 L 544 413.861979091 L 552 429.007485035 L 559 394.42114502 L 567 413.929093593 L 574 375.852799474 L 582 416.300472662 L 589 405.271322838 L 597 379.409868079 L 604 404.152747805 L 612 399.231017661 L 620 389.074356363"/>
		</g>
		<text class="x-axis-label" x="40.0" y="540">0</text>
		<path class="x-notch" d="M 77.6623376623 525 L 77.6623376623 530"/>
		<text class="x-axis-label" x="115.324675325" y="540">10</text>
		<path class="x-notch" d="M 152.987012987 525 L 152.987012987 530"/>
		<text class="x-axis-label" x="190.649350649" y="540">20</text>
		<path class="x-notch" d="M 228.311688312 525 L 228.311688312 530"/>
		<text class="x-axis-label" x="265.974025974" y="540">30</text>
		<path class="x-notch" d="M 303.636363636 525 L 303.636363636 530"/>
		<text class="x-axis-label" x="341.298701299" y="540">40</text>
		<path class="x-notch" d="M 378.961038961 525 L 378.961038961 530"/>
		<text class="x-axis-label" x="416.623376623" y="540">50</text>
		<path class="x-notch" d="M 454.285714286 525 L 454.285714286 530"/>
		<text class="x-axis-label" x="491.948051948" y="540">60</text>
		<path class="x-notch" d="M 529.61038961 525 L 529.61038961 530"/>
		<text class="x-axis-label" x="567.272727273" y="540">70</text>
		<path class="x-notch" d="M 604.935064935 525 L 604.935064935 530"/>
	</g>
</svg>
