<?xml version="1.0" ?>
<svg height="600" version="1.1" width="800" xmlns="http://www.w3.org/2000/svg" xmlns:svg="http://www.w3.org/2000/svg">
	<style type="text/css">

.x-axis-path, .y-gridline, .x-notch { fill:none; stroke: #a7a9ac; stroke-width:1; }



.y-gridline { stroke-width: 1; }

.y-axis-path, .y-axis-path2, .x-notch-left, .x-notch-right { display: none;}



.x-axis-label, .data-point-label {font-size: 12px; font-weight:normal; font-family: sans-serif; fill: #58595b; text-anchor:middle;}

.y-axis-label {font-size: 12px; font-family: helvetica; fill: #a7a9ac; text-anchor:end;}



.series-1-line { fill: none; stroke: #10b80c; stroke-width:2; }



.series-2-line { fill: none; stroke: #e90f0a; stroke-width: 2;}
</style>
	<rect fill="white" height="600" width="800" x="0" y="0"/>
	<g id="grid" transform="translate(70, 30)">
		<g class="x-axis" id="x_axis">
			<path class="x-axis-path" d="M 0 525 L 660 525"/>
			<path class="x-notch-left" d="M 0 525, L 0 535"/>
			<path class="x-notch-right" d="M 660 525, L 660 535"/>
		</g>
		<g class="y-axis" id="y_axis">
			<path class="y-axis-path" d="M 0 525 L 0 0"/>
			<path class="y-axis-path-2" d="M 660 525 L 660 0"/>
			<path class="y-gridline" d="M 0 525 L 660 525"/>
			<text class="y-axis-label" x="-5" y="525">-200</text>
			<path class="y-gridline" d="M 0 394 L 660 394"/>
			<text class="y-axis-label" x="-5" y="394"> 0</text>
			<path class="y-gridline" d="M 0 263 L 660 263"/>
			<text class="y-axis-label" x="-5" y="263">200</text>
			<path class="y-gridline" d="M 0 132 L 660 132"/>
			<text class="y-axis-label" x="-5" y="132">400</text>
			<path class="y-gridline" d="M 0 1 L 660 1"/>
			<text class="y-axis-label" x="-5" y="1">600</text>
		</g>
		<g>
			<path class="series-1-line" d="M 40 397.444599974 L 46 389.642711515 L 52 388.261670335 L 58 389.295624127 L 64 402.950476044 L 71 379.892079183 L 77 397.808175509 L 83 397.460476136 L 89 381.055134127 L 96 367.703086218 L 102 386.2346594 L 108 386.990036558 L 114 379.524867191 L 121 360.774083803 L 127 366.800319259 L 133 279.743016033 L 139 303.069802362 L 146 296.3825827 L 152 295.883821615 L 158 251.449830239 L 164 241.558073634 L 170 160.944439959 L 177 214.377970407 L 183 201.560434623 L 189 139.733335378 L 195 126.753145616 L 202 161.295992373 L 208 144.344908231 L 214 185.261870945 L 220 163.875658408 L 227 153.414612881 L 233 140.027969304 L 239 164.387916312 L 245 147.065336281 L 252 120.291437142 L 258 75.9501838909 L 264 118.77171963 L 270 77.2866919638 L 276 123.88151018 L 283 119.121685815 L 289 93.996605339 L 295 90.0609186114 L 301 101.997760529 L 308 49.3314492323 L 314 129.760287239 L 320 154.074227442 L 326 87.9741103918 L 333 26.529918172 L 339 0.0 L 345 0.186269365238 L 351 72.4760689645 L 358 104.058178616 L 364 124.180428004 L 370 177.300605019 L 376 188.424539306 L 383 125.017993863 L 389 105.570768889 L 395 128.676939912 L 401 202.859358012 L 407 203.846580483 L 414 139.09352093 L 420 172.603207009 L 426 157.486598909 L 432 258.954312339 L 439 243.710008188 L 445 247.774433809 L 451 275.792102895 L 457 259.816036973 L 464 250.226222663 L 470 250.075772937 L 476 273.170351694 L 482 294.453638941 L 489 293.142151355 L 495 292.597202337 L 501 338.158859875 L 507 175.886046468 L 513 245.714482033 L 520 372.65638041 L 526 386.543802156 L 532 386.068406732 L 538 390.06309763 L 545 384.31630052 L 551 386.151388548 L 557 394.697673885 L 563 394.454486033 L 570 396.254797264 L 576 387.733101558 L 582 407.077220112 L 588 404.395852756 L 595 398.521359595 L 601 398.347725337 L 607 391.904305511 L 613 387.81791933 L 620 393.891067237"/>
			<path class="series-2-line" d="M 40 396.648066419 L 46 394.74235652 L 52 397.817698278 L 58 395.006342623 L 64 383.591352288 L 71 395.270328726 L 77 390.194858682 L 83 391.006086051 L 89 406.760468389 L 96 387.647489131 L 102 392.5341224 L 108 397.873578548 L 114 396.420691527 L 121 407.194022209 L 127 367.251190567 L 133 384.816864417 L 139 383.363977396 L 146 384.175204765 L 152 373.213037308 L 158 381.722253601 L 164 387.967355504 L 170 371.571313513 L 177 353.36398001 L 183 374.552236883 L 189 376.721932885 L 195 387.948086445 L 202 385.136730791 L 208 397.721352984 L 214 371.816030557 L 220 405.230505134 L 227 376.608245439 L 233 380.589232953 L 239 359.212139305 L 245 376.777813155 L 252 385.287029448 L 258 379.305913648 L 264 391.890535842 L 270 381.834014141 L 276 370.871846684 L 283 371.230251175 L 289 387.437456392 L 295 365.154716988 L 301 392.229671274 L 308 378.097743672 L 314 369.399690605 L 320 390.587947478 L 326 370.569322464 L 333 348.28658306 L 339 371.738954323 L 345 359.87114111 L 351 367.021888769 L 358 366.927470382 L 364 370.908457896 L 370 366.285810729 L 376 378.870432923 L 383 344.814298694 L 389 375.964658881 L 395 373.606126104 L 401 385.73792542 L 407 354.851551336 L 414 354.304310071 L 420 371.417161044 L 426 380.379200214 L 432 374.398084414 L 439 385.624237974 L 445 386.888288221 L 451 395.397504513 L 457 379.4542854 L 464 391.586084715 L 470 379.265448625 L 476 378.71820736 L 482 378.170966095 L 489 370.378558783 L 495 384.321649611 L 501 393.283688781 L 507 365.114251965 L 513 385.396863082 L 520 378.962924405 L 526 401.96247279 L 532 405.037814548 L 538 399.509521626 L 545 394.886874459 L 551 390.717050171 L 557 399.226266464 L 563 401.395962466 L 570 402.660012712 L 576 407.093823104 L 582 391.15060399 L 588 402.829580428 L 595 400.471047651 L 601 391.772994584 L 607 389.867284685 L 613 391.131334932 L 620 396.923613957"/>
		</g>
		<text class="x-axis-label" x="40.0" y="540">0</text>
		<path class="x-notch" d="M 71.1827956989 525 L 71.1827956989 530"/>
		<text class="x-axis-label" x="102.365591398" y="540">10</text>
		<path class="x-notch" d="M 133.548387097 525 L 133.548387097 530"/>
		<text class="x-axis-label" x="164.731182796" y="540">20</text>
		<path class="x-notch" d="M 195.913978495 525 L 195.913978495 530"/>
		<text class="x-axis-label" x="227.096774194" y="540">30</text>
		<path class="x-notch" d="M 258.279569892 525 L 258.279569892 530"/>
		<text class="x-axis-label" x="289.462365591" y="540">40</text>
		<path class="x-notch" d="M 320.64516129 525 L 320.64516129 530"/>
		<text class="x-axis-label" x="351.827956989" y="540">50</text>
		<path class="x-notch" d="M 383.010752688 525 L 383.010752688 530"/>
		<text class="x-axis-label" x="414.193548387" y="540">60</text>
		<path class="x-notch" d="M 445.376344086 525 L 445.376344086 530"/>
		<text class="x-axis-label" x="476.559139785" y="540">70</text>
		<path class="x-notch" d="M 507.741935484 525 L 507.741935484 530"/>
		<text class="x-axis-label" x="538.924731183" y="540">80</text>
		<path class="x-notch" d="M 570.107526882 525 L 570.107526882 530"/>
		<text class="x-axis-label" x="601.290322581" y="540">90</text>
		<path class="x-notch" d="M 632.47311828 525 L 632.47311828 530"/>
	</g>
</svg>
