<?xml version="1.0" ?>
<svg height="600" version="1.1" width="800" xmlns="http://www.w3.org/2000/svg" xmlns:svg="http://www.w3.org/2000/svg">
	<style type="text/css">
		

.x-axis-path, .y-gridline, .x-notch { fill:none; stroke: #a7a9ac; stroke-width:1; }



.y-gridline { stroke-width: 1; }

.y-axis-path, .y-axis-path2, .x-notch-left, .x-notch-right { display: none;}



.x-axis-label, .data-point-label {font-size: 12px; font-weight:normal; font-family: sans-serif; fill: #58595b; text-anchor:middle;}

.y-axis-label {font-size: 12px; font-family: helvetica; fill: #a7a9ac; text-anchor:end;}



.series-1-line { fill: none; stroke: #10b80c; stroke-width:2; }



.series-2-line { fill: none; stroke: #e90f0a; stroke-width: 2;}

	</style>
	<rect fill="white" height="600" width="800" x="0" y="0"/>
	<g id="grid" transform="translate(70, 30)">
		<g class="x-axis" id="x_axis">
			<path class="x-axis-path" d="M 0 525 L 660 525"/>
			<path class="x-notch-left" d="M 0 525, L 0 535"/>
			<path class="x-notch-right" d="M 660 525, L 660 535"/>
		</g>
		<g class="y-axis" id="y_axis">
			<path class="y-axis-path" d="M 0 525 L 0 0"/>
			<path class="y-axis-path-2" d="M 660 525 L 660 0"/>
			<path class="y-gridline" d="M 0 525 L 660 525"/>
			<text class="y-axis-label" x="-5" y="525">
				-200
			</text>
			<path class="y-gridline" d="M 0 394 L 660 394"/>
			<text class="y-axis-label" x="-5" y="394">
				 0
			</text>
			<path class="y-gridline" d="M 0 263 L 660 263"/>
			<text class="y-axis-label" x="-5" y="263">
				200
			</text>
			<path class="y-gridline" d="M 0 132 L 660 132"/>
			<text class="y-axis-label" x="-5" y="132">
				400
			</text>
			<path class="y-gridline" d="M 0 1 L 660 1"/>
			<text class="y-axis-label" x="-5" y="1">
				600
			</text>
		</g>
		<g>
			<path class="series-1-line" d="M 40 392.794531437 L 42 422.226894438 L 45 368.356515255 L 47 402.24665925 L 50 381.020549257 L 52 404.630311338 L 55 372.881605288 L 57 362.117301279 L 60 345.910038634 L 62 391.157518636 L 65 396.754732673 L 67 382.275847706 L 70 351.421962069 L 72 388.739294264 L 75 403.903257334 L 77 372.897987858 L 80 381.784725416 L 83 383.742577341 L 85 382.607468199 L 88 409.704735478 L 90 368.873708681 L 93 376.366059156 L 95 404.994432048 L 98 375.930423774 L 100 391.564622896 L 103 386.471299429 L 105 319.211965808 L 108 369.462445163 L 110 338.411523997 L 113 366.646298907 L 115 336.671858762 L 118 359.856799944 L 121 321.528100703 L 123 356.296980578 L 126 389.65680806 L 128 324.353164413 L 131 319.836755297 L 133 363.839812833 L 136 369.057621123 L 138 334.382239692 L 141 326.72721782 L 143 301.664473648 L 146 330.536006832 L 148 337.345237733 L 151 326.733500249 L 153 308.267543414 L 156 308.466504355 L 159 263.980977062 L 161 263.436737967 L 164 239.451420965 L 166 240.635796086 L 169 297.724094233 L 171 254.983265688 L 174 272.058213193 L 176 265.66109641 L 179 290.393700812 L 181 254.17160231 L 184 260.026405412 L 186 238.361045747 L 189 273.236840458 L 191 259.818825053 L 194 266.7959974 L 197 200.294529124 L 199 268.01186509 L 202 199.964625892 L 204 199.738765934 L 207 213.447788387 L 209 150.600820607 L 212 190.661748352 L 214 175.683296715 L 217 189.270265947 L 219 155.732155609 L 222 135.720427852 L 224 233.263455149 L 227 144.199408308 L 229 111.935051056 L 232 151.905385034 L 235 101.900734111 L 237 123.266467312 L 240 121.281952908 L 242 109.471681184 L 245 53.265496668 L 247 57.2242171816 L 250 104.367306697 L 252 51.4813955449 L 255 66.4800190783 L 257 118.640300181 L 260 71.5325209462 L 262 38.2676111308 L 265 47.2307502202 L 267 18.3479294788 L 270 38.2882892171 L 273 12.346572629 L 275 56.6989956818 L 278 7.25588418771 L 280 26.9686950926 L 283 97.8412014223 L 285 12.8564759766 L 288 0.0 L 290 119.711061731 L 293 76.4233590659 L 295 40.3384521686 L 298 104.993813447 L 300 70.6675609957 L 303 149.105001621 L 305 48.003101107 L 308 91.4001502112 L 311 67.1262577654 L 313 116.133970415 L 316 72.8460312125 L 318 55.0927611083 L 321 113.561254103 L 323 42.9359954294 L 326 95.7181329599 L 328 16.1619373775 L 331 37.0576710643 L 333 48.2494641132 L 336 63.6719623968 L 338 107.084149885 L 341 114.303536375 L 343 143.61431923 L 346 157.672707199 L 348 166.029128245 L 351 191.716633521 L 354 183.955406424 L 356 212.522989243 L 359 160.653715186 L 361 162.232634438 L 364 155.942195955 L 366 161.447397002 L 369 166.619317066 L 371 177.52348082 L 374 199.495458989 L 376 232.264179887 L 379 157.150390377 L 381 153.407221528 L 384 251.829457779 L 386 194.182761417 L 389 172.820879043 L 392 185.134804801 L 394 242.466026703 L 397 209.792696547 L 399 229.824359664 L 402 221.911039116 L 404 201.336825781 L 407 194.440378866 L 409 190.257250733 L 412 248.134637143 L 414 249.75873501 L 417 203.287240974 L 419 285.500762242 L 422 197.75659325 L 424 302.213604333 L 427 280.594132895 L 430 277.684284774 L 432 291.287102001 L 435 292.471713659 L 437 312.396935014 L 440 291.504815616 L 442 325.365392455 L 445 276.118843414 L 447 304.049904497 L 450 276.122221166 L 452 321.809187378 L 455 332.273155312 L 457 339.097997671 L 460 343.648770918 L 462 286.108516318 L 465 343.758826969 L 468 328.461286584 L 470 337.878813728 L 473 348.994914858 L 475 345.570125145 L 478 345.38968034 L 480 356.611750156 L 483 387.60620515 L 485 344.137078415 L 488 359.650170465 L 490 359.894783095 L 493 353.194189023 L 495 357.290337678 L 498 373.546156689 L 500 370.303264122 L 503 395.399189738 L 506 364.711589787 L 508 357.981665095 L 511 375.99637509 L 513 377.66659772 L 516 389.161158448 L 518 390.815769619 L 521 383.615845414 L 523 406.224818395 L 526 400.737660409 L 528 383.590635274 L 531 363.138002085 L 533 402.305055566 L 536 398.592400022 L 538 389.117460556 L 541 393.789340875 L 544 394.200475729 L 546 398.05370063 L 549 391.747650688 L 551 409.687141838 L 554 419.317079432 L 556 411.403995421 L 559 413.482954417 L 561 404.084179945 L 564 396.974612969 L 566 402.632144005 L 569 394.415819241 L 571 393.159129952 L 574 398.998558132 L 576 404.034469277 L 579 403.081020742 L 582 388.026167574 L 584 405.919770497 L 587 405.951972678 L 589 388.441153254 L 592 387.457191414 L 594 401.226767402 L 597 401.213317894 L 599 399.547182627 L 602 397.517253072 L 604 407.632565101 L 607 395.534427545 L 609 390.578059145 L 612 392.566187838 L 614 397.783996128 L 617 393.146006866 L 620 397.833025569"/>
			<path class="series-2-line" d="M 40 372.106841722 L 42 358.880810026 L 45 426.077442971 L 47 409.303352541 L 50 388.389860254 L 52 360.971593622 L 55 367.259884964 L 57 305.543717235 L 60 285.812911193 L 62 319.302986164 L 65 357.523806113 L 67 321.826735768 L 70 349.994722637 L 72 375.205993894 L 75 327.682061102 L 77 379.503772865 L 80 342.624016275 L 83 348.912307617 L 85 376.488951364 L 88 358.532174689 L 90 374.873299112 L 93 394.171139145 L 95 344.873176986 L 98 439.862936681 L 100 411.261983804 L 103 364.329394134 L 105 398.410812227 L 108 366.261800616 L 110 402.117248076 L 113 414.318970641 L 115 443.669643755 L 118 390.232279739 L 121 454.472197072 L 123 369.693647571 L 126 389.582830727 L 128 395.279778947 L 131 419.899707082 L 133 347.539363151 L 136 352.644968248 L 138 331.140132839 L 141 361.082149075 L 143 292.861207 L 146 297.966812098 L 148 239.20735998 L 151 269.149376217 L 153 302.048108065 L 156 305.971026917 L 159 292.744995222 L 161 274.196875425 L 164 291.720686091 L 166 280.268683763 L 169 196.081477384 L 171 279.835717755 L 174 280.210577873 L 176 252.200968119 L 179 303.43133676 L 181 269.508295781 L 184 290.580165182 L 186 315.200093317 L 189 306.113463478 L 191 220.152227732 L 194 273.747968863 L 197 281.810289572 L 199 199.988455683 L 202 287.88209791 L 204 265.785919379 L 207 283.901073168 L 209 321.530549995 L 212 264.545127245 L 214 306.905349051 L 217 251.693955668 L 219 237.285237727 L 222 350.015291093 L 224 343.294033743 L 227 296.361444073 L 229 290.822872968 L 232 271.092066926 L 235 265.553495821 L 237 242.274631045 L 240 240.875461797 L 242 203.995705207 L 245 197.274447857 L 247 145.019770086 L 250 205.711628684 L 252 165.28381336 L 255 259.090886811 L 257 159.528759251 L 260 232.63882342 L 262 244.840545985 L 265 265.321072264 L 267 285.801598542 L 270 254.243930053 L 273 230.965065278 L 275 219.513062949 L 278 264.830000366 L 280 222.628155675 L 283 271.493151827 L 285 280.146815658 L 288 245.041088435 L 290 262.564899102 L 293 246.973494917 L 295 284.011628621 L 298 287.934547474 L 300 304.275671896 L 303 233.689357332 L 305 312.121509601 L 308 288.251301703 L 311 258.467662581 L 313 281.904904472 L 316 243.251118514 L 318 280.289252219 L 321 234.539348794 L 323 286.361060557 L 326 205.13056979 L 328 243.35138974 L 331 224.21192682 L 333 219.85604196 L 336 247.432685707 L 338 221.197105319 L 341 236.946886619 L 343 196.519071295 L 346 275.542566686 L 348 275.326083683 L 351 292.849894349 L 354 316.28713624 L 356 253.388282266 L 359 285.104327869 L 361 304.402167903 L 364 329.022096038 L 366 266.123242064 L 369 232.200201086 L 371 272.786393525 L 374 224.079774488 L 376 267.031339416 L 379 281.007091348 L 381 300.304931382 L 384 271.703978505 L 386 259.069289932 L 389 305.568913594 L 392 310.674518691 L 394 257.828497798 L 397 293.092602135 L 399 293.467462254 L 402 271.371283723 L 404 240.996301478 L 407 314.106365647 L 409 309.750480786 L 412 287.062959133 L 414 276.202299926 L 417 296.091483083 L 419 282.274108265 L 422 306.302693277 L 424 281.841142257 L 427 345.489716467 L 430 303.879214898 L 432 315.489594342 L 435 327.099973785 L 437 297.907677785 L 440 317.205517819 L 442 374.349317684 L 445 365.854030967 L 447 333.113676234 L 450 342.95002631 L 452 353.969062631 L 455 347.839148403 L 457 332.83908734 L 460 349.771554885 L 462 366.704022429 L 465 379.497088117 L 468 356.218223341 L 470 328.799956709 L 473 336.270934295 L 475 352.020715595 L 478 322.828419596 L 480 313.741789757 L 483 333.630972913 L 485 369.486420373 L 488 359.808447411 L 490 379.697630567 L 493 329.808325285 L 495 371.577203969 L 498 338.245506113 L 500 348.673199311 L 503 343.134628206 L 506 322.22113592 L 508 369.312102704 L 511 338.345777338 L 513 389.576145979 L 516 337.91281133 L 518 345.383788917 L 521 396.614157558 L 523 363.873802824 L 526 355.378516107 L 528 366.988895551 L 531 363.815696935 L 533 377.200105745 L 536 414.829582572 L 538 405.742952733 L 541 403.752440362 L 544 397.622526134 L 546 408.050219333 L 549 388.910756413 L 551 415.896057038 L 554 401.487339097 L 556 402.453542338 L 559 389.818853765 L 561 415.030125022 L 564 405.943495183 L 566 411.640443403 L 569 413.789332888 L 571 414.164193007 L 574 414.539053125 L 576 424.966746324 L 579 424.158920197 L 582 409.158859134 L 584 397.115513683 L 587 403.995148148 L 589 426.249703793 L 592 407.110240874 L 594 415.763904705 L 597 406.677274866 L 599 401.730046883 L 602 407.426995103 L 604 409.575884589 L 607 394.575823526 L 609 395.542026766 L 612 397.09957313 L 614 402.205178227 L 617 399.623322734 L 620 395.267437873"/>
		</g>
		<text class="x-axis-label" x="40.0" y="540">
			0
		</text>
		<path class="x-notch" d="M 52.6637554585 525 L 52.6637554585 530"/>
		<text class="x-axis-label" x="65.327510917" y="540">
			10
		</text>
		<path class="x-notch" d="M 77.9912663755 525 L 77.9912663755 530"/>
		<text class="x-axis-label" x="90.6550218341" y="540">
			20
		</text>
		<path class="x-notch" d="M 103.318777293 525 L 103.318777293 530"/>
		<text class="x-axis-label" x="115.982532751" y="540">
			30
		</text>
		<path class="x-notch" d="M 128.64628821 525 L 128.64628821 530"/>
		<text class="x-axis-label" x="141.310043668" y="540">
			40
		</text>
		<path class="x-notch" d="M 153.973799127 525 L 153.973799127 530"/>
		<text class="x-axis-label" x="166.637554585" y="540">
			50
		</text>
		<path class="x-notch" d="M 179.301310044 525 L 179.301310044 530"/>
		<text class="x-axis-label" x="191.965065502" y="540">
			60
		</text>
		<path class="x-notch" d="M 204.628820961 525 L 204.628820961 530"/>
		<text class="x-axis-label" x="217.292576419" y="540">
			70
		</text>
		<path class="x-notch" d="M 229.956331878 525 L 229.956331878 530"/>
		<text class="x-axis-label" x="242.620087336" y="540">
			80
		</text>
		<path class="x-notch" d="M 255.283842795 525 L 255.283842795 530"/>
		<text class="x-axis-label" x="267.947598253" y="540">
			90
		</text>
		<path class="x-notch" d="M 280.611353712 525 L 280.611353712 530"/>
		<text class="x-axis-label" x="293.27510917" y="540">
			100
		</text>
		<path class="x-notch" d="M 305.938864629 525 L 305.938864629 530"/>
		<text class="x-axis-label" x="318.602620087" y="540">
			110
		</text>
		<path class="x-notch" d="M 331.266375546 525 L 331.266375546 530"/>
		<text class="x-axis-label" x="343.930131004" y="540">
			120
		</text>
		<path class="x-notch" d="M 356.593886463 525 L 356.593886463 530"/>
		<text class="x-axis-label" x="369.257641921" y="540">
			130
		</text>
		<path class="x-notch" d="M 381.92139738 525 L 381.92139738 530"/>
		<text class="x-axis-label" x="394.585152838" y="540">
			140
		</text>
		<path class="x-notch" d="M 407.248908297 525 L 407.248908297 530"/>
		<text class="x-axis-label" x="419.912663755" y="540">
			150
		</text>
		<path class="x-notch" d="M 432.576419214 525 L 432.576419214 530"/>
		<text class="x-axis-label" x="445.240174672" y="540">
			160
		</text>
		<path class="x-notch" d="M 457.903930131 525 L 457.903930131 530"/>
		<text class="x-axis-label" x="470.56768559" y="540">
			170
		</text>
		<path class="x-notch" d="M 483.231441048 525 L 483.231441048 530"/>
		<text class="x-axis-label" x="495.895196507" y="540">
			180
		</text>
		<path class="x-notch" d="M 508.558951965 525 L 508.558951965 530"/>
		<text class="x-axis-label" x="521.222707424" y="540">
			190
		</text>
		<path class="x-notch" d="M 533.886462882 525 L 533.886462882 530"/>
		<text class="x-axis-label" x="546.550218341" y="540">
			200
		</text>
		<path class="x-notch" d="M 559.213973799 525 L 559.213973799 530"/>
		<text class="x-axis-label" x="571.877729258" y="540">
			210
		</text>
		<path class="x-notch" d="M 584.541484716 525 L 584.541484716 530"/>
		<text class="x-axis-label" x="597.205240175" y="540">
			220
		</text>
		<path class="x-notch" d="M 609.868995633 525 L 609.868995633 530"/>
	</g>
</svg>
