<?xml version="1.0" ?>
<svg height="600" version="1.1" width="800" xmlns="http://www.w3.org/2000/svg" xmlns:svg="http://www.w3.org/2000/svg">
	<style type="text/css">
		

.x-axis-path, .y-gridline, .x-notch { fill:none; stroke: #a7a9ac; stroke-width:1; }



.y-gridline { stroke-width: 1; }

.y-axis-path, .y-axis-path2, .x-notch-left, .x-notch-right { display: none;}



.x-axis-label, .data-point-label {font-size: 12px; font-weight:normal; font-family: sans-serif; fill: #58595b; text-anchor:middle;}

.y-axis-label {font-size: 12px; font-family: helvetica; fill: #a7a9ac; text-anchor:end;}



.series-1-line { fill: none; stroke: #10b80c; stroke-width:2; }



.series-2-line { fill: none; stroke: #e90f0a; stroke-width: 2;}

	</style>
	<rect fill="white" height="600" width="800" x="0" y="0"/>
	<g id="grid" transform="translate(70, 30)">
		<g class="x-axis" id="x_axis">
			<path class="x-axis-path" d="M 0 525 L 660 525"/>
			<path class="x-notch-left" d="M 0 525, L 0 535"/>
			<path class="x-notch-right" d="M 660 525, L 660 535"/>
		</g>
		<g class="y-axis" id="y_axis">
			<path class="y-axis-path" d="M 0 525 L 0 0"/>
			<path class="y-axis-path-2" d="M 660 525 L 660 0"/>
			<path class="y-gridline" d="M 0 525 L 660 525"/>
			<text class="y-axis-label" x="-5" y="525">
				-200
			</text>
			<path class="y-gridline" d="M 0 394 L 660 394"/>
			<text class="y-axis-label" x="-5" y="394">
				 0
			</text>
			<path class="y-gridline" d="M 0 263 L 660 263"/>
			<text class="y-axis-label" x="-5" y="263">
				200
			</text>
			<path class="y-gridline" d="M 0 132 L 660 132"/>
			<text class="y-axis-label" x="-5" y="132">
				400
			</text>
			<path class="y-gridline" d="M 0 1 L 660 1"/>
			<text class="y-axis-label" x="-5" y="1">
				600
			</text>
		</g>
		<g>
			<path class="series-1-line" d="M 40 410.069738625 L 42 399.700659399 L 45 401.588519868 L 48 381.856534597 L 50 372.794938431 L 53 388.997657634 L 56 388.863230491 L 59 384.718499577 L 61 382.631143712 L 64 390.412605789 L 67 367.942984364 L 70 365.890715937 L 72 381.343543151 L 75 355.596102223 L 78 366.81232529 L 81 344.27307298 L 83 358.924057036 L 86 315.932908281 L 89 325.143707466 L 91 348.58232678 L 94 326.217423678 L 97 320.503549895 L 100 332.52161612 L 102 331.184152244 L 105 313.858240438 L 108 352.657269742 L 111 294.27062356 L 113 296.786249974 L 116 279.878667468 L 119 260.303623684 L 122 275.913392384 L 124 263.539161272 L 127 242.150722531 L 130 276.399264715 L 133 265.419827265 L 135 228.84478375 L 138 251.411657026 L 141 230.982002929 L 143 246.469917581 L 146 230.991944179 L 149 225.121128909 L 152 240.347383751 L 154 219.081071054 L 157 204.073922111 L 160 209.32718468 L 163 235.084566857 L 165 239.692655759 L 168 208.487894235 L 171 251.436761075 L 174 184.55868289 L 176 134.610701556 L 179 164.67459076 L 182 149.876878463 L 185 206.477750654 L 187 184.810244383 L 190 168.0073802 L 193 150.733691557 L 195 133.285653707 L 198 158.990812721 L 201 146.912784865 L 204 156.298205253 L 206 162.00488456 L 209 160.405760876 L 212 200.233477704 L 215 169.238152826 L 217 164.465655966 L 220 156.502650204 L 223 94.559116989 L 226 139.739708086 L 228 134.758046576 L 231 105.941950796 L 234 111.28225197 L 236 130.065393846 L 239 107.020501634 L 242 91.8390034836 L 245 75.6288178082 L 247 106.303065237 L 250 84.1125113428 L 253 85.0940823263 L 256 57.3937126764 L 258 126.234660832 L 261 91.8742058493 L 264 95.104908811 L 267 117.409850282 L 269 89.8841018353 L 272 61.3644813064 L 275 78.6829266404 L 278 96.0712748549 L 280 140.258265866 L 283 99.5162490891 L 286 61.3024318213 L 288 117.554605597 L 291 128.735741226 L 294 112.508419825 L 297 100.308537921 L 299 101.742981651 L 302 114.144833729 L 305 93.1050934032 L 308 126.272724899 L 310 117.03705152 L 313 92.5796859307 L 316 75.4455310536 L 319 74.0207565768 L 321 98.2438113274 L 324 58.1466962223 L 327 119.246104366 L 330 89.9072329578 L 332 45.1546404142 L 335 134.796455426 L 338 110.443808159 L 340 64.3315093924 L 343 89.2522329693 L 346 120.536566627 L 349 69.3855485602 L 351 87.4538858841 L 354 108.852265874 L 357 140.938986681 L 360 136.951197254 L 362 153.136508736 L 365 139.018513552 L 368 123.976549167 L 371 110.870105782 L 373 91.8703327846 L 376 145.280696075 L 379 141.571702182 L 381 158.245245845 L 384 118.374975106 L 387 118.240547963 L 390 116.048473776 L 392 146.408838232 L 395 123.276907414 L 398 125.775398103 L 401 142.326815722 L 403 124.058983001 L 406 166.851180351 L 409 121.227113765 L 412 90.161886006 L 414 125.927347895 L 417 82.5175978445 L 420 131.795531319 L 423 116.282742474 L 425 106.942078778 L 428 85.1353107364 L 431 62.212544569 L 433 128.507885495 L 436 69.8070843442 L 439 112.389845048 L 442 54.9094883508 L 444 57.5298330879 L 447 79.3642220951 L 450 108.905335672 L 453 48.5831684893 L 455 65.0472755063 L 458 0.0 L 461 29.1747354451 L 464 21.2465451263 L 466 65.9913992022 L 469 14.7704782547 L 472 60.3696706476 L 475 100.685891652 L 477 61.9490267613 L 480 85.7363444906 L 483 106.280386164 L 485 93.8362521719 L 488 41.0461883556 L 491 73.6385490644 L 494 135.714421569 L 496 121.212912527 L 499 148.714058777 L 502 175.779196009 L 505 268.942810616 L 507 288.859358339 L 510 306.979918826 L 513 279.628247592 L 516 233.167522405 L 518 288.373872931 L 521 318.228597486 L 524 314.763855681 L 526 329.32780113 L 529 349.540824105 L 532 336.904933184 L 535 289.17099639 L 537 330.080167898 L 540 353.954524233 L 543 392.92817474 L 546 393.281979777 L 548 401.499178876 L 551 401.73085787 L 554 398.579999038 L 557 397.259942884 L 559 403.349864053 L 562 397.165437806 L 565 403.481931346 L 568 390.602060333 L 570 386.614270905 L 573 399.748335255 L 576 397.9226392 L 578 397.63127057 L 581 393.312190449 L 584 387.563501223 L 587 408.874842607 L 589 396.744591588 L 592 397.987550385 L 595 402.787396216 L 598 398.433500652 L 600 406.999398165 L 603 397.74604507 L 606 389.870077915 L 609 393.658643942 L 611 388.415594618 L 614 398.53322728 L 617 401.816153405 L 620 390.435794376"/>
			<path class="series-2-line" d="M 40 393.75 L 42 403.882795461 L 45 384.776059219 L 48 396.948822007 L 50 388.721911515 L 53 390.694837664 L 56 395.387720249 L 59 389.200777085 L 61 380.293877484 L 64 396.546574929 L 67 384.91971889 L 70 397.092481678 L 72 383.425658311 L 75 379.278682475 L 78 390.091467045 L 81 389.344436756 L 83 394.717308451 L 86 402.130147475 L 89 380.983443904 L 91 394.516184912 L 94 393.089165513 L 97 393.022124334 L 100 384.795213841 L 102 391.528063755 L 105 399.620891888 L 108 377.114210099 L 111 399.486809528 L 113 388.539942599 L 116 384.392966763 L 119 398.60569688 L 122 386.97884084 L 124 391.671723426 L 127 397.044595121 L 130 394.937586614 L 133 394.190556324 L 135 381.883711176 L 138 398.81639773 L 141 387.189541691 L 143 394.602380715 L 146 379.575579129 L 149 377.468570621 L 152 372.641605675 L 154 385.494357574 L 157 376.587457972 L 160 389.44020987 L 163 385.973223143 L 165 393.386062167 L 168 391.959042768 L 171 385.092110495 L 174 379.58515644 L 176 384.958028135 L 179 372.651182987 L 182 384.143956666 L 185 369.11715508 L 187 364.970179244 L 190 371.023040049 L 193 370.955998869 L 195 371.568946798 L 198 376.261829384 L 201 361.235027798 L 204 365.927910384 L 206 387.620520704 L 209 382.113566649 L 212 358.246906642 L 215 377.219560524 L 217 362.872748048 L 220 368.925608852 L 223 389.258240954 L 226 378.991363133 L 228 370.764452641 L 231 367.977455024 L 234 367.230424734 L 236 364.443427117 L 239 363.016407719 L 242 354.789497226 L 245 347.922564953 L 247 346.495545554 L 250 344.388537046 L 253 360.641234491 L 256 342.894476468 L 258 354.387250147 L 261 367.919991155 L 264 378.052786616 L 267 356.226093936 L 269 364.318922069 L 272 368.331815545 L 275 355.344981287 L 278 357.997896545 L 280 370.170659334 L 283 371.463596373 L 286 376.156478959 L 288 362.489655592 L 291 352.222777771 L 294 374.595377201 L 297 378.608270677 L 299 350.661676013 L 302 362.154449693 L 305 366.167343169 L 308 373.580182192 L 310 392.552836075 L 313 372.766110723 L 316 377.458993309 L 319 371.272050145 L 321 368.485052528 L 324 348.698327176 L 327 347.951296887 L 330 373.723841863 L 332 337.617377887 L 335 366.109879301 L 338 356.52299059 L 340 346.936101879 L 343 367.948723089 L 346 350.881954175 L 349 358.294793199 L 351 360.947708456 L 354 347.960874198 L 357 364.893560753 L 360 360.746584917 L 362 365.439467503 L 365 350.412665917 L 368 346.94567919 L 371 359.798431088 L 373 363.811324565 L 376 369.18419626 L 379 348.03749269 L 381 356.130320822 L 384 354.023312314 L 387 358.7161949 L 390 339.609458658 L 392 334.102504603 L 395 346.275267392 L 398 364.567932165 L 401 365.180880095 L 403 334.514328993 L 406 352.127004657 L 409 345.940061493 L 412 349.27296586 L 414 349.20592468 L 417 342.338992407 L 420 329.352158149 L 423 319.765269438 L 425 302.018511414 L 428 319.631187078 L 431 325.684047883 L 433 336.496832453 L 436 328.269921961 L 439 325.482924343 L 442 312.496090085 L 444 311.749059796 L 447 310.322040398 L 450 326.574737843 L 453 332.627598647 L 455 320.320753499 L 458 320.933701429 L 461 314.746758264 L 464 315.359706194 L 466 320.05258878 L 469 311.825678287 L 472 315.838571764 L 475 321.891432568 L 477 328.624282482 L 480 340.797045271 L 483 328.490200123 L 485 317.543333193 L 488 315.436324685 L 491 333.049000349 L 494 339.101861154 L 496 330.874950661 L 499 347.127648107 L 502 351.820530692 L 505 361.273337044 L 507 367.326197848 L 510 361.819243794 L 513 342.712507551 L 516 361.005172325 L 518 377.937858879 L 521 371.750915715 L 524 365.563972551 L 526 384.536626434 L 529 397.389378332 L 532 389.842456949 L 535 368.015764269 L 537 387.668407261 L 540 386.241387863 L 543 389.57429223 L 546 397.667120362 L 548 398.960057401 L 551 399.573005331 L 554 397.465996823 L 557 401.4788903 L 559 389.85203426 L 562 410.184666362 L 565 389.717951901 L 568 393.730845377 L 570 389.583869541 L 573 392.916773908 L 576 396.249678275 L 578 398.902593533 L 581 393.395639478 L 584 398.768511173 L 587 399.381459103 L 589 392.514526829 L 592 394.487452978 L 595 398.500346454 L 598 398.433305274 L 600 398.366264095 L 603 393.539299149 L 606 385.992377766 L 609 388.645293024 L 611 394.698153829 L 614 391.231167102 L 617 393.20409325 L 620 401.976910492"/>
		</g>
		<text class="x-axis-label" x="40.0" y="540">
			0
		</text>
		<path class="x-notch" d="M 53.679245283 525 L 53.679245283 530"/>
		<text class="x-axis-label" x="67.358490566" y="540">
			10
		</text>
		<path class="x-notch" d="M 81.0377358491 525 L 81.0377358491 530"/>
		<text class="x-axis-label" x="94.7169811321" y="540">
			20
		</text>
		<path class="x-notch" d="M 108.396226415 525 L 108.396226415 530"/>
		<text class="x-axis-label" x="122.075471698" y="540">
			30
		</text>
		<path class="x-notch" d="M 135.754716981 525 L 135.754716981 530"/>
		<text class="x-axis-label" x="149.433962264" y="540">
			40
		</text>
		<path class="x-notch" d="M 163.113207547 525 L 163.113207547 530"/>
		<text class="x-axis-label" x="176.79245283" y="540">
			50
		</text>
		<path class="x-notch" d="M 190.471698113 525 L 190.471698113 530"/>
		<text class="x-axis-label" x="204.150943396" y="540">
			60
		</text>
		<path class="x-notch" d="M 217.830188679 525 L 217.830188679 530"/>
		<text class="x-axis-label" x="231.509433962" y="540">
			70
		</text>
		<path class="x-notch" d="M 245.188679245 525 L 245.188679245 530"/>
		<text class="x-axis-label" x="258.867924528" y="540">
			80
		</text>
		<path class="x-notch" d="M 272.547169811 525 L 272.547169811 530"/>
		<text class="x-axis-label" x="286.226415094" y="540">
			90
		</text>
		<path class="x-notch" d="M 299.905660377 525 L 299.905660377 530"/>
		<text class="x-axis-label" x="313.58490566" y="540">
			100
		</text>
		<path class="x-notch" d="M 327.264150943 525 L 327.264150943 530"/>
		<text class="x-axis-label" x="340.943396226" y="540">
			110
		</text>
		<path class="x-notch" d="M 354.622641509 525 L 354.622641509 530"/>
		<text class="x-axis-label" x="368.301886792" y="540">
			120
		</text>
		<path class="x-notch" d="M 381.981132075 525 L 381.981132075 530"/>
		<text class="x-axis-label" x="395.660377358" y="540">
			130
		</text>
		<path class="x-notch" d="M 409.339622642 525 L 409.339622642 530"/>
		<text class="x-axis-label" x="423.018867925" y="540">
			140
		</text>
		<path class="x-notch" d="M 436.698113208 525 L 436.698113208 530"/>
		<text class="x-axis-label" x="450.377358491" y="540">
			150
		</text>
		<path class="x-notch" d="M 464.056603774 525 L 464.056603774 530"/>
		<text class="x-axis-label" x="477.735849057" y="540">
			160
		</text>
		<path class="x-notch" d="M 491.41509434 525 L 491.41509434 530"/>
		<text class="x-axis-label" x="505.094339623" y="540">
			170
		</text>
		<path class="x-notch" d="M 518.773584906 525 L 518.773584906 530"/>
		<text class="x-axis-label" x="532.452830189" y="540">
			180
		</text>
		<path class="x-notch" d="M 546.132075472 525 L 546.132075472 530"/>
		<text class="x-axis-label" x="559.811320755" y="540">
			190
		</text>
		<path class="x-notch" d="M 573.490566038 525 L 573.490566038 530"/>
		<text class="x-axis-label" x="587.169811321" y="540">
			200
		</text>
		<path class="x-notch" d="M 600.849056604 525 L 600.849056604 530"/>
		<text class="x-axis-label" x="614.528301887" y="540">
			210
		</text>
		<path class="x-notch" d="M 628.20754717 525 L 628.20754717 530"/>
	</g>
</svg>
