<?xml version="1.0" ?>
<svg height="600" version="1.1" width="800" xmlns="http://www.w3.org/2000/svg" xmlns:svg="http://www.w3.org/2000/svg">
	<style type="text/css">
		

.x-axis-path, .y-gridline, .x-notch { fill:none; stroke: #a7a9ac; stroke-width:1; }



.y-gridline { stroke-width: 1; }

.y-axis-path, .y-axis-path2, .x-notch-left, .x-notch-right { display: none;}



.x-axis-label, .data-point-label {font-size: 12px; font-weight:normal; font-family: sans-serif; fill: #58595b; text-anchor:middle;}

.y-axis-label {font-size: 12px; font-family: helvetica; fill: #a7a9ac; text-anchor:end;}



.series-1-line { fill: none; stroke: #10b80c; stroke-width:2; }



.series-2-line { fill: none; stroke: #e90f0a; stroke-width: 2;}

	</style>
	<rect fill="white" height="600" width="800" x="0" y="0"/>
	<g id="grid" transform="translate(70, 30)">
		<g class="x-axis" id="x_axis">
			<path class="x-axis-path" d="M 0 525 L 660 525"/>
			<path class="x-notch-left" d="M 0 525, L 0 535"/>
			<path class="x-notch-right" d="M 660 525, L 660 535"/>
		</g>
		<g class="y-axis" id="y_axis">
			<path class="y-axis-path" d="M 0 525 L 0 0"/>
			<path class="y-axis-path-2" d="M 660 525 L 660 0"/>
			<path class="y-gridline" d="M 0 525 L 660 525"/>
			<text class="y-axis-label" x="-5" y="525">
				-100
			</text>
			<path class="y-gridline" d="M 0 394 L 660 394"/>
			<text class="y-axis-label" x="-5" y="394">
				 0
			</text>
			<path class="y-gridline" d="M 0 263 L 660 263"/>
			<text class="y-axis-label" x="-5" y="263">
				100
			</text>
			<path class="y-gridline" d="M 0 132 L 660 132"/>
			<text class="y-axis-label" x="-5" y="132">
				200
			</text>
			<path class="y-gridline" d="M 0 1 L 660 1"/>
			<text class="y-axis-label" x="-5" y="1">
				300
			</text>
		</g>
		<g>
			<path class="series-1-line" d="M 40 391.905885 L 47 416.960933148 L 54 369.929281296 L 61 438.329904444 L 69 360.201977593 L 76 327.641950741 L 83 431.917923889 L 90 405.549747037 L 98 412.364195185 L 105 420.962593333 L 112 393.954966481 L 119 374.11568963 L 127 370.295737778 L 134 411.841035926 L 141 351.044934074 L 148 292.200782222 L 156 379.41425537 L 163 401.339253519 L 170 356.125151667 L 177 356.646424815 L 185 323.009097963 L 192 339.515571111 L 199 259.267694259 L 206 295.529392407 L 214 258.190290556 L 221 232.495163704 L 228 237.021136852 L 235 234.042235 L 243 264.380883148 L 250 190.426181296 L 257 242.505079444 L 264 64.7956775926 L 272 183.644075741 L 279 43.0883988889 L 286 222.950722037 L 293 243.226695185 L 301 191.685818333 L 308 192.846016481 L 315 100.34831463 L 322 137.753987778 L 330 137.029960926 L 337 206.373484074 L 344 147.798657222 L 351 248.13713037 L 359 171.860353519 L 366 241.203876667 L 373 223.653074815 L 380 270.179047963 L 388 238.224346111 L 395 207.245619259 L 402 226.074692407 L 409 243.658465556 L 417 153.314313704 L 424 211.013336852 L 431 158.32796 L 438 186.041608148 L 446 252.826806296 L 453 310.122629444 L 460 238.355077593 L 467 261.794700741 L 475 326.392748889 L 482 272.697797037 L 489 311.415970185 L 496 319.845843333 L 504 354.121991481 L 511 354.20593963 L 518 350.856912778 L 525 291.205310926 L 533 363.375434074 L 540 303.757432222 L 547 355.19688037 L 554 378.569303519 L 562 399.989251667 L 569 355.078074815 L 576 423.108572963 L 583 392.634896111 L 591 330.189769259 L 598 435.711042407 L 605 378.684440556 L 612 407.945788704 L 620 403.351986852"/>
			<path class="series-2-line" d="M 40 405.0375 L 47 418.065277778 L 54 415.343055556 L 61 371.933333333 L 69 357.398611111 L 76 400.613888889 L 83 391.329166667 L 90 389.919444444 L 98 381.947222222 L 105 402.85 L 112 398.815277778 L 119 402.655555556 L 127 415.683333333 L 134 415.586111111 L 141 410.238888889 L 148 407.516666667 L 156 398.231944444 L 163 387.634722222 L 170 408.5375 L 177 409.752777778 L 185 416.218055556 L 192 380.683333333 L 199 389.773611111 L 206 394.926388889 L 214 415.829166667 L 221 411.794444444 L 228 402.509722222 L 235 386.6625 L 243 394.440277778 L 250 394.343055556 L 257 388.995833333 L 264 399.398611111 L 272 420.301388889 L 279 418.891666667 L 286 391.231944444 L 293 381.947222222 L 301 417.2875 L 308 369.940277778 L 315 396.093055556 L 322 376.308333333 L 330 367.023611111 L 337 381.363888889 L 344 387.829166667 L 351 378.544444444 L 359 382.384722222 L 366 396.725 L 373 401.877777778 L 380 392.593055556 L 388 392.495833333 L 395 393.711111111 L 402 405.426388889 L 409 406.641666667 L 417 403.919444444 L 424 392.009722222 L 431 401.1 L 438 408.877777778 L 446 361.530555556 L 453 412.620833333 L 460 378.398611111 L 467 387.488888889 L 475 374.266666667 L 482 387.294444444 L 489 367.509722222 L 496 363.475 L 504 371.252777778 L 511 389.530555556 L 518 380.245833333 L 525 401.148611111 L 533 383.988888889 L 540 399.641666667 L 547 391.669444444 L 554 411.259722222 L 562 377.0375 L 569 401.877777778 L 576 365.030555556 L 583 389.870833333 L 591 385.836111111 L 598 387.051388889 L 605 407.954166667 L 612 378.981944444 L 620 410.384722222"/>
		</g>
		<text class="x-axis-label" x="40.0" y="540">
			0
		</text>
		<path class="x-notch" d="M 76.25 525 L 76.25 530"/>
		<text class="x-axis-label" x="112.5" y="540">
			10
		</text>
		<path class="x-notch" d="M 148.75 525 L 148.75 530"/>
		<text class="x-axis-label" x="185.0" y="540">
			20
		</text>
		<path class="x-notch" d="M 221.25 525 L 221.25 530"/>
		<text class="x-axis-label" x="257.5" y="540">
			30
		</text>
		<path class="x-notch" d="M 293.75 525 L 293.75 530"/>
		<text class="x-axis-label" x="330.0" y="540">
			40
		</text>
		<path class="x-notch" d="M 366.25 525 L 366.25 530"/>
		<text class="x-axis-label" x="402.5" y="540">
			50
		</text>
		<path class="x-notch" d="M 438.75 525 L 438.75 530"/>
		<text class="x-axis-label" x="475.0" y="540">
			60
		</text>
		<path class="x-notch" d="M 511.25 525 L 511.25 530"/>
		<text class="x-axis-label" x="547.5" y="540">
			70
		</text>
		<path class="x-notch" d="M 583.75 525 L 583.75 530"/>
		<text class="x-axis-label" x="620.0" y="540">
			80
		</text>
	</g>
</svg>
