<?xml version="1.0" ?>
<svg height="600" version="1.1" width="800" xmlns="http://www.w3.org/2000/svg" xmlns:svg="http://www.w3.org/2000/svg">
	<style type="text/css">
		

.x-axis-path, .y-gridline, .x-notch { fill:none; stroke: #a7a9ac; stroke-width:1; }



.y-gridline { stroke-width: 1; }

.y-axis-path, .y-axis-path2, .x-notch-left, .x-notch-right { display: none;}



.x-axis-label, .data-point-label {font-size: 12px; font-weight:normal; font-family: sans-serif; fill: #58595b; text-anchor:middle;}

.y-axis-label {font-size: 12px; font-family: helvetica; fill: #a7a9ac; text-anchor:end;}



.series-1-line { fill: none; stroke: #10b80c; stroke-width:2; }



.series-2-line { fill: none; stroke: #e90f0a; stroke-width: 2;}

	</style>
	<rect fill="white" height="600" width="800" x="0" y="0"/>
	<g id="grid" transform="translate(70, 30)">
		<g class="x-axis" id="x_axis">
			<path class="x-axis-path" d="M 0 525 L 660 525"/>
			<path class="x-notch-left" d="M 0 525, L 0 535"/>
			<path class="x-notch-right" d="M 660 525, L 660 535"/>
		</g>
		<g class="y-axis" id="y_axis">
			<path class="y-axis-path" d="M 0 525 L 0 0"/>
			<path class="y-axis-path-2" d="M 660 525 L 660 0"/>
			<path class="y-gridline" d="M 0 525 L 660 525"/>
			<text class="y-axis-label" x="-5" y="525">
				-100
			</text>
			<path class="y-gridline" d="M 0 438 L 660 438"/>
			<text class="y-axis-label" x="-5" y="438">
				 0
			</text>
			<path class="y-gridline" d="M 0 351 L 660 351"/>
			<text class="y-axis-label" x="-5" y="351">
				100
			</text>
			<path class="y-gridline" d="M 0 264 L 660 264"/>
			<text class="y-axis-label" x="-5" y="264">
				200
			</text>
			<path class="y-gridline" d="M 0 177 L 660 177"/>
			<text class="y-axis-label" x="-5" y="177">
				300
			</text>
			<path class="y-gridline" d="M 0 90 L 660 90"/>
			<text class="y-axis-label" x="-5" y="90">
				400
			</text>
			<path class="y-gridline" d="M 0 3 L 660 3"/>
			<text class="y-axis-label" x="-5" y="3">
				500
			</text>
		</g>
		<g>
			<path class="series-1-line" d="M 40 450.57089 L 46 421.313903608 L 52 440.315967216 L 58 425.282630825 L 64 447.089244433 L 70 412.963758041 L 76 440.356371649 L 82 404.480535258 L 88 471.719948866 L 94 469.676862474 L 100 420.833176082 L 106 423.277439691 L 112 427.898353299 L 118 394.939066907 L 124 417.867430515 L 130 368.731494124 L 136 370.009207732 L 142 375.03332134 L 148 346.517284948 L 154 322.419648557 L 160 336.934712165 L 166 264.398475773 L 172 304.220989381 L 178 261.00810299 L 185 274.827366598 L 191 249.451530206 L 197 224.367243814 L 203 226.183257423 L 209 169.576571031 L 215 223.152684639 L 221 215.725198247 L 227 157.458111856 L 233 160.620225464 L 239 153.686589072 L 245 163.78150268 L 251 117.697216289 L 257 142.308379897 L 263 117.426043505 L 269 47.3797071134 L 275 82.6476707216 L 281 147.30688433 L 287 133.754397938 L 293 52.1769615464 L 299 181.877375155 L 305 155.715788763 L 311 142.275652371 L 317 112.255315979 L 323 79.6099795876 L 330 153.983793196 L 336 104.960556804 L 342 160.623020412 L 348 160.599784021 L 354 161.227197629 L 360 237.328611237 L 366 212.647874845 L 372 175.784688454 L 378 198.331202062 L 384 190.65766567 L 390 222.111679278 L 396 214.123142887 L 402 219.416756495 L 408 249.300670103 L 414 301.395583711 L 420 258.69929732 L 426 283.332510928 L 432 310.433924536 L 438 319.990538144 L 444 315.008851753 L 450 350.793065361 L 456 354.292228969 L 462 372.037792577 L 468 362.950256186 L 475 386.439669794 L 481 385.204733402 L 487 385.92139701 L 493 376.429960619 L 499 402.050874227 L 505 387.175037835 L 511 413.423851443 L 517 411.044765052 L 523 455.19747866 L 529 416.561892268 L 535 401.080205876 L 541 434.171869485 L 547 427.597333093 L 553 432.419846701 L 559 438.611210309 L 565 437.286323918 L 571 451.262737526 L 577 446.078751134 L 583 456.263614742 L 589 419.467978351 L 595 435.171991959 L 601 439.860105567 L 607 435.439119175 L 613 428.841832784 L 620 452.577996392"/>
			<path class="series-2-line" d="M 40 411.775 L 46 459.338917526 L 52 451.777835052 L 58 430.216752577 L 64 428.780670103 L 70 485.094587629 L 76 431.158505155 L 82 453.34742268 L 88 462.411340206 L 94 427.725257732 L 100 459.539175258 L 106 441.478092784 L 112 459.292010309 L 118 470.105927835 L 124 464.294845361 L 130 439.233762887 L 136 432.547680412 L 142 387.361597938 L 148 490.050515464 L 154 449.23943299 L 160 459.178350515 L 166 467.367268041 L 172 453.681185567 L 178 425.995103093 L 185 407.934020619 L 191 430.122938144 L 197 440.93685567 L 203 418.500773196 L 209 432.814690722 L 215 457.628608247 L 221 443.942525773 L 227 444.256443299 L 233 416.570360825 L 239 428.259278351 L 245 411.073195876 L 251 421.887113402 L 257 426.576030928 L 263 440.014948454 L 269 400.953865979 L 275 381.142783505 L 281 383.206701031 L 287 369.520618557 L 293 423.209536082 L 299 379.773453608 L 305 353.837371134 L 311 356.77628866 L 317 352.715206186 L 323 348.654123711 L 330 336.718041237 L 336 362.406958763 L 342 368.845876289 L 348 394.534793814 L 354 421.09871134 L 360 412.662628866 L 366 394.601546392 L 372 400.165463918 L 378 351.479381443 L 384 410.418298969 L 390 405.482216495 L 396 376.921134021 L 402 357.985051546 L 408 393.298969072 L 414 376.112886598 L 420 404.426804124 L 426 371.490721649 L 432 363.054639175 L 438 361.618556701 L 444 375.932474227 L 450 377.996391753 L 456 400.185309278 L 462 383.874226804 L 468 390.31314433 L 475 399.377061856 L 481 409.315979381 L 487 387.754896907 L 493 388.943814433 L 499 406.757731959 L 505 428.946649485 L 511 417.01056701 L 517 434.824484536 L 523 428.138402062 L 529 437.202319588 L 535 451.516237113 L 541 429.955154639 L 547 453.894072165 L 553 440.207989691 L 559 451.896907216 L 565 441.710824742 L 571 433.274742268 L 577 410.838659794 L 583 413.77757732 L 589 442.966494845 L 595 438.030412371 L 601 445.344329897 L 607 440.408247423 L 613 433.722164948 L 620 438.411082474"/>
		</g>
		<text class="x-axis-label" x="40.0" y="540">
			0
		</text>
		<path class="x-notch" d="M 70.2083333333 525 L 70.2083333333 530"/>
		<text class="x-axis-label" x="100.416666667" y="540">
			10
		</text>
		<path class="x-notch" d="M 130.625 525 L 130.625 530"/>
		<text class="x-axis-label" x="160.833333333" y="540">
			20
		</text>
		<path class="x-notch" d="M 191.041666667 525 L 191.041666667 530"/>
		<text class="x-axis-label" x="221.25" y="540">
			30
		</text>
		<path class="x-notch" d="M 251.458333333 525 L 251.458333333 530"/>
		<text class="x-axis-label" x="281.666666667" y="540">
			40
		</text>
		<path class="x-notch" d="M 311.875 525 L 311.875 530"/>
		<text class="x-axis-label" x="342.083333333" y="540">
			50
		</text>
		<path class="x-notch" d="M 372.291666667 525 L 372.291666667 530"/>
		<text class="x-axis-label" x="402.5" y="540">
			60
		</text>
		<path class="x-notch" d="M 432.708333333 525 L 432.708333333 530"/>
		<text class="x-axis-label" x="462.916666667" y="540">
			70
		</text>
		<path class="x-notch" d="M 493.125 525 L 493.125 530"/>
		<text class="x-axis-label" x="523.333333333" y="540">
			80
		</text>
		<path class="x-notch" d="M 553.541666667 525 L 553.541666667 530"/>
		<text class="x-axis-label" x="583.75" y="540">
			90
		</text>
		<path class="x-notch" d="M 613.958333333 525 L 613.958333333 530"/>
	</g>
</svg>
