<?xml version="1.0" ?>
<svg height="600" version="1.1" width="800" xmlns="http://www.w3.org/2000/svg" xmlns:svg="http://www.w3.org/2000/svg">
	<style type="text/css">
		

.x-axis-path, .y-gridline, .x-notch { fill:none; stroke: #a7a9ac; stroke-width:1; }



.y-gridline { stroke-width: 1; }

.y-axis-path, .y-axis-path2, .x-notch-left, .x-notch-right { display: none;}



.x-axis-label, .data-point-label {font-size: 12px; font-weight:normal; font-family: sans-serif; fill: #58595b; text-anchor:middle;}

.y-axis-label {font-size: 12px; font-family: helvetica; fill: #a7a9ac; text-anchor:end;}



.series-1-line { fill: none; stroke: #10b80c; stroke-width:2; }



.series-2-line { fill: none; stroke: #e90f0a; stroke-width: 2;}

	</style>
	<rect fill="white" height="600" width="800" x="0" y="0"/>
	<g id="grid" transform="translate(70, 30)">
		<g class="x-axis" id="x_axis">
			<path class="x-axis-path" d="M 0 525 L 660 525"/>
			<path class="x-notch-left" d="M 0 525, L 0 535"/>
			<path class="x-notch-right" d="M 660 525, L 660 535"/>
		</g>
		<g class="y-axis" id="y_axis">
			<path class="y-axis-path" d="M 0 525 L 0 0"/>
			<path class="y-axis-path-2" d="M 660 525 L 660 0"/>
			<path class="y-gridline" d="M 0 525 L 660 525"/>
			<text class="y-axis-label" x="-5" y="525">
				-100
			</text>
			<path class="y-gridline" d="M 0 450 L 660 450"/>
			<text class="y-axis-label" x="-5" y="450">
				 0
			</text>
			<path class="y-gridline" d="M 0 375 L 660 375"/>
			<text class="y-axis-label" x="-5" y="375">
				100
			</text>
			<path class="y-gridline" d="M 0 300 L 660 300"/>
			<text class="y-axis-label" x="-5" y="300">
				200
			</text>
			<path class="y-gridline" d="M 0 225 L 660 225"/>
			<text class="y-axis-label" x="-5" y="225">
				300
			</text>
			<path class="y-gridline" d="M 0 150 L 660 150"/>
			<text class="y-axis-label" x="-5" y="150">
				400
			</text>
			<path class="y-gridline" d="M 0 75 L 660 75"/>
			<text class="y-axis-label" x="-5" y="75">
				500
			</text>
			<path class="y-gridline" d="M 0 0 L 660 0"/>
			<text class="y-axis-label" x="-5" y="0">
				600
			</text>
		</g>
		<g>
			<path class="series-1-line" d="M 40 440.16534 L 47 455.724658421 L 55 442.918976842 L 63 447.901195263 L 70 460.807013684 L 78 454.616332105 L 86 418.714250526 L 94 447.908268947 L 101 466.967687368 L 109 460.123305789 L 117 467.798024211 L 125 450.626742632 L 132 455.916761053 L 140 429.783879474 L 148 427.266397895 L 156 453.172116316 L 163 460.289134737 L 171 449.079153158 L 179 455.523271579 L 186 473.56359 L 194 421.487908421 L 202 378.373826842 L 210 28.8565452632 L 217 75.7814636842 L 225 77.8026821053 L 233 122.592200526 L 241 37.8825189474 L 248 38.2690373684 L 256 46.3475557895 L 264 101.195474211 L 272 210.908892632 L 279 220.141511053 L 287 115.084929474 L 295 145.836247895 L 302 155.664966316 L 310 185.090284737 L 318 152.053503158 L 326 213.189721579 L 333 297.51864 L 341 242.674258421 L 349 285.080276842 L 357 405.005095263 L 364 388.468313684 L 372 418.643332105 L 380 383.144750526 L 388 281.550168947 L 395 369.974987368 L 403 403.996005789 L 411 402.209624211 L 418 437.499642632 L 426 409.289561053 L 434 444.002979474 L 442 456.523897895 L 449 458.410416316 L 457 429.489034737 L 465 469.202253158 L 473 457.877071579 L 480 473.57109 L 488 463.611208421 L 496 448.882226842 L 504 450.307045263 L 511 455.501063684 L 519 423.579682105 L 527 430.177700526 L 534 436.756218947 L 542 453.719537368 L 550 435.413655789 L 558 412.299974211 L 565 425.763192632 L 573 465.649511053 L 581 455.881929474 L 589 457.133647895 L 596 450.577866316 L 604 450.060184737 L 612 469.177203158 L 620 426.775321579"/>
			<path class="series-2-line" d="M 40 445.65 L 47 436.432894737 L 55 464.715789474 L 63 438.248684211 L 70 462.781578947 L 78 453.564473684 L 86 457.847368421 L 94 456.880263158 L 101 457.413157895 L 109 462.446052632 L 117 454.728947368 L 125 462.011842105 L 132 446.044736842 L 140 447.327631579 L 148 450.110526316 L 156 464.893421053 L 163 456.426315789 L 171 440.459210526 L 179 449.242105263 L 186 462.525 L 194 415.807894737 L 202 375.090789474 L 210 397.373684211 L 217 409.156578947 L 225 435.189473684 L 233 370.472368421 L 241 383.755263158 L 248 401.538157895 L 256 389.321052632 L 264 393.603947368 L 272 409.136842105 L 279 421.669736842 L 287 362.202631579 L 295 322.985526316 L 302 330.268421053 L 310 381.051315789 L 318 377.084210526 L 326 365.617105263 L 333 392.4 L 341 397.432894737 L 349 441.465789474 L 357 443.498684211 L 364 439.531578947 L 372 461.064473684 L 380 431.597368421 L 388 417.130263158 L 395 419.163157895 L 403 425.696052632 L 411 460.728947368 L 418 444.761842105 L 426 419.044736842 L 434 434.577631579 L 442 431.360526316 L 449 449.143421053 L 457 446.676315789 L 465 442.709210526 L 473 444.742105263 L 480 443.775 L 488 437.557894737 L 496 444.090789474 L 504 446.123684211 L 511 445.156578947 L 519 442.689473684 L 527 456.722368421 L 534 444.505263158 L 542 450.288157895 L 550 459.071052632 L 558 457.353947368 L 565 453.386842105 L 573 451.669736842 L 581 444.702631579 L 589 444.485526316 L 596 463.018421053 L 604 446.301315789 L 612 437.834210526 L 620 461.617105263"/>
		</g>
		<text class="x-axis-label" x="40.0" y="540">
			0
		</text>
		<path class="x-notch" d="M 78.6666666667 525 L 78.6666666667 530"/>
		<text class="x-axis-label" x="117.333333333" y="540">
			10
		</text>
		<path class="x-notch" d="M 156.0 525 L 156.0 530"/>
		<text class="x-axis-label" x="194.666666667" y="540">
			20
		</text>
		<path class="x-notch" d="M 233.333333333 525 L 233.333333333 530"/>
		<text class="x-axis-label" x="272.0" y="540">
			30
		</text>
		<path class="x-notch" d="M 310.666666667 525 L 310.666666667 530"/>
		<text class="x-axis-label" x="349.333333333" y="540">
			40
		</text>
		<path class="x-notch" d="M 388.0 525 L 388.0 530"/>
		<text class="x-axis-label" x="426.666666667" y="540">
			50
		</text>
		<path class="x-notch" d="M 465.333333333 525 L 465.333333333 530"/>
		<text class="x-axis-label" x="504.0" y="540">
			60
		</text>
		<path class="x-notch" d="M 542.666666667 525 L 542.666666667 530"/>
		<text class="x-axis-label" x="581.333333333" y="540">
			70
		</text>
		<path class="x-notch" d="M 620.0 525 L 620.0 530"/>
	</g>
</svg>
