<?xml version="1.0" ?>
<svg height="600" version="1.1" width="800" xmlns="http://www.w3.org/2000/svg" xmlns:svg="http://www.w3.org/2000/svg">
	<style type="text/css">
		

.x-axis-path, .y-gridline, .x-notch { fill:none; stroke: #a7a9ac; stroke-width:1; }



.y-gridline { stroke-width: 1; }

.y-axis-path, .y-axis-path2, .x-notch-left, .x-notch-right { display: none;}



.x-axis-label, .data-point-label {font-size: 12px; font-weight:normal; font-family: sans-serif; fill: #58595b; text-anchor:middle;}

.y-axis-label {font-size: 12px; font-family: helvetica; fill: #a7a9ac; text-anchor:end;}



.series-1-line { fill: none; stroke: #10b80c; stroke-width:2; }



.series-2-line { fill: none; stroke: #e90f0a; stroke-width: 2;}

	</style>
	<rect fill="white" height="600" width="800" x="0" y="0"/>
	<g id="grid" transform="translate(70, 30)">
		<g class="x-axis" id="x_axis">
			<path class="x-axis-path" d="M 0 525 L 660 525"/>
			<path class="x-notch-left" d="M 0 525, L 0 535"/>
			<path class="x-notch-right" d="M 660 525, L 660 535"/>
		</g>
		<g class="y-axis" id="y_axis">
			<path class="y-axis-path" d="M 0 525 L 0 0"/>
			<path class="y-axis-path-2" d="M 660 525 L 660 0"/>
			<path class="y-gridline" d="M 0 525 L 660 525"/>
			<text class="y-axis-label" x="-5" y="525">
				-100
			</text>
			<path class="y-gridline" d="M 0 394 L 660 394"/>
			<text class="y-axis-label" x="-5" y="394">
				 0
			</text>
			<path class="y-gridline" d="M 0 263 L 660 263"/>
			<text class="y-axis-label" x="-5" y="263">
				100
			</text>
			<path class="y-gridline" d="M 0 132 L 660 132"/>
			<text class="y-axis-label" x="-5" y="132">
				200
			</text>
			<path class="y-gridline" d="M 0 1 L 660 1"/>
			<text class="y-axis-label" x="-5" y="1">
				300
			</text>
		</g>
		<g>
			<path class="series-1-line" d="M 40 392.639625 L 42 408.415686641 L 44 395.518873282 L 46 377.910709924 L 48 392.845721565 L 51 390.651033206 L 53 389.061669847 L 55 458.818756489 L 57 358.92734313 L 60 378.102779771 L 62 407.643291412 L 64 362.438503053 L 66 376.768189695 L 68 400.486451336 L 71 424.945487977 L 73 410.668974618 L 75 419.61373626 L 77 379.524547901 L 80 396.142184542 L 82 383.784021183 L 84 349.416282824 L 86 327.769294466 L 88 360.036131107 L 91 351.581867748 L 93 328.858104389 L 95 365.802691031 L 97 370.136377672 L 100 357.172364313 L 102 372.242300954 L 104 344.605062595 L 106 360.919774237 L 108 352.734310878 L 111 288.414797519 L 113 242.03243416 L 115 262.756095802 L 117 252.820807443 L 120 257.020094084 L 122 142.051205725 L 124 194.744742366 L 126 276.214054008 L 128 219.365815649 L 131 247.39170229 L 133 208.279013931 L 135 231.122625573 L 137 253.764112214 L 140 216.367648855 L 142 201.081560496 L 144 172.838472137 L 146 171.181908779 L 148 186.95849542 L 151 192.672407061 L 153 201.247043702 L 155 249.566280344 L 157 223.880991985 L 160 160.671853626 L 162 130.376015267 L 164 217.767851908 L 166 115.25091355 L 168 169.392400191 L 171 137.582461832 L 173 86.8247484733 L 175 119.293710115 L 177 181.882446756 L 180 105.446983397 L 182 158.276495038 L 184 151.437131679 L 186 129.891468321 L 188 66.1778049618 L 191 126.881791603 L 193 213.600578244 L 195 187.511564885 L 197 159.975126527 L 200 102.554638168 L 202 121.494349809 L 204 102.27076145 L 206 221.431398092 L 208 117.131034733 L 211 212.465071374 L 213 179.005583015 L 215 193.906994656 L 217 183.601581298 L 220 205.502817939 L 222 161.91345458 L 224 108.060341221 L 226 112.966277863 L 228 147.218664504 L 231 194.663251145 L 233 132.530887786 L 235 171.225824427 L 237 180.271386069 L 240 168.48494771 L 242 143.337784351 L 244 138.787420992 L 246 122.289632634 L 248 203.421894275 L 251 185.106030916 L 253 133.912042557 L 255 138.750779198 L 257 156.44519084 L 260 9.87550248092 L 262 79.5989891221 L 264 113.111125763 L 266 134.440112405 L 268 135.308274046 L 271 168.146835687 L 273 148.384597328 L 275 169.444258969 L 277 107.985470611 L 280 108.348057252 L 282 105.345918893 L 284 123.679780534 L 286 112.499192176 L 288 145.573478817 L 291 121.571340458 L 293 186.112027099 L 295 93.6913637405 L 297 127.606700382 L 300 126.590112023 L 302 130.452873664 L 304 103.253485305 L 306 128.587171947 L 308 190.166333588 L 311 138.533970229 L 313 172.98848187 L 315 188.596018511 L 317 157.189805153 L 320 200.865416794 L 322 154.953978435 L 324 127.350865076 L 326 155.141026718 L 328 161.898638359 L 331 137.323725 L 333 115.845261641 L 335 142.357573282 L 337 175.532134924 L 340 168.087971565 L 342 117.936633206 L 344 130.381044847 L 346 191.017831489 L 348 194.81339313 L 351 240.878279771 L 353 170.971716412 L 355 112.676053053 L 357 156.452464695 L 360 203.089076336 L 362 199.278962977 L 364 220.607949618 L 366 198.18763626 L 368 213.156247901 L 371 210.591434542 L 373 239.323971183 L 375 158.244882824 L 377 214.977769466 L 380 195.922706107 L 382 224.790167748 L 384 204.657804389 L 386 239.650441031 L 388 232.374277672 L 391 235.597589313 L 393 155.056625954 L 395 193.616637595 L 397 206.161849237 L 400 148.337635878 L 402 160.748447519 L 404 152.93363416 L 406 130.916520802 L 408 145.312882443 L 411 217.897094084 L 413 137.187605725 L 415 183.791142366 L 417 214.644154008 L 420 160.016665649 L 422 210.28837729 L 424 179.185088931 L 426 186.513900573 L 428 209.189512214 L 431 233.715748855 L 433 155.698985496 L 435 212.465472137 L 437 185.535408779 L 440 200.90722042 L 442 231.693557061 L 444 210.282293702 L 446 266.779455344 L 448 213.162066985 L 451 279.452578626 L 453 214.291490267 L 455 234.779426908 L 457 213.70468855 L 460 274.173475191 L 462 231.425686832 L 464 305.086148473 L 466 238.276560115 L 468 253.379571756 L 471 260.338783397 L 473 289.341170038 L 475 301.112531679 L 477 319.479993321 L 480 328.021029962 L 482 308.663041603 L 484 326.559053244 L 486 308.378639885 L 488 314.361876527 L 491 307.926763168 L 493 366.510799809 L 495 341.83561145 L 497 360.203073092 L 500 359.791809733 L 502 355.477171374 L 504 336.825308015 L 506 333.621044656 L 508 377.531856298 L 511 353.798517939 L 513 335.38290458 L 515 393.764816221 L 517 383.829527863 L 520 395.399289504 L 522 374.964001145 L 524 373.846087786 L 526 379.492799427 L 528 405.499536069 L 531 364.13197271 L 533 353.523634351 L 535 386.732320992 L 537 421.556957634 L 540 385.472994275 L 542 380.551980916 L 544 380.746567557 L 546 385.821029198 L 548 356.16464084 L 551 379.849827481 L 553 376.241314122 L 555 400.936075763 L 557 416.644937405 L 560 377.935974046 L 562 397.649535687 L 564 406.190047328 L 566 396.995533969 L 568 409.137020611 L 571 380.625132252 L 573 375.536118893 L 575 384.884605534 L 577 397.631942176 L 580 396.716153817 L 582 406.804890458 L 584 411.037777099 L 586 380.54033874 L 588 396.955850382 L 591 382.612137023 L 593 386.003448664 L 595 390.135535305 L 597 397.027546947 L 600 379.015658588 L 602 419.056170229 L 604 394.95270687 L 606 409.517593511 L 608 369.260405153 L 611 389.579816794 L 613 426.221478435 L 615 381.050815076 L 617 382.187776718 L 620 391.839188359"/>
			<path class="series-2-line" d="M 40 413.4375 L 42 387.057251908 L 44 380.364503817 L 46 392.046755725 L 48 394.541507634 L 51 407.536259542 L 53 377.21851145 L 55 375.775763359 L 57 426.833015267 L 60 433.265267176 L 62 409.510019084 L 64 375.254770992 L 66 421.062022901 L 68 384.181774809 L 71 385.364026718 L 73 389.171278626 L 75 404.791030534 L 77 391.535782443 L 80 387.468034351 L 82 399.15028626 L 84 414.770038168 L 86 391.014790076 L 88 402.697041985 L 91 419.629293893 L 93 410.311545802 L 95 408.86879771 L 97 375.926049618 L 100 379.733301527 L 102 412.415553435 L 104 401.785305344 L 106 393.780057252 L 108 368.71230916 L 111 398.769561069 L 113 394.701812977 L 115 415.571564885 L 117 407.566316794 L 120 395.623568702 L 122 392.868320611 L 124 289.050572519 L 126 354.545324427 L 128 396.415076336 L 131 352.972328244 L 133 392.217080153 L 135 389.461832061 L 137 367.019083969 L 140 394.451335878 L 142 402.196087786 L 144 383.690839695 L 146 363.873091603 L 148 388.680343511 L 151 396.42509542 L 153 418.607347328 L 155 383.039599237 L 157 375.034351145 L 160 385.404103053 L 162 380.023854962 L 164 391.70610687 L 166 391.575858779 L 168 369.133110687 L 171 395.252862595 L 173 357.060114504 L 175 388.429866412 L 177 379.112118321 L 180 354.044370229 L 182 382.789122137 L 184 352.471374046 L 186 364.153625954 L 188 402.085877863 L 191 379.643129771 L 193 393.950381679 L 195 397.757633588 L 197 371.377385496 L 200 400.122137405 L 202 392.116889313 L 204 399.861641221 L 206 369.54389313 L 208 391.726145038 L 211 392.908396947 L 213 369.153148855 L 215 376.897900763 L 217 375.455152672 L 220 366.13740458 L 222 335.819656489 L 224 371.126908397 L 226 351.309160305 L 228 360.366412214 L 231 358.923664122 L 233 354.855916031 L 235 387.538167939 L 237 387.407919847 L 240 361.027671756 L 242 320.209923664 L 244 342.392175573 L 246 334.386927481 L 248 350.006679389 L 251 267.188931298 L 253 348.433683206 L 255 339.115935115 L 257 320.610687023 L 260 333.605438931 L 262 337.41269084 L 264 359.594942748 L 266 337.152194656 L 268 384.271946565 L 271 357.891698473 L 273 347.261450382 L 275 315.63120229 L 277 360.125954198 L 280 332.433206107 L 282 369.052958015 L 284 353.172709924 L 286 334.667461832 L 288 322.72471374 L 291 359.344465649 L 293 352.651717557 L 295 364.333969466 L 297 323.516221374 L 300 357.510973282 L 302 346.880725191 L 304 370.375477099 L 306 337.432729008 L 308 332.052480916 L 311 327.984732824 L 313 356.729484733 L 315 305.411736641 L 317 319.71898855 L 320 343.213740458 L 322 316.833492366 L 324 352.140744275 L 326 294.260496183 L 328 344.005248092 L 331 316.3125 L 333 317.494751908 L 335 356.739503817 L 337 277.859255725 L 340 342.041507634 L 342 362.911259542 L 344 344.40601145 L 346 332.463263359 L 348 332.333015267 L 351 341.390267176 L 353 321.572519084 L 355 333.254770992 L 357 340.999522901 L 360 311.994274809 L 362 321.051526718 L 364 298.608778626 L 366 344.416030534 L 368 341.660782443 L 371 361.218034351 L 373 309.90028626 L 375 343.895038168 L 377 326.702290076 L 380 359.384541985 L 382 338.254293893 L 384 334.186545802 L 386 330.11879771 L 388 368.051049618 L 391 354.795801527 L 393 355.978053435 L 395 358.472805344 L 397 324.217557252 L 400 364.77480916 L 402 351.519561069 L 404 371.076812977 L 406 353.884064885 L 408 338.003816794 L 411 356.248568702 L 413 332.493320611 L 415 359.925572519 L 417 336.170324427 L 420 338.665076336 L 422 356.909828244 L 424 375.154580153 L 426 335.649332061 L 428 359.144083969 L 431 349.826335878 L 433 366.758587786 L 435 344.315839695 L 437 376.998091603 L 440 311.242843511 L 442 349.17509542 L 444 339.857347328 L 446 308.227099237 L 448 357.971851145 L 451 334.216603053 L 453 341.961354962 L 455 348.39360687 L 457 337.763358779 L 460 352.070610687 L 462 344.065362595 L 464 296.685114504 L 466 356.929866412 L 468 333.174618321 L 471 351.419370229 L 473 360.476622137 L 475 344.596374046 L 477 323.466125954 L 480 350.898377863 L 482 379.643129771 L 484 329.637881679 L 486 328.195133588 L 488 345.127385496 L 491 354.184637405 L 493 355.366889313 L 495 394.611641221 L 497 373.48139313 L 500 364.163645038 L 502 400.783396947 L 504 370.465648855 L 506 387.397900763 L 508 374.142652672 L 511 368.76240458 L 513 404.069656489 L 515 385.564408397 L 517 377.559160305 L 520 393.178912214 L 522 385.173664122 L 524 383.730916031 L 526 401.975667939 L 528 366.407919847 L 531 399.090171756 L 533 393.709923664 L 535 360.767175573 L 537 382.949427481 L 540 410.381679389 L 542 387.938931298 L 544 386.496183206 L 546 391.615935115 L 548 388.860687023 L 551 408.417938931 L 553 385.97519084 L 555 401.594942748 L 557 385.714694656 L 560 413.146946565 L 562 386.766698473 L 564 363.011450382 L 566 393.06870229 L 568 370.625954198 L 571 394.120706107 L 573 397.927958015 L 575 401.735209924 L 577 387.167461832 L 580 405.41221374 L 582 396.094465649 L 584 378.901717557 L 586 405.021469466 L 588 381.266221374 L 591 395.573473282 L 593 356.068225191 L 595 354.625477099 L 597 383.370229008 L 600 406.864980916 L 602 383.109732824 L 604 384.291984733 L 606 393.349236641 L 608 406.34398855 L 611 387.838740458 L 613 382.458492366 L 615 394.140744275 L 617 399.260496183 L 620 407.005248092"/>
		</g>
		<text class="x-axis-label" x="40.0" y="540">
			0
		</text>
		<path class="x-notch" d="M 51.1111111111 525 L 51.1111111111 530"/>
		<text class="x-axis-label" x="62.2222222222" y="540">
			10
		</text>
		<path class="x-notch" d="M 73.3333333333 525 L 73.3333333333 530"/>
		<text class="x-axis-label" x="84.4444444444" y="540">
			20
		</text>
		<path class="x-notch" d="M 95.5555555556 525 L 95.5555555556 530"/>
		<text class="x-axis-label" x="106.666666667" y="540">
			30
		</text>
		<path class="x-notch" d="M 117.777777778 525 L 117.777777778 530"/>
		<text class="x-axis-label" x="128.888888889" y="540">
			40
		</text>
		<path class="x-notch" d="M 140.0 525 L 140.0 530"/>
		<text class="x-axis-label" x="151.111111111" y="540">
			50
		</text>
		<path class="x-notch" d="M 162.222222222 525 L 162.222222222 530"/>
		<text class="x-axis-label" x="173.333333333" y="540">
			60
		</text>
		<path class="x-notch" d="M 184.444444444 525 L 184.444444444 530"/>
		<text class="x-axis-label" x="195.555555556" y="540">
			70
		</text>
		<path class="x-notch" d="M 206.666666667 525 L 206.666666667 530"/>
		<text class="x-axis-label" x="217.777777778" y="540">
			80
		</text>
		<path class="x-notch" d="M 228.888888889 525 L 228.888888889 530"/>
		<text class="x-axis-label" x="240.0" y="540">
			90
		</text>
		<path class="x-notch" d="M 251.111111111 525 L 251.111111111 530"/>
		<text class="x-axis-label" x="262.222222222" y="540">
			100
		</text>
		<path class="x-notch" d="M 273.333333333 525 L 273.333333333 530"/>
		<text class="x-axis-label" x="284.444444444" y="540">
			110
		</text>
		<path class="x-notch" d="M 295.555555556 525 L 295.555555556 530"/>
		<text class="x-axis-label" x="306.666666667" y="540">
			120
		</text>
		<path class="x-notch" d="M 317.777777778 525 L 317.777777778 530"/>
		<text class="x-axis-label" x="328.888888889" y="540">
			130
		</text>
		<path class="x-notch" d="M 340.0 525 L 340.0 530"/>
		<text class="x-axis-label" x="351.111111111" y="540">
			140
		</text>
		<path class="x-notch" d="M 362.222222222 525 L 362.222222222 530"/>
		<text class="x-axis-label" x="373.333333333" y="540">
			150
		</text>
		<path class="x-notch" d="M 384.444444444 525 L 384.444444444 530"/>
		<text class="x-axis-label" x="395.555555556" y="540">
			160
		</text>
		<path class="x-notch" d="M 406.666666667 525 L 406.666666667 530"/>
		<text class="x-axis-label" x="417.777777778" y="540">
			170
		</text>
		<path class="x-notch" d="M 428.888888889 525 L 428.888888889 530"/>
		<text class="x-axis-label" x="440.0" y="540">
			180
		</text>
		<path class="x-notch" d="M 451.111111111 525 L 451.111111111 530"/>
		<text class="x-axis-label" x="462.222222222" y="540">
			190
		</text>
		<path class="x-notch" d="M 473.333333333 525 L 473.333333333 530"/>
		<text class="x-axis-label" x="484.444444444" y="540">
			200
		</text>
		<path class="x-notch" d="M 495.555555556 525 L 495.555555556 530"/>
		<text class="x-axis-label" x="506.666666667" y="540">
			210
		</text>
		<path class="x-notch" d="M 517.777777778 525 L 517.777777778 530"/>
		<text class="x-axis-label" x="528.888888889" y="540">
			220
		</text>
		<path class="x-notch" d="M 540.0 525 L 540.0 530"/>
		<text class="x-axis-label" x="551.111111111" y="540">
			230
		</text>
		<path class="x-notch" d="M 562.222222222 525 L 562.222222222 530"/>
		<text class="x-axis-label" x="573.333333333" y="540">
			240
		</text>
		<path class="x-notch" d="M 584.444444444 525 L 584.444444444 530"/>
		<text class="x-axis-label" x="595.555555556" y="540">
			250
		</text>
		<path class="x-notch" d="M 606.666666667 525 L 606.666666667 530"/>
		<text class="x-axis-label" x="617.777777778" y="540">
			260
		</text>
		<path class="x-notch" d="M 628.888888889 525 L 628.888888889 530"/>
	</g>
</svg>
