<?xml version="1.0" ?>
<svg height="600" version="1.1" width="800" xmlns="http://www.w3.org/2000/svg" xmlns:svg="http://www.w3.org/2000/svg">
	<style type="text/css">

.x-axis-path, .y-gridline, .x-notch { fill:none; stroke: #a7a9ac; stroke-width:1; }



.y-gridline { stroke-width: 1; }

.y-axis-path, .y-axis-path2, .x-notch-left, .x-notch-right { display: none;}



.x-axis-label, .data-point-label {font-size: 12px; font-weight:normal; font-family: sans-serif; fill: #58595b; text-anchor:middle;}

.y-axis-label {font-size: 12px; font-family: helvetica; fill: #a7a9ac; text-anchor:end;}



.series-1-line { fill: none; stroke: #10b80c; stroke-width:2; }



.series-2-line { fill: none; stroke: #e90f0a; stroke-width: 2;}
</style>
	<rect fill="white" height="600" width="800" x="0" y="0"/>
	<g id="grid" transform="translate(70, 30)">
		<g class="x-axis" id="x_axis">
			<path class="x-axis-path" d="M 0 525 L 660 525"/>
			<path class="x-notch-left" d="M 0 525, L 0 535"/>
			<path class="x-notch-right" d="M 660 525, L 660 535"/>
		</g>
		<g class="y-axis" id="y_axis">
			<path class="y-axis-path" d="M 0 525 L 0 0"/>
			<path class="y-axis-path-2" d="M 660 525 L 660 0"/>
			<path class="y-gridline" d="M 0 525 L 660 525"/>
			<text class="y-axis-label" x="-5" y="525">-200</text>
			<path class="y-gridline" d="M 0 420 L 660 420"/>
			<text class="y-axis-label" x="-5" y="420"> 0</text>
			<path class="y-gridline" d="M 0 315 L 660 315"/>
			<text class="y-axis-label" x="-5" y="315">200</text>
			<path class="y-gridline" d="M 0 210 L 660 210"/>
			<text class="y-axis-label" x="-5" y="210">400</text>
			<path class="y-gridline" d="M 0 105 L 660 105"/>
			<text class="y-axis-label" x="-5" y="105">600</text>
			<path class="y-gridline" d="M 0 0 L 660 0"/>
			<text class="y-axis-label" x="-5" y="0">800</text>
		</g>
		<g>
			<path class="series-1-line" d="M 40 429.364827309 L 44 425.74577907 L 48 408.194424104 L 52 430.459989127 L 56 404.715495557 L 60 417.574244913 L 64 397.650761184 L 68 430.728115055 L 72 410.512705483 L 76 419.740102318 L 80 386.577760279 L 84 393.10452282 L 88 382.368803626 L 92 389.023381577 L 96 398.542704254 L 100 370.973353919 L 104 301.552142701 L 108 119.669596391 L 112 265.044601921 L 116 256.927532972 L 120 244.266611952 L 124 245.182306446 L 128 248.926165976 L 132 223.528396616 L 136 235.912748685 L 140 218.498176135 L 144 241.84035114 L 148 207.838668929 L 152 210.61551521 L 156 202.626119338 L 160 180.768324444 L 164 171.711285595 L 168 159.56134155 L 172 152.429646861 L 176 157.533075211 L 180 170.428261922 L 185 148.835207187 L 189 173.6280444 L 193 130.721271823 L 197 109.666379746 L 201 166.986246223 L 205 146.825350351 L 209 148.981907592 L 213 136.512567354 L 217 149.270971649 L 221 140.624707048 L 225 135.591433957 L 229 149.462885589 L 233 143.590272326 L 237 114.606554805 L 241 108.724974536 L 245 140.187413434 L 249 139.542706654 L 253 141.005815477 L 257 133.801103744 L 261 105.0 L 265 134.78361622 L 269 122.049678156 L 273 115.757465973 L 277 124.683685293 L 281 134.130133259 L 285 120.912546237 L 289 158.6799286 L 293 132.351298679 L 297 122.372935608 L 301 141.965194354 L 305 146.329485259 L 309 135.438764972 L 313 125.141005709 L 317 103.502119613 L 321 160.539027253 L 325 128.042805616 L 330 164.879327418 L 334 158.048525578 L 338 163.872730362 L 342 148.264938233 L 346 176.333294419 L 350 206.080473283 L 354 175.427042423 L 358 208.011922664 L 362 201.710458809 L 366 208.428802131 L 370 226.917122879 L 374 201.875044733 L 378 166.32221292 L 382 165.631959446 L 386 199.612561194 L 390 185.793046143 L 394 190.221244753 L 398 231.044952624 L 402 201.970141714 L 406 220.686480599 L 410 224.384935769 L 414 214.424649043 L 418 248.788554689 L 422 253.280661004 L 426 265.126708083 L 430 235.759971331 L 434 234.750321664 L 438 278.356932546 L 442 285.157259918 L 446 299.558049536 L 450 298.411617453 L 454 321.963734252 L 458 338.362600407 L 462 361.157361083 L 466 382.693040333 L 470 403.562741515 L 475 411.585712957 L 479 411.059712249 L 483 414.995294895 L 487 407.078916067 L 491 402.383257846 L 495 405.871771223 L 499 399.150566115 L 503 388.433065599 L 507 412.185872519 L 511 405.902627341 L 515 374.902614605 L 519 435.552656089 L 523 429.159956512 L 527 432.830941332 L 531 440.662474326 L 535 437.088972781 L 539 430.230985257 L 543 436.328897206 L 547 433.430625401 L 551 433.999453352 L 555 433.464343305 L 559 415.009740461 L 563 432.658578703 L 567 420.180271459 L 571 419.955305932 L 575 415.040596579 L 579 424.569170929 L 583 439.891427102 L 587 423.462371145 L 591 432.543876225 L 595 400.093201281 L 599 419.165373714 L 603 430.126391593 L 607 422.848662817 L 611 420.780621845 L 615 428.612154839 L 620 399.911396155"/>
			<path class="series-2-line" d="M 40 421.779167739 L 44 421.391922678 L 48 415.667174401 L 52 415.635762888 L 56 425.211857163 L 60 421.622110173 L 64 425.149034137 L 68 417.645118121 L 72 425.08621111 L 76 419.005629286 L 80 420.041718416 L 84 418.94280626 L 88 418.555561199 L 92 425.284987092 L 96 415.290236243 L 100 418.105493111 L 104 385.693228755 L 108 383.882649504 L 112 399.152080543 L 116 406.593173532 L 120 401.224258802 L 124 415.070355651 L 128 404.008104158 L 132 415.007532624 L 136 416.043621754 L 140 402.846368975 L 144 401.391623271 L 148 408.476882712 L 152 409.512971842 L 156 410.90489452 L 160 410.873483007 L 164 398.387897323 L 168 396.577318072 L 172 402.950910418 L 176 401.851998261 L 180 392.568914507 L 185 406.770844903 L 189 401.046096626 L 193 395.677181897 L 197 395.289936836 L 201 408.424366589 L 205 393.447946071 L 209 408.005710015 L 213 400.501793999 L 217 398.691214748 L 221 405.420640641 L 225 403.610061389 L 229 394.682811183 L 233 398.921402243 L 237 386.435816559 L 241 405.975250171 L 245 400.606335442 L 249 394.169920069 L 253 405.881015631 L 257 409.763773143 L 261 410.444028725 L 265 403.295946258 L 269 395.436196694 L 273 409.63812709 L 277 395.01754012 L 281 396.409462798 L 285 380.721375185 L 289 404.886644917 L 293 394.53606052 L 297 400.909652866 L 301 401.589908448 L 305 390.883490503 L 309 400.815418326 L 313 401.495673909 L 317 395.059258536 L 321 396.807014762 L 325 404.959774846 L 330 407.775031715 L 334 394.933612484 L 338 392.411366136 L 342 402.699127507 L 346 399.465214065 L 350 398.01046836 L 354 382.322380747 L 358 396.168477595 L 362 397.916233821 L 366 394.682320378 L 370 401.055912724 L 374 398.177832829 L 378 397.43475422 L 382 398.115009803 L 386 388.476092501 L 390 397.340519681 L 394 390.548270761 L 398 395.854362464 L 402 397.602118689 L 406 396.147372985 L 410 406.079300808 L 414 395.728716411 L 418 395.697304898 L 422 392.819225003 L 426 394.566981228 L 430 400.228906479 L 434 395.215825297 L 438 410.485256336 L 442 394.441335176 L 446 400.103260426 L 450 402.562683747 L 454 410.003776736 L 458 409.260698127 L 462 409.94095371 L 466 412.756210578 L 470 422.332304853 L 475 409.84671917 L 479 412.661976039 L 483 413.342231621 L 487 417.224989133 L 491 418.261078263 L 495 419.297167393 L 499 417.130754593 L 503 413.89684115 L 507 417.779598662 L 511 416.680686506 L 515 413.446773063 L 519 420.532032504 L 523 422.635622278 L 527 422.960044312 L 531 426.486968276 L 535 418.983052261 L 539 424.289143964 L 543 420.699396973 L 547 418.888817721 L 551 417.434072017 L 555 421.672663077 L 559 418.082916086 L 563 416.628170382 L 567 424.425096919 L 571 421.902850572 L 575 415.4664352 L 579 417.92585852 L 583 418.606114103 L 587 418.218869042 L 591 421.03412591 L 595 422.07021504 L 599 420.615469336 L 603 421.651558466 L 607 423.043481144 L 611 416.607065772 L 615 420.133989736 L 620 419.03507758"/>
		</g>
		<text class="x-axis-label" x="40.0" y="540">0</text>
		<path class="x-notch" d="M 60.1388888889 525 L 60.1388888889 530"/>
		<text class="x-axis-label" x="80.2777777778" y="540">10</text>
		<path class="x-notch" d="M 100.416666667 525 L 100.416666667 530"/>
		<text class="x-axis-label" x="120.555555556" y="540">20</text>
		<path class="x-notch" d="M 140.694444444 525 L 140.694444444 530"/>
		<text class="x-axis-label" x="160.833333333" y="540">30</text>
		<path class="x-notch" d="M 180.972222222 525 L 180.972222222 530"/>
		<text class="x-axis-label" x="201.111111111" y="540">40</text>
		<path class="x-notch" d="M 221.25 525 L 221.25 530"/>
		<text class="x-axis-label" x="241.388888889" y="540">50</text>
		<path class="x-notch" d="M 261.527777778 525 L 261.527777778 530"/>
		<text class="x-axis-label" x="281.666666667" y="540">60</text>
		<path class="x-notch" d="M 301.805555556 525 L 301.805555556 530"/>
		<text class="x-axis-label" x="321.944444444" y="540">70</text>
		<path class="x-notch" d="M 342.083333333 525 L 342.083333333 530"/>
		<text class="x-axis-label" x="362.222222222" y="540">80</text>
		<path class="x-notch" d="M 382.361111111 525 L 382.361111111 530"/>
		<text class="x-axis-label" x="402.5" y="540">90</text>
		<path class="x-notch" d="M 422.638888889 525 L 422.638888889 530"/>
		<text class="x-axis-label" x="442.777777778" y="540">100</text>
		<path class="x-notch" d="M 462.916666667 525 L 462.916666667 530"/>
		<text class="x-axis-label" x="483.055555556" y="540">110</text>
		<path class="x-notch" d="M 503.194444444 525 L 503.194444444 530"/>
		<text class="x-axis-label" x="523.333333333" y="540">120</text>
		<path class="x-notch" d="M 543.472222222 525 L 543.472222222 530"/>
		<text class="x-axis-label" x="563.611111111" y="540">130</text>
		<path class="x-notch" d="M 583.75 525 L 583.75 530"/>
		<text class="x-axis-label" x="603.888888889" y="540">140</text>
		<path class="x-notch" d="M 624.027777778 525 L 624.027777778 530"/>
	</g>
</svg>
