<?xml version="1.0" ?>
<svg height="600" version="1.1" width="800" xmlns="http://www.w3.org/2000/svg" xmlns:svg="http://www.w3.org/2000/svg">
	<style type="text/css">
		

.x-axis-path, .y-gridline, .x-notch { fill:none; stroke: #a7a9ac; stroke-width:1; }



.y-gridline { stroke-width: 1; }

.y-axis-path, .y-axis-path2, .x-notch-left, .x-notch-right { display: none;}



.x-axis-label, .data-point-label {font-size: 12px; font-weight:normal; font-family: sans-serif; fill: #58595b; text-anchor:middle;}

.y-axis-label {font-size: 12px; font-family: helvetica; fill: #a7a9ac; text-anchor:end;}



.series-1-line { fill: none; stroke: #10b80c; stroke-width:2; }



.series-2-line { fill: none; stroke: #e90f0a; stroke-width: 2;}

	</style>
	<rect fill="white" height="600" width="800" x="0" y="0"/>
	<g id="grid" transform="translate(70, 30)">
		<g class="x-axis" id="x_axis">
			<path class="x-axis-path" d="M 0 525 L 660 525"/>
			<path class="x-notch-left" d="M 0 525, L 0 535"/>
			<path class="x-notch-right" d="M 660 525, L 660 535"/>
		</g>
		<g class="y-axis" id="y_axis">
			<path class="y-axis-path" d="M 0 525 L 0 0"/>
			<path class="y-axis-path-2" d="M 660 525 L 660 0"/>
			<path class="y-gridline" d="M 0 525 L 660 525"/>
			<text class="y-axis-label" x="-5" y="525">
				-100
			</text>
			<path class="y-gridline" d="M 0 450 L 660 450"/>
			<text class="y-axis-label" x="-5" y="450">
				 0
			</text>
			<path class="y-gridline" d="M 0 375 L 660 375"/>
			<text class="y-axis-label" x="-5" y="375">
				100
			</text>
			<path class="y-gridline" d="M 0 300 L 660 300"/>
			<text class="y-axis-label" x="-5" y="300">
				200
			</text>
			<path class="y-gridline" d="M 0 225 L 660 225"/>
			<text class="y-axis-label" x="-5" y="225">
				300
			</text>
			<path class="y-gridline" d="M 0 150 L 660 150"/>
			<text class="y-axis-label" x="-5" y="150">
				400
			</text>
			<path class="y-gridline" d="M 0 75 L 660 75"/>
			<text class="y-axis-label" x="-5" y="75">
				500
			</text>
			<path class="y-gridline" d="M 0 0 L 660 0"/>
			<text class="y-axis-label" x="-5" y="0">
				600
			</text>
		</g>
		<g>
			<path class="series-1-line" d="M 40 448.5807 L 45 448.744460769 L 51 452.427221538 L 56 451.648682308 L 62 441.581543077 L 68 469.341403846 L 73 480.081964615 L 79 464.283925385 L 85 432.620686154 L 90 404.707146923 L 96 419.313207692 L 101 459.745968462 L 107 436.352229231 L 113 447.34269 L 118 464.774450769 L 124 425.919611538 L 130 465.641372308 L 135 437.670233077 L 141 446.795593846 L 146 472.516954615 L 152 420.373015385 L 158 394.748176154 L 163 423.123036923 L 169 426.729297692 L 175 414.450558462 L 180 469.287219231 L 186 448.81638 L 192 418.018340769 L 197 407.682101538 L 203 393.903362308 L 208 348.297923077 L 214 317.096083846 L 220 284.721244615 L 225 223.019605385 L 231 210.913966154 L 237 133.519926923 L 242 203.202687692 L 248 117.981648462 L 253 142.645209231 L 259 118.78977 L 265 95.0495307692 L 270 114.943991538 L 276 194.588252308 L 282 118.540313077 L 287 49.5885738462 L 293 134.425234615 L 299 122.819695385 L 304 121.310356154 L 310 187.185216923 L 315 137.868477692 L 321 185.358738462 L 327 186.099699231 L 332 145.34016 L 338 155.080520769 L 344 126.686681538 L 349 214.965842308 L 355 228.840803077 L 360 146.639263846 L 366 219.610324615 L 372 327.908785385 L 377 334.226146154 L 383 279.197106923 L 389 266.111067692 L 394 337.986228462 L 400 361.361289231 L 406 394.31325 L 411 386.227310769 L 417 388.140371538 L 422 240.668732308 L 428 258.236693077 L 434 274.304653846 L 439 266.968414615 L 445 300.227875385 L 451 363.429136154 L 456 280.458696923 L 462 446.200257692 L 467 454.133118462 L 473 448.085379231 L 479 462.24894 L 484 434.297000769 L 490 446.403161538 L 496 464.874422308 L 501 457.941983077 L 507 459.894043846 L 513 458.769304615 L 518 469.317565385 L 524 452.058226154 L 529 460.202586923 L 535 470.731347692 L 541 466.741308462 L 546 443.154669231 L 552 458.53023 L 558 457.058990769 L 563 464.953751538 L 569 472.790312308 L 574 448.473473077 L 580 462.425533846 L 586 465.185194615 L 591 447.598855385 L 597 463.800916154 L 603 441.445476923 L 608 446.916837692 L 614 463.907298462 L 620 444.455559231"/>
			<path class="series-2-line" d="M 40 443.25 L 45 454.396153846 L 51 443.042307692 L 56 454.938461538 L 62 453.334615385 L 68 459.230769231 L 73 458.376923077 L 79 444.023076923 L 85 447.669230769 L 90 422.065384615 L 96 432.461538462 L 101 421.107692308 L 107 451.003846154 L 113 440.4 L 118 331.546153846 L 124 404.192307692 L 130 445.338461538 L 135 428.734615385 L 141 445.880769231 L 146 448.026923077 L 152 458.423076923 L 158 456.069230769 L 163 424.465384615 L 169 454.361538462 L 175 446.757692308 L 180 440.653846154 L 186 453.3 L 192 438.946153846 L 197 450.092307692 L 203 442.488461538 L 208 456.634615385 L 214 446.780769231 L 220 444.426923077 L 225 454.073076923 L 231 448.719230769 L 237 449.365384615 L 242 438.011538462 L 248 431.157692308 L 253 422.803846154 L 259 436.95 L 265 433.096153846 L 270 437.492307692 L 276 422.388461538 L 282 417.784615385 L 287 417.680769231 L 293 411.576923077 L 299 415.973076923 L 304 424.869230769 L 310 393.265384615 L 315 430.661538462 L 321 400.557692308 L 327 438.703846154 L 332 428.1 L 338 407.746153846 L 344 427.892307692 L 349 440.538461538 L 355 418.684615385 L 360 438.080769231 L 366 410.976923077 L 372 430.373076923 L 377 417.519230769 L 383 380.665384615 L 389 411.311538462 L 394 408.957692308 L 400 396.853846154 L 406 382.5 L 411 422.896153846 L 417 365.792307692 L 422 300.438461538 L 428 346.084615385 L 434 391.730769231 L 439 402.876923077 L 445 369.773076923 L 451 287.169230769 L 456 338.815384615 L 462 435.461538462 L 467 433.857692308 L 473 448.753846154 L 479 440.4 L 484 420.796153846 L 490 440.942307692 L 496 433.338461538 L 501 439.984615385 L 507 435.380769231 L 513 442.776923077 L 518 442.673076923 L 524 451.569230769 L 529 446.215384615 L 535 419.861538462 L 541 435.507692308 L 546 407.653846154 L 552 444.3 L 558 417.946153846 L 563 451.592307692 L 569 435.738461538 L 574 463.384615385 L 580 458.780769231 L 586 445.176923077 L 591 446.573076923 L 597 441.969230769 L 603 456.115384615 L 608 458.261538462 L 614 447.657692308 L 620 447.553846154"/>
		</g>
		<text class="x-axis-label" x="40.0" y="540">
			0
		</text>
		<path class="x-notch" d="M 68.1553398058 525 L 68.1553398058 530"/>
		<text class="x-axis-label" x="96.3106796117" y="540">
			10
		</text>
		<path class="x-notch" d="M 124.466019417 525 L 124.466019417 530"/>
		<text class="x-axis-label" x="152.621359223" y="540">
			20
		</text>
		<path class="x-notch" d="M 180.776699029 525 L 180.776699029 530"/>
		<text class="x-axis-label" x="208.932038835" y="540">
			30
		</text>
		<path class="x-notch" d="M 237.087378641 525 L 237.087378641 530"/>
		<text class="x-axis-label" x="265.242718447" y="540">
			40
		</text>
		<path class="x-notch" d="M 293.398058252 525 L 293.398058252 530"/>
		<text class="x-axis-label" x="321.553398058" y="540">
			50
		</text>
		<path class="x-notch" d="M 349.708737864 525 L 349.708737864 530"/>
		<text class="x-axis-label" x="377.86407767" y="540">
			60
		</text>
		<path class="x-notch" d="M 406.019417476 525 L 406.019417476 530"/>
		<text class="x-axis-label" x="434.174757282" y="540">
			70
		</text>
		<path class="x-notch" d="M 462.330097087 525 L 462.330097087 530"/>
		<text class="x-axis-label" x="490.485436893" y="540">
			80
		</text>
		<path class="x-notch" d="M 518.640776699 525 L 518.640776699 530"/>
		<text class="x-axis-label" x="546.796116505" y="540">
			90
		</text>
		<path class="x-notch" d="M 574.951456311 525 L 574.951456311 530"/>
		<text class="x-axis-label" x="603.106796117" y="540">
			100
		</text>
		<path class="x-notch" d="M 631.262135922 525 L 631.262135922 530"/>
	</g>
</svg>
