<?xml version="1.0" ?>
<svg height="600" version="1.1" width="800" xmlns="http://www.w3.org/2000/svg" xmlns:svg="http://www.w3.org/2000/svg">
	<style type="text/css">
		

.x-axis-path, .y-gridline, .x-notch { fill:none; stroke: #a7a9ac; stroke-width:1; }



.y-gridline { stroke-width: 1; }

.y-axis-path, .y-axis-path2, .x-notch-left, .x-notch-right { display: none;}



.x-axis-label, .data-point-label {font-size: 12px; font-weight:normal; font-family: sans-serif; fill: #58595b; text-anchor:middle;}

.y-axis-label {font-size: 12px; font-family: helvetica; fill: #a7a9ac; text-anchor:end;}



.series-1-line { fill: none; stroke: #10b80c; stroke-width:2; }



.series-2-line { fill: none; stroke: #e90f0a; stroke-width: 2;}

	</style>
	<rect fill="white" height="600" width="800" x="0" y="0"/>
	<g id="grid" transform="translate(70, 30)">
		<g class="x-axis" id="x_axis">
			<path class="x-axis-path" d="M 0 525 L 660 525"/>
			<path class="x-notch-left" d="M 0 525, L 0 535"/>
			<path class="x-notch-right" d="M 660 525, L 660 535"/>
		</g>
		<g class="y-axis" id="y_axis">
			<path class="y-axis-path" d="M 0 525 L 0 0"/>
			<path class="y-axis-path-2" d="M 660 525 L 660 0"/>
			<path class="y-gridline" d="M 0 525 L 660 525"/>
			<text class="y-axis-label" x="-5" y="525">
				-100
			</text>
			<path class="y-gridline" d="M 0 438 L 660 438"/>
			<text class="y-axis-label" x="-5" y="438">
				 0
			</text>
			<path class="y-gridline" d="M 0 351 L 660 351"/>
			<text class="y-axis-label" x="-5" y="351">
				100
			</text>
			<path class="y-gridline" d="M 0 264 L 660 264"/>
			<text class="y-axis-label" x="-5" y="264">
				200
			</text>
			<path class="y-gridline" d="M 0 177 L 660 177"/>
			<text class="y-axis-label" x="-5" y="177">
				300
			</text>
			<path class="y-gridline" d="M 0 90 L 660 90"/>
			<text class="y-axis-label" x="-5" y="90">
				400
			</text>
			<path class="y-gridline" d="M 0 3 L 660 3"/>
			<text class="y-axis-label" x="-5" y="3">
				500
			</text>
		</g>
		<g>
			<path class="series-1-line" d="M 40 445.98974 L 45 429.108546696 L 50 467.689053391 L 55 406.003310087 L 60 435.699416783 L 65 384.311723478 L 70 416.901980174 L 75 432.08148687 L 80 423.725943565 L 85 416.357400261 L 90 408.585656957 L 95 414.678813652 L 101 464.836270348 L 106 412.214827043 L 111 435.112533739 L 116 420.811540435 L 121 401.97839713 L 126 410.943303826 L 131 369.494910522 L 136 306.148767217 L 141 327.296823913 L 146 329.418880609 L 151 279.153287304 L 157 234.586394 L 162 256.294800696 L 167 253.458407391 L 172 186.365864087 L 177 250.275870783 L 182 170.932977478 L 187 205.610284174 L 192 243.13589087 L 197 181.697247565 L 202 187.678404261 L 207 119.105010957 L 212 149.429017652 L 218 151.012774348 L 223 128.455281043 L 228 145.743887739 L 233 125.430244435 L 238 78.2380011304 L 243 162.587657826 L 248 44.8795145217 L 253 145.270721217 L 258 111.921677913 L 263 127.348284609 L 268 69.2300913043 L 274 137.896948 L 279 24.4742046957 L 284 90.8975613913 L 289 70.717968087 L 294 87.1994747826 L 299 87.3699314783 L 304 96.9179381739 L 309 94.7094448696 L 314 115.521151565 L 319 104.809758261 L 324 117.431814957 L 330 204.765571652 L 335 187.256128348 L 340 178.810985043 L 345 125.673641739 L 350 125.708648435 L 355 135.95280513 L 360 147.677461826 L 365 138.110218522 L 370 194.011175217 L 375 179.867331913 L 380 127.448188609 L 385 175.294245304 L 391 210.128002 L 396 205.182508696 L 401 157.856215391 L 406 156.926622087 L 411 150.411028783 L 416 230.138585478 L 421 275.315192174 L 426 202.23204887 L 431 289.363505565 L 436 341.742412261 L 441 329.550518957 L 447 270.669675652 L 452 277.705382348 L 457 305.112489043 L 462 316.590395739 L 467 364.661152435 L 472 336.09100913 L 477 340.950065826 L 482 346.930872522 L 487 370.569529217 L 492 391.627635913 L 497 369.339292609 L 502 363.698699304 L 508 381.009706 L 513 407.901262696 L 518 417.718769391 L 523 401.151876087 L 528 426.674582783 L 533 381.994989478 L 538 421.428446174 L 543 401.96705287 L 548 387.172559565 L 553 434.346266261 L 558 444.926072957 L 564 441.820879652 L 569 444.167286348 L 574 444.988393043 L 579 427.658499739 L 584 449.299706435 L 589 452.13961313 L 594 441.944469826 L 599 431.143476522 L 604 454.489883217 L 609 435.163239913 L 614 416.420046609 L 620 454.798253304"/>
			<path class="series-2-line" d="M 40 437.15 L 45 430.041956522 L 50 438.683913043 L 55 425.450869565 L 60 455.092826087 L 65 439.234782609 L 70 461.00173913 L 75 434.643695652 L 80 428.410652174 L 85 404.677608696 L 90 443.944565217 L 95 435.961521739 L 101 447.228478261 L 106 453.245434783 L 111 451.387391304 L 116 451.279347826 L 121 441.546304348 L 126 429.18826087 L 131 432.580217391 L 136 405.347173913 L 141 437.614130435 L 146 434.881086957 L 151 448.773043478 L 157 460.915 L 162 439.806956522 L 167 425.698913043 L 172 436.965869565 L 177 384.357826087 L 182 361.499782609 L 187 433.14173913 L 192 401.533695652 L 197 418.050652174 L 202 427.567608696 L 207 430.959565217 L 212 430.851521739 L 218 443.868478261 L 223 435.010434783 L 228 420.902391304 L 233 437.419347826 L 238 415.436304348 L 243 416.20326087 L 248 406.470217391 L 253 395.862173913 L 258 398.379130435 L 263 401.771086957 L 268 412.163043478 L 274 402.43 L 279 406.696956522 L 284 405.713913043 L 289 367.105869565 L 294 410.747826087 L 299 439.514782609 L 304 404.40673913 L 309 360.548695652 L 314 411.190652174 L 319 397.082608696 L 324 394.349565217 L 330 407.366521739 L 335 395.883478261 L 340 403.650434783 L 345 421.917391304 L 350 369.309347826 L 355 396.326304348 L 360 397.09326087 L 365 375.110217391 L 370 377.627173913 L 375 387.144130435 L 380 429.911086957 L 385 392.178043478 L 391 405.195 L 396 378.836956522 L 401 411.978913043 L 406 373.370869565 L 411 387.262826087 L 416 358.279782609 L 421 361.67173913 L 426 351.938695652 L 431 328.205652174 L 436 368.347608696 L 441 380.489565217 L 447 407.506521739 L 452 423.148478261 L 457 400.290434783 L 462 405.432391304 L 467 400.949347826 L 472 408.716304348 L 477 388.48326087 L 482 363.875217391 L 487 417.142173913 L 492 429.284130435 L 497 412.551086957 L 502 426.443043478 L 508 408.835 L 513 432.351956522 L 518 423.493913043 L 523 435.635869565 L 528 433.777826087 L 533 395.169782609 L 538 441.43673913 L 543 427.328695652 L 548 435.970652174 L 553 469.112608696 L 558 409.504565217 L 564 437.396521739 L 569 433.788478261 L 574 463.430434783 L 579 458.072391304 L 584 447.464347826 L 589 435.106304348 L 594 442.87326087 L 599 442.765217391 L 604 439.157173913 L 609 438.174130435 L 614 448.566086957 L 620 420.458043478"/>
		</g>
		<text class="x-axis-label" x="40.0" y="540">
			0
		</text>
		<path class="x-notch" d="M 65.4385964912 525 L 65.4385964912 530"/>
		<text class="x-axis-label" x="90.8771929825" y="540">
			10
		</text>
		<path class="x-notch" d="M 116.315789474 525 L 116.315789474 530"/>
		<text class="x-axis-label" x="141.754385965" y="540">
			20
		</text>
		<path class="x-notch" d="M 167.192982456 525 L 167.192982456 530"/>
		<text class="x-axis-label" x="192.631578947" y="540">
			30
		</text>
		<path class="x-notch" d="M 218.070175439 525 L 218.070175439 530"/>
		<text class="x-axis-label" x="243.50877193" y="540">
			40
		</text>
		<path class="x-notch" d="M 268.947368421 525 L 268.947368421 530"/>
		<text class="x-axis-label" x="294.385964912" y="540">
			50
		</text>
		<path class="x-notch" d="M 319.824561404 525 L 319.824561404 530"/>
		<text class="x-axis-label" x="345.263157895" y="540">
			60
		</text>
		<path class="x-notch" d="M 370.701754386 525 L 370.701754386 530"/>
		<text class="x-axis-label" x="396.140350877" y="540">
			70
		</text>
		<path class="x-notch" d="M 421.578947368 525 L 421.578947368 530"/>
		<text class="x-axis-label" x="447.01754386" y="540">
			80
		</text>
		<path class="x-notch" d="M 472.456140351 525 L 472.456140351 530"/>
		<text class="x-axis-label" x="497.894736842" y="540">
			90
		</text>
		<path class="x-notch" d="M 523.333333333 525 L 523.333333333 530"/>
		<text class="x-axis-label" x="548.771929825" y="540">
			100
		</text>
		<path class="x-notch" d="M 574.210526316 525 L 574.210526316 530"/>
		<text class="x-axis-label" x="599.649122807" y="540">
			110
		</text>
		<path class="x-notch" d="M 625.087719298 525 L 625.087719298 530"/>
	</g>
</svg>
