<?xml version="1.0" ?>
<svg height="600" version="1.1" width="800" xmlns="http://www.w3.org/2000/svg" xmlns:svg="http://www.w3.org/2000/svg">
	<style type="text/css">
		

.x-axis-path, .y-gridline, .x-notch { fill:none; stroke: #a7a9ac; stroke-width:1; }



.y-gridline { stroke-width: 1; }

.y-axis-path, .y-axis-path2, .x-notch-left, .x-notch-right { display: none;}



.x-axis-label, .data-point-label {font-size: 12px; font-weight:normal; font-family: sans-serif; fill: #58595b; text-anchor:middle;}

.y-axis-label {font-size: 12px; font-family: helvetica; fill: #a7a9ac; text-anchor:end;}



.series-1-line { fill: none; stroke: #10b80c; stroke-width:2; }



.series-2-line { fill: none; stroke: #e90f0a; stroke-width: 2;}

	</style>
	<rect fill="white" height="600" width="800" x="0" y="0"/>
	<g id="grid" transform="translate(70, 30)">
		<g class="x-axis" id="x_axis">
			<path class="x-axis-path" d="M 0 525 L 660 525"/>
			<path class="x-notch-left" d="M 0 525, L 0 535"/>
			<path class="x-notch-right" d="M 660 525, L 660 535"/>
		</g>
		<g class="y-axis" id="y_axis">
			<path class="y-axis-path" d="M 0 525 L 0 0"/>
			<path class="y-axis-path-2" d="M 660 525 L 660 0"/>
			<path class="y-gridline" d="M 0 525 L 660 525"/>
			<text class="y-axis-label" x="-5" y="525">
				-250
			</text>
			<path class="y-gridline" d="M 0 438 L 660 438"/>
			<text class="y-axis-label" x="-5" y="438">
				 0
			</text>
			<path class="y-gridline" d="M 0 351 L 660 351"/>
			<text class="y-axis-label" x="-5" y="351">
				250
			</text>
			<path class="y-gridline" d="M 0 264 L 660 264"/>
			<text class="y-axis-label" x="-5" y="264">
				500
			</text>
			<path class="y-gridline" d="M 0 177 L 660 177"/>
			<text class="y-axis-label" x="-5" y="177">
				750
			</text>
			<path class="y-gridline" d="M 0 90 L 660 90"/>
			<text class="y-axis-label" x="-5" y="90">
				1000
			</text>
			<path class="y-gridline" d="M 0 3 L 660 3"/>
			<text class="y-axis-label" x="-5" y="3">
				1250
			</text>
		</g>
		<g>
			<path class="series-1-line" d="M 40 445.076184 L 47 433.380072432 L 55 442.899420865 L 63 442.421369297 L 71 421.81383773 L 79 428.209926162 L 87 431.276814595 L 95 393.178243027 L 103 412.982131459 L 111 425.113039892 L 119 447.492648324 L 127 415.065896757 L 135 417.692905189 L 143 420.813553622 L 151 416.889262054 L 159 400.535490486 L 167 385.160038919 L 175 396.698607351 L 183 400.097435784 L 190 383.609124216 L 198 365.900152649 L 206 353.576001081 L 214 345.334949514 L 222 312.190137946 L 230 277.591426378 L 238 276.987934811 L 246 275.612203243 L 254 255.049611676 L 262 220.791940108 L 270 210.989468541 L 278 204.857516973 L 286 177.662705405 L 294 165.329733838 L 302 124.48492227 L 310 106.192710703 L 318 103.390239135 L 326 158.346727568 L 333 127.858276 L 341 72.5199644324 L 349 122.361132865 L 357 119.163581297 L 365 113.20228973 L 373 135.617878162 L 381 170.705146595 L 389 191.783595027 L 397 192.759303459 L 405 220.649171892 L 413 250.306680324 L 421 202.013168757 L 429 251.190177189 L 437 219.481345622 L 445 318.619034054 L 453 347.460202486 L 461 425.615530919 L 469 446.227219351 L 476 445.291367784 L 484 440.119676216 L 492 438.699284649 L 500 442.555773081 L 508 442.867461514 L 516 436.331749946 L 524 452.815118378 L 532 450.667846811 L 540 437.481995243 L 548 436.842523676 L 556 446.514332108 L 564 440.714460541 L 572 432.410828973 L 580 436.347957405 L 588 432.118605838 L 596 433.66873427 L 604 444.991982703 L 612 438.312631135 L 620 441.271719568"/>
			<path class="series-2-line" d="M 40 440.44 L 47 433.413513514 L 55 433.737027027 L 63 437.560540541 L 71 442.084054054 L 79 424.557567568 L 87 435.031081081 L 95 438.154594595 L 103 431.128108108 L 111 433.551621622 L 119 434.225135135 L 127 439.798648649 L 135 436.972162162 L 143 439.045675676 L 151 434.469189189 L 159 430.592702703 L 167 437.916216216 L 175 437.18972973 L 183 436.813243243 L 190 440.286756757 L 198 429.41027027 L 206 438.483783784 L 214 424.807297297 L 222 419.530810811 L 230 409.004324324 L 238 432.427837838 L 246 412.451351351 L 254 423.624864865 L 262 414.498378378 L 270 412.371891892 L 278 410.945405405 L 286 405.668918919 L 294 429.792432432 L 302 424.515945946 L 310 422.739459459 L 318 420.612972973 L 326 417.086486486 L 333 406.91 L 341 410.383513514 L 349 413.157027027 L 357 390.730540541 L 365 403.654054054 L 373 412.377567568 L 381 409.901081081 L 389 422.474594595 L 397 417.898108108 L 405 418.921621622 L 413 389.845135135 L 421 386.318648649 L 429 383.492162162 L 437 386.265675676 L 445 424.739189189 L 453 427.512702703 L 461 435.886216216 L 469 439.35972973 L 476 432.683243243 L 484 431.606756757 L 492 432.28027027 L 500 428.753783784 L 508 432.227297297 L 516 439.200810811 L 524 431.474324324 L 532 436.347837838 L 540 429.671351351 L 548 445.044864865 L 556 435.218378378 L 564 436.591891892 L 572 446.365405405 L 580 430.238918919 L 588 432.312432432 L 596 433.685945946 L 604 439.259459459 L 612 441.332972973 L 620 441.306486486"/>
		</g>
		<text class="x-axis-label" x="40.0" y="540">
			0
		</text>
		<path class="x-notch" d="M 79.7260273973 525 L 79.7260273973 530"/>
		<text class="x-axis-label" x="119.452054795" y="540">
			10
		</text>
		<path class="x-notch" d="M 159.178082192 525 L 159.178082192 530"/>
		<text class="x-axis-label" x="198.904109589" y="540">
			20
		</text>
		<path class="x-notch" d="M 238.630136986 525 L 238.630136986 530"/>
		<text class="x-axis-label" x="278.356164384" y="540">
			30
		</text>
		<path class="x-notch" d="M 318.082191781 525 L 318.082191781 530"/>
		<text class="x-axis-label" x="357.808219178" y="540">
			40
		</text>
		<path class="x-notch" d="M 397.534246575 525 L 397.534246575 530"/>
		<text class="x-axis-label" x="437.260273973" y="540">
			50
		</text>
		<path class="x-notch" d="M 476.98630137 525 L 476.98630137 530"/>
		<text class="x-axis-label" x="516.712328767" y="540">
			60
		</text>
		<path class="x-notch" d="M 556.438356164 525 L 556.438356164 530"/>
		<text class="x-axis-label" x="596.164383562" y="540">
			70
		</text>
		<path class="x-notch" d="M 635.890410959 525 L 635.890410959 530"/>
	</g>
</svg>
