<?xml version="1.0" ?>
<svg height="600" version="1.1" width="800" xmlns="http://www.w3.org/2000/svg" xmlns:svg="http://www.w3.org/2000/svg">
	<style type="text/css">

.x-axis-path, .y-gridline, .x-notch { fill:none; stroke: #a7a9ac; stroke-width:1; }



.y-gridline { stroke-width: 1; }

.y-axis-path, .y-axis-path2, .x-notch-left, .x-notch-right { display: none;}



.x-axis-label, .data-point-label {font-size: 12px; font-weight:normal; font-family: sans-serif; fill: #58595b; text-anchor:middle;}

.y-axis-label {font-size: 12px; font-family: helvetica; fill: #a7a9ac; text-anchor:end;}



.series-1-line { fill: none; stroke: #10b80c; stroke-width:2; }



.series-2-line { fill: none; stroke: #e90f0a; stroke-width: 2;}
</style>
	<rect fill="white" height="600" width="800" x="0" y="0"/>
	<g id="grid" transform="translate(70, 30)">
		<g class="x-axis" id="x_axis">
			<path class="x-axis-path" d="M 0 525 L 660 525"/>
			<path class="x-notch-left" d="M 0 525, L 0 535"/>
			<path class="x-notch-right" d="M 660 525, L 660 535"/>
		</g>
		<g class="y-axis" id="y_axis">
			<path class="y-axis-path" d="M 0 525 L 0 0"/>
			<path class="y-axis-path-2" d="M 660 525 L 660 0"/>
			<path class="y-gridline" d="M 0 525 L 660 525"/>
			<text class="y-axis-label" x="-5" y="525">-300</text>
			<path class="y-gridline" d="M 0 438 L 660 438"/>
			<text class="y-axis-label" x="-5" y="438"> 0</text>
			<path class="y-gridline" d="M 0 351 L 660 351"/>
			<text class="y-axis-label" x="-5" y="351">300</text>
			<path class="y-gridline" d="M 0 264 L 660 264"/>
			<text class="y-axis-label" x="-5" y="264">600</text>
			<path class="y-gridline" d="M 0 177 L 660 177"/>
			<text class="y-axis-label" x="-5" y="177">900</text>
			<path class="y-gridline" d="M 0 90 L 660 90"/>
			<text class="y-axis-label" x="-5" y="90">1200</text>
			<path class="y-gridline" d="M 0 3 L 660 3"/>
			<text class="y-axis-label" x="-5" y="3">1500</text>
		</g>
		<g>
			<path class="series-1-line" d="M 40 444.934542809 L 45 445.043041136 L 50 432.378421329 L 55 433.001412005 L 61 433.295658925 L 66 416.445221351 L 71 420.188431191 L 77 440.668772572 L 82 437.699805167 L 87 427.747293432 L 93 415.218524609 L 98 425.144349597 L 103 416.157417991 L 109 421.88257872 L 114 418.198300626 L 119 396.40308814 L 125 384.811769251 L 130 383.78914348 L 135 373.250027863 L 141 381.944487024 L 146 371.204999576 L 151 336.085897586 L 157 365.989966144 L 162 327.257250288 L 167 353.841062735 L 173 339.673710015 L 178 330.192937195 L 183 333.414063999 L 188 309.493458952 L 194 301.229540351 L 199 300.135584441 L 204 321.166585564 L 210 334.383755074 L 215 311.386311607 L 220 268.48943377 L 226 331.266315035 L 231 297.134337332 L 236 298.258871536 L 242 295.941363742 L 247 286.289353938 L 252 314.025053246 L 258 300.830648087 L 263 310.25481792 L 268 273.096611627 L 274 317.619898224 L 279 338.693876035 L 284 262.5 L 290 354.545233583 L 295 344.992907369 L 300 349.394609369 L 306 351.557058491 L 311 337.139771215 L 316 382.335503442 L 322 379.338629097 L 327 375.496509348 L 332 397.042672587 L 337 392.055921782 L 343 413.782028971 L 348 429.482358015 L 353 427.322245363 L 359 446.958234363 L 364 432.225152152 L 369 417.878636876 L 375 423.01685884 L 380 410.332146036 L 385 432.100002007 L 391 426.676451774 L 396 423.943465456 L 401 402.585052398 L 407 425.054823728 L 412 416.777063284 L 417 429.471703246 L 423 432.74216952 L 428 403.655766596 L 433 417.98229279 L 439 432.315851534 L 444 435.364959958 L 449 444.131419025 L 455 426.872758731 L 460 426.143490714 L 465 445.099220141 L 471 424.914461358 L 476 432.285685045 L 481 442.812625524 L 486 442.119301647 L 492 410.3278232 L 497 427.602103668 L 502 437.6065146 L 508 428.190709138 L 513 434.939273176 L 518 430.561228549 L 524 443.699812115 L 529 438.606010288 L 534 435.687163747 L 540 444.181585961 L 545 422.064439015 L 550 436.98460164 L 556 444.155676752 L 561 433.394421891 L 566 444.421789621 L 572 435.792959871 L 577 435.056994189 L 582 449.240078711 L 588 445.892135059 L 593 442.708619098 L 598 443.339312089 L 604 436.012508538 L 609 425.974266683 L 614 439.026785245 L 620 441.417513138"/>
			<path class="series-2-line" d="M 40 422.653507841 L 45 456.222512447 L 50 457.977605283 L 55 422.058328917 L 61 426.604115768 L 66 450.12662192 L 71 449.928228946 L 77 461.729820236 L 82 441.996569156 L 87 456.030715658 L 93 447.460240639 L 98 462.331595345 L 103 434.505331623 L 109 418.958121566 L 114 423.782977818 L 119 424.142723647 L 125 421.71177546 L 130 403.094801987 L 135 432.477765571 L 141 389.023615365 L 146 417.011231941 L 151 406.20820171 L 157 395.405171479 L 162 382.369586035 L 167 367.10144538 L 173 363.833288989 L 178 325.960526813 L 183 352.831865783 L 188 336.447447522 L 194 337.365332154 L 199 340.794841399 L 204 321.061590319 L 210 312.212045899 L 215 304.199709682 L 220 331.350118054 L 226 307.709895354 L 231 262.581328739 L 236 290.010806512 L 242 299.300773189 L 247 309.986086872 L 252 278.252851529 L 258 253.775420625 L 263 194.414314533 L 268 207.890322232 L 274 223.877954544 L 279 208.330744487 L 284 52.9697642821 L 290 209.050236144 L 295 171.45654337 L 300 188.281383886 L 306 249.757328642 L 311 296.442595119 L 316 294.569785735 L 322 344.603885029 L 327 308.684608664 L 332 284.765316562 L 337 275.078563937 L 343 353.856811585 L 348 360.356084247 L 353 366.855356908 L 359 379.773225804 L 364 334.086520386 L 369 304.306770853 L 375 271.457257903 L 380 407.165663456 L 385 370.409178886 L 391 330.862000301 L 396 296.059001541 L 401 326.27917333 L 407 354.266789906 L 412 400.952056382 L 417 375.637417273 L 423 329.392573052 L 428 367.984826886 L 433 382.018973387 L 439 384.053135625 L 444 383.296603847 L 449 383.098210873 L 455 372.295180641 L 460 351.445651956 L 465 318.038000204 L 471 361.095364461 L 476 371.780678145 L 481 390.838073873 L 486 386.174570475 L 492 400.487786378 L 497 379.08011889 L 502 381.672419931 L 508 399.05539925 L 513 398.019798071 L 518 434.937635495 L 524 438.36714474 L 529 456.308262863 L 534 439.6447752 L 540 427.446397961 L 545 434.503809426 L 550 421.189154581 L 556 452.246534574 L 561 450.931863993 L 566 424.500947278 L 572 427.930456523 L 577 451.732032077 L 582 433.673197407 L 588 440.45153947 L 593 432.439203254 L 598 449.822182573 L 604 424.228474063 L 609 451.657951836 L 614 435.831672378 L 620 428.935613768"/>
		</g>
		<text class="x-axis-label" x="40.0" y="540">0</text>
		<path class="x-notch" d="M 66.6055045872 525 L 66.6055045872 530"/>
		<text class="x-axis-label" x="93.2110091743" y="540">10</text>
		<path class="x-notch" d="M 119.816513761 525 L 119.816513761 530"/>
		<text class="x-axis-label" x="146.422018349" y="540">20</text>
		<path class="x-notch" d="M 173.027522936 525 L 173.027522936 530"/>
		<text class="x-axis-label" x="199.633027523" y="540">30</text>
		<path class="x-notch" d="M 226.23853211 525 L 226.23853211 530"/>
		<text class="x-axis-label" x="252.844036697" y="540">40</text>
		<path class="x-notch" d="M 279.449541284 525 L 279.449541284 530"/>
		<text class="x-axis-label" x="306.055045872" y="540">50</text>
		<path class="x-notch" d="M 332.660550459 525 L 332.660550459 530"/>
		<text class="x-axis-label" x="359.266055046" y="540">60</text>
		<path class="x-notch" d="M 385.871559633 525 L 385.871559633 530"/>
		<text class="x-axis-label" x="412.47706422" y="540">70</text>
		<path class="x-notch" d="M 439.082568807 525 L 439.082568807 530"/>
		<text class="x-axis-label" x="465.688073394" y="540">80</text>
		<path class="x-notch" d="M 492.293577982 525 L 492.293577982 530"/>
		<text class="x-axis-label" x="518.899082569" y="540">90</text>
		<path class="x-notch" d="M 545.504587156 525 L 545.504587156 530"/>
		<text class="x-axis-label" x="572.110091743" y="540">100</text>
		<path class="x-notch" d="M 598.71559633 525 L 598.71559633 530"/>
	</g>
</svg>
