<?xml version="1.0" ?>
<svg height="600" version="1.1" width="800" xmlns="http://www.w3.org/2000/svg" xmlns:svg="http://www.w3.org/2000/svg">
	<style type="text/css">
		

.x-axis-path, .y-gridline, .x-notch { fill:none; stroke: #a7a9ac; stroke-width:1; }



.y-gridline { stroke-width: 1; }

.y-axis-path, .y-axis-path2, .x-notch-left, .x-notch-right { display: none;}



.x-axis-label, .data-point-label {font-size: 12px; font-weight:normal; font-family: sans-serif; fill: #58595b; text-anchor:middle;}

.y-axis-label {font-size: 12px; font-family: helvetica; fill: #a7a9ac; text-anchor:end;}



.series-1-line { fill: none; stroke: #10b80c; stroke-width:2; }



.series-2-line { fill: none; stroke: #e90f0a; stroke-width: 2;}

	</style>
	<rect fill="white" height="600" width="800" x="0" y="0"/>
	<g id="grid" transform="translate(70, 30)">
		<g class="x-axis" id="x_axis">
			<path class="x-axis-path" d="M 0 525 L 660 525"/>
			<path class="x-notch-left" d="M 0 525, L 0 535"/>
			<path class="x-notch-right" d="M 660 525, L 660 535"/>
		</g>
		<g class="y-axis" id="y_axis">
			<path class="y-axis-path" d="M 0 525 L 0 0"/>
			<path class="y-axis-path-2" d="M 660 525 L 660 0"/>
			<path class="y-gridline" d="M 0 525 L 660 525"/>
			<text class="y-axis-label" x="-5" y="525">
				-100
			</text>
			<path class="y-gridline" d="M 0 438 L 660 438"/>
			<text class="y-axis-label" x="-5" y="438">
				 0
			</text>
			<path class="y-gridline" d="M 0 351 L 660 351"/>
			<text class="y-axis-label" x="-5" y="351">
				100
			</text>
			<path class="y-gridline" d="M 0 264 L 660 264"/>
			<text class="y-axis-label" x="-5" y="264">
				200
			</text>
			<path class="y-gridline" d="M 0 177 L 660 177"/>
			<text class="y-axis-label" x="-5" y="177">
				300
			</text>
			<path class="y-gridline" d="M 0 90 L 660 90"/>
			<text class="y-axis-label" x="-5" y="90">
				400
			</text>
			<path class="y-gridline" d="M 0 3 L 660 3"/>
			<text class="y-axis-label" x="-5" y="3">
				500
			</text>
		</g>
		<g>
			<path class="series-1-line" d="M 40 406.40411 L 43 453.828507563 L 47 441.956255125 L 50 427.996952687 L 54 453.68215025 L 58 431.691047813 L 61 418.067745375 L 65 440.521392937 L 69 408.7260905 L 72 401.767138063 L 76 449.640585625 L 80 479.902033188 L 83 466.70643075 L 87 446.285428313 L 91 476.098525875 L 94 450.966173438 L 98 427.291921 L 102 438.931968562 L 105 438.501566125 L 109 444.420513687 L 112 480.13426125 L 116 410.197708812 L 120 452.328006375 L 123 439.669303937 L 127 452.8801515 L 131 471.789349062 L 134 480.019696625 L 138 421.973694187 L 142 440.61374175 L 145 405.093389312 L 149 425.303886875 L 153 421.956584437 L 156 410.263182 L 160 405.951279563 L 164 383.309527125 L 167 328.157674687 L 171 324.09287225 L 174 303.469569813 L 178 315.558317375 L 182 269.381164937 L 185 281.9634125 L 189 250.346960062 L 193 242.400307625 L 196 259.111155188 L 200 245.35345275 L 204 237.653550312 L 207 235.271197875 L 211 190.776845438 L 215 215.339593 L 218 164.450390562 L 222 177.504088125 L 226 187.798385687 L 229 163.60823325 L 233 138.296330812 L 236 113.657478375 L 240 89.3773759375 L 244 92.4466235 L 247 160.041871063 L 251 152.386768625 L 255 164.767416187 L 258 179.79476375 L 262 60.9026613125 L 266 109.315808875 L 269 175.764806438 L 273 95.462304 L 277 113.563001563 L 280 133.077699125 L 284 151.606446688 L 288 144.22154425 L 291 111.056691812 L 295 143.158789375 L 298 176.448786938 L 302 162.0638845 L 306 153.085432063 L 309 208.565079625 L 313 166.942477188 L 317 192.33542475 L 320 215.440772312 L 324 288.981119875 L 328 261.694517437 L 331 186.888765 L 335 176.496662562 L 339 196.281210125 L 342 253.264457688 L 346 244.75675525 L 350 340.419202812 L 353 312.527100375 L 357 318.401247937 L 361 348.7977955 L 364 335.848593063 L 368 367.860040625 L 371 295.633788187 L 375 352.57258575 L 379 333.969133312 L 382 359.093630875 L 386 380.829428437 L 390 362.271126 L 393 376.804973562 L 397 370.227171125 L 401 381.374418687 L 404 342.01771625 L 408 394.536363812 L 412 393.814061375 L 415 401.886908938 L 419 400.7376065 L 423 377.647154063 L 426 443.245651625 L 430 399.716249188 L 433 395.60629675 L 437 424.185294312 L 441 389.427941875 L 444 394.673839437 L 448 427.246337 L 452 394.754884563 L 455 395.917682125 L 459 410.900929688 L 463 404.81627725 L 466 394.760874812 L 470 404.112272375 L 474 412.409119938 L 477 401.0751675 L 481 425.862615063 L 485 368.175712625 L 488 412.908260187 L 492 402.06780775 L 495 417.589355313 L 499 404.931352875 L 503 380.561650438 L 506 393.839698 L 510 379.005395562 L 514 428.135693125 L 517 423.689040687 L 521 413.83523825 L 525 392.898685813 L 528 424.439383375 L 532 391.252480937 L 536 402.7577785 L 539 418.593276062 L 543 409.570023625 L 547 392.963321188 L 550 423.44946875 L 554 442.336266313 L 557 432.527613875 L 561 388.167661437 L 565 437.208359 L 568 410.572756562 L 572 419.677404125 L 576 444.285301688 L 579 436.47374925 L 583 428.571896813 L 587 451.497344375 L 590 438.121141937 L 594 428.7835895 L 598 432.571037063 L 601 424.198434625 L 605 439.742382187 L 609 434.62267975 L 612 437.445527313 L 616 434.883274875 L 620 446.254172438"/>
			<path class="series-2-line" d="M 40 463.225 L 43 377.14359375 L 47 430.1871875 L 50 433.35578125 L 54 462.774375 L 58 490.44296875 L 61 441.1115625 L 65 394.40515625 L 69 450.07375 L 72 487.36734375 L 76 433.6609375 L 80 397.45453125 L 83 486.373125 L 87 473.79171875 L 91 473.4603125 L 94 479.25390625 L 98 462.2975 L 102 464.59109375 L 105 473.0096875 L 109 480.55328125 L 112 481.096875 L 116 514.89046875 L 120 504.0590625 L 123 440.72765625 L 127 471.02125 L 131 465.43984375 L 134 521.9834375 L 138 509.40203125 L 142 511.695625 L 145 499.98921875 L 149 496.1578125 L 153 481.82640625 L 156 472.745 L 160 472.41359375 L 164 499.2071875 L 167 478.75078125 L 171 508.169375 L 174 458.83796875 L 178 459.3815625 L 182 472.17515625 L 185 463.96875 L 189 457.51234375 L 193 444.0559375 L 196 474.34953125 L 200 446.018125 L 204 428.18671875 L 207 433.9803125 L 211 457.27390625 L 215 422.8175 L 218 385.73609375 L 222 406.4046875 L 226 448.07328125 L 229 443.366875 L 233 443.03546875 L 236 440.0790625 L 240 415.24765625 L 244 389.54125 L 247 398.83484375 L 251 374.0034375 L 255 397.29703125 L 258 348.840625 L 262 341.50921875 L 266 408.5528125 L 269 220.97140625 L 273 199.64 L 277 115.30859375 L 280 83.4771875 L 284 171.52078125 L 288 241.189375 L 291 203.23296875 L 295 255.4015625 L 298 190.32015625 L 302 259.98875 L 306 271.03234375 L 309 259.3259375 L 313 278.24453125 L 317 250.788125 L 320 307.33171875 L 324 276.3753125 L 328 242.79390625 L 331 217.0875 L 335 209.75609375 L 339 238.2996875 L 342 265.09328125 L 346 236.761875 L 350 235.55546875 L 353 228.2240625 L 357 242.76765625 L 361 253.81125 L 364 304.22984375 L 368 268.0234375 L 371 181.06703125 L 375 248.985625 L 379 260.02921875 L 382 308.6978125 L 386 271.61640625 L 390 309.785 L 393 270.07859375 L 397 281.9971875 L 401 361.29078125 L 404 367.959375 L 408 408.75296875 L 412 394.4215625 L 415 407.21515625 L 419 322.88375 L 423 351.42734375 L 426 365.0959375 L 430 408.51453125 L 433 410.808125 L 437 398.22671875 L 441 404.0203125 L 444 414.18890625 L 448 392.8575 L 452 386.40109375 L 455 419.3196875 L 459 446.11328125 L 463 415.156875 L 466 423.57546875 L 470 407.4940625 L 474 385.28765625 L 477 422.58125 L 481 421.37484375 L 485 421.0434375 L 488 379.58703125 L 492 408.130625 L 495 419.17421875 L 499 424.0928125 L 503 413.26140625 L 506 433.055 L 510 436.22359375 L 514 425.3921875 L 517 411.93578125 L 521 388.854375 L 525 422.64796875 L 528 425.8165625 L 532 425.48515625 L 536 414.65375 L 539 410.82234375 L 543 428.8659375 L 547 435.53453125 L 550 432.578125 L 554 430.49671875 L 557 434.5403125 L 561 436.83390625 L 565 440.0025 L 568 441.42109375 L 572 429.7146875 L 576 422.38328125 L 579 456.176875 L 583 435.72046875 L 587 452.0140625 L 590 432.43265625 L 594 431.22625 L 598 430.01984375 L 601 448.9384375 L 605 456.48203125 L 609 445.650625 L 612 458.44421875 L 616 423.9878125 L 620 434.15640625"/>
		</g>
		<text class="x-axis-label" x="40.0" y="540">
			0
		</text>
		<path class="x-notch" d="M 58.2389937107 525 L 58.2389937107 530"/>
		<text class="x-axis-label" x="76.4779874214" y="540">
			10
		</text>
		<path class="x-notch" d="M 94.7169811321 525 L 94.7169811321 530"/>
		<text class="x-axis-label" x="112.955974843" y="540">
			20
		</text>
		<path class="x-notch" d="M 131.194968553 525 L 131.194968553 530"/>
		<text class="x-axis-label" x="149.433962264" y="540">
			30
		</text>
		<path class="x-notch" d="M 167.672955975 525 L 167.672955975 530"/>
		<text class="x-axis-label" x="185.911949686" y="540">
			40
		</text>
		<path class="x-notch" d="M 204.150943396 525 L 204.150943396 530"/>
		<text class="x-axis-label" x="222.389937107" y="540">
			50
		</text>
		<path class="x-notch" d="M 240.628930818 525 L 240.628930818 530"/>
		<text class="x-axis-label" x="258.867924528" y="540">
			60
		</text>
		<path class="x-notch" d="M 277.106918239 525 L 277.106918239 530"/>
		<text class="x-axis-label" x="295.34591195" y="540">
			70
		</text>
		<path class="x-notch" d="M 313.58490566 525 L 313.58490566 530"/>
		<text class="x-axis-label" x="331.823899371" y="540">
			80
		</text>
		<path class="x-notch" d="M 350.062893082 525 L 350.062893082 530"/>
		<text class="x-axis-label" x="368.301886792" y="540">
			90
		</text>
		<path class="x-notch" d="M 386.540880503 525 L 386.540880503 530"/>
		<text class="x-axis-label" x="404.779874214" y="540">
			100
		</text>
		<path class="x-notch" d="M 423.018867925 525 L 423.018867925 530"/>
		<text class="x-axis-label" x="441.257861635" y="540">
			110
		</text>
		<path class="x-notch" d="M 459.496855346 525 L 459.496855346 530"/>
		<text class="x-axis-label" x="477.735849057" y="540">
			120
		</text>
		<path class="x-notch" d="M 495.974842767 525 L 495.974842767 530"/>
		<text class="x-axis-label" x="514.213836478" y="540">
			130
		</text>
		<path class="x-notch" d="M 532.452830189 525 L 532.452830189 530"/>
		<text class="x-axis-label" x="550.691823899" y="540">
			140
		</text>
		<path class="x-notch" d="M 568.93081761 525 L 568.93081761 530"/>
		<text class="x-axis-label" x="587.169811321" y="540">
			150
		</text>
		<path class="x-notch" d="M 605.408805031 525 L 605.408805031 530"/>
	</g>
</svg>
