<?xml version="1.0" ?>
<svg height="600" version="1.1" width="800" xmlns="http://www.w3.org/2000/svg" xmlns:svg="http://www.w3.org/2000/svg">
	<style type="text/css">
		

.x-axis-path, .y-gridline, .x-notch { fill:none; stroke: #a7a9ac; stroke-width:1; }



.y-gridline { stroke-width: 1; }

.y-axis-path, .y-axis-path2, .x-notch-left, .x-notch-right { display: none;}



.x-axis-label, .data-point-label {font-size: 12px; font-weight:normal; font-family: sans-serif; fill: #58595b; text-anchor:middle;}

.y-axis-label {font-size: 12px; font-family: helvetica; fill: #a7a9ac; text-anchor:end;}



.series-1-line { fill: none; stroke: #10b80c; stroke-width:2; }



.series-2-line { fill: none; stroke: #e90f0a; stroke-width: 2;}

	</style>
	<rect fill="white" height="600" width="800" x="0" y="0"/>
	<g id="grid" transform="translate(70, 30)">
		<g class="x-axis" id="x_axis">
			<path class="x-axis-path" d="M 0 525 L 660 525"/>
			<path class="x-notch-left" d="M 0 525, L 0 535"/>
			<path class="x-notch-right" d="M 660 525, L 660 535"/>
		</g>
		<g class="y-axis" id="y_axis">
			<path class="y-axis-path" d="M 0 525 L 0 0"/>
			<path class="y-axis-path-2" d="M 660 525 L 660 0"/>
			<path class="y-gridline" d="M 0 525 L 660 525"/>
			<text class="y-axis-label" x="-5" y="525">
				-100
			</text>
			<path class="y-gridline" d="M 0 438 L 660 438"/>
			<text class="y-axis-label" x="-5" y="438">
				 0
			</text>
			<path class="y-gridline" d="M 0 351 L 660 351"/>
			<text class="y-axis-label" x="-5" y="351">
				100
			</text>
			<path class="y-gridline" d="M 0 264 L 660 264"/>
			<text class="y-axis-label" x="-5" y="264">
				200
			</text>
			<path class="y-gridline" d="M 0 177 L 660 177"/>
			<text class="y-axis-label" x="-5" y="177">
				300
			</text>
			<path class="y-gridline" d="M 0 90 L 660 90"/>
			<text class="y-axis-label" x="-5" y="90">
				400
			</text>
			<path class="y-gridline" d="M 0 3 L 660 3"/>
			<text class="y-axis-label" x="-5" y="3">
				500
			</text>
		</g>
		<g>
			<path class="series-1-line" d="M 40 421.53888 L 45 482.510773043 L 50 419.636566087 L 55 371.00875913 L 60 482.393952174 L 65 453.195695217 L 70 444.661088261 L 75 469.488481304 L 80 431.809374348 L 85 309.614017391 L 90 420.102510435 L 95 370.913653478 L 101 425.670596522 L 106 409.664889565 L 111 263.754232609 L 116 404.262225652 L 121 393.035068696 L 126 448.330661739 L 131 452.068454783 L 136 431.351047826 L 141 422.00864087 L 146 371.204883913 L 151 360.605976957 L 157 347.11292 L 162 360.161413043 L 167 283.713156087 L 172 314.95744913 L 177 258.880942174 L 182 274.195335217 L 187 190.209128261 L 192 244.180671304 L 197 281.909064348 L 202 195.050407391 L 207 217.791100435 L 212 130.933143478 L 218 206.802086522 L 223 189.293129565 L 228 218.921472609 L 233 212.967065652 L 238 216.032158696 L 243 245.526451739 L 248 202.821694783 L 253 241.716287826 L 258 215.90603087 L 263 149.599023913 L 268 184.702066957 L 274 259.62881 L 279 193.590953043 L 284 171.190746087 L 289 169.40903913 L 294 156.634182174 L 299 166.339825217 L 304 141.202968261 L 309 102.828411304 L 314 139.524304348 L 319 139.672497391 L 324 59.0511904348 L 330 109.231183478 L 335 95.4014265217 L 340 130.931119565 L 345 102.293912609 L 350 148.121305652 L 355 184.525648696 L 360 156.741041739 L 365 188.860334783 L 370 104.447127826 L 375 128.04077087 L 380 191.547713913 L 385 106.776106957 L 391 138.28955 L 396 157.373093043 L 401 99.367386087 L 406 130.31977913 L 411 20.9806221739 L 416 73.4937152174 L 421 183.824708261 L 426 200.507951304 L 431 90.2934443478 L 436 149.425737391 L 441 205.506730435 L 447 235.359423478 L 452 380.510866522 L 457 336.392809565 L 462 367.390002609 L 467 235.928395652 L 472 321.961688696 L 477 295.769931739 L 482 428.693774783 L 487 441.046817826 L 492 450.86481087 L 497 467.929553913 L 502 446.606296957 L 508 429.25449 L 513 459.354283043 L 518 459.838826087 L 523 464.83276913 L 528 447.996862174 L 533 410.632055217 L 538 448.808798261 L 543 441.418341304 L 548 451.056784348 L 553 441.804327391 L 558 469.189170435 L 564 450.984763478 L 569 468.543006522 L 574 448.162299565 L 579 452.527992609 L 584 442.624885652 L 589 467.048378696 L 594 422.347221739 L 599 453.097664783 L 604 432.245857826 L 609 448.70475087 L 614 441.269493913 L 620 427.798836957"/>
			<path class="series-2-line" d="M 40 415.8 L 45 432.980434783 L 50 455.410869565 L 55 439.341304348 L 60 440.77173913 L 65 430.827173913 L 70 439.257608696 L 75 430.188043478 L 80 412.368478261 L 85 372.673913043 L 90 445.854347826 L 95 414.909782609 L 101 411.965217391 L 106 425.645652174 L 111 331.701086957 L 116 431.131521739 L 121 415.936956522 L 126 431.367391304 L 131 436.297826087 L 136 434.22826087 L 141 432.158695652 L 146 448.464130435 L 151 437.644565217 L 157 434.7 L 162 420.380434783 L 167 410.435869565 L 172 424.116304348 L 177 409.79673913 L 182 383.227173913 L 187 423.157608696 L 192 406.213043478 L 197 432.143478261 L 202 408.198913043 L 207 383.379347826 L 212 427.684782609 L 218 407.240217391 L 223 416.545652174 L 228 375.101086957 L 233 390.531521739 L 238 432.211956522 L 243 445.892391304 L 248 427.197826087 L 253 407.62826087 L 258 415.183695652 L 263 427.114130435 L 268 418.919565217 L 274 408.975 L 279 413.030434783 L 284 400.460869565 L 289 379.141304348 L 294 400.69673913 L 299 396.002173913 L 304 435.057608696 L 309 423.363043478 L 314 405.543478261 L 319 424.473913043 L 324 417.154347826 L 330 411.584782609 L 335 392.890217391 L 340 420.570652174 L 345 425.501086957 L 350 416.431521739 L 355 409.986956522 L 360 418.417391304 L 365 432.097826087 L 370 402.02826087 L 375 414.833695652 L 380 411.889130435 L 385 437.819565217 L 391 443.625 L 396 409.180434783 L 401 422.860869565 L 406 413.791304348 L 411 416.09673913 L 416 387.777173913 L 421 417.207608696 L 426 416.013043478 L 431 384.193478261 L 436 415.373913043 L 441 444.804347826 L 447 402.484782609 L 452 425.790217391 L 457 422.845652174 L 462 406.776086957 L 467 345.206521739 L 472 411.386956522 L 477 410.192391304 L 482 429.997826087 L 487 421.80326087 L 492 433.733695652 L 497 441.289130435 L 502 431.344565217 L 508 450.275 L 513 437.705434783 L 518 438.260869565 L 523 417.816304348 L 528 424.49673913 L 533 425.927173913 L 538 415.982608696 L 543 416.538043478 L 548 422.343478261 L 553 440.398913043 L 558 407.704347826 L 564 423.134782609 L 569 421.940217391 L 574 435.620652174 L 579 410.801086957 L 584 427.981521739 L 589 413.661956522 L 594 433.467391304 L 599 421.772826087 L 604 440.70326087 L 609 440.383695652 L 614 447.939130435 L 620 441.494565217"/>
		</g>
		<text class="x-axis-label" x="40.0" y="540">
			0
		</text>
		<path class="x-notch" d="M 65.4385964912 525 L 65.4385964912 530"/>
		<text class="x-axis-label" x="90.8771929825" y="540">
			10
		</text>
		<path class="x-notch" d="M 116.315789474 525 L 116.315789474 530"/>
		<text class="x-axis-label" x="141.754385965" y="540">
			20
		</text>
		<path class="x-notch" d="M 167.192982456 525 L 167.192982456 530"/>
		<text class="x-axis-label" x="192.631578947" y="540">
			30
		</text>
		<path class="x-notch" d="M 218.070175439 525 L 218.070175439 530"/>
		<text class="x-axis-label" x="243.50877193" y="540">
			40
		</text>
		<path class="x-notch" d="M 268.947368421 525 L 268.947368421 530"/>
		<text class="x-axis-label" x="294.385964912" y="540">
			50
		</text>
		<path class="x-notch" d="M 319.824561404 525 L 319.824561404 530"/>
		<text class="x-axis-label" x="345.263157895" y="540">
			60
		</text>
		<path class="x-notch" d="M 370.701754386 525 L 370.701754386 530"/>
		<text class="x-axis-label" x="396.140350877" y="540">
			70
		</text>
		<path class="x-notch" d="M 421.578947368 525 L 421.578947368 530"/>
		<text class="x-axis-label" x="447.01754386" y="540">
			80
		</text>
		<path class="x-notch" d="M 472.456140351 525 L 472.456140351 530"/>
		<text class="x-axis-label" x="497.894736842" y="540">
			90
		</text>
		<path class="x-notch" d="M 523.333333333 525 L 523.333333333 530"/>
		<text class="x-axis-label" x="548.771929825" y="540">
			100
		</text>
		<path class="x-notch" d="M 574.210526316 525 L 574.210526316 530"/>
		<text class="x-axis-label" x="599.649122807" y="540">
			110
		</text>
		<path class="x-notch" d="M 625.087719298 525 L 625.087719298 530"/>
	</g>
</svg>
