<?xml version="1.0" ?>
<svg height="600" version="1.1" width="800" xmlns="http://www.w3.org/2000/svg" xmlns:svg="http://www.w3.org/2000/svg">
	<style type="text/css">
		

.x-axis-path, .y-gridline, .x-notch { fill:none; stroke: #a7a9ac; stroke-width:1; }



.y-gridline { stroke-width: 1; }

.y-axis-path, .y-axis-path2, .x-notch-left, .x-notch-right { display: none;}



.x-axis-label, .data-point-label {font-size: 12px; font-weight:normal; font-family: sans-serif; fill: #58595b; text-anchor:middle;}

.y-axis-label {font-size: 12px; font-family: helvetica; fill: #a7a9ac; text-anchor:end;}



.series-1-line { fill: none; stroke: #10b80c; stroke-width:2; }



.series-2-line { fill: none; stroke: #e90f0a; stroke-width: 2;}

	</style>
	<rect fill="white" height="600" width="800" x="0" y="0"/>
	<g id="grid" transform="translate(70, 30)">
		<g class="x-axis" id="x_axis">
			<path class="x-axis-path" d="M 0 525 L 660 525"/>
			<path class="x-notch-left" d="M 0 525, L 0 535"/>
			<path class="x-notch-right" d="M 660 525, L 660 535"/>
		</g>
		<g class="y-axis" id="y_axis">
			<path class="y-axis-path" d="M 0 525 L 0 0"/>
			<path class="y-axis-path-2" d="M 660 525 L 660 0"/>
			<path class="y-gridline" d="M 0 525 L 660 525"/>
			<text class="y-axis-label" x="-5" y="525">
				-100
			</text>
			<path class="y-gridline" d="M 0 420 L 660 420"/>
			<text class="y-axis-label" x="-5" y="420">
				 0
			</text>
			<path class="y-gridline" d="M 0 315 L 660 315"/>
			<text class="y-axis-label" x="-5" y="315">
				100
			</text>
			<path class="y-gridline" d="M 0 210 L 660 210"/>
			<text class="y-axis-label" x="-5" y="210">
				200
			</text>
			<path class="y-gridline" d="M 0 105 L 660 105"/>
			<text class="y-axis-label" x="-5" y="105">
				300
			</text>
			<path class="y-gridline" d="M 0 0 L 660 0"/>
			<text class="y-axis-label" x="-5" y="0">
				400
			</text>
		</g>
		<g>
			<path class="series-1-line" d="M 40 430.919748 L 43 412.02884216 L 47 403.071776319 L 50 385.634490479 L 54 463.316284638 L 57 410.044178798 L 61 443.275692957 L 65 396.788267117 L 68 428.942901276 L 72 438.698095436 L 75 449.287409595 L 79 393.888423755 L 82 451.054477914 L 86 426.751872074 L 90 448.675726233 L 93 388.215320393 L 97 416.143074552 L 100 339.501748712 L 104 391.741202871 L 108 366.738457031 L 111 366.69295119 L 115 369.25942535 L 118 336.287179509 L 122 331.827053669 L 125 377.092827828 L 129 354.513061988 L 133 336.887196147 L 136 321.334450307 L 140 352.977524466 L 143 314.055558626 L 147 322.894732785 L 150 333.618026945 L 154 346.119601104 L 158 304.047635264 L 161 263.213829423 L 165 257.164423583 L 168 260.457917742 L 172 340.239291902 L 176 235.921646061 L 179 222.118200221 L 183 157.05459438 L 186 215.18958854 L 190 247.129182699 L 193 221.857636859 L 197 192.950151018 L 201 176.858965178 L 204 198.055799337 L 208 133.637733497 L 211 11.7653476564 L 215 73.885301816 L 219 79.4131959755 L 222 153.729950135 L 226 142.484724294 L 229 146.719858454 L 233 142.340372613 L 236 177.187626773 L 240 153.827080933 L 244 195.001215092 L 247 179.555569252 L 251 151.779563411 L 254 176.827377571 L 258 98.6513717301 L 261 115.56756589 L 265 173.837800049 L 269 84.7039942086 L 272 100.731888368 L 276 135.525382528 L 279 126.380156687 L 283 178.646070847 L 287 148.500845006 L 290 152.225259166 L 294 14.5222333252 L 297 149.145947485 L 301 115.204761644 L 304 52.7791758037 L 308 160.237289963 L 312 124.546384123 L 315 117.258818282 L 319 185.652312442 L 322 157.014886601 L 326 77.4659007607 L 330 131.23961492 L 333 93.4214090798 L 337 156.968523239 L 340 151.458397399 L 344 172.224311558 L 347 138.955965718 L 351 153.906979877 L 355 188.646294037 L 358 159.739648196 L 362 159.640382356 L 365 164.764656515 L 369 214.150210675 L 372 157.432004834 L 376 235.329258994 L 380 198.453113153 L 383 178.996467313 L 387 266.316421472 L 390 239.213255632 L 394 222.610929791 L 398 265.750243951 L 401 244.35529811 L 405 224.71007227 L 408 201.672506429 L 412 260.723520589 L 415 239.301274748 L 419 250.779308908 L 423 275.207203067 L 426 258.765737227 L 430 266.447811387 L 433 304.041025546 L 437 276.615299706 L 440 283.273833865 L 444 284.817188025 L 448 322.410402184 L 451 316.415176344 L 455 265.781510503 L 458 326.124864663 L 462 315.741058822 L 466 364.507112982 L 469 377.088907141 L 473 335.124881301 L 476 337.98703546 L 480 371.54194962 L 483 371.900483779 L 487 355.674897939 L 491 370.464212098 L 494 361.884306258 L 498 393.608440417 L 501 391.194134577 L 505 370.283448736 L 509 329.934322896 L 512 444.204837055 L 516 377.013511215 L 519 394.872185374 L 523 412.380999534 L 526 416.831593693 L 530 409.167287853 L 534 445.387522012 L 537 434.653856172 L 541 437.597070331 L 544 424.871344491 L 548 418.04157865 L 551 412.50373281 L 555 447.135526969 L 559 445.878741129 L 562 417.860815288 L 566 435.046229448 L 569 438.662703607 L 573 435.117337767 L 577 433.564451926 L 580 414.430786086 L 584 441.147260245 L 587 421.959834405 L 591 415.695388564 L 594 417.938462724 L 598 405.616356883 L 602 434.190491043 L 605 427.979805202 L 609 421.446139362 L 612 432.520133521 L 616 392.628807681 L 620 432.96840184"/>
			<path class="series-2-line" d="M 40 395.43 L 43 438.245521472 L 47 405.461042945 L 50 426.226564417 L 54 432.29208589 L 57 433.107607362 L 61 411.873128834 L 65 418.988650307 L 68 401.954171779 L 72 439.519693252 L 75 428.785214724 L 79 433.800736196 L 82 405.216257669 L 86 432.281779141 L 90 414.197300613 L 93 430.762822086 L 97 417.928343558 L 100 419.793865031 L 104 422.709386503 L 108 436.124907975 L 111 405.440429448 L 115 417.80595092 L 118 404.971472393 L 122 448.836993865 L 125 392.952515337 L 129 396.91803681 L 133 406.133558282 L 136 419.549079755 L 140 400.414601227 L 143 414.880122699 L 147 390.495644172 L 150 317.811165644 L 154 377.426687117 L 158 391.892208589 L 161 376.957730061 L 165 341.023251534 L 168 362.838773006 L 172 327.954294479 L 176 388.619815951 L 179 333.785337423 L 183 413.350858896 L 186 356.416380368 L 190 372.98190184 L 193 428.397423313 L 197 354.662944785 L 201 370.178466258 L 204 342.64398773 L 208 362.359509202 L 211 335.875030675 L 215 312.540552147 L 219 313.35607362 L 222 353.021595092 L 226 349.637116564 L 229 306.352638037 L 233 337.618159509 L 236 351.033680982 L 240 353.949202454 L 244 363.164723926 L 247 318.830245399 L 251 314.395766871 L 254 382.411288344 L 258 377.976809816 L 261 363.042331288 L 265 367.007852761 L 269 352.073374233 L 272 352.888895706 L 276 374.704417178 L 279 371.31993865 L 283 329.085460123 L 287 325.700981595 L 290 362.216503067 L 294 348.33202454 L 297 316.597546012 L 301 332.113067485 L 304 368.628588957 L 308 315.894110429 L 312 358.709631902 L 315 352.175153374 L 319 373.990674847 L 322 381.106196319 L 326 386.121717791 L 330 354.387239264 L 333 360.452760736 L 337 360.218282209 L 340 404.083803681 L 344 361.849325153 L 347 354.264846626 L 351 359.280368098 L 355 348.545889571 L 358 356.711411043 L 362 334.426932515 L 365 357.292453988 L 369 354.95797546 L 372 361.023496933 L 376 374.439018405 L 380 356.354539877 L 383 364.52006135 L 387 341.185582822 L 390 313.651104294 L 394 368.016625767 L 398 357.282147239 L 401 381.197668712 L 405 377.813190184 L 408 371.278711656 L 412 376.294233129 L 415 363.459754601 L 419 377.925276074 L 423 378.740797546 L 426 366.956319018 L 430 400.321840491 L 433 394.837361963 L 437 417.702883436 L 440 405.918404908 L 444 414.08392638 L 448 408.599447853 L 451 405.214969325 L 455 403.930490798 L 458 412.09601227 L 462 397.161533742 L 466 368.577055215 L 469 374.642576687 L 473 413.25809816 L 476 379.423619632 L 480 389.689141104 L 483 377.904662577 L 487 414.420184049 L 491 403.685705521 L 494 394.001226994 L 498 403.216748466 L 501 414.532269939 L 505 403.797791411 L 509 395.163312883 L 512 426.428834356 L 516 428.294355828 L 519 430.159877301 L 523 445.675398773 L 526 409.740920245 L 530 421.056441718 L 534 425.02196319 L 537 423.737484663 L 541 418.253006135 L 544 441.118527607 L 548 445.08404908 L 551 411.249570552 L 555 417.315092025 L 559 411.830613497 L 562 445.196134969 L 566 429.211656442 L 569 441.577177914 L 573 424.542699387 L 577 424.308220859 L 580 423.023742331 L 584 435.389263804 L 587 442.504785276 L 591 440.170306748 L 594 421.035828221 L 598 421.851349693 L 602 431.066871166 L 605 420.332392638 L 609 419.04791411 L 612 414.613435583 L 616 416.478957055 L 620 433.044478528"/>
		</g>
		<text class="x-axis-label" x="40.0" y="540">
			0
		</text>
		<path class="x-notch" d="M 57.9012345679 525 L 57.9012345679 530"/>
		<text class="x-axis-label" x="75.8024691358" y="540">
			10
		</text>
		<path class="x-notch" d="M 93.7037037037 525 L 93.7037037037 530"/>
		<text class="x-axis-label" x="111.604938272" y="540">
			20
		</text>
		<path class="x-notch" d="M 129.50617284 525 L 129.50617284 530"/>
		<text class="x-axis-label" x="147.407407407" y="540">
			30
		</text>
		<path class="x-notch" d="M 165.308641975 525 L 165.308641975 530"/>
		<text class="x-axis-label" x="183.209876543" y="540">
			40
		</text>
		<path class="x-notch" d="M 201.111111111 525 L 201.111111111 530"/>
		<text class="x-axis-label" x="219.012345679" y="540">
			50
		</text>
		<path class="x-notch" d="M 236.913580247 525 L 236.913580247 530"/>
		<text class="x-axis-label" x="254.814814815" y="540">
			60
		</text>
		<path class="x-notch" d="M 272.716049383 525 L 272.716049383 530"/>
		<text class="x-axis-label" x="290.617283951" y="540">
			70
		</text>
		<path class="x-notch" d="M 308.518518519 525 L 308.518518519 530"/>
		<text class="x-axis-label" x="326.419753086" y="540">
			80
		</text>
		<path class="x-notch" d="M 344.320987654 525 L 344.320987654 530"/>
		<text class="x-axis-label" x="362.222222222" y="540">
			90
		</text>
		<path class="x-notch" d="M 380.12345679 525 L 380.12345679 530"/>
		<text class="x-axis-label" x="398.024691358" y="540">
			100
		</text>
		<path class="x-notch" d="M 415.925925926 525 L 415.925925926 530"/>
		<text class="x-axis-label" x="433.827160494" y="540">
			110
		</text>
		<path class="x-notch" d="M 451.728395062 525 L 451.728395062 530"/>
		<text class="x-axis-label" x="469.62962963" y="540">
			120
		</text>
		<path class="x-notch" d="M 487.530864198 525 L 487.530864198 530"/>
		<text class="x-axis-label" x="505.432098765" y="540">
			130
		</text>
		<path class="x-notch" d="M 523.333333333 525 L 523.333333333 530"/>
		<text class="x-axis-label" x="541.234567901" y="540">
			140
		</text>
		<path class="x-notch" d="M 559.135802469 525 L 559.135802469 530"/>
		<text class="x-axis-label" x="577.037037037" y="540">
			150
		</text>
		<path class="x-notch" d="M 594.938271605 525 L 594.938271605 530"/>
		<text class="x-axis-label" x="612.839506173" y="540">
			160
		</text>
		<path class="x-notch" d="M 630.740740741 525 L 630.740740741 530"/>
	</g>
</svg>
