<?xml version="1.0" ?>
<svg height="600" version="1.1" width="800" xmlns="http://www.w3.org/2000/svg" xmlns:svg="http://www.w3.org/2000/svg">
	<style type="text/css">
		

.x-axis-path, .y-gridline, .x-notch { fill:none; stroke: #a7a9ac; stroke-width:1; }



.y-gridline { stroke-width: 1; }

.y-axis-path, .y-axis-path2, .x-notch-left, .x-notch-right { display: none;}



.x-axis-label, .data-point-label {font-size: 12px; font-weight:normal; font-family: sans-serif; fill: #58595b; text-anchor:middle;}

.y-axis-label {font-size: 12px; font-family: helvetica; fill: #a7a9ac; text-anchor:end;}



.series-1-line { fill: none; stroke: #10b80c; stroke-width:2; }



.series-2-line { fill: none; stroke: #e90f0a; stroke-width: 2;}

	</style>
	<rect fill="white" height="600" width="800" x="0" y="0"/>
	<g id="grid" transform="translate(70, 30)">
		<g class="x-axis" id="x_axis">
			<path class="x-axis-path" d="M 0 525 L 660 525"/>
			<path class="x-notch-left" d="M 0 525, L 0 535"/>
			<path class="x-notch-right" d="M 660 525, L 660 535"/>
		</g>
		<g class="y-axis" id="y_axis">
			<path class="y-axis-path" d="M 0 525 L 0 0"/>
			<path class="y-axis-path-2" d="M 660 525 L 660 0"/>
			<path class="y-gridline" d="M 0 525 L 660 525"/>
			<text class="y-axis-label" x="-5" y="525">
				-200
			</text>
			<path class="y-gridline" d="M 0 438 L 660 438"/>
			<text class="y-axis-label" x="-5" y="438">
				 0
			</text>
			<path class="y-gridline" d="M 0 351 L 660 351"/>
			<text class="y-axis-label" x="-5" y="351">
				200
			</text>
			<path class="y-gridline" d="M 0 264 L 660 264"/>
			<text class="y-axis-label" x="-5" y="264">
				400
			</text>
			<path class="y-gridline" d="M 0 177 L 660 177"/>
			<text class="y-axis-label" x="-5" y="177">
				600
			</text>
			<path class="y-gridline" d="M 0 90 L 660 90"/>
			<text class="y-axis-label" x="-5" y="90">
				800
			</text>
			<path class="y-gridline" d="M 0 3 L 660 3"/>
			<text class="y-axis-label" x="-5" y="3">
				1000
			</text>
		</g>
		<g>
			<path class="series-1-line" d="M 40 445.55 L 46 431.959090341 L 53 443.092530682 L 60 431.632946023 L 66 435.093336364 L 73 433.292526705 L 80 428.608592045 L 86 437.599332386 L 93 439.320922727 L 100 429.936663068 L 106 443.493328409 L 113 439.90874375 L 120 442.224809091 L 126 428.779849432 L 133 437.232114773 L 140 429.496880114 L 146 439.587145455 L 153 437.023510795 L 160 414.065551136 L 166 434.891366477 L 173 428.031131818 L 180 410.760672159 L 186 417.1825875 L 193 419.251902841 L 200 430.721868182 L 206 414.842483523 L 213 407.051248864 L 220 423.086789205 L 226 423.619429545 L 233 421.560494886 L 240 424.280460227 L 246 403.240850568 L 253 420.981590909 L 260 399.95318125 L 266 425.322171591 L 273 403.306586932 L 280 394.393602273 L 286 367.700092614 L 293 396.658857955 L 300 394.005448295 L 306 400.449763636 L 313 366.004628977 L 320 374.412094318 L 326 384.434984659 L 333 385.539525 L 340 390.245040341 L 346 358.739030682 L 353 364.914196023 L 360 365.940161364 L 366 381.504776705 L 373 337.602992045 L 380 348.433507386 L 386 349.235122727 L 393 340.456713068 L 400 337.040478409 L 406 323.25881875 L 413 333.304109091 L 420 325.927974432 L 426 312.157514773 L 433 308.079430114 L 440 301.567095455 L 446 345.255085795 L 453 290.673576136 L 460 317.758966477 L 466 329.845981818 L 473 328.078772159 L 480 314.0951625 L 486 298.013827841 L 493 299.297918182 L 500 326.484108523 L 506 73.7600738636 L 513 156.665914205 L 520 207.084929545 L 526 358.330544886 L 533 397.856510227 L 540 414.195150568 L 546 422.075165909 L 553 430.65115625 L 560 439.069821591 L 566 440.006186932 L 573 449.972902273 L 580 450.606342614 L 586 453.741407955 L 593 438.265923295 L 600 442.982638636 L 606 442.449353977 L 613 438.461044318 L 620 425.599184659"/>
			<path class="series-2-line" d="M 40 437.5 L 46 439.220170455 L 53 440.065340909 L 60 433.473011364 L 66 436.943181818 L 73 442.163352273 L 80 436.446022727 L 86 430.291193182 L 93 432.011363636 L 100 425.856534091 L 106 441.139204545 L 113 434.546875 L 120 428.829545455 L 126 441.924715909 L 133 434.457386364 L 140 426.990056818 L 146 437.022727273 L 153 441.805397727 L 160 437.400568182 L 166 444.808238636 L 173 437.340909091 L 180 432.936079545 L 186 435.09375 L 193 433.751420455 L 200 433.284090909 L 206 433.691761364 L 213 434.974431818 L 220 421.819602273 L 226 438.414772727 L 233 432.697443182 L 240 432.230113636 L 246 435.700284091 L 253 429.545454545 L 260 431.265625 L 266 429.485795455 L 273 431.643465909 L 280 437.301136364 L 286 435.521306818 L 293 436.803977273 L 300 438.524147727 L 306 437.181818182 L 313 433.214488636 L 320 432.747159091 L 326 436.217329545 L 333 431.8125 L 340 428.720170455 L 346 426.940340909 L 353 433.473011364 L 360 424.255681818 L 366 433.413352273 L 373 437.321022727 L 380 434.228693182 L 386 425.886363636 L 393 427.606534091 L 400 428.889204545 L 406 426.234375 L 413 426.204545455 L 420 430.987215909 L 426 426.582386364 L 433 428.740056818 L 440 435.272727273 L 446 442.242897727 L 453 422.963068182 L 460 426.433238636 L 466 432.090909091 L 473 432.061079545 L 480 426.78125 L 486 424.563920455 L 493 426.284090909 L 500 414.004261364 L 506 404.786931818 L 513 402.132102273 L 520 434.039772727 L 526 434.447443182 L 533 425.230113636 L 540 433.075284091 L 546 412.482954545 L 553 436.953125 L 560 434.735795455 L 566 439.518465909 L 573 434.676136364 L 580 435.521306818 L 586 438.553977273 L 593 444.211647727 L 600 439.369318182 L 606 434.526988636 L 613 439.747159091 L 620 430.092329545"/>
		</g>
		<text class="x-axis-label" x="40.0" y="540">
			0
		</text>
		<path class="x-notch" d="M 73.3333333333 525 L 73.3333333333 530"/>
		<text class="x-axis-label" x="106.666666667" y="540">
			10
		</text>
		<path class="x-notch" d="M 140.0 525 L 140.0 530"/>
		<text class="x-axis-label" x="173.333333333" y="540">
			20
		</text>
		<path class="x-notch" d="M 206.666666667 525 L 206.666666667 530"/>
		<text class="x-axis-label" x="240.0" y="540">
			30
		</text>
		<path class="x-notch" d="M 273.333333333 525 L 273.333333333 530"/>
		<text class="x-axis-label" x="306.666666667" y="540">
			40
		</text>
		<path class="x-notch" d="M 340.0 525 L 340.0 530"/>
		<text class="x-axis-label" x="373.333333333" y="540">
			50
		</text>
		<path class="x-notch" d="M 406.666666667 525 L 406.666666667 530"/>
		<text class="x-axis-label" x="440.0" y="540">
			60
		</text>
		<path class="x-notch" d="M 473.333333333 525 L 473.333333333 530"/>
		<text class="x-axis-label" x="506.666666667" y="540">
			70
		</text>
		<path class="x-notch" d="M 540.0 525 L 540.0 530"/>
		<text class="x-axis-label" x="573.333333333" y="540">
			80
		</text>
		<path class="x-notch" d="M 606.666666667 525 L 606.666666667 530"/>
	</g>
</svg>
