<?xml version="1.0" ?>
<svg height="600" version="1.1" width="800" xmlns="http://www.w3.org/2000/svg" xmlns:svg="http://www.w3.org/2000/svg">
	<style type="text/css">

.x-axis-path, .y-gridline, .x-notch { fill:none; stroke: #a7a9ac; stroke-width:1; }



.y-gridline { stroke-width: 1; }

.y-axis-path, .y-axis-path2, .x-notch-left, .x-notch-right { display: none;}



.x-axis-label, .data-point-label {font-size: 12px; font-weight:normal; font-family: sans-serif; fill: #58595b; text-anchor:middle;}

.y-axis-label {font-size: 12px; font-family: helvetica; fill: #a7a9ac; text-anchor:end;}



.series-1-line { fill: none; stroke: #10b80c; stroke-width:2; }



.series-2-line { fill: none; stroke: #e90f0a; stroke-width: 2;}
</style>
	<rect fill="white" height="600" width="800" x="0" y="0"/>
	<g id="grid" transform="translate(70, 30)">
		<g class="x-axis" id="x_axis">
			<path class="x-axis-path" d="M 0 525 L 660 525"/>
			<path class="x-notch-left" d="M 0 525, L 0 535"/>
			<path class="x-notch-right" d="M 660 525, L 660 535"/>
		</g>
		<g class="y-axis" id="y_axis">
			<path class="y-axis-path" d="M 0 525 L 0 0"/>
			<path class="y-axis-path-2" d="M 660 525 L 660 0"/>
			<path class="y-gridline" d="M 0 525 L 660 525"/>
			<text class="y-axis-label" x="-5" y="525">-200</text>
			<path class="y-gridline" d="M 0 394 L 660 394"/>
			<text class="y-axis-label" x="-5" y="394"> 0</text>
			<path class="y-gridline" d="M 0 263 L 660 263"/>
			<text class="y-axis-label" x="-5" y="263">200</text>
			<path class="y-gridline" d="M 0 132 L 660 132"/>
			<text class="y-axis-label" x="-5" y="132">400</text>
			<path class="y-gridline" d="M 0 1 L 660 1"/>
			<text class="y-axis-label" x="-5" y="1">600</text>
		</g>
		<g>
			<path class="series-1-line" d="M 40 393.392728589 L 46 380.605105793 L 53 410.574951604 L 60 394.600447555 L 67 387.343992897 L 74 392.134326185 L 81 393.484144965 L 88 378.311546303 L 95 377.357608855 L 102 362.103790556 L 109 348.057817509 L 115 358.094971042 L 122 357.018966654 L 129 366.620098975 L 136 349.519127634 L 143 382.20864388 L 150 353.345232486 L 157 346.53524835 L 164 348.930473108 L 171 323.619035529 L 178 312.648167782 L 185 309.897740614 L 191 237.627420158 L 198 249.176873841 L 205 237.363570049 L 212 220.42487966 L 219 179.240623416 L 226 186.03009971 L 233 196.625658041 L 240 156.801237014 L 247 160.302505412 L 254 161.632058863 L 260 107.538471624 L 267 91.6654525406 L 274 87.625960483 L 281 101.885268582 L 288 64.273409804 L 295 69.317534668 L 302 48.5528135591 L 309 85.9715925557 L 316 83.4749569645 L 323 50.5111412999 L 330 26.0318487786 L 336 52.0743372272 L 343 0.0 L 350 92.943562977 L 357 11.7625141848 L 364 115.524912849 L 371 85.9104177124 L 378 42.4119559303 L 385 27.4119292079 L 392 284.646669872 L 399 331.636383615 L 405 279.876633951 L 412 274.812634536 L 419 363.311282655 L 426 378.189633215 L 433 374.911515888 L 440 401.217453609 L 447 396.823159977 L 454 399.421196344 L 461 401.36995058 L 468 398.599258083 L 475 408.545059314 L 481 402.800904807 L 488 407.580947107 L 495 401.471383392 L 502 410.747478841 L 509 400.162127306 L 516 408.301464476 L 523 391.464417376 L 530 377.915419849 L 537 387.841272398 L 544 398.761550956 L 550 397.695995878 L 557 399.481994193 L 564 406.890829593 L 571 388.551615007 L 578 397.868399436 L 585 394.823808357 L 592 402.435455367 L 599 389.079453431 L 606 394.874503716 L 613 386.826434657 L 620 398.883313171"/>
			<path class="series-2-line" d="M 40 390.821026719 L 46 390.279003682 L 53 403.590232652 L 60 390.77818641 L 67 391.819392174 L 74 396.81866994 L 81 398.255682905 L 88 399.296888669 L 95 405.087780836 L 102 403.358336199 L 109 413.898914767 L 115 403.065904526 L 122 381.546099879 L 129 407.918966456 L 136 401.044028216 L 143 391.398439575 L 150 397.980946142 L 157 391.106007903 L 164 399.27174327 L 171 392.000997831 L 178 401.354154799 L 185 394.083409359 L 191 395.520422324 L 198 395.770013688 L 205 397.602833852 L 212 380.832715608 L 219 379.894885371 L 226 366.291224728 L 233 376.435996097 L 240 364.019757055 L 247 353.978361214 L 254 358.58183178 L 260 364.768531146 L 267 351.560677704 L 274 329.249258657 L 281 338.998222825 L 288 336.477163788 L 295 348.205163957 L 302 341.726032918 L 309 319.810421071 L 316 319.268398034 L 323 301.706665389 L 330 288.103004747 L 336 327.53750893 L 343 296.518331478 L 350 288.060164438 L 357 290.288791803 L 364 292.121611967 L 371 292.371203331 L 378 266.497519482 L 385 271.496797249 L 392 335.471347844 L 399 364.219057621 L 405 330.429229769 L 412 359.968553947 L 419 381.195926921 L 426 386.986819088 L 433 384.86156725 L 440 383.132122613 L 447 400.797230786 L 454 392.734870945 L 461 408.816750317 L 468 404.712462479 L 475 392.692030637 L 481 404.815838006 L 488 395.961863766 L 495 403.335984733 L 502 403.189768897 L 509 398.689673858 L 516 390.627314018 L 523 388.897869381 L 530 368.169679135 L 537 390.188666509 L 544 395.979558676 L 550 403.749486843 L 557 383.417103797 L 564 396.728332768 L 571 382.333057724 L 578 391.290407492 L 585 399.06033566 L 592 396.143469422 L 599 391.643374384 L 606 394.267808949 L 613 395.309014713 L 620 393.579570076"/>
		</g>
		<text class="x-axis-label" x="40.0" y="540">0</text>
		<path class="x-notch" d="M 74.5238095238 525 L 74.5238095238 530"/>
		<text class="x-axis-label" x="109.047619048" y="540">10</text>
		<path class="x-notch" d="M 143.571428571 525 L 143.571428571 530"/>
		<text class="x-axis-label" x="178.095238095" y="540">20</text>
		<path class="x-notch" d="M 212.619047619 525 L 212.619047619 530"/>
		<text class="x-axis-label" x="247.142857143" y="540">30</text>
		<path class="x-notch" d="M 281.666666667 525 L 281.666666667 530"/>
		<text class="x-axis-label" x="316.19047619" y="540">40</text>
		<path class="x-notch" d="M 350.714285714 525 L 350.714285714 530"/>
		<text class="x-axis-label" x="385.238095238" y="540">50</text>
		<path class="x-notch" d="M 419.761904762 525 L 419.761904762 530"/>
		<text class="x-axis-label" x="454.285714286" y="540">60</text>
		<path class="x-notch" d="M 488.80952381 525 L 488.80952381 530"/>
		<text class="x-axis-label" x="523.333333333" y="540">70</text>
		<path class="x-notch" d="M 557.857142857 525 L 557.857142857 530"/>
		<text class="x-axis-label" x="592.380952381" y="540">80</text>
		<path class="x-notch" d="M 626.904761905 525 L 626.904761905 530"/>
	</g>
</svg>
