<?xml version="1.0" ?>
<svg height="600" version="1.1" width="800" xmlns="http://www.w3.org/2000/svg" xmlns:svg="http://www.w3.org/2000/svg">
	<style type="text/css">
		

.x-axis-path, .y-gridline, .x-notch { fill:none; stroke: #a7a9ac; stroke-width:1; }



.y-gridline { stroke-width: 1; }

.y-axis-path, .y-axis-path2, .x-notch-left, .x-notch-right { display: none;}



.x-axis-label, .data-point-label {font-size: 12px; font-weight:normal; font-family: sans-serif; fill: #58595b; text-anchor:middle;}

.y-axis-label {font-size: 12px; font-family: helvetica; fill: #a7a9ac; text-anchor:end;}



.series-1-line { fill: none; stroke: #10b80c; stroke-width:2; }



.series-2-line { fill: none; stroke: #e90f0a; stroke-width: 2;}

	</style>
	<rect fill="white" height="600" width="800" x="0" y="0"/>
	<g id="grid" transform="translate(70, 30)">
		<g class="x-axis" id="x_axis">
			<path class="x-axis-path" d="M 0 525 L 660 525"/>
			<path class="x-notch-left" d="M 0 525, L 0 535"/>
			<path class="x-notch-right" d="M 660 525, L 660 535"/>
		</g>
		<g class="y-axis" id="y_axis">
			<path class="y-axis-path" d="M 0 525 L 0 0"/>
			<path class="y-axis-path-2" d="M 660 525 L 660 0"/>
			<path class="y-gridline" d="M 0 525 L 660 525"/>
			<text class="y-axis-label" x="-5" y="525">
				-200
			</text>
			<path class="y-gridline" d="M 0 420 L 660 420"/>
			<text class="y-axis-label" x="-5" y="420">
				 0
			</text>
			<path class="y-gridline" d="M 0 315 L 660 315"/>
			<text class="y-axis-label" x="-5" y="315">
				200
			</text>
			<path class="y-gridline" d="M 0 210 L 660 210"/>
			<text class="y-axis-label" x="-5" y="210">
				400
			</text>
			<path class="y-gridline" d="M 0 105 L 660 105"/>
			<text class="y-axis-label" x="-5" y="105">
				600
			</text>
			<path class="y-gridline" d="M 0 0 L 660 0"/>
			<text class="y-axis-label" x="-5" y="0">
				800
			</text>
		</g>
		<g>
			<path class="series-1-line" d="M 40 420.994339374 L 48 426.416658553 L 57 424.978944626 L 66 412.697339409 L 75 420.215370617 L 84 427.775884401 L 93 418.065282849 L 102 394.652862637 L 111 401.622707052 L 120 373.360715495 L 129 390.711799793 L 138 368.334928004 L 147 310.702270335 L 156 329.039957807 L 164 303.677996038 L 173 298.292633907 L 182 267.094402581 L 191 261.044905686 L 200 282.635884096 L 209 259.948138694 L 218 198.282772629 L 227 240.319084599 L 236 138.462920961 L 245 193.664934792 L 254 209.614854407 L 263 180.920624025 L 272 175.723819904 L 280 191.685904551 L 289 173.11098569 L 298 137.056910424 L 307 123.416337981 L 316 131.976285246 L 325 125.859595553 L 334 147.560154298 L 343 136.198339613 L 352 110.269468305 L 361 129.807692459 L 370 105.0 L 379 159.690892372 L 388 138.483289327 L 396 117.234534258 L 405 167.166997992 L 414 138.326597138 L 423 142.066815404 L 432 139.003263843 L 441 152.455265029 L 450 212.957906814 L 459 219.556622687 L 468 393.291675523 L 477 360.996880531 L 486 415.571824933 L 495 422.432279091 L 504 416.797058589 L 512 432.308276706 L 521 394.317110034 L 530 419.95343707 L 539 418.302835068 L 548 418.790427672 L 557 419.92381245 L 566 421.221520211 L 575 404.096521205 L 584 415.397972674 L 593 425.170241496 L 602 412.900611233 L 611 420.369792231 L 620 418.207403495"/>
			<path class="series-2-line" d="M 40 427.983302819 L 48 424.489887841 L 57 406.978173269 L 66 422.492622147 L 75 416.385625888 L 84 394.35954365 L 93 416.526744877 L 102 407.806167339 L 111 413.103889393 L 120 391.79060205 L 129 399.226708789 L 138 377.200626551 L 147 369.430442205 L 156 343.365188898 L 164 332.981423272 L 173 329.012811697 L 182 330.271362683 L 191 318.699605566 L 200 294.772736942 L 209 256.352372128 L 218 284.697129109 L 227 231.07047321 L 236 246.584922088 L 245 224.083643254 L 254 236.984510851 L 263 246.083805677 L 272 212.653005126 L 280 223.653086338 L 289 238.692338619 L 298 209.775905733 L 307 187.037028601 L 316 194.473135339 L 325 165.556702454 L 334 133.78908999 L 343 135.522837572 L 352 93.0633016888 L 361 102.162596515 L 370 79.4237193825 L 379 118.222801483 L 388 52.7162306752 L 396 132.857416663 L 405 135.541557438 L 414 148.917621631 L 423 83.4110508232 L 432 143.593979762 L 441 147.703710326 L 450 160.129381327 L 459 214.134754513 L 468 381.712114238 L 477 387.247434591 L 486 407.038652836 L 495 438.709785991 L 504 427.375627172 L 512 434.574135613 L 521 429.892729143 L 530 414.281800957 L 539 430.033848132 L 548 427.253228049 L 557 425.660599456 L 566 407.673688287 L 575 418.911367797 L 584 424.921884747 L 593 428.556418715 L 602 423.637413947 L 611 406.600895971 L 620 418.788968674"/>
		</g>
		<text class="x-axis-label" x="40.0" y="540">
			0
		</text>
		<path class="x-notch" d="M 84.6153846154 525 L 84.6153846154 530"/>
		<text class="x-axis-label" x="129.230769231" y="540">
			10
		</text>
		<path class="x-notch" d="M 173.846153846 525 L 173.846153846 530"/>
		<text class="x-axis-label" x="218.461538462" y="540">
			20
		</text>
		<path class="x-notch" d="M 263.076923077 525 L 263.076923077 530"/>
		<text class="x-axis-label" x="307.692307692" y="540">
			30
		</text>
		<path class="x-notch" d="M 352.307692308 525 L 352.307692308 530"/>
		<text class="x-axis-label" x="396.923076923" y="540">
			40
		</text>
		<path class="x-notch" d="M 441.538461538 525 L 441.538461538 530"/>
		<text class="x-axis-label" x="486.153846154" y="540">
			50
		</text>
		<path class="x-notch" d="M 530.769230769 525 L 530.769230769 530"/>
		<text class="x-axis-label" x="575.384615385" y="540">
			60
		</text>
		<path class="x-notch" d="M 620.0 525 L 620.0 530"/>
	</g>
</svg>
