<?xml version="1.0" ?>
<svg height="600" version="1.1" width="800" xmlns="http://www.w3.org/2000/svg" xmlns:svg="http://www.w3.org/2000/svg">
	<style type="text/css">

.x-axis-path, .y-gridline, .x-notch { fill:none; stroke: #a7a9ac; stroke-width:1; }



.y-gridline { stroke-width: 1; }

.y-axis-path, .y-axis-path2, .x-notch-left, .x-notch-right { display: none;}



.x-axis-label, .data-point-label {font-size: 12px; font-weight:normal; font-family: sans-serif; fill: #58595b; text-anchor:middle;}

.y-axis-label {font-size: 12px; font-family: helvetica; fill: #a7a9ac; text-anchor:end;}



.series-1-line { fill: none; stroke: #10b80c; stroke-width:2; }



.series-2-line { fill: none; stroke: #e90f0a; stroke-width: 2;}
</style>
	<rect fill="white" height="600" width="800" x="0" y="0"/>
	<g id="grid" transform="translate(70, 30)">
		<g class="x-axis" id="x_axis">
			<path class="x-axis-path" d="M 0 525 L 660 525"/>
			<path class="x-notch-left" d="M 0 525, L 0 535"/>
			<path class="x-notch-right" d="M 660 525, L 660 535"/>
		</g>
		<g class="y-axis" id="y_axis">
			<path class="y-axis-path" d="M 0 525 L 0 0"/>
			<path class="y-axis-path-2" d="M 660 525 L 660 0"/>
			<path class="y-gridline" d="M 0 525 L 660 525"/>
			<text class="y-axis-label" x="-5" y="525">-200</text>
			<path class="y-gridline" d="M 0 394 L 660 394"/>
			<text class="y-axis-label" x="-5" y="394"> 0</text>
			<path class="y-gridline" d="M 0 263 L 660 263"/>
			<text class="y-axis-label" x="-5" y="263">200</text>
			<path class="y-gridline" d="M 0 132 L 660 132"/>
			<text class="y-axis-label" x="-5" y="132">400</text>
			<path class="y-gridline" d="M 0 1 L 660 1"/>
			<text class="y-axis-label" x="-5" y="1">600</text>
		</g>
		<g>
			<path class="series-1-line" d="M 40 387.439769566 L 44 389.266491745 L 49 402.152702837 L 54 404.740835053 L 59 390.687649417 L 63 399.473509584 L 68 407.94637456 L 73 405.192591987 L 78 413.133381416 L 82 397.932383986 L 87 392.361644701 L 92 382.627890348 L 97 391.528499141 L 101 404.46695748 L 106 402.349582183 L 111 383.058650724 L 116 400.577451052 L 120 403.228247412 L 125 409.21798466 L 130 389.770474224 L 135 390.898124983 L 139 363.322830973 L 144 374.383318171 L 149 339.796638926 L 154 351.775277902 L 158 348.583334615 L 163 283.165408413 L 168 287.068185533 L 173 269.238061058 L 177 226.315097543 L 182 247.19350979 L 187 217.239257017 L 192 215.195125525 L 196 219.504975432 L 201 181.4649322 L 206 212.557762622 L 211 184.293976851 L 215 180.079387293 L 220 143.051410671 L 225 170.440220531 L 230 171.859869923 L 234 201.898966148 L 239 153.571586464 L 244 122.334102241 L 249 150.547311808 L 253 133.48917703 L 258 153.292695759 L 263 118.132273381 L 268 90.9536352613 L 272 79.4566583935 L 277 90.4124883337 L 282 100.252245461 L 287 113.60803072 L 291 127.34989221 L 296 104.887178499 L 301 161.365009359 L 306 220.774545557 L 310 0.0 L 315 2.13971736975 L 320 34.3176954427 L 325 182.538436798 L 330 203.667017328 L 334 301.441169894 L 339 313.753637853 L 344 343.802825447 L 349 266.678260631 L 353 212.069817823 L 358 195.282685121 L 363 167.759638358 L 368 231.446938251 L 372 201.326015133 L 377 234.453721201 L 382 287.968270505 L 387 195.903108972 L 391 338.238954803 L 396 269.482087712 L 401 256.973369762 L 406 255.648980719 L 410 314.18219549 L 415 339.473791088 L 420 329.197381527 L 425 358.485321849 L 429 371.653114677 L 434 357.349435231 L 439 358.164579092 L 444 301.458759258 L 448 367.01377616 L 453 398.200358651 L 458 408.885186516 L 463 422.908792506 L 467 427.114147919 L 472 430.839837797 L 477 401.470070582 L 482 412.321731556 L 486 436.152845698 L 491 407.189988507 L 496 406.324756734 L 501 406.096095003 L 505 406.649839865 L 510 407.913073044 L 515 388.486396401 L 520 382.039172926 L 524 356.216847296 L 529 410.576630102 L 534 377.169013341 L 539 392.162855591 L 543 408.659172412 L 548 395.56580614 L 553 399.740073628 L 558 402.234453774 L 562 411.886218471 L 567 409.289014874 L 572 409.686343523 L 577 407.026475783 L 581 403.427785236 L 586 389.447355113 L 591 406.048003664 L 596 403.22114005 L 600 386.319421485 L 605 396.618335883 L 610 407.261333397 L 615 382.440494718 L 620 387.804241587"/>
			<path class="series-2-line" d="M 40 394.238292028 L 44 402.080738385 L 49 398.529704082 L 54 382.771369072 L 59 392.241455522 L 63 393.573341502 L 68 396.125957552 L 73 388.505823013 L 78 394.720629276 L 82 392.797235067 L 87 396.163671164 L 92 398.309377191 L 97 397.606713053 L 101 401.786969197 L 106 390.097734423 L 111 391.429620402 L 116 395.202966523 L 120 385.548281867 L 125 394.611458294 L 130 388.618963849 L 135 394.426860088 L 139 386.806725549 L 144 398.311362118 L 149 389.470497508 L 154 400.568224053 L 158 397.831009797 L 163 390.210875259 L 168 375.673270319 L 173 387.177906888 L 177 393.39271315 L 182 396.759149247 L 187 379.373174143 L 192 388.029440547 L 196 389.361326526 L 201 395.576132789 L 206 392.432008509 L 211 397.019174677 L 215 379.226289549 L 220 386.254915859 L 225 373.751861037 L 230 365.724816475 L 234 368.277432525 L 239 392.396279824 L 244 384.776145285 L 249 386.514941288 L 253 388.660647315 L 258 369.240122093 L 263 370.572008073 L 268 380.449004547 L 272 387.88454088 L 277 368.057105634 L 282 379.561742203 L 287 382.114358253 L 291 387.922254492 L 296 392.102510636 L 301 396.282766781 L 306 387.441902171 L 310 335.061665041 L 315 341.683381327 L 320 343.829087354 L 325 382.189785477 L 330 362.362350231 L 334 383.225917342 L 339 389.847633628 L 344 359.033627746 L 349 336.764732359 L 353 356.814479422 L 358 332.511033918 L 363 332.622189827 L 368 322.96750517 L 372 331.623771574 L 377 360.218629132 L 382 350.563944475 L 387 357.999480808 L 391 362.179736953 L 396 335.84174133 L 401 374.202439454 L 406 365.768484868 L 410 366.693460824 L 415 348.086755649 L 420 339.652801063 L 425 348.309067467 L 429 332.550732457 L 434 333.475708413 L 439 388.112807478 L 444 386.18941327 L 448 386.707479202 L 453 368.914594074 L 458 375.53631036 L 463 385.006396811 L 467 370.875701895 L 472 384.007978558 L 477 386.560594608 L 482 383.009560305 L 486 385.969086379 L 491 388.521702429 L 496 387.819038291 L 501 398.916764836 L 505 399.027920745 L 510 399.545986677 L 515 390.298212044 L 520 387.560997788 L 524 392.148163956 L 529 393.480049936 L 534 391.149745703 L 539 392.074721659 L 543 396.661887827 L 548 399.214503877 L 553 405.836220163 L 558 404.726646001 L 562 397.92033151 L 567 397.624577395 L 572 406.280843799 L 577 399.881439331 L 581 413.013715993 L 586 395.220830866 L 591 399.40108701 L 596 387.304942212 L 600 380.905537744 L 605 400.14146476 L 610 397.404250504 L 615 388.563385895 L 620 400.068022463"/>
		</g>
		<text class="x-axis-label" x="40.0" y="540">0</text>
		<path class="x-notch" d="M 63.7704918033 525 L 63.7704918033 530"/>
		<text class="x-axis-label" x="87.5409836066" y="540">10</text>
		<path class="x-notch" d="M 111.31147541 525 L 111.31147541 530"/>
		<text class="x-axis-label" x="135.081967213" y="540">20</text>
		<path class="x-notch" d="M 158.852459016 525 L 158.852459016 530"/>
		<text class="x-axis-label" x="182.62295082" y="540">30</text>
		<path class="x-notch" d="M 206.393442623 525 L 206.393442623 530"/>
		<text class="x-axis-label" x="230.163934426" y="540">40</text>
		<path class="x-notch" d="M 253.93442623 525 L 253.93442623 530"/>
		<text class="x-axis-label" x="277.704918033" y="540">50</text>
		<path class="x-notch" d="M 301.475409836 525 L 301.475409836 530"/>
		<text class="x-axis-label" x="325.245901639" y="540">60</text>
		<path class="x-notch" d="M 349.016393443 525 L 349.016393443 530"/>
		<text class="x-axis-label" x="372.786885246" y="540">70</text>
		<path class="x-notch" d="M 396.557377049 525 L 396.557377049 530"/>
		<text class="x-axis-label" x="420.327868852" y="540">80</text>
		<path class="x-notch" d="M 444.098360656 525 L 444.098360656 530"/>
		<text class="x-axis-label" x="467.868852459" y="540">90</text>
		<path class="x-notch" d="M 491.639344262 525 L 491.639344262 530"/>
		<text class="x-axis-label" x="515.409836066" y="540">100</text>
		<path class="x-notch" d="M 539.180327869 525 L 539.180327869 530"/>
		<text class="x-axis-label" x="562.950819672" y="540">110</text>
		<path class="x-notch" d="M 586.721311475 525 L 586.721311475 530"/>
		<text class="x-axis-label" x="610.491803279" y="540">120</text>
		<path class="x-notch" d="M 634.262295082 525 L 634.262295082 530"/>
	</g>
</svg>
