<?xml version="1.0" ?>
<svg height="600" version="1.1" width="800" xmlns="http://www.w3.org/2000/svg" xmlns:svg="http://www.w3.org/2000/svg">
	<style type="text/css">
		

.x-axis-path, .y-gridline, .x-notch { fill:none; stroke: #a7a9ac; stroke-width:1; }



.y-gridline { stroke-width: 1; }

.y-axis-path, .y-axis-path2, .x-notch-left, .x-notch-right { display: none;}



.x-axis-label, .data-point-label {font-size: 12px; font-weight:normal; font-family: sans-serif; fill: #58595b; text-anchor:middle;}

.y-axis-label {font-size: 12px; font-family: helvetica; fill: #a7a9ac; text-anchor:end;}



.series-1-line { fill: none; stroke: #10b80c; stroke-width:2; }



.series-2-line { fill: none; stroke: #e90f0a; stroke-width: 2;}

	</style>
	<rect fill="white" height="600" width="800" x="0" y="0"/>
	<g id="grid" transform="translate(70, 30)">
		<g class="x-axis" id="x_axis">
			<path class="x-axis-path" d="M 0 525 L 660 525"/>
			<path class="x-notch-left" d="M 0 525, L 0 535"/>
			<path class="x-notch-right" d="M 660 525, L 660 535"/>
		</g>
		<g class="y-axis" id="y_axis">
			<path class="y-axis-path" d="M 0 525 L 0 0"/>
			<path class="y-axis-path-2" d="M 660 525 L 660 0"/>
			<path class="y-gridline" d="M 0 525 L 660 525"/>
			<text class="y-axis-label" x="-5" y="525">
				-200
			</text>
			<path class="y-gridline" d="M 0 420 L 660 420"/>
			<text class="y-axis-label" x="-5" y="420">
				 0
			</text>
			<path class="y-gridline" d="M 0 315 L 660 315"/>
			<text class="y-axis-label" x="-5" y="315">
				200
			</text>
			<path class="y-gridline" d="M 0 210 L 660 210"/>
			<text class="y-axis-label" x="-5" y="210">
				400
			</text>
			<path class="y-gridline" d="M 0 105 L 660 105"/>
			<text class="y-axis-label" x="-5" y="105">
				600
			</text>
			<path class="y-gridline" d="M 0 0 L 660 0"/>
			<text class="y-axis-label" x="-5" y="0">
				800
			</text>
		</g>
		<g>
			<path class="series-1-line" d="M 40 421.810821936 L 43 428.622840819 L 47 410.308171129 L 51 409.779909989 L 55 427.793564401 L 59 408.003616673 L 63 414.539664078 L 67 422.154713189 L 70 425.620460961 L 74 391.906021486 L 78 403.347625629 L 82 392.012882697 L 86 414.224297168 L 90 383.712249436 L 94 416.873837966 L 98 379.621350589 L 101 377.605837055 L 105 379.284225145 L 109 378.516102692 L 113 367.757438528 L 117 376.02041254 L 121 352.728527077 L 125 338.731548101 L 128 344.355860582 L 132 335.63583047 L 136 340.097320756 L 140 352.054009292 L 144 363.123472914 L 148 354.751447513 L 152 350.541072005 L 156 338.055481234 L 159 334.684433218 L 163 355.864556307 L 167 336.302495535 L 171 324.824247435 L 175 307.240761838 L 179 314.088890888 L 183 279.198906464 L 186 298.723949081 L 190 299.658617424 L 194 286.057166384 L 198 278.12894054 L 202 251.634850433 L 206 239.292203533 L 210 222.884824182 L 214 243.597011903 L 217 214.860162399 L 221 235.824185787 L 225 234.060507921 L 229 232.009071319 L 233 264.594768181 L 237 256.054914702 L 241 212.721512739 L 244 237.283642906 L 248 222.086796073 L 252 183.2398484 L 256 213.989913958 L 260 194.16479156 L 264 204.585956081 L 268 184.963836432 L 272 198.047985394 L 275 154.930683131 L 279 125.329809026 L 283 139.661910368 L 287 105.0 L 291 124.212773872 L 295 149.171180373 L 299 144.396700453 L 302 172.736739834 L 306 146.626951703 L 310 130.242959765 L 314 156.483932017 L 318 120.467048466 L 322 160.896135389 L 326 155.630332689 L 330 156.937141554 L 333 179.195892149 L 337 118.579752972 L 341 118.280314284 L 345 201.383011217 L 349 190.000932161 L 353 206.394867869 L 357 217.584636345 L 360 191.65446355 L 364 176.469965271 L 368 159.234297287 L 372 154.843932245 L 376 172.090105298 L 380 177.486717922 L 384 164.184438675 L 388 206.5576745 L 391 169.928602015 L 395 250.260545307 L 399 221.427900957 L 403 206.783371279 L 407 268.94572664 L 411 191.730136918 L 415 259.769281521 L 418 235.961937466 L 422 278.227029892 L 426 245.256497263 L 430 229.160264059 L 434 280.503976174 L 438 276.161882753 L 442 237.518124927 L 446 249.499697672 L 449 275.117067932 L 453 324.529915195 L 457 261.071924639 L 461 312.319841908 L 465 325.955559628 L 469 323.040846823 L 473 311.754562612 L 476 350.552891973 L 480 338.510913659 L 484 337.611447493 L 488 386.46150004 L 492 418.327987164 L 496 428.425844083 L 500 399.712569091 L 504 415.999296897 L 507 413.624178494 L 511 422.630685153 L 515 430.00624715 L 519 426.659522044 L 523 422.784989793 L 527 405.057811928 L 531 433.44593583 L 534 408.354903428 L 538 408.558387679 L 542 424.065472671 L 546 411.567720445 L 550 414.997170951 L 554 413.125723884 L 558 418.16235744 L 562 405.004893057 L 565 429.950951003 L 569 416.529863696 L 573 427.923009118 L 577 423.232910986 L 581 416.887919481 L 585 412.329539261 L 589 425.246234344 L 592 418.085489858 L 596 416.453904103 L 600 418.79200435 L 604 420.758525373 L 608 421.969165195 L 612 408.259944954 L 616 426.117745643 L 620 425.421656424"/>
			<path class="series-2-line" d="M 40 400.167473426 L 43 423.676935062 L 47 426.605472896 L 51 427.663017656 L 55 418.430100514 L 59 414.342414324 L 63 426.158169254 L 67 397.279824845 L 70 413.773062458 L 74 411.088621072 L 78 442.082055001 L 82 414.139207129 L 86 406.77728306 L 90 415.318800113 L 94 414.5053518 L 98 416.498393096 L 101 412.410706906 L 105 397.564810545 L 109 399.557851842 L 113 409.502613699 L 117 407.285920581 L 121 420.504920316 L 125 424.836702954 L 128 414.668289276 L 132 398.419148111 L 136 442.041785282 L 140 410.824699533 L 144 408.608006415 L 148 411.06879598 L 152 402.771375375 L 156 426.74858528 L 159 396.934744335 L 163 404.540764851 L 167 401.388575196 L 171 414.139826663 L 175 375.906516889 L 179 412.045181769 L 183 392.054054457 L 186 402.466564583 L 190 375.926961516 L 194 355.000337668 L 198 361.203113379 L 202 381.438337137 L 206 309.994900318 L 210 343.794823856 L 214 333.15866191 L 217 356.668123546 L 221 343.22547199 L 225 336.33129619 L 229 337.856589218 L 233 317.397713639 L 237 327.810223764 L 241 311.561082599 L 244 302.328165457 L 248 256.610883391 L 252 325.024178781 L 256 244.225776596 L 260 318.719799472 L 264 253.35709014 L 268 241.317683389 L 272 216.649073395 L 275 221.448604301 L 279 197.247742575 L 283 233.386407455 L 287 232.572959142 L 291 200.420376856 L 295 238.897783076 L 299 190.841759669 L 302 175.995863309 L 306 245.812403503 L 310 221.143793509 L 314 187.12021815 L 318 215.307162469 L 322 156.96067716 L 326 149.131004823 L 330 155.801528803 L 333 86.2290850558 L 337 66.2379577444 L 341 159.441911351 L 345 157.225218234 L 349 191.49289004 L 353 124.726935903 L 357 158.526859441 L 360 200.27850354 L 364 189.174593325 L 368 151.40903182 L 372 134.692142386 L 376 135.749687146 L 380 142.887959394 L 384 56.9443262581 L 388 115.067159746 L 391 92.737291093 L 395 66.6654362942 L 399 105.142842515 L 403 119.297338786 L 407 154.968255398 L 411 97.5572666255 L 415 128.550700554 L 418 167.495855043 L 422 205.973261264 L 426 233.224709047 L 430 200.136630224 L 434 190.435964814 L 438 202.719468013 L 442 202.841516236 L 446 259.093356651 L 449 231.150508779 L 453 230.804808734 L 457 271.153208028 L 461 276.420487203 L 465 238.654925697 L 469 265.438625212 L 473 284.738352434 L 476 261.940735513 L 480 271.417749102 L 484 330.476079126 L 488 418.067053514 L 492 436.899032468 L 496 422.053136107 L 500 405.336246674 L 504 410.13577758 L 507 425.693518656 L 511 416.928349783 L 515 425.469866835 L 519 428.398404668 L 523 422.439725405 L 527 406.658332507 L 531 402.570646317 L 534 404.563687613 L 538 419.185932153 L 542 417.904735572 L 546 425.510756088 L 550 411.132607995 L 554 421.077369852 L 558 411.376704443 L 562 412.434249203 L 565 416.298283572 L 569 440.275493477 L 573 424.026352312 L 577 417.59992478 L 581 432.222169319 L 585 405.214817984 L 589 424.982293475 L 592 420.894607284 L 596 429.903872604 L 600 421.606451999 L 604 434.825451734 L 608 419.979555374 L 612 415.891869183 L 616 412.739679529 L 620 421.748944849"/>
		</g>
		<text class="x-axis-label" x="40.0" y="540">
			0
		</text>
		<path class="x-notch" d="M 59.3333333333 525 L 59.3333333333 530"/>
		<text class="x-axis-label" x="78.6666666667" y="540">
			10
		</text>
		<path class="x-notch" d="M 98.0 525 L 98.0 530"/>
		<text class="x-axis-label" x="117.333333333" y="540">
			20
		</text>
		<path class="x-notch" d="M 136.666666667 525 L 136.666666667 530"/>
		<text class="x-axis-label" x="156.0" y="540">
			30
		</text>
		<path class="x-notch" d="M 175.333333333 525 L 175.333333333 530"/>
		<text class="x-axis-label" x="194.666666667" y="540">
			40
		</text>
		<path class="x-notch" d="M 214.0 525 L 214.0 530"/>
		<text class="x-axis-label" x="233.333333333" y="540">
			50
		</text>
		<path class="x-notch" d="M 252.666666667 525 L 252.666666667 530"/>
		<text class="x-axis-label" x="272.0" y="540">
			60
		</text>
		<path class="x-notch" d="M 291.333333333 525 L 291.333333333 530"/>
		<text class="x-axis-label" x="310.666666667" y="540">
			70
		</text>
		<path class="x-notch" d="M 330.0 525 L 330.0 530"/>
		<text class="x-axis-label" x="349.333333333" y="540">
			80
		</text>
		<path class="x-notch" d="M 368.666666667 525 L 368.666666667 530"/>
		<text class="x-axis-label" x="388.0" y="540">
			90
		</text>
		<path class="x-notch" d="M 407.333333333 525 L 407.333333333 530"/>
		<text class="x-axis-label" x="426.666666667" y="540">
			100
		</text>
		<path class="x-notch" d="M 446.0 525 L 446.0 530"/>
		<text class="x-axis-label" x="465.333333333" y="540">
			110
		</text>
		<path class="x-notch" d="M 484.666666667 525 L 484.666666667 530"/>
		<text class="x-axis-label" x="504.0" y="540">
			120
		</text>
		<path class="x-notch" d="M 523.333333333 525 L 523.333333333 530"/>
		<text class="x-axis-label" x="542.666666667" y="540">
			130
		</text>
		<path class="x-notch" d="M 562.0 525 L 562.0 530"/>
		<text class="x-axis-label" x="581.333333333" y="540">
			140
		</text>
		<path class="x-notch" d="M 600.666666667 525 L 600.666666667 530"/>
		<text class="x-axis-label" x="620.0" y="540">
			150
		</text>
	</g>
</svg>
