<?xml version="1.0" ?>
<svg height="600" version="1.1" width="800" xmlns="http://www.w3.org/2000/svg" xmlns:svg="http://www.w3.org/2000/svg">
	<style type="text/css">
		

.x-axis-path, .y-gridline, .x-notch { fill:none; stroke: #a7a9ac; stroke-width:1; }



.y-gridline { stroke-width: 1; }

.y-axis-path, .y-axis-path2, .x-notch-left, .x-notch-right { display: none;}



.x-axis-label, .data-point-label {font-size: 12px; font-weight:normal; font-family: sans-serif; fill: #58595b; text-anchor:middle;}

.y-axis-label {font-size: 12px; font-family: helvetica; fill: #a7a9ac; text-anchor:end;}



.series-1-line { fill: none; stroke: #10b80c; stroke-width:2; }



.series-2-line { fill: none; stroke: #e90f0a; stroke-width: 2;}

	</style>
	<rect fill="white" height="600" width="800" x="0" y="0"/>
	<g id="grid" transform="translate(70, 30)">
		<g class="x-axis" id="x_axis">
			<path class="x-axis-path" d="M 0 525 L 660 525"/>
			<path class="x-notch-left" d="M 0 525, L 0 535"/>
			<path class="x-notch-right" d="M 660 525, L 660 535"/>
		</g>
		<g class="y-axis" id="y_axis">
			<path class="y-axis-path" d="M 0 525 L 0 0"/>
			<path class="y-axis-path-2" d="M 660 525 L 660 0"/>
			<path class="y-gridline" d="M 0 525 L 660 525"/>
			<text class="y-axis-label" x="-5" y="525">
				-200
			</text>
			<path class="y-gridline" d="M 0 394 L 660 394"/>
			<text class="y-axis-label" x="-5" y="394">
				 0
			</text>
			<path class="y-gridline" d="M 0 263 L 660 263"/>
			<text class="y-axis-label" x="-5" y="263">
				200
			</text>
			<path class="y-gridline" d="M 0 132 L 660 132"/>
			<text class="y-axis-label" x="-5" y="132">
				400
			</text>
			<path class="y-gridline" d="M 0 1 L 660 1"/>
			<text class="y-axis-label" x="-5" y="1">
				600
			</text>
		</g>
		<g>
			<path class="series-1-line" d="M 40 378.822694922 L 45 403.402697411 L 51 389.657129591 L 56 404.90178455 L 62 390.831710098 L 67 385.425203855 L 73 388.786519902 L 78 392.692233766 L 84 393.864575509 L 89 407.510728145 L 95 409.018778865 L 100 418.727126633 L 106 405.456393685 L 111 381.970025728 L 117 381.034339144 L 122 378.54658576 L 128 374.912037503 L 133 374.150167944 L 139 389.139879219 L 144 357.928229769 L 150 356.772471314 L 156 354.689989855 L 161 364.757354705 L 167 335.665297293 L 172 352.299765735 L 178 349.313869376 L 183 314.140926271 L 189 332.593968907 L 194 296.610481954 L 200 291.991572822 L 205 307.641499705 L 211 273.534224817 L 216 237.689502393 L 222 231.796597568 L 227 228.729755233 L 233 236.550146544 L 238 194.613336082 L 244 188.616177177 L 249 202.992108369 L 255 203.110345607 L 260 181.569752662 L 266 167.824004159 L 272 213.507055983 L 277 194.01649213 L 283 172.255827316 L 288 179.46225786 L 294 168.589007374 L 299 165.151403564 L 305 189.881914976 L 310 131.023601385 L 316 121.991871831 L 321 155.223698135 L 327 161.885911544 L 332 135.422791491 L 338 148.605853649 L 343 136.354353391 L 349 158.305057154 L 354 169.171582825 L 360 155.356452057 L 365 179.183548568 L 371 158.82444163 L 376 132.708594266 L 382 191.815488091 L 388 169.20922693 L 393 180.122188127 L 399 191.660493117 L 404 178.378015775 L 410 165.686010411 L 415 137.439368663 L 421 69.7087980214 L 426 70.7884493957 L 432 0.0 L 437 116.137308275 L 443 91.8637045751 L 448 111.034781374 L 454 212.949628876 L 459 190.795255849 L 465 153.398466626 L 470 199.938497824 L 476 193.779266287 L 481 211.050822916 L 487 230.233463425 L 492 142.743402088 L 498 238.368855739 L 504 213.874818803 L 509 179.095764595 L 515 179.29512849 L 520 204.095022166 L 526 245.133437305 L 531 297.858427593 L 537 304.683075 L 542 206.734179363 L 548 198.872191422 L 553 241.717074996 L 559 339.427610236 L 564 371.70994748 L 570 290.786989735 L 575 338.890651442 L 581 390.237211275 L 586 394.223871115 L 592 396.936715946 L 597 393.267657239 L 603 385.208905533 L 608 401.936064343 L 614 399.818891752 L 620 390.219456275"/>
			<path class="series-2-line" d="M 40 382.909021198 L 45 388.621842024 L 51 401.110274602 L 56 400.950898577 L 62 393.564203351 L 67 391.146290076 L 73 395.052281101 L 78 402.120224278 L 84 412.801827054 L 89 397.736105177 L 95 391.252824851 L 100 391.545156277 L 106 400.419929253 L 111 399.808845778 L 117 404.618251704 L 122 404.91058313 L 128 390.296568702 L 133 403.23670873 L 139 389.977816653 L 144 396.594052379 L 150 400.500043405 L 156 390.403103478 L 161 387.533482753 L 167 398.21508553 L 172 392.635220104 L 178 382.538280178 L 183 372.893047702 L 189 383.122943028 L 194 394.256253255 L 200 392.29004743 L 205 381.741400054 L 211 382.033731479 L 216 371.485084103 L 222 374.487660228 L 227 377.038528904 L 233 372.362078378 L 238 378.526606654 L 244 380.17406043 L 249 374.594195004 L 255 373.531404079 L 260 368.854953554 L 266 363.726795578 L 272 389.314744207 L 277 381.928048981 L 283 376.348183556 L 288 361.734169129 L 294 366.543575054 L 299 356.446635128 L 305 356.287259103 L 310 377.358133232 L 316 376.747049757 L 321 371.618891781 L 327 371.459515756 L 332 359.55574603 L 338 363.913444506 L 343 372.336510032 L 349 365.401522256 L 354 361.176779181 L 360 366.889600007 L 365 366.730223982 L 371 371.539629908 L 376 340.664147278 L 382 368.510633158 L 388 353.896618731 L 393 360.061147007 L 399 356.739818832 L 404 349.804831056 L 410 321.187885676 L 415 323.287046902 L 421 319.062303826 L 426 326.581954453 L 432 306.095743175 L 437 280.640749946 L 443 314.811140126 L 448 318.717131152 L 454 345.208494682 L 459 348.211070807 L 465 333.14534893 L 470 348.344026208 L 476 357.670506634 L 481 358.41454551 L 487 360.513706735 L 492 338.220665657 L 498 341.674949233 L 504 339.708743407 L 509 339.097659933 L 515 343.003650958 L 520 332.003296132 L 526 342.233191459 L 531 361.497235787 L 537 388.892014216 L 542 359.823361387 L 548 352.888373611 L 553 327.885087832 L 559 358.441818412 L 564 378.15757019 L 570 353.154284412 L 575 371.06320639 L 581 376.324319766 L 586 370.74445434 L 592 387.749961418 L 597 396.173026944 L 603 402.337555221 L 608 399.919641945 L 614 395.24319142 L 620 377.467224842"/>
		</g>
		<text class="x-axis-label" x="40.0" y="540">
			0
		</text>
		<path class="x-notch" d="M 67.619047619 525 L 67.619047619 530"/>
		<text class="x-axis-label" x="95.2380952381" y="540">
			10
		</text>
		<path class="x-notch" d="M 122.857142857 525 L 122.857142857 530"/>
		<text class="x-axis-label" x="150.476190476" y="540">
			20
		</text>
		<path class="x-notch" d="M 178.095238095 525 L 178.095238095 530"/>
		<text class="x-axis-label" x="205.714285714" y="540">
			30
		</text>
		<path class="x-notch" d="M 233.333333333 525 L 233.333333333 530"/>
		<text class="x-axis-label" x="260.952380952" y="540">
			40
		</text>
		<path class="x-notch" d="M 288.571428571 525 L 288.571428571 530"/>
		<text class="x-axis-label" x="316.19047619" y="540">
			50
		</text>
		<path class="x-notch" d="M 343.80952381 525 L 343.80952381 530"/>
		<text class="x-axis-label" x="371.428571429" y="540">
			60
		</text>
		<path class="x-notch" d="M 399.047619048 525 L 399.047619048 530"/>
		<text class="x-axis-label" x="426.666666667" y="540">
			70
		</text>
		<path class="x-notch" d="M 454.285714286 525 L 454.285714286 530"/>
		<text class="x-axis-label" x="481.904761905" y="540">
			80
		</text>
		<path class="x-notch" d="M 509.523809524 525 L 509.523809524 530"/>
		<text class="x-axis-label" x="537.142857143" y="540">
			90
		</text>
		<path class="x-notch" d="M 564.761904762 525 L 564.761904762 530"/>
		<text class="x-axis-label" x="592.380952381" y="540">
			100
		</text>
		<path class="x-notch" d="M 620.0 525 L 620.0 530"/>
	</g>
</svg>
