<?xml version="1.0" ?>
<svg height="600" version="1.1" width="800" xmlns="http://www.w3.org/2000/svg" xmlns:svg="http://www.w3.org/2000/svg">
	<style type="text/css">
		

.x-axis-path, .y-gridline, .x-notch { fill:none; stroke: #a7a9ac; stroke-width:1; }



.y-gridline { stroke-width: 1; }

.y-axis-path, .y-axis-path2, .x-notch-left, .x-notch-right { display: none;}



.x-axis-label, .data-point-label {font-size: 12px; font-weight:normal; font-family: sans-serif; fill: #58595b; text-anchor:middle;}

.y-axis-label {font-size: 12px; font-family: helvetica; fill: #a7a9ac; text-anchor:end;}



.series-1-line { fill: none; stroke: #10b80c; stroke-width:2; }



.series-2-line { fill: none; stroke: #e90f0a; stroke-width: 2;}

	</style>
	<rect fill="white" height="600" width="800" x="0" y="0"/>
	<g id="grid" transform="translate(70, 30)">
		<g class="x-axis" id="x_axis">
			<path class="x-axis-path" d="M 0 525 L 660 525"/>
			<path class="x-notch-left" d="M 0 525, L 0 535"/>
			<path class="x-notch-right" d="M 660 525, L 660 535"/>
		</g>
		<g class="y-axis" id="y_axis">
			<path class="y-axis-path" d="M 0 525 L 0 0"/>
			<path class="y-axis-path-2" d="M 660 525 L 660 0"/>
			<path class="y-gridline" d="M 0 525 L 660 525"/>
			<text class="y-axis-label" x="-5" y="525">
				-200
			</text>
			<path class="y-gridline" d="M 0 394 L 660 394"/>
			<text class="y-axis-label" x="-5" y="394">
				 0
			</text>
			<path class="y-gridline" d="M 0 263 L 660 263"/>
			<text class="y-axis-label" x="-5" y="263">
				200
			</text>
			<path class="y-gridline" d="M 0 132 L 660 132"/>
			<text class="y-axis-label" x="-5" y="132">
				400
			</text>
			<path class="y-gridline" d="M 0 1 L 660 1"/>
			<text class="y-axis-label" x="-5" y="1">
				600
			</text>
		</g>
		<g>
			<path class="series-1-line" d="M 40 389.852881089 L 43 387.279652816 L 47 392.43599387 L 50 402.342269623 L 54 394.965216238 L 57 394.356798748 L 61 399.491583636 L 64 388.249745588 L 68 386.442940035 L 71 393.391305734 L 75 405.068049969 L 78 417.597441584 L 82 408.10451585 L 85 400.954139015 L 89 398.046284958 L 92 391.921510049 L 96 407.916392047 L 99 393.23061978 L 103 395.472331518 L 106 386.864555822 L 110 374.83457048 L 113 370.847224084 L 117 360.965613745 L 120 364.416154814 L 124 351.835813628 L 127 331.310004647 L 131 321.773629768 L 134 308.610430082 L 138 285.785016126 L 141 291.189589895 L 145 296.21642555 L 148 284.661517882 L 152 283.09233537 L 156 264.401663366 L 159 268.910309016 L 163 250.521928549 L 166 263.278165122 L 170 249.272590914 L 173 222.723012592 L 177 215.054445753 L 180 195.14382952 L 184 171.163476647 L 187 138.806027452 L 191 180.094374879 L 194 158.953204743 L 198 192.058629743 L 201 182.986722862 L 205 178.049221119 L 208 183.432238723 L 212 144.813397145 L 215 146.601587375 L 219 93.5817117257 L 222 123.5779967 L 226 104.153404631 L 229 153.775567643 L 233 134.631542538 L 236 102.921788746 L 240 114.943936847 L 243 109.337351942 L 247 68.7860338289 L 250 78.5734138581 L 254 35.0641856915 L 257 22.051879162 L 261 11.8898702674 L 264 0.0 L 268 24.8686121594 L 272 15.3433521781 L 275 41.1619512775 L 279 41.6545822925 L 282 22.1543752379 L 286 80.8126132802 L 289 19.7607083611 L 293 28.3823713901 L 296 25.3018996033 L 300 50.6669771942 L 303 15.2652248763 L 307 54.6859326714 L 310 37.1180337447 L 314 51.7848538728 L 317 68.815947472 L 321 63.3174802085 L 324 50.6504091385 L 328 41.6972295747 L 331 97.3327206598 L 335 66.0870980514 L 338 36.8495669643 L 342 90.4229077074 L 345 76.7196250363 L 349 89.1521823153 L 352 103.430317838 L 356 116.99625787 L 359 121.073274992 L 363 129.619154627 L 366 79.0715016832 L 370 147.186159979 L 373 158.79806731 L 377 146.315065683 L 380 163.400049695 L 384 119.707425716 L 388 192.788085587 L 391 216.728435379 L 395 211.628925581 L 398 176.615857868 L 402 158.011578933 L 405 199.450987924 L 409 186.125611776 L 412 185.79776125 L 416 234.275931834 L 419 194.167357147 L 423 178.056857082 L 426 192.551396295 L 430 151.525000509 L 433 194.486645265 L 437 219.711439374 L 440 210.53158326 L 444 247.393843689 L 447 220.790206546 L 451 202.89829151 L 454 210.753531819 L 458 205.686693084 L 461 214.405358857 L 465 216.031709439 L 468 243.350988138 L 472 229.89610659 L 475 310.036915812 L 479 318.518295359 L 482 335.29037816 L 486 312.421851873 L 489 308.974420054 L 493 311.993164187 L 496 320.614827216 L 500 352.47892023 L 504 340.308651407 L 507 335.328037332 L 511 368.044946135 L 514 364.457062426 L 518 368.404237334 L 521 379.044601559 L 525 392.459480026 L 528 398.706091501 L 532 402.923223698 L 535 397.089793835 L 539 382.706481512 L 542 387.344632562 L 546 374.645395651 L 549 369.232984641 L 553 399.736849945 L 556 403.111944435 L 560 396.069516834 L 563 409.257550342 L 567 408.692245184 L 570 406.85327379 L 574 392.84786799 L 577 398.943249494 L 581 401.551921264 L 584 393.591840971 L 588 397.841307415 L 591 407.639633934 L 595 403.20971252 L 598 402.352893907 L 602 394.090690485 L 605 386.702690609 L 609 392.021039717 L 612 393.67955614 L 616 401.901756481 L 620 397.255936599"/>
			<path class="series-2-line" d="M 40 394.171018853 L 43 388.534438739 L 47 392.160273391 L 50 393.681013778 L 54 398.56990499 L 57 398.406569965 L 61 405.400555441 L 64 405.658239269 L 68 395.390451772 L 71 398.595267571 L 75 403.063139929 L 78 389.427201608 L 82 396.000168231 L 85 398.362946325 L 89 395.673498181 L 92 402.246464805 L 96 406.29331831 L 99 385.500059487 L 103 400.493403171 L 106 400.330068146 L 110 392.167374914 L 113 393.688115301 L 117 395.208855688 L 120 385.783105897 L 124 397.82931761 L 127 401.455152262 L 131 381.924949998 L 134 402.812557624 L 138 387.492543891 L 141 385.224114601 L 145 392.63911893 L 148 392.475783905 L 152 394.417543145 L 156 390.886057296 L 159 397.038005067 L 163 395.611613483 L 166 395.869297311 L 170 383.917434401 L 173 391.332438731 L 177 392.432160265 L 180 382.164372768 L 184 382.843075449 L 187 393.205211749 L 191 392.199839018 L 194 393.299560552 L 198 388.083999291 L 201 394.656965915 L 205 380.178989887 L 208 381.278711421 L 212 383.220470662 L 215 386.846305314 L 219 385.840932583 L 222 373.047031967 L 226 385.514262533 L 229 365.142022563 L 233 366.66276295 L 236 374.498786133 L 240 374.335451108 L 243 382.17147429 L 247 373.587762205 L 250 360.79386159 L 254 353.894224917 L 257 351.204776774 L 261 380.091742607 L 264 350.036069018 L 268 349.030696287 L 272 360.655889146 L 275 359.229497562 L 279 351.487823183 L 282 359.323846366 L 286 374.317190049 L 289 345.524573019 L 293 350.41346423 L 296 358.249487413 L 300 345.455586797 L 303 354.554666539 L 307 349.339105278 L 310 351.280864518 L 314 332.59269996 L 317 322.745931316 L 321 346.580670913 L 324 322.840280119 L 328 327.308152478 L 331 337.670288778 L 335 338.770010312 L 338 355.026410555 L 342 342.23250994 L 345 332.385741295 L 349 350.32621695 L 352 326.585826156 L 356 331.895736221 L 359 356.151494671 L 363 339.989443231 L 366 347.40444756 L 370 332.084433827 L 373 330.23702339 L 377 359.966026929 L 380 341.698881225 L 384 347.008791289 L 388 345.161380852 L 391 357.628611418 L 395 335.572296036 L 398 349.723602014 L 402 349.139248136 L 405 340.976554903 L 409 337.866087907 L 412 326.756262704 L 416 337.118399004 L 419 341.586271363 L 423 346.054143721 L 426 370.730921024 L 430 354.147850732 L 433 354.826553413 L 437 347.505897887 L 440 354.499883363 L 444 354.336548338 L 447 353.75219446 L 451 340.537274992 L 454 350.057373586 L 458 355.788302503 L 461 345.520515006 L 465 357.987745572 L 468 368.770900725 L 472 369.449603406 L 475 366.33913641 L 479 376.701272711 L 482 374.432843421 L 486 365.849131336 L 489 381.684512725 L 493 373.942838346 L 496 378.831729558 L 500 386.66775274 L 504 383.978304597 L 507 376.236630218 L 511 382.388577988 L 514 387.277469199 L 518 382.482926791 L 521 384.424686031 L 525 396.891916597 L 528 394.623487307 L 532 396.9862654 L 535 390.928666433 L 539 388.660237143 L 542 391.023015236 L 546 388.754585946 L 549 382.696986979 L 553 389.269953603 L 556 391.632731696 L 560 393.574490936 L 563 392.148099352 L 567 385.248462679 L 570 396.452636685 L 574 400.920509044 L 577 389.389664987 L 581 396.383650464 L 584 393.694202321 L 588 391.004754178 L 591 392.946513418 L 595 397.835404629 L 598 387.146598279 L 602 398.771791138 L 605 388.925022494 L 609 400.129196501 L 612 391.124465562 L 616 392.64520595 L 620 398.376134867"/>
		</g>
		<text class="x-axis-label" x="40.0" y="540">
			0
		</text>
		<path class="x-notch" d="M 57.5757575758 525 L 57.5757575758 530"/>
		<text class="x-axis-label" x="75.1515151515" y="540">
			10
		</text>
		<path class="x-notch" d="M 92.7272727273 525 L 92.7272727273 530"/>
		<text class="x-axis-label" x="110.303030303" y="540">
			20
		</text>
		<path class="x-notch" d="M 127.878787879 525 L 127.878787879 530"/>
		<text class="x-axis-label" x="145.454545455" y="540">
			30
		</text>
		<path class="x-notch" d="M 163.03030303 525 L 163.03030303 530"/>
		<text class="x-axis-label" x="180.606060606" y="540">
			40
		</text>
		<path class="x-notch" d="M 198.181818182 525 L 198.181818182 530"/>
		<text class="x-axis-label" x="215.757575758" y="540">
			50
		</text>
		<path class="x-notch" d="M 233.333333333 525 L 233.333333333 530"/>
		<text class="x-axis-label" x="250.909090909" y="540">
			60
		</text>
		<path class="x-notch" d="M 268.484848485 525 L 268.484848485 530"/>
		<text class="x-axis-label" x="286.060606061" y="540">
			70
		</text>
		<path class="x-notch" d="M 303.636363636 525 L 303.636363636 530"/>
		<text class="x-axis-label" x="321.212121212" y="540">
			80
		</text>
		<path class="x-notch" d="M 338.787878788 525 L 338.787878788 530"/>
		<text class="x-axis-label" x="356.363636364" y="540">
			90
		</text>
		<path class="x-notch" d="M 373.939393939 525 L 373.939393939 530"/>
		<text class="x-axis-label" x="391.515151515" y="540">
			100
		</text>
		<path class="x-notch" d="M 409.090909091 525 L 409.090909091 530"/>
		<text class="x-axis-label" x="426.666666667" y="540">
			110
		</text>
		<path class="x-notch" d="M 444.242424242 525 L 444.242424242 530"/>
		<text class="x-axis-label" x="461.818181818" y="540">
			120
		</text>
		<path class="x-notch" d="M 479.393939394 525 L 479.393939394 530"/>
		<text class="x-axis-label" x="496.96969697" y="540">
			130
		</text>
		<path class="x-notch" d="M 514.545454545 525 L 514.545454545 530"/>
		<text class="x-axis-label" x="532.121212121" y="540">
			140
		</text>
		<path class="x-notch" d="M 549.696969697 525 L 549.696969697 530"/>
		<text class="x-axis-label" x="567.272727273" y="540">
			150
		</text>
		<path class="x-notch" d="M 584.848484848 525 L 584.848484848 530"/>
		<text class="x-axis-label" x="602.424242424" y="540">
			160
		</text>
		<path class="x-notch" d="M 620.0 525 L 620.0 530"/>
	</g>
</svg>
