<?xml version="1.0" ?>
<svg height="600" version="1.1" width="800" xmlns="http://www.w3.org/2000/svg" xmlns:svg="http://www.w3.org/2000/svg">
	<style type="text/css">
		

.x-axis-path, .y-gridline, .x-notch { fill:none; stroke: #a7a9ac; stroke-width:1; }



.y-gridline { stroke-width: 1; }

.y-axis-path, .y-axis-path2, .x-notch-left, .x-notch-right { display: none;}



.x-axis-label, .data-point-label {font-size: 12px; font-weight:normal; font-family: sans-serif; fill: #58595b; text-anchor:middle;}

.y-axis-label {font-size: 12px; font-family: helvetica; fill: #a7a9ac; text-anchor:end;}



.series-1-line { fill: none; stroke: #10b80c; stroke-width:2; }



.series-2-line { fill: none; stroke: #e90f0a; stroke-width: 2;}

	</style>
	<rect fill="white" height="600" width="800" x="0" y="0"/>
	<g id="grid" transform="translate(70, 30)">
		<g class="x-axis" id="x_axis">
			<path class="x-axis-path" d="M 0 525 L 660 525"/>
			<path class="x-notch-left" d="M 0 525, L 0 535"/>
			<path class="x-notch-right" d="M 660 525, L 660 535"/>
		</g>
		<g class="y-axis" id="y_axis">
			<path class="y-axis-path" d="M 0 525 L 0 0"/>
			<path class="y-axis-path-2" d="M 660 525 L 660 0"/>
			<path class="y-gridline" d="M 0 525 L 660 525"/>
			<text class="y-axis-label" x="-5" y="525">
				-200
			</text>
			<path class="y-gridline" d="M 0 420 L 660 420"/>
			<text class="y-axis-label" x="-5" y="420">
				 0
			</text>
			<path class="y-gridline" d="M 0 315 L 660 315"/>
			<text class="y-axis-label" x="-5" y="315">
				200
			</text>
			<path class="y-gridline" d="M 0 210 L 660 210"/>
			<text class="y-axis-label" x="-5" y="210">
				400
			</text>
			<path class="y-gridline" d="M 0 105 L 660 105"/>
			<text class="y-axis-label" x="-5" y="105">
				600
			</text>
			<path class="y-gridline" d="M 0 0 L 660 0"/>
			<text class="y-axis-label" x="-5" y="0">
				800
			</text>
		</g>
		<g>
			<path class="series-1-line" d="M 40 409.922562 L 44 434.313180347 L 49 421.966818694 L 54 422.436337041 L 59 412.419085388 L 64 409.698073736 L 69 440.038412083 L 73 449.02847043 L 78 430.126748777 L 83 403.888467124 L 88 432.559725471 L 93 428.236413818 L 98 417.626962165 L 102 374.575030512 L 107 429.75206886 L 112 420.071027207 L 117 409.825295554 L 122 405.865703901 L 127 412.217532248 L 131 422.406060595 L 136 395.763528942 L 141 415.765567289 L 146 394.157995636 L 151 369.777373983 L 156 370.919522331 L 160 377.042870678 L 165 345.460089025 L 170 352.067697372 L 175 352.200375719 L 180 345.508264066 L 185 332.892682413 L 189 324.14110076 L 194 312.737219107 L 199 328.538837455 L 204 303.606125802 L 209 281.473554149 L 214 271.066122496 L 218 256.835220843 L 223 285.22360919 L 228 259.214227537 L 233 265.942795884 L 238 205.889054231 L 243 235.987052579 L 247 215.685260926 L 252 148.645029273 L 257 217.98320762 L 262 211.587195967 L 267 198.500374314 L 272 190.596352661 L 276 206.129171008 L 281 178.531349355 L 286 147.029627702 L 291 160.85262605 L 296 176.142894397 L 301 174.418332744 L 305 194.890771091 L 310 120.339259438 L 315 147.448747785 L 320 108.462206132 L 325 125.488964479 L 330 97.8506128264 L 334 126.885171174 L 339 116.329479521 L 344 145.269957868 L 349 163.830976215 L 354 153.180994562 L 359 141.306292909 L 363 170.152061256 L 368 97.7003396033 L 373 129.37354795 L 378 113.244876298 L 383 117.307914645 L 388 201.574992992 L 392 145.425151339 L 397 147.118759686 L 402 172.775258033 L 407 207.08669638 L 412 203.799734727 L 417 126.461313074 L 421 149.492391421 L 426 170.517129769 L 431 96.4767581157 L 436 181.323016463 L 441 183.05799481 L 446 180.956483157 L 450 196.919381504 L 455 197.967659851 L 460 158.914338198 L 465 168.590886545 L 470 172.291254893 L 475 187.67581324 L 479 266.854591587 L 484 193.635319934 L 489 161.688818281 L 494 246.737306628 L 499 267.142964975 L 504 305.332683322 L 508 296.444811669 L 513 343.223320017 L 518 425.767768364 L 523 420.112216711 L 528 411.872195058 L 532 429.881543405 L 537 405.958511752 L 542 435.774270099 L 547 441.910428446 L 552 426.751116793 L 557 429.36074514 L 562 433.222393488 L 566 421.387801835 L 571 444.526400182 L 576 417.789788529 L 581 420.668846876 L 586 416.883765223 L 591 455.57055357 L 595 424.364721917 L 600 419.503180264 L 605 425.519008612 L 610 419.566936959 L 615 423.858875306 L 620 409.965023653"/>
			<path class="series-2-line" d="M 40 407.295 L 44 426.984669421 L 49 403.624338843 L 54 428.564008264 L 59 430.928677686 L 64 441.693347107 L 69 434.083016529 L 73 399.17268595 L 78 415.712355372 L 83 430.152024793 L 88 437.241694215 L 93 411.256363636 L 98 424.121033058 L 102 420.185702479 L 107 428.325371901 L 112 398.665041322 L 117 436.729710744 L 122 435.944380165 L 127 423.609049587 L 131 427.023719008 L 136 402.08838843 L 141 410.228057851 L 146 418.892727273 L 151 430.182396694 L 156 411.547066116 L 160 434.911735537 L 165 423.101404959 L 170 411.81607438 L 175 407.355743802 L 180 423.370413223 L 185 401.060082645 L 189 431.249752066 L 194 424.689421488 L 199 391.879090909 L 204 386.893760331 L 209 395.558429752 L 214 417.873099174 L 218 401.862768595 L 223 391.627438017 L 228 411.317107438 L 233 381.13177686 L 238 388.221446281 L 243 377.461115702 L 247 387.175785124 L 252 398.990454545 L 257 368.280123967 L 262 379.044793388 L 267 348.33446281 L 272 328.124132231 L 276 337.313801653 L 281 359.103471074 L 286 375.643140496 L 291 364.882809917 L 296 350.447479339 L 301 390.08714876 L 305 324.726818182 L 310 361.741487603 L 315 346.256157025 L 320 342.845826446 L 325 323.685495868 L 330 331.300165289 L 334 322.639834711 L 339 327.104504132 L 344 333.144173554 L 349 279.333842975 L 354 278.023512397 L 359 304.013181818 L 363 263.32785124 L 368 279.867520661 L 373 289.582190083 L 378 303.496859504 L 383 259.136528926 L 388 233.676198347 L 392 246.015867769 L 397 182.23053719 L 402 250.220206612 L 407 237.359876033 L 412 192.999545455 L 417 193.789214876 L 421 220.828884298 L 426 192.218553719 L 431 190.38322314 L 436 197.472892562 L 441 229.762561983 L 446 266.777231405 L 450 208.766900826 L 455 225.306570248 L 460 273.346239669 L 465 233.710909091 L 470 266.525578512 L 475 257.865247934 L 479 248.154917355 L 484 241.069586777 L 489 204.059256198 L 494 241.07392562 L 499 227.163595041 L 504 346.603264463 L 508 213.517933884 L 513 364.982603306 L 518 383.097272727 L 523 401.211942149 L 528 433.50161157 L 532 404.366280992 L 537 405.680950413 L 542 439.020619835 L 547 398.860289256 L 552 425.374958678 L 557 423.539628099 L 562 431.154297521 L 566 430.368966942 L 571 440.608636364 L 576 430.373305785 L 581 447.962975207 L 586 399.402644628 L 591 420.66731405 L 595 411.481983471 L 600 408.071652893 L 605 448.236322314 L 610 430.650991736 L 615 391.540661157 L 620 425.405330579"/>
		</g>
		<text class="x-axis-label" x="40.0" y="540">
			0
		</text>
		<path class="x-notch" d="M 64.1666666667 525 L 64.1666666667 530"/>
		<text class="x-axis-label" x="88.3333333333" y="540">
			10
		</text>
		<path class="x-notch" d="M 112.5 525 L 112.5 530"/>
		<text class="x-axis-label" x="136.666666667" y="540">
			20
		</text>
		<path class="x-notch" d="M 160.833333333 525 L 160.833333333 530"/>
		<text class="x-axis-label" x="185.0" y="540">
			30
		</text>
		<path class="x-notch" d="M 209.166666667 525 L 209.166666667 530"/>
		<text class="x-axis-label" x="233.333333333" y="540">
			40
		</text>
		<path class="x-notch" d="M 257.5 525 L 257.5 530"/>
		<text class="x-axis-label" x="281.666666667" y="540">
			50
		</text>
		<path class="x-notch" d="M 305.833333333 525 L 305.833333333 530"/>
		<text class="x-axis-label" x="330.0" y="540">
			60
		</text>
		<path class="x-notch" d="M 354.166666667 525 L 354.166666667 530"/>
		<text class="x-axis-label" x="378.333333333" y="540">
			70
		</text>
		<path class="x-notch" d="M 402.5 525 L 402.5 530"/>
		<text class="x-axis-label" x="426.666666667" y="540">
			80
		</text>
		<path class="x-notch" d="M 450.833333333 525 L 450.833333333 530"/>
		<text class="x-axis-label" x="475.0" y="540">
			90
		</text>
		<path class="x-notch" d="M 499.166666667 525 L 499.166666667 530"/>
		<text class="x-axis-label" x="523.333333333" y="540">
			100
		</text>
		<path class="x-notch" d="M 547.5 525 L 547.5 530"/>
		<text class="x-axis-label" x="571.666666667" y="540">
			110
		</text>
		<path class="x-notch" d="M 595.833333333 525 L 595.833333333 530"/>
		<text class="x-axis-label" x="620.0" y="540">
			120
		</text>
	</g>
</svg>
