<?xml version="1.0" ?>
<svg height="600" version="1.1" width="800" xmlns="http://www.w3.org/2000/svg" xmlns:svg="http://www.w3.org/2000/svg">
	<style type="text/css">
		

.x-axis-path, .y-gridline, .x-notch { fill:none; stroke: #a7a9ac; stroke-width:1; }



.y-gridline { stroke-width: 1; }

.y-axis-path, .y-axis-path2, .x-notch-left, .x-notch-right { display: none;}



.x-axis-label, .data-point-label {font-size: 12px; font-weight:normal; font-family: sans-serif; fill: #58595b; text-anchor:middle;}

.y-axis-label {font-size: 12px; font-family: helvetica; fill: #a7a9ac; text-anchor:end;}



.series-1-line { fill: none; stroke: #10b80c; stroke-width:2; }



.series-2-line { fill: none; stroke: #e90f0a; stroke-width: 2;}

	</style>
	<rect fill="white" height="600" width="800" x="0" y="0"/>
	<g id="grid" transform="translate(70, 30)">
		<g class="x-axis" id="x_axis">
			<path class="x-axis-path" d="M 0 525 L 660 525"/>
			<path class="x-notch-left" d="M 0 525, L 0 535"/>
			<path class="x-notch-right" d="M 660 525, L 660 535"/>
		</g>
		<g class="y-axis" id="y_axis">
			<path class="y-axis-path" d="M 0 525 L 0 0"/>
			<path class="y-axis-path-2" d="M 660 525 L 660 0"/>
			<path class="y-gridline" d="M 0 525 L 660 525"/>
			<text class="y-axis-label" x="-5" y="525">
				-300
			</text>
			<path class="y-gridline" d="M 0 420 L 660 420"/>
			<text class="y-axis-label" x="-5" y="420">
				 0
			</text>
			<path class="y-gridline" d="M 0 315 L 660 315"/>
			<text class="y-axis-label" x="-5" y="315">
				300
			</text>
			<path class="y-gridline" d="M 0 210 L 660 210"/>
			<text class="y-axis-label" x="-5" y="210">
				600
			</text>
			<path class="y-gridline" d="M 0 105 L 660 105"/>
			<text class="y-axis-label" x="-5" y="105">
				900
			</text>
			<path class="y-gridline" d="M 0 0 L 660 0"/>
			<text class="y-axis-label" x="-5" y="0">
				1200
			</text>
		</g>
		<g>
			<path class="series-1-line" d="M 40 399.624764 L 48 428.014498761 L 56 414.387013521 L 64 415.557668282 L 73 437.881203042 L 81 409.912397803 L 89 399.129292563 L 98 363.227667324 L 106 362.720142085 L 114 360.839776845 L 122 316.591631606 L 131 293.495666366 L 139 302.482801127 L 147 309.882335887 L 156 274.850530648 L 164 280.957025408 L 172 262.348480169 L 180 250.31783493 L 189 271.24136969 L 197 261.948004451 L 205 192.984119211 L 214 259.999853972 L 222 203.681328732 L 230 162.573943493 L 238 167.855138254 L 247 151.696733014 L 255 208.930107775 L 263 188.634142535 L 272 157.766357296 L 280 187.672992056 L 288 106.351306817 L 296 141.104461577 L 305 89.389556338 L 313 97.1207510986 L 321 136.513085859 L 330 179.06508062 L 338 110.94441538 L 346 165.073150141 L 354 184.013724901 L 363 208.607079662 L 371 87.5118144225 L 379 33.5973691831 L 388 166.736783944 L 396 106.818578704 L 404 138.089233465 L 412 102.582268225 L 421 135.540342986 L 429 227.872697746 L 437 232.794932507 L 446 307.259507268 L 454 208.006622028 L 462 228.670456789 L 470 300.712191549 L 479 279.89500631 L 487 286.98150107 L 495 159.521275831 L 504 286.379450592 L 512 391.329865352 L 520 360.596900113 L 528 401.802514873 L 537 395.174609634 L 545 431.794804394 L 553 429.663419155 L 562 426.849393915 L 570 421.136948676 L 578 430.331003437 L 586 416.066238197 L 595 428.517672958 L 603 424.456667718 L 611 420.135122479 L 620 417.626577239"/>
			<path class="series-2-line" d="M 40 434.49 L 48 397.00943662 L 56 430.578873239 L 64 407.798309859 L 73 415.817746479 L 81 420.687183099 L 89 406.306619718 L 98 461.226056338 L 106 440.895492958 L 114 443.664929577 L 122 462.884366197 L 131 444.653802817 L 139 403.673239437 L 147 446.692676056 L 156 434.062112676 L 164 405.681549296 L 172 410.900985915 L 180 386.370422535 L 189 394.389859155 L 197 379.659295775 L 205 364.228732394 L 214 361.748169014 L 222 393.917605634 L 230 387.237042254 L 238 392.106478873 L 247 410.975915493 L 255 378.395352113 L 263 360.164788732 L 272 339.484225352 L 280 324.753661972 L 288 298.823098592 L 296 319.792535211 L 305 329.911971831 L 313 334.781408451 L 321 300.80084507 L 330 333.67028169 L 338 282.18971831 L 346 297.20915493 L 354 341.628591549 L 363 282.098028169 L 371 332.117464789 L 379 262.086901408 L 388 318.406338028 L 396 256.775774648 L 404 233.995211268 L 412 268.264647887 L 421 268.934084507 L 429 261.903521127 L 437 268.172957746 L 446 277.592394366 L 454 209.661830986 L 462 271.931267606 L 470 304.450704225 L 479 217.270140845 L 487 363.889577465 L 495 205.309014085 L 504 340.728450704 L 512 344.547887324 L 520 343.817323944 L 528 354.636760563 L 537 347.256197183 L 545 404.625633803 L 553 432.945070423 L 562 403.864507042 L 570 403.833943662 L 578 412.553380282 L 586 436.322816901 L 595 414.592253521 L 603 429.961690141 L 611 417.681126761 L 620 422.90056338"/>
		</g>
		<text class="x-axis-label" x="40.0" y="540">
			0
		</text>
		<path class="x-notch" d="M 81.4285714286 525 L 81.4285714286 530"/>
		<text class="x-axis-label" x="122.857142857" y="540">
			10
		</text>
		<path class="x-notch" d="M 164.285714286 525 L 164.285714286 530"/>
		<text class="x-axis-label" x="205.714285714" y="540">
			20
		</text>
		<path class="x-notch" d="M 247.142857143 525 L 247.142857143 530"/>
		<text class="x-axis-label" x="288.571428571" y="540">
			30
		</text>
		<path class="x-notch" d="M 330.0 525 L 330.0 530"/>
		<text class="x-axis-label" x="371.428571429" y="540">
			40
		</text>
		<path class="x-notch" d="M 412.857142857 525 L 412.857142857 530"/>
		<text class="x-axis-label" x="454.285714286" y="540">
			50
		</text>
		<path class="x-notch" d="M 495.714285714 525 L 495.714285714 530"/>
		<text class="x-axis-label" x="537.142857143" y="540">
			60
		</text>
		<path class="x-notch" d="M 578.571428571 525 L 578.571428571 530"/>
		<text class="x-axis-label" x="620.0" y="540">
			70
		</text>
	</g>
</svg>
