<?xml version="1.0" ?>
<svg height="600" version="1.1" width="800" xmlns="http://www.w3.org/2000/svg" xmlns:svg="http://www.w3.org/2000/svg">
	<style type="text/css">
		

.x-axis-path, .y-gridline, .x-notch { fill:none; stroke: #a7a9ac; stroke-width:1; }



.y-gridline { stroke-width: 1; }

.y-axis-path, .y-axis-path2, .x-notch-left, .x-notch-right { display: none;}



.x-axis-label, .data-point-label {font-size: 12px; font-weight:normal; font-family: sans-serif; fill: #58595b; text-anchor:middle;}

.y-axis-label {font-size: 12px; font-family: helvetica; fill: #a7a9ac; text-anchor:end;}



.series-1-line { fill: none; stroke: #10b80c; stroke-width:2; }



.series-2-line { fill: none; stroke: #e90f0a; stroke-width: 2;}

	</style>
	<rect fill="white" height="600" width="800" x="0" y="0"/>
	<g id="grid" transform="translate(70, 30)">
		<g class="x-axis" id="x_axis">
			<path class="x-axis-path" d="M 0 525 L 660 525"/>
			<path class="x-notch-left" d="M 0 525, L 0 535"/>
			<path class="x-notch-right" d="M 660 525, L 660 535"/>
		</g>
		<g class="y-axis" id="y_axis">
			<path class="y-axis-path" d="M 0 525 L 0 0"/>
			<path class="y-axis-path-2" d="M 660 525 L 660 0"/>
			<path class="y-gridline" d="M 0 525 L 660 525"/>
			<text class="y-axis-label" x="-5" y="525">
				-100
			</text>
			<path class="y-gridline" d="M 0 420 L 660 420"/>
			<text class="y-axis-label" x="-5" y="420">
				 0
			</text>
			<path class="y-gridline" d="M 0 315 L 660 315"/>
			<text class="y-axis-label" x="-5" y="315">
				100
			</text>
			<path class="y-gridline" d="M 0 210 L 660 210"/>
			<text class="y-axis-label" x="-5" y="210">
				200
			</text>
			<path class="y-gridline" d="M 0 105 L 660 105"/>
			<text class="y-axis-label" x="-5" y="105">
				300
			</text>
			<path class="y-gridline" d="M 0 0 L 660 0"/>
			<text class="y-axis-label" x="-5" y="0">
				400
			</text>
		</g>
		<g>
			<path class="series-1-line" d="M 40 413.005404 L 44 391.618732122 L 48 407.036240244 L 53 428.161128366 L 57 455.505376489 L 62 439.018844611 L 66 432.117132733 L 71 433.803580855 L 75 472.266908977 L 80 431.603497099 L 84 425.105405221 L 89 422.349513344 L 93 421.343761466 L 98 404.318789588 L 102 392.67821771 L 106 426.699625832 L 111 425.182313954 L 115 408.453442076 L 120 410.866910198 L 124 400.195698321 L 129 435.401506443 L 133 403.380434565 L 138 357.547662687 L 142 377.084110809 L 147 377.747438931 L 151 340.961047053 L 156 319.359335176 L 160 333.726423298 L 164 336.48975142 L 169 252.749459542 L 173 249.616827664 L 178 293.303275786 L 182 299.081783908 L 187 216.230212031 L 191 236.170700153 L 196 232.687788275 L 200 196.116856397 L 205 206.364584519 L 209 204.551172641 L 214 245.006980763 L 218 173.112788885 L 222 157.811077008 L 227 152.09334513 L 231 141.798873252 L 236 91.443121374 L 240 117.925949496 L 245 136.358637618 L 249 199.07990574 L 254 176.455073863 L 258 126.852801985 L 263 180.797330107 L 267 154.349238229 L 272 190.308526351 L 276 82.1490144733 L 280 165.304962595 L 285 181.637230718 L 289 166.57785884 L 294 142.176006962 L 298 164.458415084 L 303 172.848903206 L 307 240.685771328 L 312 201.71831945 L 316 184.073847573 L 321 181.479655695 L 325 203.008583817 L 330 225.910491939 L 334 179.027720061 L 338 178.183668183 L 343 170.312176305 L 347 194.856704427 L 352 46.6086125496 L 356 240.579880672 L 361 60.1312287939 L 365 138.360576916 L 370 135.820145038 L 374 169.16829316 L 379 147.808501282 L 383 199.222109405 L 388 191.108277527 L 392 175.025785649 L 396 182.931593771 L 401 183.406761893 L 405 268.931930015 L 410 304.433418137 L 414 165.60844626 L 419 262.925954382 L 423 338.569782504 L 428 346.664590626 L 432 325.843238748 L 437 314.39166687 L 441 360.231874992 L 446 355.026123115 L 450 320.689591237 L 454 319.737599359 L 459 334.024047481 L 463 325.937515603 L 468 328.835663725 L 472 363.421971847 L 477 345.481819969 L 481 350.560608092 L 486 345.920176214 L 490 321.841304336 L 495 361.084992458 L 499 287.27938058 L 504 276.366248702 L 508 329.960496824 L 512 381.481624947 L 517 344.479773069 L 521 371.608561191 L 526 377.980109313 L 530 419.782017435 L 535 419.664565557 L 539 423.073853679 L 544 400.314621802 L 548 357.389509924 L 553 402.664398046 L 557 367.681486168 L 562 390.04537429 L 566 396.712602412 L 570 396.972310534 L 575 427.789538656 L 579 401.960946779 L 584 425.347114901 L 588 421.918383023 L 593 452.654971145 L 597 424.887659267 L 602 407.566587389 L 606 419.376295511 L 611 446.747423634 L 615 432.468411756 L 620 400.850959878"/>
			<path class="series-2-line" d="M 40 421.89 L 44 409.168167939 L 48 428.996335878 L 53 418.374503817 L 57 420.352671756 L 62 421.280839695 L 66 442.159007634 L 71 433.637175573 L 75 420.915343511 L 80 426.04351145 L 84 424.871679389 L 89 413.199847328 L 93 415.178015267 L 98 418.206183206 L 102 400.234351145 L 106 425.312519084 L 111 425.190687023 L 115 422.968854962 L 120 423.897022901 L 124 418.52519084 L 129 422.603358779 L 133 430.881526718 L 138 423.409694656 L 142 414.887862595 L 147 402.166030534 L 151 416.744198473 L 156 437.622366412 L 160 416.500534351 L 164 403.77870229 L 169 413.106870229 L 173 419.285038168 L 178 410.763206107 L 182 378.091374046 L 187 412.619541985 L 191 422.997709924 L 196 401.875877863 L 200 423.804045802 L 205 390.08221374 L 209 395.210381679 L 214 399.288549618 L 218 403.366717557 L 222 424.244885496 L 227 383.173053435 L 231 359.951221374 L 236 361.929389313 L 240 375.457557252 L 245 375.335725191 L 249 386.76389313 L 254 403.442061069 L 258 369.720229008 L 263 398.998396947 L 267 397.826564885 L 272 366.204732824 L 276 376.582900763 L 280 394.311068702 L 285 353.239236641 L 289 377.26740458 L 294 384.495572519 L 298 357.073740458 L 303 367.451908397 L 307 399.880076336 L 312 386.108244275 L 316 362.886412214 L 321 366.964580153 L 325 375.242748092 L 330 374.070916031 L 334 366.599083969 L 338 384.327251908 L 343 351.655419847 L 347 380.933587786 L 352 379.761755725 L 356 391.189923664 L 361 335.418091603 L 365 384.646259542 L 370 380.324427481 L 374 387.55259542 L 379 370.630763359 L 383 385.208931298 L 388 349.387099237 L 392 369.215267176 L 396 373.293435115 L 401 389.971603053 L 405 406.649770992 L 410 364.527938931 L 414 367.55610687 L 419 387.384274809 L 423 348.412442748 L 428 404.990610687 L 432 385.968778626 L 437 420.496946565 L 441 403.575114504 L 446 405.553282443 L 450 406.481450382 L 454 400.059618321 L 459 391.53778626 L 463 392.465954198 L 468 399.694122137 L 472 377.522290076 L 477 400.500458015 L 481 395.128625954 L 486 390.806793893 L 490 388.584961832 L 495 335.963129771 L 499 351.59129771 L 504 384.019465649 L 508 385.997633588 L 512 383.775801527 L 517 391.003969466 L 521 385.632137405 L 526 424.360305344 L 530 423.188473282 L 535 409.416641221 L 539 377.79480916 L 544 415.472977099 L 548 404.851145038 L 553 394.229312977 L 557 373.107480916 L 562 414.985648855 L 566 407.513816794 L 570 416.841984733 L 575 409.370152672 L 579 434.448320611 L 584 398.62648855 L 588 410.054656489 L 593 415.182824427 L 597 415.060992366 L 602 423.339160305 L 606 432.667328244 L 611 430.445496183 L 615 414.573664122 L 620 400.801832061"/>
		</g>
		<text class="x-axis-label" x="40.0" y="540">
			0
		</text>
		<path class="x-notch" d="M 62.3076923077 525 L 62.3076923077 530"/>
		<text class="x-axis-label" x="84.6153846154" y="540">
			10
		</text>
		<path class="x-notch" d="M 106.923076923 525 L 106.923076923 530"/>
		<text class="x-axis-label" x="129.230769231" y="540">
			20
		</text>
		<path class="x-notch" d="M 151.538461538 525 L 151.538461538 530"/>
		<text class="x-axis-label" x="173.846153846" y="540">
			30
		</text>
		<path class="x-notch" d="M 196.153846154 525 L 196.153846154 530"/>
		<text class="x-axis-label" x="218.461538462" y="540">
			40
		</text>
		<path class="x-notch" d="M 240.769230769 525 L 240.769230769 530"/>
		<text class="x-axis-label" x="263.076923077" y="540">
			50
		</text>
		<path class="x-notch" d="M 285.384615385 525 L 285.384615385 530"/>
		<text class="x-axis-label" x="307.692307692" y="540">
			60
		</text>
		<path class="x-notch" d="M 330.0 525 L 330.0 530"/>
		<text class="x-axis-label" x="352.307692308" y="540">
			70
		</text>
		<path class="x-notch" d="M 374.615384615 525 L 374.615384615 530"/>
		<text class="x-axis-label" x="396.923076923" y="540">
			80
		</text>
		<path class="x-notch" d="M 419.230769231 525 L 419.230769231 530"/>
		<text class="x-axis-label" x="441.538461538" y="540">
			90
		</text>
		<path class="x-notch" d="M 463.846153846 525 L 463.846153846 530"/>
		<text class="x-axis-label" x="486.153846154" y="540">
			100
		</text>
		<path class="x-notch" d="M 508.461538462 525 L 508.461538462 530"/>
		<text class="x-axis-label" x="530.769230769" y="540">
			110
		</text>
		<path class="x-notch" d="M 553.076923077 525 L 553.076923077 530"/>
		<text class="x-axis-label" x="575.384615385" y="540">
			120
		</text>
		<path class="x-notch" d="M 597.692307692 525 L 597.692307692 530"/>
		<text class="x-axis-label" x="620.0" y="540">
			130
		</text>
	</g>
</svg>
