<?xml version="1.0" ?>
<svg height="600" version="1.1" width="800" xmlns="http://www.w3.org/2000/svg" xmlns:svg="http://www.w3.org/2000/svg">
	<style type="text/css">
		

.x-axis-path, .y-gridline, .x-notch { fill:none; stroke: #a7a9ac; stroke-width:1; }



.y-gridline { stroke-width: 1; }

.y-axis-path, .y-axis-path2, .x-notch-left, .x-notch-right { display: none;}



.x-axis-label, .data-point-label {font-size: 12px; font-weight:normal; font-family: sans-serif; fill: #58595b; text-anchor:middle;}

.y-axis-label {font-size: 12px; font-family: helvetica; fill: #a7a9ac; text-anchor:end;}



.series-1-line { fill: none; stroke: #10b80c; stroke-width:2; }



.series-2-line { fill: none; stroke: #e90f0a; stroke-width: 2;}

	</style>
	<rect fill="white" height="600" width="800" x="0" y="0"/>
	<g id="grid" transform="translate(70, 30)">
		<g class="x-axis" id="x_axis">
			<path class="x-axis-path" d="M 0 525 L 660 525"/>
			<path class="x-notch-left" d="M 0 525, L 0 535"/>
			<path class="x-notch-right" d="M 660 525, L 660 535"/>
		</g>
		<g class="y-axis" id="y_axis">
			<path class="y-axis-path" d="M 0 525 L 0 0"/>
			<path class="y-axis-path-2" d="M 660 525 L 660 0"/>
			<path class="y-gridline" d="M 0 525 L 660 525"/>
			<text class="y-axis-label" x="-5" y="525">
				-300
			</text>
			<path class="y-gridline" d="M 0 420 L 660 420"/>
			<text class="y-axis-label" x="-5" y="420">
				 0
			</text>
			<path class="y-gridline" d="M 0 315 L 660 315"/>
			<text class="y-axis-label" x="-5" y="315">
				300
			</text>
			<path class="y-gridline" d="M 0 210 L 660 210"/>
			<text class="y-axis-label" x="-5" y="210">
				600
			</text>
			<path class="y-gridline" d="M 0 105 L 660 105"/>
			<text class="y-axis-label" x="-5" y="105">
				900
			</text>
			<path class="y-gridline" d="M 0 0 L 660 0"/>
			<text class="y-axis-label" x="-5" y="0">
				1200
			</text>
		</g>
		<g>
			<path class="series-1-line" d="M 40 419.43636 L 42 427.372313286 L 45 436.869686571 L 48 399.619519857 L 51 415.381053143 L 54 424.600106429 L 57 388.328399714 L 60 389.973173 L 63 410.194826286 L 66 390.489599571 L 69 391.972812857 L 72 384.454866143 L 75 376.299779429 L 78 364.877932714 L 81 377.067506 L 84 363.635399286 L 87 392.068752571 L 90 360.876385857 L 93 339.241679143 L 96 337.709572429 L 99 328.746685714 L 102 324.809519 L 105 343.236372286 L 108 327.443865571 L 111 308.420858857 L 114 263.614192143 L 117 299.218065429 L 120 328.889998714 L 123 261.728132 L 126 272.114225286 L 129 262.173158571 L 132 290.345831857 L 135 230.911405143 L 138 286.294758429 L 141 255.936931714 L 144 257.886905 L 147 251.374018286 L 150 278.811131571 L 153 243.867184857 L 156 239.966138143 L 158 246.097911429 L 161 234.927504714 L 164 227.238898 L 167 182.181351286 L 170 219.813124571 L 173 189.258037857 L 176 220.221891143 L 179 212.775624429 L 182 211.216917714 L 185 179.189871 L 188 230.974384286 L 191 212.229557571 L 194 155.846010857 L 197 167.470264143 L 200 189.621537429 L 203 152.416170714 L 206 150.920184 L 209 163.262357286 L 212 121.237910571 L 215 173.013603857 L 218 143.678757143 L 221 70.2531504286 L 224 96.9904037143 L 227 91.392697 L 230 68.8157902857 L 233 98.0835435714 L 236 106.234956857 L 239 61.9128301429 L 242 107.343583429 L 245 58.6423967143 L 248 83.34223 L 251 79.5216832857 L 254 38.3587965714 L 257 68.4165698571 L 260 84.0794031429 L 263 70.3240364286 L 266 52.9703897143 L 269 105.930483 L 272 107.162396286 L 274 109.058609571 L 277 105.614942857 L 280 119.832696143 L 283 148.409689429 L 286 80.9072027143 L 289 47.327556 L 292 122.068569286 L 295 114.622302571 L 298 104.959415857 L 301 104.181209143 L 304 91.2517024286 L 307 142.766855714 L 310 110.596449 L 313 117.240202286 L 316 87.8783355714 L 319 92.1976688571 L 322 79.4834821429 L 325 89.7168354286 L 328 77.6756287143 L 331 114.257822 L 334 51.8973952857 L 337 92.6972285714 L 340 138.935641857 L 343 60.2510751429 L 346 116.424168429 L 349 89.6201017143 L 352 102.069795 L 355 104.019908286 L 358 104.121321571 L 361 138.576214857 L 364 56.2930881429 L 367 70.2326614286 L 370 63.7017147143 L 373 83.824808 L 376 65.1695812857 L 379 77.4218745714 L 382 85.0438078571 L 385 35.4001411429 L 388 98.1336344286 L 390 75.4846277143 L 393 81.939801 L 396 33.6422342857 L 399 75.4117075714 L 402 121.030900857 L 405 104.574234143 L 408 59.0139474286 L 411 41.9202807143 L 414 58.112594 L 417 138.022687286 L 420 43.5611005714 L 423 147.271193857 L 426 100.741687143 L 429 107.214640429 L 432 119.709693714 L 435 130.965747 L 438 126.032480286 L 441 68.6980535714 L 444 132.705546857 L 447 123.949160143 L 450 129.605353429 L 453 99.1222267143 L 456 81.33752 L 459 146.754113286 L 462 164.041226571 L 465 147.117939857 L 468 200.473113143 L 471 168.078426429 L 474 207.397479714 L 477 182.998753 L 480 192.944826286 L 483 207.458399571 L 486 199.725412857 L 489 279.204726143 L 492 208.695739429 L 495 208.940512714 L 498 270.381526 L 501 251.403319286 L 504 253.954452571 L 506 267.526245857 L 509 242.400499143 L 512 288.728652429 L 515 289.853045714 L 518 268.110679 L 521 293.169612286 L 524 297.013085571 L 527 356.946298857 L 530 322.119252143 L 533 325.864025429 L 536 326.907778714 L 539 368.865552 L 542 394.678385286 L 545 403.816798571 L 548 394.611571857 L 551 390.674265143 L 554 405.035798429 L 557 394.116551714 L 560 411.475485 L 563 406.640918286 L 566 409.299851571 L 569 419.254884857 L 572 416.529138143 L 575 420.211051429 L 578 418.885444714 L 581 423.985418 L 584 405.007211286 L 587 408.572364571 L 590 419.685197857 L 593 420.199331143 L 596 405.026044429 L 599 408.483817714 L 602 401.163131 L 605 393.169604286 L 608 418.739957571 L 611 416.454090857 L 614 426.813024143 L 617 418.487277429 L 620 421.487250714"/>
			<path class="series-2-line" d="M 40 415.1 L 42 425.9025 L 45 425.155 L 48 414.2575 L 51 419.11 L 54 407.1625 L 57 421.115 L 60 416.8675 L 63 408.42 L 66 404.1725 L 69 397.825 L 72 403.3775 L 75 412.78 L 78 413.0825 L 81 401.835 L 84 401.7875 L 87 409.09 L 90 408.6925 L 93 405.145 L 96 405.0975 L 99 404.0 L 102 410.6025 L 105 409.155 L 108 395.1075 L 111 407.31 L 114 387.6625 L 117 395.665 L 120 414.5175 L 123 387.87 L 126 412.3225 L 129 413.675 L 132 379.6775 L 135 403.43 L 138 410.7325 L 141 402.985 L 144 405.7375 L 147 404.64 L 150 403.5425 L 153 374.095 L 156 402.3975 L 158 380.65 L 161 396.3525 L 164 387.555 L 167 407.1075 L 170 385.36 L 173 394.7625 L 176 375.815 L 179 370.1675 L 182 401.62 L 185 394.9225 L 188 390.325 L 191 400.0775 L 194 384.63 L 197 379.6825 L 200 384.185 L 203 366.2875 L 206 387.94 L 209 380.1925 L 212 376.995 L 215 387.4475 L 218 370.25 L 221 378.9525 L 224 391.505 L 227 370.4575 L 230 377.41 L 233 363.7125 L 236 381.865 L 239 354.8675 L 242 358.67 L 245 373.3225 L 248 362.425 L 251 364.4775 L 254 363.38 L 257 376.6325 L 260 383.235 L 263 365.3375 L 266 390.14 L 269 379.5925 L 272 371.495 L 274 382.6475 L 277 380.5 L 280 366.8025 L 283 379.005 L 286 391.9075 L 289 381.71 L 292 385.8625 L 295 380.215 L 298 379.1175 L 301 384.32 L 304 387.7725 L 307 370.575 L 310 386.2775 L 313 407.58 L 316 380.9325 L 319 396.285 L 322 393.4375 L 325 400.74 L 328 388.4425 L 331 407.645 L 334 396.3975 L 337 385.5 L 340 386.1525 L 343 396.255 L 346 403.2075 L 349 387.06 L 352 362.5125 L 355 378.915 L 358 397.0675 L 361 379.52 L 364 405.0225 L 367 393.775 L 370 381.8275 L 373 388.78 L 376 384.5325 L 379 363.485 L 382 382.3375 L 385 380.19 L 388 401.1425 L 390 378.345 L 393 388.0975 L 396 380.7 L 399 409.7025 L 402 411.405 L 405 391.7575 L 408 394.16 L 411 392.0125 L 414 397.915 L 417 387.3675 L 420 388.02 L 423 377.4725 L 426 380.925 L 429 374.2275 L 432 397.28 L 435 367.8325 L 438 379.685 L 441 403.4375 L 444 389.39 L 447 397.0425 L 450 381.245 L 453 406.7475 L 456 403.2 L 459 401.4025 L 462 400.305 L 465 385.2075 L 468 394.96 L 471 418.3625 L 474 406.415 L 477 410.9175 L 480 408.42 L 483 362.1725 L 486 401.325 L 489 389.7275 L 492 393.88 L 495 389.6325 L 498 393.785 L 501 398.9875 L 504 389.84 L 506 395.0425 L 509 390.095 L 512 390.3975 L 515 399.1 L 518 398.7025 L 521 400.055 L 524 394.0575 L 527 387.71 L 530 381.0125 L 533 376.765 L 536 398.0675 L 539 411.32 L 542 417.9225 L 545 418.575 L 548 414.3275 L 551 407.28 L 554 412.1325 L 557 415.935 L 560 417.2875 L 563 427.39 L 566 428.7425 L 569 424.845 L 572 419.8975 L 575 411.8 L 578 420.5025 L 581 423.255 L 584 428.4575 L 587 411.26 L 590 417.8625 L 593 426.215 L 596 411.1175 L 599 424.37 L 602 412.7725 L 605 424.275 L 608 414.0775 L 611 422.43 L 614 423.7825 L 617 418.835 L 620 421.5875"/>
		</g>
		<text class="x-axis-label" x="40.0" y="540">
			0
		</text>
		<path class="x-notch" d="M 54.8717948718 525 L 54.8717948718 530"/>
		<text class="x-axis-label" x="69.7435897436" y="540">
			10
		</text>
		<path class="x-notch" d="M 84.6153846154 525 L 84.6153846154 530"/>
		<text class="x-axis-label" x="99.4871794872" y="540">
			20
		</text>
		<path class="x-notch" d="M 114.358974359 525 L 114.358974359 530"/>
		<text class="x-axis-label" x="129.230769231" y="540">
			30
		</text>
		<path class="x-notch" d="M 144.102564103 525 L 144.102564103 530"/>
		<text class="x-axis-label" x="158.974358974" y="540">
			40
		</text>
		<path class="x-notch" d="M 173.846153846 525 L 173.846153846 530"/>
		<text class="x-axis-label" x="188.717948718" y="540">
			50
		</text>
		<path class="x-notch" d="M 203.58974359 525 L 203.58974359 530"/>
		<text class="x-axis-label" x="218.461538462" y="540">
			60
		</text>
		<path class="x-notch" d="M 233.333333333 525 L 233.333333333 530"/>
		<text class="x-axis-label" x="248.205128205" y="540">
			70
		</text>
		<path class="x-notch" d="M 263.076923077 525 L 263.076923077 530"/>
		<text class="x-axis-label" x="277.948717949" y="540">
			80
		</text>
		<path class="x-notch" d="M 292.820512821 525 L 292.820512821 530"/>
		<text class="x-axis-label" x="307.692307692" y="540">
			90
		</text>
		<path class="x-notch" d="M 322.564102564 525 L 322.564102564 530"/>
		<text class="x-axis-label" x="337.435897436" y="540">
			100
		</text>
		<path class="x-notch" d="M 352.307692308 525 L 352.307692308 530"/>
		<text class="x-axis-label" x="367.179487179" y="540">
			110
		</text>
		<path class="x-notch" d="M 382.051282051 525 L 382.051282051 530"/>
		<text class="x-axis-label" x="396.923076923" y="540">
			120
		</text>
		<path class="x-notch" d="M 411.794871795 525 L 411.794871795 530"/>
		<text class="x-axis-label" x="426.666666667" y="540">
			130
		</text>
		<path class="x-notch" d="M 441.538461538 525 L 441.538461538 530"/>
		<text class="x-axis-label" x="456.41025641" y="540">
			140
		</text>
		<path class="x-notch" d="M 471.282051282 525 L 471.282051282 530"/>
		<text class="x-axis-label" x="486.153846154" y="540">
			150
		</text>
		<path class="x-notch" d="M 501.025641026 525 L 501.025641026 530"/>
		<text class="x-axis-label" x="515.897435897" y="540">
			160
		</text>
		<path class="x-notch" d="M 530.769230769 525 L 530.769230769 530"/>
		<text class="x-axis-label" x="545.641025641" y="540">
			170
		</text>
		<path class="x-notch" d="M 560.512820513 525 L 560.512820513 530"/>
		<text class="x-axis-label" x="575.384615385" y="540">
			180
		</text>
		<path class="x-notch" d="M 590.256410256 525 L 590.256410256 530"/>
		<text class="x-axis-label" x="605.128205128" y="540">
			190
		</text>
		<path class="x-notch" d="M 620.0 525 L 620.0 530"/>
	</g>
</svg>
