<?xml version="1.0" ?>
<svg height="600" version="1.1" width="800" xmlns="http://www.w3.org/2000/svg" xmlns:svg="http://www.w3.org/2000/svg">
	<style type="text/css">
		

.x-axis-path, .y-gridline, .x-notch { fill:none; stroke: #a7a9ac; stroke-width:1; }



.y-gridline { stroke-width: 1; }

.y-axis-path, .y-axis-path2, .x-notch-left, .x-notch-right { display: none;}



.x-axis-label, .data-point-label {font-size: 12px; font-weight:normal; font-family: sans-serif; fill: #58595b; text-anchor:middle;}

.y-axis-label {font-size: 12px; font-family: helvetica; fill: #a7a9ac; text-anchor:end;}



.series-1-line { fill: none; stroke: #10b80c; stroke-width:2; }



.series-2-line { fill: none; stroke: #e90f0a; stroke-width: 2;}

	</style>
	<rect fill="white" height="600" width="800" x="0" y="0"/>
	<g id="grid" transform="translate(70, 30)">
		<g class="x-axis" id="x_axis">
			<path class="x-axis-path" d="M 0 525 L 660 525"/>
			<path class="x-notch-left" d="M 0 525, L 0 535"/>
			<path class="x-notch-right" d="M 660 525, L 660 535"/>
		</g>
		<g class="y-axis" id="y_axis">
			<path class="y-axis-path" d="M 0 525 L 0 0"/>
			<path class="y-axis-path-2" d="M 660 525 L 660 0"/>
			<path class="y-gridline" d="M 0 525 L 660 525"/>
			<text class="y-axis-label" x="-5" y="525">
				-100
			</text>
			<path class="y-gridline" d="M 0 438 L 660 438"/>
			<text class="y-axis-label" x="-5" y="438">
				 0
			</text>
			<path class="y-gridline" d="M 0 351 L 660 351"/>
			<text class="y-axis-label" x="-5" y="351">
				100
			</text>
			<path class="y-gridline" d="M 0 264 L 660 264"/>
			<text class="y-axis-label" x="-5" y="264">
				200
			</text>
			<path class="y-gridline" d="M 0 177 L 660 177"/>
			<text class="y-axis-label" x="-5" y="177">
				300
			</text>
			<path class="y-gridline" d="M 0 90 L 660 90"/>
			<text class="y-axis-label" x="-5" y="90">
				400
			</text>
			<path class="y-gridline" d="M 0 3 L 660 3"/>
			<text class="y-axis-label" x="-5" y="3">
				500
			</text>
		</g>
		<g>
			<path class="series-1-line" d="M 40 446.44292 L 44 426.8348965 L 48 442.248923 L 52 430.0671995 L 56 441.465326 L 60 436.5527525 L 65 432.851879 L 69 456.3428555 L 73 410.686782 L 77 426.7514585 L 81 417.733035 L 85 443.6922115 L 90 441.516638 L 94 445.6680145 L 98 444.008341 L 102 421.1022675 L 106 420.026044 L 110 416.3927205 L 115 438.918747 L 119 403.4035735 L 123 433.62575 L 127 436.2738765 L 131 423.688253 L 135 450.6792295 L 140 394.612756 L 144 409.7352325 L 148 417.476559 L 152 396.8139855 L 156 408.234512 L 161 392.9339385 L 165 397.915515 L 169 404.4003415 L 173 414.093618 L 177 401.3504945 L 181 384.075571 L 186 393.7688475 L 190 372.253674 L 194 348.3151005 L 198 400.860977 L 202 355.1821535 L 206 368.55463 L 211 367.5011565 L 215 356.597983 L 219 343.2941595 L 223 344.663736 L 227 354.5810125 L 231 333.806089 L 236 336.2750155 L 240 340.291642 L 244 340.0680185 L 248 271.661945 L 252 271.6399215 L 256 281.422798 L 261 313.9784245 L 265 230.831751 L 269 251.9220775 L 273 273.393904 L 277 287.3050305 L 282 297.805757 L 286 284.2327835 L 290 247.75266 L 294 217.1507865 L 298 255.293113 L 302 232.8805395 L 307 223.323466 L 311 226.3978925 L 315 179.171369 L 319 201.8545455 L 323 172.800722 L 327 147.1796985 L 332 169.638875 L 336 202.3733515 L 340 174.262428 L 344 201.8589045 L 348 162.709681 L 352 174.3766075 L 357 160.377334 L 361 168.7693105 L 365 172.404787 L 369 190.8928635 L 373 137.42864 L 377 119.4358665 L 382 74.452843 L 386 82.2613695 L 390 59.332546 L 394 37.9972725 L 398 51.728499 L 403 141.7873755 L 407 166.983902 L 411 62.8592785 L 415 152.244405 L 419 100.7548815 L 423 98.736458 L 428 92.2310345 L 432 49.580761 L 436 118.1678375 L 440 133.515714 L 444 199.2086405 L 448 234.680467 L 453 230.7097435 L 457 227.74912 L 461 279.8690465 L 465 273.116523 L 469 211.6876995 L 473 258.265726 L 478 271.9521525 L 482 267.129529 L 486 324.0507555 L 490 349.672882 L 494 335.0681085 L 498 306.440935 L 503 437.9163615 L 507 427.125538 L 511 446.1967145 L 515 462.934791 L 519 435.1150675 L 524 456.070994 L 528 438.2798205 L 532 434.175047 L 536 433.0764235 L 540 428.5226 L 544 422.8025765 L 549 437.117603 L 553 456.2111795 L 557 453.878806 L 561 445.4886325 L 565 455.159159 L 569 430.7274355 L 574 435.260312 L 578 435.3058385 L 582 436.563065 L 586 457.6085915 L 590 429.183368 L 594 433.7610445 L 599 447.066321 L 603 438.4741975 L 607 421.849924 L 611 442.2451505 L 615 441.999127 L 620 443.5927035"/>
			<path class="series-2-line" d="M 40 434.7 L 44 449.28375 L 48 426.2425 L 52 442.57625 L 56 431.785 L 60 440.24375 L 65 464.4525 L 69 444.03625 L 73 461.245 L 77 439.07875 L 81 439.6625 L 85 443.74625 L 90 434.705 L 94 428.28875 L 98 406.9975 L 102 424.20625 L 106 414.29 L 110 462.12375 L 115 421.5825 L 119 426.54125 L 123 448.125 L 127 437.33375 L 131 448.4175 L 135 428.00125 L 140 431.21 L 144 419.54375 L 148 433.2525 L 152 441.71125 L 156 427.42 L 161 418.37875 L 165 418.9625 L 169 423.92125 L 173 440.255 L 177 407.58875 L 181 399.4225 L 186 415.75625 L 190 420.715 L 194 394.17375 L 198 414.0075 L 202 400.59125 L 206 388.925 L 211 409.63375 L 215 397.0925 L 219 383.67625 L 223 401.76 L 227 383.09375 L 231 374.9275 L 236 392.13625 L 240 372.595 L 244 366.17875 L 248 383.3875 L 252 345.47125 L 256 347.805 L 261 380.76375 L 265 376.9725 L 269 355.68125 L 273 343.14 L 277 349.84875 L 282 342.5575 L 286 337.01625 L 290 321.85 L 294 311.05875 L 298 359.7675 L 302 368.22625 L 307 350.435 L 311 341.39375 L 315 364.7275 L 319 333.81125 L 323 320.395 L 327 317.47875 L 332 321.5625 L 336 292.39625 L 340 336.73 L 344 290.06375 L 348 350.1475 L 352 297.35625 L 357 290.065 L 361 304.64875 L 365 310.4825 L 369 319.81625 L 373 292.4 L 377 293.85875 L 382 308.4425 L 386 311.65125 L 390 298.235 L 394 343.44375 L 398 309.9025 L 403 347.23625 L 407 367.945 L 411 326.52875 L 415 298.2375 L 419 304.07125 L 423 304.655 L 428 322.73875 L 432 280.4475 L 436 254.78125 L 440 344.615 L 444 326.82375 L 448 314.2825 L 453 278.11625 L 457 289.2 L 461 341.40875 L 465 329.7425 L 469 316.32625 L 473 345.785 L 478 319.24375 L 482 347.8275 L 486 401.78625 L 490 355.995 L 494 374.95375 L 498 397.4125 L 503 423.37125 L 507 427.455 L 511 414.03875 L 515 423.3725 L 519 422.20625 L 524 421.915 L 528 391.87375 L 532 410.8325 L 536 404.41625 L 540 391.0 L 544 423.08375 L 549 435.0425 L 553 418.12625 L 557 433.585 L 561 438.54375 L 565 424.2525 L 569 440.58625 L 574 442.92 L 578 428.62875 L 582 430.0875 L 586 415.79625 L 590 440.88 L 594 436.21375 L 599 435.0475 L 603 437.38125 L 607 430.09 L 611 449.04875 L 615 446.1325 L 620 429.21625"/>
		</g>
		<text class="x-axis-label" x="40.0" y="540">
			0
		</text>
		<path class="x-notch" d="M 60.8633093525 525 L 60.8633093525 530"/>
		<text class="x-axis-label" x="81.726618705" y="540">
			10
		</text>
		<path class="x-notch" d="M 102.589928058 525 L 102.589928058 530"/>
		<text class="x-axis-label" x="123.45323741" y="540">
			20
		</text>
		<path class="x-notch" d="M 144.316546763 525 L 144.316546763 530"/>
		<text class="x-axis-label" x="165.179856115" y="540">
			30
		</text>
		<path class="x-notch" d="M 186.043165468 525 L 186.043165468 530"/>
		<text class="x-axis-label" x="206.90647482" y="540">
			40
		</text>
		<path class="x-notch" d="M 227.769784173 525 L 227.769784173 530"/>
		<text class="x-axis-label" x="248.633093525" y="540">
			50
		</text>
		<path class="x-notch" d="M 269.496402878 525 L 269.496402878 530"/>
		<text class="x-axis-label" x="290.35971223" y="540">
			60
		</text>
		<path class="x-notch" d="M 311.223021583 525 L 311.223021583 530"/>
		<text class="x-axis-label" x="332.086330935" y="540">
			70
		</text>
		<path class="x-notch" d="M 352.949640288 525 L 352.949640288 530"/>
		<text class="x-axis-label" x="373.81294964" y="540">
			80
		</text>
		<path class="x-notch" d="M 394.676258993 525 L 394.676258993 530"/>
		<text class="x-axis-label" x="415.539568345" y="540">
			90
		</text>
		<path class="x-notch" d="M 436.402877698 525 L 436.402877698 530"/>
		<text class="x-axis-label" x="457.26618705" y="540">
			100
		</text>
		<path class="x-notch" d="M 478.129496403 525 L 478.129496403 530"/>
		<text class="x-axis-label" x="498.992805755" y="540">
			110
		</text>
		<path class="x-notch" d="M 519.856115108 525 L 519.856115108 530"/>
		<text class="x-axis-label" x="540.71942446" y="540">
			120
		</text>
		<path class="x-notch" d="M 561.582733813 525 L 561.582733813 530"/>
		<text class="x-axis-label" x="582.446043165" y="540">
			130
		</text>
		<path class="x-notch" d="M 603.309352518 525 L 603.309352518 530"/>
	</g>
</svg>
