<?xml version="1.0" ?>
<svg height="600" version="1.1" width="800" xmlns="http://www.w3.org/2000/svg" xmlns:svg="http://www.w3.org/2000/svg">
	<style type="text/css">

.x-axis-path, .y-gridline, .x-notch { fill:none; stroke: #a7a9ac; stroke-width:1; }



.y-gridline { stroke-width: 1; }

.y-axis-path, .y-axis-path2, .x-notch-left, .x-notch-right { display: none;}



.x-axis-label, .data-point-label {font-size: 12px; font-weight:normal; font-family: sans-serif; fill: #58595b; text-anchor:middle;}

.y-axis-label {font-size: 12px; font-family: helvetica; fill: #a7a9ac; text-anchor:end;}



.series-1-line { fill: none; stroke: #10b80c; stroke-width:2; }



.series-2-line { fill: none; stroke: #e90f0a; stroke-width: 2;}
</style>
	<rect fill="white" height="600" width="800" x="0" y="0"/>
	<g id="grid" transform="translate(70, 30)">
		<g class="x-axis" id="x_axis">
			<path class="x-axis-path" d="M 0 525 L 660 525"/>
			<path class="x-notch-left" d="M 0 525, L 0 535"/>
			<path class="x-notch-right" d="M 660 525, L 660 535"/>
		</g>
		<g class="y-axis" id="y_axis">
			<path class="y-axis-path" d="M 0 525 L 0 0"/>
			<path class="y-axis-path-2" d="M 660 525 L 660 0"/>
			<path class="y-gridline" d="M 0 525 L 660 525"/>
			<text class="y-axis-label" x="-5" y="525">-200</text>
			<path class="y-gridline" d="M 0 420 L 660 420"/>
			<text class="y-axis-label" x="-5" y="420"> 0</text>
			<path class="y-gridline" d="M 0 315 L 660 315"/>
			<text class="y-axis-label" x="-5" y="315">200</text>
			<path class="y-gridline" d="M 0 210 L 660 210"/>
			<text class="y-axis-label" x="-5" y="210">400</text>
			<path class="y-gridline" d="M 0 105 L 660 105"/>
			<text class="y-axis-label" x="-5" y="105">600</text>
			<path class="y-gridline" d="M 0 0 L 660 0"/>
			<text class="y-axis-label" x="-5" y="0">800</text>
		</g>
		<g>
			<path class="series-1-line" d="M 40 450.394296245 L 45 417.406942825 L 51 432.648647694 L 57 375.952007515 L 63 416.048702797 L 69 406.579561373 L 75 453.075585158 L 81 413.282915921 L 87 396.937690248 L 93 379.517156887 L 99 422.407715338 L 105 453.240822984 L 111 446.635940694 L 117 391.707021432 L 123 378.846582294 L 129 442.556468256 L 135 369.983116783 L 141 333.390298029 L 147 335.667226313 L 153 279.519972639 L 159 305.148248407 L 165 231.165860223 L 171 184.401010656 L 177 234.501754844 L 183 254.090131247 L 189 192.09256311 L 195 182.480022496 L 201 229.333985557 L 207 240.85066369 L 213 183.413562242 L 219 235.400843818 L 225 105.0 L 231 206.816078874 L 237 129.753401608 L 243 247.900972063 L 249 238.19233537 L 255 219.17280793 L 261 244.012574389 L 267 197.129280817 L 273 193.270213655 L 279 189.745620447 L 285 104.541221411 L 291 191.698178472 L 297 217.206892839 L 303 234.549675182 L 309 253.276911518 L 315 181.491696888 L 321 247.780161001 L 327 192.516767785 L 332 225.54667652 L 338 252.893507769 L 344 282.675890445 L 350 307.277651497 L 356 272.61867324 L 362 285.640111699 L 368 240.45228075 L 374 335.391530445 L 380 285.834680037 L 386 255.878822728 L 392 320.544454976 L 398 281.612180875 L 404 324.311292096 L 410 334.181300576 L 416 329.248043123 L 422 331.955168975 L 428 375.801101247 L 434 384.333586378 L 440 358.532580908 L 446 371.43483043 L 452 382.904205454 L 458 316.992025678 L 464 376.738507031 L 470 340.767333075 L 476 427.230759511 L 482 438.820068402 L 488 453.585017525 L 494 422.55534239 L 500 428.390060433 L 506 410.611587797 L 512 439.773443072 L 518 412.563773357 L 524 433.106406184 L 530 405.156647665 L 536 404.067233419 L 542 446.193865279 L 548 458.212626808 L 554 431.241707432 L 560 433.423284566 L 566 424.312082418 L 572 437.094770538 L 578 432.590965722 L 584 401.848088966 L 590 445.669438519 L 596 429.657941869 L 602 455.619946659 L 608 402.696008791 L 614 424.265156335 L 620 399.085050732"/>
			<path class="series-2-line" d="M 40 435.82978065 L 45 450.591573698 L 51 422.519842634 L 57 395.379275138 L 63 375.688016182 L 69 425.834024801 L 75 461.081416338 L 81 411.592923218 L 87 481.293366758 L 93 464.395598505 L 99 481.019718689 L 105 490.194530331 L 111 456.535817861 L 117 516.924625724 L 123 478.610095416 L 129 443.08905581 L 135 496.028555133 L 141 492.167076827 L 147 452.921382951 L 153 449.059904646 L 159 471.271006236 L 165 489.757453554 L 171 402.09125416 L 177 383.331158772 L 183 476.310691504 L 189 404.47427276 L 195 440.652827864 L 201 456.34578448 L 207 391.958674277 L 213 335.020872615 L 219 348.851502096 L 225 416.6896185 L 231 392.342541707 L 237 382.894081996 L 243 389.275402935 L 249 367.721816844 L 255 418.798989031 L 261 382.346785858 L 267 385.934616094 L 273 359.725212165 L 279 354.001406725 L 285 343.621783446 L 291 390.974301362 L 297 395.493295166 L 303 366.490400534 L 309 303.034453899 L 315 378.321878845 L 321 340.007348537 L 327 379.910557912 L 332 409.570968042 L 338 381.499236978 L 344 372.981940835 L 350 410.091659507 L 356 395.05621839 L 362 386.538922246 L 368 416.199332377 L 374 338.775932227 L 380 396.371249387 L 386 337.57112059 L 392 370.956184991 L 398 405.27241296 L 404 379.063009032 L 410 390.100147809 L 416 386.238669504 L 422 388.895336173 L 428 438.110181224 L 434 403.520305186 L 440 386.622536934 L 446 396.728512144 L 452 376.106089621 L 458 406.697663319 L 464 372.107787281 L 470 452.982193633 L 476 390.457410566 L 482 423.842474967 L 488 470.263829316 L 494 470.127005281 L 500 456.953891299 L 506 459.610557968 L 512 475.303514584 L 518 460.268073467 L 524 476.89219365 L 530 468.374897507 L 536 445.890147849 L 542 472.757067276 L 548 475.413733945 L 554 459.44712926 L 560 435.100052467 L 566 465.691626165 L 572 458.105493589 L 578 423.515617551 L 584 451.313700547 L 590 431.622441591 L 596 449.177725343 L 602 419.243667143 L 608 420.969170244 L 614 422.694673345 L 620 417.902031472"/>
		</g>
		<text class="x-axis-label" x="40.0" y="540">0</text>
		<path class="x-notch" d="M 69.8969072165 525 L 69.8969072165 530"/>
		<text class="x-axis-label" x="99.793814433" y="540">10</text>
		<path class="x-notch" d="M 129.690721649 525 L 129.690721649 530"/>
		<text class="x-axis-label" x="159.587628866" y="540">20</text>
		<path class="x-notch" d="M 189.484536082 525 L 189.484536082 530"/>
		<text class="x-axis-label" x="219.381443299" y="540">30</text>
		<path class="x-notch" d="M 249.278350515 525 L 249.278350515 530"/>
		<text class="x-axis-label" x="279.175257732" y="540">40</text>
		<path class="x-notch" d="M 309.072164948 525 L 309.072164948 530"/>
		<text class="x-axis-label" x="338.969072165" y="540">50</text>
		<path class="x-notch" d="M 368.865979381 525 L 368.865979381 530"/>
		<text class="x-axis-label" x="398.762886598" y="540">60</text>
		<path class="x-notch" d="M 428.659793814 525 L 428.659793814 530"/>
		<text class="x-axis-label" x="458.556701031" y="540">70</text>
		<path class="x-notch" d="M 488.453608247 525 L 488.453608247 530"/>
		<text class="x-axis-label" x="518.350515464" y="540">80</text>
		<path class="x-notch" d="M 548.24742268 525 L 548.24742268 530"/>
		<text class="x-axis-label" x="578.144329897" y="540">90</text>
		<path class="x-notch" d="M 608.041237113 525 L 608.041237113 530"/>
	</g>
</svg>
