<?xml version="1.0" ?>
<svg height="600" version="1.1" width="800" xmlns="http://www.w3.org/2000/svg" xmlns:svg="http://www.w3.org/2000/svg">
	<style type="text/css">
		

.x-axis-path, .y-gridline, .x-notch { fill:none; stroke: #a7a9ac; stroke-width:1; }



.y-gridline { stroke-width: 1; }

.y-axis-path, .y-axis-path2, .x-notch-left, .x-notch-right { display: none;}



.x-axis-label, .data-point-label {font-size: 12px; font-weight:normal; font-family: sans-serif; fill: #58595b; text-anchor:middle;}

.y-axis-label {font-size: 12px; font-family: helvetica; fill: #a7a9ac; text-anchor:end;}



.series-1-line { fill: none; stroke: #10b80c; stroke-width:2; }



.series-2-line { fill: none; stroke: #e90f0a; stroke-width: 2;}

	</style>
	<rect fill="white" height="600" width="800" x="0" y="0"/>
	<g id="grid" transform="translate(70, 30)">
		<g class="x-axis" id="x_axis">
			<path class="x-axis-path" d="M 0 525 L 660 525"/>
			<path class="x-notch-left" d="M 0 525, L 0 535"/>
			<path class="x-notch-right" d="M 660 525, L 660 535"/>
		</g>
		<g class="y-axis" id="y_axis">
			<path class="y-axis-path" d="M 0 525 L 0 0"/>
			<path class="y-axis-path-2" d="M 660 525 L 660 0"/>
			<path class="y-gridline" d="M 0 525 L 660 525"/>
			<text class="y-axis-label" x="-5" y="525">
				-200
			</text>
			<path class="y-gridline" d="M 0 394 L 660 394"/>
			<text class="y-axis-label" x="-5" y="394">
				 0
			</text>
			<path class="y-gridline" d="M 0 263 L 660 263"/>
			<text class="y-axis-label" x="-5" y="263">
				200
			</text>
			<path class="y-gridline" d="M 0 132 L 660 132"/>
			<text class="y-axis-label" x="-5" y="132">
				400
			</text>
			<path class="y-gridline" d="M 0 1 L 660 1"/>
			<text class="y-axis-label" x="-5" y="1">
				600
			</text>
		</g>
		<g>
			<path class="series-1-line" d="M 40 395.763337514 L 42 386.376318008 L 45 406.789174241 L 47 384.713952535 L 50 395.898863117 L 53 384.996159635 L 55 383.073348344 L 58 375.554760302 L 60 385.643357867 L 63 357.696050458 L 66 386.383155194 L 68 350.380504975 L 71 385.283222687 L 74 368.889585194 L 76 360.189025386 L 79 368.237576563 L 81 378.745693799 L 84 369.148840101 L 87 364.356906857 L 89 370.956546242 L 92 376.15486203 L 95 384.23226355 L 97 404.254153027 L 100 365.315013818 L 102 371.447396625 L 105 357.961546492 L 108 370.566815949 L 110 384.402091505 L 113 355.758509335 L 116 351.633851797 L 118 359.491752772 L 121 348.293556349 L 123 386.828442962 L 126 376.602532825 L 129 361.676842401 L 131 383.691338786 L 134 380.510117192 L 137 364.945852691 L 139 378.571145341 L 142 377.582698495 L 144 364.935590281 L 147 368.81824122 L 150 383.797269275 L 152 371.76969986 L 155 362.554295278 L 158 351.813689082 L 160 354.666947902 L 163 353.973845285 L 165 356.111942778 L 168 336.534357687 L 171 309.473529103 L 173 320.896826793 L 176 326.685979751 L 179 318.052192128 L 181 313.77480623 L 184 322.309649263 L 186 304.40969672 L 189 254.679785829 L 192 283.65301458 L 194 293.732094506 L 197 268.263091009 L 200 248.580663177 L 202 268.116409511 L 205 223.076463843 L 207 231.992458567 L 210 197.715177803 L 213 226.221298689 L 215 204.660773042 L 218 149.868668024 L 221 229.04223639 L 223 223.496922551 L 226 175.616259132 L 228 175.943030995 L 231 169.835284189 L 234 157.941259143 L 236 163.063433821 L 239 137.39411377 L 242 143.717295491 L 244 148.515275598 L 247 155.563136285 L 249 161.819397109 L 252 114.929906542 L 255 135.619071725 L 257 109.911978545 L 260 72.2406185641 L 263 96.9050337835 L 265 124.658220214 L 268 83.6315951358 L 270 42.7765849822 L 273 100.453376455 L 276 70.0844248292 L 278 45.4449430367 L 281 64.2085709246 L 284 69.4830278229 L 286 39.7910182553 L 289 37.0578692499 L 291 62.1229175768 L 294 0.0 L 297 57.6863091117 L 299 77.0983261415 L 302 78.0544518689 L 305 67.5523814948 L 307 103.961116831 L 310 121.352271464 L 312 82.8512410651 L 315 67.105844001 L 318 83.9918202129 L 320 91.945195002 L 323 84.7598730303 L 326 84.8582215625 L 328 107.034815232 L 331 86.4943127794 L 333 96.8022621752 L 336 138.273191639 L 339 98.2762561067 L 341 123.62698231 L 344 131.313268361 L 347 106.368627275 L 349 139.879687742 L 352 164.582470943 L 354 146.148638349 L 357 132.958132445 L 360 146.736004743 L 362 159.160290349 L 365 153.929802156 L 368 178.727613031 L 370 196.232979329 L 373 196.922462458 L 375 207.087349846 L 378 201.084594492 L 381 210.563022183 L 383 211.586217521 L 386 198.214281628 L 389 189.275185998 L 391 186.380237133 L 394 226.46902699 L 396 223.916861835 L 399 233.271708935 L 402 269.509126773 L 404 256.69977256 L 407 263.356517778 L 410 267.287054338 L 412 247.175589196 L 415 267.407461579 L 417 286.952576839 L 420 263.809743745 L 423 276.720023782 L 425 293.119559424 L 428 299.814523911 L 431 272.439018395 L 433 303.652610087 L 436 283.245800717 L 438 300.99892305 L 441 324.376672476 L 444 307.725463884 L 446 291.532142945 L 449 290.867593243 L 452 339.354807046 L 454 355.735009985 L 457 331.448424393 L 459 316.722901809 L 462 348.95621927 L 465 354.507728684 L 467 367.523000174 L 470 333.502695658 L 473 356.565916865 L 475 343.537359534 L 478 351.776560913 L 480 296.517348029 L 483 344.080012452 L 486 356.990441202 L 488 331.368858058 L 491 357.158287924 L 494 344.282310239 L 496 347.145086698 L 499 368.482641024 L 501 383.16632485 L 504 431.920627391 L 507 417.986407245 L 509 423.032143386 L 512 418.020709597 L 515 419.386986071 L 517 421.219924271 L 520 435.426982592 L 522 428.385168767 L 525 432.735076286 L 528 435.397684904 L 530 429.356710283 L 533 429.626525026 L 536 413.509196484 L 538 428.42174978 L 541 441.351213808 L 543 432.650505286 L 546 436.533304939 L 549 419.644006664 L 551 427.530460555 L 554 418.686987452 L 557 424.32385819 L 559 419.388565511 L 562 408.724249138 L 564 426.277203631 L 567 420.017025891 L 570 406.254420669 L 572 406.524235412 L 575 416.860737724 L 578 402.068591669 L 580 394.483380156 L 583 406.459444461 L 585 403.869506177 L 588 415.531190976 L 591 411.673176037 L 593 409.931646023 L 596 390.697142066 L 599 403.207235135 L 601 418.939346358 L 604 412.498036056 L 606 397.734442917 L 609 398.662015728 L 612 394.432366737 L 614 385.865351298 L 617 395.105540593 L 620 393.497257521"/>
			<path class="series-2-line" d="M 40 392.857721364 L 42 390.490704428 L 45 393.700428965 L 47 398.769067326 L 50 391.568874446 L 53 393.663250688 L 55 386.834840573 L 58 382.980692576 L 60 372.806237577 L 63 394.976883124 L 66 368.815769233 L 68 386.153238837 L 71 376.350566602 L 74 379.560291139 L 76 386.116060561 L 79 375.198040031 L 81 372.087457565 L 84 358.938740446 L 87 379.250472169 L 89 376.883455232 L 92 375.63178659 L 95 389.251428545 L 97 380.935887369 L 100 363.325777072 L 102 346.831015069 L 105 374.950184854 L 108 363.66038156 L 110 378.023589044 L 113 363.759523631 L 116 381.468775999 L 118 371.294321 L 121 375.991176596 L 123 379.572683898 L 126 377.577449726 L 129 369.261908551 L 131 383.625116036 L 134 370.104616152 L 137 374.429688984 L 139 363.511668454 L 142 370.43922064 L 144 383.68707983 L 147 370.166579946 L 150 365.56886642 L 152 369.150373722 L 155 369.014053375 L 158 374.826257266 L 160 376.920633508 L 163 366.746178509 L 165 349.879633741 L 168 356.807185927 L 171 371.170393411 L 173 370.290507534 L 176 349.334352352 L 179 359.979732187 L 181 357.984498016 L 184 358.219960434 L 186 349.904419258 L 189 377.280023515 L 192 364.503089161 L 194 355.81576522 L 197 353.820531049 L 200 362.606997059 L 202 357.637500769 L 205 363.821487425 L 207 348.070290952 L 210 357.228539727 L 213 344.823388138 L 215 342.084588437 L 218 347.153226798 L 221 347.388689216 L 223 340.188496335 L 226 354.55170382 L 228 330.249503754 L 231 323.792876403 L 234 335.553604533 L 236 346.198984368 L 239 331.934918954 L 242 329.196119253 L 244 332.40584379 L 247 347.140834039 L 249 325.812896092 L 252 316.010223858 L 255 305.092203328 L 257 325.775717816 L 260 298.871038395 L 263 291.29906275 L 265 294.880570052 L 268 298.462077354 L 270 304.274281245 L 273 294.099826246 L 276 288.01498166 L 278 301.634623614 L 281 301.126520502 L 284 287.977803383 L 286 292.302876215 L 289 281.384855686 L 291 298.350542524 L 294 301.560267061 L 297 289.898681002 L 299 304.261888486 L 302 297.805261136 L 305 324.437299862 L 307 297.160837677 L 310 322.305745343 L 312 265.286661965 L 315 268.868169267 L 318 300.333383937 L 320 304.286674004 L 323 262.882466752 L 326 274.271412117 L 328 292.352447251 L 331 289.985430314 L 333 289.105544437 L 336 284.136048146 L 339 301.101734985 L 341 287.953017866 L 344 275.547866277 L 347 278.757590814 L 349 283.082663645 L 352 298.561219425 L 354 286.5278506 L 357 297.5450132 L 360 291.83195138 L 362 294.298110387 L 365 310.520231696 L 368 296.627949047 L 370 303.927283998 L 373 324.610798486 L 375 317.03882284 L 378 323.222809497 L 381 306.728047494 L 383 333.36008622 L 386 314.634627627 L 389 300.370562214 L 391 314.733769698 L 394 322.404887414 L 396 297.730904583 L 399 315.068374186 L 402 314.560271074 L 404 309.590774783 L 407 298.300971489 L 410 306.34387197 L 412 309.553596507 L 415 326.519283346 L 417 305.563128164 L 420 317.695639058 L 423 302.31622535 L 425 308.128429241 L 428 305.38962954 L 431 310.830050667 L 433 311.065513084 L 436 331.377244807 L 438 329.010227871 L 441 348.206611299 L 444 333.57076312 L 446 349.049318899 L 449 334.413470721 L 452 336.879629728 L 454 316.667040076 L 457 347.760471981 L 459 337.214234216 L 462 308.822423736 L 465 354.043600708 L 467 351.304801006 L 470 320.310511172 L 473 345.083636073 L 475 345.319098491 L 478 333.657512432 L 480 339.097933558 L 483 355.320054867 L 486 354.44016899 L 488 347.23997611 L 491 352.680397236 L 494 358.120818363 L 496 358.728063546 L 499 362.681353612 L 501 375.185647272 L 504 394.010247935 L 507 390.527882704 L 509 384.071255354 L 512 380.588890122 L 515 397.182794196 L 517 369.906332011 L 520 384.269539495 L 522 393.056005506 L 525 393.663250688 L 528 396.50119246 L 530 394.134175524 L 533 393.254289647 L 536 382.336269117 L 538 402.64800084 L 541 398.793852844 L 543 390.850094434 L 546 391.829122381 L 549 399.872022862 L 551 385.236174684 L 554 399.599382168 L 557 402.43732394 L 559 387.057910232 L 562 395.472593477 L 564 395.33627313 L 567 398.174214902 L 570 396.922546261 L 572 396.042660384 L 575 390.701381328 L 578 390.565060981 L 580 397.120830402 L 583 382.484982223 L 585 392.758579294 L 588 398.19900042 L 591 388.76811095 L 593 397.182794196 L 596 394.07221173 L 599 397.653719032 L 601 391.568874446 L 604 393.663250688 L 606 389.065537162 L 609 387.07030299 L 612 392.138941352 L 614 406.873931601 L 617 398.558390426 L 620 386.153238837"/>
		</g>
		<text class="x-axis-label" x="40.0" y="540">
			0
		</text>
		<path class="x-notch" d="M 53.1221719457 525 L 53.1221719457 530"/>
		<text class="x-axis-label" x="66.2443438914" y="540">
			10
		</text>
		<path class="x-notch" d="M 79.3665158371 525 L 79.3665158371 530"/>
		<text class="x-axis-label" x="92.4886877828" y="540">
			20
		</text>
		<path class="x-notch" d="M 105.610859729 525 L 105.610859729 530"/>
		<text class="x-axis-label" x="118.733031674" y="540">
			30
		</text>
		<path class="x-notch" d="M 131.85520362 525 L 131.85520362 530"/>
		<text class="x-axis-label" x="144.977375566" y="540">
			40
		</text>
		<path class="x-notch" d="M 158.099547511 525 L 158.099547511 530"/>
		<text class="x-axis-label" x="171.221719457" y="540">
			50
		</text>
		<path class="x-notch" d="M 184.343891403 525 L 184.343891403 530"/>
		<text class="x-axis-label" x="197.466063348" y="540">
			60
		</text>
		<path class="x-notch" d="M 210.588235294 525 L 210.588235294 530"/>
		<text class="x-axis-label" x="223.71040724" y="540">
			70
		</text>
		<path class="x-notch" d="M 236.832579186 525 L 236.832579186 530"/>
		<text class="x-axis-label" x="249.954751131" y="540">
			80
		</text>
		<path class="x-notch" d="M 263.076923077 525 L 263.076923077 530"/>
		<text class="x-axis-label" x="276.199095023" y="540">
			90
		</text>
		<path class="x-notch" d="M 289.321266968 525 L 289.321266968 530"/>
		<text class="x-axis-label" x="302.443438914" y="540">
			100
		</text>
		<path class="x-notch" d="M 315.56561086 525 L 315.56561086 530"/>
		<text class="x-axis-label" x="328.687782805" y="540">
			110
		</text>
		<path class="x-notch" d="M 341.809954751 525 L 341.809954751 530"/>
		<text class="x-axis-label" x="354.932126697" y="540">
			120
		</text>
		<path class="x-notch" d="M 368.054298643 525 L 368.054298643 530"/>
		<text class="x-axis-label" x="381.176470588" y="540">
			130
		</text>
		<path class="x-notch" d="M 394.298642534 525 L 394.298642534 530"/>
		<text class="x-axis-label" x="407.42081448" y="540">
			140
		</text>
		<path class="x-notch" d="M 420.542986425 525 L 420.542986425 530"/>
		<text class="x-axis-label" x="433.665158371" y="540">
			150
		</text>
		<path class="x-notch" d="M 446.787330317 525 L 446.787330317 530"/>
		<text class="x-axis-label" x="459.909502262" y="540">
			160
		</text>
		<path class="x-notch" d="M 473.031674208 525 L 473.031674208 530"/>
		<text class="x-axis-label" x="486.153846154" y="540">
			170
		</text>
		<path class="x-notch" d="M 499.2760181 525 L 499.2760181 530"/>
		<text class="x-axis-label" x="512.398190045" y="540">
			180
		</text>
		<path class="x-notch" d="M 525.520361991 525 L 525.520361991 530"/>
		<text class="x-axis-label" x="538.642533937" y="540">
			190
		</text>
		<path class="x-notch" d="M 551.764705882 525 L 551.764705882 530"/>
		<text class="x-axis-label" x="564.886877828" y="540">
			200
		</text>
		<path class="x-notch" d="M 578.009049774 525 L 578.009049774 530"/>
		<text class="x-axis-label" x="591.131221719" y="540">
			210
		</text>
		<path class="x-notch" d="M 604.253393665 525 L 604.253393665 530"/>
		<text class="x-axis-label" x="617.375565611" y="540">
			220
		</text>
		<path class="x-notch" d="M 630.497737557 525 L 630.497737557 530"/>
	</g>
</svg>
