<?xml version="1.0" ?>
<svg height="600" version="1.1" width="800" xmlns="http://www.w3.org/2000/svg" xmlns:svg="http://www.w3.org/2000/svg">
	<style type="text/css">
		

.x-axis-path, .y-gridline, .x-notch { fill:none; stroke: #a7a9ac; stroke-width:1; }



.y-gridline { stroke-width: 1; }

.y-axis-path, .y-axis-path2, .x-notch-left, .x-notch-right { display: none;}



.x-axis-label, .data-point-label {font-size: 12px; font-weight:normal; font-family: sans-serif; fill: #58595b; text-anchor:middle;}

.y-axis-label {font-size: 12px; font-family: helvetica; fill: #a7a9ac; text-anchor:end;}



.series-1-line { fill: none; stroke: #10b80c; stroke-width:2; }



.series-2-line { fill: none; stroke: #e90f0a; stroke-width: 2;}

	</style>
	<rect fill="white" height="600" width="800" x="0" y="0"/>
	<g id="grid" transform="translate(70, 30)">
		<g class="x-axis" id="x_axis">
			<path class="x-axis-path" d="M 0 525 L 660 525"/>
			<path class="x-notch-left" d="M 0 525, L 0 535"/>
			<path class="x-notch-right" d="M 660 525, L 660 535"/>
		</g>
		<g class="y-axis" id="y_axis">
			<path class="y-axis-path" d="M 0 525 L 0 0"/>
			<path class="y-axis-path-2" d="M 660 525 L 660 0"/>
			<path class="y-gridline" d="M 0 525 L 660 525"/>
			<text class="y-axis-label" x="-5" y="525">
				-200
			</text>
			<path class="y-gridline" d="M 0 450 L 660 450"/>
			<text class="y-axis-label" x="-5" y="450">
				-100
			</text>
			<path class="y-gridline" d="M 0 375 L 660 375"/>
			<text class="y-axis-label" x="-5" y="375">
				 0
			</text>
			<path class="y-gridline" d="M 0 300 L 660 300"/>
			<text class="y-axis-label" x="-5" y="300">
				100
			</text>
			<path class="y-gridline" d="M 0 225 L 660 225"/>
			<text class="y-axis-label" x="-5" y="225">
				200
			</text>
			<path class="y-gridline" d="M 0 150 L 660 150"/>
			<text class="y-axis-label" x="-5" y="150">
				300
			</text>
			<path class="y-gridline" d="M 0 75 L 660 75"/>
			<text class="y-axis-label" x="-5" y="75">
				400
			</text>
			<path class="y-gridline" d="M 0 0 L 660 0"/>
			<text class="y-axis-label" x="-5" y="0">
				500
			</text>
		</g>
		<g>
			<path class="series-1-line" d="M 40 362.99208 L 43 386.218771899 L 47 407.868063797 L 51 322.979255696 L 54 393.550747595 L 58 378.123939494 L 62 361.984931392 L 65 360.615223291 L 69 394.74511519 L 73 348.605807089 L 76 331.832598987 L 80 366.116390886 L 84 348.785182785 L 88 416.068374684 L 91 354.025766582 L 95 372.867958481 L 99 353.45955038 L 102 369.012542278 L 106 307.758034177 L 110 343.042026076 L 113 358.729417975 L 117 281.764209873 L 121 291.375401772 L 124 297.524593671 L 128 267.63538557 L 132 287.611577468 L 136 220.664869367 L 139 229.083561266 L 143 239.136653165 L 147 253.882045063 L 150 163.493036962 L 154 224.892328861 L 158 242.368620759 L 161 240.806012658 L 165 263.186404557 L 169 194.470296456 L 172 200.811788354 L 176 220.807180253 L 180 176.321772152 L 184 167.663564051 L 187 194.100855949 L 191 195.365447848 L 195 152.687839747 L 198 130.490931646 L 202 143.256623544 L 206 138.289615443 L 209 72.1898073418 L 213 104.108099241 L 217 142.930291139 L 221 108.598983038 L 224 143.190574937 L 228 211.377966835 L 232 155.969858734 L 235 160.349950633 L 239 151.517742532 L 243 158.43673443 L 246 145.489126329 L 250 113.120118228 L 254 161.404310127 L 257 128.072902025 L 261 138.587093924 L 265 177.062785823 L 269 161.020377722 L 272 123.92006962 L 276 143.992261519 L 280 127.737753418 L 283 120.368045316 L 287 140.535937215 L 291 136.550529114 L 294 100.160921013 L 298 123.829512911 L 302 99.1717048101 L 305 23.0515967089 L 309 131.528388608 L 313 65.0622805063 L 317 134.808172405 L 320 100.592064304 L 324 73.1064562025 L 328 137.813548101 L 331 123.09804 L 335 120.690031899 L 339 152.242623797 L 342 186.949715696 L 346 152.503207595 L 350 164.844999494 L 354 162.532391392 L 357 234.374983291 L 361 173.77477519 L 365 191.193167089 L 368 196.130958987 L 372 231.395150886 L 376 201.064042785 L 379 192.329034684 L 383 201.151226582 L 387 248.876818481 L 390 232.12371038 L 394 206.656802278 L 398 182.651794177 L 402 235.051686076 L 405 218.796877975 L 409 239.060769873 L 413 222.864161772 L 416 241.839853671 L 420 182.08654557 L 424 210.524237468 L 427 242.384629367 L 431 261.516021266 L 435 149.817713165 L 438 258.486205063 L 442 150.906896962 L 446 320.632588861 L 450 333.878880759 L 453 327.739472658 L 457 365.024464557 L 461 291.173856456 L 464 325.093148354 L 468 382.780540253 L 472 388.756932152 L 475 362.636624051 L 479 337.344015949 L 483 356.608607848 L 487 353.046799747 L 490 352.042491646 L 494 374.364383544 L 498 387.551575443 L 501 312.277467342 L 505 325.485659241 L 509 344.692651139 L 512 358.438443038 L 516 339.702634937 L 520 376.410126835 L 523 326.482718734 L 527 366.093310633 L 531 323.972802532 L 535 320.60299443 L 538 320.386486329 L 542 354.363078228 L 546 360.743270127 L 549 364.085062025 L 553 350.927753924 L 557 349.999645823 L 560 379.648737722 L 564 386.77952962 L 568 364.909621519 L 571 376.309413418 L 575 379.881605316 L 579 368.261497215 L 583 362.564889114 L 586 384.848981013 L 590 375.555972911 L 594 370.97446481 L 597 377.873656709 L 601 386.696148608 L 605 358.672640506 L 608 371.918032405 L 612 377.701524304 L 616 381.947516203 L 620 386.846908101"/>
			<path class="series-2-line" d="M 40 352.8 L 43 391.968987342 L 47 384.637974684 L 51 412.556962025 L 54 319.725949367 L 58 392.644936709 L 62 401.063924051 L 65 416.232911392 L 69 392.401898734 L 73 371.570886076 L 76 420.489873418 L 80 401.908860759 L 84 420.827848101 L 88 343.746835443 L 91 376.165822785 L 95 426.584810127 L 99 418.503797468 L 102 396.92278481 L 106 394.091772152 L 110 395.010759494 L 113 352.429746835 L 117 431.348734177 L 121 459.267721519 L 124 442.186708861 L 128 431.105696203 L 132 421.524683544 L 136 429.193670886 L 139 438.362658228 L 143 426.53164557 L 147 413.950632911 L 150 422.369620253 L 154 415.038607595 L 158 415.207594937 L 161 372.626582278 L 165 397.54556962 L 169 388.714556962 L 172 370.883544304 L 176 358.302531646 L 180 342.721518987 L 184 354.140506329 L 187 301.809493671 L 191 286.228481013 L 195 281.147468354 L 198 269.316455696 L 202 360.985443038 L 206 264.40443038 L 209 344.823417722 L 213 314.992405063 L 217 290.411392405 L 221 299.580379747 L 224 291.499367089 L 228 248.91835443 L 232 270.087341772 L 235 265.756329114 L 239 187.175316456 L 243 225.594303797 L 246 145.513291139 L 250 228.932278481 L 254 249.351265823 L 257 248.770253165 L 261 194.189240506 L 265 135.858227848 L 269 187.77721519 L 272 219.446202532 L 276 194.865189873 L 280 192.034177215 L 283 207.203164557 L 287 138.372151899 L 291 122.791139241 L 294 72.7101265823 L 298 72.1291139241 L 302 122.548101266 L 305 98.7170886076 L 309 147.636075949 L 313 138.805063291 L 317 174.974050633 L 320 166.143037975 L 324 131.062025316 L 328 134.231012658 L 331 183.9 L 335 214.818987342 L 339 154.237974684 L 342 157.406962025 L 346 184.575949367 L 350 195.994936709 L 354 153.413924051 L 357 242.832911392 L 361 284.251898734 L 365 264.170886076 L 368 260.589873418 L 372 206.008860759 L 376 234.677848101 L 379 258.096835443 L 383 233.515822785 L 387 165.434810127 L 390 299.103797468 L 394 212.27278481 L 398 160.691772152 L 402 211.860759494 L 405 179.779746835 L 409 95.9487341772 L 413 113.367721519 L 416 55.0367088608 L 420 169.205696203 L 424 155.874683544 L 427 105.793670886 L 431 228.212658228 L 435 79.8816455696 L 438 69.5506329114 L 442 273.719620253 L 446 215.388607595 L 450 290.557594937 L 453 259.976582278 L 457 358.39556962 L 461 360.814556962 L 464 428.483544304 L 468 385.902531646 L 472 395.821518987 L 475 352.490506329 L 479 384.909493671 L 483 369.328481013 L 487 404.747468354 L 490 421.416455696 L 494 367.585443038 L 498 305.50443038 L 501 266.673417722 L 505 377.092405063 L 509 370.511392405 L 512 396.930379747 L 516 342.349367089 L 520 384.51835443 L 523 398.937341772 L 527 368.356329114 L 531 305.525316456 L 535 310.944303797 L 538 263.113291139 L 542 292.532278481 L 546 297.951265823 L 549 309.370253165 L 553 408.539240506 L 557 354.708227848 L 560 327.87721519 L 564 391.796202532 L 568 387.465189873 L 571 428.884177215 L 575 404.303164557 L 579 380.472151899 L 583 397.891139241 L 586 408.560126582 L 590 401.979113924 L 594 391.648101266 L 597 374.567088608 L 601 379.236075949 L 605 398.905063291 L 608 386.324050633 L 612 338.493037975 L 616 384.412025316 L 620 386.831012658"/>
		</g>
		<text class="x-axis-label" x="40.0" y="540">
			0
		</text>
		<path class="x-notch" d="M 58.4713375796 525 L 58.4713375796 530"/>
		<text class="x-axis-label" x="76.9426751592" y="540">
			10
		</text>
		<path class="x-notch" d="M 95.4140127389 525 L 95.4140127389 530"/>
		<text class="x-axis-label" x="113.885350318" y="540">
			20
		</text>
		<path class="x-notch" d="M 132.356687898 525 L 132.356687898 530"/>
		<text class="x-axis-label" x="150.828025478" y="540">
			30
		</text>
		<path class="x-notch" d="M 169.299363057 525 L 169.299363057 530"/>
		<text class="x-axis-label" x="187.770700637" y="540">
			40
		</text>
		<path class="x-notch" d="M 206.242038217 525 L 206.242038217 530"/>
		<text class="x-axis-label" x="224.713375796" y="540">
			50
		</text>
		<path class="x-notch" d="M 243.184713376 525 L 243.184713376 530"/>
		<text class="x-axis-label" x="261.656050955" y="540">
			60
		</text>
		<path class="x-notch" d="M 280.127388535 525 L 280.127388535 530"/>
		<text class="x-axis-label" x="298.598726115" y="540">
			70
		</text>
		<path class="x-notch" d="M 317.070063694 525 L 317.070063694 530"/>
		<text class="x-axis-label" x="335.541401274" y="540">
			80
		</text>
		<path class="x-notch" d="M 354.012738854 525 L 354.012738854 530"/>
		<text class="x-axis-label" x="372.484076433" y="540">
			90
		</text>
		<path class="x-notch" d="M 390.955414013 525 L 390.955414013 530"/>
		<text class="x-axis-label" x="409.426751592" y="540">
			100
		</text>
		<path class="x-notch" d="M 427.898089172 525 L 427.898089172 530"/>
		<text class="x-axis-label" x="446.369426752" y="540">
			110
		</text>
		<path class="x-notch" d="M 464.840764331 525 L 464.840764331 530"/>
		<text class="x-axis-label" x="483.312101911" y="540">
			120
		</text>
		<path class="x-notch" d="M 501.78343949 525 L 501.78343949 530"/>
		<text class="x-axis-label" x="520.25477707" y="540">
			130
		</text>
		<path class="x-notch" d="M 538.72611465 525 L 538.72611465 530"/>
		<text class="x-axis-label" x="557.197452229" y="540">
			140
		</text>
		<path class="x-notch" d="M 575.668789809 525 L 575.668789809 530"/>
		<text class="x-axis-label" x="594.140127389" y="540">
			150
		</text>
		<path class="x-notch" d="M 612.611464968 525 L 612.611464968 530"/>
	</g>
</svg>
