<?xml version="1.0" ?>
<svg height="600" version="1.1" width="800" xmlns="http://www.w3.org/2000/svg" xmlns:svg="http://www.w3.org/2000/svg">
	<style type="text/css">
		

.x-axis-path, .y-gridline, .x-notch { fill:none; stroke: #a7a9ac; stroke-width:1; }



.y-gridline { stroke-width: 1; }

.y-axis-path, .y-axis-path2, .x-notch-left, .x-notch-right { display: none;}



.x-axis-label, .data-point-label {font-size: 12px; font-weight:normal; font-family: sans-serif; fill: #58595b; text-anchor:middle;}

.y-axis-label {font-size: 12px; font-family: helvetica; fill: #a7a9ac; text-anchor:end;}



.series-1-line { fill: none; stroke: #10b80c; stroke-width:2; }



.series-2-line { fill: none; stroke: #e90f0a; stroke-width: 2;}

	</style>
	<rect fill="white" height="600" width="800" x="0" y="0"/>
	<g id="grid" transform="translate(70, 30)">
		<g class="x-axis" id="x_axis">
			<path class="x-axis-path" d="M 0 525 L 660 525"/>
			<path class="x-notch-left" d="M 0 525, L 0 535"/>
			<path class="x-notch-right" d="M 660 525, L 660 535"/>
		</g>
		<g class="y-axis" id="y_axis">
			<path class="y-axis-path" d="M 0 525 L 0 0"/>
			<path class="y-axis-path-2" d="M 660 525 L 660 0"/>
			<path class="y-gridline" d="M 0 525 L 660 525"/>
			<text class="y-axis-label" x="-5" y="525">
				-250
			</text>
			<path class="y-gridline" d="M 0 420 L 660 420"/>
			<text class="y-axis-label" x="-5" y="420">
				 0
			</text>
			<path class="y-gridline" d="M 0 315 L 660 315"/>
			<text class="y-axis-label" x="-5" y="315">
				250
			</text>
			<path class="y-gridline" d="M 0 210 L 660 210"/>
			<text class="y-axis-label" x="-5" y="210">
				500
			</text>
			<path class="y-gridline" d="M 0 105 L 660 105"/>
			<text class="y-axis-label" x="-5" y="105">
				750
			</text>
			<path class="y-gridline" d="M 0 0 L 660 0"/>
			<text class="y-axis-label" x="-5" y="0">
				1000
			</text>
		</g>
		<g>
			<path class="series-1-line" d="M 40 440.634296782 L 45 424.830540311 L 50 417.514578938 L 56 425.758704166 L 61 391.43551491 L 67 442.507697643 L 72 421.436525639 L 78 406.192001973 L 83 444.607404864 L 89 450.841660166 L 94 430.645341973 L 100 459.828467465 L 105 427.34877202 L 111 447.318493494 L 116 443.036500751 L 122 424.757427736 L 127 461.664702283 L 133 458.872254862 L 138 458.23776082 L 143 425.627403504 L 149 425.83088759 L 154 436.662408211 L 160 407.308725425 L 165 369.727990561 L 171 403.490379069 L 176 431.091624851 L 182 390.570417185 L 187 391.797709615 L 193 437.974717965 L 198 407.876262517 L 204 382.338777424 L 209 351.738290035 L 215 348.05211542 L 220 340.195794624 L 226 301.814828394 L 231 323.981411448 L 236 333.081226747 L 242 299.204901088 L 247 307.132824589 L 253 294.26983128 L 258 312.13705808 L 264 311.40935857 L 269 250.414016539 L 275 263.515859747 L 280 245.70223335 L 286 184.390689593 L 291 197.343868628 L 297 224.181758727 L 302 189.076630767 L 308 198.995260454 L 313 212.115977043 L 319 184.363628068 L 324 175.967818926 L 330 168.0 L 335 211.86951972 L 340 189.680753184 L 346 216.110107168 L 351 178.733204822 L 357 236.67442726 L 362 210.485084613 L 368 237.434472842 L 373 259.099314313 L 379 239.460777127 L 384 271.362540601 L 390 178.63117242 L 395 247.609838585 L 401 265.476775025 L 406 326.619794006 L 412 327.604926436 L 417 376.201211906 L 423 314.144314768 L 428 388.447597331 L 433 347.218492687 L 439 453.013608883 L 444 437.601257304 L 450 407.168017108 L 455 420.065447079 L 461 448.63475214 L 466 455.427078808 L 472 417.139318046 L 477 449.896771592 L 483 472.193435797 L 488 436.809272153 L 494 474.629147276 L 499 432.190984792 L 505 424.782108311 L 510 425.004175419 L 516 441.437605961 L 521 434.437555955 L 526 419.657898187 L 532 408.87997797 L 537 414.12788133 L 543 448.969246528 L 548 427.340293517 L 554 427.785647243 L 559 435.881108298 L 565 419.760859741 L 570 389.960603718 L 576 427.445984452 L 581 435.20578968 L 587 431.593656793 L 592 386.195857765 L 598 442.125468119 L 603 384.052596588 L 609 421.090823366 L 614 421.071020833 L 620 431.399638433"/>
			<path class="series-2-line" d="M 40 434.082446027 L 45 411.161667461 L 50 423.084054323 L 56 413.955362072 L 61 420.796453976 L 67 411.667761725 L 72 389.472882439 L 78 449.304621764 L 83 432.916936716 L 89 454.276014215 L 94 437.162429887 L 100 388.83517653 L 105 476.251088485 L 111 421.390741611 L 116 441.29802055 L 122 436.524723978 L 127 372.227686466 L 133 442.947914988 L 138 403.331452988 L 143 454.452400956 L 149 454.034500062 L 154 465.956886924 L 160 461.909489631 L 165 438.988711066 L 171 440.748508011 L 176 412.746434487 L 182 423.942922069 L 187 433.687611092 L 193 423.833019561 L 198 394.379147478 L 204 446.225994726 L 209 466.859172945 L 215 507.091631717 L 220 461.667975479 L 226 450.361585389 L 231 449.217785215 L 236 391.453841221 L 242 413.538818 L 247 425.461204862 L 253 396.733232058 L 258 415.188712437 L 264 361.780164122 L 269 367.895356746 L 275 336.989686103 L 280 344.556677286 L 286 371.722949023 L 291 364.046055332 L 297 313.541104136 L 302 300.782915486 L 308 228.500985897 L 313 223.001790045 L 319 280.655831531 L 324 262.816347924 L 330 234.8142744 L 335 273.594934612 L 340 170.825235274 L 346 212.509492606 L 351 101.029001911 L 357 181.185921069 L 362 193.108307931 L 368 125.181774021 L 373 202.43509606 L 379 126.523670072 L 384 192.162603635 L 390 81.4080122202 L 395 166.646226337 L 401 156.791634806 L 406 275.421215791 L 412 266.29252354 L 417 218.691169463 L 423 163.830822588 L 428 381.182705618 L 433 332.855452261 L 439 450.033234686 L 444 479.377204262 L 450 473.87800841 L 455 474.911906076 L 461 465.783213825 L 466 456.654521574 L 472 459.1402178 L 477 476.14389962 L 483 454.674919613 L 488 457.160615839 L 494 448.757822868 L 499 475.924094604 L 505 502.364467061 L 510 499.042969048 L 516 457.974708489 L 521 420.535944328 L 526 436.087827589 L 532 450.18791229 L 537 483.887277544 L 543 430.478729229 L 548 467.081691602 L 554 457.227100072 L 559 471.327184773 L 565 441.14741341 L 570 450.166203153 L 576 494.028158323 L 581 447.152703526 L 587 447.460701912 L 592 455.027693095 L 598 395.811950542 L 603 427.333617957 L 609 427.641616343 L 614 433.756808967 L 620 410.836030401"/>
		</g>
		<text class="x-axis-label" x="40.0" y="540">
			0
		</text>
		<path class="x-notch" d="M 67.358490566 525 L 67.358490566 530"/>
		<text class="x-axis-label" x="94.7169811321" y="540">
			10
		</text>
		<path class="x-notch" d="M 122.075471698 525 L 122.075471698 530"/>
		<text class="x-axis-label" x="149.433962264" y="540">
			20
		</text>
		<path class="x-notch" d="M 176.79245283 525 L 176.79245283 530"/>
		<text class="x-axis-label" x="204.150943396" y="540">
			30
		</text>
		<path class="x-notch" d="M 231.509433962 525 L 231.509433962 530"/>
		<text class="x-axis-label" x="258.867924528" y="540">
			40
		</text>
		<path class="x-notch" d="M 286.226415094 525 L 286.226415094 530"/>
		<text class="x-axis-label" x="313.58490566" y="540">
			50
		</text>
		<path class="x-notch" d="M 340.943396226 525 L 340.943396226 530"/>
		<text class="x-axis-label" x="368.301886792" y="540">
			60
		</text>
		<path class="x-notch" d="M 395.660377358 525 L 395.660377358 530"/>
		<text class="x-axis-label" x="423.018867925" y="540">
			70
		</text>
		<path class="x-notch" d="M 450.377358491 525 L 450.377358491 530"/>
		<text class="x-axis-label" x="477.735849057" y="540">
			80
		</text>
		<path class="x-notch" d="M 505.094339623 525 L 505.094339623 530"/>
		<text class="x-axis-label" x="532.452830189" y="540">
			90
		</text>
		<path class="x-notch" d="M 559.811320755 525 L 559.811320755 530"/>
		<text class="x-axis-label" x="587.169811321" y="540">
			100
		</text>
		<path class="x-notch" d="M 614.528301887 525 L 614.528301887 530"/>
	</g>
</svg>
