<?xml version="1.0" ?>
<svg height="600" version="1.1" width="800" xmlns="http://www.w3.org/2000/svg" xmlns:svg="http://www.w3.org/2000/svg">
	<style type="text/css">
		

.x-axis-path, .y-gridline, .x-notch { fill:none; stroke: #a7a9ac; stroke-width:1; }



.y-gridline { stroke-width: 1; }

.y-axis-path, .y-axis-path2, .x-notch-left, .x-notch-right { display: none;}



.x-axis-label, .data-point-label {font-size: 12px; font-weight:normal; font-family: sans-serif; fill: #58595b; text-anchor:middle;}

.y-axis-label {font-size: 12px; font-family: helvetica; fill: #a7a9ac; text-anchor:end;}



.series-1-line { fill: none; stroke: #10b80c; stroke-width:2; }



.series-2-line { fill: none; stroke: #e90f0a; stroke-width: 2;}

	</style>
	<rect fill="white" height="600" width="800" x="0" y="0"/>
	<g id="grid" transform="translate(70, 30)">
		<g class="x-axis" id="x_axis">
			<path class="x-axis-path" d="M 0 525 L 660 525"/>
			<path class="x-notch-left" d="M 0 525, L 0 535"/>
			<path class="x-notch-right" d="M 660 525, L 660 535"/>
		</g>
		<g class="y-axis" id="y_axis">
			<path class="y-axis-path" d="M 0 525 L 0 0"/>
			<path class="y-axis-path-2" d="M 660 525 L 660 0"/>
			<path class="y-gridline" d="M 0 525 L 660 525"/>
			<text class="y-axis-label" x="-5" y="525">
				-200
			</text>
			<path class="y-gridline" d="M 0 394 L 660 394"/>
			<text class="y-axis-label" x="-5" y="394">
				 0
			</text>
			<path class="y-gridline" d="M 0 263 L 660 263"/>
			<text class="y-axis-label" x="-5" y="263">
				200
			</text>
			<path class="y-gridline" d="M 0 132 L 660 132"/>
			<text class="y-axis-label" x="-5" y="132">
				400
			</text>
			<path class="y-gridline" d="M 0 1 L 660 1"/>
			<text class="y-axis-label" x="-5" y="1">
				600
			</text>
		</g>
		<g>
			<path class="series-1-line" d="M 40 410.637636596 L 46 409.499628442 L 53 388.921622422 L 60 387.580135833 L 66 370.270471677 L 73 378.782074533 L 80 393.659087902 L 86 390.910086816 L 93 400.156798214 L 100 383.457325384 L 106 388.090395049 L 113 395.600952319 L 120 392.179545277 L 126 378.920663442 L 133 390.982403837 L 140 408.50244105 L 146 397.886827039 L 153 371.897368155 L 160 388.947989891 L 166 381.350883311 L 173 372.533638058 L 180 379.716043655 L 186 368.850107252 L 193 343.204658672 L 200 303.389645262 L 206 248.091484415 L 213 269.88090908 L 220 246.174849084 L 226 242.159109347 L 233 192.006220341 L 240 147.139623003 L 246 143.858747829 L 253 98.6796134703 L 260 95.5082848404 L 266 84.0009278075 L 273 79.0624597237 L 280 116.788832651 L 286 68.8100399691 L 293 38.4101738083 L 300 36.8652087846 L 306 54.0258650216 L 313 58.470826925 L 320 13.0098968916 L 326 34.783706904 L 333 40.7462178068 L 340 38.9043304145 L 346 14.0566929646 L 353 0.0 L 360 37.0851962762 L 366 38.9498369226 L 373 41.5495861116 L 380 16.9051831177 L 386 53.005192439 L 393 1.66388202203 L 400 107.986153495 L 406 141.270889841 L 413 116.501325652 L 420 95.5322213922 L 426 22.1854745669 L 433 119.811604723 L 440 130.059605687 L 446 104.178717431 L 453 169.744795131 L 460 90.1111990097 L 466 178.525660352 L 473 296.046077159 L 480 267.679287495 L 486 393.645523228 L 493 405.37911195 L 500 396.280315001 L 506 408.967861374 L 513 413.757321539 L 520 413.057011601 L 526 384.174206482 L 533 402.132185891 L 540 401.666583693 L 546 399.402368757 L 553 394.11989037 L 560 393.372736476 L 566 404.418060611 L 573 405.391202215 L 580 413.02692068 L 586 407.103021663 L 593 388.167237879 L 600 424.064012745 L 606 387.783522221 L 613 380.890050901 L 620 390.605933798"/>
			<path class="series-2-line" d="M 40 385.45471608 L 46 391.558348282 L 53 409.250980079 L 60 399.495981258 L 66 383.031561619 L 73 382.425773004 L 80 387.91945786 L 86 383.653985162 L 93 387.317827976 L 100 394.641354873 L 106 404.404671158 L 113 393.429777643 L 120 398.923462498 L 126 392.82814776 L 133 385.512938327 L 140 383.07730767 L 146 392.840623955 L 153 398.334308811 L 160 373.94057366 L 166 388.583468722 L 173 379.438417248 L 180 395.91115435 L 186 397.135207776 L 193 396.529419161 L 200 394.093788505 L 206 404.467052137 L 213 378.243474945 L 220 384.347107147 L 226 387.401002615 L 233 380.085793182 L 240 380.699899261 L 246 364.235479622 L 253 389.857426931 L 260 380.102428109 L 266 362.418113777 L 273 366.691903938 L 280 352.05732634 L 286 362.430589972 L 293 366.094432787 L 300 340.480802942 L 306 370.37238168 L 313 338.049331017 L 320 336.223647708 L 326 312.439859905 L 333 328.912597007 L 340 325.867019004 L 346 343.5596508 L 353 319.16591565 L 360 309.410916829 L 366 299.045970661 L 373 292.950655922 L 380 302.713972207 L 386 303.938025633 L 393 315.531183959 L 400 328.344236979 L 406 316.759396117 L 413 322.253080972 L 420 329.576607869 L 426 300.913241289 L 433 266.760348585 L 440 304.581242835 L 446 221.632562366 L 453 312.518875811 L 460 313.13298189 L 466 288.739246739 L 473 314.971141395 L 480 310.705668697 L 486 375.364246218 L 493 395.496667403 L 500 382.691931847 L 506 396.724879561 L 513 405.878248499 L 520 391.243670901 L 526 396.12740841 L 533 396.741514489 L 540 393.085989138 L 546 384.550885011 L 553 394.924148643 L 560 387.60893921 L 566 396.152360801 L 573 382.12773055 L 580 375.422468465 L 586 366.887364338 L 593 390.069522258 L 600 399.222891196 L 606 392.51762911 L 613 392.521787842 L 620 394.355788615"/>
		</g>
		<text class="x-axis-label" x="40.0" y="540">
			0
		</text>
		<path class="x-notch" d="M 73.3333333333 525 L 73.3333333333 530"/>
		<text class="x-axis-label" x="106.666666667" y="540">
			10
		</text>
		<path class="x-notch" d="M 140.0 525 L 140.0 530"/>
		<text class="x-axis-label" x="173.333333333" y="540">
			20
		</text>
		<path class="x-notch" d="M 206.666666667 525 L 206.666666667 530"/>
		<text class="x-axis-label" x="240.0" y="540">
			30
		</text>
		<path class="x-notch" d="M 273.333333333 525 L 273.333333333 530"/>
		<text class="x-axis-label" x="306.666666667" y="540">
			40
		</text>
		<path class="x-notch" d="M 340.0 525 L 340.0 530"/>
		<text class="x-axis-label" x="373.333333333" y="540">
			50
		</text>
		<path class="x-notch" d="M 406.666666667 525 L 406.666666667 530"/>
		<text class="x-axis-label" x="440.0" y="540">
			60
		</text>
		<path class="x-notch" d="M 473.333333333 525 L 473.333333333 530"/>
		<text class="x-axis-label" x="506.666666667" y="540">
			70
		</text>
		<path class="x-notch" d="M 540.0 525 L 540.0 530"/>
		<text class="x-axis-label" x="573.333333333" y="540">
			80
		</text>
		<path class="x-notch" d="M 606.666666667 525 L 606.666666667 530"/>
	</g>
</svg>
