<?xml version="1.0" ?>
<svg height="600" version="1.1" width="800" xmlns="http://www.w3.org/2000/svg" xmlns:svg="http://www.w3.org/2000/svg">
	<style type="text/css">
		

.x-axis-path, .y-gridline, .x-notch { fill:none; stroke: #a7a9ac; stroke-width:1; }



.y-gridline { stroke-width: 1; }

.y-axis-path, .y-axis-path2, .x-notch-left, .x-notch-right { display: none;}



.x-axis-label, .data-point-label {font-size: 12px; font-weight:normal; font-family: sans-serif; fill: #58595b; text-anchor:middle;}

.y-axis-label {font-size: 12px; font-family: helvetica; fill: #a7a9ac; text-anchor:end;}



.series-1-line { fill: none; stroke: #10b80c; stroke-width:2; }



.series-2-line { fill: none; stroke: #e90f0a; stroke-width: 2;}

	</style>
	<rect fill="white" height="600" width="800" x="0" y="0"/>
	<g id="grid" transform="translate(70, 30)">
		<g class="x-axis" id="x_axis">
			<path class="x-axis-path" d="M 0 525 L 660 525"/>
			<path class="x-notch-left" d="M 0 525, L 0 535"/>
			<path class="x-notch-right" d="M 660 525, L 660 535"/>
		</g>
		<g class="y-axis" id="y_axis">
			<path class="y-axis-path" d="M 0 525 L 0 0"/>
			<path class="y-axis-path-2" d="M 660 525 L 660 0"/>
			<path class="y-gridline" d="M 0 525 L 660 525"/>
			<text class="y-axis-label" x="-5" y="525">
				-200
			</text>
			<path class="y-gridline" d="M 0 420 L 660 420"/>
			<text class="y-axis-label" x="-5" y="420">
				 0
			</text>
			<path class="y-gridline" d="M 0 315 L 660 315"/>
			<text class="y-axis-label" x="-5" y="315">
				200
			</text>
			<path class="y-gridline" d="M 0 210 L 660 210"/>
			<text class="y-axis-label" x="-5" y="210">
				400
			</text>
			<path class="y-gridline" d="M 0 105 L 660 105"/>
			<text class="y-axis-label" x="-5" y="105">
				600
			</text>
			<path class="y-gridline" d="M 0 0 L 660 0"/>
			<text class="y-axis-label" x="-5" y="0">
				800
			</text>
		</g>
		<g>
			<path class="series-1-line" d="M 40 437.613078 L 45 410.182592842 L 50 434.848277684 L 55 402.975452526 L 60 411.595247368 L 65 414.184052211 L 70 432.266867053 L 75 407.690281895 L 81 436.757986737 L 86 420.917821579 L 91 394.577866421 L 96 411.112771263 L 101 451.689946105 L 106 429.347970947 L 111 405.982875789 L 116 401.894730632 L 122 409.087155474 L 127 414.960570316 L 132 367.162815158 L 137 413.44779 L 142 379.407764842 L 147 373.973519684 L 152 387.654524526 L 158 402.102869368 L 163 417.251354211 L 168 406.217039053 L 173 379.648183895 L 178 374.456068737 L 183 418.439233579 L 188 389.070238421 L 193 375.384043263 L 199 317.503558105 L 204 293.263602947 L 209 309.313827789 L 214 267.250542632 L 219 267.914487474 L 224 243.633792316 L 229 238.684227158 L 235 179.928672 L 240 176.944496842 L 245 114.513941684 L 250 173.937356526 L 255 130.878041368 L 260 180.622556211 L 265 106.615121053 L 270 116.755735895 L 276 102.908050737 L 281 98.6987355789 L 286 148.052860421 L 291 109.247305263 L 296 145.907140105 L 301 80.5151649474 L 306 52.7885797895 L 312 111.484974632 L 317 102.900729474 L 322 141.283614316 L 327 97.9281991579 L 332 92.022924 L 337 151.661588842 L 342 168.304223684 L 347 141.344978526 L 353 159.468323368 L 358 164.426138211 L 363 110.166893053 L 368 166.197967895 L 373 179.125072737 L 378 166.085047579 L 383 228.362362421 L 389 194.241487263 L 394 227.576602105 L 399 191.948136947 L 404 226.898571789 L 409 272.860356632 L 414 337.426251474 L 419 362.926476316 L 424 416.211381158 L 430 403.696146 L 435 405.100550842 L 440 362.216165684 L 445 373.487630526 L 450 366.963065368 L 455 382.636340211 L 460 385.305785053 L 466 402.109699895 L 471 393.646834737 L 476 409.508689579 L 481 403.536004421 L 486 430.799599263 L 491 413.802124105 L 496 404.908128947 L 501 403.646793789 L 507 426.104958632 L 512 430.362843474 L 517 421.792038316 L 522 431.151873158 L 527 417.667698 L 532 422.760332842 L 537 419.533817684 L 543 439.622342526 L 548 422.072777368 L 553 425.832542211 L 558 415.148297053 L 563 393.075331895 L 568 422.412256737 L 573 410.812621579 L 578 417.345646421 L 584 415.209451263 L 589 414.190666105 L 594 422.258160947 L 599 420.660405789 L 604 425.941410632 L 609 404.339895474 L 614 430.324590316 L 620 422.911725158"/>
			<path class="series-2-line" d="M 40 420.105 L 45 417.538947368 L 50 416.547894737 L 55 410.831842105 L 60 435.565789474 L 65 438.774736842 L 70 420.458684211 L 75 423.142631579 L 81 431.601578947 L 86 422.735526316 L 91 434.344473684 L 96 432.303421053 L 101 426.587368421 L 106 428.746315789 L 111 426.705263158 L 116 427.289210526 L 122 408.448157895 L 127 411.132105263 L 132 412.241052632 L 137 417.025 L 142 421.808947368 L 147 427.642894737 L 152 420.351842105 L 158 416.210789474 L 163 425.719736842 L 168 424.728684211 L 173 431.087631579 L 178 419.596578947 L 183 435.405526316 L 188 428.114473684 L 193 431.323421053 L 199 428.757368421 L 204 440.366315789 L 209 432.025263158 L 214 418.959210526 L 219 435.818157895 L 224 412.777105263 L 229 424.911052632 L 235 415.52 L 240 428.178947368 L 245 418.787894737 L 250 421.471842105 L 255 420.480789474 L 260 417.914736842 L 265 412.723684211 L 270 404.907631579 L 276 412.841578947 L 281 411.850526316 L 286 408.759473684 L 291 399.368421053 L 296 390.502368421 L 301 392.661315789 L 306 395.345263158 L 312 388.579210526 L 317 394.413157895 L 322 382.922105263 L 327 387.181052632 L 332 405.09 L 337 394.648947368 L 342 396.282894737 L 347 402.116842105 L 353 397.975789474 L 358 379.659736842 L 363 385.493684211 L 368 385.027631579 L 373 372.486578947 L 378 377.270526316 L 383 385.204473684 L 389 382.113421053 L 394 400.547368421 L 399 407.431315789 L 404 419.565263158 L 409 413.324210526 L 414 432.808157895 L 419 424.467105263 L 424 422.426052632 L 430 406.735 L 435 430.943947368 L 440 423.127894737 L 445 423.186842105 L 450 435.320789474 L 455 424.354736842 L 460 414.963684211 L 466 391.397631579 L 471 419.281578947 L 476 419.865526316 L 481 427.799473684 L 486 410.533421053 L 491 438.942368421 L 496 431.651315789 L 501 421.210263158 L 507 437.019210526 L 512 425.528157895 L 517 429.262105263 L 522 420.396052632 L 527 433.055 L 532 434.688947368 L 537 444.197894737 L 543 420.106842105 L 548 432.240789474 L 553 416.549736842 L 558 422.383684211 L 563 403.017631579 L 568 410.426578947 L 573 415.735526316 L 578 417.894473684 L 584 421.103421053 L 589 434.287368421 L 594 422.271315789 L 599 423.380263158 L 604 416.089210526 L 609 425.598157895 L 614 403.082105263 L 620 430.966052632"/>
		</g>
		<text class="x-axis-label" x="40.0" y="540">
			0
		</text>
		<path class="x-notch" d="M 65.6637168142 525 L 65.6637168142 530"/>
		<text class="x-axis-label" x="91.3274336283" y="540">
			10
		</text>
		<path class="x-notch" d="M 116.991150442 525 L 116.991150442 530"/>
		<text class="x-axis-label" x="142.654867257" y="540">
			20
		</text>
		<path class="x-notch" d="M 168.318584071 525 L 168.318584071 530"/>
		<text class="x-axis-label" x="193.982300885" y="540">
			30
		</text>
		<path class="x-notch" d="M 219.646017699 525 L 219.646017699 530"/>
		<text class="x-axis-label" x="245.309734513" y="540">
			40
		</text>
		<path class="x-notch" d="M 270.973451327 525 L 270.973451327 530"/>
		<text class="x-axis-label" x="296.637168142" y="540">
			50
		</text>
		<path class="x-notch" d="M 322.300884956 525 L 322.300884956 530"/>
		<text class="x-axis-label" x="347.96460177" y="540">
			60
		</text>
		<path class="x-notch" d="M 373.628318584 525 L 373.628318584 530"/>
		<text class="x-axis-label" x="399.292035398" y="540">
			70
		</text>
		<path class="x-notch" d="M 424.955752212 525 L 424.955752212 530"/>
		<text class="x-axis-label" x="450.619469027" y="540">
			80
		</text>
		<path class="x-notch" d="M 476.283185841 525 L 476.283185841 530"/>
		<text class="x-axis-label" x="501.946902655" y="540">
			90
		</text>
		<path class="x-notch" d="M 527.610619469 525 L 527.610619469 530"/>
		<text class="x-axis-label" x="553.274336283" y="540">
			100
		</text>
		<path class="x-notch" d="M 578.938053097 525 L 578.938053097 530"/>
		<text class="x-axis-label" x="604.601769912" y="540">
			110
		</text>
		<path class="x-notch" d="M 630.265486726 525 L 630.265486726 530"/>
	</g>
</svg>
