<?xml version="1.0" ?>
<svg height="600" version="1.1" width="800" xmlns="http://www.w3.org/2000/svg" xmlns:svg="http://www.w3.org/2000/svg">
	<style type="text/css">
		

.x-axis-path, .y-gridline, .x-notch { fill:none; stroke: #a7a9ac; stroke-width:1; }



.y-gridline { stroke-width: 1; }

.y-axis-path, .y-axis-path2, .x-notch-left, .x-notch-right { display: none;}



.x-axis-label, .data-point-label {font-size: 12px; font-weight:normal; font-family: sans-serif; fill: #58595b; text-anchor:middle;}

.y-axis-label {font-size: 12px; font-family: helvetica; fill: #a7a9ac; text-anchor:end;}



.series-1-line { fill: none; stroke: #10b80c; stroke-width:2; }



.series-2-line { fill: none; stroke: #e90f0a; stroke-width: 2;}

	</style>
	<rect fill="white" height="600" width="800" x="0" y="0"/>
	<g id="grid" transform="translate(70, 30)">
		<g class="x-axis" id="x_axis">
			<path class="x-axis-path" d="M 0 525 L 660 525"/>
			<path class="x-notch-left" d="M 0 525, L 0 535"/>
			<path class="x-notch-right" d="M 660 525, L 660 535"/>
		</g>
		<g class="y-axis" id="y_axis">
			<path class="y-axis-path" d="M 0 525 L 0 0"/>
			<path class="y-axis-path-2" d="M 660 525 L 660 0"/>
			<path class="y-gridline" d="M 0 525 L 660 525"/>
			<text class="y-axis-label" x="-5" y="525">
				-100
			</text>
			<path class="y-gridline" d="M 0 420 L 660 420"/>
			<text class="y-axis-label" x="-5" y="420">
				 0
			</text>
			<path class="y-gridline" d="M 0 315 L 660 315"/>
			<text class="y-axis-label" x="-5" y="315">
				100
			</text>
			<path class="y-gridline" d="M 0 210 L 660 210"/>
			<text class="y-axis-label" x="-5" y="210">
				200
			</text>
			<path class="y-gridline" d="M 0 105 L 660 105"/>
			<text class="y-axis-label" x="-5" y="105">
				300
			</text>
			<path class="y-gridline" d="M 0 0 L 660 0"/>
			<text class="y-axis-label" x="-5" y="0">
				400
			</text>
		</g>
		<g>
			<path class="series-1-line" d="M 40 438.932172 L 45 417.761574165 L 50 409.00197633 L 56 428.188758495 L 61 400.906740661 L 66 447.016362826 L 72 426.060804991 L 77 376.728367156 L 82 453.530749321 L 88 453.225331486 L 93 411.108073651 L 99 395.698195817 L 104 401.989297982 L 109 390.322460147 L 115 305.236262312 L 120 304.822484477 L 125 223.101746642 L 131 243.527108807 L 136 213.687290972 L 142 217.339533138 L 147 160.090935303 L 152 157.362537468 L 158 156.141939633 L 163 119.758941798 L 168 39.8694039633 L 174 149.383066128 L 179 84.9201282936 L 185 122.253010459 L 190 153.663052624 L 195 87.395794789 L 201 213.924496954 L 206 158.023259119 L 211 91.2986212844 L 217 128.28164345 L 222 143.806865615 L 227 86.5586877798 L 233 65.630849945 L 238 143.32111211 L 244 143.365554275 L 249 111.12921644 L 254 147.762378606 L 260 52.2837007706 L 265 57.5243829358 L 270 70.4918051009 L 276 111.836527266 L 281 136.784869431 L 287 87.4793115963 L 292 158.439073761 L 297 173.210395927 L 303 127.970438092 L 308 141.691760257 L 313 134.413502422 L 319 184.992344587 L 324 238.640966752 L 330 167.554628917 L 335 185.852691083 L 340 162.662733248 L 346 140.711355413 L 351 206.313597578 L 356 151.757619743 L 362 177.702201908 L 367 189.835504073 L 372 197.902786239 L 378 187.662688404 L 383 188.865070569 L 389 177.870652734 L 394 253.380694899 L 399 210.967757064 L 405 260.361779229 L 410 285.229901394 L 415 157.63172356 L 421 181.315025725 L 426 204.56698789 L 432 259.077030055 L 437 308.04055222 L 442 266.489034385 L 448 264.72957655 L 453 279.151038716 L 458 200.849940881 L 464 337.447723046 L 469 302.896345211 L 475 335.113627376 L 480 343.908769541 L 485 304.779811706 L 491 316.320493872 L 496 369.942236037 L 501 359.136818202 L 507 362.250620367 L 512 378.529322532 L 517 406.358864697 L 523 373.637846862 L 528 423.840369028 L 534 411.877011193 L 539 407.587053358 L 544 408.385395523 L 550 434.464377688 L 555 392.455059853 L 560 425.910922018 L 566 424.851604183 L 571 432.084766349 L 577 411.290908514 L 582 451.773790679 L 587 451.172272844 L 593 437.782175009 L 598 422.049737174 L 603 429.121199339 L 609 439.369541505 L 614 382.36412367 L 620 434.908565835"/>
			<path class="series-2-line" d="M 40 406.77 L 45 433.802201835 L 50 408.33440367 L 56 404.916605505 L 61 443.498807339 L 66 416.981009174 L 72 410.413211009 L 77 408.045412844 L 82 425.627614679 L 88 432.709816514 L 93 410.392018349 L 99 357.624220183 L 104 400.406422018 L 109 419.038623853 L 115 425.070825688 L 120 367.053027523 L 125 380.435229358 L 131 388.567431193 L 136 416.649633028 L 142 420.581834862 L 147 342.614036697 L 152 359.146238532 L 158 386.178440367 L 163 329.210642202 L 168 384.592844037 L 174 376.975045872 L 179 400.857247706 L 185 392.189449541 L 190 406.621651376 L 195 384.303853211 L 201 343.086055046 L 206 382.718256881 L 211 390.850458716 L 217 395.83266055 L 222 390.314862385 L 227 353.29706422 L 233 424.429266055 L 238 385.31146789 L 244 378.743669725 L 249 371.12587156 L 254 389.758073394 L 260 378.990275229 L 265 380.822477064 L 270 364.804678899 L 276 385.536880734 L 281 384.219082569 L 287 377.651284404 L 292 364.783486239 L 297 354.015688073 L 303 368.447889908 L 308 357.680091743 L 313 387.862293578 L 319 360.294495413 L 324 386.276697248 L 330 378.658899083 L 335 350.041100917 L 340 364.473302752 L 346 390.455504587 L 351 394.387706422 L 356 346.869908257 L 362 353.952110092 L 367 386.234311927 L 372 356.566513761 L 378 357.348715596 L 383 374.930917431 L 389 329.513119266 L 394 343.945321101 L 399 367.827522936 L 405 320.309724771 L 410 372.541926606 L 415 335.52412844 L 421 367.806330275 L 426 344.43853211 L 432 358.870733945 L 437 337.60293578 L 442 349.935137615 L 448 338.11733945 L 453 340.999541284 L 458 394.281743119 L 464 338.363944954 L 469 364.346146789 L 475 334.678348624 L 480 396.360550459 L 485 358.292752294 L 491 360.124954128 L 496 390.307155963 L 501 397.389357798 L 507 403.421559633 L 512 362.203761468 L 517 402.885963303 L 523 388.968165138 L 528 420.200366972 L 534 403.132568807 L 539 417.564770642 L 544 416.246972477 L 550 402.329174312 L 555 404.161376147 L 560 386.043577982 L 566 387.875779817 L 571 406.507981651 L 577 415.690183486 L 582 407.022385321 L 587 419.354587156 L 593 420.136788991 L 598 417.768990826 L 603 420.651192661 L 609 419.333394495 L 614 426.41559633 L 620 419.847798165"/>
		</g>
		<text class="x-axis-label" x="40.0" y="540">
			0
		</text>
		<path class="x-notch" d="M 66.8518518519 525 L 66.8518518519 530"/>
		<text class="x-axis-label" x="93.7037037037" y="540">
			10
		</text>
		<path class="x-notch" d="M 120.555555556 525 L 120.555555556 530"/>
		<text class="x-axis-label" x="147.407407407" y="540">
			20
		</text>
		<path class="x-notch" d="M 174.259259259 525 L 174.259259259 530"/>
		<text class="x-axis-label" x="201.111111111" y="540">
			30
		</text>
		<path class="x-notch" d="M 227.962962963 525 L 227.962962963 530"/>
		<text class="x-axis-label" x="254.814814815" y="540">
			40
		</text>
		<path class="x-notch" d="M 281.666666667 525 L 281.666666667 530"/>
		<text class="x-axis-label" x="308.518518519" y="540">
			50
		</text>
		<path class="x-notch" d="M 335.37037037 525 L 335.37037037 530"/>
		<text class="x-axis-label" x="362.222222222" y="540">
			60
		</text>
		<path class="x-notch" d="M 389.074074074 525 L 389.074074074 530"/>
		<text class="x-axis-label" x="415.925925926" y="540">
			70
		</text>
		<path class="x-notch" d="M 442.777777778 525 L 442.777777778 530"/>
		<text class="x-axis-label" x="469.62962963" y="540">
			80
		</text>
		<path class="x-notch" d="M 496.481481481 525 L 496.481481481 530"/>
		<text class="x-axis-label" x="523.333333333" y="540">
			90
		</text>
		<path class="x-notch" d="M 550.185185185 525 L 550.185185185 530"/>
		<text class="x-axis-label" x="577.037037037" y="540">
			100
		</text>
		<path class="x-notch" d="M 603.888888889 525 L 603.888888889 530"/>
	</g>
</svg>
