<?xml version="1.0" ?>
<svg height="600" version="1.1" width="800" xmlns="http://www.w3.org/2000/svg" xmlns:svg="http://www.w3.org/2000/svg">
	<style type="text/css">

.x-axis-path, .y-gridline, .x-notch { fill:none; stroke: #a7a9ac; stroke-width:1; }



.y-gridline { stroke-width: 1; }

.y-axis-path, .y-axis-path2, .x-notch-left, .x-notch-right { display: none;}



.x-axis-label, .data-point-label {font-size: 12px; font-weight:normal; font-family: sans-serif; fill: #58595b; text-anchor:middle;}

.y-axis-label {font-size: 12px; font-family: helvetica; fill: #a7a9ac; text-anchor:end;}



.series-1-line { fill: none; stroke: #10b80c; stroke-width:2; }



.series-2-line { fill: none; stroke: #e90f0a; stroke-width: 2;}
</style>
	<rect fill="white" height="600" width="800" x="0" y="0"/>
	<g id="grid" transform="translate(70, 30)">
		<g class="x-axis" id="x_axis">
			<path class="x-axis-path" d="M 0 525 L 660 525"/>
			<path class="x-notch-left" d="M 0 525, L 0 535"/>
			<path class="x-notch-right" d="M 660 525, L 660 535"/>
		</g>
		<g class="y-axis" id="y_axis">
			<path class="y-axis-path" d="M 0 525 L 0 0"/>
			<path class="y-axis-path-2" d="M 660 525 L 660 0"/>
			<path class="y-gridline" d="M 0 525 L 660 525"/>
			<text class="y-axis-label" x="-5" y="525">-200</text>
			<path class="y-gridline" d="M 0 394 L 660 394"/>
			<text class="y-axis-label" x="-5" y="394"> 0</text>
			<path class="y-gridline" d="M 0 263 L 660 263"/>
			<text class="y-axis-label" x="-5" y="263">200</text>
			<path class="y-gridline" d="M 0 132 L 660 132"/>
			<text class="y-axis-label" x="-5" y="132">400</text>
			<path class="y-gridline" d="M 0 1 L 660 1"/>
			<text class="y-axis-label" x="-5" y="1">600</text>
		</g>
		<g>
			<path class="series-1-line" d="M 40 391.679284875 L 47 419.81303313 L 54 367.002252428 L 61 443.807768856 L 69 356.079682574 L 76 319.518763066 L 83 436.607900562 L 90 406.999669713 L 98 414.651459786 L 105 424.306407063 L 112 393.980152237 L 119 371.703075889 L 127 367.413738143 L 134 414.064016058 L 141 345.797445015 L 148 279.722674586 L 156 377.652715809 L 163 402.271801542 L 170 351.501906726 L 177 352.087232583 L 185 314.316637211 L 192 332.851383478 L 199 242.742853173 L 206 283.460295861 L 214 241.533060864 L 221 212.680582674 L 228 217.762695804 L 235 214.417754127 L 243 248.484337609 L 250 165.442271521 L 257 223.920491208 L 264 24.3746134806 L 272 157.826798215 L 279 0.0 L 286 201.963344476 L 293 224.730777242 L 301 166.856689529 L 308 168.159449852 L 315 64.2958674445 L 322 106.297853848 L 330 105.484860432 L 337 183.349137995 L 344 117.576786532 L 351 230.244594119 L 359 144.595122405 L 366 222.459399968 L 373 202.752000563 L 380 254.994966057 L 388 219.113752334 L 395 184.328438917 L 402 205.471180319 L 409 225.215602449 L 417 123.770192747 L 424 188.559123991 L 431 129.399903051 L 438 160.518933261 L 446 235.510525404 L 453 299.846712466 L 460 219.260547764 L 467 245.580371735 L 475 318.116062492 L 482 257.823212563 L 489 301.298975603 L 496 310.76468996 L 504 349.252603351 L 511 349.346866833 L 518 345.586320144 L 525 278.604882328 L 533 359.643085255 L 540 292.699376122 L 547 350.459571832 L 554 376.703938439 L 562 400.755914922 L 569 350.326167754 L 576 426.71607917 L 583 392.497875003 L 591 322.379650994 L 598 440.867107763 L 605 376.83322322 L 612 409.690130839 L 620 404.531854389"/>
			<path class="series-2-line" d="M 40 406.424479073 L 47 421.053076797 L 54 417.996354885 L 61 369.252557244 L 69 352.931845604 L 76 401.457305965 L 83 391.031700871 L 90 389.448755595 L 98 380.496927136 L 105 403.968184679 L 112 399.43768613 L 119 403.7498474 L 127 418.378445124 L 134 418.269276484 L 141 412.265001299 L 148 409.208279386 L 156 398.782674292 L 163 386.883292561 L 170 410.354550103 L 177 411.7191581 L 185 418.978872642 L 192 379.07773482 L 199 389.285002635 L 206 395.070940541 L 214 418.542198083 L 221 414.011699534 L 228 403.58609444 L 235 385.791606163 L 243 394.525097342 L 250 394.415928702 L 257 388.411653517 L 264 400.092697969 L 272 423.563955511 L 279 421.981010235 L 286 390.922532231 L 293 380.496927136 L 301 420.179727679 L 308 367.014600129 L 315 396.380964218 L 322 374.165146032 L 330 363.739540937 L 337 379.841915298 L 344 387.10162984 L 351 376.676024746 L 359 380.988186015 L 366 397.090560376 L 373 402.876498282 L 380 392.450893187 L 388 392.341724547 L 395 393.706332544 L 402 406.861153632 L 409 408.225761629 L 417 405.169039716 L 424 391.795881349 L 431 402.003149164 L 438 410.736640343 L 446 357.571512792 L 453 414.939632972 L 460 376.512271786 L 467 386.719539601 L 475 371.872604597 L 482 386.501202322 L 489 364.285384136 L 496 359.754885587 L 504 368.488376766 L 511 389.012081036 L 518 378.586475941 L 525 402.057733484 L 533 382.789468571 L 540 400.365619568 L 547 391.41379111 L 554 413.411272016 L 562 374.98391083 L 569 402.876498282 L 576 361.501583823 L 583 389.394171275 L 591 384.863672726 L 598 386.228280722 L 605 409.699538265 L 612 377.167283625 L 620 412.428754258"/>
		</g>
		<text class="x-axis-label" x="40.0" y="540">0</text>
		<path class="x-notch" d="M 76.25 525 L 76.25 530"/>
		<text class="x-axis-label" x="112.5" y="540">10</text>
		<path class="x-notch" d="M 148.75 525 L 148.75 530"/>
		<text class="x-axis-label" x="185.0" y="540">20</text>
		<path class="x-notch" d="M 221.25 525 L 221.25 530"/>
		<text class="x-axis-label" x="257.5" y="540">30</text>
		<path class="x-notch" d="M 293.75 525 L 293.75 530"/>
		<text class="x-axis-label" x="330.0" y="540">40</text>
		<path class="x-notch" d="M 366.25 525 L 366.25 530"/>
		<text class="x-axis-label" x="402.5" y="540">50</text>
		<path class="x-notch" d="M 438.75 525 L 438.75 530"/>
		<text class="x-axis-label" x="475.0" y="540">60</text>
		<path class="x-notch" d="M 511.25 525 L 511.25 530"/>
		<text class="x-axis-label" x="547.5" y="540">70</text>
		<path class="x-notch" d="M 583.75 525 L 583.75 530"/>
		<text class="x-axis-label" x="620.0" y="540">80</text>
	</g>
</svg>
