<?xml version="1.0" ?>
<svg height="600" version="1.1" width="800" xmlns="http://www.w3.org/2000/svg" xmlns:svg="http://www.w3.org/2000/svg">
	<style type="text/css">
		

.x-axis-path, .y-gridline, .x-notch { fill:none; stroke: #a7a9ac; stroke-width:1; }



.y-gridline { stroke-width: 1; }

.y-axis-path, .y-axis-path2, .x-notch-left, .x-notch-right { display: none;}



.x-axis-label, .data-point-label {font-size: 12px; font-weight:normal; font-family: sans-serif; fill: #58595b; text-anchor:middle;}

.y-axis-label {font-size: 12px; font-family: helvetica; fill: #a7a9ac; text-anchor:end;}



.series-1-line { fill: none; stroke: #10b80c; stroke-width:2; }



.series-2-line { fill: none; stroke: #e90f0a; stroke-width: 2;}

	</style>
	<rect fill="white" height="600" width="800" x="0" y="0"/>
	<g id="grid" transform="translate(70, 30)">
		<g class="x-axis" id="x_axis">
			<path class="x-axis-path" d="M 0 525 L 660 525"/>
			<path class="x-notch-left" d="M 0 525, L 0 535"/>
			<path class="x-notch-right" d="M 660 525, L 660 535"/>
		</g>
		<g class="y-axis" id="y_axis">
			<path class="y-axis-path" d="M 0 525 L 0 0"/>
			<path class="y-axis-path-2" d="M 660 525 L 660 0"/>
			<path class="y-gridline" d="M 0 525 L 660 525"/>
			<text class="y-axis-label" x="-5" y="525">
				-250
			</text>
			<path class="y-gridline" d="M 0 420 L 660 420"/>
			<text class="y-axis-label" x="-5" y="420">
				 0
			</text>
			<path class="y-gridline" d="M 0 315 L 660 315"/>
			<text class="y-axis-label" x="-5" y="315">
				250
			</text>
			<path class="y-gridline" d="M 0 210 L 660 210"/>
			<text class="y-axis-label" x="-5" y="210">
				500
			</text>
			<path class="y-gridline" d="M 0 105 L 660 105"/>
			<text class="y-axis-label" x="-5" y="105">
				750
			</text>
			<path class="y-gridline" d="M 0 0 L 660 0"/>
			<text class="y-axis-label" x="-5" y="0">
				1000
			</text>
		</g>
		<g>
			<path class="series-1-line" d="M 40 414.1390176 L 46 424.519631266 L 53 391.511388932 L 60 431.365922598 L 67 435.328096264 L 74 450.317957929 L 81 400.034947595 L 88 417.220905261 L 95 433.589038927 L 102 425.230596593 L 109 386.923466259 L 115 440.897727925 L 122 411.194885591 L 129 379.855891256 L 136 387.133880922 L 143 382.372990588 L 150 372.572268254 L 157 386.33371392 L 164 381.798783586 L 171 425.896997252 L 178 407.458890918 L 185 392.908304584 L 191 380.512486249 L 198 335.031923915 L 205 335.245681581 L 212 313.254543247 L 219 284.585572913 L 226 258.037266579 L 233 256.517768245 L 240 259.208349911 L 247 263.557595576 L 254 143.404057242 L 260 169.776758908 L 267 124.372300574 L 274 120.94684224 L 281 137.788063906 L 288 87.8491175718 L 295 98.8872832376 L 302 88.2455529035 L 309 106.627166569 L 316 96.7716762353 L 323 92.2256579012 L 330 125.361199567 L 336 91.9433732329 L 343 111.412786899 L 350 179.785992565 L 357 168.615902231 L 364 251.042811896 L 371 184.907489562 L 378 190.345207228 L 385 247.053500894 L 392 291.87562656 L 399 199.915512226 L 405 382.799365892 L 412 408.137523558 L 419 423.224489224 L 426 304.405206889 L 433 426.399308555 L 440 433.192954221 L 447 425.223095887 L 454 414.441421553 L 461 407.268723219 L 468 414.881200885 L 475 441.673398551 L 481 405.379916216 L 488 415.221753882 L 495 420.572951548 L 502 432.298741214 L 509 430.44559488 L 516 422.313448546 L 523 446.607318212 L 530 394.817515878 L 537 424.776177544 L 544 403.430327209 L 550 414.639852875 L 557 410.977178541 L 564 424.642192207 L 571 441.752885873 L 578 404.059627539 L 585 433.124361205 L 592 410.378230871 L 599 418.777116536 L 606 433.185698202 L 613 418.505919868 L 620 423.856949534"/>
			<path class="series-2-line" d="M 40 384.216 L 46 415.107247059 L 53 482.538494118 L 60 370.629741176 L 67 403.620988235 L 74 436.192235294 L 81 413.743482353 L 88 365.674729412 L 95 379.765976471 L 102 352.697223529 L 109 378.548470588 L 115 390.119717647 L 122 384.050964706 L 129 453.162211765 L 136 378.213458824 L 143 412.464705882 L 150 463.095952941 L 157 425.1072 L 164 440.458447059 L 171 387.349694118 L 178 393.040941176 L 185 381.932188235 L 191 460.703435294 L 198 376.934682353 L 205 339.365929412 L 212 424.437176471 L 219 420.888423529 L 226 332.079670588 L 233 352.050917647 L 240 304.822164706 L 247 277.333411765 L 254 278.404658824 L 260 287.875905882 L 267 274.247152941 L 274 313.1184 L 281 253.289647059 L 288 177.080894118 L 295 269.292141176 L 302 221.643388235 L 309 200.034635294 L 316 160.785882353 L 323 145.057129412 L 330 131.428376471 L 336 164.419623529 L 343 153.310870588 L 350 211.922117647 L 357 99.1733647059 L 364 143.924611765 L 371 121.055858824 L 378 169.587105882 L 385 49.2783529412 L 392 227.5896 L 399 187.500847059 L 405 384.292094118 L 412 325.723341176 L 419 375.934588235 L 426 266.965835294 L 433 412.937082353 L 440 364.448329412 L 447 424.319576471 L 454 382.130823529 L 461 465.102070588 L 468 452.733317647 L 475 413.064564706 L 481 419.595811765 L 488 419.827058824 L 495 432.658305882 L 502 368.209552941 L 509 407.5008 L 516 394.292047059 L 523 367.643294118 L 530 432.974541176 L 537 423.545788235 L 544 424.197035294 L 550 424.008282353 L 557 434.319529412 L 564 444.210776471 L 571 407.902023529 L 578 436.273270588 L 585 418.864517647 L 592 392.215764706 L 599 404.627011765 L 606 462.398258824 L 613 455.069505882 L 620 451.520752941"/>
		</g>
		<text class="x-axis-label" x="40.0" y="540">
			0
		</text>
		<path class="x-notch" d="M 74.5238095238 525 L 74.5238095238 530"/>
		<text class="x-axis-label" x="109.047619048" y="540">
			10
		</text>
		<path class="x-notch" d="M 143.571428571 525 L 143.571428571 530"/>
		<text class="x-axis-label" x="178.095238095" y="540">
			20
		</text>
		<path class="x-notch" d="M 212.619047619 525 L 212.619047619 530"/>
		<text class="x-axis-label" x="247.142857143" y="540">
			30
		</text>
		<path class="x-notch" d="M 281.666666667 525 L 281.666666667 530"/>
		<text class="x-axis-label" x="316.19047619" y="540">
			40
		</text>
		<path class="x-notch" d="M 350.714285714 525 L 350.714285714 530"/>
		<text class="x-axis-label" x="385.238095238" y="540">
			50
		</text>
		<path class="x-notch" d="M 419.761904762 525 L 419.761904762 530"/>
		<text class="x-axis-label" x="454.285714286" y="540">
			60
		</text>
		<path class="x-notch" d="M 488.80952381 525 L 488.80952381 530"/>
		<text class="x-axis-label" x="523.333333333" y="540">
			70
		</text>
		<path class="x-notch" d="M 557.857142857 525 L 557.857142857 530"/>
		<text class="x-axis-label" x="592.380952381" y="540">
			80
		</text>
		<path class="x-notch" d="M 626.904761905 525 L 626.904761905 530"/>
	</g>
</svg>
