<?xml version="1.0" ?>
<svg height="600" version="1.1" width="800" xmlns="http://www.w3.org/2000/svg" xmlns:svg="http://www.w3.org/2000/svg">
	<style type="text/css">
		

.x-axis-path, .y-gridline, .x-notch { fill:none; stroke: #a7a9ac; stroke-width:1; }



.y-gridline { stroke-width: 1; }

.y-axis-path, .y-axis-path2, .x-notch-left, .x-notch-right { display: none;}



.x-axis-label, .data-point-label {font-size: 12px; font-weight:normal; font-family: sans-serif; fill: #58595b; text-anchor:middle;}

.y-axis-label {font-size: 12px; font-family: helvetica; fill: #a7a9ac; text-anchor:end;}



.series-1-line { fill: none; stroke: #10b80c; stroke-width:2; }



.series-2-line { fill: none; stroke: #e90f0a; stroke-width: 2;}

	</style>
	<rect fill="white" height="600" width="800" x="0" y="0"/>
	<g id="grid" transform="translate(70, 30)">
		<g class="x-axis" id="x_axis">
			<path class="x-axis-path" d="M 0 525 L 660 525"/>
			<path class="x-notch-left" d="M 0 525, L 0 535"/>
			<path class="x-notch-right" d="M 660 525, L 660 535"/>
		</g>
		<g class="y-axis" id="y_axis">
			<path class="y-axis-path" d="M 0 525 L 0 0"/>
			<path class="y-axis-path-2" d="M 660 525 L 660 0"/>
			<path class="y-gridline" d="M 0 525 L 660 525"/>
			<text class="y-axis-label" x="-5" y="525">
				-200
			</text>
			<path class="y-gridline" d="M 0 394 L 660 394"/>
			<text class="y-axis-label" x="-5" y="394">
				 0
			</text>
			<path class="y-gridline" d="M 0 263 L 660 263"/>
			<text class="y-axis-label" x="-5" y="263">
				200
			</text>
			<path class="y-gridline" d="M 0 132 L 660 132"/>
			<text class="y-axis-label" x="-5" y="132">
				400
			</text>
			<path class="y-gridline" d="M 0 1 L 660 1"/>
			<text class="y-axis-label" x="-5" y="1">
				600
			</text>
		</g>
		<g>
			<path class="series-1-line" d="M 40 404.650471836 L 41 413.041396511 L 43 383.077137548 L 45 394.747144577 L 47 372.828748299 L 49 351.378239697 L 51 356.352746133 L 53 398.304778877 L 55 368.368030076 L 57 385.535341191 L 59 379.763260759 L 60 376.320087477 L 62 352.500266176 L 64 393.432918465 L 66 376.143536785 L 68 352.199704831 L 70 409.954176398 L 72 385.927599035 L 74 361.597980044 L 76 359.683984907 L 78 346.389809484 L 80 319.359896157 L 81 334.694557653 L 83 348.376030353 L 85 365.722372444 L 87 367.47281685 L 89 333.209880156 L 91 332.012008922 L 93 306.635284391 L 95 313.74526715 L 97 288.892310312 L 99 272.04352107 L 101 294.046387921 L 102 302.10697573 L 104 299.283425862 L 106 251.86353928 L 108 291.23928834 L 110 254.620364181 L 112 295.621791875 L 114 249.097060173 L 116 251.040720483 L 118 277.796612584 L 120 296.534582009 L 122 262.243920229 L 123 213.611652213 L 125 210.678061697 L 127 235.904775654 L 129 244.006198859 L 131 255.579920322 L 133 240.908302492 L 135 209.056373587 L 137 231.39000715 L 139 232.121071102 L 141 223.125358487 L 143 250.391048277 L 144 205.630190789 L 146 182.898525348 L 148 198.288637014 L 150 230.155616317 L 152 170.322628838 L 154 198.13938156 L 156 138.416434729 L 158 86.9319217165 L 160 133.38917333 L 162 174.873103474 L 164 174.790898262 L 165 137.621341017 L 167 137.966617931 L 169 133.048856983 L 171 139.911033361 L 173 182.441424276 L 175 119.040067896 L 177 150.990222455 L 179 102.743311629 L 181 80.7974051892 L 183 93.2252312113 L 185 88.831023033 L 186 87.9776735931 L 188 33.0348323279 L 190 54.1838095418 L 192 36.2468644397 L 194 16.6014952944 L 196 98.4247795097 L 198 32.3504240329 L 200 71.9744093201 L 202 89.0172799364 L 204 84.1274589963 L 205 108.375842818 L 207 62.195847834 L 209 103.969064525 L 211 38.4872521467 L 213 75.7552499687 L 215 60.6423949316 L 217 92.0412716351 L 219 88.1155959029 L 221 83.6111321537 L 223 92.3465786234 L 225 46.8416572233 L 226 84.1786453733 L 228 112.353674971 L 230 115.426756383 L 232 72.5395988331 L 234 144.966658272 L 236 120.499273549 L 238 96.5139614291 L 240 68.5609532142 L 242 82.0081596913 L 244 93.4718405055 L 246 135.09332146 L 247 131.773728984 L 249 107.237568855 L 251 131.279411539 L 253 148.170976264 L 255 143.005408935 L 257 130.716858886 L 259 108.798247685 L 261 85.3229481772 L 263 186.323824212 L 265 132.786795208 L 267 117.495124118 L 268 155.809797634 L 270 135.461844743 L 272 101.998207207 L 274 168.611595699 L 276 137.669006601 L 278 164.25919296 L 280 113.257612244 L 282 152.743401952 L 284 144.40900784 L 286 154.439796078 L 288 130.123717245 L 289 178.758140271 L 291 149.964567654 L 293 132.069102718 L 295 177.189747321 L 297 144.855745812 L 299 150.312539774 L 301 137.913949078 L 303 175.732794909 L 305 151.375880679 L 307 217.382756068 L 309 200.933508944 L 310 125.68386968 L 312 180.090483488 L 314 190.85115071 L 316 131.858297786 L 318 140.029356089 L 320 137.508847849 L 322 158.547139646 L 324 186.997915632 L 326 152.941734999 L 328 144.827422183 L 330 23.1352564298 L 331 97.3672404024 L 333 91.3611086711 L 335 79.6378064815 L 337 74.5822798002 L 339 20.7007290024 L 341 22.8921956928 L 343 82.40968178 L 345 69.1711714505 L 347 93.7090567424 L 349 0.535257413813 L 350 58.4962701181 L 352 91.0937731757 L 354 0.0 L 356 81.4514671823 L 358 28.6032668436 L 360 16.2184312279 L 362 10.8048425946 L 364 71.8519366722 L 366 35.7428102016 L 368 82.8201150753 L 370 14.0731903475 L 371 10.3540557533 L 373 62.8319492993 L 375 74.5984568183 L 377 97.2488870912 L 379 54.3202493752 L 381 83.2666381234 L 383 1.83108103173 L 385 107.653972645 L 387 96.1369966699 L 389 135.89874769 L 391 99.7483559766 L 392 54.6842419374 L 394 130.445618977 L 396 121.11913965 L 398 93.9929407559 L 400 120.762587938 L 402 82.8489667805 L 404 115.832041952 L 406 151.543351468 L 408 105.142845342 L 410 150.801012719 L 412 116.400310292 L 413 80.1536330113 L 415 165.090293839 L 417 99.6635017839 L 419 131.29664471 L 421 145.226138715 L 423 146.990553125 L 425 141.88000612 L 427 168.498347411 L 429 218.68924382 L 431 103.182566047 L 433 123.628744592 L 434 166.393831577 L 436 140.865586232 L 438 132.475956873 L 440 147.507576741 L 442 134.681718842 L 444 124.983422481 L 446 106.936436731 L 448 149.260716354 L 450 239.060658003 L 452 204.536159847 L 454 176.872438179 L 455 203.339258656 L 457 181.406892374 L 459 206.495840598 L 461 216.41615834 L 463 118.930141122 L 465 196.482042845 L 467 221.860492539 L 469 183.051286656 L 471 185.903856926 L 473 190.409830915 L 475 145.042460325 L 476 167.803146169 L 478 171.813077551 L 480 140.043464208 L 482 105.890783085 L 484 173.096714674 L 486 137.428395565 L 488 174.903149448 L 490 236.239744995 L 492 176.750634541 L 494 234.808577581 L 495 219.930203691 L 497 216.335079748 L 499 173.599228089 L 501 208.538963531 L 503 214.766686799 L 505 264.461755523 L 507 235.806163562 L 509 265.483076064 L 511 286.714153918 L 513 282.692192619 L 515 286.206081392 L 516 237.532333209 L 518 263.338050107 L 520 240.165792227 L 522 288.482988698 L 524 259.717356089 L 526 279.033468762 L 528 283.277666366 L 530 286.405768102 L 532 313.175630208 L 534 289.892901834 L 536 309.746752204 L 537 325.783997446 L 539 341.422130416 L 541 313.730898586 L 543 252.203027222 L 545 314.503982901 L 547 333.007686102 L 549 365.439913265 L 551 382.427978481 L 553 394.786814175 L 555 394.043720306 L 557 411.169336331 L 558 427.069245687 L 560 407.451386703 L 562 385.339989445 L 564 391.030619784 L 566 412.551414031 L 568 428.271862564 L 570 386.83113775 L 572 424.470952604 L 574 424.003390202 L 576 380.964496915 L 578 419.927163699 L 579 409.278047365 L 581 412.048087149 L 583 409.968601193 L 585 425.620059399 L 587 411.458239258 L 589 404.625513128 L 591 399.432435637 L 593 389.596373544 L 595 395.590260434 L 597 394.805686399 L 599 403.32083665 L 600 412.442070157 L 602 387.451132663 L 604 377.064007638 L 606 423.011676485 L 608 409.82754171 L 610 405.309752726 L 612 404.51142361 L 614 401.798129313 L 616 400.352236775 L 618 375.402564525 L 620 387.293297619"/>
			<path class="series-2-line" d="M 40 394.824615702 L 41 378.621524913 L 43 394.656905186 L 45 390.811894971 L 47 408.996506648 L 49 375.062256774 L 51 388.948405643 L 53 375.96916196 L 55 387.706079425 L 57 406.427998953 L 59 378.404135441 L 60 406.260288437 L 62 406.71374103 L 64 406.092577921 L 66 414.60564828 L 68 413.44717732 L 70 407.990243551 L 72 398.772154825 L 74 394.92714461 L 76 414.72367984 L 78 407.654822519 L 80 405.959043708 L 81 396.203647131 L 83 392.895944767 L 85 404.632862231 L 87 397.56400491 L 89 392.644378992 L 91 384.500905969 L 93 376.357432945 L 95 392.392813218 L 97 407.353577789 L 99 389.001255596 L 101 386.768168934 L 102 401.191625654 L 104 395.197384034 L 106 410.158148605 L 108 400.940059879 L 110 386.348892643 L 112 374.981572513 L 114 355.017326767 L 116 380.724248359 L 118 370.431543931 L 120 395.601157672 L 122 374.024988372 L 123 389.523060794 L 125 400.722670408 L 127 398.489583746 L 129 364.555333872 L 131 375.754943486 L 133 395.014170865 L 135 391.16916065 L 137 400.21953886 L 139 405.508762112 L 141 398.43990479 L 143 392.445663171 L 144 411.70489055 L 146 389.054105548 L 148 412.611795736 L 150 380.289469416 L 152 403.847159603 L 154 395.70368658 L 156 402.067525534 L 158 380.491356234 L 160 377.18365387 L 162 395.368265547 L 164 359.822092121 L 165 389.29016867 L 167 391.892852667 L 169 377.301685431 L 171 411.068224788 L 173 370.686280702 L 175 385.109737422 L 177 402.757041249 L 179 379.031640545 L 181 401.51471503 L 183 405.19201473 L 185 392.750078898 L 186 393.740839342 L 188 345.836585341 L 190 372.080814784 L 192 376.832730185 L 194 375.674259225 L 196 387.41117669 L 198 378.730395815 L 200 393.691160386 L 202 368.89114398 L 204 391.911526317 L 205 374.633819826 L 207 384.758813737 L 209 399.719578308 L 211 403.396878008 L 213 408.68610126 L 215 391.94570262 L 217 390.787231659 L 219 389.091452848 L 221 372.888362059 L 223 365.819504737 L 225 375.407190798 L 226 390.90526322 L 228 389.74679226 L 230 385.901782045 L 232 406.235625126 L 234 395.942920698 L 236 392.635218334 L 238 376.969435396 L 240 372.587117329 L 242 363.906336455 L 244 392.299797302 L 246 388.992094937 L 247 376.550159105 L 249 383.988613762 L 251 377.994372142 L 253 376.835901182 L 255 379.97589303 L 257 362.698186539 L 259 359.927792026 L 261 369.515478087 L 263 365.13316002 L 265 370.422383272 L 267 381.621992886 L 268 349.299666566 L 270 352.976966265 L 272 370.08696224 L 274 386.659650364 L 276 387.650410808 L 278 340.283464659 L 280 390.169239547 L 282 363.757299588 L 284 358.30036582 L 286 379.708824604 L 288 352.759576793 L 289 387.063424002 L 291 367.099178255 L 293 386.358405635 L 295 361.021081378 L 297 369.534151736 L 299 392.017226222 L 301 391.933370964 L 303 374.118356622 L 305 395.526815405 L 307 380.935648169 L 309 363.120633827 L 310 381.842553355 L 312 374.773696033 L 314 366.092915159 L 316 363.322520645 L 318 402.462138513 L 320 391.094818383 L 322 371.667880488 L 324 390.389800016 L 326 395.141715417 L 328 355.297079182 L 330 389.600926391 L 331 391.128994686 L 333 378.687058854 L 335 399.020901935 L 337 384.96704255 L 339 381.122032335 L 341 389.097794843 L 343 339.044309438 L 345 386.243545071 L 347 386.696997664 L 349 393.59814447 L 350 376.857745829 L 352 377.311198422 L 354 353.048489867 L 356 380.904642863 L 358 383.507326861 L 360 381.274240198 L 362 381.19038494 L 364 364.987294151 L 366 354.694589723 L 368 359.446505125 L 370 369.571499036 L 371 356.592255353 L 373 357.045707946 L 375 359.111084092 L 377 360.639152387 L 379 366.465683491 L 381 349.72528485 L 383 369.521820081 L 385 367.288733419 L 387 355.384105438 L 389 369.807562158 L 391 365.962551942 L 392 369.639851642 L 394 384.063308362 L 396 365.710986168 L 398 379.059827186 L 400 366.617891354 L 402 386.414426584 L 404 368.599412242 L 406 386.246716068 L 408 388.849400066 L 410 384.467081999 L 412 380.084763933 L 413 391.284373547 L 415 378.305129863 L 417 373.385503946 L 419 377.600111496 L 421 377.516256238 L 423 389.253173703 L 425 383.796239935 L 427 394.995849548 L 429 395.986609992 L 431 387.305829118 L 433 397.430823029 L 434 404.331969835 L 436 398.875036066 L 438 381.060021724 L 440 376.677703658 L 442 359.399997166 L 444 357.166910504 L 446 379.112677139 L 448 391.924210306 L 450 374.646503814 L 452 389.607268385 L 454 382.001103213 L 455 395.887252082 L 457 395.266088972 L 459 393.570310161 L 461 390.262607797 L 463 399.312986007 L 465 364.841428282 L 467 380.876808555 L 469 393.688341722 L 471 382.321021592 L 473 385.46101344 L 475 373.556385459 L 476 378.845608712 L 478 375.537906347 L 480 337.842501517 L 482 336.684030556 L 484 365.614799254 L 486 349.411708465 L 488 364.372473036 L 490 365.900541331 L 492 335.727446415 L 494 366.807446517 L 495 376.395132578 L 497 365.027812448 L 499 361.720110084 L 501 373.9943354 L 503 338.985469824 L 505 354.483542246 L 507 354.936994839 L 509 370.972375112 L 511 342.411203749 L 513 355.760044767 L 515 346.00464819 L 516 346.995408634 L 518 380.224640141 L 520 384.439247691 L 522 384.355392433 L 524 402.002696259 L 526 378.814603406 L 528 380.879979552 L 530 368.43804372 L 532 376.951114079 L 534 356.449560481 L 536 375.17148001 L 537 360.580312774 L 539 387.361850067 L 541 384.054147703 L 543 378.597213935 L 545 376.364127272 L 547 396.160662503 L 549 401.449885755 L 551 406.201801156 L 553 399.670251686 L 555 404.422167087 L 557 387.681768447 L 558 415.537921443 L 560 410.080987674 L 562 416.444826629 L 564 402.390967244 L 566 412.515961155 L 568 405.447103834 L 570 409.661711384 L 572 398.831699105 L 574 402.508998804 L 576 404.574374951 L 578 417.923215969 L 579 396.347046669 L 581 397.875114964 L 583 401.552414663 L 585 384.274708172 L 587 407.832398359 L 589 398.614309634 L 591 406.05276429 L 593 404.356985479 L 595 405.885053774 L 597 396.129657197 L 599 402.493496152 L 600 398.111178085 L 602 392.654244317 L 604 393.10769691 L 606 406.456537928 L 608 382.193829373 L 610 410.049982369 L 612 402.443817196 L 614 400.210730534 L 616 388.843410404 L 618 376.938782423 L 620 401.571088313"/>
		</g>
		<text class="x-axis-label" x="40.0" y="540">
			0
		</text>
		<path class="x-notch" d="M 49.5394736842 525 L 49.5394736842 530"/>
		<text class="x-axis-label" x="59.0789473684" y="540">
			10
		</text>
		<path class="x-notch" d="M 68.6184210526 525 L 68.6184210526 530"/>
		<text class="x-axis-label" x="78.1578947368" y="540">
			20
		</text>
		<path class="x-notch" d="M 87.6973684211 525 L 87.6973684211 530"/>
		<text class="x-axis-label" x="97.2368421053" y="540">
			30
		</text>
		<path class="x-notch" d="M 106.776315789 525 L 106.776315789 530"/>
		<text class="x-axis-label" x="116.315789474" y="540">
			40
		</text>
		<path class="x-notch" d="M 125.855263158 525 L 125.855263158 530"/>
		<text class="x-axis-label" x="135.394736842" y="540">
			50
		</text>
		<path class="x-notch" d="M 144.934210526 525 L 144.934210526 530"/>
		<text class="x-axis-label" x="154.473684211" y="540">
			60
		</text>
		<path class="x-notch" d="M 164.013157895 525 L 164.013157895 530"/>
		<text class="x-axis-label" x="173.552631579" y="540">
			70
		</text>
		<path class="x-notch" d="M 183.092105263 525 L 183.092105263 530"/>
		<text class="x-axis-label" x="192.631578947" y="540">
			80
		</text>
		<path class="x-notch" d="M 202.171052632 525 L 202.171052632 530"/>
		<text class="x-axis-label" x="211.710526316" y="540">
			90
		</text>
		<path class="x-notch" d="M 221.25 525 L 221.25 530"/>
		<text class="x-axis-label" x="230.789473684" y="540">
			100
		</text>
		<path class="x-notch" d="M 240.328947368 525 L 240.328947368 530"/>
		<text class="x-axis-label" x="249.868421053" y="540">
			110
		</text>
		<path class="x-notch" d="M 259.407894737 525 L 259.407894737 530"/>
		<text class="x-axis-label" x="268.947368421" y="540">
			120
		</text>
		<path class="x-notch" d="M 278.486842105 525 L 278.486842105 530"/>
		<text class="x-axis-label" x="288.026315789" y="540">
			130
		</text>
		<path class="x-notch" d="M 297.565789474 525 L 297.565789474 530"/>
		<text class="x-axis-label" x="307.105263158" y="540">
			140
		</text>
		<path class="x-notch" d="M 316.644736842 525 L 316.644736842 530"/>
		<text class="x-axis-label" x="326.184210526" y="540">
			150
		</text>
		<path class="x-notch" d="M 335.723684211 525 L 335.723684211 530"/>
		<text class="x-axis-label" x="345.263157895" y="540">
			160
		</text>
		<path class="x-notch" d="M 354.802631579 525 L 354.802631579 530"/>
		<text class="x-axis-label" x="364.342105263" y="540">
			170
		</text>
		<path class="x-notch" d="M 373.881578947 525 L 373.881578947 530"/>
		<text class="x-axis-label" x="383.421052632" y="540">
			180
		</text>
		<path class="x-notch" d="M 392.960526316 525 L 392.960526316 530"/>
		<text class="x-axis-label" x="402.5" y="540">
			190
		</text>
		<path class="x-notch" d="M 412.039473684 525 L 412.039473684 530"/>
		<text class="x-axis-label" x="421.578947368" y="540">
			200
		</text>
		<path class="x-notch" d="M 431.118421053 525 L 431.118421053 530"/>
		<text class="x-axis-label" x="440.657894737" y="540">
			210
		</text>
		<path class="x-notch" d="M 450.197368421 525 L 450.197368421 530"/>
		<text class="x-axis-label" x="459.736842105" y="540">
			220
		</text>
		<path class="x-notch" d="M 469.276315789 525 L 469.276315789 530"/>
		<text class="x-axis-label" x="478.815789474" y="540">
			230
		</text>
		<path class="x-notch" d="M 488.355263158 525 L 488.355263158 530"/>
		<text class="x-axis-label" x="497.894736842" y="540">
			240
		</text>
		<path class="x-notch" d="M 507.434210526 525 L 507.434210526 530"/>
		<text class="x-axis-label" x="516.973684211" y="540">
			250
		</text>
		<path class="x-notch" d="M 526.513157895 525 L 526.513157895 530"/>
		<text class="x-axis-label" x="536.052631579" y="540">
			260
		</text>
		<path class="x-notch" d="M 545.592105263 525 L 545.592105263 530"/>
		<text class="x-axis-label" x="555.131578947" y="540">
			270
		</text>
		<path class="x-notch" d="M 564.671052632 525 L 564.671052632 530"/>
		<text class="x-axis-label" x="574.210526316" y="540">
			280
		</text>
		<path class="x-notch" d="M 583.75 525 L 583.75 530"/>
		<text class="x-axis-label" x="593.289473684" y="540">
			290
		</text>
		<path class="x-notch" d="M 602.828947368 525 L 602.828947368 530"/>
		<text class="x-axis-label" x="612.368421053" y="540">
			300
		</text>
		<path class="x-notch" d="M 621.907894737 525 L 621.907894737 530"/>
	</g>
</svg>
