<?xml version="1.0" ?>
<svg height="600" version="1.1" width="800" xmlns="http://www.w3.org/2000/svg" xmlns:svg="http://www.w3.org/2000/svg">
	<style type="text/css">
		

.x-axis-path, .y-gridline, .x-notch { fill:none; stroke: #a7a9ac; stroke-width:1; }



.y-gridline { stroke-width: 1; }

.y-axis-path, .y-axis-path2, .x-notch-left, .x-notch-right { display: none;}



.x-axis-label, .data-point-label {font-size: 12px; font-weight:normal; font-family: sans-serif; fill: #58595b; text-anchor:middle;}

.y-axis-label {font-size: 12px; font-family: helvetica; fill: #a7a9ac; text-anchor:end;}



.series-1-line { fill: none; stroke: #10b80c; stroke-width:2; }



.series-2-line { fill: none; stroke: #e90f0a; stroke-width: 2;}

	</style>
	<rect fill="white" height="600" width="800" x="0" y="0"/>
	<g id="grid" transform="translate(70, 30)">
		<g class="x-axis" id="x_axis">
			<path class="x-axis-path" d="M 0 525 L 660 525"/>
			<path class="x-notch-left" d="M 0 525, L 0 535"/>
			<path class="x-notch-right" d="M 660 525, L 660 535"/>
		</g>
		<g class="y-axis" id="y_axis">
			<path class="y-axis-path" d="M 0 525 L 0 0"/>
			<path class="y-axis-path-2" d="M 660 525 L 660 0"/>
			<path class="y-gridline" d="M 0 525 L 660 525"/>
			<text class="y-axis-label" x="-5" y="525">
				-200
			</text>
			<path class="y-gridline" d="M 0 394 L 660 394"/>
			<text class="y-axis-label" x="-5" y="394">
				 0
			</text>
			<path class="y-gridline" d="M 0 263 L 660 263"/>
			<text class="y-axis-label" x="-5" y="263">
				200
			</text>
			<path class="y-gridline" d="M 0 132 L 660 132"/>
			<text class="y-axis-label" x="-5" y="132">
				400
			</text>
			<path class="y-gridline" d="M 0 1 L 660 1"/>
			<text class="y-axis-label" x="-5" y="1">
				600
			</text>
		</g>
		<g>
			<path class="series-1-line" d="M 40 399.1378125 L 44 398.5233225 L 49 367.33467 L 54 411.44493 L 59 390.369615 L 64 400.69245 L 69 394.1210475 L 74 366.46617 L 79 384.326955 L 84 373.5828525 L 89 358.2618 L 94 388.8939975 L 98 384.29187 L 103 386.9079675 L 108 406.6703025 L 113 367.60665 L 118 378.552135 L 123 389.127495 L 128 393.2072925 L 133 358.4342025 L 138 348.58155 L 143 356.2124475 L 148 363.69162 L 153 317.4932175 L 157 316.811265 L 162 317.289825 L 167 325.6945725 L 172 296.4234825 L 177 293.25093 L 182 313.7039025 L 187 326.07975 L 192 262.7847225 L 197 271.44147 L 202 275.9591175 L 207 283.77429 L 212 242.2536375 L 216 247.79766 L 221 211.25742 L 226 234.92418 L 231 195.6410775 L 236 216.27885 L 241 205.1136975 L 246 224.10192 L 251 162.99483 L 256 237.074715 L 261 144.804675 L 266 207.47526 L 271 220.8606825 L 275 127.29468 L 280 143.1365775 L 285 181.2739125 L 290 153.4334475 L 295 120.2757825 L 300 111.095655 L 305 147.5002275 L 310 173.96025 L 315 113.08836 L 320 109.091295 L 325 150.3752175 L 330 210.6901275 L 334 108.17235 L 339 162.39621 L 344 173.526495 L 349 157.66653 L 354 141.638565 L 359 146.0050125 L 364 184.0583475 L 369 123.556845 L 374 176.5697925 L 379 248.984115 L 384 137.44605 L 388 279.8103225 L 393 141.65292 L 398 209.0692425 L 403 184.0889775 L 408 204.3558375 L 413 236.823435 L 418 157.91307 L 423 204.19473 L 428 232.0344525 L 433 166.081875 L 438 199.86066 L 443 163.2036075 L 447 245.7485925 L 452 186.743865 L 457 224.2414875 L 462 224.5530975 L 467 262.7077575 L 472 237.1389675 L 477 254.647215 L 482 233.7391125 L 487 230.0953725 L 492 271.3806075 L 497 280.997055 L 502 383.229015 L 506 372.602775 L 511 399.1299975 L 516 390.67437 L 521 379.7948175 L 526 387.4931775 L 531 391.30365 L 536 384.24426 L 541 405.588945 L 546 396.9983925 L 551 384.419415 L 556 387.5237625 L 561 392.2264725 L 565 403.1042325 L 570 407.3864175 L 575 419.3918775 L 580 394.2772125 L 585 372.5115225 L 590 406.559895 L 595 380.67138 L 600 402.049665 L 605 393.9807 L 610 393.3491475 L 615 388.5614325 L 620 393.71853"/>
			<path class="series-2-line" d="M 40 377.34375 L 44 390.120220588 L 49 437.677941176 L 54 332.329411765 L 59 414.668382353 L 64 410.382352941 L 69 405.440073529 L 74 464.810294118 L 79 410.649264706 L 84 442.456985294 L 89 471.639705882 L 94 395.822426471 L 98 442.067647059 L 103 437.125367647 L 108 393.464338235 L 113 441.022058824 L 118 441.986029412 L 123 449.5125 L 128 420.945220588 L 133 438.971691176 L 138 434.029411765 L 143 465.837132353 L 148 470.082352941 L 153 504.515073529 L 157 502.197794118 L 162 446.724264706 L 167 460.156985294 L 172 438.808455882 L 177 415.491176471 L 182 443.361397059 L 187 451.544117647 L 192 440.039338235 L 197 414.097058824 L 202 419.654779412 L 207 371.4 L 212 392.707720588 L 216 391.702941176 L 221 378.229411765 L 226 391.005882353 L 231 370.313602941 L 236 369.308823529 L 241 364.366544118 L 246 313.486764706 L 251 344.638235294 L 256 324.602205882 L 261 405.628676471 L 266 322.592647059 L 271 326.837867647 L 275 379.645588235 L 280 358.953308824 L 285 315.292279412 L 290 326.75625 L 295 348.720220588 L 300 289.965441176 L 305 286.335661765 L 310 298.455882353 L 315 292.857352941 L 320 270.196323529 L 325 221.941544118 L 330 148.093014706 L 334 215.338235294 L 339 170.364705882 L 344 142.453676471 L 349 127.667647059 L 354 139.131617647 L 359 168.314338235 L 364 137.778308824 L 369 151.211029412 L 374 167.26875 L 379 176.763970588 L 384 140.977941176 L 388 192.473161765 L 393 240.030882353 L 398 210.151102941 L 403 184.865073529 L 408 113.641544118 L 413 161.199264706 L 418 154.288235294 L 423 119.814705882 L 428 121.434926471 L 433 217.555147059 L 438 137.144117647 L 443 218.826838235 L 447 311.665808824 L 452 245.036029412 L 457 173.15625 L 462 246.307720588 L 467 251.209191176 L 472 266.610661765 L 477 293.168382353 L 482 272.476102941 L 487 245.877573529 L 492 325.591544118 L 497 354.774264706 L 502 396.425735294 L 506 435.452205882 L 511 437.072426471 L 516 470.192647059 L 521 420.625367647 L 526 467.526838235 L 531 429.772058824 L 536 424.173529412 L 541 440.8875 L 546 443.820220588 L 551 403.440441176 L 556 424.748161765 L 561 427.024632353 L 565 387.301102941 L 570 404.015073529 L 575 393.166544118 L 580 388.880514706 L 585 425.281985294 L 590 379.652205882 L 595 393.741176471 L 600 405.205147059 L 605 403.544117647 L 610 393.351838235 L 615 391.690808824 L 620 399.873529412"/>
		</g>
		<text class="x-axis-label" x="40.0" y="540">
			0
		</text>
		<path class="x-notch" d="M 64.5762711864 525 L 64.5762711864 530"/>
		<text class="x-axis-label" x="89.1525423729" y="540">
			10
		</text>
		<path class="x-notch" d="M 113.728813559 525 L 113.728813559 530"/>
		<text class="x-axis-label" x="138.305084746" y="540">
			20
		</text>
		<path class="x-notch" d="M 162.881355932 525 L 162.881355932 530"/>
		<text class="x-axis-label" x="187.457627119" y="540">
			30
		</text>
		<path class="x-notch" d="M 212.033898305 525 L 212.033898305 530"/>
		<text class="x-axis-label" x="236.610169492" y="540">
			40
		</text>
		<path class="x-notch" d="M 261.186440678 525 L 261.186440678 530"/>
		<text class="x-axis-label" x="285.762711864" y="540">
			50
		</text>
		<path class="x-notch" d="M 310.338983051 525 L 310.338983051 530"/>
		<text class="x-axis-label" x="334.915254237" y="540">
			60
		</text>
		<path class="x-notch" d="M 359.491525424 525 L 359.491525424 530"/>
		<text class="x-axis-label" x="384.06779661" y="540">
			70
		</text>
		<path class="x-notch" d="M 408.644067797 525 L 408.644067797 530"/>
		<text class="x-axis-label" x="433.220338983" y="540">
			80
		</text>
		<path class="x-notch" d="M 457.796610169 525 L 457.796610169 530"/>
		<text class="x-axis-label" x="482.372881356" y="540">
			90
		</text>
		<path class="x-notch" d="M 506.949152542 525 L 506.949152542 530"/>
		<text class="x-axis-label" x="531.525423729" y="540">
			100
		</text>
		<path class="x-notch" d="M 556.101694915 525 L 556.101694915 530"/>
		<text class="x-axis-label" x="580.677966102" y="540">
			110
		</text>
		<path class="x-notch" d="M 605.254237288 525 L 605.254237288 530"/>
	</g>
</svg>
