<?xml version="1.0" ?>
<svg height="600" version="1.1" width="800" xmlns="http://www.w3.org/2000/svg" xmlns:svg="http://www.w3.org/2000/svg">
	<style type="text/css">
		

.x-axis-path, .y-gridline, .x-notch { fill:none; stroke: #a7a9ac; stroke-width:1; }



.y-gridline { stroke-width: 1; }

.y-axis-path, .y-axis-path2, .x-notch-left, .x-notch-right { display: none;}



.x-axis-label, .data-point-label {font-size: 12px; font-weight:normal; font-family: sans-serif; fill: #58595b; text-anchor:middle;}

.y-axis-label {font-size: 12px; font-family: helvetica; fill: #a7a9ac; text-anchor:end;}



.series-1-line { fill: none; stroke: #10b80c; stroke-width:2; }



.series-2-line { fill: none; stroke: #e90f0a; stroke-width: 2;}

	</style>
	<rect fill="white" height="600" width="800" x="0" y="0"/>
	<g id="grid" transform="translate(70, 30)">
		<g class="x-axis" id="x_axis">
			<path class="x-axis-path" d="M 0 525 L 660 525"/>
			<path class="x-notch-left" d="M 0 525, L 0 535"/>
			<path class="x-notch-right" d="M 660 525, L 660 535"/>
		</g>
		<g class="y-axis" id="y_axis">
			<path class="y-axis-path" d="M 0 525 L 0 0"/>
			<path class="y-axis-path-2" d="M 660 525 L 660 0"/>
			<path class="y-gridline" d="M 0 525 L 660 525"/>
			<text class="y-axis-label" x="-5" y="525">
				-200
			</text>
			<path class="y-gridline" d="M 0 420 L 660 420"/>
			<text class="y-axis-label" x="-5" y="420">
				 0
			</text>
			<path class="y-gridline" d="M 0 315 L 660 315"/>
			<text class="y-axis-label" x="-5" y="315">
				200
			</text>
			<path class="y-gridline" d="M 0 210 L 660 210"/>
			<text class="y-axis-label" x="-5" y="210">
				400
			</text>
			<path class="y-gridline" d="M 0 105 L 660 105"/>
			<text class="y-axis-label" x="-5" y="105">
				600
			</text>
			<path class="y-gridline" d="M 0 0 L 660 0"/>
			<text class="y-axis-label" x="-5" y="0">
				800
			</text>
		</g>
		<g>
			<path class="series-1-line" d="M 40 435.566838 L 42 408.318456816 L 45 425.842915631 L 48 418.409924447 L 51 410.626653262 L 54 421.824232078 L 56 418.631560893 L 59 430.300379709 L 62 422.611398524 L 65 418.36872734 L 68 416.145206155 L 71 420.827324971 L 73 421.551993786 L 76 418.574572602 L 79 416.620481417 L 82 410.385330233 L 85 428.542519049 L 88 416.788147864 L 90 434.50118668 L 93 428.508585495 L 96 430.808254311 L 99 423.038423126 L 102 411.136001942 L 105 430.800990757 L 107 400.739029573 L 110 420.686678388 L 113 399.293937204 L 116 410.774176019 L 119 411.714094835 L 122 398.46578365 L 124 374.663292466 L 127 407.170621282 L 130 396.345080097 L 133 385.681238913 L 136 383.498037728 L 139 343.999516544 L 141 369.116315359 L 144 347.952474175 L 147 344.27512299 L 150 345.753481806 L 153 338.387690621 L 156 315.823779437 L 158 324.881038252 L 161 307.001597068 L 164 303.337685883 L 167 283.883454699 L 170 263.258053515 L 172 278.74992233 L 175 278.882181146 L 178 272.835609961 L 181 267.394678777 L 184 258.359387592 L 187 248.516856408 L 189 232.387555223 L 192 188.338964039 L 195 220.725122854 L 198 160.42862167 L 201 198.656980485 L 204 161.648849301 L 206 129.715578117 L 209 122.094006932 L 212 127.503355748 L 215 115.493204563 L 218 138.563763379 L 221 107.249992194 L 223 142.77271101 L 226 103.166249825 L 229 101.494608641 L 232 85.9577174563 L 235 84.5552962718 L 238 58.8953550874 L 240 56.9410539029 L 243 71.0597327184 L 246 96.876671534 L 249 72.8589303495 L 252 91.177399165 L 255 80.7964279806 L 257 69.4862067961 L 260 17.2532856117 L 263 65.5240544272 L 266 47.8869532427 L 269 71.4959520583 L 272 49.0399808738 L 274 84.3873496893 L 277 100.619468505 L 280 97.2787473204 L 283 65.3860061359 L 286 111.597304951 L 288 60.171833767 L 291 44.5540925825 L 294 59.7364213981 L 297 28.5436102136 L 300 42.4602690291 L 303 70.9022078447 L 305 28.6169866602 L 308 70.0356654757 L 311 79.6450142913 L 314 80.3022731068 L 317 10.4751319223 L 320 99.3319707379 L 322 102.480039553 L 325 106.852618369 L 328 67.7041671845 L 331 86.561496 L 334 86.1147848155 L 337 146.123713631 L 339 110.179022447 L 342 139.307661262 L 345 101.868610078 L 348 118.437568893 L 351 120.817877709 L 354 140.442336524 L 356 163.40537534 L 359 132.131714155 L 362 154.421912971 L 365 161.715591786 L 368 181.353700602 L 371 206.820569417 L 373 171.400878233 L 376 204.446437049 L 379 194.415325864 L 382 214.12063468 L 385 198.368283495 L 388 237.565792311 L 390 207.557801126 L 393 185.734349942 L 396 255.058878757 L 399 226.477627573 L 402 247.865666388 L 404 226.715055204 L 407 213.439654019 L 410 216.170032835 L 413 260.95396165 L 416 263.751750466 L 419 253.491949282 L 421 227.791268097 L 424 281.446436913 L 427 281.215185728 L 430 281.051554544 L 433 291.683813359 L 436 291.277632175 L 438 287.46567099 L 441 295.392079806 L 444 324.251498621 L 447 334.210707437 L 450 324.327436252 L 453 321.659765068 L 455 329.074613883 L 458 350.220312699 L 461 326.969701515 L 464 346.83671033 L 467 345.326769146 L 470 335.564667961 L 472 345.429796777 L 475 371.462195592 L 478 356.880804408 L 481 377.649553223 L 484 379.155002039 L 487 380.983430854 L 489 371.70579967 L 492 381.234298485 L 495 375.147407301 L 498 382.198746117 L 501 375.694584932 L 504 400.649893748 L 506 390.053462563 L 509 396.849021379 L 512 373.773760194 L 515 389.22509901 L 518 389.411117825 L 520 382.422276641 L 523 384.641095456 L 526 383.467574272 L 529 384.757563087 L 532 390.785991903 L 535 378.170200718 L 537 381.829409534 L 540 412.23652835 L 543 420.957367165 L 546 409.754875981 L 549 404.650574796 L 552 401.700243612 L 554 397.982572427 L 557 402.570401243 L 560 396.577800058 L 563 415.259988874 L 566 396.303877689 L 569 401.793656505 L 571 420.35488532 L 574 408.910054136 L 577 413.807842951 L 580 385.791911767 L 583 399.264630583 L 586 402.035329398 L 588 409.517588214 L 591 400.576797029 L 594 387.907035845 L 597 393.14124466 L 600 418.648433476 L 603 416.438562291 L 605 407.470891107 L 608 416.770279922 L 611 420.698708738 L 614 422.688627553 L 617 421.784326369 L 620 419.910875184"/>
			<path class="series-2-line" d="M 40 411.705 L 42 425.182718447 L 45 415.560436893 L 48 429.56315534 L 51 416.265873786 L 54 410.843592233 L 56 418.54631068 L 59 421.524029126 L 62 414.001747573 L 65 421.704466019 L 68 421.532184466 L 71 408.759902913 L 73 419.612621359 L 76 414.190339806 L 79 433.443058252 L 82 424.345776699 L 85 418.398495146 L 88 410.351213592 L 90 412.278932039 L 93 426.806650485 L 96 437.659368932 L 99 422.262087379 L 102 416.839805825 L 105 421.392524272 L 107 423.320242718 L 110 424.722961165 L 113 425.600679612 L 116 417.028398058 L 119 414.756116505 L 122 435.058834951 L 124 422.811553398 L 127 430.514271845 L 130 420.891990291 L 133 427.019708738 L 136 420.547427184 L 139 420.375145631 L 141 413.902864078 L 144 420.030582524 L 147 421.433300971 L 150 417.061019417 L 153 420.563737864 L 156 419.866456311 L 158 420.744174757 L 161 405.871893204 L 164 405.17461165 L 167 410.777330097 L 170 414.805048544 L 172 415.15776699 L 175 416.035485437 L 178 418.488203883 L 181 408.34092233 L 184 385.593640777 L 187 406.946359223 L 189 405.72407767 L 192 398.726796117 L 195 404.854514563 L 198 414.13223301 L 201 409.759951456 L 204 410.112669903 L 206 396.81538835 L 209 399.268106796 L 212 416.420825243 L 215 407.323543689 L 218 392.451262136 L 221 405.403980583 L 223 413.631699029 L 226 389.309417476 L 229 384.937135922 L 232 393.689854369 L 235 388.267572816 L 238 399.645291262 L 240 398.423009709 L 243 387.750728155 L 246 394.928446602 L 249 395.806165049 L 252 364.658883495 L 255 388.111601942 L 257 372.189320388 L 260 393.017038835 L 263 398.619757282 L 266 386.897475728 L 269 369.925194175 L 272 393.377912621 L 274 367.480631068 L 277 354.708349515 L 280 365.036067961 L 283 365.913786408 L 286 385.691504854 L 288 382.894223301 L 291 383.771941748 L 294 391.474660194 L 297 385.527378641 L 300 365.405097087 L 303 372.582815534 L 305 356.660533981 L 308 345.988252427 L 311 363.140970874 L 314 364.01868932 L 317 385.896407767 L 320 345.824126214 L 322 388.17684466 L 325 382.754563107 L 328 389.407281553 L 331 397.11 L 334 385.912718447 L 337 362.115436893 L 339 360.36815534 L 342 383.295873786 L 345 368.948592233 L 348 385.57631068 L 351 383.829029126 L 354 374.206747573 L 356 376.134466019 L 359 362.312184466 L 362 387.339902913 L 365 376.667621359 L 368 385.420339806 L 371 385.773058252 L 373 384.025776699 L 376 369.153495146 L 379 378.956213592 L 382 377.208932039 L 385 378.611650485 L 388 366.364368932 L 390 380.367087379 L 393 387.019805825 L 396 384.222524272 L 399 380.375242718 L 402 382.302961165 L 404 365.855679612 L 407 369.883398058 L 410 374.961116505 L 413 351.163834951 L 416 366.216553398 L 419 391.244271845 L 421 367.971990291 L 424 352.574708738 L 427 348.727427184 L 430 375.330145631 L 433 376.207864078 L 436 379.185582524 L 438 381.113300971 L 441 374.116019417 L 444 398.093737864 L 447 401.596456311 L 450 388.299174757 L 453 396.001893204 L 455 386.90461165 L 458 385.682330097 L 461 369.235048544 L 464 383.23776699 L 467 394.615485437 L 470 382.893203883 L 472 401.09592233 L 475 415.623640777 L 478 398.126359223 L 481 394.27907767 L 484 406.181796117 L 487 408.634514563 L 489 382.73723301 L 492 392.014951456 L 495 400.767669903 L 498 386.94538835 L 501 399.373106796 L 504 397.625825243 L 506 413.728543689 L 509 398.856262136 L 512 416.533980583 L 515 402.711699029 L 518 395.189417476 L 520 401.317135922 L 523 404.294854369 L 526 404.122572816 L 529 408.675291262 L 532 411.128009709 L 535 414.630728155 L 537 418.133446602 L 540 405.361165049 L 543 417.788883495 L 546 405.541601942 L 549 404.319320388 L 552 415.172038835 L 554 422.874757282 L 557 404.327475728 L 560 418.855194175 L 563 412.907912621 L 566 422.710631068 L 569 406.788349515 L 571 419.741067961 L 574 404.343786408 L 577 419.396504854 L 580 409.249223301 L 583 417.476941748 L 586 416.254660194 L 588 417.132378641 L 591 420.635097087 L 594 412.062815534 L 597 415.565533981 L 600 409.618252427 L 603 427.820970874 L 605 435.52368932 L 608 419.076407767 L 611 421.529126214 L 614 419.25684466 L 617 418.034563107 L 620 424.687281553"/>
		</g>
		<text class="x-axis-label" x="40.0" y="540">
			0
		</text>
		<path class="x-notch" d="M 54.1463414634 525 L 54.1463414634 530"/>
		<text class="x-axis-label" x="68.2926829268" y="540">
			10
		</text>
		<path class="x-notch" d="M 82.4390243902 525 L 82.4390243902 530"/>
		<text class="x-axis-label" x="96.5853658537" y="540">
			20
		</text>
		<path class="x-notch" d="M 110.731707317 525 L 110.731707317 530"/>
		<text class="x-axis-label" x="124.87804878" y="540">
			30
		</text>
		<path class="x-notch" d="M 139.024390244 525 L 139.024390244 530"/>
		<text class="x-axis-label" x="153.170731707" y="540">
			40
		</text>
		<path class="x-notch" d="M 167.317073171 525 L 167.317073171 530"/>
		<text class="x-axis-label" x="181.463414634" y="540">
			50
		</text>
		<path class="x-notch" d="M 195.609756098 525 L 195.609756098 530"/>
		<text class="x-axis-label" x="209.756097561" y="540">
			60
		</text>
		<path class="x-notch" d="M 223.902439024 525 L 223.902439024 530"/>
		<text class="x-axis-label" x="238.048780488" y="540">
			70
		</text>
		<path class="x-notch" d="M 252.195121951 525 L 252.195121951 530"/>
		<text class="x-axis-label" x="266.341463415" y="540">
			80
		</text>
		<path class="x-notch" d="M 280.487804878 525 L 280.487804878 530"/>
		<text class="x-axis-label" x="294.634146341" y="540">
			90
		</text>
		<path class="x-notch" d="M 308.780487805 525 L 308.780487805 530"/>
		<text class="x-axis-label" x="322.926829268" y="540">
			100
		</text>
		<path class="x-notch" d="M 337.073170732 525 L 337.073170732 530"/>
		<text class="x-axis-label" x="351.219512195" y="540">
			110
		</text>
		<path class="x-notch" d="M 365.365853659 525 L 365.365853659 530"/>
		<text class="x-axis-label" x="379.512195122" y="540">
			120
		</text>
		<path class="x-notch" d="M 393.658536585 525 L 393.658536585 530"/>
		<text class="x-axis-label" x="407.804878049" y="540">
			130
		</text>
		<path class="x-notch" d="M 421.951219512 525 L 421.951219512 530"/>
		<text class="x-axis-label" x="436.097560976" y="540">
			140
		</text>
		<path class="x-notch" d="M 450.243902439 525 L 450.243902439 530"/>
		<text class="x-axis-label" x="464.390243902" y="540">
			150
		</text>
		<path class="x-notch" d="M 478.536585366 525 L 478.536585366 530"/>
		<text class="x-axis-label" x="492.682926829" y="540">
			160
		</text>
		<path class="x-notch" d="M 506.829268293 525 L 506.829268293 530"/>
		<text class="x-axis-label" x="520.975609756" y="540">
			170
		</text>
		<path class="x-notch" d="M 535.12195122 525 L 535.12195122 530"/>
		<text class="x-axis-label" x="549.268292683" y="540">
			180
		</text>
		<path class="x-notch" d="M 563.414634146 525 L 563.414634146 530"/>
		<text class="x-axis-label" x="577.56097561" y="540">
			190
		</text>
		<path class="x-notch" d="M 591.707317073 525 L 591.707317073 530"/>
		<text class="x-axis-label" x="605.853658537" y="540">
			200
		</text>
		<path class="x-notch" d="M 620.0 525 L 620.0 530"/>
	</g>
</svg>
