<?xml version="1.0" ?>
<svg height="600" version="1.1" width="800" xmlns="http://www.w3.org/2000/svg" xmlns:svg="http://www.w3.org/2000/svg">
	<style type="text/css">
		

.x-axis-path, .y-gridline, .x-notch { fill:none; stroke: #a7a9ac; stroke-width:1; }



.y-gridline { stroke-width: 1; }

.y-axis-path, .y-axis-path2, .x-notch-left, .x-notch-right { display: none;}



.x-axis-label, .data-point-label {font-size: 12px; font-weight:normal; font-family: sans-serif; fill: #58595b; text-anchor:middle;}

.y-axis-label {font-size: 12px; font-family: helvetica; fill: #a7a9ac; text-anchor:end;}



.series-1-line { fill: none; stroke: #10b80c; stroke-width:2; }



.series-2-line { fill: none; stroke: #e90f0a; stroke-width: 2;}

	</style>
	<rect fill="white" height="600" width="800" x="0" y="0"/>
	<g id="grid" transform="translate(70, 30)">
		<g class="x-axis" id="x_axis">
			<path class="x-axis-path" d="M 0 525 L 660 525"/>
			<path class="x-notch-left" d="M 0 525, L 0 535"/>
			<path class="x-notch-right" d="M 660 525, L 660 535"/>
		</g>
		<g class="y-axis" id="y_axis">
			<path class="y-axis-path" d="M 0 525 L 0 0"/>
			<path class="y-axis-path-2" d="M 660 525 L 660 0"/>
			<path class="y-gridline" d="M 0 525 L 660 525"/>
			<text class="y-axis-label" x="-5" y="525">
				-300
			</text>
			<path class="y-gridline" d="M 0 420 L 660 420"/>
			<text class="y-axis-label" x="-5" y="420">
				 0
			</text>
			<path class="y-gridline" d="M 0 315 L 660 315"/>
			<text class="y-axis-label" x="-5" y="315">
				300
			</text>
			<path class="y-gridline" d="M 0 210 L 660 210"/>
			<text class="y-axis-label" x="-5" y="210">
				600
			</text>
			<path class="y-gridline" d="M 0 105 L 660 105"/>
			<text class="y-axis-label" x="-5" y="105">
				900
			</text>
			<path class="y-gridline" d="M 0 0 L 660 0"/>
			<text class="y-axis-label" x="-5" y="0">
				1200
			</text>
		</g>
		<g>
			<path class="series-1-line" d="M 40 440.688749751 L 43 409.016341858 L 47 422.010355597 L 51 409.367373553 L 55 414.907994067 L 59 400.612919769 L 63 405.82112414 L 67 408.749161524 L 71 400.191262247 L 75 391.825341284 L 79 415.037755367 L 83 398.847669326 L 87 424.301495148 L 90 411.133119799 L 94 405.917161429 L 98 398.012108281 L 102 398.046686875 L 106 408.594525325 L 110 385.732343859 L 114 370.745867955 L 118 383.624415028 L 122 394.684262238 L 126 418.101439871 L 130 384.316870988 L 134 387.28366362 L 137 413.223927729 L 141 374.597949444 L 145 415.341519496 L 149 365.101152878 L 153 366.083037574 L 157 333.770568789 L 161 363.245151658 L 165 382.565060595 L 169 370.139427568 L 173 362.60574558 L 177 342.112828216 L 181 355.861570436 L 185 400.844045629 L 188 354.189338486 L 192 369.231786803 L 196 378.460348683 L 200 349.758910075 L 204 364.865883883 L 208 362.519012446 L 212 346.571046818 L 216 333.044285314 L 220 323.359487319 L 224 319.666969762 L 228 329.523206836 L 232 313.806773846 L 235 295.516712743 L 239 336.580313241 L 243 365.184301426 L 247 337.392012981 L 251 324.838327822 L 255 287.109114001 L 259 339.108886 L 263 281.13345142 L 267 301.516133125 L 271 306.173373719 L 275 344.612005389 L 279 338.474511159 L 282 355.515052187 L 286 319.98789555 L 290 293.424787714 L 294 298.21028021 L 298 307.426256622 L 302 292.938604702 L 306 290.668244915 L 310 282.54544321 L 314 298.011202711 L 318 287.071054326 L 322 323.678800204 L 326 286.601833204 L 330 235.503457369 L 333 266.514466057 L 337 267.688329067 L 341 279.888659308 L 345 248.562052104 L 349 210.0 L 353 272.256528051 L 357 267.668244876 L 361 306.798477923 L 365 308.472163764 L 369 296.764102124 L 373 313.932495515 L 377 315.708463247 L 380 299.928104076 L 384 279.793572868 L 388 280.046299556 L 392 288.301785091 L 396 332.720311502 L 400 329.092918743 L 404 325.170466702 L 408 336.973655541 L 412 350.440922793 L 416 346.582197164 L 420 339.189552314 L 424 367.486095519 L 427 340.590971078 L 431 366.121508318 L 435 376.758443883 L 439 353.256401295 L 443 345.377318157 L 447 341.570332782 L 451 357.471589394 L 455 400.943009472 L 459 379.976239288 L 463 382.380281753 L 467 397.012803432 L 471 375.124497388 L 475 425.139161681 L 478 419.885047372 L 482 413.952316692 L 486 388.311743563 L 490 441.374887637 L 494 418.88467664 L 498 416.755154221 L 502 419.056115718 L 506 435.174521578 L 510 435.657182751 L 514 418.865191757 L 518 422.587711716 L 522 426.092483119 L 525 440.302892231 L 529 430.822857785 L 533 422.866663692 L 537 442.18637286 L 541 433.013383855 L 545 435.135152275 L 549 428.26750119 L 553 426.983002983 L 557 446.533445712 L 561 402.183477181 L 565 422.079720599 L 569 419.463360354 L 572 430.856223015 L 576 434.207771352 L 580 435.023248207 L 584 431.049455451 L 588 406.292262243 L 592 433.013824152 L 596 418.180771083 L 600 409.674012751 L 604 428.225608894 L 608 418.207595678 L 612 414.374640291 L 616 420.184749614 L 620 425.021183286"/>
			<path class="series-2-line" d="M 40 402.420300087 L 43 410.944684776 L 47 424.463302396 L 51 444.474422824 L 55 413.044944074 L 59 418.073365713 L 63 438.583909434 L 67 386.178652379 L 71 411.68342903 L 75 426.700316528 L 79 384.782948626 L 83 412.784841742 L 87 410.821337278 L 90 395.872827197 L 94 386.917396632 L 98 388.44985522 L 102 397.973086495 L 106 384.023423 L 110 381.560495244 L 114 397.076806035 L 118 389.619645349 L 122 354.194780256 L 126 299.791830029 L 130 384.727978545 L 134 365.284658827 L 137 345.841339109 L 141 348.372644283 L 145 317.942012119 L 149 359.927757439 L 153 338.486744549 L 157 368.98575413 L 161 343.549354896 L 165 344.082966898 L 169 330.133303403 L 173 332.165185284 L 177 349.679189247 L 181 284.288926574 L 185 274.334649423 L 188 321.814050966 L 192 288.386879044 L 196 246.469511142 L 200 258.989282175 L 204 274.006169673 L 208 323.982687681 L 212 236.118376824 L 216 238.150258704 L 220 264.154458648 L 224 212.248624886 L 228 189.309342117 L 232 201.829113151 L 235 245.812551642 L 239 204.394607033 L 243 197.936292933 L 247 204.962407743 L 251 191.512167541 L 255 229.502526517 L 259 196.075354595 L 263 198.107236476 L 267 188.652382618 L 271 178.198682174 L 275 156.757669284 L 279 194.248604967 L 282 199.776449898 L 286 186.326209696 L 290 176.871355838 L 294 185.395740527 L 298 164.953574224 L 302 122.037359735 L 306 140.550210284 L 310 137.088435942 L 314 174.079948332 L 318 162.127978009 L 322 173.149479163 L 326 128.734994796 L 330 168.223623651 L 333 117.316636475 L 337 85.3877344321 L 341 125.37578658 L 345 138.394980906 L 349 130.93782022 L 353 36.0815832609 L 357 46.1042378293 L 361 33.6528442133 L 365 40.6789590237 L 369 70.6785453116 L 373 56.2294585236 L 377 47.2740279585 L 380 69.7822648516 L 384 70.3158768532 L 388 123.788357912 L 392 97.3531120918 L 396 38.954775521 L 400 93.9255264582 L 404 97.4556782178 L 408 121.46218499 L 412 80.5436636735 L 416 54.6078411468 L 420 73.620114989 L 424 56.6739117361 L 427 138.114097202 L 431 124.164433707 L 435 57.275901155 L 439 96.2651067167 L 443 132.757195813 L 447 157.263125878 L 451 204.243104128 L 455 196.286520149 L 459 209.805137768 L 463 258.782809189 L 467 211.371785064 L 471 271.336768931 L 475 216.434395411 L 478 232.949552789 L 482 257.954906147 L 486 299.441228173 L 490 314.458115672 L 494 370.927136488 L 498 386.942870572 L 502 373.992053663 L 506 367.533739563 L 510 365.5702351 L 514 390.076165165 L 518 389.111507287 L 522 383.15261648 L 525 382.187958603 L 529 395.706576222 L 533 405.229807497 L 537 386.285911073 L 541 371.337400992 L 545 366.876780063 L 549 381.893667562 L 553 382.926702856 L 557 386.456854616 L 561 405.469128458 L 565 413.494089854 L 569 408.03462234 L 572 379.102260056 L 576 416.593195738 L 580 401.644685657 L 584 393.688101678 L 588 414.198645399 L 592 409.238601178 L 596 400.782593906 L 600 418.296597869 L 604 421.826749629 L 608 421.860938337 L 612 411.407237893 L 616 435.413744665 L 620 416.46984824"/>
		</g>
		<text class="x-axis-label" x="40.0" y="540">
			0
		</text>
		<path class="x-notch" d="M 59.5945945946 525 L 59.5945945946 530"/>
		<text class="x-axis-label" x="79.1891891892" y="540">
			10
		</text>
		<path class="x-notch" d="M 98.7837837838 525 L 98.7837837838 530"/>
		<text class="x-axis-label" x="118.378378378" y="540">
			20
		</text>
		<path class="x-notch" d="M 137.972972973 525 L 137.972972973 530"/>
		<text class="x-axis-label" x="157.567567568" y="540">
			30
		</text>
		<path class="x-notch" d="M 177.162162162 525 L 177.162162162 530"/>
		<text class="x-axis-label" x="196.756756757" y="540">
			40
		</text>
		<path class="x-notch" d="M 216.351351351 525 L 216.351351351 530"/>
		<text class="x-axis-label" x="235.945945946" y="540">
			50
		</text>
		<path class="x-notch" d="M 255.540540541 525 L 255.540540541 530"/>
		<text class="x-axis-label" x="275.135135135" y="540">
			60
		</text>
		<path class="x-notch" d="M 294.72972973 525 L 294.72972973 530"/>
		<text class="x-axis-label" x="314.324324324" y="540">
			70
		</text>
		<path class="x-notch" d="M 333.918918919 525 L 333.918918919 530"/>
		<text class="x-axis-label" x="353.513513514" y="540">
			80
		</text>
		<path class="x-notch" d="M 373.108108108 525 L 373.108108108 530"/>
		<text class="x-axis-label" x="392.702702703" y="540">
			90
		</text>
		<path class="x-notch" d="M 412.297297297 525 L 412.297297297 530"/>
		<text class="x-axis-label" x="431.891891892" y="540">
			100
		</text>
		<path class="x-notch" d="M 451.486486486 525 L 451.486486486 530"/>
		<text class="x-axis-label" x="471.081081081" y="540">
			110
		</text>
		<path class="x-notch" d="M 490.675675676 525 L 490.675675676 530"/>
		<text class="x-axis-label" x="510.27027027" y="540">
			120
		</text>
		<path class="x-notch" d="M 529.864864865 525 L 529.864864865 530"/>
		<text class="x-axis-label" x="549.459459459" y="540">
			130
		</text>
		<path class="x-notch" d="M 569.054054054 525 L 569.054054054 530"/>
		<text class="x-axis-label" x="588.648648649" y="540">
			140
		</text>
		<path class="x-notch" d="M 608.243243243 525 L 608.243243243 530"/>
	</g>
</svg>
