<?xml version="1.0" ?>
<svg height="600" version="1.1" width="800" xmlns="http://www.w3.org/2000/svg" xmlns:svg="http://www.w3.org/2000/svg">
	<style type="text/css">
		

.x-axis-path, .y-gridline, .x-notch { fill:none; stroke: #a7a9ac; stroke-width:1; }



.y-gridline { stroke-width: 1; }

.y-axis-path, .y-axis-path2, .x-notch-left, .x-notch-right { display: none;}



.x-axis-label, .data-point-label {font-size: 12px; font-weight:normal; font-family: sans-serif; fill: #58595b; text-anchor:middle;}

.y-axis-label {font-size: 12px; font-family: helvetica; fill: #a7a9ac; text-anchor:end;}



.series-1-line { fill: none; stroke: #10b80c; stroke-width:2; }



.series-2-line { fill: none; stroke: #e90f0a; stroke-width: 2;}

	</style>
	<rect fill="white" height="600" width="800" x="0" y="0"/>
	<g id="grid" transform="translate(70, 30)">
		<g class="x-axis" id="x_axis">
			<path class="x-axis-path" d="M 0 525 L 660 525"/>
			<path class="x-notch-left" d="M 0 525, L 0 535"/>
			<path class="x-notch-right" d="M 660 525, L 660 535"/>
		</g>
		<g class="y-axis" id="y_axis">
			<path class="y-axis-path" d="M 0 525 L 0 0"/>
			<path class="y-axis-path-2" d="M 660 525 L 660 0"/>
			<path class="y-gridline" d="M 0 525 L 660 525"/>
			<text class="y-axis-label" x="-5" y="525">
				-200
			</text>
			<path class="y-gridline" d="M 0 420 L 660 420"/>
			<text class="y-axis-label" x="-5" y="420">
				 0
			</text>
			<path class="y-gridline" d="M 0 315 L 660 315"/>
			<text class="y-axis-label" x="-5" y="315">
				200
			</text>
			<path class="y-gridline" d="M 0 210 L 660 210"/>
			<text class="y-axis-label" x="-5" y="210">
				400
			</text>
			<path class="y-gridline" d="M 0 105 L 660 105"/>
			<text class="y-axis-label" x="-5" y="105">
				600
			</text>
			<path class="y-gridline" d="M 0 0 L 660 0"/>
			<text class="y-axis-label" x="-5" y="0">
				800
			</text>
		</g>
		<g>
			<path class="series-1-line" d="M 40 419.151726 L 42 445.2820554 L 45 397.4554248 L 47 427.5434142 L 50 408.6986736 L 52 429.659643 L 55 401.4728424 L 57 391.9161918 L 60 377.5272312 L 62 417.6983706 L 65 422.66763 L 67 409.8131394 L 70 382.4207688 L 72 415.5514482 L 75 429.0141576 L 77 401.487387 L 80 409.3771164 L 83 411.1153158 L 85 410.1075552 L 88 434.1647646 L 90 397.914594 L 93 404.5663734 L 95 429.9829128 L 98 404.1796122 L 100 418.0598016 L 103 413.537901 L 105 353.8244304 L 108 398.4372798 L 110 370.8699792 L 113 395.9370786 L 115 369.325488 L 118 389.9092974 L 121 355.8807168 L 123 386.7488562 L 126 416.3660256 L 128 358.388835 L 131 354.3791244 L 133 393.4454538 L 136 398.0778732 L 138 367.2927426 L 141 360.496542 L 143 338.2456014 L 146 363.8780208 L 148 369.9233202 L 151 360.5021196 L 153 344.107869 L 156 344.2845084 L 159 304.7898378 L 161 304.3066572 L 164 283.0122666 L 166 284.063766 L 169 334.7472954 L 171 296.8015848 L 174 311.9608842 L 176 306.2814636 L 179 328.239303 L 181 296.0809824 L 184 301.2789318 L 186 282.0442212 L 189 313.0072806 L 191 301.09464 L 194 307.2890394 L 197 248.2484088 L 199 308.3684982 L 202 247.9555176 L 204 247.754997 L 207 259.9259964 L 209 204.1298658 L 212 239.6963352 L 214 226.3983246 L 217 238.460964 L 219 208.6855134 L 222 190.9189128 L 224 277.5185322 L 227 198.4466316 L 229 169.802031 L 232 205.2880704 L 235 160.8934698 L 237 179.8621692 L 240 178.1002986 L 242 167.615028 L 245 117.7146474 L 247 121.2292368 L 250 163.0833162 L 252 116.1307056 L 255 129.446625 L 257 175.7550144 L 260 133.9322838 L 262 104.3993832 L 265 112.3569426 L 267 86.714502 L 270 104.4177414 L 273 81.3864408 L 275 120.7629402 L 278 76.8668796 L 280 94.368099 L 283 157.2893784 L 285 81.8391378 L 288 70.4250372 L 290 176.7056466 L 293 138.274416 L 295 106.2378954 L 298 163.6395348 L 300 133.1643642 L 303 202.8018636 L 305 113.042643 L 308 151.5709524 L 311 130.0203618 L 313 173.5298712 L 316 135.0984306 L 318 119.33691 L 321 171.2457894 L 323 108.5440188 L 326 155.4044982 L 328 84.7737576 L 331 103.325187 L 333 113.2613664 L 336 126.9536058 L 338 165.4953552 L 341 171.9047946 L 343 197.927184 L 346 210.4083534 L 348 217.8272628 L 351 240.6328722 L 354 233.7423816 L 356 259.104951 L 359 213.0549204 L 361 214.4566998 L 364 208.8719892 L 366 213.7595586 L 369 218.351238 L 371 228.0320574 L 374 247.5389868 L 376 276.6313662 L 379 209.9446356 L 381 206.621415 L 384 294.0016044 L 386 242.8223238 L 389 223.8570432 L 392 234.7894626 L 394 285.688662 L 397 256.6809714 L 399 274.4652708 L 402 267.4397502 L 404 249.1737696 L 407 243.051039 L 409 239.3372184 L 412 290.7213078 L 414 292.1631972 L 417 250.9053666 L 419 323.895306 L 422 245.9952054 L 424 338.7331248 L 427 319.5391542 L 430 316.9557636 L 432 329.032473 L 435 330.0841824 L 437 347.7739818 L 440 329.2257612 L 442 359.2875006 L 445 315.56595 L 447 340.3634094 L 450 315.5689488 L 452 356.1302682 L 455 365.4202776 L 457 371.479437 L 460 375.5196564 L 462 324.4348758 L 465 375.6173652 L 468 362.0360646 L 470 370.397034 L 473 380.2660134 L 475 377.2254528 L 478 377.0652522 L 480 387.0283116 L 483 414.545481 L 485 375.9531804 L 488 389.7258498 L 490 389.9430192 L 493 383.9941686 L 495 387.630768 L 498 402.0628374 L 500 399.1837668 L 503 421.4641662 L 506 394.2194256 L 508 388.244535 L 511 404.2381644 L 513 405.7210038 L 516 415.9259832 L 518 417.3949626 L 521 411.002802 L 523 431.0752614 L 526 426.2037108 L 528 410.9804202 L 531 392.8223796 L 533 427.595259 L 536 424.2991284 L 538 415.8871878 L 541 420.0349272 L 544 420.3999366 L 546 423.820866 L 549 418.2222954 L 551 434.1491448 L 554 442.6986942 L 556 435.6733836 L 559 437.519103 L 561 429.1747824 L 564 422.8628418 L 566 427.8856512 L 569 420.5911206 L 571 419.47542 L 574 424.6597194 L 576 429.1306488 L 579 428.2841682 L 582 414.9183276 L 584 430.804437 L 587 430.8330264 L 589 415.2867558 L 592 414.4131852 L 594 426.6379446 L 597 426.626004 L 599 425.1467934 L 602 423.3446028 L 604 432.3250722 L 607 421.5842316 L 609 417.183921 L 612 418.9490004 L 614 423.5814198 L 617 419.4637692 L 620 423.6249486"/>
			<path class="series-2-line" d="M 40 400.785 L 42 389.042804348 L 45 448.700608696 L 47 433.808413043 L 50 415.241217391 L 52 390.899021739 L 55 396.481826087 L 57 341.689630435 L 60 324.172434783 L 62 353.90523913 L 65 387.838043478 L 67 356.145847826 L 70 381.153652174 L 72 403.536456522 L 75 361.34426087 L 77 407.352065217 L 80 374.609869565 L 83 380.192673913 L 85 404.675478261 L 88 388.733282609 L 90 403.241086957 L 93 420.373891304 L 95 376.606695652 L 98 460.9395 L 100 435.547304348 L 103 393.880108696 L 105 424.137913043 L 108 395.595717391 L 110 427.428521739 L 113 438.261326087 L 115 464.319130435 L 118 416.876934783 L 121 473.90973913 L 123 398.642543478 L 126 416.300347826 L 128 421.358152174 L 131 443.215956522 L 133 378.97376087 L 136 383.506565217 L 138 364.414369565 L 141 390.997173913 L 143 330.429978261 L 146 334.962782609 L 148 282.795586957 L 151 309.378391304 L 153 338.586195652 L 156 342.069 L 159 330.326804348 L 161 313.859608696 L 164 329.417413043 L 166 319.250217391 L 169 244.508021739 L 171 318.865826087 L 174 319.198630435 L 176 294.331434783 L 179 339.81423913 L 181 309.697043478 L 184 328.404847826 L 186 350.262652174 L 189 342.195456522 L 191 265.87826087 L 194 313.461065217 L 197 320.618869565 L 199 247.976673913 L 202 326.009478261 L 204 306.392282609 L 207 322.475086957 L 209 355.882891304 L 212 305.290695652 L 214 342.8985 L 217 293.881304348 L 219 281.089108696 L 222 381.171913043 L 224 375.204717391 L 227 333.537521739 L 229 328.620326087 L 232 311.103130435 L 235 306.185934783 L 237 285.51873913 L 240 284.276543478 L 242 251.534347826 L 245 245.567152174 L 247 199.174956522 L 250 253.05776087 L 252 217.165565217 L 255 300.448369565 L 257 212.056173913 L 260 276.963978261 L 262 287.796782609 L 265 305.979586957 L 267 324.162391304 L 270 296.145195652 L 273 275.478 L 275 265.310804348 L 278 305.543608696 L 280 268.076413043 L 283 311.459217391 L 285 319.142021739 L 288 287.974826087 L 290 303.532630435 L 293 289.690434783 L 295 322.57323913 L 298 326.056043478 L 300 340.563847826 L 303 277.896652174 L 305 347.529456522 L 308 326.33726087 L 311 299.895065217 L 313 320.702869565 L 316 286.385673913 L 318 319.268478261 L 321 278.651282609 L 323 324.659086957 L 326 252.541891304 L 328 286.474695652 L 331 269.4825 L 333 265.615304348 L 336 290.098108696 L 338 266.805913043 L 341 280.788717391 L 343 244.896521739 L 346 315.054326087 L 348 314.862130435 L 351 330.419934783 L 354 351.22773913 L 356 295.385543478 L 359 323.543347826 L 361 340.676152174 L 364 362.533956522 L 366 306.69176087 L 369 276.574565217 L 371 312.607369565 L 374 269.365173913 L 376 307.497978261 L 379 319.905782609 L 381 337.038586957 L 384 311.646391304 L 386 300.429195652 L 389 341.712 L 392 346.244804348 L 394 299.327608696 L 397 330.635413043 L 399 330.968217391 L 402 311.351021739 L 404 284.383826087 L 407 349.291630435 L 409 345.424434783 L 412 325.28223913 L 414 315.640043478 L 417 333.297847826 L 419 321.030652174 L 422 342.363456522 L 424 320.64626087 L 427 377.154065217 L 430 340.211869565 L 432 350.519673913 L 435 360.827478261 L 437 334.910282609 L 440 352.043086957 L 442 402.775891304 L 445 395.233695652 L 447 366.1665 L 450 374.899304348 L 452 384.682108696 L 455 379.239913043 L 457 365.922717391 L 460 380.955521739 L 462 395.988326087 L 465 407.346130435 L 468 386.678934783 L 470 362.33673913 L 473 368.969543478 L 475 382.952347826 L 478 357.035152174 L 480 348.967956522 L 483 366.62576087 L 485 398.458565217 L 488 389.866369565 L 490 407.524173913 L 493 363.231978261 L 495 400.314782609 L 498 370.722586957 L 500 379.980391304 L 503 375.063195652 L 506 356.496 L 508 398.303804348 L 511 370.811608696 L 513 416.294413043 L 516 370.427217391 L 518 377.060021739 L 521 422.542826087 L 523 393.475630435 L 526 385.933434783 L 528 396.24123913 L 531 393.424043478 L 533 405.306847826 L 536 438.714652174 L 538 430.647456522 L 541 428.88026087 L 544 423.438065217 L 546 432.695869565 L 549 415.703673913 L 551 439.661478261 L 554 426.869282609 L 556 427.727086957 L 559 416.509891304 L 561 438.892695652 L 564 430.8255 L 566 435.883304348 L 569 437.791108696 L 571 438.123913043 L 574 438.456717391 L 576 447.714521739 L 579 446.997326087 L 582 433.680130435 L 584 422.987934783 L 587 429.09573913 L 589 448.853543478 L 592 431.861347826 L 594 439.544152174 L 597 431.476956522 L 599 427.08476087 L 602 432.142565217 L 604 434.050369565 L 607 420.733173913 L 609 421.590978261 L 612 422.973782609 L 614 427.506586957 L 617 425.214391304 L 620 421.347195652"/>
		</g>
		<text class="x-axis-label" x="40.0" y="540">
			0
		</text>
		<path class="x-notch" d="M 52.6637554585 525 L 52.6637554585 530"/>
		<text class="x-axis-label" x="65.327510917" y="540">
			10
		</text>
		<path class="x-notch" d="M 77.9912663755 525 L 77.9912663755 530"/>
		<text class="x-axis-label" x="90.6550218341" y="540">
			20
		</text>
		<path class="x-notch" d="M 103.318777293 525 L 103.318777293 530"/>
		<text class="x-axis-label" x="115.982532751" y="540">
			30
		</text>
		<path class="x-notch" d="M 128.64628821 525 L 128.64628821 530"/>
		<text class="x-axis-label" x="141.310043668" y="540">
			40
		</text>
		<path class="x-notch" d="M 153.973799127 525 L 153.973799127 530"/>
		<text class="x-axis-label" x="166.637554585" y="540">
			50
		</text>
		<path class="x-notch" d="M 179.301310044 525 L 179.301310044 530"/>
		<text class="x-axis-label" x="191.965065502" y="540">
			60
		</text>
		<path class="x-notch" d="M 204.628820961 525 L 204.628820961 530"/>
		<text class="x-axis-label" x="217.292576419" y="540">
			70
		</text>
		<path class="x-notch" d="M 229.956331878 525 L 229.956331878 530"/>
		<text class="x-axis-label" x="242.620087336" y="540">
			80
		</text>
		<path class="x-notch" d="M 255.283842795 525 L 255.283842795 530"/>
		<text class="x-axis-label" x="267.947598253" y="540">
			90
		</text>
		<path class="x-notch" d="M 280.611353712 525 L 280.611353712 530"/>
		<text class="x-axis-label" x="293.27510917" y="540">
			100
		</text>
		<path class="x-notch" d="M 305.938864629 525 L 305.938864629 530"/>
		<text class="x-axis-label" x="318.602620087" y="540">
			110
		</text>
		<path class="x-notch" d="M 331.266375546 525 L 331.266375546 530"/>
		<text class="x-axis-label" x="343.930131004" y="540">
			120
		</text>
		<path class="x-notch" d="M 356.593886463 525 L 356.593886463 530"/>
		<text class="x-axis-label" x="369.257641921" y="540">
			130
		</text>
		<path class="x-notch" d="M 381.92139738 525 L 381.92139738 530"/>
		<text class="x-axis-label" x="394.585152838" y="540">
			140
		</text>
		<path class="x-notch" d="M 407.248908297 525 L 407.248908297 530"/>
		<text class="x-axis-label" x="419.912663755" y="540">
			150
		</text>
		<path class="x-notch" d="M 432.576419214 525 L 432.576419214 530"/>
		<text class="x-axis-label" x="445.240174672" y="540">
			160
		</text>
		<path class="x-notch" d="M 457.903930131 525 L 457.903930131 530"/>
		<text class="x-axis-label" x="470.56768559" y="540">
			170
		</text>
		<path class="x-notch" d="M 483.231441048 525 L 483.231441048 530"/>
		<text class="x-axis-label" x="495.895196507" y="540">
			180
		</text>
		<path class="x-notch" d="M 508.558951965 525 L 508.558951965 530"/>
		<text class="x-axis-label" x="521.222707424" y="540">
			190
		</text>
		<path class="x-notch" d="M 533.886462882 525 L 533.886462882 530"/>
		<text class="x-axis-label" x="546.550218341" y="540">
			200
		</text>
		<path class="x-notch" d="M 559.213973799 525 L 559.213973799 530"/>
		<text class="x-axis-label" x="571.877729258" y="540">
			210
		</text>
		<path class="x-notch" d="M 584.541484716 525 L 584.541484716 530"/>
		<text class="x-axis-label" x="597.205240175" y="540">
			220
		</text>
		<path class="x-notch" d="M 609.868995633 525 L 609.868995633 530"/>
	</g>
</svg>
