<?xml version="1.0" ?>
<svg height="600" version="1.1" width="800" xmlns="http://www.w3.org/2000/svg" xmlns:svg="http://www.w3.org/2000/svg">
	<style type="text/css">

.x-axis-path, .y-gridline, .x-notch { fill:none; stroke: #a7a9ac; stroke-width:1; }



.y-gridline { stroke-width: 1; }

.y-axis-path, .y-axis-path2, .x-notch-left, .x-notch-right { display: none;}



.x-axis-label, .data-point-label {font-size: 12px; font-weight:normal; font-family: sans-serif; fill: #58595b; text-anchor:middle;}

.y-axis-label {font-size: 12px; font-family: helvetica; fill: #a7a9ac; text-anchor:end;}



.series-1-line { fill: none; stroke: #10b80c; stroke-width:2; }



.series-2-line { fill: none; stroke: #e90f0a; stroke-width: 2;}
</style>
	<rect fill="white" height="600" width="800" x="0" y="0"/>
	<g id="grid" transform="translate(70, 30)">
		<g class="x-axis" id="x_axis">
			<path class="x-axis-path" d="M 0 525 L 660 525"/>
			<path class="x-notch-left" d="M 0 525, L 0 535"/>
			<path class="x-notch-right" d="M 660 525, L 660 535"/>
		</g>
		<g class="y-axis" id="y_axis">
			<path class="y-axis-path" d="M 0 525 L 0 0"/>
			<path class="y-axis-path-2" d="M 660 525 L 660 0"/>
			<path class="y-gridline" d="M 0 525 L 660 525"/>
			<text class="y-axis-label" x="-5" y="525">-200</text>
			<path class="y-gridline" d="M 0 394 L 660 394"/>
			<text class="y-axis-label" x="-5" y="394"> 0</text>
			<path class="y-gridline" d="M 0 263 L 660 263"/>
			<text class="y-axis-label" x="-5" y="263">200</text>
			<path class="y-gridline" d="M 0 132 L 660 132"/>
			<text class="y-axis-label" x="-5" y="132">400</text>
			<path class="y-gridline" d="M 0 1 L 660 1"/>
			<text class="y-axis-label" x="-5" y="1">600</text>
		</g>
		<g>
			<path class="series-1-line" d="M 40 371.621903355 L 46 398.544947296 L 52 383.416442262 L 58 412.633536868 L 64 399.702917248 L 71 396.250165966 L 77 395.091216861 L 83 407.264449339 L 89 394.716254327 L 96 386.484810632 L 102 381.454899517 L 108 375.564967892 L 114 411.296947719 L 121 387.710124811 L 127 388.621834739 L 133 387.462637145 L 139 362.537700845 L 146 387.836372038 L 152 368.486535472 L 158 396.174428627 L 164 383.228154199 L 170 335.97101237 L 177 310.823181416 L 183 315.111608686 L 189 300.42914145 L 195 258.189489986 L 202 221.891708055 L 208 179.795683246 L 214 158.645792193 L 220 115.928544826 L 227 127.146088519 L 233 26.9896093914 L 239 105.442567622 L 245 83.5121725452 L 252 107.329600669 L 258 26.2714909169 L 264 71.1148177718 L 270 22.4877559564 L 276 0.0 L 283 95.5765853352 L 289 100.550096843 L 295 58.6131050102 L 301 30.7415858686 L 308 53.6987449924 L 314 31.5613585593 L 320 7.94248056746 L 326 136.762424457 L 333 187.594833759 L 339 188.267497247 L 345 168.981522359 L 351 193.324256279 L 358 212.092138954 L 364 141.101065015 L 370 190.977785531 L 376 140.917190539 L 383 205.846630638 L 389 215.120990167 L 395 238.969976396 L 401 228.874865024 L 407 256.769501047 L 414 258.668954844 L 420 258.258703167 L 426 305.586920258 L 432 265.051903496 L 439 303.619143082 L 445 304.690134475 L 451 319.857908176 L 457 308.584213365 L 464 360.850155844 L 470 364.85207527 L 476 403.307743284 L 482 407.851120292 L 489 396.880085113 L 495 382.229175982 L 501 404.134978047 L 507 403.342301763 L 513 398.551437089 L 520 398.316121684 L 526 372.260311838 L 532 391.012291216 L 538 391.764471191 L 545 389.10812723 L 551 395.610840189 L 557 395.104920238 L 563 411.546945652 L 570 393.216659549 L 576 396.772292689 L 582 393.733772609 L 588 388.289878781 L 595 397.197717 L 601 394.827880883 L 607 386.596437188 L 613 393.417713076 L 620 400.955631307"/>
			<path class="series-2-line" d="M 40 410.274520069 L 46 381.570072593 L 52 395.729981688 L 58 396.844217044 L 64 383.049110984 L 71 392.860462166 L 77 408.262816378 L 83 403.164826144 L 89 402.415393823 L 96 406.635741974 L 102 395.946748709 L 108 398.303429182 L 114 400.660109656 L 121 401.774345012 L 127 409.100805958 L 133 400.27548037 L 139 392.071377341 L 146 398.776615727 L 152 393.057402934 L 158 390.444302936 L 164 403.361766913 L 170 390.187883412 L 177 392.544563886 L 183 381.855570621 L 189 399.12159251 L 195 378.493038301 L 202 400.107618104 L 208 405.570411372 L 214 389.911637636 L 220 395.374430904 L 227 394.003776024 L 233 395.739233939 L 239 396.232246736 L 245 381.194695558 L 252 400.945607683 L 258 379.074608357 L 264 389.507182097 L 270 371.984740683 L 276 371.235308362 L 283 389.74377537 L 289 393.342900961 L 295 373.956791871 L 301 389.359146083 L 308 397.928052147 L 314 390.966394236 L 320 372.822730263 L 326 390.088752152 L 333 386.854429595 L 339 382.998884479 L 345 391.567790543 L 351 377.772684483 L 358 385.720367988 L 364 368.197926574 L 370 368.690939371 L 376 356.759500988 L 383 359.116181461 L 389 370.169977761 L 395 360.723429614 L 401 364.943777765 L 407 330.027104699 L 414 352.88412962 L 420 372.635041745 L 426 383.067615486 L 432 387.287963636 L 439 383.43241852 L 445 390.137656907 L 451 378.206218524 L 457 396.714685532 L 464 387.889359944 L 470 397.700711125 L 476 387.01171786 L 482 385.019840421 L 489 404.770752546 L 495 392.839314164 L 501 395.817217196 L 507 402.522455583 L 513 403.01546838 L 520 395.43258791 L 526 394.06193303 L 532 404.49450677 L 538 388.214510474 L 545 394.919748861 L 551 402.246209807 L 557 412.678783547 L 563 395.777564693 L 570 400.619135402 L 576 383.096693988 L 582 400.983938437 L 588 406.446731706 L 595 401.969964031 L 601 388.174857971 L 607 392.395206121 L 613 398.479221949 L 620 389.653896361"/>
		</g>
		<text class="x-axis-label" x="40.0" y="540">0</text>
		<path class="x-notch" d="M 71.1827956989 525 L 71.1827956989 530"/>
		<text class="x-axis-label" x="102.365591398" y="540">10</text>
		<path class="x-notch" d="M 133.548387097 525 L 133.548387097 530"/>
		<text class="x-axis-label" x="164.731182796" y="540">20</text>
		<path class="x-notch" d="M 195.913978495 525 L 195.913978495 530"/>
		<text class="x-axis-label" x="227.096774194" y="540">30</text>
		<path class="x-notch" d="M 258.279569892 525 L 258.279569892 530"/>
		<text class="x-axis-label" x="289.462365591" y="540">40</text>
		<path class="x-notch" d="M 320.64516129 525 L 320.64516129 530"/>
		<text class="x-axis-label" x="351.827956989" y="540">50</text>
		<path class="x-notch" d="M 383.010752688 525 L 383.010752688 530"/>
		<text class="x-axis-label" x="414.193548387" y="540">60</text>
		<path class="x-notch" d="M 445.376344086 525 L 445.376344086 530"/>
		<text class="x-axis-label" x="476.559139785" y="540">70</text>
		<path class="x-notch" d="M 507.741935484 525 L 507.741935484 530"/>
		<text class="x-axis-label" x="538.924731183" y="540">80</text>
		<path class="x-notch" d="M 570.107526882 525 L 570.107526882 530"/>
		<text class="x-axis-label" x="601.290322581" y="540">90</text>
		<path class="x-notch" d="M 632.47311828 525 L 632.47311828 530"/>
	</g>
</svg>
