<?xml version="1.0" ?>
<svg height="600" version="1.1" width="800" xmlns="http://www.w3.org/2000/svg" xmlns:svg="http://www.w3.org/2000/svg">
	<style type="text/css">
		

.x-axis-path, .y-gridline, .x-notch { fill:none; stroke: #a7a9ac; stroke-width:1; }



.y-gridline { stroke-width: 1; }

.y-axis-path, .y-axis-path2, .x-notch-left, .x-notch-right { display: none;}



.x-axis-label, .data-point-label {font-size: 12px; font-weight:normal; font-family: sans-serif; fill: #58595b; text-anchor:middle;}

.y-axis-label {font-size: 12px; font-family: helvetica; fill: #a7a9ac; text-anchor:end;}



.series-1-line { fill: none; stroke: #10b80c; stroke-width:2; }



.series-2-line { fill: none; stroke: #e90f0a; stroke-width: 2;}

	</style>
	<rect fill="white" height="600" width="800" x="0" y="0"/>
	<g id="grid" transform="translate(70, 30)">
		<g class="x-axis" id="x_axis">
			<path class="x-axis-path" d="M 0 525 L 660 525"/>
			<path class="x-notch-left" d="M 0 525, L 0 535"/>
			<path class="x-notch-right" d="M 660 525, L 660 535"/>
		</g>
		<g class="y-axis" id="y_axis">
			<path class="y-axis-path" d="M 0 525 L 0 0"/>
			<path class="y-axis-path-2" d="M 660 525 L 660 0"/>
			<path class="y-gridline" d="M 0 525 L 660 525"/>
			<text class="y-axis-label" x="-5" y="525">
				-250
			</text>
			<path class="y-gridline" d="M 0 420 L 660 420"/>
			<text class="y-axis-label" x="-5" y="420">
				 0
			</text>
			<path class="y-gridline" d="M 0 315 L 660 315"/>
			<text class="y-axis-label" x="-5" y="315">
				250
			</text>
			<path class="y-gridline" d="M 0 210 L 660 210"/>
			<text class="y-axis-label" x="-5" y="210">
				500
			</text>
			<path class="y-gridline" d="M 0 105 L 660 105"/>
			<text class="y-axis-label" x="-5" y="105">
				750
			</text>
			<path class="y-gridline" d="M 0 0 L 660 0"/>
			<text class="y-axis-label" x="-5" y="0">
				1000
			</text>
		</g>
		<g>
			<path class="series-1-line" d="M 40 414.4646688 L 47 429.150444218 L 55 426.745579636 L 62 399.625395055 L 70 423.842146473 L 78 435.921905891 L 85 412.678321309 L 93 418.641368727 L 101 409.300960145 L 108 392.906903564 L 116 436.012902982 L 123 428.3956704 L 131 433.917045818 L 139 387.821429236 L 146 418.144140655 L 154 395.611700073 L 162 375.135915491 L 169 367.023418909 L 177 317.643234327 L 185 314.096809745 L 192 255.336513164 L 200 270.280504582 L 207 197.725056 L 215 189.892447418 L 223 136.549142836 L 230 126.121270255 L 238 143.079413673 L 246 138.229981091 L 253 46.2680125091 L 261 24.2417559273 L 268 7.19081934545 L 276 73.8274027636 L 284 114.466826182 L 291 54.2314896 L 299 49.4033930182 L 307 96.7199764364 L 314 84.5904318545 L 322 104.747127273 L 330 67.1916226909 L 337 153.912774109 L 345 191.817157527 L 352 264.829172945 L 360 208.007428364 L 368 267.902507782 L 375 239.7917952 L 383 278.955842618 L 391 316.591426036 L 398 394.589513455 L 406 314.172336873 L 413 352.991984291 L 421 393.093639709 L 429 403.988663127 L 436 359.745078545 L 444 377.597317964 L 452 353.309109382 L 459 401.6168928 L 467 444.044340218 L 475 404.991787636 L 482 439.622355055 L 490 415.172866473 L 497 420.155633891 L 505 403.955113309 L 513 386.613536727 L 520 413.156248145 L 528 421.079351564 L 536 438.640614982 L 543 414.2665584 L 551 419.960133818 L 558 419.493653236 L 566 421.461156655 L 574 429.567044073 L 581 416.931483491 L 589 427.137202909 L 597 427.963146327 L 604 425.967529745 L 612 413.978097164 L 620 414.211672582"/>
			<path class="series-2-line" d="M 40 425.208 L 47 412.856727273 L 55 413.105454545 L 62 419.654181818 L 70 427.462909091 L 78 428.551636364 L 85 403.600363636 L 93 425.269090909 L 101 409.977818182 L 108 414.006545455 L 116 423.495272727 L 123 417.864 L 131 426.512727273 L 139 428.441454545 L 146 417.350181818 L 154 428.938909091 L 162 414.487636364 L 169 420.616363636 L 177 427.165090909 L 185 425.313818182 L 192 420.942545455 L 200 384.651272727 L 207 402.96 L 215 398.168727273 L 223 400.517454545 L 230 407.486181818 L 238 401.014909091 L 246 405.883636364 L 253 388.492363636 L 261 403.021090909 L 268 411.249818182 L 276 402.678545455 L 284 371.007272727 L 291 400.236 L 299 385.364727273 L 307 376.793454545 L 314 370.742181818 L 322 373.090909091 L 330 385.939636364 L 337 372.748363636 L 345 374.677090909 L 352 370.725818182 L 360 375.174545455 L 368 369.963272727 L 375 400.032 L 383 369.200727273 L 391 413.129454545 L 398 401.198181818 L 406 401.026909091 L 413 391.195636364 L 421 427.144363636 L 429 416.473090909 L 436 391.521818182 L 444 409.410545455 L 452 383.619272727 L 459 417.048 L 467 417.716727273 L 475 418.385454545 L 482 423.254181818 L 490 422.662909091 L 497 417.031636364 L 505 390.820363636 L 513 411.649090909 L 520 400.557818182 L 528 427.686545455 L 536 425.415272727 L 543 429.444 L 551 427.592727273 L 558 420.281454545 L 566 426.410181818 L 574 424.978909091 L 581 432.367636364 L 589 414.556363636 L 597 418.585090909 L 604 420.513818182 L 612 425.382545455 L 620 423.531272727"/>
		</g>
		<text class="x-axis-label" x="40.0" y="540">
			0
		</text>
		<path class="x-notch" d="M 78.1578947368 525 L 78.1578947368 530"/>
		<text class="x-axis-label" x="116.315789474" y="540">
			10
		</text>
		<path class="x-notch" d="M 154.473684211 525 L 154.473684211 530"/>
		<text class="x-axis-label" x="192.631578947" y="540">
			20
		</text>
		<path class="x-notch" d="M 230.789473684 525 L 230.789473684 530"/>
		<text class="x-axis-label" x="268.947368421" y="540">
			30
		</text>
		<path class="x-notch" d="M 307.105263158 525 L 307.105263158 530"/>
		<text class="x-axis-label" x="345.263157895" y="540">
			40
		</text>
		<path class="x-notch" d="M 383.421052632 525 L 383.421052632 530"/>
		<text class="x-axis-label" x="421.578947368" y="540">
			50
		</text>
		<path class="x-notch" d="M 459.736842105 525 L 459.736842105 530"/>
		<text class="x-axis-label" x="497.894736842" y="540">
			60
		</text>
		<path class="x-notch" d="M 536.052631579 525 L 536.052631579 530"/>
		<text class="x-axis-label" x="574.210526316" y="540">
			70
		</text>
		<path class="x-notch" d="M 612.368421053 525 L 612.368421053 530"/>
	</g>
</svg>
