<?xml version="1.0" ?>
<svg height="600" version="1.1" width="800" xmlns="http://www.w3.org/2000/svg" xmlns:svg="http://www.w3.org/2000/svg">
	<style type="text/css">

.x-axis-path, .y-gridline, .x-notch { fill:none; stroke: #a7a9ac; stroke-width:1; }



.y-gridline { stroke-width: 1; }

.y-axis-path, .y-axis-path2, .x-notch-left, .x-notch-right { display: none;}



.x-axis-label, .data-point-label {font-size: 12px; font-weight:normal; font-family: sans-serif; fill: #58595b; text-anchor:middle;}

.y-axis-label {font-size: 12px; font-family: helvetica; fill: #a7a9ac; text-anchor:end;}



.series-1-line { fill: none; stroke: #10b80c; stroke-width:2; }



.series-2-line { fill: none; stroke: #e90f0a; stroke-width: 2;}
</style>
	<rect fill="white" height="600" width="800" x="0" y="0"/>
	<g id="grid" transform="translate(70, 30)">
		<g class="x-axis" id="x_axis">
			<path class="x-axis-path" d="M 0 525 L 660 525"/>
			<path class="x-notch-left" d="M 0 525, L 0 535"/>
			<path class="x-notch-right" d="M 660 525, L 660 535"/>
		</g>
		<g class="y-axis" id="y_axis">
			<path class="y-axis-path" d="M 0 525 L 0 0"/>
			<path class="y-axis-path-2" d="M 660 525 L 660 0"/>
			<path class="y-gridline" d="M 0 525 L 660 525"/>
			<text class="y-axis-label" x="-5" y="525">-200</text>
			<path class="y-gridline" d="M 0 394 L 660 394"/>
			<text class="y-axis-label" x="-5" y="394"> 0</text>
			<path class="y-gridline" d="M 0 263 L 660 263"/>
			<text class="y-axis-label" x="-5" y="263">200</text>
			<path class="y-gridline" d="M 0 132 L 660 132"/>
			<text class="y-axis-label" x="-5" y="132">400</text>
			<path class="y-gridline" d="M 0 1 L 660 1"/>
			<text class="y-axis-label" x="-5" y="1">600</text>
		</g>
		<g>
			<path class="series-1-line" d="M 40 396.813661561 L 44 390.230188788 L 49 401.7176699 L 54 391.680389209 L 58 386.730851023 L 63 368.90809098 L 68 380.252910718 L 72 368.691513909 L 77 362.502840238 L 82 343.934614646 L 86 363.26214223 L 91 344.627888712 L 96 352.792933531 L 100 356.999210748 L 105 345.788651443 L 110 304.160429237 L 114 286.73281041 L 119 276.388140644 L 124 290.715677863 L 128 286.281362769 L 133 267.110161945 L 138 263.838348886 L 142 263.099373916 L 147 215.593982058 L 152 236.643025312 L 156 225.607799229 L 161 236.809957593 L 166 191.212533321 L 170 227.481013546 L 175 208.287746395 L 180 174.247603989 L 185 109.186994508 L 189 190.829489242 L 194 147.227784695 L 199 150.469130484 L 203 174.522615433 L 208 146.666689642 L 213 108.109108115 L 217 118.872676835 L 222 148.156565663 L 227 125.717495666 L 231 97.8947548947 L 236 72.0126535585 L 241 96.5045570949 L 245 102.300978357 L 250 101.945854854 L 255 90.2089537638 L 259 89.0861273269 L 264 27.7208579706 L 269 69.1868991684 L 273 68.8427233007 L 278 26.3486115559 L 283 48.4722336487 L 287 63.3912852945 L 292 30.1626363645 L 297 56.7927499437 L 301 0.0 L 306 45.4133479938 L 311 75.7608680253 L 315 102.226596016 L 320 55.7518213989 L 325 49.7167567378 L 330 60.1187113754 L 334 69.77485835 L 339 102.611083815 L 344 58.5819083158 L 348 82.0645767119 L 353 257.141889674 L 358 277.193158593 L 362 280.292014065 L 367 244.289165896 L 372 325.350409612 L 376 201.625869394 L 381 239.868516188 L 386 154.566070929 L 390 193.181279441 L 395 129.973728312 L 400 199.192709526 L 404 290.144628673 L 409 253.80171958 L 414 199.004518305 L 418 230.404721904 L 423 229.314738374 L 428 200.845060772 L 432 177.726382095 L 437 229.258431948 L 442 303.872373685 L 446 330.063897621 L 451 257.009803715 L 456 271.545346008 L 460 231.880000621 L 465 225.121365682 L 470 285.919049406 L 475 310.641366456 L 479 317.029815315 L 484 383.770696618 L 489 355.454456969 L 493 308.891930211 L 498 251.956518893 L 503 242.478251836 L 507 301.960337685 L 512 327.318472874 L 517 311.502551249 L 521 304.535398066 L 526 277.491136807 L 531 330.240426873 L 535 318.733768241 L 540 369.783437908 L 545 340.491319195 L 549 397.988461897 L 554 375.012273537 L 559 382.837257431 L 563 353.58892926 L 568 426.272837085 L 573 401.465485644 L 577 401.62575629 L 582 399.351717566 L 587 399.544831118 L 591 405.626233014 L 596 402.595781106 L 601 413.249702415 L 605 408.936153423 L 610 400.477727028 L 615 385.473127822 L 620 362.979148591"/>
			<path class="series-2-line" d="M 40 392.809187581 L 44 377.763031151 L 49 395.645309382 L 54 402.40889539 L 58 399.3367152 L 63 386.428768813 L 68 393.192354821 L 72 404.232360914 L 77 394.317908587 L 82 397.660358526 L 86 409.983290646 L 91 390.233072121 L 96 409.398276378 L 100 395.635045974 L 105 401.970989973 L 110 383.503697474 L 114 409.08353186 L 119 380.352831155 L 124 405.505023532 L 128 388.748299068 L 133 402.781799221 L 138 404.841323135 L 142 395.354512816 L 147 393.137616644 L 152 403.749980729 L 156 399.394874513 L 161 395.039768298 L 166 395.388724177 L 170 383.336061807 L 175 384.112659695 L 180 382.751047539 L 185 383.955287435 L 189 381.738391263 L 194 387.646693254 L 199 374.311104858 L 203 383.212900909 L 208 367.73910247 L 213 387.331948735 L 217 384.687410554 L 222 394.872132631 L 227 384.957680304 L 231 397.708254431 L 236 391.214938173 L 241 381.728127855 L 245 386.781145828 L 250 384.136607647 L 255 389.18962562 L 259 372.860543165 L 264 381.334697207 L 269 375.696664966 L 273 371.34155875 L 278 387.940910955 L 283 397.697991023 L 287 363.835586216 L 292 369.316246198 L 297 359.829435879 L 301 372.152367999 L 306 351.119223448 L 311 362.159229542 L 315 361.652901404 L 320 348.744955017 L 325 348.238626879 L 330 368.686757161 L 334 372.0292071 L 339 345.00907443 L 344 367.595414755 L 348 315.344403579 L 353 364.016906427 L 358 380.188616624 L 362 372.41237434 L 367 377.037750305 L 372 365.412729943 L 376 345.23486941 L 381 375.51876589 L 386 365.604313563 L 390 371.084973545 L 395 366.72986733 L 400 367.934107226 L 404 364.434285028 L 409 355.375116718 L 414 356.579356614 L 418 370.185214759 L 423 348.7244282 L 428 362.330286345 L 432 375.080860473 L 437 366.876976181 L 442 377.061698257 L 446 369.285455973 L 451 383.318956127 L 456 375.970355851 L 460 368.194113567 L 465 380.517045686 L 470 377.872507505 L 475 382.49788347 L 479 378.570419263 L 484 382.76815322 L 489 389.104097219 L 493 373.202656772 L 498 374.406896668 L 503 360.643666264 L 507 379.80887052 L 512 368.611492168 L 517 376.230362192 L 521 371.01997196 L 526 379.066483993 L 531 381.126007907 L 535 383.613173829 L 540 383.962129708 L 545 392.43628375 L 549 387.653535526 L 554 394.844763542 L 559 400.325423524 L 563 401.957305429 L 568 396.319273188 L 573 405.648711247 L 577 405.997667126 L 582 402.497844928 L 587 397.715096704 L 591 391.649422454 L 596 406.110564616 L 601 403.893668444 L 605 401.676772271 L 610 395.611098021 L 615 393.394201849 L 620 375.354551359"/>
		</g>
		<text class="x-axis-label" x="40.0" y="540">0</text>
		<path class="x-notch" d="M 63.3870967742 525 L 63.3870967742 530"/>
		<text class="x-axis-label" x="86.7741935484" y="540">10</text>
		<path class="x-notch" d="M 110.161290323 525 L 110.161290323 530"/>
		<text class="x-axis-label" x="133.548387097" y="540">20</text>
		<path class="x-notch" d="M 156.935483871 525 L 156.935483871 530"/>
		<text class="x-axis-label" x="180.322580645" y="540">30</text>
		<path class="x-notch" d="M 203.709677419 525 L 203.709677419 530"/>
		<text class="x-axis-label" x="227.096774194" y="540">40</text>
		<path class="x-notch" d="M 250.483870968 525 L 250.483870968 530"/>
		<text class="x-axis-label" x="273.870967742" y="540">50</text>
		<path class="x-notch" d="M 297.258064516 525 L 297.258064516 530"/>
		<text class="x-axis-label" x="320.64516129" y="540">60</text>
		<path class="x-notch" d="M 344.032258065 525 L 344.032258065 530"/>
		<text class="x-axis-label" x="367.419354839" y="540">70</text>
		<path class="x-notch" d="M 390.806451613 525 L 390.806451613 530"/>
		<text class="x-axis-label" x="414.193548387" y="540">80</text>
		<path class="x-notch" d="M 437.580645161 525 L 437.580645161 530"/>
		<text class="x-axis-label" x="460.967741935" y="540">90</text>
		<path class="x-notch" d="M 484.35483871 525 L 484.35483871 530"/>
		<text class="x-axis-label" x="507.741935484" y="540">100</text>
		<path class="x-notch" d="M 531.129032258 525 L 531.129032258 530"/>
		<text class="x-axis-label" x="554.516129032" y="540">110</text>
		<path class="x-notch" d="M 577.903225806 525 L 577.903225806 530"/>
		<text class="x-axis-label" x="601.290322581" y="540">120</text>
		<path class="x-notch" d="M 624.677419355 525 L 624.677419355 530"/>
	</g>
</svg>
