<?xml version="1.0" ?>
<svg height="600" version="1.1" width="800" xmlns="http://www.w3.org/2000/svg" xmlns:svg="http://www.w3.org/2000/svg">
	<style type="text/css">
		

.x-axis-path, .y-gridline, .x-notch { fill:none; stroke: #a7a9ac; stroke-width:1; }



.y-gridline { stroke-width: 1; }

.y-axis-path, .y-axis-path2, .x-notch-left, .x-notch-right { display: none;}



.x-axis-label, .data-point-label {font-size: 12px; font-weight:normal; font-family: sans-serif; fill: #58595b; text-anchor:middle;}

.y-axis-label {font-size: 12px; font-family: helvetica; fill: #a7a9ac; text-anchor:end;}



.series-1-line { fill: none; stroke: #10b80c; stroke-width:2; }



.series-2-line { fill: none; stroke: #e90f0a; stroke-width: 2;}

	</style>
	<rect fill="white" height="600" width="800" x="0" y="0"/>
	<g id="grid" transform="translate(70, 30)">
		<g class="x-axis" id="x_axis">
			<path class="x-axis-path" d="M 0 525 L 660 525"/>
			<path class="x-notch-left" d="M 0 525, L 0 535"/>
			<path class="x-notch-right" d="M 660 525, L 660 535"/>
		</g>
		<g class="y-axis" id="y_axis">
			<path class="y-axis-path" d="M 0 525 L 0 0"/>
			<path class="y-axis-path-2" d="M 660 525 L 660 0"/>
			<path class="y-gridline" d="M 0 525 L 660 525"/>
			<text class="y-axis-label" x="-5" y="525">
				-200
			</text>
			<path class="y-gridline" d="M 0 394 L 660 394"/>
			<text class="y-axis-label" x="-5" y="394">
				 0
			</text>
			<path class="y-gridline" d="M 0 263 L 660 263"/>
			<text class="y-axis-label" x="-5" y="263">
				200
			</text>
			<path class="y-gridline" d="M 0 132 L 660 132"/>
			<text class="y-axis-label" x="-5" y="132">
				400
			</text>
			<path class="y-gridline" d="M 0 1 L 660 1"/>
			<text class="y-axis-label" x="-5" y="1">
				600
			</text>
		</g>
		<g>
			<path class="series-1-line" d="M 40 375.799010458 L 47 400.117023652 L 54 382.983768385 L 62 406.796871244 L 69 402.06748145 L 76 384.883636726 L 84 370.904840764 L 91 383.702040245 L 98 371.792884541 L 106 351.12624116 L 113 346.131896469 L 120 360.986138055 L 128 354.994767692 L 135 342.050595013 L 142 363.983817288 L 150 328.40253599 L 157 318.461251092 L 164 336.962264166 L 172 316.686754054 L 179 285.143377513 L 186 281.978127102 L 194 312.315104551 L 201 300.077609494 L 208 279.234395131 L 216 278.101384213 L 223 243.731100334 L 230 279.165408435 L 238 296.480620394 L 245 278.766669031 L 252 249.267539595 L 260 277.408107875 L 267 216.098446261 L 274 230.258805224 L 282 209.213823572 L 289 211.209485116 L 296 224.27183634 L 304 230.848501126 L 311 235.973622515 L 318 220.682650221 L 326 144.255992864 L 333 173.406381813 L 341 178.633075808 L 348 157.019996213 L 355 122.637507873 L 363 164.948635682 L 370 155.083530239 L 377 129.508331648 L 385 79.6057066817 L 392 99.5196813089 L 399 156.430296374 L 407 153.707359228 L 414 144.346770427 L 421 134.014155414 L 429 108.678715416 L 436 0.0 L 443 89.3648341032 L 451 16.3821967147 L 458 22.3407646378 L 465 28.5516893053 L 473 86.2575627535 L 480 134.33588861 L 487 153.632160068 L 495 183.173682286 L 502 193.283144647 L 509 88.1494312674 L 517 171.042358161 L 524 237.695085268 L 531 252.372362179 L 539 202.595915585 L 546 328.074928905 L 553 396.406359846 L 561 390.957694276 L 568 386.947383411 L 575 382.533341123 L 583 389.942861904 L 590 399.774771215 L 597 377.695166281 L 605 402.656472642 L 612 405.914508446 L 620 384.187848631"/>
			<path class="series-2-line" d="M 40 380.462885922 L 47 390.438063787 L 54 398.936895644 L 62 391.688036741 L 69 403.631675951 L 76 400.811855075 L 84 397.007803526 L 91 380.900868572 L 98 399.734122488 L 106 383.627187534 L 113 398.523518761 L 120 407.022350618 L 128 404.694645077 L 135 393.016748149 L 142 410.373656057 L 150 417.888257241 L 157 379.144016821 L 164 394.532463385 L 172 374.980721077 L 179 385.940129614 L 186 345.719543186 L 194 357.17106706 L 201 350.414323494 L 208 342.673349255 L 216 369.380448551 L 223 341.462745528 L 230 306.163312462 L 238 353.047140542 L 245 336.940205588 L 252 355.281344169 L 260 287.010183577 L 267 335.370357666 L 274 356.172072927 L 282 360.733982094 L 289 321.497626338 L 296 321.630497479 L 304 335.542598033 L 311 307.132779674 L 318 316.123726867 L 326 342.830826163 L 333 309.007739105 L 341 341.620222436 L 348 319.607903447 L 355 332.043657993 L 363 279.52018816 L 370 286.542674007 L 377 268.467277708 L 385 322.240720496 L 392 309.086477559 L 399 262.960507096 L 407 288.191260384 L 414 274.052786774 L 421 219.560855596 L 429 202.46968997 L 436 270.514477507 L 443 209.132931622 L 451 159.07003847 L 458 192.666752472 L 465 225.279235803 L 473 208.680185513 L 480 216.194786696 L 487 261.110153432 L 495 223.842259021 L 502 204.78263205 L 509 199.502234492 L 517 265.086445349 L 524 292.285659981 L 531 270.765456328 L 539 324.04678378 L 546 309.90831017 L 553 382.382135734 L 561 391.373082926 L 568 387.076916041 L 575 388.194017854 L 583 406.535156435 L 590 392.396682825 L 597 404.832437371 L 605 391.186079098 L 612 404.606064317 L 620 381.11739932"/>
		</g>
		<text class="x-axis-label" x="40.0" y="540">
			0
		</text>
		<path class="x-notch" d="M 76.7088607595 525 L 76.7088607595 530"/>
		<text class="x-axis-label" x="113.417721519" y="540">
			10
		</text>
		<path class="x-notch" d="M 150.126582278 525 L 150.126582278 530"/>
		<text class="x-axis-label" x="186.835443038" y="540">
			20
		</text>
		<path class="x-notch" d="M 223.544303797 525 L 223.544303797 530"/>
		<text class="x-axis-label" x="260.253164557" y="540">
			30
		</text>
		<path class="x-notch" d="M 296.962025316 525 L 296.962025316 530"/>
		<text class="x-axis-label" x="333.670886076" y="540">
			40
		</text>
		<path class="x-notch" d="M 370.379746835 525 L 370.379746835 530"/>
		<text class="x-axis-label" x="407.088607595" y="540">
			50
		</text>
		<path class="x-notch" d="M 443.797468354 525 L 443.797468354 530"/>
		<text class="x-axis-label" x="480.506329114" y="540">
			60
		</text>
		<path class="x-notch" d="M 517.215189873 525 L 517.215189873 530"/>
		<text class="x-axis-label" x="553.924050633" y="540">
			70
		</text>
		<path class="x-notch" d="M 590.632911392 525 L 590.632911392 530"/>
	</g>
</svg>
