<?xml version="1.0" ?>
<svg height="600" version="1.1" width="800" xmlns="http://www.w3.org/2000/svg" xmlns:svg="http://www.w3.org/2000/svg">
	<style type="text/css">
		

.x-axis-path, .y-gridline, .x-notch { fill:none; stroke: #a7a9ac; stroke-width:1; }



.y-gridline { stroke-width: 1; }

.y-axis-path, .y-axis-path2, .x-notch-left, .x-notch-right { display: none;}



.x-axis-label, .data-point-label {font-size: 12px; font-weight:normal; font-family: sans-serif; fill: #58595b; text-anchor:middle;}

.y-axis-label {font-size: 12px; font-family: helvetica; fill: #a7a9ac; text-anchor:end;}



.series-1-line { fill: none; stroke: #10b80c; stroke-width:2; }



.series-2-line { fill: none; stroke: #e90f0a; stroke-width: 2;}

	</style>
	<rect fill="white" height="600" width="800" x="0" y="0"/>
	<g id="grid" transform="translate(70, 30)">
		<g class="x-axis" id="x_axis">
			<path class="x-axis-path" d="M 0 525 L 660 525"/>
			<path class="x-notch-left" d="M 0 525, L 0 535"/>
			<path class="x-notch-right" d="M 660 525, L 660 535"/>
		</g>
		<g class="y-axis" id="y_axis">
			<path class="y-axis-path" d="M 0 525 L 0 0"/>
			<path class="y-axis-path-2" d="M 660 525 L 660 0"/>
			<path class="y-gridline" d="M 0 525 L 660 525"/>
			<text class="y-axis-label" x="-5" y="525">
				-200
			</text>
			<path class="y-gridline" d="M 0 420 L 660 420"/>
			<text class="y-axis-label" x="-5" y="420">
				 0
			</text>
			<path class="y-gridline" d="M 0 315 L 660 315"/>
			<text class="y-axis-label" x="-5" y="315">
				200
			</text>
			<path class="y-gridline" d="M 0 210 L 660 210"/>
			<text class="y-axis-label" x="-5" y="210">
				400
			</text>
			<path class="y-gridline" d="M 0 105 L 660 105"/>
			<text class="y-axis-label" x="-5" y="105">
				600
			</text>
			<path class="y-gridline" d="M 0 0 L 660 0"/>
			<text class="y-axis-label" x="-5" y="0">
				800
			</text>
		</g>
		<g>
			<path class="series-1-line" d="M 40 410.095014 L 44 414.151261104 L 49 431.830418208 L 54 429.236805312 L 58 413.248972416 L 63 399.68411952 L 68 392.351646624 L 72 381.317503728 L 77 365.235380832 L 82 405.045597936 L 86 417.29982504 L 91 402.213732144 L 96 360.231469248 L 100 387.387716352 L 105 415.486443456 L 110 382.06588056 L 114 360.181667664 L 119 342.699474768 L 124 330.076891872 L 128 381.329168976 L 133 351.32782608 L 138 343.928153184 L 142 352.615110288 L 147 314.025397392 L 152 308.752814496 L 156 259.3264716 L 161 256.840378704 L 166 300.311735808 L 170 198.412272912 L 175 245.505080016 L 180 216.27065712 L 185 179.659774224 L 189 219.375701328 L 194 201.153048432 L 199 182.647315536 L 203 138.32334264 L 208 118.377639744 L 213 185.514316848 L 217 155.526203952 L 222 144.438091056 L 227 140.01390816 L 231 97.816185264 L 236 147.480232368 L 241 171.041699472 L 245 82.940496576 L 250 108.84493368 L 255 87.660650784 L 259 102.768777888 L 264 103.177114992 L 269 92.937192096 L 273 49.6224792 L 278 19.042166304 L 283 10.861923408 L 287 25.256260512 L 292 79.577897616 L 297 34.62098472 L 301 59.179321824 L 306 37.025678928 L 311 73.604836032 L 315 1.886363136 L 320 25.15194024 L 325 1.881727344 L 330 32.376344448 L 334 70.691991552 L 339 46.802068656 L 344 70.87572576 L 348 76.736082864 L 353 49.009669968 L 358 25.065567072 L 362 70.152874176 L 367 108.60334128 L 372 122.822958384 L 376 173.617645488 L 381 128.660732592 L 386 192.620739696 L 390 145.7116668 L 395 178.387133904 L 400 186.373951008 L 404 165.243638112 L 409 228.248145216 L 414 240.58301232 L 418 238.649009424 L 423 228.301566528 L 428 268.246183632 L 432 274.294700736 L 437 318.92399784 L 442 265.337974944 L 446 317.829042048 L 451 310.200679152 L 456 291.116396256 L 460 329.40537336 L 465 324.604240464 L 470 351.895097568 L 475 363.018474672 L 479 356.426671776 L 484 366.06954888 L 489 378.956715984 L 493 377.830163088 L 498 383.044140192 L 503 394.881097296 L 507 360.4642944 L 512 381.455151504 L 517 371.551858608 L 521 382.500515712 L 526 358.368042816 L 531 374.80882992 L 535 379.955397024 L 540 396.988804128 L 545 390.477641232 L 549 401.641758336 L 554 407.17871544 L 559 398.109962544 L 563 423.300819648 L 568 403.799686752 L 573 411.988523856 L 577 405.07353096 L 582 426.818288064 L 587 409.053435168 L 591 412.921312272 L 596 417.596639376 L 601 428.54529648 L 605 411.695833584 L 610 423.061550688 L 615 415.769817792 L 620 423.083794896"/>
			<path class="series-2-line" d="M 40 421.365 L 44 420.85764 L 49 404.07528 L 54 417.21792 L 58 431.41056 L 63 436.1532 L 68 410.44584 L 72 409.41348 L 77 417.83112 L 82 429.39876 L 86 419.4414 L 91 415.78404 L 96 410.55168 L 100 410.04432 L 105 426.33696 L 110 436.8546 L 114 428.99724 L 119 430.58988 L 124 431.65752 L 128 419.07516 L 133 428.5428 L 138 413.33544 L 142 407.05308 L 147 425.44572 L 152 426.51336 L 156 435.981 L 161 432.32364 L 166 405.04128 L 170 410.30892 L 175 411.90156 L 180 383.5692 L 185 400.38684 L 189 406.17948 L 194 400.42212 L 199 356.86476 L 203 409.9074 L 208 406.77504 L 213 373.19268 L 217 360.08532 L 222 346.97796 L 227 379.5456 L 231 366.96324 L 236 376.95588 L 241 322.89852 L 245 346.01616 L 250 356.5338 L 255 341.85144 L 259 337.14408 L 264 352.91172 L 269 350.82936 L 273 369.222 L 278 366.61464 L 283 370.83228 L 287 334.09992 L 292 334.11756 L 297 363.0102 L 301 378.77784 L 306 351.49548 L 311 334.71312 L 315 361.50576 L 320 333.1734 L 325 377.81604 L 330 368.38368 L 334 346.87632 L 339 344.79396 L 344 354.2616 L 348 379.47924 L 353 382.12188 L 358 347.48952 L 362 375.33216 L 367 373.7748 L 372 364.34244 L 376 361.73508 L 381 390.62772 L 386 381.72036 L 390 387.513 L 395 385.95564 L 400 366.02328 L 404 363.41592 L 409 380.75856 L 414 358.2012 L 418 370.81884 L 423 385.53648 L 428 376.10412 L 432 371.92176 L 437 368.7894 L 442 371.95704 L 446 391.39968 L 451 391.41732 L 456 376.73496 L 460 379.9026 L 465 409.84524 L 470 408.81288 L 475 390.98052 L 479 393.09816 L 484 401.5158 L 489 415.70844 L 493 404.70108 L 498 407.86872 L 503 401.58636 L 507 403.704 L 512 402.67164 L 517 409.51428 L 521 418.98192 L 526 393.27456 L 531 385.4172 L 535 378.60984 L 540 401.20248 L 545 390.72012 L 549 407.53776 L 554 401.2554 L 559 400.74804 L 563 399.71568 L 568 429.65832 L 573 419.17596 L 577 410.2686 L 582 414.48624 L 587 419.22888 L 591 427.64652 L 596 412.43916 L 601 421.9068 L 605 427.17444 L 610 412.49208 L 615 421.43472 L 620 424.60236"/>
		</g>
		<text class="x-axis-label" x="40.0" y="540">
			0
		</text>
		<path class="x-notch" d="M 63.3870967742 525 L 63.3870967742 530"/>
		<text class="x-axis-label" x="86.7741935484" y="540">
			10
		</text>
		<path class="x-notch" d="M 110.161290323 525 L 110.161290323 530"/>
		<text class="x-axis-label" x="133.548387097" y="540">
			20
		</text>
		<path class="x-notch" d="M 156.935483871 525 L 156.935483871 530"/>
		<text class="x-axis-label" x="180.322580645" y="540">
			30
		</text>
		<path class="x-notch" d="M 203.709677419 525 L 203.709677419 530"/>
		<text class="x-axis-label" x="227.096774194" y="540">
			40
		</text>
		<path class="x-notch" d="M 250.483870968 525 L 250.483870968 530"/>
		<text class="x-axis-label" x="273.870967742" y="540">
			50
		</text>
		<path class="x-notch" d="M 297.258064516 525 L 297.258064516 530"/>
		<text class="x-axis-label" x="320.64516129" y="540">
			60
		</text>
		<path class="x-notch" d="M 344.032258065 525 L 344.032258065 530"/>
		<text class="x-axis-label" x="367.419354839" y="540">
			70
		</text>
		<path class="x-notch" d="M 390.806451613 525 L 390.806451613 530"/>
		<text class="x-axis-label" x="414.193548387" y="540">
			80
		</text>
		<path class="x-notch" d="M 437.580645161 525 L 437.580645161 530"/>
		<text class="x-axis-label" x="460.967741935" y="540">
			90
		</text>
		<path class="x-notch" d="M 484.35483871 525 L 484.35483871 530"/>
		<text class="x-axis-label" x="507.741935484" y="540">
			100
		</text>
		<path class="x-notch" d="M 531.129032258 525 L 531.129032258 530"/>
		<text class="x-axis-label" x="554.516129032" y="540">
			110
		</text>
		<path class="x-notch" d="M 577.903225806 525 L 577.903225806 530"/>
		<text class="x-axis-label" x="601.290322581" y="540">
			120
		</text>
		<path class="x-notch" d="M 624.677419355 525 L 624.677419355 530"/>
	</g>
</svg>
