<?xml version="1.0" ?>
<svg height="600" version="1.1" width="800" xmlns="http://www.w3.org/2000/svg" xmlns:svg="http://www.w3.org/2000/svg">
	<style type="text/css">
		

.x-axis-path, .y-gridline, .x-notch { fill:none; stroke: #a7a9ac; stroke-width:1; }



.y-gridline { stroke-width: 1; }

.y-axis-path, .y-axis-path2, .x-notch-left, .x-notch-right { display: none;}



.x-axis-label, .data-point-label {font-size: 12px; font-weight:normal; font-family: sans-serif; fill: #58595b; text-anchor:middle;}

.y-axis-label {font-size: 12px; font-family: helvetica; fill: #a7a9ac; text-anchor:end;}



.series-1-line { fill: none; stroke: #10b80c; stroke-width:2; }



.series-2-line { fill: none; stroke: #e90f0a; stroke-width: 2;}

	</style>
	<rect fill="white" height="600" width="800" x="0" y="0"/>
	<g id="grid" transform="translate(70, 30)">
		<g class="x-axis" id="x_axis">
			<path class="x-axis-path" d="M 0 525 L 660 525"/>
			<path class="x-notch-left" d="M 0 525, L 0 535"/>
			<path class="x-notch-right" d="M 660 525, L 660 535"/>
		</g>
		<g class="y-axis" id="y_axis">
			<path class="y-axis-path" d="M 0 525 L 0 0"/>
			<path class="y-axis-path-2" d="M 660 525 L 660 0"/>
			<path class="y-gridline" d="M 0 525 L 660 525"/>
			<text class="y-axis-label" x="-5" y="525">
				-500
			</text>
			<path class="y-gridline" d="M 0 420 L 660 420"/>
			<text class="y-axis-label" x="-5" y="420">
				 0
			</text>
			<path class="y-gridline" d="M 0 315 L 660 315"/>
			<text class="y-axis-label" x="-5" y="315">
				500
			</text>
			<path class="y-gridline" d="M 0 210 L 660 210"/>
			<text class="y-axis-label" x="-5" y="210">
				1000
			</text>
			<path class="y-gridline" d="M 0 105 L 660 105"/>
			<text class="y-axis-label" x="-5" y="105">
				1500
			</text>
			<path class="y-gridline" d="M 0 0 L 660 0"/>
			<text class="y-axis-label" x="-5" y="0">
				2000
			</text>
		</g>
		<g>
			<path class="series-1-line" d="M 40 426.6393768 L 45 430.443327138 L 50 414.620425477 L 55 412.873067815 L 60 413.134066154 L 65 414.132668492 L 70 413.499990831 L 75 411.219485169 L 80 416.714187508 L 85 419.969197846 L 90 417.607884185 L 95 419.311918523 L 100 420.671552862 L 105 398.7910752 L 110 409.078229538 L 115 402.301539877 L 120 397.355714215 L 125 391.435152554 L 130 386.467486892 L 135 376.406313231 L 140 384.765835569 L 145 364.726805908 L 150 348.376384246 L 155 348.960530585 L 160 292.305732923 L 165 307.250771262 L 170 320.3810736 L 175 297.369871938 L 180 286.500702277 L 185 275.072008615 L 190 283.205402954 L 195 292.442557292 L 200 282.456647631 L 205 274.026837969 L 210 280.227140308 L 215 257.469030646 L 220 271.665460985 L 225 249.978687323 L 230 253.346677662 L 235 236.161464 L 240 234.974050338 L 245 217.605800677 L 250 208.271227015 L 255 218.806349354 L 260 213.133335692 L 265 182.734502031 L 270 179.818368369 L 275 173.844046708 L 280 170.863485046 L 285 181.533091385 L 290 177.486485723 L 295 185.215924062 L 300 200.4355584 L 305 180.003492738 L 310 176.069699077 L 315 186.211701415 L 320 164.853367754 L 325 180.842778092 L 330 146.846728431 L 335 112.624382769 L 340 117.300757108 L 345 85.8950994462 L 350 90.3125857846 L 355 67.7645601231 L 360 115.114194462 L 365 129.6982848 L 370 121.968615138 L 375 155.576521477 L 380 151.632059815 L 385 150.159466154 L 390 174.591884492 L 395 192.885918831 L 400 204.163937169 L 405 211.688919508 L 410 220.344625846 L 415 224.681640185 L 420 229.142470523 L 425 216.545168862 L 430 248.0854992 L 435 276.723545538 L 440 317.810727877 L 445 341.392730215 L 450 387.783924554 L 455 360.830938892 L 460 405.111549231 L 465 369.074971569 L 470 403.926665908 L 475 365.768248246 L 480 378.489386585 L 485 360.862584923 L 490 332.698319262 L 495 375.9287616 L 500 404.200735938 L 505 406.050342277 L 510 408.432844615 L 515 409.689998954 L 520 402.186457292 L 525 414.180659631 L 530 418.959345969 L 535 417.626444308 L 540 422.459058646 L 545 412.725988985 L 550 413.487963323 L 555 408.175897662 L 560 418.495476 L 565 423.198898338 L 570 424.612208677 L 575 423.440923015 L 580 422.350445354 L 585 413.742975692 L 590 424.574030031 L 595 426.638928369 L 600 417.336862708 L 605 427.758669046 L 610 417.385099385 L 615 421.517657723 L 620 419.436316062"/>
			<path class="series-2-line" d="M 40 434.238 L 45 419.011384615 L 50 410.714769231 L 55 417.958153846 L 60 414.911538462 L 65 403.254923077 L 70 416.798307692 L 75 417.111692308 L 80 400.205076923 L 85 413.328461538 L 90 409.861846154 L 95 402.825230769 L 100 416.788615385 L 105 419.832 L 110 416.995384615 L 115 414.368769231 L 120 420.982153846 L 125 415.835538462 L 130 393.048923077 L 135 403.232307692 L 140 406.275692308 L 145 400.499076923 L 150 409.002461538 L 155 412.885846154 L 160 369.729230769 L 165 385.582615385 L 170 389.676 L 175 397.129384615 L 180 377.702769231 L 185 404.686153846 L 190 410.249538462 L 195 407.412923077 L 200 405.836307692 L 205 399.009692308 L 210 403.103076923 L 215 412.026461538 L 220 413.599846154 L 225 402.783230769 L 230 406.456615385 L 235 397.74 L 240 399.523384615 L 245 394.796769231 L 250 373.480153846 L 255 397.523538462 L 260 378.306923077 L 265 391.640307692 L 270 368.223692308 L 275 371.477076923 L 280 366.330461538 L 285 377.563846154 L 290 383.127230769 L 295 377.980615385 L 300 391.944 L 305 390.157384615 L 310 369.890769231 L 315 389.734153846 L 320 376.817538462 L 325 368.940923077 L 330 353.714307692 L 335 324.627692308 L 340 320.741076923 L 345 343.734461538 L 350 298.267846154 L 355 315.381230769 L 360 329.344615385 L 365 327.768 L 370 334.591384615 L 375 330.074769231 L 380 319.678153846 L 385 341.411538462 L 390 326.814923077 L 395 319.778307692 L 400 326.181692308 L 405 336.575076923 L 410 342.558461538 L 415 326.071846154 L 420 306.645230769 L 425 319.348615385 L 430 326.172 L 435 335.305384615 L 440 335.198769231 L 445 355.042153846 L 450 371.105538462 L 455 354.618923077 L 460 388.742307692 L 465 397.035692308 L 470 386.849076923 L 475 365.742461538 L 480 376.345846154 L 485 362.799230769 L 490 371.512615385 L 495 389.256 L 500 406.369384615 L 505 417.602769231 L 510 411.196153846 L 515 408.359538462 L 520 412.662923077 L 525 422.006307692 L 530 418.539692308 L 535 410.243076923 L 540 414.756461538 L 545 390.079846154 L 550 407.193230769 L 555 405.406615385 L 560 413.91 L 565 422.203384615 L 570 419.576769231 L 575 418.840153846 L 580 421.883538462 L 585 418.206923077 L 590 420.620307692 L 595 422.823692308 L 600 421.037076923 L 605 421.770461538 L 610 423.343846154 L 615 422.397230769 L 620 416.200615385"/>
		</g>
		<text class="x-axis-label" x="40.0" y="540">
			0
		</text>
		<path class="x-notch" d="M 65.0 525 L 65.0 530"/>
		<text class="x-axis-label" x="90.0" y="540">
			10
		</text>
		<path class="x-notch" d="M 115.0 525 L 115.0 530"/>
		<text class="x-axis-label" x="140.0" y="540">
			20
		</text>
		<path class="x-notch" d="M 165.0 525 L 165.0 530"/>
		<text class="x-axis-label" x="190.0" y="540">
			30
		</text>
		<path class="x-notch" d="M 215.0 525 L 215.0 530"/>
		<text class="x-axis-label" x="240.0" y="540">
			40
		</text>
		<path class="x-notch" d="M 265.0 525 L 265.0 530"/>
		<text class="x-axis-label" x="290.0" y="540">
			50
		</text>
		<path class="x-notch" d="M 315.0 525 L 315.0 530"/>
		<text class="x-axis-label" x="340.0" y="540">
			60
		</text>
		<path class="x-notch" d="M 365.0 525 L 365.0 530"/>
		<text class="x-axis-label" x="390.0" y="540">
			70
		</text>
		<path class="x-notch" d="M 415.0 525 L 415.0 530"/>
		<text class="x-axis-label" x="440.0" y="540">
			80
		</text>
		<path class="x-notch" d="M 465.0 525 L 465.0 530"/>
		<text class="x-axis-label" x="490.0" y="540">
			90
		</text>
		<path class="x-notch" d="M 515.0 525 L 515.0 530"/>
		<text class="x-axis-label" x="540.0" y="540">
			100
		</text>
		<path class="x-notch" d="M 565.0 525 L 565.0 530"/>
		<text class="x-axis-label" x="590.0" y="540">
			110
		</text>
		<path class="x-notch" d="M 615.0 525 L 615.0 530"/>
	</g>
</svg>
