<?xml version="1.0" ?>
<svg height="600" version="1.1" width="800" xmlns="http://www.w3.org/2000/svg" xmlns:svg="http://www.w3.org/2000/svg">
	<style type="text/css">
		

.x-axis-path, .y-gridline, .x-notch { fill:none; stroke: #a7a9ac; stroke-width:1; }



.y-gridline { stroke-width: 1; }

.y-axis-path, .y-axis-path2, .x-notch-left, .x-notch-right { display: none;}



.x-axis-label, .data-point-label {font-size: 12px; font-weight:normal; font-family: sans-serif; fill: #58595b; text-anchor:middle;}

.y-axis-label {font-size: 12px; font-family: helvetica; fill: #a7a9ac; text-anchor:end;}



.series-1-line { fill: none; stroke: #10b80c; stroke-width:2; }



.series-2-line { fill: none; stroke: #e90f0a; stroke-width: 2;}

	</style>
	<rect fill="white" height="600" width="800" x="0" y="0"/>
	<g id="grid" transform="translate(70, 30)">
		<g class="x-axis" id="x_axis">
			<path class="x-axis-path" d="M 0 525 L 660 525"/>
			<path class="x-notch-left" d="M 0 525, L 0 535"/>
			<path class="x-notch-right" d="M 660 525, L 660 535"/>
		</g>
		<g class="y-axis" id="y_axis">
			<path class="y-axis-path" d="M 0 525 L 0 0"/>
			<path class="y-axis-path-2" d="M 660 525 L 660 0"/>
			<path class="y-gridline" d="M 0 525 L 660 525"/>
			<text class="y-axis-label" x="-5" y="525">
				-100
			</text>
			<path class="y-gridline" d="M 0 438 L 660 438"/>
			<text class="y-axis-label" x="-5" y="438">
				 0
			</text>
			<path class="y-gridline" d="M 0 351 L 660 351"/>
			<text class="y-axis-label" x="-5" y="351">
				100
			</text>
			<path class="y-gridline" d="M 0 264 L 660 264"/>
			<text class="y-axis-label" x="-5" y="264">
				200
			</text>
			<path class="y-gridline" d="M 0 177 L 660 177"/>
			<text class="y-axis-label" x="-5" y="177">
				300
			</text>
			<path class="y-gridline" d="M 0 90 L 660 90"/>
			<text class="y-axis-label" x="-5" y="90">
				400
			</text>
			<path class="y-gridline" d="M 0 3 L 660 3"/>
			<text class="y-axis-label" x="-5" y="3">
				500
			</text>
		</g>
		<g>
			<path class="series-1-line" d="M 40 409.20838 L 48 439.46600274 L 56 414.868825479 L 64 480.978698219 L 72 444.018820959 L 80 356.196943699 L 88 445.573066438 L 96 379.491439178 L 104 429.716911918 L 112 424.974534658 L 120 442.534507397 L 128 432.070680137 L 136 430.268302877 L 144 447.490525616 L 152 455.492348356 L 160 460.913271096 L 168 444.213143836 L 176 448.579166575 L 185 403.812189315 L 193 422.112062055 L 201 383.199884795 L 209 425.147157534 L 217 414.436930274 L 225 366.012453014 L 233 382.965525753 L 241 383.204348493 L 249 321.003871233 L 257 340.581943973 L 265 269.497066712 L 273 268.008289452 L 281 301.249662192 L 289 283.405734932 L 297 242.294857671 L 305 243.520330411 L 313 243.893903151 L 321 203.63527589 L 330 229.67574863 L 338 172.09702137 L 346 182.43159411 L 354 146.503866849 L 362 186.319289589 L 370 176.955512329 L 378 144.459885068 L 386 179.989907808 L 394 133.001480548 L 402 104.612403288 L 410 64.3541260274 L 418 85.5477987671 L 426 39.5460215068 L 434 70.2530442466 L 442 97.7509169863 L 450 48.653039726 L 458 18.1314124658 L 466 103.200085205 L 475 25.8995579452 L 483 110.407880685 L 491 107.371403425 L 499 84.2995261644 L 507 313.428548904 L 515 219.841471644 L 523 292.794894384 L 531 275.061917123 L 539 238.302239863 L 547 324.605712603 L 555 333.841985342 L 563 334.418208082 L 571 434.002430822 L 579 448.219203562 L 587 482.066426301 L 595 438.241299041 L 603 452.480121781 L 611 450.722194521 L 620 362.42886726"/>
			<path class="series-2-line" d="M 40 442.05 L 48 413.863013699 L 56 480.176027397 L 64 421.364041096 L 72 436.927054795 L 80 469.990068493 L 88 433.053082192 L 96 452.99109589 L 104 415.179109589 L 112 386.992123288 L 120 462.930136986 L 128 405.868150685 L 136 465.181164384 L 144 422.994178082 L 152 454.307191781 L 160 410.370205479 L 168 439.058219178 L 176 354.871232877 L 185 428.184246575 L 193 456.872260274 L 201 435.685273973 L 209 460.873287671 L 217 442.31130137 L 225 471.874315068 L 233 437.562328767 L 241 451.375342466 L 249 445.938356164 L 257 411.626369863 L 265 427.189383562 L 273 437.50239726 L 281 387.440410959 L 289 458.128424658 L 297 438.691438356 L 305 400.879452055 L 313 427.817465753 L 321 377.755479452 L 330 427.443493151 L 338 417.631506849 L 346 392.069520548 L 354 417.257534247 L 362 399.570547945 L 370 409.883561644 L 378 377.321575342 L 386 345.634589041 L 394 390.07260274 L 402 433.635616438 L 410 417.698630137 L 418 404.386643836 L 426 397.199657534 L 434 435.512671233 L 442 394.200684932 L 450 392.26369863 L 458 324.701712329 L 466 311.389726027 L 475 238.577739726 L 483 278.640753425 L 491 325.703767123 L 499 358.766780822 L 507 292.079794521 L 515 405.642808219 L 523 405.455821918 L 531 356.268835616 L 539 203.831849315 L 547 271.019863014 L 555 348.707876712 L 563 446.520890411 L 571 386.83390411 L 579 438.271917808 L 587 396.084931507 L 595 424.772945205 L 603 438.585958904 L 611 456.773972603 L 620 460.961986301"/>
		</g>
		<text class="x-axis-label" x="40.0" y="540">
			0
		</text>
		<path class="x-notch" d="M 80.2777777778 525 L 80.2777777778 530"/>
		<text class="x-axis-label" x="120.555555556" y="540">
			10
		</text>
		<path class="x-notch" d="M 160.833333333 525 L 160.833333333 530"/>
		<text class="x-axis-label" x="201.111111111" y="540">
			20
		</text>
		<path class="x-notch" d="M 241.388888889 525 L 241.388888889 530"/>
		<text class="x-axis-label" x="281.666666667" y="540">
			30
		</text>
		<path class="x-notch" d="M 321.944444444 525 L 321.944444444 530"/>
		<text class="x-axis-label" x="362.222222222" y="540">
			40
		</text>
		<path class="x-notch" d="M 402.5 525 L 402.5 530"/>
		<text class="x-axis-label" x="442.777777778" y="540">
			50
		</text>
		<path class="x-notch" d="M 483.055555556 525 L 483.055555556 530"/>
		<text class="x-axis-label" x="523.333333333" y="540">
			60
		</text>
		<path class="x-notch" d="M 563.611111111 525 L 563.611111111 530"/>
		<text class="x-axis-label" x="603.888888889" y="540">
			70
		</text>
		<path class="x-notch" d="M 644.166666667 525 L 644.166666667 530"/>
	</g>
</svg>
