<?xml version="1.0" ?>
<svg height="600" version="1.1" width="800" xmlns="http://www.w3.org/2000/svg" xmlns:svg="http://www.w3.org/2000/svg">
	<style type="text/css">
		

.x-axis-path, .y-gridline, .x-notch { fill:none; stroke: #a7a9ac; stroke-width:1; }



.y-gridline { stroke-width: 1; }

.y-axis-path, .y-axis-path2, .x-notch-left, .x-notch-right { display: none;}



.x-axis-label, .data-point-label {font-size: 12px; font-weight:normal; font-family: sans-serif; fill: #58595b; text-anchor:middle;}

.y-axis-label {font-size: 12px; font-family: helvetica; fill: #a7a9ac; text-anchor:end;}



.series-1-line { fill: none; stroke: #10b80c; stroke-width:2; }



.series-2-line { fill: none; stroke: #e90f0a; stroke-width: 2;}

	</style>
	<rect fill="white" height="600" width="800" x="0" y="0"/>
	<g id="grid" transform="translate(70, 30)">
		<g class="x-axis" id="x_axis">
			<path class="x-axis-path" d="M 0 525 L 660 525"/>
			<path class="x-notch-left" d="M 0 525, L 0 535"/>
			<path class="x-notch-right" d="M 660 525, L 660 535"/>
		</g>
		<g class="y-axis" id="y_axis">
			<path class="y-axis-path" d="M 0 525 L 0 0"/>
			<path class="y-axis-path-2" d="M 660 525 L 660 0"/>
			<path class="y-gridline" d="M 0 525 L 660 525"/>
			<text class="y-axis-label" x="-5" y="525">
				-200
			</text>
			<path class="y-gridline" d="M 0 420 L 660 420"/>
			<text class="y-axis-label" x="-5" y="420">
				 0
			</text>
			<path class="y-gridline" d="M 0 315 L 660 315"/>
			<text class="y-axis-label" x="-5" y="315">
				200
			</text>
			<path class="y-gridline" d="M 0 210 L 660 210"/>
			<text class="y-axis-label" x="-5" y="210">
				400
			</text>
			<path class="y-gridline" d="M 0 105 L 660 105"/>
			<text class="y-axis-label" x="-5" y="105">
				600
			</text>
			<path class="y-gridline" d="M 0 0 L 660 0"/>
			<text class="y-axis-label" x="-5" y="0">
				800
			</text>
		</g>
		<g>
			<path class="series-1-line" d="M 40 448.69188 L 44 396.968529051 L 49 428.302698102 L 54 391.239027153 L 59 426.005856203 L 64 425.517045254 L 69 426.118344305 L 74 390.091233356 L 79 406.281252407 L 84 408.753861458 L 89 407.443950508 L 94 392.282229559 L 99 411.87802861 L 104 410.204397661 L 109 386.925336712 L 114 390.070995763 L 119 406.557324814 L 124 371.418723864 L 129 379.571832915 L 134 351.406281966 L 139 382.794421017 L 144 378.953590068 L 149 339.856909119 L 154 314.922208169 L 158 342.82371722 L 163 312.975436271 L 168 296.978755322 L 173 322.915084373 L 178 263.383723424 L 183 279.156472475 L 188 222.735211525 L 193 229.313530576 L 198 218.984329627 L 203 187.937788678 L 208 195.889087729 L 213 225.04282678 L 218 232.145935831 L 223 160.917154881 L 228 214.045543932 L 233 192.650812983 L 238 204.129482034 L 243 198.175211085 L 248 224.730620136 L 253 203.726279186 L 258 222.958778237 L 263 194.133407288 L 268 100.369526339 L 272 219.27138539 L 277 209.574704441 L 282 196.351283492 L 287 118.135802542 L 292 119.033201593 L 297 127.873220644 L 302 131.907599695 L 307 81.7458087458 L 312 83.7608277966 L 317 58.4758468475 L 322 36.5160058983 L 327 13.2770549492 L 332 101.957184 L 337 115.010643051 L 342 52.9624321017 L 347 42.0005011525 L 352 62.6328602034 L 357 101.047809254 L 362 79.4514783051 L 367 122.847207356 L 372 146.279706407 L 377 134.510115458 L 382 107.111694508 L 387 171.722883559 L 391 129.01861261 L 396 120.506751661 L 401 138.985350712 L 406 132.923139763 L 411 156.032658814 L 416 76.2283178644 L 421 71.7408969153 L 426 46.4428959661 L 431 11.8964950169 L 436 125.547934068 L 441 231.459403119 L 446 235.224352169 L 451 215.52579122 L 456 185.340880271 L 461 201.086959322 L 466 290.763328373 L 471 263.041927424 L 476 263.064676475 L 481 261.135475525 L 486 334.335244576 L 491 296.288773627 L 496 264.972802678 L 501 294.207181729 L 505 333.22798078 L 510 379.773709831 L 515 369.417628881 L 520 391.988497932 L 525 389.090146983 L 530 393.124316034 L 535 387.654725085 L 540 355.571624136 L 545 368.302103186 L 550 397.724852237 L 555 392.120651288 L 560 339.899180339 L 565 403.46015939 L 570 373.409858441 L 575 398.403917492 L 580 421.122836542 L 585 418.116755593 L 590 420.481634644 L 595 415.079453695 L 600 420.527132746 L 605 423.309491797 L 610 430.170680847 L 615 428.483819898 L 620 410.696888949"/>
			<path class="series-2-line" d="M 40 415.8 L 44 423.404491525 L 49 414.208983051 L 54 428.113474576 L 59 415.767966102 L 64 416.022457627 L 69 389.501949153 L 74 405.506440678 L 79 404.185932203 L 84 392.890423729 L 89 398.394915254 L 94 414.92440678 L 99 414.653898305 L 104 394.958389831 L 109 408.337881356 L 114 394.417372881 L 119 408.321864407 L 124 429.051355932 L 129 391.505847458 L 134 409.610338983 L 139 412.489830508 L 144 403.294322034 L 149 386.223813559 L 154 412.203305085 L 158 406.15779661 L 163 420.587288136 L 168 403.516779661 L 173 417.421271186 L 178 394.050762712 L 183 396.405254237 L 188 420.284745763 L 193 403.214237288 L 198 402.943728814 L 203 399.523220339 L 208 373.002711864 L 213 396.88220339 L 218 359.336694915 L 223 400.016186441 L 228 389.770677966 L 233 375.325169492 L 238 392.379661017 L 243 385.284152542 L 248 384.488644068 L 253 370.568135593 L 258 386.047627119 L 263 384.202118644 L 268 377.631610169 L 272 405.711101695 L 277 388.64059322 L 282 389.420084746 L 287 414.349576271 L 292 382.579067797 L 297 381.258559322 L 302 392.538050847 L 307 402.242542373 L 312 400.922033898 L 317 399.601525424 L 322 411.931016949 L 327 398.535508475 L 332 370.44 L 337 367.019491525 L 342 388.273983051 L 347 384.328474576 L 352 386.157966102 L 357 378.012457627 L 362 395.066949153 L 367 387.971440678 L 372 403.450932203 L 377 402.655423729 L 382 403.434915254 L 387 403.68940678 L 391 396.593898305 L 396 399.473389831 L 401 409.702881356 L 406 378.457372881 L 411 403.386864407 L 416 389.466355932 L 421 337.745847458 L 426 379.475338983 L 431 389.704830508 L 436 376.834322034 L 441 404.388813559 L 446 396.243305085 L 451 383.37279661 L 456 388.877288136 L 461 415.906779661 L 466 396.211271186 L 471 406.440762712 L 476 408.795254237 L 481 408.524745763 L 486 420.329237288 L 491 423.733728814 L 496 400.888220339 L 501 412.167711864 L 505 411.89720339 L 510 404.801694915 L 515 408.731186441 L 520 415.285677966 L 525 422.890169492 L 530 413.694661017 L 535 412.899152542 L 540 407.378644068 L 545 413.408135593 L 550 415.762627119 L 555 415.492118644 L 560 418.896610169 L 565 398.676101695 L 570 403.65559322 L 575 421.235084746 L 580 425.164576271 L 585 429.094067797 L 590 414.123559322 L 595 423.303050847 L 600 418.832542373 L 605 420.662033898 L 610 420.916525424 L 615 423.796016949 L 620 419.850508475"/>
		</g>
		<text class="x-axis-label" x="40.0" y="540">
			0
		</text>
		<path class="x-notch" d="M 64.7863247863 525 L 64.7863247863 530"/>
		<text class="x-axis-label" x="89.5726495726" y="540">
			10
		</text>
		<path class="x-notch" d="M 114.358974359 525 L 114.358974359 530"/>
		<text class="x-axis-label" x="139.145299145" y="540">
			20
		</text>
		<path class="x-notch" d="M 163.931623932 525 L 163.931623932 530"/>
		<text class="x-axis-label" x="188.717948718" y="540">
			30
		</text>
		<path class="x-notch" d="M 213.504273504 525 L 213.504273504 530"/>
		<text class="x-axis-label" x="238.290598291" y="540">
			40
		</text>
		<path class="x-notch" d="M 263.076923077 525 L 263.076923077 530"/>
		<text class="x-axis-label" x="287.863247863" y="540">
			50
		</text>
		<path class="x-notch" d="M 312.64957265 525 L 312.64957265 530"/>
		<text class="x-axis-label" x="337.435897436" y="540">
			60
		</text>
		<path class="x-notch" d="M 362.222222222 525 L 362.222222222 530"/>
		<text class="x-axis-label" x="387.008547009" y="540">
			70
		</text>
		<path class="x-notch" d="M 411.794871795 525 L 411.794871795 530"/>
		<text class="x-axis-label" x="436.581196581" y="540">
			80
		</text>
		<path class="x-notch" d="M 461.367521368 525 L 461.367521368 530"/>
		<text class="x-axis-label" x="486.153846154" y="540">
			90
		</text>
		<path class="x-notch" d="M 510.94017094 525 L 510.94017094 530"/>
		<text class="x-axis-label" x="535.726495726" y="540">
			100
		</text>
		<path class="x-notch" d="M 560.512820513 525 L 560.512820513 530"/>
		<text class="x-axis-label" x="585.299145299" y="540">
			110
		</text>
		<path class="x-notch" d="M 610.085470085 525 L 610.085470085 530"/>
	</g>
</svg>
