<?xml version="1.0" ?>
<svg height="600" version="1.1" width="800" xmlns="http://www.w3.org/2000/svg" xmlns:svg="http://www.w3.org/2000/svg">
	<style type="text/css">
		

.x-axis-path, .y-gridline, .x-notch { fill:none; stroke: #a7a9ac; stroke-width:1; }



.y-gridline { stroke-width: 1; }

.y-axis-path, .y-axis-path2, .x-notch-left, .x-notch-right { display: none;}



.x-axis-label, .data-point-label {font-size: 12px; font-weight:normal; font-family: sans-serif; fill: #58595b; text-anchor:middle;}

.y-axis-label {font-size: 12px; font-family: helvetica; fill: #a7a9ac; text-anchor:end;}



.series-1-line { fill: none; stroke: #10b80c; stroke-width:2; }



.series-2-line { fill: none; stroke: #e90f0a; stroke-width: 2;}

	</style>
	<rect fill="white" height="600" width="800" x="0" y="0"/>
	<g id="grid" transform="translate(70, 30)">
		<g class="x-axis" id="x_axis">
			<path class="x-axis-path" d="M 0 525 L 660 525"/>
			<path class="x-notch-left" d="M 0 525, L 0 535"/>
			<path class="x-notch-right" d="M 660 525, L 660 535"/>
		</g>
		<g class="y-axis" id="y_axis">
			<path class="y-axis-path" d="M 0 525 L 0 0"/>
			<path class="y-axis-path-2" d="M 660 525 L 660 0"/>
			<path class="y-gridline" d="M 0 525 L 660 525"/>
			<text class="y-axis-label" x="-5" y="525">
				-250
			</text>
			<path class="y-gridline" d="M 0 420 L 660 420"/>
			<text class="y-axis-label" x="-5" y="420">
				 0
			</text>
			<path class="y-gridline" d="M 0 315 L 660 315"/>
			<text class="y-axis-label" x="-5" y="315">
				250
			</text>
			<path class="y-gridline" d="M 0 210 L 660 210"/>
			<text class="y-axis-label" x="-5" y="210">
				500
			</text>
			<path class="y-gridline" d="M 0 105 L 660 105"/>
			<text class="y-axis-label" x="-5" y="105">
				750
			</text>
			<path class="y-gridline" d="M 0 0 L 660 0"/>
			<text class="y-axis-label" x="-5" y="0">
				1000
			</text>
		</g>
		<g>
			<path class="series-1-line" d="M 40 419.6208912 L 46 406.051654532 L 53 437.853337864 L 60 420.902429195 L 67 413.202440527 L 74 418.285571859 L 81 419.717895191 L 88 403.617906522 L 95 402.605661854 L 102 386.419489186 L 109 371.514988518 L 115 382.165639849 L 122 381.023867181 L 129 391.211846513 L 136 373.065617845 L 143 407.753205176 L 150 377.125584508 L 157 369.89935584 L 164 372.440983172 L 171 345.582442504 L 178 333.941005835 L 185 331.022465167 L 191 254.334788499 L 198 266.590175831 L 205 254.054811162 L 212 236.080782494 L 219 192.379233826 L 226 199.583701158 L 233 210.826888489 L 240 168.568291821 L 247 172.283567153 L 254 173.694386485 L 260 116.294453816 L 267 99.4512331482 L 274 95.16483648 L 281 110.295711812 L 288 70.3849151435 L 295 75.7373504753 L 302 53.7034338071 L 309 93.4093491388 L 316 90.7601124706 L 323 55.7814598024 L 330 29.8059271341 L 336 57.4402024659 L 343 2.18294179765 L 350 100.807465129 L 357 14.6644124612 L 364 124.769047793 L 371 93.3444351247 L 378 47.1872304565 L 385 31.2703617882 L 392 304.22798112 L 399 354.089832452 L 405 299.166387784 L 412 293.792863115 L 419 387.700786447 L 426 403.488541779 L 433 400.010057111 L 440 427.923884442 L 447 423.260999774 L 454 426.017835106 L 461 428.085702438 L 468 425.145657769 L 475 435.699373101 L 481 429.604120433 L 488 434.676331765 L 495 428.193335096 L 502 438.036410428 L 509 426.80405376 L 516 435.440889092 L 523 417.574716424 L 530 403.197567755 L 537 413.730115087 L 544 425.317870419 L 550 424.187185751 L 557 426.082349082 L 564 433.944032414 L 571 414.483875746 L 578 424.370127078 L 585 421.139442409 L 592 429.216333741 L 599 415.043977073 L 606 421.193236405 L 613 412.653247736 L 620 425.447075068"/>
			<path class="series-2-line" d="M 40 416.892 L 46 416.316847059 L 53 430.441694118 L 60 416.846541176 L 67 417.951388235 L 74 423.256235294 L 81 424.781082353 L 88 425.885929412 L 95 432.030776471 L 102 430.195623529 L 109 441.380470588 L 115 429.885317647 L 122 407.050164706 L 129 435.035011765 L 136 427.739858824 L 143 417.504705882 L 150 424.489552941 L 157 417.1944 L 164 425.859247059 L 171 418.144094118 L 178 428.068941176 L 185 420.353788235 L 191 421.878635294 L 198 422.143482353 L 205 424.088329412 L 212 406.293176471 L 219 405.298023529 L 226 390.862870588 L 233 401.627717647 L 240 388.452564706 L 247 377.797411765 L 254 382.682258824 L 260 389.247105882 L 267 375.231952941 L 274 351.5568 L 281 361.901647059 L 288 359.226494118 L 295 371.671341176 L 302 364.796188235 L 309 341.541035294 L 316 340.965882353 L 323 322.330729412 L 330 307.895576471 L 336 349.740423529 L 343 316.825270588 L 350 307.850117647 L 357 310.214964706 L 364 312.159811765 L 371 312.424658824 L 378 284.969505882 L 385 290.274352941 L 392 358.1592 L 399 388.664047059 L 405 352.808894118 L 412 384.153741176 L 419 406.678588235 L 426 412.823435294 L 433 410.568282353 L 440 408.733129412 L 447 427.477976471 L 454 418.922823529 L 461 435.987670588 L 468 431.632517647 L 475 418.877364706 L 481 431.742211765 L 488 422.347058824 L 495 430.171905882 L 502 430.016752941 L 509 425.2416 L 516 416.686447059 L 523 414.851294118 L 530 392.856141176 L 537 416.220988235 L 544 422.365835294 L 550 430.610682353 L 557 409.035529412 L 564 423.160376471 L 571 407.885223529 L 578 417.390070588 L 585 425.634917647 L 592 422.539764706 L 599 417.764611765 L 606 420.549458824 L 613 421.654305882 L 620 419.819152941"/>
		</g>
		<text class="x-axis-label" x="40.0" y="540">
			0
		</text>
		<path class="x-notch" d="M 74.5238095238 525 L 74.5238095238 530"/>
		<text class="x-axis-label" x="109.047619048" y="540">
			10
		</text>
		<path class="x-notch" d="M 143.571428571 525 L 143.571428571 530"/>
		<text class="x-axis-label" x="178.095238095" y="540">
			20
		</text>
		<path class="x-notch" d="M 212.619047619 525 L 212.619047619 530"/>
		<text class="x-axis-label" x="247.142857143" y="540">
			30
		</text>
		<path class="x-notch" d="M 281.666666667 525 L 281.666666667 530"/>
		<text class="x-axis-label" x="316.19047619" y="540">
			40
		</text>
		<path class="x-notch" d="M 350.714285714 525 L 350.714285714 530"/>
		<text class="x-axis-label" x="385.238095238" y="540">
			50
		</text>
		<path class="x-notch" d="M 419.761904762 525 L 419.761904762 530"/>
		<text class="x-axis-label" x="454.285714286" y="540">
			60
		</text>
		<path class="x-notch" d="M 488.80952381 525 L 488.80952381 530"/>
		<text class="x-axis-label" x="523.333333333" y="540">
			70
		</text>
		<path class="x-notch" d="M 557.857142857 525 L 557.857142857 530"/>
		<text class="x-axis-label" x="592.380952381" y="540">
			80
		</text>
		<path class="x-notch" d="M 626.904761905 525 L 626.904761905 530"/>
	</g>
</svg>
