<?xml version="1.0" ?>
<svg height="600" version="1.1" width="800" xmlns="http://www.w3.org/2000/svg" xmlns:svg="http://www.w3.org/2000/svg">
	<style type="text/css">
		

.x-axis-path, .y-gridline, .x-notch { fill:none; stroke: #a7a9ac; stroke-width:1; }



.y-gridline { stroke-width: 1; }

.y-axis-path, .y-axis-path2, .x-notch-left, .x-notch-right { display: none;}



.x-axis-label, .data-point-label {font-size: 12px; font-weight:normal; font-family: sans-serif; fill: #58595b; text-anchor:middle;}

.y-axis-label {font-size: 12px; font-family: helvetica; fill: #a7a9ac; text-anchor:end;}



.series-1-line { fill: none; stroke: #10b80c; stroke-width:2; }



.series-2-line { fill: none; stroke: #e90f0a; stroke-width: 2;}

	</style>
	<rect fill="white" height="600" width="800" x="0" y="0"/>
	<g id="grid" transform="translate(70, 30)">
		<g class="x-axis" id="x_axis">
			<path class="x-axis-path" d="M 0 525 L 660 525"/>
			<path class="x-notch-left" d="M 0 525, L 0 535"/>
			<path class="x-notch-right" d="M 660 525, L 660 535"/>
		</g>
		<g class="y-axis" id="y_axis">
			<path class="y-axis-path" d="M 0 525 L 0 0"/>
			<path class="y-axis-path-2" d="M 660 525 L 660 0"/>
			<path class="y-gridline" d="M 0 525 L 660 525"/>
			<text class="y-axis-label" x="-5" y="525">
				-200
			</text>
			<path class="y-gridline" d="M 0 420 L 660 420"/>
			<text class="y-axis-label" x="-5" y="420">
				 0
			</text>
			<path class="y-gridline" d="M 0 315 L 660 315"/>
			<text class="y-axis-label" x="-5" y="315">
				200
			</text>
			<path class="y-gridline" d="M 0 210 L 660 210"/>
			<text class="y-axis-label" x="-5" y="210">
				400
			</text>
			<path class="y-gridline" d="M 0 105 L 660 105"/>
			<text class="y-axis-label" x="-5" y="105">
				600
			</text>
			<path class="y-gridline" d="M 0 0 L 660 0"/>
			<text class="y-axis-label" x="-5" y="0">
				800
			</text>
		</g>
		<g>
			<path class="series-1-line" d="M 40 427.053816 L 43 422.02034312 L 46 412.975870239 L 49 411.038847359 L 52 426.251894478 L 55 416.641261598 L 59 404.096928717 L 62 418.515125837 L 65 409.080052957 L 68 424.306330076 L 71 427.740477196 L 74 411.615224315 L 78 427.743241435 L 81 410.029128554 L 84 388.465295674 L 87 398.913232793 L 90 419.147169913 L 93 421.248237033 L 97 424.534334152 L 100 422.556991272 L 103 407.965998391 L 106 428.401955511 L 109 394.02308263 L 112 403.60896975 L 116 414.94457687 L 119 405.051913989 L 122 401.957161109 L 125 361.466448228 L 128 366.744605348 L 131 370.703962467 L 135 383.022369587 L 138 381.072116707 L 141 405.976873826 L 144 386.216730946 L 147 361.502688065 L 150 385.412045185 L 154 357.722722304 L 157 367.174419424 L 160 341.989136543 L 163 359.490553663 L 166 336.863070783 L 169 322.366157902 L 173 364.314095022 L 176 354.272752141 L 179 340.529529261 L 182 314.52356638 L 185 337.7590335 L 188 357.65655062 L 192 318.000377739 L 195 302.870944859 L 198 311.164701978 L 201 300.437289098 L 204 323.390936217 L 207 312.932533337 L 211 282.752400457 L 214 278.729657576 L 217 277.734694696 L 220 255.672741815 L 223 259.362668935 L 226 246.306146054 L 230 281.684233174 L 233 241.920330293 L 236 207.352037413 L 239 212.872534533 L 242 170.012811652 L 246 215.230448772 L 249 144.694195891 L 252 199.039693011 L 255 207.32001013 L 258 197.49433725 L 261 129.54192437 L 265 183.779481489 L 268 162.014048609 L 271 155.446105728 L 274 137.179482848 L 277 142.417949967 L 280 119.386847087 L 284 68.0729442065 L 287 72.1257513261 L 290 68.9501484457 L 293 126.297175565 L 296 76.1817426848 L 299 98.3539798043 L 303 112.409926924 L 306 96.4056340435 L 309 45.845211163 L 312 59.1726682826 L 315 71.6672654022 L 318 30.6370625217 L 322 75.9502496413 L 325 83.0995067609 L 328 84.3528038804 L 331 103.348791 L 334 121.50918812 L 337 103.943335239 L 341 78.3273423587 L 344 73.1057094783 L 347 82.8123465978 L 350 121.206873717 L 353 21.566090837 L 356 111.153787957 L 360 146.788495076 L 363 164.801892196 L 366 105.720089315 L 369 118.901176435 L 372 211.745973554 L 375 159.826640674 L 379 232.991497793 L 382 188.878494913 L 385 220.555962033 L 388 213.544079152 L 391 214.406356272 L 394 177.900183391 L 398 170.308700511 L 401 169.75809763 L 404 115.13312475 L 407 115.57771187 L 410 140.577598989 L 413 166.182916109 L 417 133.513233228 L 420 198.278300348 L 423 164.235217467 L 426 208.511634587 L 429 182.882411707 L 433 220.333828826 L 436 193.762335946 L 439 219.327123065 L 442 230.421020185 L 445 269.824177304 L 448 227.839104424 L 452 252.568931543 L 455 276.976408663 L 458 297.277965783 L 461 305.262812902 L 464 319.883030022 L 467 302.653387141 L 471 306.100764261 L 474 347.29522138 L 477 355.4951085 L 480 390.63127562 L 483 414.109712739 L 486 423.722479859 L 490 432.797226978 L 493 427.656444098 L 496 426.607931217 L 499 412.299598337 L 502 423.649065457 L 505 434.540942576 L 509 430.328779696 L 512 415.037856815 L 515 421.245053935 L 518 423.238811054 L 521 427.843708174 L 524 429.797145293 L 528 428.412002413 L 531 411.505969533 L 534 402.124866652 L 537 407.564513772 L 540 396.675400891 L 543 412.534618011 L 547 416.89738513 L 550 430.05054225 L 553 428.14039937 L 556 414.532416489 L 559 390.316493609 L 562 406.108090728 L 566 397.574967848 L 569 407.833904967 L 572 418.954682087 L 575 418.700389207 L 578 398.926596326 L 581 404.474393446 L 585 422.083120565 L 588 411.854037685 L 591 394.638044804 L 594 425.075881924 L 597 415.250419043 L 600 426.088326163 L 604 426.722543283 L 607 418.350700402 L 610 434.640417522 L 613 411.165164641 L 616 418.826191761 L 620 418.00636888"/>
			<path class="series-2-line" d="M 40 417.06 L 43 392.924266304 L 46 421.288532609 L 49 426.027798913 L 52 437.592065217 L 55 390.356331522 L 59 432.370597826 L 62 383.55986413 L 65 390.924130435 L 68 379.913396739 L 71 386.227663043 L 74 413.541929348 L 78 384.681195652 L 81 373.145461957 L 84 388.909728261 L 87 427.248994565 L 90 413.08826087 L 93 381.602527174 L 97 390.541793478 L 100 401.581059783 L 103 394.245326087 L 106 389.534592391 L 109 438.898858696 L 112 427.363125 L 116 388.527391304 L 119 405.866657609 L 122 406.930923913 L 125 426.895190217 L 128 411.684456522 L 131 438.473722826 L 135 410.13798913 L 138 437.452255435 L 141 390.741521739 L 144 391.280788043 L 147 386.570054348 L 150 413.359320652 L 154 381.348586957 L 157 411.287853261 L 160 398.177119565 L 163 400.81638587 L 166 398.205652174 L 169 376.169918478 L 173 414.509184783 L 176 373.048451087 L 179 335.787717391 L 182 368.876983696 L 185 316.39125 L 188 313.780516304 L 192 326.394782609 L 195 321.159048913 L 198 326.948315217 L 201 331.162581522 L 204 363.726847826 L 207 346.41611413 L 211 272.930380435 L 214 357.469646739 L 217 338.058913043 L 220 349.623179348 L 223 356.987445652 L 226 335.476711957 L 230 313.440978261 L 233 322.380244565 L 236 278.29451087 L 239 266.233777174 L 242 307.723043478 L 246 204.312309783 L 249 284.126576087 L 252 272.065842391 L 255 279.955108696 L 258 266.319375 L 261 270.533641304 L 265 234.322907609 L 268 281.587173913 L 271 271.626440217 L 274 202.865706522 L 277 255.379972826 L 280 274.81923913 L 284 283.758505435 L 287 234.422771739 L 290 227.612038043 L 293 177.226304348 L 296 224.490570652 L 299 194.579836957 L 303 263.894103261 L 306 272.308369565 L 309 245.54763587 L 312 162.086902174 L 315 249.776168478 L 318 169.465434783 L 322 194.679701087 L 325 174.218967391 L 328 172.658233696 L 331 208.3725 L 334 149.061766304 L 337 155.376032609 L 341 148.040298913 L 344 153.304565217 L 347 102.393831522 L 350 183.258097826 L 353 196.39736413 L 356 173.836630435 L 360 234.750896739 L 363 280.440163043 L 366 231.629429348 L 369 314.593695652 L 372 234.282961957 L 375 276.297228261 L 379 276.836494565 L 382 186.02576087 L 385 291.040027174 L 388 309.429293478 L 391 245.918559783 L 394 258.532826087 L 398 203.422092391 L 401 196.611358696 L 404 251.225625 L 407 150.439891304 L 410 191.404157609 L 413 199.293423913 L 417 207.182690217 L 420 228.196956522 L 423 204.586222826 L 426 207.22548913 L 429 222.464755435 L 433 225.104021739 L 436 244.018288043 L 439 237.732554348 L 442 257.171820652 L 445 241.961086957 L 448 249.325353261 L 452 209.439619565 L 455 240.42888587 L 458 256.718152174 L 461 331.282418478 L 464 291.921684783 L 467 266.210951087 L 471 249.950217391 L 474 323.989483696 L 477 364.95375 L 480 380.718016304 L 483 392.807282609 L 486 377.071548913 L 490 404.385815217 L 493 417.525081522 L 496 426.989347826 L 499 416.50361413 L 502 416.517880435 L 505 426.507146739 L 509 417.596413043 L 512 417.085679348 L 515 420.774945652 L 518 426.564211957 L 521 393.503478261 L 524 405.592744565 L 528 406.13201087 L 531 432.396277174 L 534 451.835543478 L 537 431.899809783 L 540 420.364076087 L 543 433.503342391 L 547 417.767608696 L 550 402.556875 L 553 403.096141304 L 556 426.735407609 L 559 426.224673913 L 562 408.913940217 L 566 418.903206522 L 569 404.742472826 L 572 419.98173913 L 575 428.396005435 L 578 410.560271739 L 581 435.249538043 L 585 400.613804348 L 588 429.503070652 L 591 422.167336957 L 594 413.256603261 L 597 420.095869565 L 600 418.01013587 L 604 431.149402174 L 607 415.938668478 L 610 402.827934783 L 613 430.142201087 L 616 432.256467391 L 620 426.495733696"/>
		</g>
		<text class="x-axis-label" x="40.0" y="540">
			0
		</text>
		<path class="x-notch" d="M 55.8469945355 525 L 55.8469945355 530"/>
		<text class="x-axis-label" x="71.693989071" y="540">
			10
		</text>
		<path class="x-notch" d="M 87.5409836066 525 L 87.5409836066 530"/>
		<text class="x-axis-label" x="103.387978142" y="540">
			20
		</text>
		<path class="x-notch" d="M 119.234972678 525 L 119.234972678 530"/>
		<text class="x-axis-label" x="135.081967213" y="540">
			30
		</text>
		<path class="x-notch" d="M 150.928961749 525 L 150.928961749 530"/>
		<text class="x-axis-label" x="166.775956284" y="540">
			40
		</text>
		<path class="x-notch" d="M 182.62295082 525 L 182.62295082 530"/>
		<text class="x-axis-label" x="198.469945355" y="540">
			50
		</text>
		<path class="x-notch" d="M 214.316939891 525 L 214.316939891 530"/>
		<text class="x-axis-label" x="230.163934426" y="540">
			60
		</text>
		<path class="x-notch" d="M 246.010928962 525 L 246.010928962 530"/>
		<text class="x-axis-label" x="261.857923497" y="540">
			70
		</text>
		<path class="x-notch" d="M 277.704918033 525 L 277.704918033 530"/>
		<text class="x-axis-label" x="293.551912568" y="540">
			80
		</text>
		<path class="x-notch" d="M 309.398907104 525 L 309.398907104 530"/>
		<text class="x-axis-label" x="325.245901639" y="540">
			90
		</text>
		<path class="x-notch" d="M 341.092896175 525 L 341.092896175 530"/>
		<text class="x-axis-label" x="356.93989071" y="540">
			100
		</text>
		<path class="x-notch" d="M 372.786885246 525 L 372.786885246 530"/>
		<text class="x-axis-label" x="388.633879781" y="540">
			110
		</text>
		<path class="x-notch" d="M 404.480874317 525 L 404.480874317 530"/>
		<text class="x-axis-label" x="420.327868852" y="540">
			120
		</text>
		<path class="x-notch" d="M 436.174863388 525 L 436.174863388 530"/>
		<text class="x-axis-label" x="452.021857923" y="540">
			130
		</text>
		<path class="x-notch" d="M 467.868852459 525 L 467.868852459 530"/>
		<text class="x-axis-label" x="483.715846995" y="540">
			140
		</text>
		<path class="x-notch" d="M 499.56284153 525 L 499.56284153 530"/>
		<text class="x-axis-label" x="515.409836066" y="540">
			150
		</text>
		<path class="x-notch" d="M 531.256830601 525 L 531.256830601 530"/>
		<text class="x-axis-label" x="547.103825137" y="540">
			160
		</text>
		<path class="x-notch" d="M 562.950819672 525 L 562.950819672 530"/>
		<text class="x-axis-label" x="578.797814208" y="540">
			170
		</text>
		<path class="x-notch" d="M 594.644808743 525 L 594.644808743 530"/>
		<text class="x-axis-label" x="610.491803279" y="540">
			180
		</text>
		<path class="x-notch" d="M 626.338797814 525 L 626.338797814 530"/>
	</g>
</svg>
