<?xml version="1.0" ?>
<svg height="600" version="1.1" width="800" xmlns="http://www.w3.org/2000/svg" xmlns:svg="http://www.w3.org/2000/svg">
	<style type="text/css">
		

.x-axis-path, .y-gridline, .x-notch { fill:none; stroke: #a7a9ac; stroke-width:1; }



.y-gridline { stroke-width: 1; }

.y-axis-path, .y-axis-path2, .x-notch-left, .x-notch-right { display: none;}



.x-axis-label, .data-point-label {font-size: 12px; font-weight:normal; font-family: sans-serif; fill: #58595b; text-anchor:middle;}

.y-axis-label {font-size: 12px; font-family: helvetica; fill: #a7a9ac; text-anchor:end;}



.series-1-line { fill: none; stroke: #10b80c; stroke-width:2; }



.series-2-line { fill: none; stroke: #e90f0a; stroke-width: 2;}

	</style>
	<rect fill="white" height="600" width="800" x="0" y="0"/>
	<g id="grid" transform="translate(70, 30)">
		<g class="x-axis" id="x_axis">
			<path class="x-axis-path" d="M 0 525 L 660 525"/>
			<path class="x-notch-left" d="M 0 525, L 0 535"/>
			<path class="x-notch-right" d="M 660 525, L 660 535"/>
		</g>
		<g class="y-axis" id="y_axis">
			<path class="y-axis-path" d="M 0 525 L 0 0"/>
			<path class="y-axis-path-2" d="M 660 525 L 660 0"/>
			<path class="y-gridline" d="M 0 525 L 660 525"/>
			<text class="y-axis-label" x="-5" y="525">
				-100
			</text>
			<path class="y-gridline" d="M 0 438 L 660 438"/>
			<text class="y-axis-label" x="-5" y="438">
				 0
			</text>
			<path class="y-gridline" d="M 0 351 L 660 351"/>
			<text class="y-axis-label" x="-5" y="351">
				100
			</text>
			<path class="y-gridline" d="M 0 264 L 660 264"/>
			<text class="y-axis-label" x="-5" y="264">
				200
			</text>
			<path class="y-gridline" d="M 0 177 L 660 177"/>
			<text class="y-axis-label" x="-5" y="177">
				300
			</text>
			<path class="y-gridline" d="M 0 90 L 660 90"/>
			<text class="y-axis-label" x="-5" y="90">
				400
			</text>
			<path class="y-gridline" d="M 0 3 L 660 3"/>
			<text class="y-axis-label" x="-5" y="3">
				500
			</text>
		</g>
		<g>
			<path class="series-1-line" d="M 40 424.85072 L 45 460.138333604 L 50 448.624997207 L 55 413.015210811 L 61 436.120374414 L 66 439.975538018 L 71 443.359601622 L 76 449.547865225 L 82 444.653028829 L 87 408.976042432 L 92 424.475356036 L 98 399.56751964 L 103 435.057083243 L 108 432.832046847 L 113 415.21611045 L 119 355.712174054 L 124 429.814087658 L 129 363.848801261 L 134 378.046814865 L 140 344.546128468 L 145 395.269792072 L 150 335.676255676 L 156 316.265169279 L 161 288.306032883 L 166 297.276796486 L 171 198.19591009 L 177 200.996523694 L 182 162.066287297 L 187 165.697100901 L 192 213.010364505 L 198 129.455478108 L 203 181.323291712 L 208 78.4732553153 L 214 112.235218919 L 219 120.308232523 L 224 51.2244461261 L 229 83.6627097297 L 235 58.0146233333 L 240 123.388936937 L 245 122.442800541 L 250 131.615164144 L 256 162.079077748 L 261 157.812491351 L 266 162.609854955 L 272 171.939368559 L 277 182.121132162 L 282 124.187995766 L 287 178.389259369 L 293 136.609672973 L 298 177.663536577 L 303 199.01870018 L 308 184.723213784 L 314 203.228677387 L 319 239.032540991 L 324 216.727304595 L 330 187.265268198 L 335 212.456781802 L 340 184.385645405 L 345 195.554759009 L 351 193.060572613 L 356 204.386836216 L 361 233.45984982 L 366 254.276363423 L 372 277.291927027 L 377 281.057140631 L 382 252.716854234 L 388 256.728817838 L 393 270.635281441 L 398 258.740445045 L 403 247.316708649 L 409 307.912122252 L 414 298.260785856 L 419 275.574399459 L 424 320.890913063 L 430 301.794126667 L 435 269.61714027 L 440 324.895353874 L 446 353.564467477 L 451 357.419631081 L 456 335.675444685 L 461 350.950408288 L 467 379.170821892 L 472 367.500335495 L 477 358.701599099 L 482 391.139862703 L 488 406.594376306 L 493 406.23133991 L 498 421.080353514 L 504 431.105317117 L 509 412.905930721 L 514 406.350694324 L 519 443.321107928 L 525 438.269121532 L 530 442.752535135 L 535 431.149248739 L 540 457.372912342 L 546 447.474825946 L 551 441.07673955 L 556 413.858203153 L 562 421.482516757 L 567 439.42728036 L 572 444.897693964 L 577 444.108707568 L 583 448.277821171 L 588 430.302784775 L 593 435.750798378 L 598 436.958561982 L 604 444.425725586 L 609 440.203939189 L 614 429.812352793 L 620 443.224966396"/>
			<path class="series-2-line" d="M 40 445.2 L 45 428.40472973 L 50 443.984459459 L 55 430.689189189 L 61 437.518918919 L 66 444.348648649 L 71 456.428378378 L 76 440.508108108 L 82 447.337837838 L 87 444.542567568 L 92 443.497297297 L 98 432.827027027 L 103 418.656756757 L 108 418.486486486 L 113 430.566216216 L 119 425.145945946 L 124 427.600675676 L 129 440.555405405 L 134 437.760135135 L 140 436.714864865 L 145 434.794594595 L 150 443.374324324 L 156 428.329054054 L 161 415.908783784 L 166 443.738513514 L 171 435.693243243 L 177 436.397972973 L 182 429.227702703 L 187 436.932432432 L 192 421.012162162 L 198 447.966891892 L 203 438.171621622 L 208 438.001351351 L 214 420.331081081 L 219 417.535810811 L 224 439.240540541 L 229 423.32027027 L 235 425.775 L 240 424.72972973 L 245 429.809459459 L 250 426.139189189 L 256 411.093918919 L 261 422.298648649 L 266 418.628378378 L 272 424.583108108 L 277 399.912837838 L 282 422.492567568 L 287 424.072297297 L 293 417.777027027 L 298 422.856756757 L 303 429.686486486 L 308 435.641216216 L 314 409.220945946 L 319 414.300675676 L 324 407.130405405 L 330 424.460135135 L 335 412.914864865 L 340 417.994594595 L 345 409.949324324 L 351 417.654054054 L 356 419.233783784 L 361 416.438513514 L 366 404.893243243 L 372 425.722972973 L 377 412.427702703 L 382 425.382432432 L 388 407.712162162 L 393 416.291891892 L 398 423.121621622 L 403 424.701351351 L 409 418.406081081 L 414 416.485810811 L 419 434.690540541 L 424 423.14527027 L 430 427.35 L 435 424.55472973 L 440 428.759459459 L 446 420.714189189 L 451 427.543918919 L 456 435.248648649 L 461 435.078378378 L 467 428.783108108 L 472 434.737837838 L 477 436.317567568 L 482 420.397297297 L 488 426.352027027 L 493 408.681756757 L 498 440.886486486 L 504 440.716216216 L 509 441.420945946 L 514 434.250675676 L 519 427.955405405 L 525 425.160135135 L 530 436.364864865 L 535 431.819594595 L 540 429.899324324 L 546 432.354054054 L 551 434.808783784 L 556 443.388513514 L 562 442.343243243 L 567 435.172972973 L 572 428.877702703 L 577 443.582432432 L 583 435.537162162 L 588 435.366891892 L 593 432.571621622 L 598 442.901351351 L 604 432.231081081 L 609 436.435810811 L 614 447.640540541 L 620 430.84527027"/>
		</g>
		<text class="x-axis-label" x="40.0" y="540">
			0
		</text>
		<path class="x-notch" d="M 66.3636363636 525 L 66.3636363636 530"/>
		<text class="x-axis-label" x="92.7272727273" y="540">
			10
		</text>
		<path class="x-notch" d="M 119.090909091 525 L 119.090909091 530"/>
		<text class="x-axis-label" x="145.454545455" y="540">
			20
		</text>
		<path class="x-notch" d="M 171.818181818 525 L 171.818181818 530"/>
		<text class="x-axis-label" x="198.181818182" y="540">
			30
		</text>
		<path class="x-notch" d="M 224.545454545 525 L 224.545454545 530"/>
		<text class="x-axis-label" x="250.909090909" y="540">
			40
		</text>
		<path class="x-notch" d="M 277.272727273 525 L 277.272727273 530"/>
		<text class="x-axis-label" x="303.636363636" y="540">
			50
		</text>
		<path class="x-notch" d="M 330.0 525 L 330.0 530"/>
		<text class="x-axis-label" x="356.363636364" y="540">
			60
		</text>
		<path class="x-notch" d="M 382.727272727 525 L 382.727272727 530"/>
		<text class="x-axis-label" x="409.090909091" y="540">
			70
		</text>
		<path class="x-notch" d="M 435.454545455 525 L 435.454545455 530"/>
		<text class="x-axis-label" x="461.818181818" y="540">
			80
		</text>
		<path class="x-notch" d="M 488.181818182 525 L 488.181818182 530"/>
		<text class="x-axis-label" x="514.545454545" y="540">
			90
		</text>
		<path class="x-notch" d="M 540.909090909 525 L 540.909090909 530"/>
		<text class="x-axis-label" x="567.272727273" y="540">
			100
		</text>
		<path class="x-notch" d="M 593.636363636 525 L 593.636363636 530"/>
		<text class="x-axis-label" x="620.0" y="540">
			110
		</text>
	</g>
</svg>
