<?xml version="1.0" ?>
<svg height="600" version="1.1" width="800" xmlns="http://www.w3.org/2000/svg" xmlns:svg="http://www.w3.org/2000/svg">
	<style type="text/css">
		

.x-axis-path, .y-gridline, .x-notch { fill:none; stroke: #a7a9ac; stroke-width:1; }



.y-gridline { stroke-width: 1; }

.y-axis-path, .y-axis-path2, .x-notch-left, .x-notch-right { display: none;}



.x-axis-label, .data-point-label {font-size: 12px; font-weight:normal; font-family: sans-serif; fill: #58595b; text-anchor:middle;}

.y-axis-label {font-size: 12px; font-family: helvetica; fill: #a7a9ac; text-anchor:end;}



.series-1-line { fill: none; stroke: #10b80c; stroke-width:2; }



.series-2-line { fill: none; stroke: #e90f0a; stroke-width: 2;}

	</style>
	<rect fill="white" height="600" width="800" x="0" y="0"/>
	<g id="grid" transform="translate(70, 30)">
		<g class="x-axis" id="x_axis">
			<path class="x-axis-path" d="M 0 525 L 660 525"/>
			<path class="x-notch-left" d="M 0 525, L 0 535"/>
			<path class="x-notch-right" d="M 660 525, L 660 535"/>
		</g>
		<g class="y-axis" id="y_axis">
			<path class="y-axis-path" d="M 0 525 L 0 0"/>
			<path class="y-axis-path-2" d="M 660 525 L 660 0"/>
			<path class="y-gridline" d="M 0 525 L 660 525"/>
			<text class="y-axis-label" x="-5" y="525">
				-200
			</text>
			<path class="y-gridline" d="M 0 394 L 660 394"/>
			<text class="y-axis-label" x="-5" y="394">
				 0
			</text>
			<path class="y-gridline" d="M 0 263 L 660 263"/>
			<text class="y-axis-label" x="-5" y="263">
				200
			</text>
			<path class="y-gridline" d="M 0 132 L 660 132"/>
			<text class="y-axis-label" x="-5" y="132">
				400
			</text>
			<path class="y-gridline" d="M 0 1 L 660 1"/>
			<text class="y-axis-label" x="-5" y="1">
				600
			</text>
		</g>
		<g>
			<path class="series-1-line" d="M 40 372.987332939 L 48 401.916892861 L 56 388.030283699 L 64 389.223198227 L 73 411.971210562 L 81 383.470584053 L 89 372.482440212 L 98 335.898152708 L 106 335.380976977 L 114 333.464856967 L 122 288.375342045 L 131 264.840211619 L 139 273.99823496 L 147 281.538470403 L 156 245.840542353 L 164 252.063150897 L 172 233.100767871 L 180 220.841362305 L 189 242.162753918 L 197 232.692677186 L 205 162.417457384 L 214 230.707483014 L 222 173.318072216 L 230 131.429038221 L 238 136.81065385 L 247 120.344999748 L 255 178.666655748 L 263 157.984766766 L 272 126.530036729 L 280 157.005340202 L 288 74.1373392897 L 296 109.551318377 L 305 56.8530644986 L 313 64.7312663901 L 321 104.872638562 L 330 148.233751041 L 338 78.817784899 L 346 133.975766787 L 354 153.27649281 L 363 178.33748532 L 371 54.939617694 L 379 0.0 L 388 135.671034255 L 396 74.613496259 L 404 106.478756301 L 412 70.2966331789 L 421 103.881399177 L 429 197.969435301 L 437 202.985265377 L 446 278.865769218 L 454 177.725610104 L 462 198.782363573 L 470 272.193957594 L 479 250.980937717 L 487 258.202180766 L 495 128.318324691 L 504 257.588682417 L 512 364.534708443 L 520 333.217361982 L 528 375.206493312 L 537 368.452559773 L 545 405.769080254 L 553 403.597167148 L 562 400.729633779 L 570 394.908567529 L 578 404.277445412 L 586 389.741438499 L 595 402.429634815 L 603 398.291410369 L 611 393.887691806 L 620 391.331447078"/>
			<path class="series-2-line" d="M 40 408.515524468 L 48 370.322275629 L 56 404.53002841 L 64 381.316297148 L 73 389.48822176 L 81 394.450249749 L 89 379.796242815 L 98 435.759961601 L 106 415.042816601 L 114 417.864913507 L 122 437.449803892 L 131 418.872589975 L 139 377.112789331 L 147 420.950231983 L 156 408.079500952 L 164 379.159286803 L 172 384.477969972 L 180 359.480962807 L 189 367.65288742 L 197 352.642225306 L 205 336.918252832 L 214 334.390522032 L 222 367.171654092 L 230 360.364061127 L 238 365.326089116 L 247 384.554324321 L 255 351.354248007 L 263 332.777034089 L 272 311.703233909 L 280 296.692571795 L 288 270.268943909 L 296 291.637110196 L 305 301.948965891 L 313 306.910993879 L 321 272.284296844 L 330 305.778739264 L 338 253.319283209 L 346 268.624311429 L 354 313.888374803 L 363 253.225849598 L 371 304.196395858 L 379 232.834215242 L 388 290.224554749 L 396 227.422098462 L 404 204.2083672 L 412 239.129430342 L 421 239.811596166 L 429 232.647348021 L 437 239.035996731 L 446 248.634542065 L 454 179.412292531 L 462 242.865770105 L 470 276.003557345 L 479 187.165272889 L 487 336.572648939 L 495 174.976707682 L 504 312.971117959 L 512 316.863180406 L 520 316.118725509 L 528 327.143891564 L 537 319.622988239 L 545 378.083293287 L 553 406.941218362 L 562 377.307693852 L 570 377.276549316 L 578 386.161784289 L 586 410.383192019 L 595 388.239426297 L 603 403.901109698 L 611 391.387033847 L 620 396.705717016"/>
		</g>
		<text class="x-axis-label" x="40.0" y="540">
			0
		</text>
		<path class="x-notch" d="M 81.4285714286 525 L 81.4285714286 530"/>
		<text class="x-axis-label" x="122.857142857" y="540">
			10
		</text>
		<path class="x-notch" d="M 164.285714286 525 L 164.285714286 530"/>
		<text class="x-axis-label" x="205.714285714" y="540">
			20
		</text>
		<path class="x-notch" d="M 247.142857143 525 L 247.142857143 530"/>
		<text class="x-axis-label" x="288.571428571" y="540">
			30
		</text>
		<path class="x-notch" d="M 330.0 525 L 330.0 530"/>
		<text class="x-axis-label" x="371.428571429" y="540">
			40
		</text>
		<path class="x-notch" d="M 412.857142857 525 L 412.857142857 530"/>
		<text class="x-axis-label" x="454.285714286" y="540">
			50
		</text>
		<path class="x-notch" d="M 495.714285714 525 L 495.714285714 530"/>
		<text class="x-axis-label" x="537.142857143" y="540">
			60
		</text>
		<path class="x-notch" d="M 578.571428571 525 L 578.571428571 530"/>
		<text class="x-axis-label" x="620.0" y="540">
			70
		</text>
	</g>
</svg>
