<?xml version="1.0" ?>
<svg height="600" version="1.1" width="800" xmlns="http://www.w3.org/2000/svg" xmlns:svg="http://www.w3.org/2000/svg">
	<style type="text/css">

.x-axis-path, .y-gridline, .x-notch { fill:none; stroke: #a7a9ac; stroke-width:1; }



.y-gridline { stroke-width: 1; }

.y-axis-path, .y-axis-path2, .x-notch-left, .x-notch-right { display: none;}



.x-axis-label, .data-point-label {font-size: 12px; font-weight:normal; font-family: sans-serif; fill: #58595b; text-anchor:middle;}

.y-axis-label {font-size: 12px; font-family: helvetica; fill: #a7a9ac; text-anchor:end;}



.series-1-line { fill: none; stroke: #10b80c; stroke-width:2; }



.series-2-line { fill: none; stroke: #e90f0a; stroke-width: 2;}
</style>
	<rect fill="white" height="600" width="800" x="0" y="0"/>
	<g id="grid" transform="translate(70, 30)">
		<g class="x-axis" id="x_axis">
			<path class="x-axis-path" d="M 0 525 L 660 525"/>
			<path class="x-notch-left" d="M 0 525, L 0 535"/>
			<path class="x-notch-right" d="M 660 525, L 660 535"/>
		</g>
		<g class="y-axis" id="y_axis">
			<path class="y-axis-path" d="M 0 525 L 0 0"/>
			<path class="y-axis-path-2" d="M 660 525 L 660 0"/>
			<path class="y-gridline" d="M 0 525 L 660 525"/>
			<text class="y-axis-label" x="-5" y="525">-200</text>
			<path class="y-gridline" d="M 0 394 L 660 394"/>
			<text class="y-axis-label" x="-5" y="394"> 0</text>
			<path class="y-gridline" d="M 0 263 L 660 263"/>
			<text class="y-axis-label" x="-5" y="263">200</text>
			<path class="y-gridline" d="M 0 132 L 660 132"/>
			<text class="y-axis-label" x="-5" y="132">400</text>
			<path class="y-gridline" d="M 0 1 L 660 1"/>
			<text class="y-axis-label" x="-5" y="1">600</text>
		</g>
		<g>
			<path class="series-1-line" d="M 40 394.956418187 L 44 372.690501741 L 49 387.80926514 L 53 401.669890274 L 58 409.411434554 L 63 390.118068615 L 67 409.229567812 L 72 402.108359558 L 76 370.772813092 L 81 366.168558329 L 86 369.918043775 L 90 386.946523635 L 95 375.572625268 L 99 374.049573792 L 104 344.753382462 L 109 356.140379824 L 113 307.056181754 L 118 301.410755805 L 122 369.905451172 L 127 338.222960472 L 132 342.839975746 L 136 305.104069734 L 141 318.031161015 L 145 315.271295653 L 150 295.066397203 L 155 286.231453669 L 159 310.376521369 L 164 278.259758031 L 168 266.538576946 L 173 273.390928539 L 178 231.922579525 L 182 214.299961628 L 187 203.79393157 L 191 223.621320579 L 196 209.209883126 L 201 178.65521505 L 205 208.615406606 L 210 201.385884053 L 214 195.761782482 L 219 134.787043902 L 224 145.241184375 L 228 163.463152402 L 233 136.770566003 L 237 138.762651969 L 242 106.298605914 L 247 24.0174295341 L 251 98.0452931019 L 256 44.4261107813 L 260 48.3929017872 L 265 114.002036568 L 270 144.308833877 L 274 46.8392851042 L 279 81.594753708 L 283 92.9380868682 L 288 79.5468347063 L 293 48.4062539764 L 297 93.2288595854 L 302 112.188718766 L 306 60.4355887047 L 311 87.1409356157 L 316 110.96072194 L 320 151.552300296 L 325 72.6342828587 L 330 58.5914524998 L 334 26.6919947218 L 339 70.234460725 L 343 131.091982659 L 348 19.1496128235 L 353 47.5043833988 L 357 13.6735463002 L 362 0.0 L 366 64.1120280973 L 371 48.3121367407 L 376 95.6300329825 L 380 17.6665352938 L 385 135.436451016 L 389 83.2063995629 L 394 90.6009996082 L 399 105.003873196 L 403 89.3556218558 L 408 151.102336477 L 412 122.218754925 L 417 157.972068997 L 422 137.073282077 L 426 120.361858209 L 431 124.631929248 L 435 117.641036633 L 440 156.236924054 L 445 238.379559411 L 449 216.026653045 L 454 177.856474395 L 458 122.957490951 L 463 180.343201163 L 468 159.379087182 L 472 202.986880246 L 477 274.063856166 L 481 225.413930734 L 486 246.087186711 L 491 270.557874267 L 495 256.580370969 L 500 294.568682877 L 504 283.04280601 L 509 338.041878369 L 514 266.609055866 L 518 307.135984125 L 523 291.813014161 L 527 342.342767811 L 532 332.18402047 L 537 337.820882554 L 541 316.726791416 L 546 354.97539612 L 550 337.526081099 L 555 377.076488268 L 560 367.243022303 L 564 366.58817762 L 569 380.64376849 L 573 371.678509318 L 578 394.413121772 L 583 367.503906777 L 587 373.987312793 L 592 366.540823163 L 596 393.224507215 L 601 402.875767956 L 606 385.0795087 L 610 380.301612579 L 615 393.164053764 L 620 410.647792156"/>
			<path class="series-2-line" d="M 40 396.965580712 L 44 403.532668052 L 49 386.406002774 L 53 400.58893917 L 58 379.231246638 L 63 384.105923077 L 67 404.212297627 L 72 391.316659602 L 76 393.652719688 L 81 384.141903466 L 86 391.555196256 L 90 406.584338102 L 95 397.07352188 L 99 401.948198319 L 104 383.129122139 L 109 387.157593127 L 113 386.108831411 L 118 407.061411412 L 122 379.780280726 L 127 403.271477078 L 132 374.297935492 L 136 418.098062659 L 141 379.816261115 L 145 379.61370485 L 150 361.640834121 L 155 385.132030474 L 159 379.006036054 L 164 371.187630733 L 168 349.829938202 L 173 368.24390185 L 178 367.195140134 L 182 375.454638375 L 187 362.55900035 L 191 369.972293141 L 196 372.308353227 L 201 351.796866147 L 205 362.59498074 L 210 366.623451727 L 214 351.189197351 L 219 323.908066665 L 224 341.475824863 L 228 368.351843018 L 233 339.378301431 L 237 356.946059629 L 242 337.280777999 L 247 366.695412506 L 251 367.339061691 L 256 347.673780061 L 260 387.242879976 L 265 381.116885556 L 270 337.757851308 L 274 360.40284221 L 279 382.201627661 L 283 359.997729679 L 288 401.259240495 L 293 373.131904359 L 297 342.465951871 L 302 386.266079038 L 306 372.524235563 L 311 363.01341934 L 316 374.657739384 L 320 343.991786896 L 325 376.791243205 L 330 354.587345223 L 334 378.924747026 L 339 349.951205439 L 343 359.056909131 L 348 329.237162094 L 353 359.498002051 L 357 355.064418532 L 362 374.324587632 L 366 370.737209564 L 371 391.689789564 L 376 367.793480681 L 380 383.668827978 L 385 358.926313644 L 389 386.64853725 L 394 386.445980984 L 399 382.012397466 L 403 379.271224849 L 408 348.60527236 L 412 364.480619657 L 417 362.585652491 L 422 386.923054294 L 426 385.028087127 L 431 377.209681806 L 435 377.007125541 L 440 393.728678288 L 445 382.525451164 L 449 369.629813139 L 454 382.120338634 L 458 397.14948048 L 463 386.792458807 L 468 388.282313443 L 472 382.156319023 L 477 381.107557307 L 481 411.368397264 L 486 385.77967748 L 491 394.885381172 L 495 395.529030357 L 500 408.019555851 L 504 389.200479672 L 509 388.151717956 L 514 375.256079931 L 518 387.746605425 L 523 367.235118344 L 527 403.419396456 L 532 402.37063474 L 537 379.320531308 L 541 401.119316759 L 546 405.993993198 L 550 387.174917018 L 555 386.972360753 L 560 368.153284574 L 564 402.645151784 L 569 386.364691957 L 573 397.16280655 L 578 380.036141272 L 583 384.91081771 L 587 394.862726852 L 592 399.737403291 L 596 393.611408871 L 601 404.409523464 L 606 406.745583551 L 610 391.311329174 L 615 396.186005612 L 620 373.13590218"/>
		</g>
		<text class="x-axis-label" x="40.0" y="540">0</text>
		<path class="x-notch" d="M 63.0158730159 525 L 63.0158730159 530"/>
		<text class="x-axis-label" x="86.0317460317" y="540">10</text>
		<path class="x-notch" d="M 109.047619048 525 L 109.047619048 530"/>
		<text class="x-axis-label" x="132.063492063" y="540">20</text>
		<path class="x-notch" d="M 155.079365079 525 L 155.079365079 530"/>
		<text class="x-axis-label" x="178.095238095" y="540">30</text>
		<path class="x-notch" d="M 201.111111111 525 L 201.111111111 530"/>
		<text class="x-axis-label" x="224.126984127" y="540">40</text>
		<path class="x-notch" d="M 247.142857143 525 L 247.142857143 530"/>
		<text class="x-axis-label" x="270.158730159" y="540">50</text>
		<path class="x-notch" d="M 293.174603175 525 L 293.174603175 530"/>
		<text class="x-axis-label" x="316.19047619" y="540">60</text>
		<path class="x-notch" d="M 339.206349206 525 L 339.206349206 530"/>
		<text class="x-axis-label" x="362.222222222" y="540">70</text>
		<path class="x-notch" d="M 385.238095238 525 L 385.238095238 530"/>
		<text class="x-axis-label" x="408.253968254" y="540">80</text>
		<path class="x-notch" d="M 431.26984127 525 L 431.26984127 530"/>
		<text class="x-axis-label" x="454.285714286" y="540">90</text>
		<path class="x-notch" d="M 477.301587302 525 L 477.301587302 530"/>
		<text class="x-axis-label" x="500.317460317" y="540">100</text>
		<path class="x-notch" d="M 523.333333333 525 L 523.333333333 530"/>
		<text class="x-axis-label" x="546.349206349" y="540">110</text>
		<path class="x-notch" d="M 569.365079365 525 L 569.365079365 530"/>
		<text class="x-axis-label" x="592.380952381" y="540">120</text>
		<path class="x-notch" d="M 615.396825397 525 L 615.396825397 530"/>
	</g>
</svg>
