<?xml version="1.0" ?>
<svg height="600" version="1.1" width="800" xmlns="http://www.w3.org/2000/svg" xmlns:svg="http://www.w3.org/2000/svg">
	<style type="text/css">

.x-axis-path, .y-gridline, .x-notch { fill:none; stroke: #a7a9ac; stroke-width:1; }



.y-gridline { stroke-width: 1; }

.y-axis-path, .y-axis-path2, .x-notch-left, .x-notch-right { display: none;}



.x-axis-label, .data-point-label {font-size: 12px; font-weight:normal; font-family: sans-serif; fill: #58595b; text-anchor:middle;}

.y-axis-label {font-size: 12px; font-family: helvetica; fill: #a7a9ac; text-anchor:end;}



.series-1-line { fill: none; stroke: #10b80c; stroke-width:2; }



.series-2-line { fill: none; stroke: #e90f0a; stroke-width: 2;}
</style>
	<rect fill="white" height="600" width="800" x="0" y="0"/>
	<g id="grid" transform="translate(70, 30)">
		<g class="x-axis" id="x_axis">
			<path class="x-axis-path" d="M 0 525 L 660 525"/>
			<path class="x-notch-left" d="M 0 525, L 0 535"/>
			<path class="x-notch-right" d="M 660 525, L 660 535"/>
		</g>
		<g class="y-axis" id="y_axis">
			<path class="y-axis-path" d="M 0 525 L 0 0"/>
			<path class="y-axis-path-2" d="M 660 525 L 660 0"/>
			<path class="y-gridline" d="M 0 525 L 660 525"/>
			<text class="y-axis-label" x="-5" y="525">-400</text>
			<path class="y-gridline" d="M 0 420 L 660 420"/>
			<text class="y-axis-label" x="-5" y="420">-200</text>
			<path class="y-gridline" d="M 0 315 L 660 315"/>
			<text class="y-axis-label" x="-5" y="315"> 0</text>
			<path class="y-gridline" d="M 0 210 L 660 210"/>
			<text class="y-axis-label" x="-5" y="210">200</text>
			<path class="y-gridline" d="M 0 105 L 660 105"/>
			<text class="y-axis-label" x="-5" y="105">400</text>
			<path class="y-gridline" d="M 0 0 L 660 0"/>
			<text class="y-axis-label" x="-5" y="0">600</text>
		</g>
		<g>
			<path class="series-1-line" d="M 40 320.942905327 L 44 320.265105962 L 49 285.863164712 L 54 334.517994318 L 59 311.2713424 L 64 322.657713235 L 69 315.409275595 L 74 284.905185332 L 79 304.606122275 L 84 292.755081805 L 89 275.85553964 L 94 309.643695725 L 98 304.567422556 L 103 307.453050029 L 108 329.251448905 L 113 286.16316613 L 118 298.236337035 L 123 309.901249888 L 128 314.401378706 L 133 276.045704338 L 138 265.177957729 L 143 273.595047485 L 148 281.844780395 L 153 230.886672198 L 157 230.13445984 L 162 230.662324678 L 167 239.932992261 L 172 207.646175173 L 177 204.146762536 L 182 226.706953564 L 187 240.357853635 L 192 170.541697985 L 197 180.090328497 L 202 185.073417904 L 207 193.693768052 L 212 147.895346721 L 216 154.010555973 L 221 113.705666567 L 226 139.810753573 L 231 96.4804114135 L 236 119.244441923 L 241 106.928971726 L 246 127.873503231 L 251 60.4707028018 L 256 142.182852807 L 261 40.4064616926 L 266 109.533840096 L 271 124.29832915 L 275 21.0924557647 L 280 38.5665042853 L 285 80.6330333886 L 290 49.924235011 L 295 13.3504188353 L 300 3.22448579222 L 305 43.3797302152 L 310 72.5658625596 L 315 5.42249419729 L 320 1.01362160169 L 325 46.550923234 L 330 113.079927342 L 334 0.0 L 339 59.8104084826 L 344 72.0874188684 L 349 54.5934413985 L 354 36.9141553094 L 359 41.7304669588 L 364 83.7043417526 L 369 16.9695209867 L 374 75.4442596873 L 379 155.31924846 L 384 32.2896959899 L 388 189.321402909 L 393 36.9299892691 L 398 111.29204662 L 403 83.7381274848 L 408 106.093031309 L 413 141.905684058 L 418 54.8653817972 L 423 105.915325306 L 428 136.623304686 L 433 63.8757983161 L 438 101.13472693 L 443 60.7009901248 L 447 151.750378181 L 452 86.6665413943 L 457 128.027450021 L 462 128.371164419 L 467 170.456803474 L 472 142.253725081 L 477 161.565803469 L 482 138.503591536 L 487 134.484446131 L 492 180.023195486 L 497 190.630401486 L 502 303.395064267 L 506 291.674029375 L 511 320.934285167 L 516 311.607495545 L 521 299.60705 L 526 308.098552749 L 531 312.301608687 L 536 304.514907417 L 541 328.058681851 L 546 318.583066243 L 551 304.708108198 L 556 308.132288845 L 561 313.319507278 L 565 325.317975645 L 570 330.04134344 L 575 343.283695914 L 580 315.581529883 L 585 291.573375359 L 590 329.129666397 L 595 300.573922539 L 600 324.154758697 L 605 315.254468443 L 610 314.557848671 L 615 309.276867386 L 620 314.965287725"/>
			<path class="series-2-line" d="M 40 296.903455155 L 44 310.996253507 L 49 363.453726931 L 54 247.251402397 L 59 338.073550893 L 64 333.345942606 L 69 327.894472525 L 74 393.381458238 L 79 333.640353621 L 84 368.725143994 L 89 400.914487191 L 94 317.285943379 L 98 368.295693215 L 103 362.844223134 L 108 314.684907219 L 113 367.142380643 L 118 368.205666706 L 123 376.507570708 L 128 344.99707605 L 133 364.880768753 L 138 359.429298672 L 143 394.514089044 L 148 399.196684077 L 153 437.176921625 L 157 434.620898719 L 162 373.432070515 L 167 388.248730661 L 172 364.700715735 L 177 338.981115428 L 182 369.722735037 L 187 378.748500833 L 192 366.058412814 L 197 337.443365331 L 202 343.573683951 L 207 290.34733548 L 212 313.850337151 L 216 312.742037833 L 221 297.880364433 L 226 311.973162785 L 231 289.149009653 L 236 288.040710335 L 241 282.589240254 L 246 226.467444607 L 251 260.828373186 L 256 238.728081847 L 261 328.102506755 L 266 236.511483211 L 271 241.194078244 L 275 299.442446018 L 280 276.618292886 L 285 228.458976971 L 290 241.104051735 L 295 265.3309152 L 300 200.522778028 L 305 196.519031534 L 310 209.887968093 L 315 203.712636218 L 320 178.716897705 L 325 125.490549233 L 330 44.0335908022 L 334 118.20691804 L 339 68.5998785372 L 344 37.8132456732 L 349 21.5038486854 L 354 34.1489234498 L 359 66.338266647 L 364 32.6561866078 L 369 47.4728467536 L 374 65.1849540747 L 379 75.6584434577 L 384 36.185469068 L 388 92.9861132546 L 393 145.443586678 L 398 112.485368433 L 403 84.5941827442 L 408 6.03267148903 L 413 58.4901449128 L 418 50.8670894506 L 423 12.8418386486 L 428 14.6289865059 L 433 120.652232671 L 438 31.9566563028 L 443 122.054943005 L 447 224.458880201 L 452 150.964401502 L 457 71.6790284534 L 462 152.367111836 L 467 157.773568662 L 472 174.761814189 L 477 204.055710211 L 482 181.231557079 L 487 151.892647803 L 492 239.819349123 L 497 272.00869232 L 502 317.9514096 L 506 360.998679704 L 511 362.785827561 L 516 399.318341521 L 521 344.644269462 L 526 396.377881092 L 531 354.733321321 L 536 348.557989446 L 541 366.993958561 L 546 370.228830006 L 551 325.688823059 L 556 349.191824731 L 561 351.702834382 L 565 307.88668923 L 570 326.322658344 L 575 314.356432119 L 580 309.628823833 L 585 349.780646762 L 590 299.449745465 L 595 314.990267404 L 600 327.635342169 L 605 325.803181057 L 610 314.560816626 L 615 312.728655514 L 620 321.75442131"/>
		</g>
		<text class="x-axis-label" x="40.0" y="540">0</text>
		<path class="x-notch" d="M 64.5762711864 525 L 64.5762711864 530"/>
		<text class="x-axis-label" x="89.1525423729" y="540">10</text>
		<path class="x-notch" d="M 113.728813559 525 L 113.728813559 530"/>
		<text class="x-axis-label" x="138.305084746" y="540">20</text>
		<path class="x-notch" d="M 162.881355932 525 L 162.881355932 530"/>
		<text class="x-axis-label" x="187.457627119" y="540">30</text>
		<path class="x-notch" d="M 212.033898305 525 L 212.033898305 530"/>
		<text class="x-axis-label" x="236.610169492" y="540">40</text>
		<path class="x-notch" d="M 261.186440678 525 L 261.186440678 530"/>
		<text class="x-axis-label" x="285.762711864" y="540">50</text>
		<path class="x-notch" d="M 310.338983051 525 L 310.338983051 530"/>
		<text class="x-axis-label" x="334.915254237" y="540">60</text>
		<path class="x-notch" d="M 359.491525424 525 L 359.491525424 530"/>
		<text class="x-axis-label" x="384.06779661" y="540">70</text>
		<path class="x-notch" d="M 408.644067797 525 L 408.644067797 530"/>
		<text class="x-axis-label" x="433.220338983" y="540">80</text>
		<path class="x-notch" d="M 457.796610169 525 L 457.796610169 530"/>
		<text class="x-axis-label" x="482.372881356" y="540">90</text>
		<path class="x-notch" d="M 506.949152542 525 L 506.949152542 530"/>
		<text class="x-axis-label" x="531.525423729" y="540">100</text>
		<path class="x-notch" d="M 556.101694915 525 L 556.101694915 530"/>
		<text class="x-axis-label" x="580.677966102" y="540">110</text>
		<path class="x-notch" d="M 605.254237288 525 L 605.254237288 530"/>
	</g>
</svg>
