<?xml version="1.0" ?>
<svg height="600" version="1.1" width="800" xmlns="http://www.w3.org/2000/svg" xmlns:svg="http://www.w3.org/2000/svg">
	<style type="text/css">
		

.x-axis-path, .y-gridline, .x-notch { fill:none; stroke: #a7a9ac; stroke-width:1; }



.y-gridline { stroke-width: 1; }

.y-axis-path, .y-axis-path2, .x-notch-left, .x-notch-right { display: none;}



.x-axis-label, .data-point-label {font-size: 12px; font-weight:normal; font-family: sans-serif; fill: #58595b; text-anchor:middle;}

.y-axis-label {font-size: 12px; font-family: helvetica; fill: #a7a9ac; text-anchor:end;}



.series-1-line { fill: none; stroke: #10b80c; stroke-width:2; }



.series-2-line { fill: none; stroke: #e90f0a; stroke-width: 2;}

	</style>
	<rect fill="white" height="600" width="800" x="0" y="0"/>
	<g id="grid" transform="translate(70, 30)">
		<g class="x-axis" id="x_axis">
			<path class="x-axis-path" d="M 0 525 L 660 525"/>
			<path class="x-notch-left" d="M 0 525, L 0 535"/>
			<path class="x-notch-right" d="M 660 525, L 660 535"/>
		</g>
		<g class="y-axis" id="y_axis">
			<path class="y-axis-path" d="M 0 525 L 0 0"/>
			<path class="y-axis-path-2" d="M 660 525 L 660 0"/>
			<path class="y-gridline" d="M 0 525 L 660 525"/>
			<text class="y-axis-label" x="-5" y="525">
				-200
			</text>
			<path class="y-gridline" d="M 0 394 L 660 394"/>
			<text class="y-axis-label" x="-5" y="394">
				 0
			</text>
			<path class="y-gridline" d="M 0 263 L 660 263"/>
			<text class="y-axis-label" x="-5" y="263">
				200
			</text>
			<path class="y-gridline" d="M 0 132 L 660 132"/>
			<text class="y-axis-label" x="-5" y="132">
				400
			</text>
			<path class="y-gridline" d="M 0 1 L 660 1"/>
			<text class="y-axis-label" x="-5" y="1">
				600
			</text>
		</g>
		<g>
			<path class="series-1-line" d="M 40 429.077401889 L 46 402.217234766 L 53 362.044431614 L 60 389.350793451 L 67 376.950296954 L 74 386.894438808 L 81 398.418228016 L 88 427.115311382 L 95 372.766542268 L 102 396.009419254 L 109 371.120230788 L 116 323.386814167 L 123 355.823870605 L 130 318.392071539 L 137 315.496207853 L 144 273.041972684 L 151 268.701679459 L 158 294.766227857 L 165 279.165787063 L 172 294.928928525 L 179 247.4248767 L 186 197.855488616 L 193 234.815391354 L 200 200.124385755 L 207 155.914846448 L 214 189.283684204 L 221 163.192910652 L 228 151.305272995 L 235 129.7508254 L 242 62.1165901915 L 249 56.2372992054 L 256 87.5266891868 L 263 50.5673099892 L 270 111.208443359 L 277 153.717752556 L 284 146.366440857 L 291 54.1600539102 L 298 0.0 L 305 55.6323875438 L 312 90.7965471712 L 319 365.446618914 L 326 256.984396991 L 333 254.52093544 L 340 316.147768758 L 347 293.904805536 L 354 326.787322527 L 361 177.915615129 L 368 42.7072254708 L 375 56.5400378684 L 382 85.5479958332 L 389 267.660430084 L 396 339.183648755 L 403 254.807679045 L 410 241.921072403 L 417 244.074604134 L 424 248.375403167 L 431 384.920908645 L 438 382.160473392 L 445 373.324293181 L 452 349.28537623 L 459 323.410698435 L 466 323.228668901 L 473 313.609194223 L 480 361.005932329 L 487 341.139179965 L 494 365.286668336 L 501 379.780615806 L 508 376.547550065 L 515 350.145901913 L 522 323.447490678 L 529 312.059653444 L 536 392.318321976 L 543 407.514475349 L 550 411.733764578 L 557 403.410653828 L 564 377.967956929 L 571 404.47796588 L 578 398.976526541 L 585 398.970153792 L 592 397.235646839 L 599 390.856555431 L 606 389.608158624 L 613 404.655614526 L 620 400.05878657"/>
			<path class="series-2-line" d="M 40 394.381858941 L 46 417.284238177 L 53 401.748531833 L 60 373.575646668 L 67 379.101905026 L 74 389.893654558 L 81 400.685404091 L 88 381.463853924 L 95 400.680389337 L 102 410.945589753 L 109 413.839102522 L 116 407.254731176 L 123 400.143810713 L 130 408.829363775 L 137 389.607813609 L 144 401.452661376 L 151 402.239977676 L 158 403.553843093 L 165 394.863275277 L 172 401.442631869 L 179 379.588336115 L 186 392.486282118 L 193 378.003674009 L 200 390.375070894 L 207 388.529641606 L 214 400.374489374 L 221 405.900747731 L 228 392.997786975 L 235 389.046161217 L 242 386.147633694 L 249 401.151776166 L 256 388.24881541 L 263 384.823738769 L 270 372.447327131 L 277 395.876255484 L 284 373.495410612 L 291 384.287160145 L 298 374.016944976 L 305 383.229047156 L 312 361.374751402 L 319 395.334662106 L 326 375.060013704 L 333 391.117254412 L 340 389.271825124 L 347 390.059141424 L 354 375.049984197 L 361 333.713371094 L 368 296.589150931 L 375 337.394200163 L 382 351.871793519 L 389 385.305155105 L 396 379.773881995 L 403 360.02578271 L 410 359.233451657 L 417 332.640213845 L 424 361.334633374 L 431 377.391874082 L 438 398.714605965 L 445 402.66121697 L 452 375.54143004 L 459 388.439376043 L 466 377.116062639 L 473 359.474159825 L 480 380.270342591 L 487 380.004560656 L 494 392.902506658 L 501 392.110175605 L 508 405.008121608 L 515 376.835236443 L 522 374.463258038 L 529 386.308105806 L 536 393.940560633 L 543 406.838506636 L 550 386.563858234 L 557 392.616665709 L 564 399.722571419 L 571 393.138200073 L 578 390.23967255 L 585 392.606636202 L 592 397.606345442 L 599 387.862679391 L 606 399.180978041 L 613 394.176254048 L 620 393.910472112"/>
		</g>
		<text class="x-axis-label" x="40.0" y="540">
			0
		</text>
		<path class="x-notch" d="M 74.9397590361 525 L 74.9397590361 530"/>
		<text class="x-axis-label" x="109.879518072" y="540">
			10
		</text>
		<path class="x-notch" d="M 144.819277108 525 L 144.819277108 530"/>
		<text class="x-axis-label" x="179.759036145" y="540">
			20
		</text>
		<path class="x-notch" d="M 214.698795181 525 L 214.698795181 530"/>
		<text class="x-axis-label" x="249.638554217" y="540">
			30
		</text>
		<path class="x-notch" d="M 284.578313253 525 L 284.578313253 530"/>
		<text class="x-axis-label" x="319.518072289" y="540">
			40
		</text>
		<path class="x-notch" d="M 354.457831325 525 L 354.457831325 530"/>
		<text class="x-axis-label" x="389.397590361" y="540">
			50
		</text>
		<path class="x-notch" d="M 424.337349398 525 L 424.337349398 530"/>
		<text class="x-axis-label" x="459.277108434" y="540">
			60
		</text>
		<path class="x-notch" d="M 494.21686747 525 L 494.21686747 530"/>
		<text class="x-axis-label" x="529.156626506" y="540">
			70
		</text>
		<path class="x-notch" d="M 564.096385542 525 L 564.096385542 530"/>
		<text class="x-axis-label" x="599.036144578" y="540">
			80
		</text>
		<path class="x-notch" d="M 633.975903614 525 L 633.975903614 530"/>
	</g>
</svg>
