<?xml version="1.0" ?>
<svg height="600" version="1.1" width="800" xmlns="http://www.w3.org/2000/svg" xmlns:svg="http://www.w3.org/2000/svg">
	<style type="text/css">

.x-axis-path, .y-gridline, .x-notch { fill:none; stroke: #a7a9ac; stroke-width:1; }



.y-gridline { stroke-width: 1; }

.y-axis-path, .y-axis-path2, .x-notch-left, .x-notch-right { display: none;}



.x-axis-label, .data-point-label {font-size: 12px; font-weight:normal; font-family: sans-serif; fill: #58595b; text-anchor:middle;}

.y-axis-label {font-size: 12px; font-family: helvetica; fill: #a7a9ac; text-anchor:end;}



.series-1-line { fill: none; stroke: #10b80c; stroke-width:2; }



.series-2-line { fill: none; stroke: #e90f0a; stroke-width: 2;}
</style>
	<rect fill="white" height="600" width="800" x="0" y="0"/>
	<g id="grid" transform="translate(70, 30)">
		<g class="x-axis" id="x_axis">
			<path class="x-axis-path" d="M 0 525 L 660 525"/>
			<path class="x-notch-left" d="M 0 525, L 0 535"/>
			<path class="x-notch-right" d="M 660 525, L 660 535"/>
		</g>
		<g class="y-axis" id="y_axis">
			<path class="y-axis-path" d="M 0 525 L 0 0"/>
			<path class="y-axis-path-2" d="M 660 525 L 660 0"/>
			<path class="y-gridline" d="M 0 525 L 660 525"/>
			<text class="y-axis-label" x="-5" y="525">-200</text>
			<path class="y-gridline" d="M 0 394 L 660 394"/>
			<text class="y-axis-label" x="-5" y="394"> 0</text>
			<path class="y-gridline" d="M 0 263 L 660 263"/>
			<text class="y-axis-label" x="-5" y="263">200</text>
			<path class="y-gridline" d="M 0 132 L 660 132"/>
			<text class="y-axis-label" x="-5" y="132">400</text>
			<path class="y-gridline" d="M 0 1 L 660 1"/>
			<text class="y-axis-label" x="-5" y="1">600</text>
		</g>
		<g>
			<path class="series-1-line" d="M 40 402.46415886 L 46 387.751941988 L 53 399.803937986 L 60 387.398889392 L 66 391.144776491 L 73 389.19539246 L 80 384.12501349 L 86 393.857527726 L 93 395.721156511 L 100 385.562655959 L 106 400.237803212 L 113 396.357475241 L 120 398.864625714 L 126 384.310400331 L 133 393.460013115 L 140 385.08658906 L 146 396.009343733 L 153 393.234198432 L 160 368.382110535 L 166 390.926143239 L 173 383.499910365 L 180 364.804565142 L 186 371.75631551 L 193 373.99635807 L 200 386.412643797 L 206 369.223143112 L 213 360.789098822 L 220 378.147638689 L 226 378.724224099 L 233 376.49541867 L 240 379.439792592 L 246 356.66432664 L 253 375.86875268 L 260 353.105410774 L 266 380.567449525 L 273 356.73548653 L 280 347.087143147 L 286 318.191306663 L 293 349.53929195 L 300 346.666964834 L 306 353.642963296 L 313 316.355960145 L 320 325.45707674 L 326 336.306897692 L 333 337.502567257 L 340 342.596307406 L 346 308.49091943 L 353 315.175561885 L 360 316.286173682 L 366 333.134935256 L 373 285.611068704 L 380 297.335147116 L 386 298.202899094 L 393 288.700233714 L 400 285.002145327 L 406 270.083440777 L 413 280.957509824 L 420 272.97281303 L 426 258.066232528 L 433 253.651688731 L 440 246.602059071 L 446 293.894492374 L 453 234.809778589 L 460 264.129827559 L 466 277.214072505 L 473 275.301060616 L 480 260.163744343 L 486 242.755631933 L 493 244.145665128 L 500 273.574830522 L 506 0.0 L 513 89.7459208863 L 520 144.324717065 L 526 308.048731838 L 533 350.835755573 L 540 368.522402466 L 546 377.052552217 L 553 386.336097833 L 560 395.449338475 L 566 396.462957895 L 573 407.251969174 L 580 407.937671007 L 586 411.331392425 L 593 394.579115189 L 600 399.684979385 L 606 399.107696498 L 613 394.790334517 L 620 380.867317336"/>
			<path class="series-2-line" d="M 40 393.75 L 46 395.612091752 L 53 396.526992324 L 60 389.390767863 L 66 393.147241976 L 73 398.79809845 L 80 392.609065169 L 86 385.946436298 L 93 387.80852805 L 100 381.145899179 L 106 397.689454228 L 113 390.553229766 L 120 384.364196485 L 126 398.539773583 L 133 390.456357941 L 140 382.372942299 L 146 393.233350265 L 153 398.410611149 L 160 393.642364639 L 166 401.661199064 L 173 393.577783422 L 180 388.809536911 L 186 391.145224254 L 193 389.692146875 L 200 389.186260676 L 206 389.627565658 L 213 391.01606182 L 220 376.775903506 L 226 394.740245325 L 233 388.551212044 L 240 388.045325845 L 246 391.801799958 L 253 385.139171087 L 260 387.00126284 L 266 385.07458987 L 273 387.410277213 L 280 393.534729277 L 286 391.608056308 L 293 392.99655247 L 300 394.858644223 L 306 393.405566843 L 313 389.110915923 L 320 388.605029725 L 326 392.361503838 L 333 387.593257327 L 340 384.245797587 L 346 382.319124618 L 353 389.390767863 L 360 379.41296986 L 366 389.326186646 L 373 393.556256349 L 380 390.20879661 L 386 381.178189787 L 393 383.04028154 L 400 384.428777702 L 406 381.554913552 L 413 381.522622944 L 420 386.699883828 L 426 381.931637317 L 433 384.26732466 L 440 391.338967904 L 446 398.884206739 L 453 378.013710162 L 460 381.770184275 L 466 387.894636339 L 473 387.862345731 L 480 382.14690804 L 486 379.746639481 L 493 381.608731233 L 500 368.315764099 L 506 358.337966096 L 513 355.464101946 L 520 390.004289423 L 526 390.445594405 L 533 380.467796402 L 540 388.960226417 L 546 366.668943069 L 553 393.158005512 L 560 390.757736953 L 566 395.934997837 L 573 390.693155736 L 580 391.608056308 L 586 394.890934831 L 593 401.015386895 L 600 395.773544795 L 606 390.531702694 L 613 396.182559168 L 620 385.731165575"/>
		</g>
		<text class="x-axis-label" x="40.0" y="540">0</text>
		<path class="x-notch" d="M 73.3333333333 525 L 73.3333333333 530"/>
		<text class="x-axis-label" x="106.666666667" y="540">10</text>
		<path class="x-notch" d="M 140.0 525 L 140.0 530"/>
		<text class="x-axis-label" x="173.333333333" y="540">20</text>
		<path class="x-notch" d="M 206.666666667 525 L 206.666666667 530"/>
		<text class="x-axis-label" x="240.0" y="540">30</text>
		<path class="x-notch" d="M 273.333333333 525 L 273.333333333 530"/>
		<text class="x-axis-label" x="306.666666667" y="540">40</text>
		<path class="x-notch" d="M 340.0 525 L 340.0 530"/>
		<text class="x-axis-label" x="373.333333333" y="540">50</text>
		<path class="x-notch" d="M 406.666666667 525 L 406.666666667 530"/>
		<text class="x-axis-label" x="440.0" y="540">60</text>
		<path class="x-notch" d="M 473.333333333 525 L 473.333333333 530"/>
		<text class="x-axis-label" x="506.666666667" y="540">70</text>
		<path class="x-notch" d="M 540.0 525 L 540.0 530"/>
		<text class="x-axis-label" x="573.333333333" y="540">80</text>
		<path class="x-notch" d="M 606.666666667 525 L 606.666666667 530"/>
	</g>
</svg>
