<?xml version="1.0" ?>
<svg height="600" version="1.1" width="800" xmlns="http://www.w3.org/2000/svg" xmlns:svg="http://www.w3.org/2000/svg">
	<style type="text/css">
		

.x-axis-path, .y-gridline, .x-notch { fill:none; stroke: #a7a9ac; stroke-width:1; }



.y-gridline { stroke-width: 1; }

.y-axis-path, .y-axis-path2, .x-notch-left, .x-notch-right { display: none;}



.x-axis-label, .data-point-label {font-size: 12px; font-weight:normal; font-family: sans-serif; fill: #58595b; text-anchor:middle;}

.y-axis-label {font-size: 12px; font-family: helvetica; fill: #a7a9ac; text-anchor:end;}



.series-1-line { fill: none; stroke: #10b80c; stroke-width:2; }



.series-2-line { fill: none; stroke: #e90f0a; stroke-width: 2;}

	</style>
	<rect fill="white" height="600" width="800" x="0" y="0"/>
	<g id="grid" transform="translate(70, 30)">
		<g class="x-axis" id="x_axis">
			<path class="x-axis-path" d="M 0 525 L 660 525"/>
			<path class="x-notch-left" d="M 0 525, L 0 535"/>
			<path class="x-notch-right" d="M 660 525, L 660 535"/>
		</g>
		<g class="y-axis" id="y_axis">
			<path class="y-axis-path" d="M 0 525 L 0 0"/>
			<path class="y-axis-path-2" d="M 660 525 L 660 0"/>
			<path class="y-gridline" d="M 0 525 L 660 525"/>
			<text class="y-axis-label" x="-5" y="525">
				-400
			</text>
			<path class="y-gridline" d="M 0 420 L 660 420"/>
			<text class="y-axis-label" x="-5" y="420">
				-200
			</text>
			<path class="y-gridline" d="M 0 315 L 660 315"/>
			<text class="y-axis-label" x="-5" y="315">
				 0
			</text>
			<path class="y-gridline" d="M 0 210 L 660 210"/>
			<text class="y-axis-label" x="-5" y="210">
				200
			</text>
			<path class="y-gridline" d="M 0 105 L 660 105"/>
			<text class="y-axis-label" x="-5" y="105">
				400
			</text>
			<path class="y-gridline" d="M 0 0 L 660 0"/>
			<text class="y-axis-label" x="-5" y="0">
				600
			</text>
		</g>
		<g>
			<path class="series-1-line" d="M 40 307.181616 L 46 324.757663841 L 53 317.967621682 L 60 317.921939523 L 66 315.601537364 L 73 345.737055205 L 80 328.811783045 L 86 335.496600886 L 93 323.430308727 L 100 308.671186568 L 106 332.480034409 L 113 297.70392225 L 120 309.692710091 L 126 277.111097932 L 133 294.700375773 L 140 260.529903614 L 146 292.145711455 L 153 229.194319295 L 160 255.493977136 L 166 229.521274977 L 173 212.958042818 L 180 208.066610659 L 186 208.5597885 L 193 139.591476341 L 200 167.814944182 L 206 152.759932023 L 213 122.506589864 L 220 81.8613977045 L 226 127.558125545 L 233 123.245243386 L 240 105.524491227 L 246 156.996009068 L 253 94.3545769091 L 260 136.34984475 L 266 59.2375225909 L 273 180.992050432 L 280 181.175688273 L 286 70.6773561136 L 293 63.1080039545 L 300 131.917121795 L 306 163.696309636 L 313 114.245607477 L 320 144.219005318 L 326 217.850353159 L 333 59.725701 L 340 220.720198841 L 346 155.656626682 L 353 167.336504523 L 360 191.009902364 L 366 166.962270205 L 373 192.654608045 L 380 199.744095886 L 386 228.385043727 L 393 190.418401568 L 400 160.556079409 L 406 220.71025725 L 413 199.974955091 L 420 207.603092932 L 426 247.349470773 L 433 230.369388614 L 440 208.947386455 L 446 258.750034295 L 453 220.419672136 L 460 269.764309977 L 466 314.331237818 L 473 277.400945659 L 480 272.1451635 L 486 272.288271341 L 493 314.982839182 L 500 249.259447023 L 506 347.846354864 L 513 281.182162705 L 520 353.316630545 L 526 302.224988386 L 533 346.427776227 L 540 346.731954068 L 546 356.890591909 L 553 358.77039975 L 560 325.137947591 L 566 329.615875432 L 573 338.979453273 L 580 356.798261114 L 586 336.412188955 L 593 299.563376795 L 600 289.569154636 L 606 304.210662477 L 613 350.621600318 L 620 318.389638159"/>
			<path class="series-2-line" d="M 40 322.56 L 46 351.429034091 L 53 311.523068182 L 60 284.217102273 L 66 284.211136364 L 73 298.905170455 L 80 386.574204545 L 86 333.018238636 L 93 358.737272727 L 100 333.531306818 L 106 372.900340909 L 113 378.669375 L 120 337.188409091 L 126 369.207443182 L 133 375.501477273 L 140 368.670511364 L 146 336.639545455 L 153 315.108579545 L 160 395.952613636 L 166 359.196647727 L 173 308.265681818 L 180 320.334715909 L 186 331.87875 L 193 348.147784091 L 200 312.966818182 L 206 313.485852273 L 213 289.329886364 L 220 309.798920455 L 226 292.467954545 L 233 275.661988636 L 240 241.531022727 L 246 203.725056818 L 253 215.794090909 L 260 243.613125 L 266 281.407159091 L 273 274.576193182 L 280 293.470227273 L 286 195.289261364 L 293 297.658295455 L 300 175.852329545 L 306 323.371363636 L 313 181.615397727 L 320 139.609431818 L 326 310.228465909 L 333 270.8475 L 340 223.591534091 L 346 327.010568182 L 353 354.304602273 L 360 312.298636364 L 366 282.367670455 L 373 212.011704545 L 380 238.780738636 L 386 220.399772727 L 393 211.993806818 L 400 249.787840909 L 406 208.831875 L 413 256.075909091 L 420 301.219943182 L 426 249.763977273 L 433 243.458011364 L 440 274.952045455 L 446 272.321079545 L 453 238.715113636 L 460 205.109147727 L 466 282.278181818 L 473 255.497215909 L 480 180.94125 L 486 185.660284091 L 493 145.229318182 L 500 228.698352273 L 506 191.417386364 L 513 421.886420455 L 520 334.205454545 L 526 325.799488636 L 533 336.818522727 L 540 295.862556818 L 546 314.756590909 L 553 335.225625 L 560 285.344659091 L 566 310.013693182 L 573 248.057727273 L 580 321.026761364 L 586 293.195795455 L 593 335.714829545 L 600 263.258863636 L 606 299.477897727 L 613 355.121931818 L 620 353.015965909"/>
		</g>
		<text class="x-axis-label" x="40.0" y="540">
			0
		</text>
		<path class="x-notch" d="M 73.3333333333 525 L 73.3333333333 530"/>
		<text class="x-axis-label" x="106.666666667" y="540">
			10
		</text>
		<path class="x-notch" d="M 140.0 525 L 140.0 530"/>
		<text class="x-axis-label" x="173.333333333" y="540">
			20
		</text>
		<path class="x-notch" d="M 206.666666667 525 L 206.666666667 530"/>
		<text class="x-axis-label" x="240.0" y="540">
			30
		</text>
		<path class="x-notch" d="M 273.333333333 525 L 273.333333333 530"/>
		<text class="x-axis-label" x="306.666666667" y="540">
			40
		</text>
		<path class="x-notch" d="M 340.0 525 L 340.0 530"/>
		<text class="x-axis-label" x="373.333333333" y="540">
			50
		</text>
		<path class="x-notch" d="M 406.666666667 525 L 406.666666667 530"/>
		<text class="x-axis-label" x="440.0" y="540">
			60
		</text>
		<path class="x-notch" d="M 473.333333333 525 L 473.333333333 530"/>
		<text class="x-axis-label" x="506.666666667" y="540">
			70
		</text>
		<path class="x-notch" d="M 540.0 525 L 540.0 530"/>
		<text class="x-axis-label" x="573.333333333" y="540">
			80
		</text>
		<path class="x-notch" d="M 606.666666667 525 L 606.666666667 530"/>
	</g>
</svg>
