<?xml version="1.0" ?>
<svg height="600" version="1.1" width="800" xmlns="http://www.w3.org/2000/svg" xmlns:svg="http://www.w3.org/2000/svg">
	<style type="text/css">
		

.x-axis-path, .y-gridline, .x-notch { fill:none; stroke: #a7a9ac; stroke-width:1; }



.y-gridline { stroke-width: 1; }

.y-axis-path, .y-axis-path2, .x-notch-left, .x-notch-right { display: none;}



.x-axis-label, .data-point-label {font-size: 12px; font-weight:normal; font-family: sans-serif; fill: #58595b; text-anchor:middle;}

.y-axis-label {font-size: 12px; font-family: helvetica; fill: #a7a9ac; text-anchor:end;}



.series-1-line { fill: none; stroke: #10b80c; stroke-width:2; }



.series-2-line { fill: none; stroke: #e90f0a; stroke-width: 2;}

	</style>
	<rect fill="white" height="600" width="800" x="0" y="0"/>
	<g id="grid" transform="translate(70, 30)">
		<g class="x-axis" id="x_axis">
			<path class="x-axis-path" d="M 0 525 L 660 525"/>
			<path class="x-notch-left" d="M 0 525, L 0 535"/>
			<path class="x-notch-right" d="M 660 525, L 660 535"/>
		</g>
		<g class="y-axis" id="y_axis">
			<path class="y-axis-path" d="M 0 525 L 0 0"/>
			<path class="y-axis-path-2" d="M 660 525 L 660 0"/>
			<path class="y-gridline" d="M 0 525 L 660 525"/>
			<text class="y-axis-label" x="-5" y="525">
				-250
			</text>
			<path class="y-gridline" d="M 0 394 L 660 394"/>
			<text class="y-axis-label" x="-5" y="394">
				 0
			</text>
			<path class="y-gridline" d="M 0 263 L 660 263"/>
			<text class="y-axis-label" x="-5" y="263">
				250
			</text>
			<path class="y-gridline" d="M 0 132 L 660 132"/>
			<text class="y-axis-label" x="-5" y="132">
				500
			</text>
			<path class="y-gridline" d="M 0 1 L 660 1"/>
			<text class="y-axis-label" x="-5" y="1">
				750
			</text>
		</g>
		<g>
			<path class="series-1-line" d="M 40 421.052364171 L 44 385.013524497 L 48 336.67342269 L 52 426.036145614 L 56 398.69695571 L 60 402.580579851 L 64 393.874681132 L 68 373.191141912 L 72 411.675066713 L 77 406.069487502 L 81 426.286730519 L 85 394.869596036 L 89 410.519908601 L 93 363.446732617 L 97 383.508318309 L 101 372.202872925 L 105 389.963919619 L 109 373.236641858 L 114 383.397346975 L 118 393.60346659 L 122 386.275083197 L 126 361.269366468 L 130 363.230327969 L 134 337.523979939 L 138 399.208646391 L 142 324.779648866 L 146 306.539652311 L 151 310.823513382 L 155 329.673988015 L 159 321.87915266 L 163 292.883720282 L 167 303.534104623 L 171 257.305430297 L 175 283.344569283 L 179 251.404994735 L 183 241.854594359 L 188 191.925505136 L 192 182.686246072 L 196 214.770020074 L 200 162.130448006 L 204 151.635530075 L 208 157.052673542 L 212 160.313321707 L 216 109.095466099 L 220 153.657480106 L 225 112.195421353 L 229 134.356994233 L 233 146.651140729 L 237 122.12296958 L 241 122.305832147 L 245 123.667738285 L 249 98.2278104206 L 253 132.800714923 L 258 78.75 L 262 89.2334600603 L 266 121.095708381 L 270 115.111559462 L 274 141.462013099 L 278 174.179336682 L 282 152.229044976 L 286 141.067816624 L 290 152.340136914 L 295 136.234621765 L 299 97.0067136407 L 303 118.823517679 L 307 155.806510655 L 311 160.179294006 L 315 155.529672645 L 319 151.191019257 L 323 151.096541379 L 327 158.735701831 L 332 143.129572821 L 336 177.157850024 L 340 138.462608893 L 344 193.58141363 L 348 164.741638576 L 352 173.413372175 L 356 163.630179162 L 360 212.503623736 L 364 215.831526958 L 369 172.56970205 L 373 116.018069658 L 377 202.691630285 L 381 164.108885373 L 385 183.336543012 L 389 224.932227614 L 393 231.616296905 L 397 255.134064565 L 401 236.283052341 L 406 256.323317486 L 410 313.529975766 L 414 343.569404007 L 418 326.530811596 L 422 355.04764079 L 426 384.699139083 L 430 338.004012794 L 434 369.788085777 L 439 364.759894706 L 443 354.621705923 L 447 379.949293329 L 451 409.122726028 L 455 371.172143994 L 459 403.356107232 L 463 397.973267067 L 467 384.634222864 L 471 407.695938828 L 476 399.545761027 L 480 423.562914827 L 484 387.690306082 L 488 381.784332501 L 492 438.09136771 L 496 403.685023235 L 500 398.590790471 L 504 394.130280626 L 508 416.036180282 L 513 412.89719766 L 517 382.268923407 L 521 419.819250933 L 525 417.903166339 L 529 410.186332985 L 533 401.347310852 L 537 406.564422523 L 541 376.280743774 L 545 410.075708327 L 550 402.52527924 L 554 385.841855937 L 558 397.014507005 L 562 409.131328953 L 566 422.581465094 L 570 412.508971329 L 574 405.881219237 L 578 425.608956368 L 582 399.15881593 L 587 407.475553758 L 591 406.992279242 L 595 412.731310965 L 599 410.181503453 L 603 388.94189664 L 607 371.836222508 L 611 392.798124622 L 615 408.081134434 L 620 409.009002774"/>
			<path class="series-2-line" d="M 40 339.321937522 L 44 429.656554629 L 48 427.688804635 L 52 356.819287651 L 56 391.252471162 L 60 405.318465688 L 64 389.050348961 L 68 416.116676881 L 72 372.981204472 L 77 380.113687855 L 81 381.179348986 L 85 409.545710246 L 89 396.311004644 L 93 416.443821421 L 97 407.97590473 L 101 442.409088241 L 105 387.13997133 L 109 473.141143973 L 114 403.571660328 L 118 428.471266016 L 122 383.169071374 L 126 425.402454922 L 130 401.334138158 L 134 383.765988091 L 138 354.930882415 L 142 417.531454948 L 146 350.562037982 L 151 386.728599278 L 155 381.294093713 L 159 358.092465842 L 163 329.690704613 L 167 335.956499102 L 171 359.556071451 L 175 314.253876809 L 179 322.686393531 L 183 302.951521232 L 188 295.350293434 L 192 277.782143367 L 196 235.946704297 L 200 296.380554597 L 204 271.878893386 L 208 300.245254646 L 212 242.376071057 L 216 249.941898886 L 220 221.973482103 L 225 228.672621039 L 229 213.704537651 L 233 149.335187364 L 237 167.734626355 L 241 116.798953909 L 245 186.333037585 L 249 144.064254068 L 253 119.562592858 L 258 180.429787604 L 262 161.994948644 L 266 188.627932118 L 270 119.49179292 L 274 93.2567539234 L 278 70.9218149452 L 282 92.7880095081 L 286 104.687281802 L 290 81.4856539307 L 295 121.118970799 L 299 201.920010084 L 303 156.184470996 L 307 25.9467648432 L 311 65.1467372654 L 315 109.113498599 L 319 138.346548752 L 323 130.745320954 L 327 133.544359872 L 332 112.076109787 L 336 71.1073596096 L 340 85.6066985823 L 344 151.674026686 L 348 132.80584328 L 352 58.9029151703 L 356 92.4694097883 L 360 84.8681819904 L 364 84.2004653363 L 369 118.200304401 L 373 95.8653654224 L 377 5.06200389995 L 381 154.331465729 L 385 89.9621154416 L 389 102.294732182 L 393 152.761660213 L 397 196.728421546 L 401 140.592615742 L 406 220.093621687 L 410 179.991560403 L 414 152.889832514 L 418 219.823849511 L 422 159.787943689 L 426 227.155305132 L 430 272.855444252 L 434 260.920771989 L 439 228.618910741 L 443 317.653494509 L 447 231.183577452 L 451 271.683583213 L 455 305.250077831 L 459 281.615105513 L 463 338.582200241 L 467 352.214850321 L 471 348.947066988 L 476 347.412661441 L 480 330.27785582 L 484 377.711372726 L 488 347.142889264 L 492 346.041828164 L 496 350.574244867 L 500 379.373950574 L 504 444.574589785 L 508 418.772895235 L 513 412.905045223 L 517 436.504617572 L 521 369.968545052 L 525 426.93563978 L 529 425.401234233 L 533 429.933650937 L 537 455.699945518 L 541 493.166540155 L 545 454.797856656 L 550 427.26278432 L 554 455.62914558 L 558 464.928351195 L 562 445.193478896 L 566 420.258473239 L 570 414.390623227 L 574 428.8899622 L 578 371.02077861 L 582 418.887639962 L 587 400.452801002 L 591 402.818495473 L 595 397.817334354 L 599 418.383495577 L 603 396.915245492 L 607 423.548228966 L 611 443.681045743 L 615 369.344773187 L 620 371.277123212"/>
		</g>
		<text class="x-axis-label" x="40.0" y="540">
			0
		</text>
		<path class="x-notch" d="M 60.5673758865 525 L 60.5673758865 530"/>
		<text class="x-axis-label" x="81.134751773" y="540">
			10
		</text>
		<path class="x-notch" d="M 101.70212766 525 L 101.70212766 530"/>
		<text class="x-axis-label" x="122.269503546" y="540">
			20
		</text>
		<path class="x-notch" d="M 142.836879433 525 L 142.836879433 530"/>
		<text class="x-axis-label" x="163.404255319" y="540">
			30
		</text>
		<path class="x-notch" d="M 183.971631206 525 L 183.971631206 530"/>
		<text class="x-axis-label" x="204.539007092" y="540">
			40
		</text>
		<path class="x-notch" d="M 225.106382979 525 L 225.106382979 530"/>
		<text class="x-axis-label" x="245.673758865" y="540">
			50
		</text>
		<path class="x-notch" d="M 266.241134752 525 L 266.241134752 530"/>
		<text class="x-axis-label" x="286.808510638" y="540">
			60
		</text>
		<path class="x-notch" d="M 307.375886525 525 L 307.375886525 530"/>
		<text class="x-axis-label" x="327.943262411" y="540">
			70
		</text>
		<path class="x-notch" d="M 348.510638298 525 L 348.510638298 530"/>
		<text class="x-axis-label" x="369.078014184" y="540">
			80
		</text>
		<path class="x-notch" d="M 389.645390071 525 L 389.645390071 530"/>
		<text class="x-axis-label" x="410.212765957" y="540">
			90
		</text>
		<path class="x-notch" d="M 430.780141844 525 L 430.780141844 530"/>
		<text class="x-axis-label" x="451.34751773" y="540">
			100
		</text>
		<path class="x-notch" d="M 471.914893617 525 L 471.914893617 530"/>
		<text class="x-axis-label" x="492.482269504" y="540">
			110
		</text>
		<path class="x-notch" d="M 513.04964539 525 L 513.04964539 530"/>
		<text class="x-axis-label" x="533.617021277" y="540">
			120
		</text>
		<path class="x-notch" d="M 554.184397163 525 L 554.184397163 530"/>
		<text class="x-axis-label" x="574.75177305" y="540">
			130
		</text>
		<path class="x-notch" d="M 595.319148936 525 L 595.319148936 530"/>
		<text class="x-axis-label" x="615.886524823" y="540">
			140
		</text>
		<path class="x-notch" d="M 636.453900709 525 L 636.453900709 530"/>
	</g>
</svg>
