<?xml version="1.0" ?>
<svg height="600" version="1.1" width="800" xmlns="http://www.w3.org/2000/svg" xmlns:svg="http://www.w3.org/2000/svg">
	<style type="text/css">
		

.x-axis-path, .y-gridline, .x-notch { fill:none; stroke: #a7a9ac; stroke-width:1; }



.y-gridline { stroke-width: 1; }

.y-axis-path, .y-axis-path2, .x-notch-left, .x-notch-right { display: none;}



.x-axis-label, .data-point-label {font-size: 12px; font-weight:normal; font-family: sans-serif; fill: #58595b; text-anchor:middle;}

.y-axis-label {font-size: 12px; font-family: helvetica; fill: #a7a9ac; text-anchor:end;}



.series-1-line { fill: none; stroke: #10b80c; stroke-width:2; }



.series-2-line { fill: none; stroke: #e90f0a; stroke-width: 2;}

	</style>
	<rect fill="white" height="600" width="800" x="0" y="0"/>
	<g id="grid" transform="translate(70, 30)">
		<g class="x-axis" id="x_axis">
			<path class="x-axis-path" d="M 0 525 L 660 525"/>
			<path class="x-notch-left" d="M 0 525, L 0 535"/>
			<path class="x-notch-right" d="M 660 525, L 660 535"/>
		</g>
		<g class="y-axis" id="y_axis">
			<path class="y-axis-path" d="M 0 525 L 0 0"/>
			<path class="y-axis-path-2" d="M 660 525 L 660 0"/>
			<path class="y-gridline" d="M 0 525 L 660 525"/>
			<text class="y-axis-label" x="-5" y="525">
				-200
			</text>
			<path class="y-gridline" d="M 0 420 L 660 420"/>
			<text class="y-axis-label" x="-5" y="420">
				 0
			</text>
			<path class="y-gridline" d="M 0 315 L 660 315"/>
			<text class="y-axis-label" x="-5" y="315">
				200
			</text>
			<path class="y-gridline" d="M 0 210 L 660 210"/>
			<text class="y-axis-label" x="-5" y="210">
				400
			</text>
			<path class="y-gridline" d="M 0 105 L 660 105"/>
			<text class="y-axis-label" x="-5" y="105">
				600
			</text>
			<path class="y-gridline" d="M 0 0 L 660 0"/>
			<text class="y-axis-label" x="-5" y="0">
				800
			</text>
		</g>
		<g>
			<path class="series-1-line" d="M 40 421.281588 L 43 421.252149405 L 47 404.570970811 L 51 438.114652216 L 55 412.468153622 L 59 388.046585027 L 63 404.224736432 L 67 362.235827838 L 71 361.748799243 L 75 363.967620649 L 79 358.418962054 L 83 319.741753459 L 87 332.110294865 L 91 350.07911627 L 95 304.428647676 L 99 290.318499081 L 103 305.096790486 L 107 295.092561892 L 111 324.463123297 L 114 277.749004703 L 118 271.742966108 L 122 258.413597514 L 126 231.393908919 L 130 233.087310324 L 134 236.58524173 L 138 219.163603135 L 142 237.213274541 L 146 214.097485946 L 150 208.966097351 L 154 181.919318757 L 158 166.059240162 L 162 179.733771568 L 166 138.094932973 L 170 95.1232243784 L 174 177.882505784 L 178 143.526257189 L 182 134.208308595 L 185 136.02288 L 189 165.636201405 L 193 130.041372811 L 197 126.916114216 L 201 122.511535622 L 205 123.424367027 L 209 137.098898432 L 213 162.161939838 L 217 149.182641243 L 221 104.097702649 L 225 87.7934740541 L 229 37.4583254595 L 233 154.961476865 L 237 83.8285582703 L 241 150.379829676 L 245 141.640851081 L 249 153.565242486 L 253 134.689983892 L 257 126.960475297 L 260 125.221636703 L 264 170.032658108 L 268 125.997719514 L 272 147.695300919 L 276 134.258412324 L 280 199.26156373 L 284 183.132265135 L 288 168.537646541 L 292 189.992677946 L 296 204.973199351 L 300 232.526420757 L 304 216.208752162 L 308 256.779243568 L 312 198.555864973 L 316 217.641886378 L 320 238.370107784 L 324 240.831269189 L 328 256.107680595 L 331 278.640012 L 335 273.993303405 L 339 219.605994811 L 343 261.792436216 L 347 280.528387622 L 351 278.749019027 L 355 276.067700432 L 359 308.251631838 L 363 289.201653243 L 367 286.250904649 L 371 272.840896054 L 375 285.546277459 L 379 305.709388865 L 383 325.99325027 L 387 337.594661676 L 391 321.869403081 L 395 312.592194486 L 399 360.364635892 L 402 348.691117297 L 406 348.742528703 L 410 356.157380108 L 414 336.151271514 L 418 357.135272919 L 422 367.673244324 L 426 385.07674573 L 430 393.258937135 L 434 377.600668541 L 438 385.904239946 L 442 375.253841351 L 446 368.776352757 L 450 374.279784162 L 454 406.100205568 L 458 421.471116973 L 462 423.366748378 L 466 404.975959784 L 470 381.496661189 L 474 397.661582595 L 477 417.972534 L 481 378.891495405 L 485 413.188866811 L 489 400.102048216 L 493 426.255199622 L 497 428.958701027 L 501 432.335252432 L 505 434.028863838 L 509 419.515095243 L 513 428.908776649 L 517 422.983378054 L 521 436.792519459 L 525 434.138080865 L 529 426.66456227 L 533 437.714093676 L 537 427.252065081 L 541 434.276526486 L 545 438.406767892 L 548 426.814099297 L 552 420.646360703 L 556 430.497842108 L 560 427.479893514 L 564 418.983254919 L 568 433.950126324 L 572 432.76316773 L 576 431.374189135 L 580 436.083400541 L 584 424.692541946 L 588 441.624593351 L 592 423.893414757 L 596 423.419826162 L 600 427.025067568 L 604 436.055448973 L 608 420.881860378 L 612 413.354581784 L 616 420.594503189 L 620 412.582334595"/>
			<path class="series-2-line" d="M 40 424.83 L 43 413.688648649 L 47 420.397297297 L 51 413.455945946 L 55 426.464594595 L 59 432.648243243 L 63 411.531891892 L 67 414.565540541 L 71 413.399189189 L 75 420.107837838 L 79 410.016486486 L 83 428.800135135 L 87 408.208783784 L 91 414.917432432 L 95 415.851081081 L 99 410.48472973 L 103 403.018378378 L 107 412.352027027 L 111 401.210675676 L 114 383.769324324 L 118 404.127972973 L 122 399.811621622 L 126 401.79527027 L 130 367.553918919 L 134 399.987567568 L 138 399.346216216 L 142 413.929864865 L 146 421.163513514 L 150 407.397162162 L 154 393.105810811 L 158 394.564459459 L 162 395.498108108 L 166 405.356756757 L 170 397.890405405 L 174 411.949054054 L 178 411.832702703 L 182 395.966351351 L 185 363.3 L 189 396.258648649 L 193 384.592297297 L 197 406.000945946 L 201 381.209594595 L 205 366.393243243 L 209 367.326891892 L 213 372.985540541 L 217 375.494189189 L 221 390.602837838 L 225 399.936486486 L 229 394.570135135 L 233 373.453783784 L 237 398.012432432 L 241 381.096081081 L 245 377.30472973 L 249 364.588378378 L 253 385.997027027 L 257 368.030675676 L 260 377.889324324 L 264 374.097972973 L 268 389.206621622 L 272 387.51527027 L 276 399.998918919 L 280 378.882567568 L 284 381.391216216 L 288 390.199864865 L 292 364.883513514 L 296 387.342162162 L 300 373.050810811 L 304 384.484459459 L 308 366.518108108 L 312 383.726756757 L 316 379.935405405 L 320 365.644054054 L 324 375.502702703 L 328 372.236351351 L 331 383.67 L 335 376.203648649 L 339 347.737297297 L 343 384.895945946 L 347 374.279594595 L 351 369.963243243 L 355 363.021891892 L 359 342.955540541 L 363 391.664189189 L 367 365.297837838 L 371 373.581486486 L 375 382.390135135 L 379 394.873783784 L 383 367.982432432 L 387 364.716081081 L 391 386.12472973 L 395 404.908378378 L 399 389.567027027 L 402 393.125675676 L 406 389.859324324 L 410 384.492972973 L 414 398.026621622 L 418 384.78527027 L 422 383.618918919 L 426 396.627567568 L 430 394.411216216 L 434 384.844864865 L 438 404.678513514 L 442 412.437162162 L 446 403.920810811 L 450 410.104459459 L 454 385.313108108 L 458 408.296756757 L 462 403.980405405 L 466 411.214054054 L 470 413.722702703 L 474 415.181351351 L 477 404.565 L 481 424.923648649 L 485 402.757297297 L 489 422.065945946 L 493 400.949594595 L 497 413.958243243 L 501 424.341891892 L 505 410.575540541 L 509 427.259189189 L 513 420.317837838 L 517 428.076486486 L 521 428.485135135 L 525 417.343783784 L 529 420.902432432 L 533 421.836081081 L 537 420.66972973 L 541 414.778378378 L 545 409.937027027 L 548 421.370675676 L 552 425.979324324 L 556 429.537972973 L 560 413.671621622 L 564 413.03027027 L 568 417.113918919 L 572 422.772567568 L 576 418.981216216 L 580 426.214864865 L 584 426.623513514 L 588 410.757162162 L 592 417.465810811 L 596 414.199459459 L 600 409.358108108 L 604 418.166756757 L 608 414.900405405 L 612 426.859054054 L 616 428.317702703 L 620 413.501351351"/>
		</g>
		<text class="x-axis-label" x="40.0" y="540">
			0
		</text>
		<path class="x-notch" d="M 59.7278911565 525 L 59.7278911565 530"/>
		<text class="x-axis-label" x="79.4557823129" y="540">
			10
		</text>
		<path class="x-notch" d="M 99.1836734694 525 L 99.1836734694 530"/>
		<text class="x-axis-label" x="118.911564626" y="540">
			20
		</text>
		<path class="x-notch" d="M 138.639455782 525 L 138.639455782 530"/>
		<text class="x-axis-label" x="158.367346939" y="540">
			30
		</text>
		<path class="x-notch" d="M 178.095238095 525 L 178.095238095 530"/>
		<text class="x-axis-label" x="197.823129252" y="540">
			40
		</text>
		<path class="x-notch" d="M 217.551020408 525 L 217.551020408 530"/>
		<text class="x-axis-label" x="237.278911565" y="540">
			50
		</text>
		<path class="x-notch" d="M 257.006802721 525 L 257.006802721 530"/>
		<text class="x-axis-label" x="276.734693878" y="540">
			60
		</text>
		<path class="x-notch" d="M 296.462585034 525 L 296.462585034 530"/>
		<text class="x-axis-label" x="316.19047619" y="540">
			70
		</text>
		<path class="x-notch" d="M 335.918367347 525 L 335.918367347 530"/>
		<text class="x-axis-label" x="355.646258503" y="540">
			80
		</text>
		<path class="x-notch" d="M 375.37414966 525 L 375.37414966 530"/>
		<text class="x-axis-label" x="395.102040816" y="540">
			90
		</text>
		<path class="x-notch" d="M 414.829931973 525 L 414.829931973 530"/>
		<text class="x-axis-label" x="434.557823129" y="540">
			100
		</text>
		<path class="x-notch" d="M 454.285714286 525 L 454.285714286 530"/>
		<text class="x-axis-label" x="474.013605442" y="540">
			110
		</text>
		<path class="x-notch" d="M 493.741496599 525 L 493.741496599 530"/>
		<text class="x-axis-label" x="513.469387755" y="540">
			120
		</text>
		<path class="x-notch" d="M 533.197278912 525 L 533.197278912 530"/>
		<text class="x-axis-label" x="552.925170068" y="540">
			130
		</text>
		<path class="x-notch" d="M 572.653061224 525 L 572.653061224 530"/>
		<text class="x-axis-label" x="592.380952381" y="540">
			140
		</text>
		<path class="x-notch" d="M 612.108843537 525 L 612.108843537 530"/>
	</g>
</svg>
