<?xml version="1.0" ?>
<svg height="600" version="1.1" width="800" xmlns="http://www.w3.org/2000/svg" xmlns:svg="http://www.w3.org/2000/svg">
	<style type="text/css">
		

.x-axis-path, .y-gridline, .x-notch { fill:none; stroke: #a7a9ac; stroke-width:1; }



.y-gridline { stroke-width: 1; }

.y-axis-path, .y-axis-path2, .x-notch-left, .x-notch-right { display: none;}



.x-axis-label, .data-point-label {font-size: 12px; font-weight:normal; font-family: sans-serif; fill: #58595b; text-anchor:middle;}

.y-axis-label {font-size: 12px; font-family: helvetica; fill: #a7a9ac; text-anchor:end;}



.series-1-line { fill: none; stroke: #10b80c; stroke-width:2; }



.series-2-line { fill: none; stroke: #e90f0a; stroke-width: 2;}

	</style>
	<rect fill="white" height="600" width="800" x="0" y="0"/>
	<g id="grid" transform="translate(70, 30)">
		<g class="x-axis" id="x_axis">
			<path class="x-axis-path" d="M 0 525 L 660 525"/>
			<path class="x-notch-left" d="M 0 525, L 0 535"/>
			<path class="x-notch-right" d="M 660 525, L 660 535"/>
		</g>
		<g class="y-axis" id="y_axis">
			<path class="y-axis-path" d="M 0 525 L 0 0"/>
			<path class="y-axis-path-2" d="M 660 525 L 660 0"/>
			<path class="y-gridline" d="M 0 525 L 660 525"/>
			<text class="y-axis-label" x="-5" y="525">
				-200
			</text>
			<path class="y-gridline" d="M 0 394 L 660 394"/>
			<text class="y-axis-label" x="-5" y="394">
				 0
			</text>
			<path class="y-gridline" d="M 0 263 L 660 263"/>
			<text class="y-axis-label" x="-5" y="263">
				200
			</text>
			<path class="y-gridline" d="M 0 132 L 660 132"/>
			<text class="y-axis-label" x="-5" y="132">
				400
			</text>
			<path class="y-gridline" d="M 0 1 L 660 1"/>
			<text class="y-axis-label" x="-5" y="1">
				600
			</text>
		</g>
		<g>
			<path class="series-1-line" d="M 40 395.3551875 L 46 395.865197583 L 53 412.545470167 L 59 371.02161775 L 66 390.478877833 L 72 381.077675417 L 79 397.0515605 L 85 390.712683083 L 92 384.154880667 L 98 384.42916575 L 105 381.742188333 L 111 365.324098417 L 118 399.9081835 L 124 369.759243583 L 131 391.168191167 L 137 385.23356375 L 144 355.118223833 L 150 374.894946417 L 157 352.6719315 L 163 321.344891583 L 170 326.414789167 L 176 288.47484925 L 183 265.999046833 L 189 234.671744417 L 196 169.237292 L 202 220.514539583 L 209 168.624562167 L 215 126.52898475 L 222 138.396319833 L 228 72.4400174167 L 235 94.16869 L 242 97.0669250833 L 248 117.348960167 L 255 149.89683275 L 261 50.3037803333 L 268 69.7271779167 L 274 107.2725255 L 281 82.2223855833 L 287 87.9149331667 L 294 84.30264325 L 300 68.9442658333 L 307 103.309950917 L 313 74.3724485 L 320 136.855821083 L 326 109.130281167 L 333 46.47176625 L 339 162.178326333 L 346 61.1210489167 L 352 95.419009 L 359 26.4502565833 L 365 117.287566667 L 372 97.21810175 L 378 95.5404368333 L 385 65.2397719167 L 391 59.1702195 L 398 99.1048420833 L 404 91.3697271667 L 411 115.68953725 L 417 75.8325598333 L 424 85.2268824167 L 431 126.1886675 L 437 170.734365083 L 444 140.215300167 L 450 134.46521025 L 457 108.404970333 L 463 215.092817917 L 470 138.317053 L 476 295.435088083 L 483 273.700323167 L 489 344.61414575 L 496 329.676818333 L 502 355.409928417 L 509 355.163151 L 515 315.254198583 L 522 328.738008667 L 528 336.01159375 L 535 326.409053833 L 541 347.262288917 L 548 384.556424 L 554 371.991571583 L 561 377.481994167 L 567 386.52351675 L 574 390.869439333 L 580 388.838186917 L 587 389.634322 L 593 399.516632083 L 600 376.165917167 L 606 383.17122725 L 613 414.962049833 L 620 400.159647417"/>
			<path class="series-2-line" d="M 40 383.90625 L 46 402.597708333 L 53 381.257916667 L 59 379.605625 L 66 411.422083333 L 72 415.019791667 L 79 427.14875 L 85 413.683958333 L 92 383.156666667 L 98 387.410625 L 105 418.570833333 L 111 416.262291667 L 118 391.64125 L 124 381.457708333 L 131 390.305416667 L 137 416.215625 L 144 400.782083333 L 150 408.317291667 L 157 441.44625 L 163 410.262708333 L 170 408.610416667 L 176 385.301875 L 183 381.024583333 L 189 324.247291667 L 196 367.22 L 202 425.942708333 L 209 352.102916667 L 215 388.513125 L 222 324.517083333 L 228 346.489791667 L 235 356.65 L 242 258.528958333 L 248 315.282916667 L 255 275.568125 L 261 323.790833333 L 268 335.263541667 L 274 283.73625 L 281 297.177708333 L 287 300.775416667 L 294 348.341875 L 300 308.627083333 L 307 318.131041667 L 313 298.10375 L 320 297.763958333 L 326 319.080416667 L 333 312.834375 L 339 276.400833333 L 346 297.061041667 L 352 265.8775 L 359 245.850208333 L 365 301.291666667 L 372 305.545625 L 378 307.174583333 L 385 269.428541667 L 391 265.15125 L 398 199.186458333 L 404 224.440416667 L 411 214.256875 L 417 311.042083333 L 424 300.202291667 L 431 304.45625 L 437 287.053958333 L 444 283.432916667 L 450 254.874375 L 457 221.065833333 L 463 235.163541667 L 470 281.4175 L 476 285.671458333 L 483 345.050416667 L 489 360.460625 L 496 357.495833333 L 502 331.562291667 L 509 391.5975 L 515 342.695208333 L 522 385.011666667 L 528 321.015625 L 535 381.707083333 L 541 349.211041667 L 548 413.84 L 554 399.062708333 L 561 382.972916667 L 567 427.258125 L 574 384.918333333 L 580 364.891041667 L 587 390.145 L 593 379.961458333 L 600 384.215416667 L 606 413.406875 L 613 389.442083333 L 620 416.664791667"/>
		</g>
		<text class="x-axis-label" x="40.0" y="540">
			0
		</text>
		<path class="x-notch" d="M 72.5842696629 525 L 72.5842696629 530"/>
		<text class="x-axis-label" x="105.168539326" y="540">
			10
		</text>
		<path class="x-notch" d="M 137.752808989 525 L 137.752808989 530"/>
		<text class="x-axis-label" x="170.337078652" y="540">
			20
		</text>
		<path class="x-notch" d="M 202.921348315 525 L 202.921348315 530"/>
		<text class="x-axis-label" x="235.505617978" y="540">
			30
		</text>
		<path class="x-notch" d="M 268.08988764 525 L 268.08988764 530"/>
		<text class="x-axis-label" x="300.674157303" y="540">
			40
		</text>
		<path class="x-notch" d="M 333.258426966 525 L 333.258426966 530"/>
		<text class="x-axis-label" x="365.842696629" y="540">
			50
		</text>
		<path class="x-notch" d="M 398.426966292 525 L 398.426966292 530"/>
		<text class="x-axis-label" x="431.011235955" y="540">
			60
		</text>
		<path class="x-notch" d="M 463.595505618 525 L 463.595505618 530"/>
		<text class="x-axis-label" x="496.179775281" y="540">
			70
		</text>
		<path class="x-notch" d="M 528.764044944 525 L 528.764044944 530"/>
		<text class="x-axis-label" x="561.348314607" y="540">
			80
		</text>
		<path class="x-notch" d="M 593.93258427 525 L 593.93258427 530"/>
	</g>
</svg>
