<?xml version="1.0" ?>
<svg height="600" version="1.1" width="800" xmlns="http://www.w3.org/2000/svg" xmlns:svg="http://www.w3.org/2000/svg">
	<style type="text/css">
		

.x-axis-path, .y-gridline, .x-notch { fill:none; stroke: #a7a9ac; stroke-width:1; }



.y-gridline { stroke-width: 1; }

.y-axis-path, .y-axis-path2, .x-notch-left, .x-notch-right { display: none;}



.x-axis-label, .data-point-label {font-size: 12px; font-weight:normal; font-family: sans-serif; fill: #58595b; text-anchor:middle;}

.y-axis-label {font-size: 12px; font-family: helvetica; fill: #a7a9ac; text-anchor:end;}



.series-1-line { fill: none; stroke: #10b80c; stroke-width:2; }



.series-2-line { fill: none; stroke: #e90f0a; stroke-width: 2;}

	</style>
	<rect fill="white" height="600" width="800" x="0" y="0"/>
	<g id="grid" transform="translate(70, 30)">
		<g class="x-axis" id="x_axis">
			<path class="x-axis-path" d="M 0 525 L 660 525"/>
			<path class="x-notch-left" d="M 0 525, L 0 535"/>
			<path class="x-notch-right" d="M 660 525, L 660 535"/>
		</g>
		<g class="y-axis" id="y_axis">
			<path class="y-axis-path" d="M 0 525 L 0 0"/>
			<path class="y-axis-path-2" d="M 660 525 L 660 0"/>
			<path class="y-gridline" d="M 0 525 L 660 525"/>
			<text class="y-axis-label" x="-5" y="525">
				-300
			</text>
			<path class="y-gridline" d="M 0 438 L 660 438"/>
			<text class="y-axis-label" x="-5" y="438">
				 0
			</text>
			<path class="y-gridline" d="M 0 351 L 660 351"/>
			<text class="y-axis-label" x="-5" y="351">
				300
			</text>
			<path class="y-gridline" d="M 0 264 L 660 264"/>
			<text class="y-axis-label" x="-5" y="264">
				600
			</text>
			<path class="y-gridline" d="M 0 177 L 660 177"/>
			<text class="y-axis-label" x="-5" y="177">
				900
			</text>
			<path class="y-gridline" d="M 0 90 L 660 90"/>
			<text class="y-axis-label" x="-5" y="90">
				1200
			</text>
			<path class="y-gridline" d="M 0 3 L 660 3"/>
			<text class="y-axis-label" x="-5" y="3">
				1500
			</text>
		</g>
		<g>
			<path class="series-1-line" d="M 40 457.509383333 L 46 424.034372821 L 52 420.698212308 L 59 439.393968462 L 65 446.676457949 L 72 434.447847436 L 78 439.509820256 L 85 456.552759744 L 91 456.274082564 L 98 449.423105385 L 104 447.395944872 L 110 419.567017692 L 117 441.328423846 L 123 449.943013333 L 130 443.974386154 L 136 448.304042308 L 143 399.108198462 L 149 428.564821282 L 156 448.936144103 L 162 416.13383359 L 168 447.131273077 L 175 429.084845897 L 181 421.993768718 L 188 439.447958205 L 194 431.033414359 L 201 400.115620513 L 207 399.000326667 L 214 378.433666154 L 220 383.891488974 L 226 356.317011795 L 233 373.591534615 L 239 360.869074103 L 246 350.14371359 L 252 361.92148641 L 259 369.099559231 L 265 350.387082051 L 272 348.696038205 L 278 350.197694359 L 284 356.269067179 L 291 353.568273333 L 297 289.924196154 L 304 334.031818974 L 310 313.494091795 L 317 280.265597949 L 323 303.411720769 L 330 307.283810256 L 336 283.082283077 L 342 342.737955897 L 349 333.732728718 L 355 312.993634872 L 362 297.863057692 L 368 264.575063846 L 375 280.361153333 L 381 311.673126154 L 388 264.287482308 L 394 260.426788462 L 400 279.428794615 L 407 264.410450769 L 413 361.222006923 L 420 273.54004641 L 426 285.489669231 L 433 314.670842051 L 439 346.514114872 L 446 363.175787692 L 452 368.155043846 L 458 345.787283333 L 465 488.537622821 L 471 436.973445641 L 478 451.062035128 L 484 426.957691282 L 491 444.688497436 L 497 448.897986923 L 504 445.404209744 L 510 464.473999231 L 516 441.753205385 L 523 461.165994872 L 529 425.694117692 L 536 438.324490513 L 542 439.535413333 L 549 421.749619487 L 555 448.769308974 L 562 439.591765128 L 568 446.246354615 L 574 436.463777436 L 581 437.90593359 L 587 435.72150641 L 594 444.470262564 L 600 447.483568718 L 607 430.887424872 L 613 430.826914359 L 620 432.613237179"/>
			<path class="series-2-line" d="M 40 394.041666667 L 46 428.273076923 L 52 458.712820513 L 59 476.027564103 L 65 408.175641026 L 72 403.907051282 L 78 398.180128205 L 85 411.703205128 L 91 317.601282051 L 98 361.749358974 L 104 415.522435897 L 110 422.045512821 L 117 381.901923077 L 123 402.133333333 L 130 433.73974359 L 136 485.471153846 L 143 446.785897436 L 149 377.767307692 L 156 429.498717949 L 162 426.980128205 L 168 379.253205128 L 175 429.526282051 L 181 397.257692308 L 188 403.489102564 L 194 395.720512821 L 201 383.576923077 L 207 386.016666667 L 214 442.706410256 L 220 386.521153846 L 226 410.252564103 L 233 398.983974359 L 239 369.340384615 L 246 369.446794872 L 252 362.553205128 L 259 322.409615385 L 265 328.641025641 L 272 341.289102564 L 278 288.020512821 L 284 261.293589744 L 291 260.816666667 L 297 269.381410256 L 304 235.362820513 L 310 196.385897436 L 317 203.492307692 L 323 277.390384615 L 330 195.538461538 L 336 227.728205128 L 342 191.084615385 L 349 195.857692308 L 355 211.130769231 L 362 181.778846154 L 368 220.968589744 L 375 191.616666667 L 381 185.88974359 L 388 183.371153846 L 394 113.477564103 L 400 94.333974359 L 407 70.2320512821 L 413 232.213461538 L 420 88.8198717949 L 426 66.4679487179 L 433 120.241025641 L 439 145.430769231 L 446 172.953846154 L 452 123.18525641 L 458 301.791666667 L 465 224.31474359 L 471 418.962820513 L 478 404.194230769 L 484 432.592307692 L 491 429.782051282 L 497 431.930128205 L 504 407.244871795 L 510 434.476282051 L 516 463.166025641 L 523 391.230769231 L 529 418.462179487 L 536 415.068589744 L 542 452.8 L 549 393.98974359 L 555 432.304487179 L 562 407.035897436 L 568 368.933974359 L 574 415.415384615 L 581 394.230128205 L 587 427.003205128 L 594 403.484615385 L 600 444.424358974 L 607 438.989102564 L 613 470.303846154 L 620 463.701923077"/>
		</g>
		<text class="x-axis-label" x="40.0" y="540">
			0
		</text>
		<path class="x-notch" d="M 72.2222222222 525 L 72.2222222222 530"/>
		<text class="x-axis-label" x="104.444444444" y="540">
			10
		</text>
		<path class="x-notch" d="M 136.666666667 525 L 136.666666667 530"/>
		<text class="x-axis-label" x="168.888888889" y="540">
			20
		</text>
		<path class="x-notch" d="M 201.111111111 525 L 201.111111111 530"/>
		<text class="x-axis-label" x="233.333333333" y="540">
			30
		</text>
		<path class="x-notch" d="M 265.555555556 525 L 265.555555556 530"/>
		<text class="x-axis-label" x="297.777777778" y="540">
			40
		</text>
		<path class="x-notch" d="M 330.0 525 L 330.0 530"/>
		<text class="x-axis-label" x="362.222222222" y="540">
			50
		</text>
		<path class="x-notch" d="M 394.444444444 525 L 394.444444444 530"/>
		<text class="x-axis-label" x="426.666666667" y="540">
			60
		</text>
		<path class="x-notch" d="M 458.888888889 525 L 458.888888889 530"/>
		<text class="x-axis-label" x="491.111111111" y="540">
			70
		</text>
		<path class="x-notch" d="M 523.333333333 525 L 523.333333333 530"/>
		<text class="x-axis-label" x="555.555555556" y="540">
			80
		</text>
		<path class="x-notch" d="M 587.777777778 525 L 587.777777778 530"/>
		<text class="x-axis-label" x="620.0" y="540">
			90
		</text>
	</g>
</svg>
