<?xml version="1.0" ?>
<svg height="600" version="1.1" width="800" xmlns="http://www.w3.org/2000/svg" xmlns:svg="http://www.w3.org/2000/svg">
	<style type="text/css">
		

.x-axis-path, .y-gridline, .x-notch { fill:none; stroke: #a7a9ac; stroke-width:1; }



.y-gridline { stroke-width: 1; }

.y-axis-path, .y-axis-path2, .x-notch-left, .x-notch-right { display: none;}



.x-axis-label, .data-point-label {font-size: 12px; font-weight:normal; font-family: sans-serif; fill: #58595b; text-anchor:middle;}

.y-axis-label {font-size: 12px; font-family: helvetica; fill: #a7a9ac; text-anchor:end;}



.series-1-line { fill: none; stroke: #10b80c; stroke-width:2; }



.series-2-line { fill: none; stroke: #e90f0a; stroke-width: 2;}

	</style>
	<rect fill="white" height="600" width="800" x="0" y="0"/>
	<g id="grid" transform="translate(70, 30)">
		<g class="x-axis" id="x_axis">
			<path class="x-axis-path" d="M 0 525 L 660 525"/>
			<path class="x-notch-left" d="M 0 525, L 0 535"/>
			<path class="x-notch-right" d="M 660 525, L 660 535"/>
		</g>
		<g class="y-axis" id="y_axis">
			<path class="y-axis-path" d="M 0 525 L 0 0"/>
			<path class="y-axis-path-2" d="M 660 525 L 660 0"/>
			<path class="y-gridline" d="M 0 525 L 660 525"/>
			<text class="y-axis-label" x="-5" y="525">
				-200
			</text>
			<path class="y-gridline" d="M 0 394 L 660 394"/>
			<text class="y-axis-label" x="-5" y="394">
				 0
			</text>
			<path class="y-gridline" d="M 0 263 L 660 263"/>
			<text class="y-axis-label" x="-5" y="263">
				200
			</text>
			<path class="y-gridline" d="M 0 132 L 660 132"/>
			<text class="y-axis-label" x="-5" y="132">
				400
			</text>
			<path class="y-gridline" d="M 0 1 L 660 1"/>
			<text class="y-axis-label" x="-5" y="1">
				600
			</text>
		</g>
		<g>
			<path class="series-1-line" d="M 40 406.942502496 L 46 377.413307009 L 52 396.592167177 L 58 381.418959548 L 64 403.428463449 L 70 368.985471091 L 76 396.632947536 L 82 360.423319796 L 88 428.288333718 L 94 426.226238305 L 100 376.92810676 L 106 379.395111972 L 112 384.059018891 L 118 350.793076941 L 124 373.934767685 L 130 324.341667025 L 136 325.631268573 L 142 330.702126893 L 148 301.920775259 L 154 277.598932734 L 160 292.249045533 L 166 219.037926808 L 172 259.230951932 L 178 215.616009754 L 185 229.56384878 L 191 203.951913791 L 197 178.634241404 L 203 180.467151333 L 209 123.333792281 L 215 177.408381883 L 221 169.911789627 L 227 111.102582095 L 233 114.294116234 L 239 107.295968793 L 245 117.4848062 L 251 70.971748311 L 257 95.8118959461 L 263 70.6980525165 L 269 0.0 L 275 35.5960992647 L 281 100.856906822 L 287 87.1783271272 L 293 4.84188843142 L 299 135.749043966 L 305 109.344048303 L 311 95.7788639211 L 317 65.4792161719 L 323 32.530145235 L 330 107.595938126 L 336 58.1165860355 L 342 114.296937187 L 348 114.273484602 L 354 114.906735712 L 360 191.716202316 L 366 166.805834587 L 372 129.599670472 L 378 152.355958456 L 384 144.611026933 L 390 176.357690934 L 396 168.294828628 L 402 173.637694396 L 408 203.799650074 L 414 256.379258486 L 420 213.285722791 L 426 238.148125581 L 432 265.50169268 L 438 275.147221705 L 444 270.119185347 L 450 306.236337838 L 456 309.768057915 L 462 327.678727516 L 468 318.506640036 L 475 342.214600829 L 481 340.968174501 L 487 341.691505998 L 493 332.111760603 L 499 357.971053025 L 505 342.956810787 L 511 369.449845235 L 517 367.048623653 L 523 411.612137267 L 529 372.617082616 L 535 356.991353506 L 541 390.39090432 L 547 383.755197971 L 553 388.622580591 L 559 394.871549089 L 565 393.53433586 L 571 407.64078702 L 577 402.408568448 L 583 412.688192756 L 589 375.550207131 L 595 391.400332005 L 601 396.132064158 L 607 391.669944593 L 613 385.011276576 L 620 408.968283149"/>
			<path class="series-2-line" d="M 40 367.78565276 L 46 415.792108377 L 52 408.16067705 L 58 386.398988722 L 64 384.949544834 L 70 441.787411077 L 76 387.349503433 L 82 409.744868235 L 88 418.893117098 L 94 383.884312831 L 100 415.994229321 L 106 397.765105243 L 112 415.744764732 L 118 426.65929572 L 124 420.794146519 L 130 395.499893941 L 136 388.751603677 L 142 343.145106659 L 148 446.789449219 L 154 405.598657514 L 160 415.630047439 L 166 423.89515524 L 172 410.081736475 L 178 382.138060709 L 185 363.908936631 L 191 386.304301433 L 197 397.218832421 L 203 374.574003031 L 209 389.021098269 L 215 414.065886259 L 221 400.252467494 L 227 400.569305731 L 233 372.625629965 L 239 384.423302015 L 245 367.077319 L 251 377.991849988 L 257 382.724393538 L 263 396.288347714 L 269 356.863838134 L 275 336.868431931 L 281 338.951552293 L 287 325.138133529 L 293 379.326576584 L 299 335.486361691 L 305 309.30896805 L 311 312.275229475 L 317 308.176362399 L 323 304.077495323 L 330 292.030358683 L 336 317.958287735 L 342 324.45711341 L 348 350.385042462 L 354 377.196112577 L 360 368.681540188 L 366 350.452416111 L 372 356.068100723 L 378 306.929039455 L 384 366.416328885 L 390 361.434320747 L 396 332.607503918 L 402 313.495238778 L 408 349.137719518 L 414 331.791736503 L 420 360.369088743 L 426 327.126566602 L 432 318.611994212 L 438 317.162550324 L 444 331.609645563 L 450 333.692765925 L 456 356.088130726 L 462 339.625288774 L 468 346.124114449 L 475 355.272363312 L 481 365.303753237 L 487 343.542064909 L 493 344.742044209 L 499 362.721703698 L 505 385.117068499 L 511 373.06993186 L 517 391.049591349 L 523 384.301301085 L 529 393.449549948 L 535 407.896645186 L 541 386.134956858 L 547 410.296603785 L 553 396.483185021 L 559 408.280857071 L 565 398.000002557 L 571 389.485430168 L 577 366.840600777 L 583 369.806862202 L 589 399.267355504 L 595 394.285347366 L 601 401.667314103 L 607 396.685305965 L 613 389.937015701 L 620 394.669559251"/>
		</g>
		<text class="x-axis-label" x="40.0" y="540">
			0
		</text>
		<path class="x-notch" d="M 70.2083333333 525 L 70.2083333333 530"/>
		<text class="x-axis-label" x="100.416666667" y="540">
			10
		</text>
		<path class="x-notch" d="M 130.625 525 L 130.625 530"/>
		<text class="x-axis-label" x="160.833333333" y="540">
			20
		</text>
		<path class="x-notch" d="M 191.041666667 525 L 191.041666667 530"/>
		<text class="x-axis-label" x="221.25" y="540">
			30
		</text>
		<path class="x-notch" d="M 251.458333333 525 L 251.458333333 530"/>
		<text class="x-axis-label" x="281.666666667" y="540">
			40
		</text>
		<path class="x-notch" d="M 311.875 525 L 311.875 530"/>
		<text class="x-axis-label" x="342.083333333" y="540">
			50
		</text>
		<path class="x-notch" d="M 372.291666667 525 L 372.291666667 530"/>
		<text class="x-axis-label" x="402.5" y="540">
			60
		</text>
		<path class="x-notch" d="M 432.708333333 525 L 432.708333333 530"/>
		<text class="x-axis-label" x="462.916666667" y="540">
			70
		</text>
		<path class="x-notch" d="M 493.125 525 L 493.125 530"/>
		<text class="x-axis-label" x="523.333333333" y="540">
			80
		</text>
		<path class="x-notch" d="M 553.541666667 525 L 553.541666667 530"/>
		<text class="x-axis-label" x="583.75" y="540">
			90
		</text>
		<path class="x-notch" d="M 613.958333333 525 L 613.958333333 530"/>
	</g>
</svg>
