<?xml version="1.0" ?>
<svg height="600" version="1.1" width="800" xmlns="http://www.w3.org/2000/svg" xmlns:svg="http://www.w3.org/2000/svg">
	<style type="text/css">
		

.x-axis-path, .y-gridline, .x-notch { fill:none; stroke: #a7a9ac; stroke-width:1; }



.y-gridline { stroke-width: 1; }

.y-axis-path, .y-axis-path2, .x-notch-left, .x-notch-right { display: none;}



.x-axis-label, .data-point-label {font-size: 12px; font-weight:normal; font-family: sans-serif; fill: #58595b; text-anchor:middle;}

.y-axis-label {font-size: 12px; font-family: helvetica; fill: #a7a9ac; text-anchor:end;}



.series-1-line { fill: none; stroke: #10b80c; stroke-width:2; }



.series-2-line { fill: none; stroke: #e90f0a; stroke-width: 2;}

	</style>
	<rect fill="white" height="600" width="800" x="0" y="0"/>
	<g id="grid" transform="translate(70, 30)">
		<g class="x-axis" id="x_axis">
			<path class="x-axis-path" d="M 0 525 L 660 525"/>
			<path class="x-notch-left" d="M 0 525, L 0 535"/>
			<path class="x-notch-right" d="M 660 525, L 660 535"/>
		</g>
		<g class="y-axis" id="y_axis">
			<path class="y-axis-path" d="M 0 525 L 0 0"/>
			<path class="y-axis-path-2" d="M 660 525 L 660 0"/>
			<path class="y-gridline" d="M 0 525 L 660 525"/>
			<text class="y-axis-label" x="-5" y="525">
				-250
			</text>
			<path class="y-gridline" d="M 0 420 L 660 420"/>
			<text class="y-axis-label" x="-5" y="420">
				 0
			</text>
			<path class="y-gridline" d="M 0 315 L 660 315"/>
			<text class="y-axis-label" x="-5" y="315">
				250
			</text>
			<path class="y-gridline" d="M 0 210 L 660 210"/>
			<text class="y-axis-label" x="-5" y="210">
				500
			</text>
			<path class="y-gridline" d="M 0 105 L 660 105"/>
			<text class="y-axis-label" x="-5" y="105">
				750
			</text>
			<path class="y-gridline" d="M 0 0 L 660 0"/>
			<text class="y-axis-label" x="-5" y="0">
				1000
			</text>
		</g>
		<g>
			<path class="series-1-line" d="M 40 431.05356 L 44 426.781899079 L 48 406.065558157 L 52 432.346209236 L 56 401.959284314 L 60 417.136815393 L 64 393.620586472 L 68 432.66268555 L 72 408.801888629 L 76 419.693235708 L 80 380.550822786 L 84 388.254537865 L 88 375.582876943 L 92 383.437456022 L 96 394.673371101 L 100 362.132518179 L 104 280.192777258 L 108 65.5118683366 L 112 237.101935415 L 116 227.521138494 L 120 212.577109572 L 124 213.657928651 L 128 218.07690773 L 132 188.099230808 L 136 202.716817887 L 140 182.161924966 L 144 209.713328044 L 148 169.580219123 L 152 172.857806201 L 156 163.42770528 L 160 137.628356359 L 164 126.938087437 L 168 112.597178516 L 172 104.179445594 L 176 110.203160673 L 180 125.423699752 L 185 99.9368308303 L 189 129.200489909 L 193 78.5564609876 L 197 53.7048000662 L 201 121.360995145 L 205 97.5645422234 L 209 100.109985302 L 213 85.3920843807 L 217 100.451175459 L 221 90.2457545379 L 225 84.3048456166 L 229 100.677696695 L 233 93.7460917738 L 237 59.5358228524 L 241 52.593633931 L 245 89.7296050097 L 249 88.9686400883 L 253 90.6955871669 L 257 82.1916702455 L 261 48.1969453241 L 265 83.3513564028 L 269 68.3211434814 L 273 60.89427456 L 277 71.4301336386 L 281 82.5800327172 L 285 66.9789557959 L 289 111.556822874 L 293 80.4804259531 L 297 68.7026930317 L 301 91.8279681103 L 305 96.979259189 L 309 84.1246462676 L 313 71.9699213462 L 317 46.4289564248 L 321 113.751167503 L 325 75.3949945821 L 330 118.874141661 L 334 110.811560739 L 338 117.686027818 L 342 99.2637268966 L 346 132.393569975 L 350 167.504973054 L 354 131.323896132 L 358 169.784715211 L 362 162.34692629 L 366 170.276769368 L 370 192.099036447 L 374 162.541191526 L 378 120.577218604 L 382 119.762493683 L 386 159.870720761 L 390 143.55917184 L 394 148.785894919 L 398 196.971225997 L 402 162.653437076 L 406 184.744840154 L 410 189.110227233 L 414 177.353830312 L 418 217.91448139 L 422 223.216636469 L 426 237.198847548 L 430 202.536490626 L 434 201.344773705 L 438 252.814840783 L 442 260.841451862 L 446 277.839094941 L 450 276.485930019 L 454 304.285133098 L 458 323.641160177 L 462 350.546435255 L 466 375.965582334 L 470 400.598657412 L 475 410.068388491 L 479 409.44753557 L 483 414.092810648 L 487 404.748893727 L 491 399.206480806 L 495 403.324067884 L 499 395.390846963 L 503 382.740690041 L 507 410.77677312 L 511 403.360488199 L 515 366.770331277 L 519 438.357222356 L 523 430.811745434 L 527 435.144708513 L 531 444.388479592 L 535 440.17057867 L 539 432.075909749 L 543 439.273440828 L 547 435.852531906 L 551 436.523934985 L 555 435.892330063 L 559 414.109861142 L 563 434.941264221 L 567 420.212779299 L 571 419.947246378 L 575 414.146281457 L 579 425.393116535 L 583 443.478391614 L 587 424.086730692 L 591 434.805877771 L 595 396.50346485 L 599 419.014867928 L 603 431.952455007 L 607 423.362354086 L 611 420.921389164 L 615 430.165160243 L 620 396.288875321"/>
			<path class="series-2-line" d="M 40 422.1 L 44 421.642924138 L 48 414.885848276 L 52 414.848772414 L 56 426.151696552 L 60 421.91462069 L 64 426.077544828 L 68 417.220468966 L 72 426.003393103 L 76 418.826317241 L 80 420.049241379 L 84 418.752165517 L 88 418.295089655 L 92 426.238013793 L 96 414.440937931 L 100 417.763862069 L 104 379.506786207 L 108 377.369710345 L 112 395.392634483 L 116 404.175558621 L 120 397.838482759 L 124 414.181406897 L 128 401.124331034 L 132 414.107255172 L 136 415.33017931 L 140 399.753103448 L 144 398.036027586 L 148 406.398951724 L 152 407.621875862 L 156 409.2648 L 160 409.227724138 L 164 394.490648276 L 168 392.353572414 L 172 399.876496552 L 176 398.57942069 L 180 387.622344828 L 185 404.385268966 L 189 397.628193103 L 193 391.291117241 L 197 390.834041379 L 201 406.336965517 L 205 388.659889655 L 209 405.842813793 L 213 396.985737931 L 217 394.848662069 L 221 402.791586207 L 225 400.654510345 L 229 390.117434483 L 233 395.120358621 L 237 380.383282759 L 241 403.446206897 L 245 397.109131034 L 249 389.512055172 L 253 403.33497931 L 257 407.917903448 L 261 408.720827586 L 265 400.283751724 L 269 391.006675862 L 273 407.7696 L 277 390.512524138 L 281 392.155448276 L 285 373.638372414 L 289 402.161296552 L 293 389.94422069 L 297 397.467144828 L 301 398.270068966 L 305 385.632993103 L 309 397.355917241 L 313 398.158841379 L 317 390.561765517 L 321 392.624689655 L 325 402.247613793 L 330 405.570537931 L 334 390.413462069 L 338 387.436386207 L 342 399.579310345 L 346 395.762234483 L 350 394.045158621 L 354 375.528082759 L 358 391.871006897 L 362 393.933931034 L 366 390.116855172 L 370 397.63977931 L 374 394.242703448 L 378 393.365627586 L 382 394.168551724 L 386 382.791475862 L 390 393.2544 L 394 385.237324138 L 398 391.500248276 L 402 393.563172414 L 406 391.846096552 L 410 403.56902069 L 414 391.351944828 L 418 391.314868966 L 422 387.917793103 L 426 389.980717241 L 430 396.663641379 L 434 390.746565517 L 438 408.769489655 L 442 389.832413793 L 446 396.515337931 L 450 399.418262069 L 454 408.201186207 L 458 407.324110345 L 462 408.127034483 L 466 411.449958621 L 470 422.752882759 L 475 408.015806897 L 479 411.338731034 L 483 412.141655172 L 487 416.72457931 L 491 417.947503448 L 495 419.170427586 L 499 416.613351724 L 503 412.796275862 L 507 417.3792 L 511 416.082124138 L 515 412.265048276 L 519 420.627972414 L 523 423.110896552 L 527 423.49382069 L 531 427.656744828 L 535 418.799668966 L 539 425.062593103 L 543 420.825517241 L 547 418.688441379 L 551 416.971365517 L 555 421.974289655 L 559 417.737213793 L 563 416.020137931 L 567 425.223062069 L 571 422.245986207 L 575 414.648910345 L 579 417.551834483 L 583 418.354758621 L 587 417.897682759 L 591 421.220606897 L 595 422.443531034 L 599 420.726455172 L 603 421.94937931 L 607 423.592303448 L 611 415.995227586 L 615 420.158151724 L 620 418.861075862"/>
		</g>
		<text class="x-axis-label" x="40.0" y="540">
			0
		</text>
		<path class="x-notch" d="M 60.1388888889 525 L 60.1388888889 530"/>
		<text class="x-axis-label" x="80.2777777778" y="540">
			10
		</text>
		<path class="x-notch" d="M 100.416666667 525 L 100.416666667 530"/>
		<text class="x-axis-label" x="120.555555556" y="540">
			20
		</text>
		<path class="x-notch" d="M 140.694444444 525 L 140.694444444 530"/>
		<text class="x-axis-label" x="160.833333333" y="540">
			30
		</text>
		<path class="x-notch" d="M 180.972222222 525 L 180.972222222 530"/>
		<text class="x-axis-label" x="201.111111111" y="540">
			40
		</text>
		<path class="x-notch" d="M 221.25 525 L 221.25 530"/>
		<text class="x-axis-label" x="241.388888889" y="540">
			50
		</text>
		<path class="x-notch" d="M 261.527777778 525 L 261.527777778 530"/>
		<text class="x-axis-label" x="281.666666667" y="540">
			60
		</text>
		<path class="x-notch" d="M 301.805555556 525 L 301.805555556 530"/>
		<text class="x-axis-label" x="321.944444444" y="540">
			70
		</text>
		<path class="x-notch" d="M 342.083333333 525 L 342.083333333 530"/>
		<text class="x-axis-label" x="362.222222222" y="540">
			80
		</text>
		<path class="x-notch" d="M 382.361111111 525 L 382.361111111 530"/>
		<text class="x-axis-label" x="402.5" y="540">
			90
		</text>
		<path class="x-notch" d="M 422.638888889 525 L 422.638888889 530"/>
		<text class="x-axis-label" x="442.777777778" y="540">
			100
		</text>
		<path class="x-notch" d="M 462.916666667 525 L 462.916666667 530"/>
		<text class="x-axis-label" x="483.055555556" y="540">
			110
		</text>
		<path class="x-notch" d="M 503.194444444 525 L 503.194444444 530"/>
		<text class="x-axis-label" x="523.333333333" y="540">
			120
		</text>
		<path class="x-notch" d="M 543.472222222 525 L 543.472222222 530"/>
		<text class="x-axis-label" x="563.611111111" y="540">
			130
		</text>
		<path class="x-notch" d="M 583.75 525 L 583.75 530"/>
		<text class="x-axis-label" x="603.888888889" y="540">
			140
		</text>
		<path class="x-notch" d="M 624.027777778 525 L 624.027777778 530"/>
	</g>
</svg>
