<?xml version="1.0" ?>
<svg height="600" version="1.1" width="800" xmlns="http://www.w3.org/2000/svg" xmlns:svg="http://www.w3.org/2000/svg">
	<style type="text/css">
		

.x-axis-path, .y-gridline, .x-notch { fill:none; stroke: #a7a9ac; stroke-width:1; }



.y-gridline { stroke-width: 1; }

.y-axis-path, .y-axis-path2, .x-notch-left, .x-notch-right { display: none;}



.x-axis-label, .data-point-label {font-size: 12px; font-weight:normal; font-family: sans-serif; fill: #58595b; text-anchor:middle;}

.y-axis-label {font-size: 12px; font-family: helvetica; fill: #a7a9ac; text-anchor:end;}



.series-1-line { fill: none; stroke: #10b80c; stroke-width:2; }



.series-2-line { fill: none; stroke: #e90f0a; stroke-width: 2;}

	</style>
	<rect fill="white" height="600" width="800" x="0" y="0"/>
	<g id="grid" transform="translate(70, 30)">
		<g class="x-axis" id="x_axis">
			<path class="x-axis-path" d="M 0 525 L 660 525"/>
			<path class="x-notch-left" d="M 0 525, L 0 535"/>
			<path class="x-notch-right" d="M 660 525, L 660 535"/>
		</g>
		<g class="y-axis" id="y_axis">
			<path class="y-axis-path" d="M 0 525 L 0 0"/>
			<path class="y-axis-path-2" d="M 660 525 L 660 0"/>
			<path class="y-gridline" d="M 0 525 L 660 525"/>
			<text class="y-axis-label" x="-5" y="525">
				-100
			</text>
			<path class="y-gridline" d="M 0 450 L 660 450"/>
			<text class="y-axis-label" x="-5" y="450">
				 0
			</text>
			<path class="y-gridline" d="M 0 375 L 660 375"/>
			<text class="y-axis-label" x="-5" y="375">
				100
			</text>
			<path class="y-gridline" d="M 0 300 L 660 300"/>
			<text class="y-axis-label" x="-5" y="300">
				200
			</text>
			<path class="y-gridline" d="M 0 225 L 660 225"/>
			<text class="y-axis-label" x="-5" y="225">
				300
			</text>
			<path class="y-gridline" d="M 0 150 L 660 150"/>
			<text class="y-axis-label" x="-5" y="150">
				400
			</text>
			<path class="y-gridline" d="M 0 75 L 660 75"/>
			<text class="y-axis-label" x="-5" y="75">
				500
			</text>
			<path class="y-gridline" d="M 0 0 L 660 0"/>
			<text class="y-axis-label" x="-5" y="0">
				600
			</text>
		</g>
		<g>
			<path class="series-1-line" d="M 40 455.61534 L 43 451.128015092 L 47 444.351990184 L 50 454.998765276 L 54 445.568640368 L 57 430.92781546 L 61 435.996990552 L 65 464.971665644 L 68 437.637840736 L 72 416.515515828 L 75 446.50869092 L 79 409.040566012 L 82 425.360641104 L 86 437.488216196 L 90 412.347091288 L 93 444.43666638 L 97 424.179541472 L 100 406.595716564 L 104 373.877491656 L 108 373.255066748 L 111 386.57514184 L 115 374.991316933 L 118 365.561792025 L 122 325.804667117 L 125 326.259542209 L 129 326.598917301 L 133 365.937992393 L 136 266.296367485 L 140 330.905342577 L 143 315.398117669 L 147 341.872592761 L 150 307.557767853 L 154 320.204942945 L 158 293.505618037 L 161 318.094293129 L 165 279.319068221 L 168 302.523843313 L 172 286.728618405 L 176 277.702293497 L 179 266.137968589 L 183 284.515443681 L 186 270.412518773 L 190 263.617293865 L 193 287.187168957 L 197 236.930344049 L 201 226.692919141 L 204 176.282194233 L 208 187.352269325 L 211 193.883944417 L 215 144.723019509 L 219 177.043294601 L 222 130.151569693 L 226 154.376044785 L 229 184.964719877 L 233 130.130494969 L 236 174.028070061 L 240 141.386945153 L 244 82.5528202454 L 247 143.238095337 L 251 123.154970429 L 254 90.0713455215 L 258 178.564220613 L 261 192.364895706 L 265 110.492570798 L 269 144.12084589 L 272 162.652220982 L 276 167.780196074 L 279 137.273271166 L 283 129.285846258 L 287 144.75902135 L 290 122.848596442 L 294 130.130271534 L 297 99.4697466258 L 301 130.501821718 L 304 159.55239681 L 308 70.3339719018 L 312 53.2316469939 L 315 203.802022086 L 319 195.428797178 L 322 189.59537227 L 326 152.819647362 L 330 96.429022454 L 333 190.594597546 L 337 202.895272638 L 340 201.25434773 L 344 210.728122822 L 347 191.183197914 L 351 169.676273006 L 355 200.765348098 L 358 231.37382319 L 362 303.809498282 L 365 240.514073374 L 369 198.257948466 L 372 236.136023558 L 376 218.59059865 L 380 247.045073742 L 383 307.075148834 L 387 258.088523926 L 390 263.042499018 L 394 212.84447411 L 398 200.741649202 L 401 304.023924294 L 405 274.978899387 L 408 328.530174479 L 412 324.446649571 L 415 335.381424663 L 419 385.048299755 L 423 266.444274847 L 426 174.957249939 L 430 319.044025031 L 433 278.250700123 L 437 340.301875215 L 440 280.372150307 L 444 307.385125399 L 448 290.532400491 L 451 374.871775583 L 455 362.807350675 L 458 360.357925767 L 462 415.890100859 L 466 387.498775951 L 469 401.972651043 L 473 423.696326135 L 476 392.959301227 L 480 424.490576319 L 483 389.695751411 L 487 426.265526503 L 491 396.431801595 L 494 410.271176687 L 498 382.052951779 L 501 406.180526871 L 505 399.596801963 L 509 412.186377055 L 512 386.641152147 L 516 395.153427239 L 519 426.415902331 L 523 427.351377423 L 526 434.786952515 L 530 408.222627607 L 534 426.619002699 L 537 425.478177791 L 541 428.394252883 L 544 417.695427975 L 548 434.284903067 L 551 433.06637816 L 555 421.040353252 L 559 462.283528344 L 562 455.700103436 L 566 465.866278528 L 569 435.43645362 L 573 468.141028712 L 577 474.384403804 L 580 459.031378896 L 584 470.312653988 L 587 449.86382908 L 591 469.684004172 L 594 439.408079264 L 598 434.862854356 L 602 452.509829448 L 605 463.17610454 L 609 446.977079632 L 612 444.239654724 L 616 447.925529816 L 620 445.187504908"/>
			<path class="series-2-line" d="M 40 445.65 L 43 469.048159509 L 47 469.196319018 L 50 442.344478528 L 54 417.742638037 L 57 474.890797546 L 61 382.038957055 L 65 450.437116564 L 68 440.085276074 L 72 425.983435583 L 75 423.131595092 L 79 443.529754601 L 82 438.42791411 L 86 414.57607362 L 90 442.474233129 L 93 463.622392638 L 97 431.520552147 L 100 421.168711656 L 104 431.816871166 L 108 407.965030675 L 111 402.863190184 L 115 392.511349693 L 118 426.409509202 L 122 394.307668712 L 125 407.205828221 L 129 408.85398773 L 133 381.252147239 L 136 360.400306748 L 140 398.048466258 L 143 356.196625767 L 147 405.094785276 L 150 372.242944785 L 154 384.391104294 L 158 362.789263804 L 161 296.187423313 L 165 374.335582822 L 168 377.483742331 L 172 380.63190184 L 176 351.53006135 L 179 367.428220859 L 183 333.826380368 L 186 336.224539877 L 190 339.372699387 L 193 314.770858896 L 197 311.919018405 L 201 325.567177914 L 204 317.465337423 L 208 312.363496933 L 211 313.261656442 L 215 285.659815951 L 219 300.05797546 L 222 269.456134969 L 226 318.354294479 L 229 251.752453988 L 233 202.400613497 L 236 253.548773006 L 240 281.446932515 L 244 241.845092025 L 247 218.743251534 L 251 276.641411043 L 254 285.789570552 L 258 253.687730061 L 261 232.085889571 L 265 217.98404908 L 269 262.382208589 L 272 234.030368098 L 276 249.178527607 L 279 236.576687117 L 283 250.224846626 L 287 172.373006135 L 290 193.521165644 L 294 194.419325153 L 297 205.817484663 L 301 245.715644172 L 304 214.363803681 L 308 205.51196319 L 312 266.410122699 L 315 290.558282209 L 319 188.706441718 L 322 217.354601227 L 326 246.752760736 L 330 323.400920245 L 333 254.549079755 L 337 232.947239264 L 340 280.345398773 L 344 260.993558282 L 347 293.391717791 L 351 280.789877301 L 355 253.18803681 L 358 242.086196319 L 362 257.984355828 L 365 241.632515337 L 369 307.030674847 L 372 331.928834356 L 376 315.576993865 L 380 289.475153374 L 383 134.373312883 L 387 226.021472393 L 390 151.169631902 L 394 256.317791411 L 398 268.46595092 L 401 327.864110429 L 405 350.512269939 L 408 387.410429448 L 412 406.308588957 L 415 334.456748466 L 419 392.354907975 L 423 287.503067485 L 426 340.151226994 L 430 88.2993865031 L 433 276.697546012 L 437 303.845705521 L 440 318.243865031 L 444 370.89202454 L 448 392.790184049 L 451 394.438343558 L 455 400.586503067 L 458 369.234662577 L 462 418.882822086 L 466 427.280981595 L 469 417.679141104 L 473 388.577300613 L 476 441.225460123 L 480 403.123619632 L 483 445.271779141 L 487 410.91993865 L 491 410.31809816 L 494 411.966257669 L 498 422.614417178 L 501 398.762576687 L 505 398.160736196 L 509 419.308895706 L 512 422.457055215 L 516 406.855214724 L 519 410.753374233 L 523 407.151533742 L 526 413.299693252 L 530 429.197852761 L 534 363.34601227 L 537 420.494171779 L 541 400.392331288 L 544 427.540490798 L 548 438.938650307 L 551 420.336809816 L 555 420.484969325 L 559 417.633128834 L 562 446.281288344 L 566 435.929447853 L 569 440.577607362 L 573 424.225766871 L 577 440.87392638 L 580 433.52208589 L 584 395.420245399 L 587 422.568404908 L 591 427.216564417 L 594 437.114723926 L 598 440.262883436 L 602 432.911042945 L 605 432.309202454 L 609 439.957361963 L 612 453.605521472 L 616 489.003680982 L 620 444.151840491"/>
		</g>
		<text class="x-axis-label" x="40.0" y="540">
			0
		</text>
		<path class="x-notch" d="M 57.9012345679 525 L 57.9012345679 530"/>
		<text class="x-axis-label" x="75.8024691358" y="540">
			10
		</text>
		<path class="x-notch" d="M 93.7037037037 525 L 93.7037037037 530"/>
		<text class="x-axis-label" x="111.604938272" y="540">
			20
		</text>
		<path class="x-notch" d="M 129.50617284 525 L 129.50617284 530"/>
		<text class="x-axis-label" x="147.407407407" y="540">
			30
		</text>
		<path class="x-notch" d="M 165.308641975 525 L 165.308641975 530"/>
		<text class="x-axis-label" x="183.209876543" y="540">
			40
		</text>
		<path class="x-notch" d="M 201.111111111 525 L 201.111111111 530"/>
		<text class="x-axis-label" x="219.012345679" y="540">
			50
		</text>
		<path class="x-notch" d="M 236.913580247 525 L 236.913580247 530"/>
		<text class="x-axis-label" x="254.814814815" y="540">
			60
		</text>
		<path class="x-notch" d="M 272.716049383 525 L 272.716049383 530"/>
		<text class="x-axis-label" x="290.617283951" y="540">
			70
		</text>
		<path class="x-notch" d="M 308.518518519 525 L 308.518518519 530"/>
		<text class="x-axis-label" x="326.419753086" y="540">
			80
		</text>
		<path class="x-notch" d="M 344.320987654 525 L 344.320987654 530"/>
		<text class="x-axis-label" x="362.222222222" y="540">
			90
		</text>
		<path class="x-notch" d="M 380.12345679 525 L 380.12345679 530"/>
		<text class="x-axis-label" x="398.024691358" y="540">
			100
		</text>
		<path class="x-notch" d="M 415.925925926 525 L 415.925925926 530"/>
		<text class="x-axis-label" x="433.827160494" y="540">
			110
		</text>
		<path class="x-notch" d="M 451.728395062 525 L 451.728395062 530"/>
		<text class="x-axis-label" x="469.62962963" y="540">
			120
		</text>
		<path class="x-notch" d="M 487.530864198 525 L 487.530864198 530"/>
		<text class="x-axis-label" x="505.432098765" y="540">
			130
		</text>
		<path class="x-notch" d="M 523.333333333 525 L 523.333333333 530"/>
		<text class="x-axis-label" x="541.234567901" y="540">
			140
		</text>
		<path class="x-notch" d="M 559.135802469 525 L 559.135802469 530"/>
		<text class="x-axis-label" x="577.037037037" y="540">
			150
		</text>
		<path class="x-notch" d="M 594.938271605 525 L 594.938271605 530"/>
		<text class="x-axis-label" x="612.839506173" y="540">
			160
		</text>
		<path class="x-notch" d="M 630.740740741 525 L 630.740740741 530"/>
	</g>
</svg>
