<?xml version="1.0" ?>
<svg height="600" version="1.1" width="800" xmlns="http://www.w3.org/2000/svg" xmlns:svg="http://www.w3.org/2000/svg">
	<style type="text/css">

.x-axis-path, .y-gridline, .x-notch { fill:none; stroke: #a7a9ac; stroke-width:1; }



.y-gridline { stroke-width: 1; }

.y-axis-path, .y-axis-path2, .x-notch-left, .x-notch-right { display: none;}



.x-axis-label, .data-point-label {font-size: 12px; font-weight:normal; font-family: sans-serif; fill: #58595b; text-anchor:middle;}

.y-axis-label {font-size: 12px; font-family: helvetica; fill: #a7a9ac; text-anchor:end;}



.series-1-line { fill: none; stroke: #10b80c; stroke-width:2; }



.series-2-line { fill: none; stroke: #e90f0a; stroke-width: 2;}
</style>
	<rect fill="white" height="600" width="800" x="0" y="0"/>
	<g id="grid" transform="translate(70, 30)">
		<g class="x-axis" id="x_axis">
			<path class="x-axis-path" d="M 0 525 L 660 525"/>
			<path class="x-notch-left" d="M 0 525, L 0 535"/>
			<path class="x-notch-right" d="M 660 525, L 660 535"/>
		</g>
		<g class="y-axis" id="y_axis">
			<path class="y-axis-path" d="M 0 525 L 0 0"/>
			<path class="y-axis-path-2" d="M 660 525 L 660 0"/>
			<path class="y-gridline" d="M 0 525 L 660 525"/>
			<text class="y-axis-label" x="-5" y="525">-200</text>
			<path class="y-gridline" d="M 0 394 L 660 394"/>
			<text class="y-axis-label" x="-5" y="394"> 0</text>
			<path class="y-gridline" d="M 0 263 L 660 263"/>
			<text class="y-axis-label" x="-5" y="263">200</text>
			<path class="y-gridline" d="M 0 132 L 660 132"/>
			<text class="y-axis-label" x="-5" y="132">400</text>
			<path class="y-gridline" d="M 0 1 L 660 1"/>
			<text class="y-axis-label" x="-5" y="1">600</text>
		</g>
		<g>
			<path class="series-1-line" d="M 40 393.393068718 L 45 361.527485036 L 50 423.530229684 L 55 384.321091464 L 61 413.405316151 L 66 401.166918937 L 71 400.694183757 L 77 380.413537408 L 82 368.252190234 L 87 352.160484245 L 93 359.83367286 L 98 386.823427366 L 103 405.745518326 L 109 390.170572026 L 114 395.878782935 L 119 410.119378048 L 125 369.229661482 L 130 404.959552915 L 135 410.537867947 L 141 372.207342218 L 146 392.758375895 L 151 382.614448862 L 157 380.667677849 L 162 402.201402081 L 167 439.43114716 L 173 342.116194171 L 178 419.376056825 L 183 376.597605786 L 188 390.890643334 L 194 336.9415502 L 199 381.566888849 L 204 361.699730931 L 210 357.374493782 L 215 286.900789325 L 220 295.116555442 L 226 207.938321769 L 231 276.147426918 L 236 219.430986821 L 242 122.425847603 L 247 106.902940334 L 252 163.631186214 L 258 152.116494606 L 263 102.873101521 L 268 94.4876096789 L 274 106.246063994 L 279 152.060635711 L 284 30.205043481 L 290 45.1709578122 L 295 80.8746280277 L 300 74.6098275838 L 306 35.6326462887 L 311 62.9326179693 L 316 71.1491908935 L 322 138.867354169 L 327 117.784338562 L 332 49.0436548857 L 337 92.6863029798 L 343 0.0 L 348 93.3963999566 L 353 93.6211491638 L 359 55.7045152692 L 364 60.4550466319 L 369 24.1153164227 L 375 57.3372492444 L 380 120.763604306 L 385 250.00037467 L 391 238.770889229 L 396 238.169064977 L 401 228.232083861 L 407 289.30458039 L 412 282.315267534 L 417 346.180122034 L 423 392.951969895 L 428 343.942147348 L 433 413.935505503 L 439 354.167722485 L 444 438.20274436 L 449 438.273393488 L 455 415.302450215 L 460 397.090859635 L 465 407.376084925 L 471 406.412004468 L 476 376.381502613 L 481 412.03474741 L 486 426.663819946 L 492 435.706562926 L 497 398.12596402 L 502 419.60764922 L 508 413.550198096 L 513 431.075303264 L 518 454.575215411 L 524 416.451635599 L 529 447.579098241 L 534 459.001517568 L 540 413.8696114 L 545 461.029936684 L 550 406.433784581 L 556 447.827055609 L 561 402.178793157 L 566 436.77108715 L 572 465.441823405 L 577 409.604399202 L 582 432.068774956 L 588 425.544989563 L 593 413.668848556 L 598 394.861834635 L 604 395.190661906 L 609 393.657782728 L 614 368.670629524 L 620 405.228304626"/>
			<path class="series-2-line" d="M 40 386.488739745 L 45 399.227117268 L 50 360.531567986 L 55 417.644313732 L 61 401.135948562 L 66 419.925376297 L 71 412.493586446 L 77 427.248980706 L 82 394.604481636 L 87 385.155675047 L 93 404.953611151 L 98 400.547346405 L 103 435.47290804 L 109 384.675258333 L 114 435.736953867 L 119 374.854220473 L 125 458.188183807 L 130 427.560701474 L 135 420.128911623 L 141 418.748171983 L 146 435.520582981 L 151 442.207910291 L 157 428.725070227 L 162 449.5315147 L 167 420.921049105 L 173 456.855119108 L 178 437.321228832 L 183 421.82137203 L 188 431.534224447 L 194 467.46829445 L 199 425.747220062 L 204 415.289905104 L 210 458.283533689 L 215 436.732626675 L 220 411.147686186 L 226 439.01368924 L 231 415.445765489 L 236 411.039500743 L 242 398.565169048 L 247 379.031278771 L 252 415.973857143 L 258 400.474000342 L 263 370.855026378 L 268 378.550862058 L 274 350.948904831 L 279 280.989596119 L 284 290.702448536 L 290 352.857736126 L 295 286.932460888 L 300 317.823989048 L 306 299.29860714 L 311 285.815767076 L 316 338.894479348 L 322 352.641365239 L 327 295.79266532 L 332 318.61612653 L 337 272.861018667 L 343 294.675971508 L 348 314.473907612 L 353 237.455040319 L 359 250.193417841 L 364 214.523393665 L 369 177.844861121 L 375 184.532188431 L 380 277.951235452 L 385 252.366294963 L 391 310.487549078 L 396 323.225926601 L 401 336.972812493 L 407 364.838815546 L 412 351.355975482 L 417 336.864627049 L 423 314.305211667 L 428 366.37541557 L 433 339.781966712 L 439 339.409735442 L 444 324.918387009 L 449 350.767373325 L 455 273.748506032 L 460 319.767659722 L 465 364.778305044 L 471 355.329498455 L 476 278.310631161 L 481 338.448902014 L 486 335.051145637 L 492 259.040786712 L 497 258.668555442 L 502 248.211240484 L 508 325.494153605 L 513 302.934738222 L 518 410.472902405 L 524 416.151721347 L 529 434.941149082 L 534 420.449800649 L 540 378.728726261 L 545 413.654287895 L 550 393.11188925 L 556 383.663082661 L 561 422.622677771 L 566 412.165362813 L 572 420.869706861 L 577 397.301783109 L 582 390.878501627 L 588 383.446711775 L 593 424.423323622 L 598 405.897941714 L 604 391.406593281 L 609 392.042870379 L 614 393.687655846 L 620 391.298407838"/>
		</g>
		<text class="x-axis-label" x="40.0" y="540">0</text>
		<path class="x-notch" d="M 66.6055045872 525 L 66.6055045872 530"/>
		<text class="x-axis-label" x="93.2110091743" y="540">10</text>
		<path class="x-notch" d="M 119.816513761 525 L 119.816513761 530"/>
		<text class="x-axis-label" x="146.422018349" y="540">20</text>
		<path class="x-notch" d="M 173.027522936 525 L 173.027522936 530"/>
		<text class="x-axis-label" x="199.633027523" y="540">30</text>
		<path class="x-notch" d="M 226.23853211 525 L 226.23853211 530"/>
		<text class="x-axis-label" x="252.844036697" y="540">40</text>
		<path class="x-notch" d="M 279.449541284 525 L 279.449541284 530"/>
		<text class="x-axis-label" x="306.055045872" y="540">50</text>
		<path class="x-notch" d="M 332.660550459 525 L 332.660550459 530"/>
		<text class="x-axis-label" x="359.266055046" y="540">60</text>
		<path class="x-notch" d="M 385.871559633 525 L 385.871559633 530"/>
		<text class="x-axis-label" x="412.47706422" y="540">70</text>
		<path class="x-notch" d="M 439.082568807 525 L 439.082568807 530"/>
		<text class="x-axis-label" x="465.688073394" y="540">80</text>
		<path class="x-notch" d="M 492.293577982 525 L 492.293577982 530"/>
		<text class="x-axis-label" x="518.899082569" y="540">90</text>
		<path class="x-notch" d="M 545.504587156 525 L 545.504587156 530"/>
		<text class="x-axis-label" x="572.110091743" y="540">100</text>
		<path class="x-notch" d="M 598.71559633 525 L 598.71559633 530"/>
	</g>
</svg>
