<?xml version="1.0" ?>
<svg height="600" version="1.1" width="800" xmlns="http://www.w3.org/2000/svg" xmlns:svg="http://www.w3.org/2000/svg">
	<style type="text/css">
		

.x-axis-path, .y-gridline, .x-notch { fill:none; stroke: #a7a9ac; stroke-width:1; }



.y-gridline { stroke-width: 1; }

.y-axis-path, .y-axis-path2, .x-notch-left, .x-notch-right { display: none;}



.x-axis-label, .data-point-label {font-size: 12px; font-weight:normal; font-family: sans-serif; fill: #58595b; text-anchor:middle;}

.y-axis-label {font-size: 12px; font-family: helvetica; fill: #a7a9ac; text-anchor:end;}



.series-1-line { fill: none; stroke: #10b80c; stroke-width:2; }



.series-2-line { fill: none; stroke: #e90f0a; stroke-width: 2;}

	</style>
	<rect fill="white" height="600" width="800" x="0" y="0"/>
	<g id="grid" transform="translate(70, 30)">
		<g class="x-axis" id="x_axis">
			<path class="x-axis-path" d="M 0 525 L 660 525"/>
			<path class="x-notch-left" d="M 0 525, L 0 535"/>
			<path class="x-notch-right" d="M 660 525, L 660 535"/>
		</g>
		<g class="y-axis" id="y_axis">
			<path class="y-axis-path" d="M 0 525 L 0 0"/>
			<path class="y-axis-path-2" d="M 660 525 L 660 0"/>
			<path class="y-gridline" d="M 0 525 L 660 525"/>
			<text class="y-axis-label" x="-5" y="525">
				-200
			</text>
			<path class="y-gridline" d="M 0 394 L 660 394"/>
			<text class="y-axis-label" x="-5" y="394">
				 0
			</text>
			<path class="y-gridline" d="M 0 263 L 660 263"/>
			<text class="y-axis-label" x="-5" y="263">
				200
			</text>
			<path class="y-gridline" d="M 0 132 L 660 132"/>
			<text class="y-axis-label" x="-5" y="132">
				400
			</text>
			<path class="y-gridline" d="M 0 1 L 660 1"/>
			<text class="y-axis-label" x="-5" y="1">
				600
			</text>
		</g>
		<g>
			<path class="series-1-line" d="M 40 380.855955968 L 45 416.826386189 L 50 405.090266311 L 55 368.791429243 L 61 392.343678609 L 66 396.273439769 L 71 399.722985128 L 76 406.030991859 L 82 401.041440199 L 87 364.674102808 L 92 380.473328698 L 98 355.083524754 L 103 391.259812714 L 108 388.991721782 L 113 371.034916371 L 119 310.379576624 L 124 385.915364972 L 129 318.673647866 L 134 333.146393553 L 140 298.997467647 L 145 350.702636001 L 150 289.955962491 L 156 270.169270861 L 161 241.669124151 L 166 250.813472359 L 171 149.815367179 L 177 152.670172758 L 182 112.986634861 L 187 116.687704841 L 192 164.916481829 L 198 79.7448053183 L 203 132.616263016 L 208 27.7760746458 L 214 62.1913334826 L 219 70.4205601954 L 224 0.0 L 229 33.0659451933 L 235 6.92156738506 L 240 73.5608763531 L 245 72.5964321828 L 250 81.9462813583 L 256 112.999672807 L 261 108.650527807 L 266 113.540720572 L 272 123.050760606 L 277 133.429541709 L 282 74.3753969996 L 287 129.625457041 L 293 87.0374341161 L 298 128.885691485 L 303 150.654078287 L 308 136.081973705 L 314 154.945518708 L 319 191.442188384 L 324 168.705344846 L 330 138.673216966 L 335 164.352187281 L 340 135.737873366 L 345 147.123109727 L 351 144.580660733 L 356 156.126087952 L 361 185.761665435 L 366 206.98097934 L 372 230.441894943 L 377 234.279965568 L 382 205.391293591 L 388 209.480888837 L 393 223.656443021 L 398 211.531441104 L 403 199.88665499 L 409 261.654592068 L 414 251.816501958 L 419 228.691133154 L 424 274.884522957 L 430 255.418213043 L 435 222.618600781 L 440 278.966449844 L 446 308.190311847 L 451 312.120073007 L 456 289.955135807 L 461 305.525670516 L 467 334.292150157 L 472 322.395839422 L 477 313.426847153 L 482 346.492792347 L 488 362.246351355 L 493 361.876290191 L 498 377.012632752 L 504 387.231579769 L 509 368.680034579 L 514 361.997954118 L 519 399.68374658 L 525 394.534004061 L 530 399.104171883 L 535 387.276361469 L 540 414.007453925 L 546 403.917839194 L 551 397.395949591 L 556 369.650733518 L 562 377.422577869 L 567 395.714573306 L 572 401.290839613 L 577 400.486586301 L 583 404.736372406 L 588 386.413518396 L 593 391.966951263 L 598 393.198085136 L 604 400.80973863 L 609 396.506260512 L 614 385.913596538 L 620 399.585744706"/>
			<path class="series-2-line" d="M 40 401.598995282 L 45 384.478735917 L 50 400.359933988 L 55 386.80739975 L 61 393.769285001 L 66 400.731170251 L 71 413.044643194 L 76 396.81631511 L 82 403.778200361 L 87 400.928841508 L 92 399.86334522 L 98 388.986604829 L 103 374.542139309 L 108 374.368574303 L 113 386.682047246 L 119 381.156894547 L 124 383.659123387 L 129 396.864527612 L 134 394.01516876 L 140 392.949672471 L 145 390.992244901 L 150 399.737992715 L 156 384.401595914 L 161 371.740992959 L 166 400.109228979 L 171 391.908282434 L 177 392.62664871 L 182 385.317633447 L 187 393.171449979 L 192 376.943121896 L 198 404.419426634 L 203 394.434617525 L 208 394.261052518 L 214 376.248861871 L 219 373.399503018 L 224 395.524220064 L 229 379.29589198 L 235 381.79812082 L 240 380.732624532 L 245 385.910647218 L 250 382.169357084 L 256 366.832960282 L 261 378.254501943 L 266 374.513211808 L 272 380.583165777 L 277 355.435524872 L 282 378.4521732 L 287 380.062470758 L 293 373.645386777 L 298 378.823409463 L 303 385.785294714 L 308 391.855248682 L 314 364.923745213 L 319 370.1017679 L 324 362.792752637 L 330 380.457813272 L 335 368.689141599 L 340 373.867164285 L 345 365.66621774 L 351 373.520034273 L 356 375.13033183 L 361 372.280972978 L 366 360.512301305 L 372 381.745087068 L 377 368.192552831 L 382 381.397957056 L 388 363.385766408 L 393 372.131514223 L 398 379.093399473 L 403 380.703697031 L 409 374.28661305 L 414 372.32918548 L 419 390.886177397 L 424 379.117505724 L 430 383.403597128 L 435 380.554238275 L 440 384.84032968 L 446 376.639383135 L 451 383.601268385 L 456 391.455084917 L 461 391.281519911 L 467 384.86443593 L 472 390.934389899 L 477 392.544687457 L 482 376.316359373 L 488 382.386313341 L 493 364.374122694 L 498 397.202015124 L 504 397.028450118 L 509 397.746816394 L 514 390.437801131 L 519 384.02071715 L 525 381.171358298 L 530 392.592899958 L 535 387.959678542 L 540 386.002250971 L 546 388.504479811 L 551 391.006708651 L 556 399.752456466 L 562 398.686960178 L 567 391.377944915 L 572 384.960860934 L 577 399.950127723 L 583 391.749181178 L 588 391.575616172 L 593 388.726257319 L 598 399.255867698 L 604 388.379127307 L 609 392.665218711 L 614 404.086760372 L 620 386.966501006"/>
		</g>
		<text class="x-axis-label" x="40.0" y="540">
			0
		</text>
		<path class="x-notch" d="M 66.3636363636 525 L 66.3636363636 530"/>
		<text class="x-axis-label" x="92.7272727273" y="540">
			10
		</text>
		<path class="x-notch" d="M 119.090909091 525 L 119.090909091 530"/>
		<text class="x-axis-label" x="145.454545455" y="540">
			20
		</text>
		<path class="x-notch" d="M 171.818181818 525 L 171.818181818 530"/>
		<text class="x-axis-label" x="198.181818182" y="540">
			30
		</text>
		<path class="x-notch" d="M 224.545454545 525 L 224.545454545 530"/>
		<text class="x-axis-label" x="250.909090909" y="540">
			40
		</text>
		<path class="x-notch" d="M 277.272727273 525 L 277.272727273 530"/>
		<text class="x-axis-label" x="303.636363636" y="540">
			50
		</text>
		<path class="x-notch" d="M 330.0 525 L 330.0 530"/>
		<text class="x-axis-label" x="356.363636364" y="540">
			60
		</text>
		<path class="x-notch" d="M 382.727272727 525 L 382.727272727 530"/>
		<text class="x-axis-label" x="409.090909091" y="540">
			70
		</text>
		<path class="x-notch" d="M 435.454545455 525 L 435.454545455 530"/>
		<text class="x-axis-label" x="461.818181818" y="540">
			80
		</text>
		<path class="x-notch" d="M 488.181818182 525 L 488.181818182 530"/>
		<text class="x-axis-label" x="514.545454545" y="540">
			90
		</text>
		<path class="x-notch" d="M 540.909090909 525 L 540.909090909 530"/>
		<text class="x-axis-label" x="567.272727273" y="540">
			100
		</text>
		<path class="x-notch" d="M 593.636363636 525 L 593.636363636 530"/>
		<text class="x-axis-label" x="620.0" y="540">
			110
		</text>
	</g>
</svg>
