<?xml version="1.0" ?>
<svg height="600" version="1.1" width="800" xmlns="http://www.w3.org/2000/svg" xmlns:svg="http://www.w3.org/2000/svg">
	<style type="text/css">
		

.x-axis-path, .y-gridline, .x-notch { fill:none; stroke: #a7a9ac; stroke-width:1; }



.y-gridline { stroke-width: 1; }

.y-axis-path, .y-axis-path2, .x-notch-left, .x-notch-right { display: none;}



.x-axis-label, .data-point-label {font-size: 12px; font-weight:normal; font-family: sans-serif; fill: #58595b; text-anchor:middle;}

.y-axis-label {font-size: 12px; font-family: helvetica; fill: #a7a9ac; text-anchor:end;}



.series-1-line { fill: none; stroke: #10b80c; stroke-width:2; }



.series-2-line { fill: none; stroke: #e90f0a; stroke-width: 2;}

	</style>
	<rect fill="white" height="600" width="800" x="0" y="0"/>
	<g id="grid" transform="translate(70, 30)">
		<g class="x-axis" id="x_axis">
			<path class="x-axis-path" d="M 0 525 L 660 525"/>
			<path class="x-notch-left" d="M 0 525, L 0 535"/>
			<path class="x-notch-right" d="M 660 525, L 660 535"/>
		</g>
		<g class="y-axis" id="y_axis">
			<path class="y-axis-path" d="M 0 525 L 0 0"/>
			<path class="y-axis-path-2" d="M 660 525 L 660 0"/>
			<path class="y-gridline" d="M 0 525 L 660 525"/>
			<text class="y-axis-label" x="-5" y="525">
				-200
			</text>
			<path class="y-gridline" d="M 0 394 L 660 394"/>
			<text class="y-axis-label" x="-5" y="394">
				 0
			</text>
			<path class="y-gridline" d="M 0 263 L 660 263"/>
			<text class="y-axis-label" x="-5" y="263">
				200
			</text>
			<path class="y-gridline" d="M 0 132 L 660 132"/>
			<text class="y-axis-label" x="-5" y="132">
				400
			</text>
			<path class="y-gridline" d="M 0 1 L 660 1"/>
			<text class="y-axis-label" x="-5" y="1">
				600
			</text>
		</g>
		<g>
			<path class="series-1-line" d="M 40 394.862516725 L 43 392.879791531 L 47 401.601912384 L 51 388.08279401 L 55 389.273277724 L 58 378.15322576 L 62 383.319688647 L 66 382.885397553 L 70 383.454569289 L 73 345.725307279 L 77 331.451131584 L 81 364.765696028 L 85 351.886974809 L 88 339.553075757 L 92 343.620500825 L 96 345.269625203 L 100 327.621548033 L 104 313.557607492 L 107 336.760010102 L 111 322.676984384 L 115 300.488871595 L 119 307.73904816 L 122 306.836275608 L 126 325.450780552 L 130 292.079946772 L 134 289.542856823 L 137 268.501643899 L 141 252.621629469 L 145 242.524274616 L 149 231.757745738 L 152 280.078179825 L 156 296.542172971 L 160 258.430760109 L 164 255.119378558 L 168 240.223890885 L 171 217.758595718 L 175 210.777194241 L 179 262.528785334 L 183 234.472278775 L 186 204.905508471 L 190 238.124497926 L 194 242.899118269 L 198 167.349297457 L 201 151.641496931 L 205 112.602663741 L 209 173.577763107 L 213 142.969210515 L 217 148.833624295 L 220 130.095604586 L 224 69.4943978852 L 228 93.9869882909 L 232 135.272894463 L 235 99.1494711871 L 239 122.256298808 L 243 127.996062524 L 247 111.495034322 L 250 90.721461187 L 254 66.4881032805 L 258 94.5745220067 L 262 130.249833403 L 265 118.403500986 L 269 123.340643541 L 273 121.281428536 L 277 118.973658918 L 281 142.204689293 L 284 148.671031668 L 288 157.756516401 L 292 131.200432794 L 296 104.969244506 L 299 140.42477816 L 303 124.65003041 L 307 138.753127501 L 311 171.561189235 L 314 187.289210237 L 318 136.733218148 L 322 156.98204049 L 326 74.5506713857 L 330 98.6705044251 L 333 106.503673511 L 337 102.064477272 L 341 118.710077807 L 345 120.263627197 L 348 101.956067694 L 352 77.3402607299 L 356 87.8973915459 L 360 71.5875133216 L 363 63.7457878431 L 367 0.0 L 371 68.6117049787 L 375 67.4318991517 L 378 72.2352963636 L 382 82.2189772472 L 386 53.0345068978 L 390 94.693021333 L 394 58.1203508794 L 397 30.2166748408 L 401 85.3710933793 L 405 34.7483031702 L 409 82.3517011869 L 412 96.7609066269 L 416 82.9739993609 L 420 96.7426585425 L 424 100.121973512 L 427 146.10059672 L 431 171.147700984 L 435 190.115878118 L 439 135.440469821 L 442 100.635862108 L 446 91.6089173075 L 450 127.456293504 L 454 101.46411724 L 458 100.781420637 L 461 286.410609091 L 465 377.005456096 L 469 344.523574084 L 473 338.287538237 L 476 337.193615707 L 480 329.246772651 L 484 353.385839971 L 488 339.427017008 L 491 347.546911059 L 495 357.052866102 L 499 376.890760723 L 503 387.094368453 L 507 392.222660985 L 510 398.478768205 L 514 385.466301643 L 518 393.270842963 L 522 397.089713419 L 525 400.803466298 L 529 405.893588476 L 533 401.282327437 L 537 393.842136194 L 540 393.178375665 L 544 392.371327204 L 548 405.165002218 L 552 391.970928268 L 555 395.503073758 L 559 397.190517593 L 563 390.447979036 L 567 392.355349717 L 571 396.95790526 L 574 398.396943586 L 578 400.151334644 L 582 388.132788324 L 586 397.829893345 L 589 392.262882419 L 593 383.952824585 L 597 386.194633175 L 601 394.725604051 L 604 385.555371319 L 608 399.371743443 L 612 398.621950514 L 616 393.532963635 L 620 394.742532526"/>
			<path class="series-2-line" d="M 40 391.737110222 L 43 392.810651437 L 47 395.747979484 L 51 393.839461768 L 55 394.16748825 L 58 395.986544198 L 62 386.622879155 L 66 393.287780866 L 70 388.769961585 L 73 383.879384939 L 77 383.461896689 L 81 387.890254201 L 85 387.845523317 L 88 390.037336631 L 92 392.229149945 L 96 379.137911239 L 100 381.702481919 L 104 377.557420006 L 107 389.440924845 L 111 388.277921862 L 115 386.742161513 L 119 386.697430629 L 122 379.197552417 L 126 379.898336266 L 130 378.362575917 L 134 378.690602399 L 137 372.681753654 L 141 361.081544413 L 145 363.273357727 L 149 353.536935318 L 152 357.592535464 L 156 359.411591411 L 160 370.549581518 L 164 360.813159109 L 168 355.549825096 L 171 353.64130738 L 175 364.033782754 L 179 356.161147177 L 183 368.790166749 L 186 369.863707964 L 190 374.664822843 L 194 368.283216731 L 198 361.156095886 L 201 366.329968131 L 205 347.647368929 L 209 354.685028006 L 213 358.367870786 L 217 370.996890358 L 220 340.013298066 L 224 341.459596648 L 228 341.042108397 L 232 352.180098504 L 235 358.472242848 L 239 370.728505054 L 243 344.590758525 L 247 357.219778097 L 250 353.074716183 L 254 365.330978389 L 258 371.250365367 L 262 370.832877116 L 265 384.207411421 L 269 381.553378973 L 273 380.017618623 L 277 373.636012511 L 281 381.046428955 L 284 372.428278644 L 288 391.394173445 L 292 387.994626263 L 296 377.512689122 L 299 382.313804 L 303 383.387345215 L 307 375.514709638 L 311 386.279942378 L 314 386.607968861 L 318 376.498789085 L 322 369.37166824 L 326 374.545540485 L 330 374.128052235 L 333 370.355747688 L 337 362.110354744 L 341 364.674925424 L 345 351.956444084 L 348 355.639286864 L 352 354.849041247 L 356 347.721920402 L 360 359.605425242 L 363 358.815179625 L 367 356.533904543 L 371 349.779541065 L 375 356.444442775 L 378 360.127285555 L 382 355.236708908 L 386 354.819220658 L 390 351.419673477 L 394 355.102516256 L 397 358.41260167 L 401 372.159893341 L 405 372.487919823 L 409 357.532894285 L 412 374.635002253 L 416 356.325160418 L 420 357.025944267 L 424 364.809118076 L 427 356.190967766 L 431 371.056531536 L 435 374.739374316 L 439 367.612253471 L 442 357.130316329 L 446 352.239739683 L 450 354.058795631 L 454 349.913733717 L 458 366.270326952 L 461 393.064126446 L 465 387.800792433 L 469 392.974664678 L 473 388.829602764 L 476 382.075239286 L 480 383.148780501 L 484 394.286770608 L 488 388.277921862 L 491 383.387345215 L 495 394.898092688 L 499 393.735089705 L 503 398.163447218 L 507 394.763900036 L 510 389.87332339 L 514 396.165467734 L 518 396.866251583 L 522 394.212219134 L 525 393.421973518 L 529 395.986544198 L 533 385.504607056 L 537 394.778810331 L 540 393.615807348 L 544 400.280709059 L 548 393.153588214 L 552 398.700217825 L 555 397.164457476 L 559 392.646638196 L 563 394.83845151 L 567 399.639566388 L 571 391.021416078 L 574 396.195288323 L 578 395.777800073 L 582 392.378252892 L 586 403.143485632 L 589 396.389122154 L 593 395.971633903 L 597 392.199329356 L 601 395.882172136 L 604 398.819500182 L 608 392.065136704 L 612 389.783861622 L 616 395.7032486 L 620 393.049216151"/>
		</g>
		<text class="x-axis-label" x="40.0" y="540">
			0
		</text>
		<path class="x-notch" d="M 58.8311688312 525 L 58.8311688312 530"/>
		<text class="x-axis-label" x="77.6623376623" y="540">
			10
		</text>
		<path class="x-notch" d="M 96.4935064935 525 L 96.4935064935 530"/>
		<text class="x-axis-label" x="115.324675325" y="540">
			20
		</text>
		<path class="x-notch" d="M 134.155844156 525 L 134.155844156 530"/>
		<text class="x-axis-label" x="152.987012987" y="540">
			30
		</text>
		<path class="x-notch" d="M 171.818181818 525 L 171.818181818 530"/>
		<text class="x-axis-label" x="190.649350649" y="540">
			40
		</text>
		<path class="x-notch" d="M 209.480519481 525 L 209.480519481 530"/>
		<text class="x-axis-label" x="228.311688312" y="540">
			50
		</text>
		<path class="x-notch" d="M 247.142857143 525 L 247.142857143 530"/>
		<text class="x-axis-label" x="265.974025974" y="540">
			60
		</text>
		<path class="x-notch" d="M 284.805194805 525 L 284.805194805 530"/>
		<text class="x-axis-label" x="303.636363636" y="540">
			70
		</text>
		<path class="x-notch" d="M 322.467532468 525 L 322.467532468 530"/>
		<text class="x-axis-label" x="341.298701299" y="540">
			80
		</text>
		<path class="x-notch" d="M 360.12987013 525 L 360.12987013 530"/>
		<text class="x-axis-label" x="378.961038961" y="540">
			90
		</text>
		<path class="x-notch" d="M 397.792207792 525 L 397.792207792 530"/>
		<text class="x-axis-label" x="416.623376623" y="540">
			100
		</text>
		<path class="x-notch" d="M 435.454545455 525 L 435.454545455 530"/>
		<text class="x-axis-label" x="454.285714286" y="540">
			110
		</text>
		<path class="x-notch" d="M 473.116883117 525 L 473.116883117 530"/>
		<text class="x-axis-label" x="491.948051948" y="540">
			120
		</text>
		<path class="x-notch" d="M 510.779220779 525 L 510.779220779 530"/>
		<text class="x-axis-label" x="529.61038961" y="540">
			130
		</text>
		<path class="x-notch" d="M 548.441558442 525 L 548.441558442 530"/>
		<text class="x-axis-label" x="567.272727273" y="540">
			140
		</text>
		<path class="x-notch" d="M 586.103896104 525 L 586.103896104 530"/>
		<text class="x-axis-label" x="604.935064935" y="540">
			150
		</text>
		<path class="x-notch" d="M 623.766233766 525 L 623.766233766 530"/>
	</g>
</svg>
