<?xml version="1.0" ?>
<svg height="600" version="1.1" width="800" xmlns="http://www.w3.org/2000/svg" xmlns:svg="http://www.w3.org/2000/svg">
	<style type="text/css">
		

.x-axis-path, .y-gridline, .x-notch { fill:none; stroke: #a7a9ac; stroke-width:1; }



.y-gridline { stroke-width: 1; }

.y-axis-path, .y-axis-path2, .x-notch-left, .x-notch-right { display: none;}



.x-axis-label, .data-point-label {font-size: 12px; font-weight:normal; font-family: sans-serif; fill: #58595b; text-anchor:middle;}

.y-axis-label {font-size: 12px; font-family: helvetica; fill: #a7a9ac; text-anchor:end;}



.series-1-line { fill: none; stroke: #10b80c; stroke-width:2; }



.series-2-line { fill: none; stroke: #e90f0a; stroke-width: 2;}

	</style>
	<rect fill="white" height="600" width="800" x="0" y="0"/>
	<g id="grid" transform="translate(70, 30)">
		<g class="x-axis" id="x_axis">
			<path class="x-axis-path" d="M 0 525 L 660 525"/>
			<path class="x-notch-left" d="M 0 525, L 0 535"/>
			<path class="x-notch-right" d="M 660 525, L 660 535"/>
		</g>
		<g class="y-axis" id="y_axis">
			<path class="y-axis-path" d="M 0 525 L 0 0"/>
			<path class="y-axis-path-2" d="M 660 525 L 660 0"/>
			<path class="y-gridline" d="M 0 525 L 660 525"/>
			<text class="y-axis-label" x="-5" y="525">
				-200
			</text>
			<path class="y-gridline" d="M 0 420 L 660 420"/>
			<text class="y-axis-label" x="-5" y="420">
				 0
			</text>
			<path class="y-gridline" d="M 0 315 L 660 315"/>
			<text class="y-axis-label" x="-5" y="315">
				200
			</text>
			<path class="y-gridline" d="M 0 210 L 660 210"/>
			<text class="y-axis-label" x="-5" y="210">
				400
			</text>
			<path class="y-gridline" d="M 0 105 L 660 105"/>
			<text class="y-axis-label" x="-5" y="105">
				600
			</text>
			<path class="y-gridline" d="M 0 0 L 660 0"/>
			<text class="y-axis-label" x="-5" y="0">
				800
			</text>
		</g>
		<g>
			<path class="series-1-line" d="M 40 420.029755345 L 44 437.839890406 L 49 421.413537476 L 53 402.514670806 L 58 419.771425522 L 62 424.94618659 L 67 442.738192187 L 71 416.811423911 L 76 409.054696387 L 80 427.399506789 L 85 432.131966458 L 89 439.298666553 L 94 398.596384074 L 98 371.11997817 L 103 426.764292889 L 107 394.123003765 L 112 388.690876567 L 117 433.562260138 L 121 392.582855832 L 126 368.132056246 L 130 382.806369352 L 135 374.60676489 L 139 273.970196806 L 144 267.947854794 L 148 239.457062143 L 153 238.876149638 L 157 249.455793515 L 162 226.258804726 L 166 203.855483639 L 171 230.391359117 L 175 192.658280174 L 180 180.123431355 L 185 185.648983188 L 189 170.291693172 L 194 196.993035992 L 198 147.455085226 L 203 105.0 L 207 125.964086482 L 212 134.089633852 L 216 153.929693486 L 221 125.844655534 L 225 159.814187316 L 230 140.233307428 L 234 208.716449027 L 239 133.66659961 L 243 159.722188143 L 248 180.225843761 L 252 229.284846043 L 257 146.616592438 L 262 142.345614325 L 266 164.233152459 L 271 191.801544151 L 275 182.440215064 L 280 178.852689016 L 284 210.443232076 L 289 233.64012048 L 293 210.111045931 L 298 195.196920621 L 302 208.709509103 L 307 278.926748445 L 311 286.075031305 L 316 211.338562646 L 320 250.676430536 L 325 251.460120005 L 330 286.960584411 L 334 294.257068456 L 339 339.571328965 L 343 272.545638435 L 348 263.534524575 L 352 314.032948847 L 357 346.618885881 L 361 332.792816258 L 366 373.403775488 L 370 347.422331047 L 375 358.904994956 L 379 392.801433339 L 384 393.770158462 L 388 346.555944715 L 393 379.714254868 L 397 342.442182327 L 402 403.934256791 L 407 377.472525405 L 411 420.445782738 L 416 427.222267676 L 420 417.752161797 L 425 408.905364202 L 429 414.650196234 L 434 413.443385523 L 438 418.322031992 L 443 381.493699697 L 447 417.215746456 L 452 430.157976205 L 456 408.989473142 L 461 424.420619482 L 465 452.506420357 L 470 452.589679374 L 475 416.481633612 L 479 428.038254229 L 484 422.328717435 L 488 399.98122359 L 493 428.877958325 L 497 396.143719721 L 502 374.459534091 L 506 371.868265325 L 511 431.258185124 L 515 406.216882955 L 520 463.022634528 L 524 403.524413091 L 529 433.61941915 L 533 388.323763261 L 538 415.467983018 L 542 429.644455253 L 547 418.53032342 L 552 417.285239393 L 556 442.843274824 L 561 393.397410231 L 565 429.378449352 L 570 422.432943456 L 574 407.869033373 L 579 429.44319075 L 583 432.348603195 L 588 435.788978752 L 592 404.587111618 L 597 411.735106709 L 601 406.081397157 L 606 418.246649823 L 610 415.563007115 L 615 438.299176886 L 620 419.455849688"/>
			<path class="series-2-line" d="M 40 443.45319715 L 44 411.263190504 L 49 445.260120599 L 53 415.947806856 L 58 385.916069887 L 62 417.03530708 L 67 415.780499129 L 71 416.683960854 L 76 416.867999353 L 80 357.339910141 L 85 429.466271185 L 89 430.36973291 L 94 463.64723978 L 98 453.759353123 L 103 411.497421322 L 107 421.753384977 L 112 452.153198946 L 117 407.013574242 L 121 399.283957262 L 126 422.489538975 L 130 402.529727163 L 135 387.605877928 L 139 343.18567645 L 144 381.499145898 L 148 389.596839877 L 153 392.658571279 L 157 422.338962021 L 162 390.148955376 L 166 402.563188708 L 171 412.099729138 L 175 374.873759915 L 180 334.770097789 L 185 395.385687226 L 189 346.648946395 L 194 302.228744917 L 198 367.160873707 L 203 365.18664253 L 207 289.831242358 L 212 253.32469636 L 216 297.393551611 L 221 298.297013336 L 225 270.423546043 L 230 291.470858081 L 234 238.417577897 L 239 299.033167334 L 243 243.102194249 L 248 239.689116622 L 252 214.69334223 L 257 285.380856824 L 262 218.658535357 L 266 251.936042227 L 271 212.551803327 L 275 238.635077942 L 280 261.840659656 L 284 296.557012977 L 289 293.863358575 L 293 257.356812577 L 298 251.785465273 L 302 272.83277731 L 307 229.851422283 L 311 233.63257691 L 316 273.384892809 L 320 277.885470661 L 325 236.342962085 L 330 194.081030283 L 334 259.013159072 L 339 228.981422103 L 343 272.33085413 L 348 271.795469404 L 352 302.914706597 L 357 266.408160599 L 361 231.340461052 L 366 261.74027502 L 370 327.391827035 L 375 272.180277175 L 379 311.932593074 L 384 325.785672857 L 388 336.761059739 L 393 351.333562747 L 397 298.280282564 L 402 269.687392045 L 407 269.871430545 L 411 408.904151555 L 416 133.549094709 L 420 345.24356149 L 425 178.521411686 L 429 36.2596515472 L 434 165.220447402 L 438 102.095242062 L 443 148.32236699 L 447 127.643131952 L 452 294.013935529 L 456 197.795261819 L 461 228.195075787 L 465 276.580470391 L 470 288.275280498 L 475 418.674922803 L 479 380.010107129 L 484 341.345291454 L 488 401.241457666 L 493 379.123376177 L 497 319.595286964 L 502 303.952014504 L 506 340.107214276 L 511 387.053762429 L 515 390.11549383 L 520 278.788932386 L 524 438.684926934 L 529 341.746829999 L 533 362.074718811 L 538 332.762405067 L 542 334.385290017 L 547 325.216826586 L 552 319.645479282 L 556 313.354708753 L 561 363.898373033 L 565 415.16146054 L 570 372.899528738 L 574 340.709522092 L 579 394.8503025 L 583 387.12068552 L 588 380.110491765 L 592 446.481467005 L 597 422.20511584 L 601 431.022233045 L 606 381.566068989 L 610 404.052227477 L 615 445.243389827 L 620 435.35550317"/>
		</g>
		<text class="x-axis-label" x="40.0" y="540">
			0
		</text>
		<path class="x-notch" d="M 62.65625 525 L 62.65625 530"/>
		<text class="x-axis-label" x="85.3125" y="540">
			10
		</text>
		<path class="x-notch" d="M 107.96875 525 L 107.96875 530"/>
		<text class="x-axis-label" x="130.625" y="540">
			20
		</text>
		<path class="x-notch" d="M 153.28125 525 L 153.28125 530"/>
		<text class="x-axis-label" x="175.9375" y="540">
			30
		</text>
		<path class="x-notch" d="M 198.59375 525 L 198.59375 530"/>
		<text class="x-axis-label" x="221.25" y="540">
			40
		</text>
		<path class="x-notch" d="M 243.90625 525 L 243.90625 530"/>
		<text class="x-axis-label" x="266.5625" y="540">
			50
		</text>
		<path class="x-notch" d="M 289.21875 525 L 289.21875 530"/>
		<text class="x-axis-label" x="311.875" y="540">
			60
		</text>
		<path class="x-notch" d="M 334.53125 525 L 334.53125 530"/>
		<text class="x-axis-label" x="357.1875" y="540">
			70
		</text>
		<path class="x-notch" d="M 379.84375 525 L 379.84375 530"/>
		<text class="x-axis-label" x="402.5" y="540">
			80
		</text>
		<path class="x-notch" d="M 425.15625 525 L 425.15625 530"/>
		<text class="x-axis-label" x="447.8125" y="540">
			90
		</text>
		<path class="x-notch" d="M 470.46875 525 L 470.46875 530"/>
		<text class="x-axis-label" x="493.125" y="540">
			100
		</text>
		<path class="x-notch" d="M 515.78125 525 L 515.78125 530"/>
		<text class="x-axis-label" x="538.4375" y="540">
			110
		</text>
		<path class="x-notch" d="M 561.09375 525 L 561.09375 530"/>
		<text class="x-axis-label" x="583.75" y="540">
			120
		</text>
		<path class="x-notch" d="M 606.40625 525 L 606.40625 530"/>
	</g>
</svg>
