<?xml version="1.0" ?>
<svg height="600" version="1.1" width="800" xmlns="http://www.w3.org/2000/svg" xmlns:svg="http://www.w3.org/2000/svg">
	<style type="text/css">
		

.x-axis-path, .y-gridline, .x-notch { fill:none; stroke: #a7a9ac; stroke-width:1; }



.y-gridline { stroke-width: 1; }

.y-axis-path, .y-axis-path2, .x-notch-left, .x-notch-right { display: none;}



.x-axis-label, .data-point-label {font-size: 12px; font-weight:normal; font-family: sans-serif; fill: #58595b; text-anchor:middle;}

.y-axis-label {font-size: 12px; font-family: helvetica; fill: #a7a9ac; text-anchor:end;}



.series-1-line { fill: none; stroke: #10b80c; stroke-width:2; }



.series-2-line { fill: none; stroke: #e90f0a; stroke-width: 2;}

	</style>
	<rect fill="white" height="600" width="800" x="0" y="0"/>
	<g id="grid" transform="translate(70, 30)">
		<g class="x-axis" id="x_axis">
			<path class="x-axis-path" d="M 0 525 L 660 525"/>
			<path class="x-notch-left" d="M 0 525, L 0 535"/>
			<path class="x-notch-right" d="M 660 525, L 660 535"/>
		</g>
		<g class="y-axis" id="y_axis">
			<path class="y-axis-path" d="M 0 525 L 0 0"/>
			<path class="y-axis-path-2" d="M 660 525 L 660 0"/>
			<path class="y-gridline" d="M 0 525 L 660 525"/>
			<text class="y-axis-label" x="-5" y="525">
				-100
			</text>
			<path class="y-gridline" d="M 0 450 L 660 450"/>
			<text class="y-axis-label" x="-5" y="450">
				-50
			</text>
			<path class="y-gridline" d="M 0 375 L 660 375"/>
			<text class="y-axis-label" x="-5" y="375">
				 0
			</text>
			<path class="y-gridline" d="M 0 300 L 660 300"/>
			<text class="y-axis-label" x="-5" y="300">
				50
			</text>
			<path class="y-gridline" d="M 0 225 L 660 225"/>
			<text class="y-axis-label" x="-5" y="225">
				100
			</text>
			<path class="y-gridline" d="M 0 150 L 660 150"/>
			<text class="y-axis-label" x="-5" y="150">
				150
			</text>
			<path class="y-gridline" d="M 0 75 L 660 75"/>
			<text class="y-axis-label" x="-5" y="75">
				200
			</text>
			<path class="y-gridline" d="M 0 0 L 660 0"/>
			<text class="y-axis-label" x="-5" y="0">
				250
			</text>
		</g>
		<g>
			<path class="series-1-line" d="M 40 351.95364 L 43 385.970945389 L 46 390.872650778 L 50 369.120556168 L 53 377.637261557 L 57 401.269766946 L 60 409.363472335 L 64 379.804177725 L 67 396.821083114 L 71 367.261188503 L 74 357.662693892 L 78 383.872199281 L 81 413.350504671 L 85 389.32921006 L 88 406.538715449 L 92 381.901820838 L 95 382.457126228 L 99 354.859231617 L 102 341.799337006 L 106 381.931242395 L 109 319.563947784 L 113 267.850253174 L 116 366.713758563 L 120 288.192063952 L 123 298.401369341 L 127 294.572474731 L 130 269.01218012 L 134 284.029285509 L 137 234.854190898 L 141 241.332696287 L 144 229.619201677 L 148 225.636107066 L 151 231.614812455 L 155 232.246917844 L 158 191.302623234 L 162 236.473328623 L 165 220.644434012 L 169 171.199939401 L 172 208.71704479 L 176 238.54155018 L 179 206.289455569 L 183 135.114160958 L 186 219.746266347 L 190 185.494371737 L 193 193.742277126 L 197 216.489782515 L 200 171.314887904 L 204 112.062793293 L 207 107.540898683 L 211 141.481404072 L 214 159.421109461 L 218 60.9380148503 L 221 146.07112024 L 225 139.280025629 L 228 148.297131018 L 232 111.121436407 L 235 148.369741796 L 239 112.194247186 L 242 68.9807525749 L 246 123.382457964 L 249 76.3991633533 L 253 9.18566874251 L 256 74.9717741317 L 260 20.950479521 L 263 43.2365849102 L 267 79.7150902994 L 270 32.6171956886 L 274 99.1341010778 L 277 38.2662064671 L 281 155.629511856 L 284 123.223217246 L 288 91.4715226347 L 291 42.565228024 L 295 19.9665334132 L 298 107.214638802 L 302 75.5391441916 L 305 49.5174495808 L 309 61.3809549701 L 312 88.8984603593 L 316 54.9537657485 L 319 103.778471138 L 323 61.2957765269 L 326 138.966081916 L 330 141.675987305 L 333 143.692892695 L 336 107.825198084 L 340 41.9959034731 L 343 75.6286088623 L 347 117.837714251 L 350 106.277819641 L 354 135.33312503 L 357 171.235030419 L 361 91.0981358084 L 364 157.807041198 L 368 157.747346587 L 371 157.957051976 L 375 185.050957365 L 378 184.452462754 L 382 159.123768144 L 385 187.717073533 L 389 179.965378922 L 392 173.405884311 L 396 235.114989701 L 399 251.82409509 L 403 317.110400479 L 406 210.512305868 L 410 214.683211257 L 413 251.584716647 L 417 256.832622036 L 420 255.964727425 L 424 271.905232814 L 427 224.460538204 L 431 270.631443593 L 434 298.301948982 L 438 281.934854371 L 441 296.95195976 L 445 356.85326515 L 448 302.524770539 L 452 296.195675928 L 455 310.634981317 L 459 382.691086707 L 462 376.631392096 L 466 374.340297485 L 469 400.280402874 L 473 386.874308263 L 476 281.776813653 L 480 335.178319042 L 483 354.079824431 L 487 324.44252982 L 490 312.34443521 L 494 336.707740599 L 497 381.109845988 L 501 433.665351377 L 504 451.413056766 L 508 404.122562156 L 511 434.293267545 L 515 403.079772934 L 518 416.673678323 L 522 410.998583713 L 525 406.131089102 L 529 419.109394491 L 532 448.35669988 L 536 413.605005269 L 539 408.045110659 L 543 423.793016048 L 546 445.502521437 L 550 412.827426826 L 553 442.075332216 L 557 426.169037605 L 560 408.609142994 L 564 404.395648383 L 567 401.373753772 L 571 401.467659162 L 574 426.484964551 L 578 438.30946994 L 581 378.903775329 L 585 403.882080719 L 588 384.552786108 L 592 387.146891497 L 595 422.586796886 L 599 416.757502275 L 602 409.428807665 L 606 420.291513054 L 609 342.501218443 L 613 363.248923832 L 616 361.073629222 L 620 387.052134611"/>
			<path class="series-2-line" d="M 40 354.9 L 43 380.498802395 L 46 385.09760479 L 50 394.196407186 L 53 361.295209581 L 57 368.894011976 L 60 343.492814371 L 64 400.591616766 L 67 387.190419162 L 71 385.789221557 L 74 370.888023952 L 78 385.986826347 L 81 359.085628743 L 85 371.184431138 L 88 386.283233533 L 92 377.382035928 L 95 357.980838323 L 99 401.579640719 L 102 400.178443114 L 106 349.277245509 L 109 376.376047904 L 113 379.474850299 L 116 409.573652695 L 120 382.67245509 L 123 378.271257485 L 127 399.37005988 L 130 358.968862275 L 134 365.067664671 L 137 381.666467066 L 141 374.265269461 L 144 396.864071856 L 148 383.462874251 L 151 395.561676647 L 155 364.160479042 L 158 383.759281437 L 162 365.858083832 L 165 386.956886228 L 169 387.055688623 L 172 393.154491018 L 176 370.753293413 L 179 379.852095808 L 183 376.950898204 L 186 345.549700599 L 190 374.148502994 L 193 383.247305389 L 197 353.346107784 L 200 389.44491018 L 204 398.543712575 L 207 352.14251497 L 211 389.741317365 L 214 349.34011976 L 218 335.938922156 L 221 402.037724551 L 225 358.636526946 L 228 364.735329341 L 232 322.834131737 L 235 370.932934132 L 239 348.531736527 L 242 371.130538922 L 246 375.729341317 L 249 342.828143713 L 253 365.426946108 L 256 349.025748503 L 260 361.124550898 L 263 344.723353293 L 267 337.322155689 L 270 380.920958084 L 274 367.519760479 L 277 336.118562874 L 281 346.717365269 L 284 321.316167665 L 288 369.41497006 L 291 344.013772455 L 295 309.61257485 L 298 338.211377246 L 302 315.810179641 L 305 288.908982036 L 309 319.007784431 L 312 364.106586826 L 316 344.705389222 L 319 341.804191617 L 323 367.402994012 L 326 310.501796407 L 330 364.600598802 L 333 351.199401198 L 336 339.298203593 L 340 321.397005988 L 343 348.495808383 L 347 324.594610778 L 350 323.193413174 L 354 303.792215569 L 357 327.891017964 L 361 318.989820359 L 364 275.588622754 L 368 293.68742515 L 371 328.286227545 L 375 322.38502994 L 378 307.483832335 L 382 348.082634731 L 385 283.681437126 L 389 331.780239521 L 392 369.379041916 L 396 345.477844311 L 399 321.576646707 L 403 324.675449102 L 406 348.774251497 L 410 350.373053892 L 413 335.471856287 L 417 344.570658683 L 420 313.169461078 L 424 350.768263473 L 427 331.367065868 L 431 332.965868263 L 434 295.564670659 L 438 342.163473054 L 441 348.262275449 L 445 313.861077844 L 448 373.95988024 L 452 375.558682635 L 455 296.15748503 L 459 354.756287425 L 462 372.85508982 L 466 329.453892216 L 469 328.052694611 L 473 322.151497006 L 476 404.750299401 L 480 389.849101796 L 483 374.947904192 L 487 327.046706587 L 490 351.145508982 L 494 361.744311377 L 497 405.343113772 L 501 405.441916168 L 504 395.040718563 L 508 410.139520958 L 511 392.238323353 L 515 414.837125749 L 518 408.935928144 L 522 425.534730539 L 525 433.133532934 L 529 406.232335329 L 532 356.831137725 L 536 404.92994012 L 539 403.528742515 L 543 412.62754491 L 546 427.726347305 L 550 444.325149701 L 553 453.423952096 L 557 428.022754491 L 560 426.621556886 L 564 449.220359281 L 567 402.819161677 L 571 396.917964072 L 574 422.516766467 L 578 400.115568862 L 581 433.214371257 L 585 406.313173653 L 588 388.411976048 L 592 402.010778443 L 595 381.109580838 L 599 363.208383234 L 602 403.807185629 L 606 355.905988024 L 609 390.504790419 L 613 380.103592814 L 616 377.20239521 L 620 369.801197605"/>
		</g>
		<text class="x-axis-label" x="40.0" y="540">
			0
		</text>
		<path class="x-notch" d="M 57.4698795181 525 L 57.4698795181 530"/>
		<text class="x-axis-label" x="74.9397590361" y="540">
			10
		</text>
		<path class="x-notch" d="M 92.4096385542 525 L 92.4096385542 530"/>
		<text class="x-axis-label" x="109.879518072" y="540">
			20
		</text>
		<path class="x-notch" d="M 127.34939759 525 L 127.34939759 530"/>
		<text class="x-axis-label" x="144.819277108" y="540">
			30
		</text>
		<path class="x-notch" d="M 162.289156627 525 L 162.289156627 530"/>
		<text class="x-axis-label" x="179.759036145" y="540">
			40
		</text>
		<path class="x-notch" d="M 197.228915663 525 L 197.228915663 530"/>
		<text class="x-axis-label" x="214.698795181" y="540">
			50
		</text>
		<path class="x-notch" d="M 232.168674699 525 L 232.168674699 530"/>
		<text class="x-axis-label" x="249.638554217" y="540">
			60
		</text>
		<path class="x-notch" d="M 267.108433735 525 L 267.108433735 530"/>
		<text class="x-axis-label" x="284.578313253" y="540">
			70
		</text>
		<path class="x-notch" d="M 302.048192771 525 L 302.048192771 530"/>
		<text class="x-axis-label" x="319.518072289" y="540">
			80
		</text>
		<path class="x-notch" d="M 336.987951807 525 L 336.987951807 530"/>
		<text class="x-axis-label" x="354.457831325" y="540">
			90
		</text>
		<path class="x-notch" d="M 371.927710843 525 L 371.927710843 530"/>
		<text class="x-axis-label" x="389.397590361" y="540">
			100
		</text>
		<path class="x-notch" d="M 406.86746988 525 L 406.86746988 530"/>
		<text class="x-axis-label" x="424.337349398" y="540">
			110
		</text>
		<path class="x-notch" d="M 441.807228916 525 L 441.807228916 530"/>
		<text class="x-axis-label" x="459.277108434" y="540">
			120
		</text>
		<path class="x-notch" d="M 476.746987952 525 L 476.746987952 530"/>
		<text class="x-axis-label" x="494.21686747" y="540">
			130
		</text>
		<path class="x-notch" d="M 511.686746988 525 L 511.686746988 530"/>
		<text class="x-axis-label" x="529.156626506" y="540">
			140
		</text>
		<path class="x-notch" d="M 546.626506024 525 L 546.626506024 530"/>
		<text class="x-axis-label" x="564.096385542" y="540">
			150
		</text>
		<path class="x-notch" d="M 581.56626506 525 L 581.56626506 530"/>
		<text class="x-axis-label" x="599.036144578" y="540">
			160
		</text>
		<path class="x-notch" d="M 616.506024096 525 L 616.506024096 530"/>
	</g>
</svg>
