<?xml version="1.0" ?>
<svg height="600" version="1.1" width="800" xmlns="http://www.w3.org/2000/svg" xmlns:svg="http://www.w3.org/2000/svg">
	<style type="text/css">
		

.x-axis-path, .y-gridline, .x-notch { fill:none; stroke: #a7a9ac; stroke-width:1; }



.y-gridline { stroke-width: 1; }

.y-axis-path, .y-axis-path2, .x-notch-left, .x-notch-right { display: none;}



.x-axis-label, .data-point-label {font-size: 12px; font-weight:normal; font-family: sans-serif; fill: #58595b; text-anchor:middle;}

.y-axis-label {font-size: 12px; font-family: helvetica; fill: #a7a9ac; text-anchor:end;}



.series-1-line { fill: none; stroke: #10b80c; stroke-width:2; }



.series-2-line { fill: none; stroke: #e90f0a; stroke-width: 2;}

	</style>
	<rect fill="white" height="600" width="800" x="0" y="0"/>
	<g id="grid" transform="translate(70, 30)">
		<g class="x-axis" id="x_axis">
			<path class="x-axis-path" d="M 0 525 L 660 525"/>
			<path class="x-notch-left" d="M 0 525, L 0 535"/>
			<path class="x-notch-right" d="M 660 525, L 660 535"/>
		</g>
		<g class="y-axis" id="y_axis">
			<path class="y-axis-path" d="M 0 525 L 0 0"/>
			<path class="y-axis-path-2" d="M 660 525 L 660 0"/>
			<path class="y-gridline" d="M 0 525 L 660 525"/>
			<text class="y-axis-label" x="-5" y="525">
				-200
			</text>
			<path class="y-gridline" d="M 0 420 L 660 420"/>
			<text class="y-axis-label" x="-5" y="420">
				 0
			</text>
			<path class="y-gridline" d="M 0 315 L 660 315"/>
			<text class="y-axis-label" x="-5" y="315">
				200
			</text>
			<path class="y-gridline" d="M 0 210 L 660 210"/>
			<text class="y-axis-label" x="-5" y="210">
				400
			</text>
			<path class="y-gridline" d="M 0 105 L 660 105"/>
			<text class="y-axis-label" x="-5" y="105">
				600
			</text>
			<path class="y-gridline" d="M 0 0 L 660 0"/>
			<text class="y-axis-label" x="-5" y="0">
				800
			</text>
		</g>
		<g>
			<path class="series-1-line" d="M 40 441.942018 L 43 402.122532239 L 46 420.335076477 L 49 426.513360716 L 53 407.464554955 L 56 385.494439193 L 59 418.299673432 L 63 437.02398767 L 66 377.671351909 L 69 392.935916148 L 73 406.908140386 L 76 394.401674625 L 79 409.168538864 L 83 405.008103102 L 86 383.293557341 L 89 377.96258158 L 93 382.888635818 L 96 361.672420057 L 99 370.731484295 L 102 358.251898534 L 106 373.139512773 L 109 396.669467011 L 112 354.80332125 L 116 355.489265489 L 119 350.373119727 L 122 330.153353966 L 126 367.387068205 L 129 342.738402443 L 132 335.239596682 L 136 329.55792092 L 139 340.689895159 L 142 303.656479398 L 146 335.074873636 L 149 346.597237875 L 152 316.133042114 L 156 306.520586352 L 159 304.379510591 L 162 305.53711483 L 165 291.832179068 L 169 321.069723307 L 172 284.722587545 L 175 292.072041784 L 179 323.706106023 L 182 290.912800261 L 185 285.4467945 L 189 282.336568739 L 192 293.118682977 L 195 289.362287216 L 199 282.496001455 L 202 264.752345693 L 205 221.877359932 L 209 252.77075417 L 212 202.289148409 L 215 266.351622648 L 218 235.227816886 L 222 248.271631125 L 225 221.092045364 L 228 197.196649602 L 232 243.180433841 L 235 237.21672808 L 238 218.248562318 L 242 232.638056557 L 245 185.077760795 L 248 208.809735034 L 252 209.105289273 L 255 202.252653511 L 258 232.31129775 L 262 174.789861989 L 265 189.690286227 L 268 148.201720466 L 272 173.292814705 L 275 172.216018943 L 278 158.686223182 L 281 214.94110742 L 285 209.434571659 L 288 169.211045898 L 291 185.134800136 L 295 145.934184375 L 298 179.022078614 L 301 161.628912852 L 305 176.731777091 L 308 187.29822133 L 311 163.969405568 L 315 175.451029807 L 318 162.648254045 L 321 216.803138284 L 325 154.973552523 L 328 147.286586761 L 331 100.440291 L 334 153.342945239 L 338 187.292259477 L 341 192.501183716 L 344 140.161497955 L 348 132.098212193 L 351 182.806576432 L 354 221.10478067 L 358 205.542184909 L 361 214.628129148 L 364 170.473613386 L 368 168.803987625 L 371 178.508591864 L 374 184.444746102 L 378 186.140370341 L 381 219.69887458 L 384 185.101248818 L 388 180.861013057 L 391 222.509767295 L 394 169.416601534 L 397 204.954775773 L 401 246.886610011 L 404 249.08014425 L 407 261.437048489 L 411 223.380722727 L 414 263.684216966 L 417 276.000591205 L 421 281.559585443 L 424 250.678119682 L 427 281.74665392 L 431 318.859198159 L 434 278.905312398 L 437 327.648076636 L 441 319.462990875 L 444 321.292805114 L 447 346.748039352 L 450 339.572423591 L 454 365.25655783 L 457 357.017292068 L 460 348.226566307 L 464 398.289600545 L 467 393.536964784 L 470 402.515179023 L 474 410.457253261 L 477 426.1390875 L 480 407.588821739 L 484 415.261465977 L 487 416.916560216 L 490 421.842614455 L 494 412.647638693 L 497 422.433722932 L 500 421.81346717 L 504 412.914801409 L 507 426.025605648 L 510 422.888289886 L 513 423.156964125 L 517 414.702238364 L 520 411.901972602 L 523 427.664656841 L 527 401.44078108 L 530 425.670875318 L 533 413.635649557 L 537 426.073193795 L 540 417.336228034 L 543 418.654692273 L 547 414.548226511 L 550 409.66077075 L 553 404.262174989 L 557 415.730569227 L 560 413.239423466 L 563 422.298277705 L 566 403.747591943 L 570 421.543076182 L 573 421.42136042 L 576 406.666844659 L 580 422.496938898 L 583 413.396253136 L 586 416.976207375 L 590 414.875451614 L 593 401.763345852 L 596 422.129860091 L 600 408.00807433 L 603 395.326468568 L 606 407.858512807 L 610 428.494457045 L 613 414.453311284 L 616 437.498585523 L 620 414.128819761"/>
			<path class="series-2-line" d="M 40 391.755 L 43 435.501221591 L 46 414.672443182 L 49 428.493664773 L 53 426.039886364 L 56 408.361107955 L 59 424.807329545 L 63 426.553551136 L 66 425.674772727 L 69 414.295994318 L 73 399.767215909 L 76 400.4634375 L 79 425.834659091 L 83 414.455880682 L 86 377.352102273 L 89 425.823323864 L 93 409.719545455 L 96 397.290767045 L 99 412.161988636 L 102 408.658210227 L 106 394.654431818 L 109 383.800653409 L 112 378.196875 L 116 388.868096591 L 119 383.264318182 L 122 399.710539773 L 126 380.456761364 L 129 391.652982955 L 132 389.199204545 L 136 369.420426136 L 139 368.016647727 L 142 366.087869318 L 146 353.134090909 L 149 352.2553125 L 152 349.276534091 L 156 328.447755682 L 159 329.668977273 L 162 389.690198864 L 165 352.061420455 L 169 331.232642045 L 172 304.103863636 L 175 319.500085227 L 179 334.371306818 L 182 305.667528409 L 185 313.71375 L 189 322.809971591 L 192 335.056193182 L 195 342.577414773 L 199 323.323636364 L 202 260.494857955 L 205 330.491079545 L 209 317.537301136 L 212 304.583522727 L 215 276.929744318 L 218 274.475965909 L 222 302.4721875 L 225 298.968409091 L 228 253.989630682 L 232 241.560852273 L 235 286.357073864 L 238 271.303295455 L 242 253.099517045 L 245 255.370738636 L 248 253.966960227 L 252 264.113181818 L 255 263.234403409 L 258 237.155625 L 262 278.276846591 L 265 200.748068182 L 268 259.194289773 L 272 209.490511364 L 275 290.511732955 L 278 266.532954545 L 281 248.854176136 L 285 242.725397727 L 288 267.571619318 L 291 214.717840909 L 295 223.2890625 L 298 236.585284091 L 301 221.531505682 L 305 194.402727273 L 308 178.823948864 L 311 250.395170455 L 315 214.866392045 L 318 200.337613636 L 321 182.658835227 L 325 179.155056818 L 328 206.101278409 L 331 260.8725 L 334 213.268721591 L 338 215.014943182 L 341 216.236164773 L 344 165.482386364 L 348 251.228607955 L 351 197.849829545 L 354 278.871051136 L 358 244.392272727 L 361 255.063494318 L 364 258.384715909 L 368 288.4809375 L 371 243.502159091 L 374 274.648380682 L 378 291.619602273 L 381 251.890823864 L 384 176.987045455 L 388 260.108267045 L 391 207.254488636 L 394 192.200710227 L 397 232.796931818 L 401 217.743153409 L 404 218.439375 L 407 210.210596591 L 411 224.556818182 L 414 258.853039773 L 417 236.449261364 L 421 244.495482955 L 424 245.191704545 L 427 245.887926136 L 431 225.059147727 L 434 289.805369318 L 437 215.426590909 L 441 238.1728125 L 444 213.669034091 L 447 230.115255682 L 450 238.686477273 L 454 260.382698864 L 457 250.578920455 L 460 285.925142045 L 464 312.871363636 L 467 311.992585227 L 470 318.988806818 L 474 364.835028409 L 477 349.78125 L 480 392.477471591 L 484 418.898693182 L 487 421.694914773 L 490 405.591136364 L 494 401.562357955 L 497 425.883579545 L 500 394.554801136 L 504 405.751022727 L 507 402.772244318 L 510 395.593465909 L 513 409.9396875 L 517 392.785909091 L 520 435.482130682 L 523 428.303352273 L 527 419.024573864 L 530 421.820795455 L 533 430.917017045 L 537 410.088238636 L 540 437.034460227 L 543 430.905681818 L 547 431.601903409 L 550 410.773125 L 553 428.794346591 L 557 415.840568182 L 560 410.236789773 L 563 404.633011364 L 566 406.379232955 L 570 409.700454545 L 573 423.521676136 L 576 426.842897727 L 580 429.639119318 L 583 431.385340909 L 586 420.5315625 L 590 415.452784091 L 593 428.749005682 L 596 419.995227273 L 600 426.991448864 L 603 414.037670455 L 606 419.458892045 L 610 430.130113636 L 613 424.526335227 L 616 407.372556818 L 620 423.818778409"/>
		</g>
		<text class="x-axis-label" x="40.0" y="540">
			0
		</text>
		<path class="x-notch" d="M 56.5714285714 525 L 56.5714285714 530"/>
		<text class="x-axis-label" x="73.1428571429" y="540">
			10
		</text>
		<path class="x-notch" d="M 89.7142857143 525 L 89.7142857143 530"/>
		<text class="x-axis-label" x="106.285714286" y="540">
			20
		</text>
		<path class="x-notch" d="M 122.857142857 525 L 122.857142857 530"/>
		<text class="x-axis-label" x="139.428571429" y="540">
			30
		</text>
		<path class="x-notch" d="M 156.0 525 L 156.0 530"/>
		<text class="x-axis-label" x="172.571428571" y="540">
			40
		</text>
		<path class="x-notch" d="M 189.142857143 525 L 189.142857143 530"/>
		<text class="x-axis-label" x="205.714285714" y="540">
			50
		</text>
		<path class="x-notch" d="M 222.285714286 525 L 222.285714286 530"/>
		<text class="x-axis-label" x="238.857142857" y="540">
			60
		</text>
		<path class="x-notch" d="M 255.428571429 525 L 255.428571429 530"/>
		<text class="x-axis-label" x="272.0" y="540">
			70
		</text>
		<path class="x-notch" d="M 288.571428571 525 L 288.571428571 530"/>
		<text class="x-axis-label" x="305.142857143" y="540">
			80
		</text>
		<path class="x-notch" d="M 321.714285714 525 L 321.714285714 530"/>
		<text class="x-axis-label" x="338.285714286" y="540">
			90
		</text>
		<path class="x-notch" d="M 354.857142857 525 L 354.857142857 530"/>
		<text class="x-axis-label" x="371.428571429" y="540">
			100
		</text>
		<path class="x-notch" d="M 388.0 525 L 388.0 530"/>
		<text class="x-axis-label" x="404.571428571" y="540">
			110
		</text>
		<path class="x-notch" d="M 421.142857143 525 L 421.142857143 530"/>
		<text class="x-axis-label" x="437.714285714" y="540">
			120
		</text>
		<path class="x-notch" d="M 454.285714286 525 L 454.285714286 530"/>
		<text class="x-axis-label" x="470.857142857" y="540">
			130
		</text>
		<path class="x-notch" d="M 487.428571429 525 L 487.428571429 530"/>
		<text class="x-axis-label" x="504.0" y="540">
			140
		</text>
		<path class="x-notch" d="M 520.571428571 525 L 520.571428571 530"/>
		<text class="x-axis-label" x="537.142857143" y="540">
			150
		</text>
		<path class="x-notch" d="M 553.714285714 525 L 553.714285714 530"/>
		<text class="x-axis-label" x="570.285714286" y="540">
			160
		</text>
		<path class="x-notch" d="M 586.857142857 525 L 586.857142857 530"/>
		<text class="x-axis-label" x="603.428571429" y="540">
			170
		</text>
		<path class="x-notch" d="M 620.0 525 L 620.0 530"/>
	</g>
</svg>
