<?xml version="1.0" ?>
<svg height="600" version="1.1" width="800" xmlns="http://www.w3.org/2000/svg" xmlns:svg="http://www.w3.org/2000/svg">
	<style type="text/css">
		

.x-axis-path, .y-gridline, .x-notch { fill:none; stroke: #a7a9ac; stroke-width:1; }



.y-gridline { stroke-width: 1; }

.y-axis-path, .y-axis-path2, .x-notch-left, .x-notch-right { display: none;}



.x-axis-label, .data-point-label {font-size: 12px; font-weight:normal; font-family: sans-serif; fill: #58595b; text-anchor:middle;}

.y-axis-label {font-size: 12px; font-family: helvetica; fill: #a7a9ac; text-anchor:end;}



.series-1-line { fill: none; stroke: #10b80c; stroke-width:2; }



.series-2-line { fill: none; stroke: #e90f0a; stroke-width: 2;}

	</style>
	<rect fill="white" height="600" width="800" x="0" y="0"/>
	<g id="grid" transform="translate(70, 30)">
		<g class="x-axis" id="x_axis">
			<path class="x-axis-path" d="M 0 525 L 660 525"/>
			<path class="x-notch-left" d="M 0 525, L 0 535"/>
			<path class="x-notch-right" d="M 660 525, L 660 535"/>
		</g>
		<g class="y-axis" id="y_axis">
			<path class="y-axis-path" d="M 0 525 L 0 0"/>
			<path class="y-axis-path-2" d="M 660 525 L 660 0"/>
			<path class="y-gridline" d="M 0 525 L 660 525"/>
			<text class="y-axis-label" x="-5" y="525">
				-200
			</text>
			<path class="y-gridline" d="M 0 420 L 660 420"/>
			<text class="y-axis-label" x="-5" y="420">
				 0
			</text>
			<path class="y-gridline" d="M 0 315 L 660 315"/>
			<text class="y-axis-label" x="-5" y="315">
				200
			</text>
			<path class="y-gridline" d="M 0 210 L 660 210"/>
			<text class="y-axis-label" x="-5" y="210">
				400
			</text>
			<path class="y-gridline" d="M 0 105 L 660 105"/>
			<text class="y-axis-label" x="-5" y="105">
				600
			</text>
			<path class="y-gridline" d="M 0 0 L 660 0"/>
			<text class="y-axis-label" x="-5" y="0">
				800
			</text>
		</g>
		<g>
			<path class="series-1-line" d="M 40 401.299374 L 46 424.052247128 L 52 411.267030255 L 58 435.958623383 L 64 425.030856511 L 71 422.112909638 L 77 421.133472766 L 83 431.421165894 L 89 420.816589021 L 96 413.860132149 L 102 409.609315277 L 108 404.631688404 L 114 434.829061532 L 121 414.89565466 L 127 415.666147787 L 133 414.686500915 L 139 393.622244043 L 146 415.00234717 L 152 398.649650298 L 158 422.048903426 L 164 411.107906553 L 170 371.170529681 L 177 349.917902809 L 183 353.542085936 L 189 341.133819064 L 195 305.436762191 L 202 274.761225319 L 208 239.185548447 L 214 221.311611574 L 220 185.210934702 L 227 194.69096783 L 233 110.047950957 L 239 176.349154085 L 245 157.815607213 L 252 177.94390034 L 258 109.441063468 L 264 147.338506596 L 270 106.243399723 L 276 87.2388228511 L 283 168.011335979 L 289 172.214489106 L 295 136.773212234 L 301 113.218775362 L 308 132.620048489 L 314 113.911571617 L 320 93.9510747447 L 326 202.817807872 L 333 245.776671 L 339 246.345144128 L 345 230.046417255 L 351 250.618650383 L 358 266.479533511 L 364 206.484426638 L 370 248.635629766 L 376 206.329032894 L 383 261.201406021 L 389 269.039239149 L 395 289.194202277 L 401 280.662745404 L 407 304.236718532 L 414 305.84196166 L 420 305.495254787 L 426 345.492697915 L 432 311.236241043 L 439 343.82971417 L 445 344.734817298 L 451 357.553220426 L 457 348.025733553 L 464 392.196086681 L 470 395.578139809 L 476 428.077322936 L 482 431.916966064 L 489 422.645259191 L 495 410.263662319 L 501 428.776425447 L 507 428.106528574 L 513 424.057731702 L 520 423.85886483 L 526 401.838897957 L 532 417.686341085 L 538 418.322014213 L 545 416.07711734 L 551 421.572610468 L 557 421.145053596 L 563 435.040336723 L 570 419.549269851 L 576 422.554162979 L 582 419.986286106 L 588 415.385609234 L 595 422.913692362 L 601 420.910925489 L 607 413.954468617 L 613 419.719181745 L 620 426.089534872"/>
			<path class="series-2-line" d="M 40 433.965 L 46 409.706648936 L 52 421.673297872 L 58 422.614946809 L 64 410.956595745 L 71 419.248244681 L 77 432.264893617 L 83 427.956542553 L 89 427.323191489 L 96 430.889840426 L 102 421.856489362 L 108 423.848138298 L 114 425.839787234 L 121 426.78143617 L 127 432.973085106 L 133 425.514734043 L 139 418.581382979 L 146 424.248031915 L 152 419.414680851 L 158 417.206329787 L 164 428.122978723 L 170 416.98962766 L 177 418.981276596 L 183 409.947925532 L 189 424.539574468 L 195 407.106223404 L 202 425.37287234 L 208 429.989521277 L 214 416.756170213 L 220 421.372819149 L 227 420.214468085 L 233 421.681117021 L 239 422.097765957 L 245 409.389414894 L 252 426.08106383 L 258 407.597712766 L 264 416.414361702 L 270 401.606010638 L 276 400.972659574 L 283 416.614308511 L 289 419.655957447 L 295 403.272606383 L 301 416.289255319 L 308 423.530904255 L 314 417.647553191 L 320 402.314202128 L 326 416.905851064 L 333 414.1725 L 339 410.914148936 L 345 418.155797872 L 351 406.497446809 L 358 413.214095745 L 364 398.405744681 L 370 398.822393617 L 376 388.739042553 L 383 390.730691489 L 389 400.072340426 L 395 392.088989362 L 401 395.655638298 L 407 366.147287234 L 414 385.46393617 L 420 402.155585106 L 426 410.972234043 L 432 414.538882979 L 439 411.280531915 L 445 416.947180851 L 451 406.863829787 L 457 422.505478723 L 464 415.04712766 L 470 423.338776596 L 476 414.305425532 L 482 412.622074468 L 489 429.313723404 L 495 419.23037234 L 501 421.747021277 L 507 427.413670213 L 513 427.830319149 L 520 421.421968085 L 526 420.263617021 L 532 429.080265957 L 538 415.321914894 L 545 420.98856383 L 551 427.180212766 L 557 435.996861702 L 563 421.713510638 L 570 425.805159574 L 576 410.996808511 L 582 426.113457447 L 588 430.730106383 L 595 426.946755319 L 601 415.288404255 L 607 418.855053191 L 613 423.996702128 L 620 416.538351064"/>
		</g>
		<text class="x-axis-label" x="40.0" y="540">
			0
		</text>
		<path class="x-notch" d="M 71.1827956989 525 L 71.1827956989 530"/>
		<text class="x-axis-label" x="102.365591398" y="540">
			10
		</text>
		<path class="x-notch" d="M 133.548387097 525 L 133.548387097 530"/>
		<text class="x-axis-label" x="164.731182796" y="540">
			20
		</text>
		<path class="x-notch" d="M 195.913978495 525 L 195.913978495 530"/>
		<text class="x-axis-label" x="227.096774194" y="540">
			30
		</text>
		<path class="x-notch" d="M 258.279569892 525 L 258.279569892 530"/>
		<text class="x-axis-label" x="289.462365591" y="540">
			40
		</text>
		<path class="x-notch" d="M 320.64516129 525 L 320.64516129 530"/>
		<text class="x-axis-label" x="351.827956989" y="540">
			50
		</text>
		<path class="x-notch" d="M 383.010752688 525 L 383.010752688 530"/>
		<text class="x-axis-label" x="414.193548387" y="540">
			60
		</text>
		<path class="x-notch" d="M 445.376344086 525 L 445.376344086 530"/>
		<text class="x-axis-label" x="476.559139785" y="540">
			70
		</text>
		<path class="x-notch" d="M 507.741935484 525 L 507.741935484 530"/>
		<text class="x-axis-label" x="538.924731183" y="540">
			80
		</text>
		<path class="x-notch" d="M 570.107526882 525 L 570.107526882 530"/>
		<text class="x-axis-label" x="601.290322581" y="540">
			90
		</text>
		<path class="x-notch" d="M 632.47311828 525 L 632.47311828 530"/>
	</g>
</svg>
