<?xml version="1.0" ?>
<svg height="600" version="1.1" width="800" xmlns="http://www.w3.org/2000/svg" xmlns:svg="http://www.w3.org/2000/svg">
	<style type="text/css">
		

.x-axis-path, .y-gridline, .x-notch { fill:none; stroke: #a7a9ac; stroke-width:1; }



.y-gridline { stroke-width: 1; }

.y-axis-path, .y-axis-path2, .x-notch-left, .x-notch-right { display: none;}



.x-axis-label, .data-point-label {font-size: 12px; font-weight:normal; font-family: sans-serif; fill: #58595b; text-anchor:middle;}

.y-axis-label {font-size: 12px; font-family: helvetica; fill: #a7a9ac; text-anchor:end;}



.series-1-line { fill: none; stroke: #10b80c; stroke-width:2; }



.series-2-line { fill: none; stroke: #e90f0a; stroke-width: 2;}

	</style>
	<rect fill="white" height="600" width="800" x="0" y="0"/>
	<g id="grid" transform="translate(70, 30)">
		<g class="x-axis" id="x_axis">
			<path class="x-axis-path" d="M 0 525 L 660 525"/>
			<path class="x-notch-left" d="M 0 525, L 0 535"/>
			<path class="x-notch-right" d="M 660 525, L 660 535"/>
		</g>
		<g class="y-axis" id="y_axis">
			<path class="y-axis-path" d="M 0 525 L 0 0"/>
			<path class="y-axis-path-2" d="M 660 525 L 660 0"/>
			<path class="y-gridline" d="M 0 525 L 660 525"/>
			<text class="y-axis-label" x="-5" y="525">
				-100
			</text>
			<path class="y-gridline" d="M 0 450 L 660 450"/>
			<text class="y-axis-label" x="-5" y="450">
				 0
			</text>
			<path class="y-gridline" d="M 0 375 L 660 375"/>
			<text class="y-axis-label" x="-5" y="375">
				100
			</text>
			<path class="y-gridline" d="M 0 300 L 660 300"/>
			<text class="y-axis-label" x="-5" y="300">
				200
			</text>
			<path class="y-gridline" d="M 0 225 L 660 225"/>
			<text class="y-axis-label" x="-5" y="225">
				300
			</text>
			<path class="y-gridline" d="M 0 150 L 660 150"/>
			<text class="y-axis-label" x="-5" y="150">
				400
			</text>
			<path class="y-gridline" d="M 0 75 L 660 75"/>
			<text class="y-axis-label" x="-5" y="75">
				500
			</text>
			<path class="y-gridline" d="M 0 0 L 660 0"/>
			<text class="y-axis-label" x="-5" y="0">
				600
			</text>
		</g>
		<g>
			<path class="series-1-line" d="M 40 431.13804 L 44 470.798070435 L 48 465.45780087 L 52 446.310031304 L 56 433.854361739 L 61 446.013392174 L 65 463.711022609 L 69 455.409153043 L 73 456.261783478 L 78 409.997913913 L 82 440.138044348 L 86 473.758474783 L 90 441.264605217 L 95 449.617235652 L 99 395.854266087 L 103 396.225396522 L 107 439.942326957 L 111 384.584557391 L 116 478.666087826 L 120 490.729718261 L 124 419.486348696 L 128 434.99187913 L 133 461.283909565 L 137 432.33004 L 141 399.586270435 L 145 424.55230087 L 150 398.173931304 L 154 374.757161739 L 158 351.012192174 L 162 361.440822609 L 167 354.543853043 L 171 360.222583478 L 175 301.767313913 L 179 328.543544348 L 183 320.068274783 L 188 297.766005217 L 192 287.503035652 L 196 292.220266087 L 200 264.668296522 L 205 246.500926957 L 209 224.949257391 L 213 178.550687826 L 217 148.845018261 L 222 181.332048696 L 226 142.76107913 L 230 90.0934095652 L 234 123.27314 L 238 115.778570435 L 243 169.82300087 L 247 98.7512313043 L 251 73.1993617391 L 255 102.128092174 L 260 59.5758226087 L 264 71.4474530435 L 268 207.780983478 L 272 192.133313913 L 277 227.657844348 L 281 237.664674783 L 285 198.881905217 L 289 299.387335652 L 294 263.547266087 L 298 271.456796522 L 302 235.443026957 L 306 244.391157391 L 310 295.974387826 L 315 219.672418261 L 319 283.870348696 L 323 309.37547913 L 327 345.093809565 L 332 376.71474 L 336 347.528970435 L 340 286.91970087 L 344 339.559231304 L 349 311.468461739 L 353 295.301492174 L 357 372.883922609 L 361 323.255553043 L 365 315.242283478 L 370 305.055513913 L 374 323.061544348 L 378 358.106074783 L 382 341.554505217 L 387 326.329235652 L 391 389.412066087 L 395 401.417496522 L 399 345.788526957 L 404 314.679457391 L 408 339.434587826 L 412 393.498818261 L 416 297.773048696 L 421 342.77877913 L 425 351.553509565 L 429 408.92494 L 433 376.719070435 L 437 365.34100087 L 442 421.692731304 L 446 427.486961739 L 450 393.300792174 L 454 420.614022609 L 459 417.004453043 L 463 409.760383478 L 467 437.900713913 L 471 412.618544348 L 476 469.451474783 L 480 454.130205217 L 484 465.251835652 L 488 426.796366087 L 492 477.225496522 L 497 450.347026957 L 501 460.795157391 L 505 470.551187826 L 509 458.191818261 L 514 468.543648696 L 518 482.28037913 L 522 455.344009565 L 526 460.88864 L 531 452.836670435 L 535 473.64950087 L 539 452.982531304 L 543 475.007661739 L 548 482.475292174 L 552 476.596222609 L 556 477.486653043 L 560 468.935183478 L 564 457.825613913 L 569 451.388844348 L 573 486.298674783 L 577 445.265905217 L 581 464.887435652 L 586 448.143266087 L 590 452.764496522 L 594 465.193526957 L 598 484.314657391 L 603 437.474787826 L 607 450.768718261 L 611 451.274848696 L 615 471.99227913 L 620 442.151909565"/>
			<path class="series-2-line" d="M 40 408.9 L 44 441.215217391 L 48 444.280434783 L 52 466.095652174 L 56 467.660869565 L 61 402.476086957 L 65 350.791304348 L 69 347.856521739 L 73 408.67173913 L 78 360.736956522 L 82 327.802173913 L 86 249.117391304 L 90 276.182608696 L 95 336.997826087 L 99 376.813043478 L 103 366.37826087 L 107 321.443478261 L 111 493.258695652 L 116 371.823913043 L 120 380.139130435 L 124 455.954347826 L 128 424.519565217 L 133 201.834782609 L 137 378.9 L 141 415.715217391 L 145 283.030434783 L 150 321.345652174 L 154 365.660869565 L 158 285.476086957 L 162 256.291304348 L 167 356.106521739 L 171 336.67173913 L 175 377.236956522 L 179 489.052173913 L 183 454.617391304 L 188 412.682608696 L 192 452.497826087 L 196 436.813043478 L 200 424.12826087 L 205 409.943478261 L 209 426.508695652 L 213 370.323913043 L 217 371.889130435 L 222 411.704347826 L 226 421.519565217 L 230 378.084782609 L 234 456.15 L 238 414.965217391 L 243 426.280434783 L 247 358.095652174 L 251 355.160869565 L 255 335.726086957 L 260 293.791304348 L 264 332.106521739 L 268 405.67173913 L 272 437.236956522 L 277 383.302173913 L 281 478.617391304 L 285 462.932608696 L 289 421.747826087 L 294 444.313043478 L 298 427.87826087 L 302 389.693478261 L 306 386.758695652 L 310 431.073913043 L 315 418.389130435 L 319 395.954347826 L 323 325.519565217 L 327 417.084782609 L 332 387.15 L 336 453.965217391 L 340 479.530434783 L 344 388.095652174 L 349 342.410869565 L 353 367.226086957 L 357 333.541304348 L 361 371.856521739 L 365 382.42173913 L 370 351.736956522 L 374 369.052173913 L 378 390.117391304 L 382 416.432608696 L 387 381.997826087 L 391 387.313043478 L 395 346.12826087 L 399 325.943478261 L 404 371.008695652 L 408 300.573913043 L 412 367.389130435 L 416 284.204347826 L 421 272.269565217 L 425 237.834782609 L 429 256.65 L 433 238.715217391 L 437 306.280434783 L 442 279.345652174 L 446 271.160869565 L 450 298.976086957 L 454 268.291304348 L 459 264.606521739 L 463 272.17173913 L 467 258.736956522 L 471 301.552173913 L 476 316.617391304 L 480 297.182608696 L 484 335.497826087 L 488 356.563043478 L 492 376.12826087 L 497 404.693478261 L 501 401.758695652 L 505 419.073913043 L 509 434.889130435 L 514 417.704347826 L 518 428.269565217 L 522 436.584782609 L 526 467.4 L 531 454.715217391 L 535 385.030434783 L 539 409.845652174 L 543 414.410869565 L 548 437.726086957 L 552 407.791304348 L 556 404.106521739 L 560 440.17173913 L 564 436.486956522 L 569 405.802173913 L 573 418.617391304 L 577 402.932608696 L 581 431.497826087 L 586 429.313043478 L 590 428.62826087 L 594 438.443478261 L 598 428.008695652 L 603 470.073913043 L 607 432.639130435 L 611 459.704347826 L 615 463.519565217 L 620 456.834782609"/>
		</g>
		<text class="x-axis-label" x="40.0" y="540">
			0
		</text>
		<path class="x-notch" d="M 61.1678832117 525 L 61.1678832117 530"/>
		<text class="x-axis-label" x="82.3357664234" y="540">
			10
		</text>
		<path class="x-notch" d="M 103.503649635 525 L 103.503649635 530"/>
		<text class="x-axis-label" x="124.671532847" y="540">
			20
		</text>
		<path class="x-notch" d="M 145.839416058 525 L 145.839416058 530"/>
		<text class="x-axis-label" x="167.00729927" y="540">
			30
		</text>
		<path class="x-notch" d="M 188.175182482 525 L 188.175182482 530"/>
		<text class="x-axis-label" x="209.343065693" y="540">
			40
		</text>
		<path class="x-notch" d="M 230.510948905 525 L 230.510948905 530"/>
		<text class="x-axis-label" x="251.678832117" y="540">
			50
		</text>
		<path class="x-notch" d="M 272.846715328 525 L 272.846715328 530"/>
		<text class="x-axis-label" x="294.01459854" y="540">
			60
		</text>
		<path class="x-notch" d="M 315.182481752 525 L 315.182481752 530"/>
		<text class="x-axis-label" x="336.350364964" y="540">
			70
		</text>
		<path class="x-notch" d="M 357.518248175 525 L 357.518248175 530"/>
		<text class="x-axis-label" x="378.686131387" y="540">
			80
		</text>
		<path class="x-notch" d="M 399.854014599 525 L 399.854014599 530"/>
		<text class="x-axis-label" x="421.02189781" y="540">
			90
		</text>
		<path class="x-notch" d="M 442.189781022 525 L 442.189781022 530"/>
		<text class="x-axis-label" x="463.357664234" y="540">
			100
		</text>
		<path class="x-notch" d="M 484.525547445 525 L 484.525547445 530"/>
		<text class="x-axis-label" x="505.693430657" y="540">
			110
		</text>
		<path class="x-notch" d="M 526.861313869 525 L 526.861313869 530"/>
		<text class="x-axis-label" x="548.02919708" y="540">
			120
		</text>
		<path class="x-notch" d="M 569.197080292 525 L 569.197080292 530"/>
		<text class="x-axis-label" x="590.364963504" y="540">
			130
		</text>
		<path class="x-notch" d="M 611.532846715 525 L 611.532846715 530"/>
	</g>
</svg>
