<?xml version="1.0" ?>
<svg height="600" version="1.1" width="800" xmlns="http://www.w3.org/2000/svg" xmlns:svg="http://www.w3.org/2000/svg">
	<style type="text/css">

.x-axis-path, .y-gridline, .x-notch { fill:none; stroke: #a7a9ac; stroke-width:1; }



.y-gridline { stroke-width: 1; }

.y-axis-path, .y-axis-path2, .x-notch-left, .x-notch-right { display: none;}



.x-axis-label, .data-point-label {font-size: 12px; font-weight:normal; font-family: sans-serif; fill: #58595b; text-anchor:middle;}

.y-axis-label {font-size: 12px; font-family: helvetica; fill: #a7a9ac; text-anchor:end;}



.series-1-line { fill: none; stroke: #10b80c; stroke-width:2; }



.series-2-line { fill: none; stroke: #e90f0a; stroke-width: 2;}
</style>
	<rect fill="white" height="600" width="800" x="0" y="0"/>
	<g id="grid" transform="translate(70, 30)">
		<g class="x-axis" id="x_axis">
			<path class="x-axis-path" d="M 0 525 L 660 525"/>
			<path class="x-notch-left" d="M 0 525, L 0 535"/>
			<path class="x-notch-right" d="M 660 525, L 660 535"/>
		</g>
		<g class="y-axis" id="y_axis">
			<path class="y-axis-path" d="M 0 525 L 0 0"/>
			<path class="y-axis-path-2" d="M 660 525 L 660 0"/>
			<path class="y-gridline" d="M 0 525 L 660 525"/>
			<text class="y-axis-label" x="-5" y="525">-300</text>
			<path class="y-gridline" d="M 0 438 L 660 438"/>
			<text class="y-axis-label" x="-5" y="438"> 0</text>
			<path class="y-gridline" d="M 0 351 L 660 351"/>
			<text class="y-axis-label" x="-5" y="351">300</text>
			<path class="y-gridline" d="M 0 264 L 660 264"/>
			<text class="y-axis-label" x="-5" y="264">600</text>
			<path class="y-gridline" d="M 0 177 L 660 177"/>
			<text class="y-axis-label" x="-5" y="177">900</text>
			<path class="y-gridline" d="M 0 90 L 660 90"/>
			<text class="y-axis-label" x="-5" y="90">1200</text>
			<path class="y-gridline" d="M 0 3 L 660 3"/>
			<text class="y-axis-label" x="-5" y="3">1500</text>
		</g>
		<g>
			<path class="series-1-line" d="M 40 457.275109137 L 46 424.192031302 L 52 420.89493128 L 59 439.371793468 L 65 446.56901799 L 72 434.4835827 L 78 439.486288845 L 85 456.329685903 L 91 456.054271536 L 98 449.283507083 L 104 447.280081004 L 110 419.776980936 L 117 441.28359983 L 123 449.797327836 L 130 443.898582638 L 136 448.177546239 L 143 399.557697995 L 149 428.669436291 L 156 448.802247249 L 162 416.383993297 L 168 447.018508044 L 175 429.183372346 L 181 422.175319035 L 188 439.425151088 L 194 431.109126545 L 201 400.55332493 L 207 399.451089186 L 214 379.125227592 L 220 384.51914904 L 226 357.267519816 L 233 374.339788779 L 239 361.766285591 L 246 351.166499924 L 252 362.806376028 L 259 369.900406416 L 265 351.407018975 L 272 349.735774237 L 278 351.219848675 L 284 357.220136546 L 291 354.55096418 L 297 291.65204565 L 304 335.243246863 L 310 314.945979844 L 317 282.106532406 L 323 304.981655404 L 330 308.808409628 L 336 284.890239174 L 342 343.847450448 L 349 334.94765842 L 355 314.451382379 L 362 299.497957277 L 368 266.599706477 L 375 282.200969007 L 381 313.146334464 L 388 266.315492006 L 394 262.5 L 400 281.279526547 L 407 266.437020726 L 413 362.115086198 L 420 275.459725083 L 426 287.269439129 L 433 316.108952454 L 439 347.579397335 L 446 364.045991679 L 452 368.966949622 L 458 346.861075697 L 465 487.940063271 L 471 436.979610654 L 478 450.903247882 L 484 427.081122917 L 491 444.60433295 L 497 448.764536822 L 504 445.311665543 L 510 464.158181802 L 516 441.703407934 L 523 460.888908275 L 529 425.832343521 L 536 438.314837199 L 542 439.511582273 L 549 421.934028356 L 555 448.637365462 L 562 439.567274289 L 568 446.1439504 L 574 436.475909754 L 581 437.901180831 L 587 435.742329399 L 594 444.388653219 L 600 447.366678932 L 607 430.964846335 L 613 430.905044292 L 620 432.670452458"/>
			<path class="series-2-line" d="M 40 394.550486252 L 46 428.381107738 L 52 458.464456213 L 59 475.576475032 L 65 408.518976976 L 72 404.300364806 L 78 398.640493786 L 85 412.005239594 L 91 319.005082227 L 98 362.636263897 L 104 415.779753981 L 110 422.226457306 L 117 382.552877412 L 123 402.547413932 L 130 433.783769487 L 136 484.90949718 L 143 446.677176136 L 149 378.466671 L 156 429.592398693 L 162 427.103297144 L 168 379.935171227 L 175 429.619640069 L 181 397.728857968 L 188 403.887309523 L 194 396.209676111 L 201 384.208266148 L 207 386.619444692 L 214 442.645452477 L 220 387.118025226 L 226 410.571582987 L 233 399.434928335 L 239 370.138412165 L 246 370.243576547 L 252 363.430698446 L 259 323.757118552 L 265 329.915570106 L 272 342.415560603 L 278 289.770651054 L 284 263.356652585 L 291 262.885313427 L 297 271.349779142 L 304 237.72948642 L 310 199.208913606 L 317 206.232120471 L 323 279.264982693 L 330 198.371399672 L 336 230.184258767 L 342 193.969700114 L 349 198.686892818 L 355 213.781149247 L 362 184.772884847 L 368 223.503786425 L 375 194.495522025 L 381 188.835651004 L 388 186.346549455 L 394 117.271289009 L 400 98.3518365629 L 407 74.5321040251 L 413 234.617000823 L 420 92.9022943067 L 426 70.8120723896 L 433 123.955562474 L 439 148.850379086 L 446 176.051209859 L 452 126.865321551 L 458 303.380569246 L 465 226.810762776 L 471 419.179857828 L 478 404.584181934 L 484 432.649768018 L 491 429.872414698 L 497 431.995341471 L 504 407.599105393 L 510 434.511684396 L 516 462.86552225 L 523 391.772499413 L 529 418.685078416 L 536 415.331221557 L 542 452.620864284 L 549 394.499171102 L 555 432.36531737 L 562 407.392577751 L 568 369.736760248 L 574 415.673956079 L 581 394.736741242 L 587 427.126103878 L 594 403.88287488 L 600 444.343287079 L 607 438.971667829 L 613 469.919771613 L 620 463.395145283"/>
		</g>
		<text class="x-axis-label" x="40.0" y="540">0</text>
		<path class="x-notch" d="M 72.2222222222 525 L 72.2222222222 530"/>
		<text class="x-axis-label" x="104.444444444" y="540">10</text>
		<path class="x-notch" d="M 136.666666667 525 L 136.666666667 530"/>
		<text class="x-axis-label" x="168.888888889" y="540">20</text>
		<path class="x-notch" d="M 201.111111111 525 L 201.111111111 530"/>
		<text class="x-axis-label" x="233.333333333" y="540">30</text>
		<path class="x-notch" d="M 265.555555556 525 L 265.555555556 530"/>
		<text class="x-axis-label" x="297.777777778" y="540">40</text>
		<path class="x-notch" d="M 330.0 525 L 330.0 530"/>
		<text class="x-axis-label" x="362.222222222" y="540">50</text>
		<path class="x-notch" d="M 394.444444444 525 L 394.444444444 530"/>
		<text class="x-axis-label" x="426.666666667" y="540">60</text>
		<path class="x-notch" d="M 458.888888889 525 L 458.888888889 530"/>
		<text class="x-axis-label" x="491.111111111" y="540">70</text>
		<path class="x-notch" d="M 523.333333333 525 L 523.333333333 530"/>
		<text class="x-axis-label" x="555.555555556" y="540">80</text>
		<path class="x-notch" d="M 587.777777778 525 L 587.777777778 530"/>
		<text class="x-axis-label" x="620.0" y="540">90</text>
	</g>
</svg>
