<?xml version="1.0" ?>
<svg height="600" version="1.1" width="800" xmlns="http://www.w3.org/2000/svg" xmlns:svg="http://www.w3.org/2000/svg">
	<style type="text/css">

.x-axis-path, .y-gridline, .x-notch { fill:none; stroke: #a7a9ac; stroke-width:1; }



.y-gridline { stroke-width: 1; }

.y-axis-path, .y-axis-path2, .x-notch-left, .x-notch-right { display: none;}



.x-axis-label, .data-point-label {font-size: 12px; font-weight:normal; font-family: sans-serif; fill: #58595b; text-anchor:middle;}

.y-axis-label {font-size: 12px; font-family: helvetica; fill: #a7a9ac; text-anchor:end;}



.series-1-line { fill: none; stroke: #10b80c; stroke-width:2; }



.series-2-line { fill: none; stroke: #e90f0a; stroke-width: 2;}
</style>
	<rect fill="white" height="600" width="800" x="0" y="0"/>
	<g id="grid" transform="translate(70, 30)">
		<g class="x-axis" id="x_axis">
			<path class="x-axis-path" d="M 0 525 L 660 525"/>
			<path class="x-notch-left" d="M 0 525, L 0 535"/>
			<path class="x-notch-right" d="M 660 525, L 660 535"/>
		</g>
		<g class="y-axis" id="y_axis">
			<path class="y-axis-path" d="M 0 525 L 0 0"/>
			<path class="y-axis-path-2" d="M 660 525 L 660 0"/>
			<path class="y-gridline" d="M 0 525 L 660 525"/>
			<text class="y-axis-label" x="-5" y="525">-200</text>
			<path class="y-gridline" d="M 0 394 L 660 394"/>
			<text class="y-axis-label" x="-5" y="394"> 0</text>
			<path class="y-gridline" d="M 0 263 L 660 263"/>
			<text class="y-axis-label" x="-5" y="263">200</text>
			<path class="y-gridline" d="M 0 132 L 660 132"/>
			<text class="y-axis-label" x="-5" y="132">400</text>
			<path class="y-gridline" d="M 0 1 L 660 1"/>
			<text class="y-axis-label" x="-5" y="1">600</text>
		</g>
		<g>
			<path class="series-1-line" d="M 40 400.720892753 L 43 395.746592371 L 46 386.8084445 L 49 384.894192873 L 52 399.92839846 L 55 390.430746253 L 59 378.033882035 L 62 392.28258172 L 65 382.958425665 L 68 398.005705723 L 71 401.399481697 L 74 385.463794057 L 78 401.402213441 L 81 383.89634412 L 84 362.586011336 L 87 372.911124602 L 90 392.907195613 L 93 394.983563008 L 97 398.231029429 L 100 396.276931795 L 103 381.857467702 L 106 402.053183806 L 109 368.078462064 L 112 377.551659416 L 116 388.75400741 L 119 378.977640692 L 122 375.919269106 L 125 335.904556929 L 128 341.120665091 L 131 345.033476802 L 135 357.207071197 L 138 355.279745099 L 141 379.891726886 L 144 360.363880284 L 147 335.940370738 L 150 359.568654248 L 154 332.204841496 L 157 341.545426359 L 160 316.656216616 L 163 333.951890584 L 166 311.590411856 L 169 297.263921777 L 173 338.718727357 L 176 328.795428491 L 179 315.213768184 L 182 289.513526189 L 185 312.475841816 L 188 332.139447713 L 192 292.949464851 L 195 277.99789055 L 198 286.194147924 L 201 275.592844359 L 204 298.276653004 L 207 287.941197011 L 211 258.115855723 L 214 254.140403402 L 217 253.157137105 L 220 231.35454012 L 223 235.001089196 L 226 222.098056181 L 230 257.060245601 L 233 217.763799191 L 236 183.601884232 L 239 189.057483494 L 242 146.701610924 L 246 191.387678566 L 249 121.680635735 L 252 175.387258084 L 255 183.570233456 L 258 173.860069216 L 261 106.706491279 L 265 160.30644255 L 268 138.796879735 L 271 132.306148275 L 274 114.254264151 L 277 119.431148901 L 280 96.6707950494 L 284 45.9601281245 L 287 49.965291256 L 290 46.8270201264 L 293 103.499887091 L 296 53.9736011934 L 299 75.8851859382 L 303 89.7758941612 L 306 73.9597445395 L 309 23.9936998547 L 312 37.1644820601 L 315 49.5121952007 L 318 8.96433516009 L 322 53.7448295357 L 325 60.8100414218 L 328 62.0486050316 L 331 80.8212791347 L 334 98.7681862663 L 337 81.4088340309 L 341 56.0939776276 L 344 50.9337292166 L 347 60.526257056 L 350 98.4694258116 L 353 0.0 L 356 88.5345221117 L 360 123.750314758 L 363 141.551949992 L 366 83.1647009423 L 369 96.1908338441 L 372 187.944166141 L 375 136.63518653 L 379 208.939932256 L 382 165.345512994 L 385 196.650586161 L 388 189.72113357 L 391 190.573273933 L 394 154.496260302 L 398 146.994021373 L 401 146.449891269 L 404 92.4670786195 L 407 92.906439262 L 410 117.61243272 L 413 142.916738865 L 417 110.631114227 L 420 174.634816201 L 423 140.991936978 L 426 184.747849414 L 429 159.41991854 L 433 196.431064308 L 436 170.171940571 L 439 195.436193178 L 442 206.399672667 L 445 245.339614171 L 448 203.84810939 L 452 228.28721762 L 455 252.407765331 L 458 272.470661415 L 461 280.361640273 L 464 294.809985051 L 467 277.782890398 L 471 281.189740843 L 474 321.899924183 L 477 330.003415073 L 480 364.726528456 L 483 387.928957775 L 486 397.428719132 L 490 406.396785343 L 493 401.316436476 L 496 400.280249703 L 499 386.140122715 L 502 397.356167775 L 505 408.12000217 L 509 403.957356632 L 512 388.846190776 L 515 394.98041733 L 518 396.950736241 L 521 401.501499113 L 524 403.431972017 L 528 402.063112599 L 531 385.355823652 L 534 376.085003136 L 537 381.460702855 L 540 370.699600203 L 543 386.372379545 L 547 390.683858849 L 550 403.68239009 L 553 401.794702466 L 556 388.346692305 L 559 364.415446959 L 562 380.021401229 L 566 371.58859203 L 569 381.726927142 L 572 392.716970635 L 575 392.46566717 L 578 372.924331035 L 581 378.406909364 L 585 395.808631817 L 588 385.699799985 L 591 368.686194865 L 594 398.766210874 L 597 389.056254165 L 600 399.766753021 L 604 400.393514411 L 607 392.120089238 L 610 408.218307708 L 613 385.019025195 L 616 392.589990815 L 620 391.779805608"/>
			<path class="series-2-line" d="M 40 390.844562051 L 43 366.992563202 L 46 395.023384878 L 49 399.706937317 L 52 411.135256425 L 55 364.454816546 L 59 405.975171558 L 62 357.738247063 L 65 365.015940529 L 68 354.134646811 L 71 360.374683866 L 74 387.367849132 L 78 358.846396436 L 81 347.446274513 L 84 363.025219263 L 87 400.913776838 L 90 386.919513889 L 93 355.803920167 L 97 364.638098249 L 100 375.547589151 L 103 368.298092871 L 106 363.642737616 L 109 412.426687501 L 112 401.026565579 L 116 362.647376983 L 119 379.782806349 L 122 380.834561352 L 125 400.564131743 L 128 385.532212384 L 131 412.006549444 L 135 384.003924953 L 138 410.997090219 L 141 364.835478544 L 144 365.368405342 L 147 360.713050087 L 150 387.187387147 L 154 355.55296522 L 157 385.140271511 L 160 372.183664973 L 163 374.791904592 L 166 372.211862158 L 169 350.43517613 L 173 388.323733706 L 176 347.350404084 L 179 310.527700104 L 182 343.227975627 L 185 291.359253695 L 188 288.779211261 L 192 301.24518678 L 195 296.07100332 L 198 301.79221217 L 201 305.956936404 L 204 338.138383722 L 207 321.031151542 L 211 248.4093014 L 214 331.954741037 L 217 312.772196035 L 220 324.200515143 L 223 331.478208609 L 226 310.220350787 L 230 288.443664759 L 233 297.277842841 L 236 253.710372192 L 239 241.791422064 L 242 282.792948871 L 246 180.59789103 L 249 259.47387682 L 252 247.554926692 L 255 255.351448363 L 258 241.87601362 L 261 246.040737854 L 265 210.255690285 L 268 256.964327349 L 271 247.120690042 L 274 179.168293747 L 277 231.065212865 L 280 250.275955051 L 284 259.110133133 L 287 210.354380432 L 290 203.623712357 L 293 153.830303246 L 296 200.53894031 L 299 170.979831204 L 303 239.479252889 L 306 247.794602765 L 309 221.34846289 L 312 138.868876849 L 315 225.527285717 L 318 146.160668907 L 322 171.078521352 L 325 150.85831994 L 328 149.315933916 L 331 184.610350466 L 334 125.996861865 L 337 132.236898921 L 341 124.98740264 L 344 130.189783285 L 347 79.8775459686 L 350 159.791188169 L 353 172.775991893 L 356 150.48047766 L 360 210.678648061 L 363 255.83080051 L 366 207.593876014 L 369 289.582831036 L 372 210.216214226 L 375 251.736569238 L 379 252.269496035 L 382 162.526315121 L 385 266.306054762 L 388 284.479140538 L 391 221.715026296 L 394 234.181001815 L 398 179.718138856 L 401 172.987470781 L 404 226.959702719 L 407 127.358785904 L 410 167.841484506 L 413 175.638006177 L 417 183.434527848 L 420 204.201754651 L 423 180.868584007 L 426 183.476823626 L 429 198.53694017 L 433 201.145179789 L 436 219.837093771 L 439 213.6252539 L 442 232.835996087 L 445 217.804076727 L 448 225.081770193 L 452 185.664925187 L 455 216.289887889 L 458 232.387660844 L 461 306.075364582 L 464 267.177347781 L 467 241.768864316 L 471 225.699288546 L 474 298.868164078 L 477 339.35086268 L 480 354.92980743 L 483 366.876954743 L 486 351.326207178 L 490 378.319372444 L 493 391.304176167 L 496 400.657182454 L 499 390.294716942 L 502 390.308815534 L 505 400.180650027 L 509 391.37466913 L 512 390.869939517 L 515 394.515835546 L 518 400.237044397 L 521 367.564966059 L 524 379.512113372 L 528 380.04504017 L 531 406.000549025 L 534 425.211291211 L 537 405.509918004 L 540 394.109796081 L 543 407.094599805 L 547 391.54385224 L 550 376.511932881 L 553 377.044859678 L 556 400.406227507 L 559 399.901497894 L 562 382.794265714 L 566 392.666100206 L 569 378.671837257 L 572 393.731953802 L 575 402.047303678 L 578 384.421243292 L 581 408.820267531 L 585 374.591704578 L 588 403.141354459 L 591 395.891858178 L 594 387.085877281 L 597 393.844742542 L 600 391.783528313 L 604 404.768332037 L 607 389.736412677 L 610 376.779806139 L 613 403.772971404 L 616 405.862382818 L 620 400.169371153"/>
		</g>
		<text class="x-axis-label" x="40.0" y="540">0</text>
		<path class="x-notch" d="M 55.8469945355 525 L 55.8469945355 530"/>
		<text class="x-axis-label" x="71.693989071" y="540">10</text>
		<path class="x-notch" d="M 87.5409836066 525 L 87.5409836066 530"/>
		<text class="x-axis-label" x="103.387978142" y="540">20</text>
		<path class="x-notch" d="M 119.234972678 525 L 119.234972678 530"/>
		<text class="x-axis-label" x="135.081967213" y="540">30</text>
		<path class="x-notch" d="M 150.928961749 525 L 150.928961749 530"/>
		<text class="x-axis-label" x="166.775956284" y="540">40</text>
		<path class="x-notch" d="M 182.62295082 525 L 182.62295082 530"/>
		<text class="x-axis-label" x="198.469945355" y="540">50</text>
		<path class="x-notch" d="M 214.316939891 525 L 214.316939891 530"/>
		<text class="x-axis-label" x="230.163934426" y="540">60</text>
		<path class="x-notch" d="M 246.010928962 525 L 246.010928962 530"/>
		<text class="x-axis-label" x="261.857923497" y="540">70</text>
		<path class="x-notch" d="M 277.704918033 525 L 277.704918033 530"/>
		<text class="x-axis-label" x="293.551912568" y="540">80</text>
		<path class="x-notch" d="M 309.398907104 525 L 309.398907104 530"/>
		<text class="x-axis-label" x="325.245901639" y="540">90</text>
		<path class="x-notch" d="M 341.092896175 525 L 341.092896175 530"/>
		<text class="x-axis-label" x="356.93989071" y="540">100</text>
		<path class="x-notch" d="M 372.786885246 525 L 372.786885246 530"/>
		<text class="x-axis-label" x="388.633879781" y="540">110</text>
		<path class="x-notch" d="M 404.480874317 525 L 404.480874317 530"/>
		<text class="x-axis-label" x="420.327868852" y="540">120</text>
		<path class="x-notch" d="M 436.174863388 525 L 436.174863388 530"/>
		<text class="x-axis-label" x="452.021857923" y="540">130</text>
		<path class="x-notch" d="M 467.868852459 525 L 467.868852459 530"/>
		<text class="x-axis-label" x="483.715846995" y="540">140</text>
		<path class="x-notch" d="M 499.56284153 525 L 499.56284153 530"/>
		<text class="x-axis-label" x="515.409836066" y="540">150</text>
		<path class="x-notch" d="M 531.256830601 525 L 531.256830601 530"/>
		<text class="x-axis-label" x="547.103825137" y="540">160</text>
		<path class="x-notch" d="M 562.950819672 525 L 562.950819672 530"/>
		<text class="x-axis-label" x="578.797814208" y="540">170</text>
		<path class="x-notch" d="M 594.644808743 525 L 594.644808743 530"/>
		<text class="x-axis-label" x="610.491803279" y="540">180</text>
		<path class="x-notch" d="M 626.338797814 525 L 626.338797814 530"/>
	</g>
</svg>
