<?xml version="1.0" ?>
<svg height="600" version="1.1" width="800" xmlns="http://www.w3.org/2000/svg" xmlns:svg="http://www.w3.org/2000/svg">
	<style type="text/css">

.x-axis-path, .y-gridline, .x-notch { fill:none; stroke: #a7a9ac; stroke-width:1; }



.y-gridline { stroke-width: 1; }

.y-axis-path, .y-axis-path2, .x-notch-left, .x-notch-right { display: none;}



.x-axis-label, .data-point-label {font-size: 12px; font-weight:normal; font-family: sans-serif; fill: #58595b; text-anchor:middle;}

.y-axis-label {font-size: 12px; font-family: helvetica; fill: #a7a9ac; text-anchor:end;}



.series-1-line { fill: none; stroke: #10b80c; stroke-width:2; }



.series-2-line { fill: none; stroke: #e90f0a; stroke-width: 2;}
</style>
	<rect fill="white" height="600" width="800" x="0" y="0"/>
	<g id="grid" transform="translate(70, 30)">
		<g class="x-axis" id="x_axis">
			<path class="x-axis-path" d="M 0 525 L 660 525"/>
			<path class="x-notch-left" d="M 0 525, L 0 535"/>
			<path class="x-notch-right" d="M 660 525, L 660 535"/>
		</g>
		<g class="y-axis" id="y_axis">
			<path class="y-axis-path" d="M 0 525 L 0 0"/>
			<path class="y-axis-path-2" d="M 660 525 L 660 0"/>
			<path class="y-gridline" d="M 0 525 L 660 525"/>
			<text class="y-axis-label" x="-5" y="525">-250</text>
			<path class="y-gridline" d="M 0 394 L 660 394"/>
			<text class="y-axis-label" x="-5" y="394"> 0</text>
			<path class="y-gridline" d="M 0 263 L 660 263"/>
			<text class="y-axis-label" x="-5" y="263">250</text>
			<path class="y-gridline" d="M 0 132 L 660 132"/>
			<text class="y-axis-label" x="-5" y="132">500</text>
			<path class="y-gridline" d="M 0 1 L 660 1"/>
			<text class="y-axis-label" x="-5" y="1">750</text>
		</g>
		<g>
			<path class="series-1-line" d="M 40 417.109625518 L 44 383.656619929 L 48 390.471273018 L 52 396.654290094 L 56 380.857064253 L 60 347.591823687 L 64 408.436034505 L 68 392.871098848 L 72 385.823930138 L 76 403.945213004 L 80 395.205743 L 84 360.513453748 L 89 404.111240179 L 93 378.755083441 L 97 384.762243387 L 101 348.974428068 L 105 393.290657319 L 109 401.167701471 L 113 383.124888802 L 117 392.626756193 L 121 366.464141781 L 125 371.397347927 L 129 342.269840976 L 133 342.976780919 L 138 339.128002979 L 142 319.568746146 L 146 338.894969623 L 150 355.488935901 L 154 306.62504708 L 158 277.83993517 L 162 285.683326583 L 166 262.318376487 L 170 254.176717178 L 174 251.753434719 L 178 260.946214652 L 182 230.568206459 L 187 190.056582143 L 191 224.693248372 L 195 255.380808898 L 199 189.922495924 L 203 165.850665744 L 207 143.404003959 L 211 169.101812566 L 215 175.474320446 L 219 135.161506154 L 223 135.138785698 L 227 112.848479713 L 231 133.711166419 L 236 154.011248371 L 240 106.087565287 L 244 112.781586252 L 248 104.162575793 L 252 171.876604847 L 256 100.533722269 L 260 144.61817907 L 264 88.5964390888 L 268 137.869630411 L 272 102.225572688 L 276 78.75 L 280 136.452598258 L 285 197.640239586 L 289 232.33316629 L 293 108.209846599 L 297 161.796973823 L 301 160.004809642 L 305 154.683422387 L 309 209.055952751 L 313 218.094620399 L 317 239.324035665 L 321 280.466380242 L 325 234.478161059 L 330 310.744472689 L 334 234.235290749 L 338 246.294075943 L 342 260.71908009 L 346 225.20773496 L 350 297.092460055 L 354 297.313937675 L 358 269.956909918 L 362 264.679012355 L 366 270.741742464 L 370 319.826305873 L 374 334.528988256 L 379 245.662693367 L 383 344.351738279 L 387 306.208231275 L 391 302.424515295 L 395 334.971260183 L 399 338.002137432 L 403 337.017466393 L 407 348.866741719 L 411 386.943235543 L 415 360.260643178 L 419 345.237948055 L 423 374.520895055 L 428 385.440491911 L 432 359.808037562 L 436 348.468505218 L 440 388.282860967 L 444 360.836782886 L 448 387.26545994 L 452 388.924340933 L 456 369.719732189 L 460 390.728074849 L 464 379.078764735 L 468 363.126736298 L 472 348.745341562 L 477 384.865316951 L 481 388.935632371 L 485 392.774002763 L 489 355.647671349 L 493 399.865531056 L 497 368.535926969 L 501 378.668912638 L 505 404.124076373 L 509 399.77672017 L 513 380.870499039 L 517 388.592913173 L 521 404.51140859 L 526 391.147707179 L 530 385.571939737 L 534 403.814717617 L 538 393.912933803 L 542 423.638371168 L 546 382.341343713 L 550 400.141113494 L 554 406.86757915 L 558 410.153009164 L 562 396.955500506 L 566 408.106352077 L 570 411.280986922 L 575 392.341630788 L 579 398.260430723 L 583 418.781240123 L 587 397.839804923 L 591 392.82802286 L 595 391.876486826 L 599 419.754475144 L 603 396.036257584 L 607 394.631013605 L 611 384.110364561 L 615 408.746472418 L 620 385.227582615"/>
			<path class="series-2-line" d="M 40 357.163433165 L 44 423.610243103 L 48 433.96915577 L 52 340.78118117 L 56 378.752597109 L 60 415.86112232 L 64 360.208894354 L 68 395.591638112 L 72 380.926719689 L 76 444.784857445 L 80 458.595333022 L 84 499.586866506 L 89 475.861595448 L 93 440.055854208 L 97 458.612228784 L 101 468.539696088 L 105 383.117738032 L 109 429.718061244 L 113 481.495728818 L 117 392.19076249 L 121 465.540698246 L 125 399.102336189 L 129 463.823364673 L 133 366.752381799 L 138 475.912282735 L 142 444.420995132 L 146 421.127169437 L 150 420.26850265 L 154 434.078978227 L 158 445.300781621 L 162 446.599341653 L 166 403.027583868 L 170 458.256814352 L 174 412.096384385 L 178 387.939667963 L 182 412.104832266 L 187 418.580736661 L 191 362.497063332 L 195 333.59444791 L 199 311.163512942 L 203 378.041768244 L 207 342.667472368 L 211 267.600203039 L 215 313.337635523 L 219 288.749473737 L 223 238.274590134 L 227 347.003045707 L 231 201.610182108 L 236 211.537649412 L 240 213.267654807 L 244 326.742009379 L 248 220.61067387 L 252 153.309421086 L 256 207.675760843 L 260 175.321582512 L 264 161.519554817 L 268 161.092333394 L 272 165.41101097 L 276 122.270698549 L 280 85.6020665823 L 285 77.4088286142 L 289 113.654463099 L 293 139.97685422 L 297 89.0705252537 L 301 95.9778750122 L 305 81.3129565898 L 309 25.6607286237 L 313 76.1440601077 L 317 92.5432078658 L 321 115.414036078 L 325 67.5278246572 L 330 79.6125187791 L 334 132.253077081 L 338 182.736408565 L 342 116.298046509 L 346 116.733715813 L 350 55.041252756 L 354 84.3837614226 L 358 192.680771631 L 362 103.807250667 L 366 147.387456333 L 370 92.1666737303 L 374 134.021097942 L 379 179.327085062 L 383 58.5266071899 L 387 133.170879037 L 391 114.191506978 L 395 148.711360008 L 399 126.711870404 L 403 125.421758254 L 407 242.347675735 L 411 120.684307135 L 415 191.014125346 L 419 242.791792921 L 423 247.973361225 L 428 324.774859889 L 432 315.28728583 L 436 297.170804499 L 440 274.739869531 L 444 329.537654652 L 448 325.65887032 L 452 282.087112535 L 456 313.155402656 L 460 347.243810322 L 464 326.970102173 L 468 372.276089294 L 472 391.263909233 L 477 423.626535445 L 481 357.188173389 L 485 326.991221876 L 489 343.821814998 L 493 374.890105119 L 497 379.208782696 L 501 342.971596093 L 505 339.524257124 L 509 374.907000882 L 513 376.205560913 L 517 446.966824487 L 521 383.117134612 L 526 394.77038337 L 530 386.145700039 L 534 431.020241796 L 538 373.642232375 L 542 377.098019225 L 546 388.319822619 L 550 384.441038287 L 554 425.432571772 L 558 414.219216258 L 562 450.464850743 L 566 423.719462139 L 570 396.111182808 L 575 402.587087203 L 579 434.949713415 L 583 393.535182448 L 587 426.329254024 L 591 396.995193239 L 595 390.527736725 L 599 396.140750393 L 603 424.620368332 L 607 404.778105546 L 611 410.391119214 L 615 366.387916065 L 620 414.282575368"/>
		</g>
		<text class="x-axis-label" x="40.0" y="540">0</text>
		<path class="x-notch" d="M 60.4225352113 525 L 60.4225352113 530"/>
		<text class="x-axis-label" x="80.8450704225" y="540">10</text>
		<path class="x-notch" d="M 101.267605634 525 L 101.267605634 530"/>
		<text class="x-axis-label" x="121.690140845" y="540">20</text>
		<path class="x-notch" d="M 142.112676056 525 L 142.112676056 530"/>
		<text class="x-axis-label" x="162.535211268" y="540">30</text>
		<path class="x-notch" d="M 182.957746479 525 L 182.957746479 530"/>
		<text class="x-axis-label" x="203.38028169" y="540">40</text>
		<path class="x-notch" d="M 223.802816901 525 L 223.802816901 530"/>
		<text class="x-axis-label" x="244.225352113" y="540">50</text>
		<path class="x-notch" d="M 264.647887324 525 L 264.647887324 530"/>
		<text class="x-axis-label" x="285.070422535" y="540">60</text>
		<path class="x-notch" d="M 305.492957746 525 L 305.492957746 530"/>
		<text class="x-axis-label" x="325.915492958" y="540">70</text>
		<path class="x-notch" d="M 346.338028169 525 L 346.338028169 530"/>
		<text class="x-axis-label" x="366.76056338" y="540">80</text>
		<path class="x-notch" d="M 387.183098592 525 L 387.183098592 530"/>
		<text class="x-axis-label" x="407.605633803" y="540">90</text>
		<path class="x-notch" d="M 428.028169014 525 L 428.028169014 530"/>
		<text class="x-axis-label" x="448.450704225" y="540">100</text>
		<path class="x-notch" d="M 468.873239437 525 L 468.873239437 530"/>
		<text class="x-axis-label" x="489.295774648" y="540">110</text>
		<path class="x-notch" d="M 509.718309859 525 L 509.718309859 530"/>
		<text class="x-axis-label" x="530.14084507" y="540">120</text>
		<path class="x-notch" d="M 550.563380282 525 L 550.563380282 530"/>
		<text class="x-axis-label" x="570.985915493" y="540">130</text>
		<path class="x-notch" d="M 591.408450704 525 L 591.408450704 530"/>
		<text class="x-axis-label" x="611.830985915" y="540">140</text>
		<path class="x-notch" d="M 632.253521127 525 L 632.253521127 530"/>
	</g>
</svg>
