<?xml version="1.0" ?>
<svg height="600" version="1.1" width="800" xmlns="http://www.w3.org/2000/svg" xmlns:svg="http://www.w3.org/2000/svg">
	<style type="text/css">
		

.x-axis-path, .y-gridline, .x-notch { fill:none; stroke: #a7a9ac; stroke-width:1; }



.y-gridline { stroke-width: 1; }

.y-axis-path, .y-axis-path2, .x-notch-left, .x-notch-right { display: none;}



.x-axis-label, .data-point-label {font-size: 12px; font-weight:normal; font-family: sans-serif; fill: #58595b; text-anchor:middle;}

.y-axis-label {font-size: 12px; font-family: helvetica; fill: #a7a9ac; text-anchor:end;}



.series-1-line { fill: none; stroke: #10b80c; stroke-width:2; }



.series-2-line { fill: none; stroke: #e90f0a; stroke-width: 2;}

	</style>
	<rect fill="white" height="600" width="800" x="0" y="0"/>
	<g id="grid" transform="translate(70, 30)">
		<g class="x-axis" id="x_axis">
			<path class="x-axis-path" d="M 0 525 L 660 525"/>
			<path class="x-notch-left" d="M 0 525, L 0 535"/>
			<path class="x-notch-right" d="M 660 525, L 660 535"/>
		</g>
		<g class="y-axis" id="y_axis">
			<path class="y-axis-path" d="M 0 525 L 0 0"/>
			<path class="y-axis-path-2" d="M 660 525 L 660 0"/>
			<path class="y-gridline" d="M 0 525 L 660 525"/>
			<text class="y-axis-label" x="-5" y="525">
				-200
			</text>
			<path class="y-gridline" d="M 0 394 L 660 394"/>
			<text class="y-axis-label" x="-5" y="394">
				 0
			</text>
			<path class="y-gridline" d="M 0 263 L 660 263"/>
			<text class="y-axis-label" x="-5" y="263">
				200
			</text>
			<path class="y-gridline" d="M 0 132 L 660 132"/>
			<text class="y-axis-label" x="-5" y="132">
				400
			</text>
			<path class="y-gridline" d="M 0 1 L 660 1"/>
			<text class="y-axis-label" x="-5" y="1">
				600
			</text>
		</g>
		<g>
			<path class="series-1-line" d="M 40 407.424029421 L 46 380.075995665 L 53 394.727889596 L 60 393.523103736 L 67 391.655430994 L 74 407.472327194 L 80 400.716787246 L 87 392.909878558 L 94 387.082764442 L 101 392.035024439 L 108 397.953391087 L 115 391.917776438 L 121 399.427751335 L 128 409.693893447 L 135 384.438992255 L 142 363.63604291 L 149 370.530268891 L 156 377.206389425 L 162 370.943507717 L 169 340.971411265 L 176 336.195665888 L 183 334.574174498 L 190 307.746727118 L 196 301.246973437 L 203 255.560349931 L 210 260.436952755 L 217 242.731366747 L 224 222.601056966 L 231 156.634173264 L 237 153.042492217 L 244 153.826958075 L 251 147.118851629 L 258 116.824621115 L 265 146.906884392 L 272 145.20958806 L 278 147.055027572 L 285 85.9662583929 L 292 94.0158817284 L 299 93.3225206342 L 306 54.0109006656 L 312 53.5922401317 L 319 55.4564461696 L 326 38.963295933 L 333 8.44209389594 L 340 62.877692274 L 347 118.355054477 L 353 91.196015888 L 360 57.9372653941 L 367 18.9569410986 L 374 57.0907827154 L 381 16.1874067294 L 388 26.387348814 L 394 23.8848650943 L 401 26.6302112299 L 408 38.3362039391 L 415 0.0 L 422 50.0878229141 L 428 182.944889979 L 435 147.630244436 L 442 163.437535721 L 449 135.890606346 L 456 132.137858269 L 463 175.841072731 L 469 212.089839012 L 476 193.948780949 L 483 192.999781356 L 490 259.995652801 L 497 307.355532173 L 504 338.252439984 L 510 314.484675123 L 517 322.827913313 L 524 349.206669251 L 531 362.040131177 L 538 367.617597238 L 544 356.012314207 L 551 362.735868242 L 558 385.117206451 L 565 407.186015511 L 572 385.65368372 L 579 400.826607332 L 585 400.938581393 L 592 391.587645726 L 599 385.087892045 L 606 391.14841143 L 613 400.391704011 L 620 402.549672671"/>
			<path class="series-2-line" d="M 40 375.574546033 L 46 399.336830079 L 53 397.609148195 L 60 391.448428759 L 67 402.281019942 L 74 391.687262953 L 80 387.0042227 L 87 387.86247939 L 94 396.847971592 L 101 395.489709505 L 108 387.481891088 L 115 385.754209204 L 121 403.236356717 L 128 394.120278912 L 135 393.870276213 L 142 390.664915145 L 149 403.344605308 L 156 392.381428523 L 162 397.303302969 L 169 398.161559658 L 176 401.605754919 L 183 402.833431404 L 190 388.545476454 L 196 387.187214367 L 203 390.261989832 L 210 400.725161219 L 217 389.761984434 L 224 396.900377656 L 231 394.064436385 L 237 400.094570219 L 244 400.583407112 L 251 402.919342985 L 258 396.389203752 L 265 393.553262481 L 272 392.195000393 L 278 400.072233208 L 285 385.414858462 L 292 376.298780656 L 299 362.380245502 L 306 379.492973219 L 312 365.943857861 L 319 356.45836026 L 326 343.648084494 L 333 372.582245685 L 340 374.179341966 L 347 357.305448443 L 353 337.106776756 L 360 360.869060802 L 367 355.077761161 L 374 364.063253364 L 381 341.278643104 L 388 342.506319589 L 394 337.084439745 L 401 348.65587052 L 408 345.450509452 L 415 340.028629608 L 422 342.733985278 L 428 371.298726672 L 435 355.533092538 L 442 332.009642686 L 449 357.988445508 L 456 360.324381381 L 463 336.062091937 L 469 336.55092883 L 476 350.338878382 L 483 347.50293711 L 490 349.100033391 L 497 359.563204778 L 504 359.313202079 L 510 357.585520196 L 517 345.883503818 L 524 358.932613778 L 531 381.586638435 L 538 383.553154512 L 544 386.258510182 L 551 382.314309522 L 558 385.019665191 L 565 393.266317802 L 572 388.58327755 L 579 392.027472811 L 585 396.579927461 L 592 393.374566393 L 599 392.016304306 L 606 390.658042218 L 613 397.057595849 L 620 399.393531722"/>
		</g>
		<text class="x-axis-label" x="40.0" y="540">
			0
		</text>
		<path class="x-notch" d="M 74.1176470588 525 L 74.1176470588 530"/>
		<text class="x-axis-label" x="108.235294118" y="540">
			10
		</text>
		<path class="x-notch" d="M 142.352941176 525 L 142.352941176 530"/>
		<text class="x-axis-label" x="176.470588235" y="540">
			20
		</text>
		<path class="x-notch" d="M 210.588235294 525 L 210.588235294 530"/>
		<text class="x-axis-label" x="244.705882353" y="540">
			30
		</text>
		<path class="x-notch" d="M 278.823529412 525 L 278.823529412 530"/>
		<text class="x-axis-label" x="312.941176471" y="540">
			40
		</text>
		<path class="x-notch" d="M 347.058823529 525 L 347.058823529 530"/>
		<text class="x-axis-label" x="381.176470588" y="540">
			50
		</text>
		<path class="x-notch" d="M 415.294117647 525 L 415.294117647 530"/>
		<text class="x-axis-label" x="449.411764706" y="540">
			60
		</text>
		<path class="x-notch" d="M 483.529411765 525 L 483.529411765 530"/>
		<text class="x-axis-label" x="517.647058824" y="540">
			70
		</text>
		<path class="x-notch" d="M 551.764705882 525 L 551.764705882 530"/>
		<text class="x-axis-label" x="585.882352941" y="540">
			80
		</text>
		<path class="x-notch" d="M 620.0 525 L 620.0 530"/>
	</g>
</svg>
