<?xml version="1.0" ?>
<svg height="600" version="1.1" width="800" xmlns="http://www.w3.org/2000/svg" xmlns:svg="http://www.w3.org/2000/svg">
	<style type="text/css">
		

.x-axis-path, .y-gridline, .x-notch { fill:none; stroke: #a7a9ac; stroke-width:1; }



.y-gridline { stroke-width: 1; }

.y-axis-path, .y-axis-path2, .x-notch-left, .x-notch-right { display: none;}



.x-axis-label, .data-point-label {font-size: 12px; font-weight:normal; font-family: sans-serif; fill: #58595b; text-anchor:middle;}

.y-axis-label {font-size: 12px; font-family: helvetica; fill: #a7a9ac; text-anchor:end;}



.series-1-line { fill: none; stroke: #10b80c; stroke-width:2; }



.series-2-line { fill: none; stroke: #e90f0a; stroke-width: 2;}

	</style>
	<rect fill="white" height="600" width="800" x="0" y="0"/>
	<g id="grid" transform="translate(70, 30)">
		<g class="x-axis" id="x_axis">
			<path class="x-axis-path" d="M 0 525 L 660 525"/>
			<path class="x-notch-left" d="M 0 525, L 0 535"/>
			<path class="x-notch-right" d="M 660 525, L 660 535"/>
		</g>
		<g class="y-axis" id="y_axis">
			<path class="y-axis-path" d="M 0 525 L 0 0"/>
			<path class="y-axis-path-2" d="M 660 525 L 660 0"/>
			<path class="y-gridline" d="M 0 525 L 660 525"/>
			<text class="y-axis-label" x="-5" y="525">
				-200
			</text>
			<path class="y-gridline" d="M 0 394 L 660 394"/>
			<text class="y-axis-label" x="-5" y="394">
				 0
			</text>
			<path class="y-gridline" d="M 0 263 L 660 263"/>
			<text class="y-axis-label" x="-5" y="263">
				200
			</text>
			<path class="y-gridline" d="M 0 132 L 660 132"/>
			<text class="y-axis-label" x="-5" y="132">
				400
			</text>
			<path class="y-gridline" d="M 0 1 L 660 1"/>
			<text class="y-axis-label" x="-5" y="1">
				600
			</text>
		</g>
		<g>
			<path class="series-1-line" d="M 40 379.142188599 L 48 398.091576214 L 57 414.223234049 L 66 388.919876286 L 75 379.13291271 L 83 353.13417541 L 92 378.364635333 L 101 334.640206954 L 110 318.510010995 L 119 351.598007946 L 127 318.312986649 L 136 327.455992998 L 145 332.142451127 L 154 338.592047848 L 163 315.560147051 L 171 334.6088746 L 180 307.654498755 L 189 264.265076391 L 198 265.997478593 L 206 220.435745552 L 215 209.072317256 L 224 241.651221251 L 233 207.695800634 L 242 205.654640866 L 250 204.42040021 L 259 199.114577782 L 268 201.020679634 L 277 155.794146252 L 286 211.685208676 L 294 186.840983434 L 303 186.400881312 L 312 205.03985584 L 321 166.218521272 L 330 128.774971556 L 338 128.856549321 L 347 65.7798110646 L 356 138.292012944 L 365 124.011514935 L 373 166.347227051 L 382 162.08379617 L 391 0.0 L 400 27.1297310162 L 409 99.2569664468 L 417 50.492730821 L 426 12.8752878096 L 435 20.7524361718 L 444 170.909156354 L 453 261.184616461 L 461 231.648176917 L 470 267.454757358 L 479 306.997719911 L 488 379.435368429 L 496 385.003492677 L 505 384.824230499 L 514 390.206068164 L 523 395.227919598 L 532 403.477253833 L 540 409.194291159 L 549 398.985181275 L 558 412.050856318 L 567 403.629284309 L 576 400.594918847 L 584 395.736029299 L 593 406.08312085 L 602 395.923777756 L 611 400.970415762 L 620 383.896974544"/>
			<path class="series-2-line" d="M 40 391.813549048 L 48 387.80769678 L 57 389.127084631 L 66 397.224050812 L 75 401.44811509 L 83 385.823557111 L 92 383.754155795 L 101 395.724023881 L 110 388.813495185 L 119 388.196432083 L 127 395.325172789 L 136 391.80343326 L 145 366.012507783 L 154 386.212292414 L 163 379.785876457 L 171 379.168813355 L 180 380.488201205 L 189 377.934687151 L 198 378.769962263 L 206 375.248222733 L 215 379.956399749 L 224 364.33184177 L 233 362.746553193 L 242 366.97061747 L 250 377.488147342 L 259 381.228098882 L 268 373.833457448 L 277 374.668732561 L 286 385.186262432 L 294 378.275733737 L 303 359.262386592 L 312 347.026617779 L 321 349.314231105 L 330 344.340153361 L 338 357.278246922 L 347 348.431267275 L 356 352.655331553 L 365 359.299959521 L 373 350.937092611 L 382 324.177941659 L 391 335.179584268 L 400 338.919535808 L 409 327.651992471 L 417 332.844282225 L 426 317.219724246 L 435 341.292410781 L 444 373.110901123 L 453 381.691980043 L 461 370.424436706 L 470 379.973741101 L 479 391.943609187 L 488 388.905982395 L 496 395.550610363 L 505 392.512983571 L 514 390.443582255 L 523 387.890068202 L 532 391.630019741 L 540 393.917633067 L 549 388.459442586 L 558 396.07229603 L 567 394.97112019 L 576 384.187689591 L 584 393.736993986 L 593 391.183479932 L 602 396.859882424 L 611 390.433466467 L 620 398.530432648"/>
		</g>
		<text class="x-axis-label" x="40.0" y="540">
			0
		</text>
		<path class="x-notch" d="M 83.9393939394 525 L 83.9393939394 530"/>
		<text class="x-axis-label" x="127.878787879" y="540">
			10
		</text>
		<path class="x-notch" d="M 171.818181818 525 L 171.818181818 530"/>
		<text class="x-axis-label" x="215.757575758" y="540">
			20
		</text>
		<path class="x-notch" d="M 259.696969697 525 L 259.696969697 530"/>
		<text class="x-axis-label" x="303.636363636" y="540">
			30
		</text>
		<path class="x-notch" d="M 347.575757576 525 L 347.575757576 530"/>
		<text class="x-axis-label" x="391.515151515" y="540">
			40
		</text>
		<path class="x-notch" d="M 435.454545455 525 L 435.454545455 530"/>
		<text class="x-axis-label" x="479.393939394" y="540">
			50
		</text>
		<path class="x-notch" d="M 523.333333333 525 L 523.333333333 530"/>
		<text class="x-axis-label" x="567.272727273" y="540">
			60
		</text>
		<path class="x-notch" d="M 611.212121212 525 L 611.212121212 530"/>
	</g>
</svg>
