<?xml version="1.0" ?>
<svg height="600" version="1.1" width="800" xmlns="http://www.w3.org/2000/svg" xmlns:svg="http://www.w3.org/2000/svg">
	<style type="text/css">

.x-axis-path, .y-gridline, .x-notch { fill:none; stroke: #a7a9ac; stroke-width:1; }



.y-gridline { stroke-width: 1; }

.y-axis-path, .y-axis-path2, .x-notch-left, .x-notch-right { display: none;}



.x-axis-label, .data-point-label {font-size: 12px; font-weight:normal; font-family: sans-serif; fill: #58595b; text-anchor:middle;}

.y-axis-label {font-size: 12px; font-family: helvetica; fill: #a7a9ac; text-anchor:end;}



.series-1-line { fill: none; stroke: #10b80c; stroke-width:2; }



.series-2-line { fill: none; stroke: #e90f0a; stroke-width: 2;}
</style>
	<rect fill="white" height="600" width="800" x="0" y="0"/>
	<g id="grid" transform="translate(70, 30)">
		<g class="x-axis" id="x_axis">
			<path class="x-axis-path" d="M 0 525 L 660 525"/>
			<path class="x-notch-left" d="M 0 525, L 0 535"/>
			<path class="x-notch-right" d="M 660 525, L 660 535"/>
		</g>
		<g class="y-axis" id="y_axis">
			<path class="y-axis-path" d="M 0 525 L 0 0"/>
			<path class="y-axis-path-2" d="M 660 525 L 660 0"/>
			<path class="y-gridline" d="M 0 525 L 660 525"/>
			<text class="y-axis-label" x="-5" y="525">-200</text>
			<path class="y-gridline" d="M 0 394 L 660 394"/>
			<text class="y-axis-label" x="-5" y="394"> 0</text>
			<path class="y-gridline" d="M 0 263 L 660 263"/>
			<text class="y-axis-label" x="-5" y="263">200</text>
			<path class="y-gridline" d="M 0 132 L 660 132"/>
			<text class="y-axis-label" x="-5" y="132">400</text>
			<path class="y-gridline" d="M 0 1 L 660 1"/>
			<text class="y-axis-label" x="-5" y="1">600</text>
		</g>
		<g>
			<path class="series-1-line" d="M 40 402.938794442 L 45 398.575891372 L 51 403.442951751 L 56 354.948152726 L 62 404.869678783 L 67 417.838821128 L 73 428.858301678 L 79 348.093826883 L 84 406.049175413 L 90 414.67637401 L 95 333.159444949 L 101 381.201168536 L 106 318.21189259 L 112 353.674138028 L 118 330.372958324 L 123 407.7454665 L 129 335.184396358 L 134 367.911462541 L 140 397.801493507 L 145 434.015659933 L 151 403.330722782 L 157 426.7600993 L 162 437.984891608 L 168 355.032380065 L 173 417.363268814 L 179 381.858571456 L 185 396.878165007 L 190 418.256023765 L 196 341.798296417 L 201 335.179630382 L 207 315.946289897 L 212 335.376086691 L 218 272.420940492 L 224 95.2900585426 L 229 208.042848959 L 235 104.202932264 L 240 139.426269473 L 246 149.727958781 L 251 60.7926092478 L 257 116.013845078 L 263 48.8196776488 L 268 12.6990450133 L 274 71.5780298209 L 279 28.9626129905 L 285 51.127055761 L 290 0.0 L 296 108.719080945 L 302 120.388626519 L 307 112.709805219 L 313 102.398727183 L 318 27.8213355825 L 324 183.817581978 L 330 24.7360034082 L 335 82.2471319501 L 341 41.7856221205 L 346 9.83575122146 L 352 82.661003889 L 357 90.433892257 L 363 105.351096567 L 369 58.6678405184 L 374 109.034653118 L 380 133.420729106 L 385 89.3691965161 L 391 195.627736015 L 396 270.367454177 L 402 140.376685413 L 408 283.827583406 L 413 159.682600367 L 419 316.73846875 L 424 188.935736734 L 430 304.730874127 L 435 243.9984277 L 441 273.819665895 L 447 354.576351794 L 452 334.556960574 L 458 335.322051988 L 463 406.301098655 L 469 376.231563503 L 475 343.017292134 L 480 373.796296354 L 486 357.674095617 L 491 395.016143525 L 497 369.185629604 L 502 345.542619154 L 508 395.874768729 L 514 352.336782176 L 519 372.381447693 L 525 318.450953183 L 530 367.997052024 L 536 370.881387414 L 541 376.056148793 L 547 362.942165286 L 553 388.900876022 L 558 375.718099744 L 564 377.542813146 L 569 408.082375859 L 575 401.190138571 L 580 363.531534213 L 586 409.864104064 L 592 385.913392613 L 597 420.35014581 L 603 411.030430268 L 608 357.715337759 L 614 371.094570346 L 620 414.521312208"/>
			<path class="series-2-line" d="M 40 395.34983189 L 45 389.824063331 L 51 400.296613669 L 56 416.101936973 L 62 365.247598206 L 67 411.716366063 L 73 346.19690164 L 79 404.66440867 L 84 400.471833352 L 90 396.279258035 L 95 416.084161064 L 101 398.559653332 L 106 387.701111807 L 112 408.839208077 L 118 393.981086829 L 123 428.451115513 L 129 402.927448332 L 134 382.736554118 L 140 389.209524732 L 145 397.015688588 L 151 390.156726787 L 157 416.627596023 L 162 371.106030221 L 168 406.909252147 L 173 396.050710622 L 179 413.189227168 L 185 399.664299161 L 190 382.139791429 L 196 392.612341767 L 201 427.082370451 L 207 401.558703271 L 212 428.029572507 L 218 411.838258017 L 224 424.977194838 L 229 399.453527658 L 235 365.930701029 L 240 424.398208059 L 246 366.877903084 L 251 348.020202111 L 257 406.487709141 L 263 375.631268995 L 268 332.776089676 L 274 392.576789948 L 279 375.052282216 L 285 390.85760552 L 290 401.330155858 L 296 381.139261644 L 302 370.280720119 L 307 362.088565078 L 313 348.563637071 L 318 377.700892789 L 324 365.509158023 L 330 370.648935396 L 335 383.787872217 L 341 394.260422555 L 346 376.735914824 L 352 340.546701712 L 357 365.684377706 L 363 368.157768596 L 369 361.298806796 L 374 397.102028721 L 380 378.244327748 L 385 324.723602498 L 391 376.525143321 L 396 353.667862623 L 402 344.14251434 L 408 365.28061061 L 413 379.752740673 L 419 358.228653217 L 424 371.367590038 L 430 339.177956651 L 435 392.312690715 L 441 357.456670845 L 447 383.92754008 L 452 377.06857828 L 458 403.539447516 L 463 343.352756058 L 469 344.492953707 L 475 368.297436459 L 480 392.101919212 L 486 401.241276309 L 491 389.049541543 L 497 404.854864847 L 502 391.32993684 L 508 380.471395315 L 514 402.942684827 L 519 385.418177095 L 525 365.227282881 L 530 373.033446736 L 536 380.839610592 L 541 395.311740654 L 547 403.11790451 L 553 398.925329192 L 558 365.402502564 L 564 382.541019109 L 569 391.680376206 L 575 416.8180522 L 580 405.959510676 L 586 395.100969151 L 592 377.57646142 L 597 402.714137414 L 603 390.522402648 L 608 378.330667882 L 614 412.800696566 L 620 387.277029386"/>
		</g>
		<text class="x-axis-label" x="40.0" y="540">0</text>
		<path class="x-notch" d="M 67.8846153846 525 L 67.8846153846 530"/>
		<text class="x-axis-label" x="95.7692307692" y="540">10</text>
		<path class="x-notch" d="M 123.653846154 525 L 123.653846154 530"/>
		<text class="x-axis-label" x="151.538461538" y="540">20</text>
		<path class="x-notch" d="M 179.423076923 525 L 179.423076923 530"/>
		<text class="x-axis-label" x="207.307692308" y="540">30</text>
		<path class="x-notch" d="M 235.192307692 525 L 235.192307692 530"/>
		<text class="x-axis-label" x="263.076923077" y="540">40</text>
		<path class="x-notch" d="M 290.961538462 525 L 290.961538462 530"/>
		<text class="x-axis-label" x="318.846153846" y="540">50</text>
		<path class="x-notch" d="M 346.730769231 525 L 346.730769231 530"/>
		<text class="x-axis-label" x="374.615384615" y="540">60</text>
		<path class="x-notch" d="M 402.5 525 L 402.5 530"/>
		<text class="x-axis-label" x="430.384615385" y="540">70</text>
		<path class="x-notch" d="M 458.269230769 525 L 458.269230769 530"/>
		<text class="x-axis-label" x="486.153846154" y="540">80</text>
		<path class="x-notch" d="M 514.038461538 525 L 514.038461538 530"/>
		<text class="x-axis-label" x="541.923076923" y="540">90</text>
		<path class="x-notch" d="M 569.807692308 525 L 569.807692308 530"/>
		<text class="x-axis-label" x="597.692307692" y="540">100</text>
		<path class="x-notch" d="M 625.576923077 525 L 625.576923077 530"/>
	</g>
</svg>
