<?xml version="1.0" ?>
<svg height="600" version="1.1" width="800" xmlns="http://www.w3.org/2000/svg" xmlns:svg="http://www.w3.org/2000/svg">
	<style type="text/css">
		

.x-axis-path, .y-gridline, .x-notch { fill:none; stroke: #a7a9ac; stroke-width:1; }



.y-gridline { stroke-width: 1; }

.y-axis-path, .y-axis-path2, .x-notch-left, .x-notch-right { display: none;}



.x-axis-label, .data-point-label {font-size: 12px; font-weight:normal; font-family: sans-serif; fill: #58595b; text-anchor:middle;}

.y-axis-label {font-size: 12px; font-family: helvetica; fill: #a7a9ac; text-anchor:end;}



.series-1-line { fill: none; stroke: #10b80c; stroke-width:2; }



.series-2-line { fill: none; stroke: #e90f0a; stroke-width: 2;}

	</style>
	<rect fill="white" height="600" width="800" x="0" y="0"/>
	<g id="grid" transform="translate(70, 30)">
		<g class="x-axis" id="x_axis">
			<path class="x-axis-path" d="M 0 525 L 660 525"/>
			<path class="x-notch-left" d="M 0 525, L 0 535"/>
			<path class="x-notch-right" d="M 660 525, L 660 535"/>
		</g>
		<g class="y-axis" id="y_axis">
			<path class="y-axis-path" d="M 0 525 L 0 0"/>
			<path class="y-axis-path-2" d="M 660 525 L 660 0"/>
			<path class="y-gridline" d="M 0 525 L 660 525"/>
			<text class="y-axis-label" x="-5" y="525">
				-300
			</text>
			<path class="y-gridline" d="M 0 420 L 660 420"/>
			<text class="y-axis-label" x="-5" y="420">
				 0
			</text>
			<path class="y-gridline" d="M 0 315 L 660 315"/>
			<text class="y-axis-label" x="-5" y="315">
				300
			</text>
			<path class="y-gridline" d="M 0 210 L 660 210"/>
			<text class="y-axis-label" x="-5" y="210">
				600
			</text>
			<path class="y-gridline" d="M 0 105 L 660 105"/>
			<text class="y-axis-label" x="-5" y="105">
				900
			</text>
			<path class="y-gridline" d="M 0 0 L 660 0"/>
			<text class="y-axis-label" x="-5" y="0">
				1200
			</text>
		</g>
		<g>
			<path class="series-1-line" d="M 40 421.418144 L 44 423.309845821 L 48 430.667987641 L 52 408.132489462 L 56 415.742351283 L 60 434.264093103 L 64 418.135554924 L 68 400.302936745 L 72 398.040138566 L 76 446.257840386 L 80 424.404562207 L 84 418.543484028 L 88 438.752225848 L 92 430.683487669 L 96 419.44682949 L 100 409.53807131 L 104 399.925413131 L 108 415.449894952 L 112 430.435796772 L 116 416.631958593 L 120 382.582440414 L 124 406.515602234 L 128 415.722024055 L 132 391.508485876 L 136 391.857107697 L 140 409.517849517 L 144 389.153471338 L 148 405.978973159 L 152 392.624394979 L 156 381.2795168 L 160 371.576698621 L 164 393.670820441 L 168 401.845582262 L 172 394.233664083 L 176 360.166645903 L 180 359.608487724 L 185 372.091049545 L 189 353.162651366 L 193 400.859973186 L 197 375.254975007 L 201 385.924536828 L 205 343.124738648 L 209 363.647780469 L 213 345.77022229 L 217 368.24906411 L 221 356.581345931 L 225 364.594827752 L 229 379.113409572 L 233 323.875451393 L 237 324.565113214 L 241 340.430495034 L 245 346.756556855 L 249 335.600258676 L 253 344.617960497 L 257 357.665562317 L 261 344.373704138 L 265 328.245305959 L 269 338.250567779 L 273 355.5432496 L 277 330.466891421 L 281 318.773553241 L 285 365.545755062 L 289 357.817776883 L 293 326.415098703 L 297 369.760100524 L 301 383.327942345 L 305 347.842584166 L 309 376.828485986 L 313 369.217127807 L 317 386.025269628 L 321 368.218551448 L 325 369.761093269 L 330 356.04825509 L 334 380.13303691 L 338 343.651578731 L 342 378.820300552 L 346 372.474962372 L 350 382.695404193 L 354 372.615986014 L 358 383.617767834 L 362 386.506549655 L 366 371.554011476 L 370 384.637173297 L 374 363.115695117 L 378 369.190596938 L 382 369.413918759 L 386 364.602840579 L 390 362.0975624 L 394 389.055144221 L 398 338.977726041 L 402 385.669707862 L 406 379.440289683 L 410 390.746991503 L 414 361.346313324 L 418 381.771075145 L 422 369.259436966 L 426 390.374818786 L 430 401.258720607 L 434 363.673502428 L 438 367.083224248 L 442 383.327866069 L 446 379.66562789 L 450 393.26076971 L 454 389.499831531 L 458 442.922593352 L 462 409.348795172 L 466 424.128336993 L 470 408.898178814 L 475 410.556780634 L 479 386.450342455 L 483 407.485644276 L 487 404.037606097 L 491 409.269567917 L 495 422.873109738 L 499 424.514491559 L 503 402.463673379 L 507 423.7854152 L 511 414.101217021 L 515 405.977738841 L 519 411.469260662 L 523 412.473502483 L 527 395.761584303 L 531 423.321306124 L 535 406.420947945 L 539 400.586469766 L 543 420.409931586 L 547 403.501453407 L 551 412.384755228 L 555 403.220797048 L 559 410.991518869 L 563 423.73392069 L 567 427.37632251 L 571 410.198344331 L 575 425.740466152 L 579 423.576927972 L 583 424.365429793 L 587 427.604211614 L 591 423.376233434 L 595 425.376015255 L 599 440.936477076 L 603 407.739138897 L 607 428.298720717 L 611 423.980862538 L 615 412.026004359 L 620 429.049046179"/>
			<path class="series-2-line" d="M 40 439.04 L 44 362.381310345 L 48 388.62262069 L 52 409.963931034 L 56 478.905241379 L 60 456.146551724 L 64 406.087862069 L 68 458.229172414 L 72 442.820482759 L 76 401.161793103 L 80 438.953103448 L 84 466.244413793 L 88 425.985724138 L 92 456.427034483 L 96 489.668344828 L 100 493.159655172 L 104 491.400965517 L 108 485.792275862 L 112 468.633586207 L 116 451.824896552 L 120 481.216206897 L 124 446.907517241 L 128 430.448827586 L 132 467.890137931 L 136 440.931448276 L 140 470.672758621 L 144 426.214068966 L 148 395.05537931 L 152 431.096689655 L 156 412.888 L 160 370.529310345 L 164 404.82062069 L 168 426.511931034 L 172 371.903241379 L 176 445.044551724 L 180 382.035862069 L 185 414.227172414 L 189 377.818482759 L 193 349.109793103 L 197 344.201103448 L 201 358.892413793 L 205 360.983724138 L 209 339.975034483 L 213 385.466344828 L 217 304.957655172 L 221 309.848965517 L 225 356.740275862 L 229 275.881586207 L 233 307.372896552 L 237 281.814206897 L 241 263.955517241 L 245 287.396827586 L 249 280.738137931 L 253 239.079448276 L 257 237.670758621 L 261 263.912068966 L 265 227.50337931 L 269 222.944689655 L 273 241.836 L 277 154.327310345 L 281 286.26862069 L 285 183.359931034 L 289 187.901241379 L 293 159.192551724 L 297 154.283862069 L 301 126.275172414 L 305 161.266482759 L 309 144.107793103 L 313 144.099103448 L 317 170.340413793 L 321 122.731724138 L 325 127.973034483 L 330 233.664344828 L 334 107.305655172 L 338 147.546965517 L 342 80.3382758621 L 346 142.279586207 L 350 117.770896552 L 354 106.912206897 L 358 138.053517241 L 362 151.694827586 L 366 136.636137931 L 370 102.327448276 L 374 115.618758621 L 378 150.960068966 L 382 157.25137931 L 386 184.542689655 L 390 152.334 L 394 123.975310345 L 398 183.11662069 L 402 133.757931034 L 406 122.899241379 L 410 133.740551724 L 414 175.031862069 L 418 196.723172414 L 422 169.414482759 L 426 151.555793103 L 430 64.3971034483 L 434 113.038413793 L 438 168.329724138 L 442 378.321034483 L 446 417.512344828 L 450 426.253655172 L 454 467.194965517 L 458 418.886275862 L 462 455.977586207 L 466 443.718896552 L 470 485.710206897 L 475 431.801517241 L 479 411.492827586 L 483 460.834137931 L 487 384.525448276 L 491 483.216758621 L 495 435.958068966 L 499 453.09937931 L 503 480.740689655 L 507 457.982 L 511 481.073310345 L 515 424.36462069 L 519 455.155931034 L 523 476.147241379 L 527 421.538551724 L 531 476.829862069 L 535 424.321172414 L 539 420.112482759 L 543 440.053793103 L 547 470.845103448 L 551 450.186413793 L 555 446.677724138 L 559 449.469034483 L 563 441.060344828 L 567 432.651655172 L 571 437.192965517 L 575 401.484275862 L 579 438.925586207 L 583 425.266896552 L 587 438.908206897 L 591 443.449517241 L 595 404.590827586 L 599 407.032137931 L 603 398.973448276 L 607 440.614758621 L 611 431.856068966 L 615 440.59737931 L 620 419.588689655"/>
		</g>
		<text class="x-axis-label" x="40.0" y="540">
			0
		</text>
		<path class="x-notch" d="M 60.1388888889 525 L 60.1388888889 530"/>
		<text class="x-axis-label" x="80.2777777778" y="540">
			10
		</text>
		<path class="x-notch" d="M 100.416666667 525 L 100.416666667 530"/>
		<text class="x-axis-label" x="120.555555556" y="540">
			20
		</text>
		<path class="x-notch" d="M 140.694444444 525 L 140.694444444 530"/>
		<text class="x-axis-label" x="160.833333333" y="540">
			30
		</text>
		<path class="x-notch" d="M 180.972222222 525 L 180.972222222 530"/>
		<text class="x-axis-label" x="201.111111111" y="540">
			40
		</text>
		<path class="x-notch" d="M 221.25 525 L 221.25 530"/>
		<text class="x-axis-label" x="241.388888889" y="540">
			50
		</text>
		<path class="x-notch" d="M 261.527777778 525 L 261.527777778 530"/>
		<text class="x-axis-label" x="281.666666667" y="540">
			60
		</text>
		<path class="x-notch" d="M 301.805555556 525 L 301.805555556 530"/>
		<text class="x-axis-label" x="321.944444444" y="540">
			70
		</text>
		<path class="x-notch" d="M 342.083333333 525 L 342.083333333 530"/>
		<text class="x-axis-label" x="362.222222222" y="540">
			80
		</text>
		<path class="x-notch" d="M 382.361111111 525 L 382.361111111 530"/>
		<text class="x-axis-label" x="402.5" y="540">
			90
		</text>
		<path class="x-notch" d="M 422.638888889 525 L 422.638888889 530"/>
		<text class="x-axis-label" x="442.777777778" y="540">
			100
		</text>
		<path class="x-notch" d="M 462.916666667 525 L 462.916666667 530"/>
		<text class="x-axis-label" x="483.055555556" y="540">
			110
		</text>
		<path class="x-notch" d="M 503.194444444 525 L 503.194444444 530"/>
		<text class="x-axis-label" x="523.333333333" y="540">
			120
		</text>
		<path class="x-notch" d="M 543.472222222 525 L 543.472222222 530"/>
		<text class="x-axis-label" x="563.611111111" y="540">
			130
		</text>
		<path class="x-notch" d="M 583.75 525 L 583.75 530"/>
		<text class="x-axis-label" x="603.888888889" y="540">
			140
		</text>
		<path class="x-notch" d="M 624.027777778 525 L 624.027777778 530"/>
	</g>
</svg>
