<?xml version="1.0" ?>
<svg height="600" version="1.1" width="800" xmlns="http://www.w3.org/2000/svg" xmlns:svg="http://www.w3.org/2000/svg">
	<style type="text/css">
		

.x-axis-path, .y-gridline, .x-notch { fill:none; stroke: #a7a9ac; stroke-width:1; }



.y-gridline { stroke-width: 1; }

.y-axis-path, .y-axis-path2, .x-notch-left, .x-notch-right { display: none;}



.x-axis-label, .data-point-label {font-size: 12px; font-weight:normal; font-family: sans-serif; fill: #58595b; text-anchor:middle;}

.y-axis-label {font-size: 12px; font-family: helvetica; fill: #a7a9ac; text-anchor:end;}



.series-1-line { fill: none; stroke: #10b80c; stroke-width:2; }



.series-2-line { fill: none; stroke: #e90f0a; stroke-width: 2;}

	</style>
	<rect fill="white" height="600" width="800" x="0" y="0"/>
	<g id="grid" transform="translate(70, 30)">
		<g class="x-axis" id="x_axis">
			<path class="x-axis-path" d="M 0 525 L 660 525"/>
			<path class="x-notch-left" d="M 0 525, L 0 535"/>
			<path class="x-notch-right" d="M 660 525, L 660 535"/>
		</g>
		<g class="y-axis" id="y_axis">
			<path class="y-axis-path" d="M 0 525 L 0 0"/>
			<path class="y-axis-path-2" d="M 660 525 L 660 0"/>
			<path class="y-gridline" d="M 0 525 L 660 525"/>
			<text class="y-axis-label" x="-5" y="525">
				-200
			</text>
			<path class="y-gridline" d="M 0 394 L 660 394"/>
			<text class="y-axis-label" x="-5" y="394">
				 0
			</text>
			<path class="y-gridline" d="M 0 263 L 660 263"/>
			<text class="y-axis-label" x="-5" y="263">
				200
			</text>
			<path class="y-gridline" d="M 0 132 L 660 132"/>
			<text class="y-axis-label" x="-5" y="132">
				400
			</text>
			<path class="y-gridline" d="M 0 1 L 660 1"/>
			<text class="y-axis-label" x="-5" y="1">
				600
			</text>
		</g>
		<g>
			<path class="series-1-line" d="M 40 376.929943779 L 45 377.065015099 L 51 411.594039541 L 57 396.585982856 L 62 410.361725591 L 68 373.727582502 L 74 383.839287099 L 80 407.261430789 L 85 377.497191749 L 91 408.348111361 L 97 374.475728646 L 103 346.086006289 L 108 376.550203534 L 114 387.405879799 L 120 352.088200383 L 126 377.213976674 L 131 380.869963131 L 137 320.304805808 L 143 353.345217071 L 149 347.669405237 L 154 357.508260681 L 160 330.292325557 L 166 325.160425784 L 172 311.226573089 L 177 344.324367521 L 183 312.51331327 L 189 330.983311813 L 195 285.903795261 L 200 298.634583792 L 206 316.117234581 L 212 260.275359572 L 218 315.515019085 L 223 270.965124621 L 229 270.399764031 L 235 291.388370143 L 240 313.737426246 L 246 285.275807468 L 252 317.485837388 L 258 252.626766754 L 263 274.531940602 L 269 287.090356345 L 275 258.743057343 L 281 246.641446998 L 286 270.020497491 L 292 255.256040173 L 298 205.067188782 L 304 237.678231042 L 309 201.10080128 L 315 152.586332704 L 321 169.339301797 L 327 151.770214189 L 332 151.976735369 L 338 159.19673016 L 344 158.072274415 L 350 166.479899848 L 355 184.420722865 L 361 156.589649102 L 367 103.079495621 L 373 81.760630043 L 378 134.194319582 L 384 109.196232771 L 390 104.937584257 L 396 68.1882282686 L 401 89.2779805883 L 407 100.548959165 L 413 32.583382583 L 419 0.0 L 424 88.7032014883 L 430 75.4981373669 L 436 114.277981923 L 441 58.1500841921 L 447 102.383339319 L 453 181.139380598 L 459 40.9087456739 L 464 181.452839715 L 470 297.739482973 L 476 345.622709547 L 482 352.241855671 L 487 431.685155291 L 493 400.28918007 L 499 420.763347189 L 505 348.089001546 L 510 399.464786594 L 516 409.390498274 L 522 419.215063745 L 528 432.976516508 L 533 442.386672791 L 539 416.90205709 L 545 407.432927528 L 551 393.570301413 L 556 395.523771672 L 562 428.893522134 L 568 407.630923321 L 574 401.383289326 L 579 415.101425612 L 585 423.794850486 L 591 423.143750064 L 597 424.023686175 L 602 412.107398905 L 608 392.24789672 L 614 382.764700467 L 620 351.926257436"/>
			<path class="series-2-line" d="M 40 435.838433212 L 45 408.192109435 L 51 392.268028331 L 57 354.015865947 L 62 375.491320985 L 68 401.990594311 L 74 429.04806967 L 80 404.192756053 L 85 403.898331844 L 91 417.558958435 L 97 383.214210275 L 103 429.808756752 L 108 416.675685808 L 114 414.706655503 L 120 409.946615038 L 126 424.16544366 L 131 391.495301596 L 137 428.60041353 L 143 405.41970601 L 149 391.728433033 L 154 330.589987338 L 160 390.023180551 L 166 378.564715702 L 172 412.320615444 L 177 401.97855466 L 183 394.427504035 L 189 380.178029026 L 195 330.761826003 L 200 341.073240401 L 206 350.268250736 L 212 390.722574862 L 218 365.867261245 L 223 320.916674478 L 229 380.908069723 L 235 322.002432156 L 240 333.98845265 L 246 348.207281273 L 252 302.140290441 L 258 334.221584087 L 263 328.345139558 L 269 278.370734503 L 275 274.727098102 L 281 327.461866931 L 286 287.535098451 L 292 276.634835634 L 298 262.385360626 L 304 240.879259201 L 309 214.907541521 L 315 178.888187265 L 321 214.876895135 L 327 271.519078188 L 332 232.708713772 L 338 210.086208284 L 344 182.99808654 L 350 127.441661164 L 355 152.266328394 L 361 242.400633367 L 367 158.37590436 L 373 233.996956501 L 378 146.064813271 L 384 142.42117687 L 390 147.150570948 L 396 104.432792309 L 401 138.746894083 L 407 159.105945057 L 413 131.459621281 L 419 179.170571822 L 424 158.780874462 L 430 78.6635596791 L 436 52.6918419987 L 441 116.032449436 L 447 110.156004907 L 453 117.676409146 L 459 151.99051092 L 464 99.2250957043 L 470 326.118898513 L 476 338.66312104 L 482 344.508919182 L 487 375.473808765 L 493 368.480960172 L 499 389.95641521 L 505 378.497950361 L 510 412.253850103 L 516 446.567951877 L 522 387.66231431 L 528 411.370577476 L 533 417.216375619 L 539 424.178577826 L 545 370.854960578 L 551 371.676940433 L 556 408.782052367 L 562 399.556395646 L 568 379.166698286 L 574 433.017871179 L 579 419.884800235 L 585 319.6722123 L 591 393.060456313 L 597 423.467143864 L 602 403.635648535 L 608 425.669305605 L 614 396.348375733 L 620 324.045889398"/>
		</g>
		<text class="x-axis-label" x="40.0" y="540">
			0
		</text>
		<path class="x-notch" d="M 68.7128712871 525 L 68.7128712871 530"/>
		<text class="x-axis-label" x="97.4257425743" y="540">
			10
		</text>
		<path class="x-notch" d="M 126.138613861 525 L 126.138613861 530"/>
		<text class="x-axis-label" x="154.851485149" y="540">
			20
		</text>
		<path class="x-notch" d="M 183.564356436 525 L 183.564356436 530"/>
		<text class="x-axis-label" x="212.277227723" y="540">
			30
		</text>
		<path class="x-notch" d="M 240.99009901 525 L 240.99009901 530"/>
		<text class="x-axis-label" x="269.702970297" y="540">
			40
		</text>
		<path class="x-notch" d="M 298.415841584 525 L 298.415841584 530"/>
		<text class="x-axis-label" x="327.128712871" y="540">
			50
		</text>
		<path class="x-notch" d="M 355.841584158 525 L 355.841584158 530"/>
		<text class="x-axis-label" x="384.554455446" y="540">
			60
		</text>
		<path class="x-notch" d="M 413.267326733 525 L 413.267326733 530"/>
		<text class="x-axis-label" x="441.98019802" y="540">
			70
		</text>
		<path class="x-notch" d="M 470.693069307 525 L 470.693069307 530"/>
		<text class="x-axis-label" x="499.405940594" y="540">
			80
		</text>
		<path class="x-notch" d="M 528.118811881 525 L 528.118811881 530"/>
		<text class="x-axis-label" x="556.831683168" y="540">
			90
		</text>
		<path class="x-notch" d="M 585.544554455 525 L 585.544554455 530"/>
		<text class="x-axis-label" x="614.257425743" y="540">
			100
		</text>
		<path class="x-notch" d="M 642.97029703 525 L 642.97029703 530"/>
	</g>
</svg>
