<?xml version="1.0" ?>
<svg height="600" version="1.1" width="800" xmlns="http://www.w3.org/2000/svg" xmlns:svg="http://www.w3.org/2000/svg">
	<style type="text/css">
		

.x-axis-path, .y-gridline, .x-notch { fill:none; stroke: #a7a9ac; stroke-width:1; }



.y-gridline { stroke-width: 1; }

.y-axis-path, .y-axis-path2, .x-notch-left, .x-notch-right { display: none;}



.x-axis-label, .data-point-label {font-size: 12px; font-weight:normal; font-family: sans-serif; fill: #58595b; text-anchor:middle;}

.y-axis-label {font-size: 12px; font-family: helvetica; fill: #a7a9ac; text-anchor:end;}



.series-1-line { fill: none; stroke: #10b80c; stroke-width:2; }



.series-2-line { fill: none; stroke: #e90f0a; stroke-width: 2;}

	</style>
	<rect fill="white" height="600" width="800" x="0" y="0"/>
	<g id="grid" transform="translate(70, 30)">
		<g class="x-axis" id="x_axis">
			<path class="x-axis-path" d="M 0 525 L 660 525"/>
			<path class="x-notch-left" d="M 0 525, L 0 535"/>
			<path class="x-notch-right" d="M 660 525, L 660 535"/>
		</g>
		<g class="y-axis" id="y_axis">
			<path class="y-axis-path" d="M 0 525 L 0 0"/>
			<path class="y-axis-path-2" d="M 660 525 L 660 0"/>
			<path class="y-gridline" d="M 0 525 L 660 525"/>
			<text class="y-axis-label" x="-5" y="525">
				-200
			</text>
			<path class="y-gridline" d="M 0 420 L 660 420"/>
			<text class="y-axis-label" x="-5" y="420">
				 0
			</text>
			<path class="y-gridline" d="M 0 315 L 660 315"/>
			<text class="y-axis-label" x="-5" y="315">
				200
			</text>
			<path class="y-gridline" d="M 0 210 L 660 210"/>
			<text class="y-axis-label" x="-5" y="210">
				400
			</text>
			<path class="y-gridline" d="M 0 105 L 660 105"/>
			<text class="y-axis-label" x="-5" y="105">
				600
			</text>
			<path class="y-gridline" d="M 0 0 L 660 0"/>
			<text class="y-axis-label" x="-5" y="0">
				800
			</text>
		</g>
		<g>
			<path class="series-1-line" d="M 40 413.070440949 L 42 395.077868537 L 45 420.479162963 L 48 446.663086725 L 51 423.842981904 L 54 418.813044922 L 56 399.345807586 L 59 418.789484474 L 62 414.589450949 L 65 413.938211867 L 68 413.321664439 L 71 430.967846295 L 73 407.974462952 L 76 414.882589231 L 79 423.817930408 L 82 400.767386723 L 85 418.90895821 L 88 420.009378038 L 90 421.535624439 L 93 390.534400725 L 96 400.495212818 L 99 394.289893834 L 102 411.61378483 L 105 403.518939067 L 107 389.121536471 L 110 369.538899954 L 113 363.402964278 L 116 327.700931554 L 119 355.717042004 L 122 368.500820046 L 124 311.274683051 L 127 323.562891713 L 130 313.428608086 L 133 331.858497776 L 136 298.564389398 L 139 272.379553625 L 141 289.876004144 L 144 275.720005131 L 147 256.875060575 L 150 313.224725729 L 153 299.172981427 L 156 236.174368884 L 158 243.323539247 L 161 268.874385259 L 164 239.462506653 L 167 223.03734991 L 170 268.671428175 L 172 249.618872943 L 175 226.106912283 L 178 277.11046771 L 181 228.341724595 L 184 243.579982104 L 187 256.743750596 L 189 228.208330568 L 192 227.303105438 L 195 196.809134823 L 198 252.617753972 L 201 239.07254377 L 204 231.553795166 L 206 189.341774682 L 209 225.239002103 L 212 217.76662887 L 215 175.680972287 L 218 206.565884809 L 221 196.062934951 L 223 188.39463476 L 226 224.22337762 L 229 201.2761899 L 232 196.027677522 L 235 146.936463798 L 238 150.363920695 L 240 161.050561282 L 243 180.551937761 L 246 225.045145928 L 249 141.686127398 L 252 152.142508872 L 255 154.395482515 L 257 152.891691539 L 260 215.670816675 L 263 157.88026624 L 266 146.962814028 L 269 196.398774036 L 272 206.348801159 L 274 161.98194363 L 277 141.488696129 L 280 200.742394257 L 283 145.233224518 L 286 139.120476528 L 288 154.150943612 L 291 180.980887089 L 294 146.235121723 L 297 139.569104762 L 300 114.005842771 L 303 162.267679025 L 305 162.20350182 L 308 152.127097534 L 311 195.653253373 L 314 105.0 L 317 124.812702619 L 320 178.432332316 L 322 174.773524545 L 325 157.783954362 L 328 138.096523884 L 331 115.414646431 L 334 111.225937125 L 337 145.983732444 L 339 122.529651125 L 342 118.3296176 L 345 150.08002398 L 348 171.481532458 L 351 158.432430886 L 354 155.695738067 L 356 122.424098378 L 359 146.062589424 L 362 110.913106674 L 365 187.669553186 L 368 199.680947612 L 371 176.884389976 L 373 181.337497539 L 376 185.594678143 L 379 196.051419116 L 382 206.600191834 L 385 252.637627984 L 388 193.09541864 L 390 241.598478726 L 393 276.874132365 L 396 270.023692414 L 399 238.45805526 L 402 242.047466459 L 404 236.061621619 L 407 272.672993817 L 410 265.730701869 L 413 294.312124507 L 416 269.797700868 L 419 277.005289819 L 421 274.02611492 L 424 244.93778542 L 427 267.584598457 L 430 257.278114806 L 433 253.21594915 L 436 237.551672054 L 438 336.430429184 L 441 320.292691897 L 444 290.225626352 L 447 296.188090494 L 450 313.534629928 L 453 320.972298243 L 455 286.007597982 L 458 313.505670363 L 461 315.481110773 L 464 335.282489173 L 467 339.320734882 L 470 340.743984817 L 472 336.612975101 L 475 345.663895209 L 478 341.348282753 L 481 354.178436167 L 484 359.818070201 L 487 364.144813863 L 489 386.561547536 L 492 370.412665779 L 495 361.154121733 L 498 353.186179119 L 501 371.419962101 L 504 356.435138128 L 506 379.012747607 L 509 365.05339455 L 512 358.306670062 L 515 387.475154577 L 518 372.536346477 L 520 356.353132566 L 523 372.109787643 L 526 370.548297076 L 529 369.009814446 L 532 394.814107258 L 535 397.896085609 L 537 368.508113688 L 540 381.487818688 L 543 394.08717374 L 546 393.98884413 L 549 392.416029345 L 552 420.409850856 L 554 413.432507756 L 557 400.002516986 L 560 422.085635581 L 563 401.005326202 L 566 387.26490804 L 569 418.934067645 L 571 406.03433791 L 574 418.000075963 L 577 420.241006389 L 580 426.14595069 L 583 414.882660433 L 586 406.741978547 L 588 424.618599266 L 591 418.620890958 L 594 421.668537155 L 597 431.467934194 L 600 426.426852743 L 603 438.334711455 L 605 423.441919228 L 608 431.098522438 L 611 412.14968267 L 614 411.463572184 L 617 432.071127106 L 620 414.516783984"/>
			<path class="series-2-line" d="M 40 421.437996026 L 42 410.250770873 L 45 447.146537848 L 48 396.86379573 L 51 420.278349959 L 54 402.350518432 L 56 410.93573864 L 59 395.704149663 L 62 406.086864903 L 65 406.133983705 L 68 418.314193979 L 71 403.082605001 L 73 383.357278442 L 76 448.563592185 L 79 442.76885213 L 82 467.082153875 L 85 444.660584766 L 88 469.42326027 L 90 445.204196128 L 93 447.947557479 L 96 439.905948633 L 99 412.541268184 L 102 430.113963556 L 105 417.12924337 L 107 423.467594787 L 110 414.976612182 L 113 411.878114677 L 116 446.976386619 L 119 408.826735973 L 122 398.538258336 L 124 408.920973577 L 127 388.296899501 L 130 378.008421863 L 133 380.751783215 L 136 390.685124697 L 139 395.675354839 L 141 386.285624719 L 144 337.351003875 L 147 354.024951731 L 150 312.280311019 L 153 317.270541161 L 156 351.919439345 L 158 326.801627687 L 161 340.329959235 L 164 270.274771755 L 167 295.037447259 L 170 277.558989491 L 172 274.011118227 L 175 247.545185294 L 178 233.661717591 L 181 239.101321491 L 184 249.034662974 L 187 214.480002393 L 189 218.122111261 L 192 170.086237934 L 195 198.893277261 L 198 206.579749953 L 201 167.53135179 L 204 152.299762812 L 206 204.024863809 L 209 145.653394043 L 212 158.282978075 L 215 172.710057139 L 218 107.597981 L 221 102.252614703 L 223 110.388461153 L 226 115.378691295 L 229 105.988961174 L 232 122.213535272 L 235 142.931846952 L 238 120.060904085 L 240 103.930567591 L 243 97.2370800193 L 246 64.9292882296 L 249 68.5713970972 L 252 70.8653846901 L 255 126.185475752 L 257 136.568190993 L 260 90.779186457 L 263 119.136852026 L 266 143.450153772 L 269 76.0912088414 L 272 139.94940131 L 274 177.294542044 L 277 135.549901331 L 280 131.552656309 L 283 154.51783678 L 286 165.349925779 L 288 137.535871572 L 291 161.849173317 L 294 187.959970095 L 297 179.918361249 L 300 122.895012758 L 303 168.778254898 L 305 112.204280164 L 308 127.979480504 L 311 176.558965193 L 314 126.276223074 L 317 141.152675897 L 320 174.902826565 L 322 153.380004973 L 325 196.117630805 L 328 81.1250675038 L 331 100.495257909 L 334 91.5549015465 L 337 158.558710322 L 339 158.156455366 L 342 168.539170607 L 345 231.498615559 L 348 120.99978984 L 351 144.863717827 L 354 154.797059309 L 356 108.558681015 L 359 157.587539462 L 362 141.457202968 L 365 158.580524582 L 368 110.994025013 L 371 183.390318888 L 373 175.7980838 L 376 163.71211113 L 379 201.057251864 L 382 224.022432335 L 385 213.733954698 L 388 217.376063565 L 390 190.460756874 L 393 194.102865742 L 396 179.770024281 L 399 200.48833596 L 402 240.080345485 L 404 266.191142263 L 407 184.002863312 L 410 201.575558684 L 413 233.078840561 L 416 205.264786353 L 419 258.787382383 L 421 218.840236704 L 424 238.659800867 L 427 214.440736725 L 430 266.165837722 L 433 237.453035998 L 436 301.311228466 L 438 249.680365073 L 441 211.980088185 L 444 296.958847289 L 447 281.727258312 L 450 260.653810478 L 453 278.22650585 L 455 303.438555112 L 458 311.125027803 L 461 269.380387091 L 464 303.579911517 L 467 290.595191331 L 470 335.130312196 L 472 334.72805724 L 475 363.535096567 L 478 339.316032425 L 481 356.888727798 L 484 321.884693459 L 487 351.590480303 L 489 363.321316818 L 492 362.469688104 L 495 355.776200532 L 498 358.070188125 L 501 338.794235324 L 504 366.702527135 L 506 335.74285662 L 509 361.40427964 L 512 348.419559454 L 515 323.301747795 L 518 344.020059475 L 520 366.086492429 L 523 365.234863715 L 526 367.07947755 L 529 365.329101318 L 532 374.363695285 L 535 370.366450263 L 537 384.344155569 L 540 378.549415514 L 543 361.969705262 L 546 345.839368768 L 549 367.007054206 L 552 402.554699907 L 554 372.943150666 L 557 333.445378745 L 560 397.303571214 L 563 412.180024037 L 566 438.740194573 L 569 444.179798474 L 571 427.150714463 L 574 421.805348166 L 577 426.34620455 L 580 420.102090737 L 583 428.237937187 L 586 439.968773702 L 588 423.838437209 L 591 416.695575879 L 594 435.616392526 L 597 417.688560999 L 600 436.609377646 L 603 405.200333373 L 605 418.728664921 L 608 437.20010781 L 611 435.00035782 L 614 405.38880858 L 617 401.391563558 L 620 427.052986578"/>
		</g>
		<text class="x-axis-label" x="40.0" y="540">
			0
		</text>
		<path class="x-notch" d="M 54.1463414634 525 L 54.1463414634 530"/>
		<text class="x-axis-label" x="68.2926829268" y="540">
			10
		</text>
		<path class="x-notch" d="M 82.4390243902 525 L 82.4390243902 530"/>
		<text class="x-axis-label" x="96.5853658537" y="540">
			20
		</text>
		<path class="x-notch" d="M 110.731707317 525 L 110.731707317 530"/>
		<text class="x-axis-label" x="124.87804878" y="540">
			30
		</text>
		<path class="x-notch" d="M 139.024390244 525 L 139.024390244 530"/>
		<text class="x-axis-label" x="153.170731707" y="540">
			40
		</text>
		<path class="x-notch" d="M 167.317073171 525 L 167.317073171 530"/>
		<text class="x-axis-label" x="181.463414634" y="540">
			50
		</text>
		<path class="x-notch" d="M 195.609756098 525 L 195.609756098 530"/>
		<text class="x-axis-label" x="209.756097561" y="540">
			60
		</text>
		<path class="x-notch" d="M 223.902439024 525 L 223.902439024 530"/>
		<text class="x-axis-label" x="238.048780488" y="540">
			70
		</text>
		<path class="x-notch" d="M 252.195121951 525 L 252.195121951 530"/>
		<text class="x-axis-label" x="266.341463415" y="540">
			80
		</text>
		<path class="x-notch" d="M 280.487804878 525 L 280.487804878 530"/>
		<text class="x-axis-label" x="294.634146341" y="540">
			90
		</text>
		<path class="x-notch" d="M 308.780487805 525 L 308.780487805 530"/>
		<text class="x-axis-label" x="322.926829268" y="540">
			100
		</text>
		<path class="x-notch" d="M 337.073170732 525 L 337.073170732 530"/>
		<text class="x-axis-label" x="351.219512195" y="540">
			110
		</text>
		<path class="x-notch" d="M 365.365853659 525 L 365.365853659 530"/>
		<text class="x-axis-label" x="379.512195122" y="540">
			120
		</text>
		<path class="x-notch" d="M 393.658536585 525 L 393.658536585 530"/>
		<text class="x-axis-label" x="407.804878049" y="540">
			130
		</text>
		<path class="x-notch" d="M 421.951219512 525 L 421.951219512 530"/>
		<text class="x-axis-label" x="436.097560976" y="540">
			140
		</text>
		<path class="x-notch" d="M 450.243902439 525 L 450.243902439 530"/>
		<text class="x-axis-label" x="464.390243902" y="540">
			150
		</text>
		<path class="x-notch" d="M 478.536585366 525 L 478.536585366 530"/>
		<text class="x-axis-label" x="492.682926829" y="540">
			160
		</text>
		<path class="x-notch" d="M 506.829268293 525 L 506.829268293 530"/>
		<text class="x-axis-label" x="520.975609756" y="540">
			170
		</text>
		<path class="x-notch" d="M 535.12195122 525 L 535.12195122 530"/>
		<text class="x-axis-label" x="549.268292683" y="540">
			180
		</text>
		<path class="x-notch" d="M 563.414634146 525 L 563.414634146 530"/>
		<text class="x-axis-label" x="577.56097561" y="540">
			190
		</text>
		<path class="x-notch" d="M 591.707317073 525 L 591.707317073 530"/>
		<text class="x-axis-label" x="605.853658537" y="540">
			200
		</text>
		<path class="x-notch" d="M 620.0 525 L 620.0 530"/>
	</g>
</svg>
