<?xml version="1.0" ?>
<svg height="600" version="1.1" width="800" xmlns="http://www.w3.org/2000/svg" xmlns:svg="http://www.w3.org/2000/svg">
	<style type="text/css">
		

.x-axis-path, .y-gridline, .x-notch { fill:none; stroke: #a7a9ac; stroke-width:1; }



.y-gridline { stroke-width: 1; }

.y-axis-path, .y-axis-path2, .x-notch-left, .x-notch-right { display: none;}



.x-axis-label, .data-point-label {font-size: 12px; font-weight:normal; font-family: sans-serif; fill: #58595b; text-anchor:middle;}

.y-axis-label {font-size: 12px; font-family: helvetica; fill: #a7a9ac; text-anchor:end;}



.series-1-line { fill: none; stroke: #10b80c; stroke-width:2; }



.series-2-line { fill: none; stroke: #e90f0a; stroke-width: 2;}

	</style>
	<rect fill="white" height="600" width="800" x="0" y="0"/>
	<g id="grid" transform="translate(70, 30)">
		<g class="x-axis" id="x_axis">
			<path class="x-axis-path" d="M 0 525 L 660 525"/>
			<path class="x-notch-left" d="M 0 525, L 0 535"/>
			<path class="x-notch-right" d="M 660 525, L 660 535"/>
		</g>
		<g class="y-axis" id="y_axis">
			<path class="y-axis-path" d="M 0 525 L 0 0"/>
			<path class="y-axis-path-2" d="M 660 525 L 660 0"/>
			<path class="y-gridline" d="M 0 525 L 660 525"/>
			<text class="y-axis-label" x="-5" y="525">
				-200
			</text>
			<path class="y-gridline" d="M 0 394 L 660 394"/>
			<text class="y-axis-label" x="-5" y="394">
				 0
			</text>
			<path class="y-gridline" d="M 0 263 L 660 263"/>
			<text class="y-axis-label" x="-5" y="263">
				200
			</text>
			<path class="y-gridline" d="M 0 132 L 660 132"/>
			<text class="y-axis-label" x="-5" y="132">
				400
			</text>
			<path class="y-gridline" d="M 0 1 L 660 1"/>
			<text class="y-axis-label" x="-5" y="1">
				600
			</text>
		</g>
		<g>
			<path class="series-1-line" d="M 40 376.409569533 L 43 406.586509374 L 47 396.889459371 L 51 390.890321138 L 55 396.534421382 L 59 375.394997317 L 63 379.498440334 L 67 399.385102522 L 71 364.914426445 L 75 382.737891307 L 78 402.383348984 L 82 394.414652612 L 86 397.660502819 L 90 381.29103379 L 94 373.523201831 L 98 378.256410176 L 102 361.458040233 L 106 385.069577259 L 110 374.434672288 L 113 361.923848362 L 117 369.832428377 L 121 373.533724535 L 125 356.748940635 L 129 358.480678653 L 133 363.374620331 L 137 375.87862699 L 141 378.079397 L 145 358.012016201 L 148 373.035084166 L 152 358.608419223 L 156 340.108449704 L 160 344.359040013 L 164 363.763502197 L 168 352.512208925 L 172 365.994410648 L 176 332.421458461 L 180 347.899972376 L 184 331.168696583 L 187 357.875343121 L 191 353.845763028 L 195 354.559383917 L 199 317.569646533 L 203 337.791152416 L 207 292.708732016 L 211 294.333453822 L 215 269.52287204 L 219 217.78140964 L 222 232.857985712 L 226 190.281249594 L 230 153.666696001 L 234 157.100033595 L 238 162.650285638 L 242 117.567865239 L 246 99.2823461757 L 250 72.7701648164 L 254 113.973954834 L 257 53.0410121001 L 261 62.3159299652 L 265 37.3180698116 L 269 88.0345978159 L 273 32.0055893994 L 277 1.16573094366 L 281 56.2768211771 L 285 37.2010124689 L 289 83.093868315 L 293 0.0 L 296 28.4216231416 L 300 56.8967543894 L 304 76.435195855 L 308 106.250119915 L 312 82.2837539166 L 316 98.7137088437 L 320 121.065715216 L 324 92.1419067938 L 328 67.0366123961 L 331 62.37705796 L 335 78.9813322639 L 339 91.4184537896 L 343 172.093877774 L 347 130.227169142 L 351 122.406038094 L 355 127.889195987 L 359 66.715048744 L 363 100.630449466 L 366 107.118765493 L 370 118.979629798 L 374 115.110992056 L 378 141.951408859 L 382 164.598336863 L 386 118.082484465 L 390 196.011228676 L 394 208.783402913 L 398 205.933091314 L 402 212.74287401 L 405 250.047678828 L 409 238.715914381 L 413 273.930558804 L 417 288.75255334 L 421 282.780378176 L 425 284.271120701 L 429 281.996439274 L 433 300.784722174 L 437 315.111139681 L 440 328.432608069 L 444 336.099774559 L 448 308.435287774 L 452 308.626368565 L 456 317.995343648 L 460 331.571602589 L 464 386.348058143 L 468 385.333116387 L 472 394.514604082 L 475 386.679886991 L 479 393.141448965 L 483 398.048558654 L 487 400.08859533 L 491 400.855724326 L 495 387.018484614 L 499 387.732105504 L 503 396.27024183 L 507 385.742353071 L 511 383.012434711 L 514 401.934487876 L 518 396.538360917 L 522 397.787898932 L 526 396.706072043 L 530 382.03820259 L 534 388.017355545 L 538 382.40677813 L 542 387.541715302 L 546 394.003277276 L 549 403.372252359 L 553 408.962844497 L 557 404.584834666 L 561 394.418961687 L 565 391.903493783 L 569 392.550020524 L 573 385.264597585 L 577 391.216996487 L 581 405.864880662 L 584 393.019213041 L 588 392.674167691 L 592 384.397381676 L 596 401.885793827 L 600 395.122910986 L 604 394.295665633 L 608 407.094593923 L 612 397.089454278 L 616 380.009748747 L 620 392.42011622"/>
			<path class="series-2-line" d="M 40 380.268465456 L 43 398.464008409 L 47 400.983348405 L 51 397.232207217 L 55 390.868365536 L 59 385.027063954 L 63 394.86196533 L 67 387.97558355 L 71 403.558426011 L 75 412.870787288 L 78 402.849164917 L 82 400.665644025 L 86 401.617363724 L 90 405.704324016 L 94 392.547461053 L 98 406.040143119 L 102 395.495980649 L 106 398.537860743 L 110 404.714981429 L 113 397.82859965 L 117 405.050800532 L 121 396.074258359 L 125 403.81899934 L 129 396.410077462 L 133 405.19989864 L 137 388.385254988 L 141 389.336974687 L 145 399.694416162 L 148 397.51089527 L 152 404.210556054 L 156 394.188933683 L 160 381.03207072 L 164 388.254271603 L 168 388.683451204 L 172 382.319609523 L 176 400.515152476 L 180 388.403369711 L 184 387.787469115 L 187 397.099830392 L 191 391.781068909 L 195 400.570890087 L 199 401.522609787 L 203 383.140345838 L 207 383.046985341 L 211 392.359346618 L 215 388.60820543 L 219 387.992304834 L 222 377.448142364 L 226 394.076065022 L 230 397.640485214 L 234 389.709023238 L 238 377.597240472 L 242 377.503879975 L 246 374.797818984 L 250 371.569217895 L 254 381.404119271 L 257 367.72471621 L 261 345.162131472 L 265 370.673235806 L 269 363.786854027 L 273 359.51317274 L 277 358.897272144 L 281 338.9473879 L 285 357.665470952 L 289 328.832405031 L 293 328.216504435 L 296 334.916165219 L 300 333.255184426 L 304 339.95484521 L 308 333.068463431 L 312 340.290664313 L 316 342.810004309 L 320 338.536323022 L 324 344.713443708 L 328 346.187703506 L 331 316.832097487 L 335 332.937480046 L 339 326.573638365 L 343 312.894235304 L 347 320.638976285 L 351 336.221818746 L 355 314.181774107 L 359 297.367130455 L 363 343.779838732 L 366 348.389339121 L 370 330.007075173 L 374 340.364516647 L 378 328.775273981 L 382 339.655255553 L 386 359.418418802 L 390 346.26155584 L 394 348.780895835 L 398 363.318658098 L 402 358.522436713 L 405 365.222097497 L 409 357.813175619 L 413 364.512836404 L 417 352.923593737 L 421 365.371195606 L 425 375.206096981 L 429 340.625089976 L 433 362.47841362 L 437 367.087914009 L 440 365.426933216 L 444 349.134829662 L 448 342.248447883 L 452 351.038269061 L 456 354.602689254 L 460 374.365852503 L 464 386.290914273 L 468 379.404532493 L 472 391.852134362 L 475 389.146073371 L 479 397.93589455 L 483 384.256491489 L 487 389.911072076 L 491 390.340251677 L 495 386.589110489 L 499 395.378931667 L 503 385.879849395 L 507 375.335686926 L 511 371.062005639 L 514 372.013725339 L 518 376.10068563 L 522 382.800346414 L 526 386.364766607 L 530 389.929186799 L 534 392.448526794 L 538 389.219925705 L 542 380.76592363 L 546 389.555744809 L 549 393.120165001 L 553 395.116964898 L 557 383.005182133 L 561 397.542944396 L 565 400.58482449 L 569 399.446383795 L 573 392.560002015 L 577 399.2596628 L 581 394.463441415 L 584 399.072941804 L 588 389.573859532 L 592 394.70590002 L 596 395.135079621 L 600 388.248697842 L 604 392.858198232 L 608 391.197217438 L 612 401.032118814 L 616 393.623196936 L 620 391.439676044"/>
		</g>
		<text class="x-axis-label" x="40.0" y="540">
			0
		</text>
		<path class="x-notch" d="M 59.4630872483 525 L 59.4630872483 530"/>
		<text class="x-axis-label" x="78.9261744966" y="540">
			10
		</text>
		<path class="x-notch" d="M 98.389261745 525 L 98.389261745 530"/>
		<text class="x-axis-label" x="117.852348993" y="540">
			20
		</text>
		<path class="x-notch" d="M 137.315436242 525 L 137.315436242 530"/>
		<text class="x-axis-label" x="156.77852349" y="540">
			30
		</text>
		<path class="x-notch" d="M 176.241610738 525 L 176.241610738 530"/>
		<text class="x-axis-label" x="195.704697987" y="540">
			40
		</text>
		<path class="x-notch" d="M 215.167785235 525 L 215.167785235 530"/>
		<text class="x-axis-label" x="234.630872483" y="540">
			50
		</text>
		<path class="x-notch" d="M 254.093959732 525 L 254.093959732 530"/>
		<text class="x-axis-label" x="273.55704698" y="540">
			60
		</text>
		<path class="x-notch" d="M 293.020134228 525 L 293.020134228 530"/>
		<text class="x-axis-label" x="312.483221477" y="540">
			70
		</text>
		<path class="x-notch" d="M 331.946308725 525 L 331.946308725 530"/>
		<text class="x-axis-label" x="351.409395973" y="540">
			80
		</text>
		<path class="x-notch" d="M 370.872483221 525 L 370.872483221 530"/>
		<text class="x-axis-label" x="390.33557047" y="540">
			90
		</text>
		<path class="x-notch" d="M 409.798657718 525 L 409.798657718 530"/>
		<text class="x-axis-label" x="429.261744966" y="540">
			100
		</text>
		<path class="x-notch" d="M 448.724832215 525 L 448.724832215 530"/>
		<text class="x-axis-label" x="468.187919463" y="540">
			110
		</text>
		<path class="x-notch" d="M 487.651006711 525 L 487.651006711 530"/>
		<text class="x-axis-label" x="507.11409396" y="540">
			120
		</text>
		<path class="x-notch" d="M 526.577181208 525 L 526.577181208 530"/>
		<text class="x-axis-label" x="546.040268456" y="540">
			130
		</text>
		<path class="x-notch" d="M 565.503355705 525 L 565.503355705 530"/>
		<text class="x-axis-label" x="584.966442953" y="540">
			140
		</text>
		<path class="x-notch" d="M 604.429530201 525 L 604.429530201 530"/>
	</g>
</svg>
