<?xml version="1.0" ?>
<svg height="600" version="1.1" width="800" xmlns="http://www.w3.org/2000/svg" xmlns:svg="http://www.w3.org/2000/svg">
	<style type="text/css">
		

.x-axis-path, .y-gridline, .x-notch { fill:none; stroke: #a7a9ac; stroke-width:1; }



.y-gridline { stroke-width: 1; }

.y-axis-path, .y-axis-path2, .x-notch-left, .x-notch-right { display: none;}



.x-axis-label, .data-point-label {font-size: 12px; font-weight:normal; font-family: sans-serif; fill: #58595b; text-anchor:middle;}

.y-axis-label {font-size: 12px; font-family: helvetica; fill: #a7a9ac; text-anchor:end;}



.series-1-line { fill: none; stroke: #10b80c; stroke-width:2; }



.series-2-line { fill: none; stroke: #e90f0a; stroke-width: 2;}

	</style>
	<rect fill="white" height="600" width="800" x="0" y="0"/>
	<g id="grid" transform="translate(70, 30)">
		<g class="x-axis" id="x_axis">
			<path class="x-axis-path" d="M 0 525 L 660 525"/>
			<path class="x-notch-left" d="M 0 525, L 0 535"/>
			<path class="x-notch-right" d="M 660 525, L 660 535"/>
		</g>
		<g class="y-axis" id="y_axis">
			<path class="y-axis-path" d="M 0 525 L 0 0"/>
			<path class="y-axis-path-2" d="M 660 525 L 660 0"/>
			<path class="y-gridline" d="M 0 525 L 660 525"/>
			<text class="y-axis-label" x="-5" y="525">
				-100
			</text>
			<path class="y-gridline" d="M 0 438 L 660 438"/>
			<text class="y-axis-label" x="-5" y="438">
				 0
			</text>
			<path class="y-gridline" d="M 0 351 L 660 351"/>
			<text class="y-axis-label" x="-5" y="351">
				100
			</text>
			<path class="y-gridline" d="M 0 264 L 660 264"/>
			<text class="y-axis-label" x="-5" y="264">
				200
			</text>
			<path class="y-gridline" d="M 0 177 L 660 177"/>
			<text class="y-axis-label" x="-5" y="177">
				300
			</text>
			<path class="y-gridline" d="M 0 90 L 660 90"/>
			<text class="y-axis-label" x="-5" y="90">
				400
			</text>
			<path class="y-gridline" d="M 0 3 L 660 3"/>
			<text class="y-axis-label" x="-5" y="3">
				500
			</text>
		</g>
		<g>
			<path class="series-1-line" d="M 40 442.85773 L 45 438.496946176 L 51 418.565712353 L 57 451.269228529 L 62 433.761044706 L 68 434.403510882 L 74 447.385927059 L 80 421.621243235 L 85 428.613059412 L 91 424.678575588 L 97 411.029491765 L 103 411.716757941 L 108 417.340074118 L 114 396.017940294 L 120 439.176306471 L 126 407.960022647 L 131 387.220988824 L 137 332.446905 L 143 348.974121176 L 149 347.238337353 L 154 333.162953529 L 160 318.952819706 L 166 312.797235882 L 172 260.872502059 L 177 211.280868235 L 183 262.404184412 L 189 210.255100588 L 195 182.067366765 L 200 175.911782941 L 206 143.079899118 L 212 191.331465294 L 218 173.396981471 L 223 75.7926976471 L 229 107.508863824 L 235 117.75393 L 240 99.7074461765 L 246 72.2599623529 L 252 162.511528529 L 258 112.224444706 L 263 80.8286108824 L 269 122.932427059 L 275 149.241443235 L 281 156.368009412 L 286 164.190025588 L 292 95.8870417647 L 298 80.2184579412 L 304 119.854774118 L 309 122.695940294 L 315 137.405606471 L 321 121.602622647 L 327 191.190888824 L 332 218.801205 L 338 223.078421176 L 344 231.147187353 L 350 216.735103529 L 355 281.611669706 L 361 333.811935882 L 367 399.070002059 L 373 321.859868235 L 378 362.954284412 L 384 366.131800588 L 390 352.168766765 L 396 383.458632941 L 401 379.322199118 L 407 412.608815294 L 413 393.261031471 L 419 375.730447647 L 424 437.084613824 L 430 398.84593 L 436 438.571496176 L 441 406.996112353 L 447 429.850278529 L 453 423.313544706 L 459 442.398210882 L 464 430.184827059 L 470 430.849693235 L 476 424.896059412 L 482 458.654125588 L 487 465.264441765 L 493 444.189057941 L 499 438.459774118 L 505 424.204840294 L 510 440.821656471 L 516 441.621272647 L 522 444.238088824 L 528 454.415955 L 533 441.888621176 L 539 455.050237353 L 545 448.468353529 L 551 443.614069706 L 556 455.496785882 L 562 462.758102059 L 568 455.525568235 L 574 429.604084412 L 579 465.111800588 L 585 428.039666765 L 591 443.130832941 L 597 429.773299118 L 602 446.771615294 L 608 428.590381471 L 614 445.319547647 L 620 440.869163824"/>
			<path class="series-2-line" d="M 40 441.175 L 45 433.257107843 L 51 431.464215686 L 57 442.796323529 L 62 438.378431373 L 68 434.835539216 L 74 451.417647059 L 80 438.249754902 L 85 433.831862745 L 91 427.663970588 L 97 435.496078431 L 103 424.953186275 L 108 429.285294118 L 114 439.742401961 L 120 423.949509804 L 126 442.281617647 L 131 429.98872549 L 137 437.820833333 L 143 447.402941176 L 149 439.48504902 L 154 445.567156863 L 160 438.524264706 L 166 437.606372549 L 172 444.563480392 L 177 428.770588235 L 183 433.102696078 L 189 440.934803922 L 195 430.391911765 L 200 429.474019608 L 206 426.806127451 L 212 435.513235294 L 218 429.345343137 L 223 430.17745098 L 229 424.884558824 L 235 424.841666667 L 240 436.17377451 L 246 412.505882353 L 252 421.212990196 L 258 411.545098039 L 263 423.752205882 L 269 401.834313725 L 275 386.916421569 L 281 395.623529412 L 286 398.205637255 L 292 400.787745098 L 298 382.369852941 L 304 404.201960784 L 309 398.909068627 L 315 384.866176471 L 321 387.448284314 L 327 411.905392157 L 332 398.7375 L 338 408.319607843 L 344 406.526715686 L 350 396.858823529 L 355 405.565931373 L 361 412.523039216 L 367 429.980147059 L 373 422.937254902 L 378 422.019362745 L 384 398.351470588 L 390 421.058578431 L 396 414.015686275 L 401 405.222794118 L 407 393.804901961 L 413 403.387009804 L 419 402.469117647 L 424 414.67622549 L 430 436.508333333 L 436 410.215441176 L 441 416.29754902 L 447 428.504656863 L 453 452.961764706 L 459 438.918872549 L 464 427.500980392 L 470 420.458088235 L 476 422.165196078 L 482 439.622303922 L 487 426.454411765 L 493 432.536519608 L 499 433.368627451 L 505 433.325735294 L 510 428.907843137 L 516 434.98995098 L 522 430.572058824 L 528 441.029166667 L 533 444.48627451 L 539 433.068382353 L 545 430.400490196 L 551 431.232598039 L 556 414.564705882 L 562 436.396813725 L 568 432.853921569 L 574 444.186029412 L 579 427.518137255 L 585 437.975245098 L 591 432.682352941 L 597 429.139460784 L 602 433.471568627 L 608 431.678676471 L 614 443.885784314 L 620 449.967892157"/>
		</g>
		<text class="x-axis-label" x="40.0" y="540">
			0
		</text>
		<path class="x-notch" d="M 68.7128712871 525 L 68.7128712871 530"/>
		<text class="x-axis-label" x="97.4257425743" y="540">
			10
		</text>
		<path class="x-notch" d="M 126.138613861 525 L 126.138613861 530"/>
		<text class="x-axis-label" x="154.851485149" y="540">
			20
		</text>
		<path class="x-notch" d="M 183.564356436 525 L 183.564356436 530"/>
		<text class="x-axis-label" x="212.277227723" y="540">
			30
		</text>
		<path class="x-notch" d="M 240.99009901 525 L 240.99009901 530"/>
		<text class="x-axis-label" x="269.702970297" y="540">
			40
		</text>
		<path class="x-notch" d="M 298.415841584 525 L 298.415841584 530"/>
		<text class="x-axis-label" x="327.128712871" y="540">
			50
		</text>
		<path class="x-notch" d="M 355.841584158 525 L 355.841584158 530"/>
		<text class="x-axis-label" x="384.554455446" y="540">
			60
		</text>
		<path class="x-notch" d="M 413.267326733 525 L 413.267326733 530"/>
		<text class="x-axis-label" x="441.98019802" y="540">
			70
		</text>
		<path class="x-notch" d="M 470.693069307 525 L 470.693069307 530"/>
		<text class="x-axis-label" x="499.405940594" y="540">
			80
		</text>
		<path class="x-notch" d="M 528.118811881 525 L 528.118811881 530"/>
		<text class="x-axis-label" x="556.831683168" y="540">
			90
		</text>
		<path class="x-notch" d="M 585.544554455 525 L 585.544554455 530"/>
		<text class="x-axis-label" x="614.257425743" y="540">
			100
		</text>
		<path class="x-notch" d="M 642.97029703 525 L 642.97029703 530"/>
	</g>
</svg>
