<?xml version="1.0" ?>
<svg height="600" version="1.1" width="800" xmlns="http://www.w3.org/2000/svg" xmlns:svg="http://www.w3.org/2000/svg">
	<style type="text/css">
		

.x-axis-path, .y-gridline, .x-notch { fill:none; stroke: #a7a9ac; stroke-width:1; }



.y-gridline { stroke-width: 1; }

.y-axis-path, .y-axis-path2, .x-notch-left, .x-notch-right { display: none;}



.x-axis-label, .data-point-label {font-size: 12px; font-weight:normal; font-family: sans-serif; fill: #58595b; text-anchor:middle;}

.y-axis-label {font-size: 12px; font-family: helvetica; fill: #a7a9ac; text-anchor:end;}



.series-1-line { fill: none; stroke: #10b80c; stroke-width:2; }



.series-2-line { fill: none; stroke: #e90f0a; stroke-width: 2;}

	</style>
	<rect fill="white" height="600" width="800" x="0" y="0"/>
	<g id="grid" transform="translate(70, 30)">
		<g class="x-axis" id="x_axis">
			<path class="x-axis-path" d="M 0 525 L 660 525"/>
			<path class="x-notch-left" d="M 0 525, L 0 535"/>
			<path class="x-notch-right" d="M 660 525, L 660 535"/>
		</g>
		<g class="y-axis" id="y_axis">
			<path class="y-axis-path" d="M 0 525 L 0 0"/>
			<path class="y-axis-path-2" d="M 660 525 L 660 0"/>
			<path class="y-gridline" d="M 0 525 L 660 525"/>
			<text class="y-axis-label" x="-5" y="525">
				-200
			</text>
			<path class="y-gridline" d="M 0 394 L 660 394"/>
			<text class="y-axis-label" x="-5" y="394">
				 0
			</text>
			<path class="y-gridline" d="M 0 263 L 660 263"/>
			<text class="y-axis-label" x="-5" y="263">
				200
			</text>
			<path class="y-gridline" d="M 0 132 L 660 132"/>
			<text class="y-axis-label" x="-5" y="132">
				400
			</text>
			<path class="y-gridline" d="M 0 1 L 660 1"/>
			<text class="y-axis-label" x="-5" y="1">
				600
			</text>
		</g>
		<g>
			<path class="series-1-line" d="M 40 398.583286049 L 48 414.222659993 L 56 366.351415968 L 65 408.46344345 L 73 375.745912714 L 82 379.466893542 L 90 348.549740385 L 98 394.485528301 L 107 384.275929308 L 115 351.346956532 L 124 379.210690502 L 132 342.022408715 L 140 331.412868572 L 149 353.335117926 L 157 389.823190939 L 166 345.610885341 L 174 302.19882913 L 182 367.700714573 L 191 330.041643868 L 199 306.819365786 L 208 329.200473734 L 216 317.778937423 L 224 280.755477643 L 233 283.699702644 L 241 257.900841785 L 250 302.87174185 L 258 265.883338866 L 266 224.765759168 L 275 213.073312744 L 283 218.547316944 L 292 197.39559238 L 300 173.596437273 L 308 176.799642065 L 317 94.2902640539 L 325 155.603871795 L 334 143.876368575 L 342 166.704588336 L 351 158.530118979 L 359 96.646067673 L 367 172.313689946 L 376 92.346021458 L 384 0.0 L 393 53.5014484103 L 401 212.61103762 L 409 90.9806607051 L 418 147.082001908 L 426 226.643865295 L 435 152.240866746 L 443 182.022813181 L 451 193.850357015 L 460 222.7261495 L 468 248.777942655 L 477 218.354888431 L 485 217.086975084 L 493 240.220978213 L 502 171.030246202 L 510 195.188054626 L 519 340.731948368 L 527 394.127125128 L 535 378.870081603 L 544 406.039654293 L 552 412.243060114 L 561 398.574401498 L 569 407.001436064 L 577 421.334714907 L 586 396.64170326 L 594 398.785862417 L 603 403.412630109 L 611 397.026791551 L 620 380.957935402"/>
			<path class="series-2-line" d="M 40 391.363935312 L 48 390.775285288 L 56 401.658100108 L 65 405.199177428 L 73 378.455587556 L 82 393.926988315 L 90 390.585186727 L 98 388.161102327 L 107 393.537614022 L 115 399.831842905 L 124 389.148303816 L 132 379.841340509 L 140 393.936165487 L 149 397.477242806 L 157 401.47717872 L 166 396.299942757 L 174 409.477050547 L 182 396.958077083 L 191 371.591062993 L 199 384.768170782 L 208 388.309248102 L 216 385.885163702 L 224 386.673089459 L 233 380.119277715 L 241 401.555840193 L 250 388.578008136 L 258 365.964145608 L 266 397.036738556 L 275 365.245704153 L 283 375.669660379 L 292 370.033565823 L 300 347.878561889 L 308 354.631649366 L 317 346.70126184 L 325 361.254945411 L 334 352.865699292 L 342 358.242210987 L 351 332.416338302 L 359 346.052304686 L 367 358.311695288 L 376 383.419126517 L 384 317.213697577 L 393 351.498300682 L 401 392.665782694 L 409 349.403283445 L 418 353.862077952 L 426 349.143700584 L 435 329.282989619 L 443 359.43786538 L 451 380.874427858 L 460 391.298384085 L 468 376.943976246 L 477 368.095871532 L 485 356.494615256 L 493 349.940803512 L 502 340.174981611 L 510 352.893230807 L 519 398.649298757 L 527 395.766355764 L 535 401.142867459 L 544 391.377045558 L 552 395.376981471 L 561 403.506644729 L 569 400.623701735 L 577 389.022445459 L 586 398.987543092 L 594 391.974872754 L 603 391.38622273 L 611 390.797572705 L 620 397.550660181"/>
		</g>
		<text class="x-axis-label" x="40.0" y="540">
			0
		</text>
		<path class="x-notch" d="M 82.0289855072 525 L 82.0289855072 530"/>
		<text class="x-axis-label" x="124.057971014" y="540">
			10
		</text>
		<path class="x-notch" d="M 166.086956522 525 L 166.086956522 530"/>
		<text class="x-axis-label" x="208.115942029" y="540">
			20
		</text>
		<path class="x-notch" d="M 250.144927536 525 L 250.144927536 530"/>
		<text class="x-axis-label" x="292.173913043" y="540">
			30
		</text>
		<path class="x-notch" d="M 334.202898551 525 L 334.202898551 530"/>
		<text class="x-axis-label" x="376.231884058" y="540">
			40
		</text>
		<path class="x-notch" d="M 418.260869565 525 L 418.260869565 530"/>
		<text class="x-axis-label" x="460.289855072" y="540">
			50
		</text>
		<path class="x-notch" d="M 502.31884058 525 L 502.31884058 530"/>
		<text class="x-axis-label" x="544.347826087" y="540">
			60
		</text>
		<path class="x-notch" d="M 586.376811594 525 L 586.376811594 530"/>
	</g>
</svg>
