<?xml version="1.0" ?>
<svg height="600" version="1.1" width="800" xmlns="http://www.w3.org/2000/svg" xmlns:svg="http://www.w3.org/2000/svg">
	<style type="text/css">

.x-axis-path, .y-gridline, .x-notch { fill:none; stroke: #a7a9ac; stroke-width:1; }



.y-gridline { stroke-width: 1; }

.y-axis-path, .y-axis-path2, .x-notch-left, .x-notch-right { display: none;}



.x-axis-label, .data-point-label {font-size: 12px; font-weight:normal; font-family: sans-serif; fill: #58595b; text-anchor:middle;}

.y-axis-label {font-size: 12px; font-family: helvetica; fill: #a7a9ac; text-anchor:end;}



.series-1-line { fill: none; stroke: #10b80c; stroke-width:2; }



.series-2-line { fill: none; stroke: #e90f0a; stroke-width: 2;}
</style>
	<rect fill="white" height="600" width="800" x="0" y="0"/>
	<g id="grid" transform="translate(70, 30)">
		<g class="x-axis" id="x_axis">
			<path class="x-axis-path" d="M 0 525 L 660 525"/>
			<path class="x-notch-left" d="M 0 525, L 0 535"/>
			<path class="x-notch-right" d="M 660 525, L 660 535"/>
		</g>
		<g class="y-axis" id="y_axis">
			<path class="y-axis-path" d="M 0 525 L 0 0"/>
			<path class="y-axis-path-2" d="M 660 525 L 660 0"/>
			<path class="y-gridline" d="M 0 525 L 660 525"/>
			<text class="y-axis-label" x="-5" y="525">-200</text>
			<path class="y-gridline" d="M 0 394 L 660 394"/>
			<text class="y-axis-label" x="-5" y="394"> 0</text>
			<path class="y-gridline" d="M 0 263 L 660 263"/>
			<text class="y-axis-label" x="-5" y="263">200</text>
			<path class="y-gridline" d="M 0 132 L 660 132"/>
			<text class="y-axis-label" x="-5" y="132">400</text>
			<path class="y-gridline" d="M 0 1 L 660 1"/>
			<text class="y-axis-label" x="-5" y="1">600</text>
		</g>
		<g>
			<path class="series-1-line" d="M 40 379.471651395 L 43 402.469598142 L 47 397.251854404 L 51 387.322221577 L 54 400.631042726 L 58 379.175615098 L 62 371.801456445 L 66 408.455036641 L 69 353.459944788 L 73 374.408196942 L 77 376.883036743 L 81 393.093238793 L 84 399.214840732 L 88 399.187774146 L 92 394.342513401 L 96 389.444100122 L 99 364.261766299 L 103 367.615283928 L 107 388.217629356 L 111 384.277207452 L 114 360.399602238 L 118 357.976519079 L 122 375.011831169 L 126 385.765178144 L 129 396.11946586 L 133 388.851612275 L 137 359.78332991 L 141 379.720022901 L 144 350.811613392 L 148 370.215950534 L 152 387.118381289 L 156 359.620590203 L 159 330.632036639 L 163 346.416187909 L 167 317.587507201 L 170 331.561565535 L 174 297.781809334 L 178 289.236218661 L 182 287.957991254 L 185 268.631987021 L 189 268.391895044 L 193 276.802793234 L 197 242.623562519 L 200 227.263650883 L 204 198.647995566 L 208 180.093948838 L 212 172.906239308 L 215 127.786306922 L 219 117.617487691 L 223 131.777995147 L 227 114.794439698 L 230 116.071271212 L 234 60.0380439293 L 238 137.019033047 L 242 85.8301609351 L 245 59.3974968004 L 249 131.98634254 L 253 122.243158835 L 257 74.3551421373 L 260 102.064562721 L 264 55.9334864252 L 268 58.3817499586 L 272 22.685180499 L 275 35.2751966771 L 279 55.6649319693 L 283 57.2876702086 L 286 75.1480923388 L 290 42.1402936433 L 294 43.1779387542 L 298 30.1870521697 L 301 40.6210686863 L 305 0.0 L 309 31.3034454429 L 313 101.709715254 L 316 121.646408244 L 320 84.9117033544 L 324 89.302941159 L 328 100.0031356 L 331 36.8894094288 L 335 63.5075420481 L 339 39.3633436557 L 343 113.150197681 L 346 107.240225239 L 350 130.398044843 L 354 132.659859253 L 358 156.536483828 L 361 143.412715908 L 365 142.959598541 L 369 143.704074207 L 373 127.119578017 L 376 171.253546869 L 380 216.424820643 L 384 166.673558475 L 388 196.991605767 L 391 120.355127482 L 395 162.252537363 L 399 169.465842521 L 402 217.459183648 L 406 235.00027532 L 410 192.089910383 L 414 199.196495219 L 417 196.933284916 L 421 224.004044583 L 425 293.824806011 L 429 271.756878479 L 432 235.31492778 L 436 189.476605676 L 440 253.520766317 L 444 269.252180306 L 447 310.830259729 L 451 363.534659438 L 455 295.62973063 L 459 338.804877598 L 462 349.691105908 L 466 345.138599355 L 470 354.800658365 L 474 331.322112411 L 477 339.414095397 L 481 335.048037967 L 485 343.964715738 L 489 367.362136999 L 492 368.638968513 L 496 403.93508282 L 500 419.825954412 L 504 427.997250945 L 507 392.7798848 L 511 399.061359596 L 515 407.472257786 L 518 393.762981484 L 522 391.872254174 L 526 389.768501473 L 530 400.388967113 L 533 393.174681316 L 537 390.645293089 L 541 399.109343813 L 545 408.5849537 L 548 394.290169016 L 552 401.476482652 L 556 393.516815617 L 560 405.042120098 L 563 386.621369959 L 567 401.101207874 L 571 384.543703206 L 575 409.804369937 L 578 396.414424093 L 582 398.596509702 L 586 418.134143433 L 590 397.077775064 L 593 411.477884178 L 597 409.001648485 L 601 412.834369428 L 605 387.279552613 L 608 405.379576401 L 612 363.534338415 L 616 402.343918272 L 620 412.618061933"/>
			<path class="series-2-line" d="M 40 394.372881258 L 43 384.871280186 L 47 404.43747116 L 51 389.745192937 L 54 393.739352457 L 58 395.657241117 L 62 387.193775475 L 66 393.264205856 L 69 404.525313388 L 73 390.871170595 L 77 384.483975814 L 81 381.211187323 L 84 372.747721681 L 88 392.313912655 L 92 394.231801315 L 96 404.454773417 L 99 380.419276322 L 103 398.947331865 L 107 398.788949665 L 111 380.982265151 L 114 396.395914404 L 118 384.818042472 L 122 374.278305969 L 126 372.043652909 L 129 391.609843882 L 133 366.536211357 L 137 381.94986061 L 141 364.143176096 L 144 395.128856802 L 148 379.398443149 L 152 389.621415251 L 156 402.958793643 L 159 405.914817733 L 163 388.10813322 L 167 406.636188763 L 170 387.791368819 L 174 409.433830653 L 178 381.245791838 L 182 393.5450348 L 185 387.157840018 L 189 399.45708298 L 193 398.26056535 L 197 401.21658944 L 200 383.409904927 L 204 409.204908481 L 208 403.85584913 L 212 406.81187322 L 215 375.509428114 L 219 398.190025378 L 223 390.764695167 L 227 383.339364955 L 230 361.380138721 L 234 372.641246253 L 238 363.139645181 L 242 347.409231527 L 245 397.081349977 L 249 384.465342614 L 253 381.192554123 L 257 376.881630202 L 260 361.151216549 L 264 366.1835115 L 268 363.948858439 L 272 360.676069948 L 275 355.327010597 L 279 388.388962163 L 283 352.933975336 L 286 335.127290822 L 290 357.807888087 L 294 373.221537339 L 298 350.224175675 L 301 357.332741486 L 305 353.021817565 L 309 384.00749827 L 313 388.001657791 L 316 370.194973277 L 320 366.922184787 L 324 344.962958552 L 328 351.033388933 L 331 373.713986197 L 335 366.288655986 L 339 342.253158891 L 343 345.209182981 L 346 351.279613362 L 350 357.350043743 L 354 343.69590095 L 358 359.109550203 L 361 356.874897142 L 365 361.907192093 L 369 342.024236719 L 373 312.798062473 L 376 366.622722643 L 380 339.472819258 L 384 342.428843348 L 388 324.622158835 L 391 310.968016042 L 395 308.733362981 L 399 332.452095675 L 402 350.980151219 L 406 342.516685577 L 410 330.938813644 L 414 330.780431444 L 417 334.774590965 L 421 337.730615055 L 425 352.106128878 L 429 328.070631783 L 432 319.607166141 L 436 319.448783941 L 440 303.718370287 L 444 334.704050993 L 447 341.812616804 L 451 313.624577989 L 455 354.991612996 L 459 355.871366226 L 462 332.874004562 L 466 329.601216071 L 470 335.671646452 L 474 329.28445167 L 477 377.918434689 L 481 386.065135931 L 485 386.944889161 L 489 396.129725832 L 492 374.170499598 L 496 389.584148851 L 500 395.654579232 L 504 391.343655311 L 507 394.299679401 L 511 401.408245212 L 515 400.211727582 L 518 408.358428823 L 522 394.70428603 L 526 373.783195226 L 530 392.311250769 L 533 399.41981658 L 537 404.452111531 L 541 394.950510459 L 545 389.601451108 L 548 408.129506651 L 552 395.513499288 L 556 397.431387949 L 560 396.234870318 L 563 410.610384141 L 567 393.841835057 L 571 400.950400868 L 575 402.868289529 L 578 401.671771898 L 582 400.475254268 L 586 404.469413788 L 590 384.586458414 L 593 380.275534493 L 597 377.002746002 L 601 401.759614127 L 605 395.372419345 L 608 380.680141122 L 612 405.437009247 L 616 399.049814465 L 620 390.586348824"/>
		</g>
		<text class="x-axis-label" x="40.0" y="540">0</text>
		<path class="x-notch" d="M 58.7096774194 525 L 58.7096774194 530"/>
		<text class="x-axis-label" x="77.4193548387" y="540">10</text>
		<path class="x-notch" d="M 96.1290322581 525 L 96.1290322581 530"/>
		<text class="x-axis-label" x="114.838709677" y="540">20</text>
		<path class="x-notch" d="M 133.548387097 525 L 133.548387097 530"/>
		<text class="x-axis-label" x="152.258064516" y="540">30</text>
		<path class="x-notch" d="M 170.967741935 525 L 170.967741935 530"/>
		<text class="x-axis-label" x="189.677419355" y="540">40</text>
		<path class="x-notch" d="M 208.387096774 525 L 208.387096774 530"/>
		<text class="x-axis-label" x="227.096774194" y="540">50</text>
		<path class="x-notch" d="M 245.806451613 525 L 245.806451613 530"/>
		<text class="x-axis-label" x="264.516129032" y="540">60</text>
		<path class="x-notch" d="M 283.225806452 525 L 283.225806452 530"/>
		<text class="x-axis-label" x="301.935483871" y="540">70</text>
		<path class="x-notch" d="M 320.64516129 525 L 320.64516129 530"/>
		<text class="x-axis-label" x="339.35483871" y="540">80</text>
		<path class="x-notch" d="M 358.064516129 525 L 358.064516129 530"/>
		<text class="x-axis-label" x="376.774193548" y="540">90</text>
		<path class="x-notch" d="M 395.483870968 525 L 395.483870968 530"/>
		<text class="x-axis-label" x="414.193548387" y="540">100</text>
		<path class="x-notch" d="M 432.903225806 525 L 432.903225806 530"/>
		<text class="x-axis-label" x="451.612903226" y="540">110</text>
		<path class="x-notch" d="M 470.322580645 525 L 470.322580645 530"/>
		<text class="x-axis-label" x="489.032258065" y="540">120</text>
		<path class="x-notch" d="M 507.741935484 525 L 507.741935484 530"/>
		<text class="x-axis-label" x="526.451612903" y="540">130</text>
		<path class="x-notch" d="M 545.161290323 525 L 545.161290323 530"/>
		<text class="x-axis-label" x="563.870967742" y="540">140</text>
		<path class="x-notch" d="M 582.580645161 525 L 582.580645161 530"/>
		<text class="x-axis-label" x="601.290322581" y="540">150</text>
		<path class="x-notch" d="M 620.0 525 L 620.0 530"/>
	</g>
</svg>
