<?xml version="1.0" ?>
<svg height="600" version="1.1" width="800" xmlns="http://www.w3.org/2000/svg" xmlns:svg="http://www.w3.org/2000/svg">
	<style type="text/css">
		

.x-axis-path, .y-gridline, .x-notch { fill:none; stroke: #a7a9ac; stroke-width:1; }



.y-gridline { stroke-width: 1; }

.y-axis-path, .y-axis-path2, .x-notch-left, .x-notch-right { display: none;}



.x-axis-label, .data-point-label {font-size: 12px; font-weight:normal; font-family: sans-serif; fill: #58595b; text-anchor:middle;}

.y-axis-label {font-size: 12px; font-family: helvetica; fill: #a7a9ac; text-anchor:end;}



.series-1-line { fill: none; stroke: #10b80c; stroke-width:2; }



.series-2-line { fill: none; stroke: #e90f0a; stroke-width: 2;}

	</style>
	<rect fill="white" height="600" width="800" x="0" y="0"/>
	<g id="grid" transform="translate(70, 30)">
		<g class="x-axis" id="x_axis">
			<path class="x-axis-path" d="M 0 525 L 660 525"/>
			<path class="x-notch-left" d="M 0 525, L 0 535"/>
			<path class="x-notch-right" d="M 660 525, L 660 535"/>
		</g>
		<g class="y-axis" id="y_axis">
			<path class="y-axis-path" d="M 0 525 L 0 0"/>
			<path class="y-axis-path-2" d="M 660 525 L 660 0"/>
			<path class="y-gridline" d="M 0 525 L 660 525"/>
			<text class="y-axis-label" x="-5" y="525">
				-200
			</text>
			<path class="y-gridline" d="M 0 394 L 660 394"/>
			<text class="y-axis-label" x="-5" y="394">
				 0
			</text>
			<path class="y-gridline" d="M 0 263 L 660 263"/>
			<text class="y-axis-label" x="-5" y="263">
				200
			</text>
			<path class="y-gridline" d="M 0 132 L 660 132"/>
			<text class="y-axis-label" x="-5" y="132">
				400
			</text>
			<path class="y-gridline" d="M 0 1 L 660 1"/>
			<text class="y-axis-label" x="-5" y="1">
				600
			</text>
		</g>
		<g>
			<path class="series-1-line" d="M 40 359.270817222 L 43 396.942878413 L 46 405.960208753 L 50 416.239826619 L 53 389.283168469 L 57 390.234320715 L 60 371.574992037 L 63 397.419740708 L 67 370.797548552 L 70 381.128622726 L 74 383.806777269 L 77 394.885173898 L 80 403.592962393 L 84 400.962273283 L 87 406.217263191 L 91 374.054674001 L 94 378.639525913 L 98 405.591791188 L 101 379.201956417 L 104 412.312898412 L 108 385.613923798 L 111 406.716652196 L 115 406.095975071 L 118 379.834781067 L 121 380.116197321 L 125 381.814672023 L 128 379.8022626 L 132 378.846717478 L 135 360.110204339 L 138 371.188600968 L 142 365.620480344 L 145 338.457192962 L 149 312.608453418 L 152 308.251164014 L 156 317.345276811 L 159 279.3592809 L 162 264.616661575 L 166 268.686146414 L 169 236.446372764 L 173 197.867423317 L 176 188.794243795 L 179 198.584624744 L 183 243.085902653 L 186 215.742116195 L 190 189.841920343 L 193 228.751344911 L 196 169.324953164 L 200 196.458119518 L 203 199.264512826 L 207 154.19161666 L 210 130.275302638 L 214 143.724709403 L 217 131.765554674 L 220 164.722127749 L 224 112.253593487 L 227 93.078897736 L 231 103.668057448 L 234 112.633529479 L 237 35.6066687915 L 241 90.3899620053 L 244 108.091348123 L 248 93.0914472634 L 251 54.2805424338 L 254 76.7750031296 L 258 49.5598574382 L 261 26.3140834137 L 265 99.9348069433 L 268 111.090790035 L 272 94.5186578011 L 275 75.9111874318 L 278 99.255883197 L 282 111.98369566 L 285 112.032754528 L 289 90.8484487951 L 292 62.5772428071 L 295 148.128995474 L 299 80.5339150223 L 302 6.908396615 L 306 0.0 L 309 1.72420285578 L 312 25.0693006234 L 316 56.5312287866 L 319 45.1650275925 L 323 54.8263657724 L 326 100.461692443 L 330 106.154060958 L 333 116.45980898 L 336 5.88102424381 L 340 110.244881075 L 343 166.600405664 L 347 109.338394822 L 350 155.952999331 L 353 108.483766877 L 357 156.077649225 L 360 163.625660804 L 364 108.786116406 L 367 93.5538581609 L 370 125.944009858 L 374 211.882488831 L 377 206.597377895 L 381 184.614293399 L 384 162.630806901 L 388 229.216890487 L 391 248.59301859 L 394 246.581011169 L 398 245.702248505 L 401 219.698738038 L 405 263.118227497 L 408 229.486721548 L 411 285.069195527 L 415 242.753633802 L 418 226.181501568 L 422 263.673867687 L 425 242.953070717 L 428 222.773368974 L 432 284.308292443 L 435 270.493896652 L 439 275.594115637 L 442 309.143642247 L 446 292.777737243 L 449 299.552698213 L 452 314.78016158 L 456 307.511168815 L 459 324.052778018 L 463 302.610386746 L 466 318.585172569 L 469 327.009549374 L 473 321.003246137 L 476 354.913368898 L 480 371.532564563 L 483 340.967532898 L 486 284.736658204 L 490 285.868309527 L 493 340.49723382 L 497 385.565737111 L 500 349.769850258 L 504 383.138877792 L 507 315.311439955 L 510 387.489376882 L 514 389.960902194 L 517 368.441326462 L 521 379.803536783 L 524 375.987342605 L 527 387.684420922 L 531 410.849019614 L 534 389.458084649 L 538 394.738400707 L 541 381.465100142 L 544 406.150071899 L 548 405.039755854 L 551 395.244982029 L 555 387.692577575 L 558 378.46462713 L 562 386.554135938 L 565 393.69009506 L 568 405.902138449 L 572 402.112074426 L 575 394.945994275 L 579 398.061929429 L 582 395.327925703 L 585 377.493505943 L 589 404.832497524 L 592 385.348661929 L 596 369.910578457 L 599 394.389322984 L 602 404.359801007 L 606 373.022120735 L 609 405.90150935 L 613 375.748932145 L 616 411.514697969 L 620 404.142390588"/>
			<path class="series-2-line" d="M 40 418.473147409 L 43 364.995074166 L 46 391.917480302 L 50 378.639646749 L 53 412.59709483 L 57 404.344291237 L 60 398.101499629 L 63 426.028911757 L 67 407.726048243 L 70 386.408166752 L 74 422.375626817 L 77 402.062751318 L 80 398.834977687 L 84 400.632234017 L 87 426.54963416 L 91 410.25678263 L 94 423.109104874 L 98 395.76118743 L 101 419.668575589 L 104 372.2205383 L 108 405.172980389 L 111 388.880128859 L 115 390.677385189 L 118 394.484653503 L 121 412.362005709 L 125 405.114208109 L 128 388.821356579 L 132 403.683690807 L 135 409.500971106 L 138 389.188095607 L 142 418.120513727 L 145 405.847686166 L 149 423.725038371 L 152 420.49726474 L 156 396.164365273 L 159 426.101789385 L 162 396.743859956 L 166 411.606194185 L 169 407.373414561 L 173 412.185688868 L 176 399.912861307 L 179 423.820249465 L 183 402.502367974 L 186 379.174474499 L 190 405.091874642 L 193 393.824053073 L 196 397.631321387 L 200 420.533703554 L 203 397.205810079 L 207 395.988048432 L 210 386.730238847 L 214 388.527495177 L 217 395.349781468 L 220 372.021887993 L 224 387.889228214 L 227 383.65644859 L 231 400.528794804 L 234 396.29601518 L 237 402.113295479 L 241 383.810431965 L 244 388.622706271 L 248 399.465016531 L 251 401.262272861 L 254 403.059529191 L 258 359.631515871 L 261 402.634017882 L 265 385.33616036 L 268 392.158446651 L 272 373.855583136 L 275 398.767977287 L 278 385.490143734 L 282 382.262370103 L 285 357.929470635 L 289 392.891924708 L 292 396.699193023 L 295 360.306221648 L 299 384.213609807 L 302 368.925764269 L 306 371.728026592 L 309 360.460205023 L 312 386.377605166 L 316 361.039699706 L 319 392.987135802 L 323 397.799410109 L 326 395.57664247 L 330 353.153635142 L 333 375.051011317 L 336 362.778183756 L 340 370.605476039 L 343 381.447786299 L 347 361.1349108 L 350 362.93216713 L 353 382.81953132 L 357 388.636811619 L 360 370.333948104 L 364 364.091156496 L 367 332.723215083 L 370 358.640615226 L 374 340.337751712 L 377 325.049906174 L 381 367.047402193 L 384 369.849664515 L 388 391.747040689 L 391 370.429159198 L 394 393.331541365 L 398 356.93856999 L 401 359.740832312 L 405 389.678256425 L 408 367.355368941 L 411 381.212697178 L 415 380.999941523 L 418 362.697078009 L 422 376.554406245 L 425 378.351662575 L 428 374.118882952 L 432 360.841049399 L 435 382.738425573 L 439 393.580735833 L 442 395.377992163 L 446 384.110170594 L 449 368.822325056 L 452 367.604563409 L 456 387.491927599 L 459 377.229112023 L 463 374.001338391 L 466 373.788582737 L 469 375.585839067 L 473 394.468197265 L 476 379.180351727 L 480 396.05269794 L 483 365.689762519 L 486 380.552096748 L 490 383.35435907 L 493 389.171639369 L 497 396.998931652 L 500 398.796187982 L 504 389.538378398 L 507 371.235514883 L 510 383.082831135 L 514 372.820015559 L 517 381.652313834 L 521 395.509642071 L 524 386.251832486 L 527 387.044082824 L 531 401.906417053 L 534 390.638595484 L 538 373.340737961 L 541 389.208078183 L 544 402.060400427 L 548 401.847644772 L 551 384.54978725 L 555 409.462181401 L 558 382.114263957 L 562 396.976598186 L 565 403.798884477 L 568 363.385889133 L 572 389.303289277 L 575 393.110557591 L 579 399.932843882 L 582 378.614962391 L 585 400.512338565 L 589 391.254528981 L 592 396.066803287 L 596 396.859053625 L 599 402.676333924 L 602 398.443554301 L 606 410.290870553 L 609 399.023048984 L 613 382.730197454 L 616 391.562495729 L 620 388.334722098"/>
		</g>
		<text class="x-axis-label" x="40.0" y="540">
			0
		</text>
		<path class="x-notch" d="M 57.0588235294 525 L 57.0588235294 530"/>
		<text class="x-axis-label" x="74.1176470588" y="540">
			10
		</text>
		<path class="x-notch" d="M 91.1764705882 525 L 91.1764705882 530"/>
		<text class="x-axis-label" x="108.235294118" y="540">
			20
		</text>
		<path class="x-notch" d="M 125.294117647 525 L 125.294117647 530"/>
		<text class="x-axis-label" x="142.352941176" y="540">
			30
		</text>
		<path class="x-notch" d="M 159.411764706 525 L 159.411764706 530"/>
		<text class="x-axis-label" x="176.470588235" y="540">
			40
		</text>
		<path class="x-notch" d="M 193.529411765 525 L 193.529411765 530"/>
		<text class="x-axis-label" x="210.588235294" y="540">
			50
		</text>
		<path class="x-notch" d="M 227.647058824 525 L 227.647058824 530"/>
		<text class="x-axis-label" x="244.705882353" y="540">
			60
		</text>
		<path class="x-notch" d="M 261.764705882 525 L 261.764705882 530"/>
		<text class="x-axis-label" x="278.823529412" y="540">
			70
		</text>
		<path class="x-notch" d="M 295.882352941 525 L 295.882352941 530"/>
		<text class="x-axis-label" x="312.941176471" y="540">
			80
		</text>
		<path class="x-notch" d="M 330.0 525 L 330.0 530"/>
		<text class="x-axis-label" x="347.058823529" y="540">
			90
		</text>
		<path class="x-notch" d="M 364.117647059 525 L 364.117647059 530"/>
		<text class="x-axis-label" x="381.176470588" y="540">
			100
		</text>
		<path class="x-notch" d="M 398.235294118 525 L 398.235294118 530"/>
		<text class="x-axis-label" x="415.294117647" y="540">
			110
		</text>
		<path class="x-notch" d="M 432.352941176 525 L 432.352941176 530"/>
		<text class="x-axis-label" x="449.411764706" y="540">
			120
		</text>
		<path class="x-notch" d="M 466.470588235 525 L 466.470588235 530"/>
		<text class="x-axis-label" x="483.529411765" y="540">
			130
		</text>
		<path class="x-notch" d="M 500.588235294 525 L 500.588235294 530"/>
		<text class="x-axis-label" x="517.647058824" y="540">
			140
		</text>
		<path class="x-notch" d="M 534.705882353 525 L 534.705882353 530"/>
		<text class="x-axis-label" x="551.764705882" y="540">
			150
		</text>
		<path class="x-notch" d="M 568.823529412 525 L 568.823529412 530"/>
		<text class="x-axis-label" x="585.882352941" y="540">
			160
		</text>
		<path class="x-notch" d="M 602.941176471 525 L 602.941176471 530"/>
		<text class="x-axis-label" x="620.0" y="540">
			170
		</text>
	</g>
</svg>
