<?xml version="1.0" ?>
<svg height="600" version="1.1" width="800" xmlns="http://www.w3.org/2000/svg" xmlns:svg="http://www.w3.org/2000/svg">
	<style type="text/css">
		

.x-axis-path, .y-gridline, .x-notch { fill:none; stroke: #a7a9ac; stroke-width:1; }



.y-gridline { stroke-width: 1; }

.y-axis-path, .y-axis-path2, .x-notch-left, .x-notch-right { display: none;}



.x-axis-label, .data-point-label {font-size: 12px; font-weight:normal; font-family: sans-serif; fill: #58595b; text-anchor:middle;}

.y-axis-label {font-size: 12px; font-family: helvetica; fill: #a7a9ac; text-anchor:end;}



.series-1-line { fill: none; stroke: #10b80c; stroke-width:2; }



.series-2-line { fill: none; stroke: #e90f0a; stroke-width: 2;}

	</style>
	<rect fill="white" height="600" width="800" x="0" y="0"/>
	<g id="grid" transform="translate(70, 30)">
		<g class="x-axis" id="x_axis">
			<path class="x-axis-path" d="M 0 525 L 660 525"/>
			<path class="x-notch-left" d="M 0 525, L 0 535"/>
			<path class="x-notch-right" d="M 660 525, L 660 535"/>
		</g>
		<g class="y-axis" id="y_axis">
			<path class="y-axis-path" d="M 0 525 L 0 0"/>
			<path class="y-axis-path-2" d="M 660 525 L 660 0"/>
			<path class="y-gridline" d="M 0 525 L 660 525"/>
			<text class="y-axis-label" x="-5" y="525">
				-300
			</text>
			<path class="y-gridline" d="M 0 420 L 660 420"/>
			<text class="y-axis-label" x="-5" y="420">
				 0
			</text>
			<path class="y-gridline" d="M 0 315 L 660 315"/>
			<text class="y-axis-label" x="-5" y="315">
				300
			</text>
			<path class="y-gridline" d="M 0 210 L 660 210"/>
			<text class="y-axis-label" x="-5" y="210">
				600
			</text>
			<path class="y-gridline" d="M 0 105 L 660 105"/>
			<text class="y-axis-label" x="-5" y="105">
				900
			</text>
			<path class="y-gridline" d="M 0 0 L 660 0"/>
			<text class="y-axis-label" x="-5" y="0">
				1200
			</text>
		</g>
		<g>
			<path class="series-1-line" d="M 40 407.381828 L 42 423.79408996 L 45 435.027471921 L 48 423.439453881 L 51 409.796375842 L 54 422.340017802 L 57 425.622659762 L 60 417.049961723 L 63 426.596203683 L 65 405.971045644 L 68 429.140687604 L 71 415.533169564 L 74 427.646311525 L 77 419.818413485 L 80 400.135595446 L 83 428.411457406 L 86 420.206539366 L 89 416.883981327 L 91 420.444523287 L 94 418.952605248 L 97 413.969647208 L 100 421.685109168 L 103 424.025551129 L 106 428.106333089 L 109 421.49013505 L 112 418.45457701 L 115 401.86785897 L 117 422.578260931 L 120 409.832302891 L 123 416.327664851 L 126 417.644706812 L 129 425.028228772 L 132 409.760450733 L 135 402.839192693 L 138 409.971554653 L 140 410.148716614 L 143 374.536278574 L 146 383.248260535 L 149 395.307642495 L 152 378.316884455 L 155 381.096786416 L 158 409.049668376 L 161 406.893590337 L 164 405.670892297 L 166 403.747914257 L 169 383.652096218 L 172 375.213938178 L 175 378.487480139 L 178 382.308282099 L 181 391.711304059 L 184 393.44106602 L 187 384.51850798 L 190 407.670089941 L 192 403.234391901 L 195 382.590893861 L 198 399.478455822 L 201 396.326557782 L 204 403.306319743 L 207 408.554001703 L 210 408.820903663 L 213 391.713665624 L 216 388.085907584 L 218 394.500349545 L 221 395.889071505 L 224 387.370133465 L 227 378.600035426 L 230 393.127197386 L 233 386.816199347 L 236 391.776601307 L 239 425.993363267 L 241 405.287565228 L 244 385.092767188 L 247 377.175269149 L 250 408.511671109 L 253 395.496633069 L 256 395.80833503 L 259 388.44719699 L 262 406.12435895 L 265 395.918420911 L 267 408.901942871 L 270 403.380684832 L 273 410.136166792 L 276 401.985148752 L 279 408.211150713 L 282 400.553772673 L 285 407.004194634 L 288 423.182796594 L 291 392.766458554 L 293 405.750120515 L 296 396.243902475 L 299 389.555884436 L 302 375.347066396 L 305 344.643588356 L 308 344.596330317 L 311 326.779992277 L 314 297.961054238 L 317 284.461336198 L 319 318.139658158 L 322 280.768260119 L 325 347.392082079 L 328 400.48210404 L 331 362.033826 L 334 396.28684796 L 337 393.699989921 L 340 392.306491881 L 342 402.427433842 L 345 410.959795802 L 348 396.410077762 L 351 398.561799723 L 354 409.337801683 L 357 393.585483644 L 360 415.166545604 L 363 359.738787564 L 366 352.538929525 L 368 324.653231485 L 371 313.495853446 L 374 332.554955406 L 377 319.054957366 L 380 228.573439327 L 383 286.446981287 L 386 212.145683248 L 389 185.256365208 L 392 227.397687168 L 394 193.436269129 L 397 212.953451089 L 400 175.85995305 L 403 174.40415501 L 406 181.29417697 L 409 184.271198931 L 412 142.825520891 L 415 184.041862851 L 418 64.3216248119 L 420 146.013366772 L 423 148.200508733 L 426 207.573030693 L 429 240.830232653 L 432 231.458554614 L 435 229.185856574 L 438 240.069658535 L 441 207.678620495 L 443 311.644782455 L 446 313.733364416 L 449 337.684066376 L 452 387.633188337 L 455 383.915410297 L 458 373.538672257 L 461 386.334314218 L 464 361.158876178 L 467 368.013058139 L 469 402.328660099 L 472 410.367662059 L 475 416.35132402 L 478 425.35002598 L 481 426.433827941 L 484 416.811409901 L 487 424.706771861 L 490 452.327573822 L 493 431.477995782 L 495 439.849077743 L 498 427.381299703 L 501 435.545881663 L 504 434.098623624 L 507 445.879685584 L 510 439.128667545 L 513 440.006109505 L 516 434.529371465 L 519 431.655653426 L 521 432.021255386 L 524 425.171537347 L 527 434.744939307 L 530 430.426001267 L 533 433.169783228 L 536 429.272805188 L 539 431.936087149 L 542 421.532469109 L 544 427.157311069 L 547 422.53317303 L 550 430.62579499 L 553 431.62881695 L 556 431.402078911 L 559 439.503800871 L 562 431.819542832 L 565 431.763324792 L 568 433.942066752 L 570 437.296108713 L 573 427.152890673 L 576 427.078892634 L 579 416.208654594 L 582 433.930896554 L 585 429.773378515 L 588 434.841720475 L 591 425.012522436 L 594 427.693724396 L 596 424.523626356 L 599 417.790528317 L 602 421.719130277 L 605 428.752792238 L 608 403.227074198 L 611 426.702056158 L 614 420.722998119 L 617 423.457820079 L 620 426.73122204"/>
			<path class="series-2-line" d="M 40 398.23 L 42 436.221633663 L 45 408.413267327 L 48 419.10490099 L 51 436.446534653 L 54 408.988168317 L 57 434.02980198 L 60 438.421435644 L 63 414.463069307 L 65 429.00470297 L 68 436.546336634 L 71 420.987970297 L 74 419.77960396 L 77 417.171237624 L 80 434.862871287 L 83 423.85450495 L 86 411.796138614 L 89 429.837772277 L 91 425.129405941 L 94 430.571039604 L 97 434.612673267 L 100 409.604306931 L 103 445.145940594 L 106 413.837574257 L 109 426.979207921 L 112 427.520841584 L 115 439.962475248 L 117 421.604108911 L 120 408.145742574 L 123 423.387376238 L 126 427.429009901 L 129 413.270643564 L 132 397.362277228 L 135 417.153910891 L 138 414.895544554 L 140 405.637178218 L 143 410.378811881 L 146 421.070445545 L 149 428.262079208 L 152 421.803712871 L 155 429.695346535 L 158 428.136980198 L 161 427.978613861 L 164 432.370247525 L 166 409.461881188 L 169 409.653514851 L 172 406.695148515 L 175 419.486782178 L 178 415.128415842 L 181 427.220049505 L 184 421.461683168 L 187 439.503316832 L 190 436.194950495 L 192 423.086584158 L 195 399.478217822 L 198 404.219851485 L 201 436.611485149 L 204 430.853118812 L 207 422.294752475 L 210 412.686386139 L 213 424.428019802 L 216 435.469653465 L 218 436.011287129 L 221 428.852920792 L 224 424.844554455 L 227 432.736188119 L 230 423.477821782 L 233 443.619455446 L 236 425.261089109 L 239 402.002722772 L 241 429.144356436 L 244 403.785990099 L 247 415.177623762 L 250 431.819257426 L 253 433.060891089 L 256 416.452524752 L 259 422.944158416 L 262 413.685792079 L 265 427.177425743 L 267 413.019059406 L 270 432.810693069 L 273 434.752326733 L 276 427.943960396 L 279 430.585594059 L 282 428.677227723 L 285 437.268861386 L 288 443.41049505 L 291 442.902128713 L 293 442.393762376 L 296 428.58539604 L 299 439.277029703 L 302 421.968663366 L 305 425.31029703 L 308 410.101930693 L 311 409.593564356 L 314 405.58519802 L 317 400.526831683 L 319 379.368465347 L 322 385.51009901 L 325 425.601732673 L 328 420.193366337 L 331 430.535 L 334 442.626633663 L 337 441.418267327 L 340 417.80990099 L 342 427.101534653 L 345 424.843168317 L 348 419.78480198 L 351 430.126435644 L 354 432.768069307 L 357 424.20970297 L 360 420.201336634 L 363 431.242970297 L 366 412.53460396 L 368 399.426237624 L 371 397.517871287 L 374 377.40950495 L 377 345.051138614 L 380 364.492772277 L 383 377.284405941 L 386 343.176039604 L 389 352.117673267 L 392 348.459306931 L 394 327.650940594 L 397 345.342574257 L 400 321.734207921 L 403 348.875841584 L 406 343.467475248 L 409 320.559108911 L 412 334.400742574 L 415 270.192376238 L 418 264.434009901 L 420 301.725643564 L 423 265.517277228 L 426 303.858910891 L 429 348.500544554 L 432 327.342178218 L 435 331.733811881 L 438 344.875445545 L 441 311.117079208 L 443 354.358712871 L 446 333.550346535 L 449 369.441980198 L 452 376.283613861 L 455 360.375247525 L 458 345.866881188 L 461 388.408514851 L 464 375.650148515 L 467 375.841782178 L 469 364.483415842 L 472 384.625049505 L 475 384.116683168 L 478 350.008316832 L 481 363.149950495 L 484 394.841584158 L 487 410.083217822 L 490 405.724851485 L 493 414.316485149 L 495 437.258118812 L 498 421.349752475 L 501 435.541386139 L 504 420.333019802 L 507 416.324653465 L 510 409.516287129 L 513 427.557920792 L 516 413.049554455 L 519 442.991188119 L 521 431.632821782 L 524 426.574455446 L 527 425.716089109 L 530 421.707722772 L 533 407.899356436 L 536 419.990990099 L 539 432.432623762 L 542 422.124257426 L 544 436.665891089 L 547 425.657524752 L 550 423.749158416 L 553 435.840792079 L 556 421.332425743 L 559 431.674059406 L 562 433.965693069 L 565 420.157326733 L 568 439.948960396 L 570 426.490594059 L 573 430.182227723 L 576 432.823861386 L 579 427.06549505 L 582 438.107128713 L 585 422.548762376 L 588 428.34039604 L 591 423.982029703 L 594 433.623663366 L 596 441.51529703 L 599 431.906930693 L 602 438.048564356 L 605 437.54019802 L 608 397.481831683 L 611 425.673465347 L 614 434.96509901 L 617 422.556732673 L 620 421.698366337"/>
		</g>
		<text class="x-axis-label" x="40.0" y="540">
			0
		</text>
		<path class="x-notch" d="M 54.4278606965 525 L 54.4278606965 530"/>
		<text class="x-axis-label" x="68.855721393" y="540">
			10
		</text>
		<path class="x-notch" d="M 83.2835820896 525 L 83.2835820896 530"/>
		<text class="x-axis-label" x="97.7114427861" y="540">
			20
		</text>
		<path class="x-notch" d="M 112.139303483 525 L 112.139303483 530"/>
		<text class="x-axis-label" x="126.567164179" y="540">
			30
		</text>
		<path class="x-notch" d="M 140.995024876 525 L 140.995024876 530"/>
		<text class="x-axis-label" x="155.422885572" y="540">
			40
		</text>
		<path class="x-notch" d="M 169.850746269 525 L 169.850746269 530"/>
		<text class="x-axis-label" x="184.278606965" y="540">
			50
		</text>
		<path class="x-notch" d="M 198.706467662 525 L 198.706467662 530"/>
		<text class="x-axis-label" x="213.134328358" y="540">
			60
		</text>
		<path class="x-notch" d="M 227.562189055 525 L 227.562189055 530"/>
		<text class="x-axis-label" x="241.990049751" y="540">
			70
		</text>
		<path class="x-notch" d="M 256.417910448 525 L 256.417910448 530"/>
		<text class="x-axis-label" x="270.845771144" y="540">
			80
		</text>
		<path class="x-notch" d="M 285.273631841 525 L 285.273631841 530"/>
		<text class="x-axis-label" x="299.701492537" y="540">
			90
		</text>
		<path class="x-notch" d="M 314.129353234 525 L 314.129353234 530"/>
		<text class="x-axis-label" x="328.55721393" y="540">
			100
		</text>
		<path class="x-notch" d="M 342.985074627 525 L 342.985074627 530"/>
		<text class="x-axis-label" x="357.412935323" y="540">
			110
		</text>
		<path class="x-notch" d="M 371.84079602 525 L 371.84079602 530"/>
		<text class="x-axis-label" x="386.268656716" y="540">
			120
		</text>
		<path class="x-notch" d="M 400.696517413 525 L 400.696517413 530"/>
		<text class="x-axis-label" x="415.124378109" y="540">
			130
		</text>
		<path class="x-notch" d="M 429.552238806 525 L 429.552238806 530"/>
		<text class="x-axis-label" x="443.980099502" y="540">
			140
		</text>
		<path class="x-notch" d="M 458.407960199 525 L 458.407960199 530"/>
		<text class="x-axis-label" x="472.835820896" y="540">
			150
		</text>
		<path class="x-notch" d="M 487.263681592 525 L 487.263681592 530"/>
		<text class="x-axis-label" x="501.691542289" y="540">
			160
		</text>
		<path class="x-notch" d="M 516.119402985 525 L 516.119402985 530"/>
		<text class="x-axis-label" x="530.547263682" y="540">
			170
		</text>
		<path class="x-notch" d="M 544.975124378 525 L 544.975124378 530"/>
		<text class="x-axis-label" x="559.402985075" y="540">
			180
		</text>
		<path class="x-notch" d="M 573.830845771 525 L 573.830845771 530"/>
		<text class="x-axis-label" x="588.258706468" y="540">
			190
		</text>
		<path class="x-notch" d="M 602.686567164 525 L 602.686567164 530"/>
		<text class="x-axis-label" x="617.114427861" y="540">
			200
		</text>
		<path class="x-notch" d="M 631.542288557 525 L 631.542288557 530"/>
	</g>
</svg>
