<?xml version="1.0" ?>
<svg height="600" version="1.1" width="800" xmlns="http://www.w3.org/2000/svg" xmlns:svg="http://www.w3.org/2000/svg">
	<style type="text/css">
		

.x-axis-path, .y-gridline, .x-notch { fill:none; stroke: #a7a9ac; stroke-width:1; }



.y-gridline { stroke-width: 1; }

.y-axis-path, .y-axis-path2, .x-notch-left, .x-notch-right { display: none;}



.x-axis-label, .data-point-label {font-size: 12px; font-weight:normal; font-family: sans-serif; fill: #58595b; text-anchor:middle;}

.y-axis-label {font-size: 12px; font-family: helvetica; fill: #a7a9ac; text-anchor:end;}



.series-1-line { fill: none; stroke: #10b80c; stroke-width:2; }



.series-2-line { fill: none; stroke: #e90f0a; stroke-width: 2;}

	</style>
	<rect fill="white" height="600" width="800" x="0" y="0"/>
	<g id="grid" transform="translate(70, 30)">
		<g class="x-axis" id="x_axis">
			<path class="x-axis-path" d="M 0 525 L 660 525"/>
			<path class="x-notch-left" d="M 0 525, L 0 535"/>
			<path class="x-notch-right" d="M 660 525, L 660 535"/>
		</g>
		<g class="y-axis" id="y_axis">
			<path class="y-axis-path" d="M 0 525 L 0 0"/>
			<path class="y-axis-path-2" d="M 660 525 L 660 0"/>
			<path class="y-gridline" d="M 0 525 L 660 525"/>
			<text class="y-axis-label" x="-5" y="525">
				-100
			</text>
			<path class="y-gridline" d="M 0 438 L 660 438"/>
			<text class="y-axis-label" x="-5" y="438">
				 0
			</text>
			<path class="y-gridline" d="M 0 351 L 660 351"/>
			<text class="y-axis-label" x="-5" y="351">
				100
			</text>
			<path class="y-gridline" d="M 0 264 L 660 264"/>
			<text class="y-axis-label" x="-5" y="264">
				200
			</text>
			<path class="y-gridline" d="M 0 177 L 660 177"/>
			<text class="y-axis-label" x="-5" y="177">
				300
			</text>
			<path class="y-gridline" d="M 0 90 L 660 90"/>
			<text class="y-axis-label" x="-5" y="90">
				400
			</text>
			<path class="y-gridline" d="M 0 3 L 660 3"/>
			<text class="y-axis-label" x="-5" y="3">
				500
			</text>
		</g>
		<g>
			<path class="series-1-line" d="M 40 450.7685 L 44 439.135888169 L 48 435.310376338 L 52 424.417664507 L 56 433.044452676 L 60 459.507590845 L 64 457.993129014 L 68 392.536817183 L 72 418.999955352 L 77 405.908543521 L 81 417.51908169 L 85 394.556269859 L 89 357.323958028 L 93 341.742296197 L 97 352.589834366 L 101 349.437722535 L 105 300.269710704 L 109 326.665648873 L 114 343.727437042 L 118 326.889275211 L 122 316.24401338 L 126 316.636701549 L 130 264.080339718 L 134 256.193777887 L 138 257.596216056 L 142 230.707454225 L 146 211.737092394 L 151 177.533330563 L 155 243.595818732 L 159 255.476206901 L 163 175.50399507 L 167 205.893433239 L 171 204.199071408 L 175 135.063909577 L 179 191.815347746 L 183 217.471035915 L 188 189.481874085 L 192 167.484012254 L 196 228.363700423 L 200 128.086588592 L 204 158.655226761 L 208 174.37161493 L 212 136.668203099 L 216 166.474541268 L 220 177.075679437 L 225 168.763167606 L 229 81.0951557746 L 233 145.811543944 L 237 204.828882113 L 241 58.4910702817 L 245 106.649658451 L 249 186.33099662 L 253 191.816534789 L 258 224.898522958 L 262 182.618161127 L 266 209.687149296 L 270 150.647037465 L 274 180.655325634 L 278 144.387263803 L 282 187.969251972 L 286 194.846040141 L 290 237.01437831 L 295 225.022316479 L 299 240.088404648 L 303 292.980742817 L 307 286.889680986 L 311 244.071019155 L 315 244.979607324 L 319 226.929745493 L 323 243.386383662 L 327 249.073871831 L 332 249.82601 L 336 282.974498169 L 340 227.210386338 L 344 276.827424507 L 348 262.120762676 L 352 247.458900845 L 356 287.697689014 L 360 271.847227183 L 364 320.589265352 L 369 285.914403521 L 373 289.73989169 L 377 283.446529859 L 381 349.576568028 L 385 306.690356197 L 389 306.297994366 L 393 353.917932535 L 397 357.743070704 L 401 374.603958873 L 406 345.583347042 L 410 282.168235211 L 414 347.08657338 L 418 353.043561549 L 422 345.224549718 L 426 372.248737887 L 430 373.404426056 L 434 381.066264225 L 439 372.349852394 L 443 369.018190563 L 447 378.587178732 L 451 396.367866901 L 455 378.76705507 L 459 371.037643239 L 463 368.536531408 L 467 392.374319577 L 471 382.491357746 L 476 404.063595915 L 480 386.731934085 L 484 410.996372254 L 488 403.962760423 L 492 416.381098592 L 496 449.103986761 L 500 430.58302493 L 504 419.084813099 L 508 404.445351268 L 513 433.870189437 L 517 388.672927606 L 521 441.700365775 L 525 379.923253944 L 529 432.861092113 L 533 420.240780282 L 537 450.876968451 L 541 421.72195662 L 545 438.425344789 L 550 459.975182958 L 554 451.617871127 L 558 450.350159296 L 562 458.976947465 L 566 396.033285634 L 570 442.980173803 L 574 459.257611972 L 578 461.579850141 L 582 467.31213831 L 587 435.329826479 L 591 457.171214648 L 595 446.817152817 L 599 422.665040986 L 603 451.349279155 L 607 437.517617324 L 611 418.458355493 L 615 449.319243662 L 620 438.090181831"/>
			<path class="series-2-line" d="M 40 428.75 L 44 461.684507042 L 48 436.869014085 L 52 422.553521127 L 56 434.488028169 L 60 428.047535211 L 64 418.107042254 L 68 452.791549296 L 72 446.351056338 L 77 433.78556338 L 81 423.845070423 L 85 449.779577465 L 89 449.464084507 L 93 450.023591549 L 97 422.583098592 L 101 429.267605634 L 105 448.202112676 L 109 452.261619718 L 114 376.696126761 L 118 368.505633803 L 122 418.065140845 L 126 417.749647887 L 130 385.05915493 L 134 345.368661972 L 138 358.178169014 L 142 416.487676056 L 146 331.297183099 L 151 302.106690141 L 155 294.791197183 L 159 345.225704225 L 163 392.160211268 L 167 387.46971831 L 171 337.279225352 L 175 434.088732394 L 179 411.898239437 L 183 429.082746479 L 188 385.892253521 L 192 431.951760563 L 196 414.136267606 L 200 420.820774648 L 204 388.13028169 L 208 386.064788732 L 212 390.999295775 L 216 409.058802817 L 220 420.118309859 L 225 412.802816901 L 229 431.737323944 L 233 429.671830986 L 237 395.231338028 L 241 421.16584507 L 245 408.600352113 L 249 426.659859155 L 253 416.719366197 L 258 435.653873239 L 262 437.963380282 L 266 439.397887324 L 270 428.582394366 L 274 449.266901408 L 278 400.826408451 L 282 419.760915493 L 286 431.695422535 L 290 432.254929577 L 295 418.81443662 L 299 449.998943662 L 303 415.558450704 L 307 437.117957746 L 311 455.177464789 L 315 442.611971831 L 319 418.671478873 L 323 403.480985915 L 327 396.165492958 L 332 442.225 L 336 382.409507042 L 340 406.594014085 L 344 405.403521127 L 348 405.963028169 L 352 399.522535211 L 356 393.957042254 L 360 436.516549296 L 364 435.326056338 L 369 411.38556338 L 373 421.570070423 L 377 406.379577465 L 381 422.689084507 L 385 417.123591549 L 389 436.933098592 L 393 405.992605634 L 397 382.052112676 L 401 406.236619718 L 406 421.671126761 L 410 410.855633803 L 414 411.415140845 L 418 430.349647887 L 422 414.28415493 L 426 422.718661972 L 430 439.903169014 L 434 431.712676056 L 439 419.147183099 L 443 419.706690141 L 447 421.141197183 L 451 438.325704225 L 455 446.760211268 L 459 416.69471831 L 463 458.379225352 L 467 417.813732394 L 471 416.623239437 L 476 422.432746479 L 480 422.992253521 L 484 418.301760563 L 488 416.236267606 L 492 416.795774648 L 496 423.48028169 L 500 404.789788732 L 504 416.724295775 L 508 406.783802817 L 513 416.093309859 L 517 395.652816901 L 521 408.462323944 L 525 415.146830986 L 529 441.956338028 L 533 424.14084507 L 537 415.075352113 L 541 451.509859155 L 545 431.944366197 L 550 441.253873239 L 554 440.938380282 L 558 426.622887324 L 562 438.557394366 L 566 456.616901408 L 570 428.301408451 L 574 441.110915493 L 578 446.920422535 L 582 432.604929577 L 587 432.28943662 L 591 430.223943662 L 595 434.283450704 L 599 440.967957746 L 603 429.277464789 L 607 429.836971831 L 611 426.896478873 L 615 451.080985915 L 620 455.140492958"/>
		</g>
		<text class="x-axis-label" x="40.0" y="540">
			0
		</text>
		<path class="x-notch" d="M 60.5673758865 525 L 60.5673758865 530"/>
		<text class="x-axis-label" x="81.134751773" y="540">
			10
		</text>
		<path class="x-notch" d="M 101.70212766 525 L 101.70212766 530"/>
		<text class="x-axis-label" x="122.269503546" y="540">
			20
		</text>
		<path class="x-notch" d="M 142.836879433 525 L 142.836879433 530"/>
		<text class="x-axis-label" x="163.404255319" y="540">
			30
		</text>
		<path class="x-notch" d="M 183.971631206 525 L 183.971631206 530"/>
		<text class="x-axis-label" x="204.539007092" y="540">
			40
		</text>
		<path class="x-notch" d="M 225.106382979 525 L 225.106382979 530"/>
		<text class="x-axis-label" x="245.673758865" y="540">
			50
		</text>
		<path class="x-notch" d="M 266.241134752 525 L 266.241134752 530"/>
		<text class="x-axis-label" x="286.808510638" y="540">
			60
		</text>
		<path class="x-notch" d="M 307.375886525 525 L 307.375886525 530"/>
		<text class="x-axis-label" x="327.943262411" y="540">
			70
		</text>
		<path class="x-notch" d="M 348.510638298 525 L 348.510638298 530"/>
		<text class="x-axis-label" x="369.078014184" y="540">
			80
		</text>
		<path class="x-notch" d="M 389.645390071 525 L 389.645390071 530"/>
		<text class="x-axis-label" x="410.212765957" y="540">
			90
		</text>
		<path class="x-notch" d="M 430.780141844 525 L 430.780141844 530"/>
		<text class="x-axis-label" x="451.34751773" y="540">
			100
		</text>
		<path class="x-notch" d="M 471.914893617 525 L 471.914893617 530"/>
		<text class="x-axis-label" x="492.482269504" y="540">
			110
		</text>
		<path class="x-notch" d="M 513.04964539 525 L 513.04964539 530"/>
		<text class="x-axis-label" x="533.617021277" y="540">
			120
		</text>
		<path class="x-notch" d="M 554.184397163 525 L 554.184397163 530"/>
		<text class="x-axis-label" x="574.75177305" y="540">
			130
		</text>
		<path class="x-notch" d="M 595.319148936 525 L 595.319148936 530"/>
		<text class="x-axis-label" x="615.886524823" y="540">
			140
		</text>
		<path class="x-notch" d="M 636.453900709 525 L 636.453900709 530"/>
	</g>
</svg>
