<?xml version="1.0" ?>
<svg height="600" version="1.1" width="800" xmlns="http://www.w3.org/2000/svg" xmlns:svg="http://www.w3.org/2000/svg">
	<style type="text/css">
		

.x-axis-path, .y-gridline, .x-notch { fill:none; stroke: #a7a9ac; stroke-width:1; }



.y-gridline { stroke-width: 1; }

.y-axis-path, .y-axis-path2, .x-notch-left, .x-notch-right { display: none;}



.x-axis-label, .data-point-label {font-size: 12px; font-weight:normal; font-family: sans-serif; fill: #58595b; text-anchor:middle;}

.y-axis-label {font-size: 12px; font-family: helvetica; fill: #a7a9ac; text-anchor:end;}



.series-1-line { fill: none; stroke: #10b80c; stroke-width:2; }



.series-2-line { fill: none; stroke: #e90f0a; stroke-width: 2;}

	</style>
	<rect fill="white" height="600" width="800" x="0" y="0"/>
	<g id="grid" transform="translate(70, 30)">
		<g class="x-axis" id="x_axis">
			<path class="x-axis-path" d="M 0 525 L 660 525"/>
			<path class="x-notch-left" d="M 0 525, L 0 535"/>
			<path class="x-notch-right" d="M 660 525, L 660 535"/>
		</g>
		<g class="y-axis" id="y_axis">
			<path class="y-axis-path" d="M 0 525 L 0 0"/>
			<path class="y-axis-path-2" d="M 660 525 L 660 0"/>
			<path class="y-gridline" d="M 0 525 L 660 525"/>
			<text class="y-axis-label" x="-5" y="525">
				-200
			</text>
			<path class="y-gridline" d="M 0 394 L 660 394"/>
			<text class="y-axis-label" x="-5" y="394">
				 0
			</text>
			<path class="y-gridline" d="M 0 263 L 660 263"/>
			<text class="y-axis-label" x="-5" y="263">
				200
			</text>
			<path class="y-gridline" d="M 0 132 L 660 132"/>
			<text class="y-axis-label" x="-5" y="132">
				400
			</text>
			<path class="y-gridline" d="M 0 1 L 660 1"/>
			<text class="y-axis-label" x="-5" y="1">
				600
			</text>
		</g>
		<g>
			<path class="series-1-line" d="M 40 375.485817747 L 42 392.373460222 L 44 394.876039135 L 47 405.164005337 L 49 398.1336126 L 52 389.392242112 L 54 399.032347559 L 57 397.489705283 L 59 382.34408444 L 62 397.593962385 L 64 395.31785327 L 67 381.101125185 L 69 391.327889708 L 72 389.662844075 L 74 390.405636423 L 77 374.050090818 L 79 363.524338696 L 81 378.541993452 L 84 379.993657571 L 86 387.751573096 L 89 406.105767929 L 91 389.114754434 L 94 381.19226621 L 96 400.108715712 L 99 385.280924143 L 101 381.953709574 L 104 387.096349657 L 106 380.212574024 L 109 373.011159776 L 111 356.533401475 L 114 377.038616031 L 116 329.505486644 L 118 358.859205486 L 121 343.530360928 L 123 342.1463473 L 126 339.002737765 L 128 345.110686557 L 131 356.522971434 L 133 344.836103365 L 136 331.230438763 L 138 351.259195396 L 141 325.003849392 L 143 352.952217554 L 146 312.532019633 L 148 291.348977185 L 151 315.068519122 L 153 298.248527139 L 156 302.694497653 L 158 298.267368815 L 160 279.064133919 L 163 296.648445961 L 165 289.838074211 L 168 240.434957104 L 170 298.546600865 L 173 295.647226063 L 175 286.698036793 L 178 252.168834034 L 180 280.520256237 L 183 275.445457305 L 185 246.978271218 L 188 271.785525221 L 190 256.835520956 L 193 261.1102793 L 195 195.281089402 L 197 224.830424823 L 200 227.98086449 L 202 238.158820198 L 205 175.274937222 L 207 231.846624742 L 210 209.38025365 L 212 215.011553859 L 215 183.501061903 L 217 195.927654964 L 220 178.631205057 L 222 207.544881928 L 225 189.185124363 L 227 154.166880159 L 230 134.768219344 L 232 159.563271143 L 234 159.499383429 L 237 199.803817465 L 239 135.343562297 L 242 139.337288636 L 244 114.120845882 L 247 88.8311899062 L 249 130.907994032 L 252 161.471637636 L 254 125.939947578 L 257 100.736088347 L 259 128.72106312 L 262 119.160810367 L 264 43.5052239515 L 267 80.0698732096 L 269 81.5825483472 L 272 72.1201038832 L 274 121.493253851 L 276 107.704365533 L 279 130.653834021 L 281 77.2909111502 L 284 124.855275077 L 286 108.890771969 L 289 115.365358851 L 291 73.1853743638 L 294 91.2829416003 L 296 69.5618582317 L 299 75.0589342003 L 301 112.540274012 L 304 82.9851852009 L 306 90.6818990481 L 309 89.9215324253 L 311 118.126337524 L 313 96.9066884646 L 316 56.7065115302 L 318 87.7469943764 L 321 98.2301958369 L 323 61.8922070369 L 326 100.375652829 L 328 72.8495617035 L 331 77.9676067192 L 333 56.955585782 L 336 97.1868065962 L 338 90.4496480676 L 341 87.5624754697 L 343 32.7694161924 L 346 0.0 L 348 47.7475876416 L 350 57.5955118714 L 353 43.9166340465 L 355 92.6297210569 L 358 67.327862877 L 360 75.0369695873 L 363 44.3207648289 L 365 66.2439135887 L 368 76.152848837 L 370 93.6761498613 L 373 98.8063970808 L 375 60.6106227656 L 378 111.071484798 L 380 116.959412605 L 383 56.5443786262 L 385 121.243496456 L 388 115.484420819 L 390 135.231954789 L 392 138.272383963 L 395 164.925221278 L 397 167.427800191 L 400 163.648532106 L 402 157.266000123 L 405 163.483959408 L 407 149.731677701 L 410 131.127304084 L 412 185.560174085 L 415 205.906569334 L 417 198.692952882 L 420 150.939802509 L 422 174.40271685 L 425 178.16422 L 427 187.24188012 L 429 181.935048658 L 432 171.592329592 L 434 177.468436513 L 437 181.841003146 L 439 179.332670841 L 442 186.785149955 L 444 180.439224583 L 447 216.637235751 L 449 187.6199972 L 452 223.377966397 L 454 264.758100955 L 457 250.370351358 L 459 225.532748897 L 462 245.231474052 L 464 228.057046183 L 466 253.670980246 L 469 251.871519714 L 471 263.956069752 L 474 307.60924607 L 476 294.566026795 L 479 306.77259887 L 481 311.573005271 L 484 302.000550314 L 486 320.611372744 L 489 286.778839553 L 491 312.527188517 L 494 307.293570277 L 496 315.894772475 L 499 334.041339186 L 501 339.281596898 L 504 342.334228276 L 506 349.102240025 L 508 360.282492372 L 511 341.384693888 L 513 370.518582404 L 516 353.674186013 L 518 344.003922767 L 521 333.478170645 L 523 338.999651021 L 526 352.611764437 L 528 369.254981518 L 531 363.141279335 L 533 375.128021085 L 536 378.266258548 L 538 356.912003929 L 541 360.97894349 L 543 384.344049542 L 545 372.938404137 L 548 359.210526837 L 550 384.800056494 L 553 374.127687268 L 555 391.67520204 L 558 372.45976494 L 560 390.386310665 L 563 386.900276788 L 565 390.673982142 L 568 378.143827401 L 570 394.848246161 L 573 379.800433607 L 575 389.403932443 L 578 390.012119231 L 580 394.384685863 L 582 392.071970137 L 585 377.610816659 L 587 383.156701442 L 590 389.496873423 L 592 400.664732908 L 595 393.206691063 L 597 392.226112795 L 600 397.857413005 L 602 392.17155059 L 605 401.872857715 L 607 399.804567382 L 610 396.978405803 L 612 402.414280093 L 615 394.956238249 L 617 393.975659981 L 620 384.501013313"/>
			<path class="series-2-line" d="M 40 395.084616031 L 42 395.06199542 L 44 389.796240402 L 47 396.923348529 L 49 391.657593511 L 52 393.064918648 L 54 389.705757959 L 57 402.076000494 L 59 398.716839806 L 62 393.92773337 L 64 390.568572681 L 67 391.022600653 L 69 389.093385713 L 72 383.350982112 L 74 392.384684569 L 77 391.885415376 L 79 392.81609193 L 81 387.073688329 L 84 397.060687951 L 86 389.888338603 L 89 384.145935002 L 91 389.843097381 L 94 393.633665431 L 96 393.134396237 L 99 395.971667122 L 101 389.275966356 L 104 399.739614561 L 106 390.1840223 L 109 393.021293184 L 111 392.998672573 L 114 386.302971807 L 116 397.719917177 L 118 386.257730586 L 121 392.908190131 L 123 380.492706374 L 126 400.965974812 L 128 390.933733968 L 131 389.957816193 L 133 386.122006922 L 136 384.192791981 L 138 396.086385933 L 141 378.427767769 L 143 381.741687236 L 146 380.289120878 L 148 389.322823335 L 151 383.103771152 L 153 380.697907629 L 156 388.301664338 L 158 385.895800815 L 160 383.489937292 L 163 386.327208176 L 165 383.921344653 L 168 389.618507032 L 170 390.549183587 L 173 391.479860141 L 175 388.120699453 L 178 397.15440191 L 180 374.729297921 L 183 380.4264603 L 185 391.84340567 L 188 383.241110574 L 190 386.555030041 L 193 383.672517935 L 195 386.509788819 L 197 381.720682384 L 200 386.941196181 L 202 392.63835856 L 205 382.129469134 L 207 381.630199941 L 210 386.374065155 L 212 376.341824312 L 215 379.179095196 L 217 368.67020577 L 220 384.853636965 L 222 367.671667384 L 225 382.425152831 L 227 374.7761549 L 230 384.28650594 L 232 377.590805174 L 234 382.334670388 L 237 372.779078127 L 239 385.149320662 L 242 388.939888711 L 244 376.524404955 L 247 375.54848718 L 249 386.965432549 L 252 372.643354463 L 254 352.124844804 L 257 374.981356154 L 259 372.575492631 L 262 371.599574855 L 264 364.427225507 L 267 362.021361984 L 269 362.475389955 L 272 364.836012257 L 274 371.963120384 L 276 380.043525676 L 279 363.81485326 L 281 373.801852882 L 284 384.265501087 L 286 378.523097486 L 289 367.060910895 L 291 379.907802012 L 294 377.025289906 L 296 358.413374578 L 299 369.353671365 L 301 372.667590832 L 304 367.878484396 L 306 351.64981198 L 309 372.123080417 L 311 353.987813671 L 313 368.741299118 L 316 370.148624255 L 318 374.415840887 L 321 351.037439733 L 323 363.407682268 L 326 359.095224414 L 328 372.418764114 L 331 368.106306261 L 333 369.036982815 L 336 370.920956534 L 338 357.075527031 L 341 356.099609255 L 343 347.497314159 L 346 342.231559141 L 348 342.685587112 L 350 344.092912249 L 353 353.603263289 L 355 352.150696931 L 358 353.081373485 L 360 353.535401457 L 363 343.979809196 L 365 357.779997478 L 368 349.654350965 L 370 362.024593499 L 373 355.805541316 L 375 360.54940653 L 378 365.293271745 L 380 352.401139406 L 383 347.135384388 L 385 342.822926535 L 388 362.342897807 L 390 362.320277196 L 392 366.110845246 L 395 367.0415218 L 397 361.775766782 L 400 369.856172074 L 402 375.076685871 L 405 366.474390775 L 407 368.835013077 L 410 365.952500971 L 412 364.499934613 L 415 364.000665419 L 417 368.744530634 L 420 377.301584508 L 422 373.94242382 L 425 376.779694705 L 427 349.58810489 L 429 372.921264823 L 432 345.253026426 L 434 371.446077854 L 437 371.900105826 L 439 367.587647973 L 442 370.901567439 L 444 370.402298246 L 447 369.426380471 L 449 373.693597102 L 452 366.997896337 L 454 375.554950211 L 457 384.112004086 L 459 368.359980252 L 462 375.963736962 L 464 373.081224856 L 466 368.768767002 L 469 365.409606314 L 471 371.106768694 L 474 359.644582103 L 476 381.547796288 L 479 368.179015366 L 481 376.259420659 L 484 377.190097213 L 486 368.587802117 L 489 380.481396069 L 491 373.785695303 L 494 385.679289255 L 496 377.076994159 L 499 385.157399451 L 501 380.368293016 L 504 382.252266735 L 506 380.799700377 L 508 397.459780154 L 511 384.567647815 L 513 388.834864447 L 516 390.242189584 L 518 387.836326061 L 521 388.767002615 L 523 395.894110742 L 526 386.338518481 L 528 387.269195036 L 531 387.723223008 L 533 390.083845309 L 536 397.210953436 L 538 395.758387078 L 541 388.109389147 L 543 381.413688381 L 545 389.494093673 L 548 388.041527315 L 550 387.542258122 L 553 392.762771919 L 555 382.730531075 L 558 382.231261882 L 560 387.451775679 L 563 386.952506486 L 565 387.88318304 L 568 385.477319517 L 570 395.464319139 L 573 395.441698528 L 575 397.80232083 L 578 390.629971482 L 580 391.083999454 L 582 393.444621756 L 585 394.851946892 L 587 398.165866359 L 590 389.086922681 L 592 389.06430207 L 595 394.76146445 L 597 393.785546674 L 600 383.75330583 L 602 391.833711122 L 605 397.530873502 L 607 398.938198639 L 610 388.429309213 L 612 390.313282932 L 615 396.010445312 L 617 395.034527536 L 620 399.301744168"/>
		</g>
		<text class="x-axis-label" x="40.0" y="540">
			0
		</text>
		<path class="x-notch" d="M 52.3404255319 525 L 52.3404255319 530"/>
		<text class="x-axis-label" x="64.6808510638" y="540">
			10
		</text>
		<path class="x-notch" d="M 77.0212765957 525 L 77.0212765957 530"/>
		<text class="x-axis-label" x="89.3617021277" y="540">
			20
		</text>
		<path class="x-notch" d="M 101.70212766 525 L 101.70212766 530"/>
		<text class="x-axis-label" x="114.042553191" y="540">
			30
		</text>
		<path class="x-notch" d="M 126.382978723 525 L 126.382978723 530"/>
		<text class="x-axis-label" x="138.723404255" y="540">
			40
		</text>
		<path class="x-notch" d="M 151.063829787 525 L 151.063829787 530"/>
		<text class="x-axis-label" x="163.404255319" y="540">
			50
		</text>
		<path class="x-notch" d="M 175.744680851 525 L 175.744680851 530"/>
		<text class="x-axis-label" x="188.085106383" y="540">
			60
		</text>
		<path class="x-notch" d="M 200.425531915 525 L 200.425531915 530"/>
		<text class="x-axis-label" x="212.765957447" y="540">
			70
		</text>
		<path class="x-notch" d="M 225.106382979 525 L 225.106382979 530"/>
		<text class="x-axis-label" x="237.446808511" y="540">
			80
		</text>
		<path class="x-notch" d="M 249.787234043 525 L 249.787234043 530"/>
		<text class="x-axis-label" x="262.127659574" y="540">
			90
		</text>
		<path class="x-notch" d="M 274.468085106 525 L 274.468085106 530"/>
		<text class="x-axis-label" x="286.808510638" y="540">
			100
		</text>
		<path class="x-notch" d="M 299.14893617 525 L 299.14893617 530"/>
		<text class="x-axis-label" x="311.489361702" y="540">
			110
		</text>
		<path class="x-notch" d="M 323.829787234 525 L 323.829787234 530"/>
		<text class="x-axis-label" x="336.170212766" y="540">
			120
		</text>
		<path class="x-notch" d="M 348.510638298 525 L 348.510638298 530"/>
		<text class="x-axis-label" x="360.85106383" y="540">
			130
		</text>
		<path class="x-notch" d="M 373.191489362 525 L 373.191489362 530"/>
		<text class="x-axis-label" x="385.531914894" y="540">
			140
		</text>
		<path class="x-notch" d="M 397.872340426 525 L 397.872340426 530"/>
		<text class="x-axis-label" x="410.212765957" y="540">
			150
		</text>
		<path class="x-notch" d="M 422.553191489 525 L 422.553191489 530"/>
		<text class="x-axis-label" x="434.893617021" y="540">
			160
		</text>
		<path class="x-notch" d="M 447.234042553 525 L 447.234042553 530"/>
		<text class="x-axis-label" x="459.574468085" y="540">
			170
		</text>
		<path class="x-notch" d="M 471.914893617 525 L 471.914893617 530"/>
		<text class="x-axis-label" x="484.255319149" y="540">
			180
		</text>
		<path class="x-notch" d="M 496.595744681 525 L 496.595744681 530"/>
		<text class="x-axis-label" x="508.936170213" y="540">
			190
		</text>
		<path class="x-notch" d="M 521.276595745 525 L 521.276595745 530"/>
		<text class="x-axis-label" x="533.617021277" y="540">
			200
		</text>
		<path class="x-notch" d="M 545.957446809 525 L 545.957446809 530"/>
		<text class="x-axis-label" x="558.29787234" y="540">
			210
		</text>
		<path class="x-notch" d="M 570.638297872 525 L 570.638297872 530"/>
		<text class="x-axis-label" x="582.978723404" y="540">
			220
		</text>
		<path class="x-notch" d="M 595.319148936 525 L 595.319148936 530"/>
		<text class="x-axis-label" x="607.659574468" y="540">
			230
		</text>
		<path class="x-notch" d="M 620.0 525 L 620.0 530"/>
	</g>
</svg>
