<?xml version="1.0" ?>
<svg height="600" version="1.1" width="800" xmlns="http://www.w3.org/2000/svg" xmlns:svg="http://www.w3.org/2000/svg">
	<style type="text/css">
		

.x-axis-path, .y-gridline, .x-notch { fill:none; stroke: #a7a9ac; stroke-width:1; }



.y-gridline { stroke-width: 1; }

.y-axis-path, .y-axis-path2, .x-notch-left, .x-notch-right { display: none;}



.x-axis-label, .data-point-label {font-size: 12px; font-weight:normal; font-family: sans-serif; fill: #58595b; text-anchor:middle;}

.y-axis-label {font-size: 12px; font-family: helvetica; fill: #a7a9ac; text-anchor:end;}



.series-1-line { fill: none; stroke: #10b80c; stroke-width:2; }



.series-2-line { fill: none; stroke: #e90f0a; stroke-width: 2;}

	</style>
	<rect fill="white" height="600" width="800" x="0" y="0"/>
	<g id="grid" transform="translate(70, 30)">
		<g class="x-axis" id="x_axis">
			<path class="x-axis-path" d="M 0 525 L 660 525"/>
			<path class="x-notch-left" d="M 0 525, L 0 535"/>
			<path class="x-notch-right" d="M 660 525, L 660 535"/>
		</g>
		<g class="y-axis" id="y_axis">
			<path class="y-axis-path" d="M 0 525 L 0 0"/>
			<path class="y-axis-path-2" d="M 660 525 L 660 0"/>
			<path class="y-gridline" d="M 0 525 L 660 525"/>
			<text class="y-axis-label" x="-5" y="525">
				-200
			</text>
			<path class="y-gridline" d="M 0 394 L 660 394"/>
			<text class="y-axis-label" x="-5" y="394">
				 0
			</text>
			<path class="y-gridline" d="M 0 263 L 660 263"/>
			<text class="y-axis-label" x="-5" y="263">
				200
			</text>
			<path class="y-gridline" d="M 0 132 L 660 132"/>
			<text class="y-axis-label" x="-5" y="132">
				400
			</text>
			<path class="y-gridline" d="M 0 1 L 660 1"/>
			<text class="y-axis-label" x="-5" y="1">
				600
			</text>
		</g>
		<g>
			<path class="series-1-line" d="M 40 385.294635335 L 43 405.759548563 L 46 386.643171335 L 50 393.046411927 L 53 395.489721684 L 56 380.003233388 L 60 399.789758927 L 63 381.058049254 L 66 363.848421909 L 70 379.54660343 L 73 369.468340763 L 76 375.669952637 L 80 368.580084979 L 83 381.363373024 L 86 384.650091422 L 90 347.420305307 L 93 360.625154673 L 96 352.123599987 L 100 379.555142941 L 103 363.023331288 L 107 324.950422531 L 110 347.083563157 L 113 375.963400907 L 117 359.926938106 L 120 336.557195909 L 123 356.068591196 L 127 316.73042648 L 130 329.477106759 L 133 318.07896248 L 137 273.644024155 L 140 277.865670611 L 143 277.118956641 L 147 304.807325963 L 150 305.123953236 L 153 301.425738024 L 157 319.580643932 L 160 242.897694547 L 164 274.050931849 L 167 276.420740074 L 170 289.955631343 L 174 228.819543155 L 177 242.427649959 L 180 239.389518552 L 184 234.499262915 L 187 285.360920968 L 190 267.839269605 L 194 297.874254015 L 197 261.157834637 L 200 276.837712274 L 204 245.639627827 L 207 227.916347746 L 210 259.197712234 L 214 237.972956405 L 217 257.704284295 L 221 251.586238461 L 224 189.368219149 L 227 270.515940731 L 231 245.972747991 L 234 264.952758655 L 237 238.246561661 L 241 252.789596524 L 244 253.271244748 L 247 206.123327664 L 251 239.018007899 L 254 267.732824698 L 257 233.968192561 L 261 259.621398817 L 264 255.776180539 L 267 221.828223568 L 271 267.922863916 L 274 269.064595945 L 278 264.614777509 L 281 251.309883348 L 284 261.324708988 L 288 238.065076091 L 291 258.804547574 L 294 240.1832332 L 298 162.381744923 L 301 67.9526083162 L 304 129.923865766 L 308 54.139236672 L 311 100.160661485 L 314 54.4790570825 L 318 117.256829407 L 321 74.7841246114 L 324 51.8725515023 L 328 113.679073999 L 331 63.1575223551 L 335 85.2909489795 L 338 81.537536118 L 341 101.378973308 L 345 76.3407177145 L 348 77.6477566932 L 351 18.1798959036 L 355 103.837522824 L 358 35.4782645405 L 361 70.8110792813 L 365 25.7346470325 L 368 63.9829272451 L 371 104.889274565 L 375 89.4760018037 L 378 74.1362305749 L 381 53.2964282994 L 385 67.4179018408 L 388 51.1798103208 L 392 13.2167248659 L 395 33.1496814746 L 398 13.4467219743 L 402 29.053098079 L 405 0.0 L 408 76.7665154246 L 412 32.1485382623 L 415 48.360086521 L 418 74.8198076513 L 422 118.182879359 L 425 48.1917154462 L 428 109.13652542 L 432 118.16151135 L 435 118.03798742 L 438 81.871542547 L 442 156.071224284 L 445 71.9448862023 L 449 23.2385650219 L 452 64.218413875 L 455 69.5952069899 L 459 92.6815795583 L 462 79.7616389511 L 465 59.6917437828 L 469 128.959672862 L 472 87.3666984752 L 475 78.241667751 L 479 117.479787673 L 482 98.5833430473 L 485 88.9635354674 L 489 123.599944634 L 492 112.055083288 L 495 237.752741749 L 499 330.945562783 L 502 352.473817253 L 506 368.502040677 L 509 359.468815369 L 512 358.025409827 L 516 345.728945258 L 519 368.21043167 L 522 359.5804638 L 526 357.770408588 L 529 378.106908632 L 532 375.61875173 L 536 376.70528611 L 539 341.088815742 L 542 362.03048794 L 546 370.707128084 L 549 344.000645092 L 552 359.680522729 L 556 383.060329433 L 559 389.683502627 L 563 391.68694718 L 566 406.211964157 L 569 381.815488484 L 573 386.605413329 L 576 400.910211705 L 579 394.370318552 L 583 379.232176042 L 586 388.018925486 L 589 402.415529279 L 593 397.965424845 L 596 390.160561731 L 599 382.3740025 L 603 378.345745386 L 606 394.025623023 L 609 408.275509748 L 613 385.47404594 L 616 383.99403263 L 620 400.755555394"/>
			<path class="series-2-line" d="M 40 385.456052709 L 43 388.182075615 L 46 403.063021274 L 50 396.494103251 L 53 394.215157963 L 56 400.51615815 L 60 397.522217406 L 63 380.228367541 L 66 404.40425413 L 70 397.835336106 L 73 396.986381731 L 76 393.992440988 L 80 401.00843663 L 83 403.01946408 L 86 408.60546881 L 90 404.896532611 L 93 396.897623675 L 96 401.053637493 L 100 404.494655854 L 103 378.620860515 L 107 394.931797087 L 110 388.362879063 L 113 388.943915601 L 117 397.389902155 L 120 406.550884166 L 123 390.687025213 L 127 381.258125364 L 130 388.989116463 L 133 398.86509393 L 137 375.851280415 L 140 375.00232604 L 143 368.433408016 L 147 387.604326413 L 150 382.465399301 L 153 390.1963904 L 157 390.777426937 L 160 379.20354072 L 164 387.649527275 L 167 368.925686497 L 170 365.216750298 L 174 382.242682326 L 177 367.093818829 L 180 383.4047554 L 184 353.955982781 L 187 383.136837563 L 190 372.277946802 L 194 387.873887918 L 197 387.739928999 L 200 384.0309928 L 204 387.472011162 L 207 380.188097682 L 210 368.614211465 L 214 377.775193476 L 217 355.476375417 L 221 378.222271094 L 224 368.793371246 L 227 357.934480486 L 231 354.940539742 L 234 366.246508121 L 237 393.997371991 L 241 372.413549389 L 244 369.419608646 L 247 379.295586112 L 251 367.00670444 L 254 365.442754609 L 257 378.893709356 L 261 380.904736806 L 264 355.745936923 L 267 369.911887126 L 271 361.91297819 L 274 367.49898292 L 278 380.949937668 L 281 381.530974205 L 284 369.242092532 L 288 389.128006385 L 291 348.954301923 L 294 370.270206688 L 298 337.961452244 L 301 362.137338833 L 304 359.14339809 L 308 346.854516417 L 311 350.295534779 L 314 326.566725808 L 318 309.272875943 L 321 342.743703462 L 324 336.174785438 L 328 358.920681115 L 331 337.336858512 L 335 358.652763277 L 338 347.07887706 L 341 335.504990844 L 345 326.076090995 L 348 361.691904882 L 351 369.422895981 L 355 352.129046115 L 358 380.594905441 L 361 350.431137366 L 365 343.862219342 L 368 360.88815137 L 371 353.60423789 L 375 348.465310778 L 378 359.771279157 L 381 364.642288431 L 385 353.068402215 L 388 365.08936605 L 392 364.240411675 L 395 338.366616336 L 398 361.112512013 L 402 340.958680323 L 405 344.399698685 L 408 375.725539835 L 412 381.311544565 L 415 378.317603822 L 418 366.028722149 L 422 365.89476323 L 425 370.050777048 L 428 387.791704532 L 432 390.517727438 L 435 370.363895748 L 438 368.084950461 L 442 381.535905208 L 445 359.952082606 L 449 361.963110055 L 452 371.124092066 L 455 385.29004227 L 459 369.426183316 L 462 365.717247117 L 465 362.008310918 L 469 364.019338367 L 472 371.750329466 L 475 361.606434161 L 479 363.617461611 L 482 372.063448165 L 485 383.369416545 L 489 378.230489433 L 492 383.101498707 L 495 393.69247163 L 499 399.993471816 L 502 404.149485634 L 506 401.870540347 L 509 405.311558709 L 512 395.88265886 L 516 406.473631783 L 519 401.334704672 L 522 397.625768472 L 526 389.626859536 L 529 384.487932425 L 532 398.653882628 L 536 384.935010043 L 539 380.511078388 L 542 392.532042223 L 546 393.828074216 L 549 393.694115298 L 552 389.985179098 L 556 384.131256531 L 559 371.127379402 L 563 381.718352325 L 566 390.879334335 L 569 392.890361785 L 573 387.036439217 L 576 374.747557544 L 579 379.618566818 L 583 387.349557917 L 586 399.370521752 L 589 400.666553746 L 593 386.232685704 L 596 393.248681347 L 599 397.404695165 L 603 400.845713527 L 606 397.136777327 L 609 393.427841128 L 613 397.583854946 L 616 393.874918746 L 620 388.735991635"/>
		</g>
		<text class="x-axis-label" x="40.0" y="540">
			0
		</text>
		<path class="x-notch" d="M 56.7630057803 525 L 56.7630057803 530"/>
		<text class="x-axis-label" x="73.5260115607" y="540">
			10
		</text>
		<path class="x-notch" d="M 90.289017341 525 L 90.289017341 530"/>
		<text class="x-axis-label" x="107.052023121" y="540">
			20
		</text>
		<path class="x-notch" d="M 123.815028902 525 L 123.815028902 530"/>
		<text class="x-axis-label" x="140.578034682" y="540">
			30
		</text>
		<path class="x-notch" d="M 157.341040462 525 L 157.341040462 530"/>
		<text class="x-axis-label" x="174.104046243" y="540">
			40
		</text>
		<path class="x-notch" d="M 190.867052023 525 L 190.867052023 530"/>
		<text class="x-axis-label" x="207.630057803" y="540">
			50
		</text>
		<path class="x-notch" d="M 224.393063584 525 L 224.393063584 530"/>
		<text class="x-axis-label" x="241.156069364" y="540">
			60
		</text>
		<path class="x-notch" d="M 257.919075145 525 L 257.919075145 530"/>
		<text class="x-axis-label" x="274.682080925" y="540">
			70
		</text>
		<path class="x-notch" d="M 291.445086705 525 L 291.445086705 530"/>
		<text class="x-axis-label" x="308.208092486" y="540">
			80
		</text>
		<path class="x-notch" d="M 324.971098266 525 L 324.971098266 530"/>
		<text class="x-axis-label" x="341.734104046" y="540">
			90
		</text>
		<path class="x-notch" d="M 358.497109827 525 L 358.497109827 530"/>
		<text class="x-axis-label" x="375.260115607" y="540">
			100
		</text>
		<path class="x-notch" d="M 392.023121387 525 L 392.023121387 530"/>
		<text class="x-axis-label" x="408.786127168" y="540">
			110
		</text>
		<path class="x-notch" d="M 425.549132948 525 L 425.549132948 530"/>
		<text class="x-axis-label" x="442.312138728" y="540">
			120
		</text>
		<path class="x-notch" d="M 459.075144509 525 L 459.075144509 530"/>
		<text class="x-axis-label" x="475.838150289" y="540">
			130
		</text>
		<path class="x-notch" d="M 492.601156069 525 L 492.601156069 530"/>
		<text class="x-axis-label" x="509.36416185" y="540">
			140
		</text>
		<path class="x-notch" d="M 526.12716763 525 L 526.12716763 530"/>
		<text class="x-axis-label" x="542.89017341" y="540">
			150
		</text>
		<path class="x-notch" d="M 559.653179191 525 L 559.653179191 530"/>
		<text class="x-axis-label" x="576.416184971" y="540">
			160
		</text>
		<path class="x-notch" d="M 593.179190751 525 L 593.179190751 530"/>
		<text class="x-axis-label" x="609.942196532" y="540">
			170
		</text>
		<path class="x-notch" d="M 626.705202312 525 L 626.705202312 530"/>
	</g>
</svg>
