<?xml version="1.0" ?>
<svg height="600" version="1.1" width="800" xmlns="http://www.w3.org/2000/svg" xmlns:svg="http://www.w3.org/2000/svg">
	<style type="text/css">
		

.x-axis-path, .y-gridline, .x-notch { fill:none; stroke: #a7a9ac; stroke-width:1; }



.y-gridline { stroke-width: 1; }

.y-axis-path, .y-axis-path2, .x-notch-left, .x-notch-right { display: none;}



.x-axis-label, .data-point-label {font-size: 12px; font-weight:normal; font-family: sans-serif; fill: #58595b; text-anchor:middle;}

.y-axis-label {font-size: 12px; font-family: helvetica; fill: #a7a9ac; text-anchor:end;}



.series-1-line { fill: none; stroke: #10b80c; stroke-width:2; }



.series-2-line { fill: none; stroke: #e90f0a; stroke-width: 2;}

	</style>
	<rect fill="white" height="600" width="800" x="0" y="0"/>
	<g id="grid" transform="translate(70, 30)">
		<g class="x-axis" id="x_axis">
			<path class="x-axis-path" d="M 0 525 L 660 525"/>
			<path class="x-notch-left" d="M 0 525, L 0 535"/>
			<path class="x-notch-right" d="M 660 525, L 660 535"/>
		</g>
		<g class="y-axis" id="y_axis">
			<path class="y-axis-path" d="M 0 525 L 0 0"/>
			<path class="y-axis-path-2" d="M 660 525 L 660 0"/>
			<path class="y-gridline" d="M 0 525 L 660 525"/>
			<text class="y-axis-label" x="-5" y="525">
				-200
			</text>
			<path class="y-gridline" d="M 0 394 L 660 394"/>
			<text class="y-axis-label" x="-5" y="394">
				 0
			</text>
			<path class="y-gridline" d="M 0 263 L 660 263"/>
			<text class="y-axis-label" x="-5" y="263">
				200
			</text>
			<path class="y-gridline" d="M 0 132 L 660 132"/>
			<text class="y-axis-label" x="-5" y="132">
				400
			</text>
			<path class="y-gridline" d="M 0 1 L 660 1"/>
			<text class="y-axis-label" x="-5" y="1">
				600
			</text>
		</g>
		<g>
			<path class="series-1-line" d="M 40 388.979936041 L 43 398.445660798 L 46 386.15448879 L 49 399.205331052 L 52 395.10155463 L 55 390.633514931 L 58 389.767384548 L 61 400.301041965 L 64 388.297975104 L 67 386.982829082 L 70 388.650807572 L 73 398.387713446 L 76 389.334319697 L 79 385.120404869 L 82 390.721236769 L 85 392.855551584 L 88 402.397566689 L 91 392.165969654 L 94 392.367771931 L 97 395.095353287 L 100 402.899878842 L 103 396.058508544 L 106 393.904168688 L 109 404.09022242 L 112 395.375838122 L 115 393.66218411 L 118 383.557781729 L 121 381.691547019 L 124 390.013048767 L 127 396.105470815 L 130 397.17185297 L 133 389.152411605 L 136 389.676299305 L 139 389.445877754 L 142 405.200465834 L 145 387.290119611 L 148 395.755607821 L 151 386.252933996 L 154 383.090027799 L 157 395.149227748 L 160 386.5703679 L 163 382.619304394 L 166 381.261451643 L 169 378.268182391 L 172 363.892049368 L 175 371.916851736 L 178 374.144380928 L 181 367.260568339 L 184 364.631694582 L 187 340.169633712 L 190 348.008007325 L 193 343.488931103 L 196 342.995790448 L 199 310.821000114 L 202 324.787194339 L 205 321.268222442 L 208 311.89274327 L 211 296.660624604 L 214 277.716193777 L 217 264.865603287 L 220 271.246130482 L 223 263.658912946 L 226 277.2267314 L 229 283.056434345 L 232 251.457986523 L 235 251.617478728 L 238 246.471155689 L 241 259.030407802 L 244 225.592794038 L 247 218.327661925 L 250 220.478900769 L 253 223.723458316 L 256 243.537830022 L 259 197.844442814 L 262 185.570194836 L 265 181.441164589 L 268 201.746994225 L 271 206.56799861 L 274 194.938053697 L 277 199.767520097 L 280 177.051543011 L 283 174.922589198 L 286 188.634526334 L 289 149.611321974 L 292 159.043066454 L 295 135.623552202 L 298 119.586219978 L 301 110.795413113 L 304 96.2582373784 L 307 78.9582139436 L 310 115.672682807 L 313 89.8715081592 L 316 123.289229101 L 319 100.022163327 L 322 132.761733147 L 325 97.5272635137 L 328 108.238755452 L 331 89.3280404643 L 334 41.2868409188 L 337 39.954770868 L 340 33.2830375144 L 343 45.2147783723 L 346 43.5183128265 L 349 19.9206996154 L 352 67.2977032742 L 355 0.0 L 358 0.0916638713095 L 361 55.0543345602 L 364 25.2438839358 L 367 67.0609474795 L 370 42.0901079947 L 373 39.8002436895 L 376 37.806946545 L 379 78.8613710414 L 382 77.7494455838 L 385 57.2453597293 L 388 76.3054221829 L 391 67.7857964356 L 394 93.0585640835 L 397 80.8182963815 L 400 92.1233192982 L 403 104.869132385 L 406 123.623901225 L 409 123.164740847 L 412 139.181915811 L 415 115.025016336 L 418 136.509049257 L 421 139.999269661 L 424 176.51937663 L 427 252.586311223 L 430 369.785114509 L 433 375.462236757 L 436 389.419968968 L 439 385.528139563 L 442 393.239318522 L 445 386.457314543 L 448 384.548769761 L 451 400.040638738 L 454 391.716035979 L 457 392.697665771 L 460 389.000727134 L 463 384.269836114 L 466 391.34543846 L 469 394.242524542 L 472 393.418836449 L 475 383.619463244 L 478 386.779400647 L 481 385.887884221 L 484 393.310958034 L 487 393.266965237 L 490 395.570784778 L 493 391.356869949 L 496 391.601114518 L 499 389.768860085 L 502 391.835346566 L 505 391.562614942 L 508 398.08726082 L 511 385.507983666 L 514 396.329746229 L 517 396.607838855 L 520 394.563637405 L 523 394.104477027 L 526 396.247253857 L 529 386.922546771 L 532 392.328487902 L 535 389.987587072 L 538 386.561961772 L 541 389.857423625 L 544 388.77101643 L 547 391.532445843 L 550 394.285545461 L 553 390.012264313 L 556 398.130281058 L 559 387.254645396 L 562 394.965824355 L 565 390.650233135 L 568 396.030656003 L 571 395.274796245 L 574 391.027033359 L 577 389.906645887 L 580 387.167501505 L 583 391.522434004 L 586 393.309145134 L 589 390.773485755 L 592 387.65288963 L 595 387.956500518 L 598 397.973049524 L 601 395.852557726 L 604 392.418470411 L 607 385.721218796 L 610 395.847906208 L 613 397.702577891 L 616 394.226048285 L 620 396.546791855"/>
			<path class="series-2-line" d="M 40 392.758357688 L 43 397.99429725 L 46 393.974908566 L 49 394.252636567 L 52 389.241605571 L 55 402.410683629 L 58 395.085820572 L 61 401.313402445 L 64 391.013612452 L 67 402.199405885 L 70 386.280309457 L 73 387.880227208 L 76 394.438356519 L 79 393.724442208 L 82 395.985454834 L 85 397.585372585 L 88 403.812954458 L 91 400.785208086 L 94 394.451987341 L 97 393.738073031 L 100 400.296202342 L 103 396.937908532 L 106 397.215636534 L 109 393.19624785 L 112 398.432187411 L 115 394.412798727 L 118 397.334906228 L 121 391.33223292 L 124 394.584887857 L 127 397.506995357 L 130 398.115270796 L 133 398.06245136 L 136 393.051420364 L 139 389.693126555 L 142 393.606876367 L 145 402.47883774 L 148 396.145616994 L 151 395.431702684 L 154 398.353810184 L 157 398.631538185 L 160 395.603791814 L 163 405.467395498 L 166 384.59008751 L 169 399.742450191 L 172 398.697988443 L 175 396.661884384 L 178 396.609064948 L 181 386.970369829 L 184 396.833973513 L 187 396.45060664 L 190 397.719976954 L 193 393.039493395 L 196 391.995031647 L 199 395.908781459 L 202 395.194867149 L 205 389.192193841 L 208 394.428133402 L 211 398.011335777 L 214 400.60289584 L 217 393.60858022 L 220 390.250286411 L 223 387.222540039 L 226 384.194793667 L 229 389.430733229 L 232 393.675030478 L 235 393.95275848 L 238 383.983515924 L 241 383.60014905 L 244 391.149920673 L 247 389.444364051 L 250 388.399902303 L 253 384.380513619 L 256 386.641526244 L 259 385.266517059 L 262 378.602748876 L 265 390.449637185 L 268 380.480394629 L 271 375.469363633 L 274 384.341325005 L 277 378.00810426 L 280 388.863350256 L 283 385.17450901 L 286 385.452237011 L 289 374.82189958 L 292 372.455248083 L 295 377.03009277 L 298 377.307820771 L 301 368.660767965 L 304 366.955211342 L 307 383.760311211 L 310 366.519025033 L 313 368.780037659 L 316 375.999261844 L 319 369.666041099 L 322 366.638294727 L 325 370.882591977 L 328 362.23553917 L 331 346.646990179 L 334 337.669389935 L 337 351.499562867 L 340 360.37152424 L 343 328.916698256 L 346 348.035630186 L 349 341.702409441 L 352 349.913275939 L 355 341.266223132 L 358 339.230119072 L 361 350.085365068 L 364 320.283276272 L 367 332.13016458 L 370 307.947382219 L 373 316.488796154 L 376 317.42761903 L 379 345.14078433 L 382 337.485373836 L 385 325.532846656 L 388 329.446596468 L 391 317.16352185 L 394 331.654789657 L 397 332.593612534 L 400 347.415427778 L 403 356.617936588 L 406 343.673767096 L 409 350.231896407 L 412 338.940464101 L 415 342.523666476 L 418 342.140299603 L 421 325.5601083 L 424 364.51188647 L 427 383.300270963 L 430 392.502779773 L 433 395.75543471 L 436 396.363710149 L 439 396.971985588 L 442 392.291502029 L 445 392.569230031 L 448 393.177505469 L 451 399.405087343 L 454 395.385698659 L 457 396.324521535 L 460 392.305132851 L 463 394.896692914 L 466 399.140990164 L 469 397.765980978 L 472 396.721519231 L 475 390.718845923 L 478 399.921354732 L 481 396.563060923 L 484 398.162978674 L 487 391.499210491 L 490 392.438033367 L 493 391.724119057 L 496 391.671299621 L 499 393.271217372 L 502 392.557303061 L 505 395.809957999 L 508 395.757138563 L 511 398.018151188 L 514 397.965331752 L 517 392.623753319 L 520 388.604364635 L 523 395.162493946 L 526 395.440221948 L 529 392.743023013 L 532 399.631699761 L 535 390.32355208 L 538 395.559491642 L 541 396.498314518 L 544 397.767684831 L 547 391.765011523 L 550 399.975878021 L 553 395.6259419 L 556 391.937100653 L 559 399.156324839 L 562 394.47584128 L 565 396.736853905 L 568 394.700749846 L 571 395.970120159 L 574 400.544964846 L 577 394.211744101 L 580 395.481114414 L 583 398.733769352 L 586 390.086716545 L 589 398.297583043 L 592 394.608741796 L 595 398.191944171 L 598 394.833650362 L 601 389.822619366 L 604 396.380748677 L 607 396.327929241 L 610 388.672518746 L 613 395.230648057 L 616 395.508376058 L 620 393.802819436"/>
		</g>
		<text class="x-axis-label" x="40.0" y="540">
			0
		</text>
		<path class="x-notch" d="M 55.0259067358 525 L 55.0259067358 530"/>
		<text class="x-axis-label" x="70.0518134715" y="540">
			10
		</text>
		<path class="x-notch" d="M 85.0777202073 525 L 85.0777202073 530"/>
		<text class="x-axis-label" x="100.103626943" y="540">
			20
		</text>
		<path class="x-notch" d="M 115.129533679 525 L 115.129533679 530"/>
		<text class="x-axis-label" x="130.155440415" y="540">
			30
		</text>
		<path class="x-notch" d="M 145.18134715 525 L 145.18134715 530"/>
		<text class="x-axis-label" x="160.207253886" y="540">
			40
		</text>
		<path class="x-notch" d="M 175.233160622 525 L 175.233160622 530"/>
		<text class="x-axis-label" x="190.259067358" y="540">
			50
		</text>
		<path class="x-notch" d="M 205.284974093 525 L 205.284974093 530"/>
		<text class="x-axis-label" x="220.310880829" y="540">
			60
		</text>
		<path class="x-notch" d="M 235.336787565 525 L 235.336787565 530"/>
		<text class="x-axis-label" x="250.362694301" y="540">
			70
		</text>
		<path class="x-notch" d="M 265.388601036 525 L 265.388601036 530"/>
		<text class="x-axis-label" x="280.414507772" y="540">
			80
		</text>
		<path class="x-notch" d="M 295.440414508 525 L 295.440414508 530"/>
		<text class="x-axis-label" x="310.466321244" y="540">
			90
		</text>
		<path class="x-notch" d="M 325.492227979 525 L 325.492227979 530"/>
		<text class="x-axis-label" x="340.518134715" y="540">
			100
		</text>
		<path class="x-notch" d="M 355.544041451 525 L 355.544041451 530"/>
		<text class="x-axis-label" x="370.569948187" y="540">
			110
		</text>
		<path class="x-notch" d="M 385.595854922 525 L 385.595854922 530"/>
		<text class="x-axis-label" x="400.621761658" y="540">
			120
		</text>
		<path class="x-notch" d="M 415.647668394 525 L 415.647668394 530"/>
		<text class="x-axis-label" x="430.67357513" y="540">
			130
		</text>
		<path class="x-notch" d="M 445.699481865 525 L 445.699481865 530"/>
		<text class="x-axis-label" x="460.725388601" y="540">
			140
		</text>
		<path class="x-notch" d="M 475.751295337 525 L 475.751295337 530"/>
		<text class="x-axis-label" x="490.777202073" y="540">
			150
		</text>
		<path class="x-notch" d="M 505.803108808 525 L 505.803108808 530"/>
		<text class="x-axis-label" x="520.829015544" y="540">
			160
		</text>
		<path class="x-notch" d="M 535.85492228 525 L 535.85492228 530"/>
		<text class="x-axis-label" x="550.880829016" y="540">
			170
		</text>
		<path class="x-notch" d="M 565.906735751 525 L 565.906735751 530"/>
		<text class="x-axis-label" x="580.932642487" y="540">
			180
		</text>
		<path class="x-notch" d="M 595.958549223 525 L 595.958549223 530"/>
		<text class="x-axis-label" x="610.984455959" y="540">
			190
		</text>
		<path class="x-notch" d="M 626.010362694 525 L 626.010362694 530"/>
	</g>
</svg>
