<?xml version="1.0" ?>
<svg height="600" version="1.1" width="800" xmlns="http://www.w3.org/2000/svg" xmlns:svg="http://www.w3.org/2000/svg">
	<style type="text/css">

.x-axis-path, .y-gridline, .x-notch { fill:none; stroke: #a7a9ac; stroke-width:1; }



.y-gridline { stroke-width: 1; }

.y-axis-path, .y-axis-path2, .x-notch-left, .x-notch-right { display: none;}



.x-axis-label, .data-point-label {font-size: 12px; font-weight:normal; font-family: sans-serif; fill: #58595b; text-anchor:middle;}

.y-axis-label {font-size: 12px; font-family: helvetica; fill: #a7a9ac; text-anchor:end;}



.series-1-line { fill: none; stroke: #10b80c; stroke-width:2; }



.series-2-line { fill: none; stroke: #e90f0a; stroke-width: 2;}
</style>
	<rect fill="white" height="600" width="800" x="0" y="0"/>
	<g id="grid" transform="translate(70, 30)">
		<g class="x-axis" id="x_axis">
			<path class="x-axis-path" d="M 0 525 L 660 525"/>
			<path class="x-notch-left" d="M 0 525, L 0 535"/>
			<path class="x-notch-right" d="M 660 525, L 660 535"/>
		</g>
		<g class="y-axis" id="y_axis">
			<path class="y-axis-path" d="M 0 525 L 0 0"/>
			<path class="y-axis-path-2" d="M 660 525 L 660 0"/>
			<path class="y-gridline" d="M 0 525 L 660 525"/>
			<text class="y-axis-label" x="-5" y="525">-200</text>
			<path class="y-gridline" d="M 0 394 L 660 394"/>
			<text class="y-axis-label" x="-5" y="394"> 0</text>
			<path class="y-gridline" d="M 0 263 L 660 263"/>
			<text class="y-axis-label" x="-5" y="263">200</text>
			<path class="y-gridline" d="M 0 132 L 660 132"/>
			<text class="y-axis-label" x="-5" y="132">400</text>
			<path class="y-gridline" d="M 0 1 L 660 1"/>
			<text class="y-axis-label" x="-5" y="1">600</text>
		</g>
		<g>
			<path class="series-1-line" d="M 40 398.233224825 L 44 399.239311361 L 49 390.623761949 L 53 388.441850839 L 58 391.548855628 L 62 379.687439507 L 67 379.273247435 L 71 368.571020985 L 76 374.79368709 L 80 393.419999144 L 85 353.73690067 L 89 383.434061812 L 94 387.67132174 L 98 400.689759896 L 103 386.785294585 L 107 354.303955807 L 112 374.002201835 L 117 396.135243483 L 121 398.547141361 L 126 381.61404438 L 130 380.562162359 L 135 368.237115579 L 139 375.039150469 L 144 375.885871031 L 148 375.486146225 L 153 377.376318331 L 157 346.314806059 L 162 364.477713506 L 166 368.960916952 L 171 367.95288883 L 175 352.903475063 L 180 359.836167447 L 185 362.812740793 L 189 329.882238623 L 194 332.597949082 L 198 310.332308354 L 203 286.835141626 L 207 252.034971405 L 212 312.321583684 L 216 297.25725055 L 221 266.152788582 L 225 254.812646131 L 230 251.196215199 L 234 237.0742888 L 239 267.046554042 L 243 212.597350328 L 248 191.95475598 L 252 204.596593123 L 257 159.610111485 L 262 169.498647109 L 266 184.777595543 L 271 116.417889729 L 275 93.3115652281 L 280 113.908816194 L 284 124.188646147 L 289 94.8659183805 L 293 93.0463670688 L 298 46.5817377599 L 302 35.9952494358 L 307 19.7577114668 L 311 68.4515228348 L 316 26.4204323348 L 320 22.0510254291 L 325 15.8691413823 L 330 21.0922098428 L 334 0.0 L 339 37.6374295456 L 343 31.2532298289 L 348 35.8388343908 L 352 55.986695913 L 357 54.3986208538 L 361 51.9556208073 L 366 50.9333514708 L 370 112.639338154 L 375 187.169877799 L 379 301.782203343 L 384 306.990578486 L 388 253.989683708 L 393 131.37682701 L 397 112.704719471 L 402 152.19915821 L 407 230.627043626 L 411 176.453848217 L 416 185.675307258 L 420 186.072638376 L 425 102.237253146 L 429 359.290886808 L 434 390.233815164 L 438 389.196852511 L 443 386.000424388 L 447 375.486724495 L 452 381.912158373 L 456 385.685561591 L 461 379.199864963 L 465 389.871441348 L 470 391.486057251 L 475 382.174722775 L 479 378.123595716 L 484 389.88157334 L 488 402.81298185 L 493 402.514980006 L 497 381.857692341 L 502 388.109292978 L 506 380.449939413 L 511 375.746881191 L 515 399.31399056 L 520 406.449676767 L 524 385.140457937 L 529 393.898738422 L 533 367.764234353 L 538 382.927670711 L 542 388.584757145 L 547 399.444407984 L 552 403.15994214 L 556 402.557675613 L 561 394.521494985 L 565 391.571914585 L 570 394.171660868 L 574 382.295777481 L 579 378.954676701 L 583 383.090665768 L 588 388.574145013 L 592 368.337086208 L 597 391.615076313 L 601 391.707916697 L 606 389.830270271 L 610 393.169203414 L 615 396.798160026 L 620 398.238942689"/>
			<path class="series-2-line" d="M 40 381.995346553 L 44 390.752633464 L 49 401.770430654 L 53 400.920548883 L 58 390.463498429 L 62 400.916168049 L 67 388.763734886 L 71 394.69538395 L 76 405.14805357 L 80 398.081768533 L 85 406.839055445 L 89 413.900959648 L 94 403.443909194 L 98 389.596093322 L 103 410.221059195 L 107 419.543473676 L 112 377.439279325 L 117 374.328887275 L 121 406.25640454 L 126 414.448563882 L 130 391.558706897 L 135 408.227779783 L 139 394.379963911 L 144 405.96288867 L 148 391.549945229 L 153 416.695931659 L 157 402.848115787 L 162 424.038209229 L 166 375.152484043 L 171 389.561046651 L 175 390.406547588 L 180 400.294089639 L 185 388.141656476 L 189 401.419963944 L 194 385.876765364 L 198 388.41764901 L 203 406.782104605 L 207 381.066609772 L 212 398.865937797 L 216 357.891998585 L 221 394.905663976 L 225 368.059914003 L 230 370.60079765 L 234 381.05346727 L 239 367.205651398 L 243 343.185539274 L 248 357.028974312 L 252 357.874475249 L 257 378.499441122 L 262 368.042390668 L 266 354.194574796 L 271 362.386734138 L 275 341.757387431 L 280 357.861332748 L 284 352.49043042 L 289 331.861083713 L 293 340.618370625 L 298 349.375657536 L 302 337.223224373 L 307 347.110766424 L 311 321.960399161 L 316 278.160822101 L 320 332.128314579 L 325 271.940038002 L 330 306.128065544 L 334 279.847443142 L 339 238.30837636 L 343 231.807218893 L 348 277.297797828 L 352 275.317660917 L 357 247.906783376 L 361 221.626160973 L 366 260.335209073 L 370 210.884356317 L 375 210.599602115 L 379 327.296254818 L 384 341.704817425 L 388 245.913503964 L 393 165.94576245 L 397 158.879477414 L 402 334.914524922 L 407 277.551886193 L 411 320.781954849 L 416 260.028550702 L 420 253.527393234 L 425 273.587231538 L 429 407.802838897 L 434 374.740685659 L 438 393.670268824 L 443 374.736304826 L 447 395.361270698 L 452 396.206771636 L 456 369.926149233 L 461 357.208588501 L 465 401.003784726 L 470 402.979540803 L 475 390.261980071 L 479 394.498246425 L 484 400.995023059 L 488 378.670293643 L 493 392.513728681 L 497 386.577698784 L 502 392.509347847 L 506 386.57331795 L 511 404.372645975 L 515 353.79153808 L 520 376.111886662 L 524 383.738918434 L 529 373.28186798 L 533 384.29966517 L 538 410.575906738 L 542 376.948625931 L 547 391.357188539 L 552 374.118607249 L 556 391.352807705 L 561 378.070119403 L 565 408.867381528 L 570 389.36828996 L 574 402.081469859 L 579 405.752608645 L 583 411.119130139 L 588 404.617972672 L 592 399.247070344 L 597 415.916143229 L 601 390.765775966 L 606 386.525128777 L 610 383.979864297 L 615 402.344319892 L 620 409.406224094"/>
		</g>
		<text class="x-axis-label" x="40.0" y="540">0</text>
		<path class="x-notch" d="M 62.65625 525 L 62.65625 530"/>
		<text class="x-axis-label" x="85.3125" y="540">10</text>
		<path class="x-notch" d="M 107.96875 525 L 107.96875 530"/>
		<text class="x-axis-label" x="130.625" y="540">20</text>
		<path class="x-notch" d="M 153.28125 525 L 153.28125 530"/>
		<text class="x-axis-label" x="175.9375" y="540">30</text>
		<path class="x-notch" d="M 198.59375 525 L 198.59375 530"/>
		<text class="x-axis-label" x="221.25" y="540">40</text>
		<path class="x-notch" d="M 243.90625 525 L 243.90625 530"/>
		<text class="x-axis-label" x="266.5625" y="540">50</text>
		<path class="x-notch" d="M 289.21875 525 L 289.21875 530"/>
		<text class="x-axis-label" x="311.875" y="540">60</text>
		<path class="x-notch" d="M 334.53125 525 L 334.53125 530"/>
		<text class="x-axis-label" x="357.1875" y="540">70</text>
		<path class="x-notch" d="M 379.84375 525 L 379.84375 530"/>
		<text class="x-axis-label" x="402.5" y="540">80</text>
		<path class="x-notch" d="M 425.15625 525 L 425.15625 530"/>
		<text class="x-axis-label" x="447.8125" y="540">90</text>
		<path class="x-notch" d="M 470.46875 525 L 470.46875 530"/>
		<text class="x-axis-label" x="493.125" y="540">100</text>
		<path class="x-notch" d="M 515.78125 525 L 515.78125 530"/>
		<text class="x-axis-label" x="538.4375" y="540">110</text>
		<path class="x-notch" d="M 561.09375 525 L 561.09375 530"/>
		<text class="x-axis-label" x="583.75" y="540">120</text>
		<path class="x-notch" d="M 606.40625 525 L 606.40625 530"/>
	</g>
</svg>
