<?xml version="1.0" ?>
<svg height="600" version="1.1" width="800" xmlns="http://www.w3.org/2000/svg" xmlns:svg="http://www.w3.org/2000/svg">
	<style type="text/css">

.x-axis-path, .y-gridline, .x-notch { fill:none; stroke: #a7a9ac; stroke-width:1; }



.y-gridline { stroke-width: 1; }

.y-axis-path, .y-axis-path2, .x-notch-left, .x-notch-right { display: none;}



.x-axis-label, .data-point-label {font-size: 12px; font-weight:normal; font-family: sans-serif; fill: #58595b; text-anchor:middle;}

.y-axis-label {font-size: 12px; font-family: helvetica; fill: #a7a9ac; text-anchor:end;}



.series-1-line { fill: none; stroke: #10b80c; stroke-width:2; }



.series-2-line { fill: none; stroke: #e90f0a; stroke-width: 2;}
</style>
	<rect fill="white" height="600" width="800" x="0" y="0"/>
	<g id="grid" transform="translate(70, 30)">
		<g class="x-axis" id="x_axis">
			<path class="x-axis-path" d="M 0 525 L 660 525"/>
			<path class="x-notch-left" d="M 0 525, L 0 535"/>
			<path class="x-notch-right" d="M 660 525, L 660 535"/>
		</g>
		<g class="y-axis" id="y_axis">
			<path class="y-axis-path" d="M 0 525 L 0 0"/>
			<path class="y-axis-path-2" d="M 660 525 L 660 0"/>
			<path class="y-gridline" d="M 0 525 L 660 525"/>
			<text class="y-axis-label" x="-5" y="525">-200</text>
			<path class="y-gridline" d="M 0 420 L 660 420"/>
			<text class="y-axis-label" x="-5" y="420"> 0</text>
			<path class="y-gridline" d="M 0 315 L 660 315"/>
			<text class="y-axis-label" x="-5" y="315">200</text>
			<path class="y-gridline" d="M 0 210 L 660 210"/>
			<text class="y-axis-label" x="-5" y="210">400</text>
			<path class="y-gridline" d="M 0 105 L 660 105"/>
			<text class="y-axis-label" x="-5" y="105">600</text>
			<path class="y-gridline" d="M 0 0 L 660 0"/>
			<text class="y-axis-label" x="-5" y="0">800</text>
		</g>
		<g>
			<path class="series-1-line" d="M 40 417.870240936 L 43 413.997275595 L 47 427.791294044 L 50 419.625017723 L 54 420.253381635 L 58 425.421319404 L 61 438.98202553 L 65 444.344626314 L 69 430.691969231 L 72 428.219687239 L 76 436.137998899 L 80 428.620059684 L 83 430.000769838 L 87 433.106129542 L 91 398.789851901 L 94 434.505313459 L 98 445.562717981 L 102 404.527328727 L 105 416.401427556 L 109 406.198676629 L 112 422.91142617 L 116 410.256973502 L 120 413.427288328 L 123 430.555467357 L 127 404.903919705 L 131 406.40078014 L 134 397.17114193 L 138 383.530828344 L 142 389.101245047 L 145 382.802883778 L 149 373.041058742 L 153 347.86908629 L 156 371.819981365 L 160 337.645957464 L 164 327.339602106 L 167 326.605527274 L 171 335.379991961 L 174 287.728690819 L 178 320.227558545 L 182 285.677968581 L 185 258.339813632 L 189 293.704598472 L 193 274.837117556 L 196 272.105824485 L 200 268.919845559 L 204 249.611438752 L 207 261.551099761 L 211 254.941115787 L 215 243.27272639 L 218 235.715530808 L 222 209.973531631 L 226 226.906642942 L 229 240.908274959 L 233 195.643922788 L 236 224.886940315 L 240 249.641579143 L 244 239.776352028 L 247 203.306640091 L 251 163.67152948 L 255 146.98277691 L 258 148.752408387 L 262 133.854069898 L 266 142.160493472 L 269 127.301208997 L 273 172.809919908 L 277 142.087218631 L 280 156.088850648 L 284 196.577400739 L 288 177.761722039 L 291 143.41954329 L 295 177.136774847 L 298 134.635342417 L 302 144.447065533 L 306 118.821823693 L 309 105.0 L 313 127.108071721 L 317 174.498052943 L 320 185.061312891 L 324 163.21095517 L 328 139.997754001 L 331 197.375040532 L 335 238.110865263 L 339 213.899054974 L 342 212.101820605 L 346 219.488147792 L 350 268.823545038 L 353 263.057168242 L 357 249.507508533 L 361 217.486716576 L 364 284.982230424 L 368 286.116272996 L 371 289.521114259 L 375 307.634547149 L 379 294.267004606 L 382 324.534330007 L 386 285.172597496 L 390 317.852975329 L 393 375.632538442 L 397 287.61537246 L 401 337.936630624 L 404 347.943421458 L 408 331.436786053 L 412 372.872547753 L 415 394.073878346 L 419 383.080131867 L 423 389.67526115 L 426 393.935243678 L 430 407.016172252 L 433 408.915916325 L 437 394.627063281 L 441 401.364851009 L 444 411.942073274 L 448 412.103610187 L 452 414.560632785 L 455 380.568321344 L 459 432.588935006 L 463 434.683139741 L 466 416.736362269 L 470 404.068959047 L 474 424.958666936 L 477 424.341551794 L 481 417.939586093 L 485 422.368330527 L 488 428.093951525 L 492 436.3752834 L 495 440.778329078 L 499 433.182686539 L 503 431.450407293 L 506 431.637440609 L 510 432.693577506 L 514 438.017528979 L 517 431.524504696 L 521 420.634362649 L 525 434.025902165 L 528 434.758275213 L 532 424.7501873 L 536 429.710713854 L 539 438.277362621 L 543 428.982566936 L 547 407.403766142 L 550 436.841244331 L 554 427.611403768 L 557 408.094978688 L 561 432.992680666 L 565 427.7967353 L 568 411.834630217 L 572 432.77593797 L 576 433.417454788 L 579 417.857221582 L 583 397.939126978 L 587 432.266451037 L 590 414.294177161 L 594 441.733830053 L 598 424.241131377 L 601 406.333610271 L 605 424.200577932 L 609 426.514942084 L 612 431.748037328 L 616 398.767892618 L 620 419.462735141"/>
			<path class="series-2-line" d="M 40 432.647025323 L 43 417.599594594 L 47 408.622736019 L 50 412.292902768 L 54 425.068927749 L 58 400.409757775 L 61 408.126972627 L 65 392.573660885 L 69 443.290761835 L 72 406.996328563 L 76 426.854687725 L 80 408.266089905 L 83 422.053876912 L 87 383.735919589 L 91 402.582516725 L 94 387.029204983 L 98 410.428731236 L 102 431.804733436 L 105 406.639682449 L 109 412.333373249 L 112 421.56823114 L 116 415.12077763 L 120 386.414559552 L 123 429.543445309 L 127 438.272422187 L 131 394.389773721 L 134 425.88339618 L 138 415.388894567 L 142 426.64727651 L 145 434.870372375 L 149 430.95232393 L 153 404.269629903 L 156 428.680918182 L 160 405.539391246 L 164 427.42127446 L 167 396.185651317 L 171 420.596939595 L 174 388.85543544 L 178 401.631460421 L 182 437.172130984 L 185 413.018842022 L 189 353.453882156 L 193 369.265193214 L 196 373.441240976 L 200 310.33511402 L 204 335.758164324 L 207 379.392931093 L 211 357.263166183 L 215 374.59212028 L 218 322.615375608 L 222 365.238380352 L 226 359.802688868 L 229 357.908164474 L 233 348.425424887 L 236 356.142639739 L 240 334.012874829 L 244 366.012378301 L 247 365.635496947 L 251 326.305777597 L 255 298.105440532 L 258 290.646224997 L 262 298.869320862 L 266 218.563239466 L 269 240.44512268 L 273 216.291833718 L 277 286.232413159 L 280 284.337888766 L 284 234.384668145 L 288 242.101882997 L 291 264.995528237 L 295 186.20708988 L 298 179.75963637 L 302 160.665157537 L 306 204.80580532 L 309 202.911280926 L 313 139.80515397 L 317 157.63998908 L 320 60.6398342581 L 324 127.545127622 L 328 110.980053854 L 331 70.1326914655 L 335 100.108670886 L 339 101.24943257 L 342 117.566624642 L 346 121.742672403 L 350 112.259932816 L 353 136.165340082 L 357 111.506170107 L 361 87.8587621582 L 364 106.199478282 L 368 99.246143759 L 371 172.222009278 L 375 160.209864626 L 379 186.138795943 L 382 152.373767736 L 386 208.655559828 L 390 212.83160759 L 393 188.172437615 L 397 238.889538565 L 401 233.453847081 L 404 262.923945489 L 408 285.311709715 L 412 265.205468857 L 415 324.016666014 L 419 354.498526447 L 423 363.733384338 L 426 342.615381454 L 430 366.014907706 L 433 397.508530166 L 437 389.543433617 L 441 396.248886443 L 444 395.872005089 L 448 422.306817419 L 452 406.247624664 L 455 394.235480012 L 459 399.929170812 L 463 420.799292 L 466 411.316552413 L 470 406.892622955 L 474 435.350959337 L 477 425.362338737 L 481 449.773627015 L 485 441.808530467 L 488 409.055264286 L 492 411.713669008 L 495 427.524980067 L 499 421.077526558 L 503 447.006457875 L 506 429.935503094 L 510 415.393953377 L 514 425.640573294 L 517 424.757810926 L 521 439.051478947 L 525 394.157068455 L 528 430.203620031 L 532 445.003169064 L 536 432.991024412 L 539 430.590619005 L 543 432.743142715 L 547 417.695711986 L 550 414.789425567 L 554 426.553688522 L 557 405.435685638 L 561 420.235234671 L 565 414.293662174 L 568 410.881494742 L 572 411.516375413 L 576 441.998235847 L 579 415.31554182 L 583 437.197425034 L 587 401.408872775 L 590 435.431900299 L 594 408.749206273 L 598 407.360562892 L 601 431.265970158 L 605 418.24206348 L 609 404.71227579 L 612 409.394204564 L 616 436.84077892 L 620 436.463897565"/>
		</g>
		<text class="x-axis-label" x="40.0" y="540">0</text>
		<path class="x-notch" d="M 58.2389937107 525 L 58.2389937107 530"/>
		<text class="x-axis-label" x="76.4779874214" y="540">10</text>
		<path class="x-notch" d="M 94.7169811321 525 L 94.7169811321 530"/>
		<text class="x-axis-label" x="112.955974843" y="540">20</text>
		<path class="x-notch" d="M 131.194968553 525 L 131.194968553 530"/>
		<text class="x-axis-label" x="149.433962264" y="540">30</text>
		<path class="x-notch" d="M 167.672955975 525 L 167.672955975 530"/>
		<text class="x-axis-label" x="185.911949686" y="540">40</text>
		<path class="x-notch" d="M 204.150943396 525 L 204.150943396 530"/>
		<text class="x-axis-label" x="222.389937107" y="540">50</text>
		<path class="x-notch" d="M 240.628930818 525 L 240.628930818 530"/>
		<text class="x-axis-label" x="258.867924528" y="540">60</text>
		<path class="x-notch" d="M 277.106918239 525 L 277.106918239 530"/>
		<text class="x-axis-label" x="295.34591195" y="540">70</text>
		<path class="x-notch" d="M 313.58490566 525 L 313.58490566 530"/>
		<text class="x-axis-label" x="331.823899371" y="540">80</text>
		<path class="x-notch" d="M 350.062893082 525 L 350.062893082 530"/>
		<text class="x-axis-label" x="368.301886792" y="540">90</text>
		<path class="x-notch" d="M 386.540880503 525 L 386.540880503 530"/>
		<text class="x-axis-label" x="404.779874214" y="540">100</text>
		<path class="x-notch" d="M 423.018867925 525 L 423.018867925 530"/>
		<text class="x-axis-label" x="441.257861635" y="540">110</text>
		<path class="x-notch" d="M 459.496855346 525 L 459.496855346 530"/>
		<text class="x-axis-label" x="477.735849057" y="540">120</text>
		<path class="x-notch" d="M 495.974842767 525 L 495.974842767 530"/>
		<text class="x-axis-label" x="514.213836478" y="540">130</text>
		<path class="x-notch" d="M 532.452830189 525 L 532.452830189 530"/>
		<text class="x-axis-label" x="550.691823899" y="540">140</text>
		<path class="x-notch" d="M 568.93081761 525 L 568.93081761 530"/>
		<text class="x-axis-label" x="587.169811321" y="540">150</text>
		<path class="x-notch" d="M 605.408805031 525 L 605.408805031 530"/>
	</g>
</svg>
