<?xml version="1.0" ?>
<svg height="600" version="1.1" width="800" xmlns="http://www.w3.org/2000/svg" xmlns:svg="http://www.w3.org/2000/svg">
	<style type="text/css">
		

.x-axis-path, .y-gridline, .x-notch { fill:none; stroke: #a7a9ac; stroke-width:1; }



.y-gridline { stroke-width: 1; }

.y-axis-path, .y-axis-path2, .x-notch-left, .x-notch-right { display: none;}



.x-axis-label, .data-point-label {font-size: 12px; font-weight:normal; font-family: sans-serif; fill: #58595b; text-anchor:middle;}

.y-axis-label {font-size: 12px; font-family: helvetica; fill: #a7a9ac; text-anchor:end;}



.series-1-line { fill: none; stroke: #10b80c; stroke-width:2; }



.series-2-line { fill: none; stroke: #e90f0a; stroke-width: 2;}

	</style>
	<rect fill="white" height="600" width="800" x="0" y="0"/>
	<g id="grid" transform="translate(70, 30)">
		<g class="x-axis" id="x_axis">
			<path class="x-axis-path" d="M 0 525 L 660 525"/>
			<path class="x-notch-left" d="M 0 525, L 0 535"/>
			<path class="x-notch-right" d="M 660 525, L 660 535"/>
		</g>
		<g class="y-axis" id="y_axis">
			<path class="y-axis-path" d="M 0 525 L 0 0"/>
			<path class="y-axis-path-2" d="M 660 525 L 660 0"/>
			<path class="y-gridline" d="M 0 525 L 660 525"/>
			<text class="y-axis-label" x="-5" y="525">
				-200
			</text>
			<path class="y-gridline" d="M 0 394 L 660 394"/>
			<text class="y-axis-label" x="-5" y="394">
				 0
			</text>
			<path class="y-gridline" d="M 0 263 L 660 263"/>
			<text class="y-axis-label" x="-5" y="263">
				200
			</text>
			<path class="y-gridline" d="M 0 132 L 660 132"/>
			<text class="y-axis-label" x="-5" y="132">
				400
			</text>
			<path class="y-gridline" d="M 0 1 L 660 1"/>
			<text class="y-axis-label" x="-5" y="1">
				600
			</text>
		</g>
		<g>
			<path class="series-1-line" d="M 40 385.072788318 L 44 402.977283796 L 48 386.378641634 L 52 403.903855142 L 57 388.41285335 L 61 398.632373658 L 65 365.345791878 L 70 375.904579597 L 74 370.194724228 L 78 345.661521922 L 83 366.729814463 L 87 372.907085787 L 91 350.489517068 L 96 338.651517574 L 100 338.061968811 L 104 330.994732399 L 109 324.616306922 L 113 310.732271148 L 117 310.651545653 L 122 282.664946748 L 126 285.119307069 L 130 247.641161275 L 135 258.808419415 L 139 251.471824296 L 143 243.566306221 L 148 240.970424339 L 152 230.120644332 L 156 212.883170509 L 161 202.851742734 L 165 157.029549282 L 169 204.786151599 L 174 153.694336512 L 178 149.850841153 L 182 175.909431908 L 187 139.099856222 L 191 164.439897594 L 195 117.569852063 L 200 130.04466767 L 204 66.7266141773 L 208 72.8338210978 L 213 125.381271626 L 217 59.7574764646 L 221 55.2052407397 L 226 56.7514106929 L 230 84.5366997461 L 234 43.7946426415 L 239 26.4175071079 L 243 48.5638572711 L 247 100.083385151 L 252 64.9007049138 L 256 8.24935726093 L 260 47.8219701569 L 265 85.1487853735 L 269 76.2052242364 L 273 74.09854759 L 278 21.6291106323 L 282 0.0 L 286 233.847035143 L 291 57.5169672349 L 295 29.6401358957 L 299 111.151276627 L 304 7.89059660609 L 308 100.759955633 L 312 46.8931230731 L 317 30.1345783727 L 321 57.9899318295 L 325 119.65976769 L 330 107.592424048 L 334 77.3801125934 L 338 205.650990612 L 342 122.960285258 L 347 184.061353861 L 351 193.462366238 L 355 152.260998044 L 360 257.546703558 L 364 177.550675162 L 368 179.765415223 L 373 287.625754017 L 377 247.313113856 L 381 279.519933865 L 386 257.491611831 L 390 292.522961491 L 394 246.980558557 L 399 323.731212319 L 403 280.823230955 L 407 292.649561583 L 412 313.658221532 L 416 307.020246366 L 420 317.259540405 L 425 317.977237712 L 429 347.988239316 L 433 329.343716573 L 438 350.70145295 L 442 333.893084674 L 446 351.488206886 L 451 354.511490164 L 455 355.34907545 L 459 350.168128478 L 464 358.101992246 L 468 344.557379582 L 472 353.708806984 L 477 349.186776802 L 481 382.431639873 L 485 385.374894031 L 490 377.469531655 L 494 362.288058827 L 498 348.77318461 L 503 369.233006732 L 507 385.750227022 L 511 381.856908087 L 516 400.67940295 L 520 386.376537742 L 524 392.463970931 L 529 378.340314897 L 533 388.839314326 L 537 399.108502511 L 542 396.682332185 L 546 396.991009074 L 550 398.477235038 L 555 399.234946904 L 559 401.97875106 L 563 385.130523924 L 568 395.719205789 L 572 397.005670353 L 576 390.667259436 L 581 396.265643088 L 585 396.164988163 L 589 399.856997246 L 594 399.466898485 L 598 389.655005841 L 602 403.297717204 L 607 401.819751805 L 611 399.363687333 L 615 381.607269829 L 620 385.668440469"/>
			<path class="series-2-line" d="M 40 393.282903977 L 44 392.379851665 L 48 400.040226445 L 52 397.58018739 L 57 384.221241128 L 61 398.109562883 L 65 382.804383191 L 70 389.297017913 L 74 383.333758684 L 78 399.168313868 L 83 390.480327838 L 87 397.362209246 L 91 386.727989785 L 96 380.375483871 L 100 395.431545683 L 104 388.689793083 L 109 395.960921176 L 113 389.997661947 L 117 386.369882834 L 122 394.4195043 L 126 390.013231815 L 130 406.237033685 L 135 378.475960043 L 139 383.411608021 L 143 386.011775883 L 148 380.048516654 L 152 386.541151376 L 156 387.584332495 L 161 387.849020241 L 165 384.9997345 L 169 372.41928161 L 174 387.086096737 L 178 378.398110706 L 182 365.42841113 L 187 368.417825678 L 191 361.286826392 L 195 370.114941229 L 200 350.917294678 L 204 375.315276953 L 208 362.734824063 L 213 361.831771752 L 217 366.378173044 L 221 346.791279807 L 226 347.445214239 L 230 338.367981523 L 234 332.404722294 L 239 340.065097074 L 243 345.389991737 L 247 353.050366517 L 252 360.32149461 L 256 346.573301663 L 260 350.730456269 L 265 340.87473018 L 269 338.414691125 L 273 347.242805962 L 278 333.883859701 L 282 321.692653497 L 286 365.163723384 L 291 318.718808816 L 295 324.822196852 L 299 299.007356639 L 304 330.411779262 L 308 324.059273347 L 312 300.969159937 L 317 287.999460361 L 321 298.384561942 L 325 301.37397649 L 330 315.651544931 L 334 321.754932966 L 338 318.516400539 L 342 328.90150212 L 347 344.736057305 L 351 349.671705283 L 355 324.246111756 L 360 354.482794321 L 364 354.358235382 L 368 341.777782492 L 373 334.646783205 L 377 352.816818505 L 381 352.30301288 L 386 341.66879342 L 390 340.765741108 L 394 370.223930301 L 399 373.602591535 L 403 356.351178414 L 407 362.454566449 L 412 378.289121634 L 416 380.50004281 L 420 376.093770325 L 425 369.352017725 L 429 362.221018438 L 433 385.451260656 L 438 377.152521311 L 442 371.967755454 L 446 373.789429944 L 451 371.718637575 L 455 376.654285553 L 459 364.073832663 L 464 370.177220699 L 468 371.998895189 L 472 370.317349506 L 477 376.420737541 L 481 380.967138833 L 485 360.99099891 L 490 378.771787525 L 494 377.868735213 L 498 359.83882872 L 503 385.404551053 L 507 388.393965601 L 511 387.49091329 L 516 364.790046565 L 520 393.858989072 L 524 399.573130422 L 529 385.435690788 L 533 401.270245973 L 537 392.193013256 L 542 390.122220887 L 546 401.675062526 L 550 396.490296669 L 555 398.701217845 L 559 394.684192046 L 563 395.727373165 L 568 397.549047655 L 572 377.962154418 L 576 394.185956288 L 581 400.289344324 L 585 399.775538699 L 589 399.650979759 L 594 398.747927448 L 598 395.120148335 L 602 391.103122536 L 607 392.924797026 L 611 395.524964888 L 615 401.628352924 L 620 389.43714672"/>
		</g>
		<text class="x-axis-label" x="40.0" y="540">
			0
		</text>
		<path class="x-notch" d="M 61.6417910448 525 L 61.6417910448 530"/>
		<text class="x-axis-label" x="83.2835820896" y="540">
			10
		</text>
		<path class="x-notch" d="M 104.925373134 525 L 104.925373134 530"/>
		<text class="x-axis-label" x="126.567164179" y="540">
			20
		</text>
		<path class="x-notch" d="M 148.208955224 525 L 148.208955224 530"/>
		<text class="x-axis-label" x="169.850746269" y="540">
			30
		</text>
		<path class="x-notch" d="M 191.492537313 525 L 191.492537313 530"/>
		<text class="x-axis-label" x="213.134328358" y="540">
			40
		</text>
		<path class="x-notch" d="M 234.776119403 525 L 234.776119403 530"/>
		<text class="x-axis-label" x="256.417910448" y="540">
			50
		</text>
		<path class="x-notch" d="M 278.059701493 525 L 278.059701493 530"/>
		<text class="x-axis-label" x="299.701492537" y="540">
			60
		</text>
		<path class="x-notch" d="M 321.343283582 525 L 321.343283582 530"/>
		<text class="x-axis-label" x="342.985074627" y="540">
			70
		</text>
		<path class="x-notch" d="M 364.626865672 525 L 364.626865672 530"/>
		<text class="x-axis-label" x="386.268656716" y="540">
			80
		</text>
		<path class="x-notch" d="M 407.910447761 525 L 407.910447761 530"/>
		<text class="x-axis-label" x="429.552238806" y="540">
			90
		</text>
		<path class="x-notch" d="M 451.194029851 525 L 451.194029851 530"/>
		<text class="x-axis-label" x="472.835820896" y="540">
			100
		</text>
		<path class="x-notch" d="M 494.47761194 525 L 494.47761194 530"/>
		<text class="x-axis-label" x="516.119402985" y="540">
			110
		</text>
		<path class="x-notch" d="M 537.76119403 525 L 537.76119403 530"/>
		<text class="x-axis-label" x="559.402985075" y="540">
			120
		</text>
		<path class="x-notch" d="M 581.044776119 525 L 581.044776119 530"/>
		<text class="x-axis-label" x="602.686567164" y="540">
			130
		</text>
		<path class="x-notch" d="M 624.328358209 525 L 624.328358209 530"/>
	</g>
</svg>
