<?xml version="1.0" ?>
<svg height="600" version="1.1" width="800" xmlns="http://www.w3.org/2000/svg" xmlns:svg="http://www.w3.org/2000/svg">
	<style type="text/css">
		

.x-axis-path, .y-gridline, .x-notch { fill:none; stroke: #a7a9ac; stroke-width:1; }



.y-gridline { stroke-width: 1; }

.y-axis-path, .y-axis-path2, .x-notch-left, .x-notch-right { display: none;}



.x-axis-label, .data-point-label {font-size: 12px; font-weight:normal; font-family: sans-serif; fill: #58595b; text-anchor:middle;}

.y-axis-label {font-size: 12px; font-family: helvetica; fill: #a7a9ac; text-anchor:end;}



.series-1-line { fill: none; stroke: #10b80c; stroke-width:2; }



.series-2-line { fill: none; stroke: #e90f0a; stroke-width: 2;}

	</style>
	<rect fill="white" height="600" width="800" x="0" y="0"/>
	<g id="grid" transform="translate(70, 30)">
		<g class="x-axis" id="x_axis">
			<path class="x-axis-path" d="M 0 525 L 660 525"/>
			<path class="x-notch-left" d="M 0 525, L 0 535"/>
			<path class="x-notch-right" d="M 660 525, L 660 535"/>
		</g>
		<g class="y-axis" id="y_axis">
			<path class="y-axis-path" d="M 0 525 L 0 0"/>
			<path class="y-axis-path-2" d="M 660 525 L 660 0"/>
			<path class="y-gridline" d="M 0 525 L 660 525"/>
			<text class="y-axis-label" x="-5" y="525">
				-200
			</text>
			<path class="y-gridline" d="M 0 394 L 660 394"/>
			<text class="y-axis-label" x="-5" y="394">
				 0
			</text>
			<path class="y-gridline" d="M 0 263 L 660 263"/>
			<text class="y-axis-label" x="-5" y="263">
				200
			</text>
			<path class="y-gridline" d="M 0 132 L 660 132"/>
			<text class="y-axis-label" x="-5" y="132">
				400
			</text>
			<path class="y-gridline" d="M 0 1 L 660 1"/>
			<text class="y-axis-label" x="-5" y="1">
				600
			</text>
		</g>
		<g>
			<path class="series-1-line" d="M 40 407.534561432 L 44 395.449513959 L 48 391.475213711 L 52 380.158843707 L 56 389.12115983 L 60 416.613548101 L 64 415.040183203 L 68 347.038031374 L 72 374.530419645 L 77 360.929834001 L 81 372.991949285 L 85 349.136028093 L 89 310.455612847 L 93 294.267922096 L 97 305.537361466 L 101 302.262652255 L 105 251.182313137 L 109 278.60488775 L 114 296.33027247 L 118 278.83721175 L 122 267.777915999 L 126 268.185877275 L 130 213.585402594 L 134 205.392102971 L 138 206.849087189 L 142 178.914521165 L 146 159.206331238 L 151 123.672257592 L 155 192.304162218 L 159 204.646622974 L 163 121.563993676 L 167 153.135390392 L 171 151.375128513 L 175 79.5510424916 L 179 138.509755669 L 183 165.1632892 L 188 136.085524517 L 192 113.232083828 L 196 176.479610039 L 200 72.30234748 L 204 104.059913952 L 208 120.38757105 L 212 81.2177329688 L 216 112.183350752 L 220 123.196806707 L 225 114.560990301 L 229 23.4832426494 L 233 90.7166924272 L 237 152.029434903 L 241 0.0 L 245 50.0316552057 L 249 132.812097681 L 253 138.51098888 L 258 172.879658904 L 262 128.954856173 L 266 157.07665821 L 270 95.7402563188 L 274 126.91567869 L 278 89.2370167217 L 282 134.514070891 L 286 141.65832299 L 290 185.46674504 L 295 173.008267216 L 299 188.660331723 L 303 243.609850115 L 307 237.28188418 L 311 192.797844956 L 315 193.741771506 L 319 174.989883256 L 323 192.086581436 L 327 197.995277224 L 332 198.776668851 L 336 233.214425307 L 340 175.28143927 L 344 226.828269033 L 348 211.549610295 L 352 196.317493996 L 356 238.121318653 L 360 221.654373269 L 364 272.29217102 L 369 236.268674539 L 373 240.242950205 L 377 233.70481607 L 381 302.406897966 L 385 257.852681471 L 389 257.445059225 L 393 306.917114324 L 397 310.891026378 L 401 328.407697347 L 406 298.258365729 L 410 232.376803777 L 414 299.820058144 L 418 306.008735791 L 422 297.885613439 L 426 325.960873037 L 430 327.161510227 L 434 335.121345847 L 439 326.065920264 L 443 322.604677683 L 447 332.545839477 L 451 351.018084898 L 455 332.732711876 L 459 324.702674403 L 463 322.104285008 L 467 346.86921363 L 471 336.601866568 L 476 359.013129504 L 480 341.00737473 L 484 366.215547361 L 488 358.908372143 L 492 371.809705781 L 496 405.805309067 L 500 386.563997982 L 504 374.618577825 L 508 359.409732745 L 513 389.979012571 L 517 343.023860725 L 521 398.113733659 L 525 333.933879634 L 529 388.93066769 L 533 375.819504882 L 537 407.647248625 L 541 377.35828969 L 545 394.711334897 L 550 417.099326614 L 554 408.416967769 L 558 407.099949898 L 562 416.062266021 L 566 350.670490518 L 570 399.443318193 L 574 416.353846617 L 578 418.766405286 L 582 424.721643513 L 587 391.49542034 L 591 414.186301523 L 595 403.429531626 L 599 378.338054123 L 603 408.137929254 L 607 393.768302527 L 611 373.967754948 L 615 406.028938112 L 620 394.363136203"/>
			<path class="series-2-line" d="M 40 384.659679879 L 44 418.875132685 L 48 393.09447269 L 52 378.222196841 L 56 390.620881355 L 60 383.929893615 L 64 373.602777827 L 68 409.636294657 L 72 402.945306917 L 77 389.891095092 L 81 379.563979304 L 85 406.507176013 L 89 406.179412358 L 93 406.760680715 L 97 378.252924683 L 101 385.197417125 L 105 404.868357737 L 109 409.085754143 L 114 330.581237444 L 118 322.07218568 L 122 373.559246716 L 126 373.231483061 L 130 339.269534957 L 134 298.035330756 L 138 311.343047283 L 142 371.920428441 L 146 283.416559608 L 151 253.090739553 L 155 245.490719801 L 159 297.88681285 L 163 346.64677785 L 167 341.773854134 L 171 289.631265787 L 175 390.206055479 L 179 367.152491521 L 183 385.005368109 L 188 340.135035859 L 192 387.985968847 L 196 369.477564949 L 200 376.422057391 L 204 342.460109287 L 208 340.314281608 L 212 345.440710025 L 216 364.202618625 L 220 375.692271128 L 225 368.092251376 L 229 387.763191988 L 233 385.617364308 L 237 349.83735218 L 241 376.780548889 L 245 363.726337064 L 249 382.488245664 L 253 372.161129875 L 258 391.832070487 L 262 394.231402868 L 266 395.721703238 L 270 384.485555437 L 274 405.974560073 L 278 355.65003575 L 282 375.320976362 L 286 387.719660877 L 290 388.300929234 L 295 374.337685397 L 299 406.735074179 L 303 370.955062051 L 307 393.353098699 L 311 412.115007299 L 315 399.060795474 L 319 374.189167491 L 323 358.40785963 L 327 350.807839877 L 332 398.658772866 L 336 336.516832385 L 340 361.64196507 L 344 360.405169403 L 348 360.98643776 L 352 354.29545002 L 356 348.513494292 L 360 392.728299231 L 364 391.491503564 L 369 366.619875581 L 373 377.200496072 L 377 361.419188211 L 381 378.363032786 L 385 372.581077058 L 389 393.161049682 L 393 361.017165602 L 397 336.14553762 L 401 361.270670304 L 406 377.305482868 L 410 366.069335067 L 414 366.650603424 L 418 386.321544036 L 422 369.631204162 L 426 378.393760629 L 430 396.246637216 L 434 387.737585452 L 439 374.683373627 L 443 375.264641984 L 447 376.754942353 L 451 394.607818941 L 455 403.370375407 L 459 372.13552334 L 463 415.441296267 L 467 373.298060054 L 471 372.061264386 L 476 378.096724816 L 480 378.677993173 L 484 373.805069458 L 488 371.659241778 L 492 372.240510135 L 496 379.185002577 L 500 359.767566667 L 504 372.166251182 L 508 361.839135394 L 513 371.510723872 L 517 350.275223938 L 521 363.582940465 L 525 370.527432907 L 529 398.379661628 L 533 379.87125773 L 537 370.453173954 L 541 408.304754808 L 545 387.978286886 L 550 397.649875365 L 554 397.32211171 L 558 382.44983586 L 562 394.848520375 L 566 413.610428975 L 570 384.193640932 L 574 397.501357459 L 578 403.536817888 L 582 388.664542039 L 587 388.336778384 L 591 386.190950705 L 595 390.40834711 L 599 397.352839552 L 603 385.207659739 L 607 385.788928097 L 611 382.734068405 L 615 407.85920109 L 620 412.076597495"/>
		</g>
		<text class="x-axis-label" x="40.0" y="540">
			0
		</text>
		<path class="x-notch" d="M 60.5673758865 525 L 60.5673758865 530"/>
		<text class="x-axis-label" x="81.134751773" y="540">
			10
		</text>
		<path class="x-notch" d="M 101.70212766 525 L 101.70212766 530"/>
		<text class="x-axis-label" x="122.269503546" y="540">
			20
		</text>
		<path class="x-notch" d="M 142.836879433 525 L 142.836879433 530"/>
		<text class="x-axis-label" x="163.404255319" y="540">
			30
		</text>
		<path class="x-notch" d="M 183.971631206 525 L 183.971631206 530"/>
		<text class="x-axis-label" x="204.539007092" y="540">
			40
		</text>
		<path class="x-notch" d="M 225.106382979 525 L 225.106382979 530"/>
		<text class="x-axis-label" x="245.673758865" y="540">
			50
		</text>
		<path class="x-notch" d="M 266.241134752 525 L 266.241134752 530"/>
		<text class="x-axis-label" x="286.808510638" y="540">
			60
		</text>
		<path class="x-notch" d="M 307.375886525 525 L 307.375886525 530"/>
		<text class="x-axis-label" x="327.943262411" y="540">
			70
		</text>
		<path class="x-notch" d="M 348.510638298 525 L 348.510638298 530"/>
		<text class="x-axis-label" x="369.078014184" y="540">
			80
		</text>
		<path class="x-notch" d="M 389.645390071 525 L 389.645390071 530"/>
		<text class="x-axis-label" x="410.212765957" y="540">
			90
		</text>
		<path class="x-notch" d="M 430.780141844 525 L 430.780141844 530"/>
		<text class="x-axis-label" x="451.34751773" y="540">
			100
		</text>
		<path class="x-notch" d="M 471.914893617 525 L 471.914893617 530"/>
		<text class="x-axis-label" x="492.482269504" y="540">
			110
		</text>
		<path class="x-notch" d="M 513.04964539 525 L 513.04964539 530"/>
		<text class="x-axis-label" x="533.617021277" y="540">
			120
		</text>
		<path class="x-notch" d="M 554.184397163 525 L 554.184397163 530"/>
		<text class="x-axis-label" x="574.75177305" y="540">
			130
		</text>
		<path class="x-notch" d="M 595.319148936 525 L 595.319148936 530"/>
		<text class="x-axis-label" x="615.886524823" y="540">
			140
		</text>
		<path class="x-notch" d="M 636.453900709 525 L 636.453900709 530"/>
	</g>
</svg>
