<?xml version="1.0" ?>
<svg height="600" version="1.1" width="800" xmlns="http://www.w3.org/2000/svg" xmlns:svg="http://www.w3.org/2000/svg">
	<style type="text/css">

.x-axis-path, .y-gridline, .x-notch { fill:none; stroke: #a7a9ac; stroke-width:1; }



.y-gridline { stroke-width: 1; }

.y-axis-path, .y-axis-path2, .x-notch-left, .x-notch-right { display: none;}



.x-axis-label, .data-point-label {font-size: 12px; font-weight:normal; font-family: sans-serif; fill: #58595b; text-anchor:middle;}

.y-axis-label {font-size: 12px; font-family: helvetica; fill: #a7a9ac; text-anchor:end;}



.series-1-line { fill: none; stroke: #10b80c; stroke-width:2; }



.series-2-line { fill: none; stroke: #e90f0a; stroke-width: 2;}
</style>
	<rect fill="white" height="600" width="800" x="0" y="0"/>
	<g id="grid" transform="translate(70, 30)">
		<g class="x-axis" id="x_axis">
			<path class="x-axis-path" d="M 0 525 L 660 525"/>
			<path class="x-notch-left" d="M 0 525, L 0 535"/>
			<path class="x-notch-right" d="M 660 525, L 660 535"/>
		</g>
		<g class="y-axis" id="y_axis">
			<path class="y-axis-path" d="M 0 525 L 0 0"/>
			<path class="y-axis-path-2" d="M 660 525 L 660 0"/>
			<path class="y-gridline" d="M 0 525 L 660 525"/>
			<text class="y-axis-label" x="-5" y="525">-200</text>
			<path class="y-gridline" d="M 0 394 L 660 394"/>
			<text class="y-axis-label" x="-5" y="394"> 0</text>
			<path class="y-gridline" d="M 0 263 L 660 263"/>
			<text class="y-axis-label" x="-5" y="263">200</text>
			<path class="y-gridline" d="M 0 132 L 660 132"/>
			<text class="y-axis-label" x="-5" y="132">400</text>
			<path class="y-gridline" d="M 0 1 L 660 1"/>
			<text class="y-axis-label" x="-5" y="1">600</text>
		</g>
		<g>
			<path class="series-1-line" d="M 40 393.142394553 L 43 398.617834479 L 47 397.2814513 L 50 392.02448549 L 54 387.943648598 L 57 392.72338044 L 61 391.925979897 L 64 398.685651074 L 68 396.898357315 L 71 395.434453138 L 75 399.194781509 L 78 390.20346877 L 82 394.806750693 L 85 395.567736258 L 89 398.141997023 L 93 396.580235006 L 96 375.621520006 L 100 399.160905645 L 103 394.825485466 L 107 396.693946558 L 110 390.349076788 L 114 384.847007669 L 117 384.774978367 L 121 391.760028383 L 124 377.642493839 L 128 371.179888855 L 131 376.763278211 L 135 370.849441648 L 139 364.622154189 L 142 375.625797579 L 146 359.920366673 L 149 365.288162974 L 153 367.489952335 L 156 342.482980802 L 160 352.790916109 L 163 354.159690604 L 167 345.3936038 L 170 321.759088478 L 174 324.382278164 L 177 312.832441608 L 181 338.488920463 L 185 293.575523566 L 188 321.359034321 L 192 303.615255182 L 195 272.619842529 L 199 257.21838254 L 202 243.424237577 L 206 289.320928773 L 209 279.006394549 L 213 256.155659367 L 216 271.217039268 L 220 269.126080398 L 223 243.393737624 L 227 254.907006298 L 230 260.235353657 L 234 233.973966934 L 238 221.169562285 L 241 199.583180981 L 245 240.883000126 L 248 222.698096191 L 252 193.025905023 L 255 196.756723139 L 259 205.261016126 L 262 176.16695073 L 266 189.718720541 L 269 153.332564109 L 273 172.451527617 L 276 149.855681529 L 280 138.031690118 L 284 124.80619095 L 287 136.290102272 L 291 127.024175968 L 294 151.622414021 L 298 119.715241522 L 301 94.4631666796 L 305 82.7960536189 L 308 77.7742524312 L 312 105.401190642 L 315 86.9511531205 L 319 69.8344286733 L 322 65.528365846 L 326 83.4322102026 L 330 67.5306049072 L 333 36.9169907349 L 337 82.0591062397 L 340 81.8106270201 L 344 60.5283695351 L 347 67.2975206904 L 351 71.8910168299 L 354 12.8630025908 L 358 25.3959805418 L 361 2.81970602128 L 365 52.9016547256 L 368 0.0 L 372 94.855580326 L 375 80.8556280935 L 379 75.1474458977 L 383 68.4982994058 L 386 85.5298328575 L 390 83.5563033963 L 393 131.138290086 L 397 41.4809247251 L 400 92.1411521046 L 404 70.6527815434 L 407 97.2808052686 L 411 72.185302971 L 414 124.109578422 L 418 140.984233524 L 421 96.2469807397 L 425 139.654718927 L 429 156.499557968 L 432 151.909554501 L 436 124.471885956 L 439 158.665391059 L 443 193.633807936 L 446 162.862703801 L 450 109.823436488 L 453 158.239508363 L 457 172.153352183 L 460 250.247872197 L 464 264.9956483 L 467 284.311397809 L 471 342.411726209 L 475 343.388457731 L 478 355.441626459 L 482 365.111803871 L 485 385.740989081 L 489 398.752858838 L 492 382.118084255 L 496 403.452457526 L 499 405.193703426 L 503 390.948342078 L 506 389.602784727 L 510 394.588629645 L 513 383.284049302 L 517 403.14795562 L 520 388.609173654 L 524 402.484638852 L 528 397.316050904 L 531 394.225107228 L 535 398.112956597 L 538 398.462327621 L 542 403.379213342 L 545 396.759882911 L 549 392.688831803 L 552 396.311853392 L 556 401.003360275 L 559 406.351585008 L 563 402.976394887 L 566 389.907621166 L 570 402.812764716 L 574 396.281659244 L 577 396.1116192 L 581 396.960829723 L 584 394.811003247 L 588 401.531225482 L 591 398.675599332 L 595 400.524641759 L 598 392.131179263 L 602 398.175264982 L 605 391.64415951 L 609 397.315773825 L 612 401.418910443 L 616 391.545653918 L 620 386.435780674"/>
			<path class="series-2-line" d="M 40 402.083206716 L 43 386.66086668 L 47 390.351386085 L 50 394.424162678 L 54 393.909853006 L 57 397.600372411 L 61 391.734462095 L 64 399.629810577 L 68 399.115500905 L 71 392.8673334 L 75 391.588509351 L 78 396.80805751 L 82 398.205033782 L 85 387.752037201 L 89 377.681297809 L 93 386.723417857 L 96 410.291311079 L 100 379.578683491 L 103 403.911091091 L 107 384.666179168 L 110 394.472813593 L 114 392.047217977 L 117 392.297422683 L 121 394.841170521 L 124 394.709118037 L 128 393.048036799 L 131 390.622441183 L 135 377.875901469 L 139 384.242221195 L 142 386.021454655 L 146 380.15554434 L 149 381.552520612 L 153 369.952752464 L 156 369.056185603 L 160 389.948278504 L 163 389.051711643 L 167 374.011628796 L 170 397.579522019 L 174 379.86363885 L 177 351.826811584 L 181 318.820640864 L 185 352.327220995 L 188 330.40650875 L 192 359.326002616 L 195 383.276153027 L 199 389.642472753 L 202 383.776562438 L 206 368.736479591 L 209 371.662484618 L 213 362.356259603 L 216 357.254863665 L 220 374.324384678 L 223 367.311702796 L 227 364.121592802 L 230 341.818623368 L 234 357.741372815 L 238 331.615831493 L 241 318.869291779 L 245 305.358237687 L 248 328.543873721 L 252 354.787567265 L 255 343.187799117 L 259 347.260575711 L 262 357.831724514 L 266 334.764240702 L 269 364.830506134 L 273 337.940450435 L 276 333.603568874 L 280 333.471516391 L 284 343.278150816 L 287 344.675127088 L 291 333.075358941 L 294 331.032020513 L 298 333.193511163 L 301 325.798572092 L 305 331.018120252 L 308 328.210267447 L 312 330.754015285 L 315 305.775245529 L 319 311.377050878 L 322 331.122372213 L 326 329.843548163 L 330 309.834121861 L 333 289.060181183 L 337 287.399099944 L 340 285.355761517 L 344 299.749482208 L 347 276.299741207 L 351 279.225746234 L 354 263.42114901 L 358 295.016443197 L 361 287.621504127 L 365 275.63947879 L 368 303.029943901 L 372 343.034896242 L 375 339.462529059 L 379 309.514415849 L 383 277.272759506 L 386 277.9052214 L 390 276.62639735 L 393 207.305793694 L 397 214.054370609 L 400 201.307830895 L 404 188.179033992 L 407 272.143563045 L 411 240.284163891 L 414 194.281248751 L 418 189.562110002 L 421 195.54617254 L 425 240.902725524 L 429 196.046581951 L 432 245.225706823 L 436 250.827512172 L 439 212.851997997 L 443 232.97957652 L 446 147.221913744 L 450 136.386659974 L 453 160.719067574 L 457 81.0775198198 L 460 67.1842085394 L 464 66.2876416784 L 467 113.173223418 L 471 177.260378654 L 475 177.892840548 L 478 254.594483014 L 482 210.885111007 L 485 261.593264634 L 489 158.634028363 L 492 327.841910519 L 496 328.092115225 L 499 328.724577119 L 503 288.837777 L 506 353.689446613 L 510 384.902483612 L 513 378.272058919 L 517 354.44006073 L 520 375.33215363 L 524 376.346872713 L 528 396.474451237 L 531 390.608540921 L 535 399.26840378 L 538 393.402493465 L 542 390.59464066 L 545 398.489989141 L 549 396.446650714 L 552 386.75816851 L 556 389.301916348 L 559 393.756950131 L 563 387.508782626 L 566 387.758987332 L 570 391.067249548 L 574 400.109369596 L 577 400.74183149 L 581 391.435606475 L 584 402.771269656 L 588 386.966672431 L 591 389.128163081 L 595 387.849339031 L 598 389.246315303 L 602 389.496520008 L 605 398.538640056 L 609 397.259816006 L 612 372.281046251 L 616 395.848939473 L 620 406.802345465"/>
		</g>
		<text class="x-axis-label" x="40.0" y="540">0</text>
		<path class="x-notch" d="M 57.6829268293 525 L 57.6829268293 530"/>
		<text class="x-axis-label" x="75.3658536585" y="540">10</text>
		<path class="x-notch" d="M 93.0487804878 525 L 93.0487804878 530"/>
		<text class="x-axis-label" x="110.731707317" y="540">20</text>
		<path class="x-notch" d="M 128.414634146 525 L 128.414634146 530"/>
		<text class="x-axis-label" x="146.097560976" y="540">30</text>
		<path class="x-notch" d="M 163.780487805 525 L 163.780487805 530"/>
		<text class="x-axis-label" x="181.463414634" y="540">40</text>
		<path class="x-notch" d="M 199.146341463 525 L 199.146341463 530"/>
		<text class="x-axis-label" x="216.829268293" y="540">50</text>
		<path class="x-notch" d="M 234.512195122 525 L 234.512195122 530"/>
		<text class="x-axis-label" x="252.195121951" y="540">60</text>
		<path class="x-notch" d="M 269.87804878 525 L 269.87804878 530"/>
		<text class="x-axis-label" x="287.56097561" y="540">70</text>
		<path class="x-notch" d="M 305.243902439 525 L 305.243902439 530"/>
		<text class="x-axis-label" x="322.926829268" y="540">80</text>
		<path class="x-notch" d="M 340.609756098 525 L 340.609756098 530"/>
		<text class="x-axis-label" x="358.292682927" y="540">90</text>
		<path class="x-notch" d="M 375.975609756 525 L 375.975609756 530"/>
		<text class="x-axis-label" x="393.658536585" y="540">100</text>
		<path class="x-notch" d="M 411.341463415 525 L 411.341463415 530"/>
		<text class="x-axis-label" x="429.024390244" y="540">110</text>
		<path class="x-notch" d="M 446.707317073 525 L 446.707317073 530"/>
		<text class="x-axis-label" x="464.390243902" y="540">120</text>
		<path class="x-notch" d="M 482.073170732 525 L 482.073170732 530"/>
		<text class="x-axis-label" x="499.756097561" y="540">130</text>
		<path class="x-notch" d="M 517.43902439 525 L 517.43902439 530"/>
		<text class="x-axis-label" x="535.12195122" y="540">140</text>
		<path class="x-notch" d="M 552.804878049 525 L 552.804878049 530"/>
		<text class="x-axis-label" x="570.487804878" y="540">150</text>
		<path class="x-notch" d="M 588.170731707 525 L 588.170731707 530"/>
		<text class="x-axis-label" x="605.853658537" y="540">160</text>
		<path class="x-notch" d="M 623.536585366 525 L 623.536585366 530"/>
	</g>
</svg>
