<?xml version="1.0" ?>
<svg height="600" version="1.1" width="800" xmlns="http://www.w3.org/2000/svg" xmlns:svg="http://www.w3.org/2000/svg">
	<style type="text/css">

.x-axis-path, .y-gridline, .x-notch { fill:none; stroke: #a7a9ac; stroke-width:1; }



.y-gridline { stroke-width: 1; }

.y-axis-path, .y-axis-path2, .x-notch-left, .x-notch-right { display: none;}



.x-axis-label, .data-point-label {font-size: 12px; font-weight:normal; font-family: sans-serif; fill: #58595b; text-anchor:middle;}

.y-axis-label {font-size: 12px; font-family: helvetica; fill: #a7a9ac; text-anchor:end;}



.series-1-line { fill: none; stroke: #10b80c; stroke-width:2; }



.series-2-line { fill: none; stroke: #e90f0a; stroke-width: 2;}
</style>
	<rect fill="white" height="600" width="800" x="0" y="0"/>
	<g id="grid" transform="translate(70, 30)">
		<g class="x-axis" id="x_axis">
			<path class="x-axis-path" d="M 0 525 L 660 525"/>
			<path class="x-notch-left" d="M 0 525, L 0 535"/>
			<path class="x-notch-right" d="M 660 525, L 660 535"/>
		</g>
		<g class="y-axis" id="y_axis">
			<path class="y-axis-path" d="M 0 525 L 0 0"/>
			<path class="y-axis-path-2" d="M 660 525 L 660 0"/>
			<path class="y-gridline" d="M 0 525 L 660 525"/>
			<text class="y-axis-label" x="-5" y="525">-200</text>
			<path class="y-gridline" d="M 0 394 L 660 394"/>
			<text class="y-axis-label" x="-5" y="394"> 0</text>
			<path class="y-gridline" d="M 0 263 L 660 263"/>
			<text class="y-axis-label" x="-5" y="263">200</text>
			<path class="y-gridline" d="M 0 132 L 660 132"/>
			<text class="y-axis-label" x="-5" y="132">400</text>
			<path class="y-gridline" d="M 0 1 L 660 1"/>
			<text class="y-axis-label" x="-5" y="1">600</text>
		</g>
		<g>
			<path class="series-1-line" d="M 40 386.011025176 L 45 399.21736 L 51 396.260409183 L 56 380.75749386 L 62 403.894500656 L 67 389.218190238 L 73 410.946312273 L 78 388.113856804 L 84 406.671459743 L 89 413.56402102 L 95 397.424507903 L 100 407.324845812 L 106 419.636731145 L 111 395.327546329 L 117 407.070467098 L 122 415.724451358 L 128 383.624975003 L 133 401.898095661 L 139 379.959878328 L 144 368.602880117 L 150 356.107741427 L 156 361.212037784 L 161 374.350316668 L 167 340.110248526 L 172 330.135293136 L 178 328.234900213 L 183 291.258011074 L 189 276.270165083 L 194 264.791215701 L 200 256.767056342 L 205 229.274037138 L 211 253.305282071 L 216 246.324365313 L 222 206.85455752 L 227 245.125134001 L 233 225.124186053 L 238 217.018866816 L 244 190.216763346 L 249 135.274797 L 255 156.339056594 L 260 149.385193129 L 266 142.390749725 L 272 145.449140819 L 277 137.939839438 L 283 153.963943783 L 288 118.274199587 L 294 91.5669939953 L 299 151.853455563 L 305 133.654510536 L 310 127.229243049 L 316 100.833573031 L 321 146.623274062 L 327 127.747151301 L 332 128.420836911 L 338 122.781383036 L 343 108.565612657 L 349 47.581039754 L 354 89.2658263198 L 360 80.686229045 L 365 56.1060885942 L 371 89.4449343511 L 376 92.6931212017 L 382 102.457981294 L 388 80.7907195967 L 393 97.5871109076 L 399 88.668713412 L 404 66.4595404449 L 410 59.8442658472 L 415 111.25682469 L 421 81.5012625265 L 426 38.1294399633 L 432 60.5484777323 L 437 70.0153288965 L 443 53.4962242655 L 448 8.51219453831 L 454 64.7478482264 L 459 56.41194194 L 465 19.4893707403 L 470 12.0884938841 L 476 0.0 L 481 72.3579366814 L 487 113.473758684 L 492 63.910536454 L 498 105.120833628 L 504 81.7872581812 L 509 151.476429805 L 515 147.462498387 L 520 105.879152098 L 526 117.784603978 L 531 132.68409449 L 537 40.0913420408 L 542 29.5064194419 L 548 67.1268714819 L 553 49.3884664931 L 559 238.655305545 L 564 270.951120055 L 570 357.562337639 L 575 412.293997334 L 581 413.862132435 L 586 403.629748057 L 592 399.629343285 L 597 404.015459261 L 603 404.811307396 L 608 402.640170192 L 614 392.24504335 L 620 368.951836489"/>
			<path class="series-2-line" d="M 40 376.947368965 L 45 398.528391512 L 51 406.899798466 L 56 394.135820471 L 62 391.411150326 L 67 393.970326419 L 73 404.983656491 L 78 402.258986346 L 84 392.665316093 L 89 389.412261325 L 95 393.556591289 L 100 395.058998134 L 106 391.277558742 L 111 392.251580963 L 117 394.810757056 L 122 405.295702505 L 128 405.741340102 L 133 399.317977592 L 139 401.348769061 L 144 401.266022035 L 150 393.257505653 L 156 401.100527983 L 161 392.035242353 L 167 396.707956941 L 172 407.721287013 L 178 395.485693641 L 183 394.346177368 L 189 404.302738193 L 194 402.634837296 L 200 397.796628656 L 205 400.884189373 L 211 402.914980842 L 216 400.190310697 L 222 396.408871305 L 227 402.666739764 L 233 390.959531015 L 238 398.802553345 L 244 397.134652448 L 249 395.995136175 L 255 407.536850871 L 260 400.585103736 L 266 399.973972087 L 272 397.249301942 L 277 394.524631797 L 283 388.62965391 L 288 392.773983874 L 294 396.918313838 L 299 389.43818208 L 305 385.128358064 L 310 398.783611255 L 316 395.530556487 L 321 382.766578491 L 327 401.70567792 L 332 379.430776697 L 338 394.142799135 L 343 386.662667377 L 349 380.239304866 L 354 389.667481068 L 360 389.056349418 L 365 391.087140887 L 371 383.607009129 L 376 392.506800706 L 382 394.537592175 L 388 395.511614396 L 393 392.786944252 L 399 383.193273999 L 404 386.280834715 L 410 367.704625858 L 415 384.530186792 L 421 390.259670627 L 426 376.967308008 L 432 383.225176466 L 437 390.539814173 L 443 371.435220692 L 448 362.369935063 L 454 368.627803522 L 459 350.579979289 L 465 361.593309361 L 470 362.567331583 L 476 373.580661655 L 481 358.174760541 L 487 373.943552227 L 492 378.616266815 L 498 358.98328871 L 504 372.638541901 L 509 382.066718103 L 515 369.831124731 L 520 366.049685339 L 526 363.853399818 L 531 347.91911408 L 537 347.30798243 L 542 329.788542821 L 548 355.068257734 L 553 340.719125867 L 559 365.998840781 L 564 377.012170853 L 570 404.933808885 L 575 398.510446374 L 581 401.598007091 L 586 411.554567916 L 592 397.205436049 L 597 393.423996657 L 603 393.341249631 L 608 402.769425832 L 614 396.874447945 L 620 383.582085326"/>
		</g>
		<text class="x-axis-label" x="40.0" y="540">0</text>
		<path class="x-notch" d="M 67.619047619 525 L 67.619047619 530"/>
		<text class="x-axis-label" x="95.2380952381" y="540">10</text>
		<path class="x-notch" d="M 122.857142857 525 L 122.857142857 530"/>
		<text class="x-axis-label" x="150.476190476" y="540">20</text>
		<path class="x-notch" d="M 178.095238095 525 L 178.095238095 530"/>
		<text class="x-axis-label" x="205.714285714" y="540">30</text>
		<path class="x-notch" d="M 233.333333333 525 L 233.333333333 530"/>
		<text class="x-axis-label" x="260.952380952" y="540">40</text>
		<path class="x-notch" d="M 288.571428571 525 L 288.571428571 530"/>
		<text class="x-axis-label" x="316.19047619" y="540">50</text>
		<path class="x-notch" d="M 343.80952381 525 L 343.80952381 530"/>
		<text class="x-axis-label" x="371.428571429" y="540">60</text>
		<path class="x-notch" d="M 399.047619048 525 L 399.047619048 530"/>
		<text class="x-axis-label" x="426.666666667" y="540">70</text>
		<path class="x-notch" d="M 454.285714286 525 L 454.285714286 530"/>
		<text class="x-axis-label" x="481.904761905" y="540">80</text>
		<path class="x-notch" d="M 509.523809524 525 L 509.523809524 530"/>
		<text class="x-axis-label" x="537.142857143" y="540">90</text>
		<path class="x-notch" d="M 564.761904762 525 L 564.761904762 530"/>
		<text class="x-axis-label" x="592.380952381" y="540">100</text>
		<path class="x-notch" d="M 620.0 525 L 620.0 530"/>
	</g>
</svg>
