<?xml version="1.0" ?>
<svg height="600" version="1.1" width="800" xmlns="http://www.w3.org/2000/svg" xmlns:svg="http://www.w3.org/2000/svg">
	<style type="text/css">
		

.x-axis-path, .y-gridline, .x-notch { fill:none; stroke: #a7a9ac; stroke-width:1; }



.y-gridline { stroke-width: 1; }

.y-axis-path, .y-axis-path2, .x-notch-left, .x-notch-right { display: none;}



.x-axis-label, .data-point-label {font-size: 12px; font-weight:normal; font-family: sans-serif; fill: #58595b; text-anchor:middle;}

.y-axis-label {font-size: 12px; font-family: helvetica; fill: #a7a9ac; text-anchor:end;}



.series-1-line { fill: none; stroke: #10b80c; stroke-width:2; }



.series-2-line { fill: none; stroke: #e90f0a; stroke-width: 2;}

	</style>
	<rect fill="white" height="600" width="800" x="0" y="0"/>
	<g id="grid" transform="translate(70, 30)">
		<g class="x-axis" id="x_axis">
			<path class="x-axis-path" d="M 0 525 L 660 525"/>
			<path class="x-notch-left" d="M 0 525, L 0 535"/>
			<path class="x-notch-right" d="M 660 525, L 660 535"/>
		</g>
		<g class="y-axis" id="y_axis">
			<path class="y-axis-path" d="M 0 525 L 0 0"/>
			<path class="y-axis-path-2" d="M 660 525 L 660 0"/>
			<path class="y-gridline" d="M 0 525 L 660 525"/>
			<text class="y-axis-label" x="-5" y="525">
				-250
			</text>
			<path class="y-gridline" d="M 0 438 L 660 438"/>
			<text class="y-axis-label" x="-5" y="438">
				 0
			</text>
			<path class="y-gridline" d="M 0 351 L 660 351"/>
			<text class="y-axis-label" x="-5" y="351">
				250
			</text>
			<path class="y-gridline" d="M 0 264 L 660 264"/>
			<text class="y-axis-label" x="-5" y="264">
				500
			</text>
			<path class="y-gridline" d="M 0 177 L 660 177"/>
			<text class="y-axis-label" x="-5" y="177">
				750
			</text>
			<path class="y-gridline" d="M 0 90 L 660 90"/>
			<text class="y-axis-label" x="-5" y="90">
				1000
			</text>
			<path class="y-gridline" d="M 0 3 L 660 3"/>
			<text class="y-axis-label" x="-5" y="3">
				1250
			</text>
		</g>
		<g>
			<path class="series-1-line" d="M 40 436.943668 L 43 441.95705697 L 47 440.733445939 L 50 435.920094909 L 54 432.183623879 L 57 436.560012848 L 61 435.829901818 L 64 442.019150788 L 68 440.382679758 L 71 439.042308727 L 75 442.485317697 L 78 434.252746667 L 82 438.467575636 L 85 439.164344606 L 89 441.521373576 L 93 440.091402545 L 96 420.901311515 L 100 442.454300485 L 103 438.484729455 L 107 440.195518424 L 110 434.386067394 L 114 429.348296364 L 117 429.282345333 L 121 435.677954303 L 124 422.751743273 L 128 416.834492242 L 131 421.946721212 L 135 416.531930182 L 139 410.830139152 L 142 420.905228121 L 146 406.525117091 L 149 411.439946061 L 153 413.45593503 L 156 390.559204 L 160 399.99729297 L 163 401.250561939 L 167 393.224210909 L 170 371.584119879 L 174 373.985948848 L 177 363.410757818 L 181 386.902186788 L 185 345.778855758 L 188 371.217824727 L 192 354.971373697 L 195 326.591542667 L 199 312.489751636 L 202 299.859640606 L 206 341.883289576 L 209 332.439158545 L 213 311.516707515 L 216 325.307116485 L 220 323.392605455 L 223 299.831714424 L 227 310.373423394 L 230 315.252132364 L 234 291.206841333 L 238 279.482950303 L 241 259.718159273 L 245 297.532848242 L 248 280.882497212 L 252 253.714226182 L 255 257.130215152 L 259 264.916864121 L 262 238.277933091 L 266 250.686122061 L 269 217.37045103 L 273 234.87604 L 276 214.18696897 L 280 203.360757939 L 284 191.251306909 L 287 201.766135879 L 291 193.282124848 L 294 215.804613818 L 298 186.589962788 L 301 163.468811758 L 305 152.786240727 L 308 148.188209697 L 312 173.483818667 L 315 156.590707636 L 319 140.918396606 L 322 136.975705576 L 326 153.368714545 L 330 138.808983515 L 333 110.778732485 L 337 152.111481455 L 340 151.883970424 L 344 132.397639394 L 347 138.595568364 L 351 142.801437333 L 354 88.754566303 L 358 100.229935273 L 361 79.5587842424 L 365 125.414513212 L 368 76.9770221818 L 372 163.828111152 L 375 151.009560121 L 379 145.783069091 L 383 139.695018061 L 386 155.28932703 L 390 153.482336 L 393 197.04906497 L 397 114.957533939 L 400 161.342742909 L 404 141.667691879 L 407 166.048680848 L 411 143.070889818 L 414 190.613478788 L 418 206.064147758 L 421 165.102096727 L 425 204.846825697 L 429 220.270194667 L 432 216.067523636 L 436 190.945212606 L 439 222.253261576 L 443 254.270830545 L 446 226.096379515 L 450 177.532888485 L 453 221.863317455 L 457 234.603026424 L 460 306.107455394 L 464 319.610724364 L 467 337.296493333 L 471 390.493962303 L 475 391.388271273 L 478 402.424320242 L 482 411.278469212 L 485 430.166838182 L 489 442.080687152 L 492 426.849656121 L 496 446.383705091 L 499 447.978014061 L 503 434.93476303 L 506 433.702752 L 510 438.26786097 L 513 427.917229939 L 517 446.104898909 L 520 432.792987879 L 524 445.497556848 L 528 440.765125818 L 531 437.935014788 L 535 441.494783758 L 538 441.814672727 L 542 446.316641697 L 545 440.255890667 L 549 436.528379636 L 552 439.845668606 L 556 444.141277576 L 559 449.038186545 L 563 445.947815515 L 566 433.981864485 L 570 445.797993455 L 574 439.818022424 L 577 439.662331394 L 581 440.439880364 L 584 438.471469333 L 588 444.624598303 L 591 442.009947273 L 595 443.702956242 L 598 436.017785212 L 602 441.551834182 L 605 435.571863152 L 609 440.764872121 L 612 444.521761091 L 616 435.481670061 L 620 430.80299903"/>
			<path class="series-2-line" d="M 40 445.13 L 43 431.009090909 L 47 434.388181818 L 50 438.117272727 L 54 437.646363636 L 57 441.025454545 L 61 435.654545455 L 64 442.883636364 L 68 442.412727273 L 71 436.691818182 L 75 435.520909091 L 78 440.3 L 82 441.579090909 L 85 432.008181818 L 89 422.787272727 L 93 431.066363636 L 96 452.645454545 L 100 424.524545455 L 103 446.803636364 L 107 429.182727273 L 110 438.161818182 L 114 435.940909091 L 117 436.17 L 121 438.499090909 L 124 438.378181818 L 128 436.857272727 L 131 434.636363636 L 135 422.965454545 L 139 428.794545455 L 142 430.423636364 L 146 425.052727273 L 149 426.331818182 L 153 415.710909091 L 156 414.89 L 160 434.019090909 L 163 433.198181818 L 167 419.427272727 L 170 441.006363636 L 174 424.785454545 L 177 399.114545455 L 181 368.893636364 L 185 399.572727273 L 188 379.501818182 L 192 405.980909091 L 195 427.91 L 199 433.739090909 L 202 428.368181818 L 206 414.597272727 L 209 417.276363636 L 213 408.755454545 L 216 404.084545455 L 220 419.713636364 L 223 413.292727273 L 227 410.371818182 L 230 389.950909091 L 234 404.53 L 238 380.609090909 L 241 368.938181818 L 245 356.567272727 L 248 377.796363636 L 252 401.825454545 L 255 391.204545455 L 259 394.933636364 L 262 404.612727273 L 266 383.491818182 L 269 411.020909091 L 273 386.4 L 276 382.429090909 L 280 382.308181818 L 284 391.287272727 L 287 392.566363636 L 291 381.945454545 L 294 380.074545455 L 298 382.053636364 L 301 375.282727273 L 305 380.061818182 L 308 377.490909091 L 312 379.82 L 315 356.949090909 L 319 362.078181818 L 322 380.157272727 L 326 378.986363636 L 330 360.665454545 L 333 341.644545455 L 337 340.123636364 L 340 338.252727273 L 344 351.431818182 L 347 329.960909091 L 351 332.64 L 354 318.169090909 L 358 347.098181818 L 361 340.327272727 L 365 329.356363636 L 368 354.435454545 L 372 391.064545455 L 375 387.793636364 L 379 360.372727273 L 383 330.851818182 L 386 331.430909091 L 390 330.26 L 393 266.789090909 L 397 272.968181818 L 400 261.297272727 L 404 249.276363636 L 407 326.155454545 L 411 296.984545455 L 414 254.863636364 L 418 250.542727273 L 421 256.021818182 L 425 297.550909091 L 429 256.48 L 432 301.509090909 L 436 306.638181818 L 439 271.867272727 L 443 290.296363636 L 446 211.775454545 L 450 201.854545455 L 453 224.133636364 L 457 151.212727273 L 460 138.491818182 L 464 137.670909091 L 467 180.6 L 471 239.279090909 L 475 239.858181818 L 478 310.087272727 L 482 270.066363636 L 485 316.495454545 L 489 222.224545455 L 492 377.153636364 L 496 377.382727273 L 499 377.961818182 L 503 341.440909091 L 506 400.82 L 510 429.399090909 L 513 423.328181818 L 517 401.507272727 L 520 420.636363636 L 524 421.565454545 L 528 439.994545455 L 531 434.623636364 L 535 442.552727273 L 538 437.181818182 L 542 434.610909091 L 545 441.84 L 549 439.969090909 L 552 431.098181818 L 556 433.427272727 L 559 437.506363636 L 563 431.785454545 L 566 432.014545455 L 570 435.043636364 L 574 443.322727273 L 577 443.901818182 L 581 435.380909091 L 584 445.76 L 588 431.289090909 L 591 433.268181818 L 595 432.097272727 L 598 433.376363636 L 602 433.605454545 L 605 441.884545455 L 609 440.713636364 L 612 417.842727273 L 616 439.421818182 L 620 449.450909091"/>
		</g>
		<text class="x-axis-label" x="40.0" y="540">
			0
		</text>
		<path class="x-notch" d="M 57.6829268293 525 L 57.6829268293 530"/>
		<text class="x-axis-label" x="75.3658536585" y="540">
			10
		</text>
		<path class="x-notch" d="M 93.0487804878 525 L 93.0487804878 530"/>
		<text class="x-axis-label" x="110.731707317" y="540">
			20
		</text>
		<path class="x-notch" d="M 128.414634146 525 L 128.414634146 530"/>
		<text class="x-axis-label" x="146.097560976" y="540">
			30
		</text>
		<path class="x-notch" d="M 163.780487805 525 L 163.780487805 530"/>
		<text class="x-axis-label" x="181.463414634" y="540">
			40
		</text>
		<path class="x-notch" d="M 199.146341463 525 L 199.146341463 530"/>
		<text class="x-axis-label" x="216.829268293" y="540">
			50
		</text>
		<path class="x-notch" d="M 234.512195122 525 L 234.512195122 530"/>
		<text class="x-axis-label" x="252.195121951" y="540">
			60
		</text>
		<path class="x-notch" d="M 269.87804878 525 L 269.87804878 530"/>
		<text class="x-axis-label" x="287.56097561" y="540">
			70
		</text>
		<path class="x-notch" d="M 305.243902439 525 L 305.243902439 530"/>
		<text class="x-axis-label" x="322.926829268" y="540">
			80
		</text>
		<path class="x-notch" d="M 340.609756098 525 L 340.609756098 530"/>
		<text class="x-axis-label" x="358.292682927" y="540">
			90
		</text>
		<path class="x-notch" d="M 375.975609756 525 L 375.975609756 530"/>
		<text class="x-axis-label" x="393.658536585" y="540">
			100
		</text>
		<path class="x-notch" d="M 411.341463415 525 L 411.341463415 530"/>
		<text class="x-axis-label" x="429.024390244" y="540">
			110
		</text>
		<path class="x-notch" d="M 446.707317073 525 L 446.707317073 530"/>
		<text class="x-axis-label" x="464.390243902" y="540">
			120
		</text>
		<path class="x-notch" d="M 482.073170732 525 L 482.073170732 530"/>
		<text class="x-axis-label" x="499.756097561" y="540">
			130
		</text>
		<path class="x-notch" d="M 517.43902439 525 L 517.43902439 530"/>
		<text class="x-axis-label" x="535.12195122" y="540">
			140
		</text>
		<path class="x-notch" d="M 552.804878049 525 L 552.804878049 530"/>
		<text class="x-axis-label" x="570.487804878" y="540">
			150
		</text>
		<path class="x-notch" d="M 588.170731707 525 L 588.170731707 530"/>
		<text class="x-axis-label" x="605.853658537" y="540">
			160
		</text>
		<path class="x-notch" d="M 623.536585366 525 L 623.536585366 530"/>
	</g>
</svg>
