<?xml version="1.0" ?>
<svg height="600" version="1.1" width="800" xmlns="http://www.w3.org/2000/svg" xmlns:svg="http://www.w3.org/2000/svg">
	<style type="text/css">

.x-axis-path, .y-gridline, .x-notch { fill:none; stroke: #a7a9ac; stroke-width:1; }



.y-gridline { stroke-width: 1; }

.y-axis-path, .y-axis-path2, .x-notch-left, .x-notch-right { display: none;}



.x-axis-label, .data-point-label {font-size: 12px; font-weight:normal; font-family: sans-serif; fill: #58595b; text-anchor:middle;}

.y-axis-label {font-size: 12px; font-family: helvetica; fill: #a7a9ac; text-anchor:end;}



.series-1-line { fill: none; stroke: #10b80c; stroke-width:2; }



.series-2-line { fill: none; stroke: #e90f0a; stroke-width: 2;}
</style>
	<rect fill="white" height="600" width="800" x="0" y="0"/>
	<g id="grid" transform="translate(70, 30)">
		<g class="x-axis" id="x_axis">
			<path class="x-axis-path" d="M 0 525 L 660 525"/>
			<path class="x-notch-left" d="M 0 525, L 0 535"/>
			<path class="x-notch-right" d="M 660 525, L 660 535"/>
		</g>
		<g class="y-axis" id="y_axis">
			<path class="y-axis-path" d="M 0 525 L 0 0"/>
			<path class="y-axis-path-2" d="M 660 525 L 660 0"/>
			<path class="y-gridline" d="M 0 525 L 660 525"/>
			<text class="y-axis-label" x="-5" y="525">-200</text>
			<path class="y-gridline" d="M 0 394 L 660 394"/>
			<text class="y-axis-label" x="-5" y="394"> 0</text>
			<path class="y-gridline" d="M 0 263 L 660 263"/>
			<text class="y-axis-label" x="-5" y="263">200</text>
			<path class="y-gridline" d="M 0 132 L 660 132"/>
			<text class="y-axis-label" x="-5" y="132">400</text>
			<path class="y-gridline" d="M 0 1 L 660 1"/>
			<text class="y-axis-label" x="-5" y="1">600</text>
		</g>
		<g>
			<path class="series-1-line" d="M 40 395.847020062 L 43 382.940527804 L 47 398.565674963 L 51 380.665846814 L 55 410.54630854 L 58 383.094559826 L 62 391.053863252 L 66 428.331237103 L 70 373.321433107 L 74 365.636803958 L 77 377.532141249 L 81 412.199391633 L 85 384.332932281 L 89 379.880330939 L 93 391.941487838 L 96 363.39138624 L 100 386.49684018 L 104 365.42672213 L 108 398.581232226 L 112 396.863199866 L 115 404.283347139 L 119 400.493700996 L 123 380.439187643 L 127 373.93533633 L 130 364.592511096 L 134 413.267154722 L 138 383.61870024 L 142 366.816901741 L 146 432.522479775 L 149 400.843785603 L 153 381.907665711 L 157 385.183938946 L 161 367.905691904 L 165 336.122916028 L 168 330.05381593 L 172 324.399749706 L 176 295.828961062 L 180 304.326774171 L 184 326.664867974 L 187 299.544758478 L 191 312.849724058 L 195 246.111980775 L 199 262.068443915 L 203 283.702531661 L 206 238.970311039 L 210 273.347619535 L 214 230.666002415 L 218 223.415478011 L 221 198.408679626 L 225 210.180541106 L 229 186.477996367 L 233 181.570279998 L 237 132.75560001 L 240 155.570788827 L 244 170.553667834 L 248 118.9623983 L 252 154.147471321 L 256 168.923803096 L 259 117.850679434 L 263 138.635305327 L 267 115.7625051 L 271 74.0758056302 L 275 89.5558202267 L 278 21.222265234 L 282 131.808714256 L 286 113.058777784 L 290 86.083477614 L 293 27.1576803303 L 297 60.1049967248 L 301 9.36286581016 L 305 0.0 L 309 19.3336235092 L 312 67.5932332618 L 316 86.0570311055 L 320 38.8798601556 L 324 30.6557516176 L 328 50.4461063292 L 331 43.6933639857 L 335 120.173984219 L 339 24.7594689583 L 343 15.4376540064 L 347 99.8536960491 L 350 60.2182465513 L 354 41.4068954091 L 358 7.46943432883 L 362 117.288846449 L 366 92.0745311268 L 369 148.871103218 L 373 133.332830741 L 377 75.9197737449 L 381 82.8424621917 L 384 175.753769244 L 388 168.048776284 L 392 165.149966088 L 396 187.094359534 L 400 91.3491747615 L 403 91.9519704502 L 407 112.094004955 L 411 107.517281333 L 415 156.087520021 L 419 140.093486048 L 422 79.0336906055 L 426 86.2046236124 L 430 114.531617427 L 434 153.901615343 L 438 130.014503359 L 441 153.637133466 L 445 144.046386907 L 449 165.929042449 L 453 203.746218924 L 456 196.475007473 L 460 220.803259813 L 464 172.216137338 L 468 190.680258417 L 472 237.923940237 L 475 224.893648934 L 479 209.025030181 L 483 246.219655845 L 487 244.336450347 L 491 163.550586199 L 494 238.498102333 L 498 272.915491981 L 502 198.222286313 L 506 229.034634844 L 510 129.497255828 L 513 101.982476269 L 517 151.817857155 L 521 174.735834735 L 525 181.26579253 L 529 231.783199486 L 532 141.860448646 L 536 182.640398086 L 540 200.005196576 L 544 238.692521951 L 547 207.117263013 L 551 221.623047005 L 555 245.598973081 L 559 171.630137281 L 563 197.719374469 L 566 247.244449655 L 570 391.646785578 L 574 402.091766955 L 578 375.779421984 L 582 400.625173726 L 585 383.636868572 L 589 394.869573898 L 593 406.495656347 L 597 377.821109234 L 601 389.157573029 L 604 401.757239612 L 608 395.046194597 L 612 384.999363306 L 616 400.541762278 L 620 386.682372932"/>
			<path class="series-2-line" d="M 40 407.002639274 L 43 400.307054972 L 47 386.338680824 L 51 402.269553819 L 55 370.523248938 L 58 395.343087299 L 62 442.789382958 L 66 391.648971822 L 70 397.88279169 L 74 427.551156615 L 77 396.612939495 L 81 406.079110405 L 85 400.999701624 L 89 399.152643885 L 93 373.871041089 L 96 380.912948717 L 100 397.651909473 L 104 403.88572934 L 108 397.190145038 L 112 346.857821663 L 115 352.28355377 L 119 341.547530665 L 123 378.488685435 L 127 381.490154261 L 130 354.592375943 L 134 416.584251292 L 138 405.848228187 L 142 408.041609252 L 146 365.790163483 L 149 388.185738563 L 153 376.641627697 L 157 398.229115016 L 161 411.735724729 L 165 387.262209693 L 168 353.899729291 L 172 381.951918695 L 176 392.226177366 L 180 418.662191248 L 184 365.905604592 L 187 402.038671602 L 191 434.939387569 L 195 411.273960294 L 199 377.103392132 L 203 371.21589559 L 206 413.005576924 L 210 436.209239764 L 214 410.119549208 L 218 340.393119579 L 221 361.980606898 L 225 413.467341359 L 229 325.962980996 L 233 395.227646191 L 237 380.451184283 L 240 379.412214305 L 244 371.100454481 L 248 348.243114967 L 252 339.931355144 L 256 395.458528408 L 259 386.338680824 L 263 386.915886367 L 267 390.725442953 L 271 398.575438342 L 275 375.718098828 L 278 317.304897847 L 282 364.751193505 L 286 324.115923258 L 290 337.622532971 L 293 355.977669247 L 297 350.090172706 L 301 289.252708443 L 305 328.618126496 L 309 271.821101036 L 312 272.398306579 L 316 256.813756911 L 320 301.835789287 L 324 257.968167997 L 328 287.636532922 L 331 266.395368929 L 335 276.6696276 L 339 251.388024804 L 343 252.773318108 L 347 222.643188748 L 350 225.644657573 L 354 257.73728578 L 358 254.27405252 L 362 263.74022343 L 366 254.620375846 L 369 278.632126447 L 373 241.229207242 L 377 275.74609873 L 381 264.201987865 L 384 232.455682984 L 388 296.871821615 L 392 273.20639434 L 396 218.833632162 L 400 276.785068708 L 403 242.614500546 L 407 217.33289775 L 411 234.879946266 L 415 218.487308836 L 419 189.165267237 L 422 225.298334247 L 426 174.966010873 L 430 196.553498192 L 434 134.099858408 L 438 233.263770745 L 441 169.19395544 L 445 212.599812295 L 449 199.439525908 L 453 253.350523651 L 456 186.856445064 L 460 233.494652962 L 464 183.162329587 L 468 199.093202582 L 472 137.447650559 L 475 181.661595175 L 479 259.007137975 L 483 220.79613101 L 487 227.838038638 L 491 221.142454336 L 494 250.0027315 L 498 140.680001601 L 502 223.682158726 L 506 141.026324927 L 510 160.189548964 L 513 100.160172463 L 517 201.748348081 L 521 121.516777564 L 525 202.902759168 L 529 134.79250506 L 532 198.40055593 L 536 231.301271897 L 540 134.907946169 L 544 179.121890784 L 547 185.355710652 L 551 125.32633415 L 555 163.883664442 L 559 165.268957745 L 563 189.280708346 L 566 339.354149601 L 570 437.709974177 L 574 412.428371381 L 578 417.046015727 L 582 414.390870228 L 585 414.159988011 L 589 423.626158921 L 593 403.193082688 L 597 398.113673907 L 601 422.933512269 L 604 376.641627697 L 608 380.451184283 L 612 400.42249608 L 616 399.383526102 L 620 415.314399097"/>
		</g>
		<text class="x-axis-label" x="40.0" y="540">0</text>
		<path class="x-notch" d="M 58.954248366 525 L 58.954248366 530"/>
		<text class="x-axis-label" x="77.908496732" y="540">10</text>
		<path class="x-notch" d="M 96.862745098 525 L 96.862745098 530"/>
		<text class="x-axis-label" x="115.816993464" y="540">20</text>
		<path class="x-notch" d="M 134.77124183 525 L 134.77124183 530"/>
		<text class="x-axis-label" x="153.725490196" y="540">30</text>
		<path class="x-notch" d="M 172.679738562 525 L 172.679738562 530"/>
		<text class="x-axis-label" x="191.633986928" y="540">40</text>
		<path class="x-notch" d="M 210.588235294 525 L 210.588235294 530"/>
		<text class="x-axis-label" x="229.54248366" y="540">50</text>
		<path class="x-notch" d="M 248.496732026 525 L 248.496732026 530"/>
		<text class="x-axis-label" x="267.450980392" y="540">60</text>
		<path class="x-notch" d="M 286.405228758 525 L 286.405228758 530"/>
		<text class="x-axis-label" x="305.359477124" y="540">70</text>
		<path class="x-notch" d="M 324.31372549 525 L 324.31372549 530"/>
		<text class="x-axis-label" x="343.267973856" y="540">80</text>
		<path class="x-notch" d="M 362.222222222 525 L 362.222222222 530"/>
		<text class="x-axis-label" x="381.176470588" y="540">90</text>
		<path class="x-notch" d="M 400.130718954 525 L 400.130718954 530"/>
		<text class="x-axis-label" x="419.08496732" y="540">100</text>
		<path class="x-notch" d="M 438.039215686 525 L 438.039215686 530"/>
		<text class="x-axis-label" x="456.993464052" y="540">110</text>
		<path class="x-notch" d="M 475.947712418 525 L 475.947712418 530"/>
		<text class="x-axis-label" x="494.901960784" y="540">120</text>
		<path class="x-notch" d="M 513.85620915 525 L 513.85620915 530"/>
		<text class="x-axis-label" x="532.810457516" y="540">130</text>
		<path class="x-notch" d="M 551.764705882 525 L 551.764705882 530"/>
		<text class="x-axis-label" x="570.718954248" y="540">140</text>
		<path class="x-notch" d="M 589.673202614 525 L 589.673202614 530"/>
		<text class="x-axis-label" x="608.62745098" y="540">150</text>
		<path class="x-notch" d="M 627.581699346 525 L 627.581699346 530"/>
	</g>
</svg>
