<?xml version="1.0" ?>
<svg height="600" version="1.1" width="800" xmlns="http://www.w3.org/2000/svg" xmlns:svg="http://www.w3.org/2000/svg">
	<style type="text/css">
		

.x-axis-path, .y-gridline, .x-notch { fill:none; stroke: #a7a9ac; stroke-width:1; }



.y-gridline { stroke-width: 1; }

.y-axis-path, .y-axis-path2, .x-notch-left, .x-notch-right { display: none;}



.x-axis-label, .data-point-label {font-size: 12px; font-weight:normal; font-family: sans-serif; fill: #58595b; text-anchor:middle;}

.y-axis-label {font-size: 12px; font-family: helvetica; fill: #a7a9ac; text-anchor:end;}



.series-1-line { fill: none; stroke: #10b80c; stroke-width:2; }



.series-2-line { fill: none; stroke: #e90f0a; stroke-width: 2;}

	</style>
	<rect fill="white" height="600" width="800" x="0" y="0"/>
	<g id="grid" transform="translate(70, 30)">
		<g class="x-axis" id="x_axis">
			<path class="x-axis-path" d="M 0 525 L 660 525"/>
			<path class="x-notch-left" d="M 0 525, L 0 535"/>
			<path class="x-notch-right" d="M 660 525, L 660 535"/>
		</g>
		<g class="y-axis" id="y_axis">
			<path class="y-axis-path" d="M 0 525 L 0 0"/>
			<path class="y-axis-path-2" d="M 660 525 L 660 0"/>
			<path class="y-gridline" d="M 0 525 L 660 525"/>
			<text class="y-axis-label" x="-5" y="525">
				-200
			</text>
			<path class="y-gridline" d="M 0 394 L 660 394"/>
			<text class="y-axis-label" x="-5" y="394">
				 0
			</text>
			<path class="y-gridline" d="M 0 263 L 660 263"/>
			<text class="y-axis-label" x="-5" y="263">
				200
			</text>
			<path class="y-gridline" d="M 0 132 L 660 132"/>
			<text class="y-axis-label" x="-5" y="132">
				400
			</text>
			<path class="y-gridline" d="M 0 1 L 660 1"/>
			<text class="y-axis-label" x="-5" y="1">
				600
			</text>
		</g>
		<g>
			<path class="series-1-line" d="M 40 407.98745693 L 43 415.135315619 L 47 381.350720919 L 51 399.543247257 L 54 363.345708322 L 58 387.849680161 L 62 366.084921394 L 66 398.152058081 L 69 393.651470095 L 73 382.746046326 L 77 410.73079701 L 80 400.753484406 L 84 435.930734638 L 88 395.603028624 L 92 354.625934378 L 95 353.790733931 L 99 361.031258945 L 103 285.48021393 L 106 347.110080262 L 110 398.576332991 L 114 362.517793544 L 118 437.512605436 L 121 375.327229938 L 125 397.882313122 L 129 337.413436509 L 132 370.316741992 L 136 364.283539859 L 140 332.541948051 L 144 332.12519398 L 147 257.038204547 L 151 279.407231125 L 155 340.57231792 L 158 252.213049252 L 162 271.751409174 L 166 247.294983239 L 170 274.768621222 L 173 123.991342894 L 177 138.192701642 L 181 140.280834177 L 185 196.155976915 L 188 138.936213334 L 192 115.919011264 L 196 130.305702662 L 199 84.3622725432 L 203 107.845466892 L 207 74.7109843818 L 211 171.378133109 L 214 55.1740815935 L 218 115.503723548 L 222 62.9252397451 L 225 73.4597630421 L 229 94.9933447812 L 233 81.4896441253 L 237 91.8851679343 L 240 67.7074649305 L 244 98.754548084 L 248 0.0 L 251 49.1452508621 L 255 39.8187744023 L 259 74.9960246336 L 263 113.003941521 L 266 77.1314586797 L 270 44.739754683 L 274 112.356010422 L 277 62.5611361567 L 281 110.500276878 L 285 82.2387399594 L 289 96.9497634967 L 292 170.784798411 L 296 94.0739764188 L 300 65.347659962 L 303 146.932640287 L 307 107.440379113 L 311 109.343902953 L 315 231.95255508 L 318 129.206839406 L 322 163.409645311 L 326 99.8321030651 L 330 178.075304034 L 333 123.036818875 L 337 187.451018701 L 341 103.732305856 L 344 152.367167973 L 348 210.51625546 L 352 174.504773131 L 356 168.193572022 L 359 185.364596915 L 363 208.940457589 L 367 204.48547881 L 370 272.009068223 L 374 184.577186765 L 378 209.26721521 L 382 262.961079525 L 385 207.226149016 L 389 275.724182756 L 393 250.711034913 L 396 215.858605606 L 400 288.441197218 L 404 177.110091294 L 408 266.491350193 L 411 288.256597745 L 415 225.1901682 L 419 261.202139315 L 422 315.360059212 L 426 283.850133218 L 430 297.308713452 L 434 236.5155047 L 437 283.480201094 L 441 281.856612927 L 445 300.698527498 L 448 274.479269514 L 452 257.540399221 L 456 293.228762153 L 460 374.905684848 L 463 316.757810101 L 467 329.892058197 L 471 332.815635571 L 475 296.711486916 L 478 290.26128632 L 482 318.52403598 L 486 349.43139569 L 489 329.708915858 L 493 309.986436026 L 497 374.12191292 L 501 368.599823488 L 504 361.917957079 L 508 350.966200148 L 512 388.556394616 L 515 373.706860376 L 519 366.977936847 L 523 381.597018015 L 527 350.597480765 L 530 360.06489341 L 534 359.60108222 L 538 366.145161883 L 541 364.10312734 L 545 352.409315851 L 549 386.70478808 L 553 358.396917999 L 556 363.177441658 L 560 388.469801218 L 564 386.799879888 L 567 363.921677305 L 571 380.721312941 L 575 398.774115835 L 579 409.030640156 L 582 412.69772 L 586 398.590240318 L 590 398.358818897 L 593 423.743844783 L 597 399.519808616 L 601 378.172772269 L 605 407.363633093 L 608 398.639487748 L 612 375.992950979 L 616 379.752697148 L 620 409.082557461"/>
			<path class="series-2-line" d="M 40 360.810017171 L 43 423.591268129 L 47 377.779169101 L 51 411.602193396 L 54 389.318653531 L 58 426.761456159 L 62 411.71747296 L 66 327.897701438 L 69 372.580060731 L 73 357.536077532 L 77 416.697550157 L 80 398.033788626 L 84 393.849140426 L 88 380.615046393 L 92 398.14906819 L 95 365.006193328 L 99 413.308330954 L 103 389.214901923 L 106 423.037926218 L 110 418.853278018 L 114 374.851068156 L 118 370.666419956 L 121 379.150995921 L 125 438.312468546 L 129 390.690480352 L 132 388.315721318 L 136 318.975063127 L 140 378.136535752 L 144 421.009005879 L 147 395.105687681 L 151 412.639709478 L 155 377.686945449 L 158 375.312186415 L 162 410.945099877 L 166 392.281338345 L 170 389.906579312 L 173 383.912041945 L 177 405.065842075 L 181 339.344962216 L 185 353.259205681 L 188 363.553670812 L 192 402.806362606 L 196 395.001936073 L 199 340.140391213 L 203 395.682085505 L 207 389.687548139 L 211 392.742456604 L 214 357.789692575 L 218 311.977593547 L 222 374.758844505 L 225 332.56652381 L 229 339.241210608 L 233 376.684013236 L 237 356.210362538 L 240 364.694938503 L 244 369.559736135 L 248 365.375087935 L 251 299.654208076 L 255 391.393685697 L 259 387.209037497 L 263 364.925497632 L 266 362.550738599 L 270 381.894649562 L 274 399.428671359 L 277 380.764909828 L 281 362.101148296 L 285 372.395613427 L 289 313.914290235 L 292 349.547203696 L 296 365.271336327 L 300 306.790013134 L 303 333.373480763 L 307 330.998721729 L 311 364.821746024 L 315 344.348095326 L 318 327.494222961 L 322 334.16890976 L 326 348.083153224 L 330 331.229280859 L 333 354.192970155 L 337 377.156659451 L 341 356.683008753 L 344 300.011574727 L 348 312.115929025 L 352 331.459839988 L 356 305.556521791 L 359 286.89276026 L 363 327.95534122 L 367 294.812466357 L 370 326.825601486 L 374 250.245386629 L 378 329.315640084 L 382 330.560659383 L 385 320.946343684 L 389 342.100143814 L 393 339.72538478 L 396 248.666056592 L 400 338.595645046 L 404 319.931883514 L 408 330.226348645 L 411 300.703252115 L 415 376.153727238 L 419 312.242736546 L 422 311.677866679 L 426 334.641555975 L 430 330.456907775 L 434 333.511816241 L 437 325.707389708 L 441 345.051300671 L 445 348.106209137 L 448 392.78856843 L 452 330.687466904 L 456 388.039050363 L 460 329.55772717 L 463 343.471970634 L 467 389.964219094 L 471 335.102674234 L 475 368.925698529 L 478 364.741050329 L 482 380.465182959 L 486 336.462973098 L 489 355.806884061 L 493 375.150795025 L 497 370.966146825 L 501 363.161720292 L 504 395.17485542 L 508 387.370428887 L 512 359.657221524 L 515 395.290134985 L 519 363.957149289 L 523 390.540616918 L 527 404.454860382 L 530 387.600988017 L 534 367.127337319 L 538 382.851469949 L 541 326.180035923 L 545 363.622838551 L 549 355.818412018 L 553 373.352433815 L 556 381.83700978 L 560 366.793026581 L 564 393.37649421 L 567 410.910516007 L 571 379.577530311 L 575 364.533547112 L 579 365.778566411 L 582 406.841147372 L 586 397.226831673 L 590 411.141075137 L 593 381.617978607 L 597 397.342111237 L 601 387.727795538 L 605 399.832149836 L 608 397.457390802 L 612 378.793629271 L 616 405.3770969 L 620 395.7627812"/>
		</g>
		<text class="x-axis-label" x="40.0" y="540">
			0
		</text>
		<path class="x-notch" d="M 58.5897435897 525 L 58.5897435897 530"/>
		<text class="x-axis-label" x="77.1794871795" y="540">
			10
		</text>
		<path class="x-notch" d="M 95.7692307692 525 L 95.7692307692 530"/>
		<text class="x-axis-label" x="114.358974359" y="540">
			20
		</text>
		<path class="x-notch" d="M 132.948717949 525 L 132.948717949 530"/>
		<text class="x-axis-label" x="151.538461538" y="540">
			30
		</text>
		<path class="x-notch" d="M 170.128205128 525 L 170.128205128 530"/>
		<text class="x-axis-label" x="188.717948718" y="540">
			40
		</text>
		<path class="x-notch" d="M 207.307692308 525 L 207.307692308 530"/>
		<text class="x-axis-label" x="225.897435897" y="540">
			50
		</text>
		<path class="x-notch" d="M 244.487179487 525 L 244.487179487 530"/>
		<text class="x-axis-label" x="263.076923077" y="540">
			60
		</text>
		<path class="x-notch" d="M 281.666666667 525 L 281.666666667 530"/>
		<text class="x-axis-label" x="300.256410256" y="540">
			70
		</text>
		<path class="x-notch" d="M 318.846153846 525 L 318.846153846 530"/>
		<text class="x-axis-label" x="337.435897436" y="540">
			80
		</text>
		<path class="x-notch" d="M 356.025641026 525 L 356.025641026 530"/>
		<text class="x-axis-label" x="374.615384615" y="540">
			90
		</text>
		<path class="x-notch" d="M 393.205128205 525 L 393.205128205 530"/>
		<text class="x-axis-label" x="411.794871795" y="540">
			100
		</text>
		<path class="x-notch" d="M 430.384615385 525 L 430.384615385 530"/>
		<text class="x-axis-label" x="448.974358974" y="540">
			110
		</text>
		<path class="x-notch" d="M 467.564102564 525 L 467.564102564 530"/>
		<text class="x-axis-label" x="486.153846154" y="540">
			120
		</text>
		<path class="x-notch" d="M 504.743589744 525 L 504.743589744 530"/>
		<text class="x-axis-label" x="523.333333333" y="540">
			130
		</text>
		<path class="x-notch" d="M 541.923076923 525 L 541.923076923 530"/>
		<text class="x-axis-label" x="560.512820513" y="540">
			140
		</text>
		<path class="x-notch" d="M 579.102564103 525 L 579.102564103 530"/>
		<text class="x-axis-label" x="597.692307692" y="540">
			150
		</text>
		<path class="x-notch" d="M 616.282051282 525 L 616.282051282 530"/>
	</g>
</svg>
