<?xml version="1.0" ?>
<svg height="600" version="1.1" width="800" xmlns="http://www.w3.org/2000/svg" xmlns:svg="http://www.w3.org/2000/svg">
	<style type="text/css">
		

.x-axis-path, .y-gridline, .x-notch { fill:none; stroke: #a7a9ac; stroke-width:1; }



.y-gridline { stroke-width: 1; }

.y-axis-path, .y-axis-path2, .x-notch-left, .x-notch-right { display: none;}



.x-axis-label, .data-point-label {font-size: 12px; font-weight:normal; font-family: sans-serif; fill: #58595b; text-anchor:middle;}

.y-axis-label {font-size: 12px; font-family: helvetica; fill: #a7a9ac; text-anchor:end;}



.series-1-line { fill: none; stroke: #10b80c; stroke-width:2; }



.series-2-line { fill: none; stroke: #e90f0a; stroke-width: 2;}

	</style>
	<rect fill="white" height="600" width="800" x="0" y="0"/>
	<g id="grid" transform="translate(70, 30)">
		<g class="x-axis" id="x_axis">
			<path class="x-axis-path" d="M 0 525 L 660 525"/>
			<path class="x-notch-left" d="M 0 525, L 0 535"/>
			<path class="x-notch-right" d="M 660 525, L 660 535"/>
		</g>
		<g class="y-axis" id="y_axis">
			<path class="y-axis-path" d="M 0 525 L 0 0"/>
			<path class="y-axis-path-2" d="M 660 525 L 660 0"/>
			<path class="y-gridline" d="M 0 525 L 660 525"/>
			<text class="y-axis-label" x="-5" y="525">
				-200
			</text>
			<path class="y-gridline" d="M 0 420 L 660 420"/>
			<text class="y-axis-label" x="-5" y="420">
				 0
			</text>
			<path class="y-gridline" d="M 0 315 L 660 315"/>
			<text class="y-axis-label" x="-5" y="315">
				200
			</text>
			<path class="y-gridline" d="M 0 210 L 660 210"/>
			<text class="y-axis-label" x="-5" y="210">
				400
			</text>
			<path class="y-gridline" d="M 0 105 L 660 105"/>
			<text class="y-axis-label" x="-5" y="105">
				600
			</text>
			<path class="y-gridline" d="M 0 0 L 660 0"/>
			<text class="y-axis-label" x="-5" y="0">
				800
			</text>
		</g>
		<g>
			<path class="series-1-line" d="M 40 415.842924 L 42 428.156751594 L 45 427.021969188 L 48 419.883706782 L 51 407.980124376 L 54 417.91066197 L 57 434.060979564 L 60 419.101477158 L 63 418.020664752 L 65 409.670912347 L 68 429.172829941 L 71 409.313187535 L 74 433.863295129 L 77 425.378722723 L 80 400.484750317 L 83 423.123227911 L 86 417.909615505 L 89 420.302203099 L 91 438.579190693 L 94 420.227558287 L 97 426.469865881 L 100 419.923593475 L 103 426.462421069 L 106 428.046928663 L 109 430.224056257 L 112 417.418313851 L 115 416.620371446 L 117 416.41462904 L 120 416.491546634 L 123 432.601334228 L 126 425.422541822 L 129 431.368749416 L 132 408.39942701 L 135 412.393894604 L 138 416.253542198 L 140 420.584429792 L 143 383.278617386 L 146 378.94028498 L 149 395.184682574 L 152 379.013690168 L 155 379.602167762 L 158 414.786885356 L 161 406.76011295 L 164 396.956320545 L 166 386.721608139 L 169 389.046785733 L 172 373.037073327 L 175 381.325830921 L 178 368.372038515 L 181 400.231826109 L 184 387.089663703 L 187 378.833991297 L 190 387.472608891 L 192 390.578356485 L 195 332.582084079 L 198 371.993681673 L 201 346.238289267 L 204 361.822866861 L 207 361.859464455 L 210 351.15372205 L 213 348.215459644 L 216 333.713547238 L 218 315.509964832 L 221 333.558052426 L 224 309.21575002 L 227 315.390857614 L 230 287.858235208 L 233 289.820112802 L 236 315.056500396 L 239 310.66398799 L 241 287.870225584 L 244 266.247003178 L 247 274.831860772 L 250 271.772428366 L 253 272.19941596 L 256 267.982043554 L 259 244.730271149 L 262 276.037968743 L 265 281.903536337 L 267 258.691873931 L 270 255.040451525 L 273 271.163469119 L 276 245.380986713 L 279 235.361734307 L 282 238.036771901 L 285 265.858049495 L 288 269.569857089 L 291 273.712164683 L 293 263.221882277 L 296 253.216069871 L 299 237.314297465 L 302 249.425685059 L 305 188.454762653 L 308 164.879800248 L 311 142.395157842 L 314 157.037255436 L 317 130.33938303 L 319 148.427790624 L 322 144.614458218 L 325 199.803355812 L 328 229.603463406 L 331 189.067011 L 334 226.015308594 L 337 221.999956188 L 340 249.040243782 L 342 275.636381376 L 345 268.13460897 L 348 254.184786564 L 351 297.823264158 L 354 269.685001752 L 357 249.367769347 L 360 280.904366941 L 363 240.516174535 L 366 217.035082129 L 368 204.242779723 L 371 195.246647317 L 374 226.029344911 L 377 224.288712505 L 380 177.317860099 L 383 180.423817693 L 386 138.836945287 L 389 91.1793928812 L 392 133.242870475 L 394 111.350638069 L 397 133.020175663 L 400 110.400713257 L 403 96.9626608515 L 406 151.504968446 L 409 116.70298604 L 412 113.078023634 L 415 124.354661228 L 418 58.3758688218 L 420 152.482176416 L 423 151.60317401 L 426 220.859341604 L 429 245.531039198 L 432 259.621256792 L 435 253.411824386 L 438 260.69090198 L 441 224.730979574 L 443 333.308597168 L 446 345.594914762 L 449 361.341612356 L 452 411.32061995 L 455 398.057077545 L 458 395.764775139 L 461 405.830552733 L 464 379.549740327 L 467 394.515237921 L 469 421.717225515 L 472 432.428963109 L 475 440.084780703 L 478 438.276948297 L 481 441.248295891 L 484 436.398613485 L 487 437.768081079 L 490 462.439358673 L 493 442.849146267 L 495 456.428223861 L 498 441.185851455 L 501 447.28031905 L 504 448.689896644 L 507 459.334224238 L 510 453.111141832 L 513 452.744119426 L 516 444.17869702 L 519 446.584724614 L 521 439.957812208 L 524 433.559799802 L 527 447.354127396 L 530 441.65604499 L 533 450.711722584 L 536 443.398530178 L 539 439.827537772 L 542 420.587185366 L 544 442.10846296 L 547 432.829670554 L 550 438.722118149 L 553 438.974175743 L 556 434.083753337 L 559 444.795490931 L 562 428.503328525 L 565 442.284006119 L 568 436.788153713 L 570 437.672731307 L 573 438.772768901 L 576 426.815216495 L 579 433.044084089 L 582 444.792381683 L 585 432.942349277 L 588 430.798306871 L 591 431.790614465 L 594 432.392742059 L 596 431.864019653 L 599 422.490937248 L 602 418.112284842 L 605 432.189272436 L 608 404.81772003 L 611 428.008497624 L 614 418.837645218 L 617 421.553002812 L 620 428.454920406"/>
			<path class="series-2-line" d="M 40 405.09 L 42 432.240816832 L 45 407.416633663 L 48 418.292450495 L 51 435.468267327 L 54 404.344084158 L 57 426.76990099 L 60 429.245717822 L 63 416.496534653 L 65 432.097351485 L 68 423.023168317 L 71 411.848985149 L 74 413.79980198 L 77 409.450618812 L 80 426.101435644 L 83 419.127252475 L 86 395.878069307 L 89 414.628886139 L 91 412.37970297 L 94 432.180519802 L 97 423.631336634 L 100 403.532153465 L 103 430.682970297 L 106 411.633787129 L 109 423.03460396 L 112 417.110420792 L 115 421.686237624 L 117 415.762054455 L 120 406.687871287 L 123 414.938688119 L 126 411.63950495 L 129 408.340321782 L 132 390.866138614 L 135 405.416955446 L 138 400.017772277 L 140 403.018589109 L 143 390.269405941 L 146 394.320222772 L 149 402.046039604 L 152 409.246856436 L 155 402.272673267 L 158 403.698490099 L 161 409.849306931 L 164 406.550123762 L 166 388.550940594 L 169 397.326757426 L 172 379.327574257 L 175 399.653391089 L 178 396.354207921 L 181 404.605024752 L 184 410.230841584 L 187 411.131658416 L 190 417.807475248 L 192 407.158292079 L 195 387.059108911 L 198 384.284925743 L 201 412.485742574 L 204 400.261559406 L 207 397.487376238 L 210 391.563193069 L 213 402.439009901 L 216 394.939826733 L 218 412.115643564 L 221 404.616460396 L 224 396.592277228 L 227 398.543094059 L 230 396.818910891 L 233 421.344727723 L 236 398.095544554 L 239 369.596361386 L 241 406.722178218 L 244 383.99799505 L 247 399.073811881 L 250 408.374628713 L 253 406.125445545 L 256 391.276262376 L 259 397.427079208 L 262 389.40289604 L 265 398.703712871 L 267 378.079529703 L 270 418.355346535 L 273 404.031163366 L 276 415.956980198 L 279 405.30779703 L 282 400.433613861 L 285 403.959430693 L 288 421.660247525 L 291 413.111064356 L 293 414.536881188 L 296 401.78769802 L 299 407.938514851 L 302 384.689331683 L 305 398.715148515 L 308 393.840965347 L 311 382.666782178 L 314 353.64259901 L 317 365.043415842 L 319 351.244232673 L 322 355.295049505 L 325 389.270866337 L 328 391.221683168 L 331 391.0725 L 334 404.048316832 L 337 398.649133663 L 340 380.649950495 L 342 370.525767327 L 345 376.676584158 L 348 385.45240099 L 351 378.478217822 L 354 389.354034653 L 357 388.154851485 L 360 385.380668317 L 363 403.081485149 L 366 363.03230198 L 368 355.008118812 L 371 348.558935644 L 374 340.534752475 L 377 307.835569307 L 380 328.686386139 L 383 338.51220297 L 386 297.413019802 L 389 302.513836634 L 392 295.539653465 L 394 294.340470297 L 397 315.716287129 L 400 284.59210396 L 403 315.942920792 L 406 307.393737624 L 409 293.069554455 L 412 288.195371287 L 415 251.821188119 L 418 248.52200495 L 420 292.472821782 L 423 268.698638614 L 426 298.999455446 L 429 343.475272277 L 432 318.651089109 L 435 327.951905941 L 438 341.977722772 L 441 303.503539604 L 443 362.679356436 L 446 332.605173267 L 449 377.080990099 L 452 384.281806931 L 455 367.857623762 L 458 359.833440594 L 461 389.609257426 L 464 376.860074257 L 467 379.335891089 L 469 377.086707921 L 472 387.962524752 L 475 384.138341584 L 478 361.939158416 L 481 372.289975248 L 484 394.715792079 L 487 409.266608911 L 490 412.792425743 L 493 421.043242574 L 495 435.069059406 L 498 420.219876238 L 501 434.770693069 L 504 422.546509901 L 507 423.447326733 L 510 414.373143564 L 513 433.648960396 L 516 421.424777228 L 519 438.075594059 L 521 430.576410891 L 524 428.327227723 L 527 429.228044554 L 530 420.153861386 L 533 402.679678218 L 536 420.38049505 L 539 427.581311881 L 542 422.182128713 L 544 425.707945545 L 547 422.408762376 L 550 427.509579208 L 553 432.08539604 L 556 419.861212871 L 559 430.737029703 L 562 436.362846535 L 565 418.888663366 L 568 439.739480198 L 570 427.51529703 L 573 422.641113861 L 576 427.741930693 L 579 421.292747525 L 582 434.268564356 L 585 422.569381188 L 588 432.39519802 L 591 423.846014851 L 594 435.246831683 L 596 438.772648515 L 599 429.698465347 L 602 440.049282178 L 605 437.80009901 L 608 390.400915842 L 611 420.176732673 L 614 441.027549505 L 617 429.853366337 L 620 420.779183168"/>
		</g>
		<text class="x-axis-label" x="40.0" y="540">
			0
		</text>
		<path class="x-notch" d="M 54.4278606965 525 L 54.4278606965 530"/>
		<text class="x-axis-label" x="68.855721393" y="540">
			10
		</text>
		<path class="x-notch" d="M 83.2835820896 525 L 83.2835820896 530"/>
		<text class="x-axis-label" x="97.7114427861" y="540">
			20
		</text>
		<path class="x-notch" d="M 112.139303483 525 L 112.139303483 530"/>
		<text class="x-axis-label" x="126.567164179" y="540">
			30
		</text>
		<path class="x-notch" d="M 140.995024876 525 L 140.995024876 530"/>
		<text class="x-axis-label" x="155.422885572" y="540">
			40
		</text>
		<path class="x-notch" d="M 169.850746269 525 L 169.850746269 530"/>
		<text class="x-axis-label" x="184.278606965" y="540">
			50
		</text>
		<path class="x-notch" d="M 198.706467662 525 L 198.706467662 530"/>
		<text class="x-axis-label" x="213.134328358" y="540">
			60
		</text>
		<path class="x-notch" d="M 227.562189055 525 L 227.562189055 530"/>
		<text class="x-axis-label" x="241.990049751" y="540">
			70
		</text>
		<path class="x-notch" d="M 256.417910448 525 L 256.417910448 530"/>
		<text class="x-axis-label" x="270.845771144" y="540">
			80
		</text>
		<path class="x-notch" d="M 285.273631841 525 L 285.273631841 530"/>
		<text class="x-axis-label" x="299.701492537" y="540">
			90
		</text>
		<path class="x-notch" d="M 314.129353234 525 L 314.129353234 530"/>
		<text class="x-axis-label" x="328.55721393" y="540">
			100
		</text>
		<path class="x-notch" d="M 342.985074627 525 L 342.985074627 530"/>
		<text class="x-axis-label" x="357.412935323" y="540">
			110
		</text>
		<path class="x-notch" d="M 371.84079602 525 L 371.84079602 530"/>
		<text class="x-axis-label" x="386.268656716" y="540">
			120
		</text>
		<path class="x-notch" d="M 400.696517413 525 L 400.696517413 530"/>
		<text class="x-axis-label" x="415.124378109" y="540">
			130
		</text>
		<path class="x-notch" d="M 429.552238806 525 L 429.552238806 530"/>
		<text class="x-axis-label" x="443.980099502" y="540">
			140
		</text>
		<path class="x-notch" d="M 458.407960199 525 L 458.407960199 530"/>
		<text class="x-axis-label" x="472.835820896" y="540">
			150
		</text>
		<path class="x-notch" d="M 487.263681592 525 L 487.263681592 530"/>
		<text class="x-axis-label" x="501.691542289" y="540">
			160
		</text>
		<path class="x-notch" d="M 516.119402985 525 L 516.119402985 530"/>
		<text class="x-axis-label" x="530.547263682" y="540">
			170
		</text>
		<path class="x-notch" d="M 544.975124378 525 L 544.975124378 530"/>
		<text class="x-axis-label" x="559.402985075" y="540">
			180
		</text>
		<path class="x-notch" d="M 573.830845771 525 L 573.830845771 530"/>
		<text class="x-axis-label" x="588.258706468" y="540">
			190
		</text>
		<path class="x-notch" d="M 602.686567164 525 L 602.686567164 530"/>
		<text class="x-axis-label" x="617.114427861" y="540">
			200
		</text>
		<path class="x-notch" d="M 631.542288557 525 L 631.542288557 530"/>
	</g>
</svg>
