<?xml version="1.0" ?>
<svg height="600" version="1.1" width="800" xmlns="http://www.w3.org/2000/svg" xmlns:svg="http://www.w3.org/2000/svg">
	<style type="text/css">
		

.x-axis-path, .y-gridline, .x-notch { fill:none; stroke: #a7a9ac; stroke-width:1; }



.y-gridline { stroke-width: 1; }

.y-axis-path, .y-axis-path2, .x-notch-left, .x-notch-right { display: none;}



.x-axis-label, .data-point-label {font-size: 12px; font-weight:normal; font-family: sans-serif; fill: #58595b; text-anchor:middle;}

.y-axis-label {font-size: 12px; font-family: helvetica; fill: #a7a9ac; text-anchor:end;}



.series-1-line { fill: none; stroke: #10b80c; stroke-width:2; }



.series-2-line { fill: none; stroke: #e90f0a; stroke-width: 2;}

	</style>
	<rect fill="white" height="600" width="800" x="0" y="0"/>
	<g id="grid" transform="translate(70, 30)">
		<g class="x-axis" id="x_axis">
			<path class="x-axis-path" d="M 0 525 L 660 525"/>
			<path class="x-notch-left" d="M 0 525, L 0 535"/>
			<path class="x-notch-right" d="M 660 525, L 660 535"/>
		</g>
		<g class="y-axis" id="y_axis">
			<path class="y-axis-path" d="M 0 525 L 0 0"/>
			<path class="y-axis-path-2" d="M 660 525 L 660 0"/>
			<path class="y-gridline" d="M 0 525 L 660 525"/>
			<text class="y-axis-label" x="-5" y="525">
				-200
			</text>
			<path class="y-gridline" d="M 0 394 L 660 394"/>
			<text class="y-axis-label" x="-5" y="394">
				 0
			</text>
			<path class="y-gridline" d="M 0 263 L 660 263"/>
			<text class="y-axis-label" x="-5" y="263">
				200
			</text>
			<path class="y-gridline" d="M 0 132 L 660 132"/>
			<text class="y-axis-label" x="-5" y="132">
				400
			</text>
			<path class="y-gridline" d="M 0 1 L 660 1"/>
			<text class="y-axis-label" x="-5" y="1">
				600
			</text>
		</g>
		<g>
			<path class="series-1-line" d="M 40 388.8768975 L 42 404.071194497 L 45 408.950291495 L 48 386.048750992 L 51 383.82696049 L 54 379.014032487 L 57 394.107529485 L 60 404.219826482 L 63 405.22914848 L 66 387.880007977 L 69 400.162917475 L 72 400.734651972 L 75 399.15257397 L 78 388.265395967 L 81 398.882480465 L 83 403.458914962 L 86 388.81903696 L 89 403.340021457 L 92 356.258030955 L 95 393.815227952 L 98 379.96599995 L 101 389.102846947 L 104 372.477156445 L 107 407.392553442 L 110 378.85356294 L 113 373.199322437 L 116 373.131606935 L 119 403.032466432 L 122 402.00557593 L 124 395.274297927 L 127 409.829144925 L 130 369.545116922 L 133 392.24428892 L 136 342.839960917 L 139 394.514932915 L 142 382.281129912 L 145 373.17711441 L 148 397.239711407 L 151 385.645358405 L 154 410.767405402 L 157 401.596189899 L 160 381.218324397 L 163 382.328708894 L 165 403.075668392 L 168 373.106315389 L 171 348.841612387 L 174 368.881921884 L 177 372.802106382 L 180 322.337803379 L 183 309.329625377 L 186 360.887259874 L 189 296.708906872 L 192 310.237378869 L 195 297.296925867 L 198 311.565385364 L 201 253.831932362 L 204 219.925079359 L 206 223.727401357 L 209 239.376085854 L 212 211.880532852 L 215 180.447217349 L 218 181.826401847 L 221 99.8791613442 L 224 147.599570842 L 227 194.781855339 L 230 179.637452337 L 233 127.675061834 L 236 165.097596332 L 239 104.133293329 L 242 135.649840327 L 245 101.120599824 L 247 9.14402182161 L 250 59.0857063191 L 253 133.796890817 L 256 147.779487814 L 259 84.2237848116 L 262 114.881694309 L 265 105.475278807 L 268 155.770288304 L 271 125.330010302 L 274 92.163407299 L 277 131.874416796 L 280 80.686926294 L 283 101.669348291 L 286 106.767370289 L 288 84.0676922864 L 291 122.247276784 L 294 45.8694987814 L 297 113.950983279 L 300 127.731455276 L 303 124.029164774 L 306 167.929936771 L 309 149.739483769 L 312 167.003330766 L 315 127.157152764 L 318 102.319937261 L 321 168.314546759 L 324 177.736993756 L 327 143.157615754 L 330 88.8230127513 L 332 110.495547249 L 335 127.254606746 L 338 145.646153744 L 341 115.357338241 L 344 85.4890477387 L 347 130.752719736 L 350 172.281016734 L 353 156.951288731 L 356 199.657423229 L 359 215.592232726 L 362 168.947567224 L 365 189.610526721 L 368 253.232398719 L 371 261.965258216 L 373 290.722142714 L 376 270.714402211 L 379 260.365349209 L 382 237.396083706 L 385 254.407405704 L 388 262.888002701 L 391 283.971749698 L 394 321.209221696 L 397 295.379231193 L 400 325.364353191 L 403 316.041937688 L 406 376.887609686 L 409 343.048219183 L 412 348.819291181 L 414 322.989300678 L 417 348.498535176 L 420 303.065569673 L 423 291.673079171 L 426 302.694151168 L 429 284.806623166 L 432 313.378445163 L 435 322.111304661 L 438 345.584064158 L 441 345.482748656 L 444 352.902845653 L 447 368.736592651 L 450 403.265064648 L 453 382.062686646 L 455 410.987571143 L 458 400.251593141 L 461 416.169340138 L 464 383.760312136 L 467 359.915871633 L 470 266.020943631 L 473 256.277478128 L 476 387.830412626 L 479 324.476834623 L 482 342.834256621 L 485 316.331216118 L 488 364.405475616 L 491 415.811122613 L 494 398.260382111 L 496 444.887479108 L 499 428.497513606 L 502 424.172573103 L 505 407.614607601 L 508 430.262854598 L 511 418.550901595 L 514 421.781236093 L 517 392.98998309 L 520 397.633617588 L 523 432.885539585 L 526 418.060599083 L 529 416.51212108 L 532 419.170205578 L 535 407.323327575 L 537 394.702862073 L 540 392.34667157 L 543 394.432768568 L 546 423.475515565 L 549 414.910150063 L 552 447.38560956 L 555 412.300919058 L 558 407.858116055 L 561 398.165313053 L 564 432.67698505 L 567 405.568357048 L 570 424.498029045 L 573 408.141663543 L 576 389.91787304 L 578 409.066470038 L 581 428.214804535 L 584 411.640039033 L 587 415.35836103 L 590 388.619858028 L 593 413.775505025 L 596 414.565902023 L 599 414.39712402 L 602 402.466508518 L 605 412.494805515 L 608 403.138527513 L 611 389.50796201 L 614 385.553409008 L 617 390.281306005 L 620 395.732653003"/>
			<path class="series-2-line" d="M 40 391.25625 L 42 397.006846734 L 45 373.882443467 L 48 410.476790201 L 51 394.571136935 L 54 399.009233668 L 57 420.509830402 L 60 400.010427136 L 63 417.573523869 L 66 406.917870603 L 69 380.512217337 L 72 389.54406407 L 75 401.857160804 L 78 432.545257538 L 81 410.077104271 L 83 408.608951005 L 86 410.422047739 L 89 393.203894472 L 92 414.048241206 L 95 411.92383794 L 98 392.736934673 L 101 422.112531407 L 104 400.956878141 L 107 401.457474874 L 110 396.051821608 L 113 403.771168342 L 116 410.178015075 L 119 399.522361809 L 122 401.991708543 L 124 398.554805276 L 127 401.68040201 L 130 411.368498744 L 133 423.681595477 L 136 422.869692211 L 139 419.432788945 L 142 404.183385678 L 145 386.965232412 L 148 442.590829146 L 151 429.966425879 L 154 422.592022613 L 157 415.873869347 L 160 417.03071608 L 163 444.437562814 L 165 428.531909548 L 168 415.907506281 L 171 434.783103015 L 174 426.752449749 L 177 425.284296482 L 180 436.284893216 L 183 388.22298995 L 186 428.754836683 L 189 429.255433417 L 192 438.943530151 L 195 431.569126884 L 198 402.538473618 L 201 421.414070352 L 204 408.789667085 L 206 400.102763819 L 209 411.759610553 L 212 422.760207286 L 215 408.16705402 L 218 393.573900754 L 221 427.543247487 L 224 401.137594221 L 227 407.544440955 L 230 436.920037688 L 233 400.014384422 L 236 393.296231156 L 239 404.296827889 L 242 423.172424623 L 245 430.891771357 L 247 416.95486809 L 250 402.361714824 L 253 414.018561558 L 256 404.019158291 L 259 409.769755025 L 262 383.364101759 L 265 413.395948492 L 268 394.865295226 L 271 404.55339196 L 274 378.803988693 L 277 373.398335427 L 280 420.492682161 L 283 393.430778894 L 286 387.368875628 L 288 418.056972362 L 291 395.588819095 L 294 405.276915829 L 297 427.433762563 L 300 397.746859296 L 303 408.09120603 L 306 388.904302764 L 309 381.529899497 L 312 371.530496231 L 315 415.343592965 L 318 395.500439698 L 321 384.844786432 L 324 369.595383166 L 327 410.783479899 L 330 411.284076633 L 332 404.565923367 L 335 396.535270101 L 338 415.410866834 L 341 427.067713568 L 344 424.287060302 L 347 397.225157035 L 350 389.850753769 L 353 396.913850503 L 356 384.945697236 L 359 403.16504397 L 362 406.946890704 L 365 404.166237437 L 368 379.729334171 L 371 395.323680905 L 373 409.605527638 L 376 404.199874372 L 379 402.075471106 L 382 397.982317839 L 385 376.170414573 L 388 405.546011307 L 391 413.92160804 L 394 410.484704774 L 397 391.954051508 L 400 393.767148241 L 403 410.673994975 L 406 409.862091709 L 409 412.331438442 L 412 403.644535176 L 414 385.11388191 L 417 394.145728643 L 420 413.677575377 L 423 395.146922111 L 426 386.460018844 L 429 383.023115578 L 432 400.586212312 L 435 416.180559045 L 438 384.524905779 L 441 396.181752513 L 444 386.182349246 L 447 394.55794598 L 450 404.246042714 L 453 406.059139447 L 455 394.090986181 L 458 401.154082915 L 461 396.404679648 L 464 406.092776382 L 467 384.937123116 L 470 363.125219849 L 473 343.282066583 L 476 394.313913317 L 479 419.75201005 L 482 392.690106784 L 485 376.784453518 L 488 397.628800251 L 491 385.004396985 L 494 405.848743719 L 496 422.099340452 L 499 415.381187186 L 502 420.47553392 L 505 440.007380653 L 508 409.007977387 L 511 414.758574121 L 514 418.540420854 L 517 426.916017588 L 520 414.947864322 L 523 414.135961055 L 526 419.230307789 L 529 426.293404523 L 532 416.950251256 L 535 392.51334799 L 537 412.045194724 L 540 417.139541457 L 543 420.265138191 L 546 415.515734925 L 549 416.672581658 L 552 413.891928392 L 555 405.861275126 L 558 403.736871859 L 561 401.612468593 L 564 413.925565327 L 567 415.73866206 L 570 401.801758794 L 573 389.833605528 L 576 413.302952261 L 578 416.428548995 L 581 393.960395729 L 584 416.117242462 L 587 420.555339196 L 590 415.80593593 L 593 403.181532663 L 596 403.682129397 L 599 400.245226131 L 602 414.527072864 L 605 407.152669598 L 608 403.715766332 L 611 375.997613065 L 614 400.123209799 L 617 400.623806533 L 620 390.624403266"/>
		</g>
		<text class="x-axis-label" x="40.0" y="540">
			0
		</text>
		<path class="x-notch" d="M 54.6464646465 525 L 54.6464646465 530"/>
		<text class="x-axis-label" x="69.2929292929" y="540">
			10
		</text>
		<path class="x-notch" d="M 83.9393939394 525 L 83.9393939394 530"/>
		<text class="x-axis-label" x="98.5858585859" y="540">
			20
		</text>
		<path class="x-notch" d="M 113.232323232 525 L 113.232323232 530"/>
		<text class="x-axis-label" x="127.878787879" y="540">
			30
		</text>
		<path class="x-notch" d="M 142.525252525 525 L 142.525252525 530"/>
		<text class="x-axis-label" x="157.171717172" y="540">
			40
		</text>
		<path class="x-notch" d="M 171.818181818 525 L 171.818181818 530"/>
		<text class="x-axis-label" x="186.464646465" y="540">
			50
		</text>
		<path class="x-notch" d="M 201.111111111 525 L 201.111111111 530"/>
		<text class="x-axis-label" x="215.757575758" y="540">
			60
		</text>
		<path class="x-notch" d="M 230.404040404 525 L 230.404040404 530"/>
		<text class="x-axis-label" x="245.050505051" y="540">
			70
		</text>
		<path class="x-notch" d="M 259.696969697 525 L 259.696969697 530"/>
		<text class="x-axis-label" x="274.343434343" y="540">
			80
		</text>
		<path class="x-notch" d="M 288.98989899 525 L 288.98989899 530"/>
		<text class="x-axis-label" x="303.636363636" y="540">
			90
		</text>
		<path class="x-notch" d="M 318.282828283 525 L 318.282828283 530"/>
		<text class="x-axis-label" x="332.929292929" y="540">
			100
		</text>
		<path class="x-notch" d="M 347.575757576 525 L 347.575757576 530"/>
		<text class="x-axis-label" x="362.222222222" y="540">
			110
		</text>
		<path class="x-notch" d="M 376.868686869 525 L 376.868686869 530"/>
		<text class="x-axis-label" x="391.515151515" y="540">
			120
		</text>
		<path class="x-notch" d="M 406.161616162 525 L 406.161616162 530"/>
		<text class="x-axis-label" x="420.808080808" y="540">
			130
		</text>
		<path class="x-notch" d="M 435.454545455 525 L 435.454545455 530"/>
		<text class="x-axis-label" x="450.101010101" y="540">
			140
		</text>
		<path class="x-notch" d="M 464.747474747 525 L 464.747474747 530"/>
		<text class="x-axis-label" x="479.393939394" y="540">
			150
		</text>
		<path class="x-notch" d="M 494.04040404 525 L 494.04040404 530"/>
		<text class="x-axis-label" x="508.686868687" y="540">
			160
		</text>
		<path class="x-notch" d="M 523.333333333 525 L 523.333333333 530"/>
		<text class="x-axis-label" x="537.97979798" y="540">
			170
		</text>
		<path class="x-notch" d="M 552.626262626 525 L 552.626262626 530"/>
		<text class="x-axis-label" x="567.272727273" y="540">
			180
		</text>
		<path class="x-notch" d="M 581.919191919 525 L 581.919191919 530"/>
		<text class="x-axis-label" x="596.565656566" y="540">
			190
		</text>
		<path class="x-notch" d="M 611.212121212 525 L 611.212121212 530"/>
	</g>
</svg>
