<?xml version="1.0" ?>
<svg height="600" version="1.1" width="800" xmlns="http://www.w3.org/2000/svg" xmlns:svg="http://www.w3.org/2000/svg">
	<style type="text/css">
		

.x-axis-path, .y-gridline, .x-notch { fill:none; stroke: #a7a9ac; stroke-width:1; }



.y-gridline { stroke-width: 1; }

.y-axis-path, .y-axis-path2, .x-notch-left, .x-notch-right { display: none;}



.x-axis-label, .data-point-label {font-size: 12px; font-weight:normal; font-family: sans-serif; fill: #58595b; text-anchor:middle;}

.y-axis-label {font-size: 12px; font-family: helvetica; fill: #a7a9ac; text-anchor:end;}



.series-1-line { fill: none; stroke: #10b80c; stroke-width:2; }



.series-2-line { fill: none; stroke: #e90f0a; stroke-width: 2;}

	</style>
	<rect fill="white" height="600" width="800" x="0" y="0"/>
	<g id="grid" transform="translate(70, 30)">
		<g class="x-axis" id="x_axis">
			<path class="x-axis-path" d="M 0 525 L 660 525"/>
			<path class="x-notch-left" d="M 0 525, L 0 535"/>
			<path class="x-notch-right" d="M 660 525, L 660 535"/>
		</g>
		<g class="y-axis" id="y_axis">
			<path class="y-axis-path" d="M 0 525 L 0 0"/>
			<path class="y-axis-path-2" d="M 660 525 L 660 0"/>
			<path class="y-gridline" d="M 0 525 L 660 525"/>
			<text class="y-axis-label" x="-5" y="525">
				-200
			</text>
			<path class="y-gridline" d="M 0 420 L 660 420"/>
			<text class="y-axis-label" x="-5" y="420">
				 0
			</text>
			<path class="y-gridline" d="M 0 315 L 660 315"/>
			<text class="y-axis-label" x="-5" y="315">
				200
			</text>
			<path class="y-gridline" d="M 0 210 L 660 210"/>
			<text class="y-axis-label" x="-5" y="210">
				400
			</text>
			<path class="y-gridline" d="M 0 105 L 660 105"/>
			<text class="y-axis-label" x="-5" y="105">
				600
			</text>
			<path class="y-gridline" d="M 0 0 L 660 0"/>
			<text class="y-axis-label" x="-5" y="0">
				800
			</text>
		</g>
		<g>
			<path class="series-1-line" d="M 40 424.164888 L 44 425.09953614 L 49 417.095744279 L 53 415.068762419 L 58 417.955150558 L 62 406.935968698 L 67 406.551186837 L 71 396.608884977 L 76 402.389703116 L 80 419.693431256 L 85 382.828079395 L 89 410.416557535 L 94 414.352945674 L 98 426.446993814 L 103 413.529831953 L 107 383.354870093 L 112 401.654418233 L 117 422.215876372 L 121 424.456514512 L 126 408.725772651 L 130 407.748580791 L 135 396.29868893 L 139 402.61773707 L 144 403.404335209 L 148 403.032993349 L 153 404.788951488 L 157 375.932999628 L 162 392.806227767 L 166 396.971095907 L 171 396.034644047 L 175 382.053832186 L 180 388.494260326 L 185 391.259478465 L 189 360.667246605 L 194 363.190124744 L 198 342.505482884 L 203 320.676761023 L 207 288.347619163 L 212 344.353507302 L 216 330.358835442 L 221 301.462983581 L 225 290.928061721 L 230 287.56841986 L 234 274.449238 L 239 302.29328614 L 243 251.710314279 L 248 232.533472419 L 252 244.277660558 L 257 202.485498698 L 262 211.671886837 L 266 225.865934977 L 271 162.360193116 L 275 140.894561256 L 280 160.029279395 L 284 169.579177535 L 289 142.338545674 L 293 140.648193814 L 298 97.4828419535 L 302 87.648060093 L 307 72.5634882326 L 311 117.799736372 L 316 78.7531145116 L 320 74.6939626512 L 325 68.9510307907 L 330 73.8032289302 L 334 54.2086970698 L 339 89.1736352093 L 343 83.2427533488 L 348 87.5027514884 L 352 106.219989628 L 357 104.744677767 L 361 102.475145907 L 366 101.525464047 L 370 158.849942186 L 375 228.088350326 L 379 334.562488465 L 384 339.401036605 L 388 290.163534744 L 393 176.256952884 L 397 158.910681023 L 402 195.600769163 L 407 268.459787302 L 411 218.133225442 L 416 226.699903581 L 420 227.069021721 L 425 149.18646986 L 429 387.987698 L 434 416.73348614 L 438 415.770154279 L 443 412.800692419 L 447 403.033530558 L 452 409.002718698 L 456 412.508186837 L 461 406.483014977 L 465 416.396843116 L 470 417.896811256 L 475 409.246639395 L 479 405.483167535 L 484 416.406255674 L 488 428.419453814 L 493 428.142611953 L 497 408.952120093 L 502 414.759818233 L 506 407.644326372 L 511 403.275214512 L 515 425.168912651 L 520 431.797920791 L 524 412.00178893 L 529 420.13817707 L 533 395.859385209 L 538 409.946123349 L 542 415.201521488 L 547 425.290069628 L 552 428.741777767 L 556 428.182275907 L 561 420.716714047 L 565 417.976572186 L 570 420.391720326 L 574 409.359098465 L 579 406.255236605 L 583 410.097544744 L 588 415.191662884 L 592 396.391561023 L 597 418.016669163 L 601 418.102917302 L 606 416.358595442 L 610 419.460443581 L 615 422.831721721 L 620 424.17019986"/>
			<path class="series-2-line" d="M 40 409.08 L 44 417.215465116 L 49 427.450930233 L 53 426.661395349 L 58 416.946860465 L 62 426.657325581 L 67 415.367790698 L 71 420.878255814 L 76 430.58872093 L 80 424.024186047 L 85 432.159651163 L 89 438.720116279 L 94 429.005581395 L 98 416.141046512 L 103 435.301511628 L 107 443.961976744 L 112 404.84744186 L 117 401.957906977 L 121 431.618372093 L 126 439.228837209 L 130 417.964302326 L 135 433.449767442 L 139 420.585232558 L 144 431.345697674 L 148 417.956162791 L 153 441.316627907 L 157 428.452093023 L 162 448.13755814 L 166 402.723023256 L 171 416.108488372 L 175 416.893953488 L 180 426.079418605 L 185 414.789883721 L 189 427.125348837 L 194 412.685813953 L 198 415.04627907 L 203 432.106744186 L 207 408.217209302 L 212 424.752674419 L 216 386.688139535 L 221 421.073604651 L 225 396.134069767 L 230 398.494534884 L 234 408.205 L 239 395.340465116 L 243 373.025930233 L 248 385.886395349 L 252 386.671860465 L 257 405.832325581 L 262 396.117790698 L 266 383.253255814 L 271 390.86372093 L 275 371.699186047 L 280 386.659651163 L 284 381.670116279 L 289 362.505581395 L 293 370.641046512 L 298 378.776511628 L 302 367.486976744 L 307 376.67244186 L 311 353.307906977 L 316 312.618372093 L 320 362.753837209 L 325 306.839302326 L 330 338.599767442 L 334 314.185232558 L 339 275.595697674 L 343 269.556162791 L 348 311.816627907 L 352 309.977093023 L 357 284.51255814 L 361 260.098023256 L 366 296.058488372 L 370 250.118953488 L 375 249.854418605 L 379 358.264883721 L 384 371.650348837 L 388 282.660813953 L 393 208.37127907 L 397 201.806744186 L 402 365.342209302 L 407 312.052674419 L 411 352.213139535 L 416 295.773604651 L 420 289.734069767 L 425 308.369534884 L 429 433.055 L 434 402.340465116 L 438 419.925930233 L 443 402.336395349 L 447 421.496860465 L 452 422.282325581 L 456 397.867790698 L 461 386.053255814 L 465 426.73872093 L 470 428.574186047 L 475 416.759651163 L 479 420.695116279 L 484 426.730581395 L 488 405.991046512 L 493 418.851511628 L 497 413.336976744 L 502 418.84744186 L 506 413.332906977 L 511 429.868372093 L 515 382.878837209 L 520 403.614302326 L 524 410.699767442 L 529 400.985232558 L 533 411.220697674 L 538 435.631162791 L 542 404.391627907 L 547 417.777093023 L 552 401.76255814 L 556 417.773023256 L 561 405.433488372 L 565 434.043953488 L 570 415.929418605 L 574 427.739883721 L 579 431.150348837 L 583 436.135813953 L 588 430.09627907 L 592 425.106744186 L 597 440.592209302 L 601 417.227674419 L 606 413.288139535 L 610 410.923604651 L 615 427.984069767 L 620 434.544534884"/>
		</g>
		<text class="x-axis-label" x="40.0" y="540">
			0
		</text>
		<path class="x-notch" d="M 62.65625 525 L 62.65625 530"/>
		<text class="x-axis-label" x="85.3125" y="540">
			10
		</text>
		<path class="x-notch" d="M 107.96875 525 L 107.96875 530"/>
		<text class="x-axis-label" x="130.625" y="540">
			20
		</text>
		<path class="x-notch" d="M 153.28125 525 L 153.28125 530"/>
		<text class="x-axis-label" x="175.9375" y="540">
			30
		</text>
		<path class="x-notch" d="M 198.59375 525 L 198.59375 530"/>
		<text class="x-axis-label" x="221.25" y="540">
			40
		</text>
		<path class="x-notch" d="M 243.90625 525 L 243.90625 530"/>
		<text class="x-axis-label" x="266.5625" y="540">
			50
		</text>
		<path class="x-notch" d="M 289.21875 525 L 289.21875 530"/>
		<text class="x-axis-label" x="311.875" y="540">
			60
		</text>
		<path class="x-notch" d="M 334.53125 525 L 334.53125 530"/>
		<text class="x-axis-label" x="357.1875" y="540">
			70
		</text>
		<path class="x-notch" d="M 379.84375 525 L 379.84375 530"/>
		<text class="x-axis-label" x="402.5" y="540">
			80
		</text>
		<path class="x-notch" d="M 425.15625 525 L 425.15625 530"/>
		<text class="x-axis-label" x="447.8125" y="540">
			90
		</text>
		<path class="x-notch" d="M 470.46875 525 L 470.46875 530"/>
		<text class="x-axis-label" x="493.125" y="540">
			100
		</text>
		<path class="x-notch" d="M 515.78125 525 L 515.78125 530"/>
		<text class="x-axis-label" x="538.4375" y="540">
			110
		</text>
		<path class="x-notch" d="M 561.09375 525 L 561.09375 530"/>
		<text class="x-axis-label" x="583.75" y="540">
			120
		</text>
		<path class="x-notch" d="M 606.40625 525 L 606.40625 530"/>
	</g>
</svg>
