<?xml version="1.0" ?>
<svg height="600" version="1.1" width="800" xmlns="http://www.w3.org/2000/svg" xmlns:svg="http://www.w3.org/2000/svg">
	<style type="text/css">
		

.x-axis-path, .y-gridline, .x-notch { fill:none; stroke: #a7a9ac; stroke-width:1; }



.y-gridline { stroke-width: 1; }

.y-axis-path, .y-axis-path2, .x-notch-left, .x-notch-right { display: none;}



.x-axis-label, .data-point-label {font-size: 12px; font-weight:normal; font-family: sans-serif; fill: #58595b; text-anchor:middle;}

.y-axis-label {font-size: 12px; font-family: helvetica; fill: #a7a9ac; text-anchor:end;}



.series-1-line { fill: none; stroke: #10b80c; stroke-width:2; }



.series-2-line { fill: none; stroke: #e90f0a; stroke-width: 2;}

	</style>
	<rect fill="white" height="600" width="800" x="0" y="0"/>
	<g id="grid" transform="translate(70, 30)">
		<g class="x-axis" id="x_axis">
			<path class="x-axis-path" d="M 0 525 L 660 525"/>
			<path class="x-notch-left" d="M 0 525, L 0 535"/>
			<path class="x-notch-right" d="M 660 525, L 660 535"/>
		</g>
		<g class="y-axis" id="y_axis">
			<path class="y-axis-path" d="M 0 525 L 0 0"/>
			<path class="y-axis-path-2" d="M 660 525 L 660 0"/>
			<path class="y-gridline" d="M 0 525 L 660 525"/>
			<text class="y-axis-label" x="-5" y="525">
				-100
			</text>
			<path class="y-gridline" d="M 0 420 L 660 420"/>
			<text class="y-axis-label" x="-5" y="420">
				 0
			</text>
			<path class="y-gridline" d="M 0 315 L 660 315"/>
			<text class="y-axis-label" x="-5" y="315">
				100
			</text>
			<path class="y-gridline" d="M 0 210 L 660 210"/>
			<text class="y-axis-label" x="-5" y="210">
				200
			</text>
			<path class="y-gridline" d="M 0 105 L 660 105"/>
			<text class="y-axis-label" x="-5" y="105">
				300
			</text>
			<path class="y-gridline" d="M 0 0 L 660 0"/>
			<text class="y-axis-label" x="-5" y="0">
				400
			</text>
		</g>
		<g>
			<path class="series-1-line" d="M 40 418.217604 L 44 439.753823535 L 49 392.98628307 L 53 435.091582605 L 58 411.77390214 L 62 419.767641674 L 67 410.504001209 L 71 424.474760744 L 76 395.314880279 L 80 422.989399814 L 85 425.867959349 L 89 440.484678884 L 94 433.617138419 L 98 466.272437953 L 103 464.089577488 L 107 426.717857023 L 112 417.238756558 L 117 432.797956093 L 121 404.499495628 L 126 426.116355163 L 130 421.967894698 L 135 411.465674233 L 139 418.867213767 L 144 385.830313302 L 148 387.550932837 L 153 356.587152372 L 157 384.073511907 L 162 358.144271442 L 166 380.838010977 L 171 319.774090512 L 175 370.683430047 L 180 398.788869581 L 185 291.767289116 L 189 273.618968651 L 194 288.666608186 L 198 251.402827721 L 203 234.465787256 L 207 249.728886791 L 212 226.626666326 L 216 227.53962586 L 221 256.614005395 L 225 128.16192493 L 230 117.552184465 L 234 103.469044 L 239 148.374483535 L 243 193.95276307 L 248 189.185222605 L 252 145.24428214 L 257 133.665181674 L 262 149.789701209 L 266 140.283720744 L 271 188.635260279 L 275 153.525239814 L 280 160.495859349 L 284 227.666758884 L 289 167.895178419 L 293 185.231397953 L 298 178.471377488 L 302 124.515117023 L 307 168.801476558 L 311 205.656776093 L 316 183.766255628 L 320 187.102195163 L 325 201.476994698 L 330 149.001654233 L 334 253.353053767 L 339 197.620193302 L 343 231.998332837 L 348 251.407672372 L 352 223.567011907 L 357 265.537911442 L 361 267.258530977 L 366 220.598510512 L 370 249.242390047 L 375 201.020809581 L 379 255.295609116 L 384 254.324028651 L 388 174.683088186 L 393 269.423207721 L 397 256.336307256 L 402 236.141746791 L 407 212.877826326 L 411 302.26000586 L 416 311.034945395 L 420 299.56336493 L 425 262.326464465 L 429 272.904884 L 434 283.187203535 L 438 356.65810307 L 443 314.198082605 L 447 279.06118214 L 452 192.689321674 L 456 312.279581209 L 461 287.669560744 L 465 338.255500279 L 470 331.280439814 L 475 308.285739349 L 479 315.418058884 L 484 286.796618419 L 488 298.748017953 L 493 351.057217488 L 497 381.182017023 L 502 321.356676558 L 506 315.862116093 L 511 318.067415628 L 515 355.892075163 L 520 351.985954698 L 524 372.552814233 L 529 360.166053767 L 533 352.113693302 L 538 351.088352837 L 542 312.020672372 L 547 367.291291907 L 552 343.408291442 L 556 373.586850977 L 561 393.103710512 L 565 394.366950047 L 570 404.433809581 L 574 405.427829116 L 579 425.725468651 L 583 419.530768186 L 588 419.636067721 L 592 438.856827256 L 597 396.073826791 L 601 404.417846326 L 606 453.79208586 L 610 406.216885395 L 615 424.68374493 L 620 414.154644465"/>
			<path class="series-2-line" d="M 40 411.39 L 44 416.631860465 L 49 430.27372093 L 53 420.815581395 L 58 420.80744186 L 62 409.249302326 L 67 428.141162791 L 71 426.033023256 L 76 436.524883721 L 80 426.016744186 L 85 434.408604651 L 89 413.400465116 L 94 427.042325581 L 98 417.584186047 L 103 437.526046512 L 107 418.617906977 L 112 430.159767442 L 117 425.951627907 L 121 424.893488372 L 126 417.535348837 L 130 416.477209302 L 135 423.819069767 L 139 422.760930233 L 144 423.802790698 L 148 408.044651163 L 153 413.286511628 L 157 432.178372093 L 162 430.070232558 L 166 418.512093023 L 171 410.103953488 L 175 419.545813953 L 180 423.737674419 L 185 418.479534884 L 189 431.071395349 L 194 424.763255814 L 198 430.005116279 L 203 417.396976744 L 207 418.438837209 L 212 425.780697674 L 216 413.17255814 L 221 389.014418605 L 225 410.00627907 L 230 434.148139535 L 234 426.79 L 239 430.981860465 L 243 412.07372093 L 248 425.715581395 L 252 407.85744186 L 257 419.399302326 L 262 408.891162791 L 266 424.633023256 L 271 423.574883721 L 275 420.416744186 L 280 404.658604651 L 284 416.200465116 L 289 410.942325581 L 293 416.184186047 L 298 413.026046512 L 302 401.467906977 L 307 420.359767442 L 311 410.901627907 L 316 433.993488372 L 320 411.935348837 L 325 428.727209302 L 330 431.869069767 L 334 417.160930233 L 339 437.102790698 L 343 404.544651163 L 348 413.986511628 L 352 423.428372093 L 357 434.970232558 L 361 419.212093023 L 366 416.053953488 L 370 418.145813953 L 375 412.887674419 L 379 429.679534884 L 384 424.421395349 L 388 406.563255814 L 393 417.055116279 L 397 418.096976744 L 402 422.288837209 L 407 413.880697674 L 411 400.22255814 L 416 430.664418605 L 420 425.40627907 L 425 426.448139535 L 429 421.19 L 434 421.181860465 L 438 432.72372093 L 443 429.565581395 L 447 430.60744186 L 452 398.049302326 L 456 422.191162791 L 461 419.033023256 L 465 396.974883721 L 470 427.416744186 L 475 417.958604651 L 479 417.950465116 L 484 426.342325581 L 488 411.634186047 L 493 407.426046512 L 497 424.217906977 L 502 427.359767442 L 506 431.551627907 L 511 422.093488372 L 515 425.235348837 L 520 427.327209302 L 524 419.969069767 L 529 434.660930233 L 533 428.352790698 L 538 431.494651163 L 542 431.486511628 L 547 415.728372093 L 552 422.020232558 L 556 430.412093023 L 561 423.053953488 L 565 437.745813953 L 570 430.387674419 L 574 446.129534884 L 579 439.821395349 L 583 430.363255814 L 588 420.905116279 L 592 418.796976744 L 597 425.088837209 L 601 440.830697674 L 606 403.02255814 L 610 419.814418605 L 615 412.45627907 L 620 423.998139535"/>
		</g>
		<text class="x-axis-label" x="40.0" y="540">
			0
		</text>
		<path class="x-notch" d="M 62.65625 525 L 62.65625 530"/>
		<text class="x-axis-label" x="85.3125" y="540">
			10
		</text>
		<path class="x-notch" d="M 107.96875 525 L 107.96875 530"/>
		<text class="x-axis-label" x="130.625" y="540">
			20
		</text>
		<path class="x-notch" d="M 153.28125 525 L 153.28125 530"/>
		<text class="x-axis-label" x="175.9375" y="540">
			30
		</text>
		<path class="x-notch" d="M 198.59375 525 L 198.59375 530"/>
		<text class="x-axis-label" x="221.25" y="540">
			40
		</text>
		<path class="x-notch" d="M 243.90625 525 L 243.90625 530"/>
		<text class="x-axis-label" x="266.5625" y="540">
			50
		</text>
		<path class="x-notch" d="M 289.21875 525 L 289.21875 530"/>
		<text class="x-axis-label" x="311.875" y="540">
			60
		</text>
		<path class="x-notch" d="M 334.53125 525 L 334.53125 530"/>
		<text class="x-axis-label" x="357.1875" y="540">
			70
		</text>
		<path class="x-notch" d="M 379.84375 525 L 379.84375 530"/>
		<text class="x-axis-label" x="402.5" y="540">
			80
		</text>
		<path class="x-notch" d="M 425.15625 525 L 425.15625 530"/>
		<text class="x-axis-label" x="447.8125" y="540">
			90
		</text>
		<path class="x-notch" d="M 470.46875 525 L 470.46875 530"/>
		<text class="x-axis-label" x="493.125" y="540">
			100
		</text>
		<path class="x-notch" d="M 515.78125 525 L 515.78125 530"/>
		<text class="x-axis-label" x="538.4375" y="540">
			110
		</text>
		<path class="x-notch" d="M 561.09375 525 L 561.09375 530"/>
		<text class="x-axis-label" x="583.75" y="540">
			120
		</text>
		<path class="x-notch" d="M 606.40625 525 L 606.40625 530"/>
	</g>
</svg>
