<?xml version="1.0" ?>
<svg height="600" version="1.1" width="800" xmlns="http://www.w3.org/2000/svg" xmlns:svg="http://www.w3.org/2000/svg">
	<style type="text/css">
		

.x-axis-path, .y-gridline, .x-notch { fill:none; stroke: #a7a9ac; stroke-width:1; }



.y-gridline { stroke-width: 1; }

.y-axis-path, .y-axis-path2, .x-notch-left, .x-notch-right { display: none;}



.x-axis-label, .data-point-label {font-size: 12px; font-weight:normal; font-family: sans-serif; fill: #58595b; text-anchor:middle;}

.y-axis-label {font-size: 12px; font-family: helvetica; fill: #a7a9ac; text-anchor:end;}



.series-1-line { fill: none; stroke: #10b80c; stroke-width:2; }



.series-2-line { fill: none; stroke: #e90f0a; stroke-width: 2;}

	</style>
	<rect fill="white" height="600" width="800" x="0" y="0"/>
	<g id="grid" transform="translate(70, 30)">
		<g class="x-axis" id="x_axis">
			<path class="x-axis-path" d="M 0 525 L 660 525"/>
			<path class="x-notch-left" d="M 0 525, L 0 535"/>
			<path class="x-notch-right" d="M 660 525, L 660 535"/>
		</g>
		<g class="y-axis" id="y_axis">
			<path class="y-axis-path" d="M 0 525 L 0 0"/>
			<path class="y-axis-path-2" d="M 660 525 L 660 0"/>
			<path class="y-gridline" d="M 0 525 L 660 525"/>
			<text class="y-axis-label" x="-5" y="525">
				-100
			</text>
			<path class="y-gridline" d="M 0 438 L 660 438"/>
			<text class="y-axis-label" x="-5" y="438">
				 0
			</text>
			<path class="y-gridline" d="M 0 351 L 660 351"/>
			<text class="y-axis-label" x="-5" y="351">
				100
			</text>
			<path class="y-gridline" d="M 0 264 L 660 264"/>
			<text class="y-axis-label" x="-5" y="264">
				200
			</text>
			<path class="y-gridline" d="M 0 177 L 660 177"/>
			<text class="y-axis-label" x="-5" y="177">
				300
			</text>
			<path class="y-gridline" d="M 0 90 L 660 90"/>
			<text class="y-axis-label" x="-5" y="90">
				400
			</text>
			<path class="y-gridline" d="M 0 3 L 660 3"/>
			<text class="y-axis-label" x="-5" y="3">
				500
			</text>
		</g>
		<g>
			<path class="series-1-line" d="M 40 428.13085 L 44 444.716215034 L 48 461.234730069 L 52 434.115245103 L 56 416.890610138 L 60 410.726325172 L 64 420.804840207 L 68 374.211005241 L 72 414.062970276 L 76 446.80223531 L 80 426.032100345 L 84 442.528565379 L 88 460.504830414 L 92 449.674345448 L 96 448.602560483 L 100 425.679225517 L 104 430.553240552 L 108 418.892555586 L 112 444.406770621 L 116 424.534735655 L 120 408.56625069 L 124 437.154865724 L 128 407.746730759 L 132 415.246445793 L 136 440.626610828 L 140 463.381775862 L 144 414.971090897 L 148 444.031155931 L 152 456.107120966 L 156 457.705136 L 160 434.131151034 L 164 426.957116069 L 168 410.360731103 L 172 427.843146138 L 176 387.217511172 L 180 403.444126207 L 185 365.353541241 L 189 378.887606276 L 193 312.34832131 L 197 307.754486345 L 201 262.551901379 L 205 231.348966414 L 209 242.909031448 L 213 260.055446483 L 217 177.408111517 L 221 189.595726552 L 225 179.841841586 L 229 206.927906621 L 233 156.317821655 L 237 121.23338669 L 241 152.312601724 L 245 173.206116759 L 249 163.003881793 L 253 154.977246828 L 257 83.9950618621 L 261 96.6324268966 L 265 139.152791931 L 269 115.982006966 L 273 91.532672 L 277 108.521587034 L 281 36.687152069 L 285 89.9556671034 L 289 79.2368321379 L 293 105.604347172 L 297 43.4855622069 L 301 49.7053272414 L 305 37.9998422759 L 309 80.2062573103 L 313 94.0336223448 L 317 73.8913873793 L 321 112.666752414 L 325 92.3449674483 L 330 44.9877824828 L 334 101.869347517 L 338 107.191712552 L 342 141.120627586 L 346 105.093992621 L 350 84.5930076552 L 354 82.1086226897 L 358 137.373537724 L 362 118.869652759 L 366 122.353117793 L 370 150.313832828 L 374 146.258297862 L 378 137.109912897 L 382 51.612177931 L 386 99.0689429655 L 390 123.866358 L 394 69.1952230345 L 398 106.623088069 L 402 144.747803103 L 406 92.7247681379 L 410 88.9387331724 L 414 96.2361482069 L 418 70.9111132414 L 422 144.820528276 L 426 85.6406933103 L 430 105.366608345 L 434 138.824073379 L 438 186.282588414 L 442 192.098803448 L 446 300.133568483 L 450 322.575483517 L 454 315.671298552 L 458 293.352413586 L 462 330.601778621 L 466 276.065393655 L 470 356.07740869 L 475 322.631323724 L 479 327.909588759 L 483 407.877503793 L 487 397.898918828 L 491 457.831083862 L 495 431.384998897 L 499 415.483363931 L 503 423.700928966 L 507 426.555794 L 511 428.198959034 L 515 410.817174069 L 519 436.937589103 L 523 447.600954138 L 527 436.499919172 L 531 443.573334207 L 535 448.110999241 L 539 445.917464276 L 543 445.85577931 L 547 429.528194345 L 551 430.027209379 L 555 449.215524414 L 559 420.279189448 L 563 444.066504483 L 567 440.123319517 L 571 433.218784552 L 575 439.371699586 L 579 429.325914621 L 583 409.969429655 L 587 438.62559469 L 591 453.573309724 L 595 444.694074759 L 599 447.504489793 L 603 456.529154828 L 607 433.537919862 L 611 463.428184897 L 615 405.571699931 L 620 432.051564966"/>
			<path class="series-2-line" d="M 40 445.375 L 44 412.862413793 L 48 424.974827586 L 52 419.587241379 L 56 474.574655172 L 60 476.187068966 L 64 400.799482759 L 68 396.286896552 L 72 419.774310345 L 76 392.511724138 L 80 386.249137931 L 84 435.986551724 L 88 391.223965517 L 92 438.33637931 L 96 396.198793103 L 100 452.936206897 L 104 438.79862069 L 108 478.911034483 L 112 384.273448276 L 116 442.760862069 L 120 472.373275862 L 124 444.235689655 L 128 420.473103448 L 132 474.585517241 L 136 435.072931034 L 140 395.560344828 L 144 435.672758621 L 148 436.410172414 L 152 424.897586207 L 156 375.76 L 160 431.622413793 L 164 420.109827586 L 168 479.472241379 L 172 409.334655172 L 176 429.322068966 L 180 418.684482759 L 185 418.546896552 L 189 384.284310345 L 193 385.896724138 L 197 381.384137931 L 201 398.746551724 L 205 381.983965517 L 209 382.72137931 L 213 365.083793103 L 217 456.821206897 L 221 393.68362069 L 225 409.296034483 L 229 445.033448276 L 233 418.645862069 L 237 393.133275862 L 241 385.995689655 L 245 398.108103448 L 249 449.595517241 L 253 434.582931034 L 257 378.445344828 L 261 415.932758621 L 265 295.920172414 L 269 288.782586207 L 273 310.52 L 277 249.132413793 L 281 223.619827586 L 285 235.732241379 L 289 231.219655172 L 293 208.332068966 L 297 271.194482759 L 301 217.681896552 L 305 264.794310345 L 309 159.656724138 L 313 284.644137931 L 317 248.631551724 L 321 303.618965517 L 325 261.48137931 L 330 205.343793103 L 334 302.331206897 L 338 252.31862069 L 342 278.431034483 L 346 263.418448276 L 350 249.280862069 L 354 291.143275862 L 358 264.755689655 L 362 280.368103448 L 366 312.605517241 L 370 314.217931034 L 374 293.955344828 L 378 283.317758621 L 382 273.555172414 L 386 202.542586207 L 390 219.905 L 394 178.642413793 L 398 102.379827586 L 402 156.492241379 L 406 179.979655172 L 410 185.967068966 L 414 203.329482759 L 418 156.816896552 L 422 156.679310345 L 426 204.666724138 L 430 125.779137931 L 434 123.016551724 L 438 222.628965517 L 442 197.99137931 L 446 231.978793103 L 450 275.591206897 L 454 324.45362069 L 458 252.566034483 L 462 272.553448276 L 466 244.415862069 L 470 247.778275862 L 475 273.890689655 L 479 299.128103448 L 483 377.740517241 L 487 360.102931034 L 491 390.590344828 L 495 416.702758621 L 499 401.690172414 L 503 446.177586207 L 507 439.915 L 511 417.902413793 L 515 463.264827586 L 519 410.627241379 L 523 483.114655172 L 527 401.602068966 L 531 453.964482759 L 535 458.201896552 L 539 420.439310345 L 543 425.551724138 L 547 442.914137931 L 551 428.776551724 L 555 433.888965517 L 559 473.12637931 L 563 443.238793103 L 567 439.601206897 L 571 454.33862069 L 575 445.451034483 L 579 438.313448276 L 583 450.425862069 L 587 445.913275862 L 591 430.025689655 L 595 411.513103448 L 599 446.375517241 L 603 433.112931034 L 607 432.100344828 L 611 439.837758621 L 615 451.950172414 L 620 445.687586207"/>
		</g>
		<text class="x-axis-label" x="40.0" y="540">
			0
		</text>
		<path class="x-notch" d="M 60.1388888889 525 L 60.1388888889 530"/>
		<text class="x-axis-label" x="80.2777777778" y="540">
			10
		</text>
		<path class="x-notch" d="M 100.416666667 525 L 100.416666667 530"/>
		<text class="x-axis-label" x="120.555555556" y="540">
			20
		</text>
		<path class="x-notch" d="M 140.694444444 525 L 140.694444444 530"/>
		<text class="x-axis-label" x="160.833333333" y="540">
			30
		</text>
		<path class="x-notch" d="M 180.972222222 525 L 180.972222222 530"/>
		<text class="x-axis-label" x="201.111111111" y="540">
			40
		</text>
		<path class="x-notch" d="M 221.25 525 L 221.25 530"/>
		<text class="x-axis-label" x="241.388888889" y="540">
			50
		</text>
		<path class="x-notch" d="M 261.527777778 525 L 261.527777778 530"/>
		<text class="x-axis-label" x="281.666666667" y="540">
			60
		</text>
		<path class="x-notch" d="M 301.805555556 525 L 301.805555556 530"/>
		<text class="x-axis-label" x="321.944444444" y="540">
			70
		</text>
		<path class="x-notch" d="M 342.083333333 525 L 342.083333333 530"/>
		<text class="x-axis-label" x="362.222222222" y="540">
			80
		</text>
		<path class="x-notch" d="M 382.361111111 525 L 382.361111111 530"/>
		<text class="x-axis-label" x="402.5" y="540">
			90
		</text>
		<path class="x-notch" d="M 422.638888889 525 L 422.638888889 530"/>
		<text class="x-axis-label" x="442.777777778" y="540">
			100
		</text>
		<path class="x-notch" d="M 462.916666667 525 L 462.916666667 530"/>
		<text class="x-axis-label" x="483.055555556" y="540">
			110
		</text>
		<path class="x-notch" d="M 503.194444444 525 L 503.194444444 530"/>
		<text class="x-axis-label" x="523.333333333" y="540">
			120
		</text>
		<path class="x-notch" d="M 543.472222222 525 L 543.472222222 530"/>
		<text class="x-axis-label" x="563.611111111" y="540">
			130
		</text>
		<path class="x-notch" d="M 583.75 525 L 583.75 530"/>
		<text class="x-axis-label" x="603.888888889" y="540">
			140
		</text>
		<path class="x-notch" d="M 624.027777778 525 L 624.027777778 530"/>
	</g>
</svg>
