<?xml version="1.0" ?>
<svg height="600" version="1.1" width="800" xmlns="http://www.w3.org/2000/svg" xmlns:svg="http://www.w3.org/2000/svg">
	<style type="text/css">
		

.x-axis-path, .y-gridline, .x-notch { fill:none; stroke: #a7a9ac; stroke-width:1; }



.y-gridline { stroke-width: 1; }

.y-axis-path, .y-axis-path2, .x-notch-left, .x-notch-right { display: none;}



.x-axis-label, .data-point-label {font-size: 12px; font-weight:normal; font-family: sans-serif; fill: #58595b; text-anchor:middle;}

.y-axis-label {font-size: 12px; font-family: helvetica; fill: #a7a9ac; text-anchor:end;}



.series-1-line { fill: none; stroke: #10b80c; stroke-width:2; }



.series-2-line { fill: none; stroke: #e90f0a; stroke-width: 2;}

	</style>
	<rect fill="white" height="600" width="800" x="0" y="0"/>
	<g id="grid" transform="translate(70, 30)">
		<g class="x-axis" id="x_axis">
			<path class="x-axis-path" d="M 0 525 L 660 525"/>
			<path class="x-notch-left" d="M 0 525, L 0 535"/>
			<path class="x-notch-right" d="M 660 525, L 660 535"/>
		</g>
		<g class="y-axis" id="y_axis">
			<path class="y-axis-path" d="M 0 525 L 0 0"/>
			<path class="y-axis-path-2" d="M 660 525 L 660 0"/>
			<path class="y-gridline" d="M 0 525 L 660 525"/>
			<text class="y-axis-label" x="-5" y="525">
				-100
			</text>
			<path class="y-gridline" d="M 0 394 L 660 394"/>
			<text class="y-axis-label" x="-5" y="394">
				 0
			</text>
			<path class="y-gridline" d="M 0 263 L 660 263"/>
			<text class="y-axis-label" x="-5" y="263">
				100
			</text>
			<path class="y-gridline" d="M 0 132 L 660 132"/>
			<text class="y-axis-label" x="-5" y="132">
				200
			</text>
			<path class="y-gridline" d="M 0 1 L 660 1"/>
			<text class="y-axis-label" x="-5" y="1">
				300
			</text>
		</g>
		<g>
			<path class="series-1-line" d="M 40 381.62775 L 45 418.260146942 L 51 356.185718883 L 57 423.376265825 L 62 381.729587767 L 68 381.073334709 L 74 394.08073165 L 79 418.530503592 L 85 347.975225534 L 91 310.198847476 L 96 386.071844417 L 102 368.488016359 L 108 392.735663301 L 113 369.565310243 L 119 411.548507184 L 125 406.517429126 L 130 414.476426068 L 136 393.15722301 L 142 398.323219951 L 148 379.594891893 L 153 411.112213835 L 159 330.225460777 L 165 291.338182718 L 170 362.73502966 L 176 329.165476602 L 182 260.831473544 L 187 220.733020485 L 193 235.658767427 L 199 222.550564369 L 204 233.034286311 L 210 183.176083252 L 216 167.577805194 L 221 160.224127136 L 227 193.827799078 L 233 142.792021019 L 239 169.765467961 L 244 152.013114903 L 250 141.934161845 L 256 109.306983786 L 261 133.319430728 L 267 127.71610267 L 273 121.305324612 L 278 91.1010215534 L 284 99.9687934951 L 290 61.7214904369 L 295 15.6327873786 L 301 127.44780932 L 307 237.344481262 L 312 92.7510782039 L 318 119.118675146 L 324 150.938922087 L 330 131.436219029 L 335 134.247065971 L 341 180.032837913 L 347 134.885984854 L 352 148.566956796 L 358 56.1701037379 L 364 146.74992568 L 369 92.3147726214 L 375 140.019419563 L 381 150.098891505 L 386 174.212138447 L 392 171.200210388 L 398 206.45290733 L 403 306.859154272 L 409 282.645626214 L 415 298.278023155 L 420 331.578770097 L 426 383.085992039 L 432 377.886913981 L 438 396.211510922 L 443 395.858182864 L 449 357.307954806 L 455 378.392476748 L 460 402.437998689 L 466 362.238745631 L 472 393.015292573 L 477 375.094939515 L 483 407.217586456 L 489 392.359558398 L 494 398.16500534 L 500 406.662652282 L 506 404.559499223 L 511 395.826646165 L 517 395.877043107 L 523 394.346140049 L 529 391.83926199 L 534 394.481058932 L 540 395.070105874 L 546 394.885302816 L 551 379.051299757 L 557 380.852046699 L 563 388.340118641 L 568 389.736615583 L 574 355.326012524 L 580 392.631459466 L 585 395.576181408 L 591 385.22790335 L 597 373.600725291 L 602 388.324347233 L 608 397.124919175 L 614 408.045966117 L 620 413.009838058"/>
			<path class="series-2-line" d="M 40 380.625 L 45 382.77342233 L 51 375.73434466 L 57 422.50776699 L 62 402.34368932 L 68 386.11711165 L 74 388.265533981 L 79 396.976456311 L 85 382.062378641 L 91 372.398300971 L 96 395.546723301 L 102 409.507645631 L 108 398.531067961 L 113 413.804490291 L 119 400.202912621 L 125 401.038834951 L 130 371.687257282 L 136 405.335679612 L 142 402.234101942 L 148 389.945024272 L 153 422.280946602 L 159 432.304368932 L 165 391.140291262 L 170 395.913713592 L 176 395.437135922 L 182 392.335558252 L 187 386.608980583 L 193 396.632402913 L 199 377.780825243 L 204 415.366747573 L 210 396.515169903 L 216 407.851092233 L 221 361.437014563 L 227 375.397936893 L 233 386.733859223 L 239 360.007281553 L 244 349.030703883 L 250 369.554126214 L 256 375.640048544 L 261 401.413470874 L 267 389.124393204 L 273 400.460315534 L 278 386.858737864 L 284 369.319660194 L 290 381.968082524 L 295 389.366504854 L 301 384.952427184 L 307 372.663349515 L 312 390.561771845 L 318 355.960194175 L 324 392.233616505 L 330 347.132038835 L 335 404.405461165 L 341 360.616383495 L 347 323.389805825 L 352 374.100728155 L 358 336.874150485 L 364 369.210072816 L 369 347.733495146 L 375 363.006917476 L 381 361.217839806 L 386 371.241262136 L 392 364.202184466 L 398 376.850606796 L 403 360.624029126 L 409 385.084951456 L 415 387.233373786 L 420 397.256796117 L 426 382.342718447 L 432 409.428640777 L 438 401.077063107 L 443 388.787985437 L 449 397.498907767 L 455 419.334830097 L 460 388.670752427 L 466 398.694174757 L 472 392.967597087 L 477 408.241019417 L 483 397.264441748 L 489 395.475364078 L 494 394.998786408 L 500 384.022208738 L 506 388.795631068 L 511 404.069053398 L 517 379.967475728 L 523 397.865898058 L 529 414.451820388 L 534 395.600242718 L 540 389.873665049 L 546 402.522087379 L 551 399.420509709 L 557 409.443932039 L 563 402.404854369 L 568 373.053276699 L 574 401.451699029 L 580 400.975121359 L 585 386.061043689 L 591 397.396966019 L 597 403.48288835 L 602 393.81881068 L 608 386.77973301 L 614 407.30315534 L 620 384.51407767"/>
		</g>
		<text class="x-axis-label" x="40.0" y="540">
			0
		</text>
		<path class="x-notch" d="M 68.431372549 525 L 68.431372549 530"/>
		<text class="x-axis-label" x="96.862745098" y="540">
			10
		</text>
		<path class="x-notch" d="M 125.294117647 525 L 125.294117647 530"/>
		<text class="x-axis-label" x="153.725490196" y="540">
			20
		</text>
		<path class="x-notch" d="M 182.156862745 525 L 182.156862745 530"/>
		<text class="x-axis-label" x="210.588235294" y="540">
			30
		</text>
		<path class="x-notch" d="M 239.019607843 525 L 239.019607843 530"/>
		<text class="x-axis-label" x="267.450980392" y="540">
			40
		</text>
		<path class="x-notch" d="M 295.882352941 525 L 295.882352941 530"/>
		<text class="x-axis-label" x="324.31372549" y="540">
			50
		</text>
		<path class="x-notch" d="M 352.745098039 525 L 352.745098039 530"/>
		<text class="x-axis-label" x="381.176470588" y="540">
			60
		</text>
		<path class="x-notch" d="M 409.607843137 525 L 409.607843137 530"/>
		<text class="x-axis-label" x="438.039215686" y="540">
			70
		</text>
		<path class="x-notch" d="M 466.470588235 525 L 466.470588235 530"/>
		<text class="x-axis-label" x="494.901960784" y="540">
			80
		</text>
		<path class="x-notch" d="M 523.333333333 525 L 523.333333333 530"/>
		<text class="x-axis-label" x="551.764705882" y="540">
			90
		</text>
		<path class="x-notch" d="M 580.196078431 525 L 580.196078431 530"/>
		<text class="x-axis-label" x="608.62745098" y="540">
			100
		</text>
		<path class="x-notch" d="M 637.058823529 525 L 637.058823529 530"/>
	</g>
</svg>
