<?xml version="1.0" ?>
<svg height="600" version="1.1" width="800" xmlns="http://www.w3.org/2000/svg" xmlns:svg="http://www.w3.org/2000/svg">
	<style type="text/css">

.x-axis-path, .y-gridline, .x-notch { fill:none; stroke: #a7a9ac; stroke-width:1; }



.y-gridline { stroke-width: 1; }

.y-axis-path, .y-axis-path2, .x-notch-left, .x-notch-right { display: none;}



.x-axis-label, .data-point-label {font-size: 12px; font-weight:normal; font-family: sans-serif; fill: #58595b; text-anchor:middle;}

.y-axis-label {font-size: 12px; font-family: helvetica; fill: #a7a9ac; text-anchor:end;}



.series-1-line { fill: none; stroke: #10b80c; stroke-width:2; }



.series-2-line { fill: none; stroke: #e90f0a; stroke-width: 2;}
</style>
	<rect fill="white" height="600" width="800" x="0" y="0"/>
	<g id="grid" transform="translate(70, 30)">
		<g class="x-axis" id="x_axis">
			<path class="x-axis-path" d="M 0 525 L 660 525"/>
			<path class="x-notch-left" d="M 0 525, L 0 535"/>
			<path class="x-notch-right" d="M 660 525, L 660 535"/>
		</g>
		<g class="y-axis" id="y_axis">
			<path class="y-axis-path" d="M 0 525 L 0 0"/>
			<path class="y-axis-path-2" d="M 660 525 L 660 0"/>
			<path class="y-gridline" d="M 0 525 L 660 525"/>
			<text class="y-axis-label" x="-5" y="525">-200</text>
			<path class="y-gridline" d="M 0 420 L 660 420"/>
			<text class="y-axis-label" x="-5" y="420"> 0</text>
			<path class="y-gridline" d="M 0 315 L 660 315"/>
			<text class="y-axis-label" x="-5" y="315">200</text>
			<path class="y-gridline" d="M 0 210 L 660 210"/>
			<text class="y-axis-label" x="-5" y="210">400</text>
			<path class="y-gridline" d="M 0 105 L 660 105"/>
			<text class="y-axis-label" x="-5" y="105">600</text>
			<path class="y-gridline" d="M 0 0 L 660 0"/>
			<text class="y-axis-label" x="-5" y="0">800</text>
		</g>
		<g>
			<path class="series-1-line" d="M 40 421.791256531 L 44 406.1120163 L 49 463.065078743 L 54 368.644850357 L 58 434.760941022 L 63 495.700316465 L 68 486.078075323 L 72 480.959818703 L 77 492.045246046 L 82 452.655680982 L 86 489.884731592 L 91 451.116210835 L 96 455.989579913 L 100 437.152624157 L 105 472.466047855 L 110 489.608474287 L 114 485.059575582 L 119 493.504958922 L 124 475.289047473 L 128 495.485816645 L 133 464.120563974 L 138 492.393331931 L 142 460.56209413 L 147 468.489805948 L 152 419.885526271 L 156 514.785284205 L 161 433.462710649 L 166 449.41473486 L 170 411.578184363 L 175 387.356960217 L 180 344.86136602 L 185 390.839146114 L 189 336.69553887 L 194 267.590336276 L 199 338.573023809 L 203 325.378768404 L 208 294.686246432 L 213 244.11465345 L 217 189.401688292 L 222 224.197440468 L 227 251.952536903 L 231 211.579315187 L 236 150.34336581 L 241 237.839855658 L 245 267.87319135 L 250 138.146311476 L 255 167.299363301 L 259 197.02177304 L 264 142.308807882 L 269 220.745642293 L 273 195.851687448 L 278 172.04476204 L 283 214.502214264 L 287 131.523253357 L 292 189.563345236 L 297 183.513118357 L 301 217.118468312 L 306 148.945235978 L 311 105.0 L 315 175.568388794 L 320 142.235822819 L 325 182.467529778 L 330 155.86469359 L 334 189.470043545 L 339 245.646194905 L 344 264.238263119 L 348 219.82704201 L 353 226.046680085 L 358 236.148450776 L 362 244.800579685 L 367 304.756298476 L 372 251.648034276 L 376 273.76043036 L 381 260.721234132 L 386 277.708601387 L 390 272.124359638 L 395 337.360166435 L 400 269.601232839 L 404 223.481937987 L 409 212.358368671 L 414 134.141824248 L 418 127.988224585 L 423 115.208267918 L 428 101.548027383 L 432 230.770780154 L 437 196.868856265 L 442 197.444986389 L 446 392.518625653 L 451 342.516390586 L 456 402.678854946 L 460 430.848250118 L 465 371.579614045 L 470 421.492020747 L 475 397.219110209 L 479 378.122914892 L 484 425.912949114 L 489 411.735037057 L 493 411.690122874 L 498 425.778206566 L 503 409.99559355 L 507 387.793369101 L 512 422.382375708 L 517 388.687197388 L 521 410.74790708 L 526 413.291350507 L 531 424.273405066 L 535 422.830535494 L 540 354.19131803 L 545 403.482680425 L 549 431.23777686 L 554 418.043521456 L 559 388.542209305 L 563 426.59904979 L 568 428.469762519 L 573 417.863864725 L 577 407.620579277 L 582 414.461261658 L 587 404.942393301 L 591 375.544453934 L 596 378.087897362 L 601 443.634630112 L 605 461.812399588 L 610 384.527825425 L 615 407.209579423 L 620 411.254351025"/>
			<path class="series-2-line" d="M 40 424.037999393 L 44 420.077529588 L 49 424.193058569 L 54 420.232588765 L 58 412.234119568 L 63 424.425647334 L 68 420.46517753 L 72 422.561706815 L 77 416.582237314 L 82 410.602767814 L 86 420.775295883 L 91 396.624829116 L 96 414.873355971 L 100 431.10288313 L 105 425.123413629 L 110 419.143944129 L 114 411.145474932 L 119 423.337002698 L 124 421.39553259 L 128 411.378063697 L 133 413.474592982 L 138 403.457124089 L 142 399.496654284 L 147 413.707181747 L 152 427.917709209 L 156 417.900240316 L 161 417.977769904 L 166 440.264296152 L 170 428.227827562 L 175 418.210358669 L 180 424.344887346 L 185 408.270419365 L 189 420.461947131 L 194 404.387479149 L 199 424.6550057 L 203 426.751534984 L 208 402.601068217 L 213 408.735596895 L 217 431.022123142 L 222 427.061653338 L 227 419.063184141 L 231 409.045715248 L 236 425.275242406 L 241 389.010777462 L 245 419.373302494 L 250 411.374833298 L 255 421.547361367 L 259 421.624890956 L 264 443.911417203 L 269 403.608952866 L 273 419.838480024 L 278 423.954009005 L 283 405.860541327 L 287 428.147067574 L 292 420.148598378 L 297 410.131129485 L 301 434.436655428 L 306 430.476185624 L 311 426.51571582 L 315 432.650244497 L 320 426.670774996 L 325 440.881302459 L 330 408.654836907 L 334 432.96036285 L 339 400.733897298 L 344 404.849426279 L 348 394.831957386 L 353 439.327480292 L 358 429.310011399 L 362 409.197544025 L 367 417.351072398 L 372 425.504600772 L 376 431.639129449 L 381 409.507662378 L 386 427.756189233 L 390 423.795719429 L 395 395.60725327 L 400 405.779781339 L 404 426.04730789 L 409 420.06783839 L 414 408.031369801 L 418 414.165898478 L 423 430.395425636 L 428 426.434955832 L 432 416.417486939 L 437 420.53301592 L 442 400.420548545 L 446 432.802073274 L 451 428.84160347 L 456 404.691136703 L 460 410.82566538 L 465 435.131191324 L 470 435.208720912 L 475 433.267250804 L 479 411.135783734 L 484 427.365310892 L 489 425.423840784 L 493 423.482370676 L 498 421.540900568 L 503 433.732428334 L 507 423.714959441 L 512 452.058484777 L 517 423.870018618 L 521 438.08054608 L 526 426.044077491 L 531 436.21660556 L 535 416.104138186 L 540 406.086669293 L 545 424.335196148 L 549 416.336726951 L 554 418.433256236 L 559 444.757781876 L 563 404.455317538 L 568 418.665845001 L 573 410.667375804 L 577 424.877903266 L 582 451.202428906 L 587 431.089961532 L 591 441.262489601 L 596 429.226021012 L 601 431.322550297 L 605 421.305081404 L 610 421.382610992 L 615 417.422141188 L 620 407.404672295"/>
		</g>
		<text class="x-axis-label" x="40.0" y="540">0</text>
		<path class="x-notch" d="M 63.3870967742 525 L 63.3870967742 530"/>
		<text class="x-axis-label" x="86.7741935484" y="540">10</text>
		<path class="x-notch" d="M 110.161290323 525 L 110.161290323 530"/>
		<text class="x-axis-label" x="133.548387097" y="540">20</text>
		<path class="x-notch" d="M 156.935483871 525 L 156.935483871 530"/>
		<text class="x-axis-label" x="180.322580645" y="540">30</text>
		<path class="x-notch" d="M 203.709677419 525 L 203.709677419 530"/>
		<text class="x-axis-label" x="227.096774194" y="540">40</text>
		<path class="x-notch" d="M 250.483870968 525 L 250.483870968 530"/>
		<text class="x-axis-label" x="273.870967742" y="540">50</text>
		<path class="x-notch" d="M 297.258064516 525 L 297.258064516 530"/>
		<text class="x-axis-label" x="320.64516129" y="540">60</text>
		<path class="x-notch" d="M 344.032258065 525 L 344.032258065 530"/>
		<text class="x-axis-label" x="367.419354839" y="540">70</text>
		<path class="x-notch" d="M 390.806451613 525 L 390.806451613 530"/>
		<text class="x-axis-label" x="414.193548387" y="540">80</text>
		<path class="x-notch" d="M 437.580645161 525 L 437.580645161 530"/>
		<text class="x-axis-label" x="460.967741935" y="540">90</text>
		<path class="x-notch" d="M 484.35483871 525 L 484.35483871 530"/>
		<text class="x-axis-label" x="507.741935484" y="540">100</text>
		<path class="x-notch" d="M 531.129032258 525 L 531.129032258 530"/>
		<text class="x-axis-label" x="554.516129032" y="540">110</text>
		<path class="x-notch" d="M 577.903225806 525 L 577.903225806 530"/>
		<text class="x-axis-label" x="601.290322581" y="540">120</text>
		<path class="x-notch" d="M 624.677419355 525 L 624.677419355 530"/>
	</g>
</svg>
