<?xml version="1.0" ?>
<svg height="600" version="1.1" width="800" xmlns="http://www.w3.org/2000/svg" xmlns:svg="http://www.w3.org/2000/svg">
	<style type="text/css">

.x-axis-path, .y-gridline, .x-notch { fill:none; stroke: #a7a9ac; stroke-width:1; }



.y-gridline { stroke-width: 1; }

.y-axis-path, .y-axis-path2, .x-notch-left, .x-notch-right { display: none;}



.x-axis-label, .data-point-label {font-size: 12px; font-weight:normal; font-family: sans-serif; fill: #58595b; text-anchor:middle;}

.y-axis-label {font-size: 12px; font-family: helvetica; fill: #a7a9ac; text-anchor:end;}



.series-1-line { fill: none; stroke: #10b80c; stroke-width:2; }



.series-2-line { fill: none; stroke: #e90f0a; stroke-width: 2;}
</style>
	<rect fill="white" height="600" width="800" x="0" y="0"/>
	<g id="grid" transform="translate(70, 30)">
		<g class="x-axis" id="x_axis">
			<path class="x-axis-path" d="M 0 525 L 660 525"/>
			<path class="x-notch-left" d="M 0 525, L 0 535"/>
			<path class="x-notch-right" d="M 660 525, L 660 535"/>
		</g>
		<g class="y-axis" id="y_axis">
			<path class="y-axis-path" d="M 0 525 L 0 0"/>
			<path class="y-axis-path-2" d="M 660 525 L 660 0"/>
			<path class="y-gridline" d="M 0 525 L 660 525"/>
			<text class="y-axis-label" x="-5" y="525">-200</text>
			<path class="y-gridline" d="M 0 394 L 660 394"/>
			<text class="y-axis-label" x="-5" y="394"> 0</text>
			<path class="y-gridline" d="M 0 263 L 660 263"/>
			<text class="y-axis-label" x="-5" y="263">200</text>
			<path class="y-gridline" d="M 0 132 L 660 132"/>
			<text class="y-axis-label" x="-5" y="132">400</text>
			<path class="y-gridline" d="M 0 1 L 660 1"/>
			<text class="y-axis-label" x="-5" y="1">600</text>
		</g>
		<g>
			<path class="series-1-line" d="M 40 384.336392446 L 45 386.502076489 L 50 388.562771914 L 55 408.521073856 L 61 399.35093999 L 66 392.788789006 L 71 379.580530432 L 76 389.02323804 L 82 365.530688181 L 87 387.949660851 L 92 381.808120516 L 98 345.591606368 L 103 353.036249346 L 108 357.389305621 L 113 361.784357344 L 119 371.248062676 L 124 352.866161874 L 129 351.477653118 L 134 350.089144361 L 140 349.100248531 L 145 340.161417714 L 150 332.673726447 L 156 310.485332073 L 161 342.263055744 L 166 313.681182641 L 171 328.949446176 L 177 318.117867434 L 182 318.874407374 L 187 292.52157386 L 192 282.636533126 L 198 315.613095576 L 203 295.88537193 L 208 292.625112973 L 214 303.602951027 L 219 269.405499233 L 224 227.4894155 L 229 289.468427416 L 235 273.505201894 L 240 252.809942518 L 245 209.211416186 L 250 230.410552354 L 256 267.404241789 L 261 233.143796825 L 266 250.389127267 L 272 218.357721892 L 277 241.786225739 L 282 237.306130281 L 287 203.087680763 L 293 181.214580332 L 298 189.710749934 L 303 206.808768222 L 308 168.257897777 L 314 208.742786841 L 319 193.200171969 L 324 172.736215641 L 330 192.715515306 L 335 150.547130801 L 340 69.9965481051 L 345 31.6979784316 L 351 128.92560639 L 356 53.2753674255 L 361 61.0353043459 L 366 50.8136438557 L 372 101.288527985 L 377 39.4557753813 L 382 50.791230914 L 388 0.0 L 393 52.2836411591 L 398 120.487821927 L 403 41.1570757331 L 409 81.2003564237 L 414 128.667644745 L 419 114.996780073 L 424 184.126501124 L 430 190.750920526 L 435 269.092408514 L 440 304.887259171 L 446 355.551450902 L 451 370.588411388 L 456 386.235290125 L 461 383.017026616 L 467 388.358616345 L 472 381.12322585 L 477 402.049063522 L 482 388.546508728 L 488 372.162672557 L 493 386.190101865 L 498 370.479177116 L 504 386.946279429 L 509 401.331326217 L 514 385.431093866 L 519 389.763152418 L 525 389.215864961 L 530 388.941876 L 535 386.501840619 L 540 345.511297169 L 546 354.575389576 L 551 369.570354615 L 556 385.469534124 L 562 397.982830712 L 567 396.089392322 L 572 393.418053893 L 577 393.880297614 L 583 389.000589229 L 588 386.602549295 L 593 391.79682687 L 598 405.361650082 L 604 390.870561835 L 609 387.694293772 L 614 391.437431797 L 620 395.601180471"/>
			<path class="series-2-line" d="M 40 397.194939019 L 45 388.15474512 L 50 395.519022739 L 55 393.860841024 L 61 393.84310646 L 66 402.847831232 L 71 392.987413756 L 76 400.351691376 L 82 395.412615357 L 87 393.754433641 L 92 401.118711261 L 98 397.820082393 L 103 396.982124253 L 108 398.604836841 L 113 393.665760822 L 119 397.749144138 L 124 395.270738846 L 129 396.893451434 L 134 398.516164022 L 140 401.779323762 L 145 397.660471319 L 150 391.080948147 L 156 406.647461527 L 161 384.483690412 L 166 405.791768823 L 171 400.032469228 L 177 403.295628968 L 182 390.154317189 L 187 383.574794017 L 192 399.141307396 L 198 381.898877738 L 203 397.465391117 L 208 403.189221585 L 214 394.969251262 L 219 396.59196385 L 224 386.731546375 L 229 387.534035387 L 235 391.617418703 L 240 398.161472746 L 245 394.862843879 L 250 391.564215011 L 256 387.445362568 L 261 398.910758067 L 266 404.634588535 L 272 388.212382452 L 277 389.014871464 L 282 393.09825478 L 287 398.001861672 L 293 396.343679956 L 298 391.404603937 L 303 388.105975069 L 308 397.110699841 L 314 392.171623821 L 319 394.614559985 L 324 397.057496149 L 330 392.11842013 L 335 389.640014838 L 340 392.903174578 L 345 394.525887166 L 351 398.609270482 L 356 405.153324526 L 361 387.090671292 L 366 391.174054607 L 372 395.257437923 L 377 389.498138328 L 382 389.480403764 L 388 388.642445624 L 393 398.467393972 L 398 387.786752921 L 403 392.690359813 L 409 392.672625249 L 414 386.093102078 L 419 384.434920362 L 424 389.338527254 L 430 388.500569114 L 435 395.864846734 L 440 386.824652834 L 446 393.368706878 L 451 391.710525163 L 456 390.872567023 L 461 390.034608883 L 467 397.398886503 L 472 383.437351148 L 477 390.801628768 L 482 394.885012083 L 488 400.608842551 L 493 396.489990108 L 498 393.19136124 L 504 392.3534031 L 509 396.436786416 L 514 390.677486821 L 519 395.581093713 L 525 393.922911997 L 530 381.601823794 L 535 387.325654262 L 540 393.04948473 L 546 395.492420894 L 551 400.396027786 L 556 392.176057462 L 562 400.360558658 L 567 384.758576151 L 572 394.583524499 L 577 395.386013511 L 583 397.828949675 L 588 396.990991535 L 593 395.33280982 L 598 399.416193135 L 604 397.75801142 L 609 390.358264672 L 614 391.160753685 L 620 390.322795545"/>
		</g>
		<text class="x-axis-label" x="40.0" y="540">0</text>
		<path class="x-notch" d="M 66.3636363636 525 L 66.3636363636 530"/>
		<text class="x-axis-label" x="92.7272727273" y="540">10</text>
		<path class="x-notch" d="M 119.090909091 525 L 119.090909091 530"/>
		<text class="x-axis-label" x="145.454545455" y="540">20</text>
		<path class="x-notch" d="M 171.818181818 525 L 171.818181818 530"/>
		<text class="x-axis-label" x="198.181818182" y="540">30</text>
		<path class="x-notch" d="M 224.545454545 525 L 224.545454545 530"/>
		<text class="x-axis-label" x="250.909090909" y="540">40</text>
		<path class="x-notch" d="M 277.272727273 525 L 277.272727273 530"/>
		<text class="x-axis-label" x="303.636363636" y="540">50</text>
		<path class="x-notch" d="M 330.0 525 L 330.0 530"/>
		<text class="x-axis-label" x="356.363636364" y="540">60</text>
		<path class="x-notch" d="M 382.727272727 525 L 382.727272727 530"/>
		<text class="x-axis-label" x="409.090909091" y="540">70</text>
		<path class="x-notch" d="M 435.454545455 525 L 435.454545455 530"/>
		<text class="x-axis-label" x="461.818181818" y="540">80</text>
		<path class="x-notch" d="M 488.181818182 525 L 488.181818182 530"/>
		<text class="x-axis-label" x="514.545454545" y="540">90</text>
		<path class="x-notch" d="M 540.909090909 525 L 540.909090909 530"/>
		<text class="x-axis-label" x="567.272727273" y="540">100</text>
		<path class="x-notch" d="M 593.636363636 525 L 593.636363636 530"/>
		<text class="x-axis-label" x="620.0" y="540">110</text>
	</g>
</svg>
