<?xml version="1.0" ?>
<svg height="600" version="1.1" width="800" xmlns="http://www.w3.org/2000/svg" xmlns:svg="http://www.w3.org/2000/svg">
	<style type="text/css">

.x-axis-path, .y-gridline, .x-notch { fill:none; stroke: #a7a9ac; stroke-width:1; }



.y-gridline { stroke-width: 1; }

.y-axis-path, .y-axis-path2, .x-notch-left, .x-notch-right { display: none;}



.x-axis-label, .data-point-label {font-size: 12px; font-weight:normal; font-family: sans-serif; fill: #58595b; text-anchor:middle;}

.y-axis-label {font-size: 12px; font-family: helvetica; fill: #a7a9ac; text-anchor:end;}



.series-1-line { fill: none; stroke: #10b80c; stroke-width:2; }



.series-2-line { fill: none; stroke: #e90f0a; stroke-width: 2;}
</style>
	<rect fill="white" height="600" width="800" x="0" y="0"/>
	<g id="grid" transform="translate(70, 30)">
		<g class="x-axis" id="x_axis">
			<path class="x-axis-path" d="M 0 525 L 660 525"/>
			<path class="x-notch-left" d="M 0 525, L 0 535"/>
			<path class="x-notch-right" d="M 660 525, L 660 535"/>
		</g>
		<g class="y-axis" id="y_axis">
			<path class="y-axis-path" d="M 0 525 L 0 0"/>
			<path class="y-axis-path-2" d="M 660 525 L 660 0"/>
			<path class="y-gridline" d="M 0 525 L 660 525"/>
			<text class="y-axis-label" x="-5" y="525">-200</text>
			<path class="y-gridline" d="M 0 394 L 660 394"/>
			<text class="y-axis-label" x="-5" y="394"> 0</text>
			<path class="y-gridline" d="M 0 263 L 660 263"/>
			<text class="y-axis-label" x="-5" y="263">200</text>
			<path class="y-gridline" d="M 0 132 L 660 132"/>
			<text class="y-axis-label" x="-5" y="132">400</text>
			<path class="y-gridline" d="M 0 1 L 660 1"/>
			<text class="y-axis-label" x="-5" y="1">600</text>
		</g>
		<g>
			<path class="series-1-line" d="M 40 417.877148025 L 44 305.969937385 L 48 378.671351491 L 52 425.976004631 L 57 436.146730377 L 61 371.762962948 L 65 398.576723563 L 70 446.169515811 L 74 361.968681164 L 78 388.012570102 L 83 404.53286127 L 87 500.707107513 L 91 457.968289762 L 96 503.252967706 L 100 400.09948316 L 104 399.304414876 L 109 439.393584549 L 113 335.759868159 L 117 306.392505836 L 122 328.588537118 L 126 321.443903411 L 130 322.668810323 L 135 423.748925005 L 139 292.120693515 L 143 357.606624153 L 148 308.134055504 L 152 349.28123596 L 156 237.470071689 L 161 336.819851005 L 165 170.655446254 L 169 232.00538013 L 174 130.679778043 L 178 199.437288124 L 182 49.6277791364 L 187 333.488636105 L 191 169.056067445 L 195 166.817302177 L 200 90.2161364726 L 204 169.843394214 L 208 200.12082701 L 213 184.124920114 L 217 191.987531555 L 221 152.808432354 L 226 205.78882561 L 230 207.493964367 L 234 107.996244739 L 239 34.1849259086 L 243 207.223280353 L 247 148.803392147 L 252 213.905137309 L 256 220.997877075 L 260 0.0 L 265 263.273918074 L 269 156.754308442 L 273 157.593529154 L 278 169.303998251 L 282 49.7971186674 L 286 151.455012287 L 291 156.815915962 L 295 137.549930349 L 299 90.1933832657 L 304 89.3968142563 L 308 50.891540362 L 312 6.4208865212 L 317 59.6894188841 L 321 48.7929738897 L 325 85.900203952 L 330 11.6071525519 L 334 144.241500883 L 338 59.2707945598 L 342 113.21315223 L 347 140.988877259 L 351 96.6142697869 L 355 80.4262701531 L 360 104.258091157 L 364 145.117132507 L 368 68.5159668026 L 373 253.097894216 L 377 82.8935390709 L 381 163.002529382 L 386 163.649657356 L 390 29.1355326235 L 394 319.634094122 L 399 230.719483773 L 403 130.067706994 L 407 264.625984153 L 412 220.251376682 L 416 307.19016426 L 420 284.172367359 L 425 228.350233288 L 429 145.399502161 L 433 320.649924541 L 438 251.64842778 L 442 302.800938577 L 446 317.205208179 L 451 330.935652473 L 455 333.314616537 L 459 207.170032424 L 464 293.242901957 L 468 308.705182342 L 472 371.979045045 L 477 382.437909897 L 481 321.613861018 L 485 375.748311426 L 490 289.141815382 L 494 388.009862128 L 498 325.646069897 L 503 391.613733105 L 507 319.052517795 L 511 451.109087188 L 516 380.375754337 L 520 356.492039391 L 524 373.974294972 L 529 398.575987652 L 533 384.697603047 L 537 420.457182495 L 542 312.687469342 L 546 329.495899616 L 550 386.228104159 L 555 356.668649098 L 559 425.906391024 L 563 415.875864074 L 568 431.434190828 L 572 438.8150697 L 576 390.304465465 L 581 382.486006451 L 585 332.435658864 L 589 345.108092375 L 594 387.795016184 L 598 416.436659258 L 602 383.125392909 L 607 369.727240149 L 611 376.819979914 L 615 369.675346207 L 620 475.565282958"/>
			<path class="series-2-line" d="M 40 405.005433861 L 44 386.179678558 L 48 393.616602265 L 52 412.308959834 L 57 370.972336808 L 61 400.920128238 L 65 397.101618083 L 70 370.772240206 L 74 419.479088071 L 78 389.397898907 L 83 381.827577465 L 87 385.512689885 L 91 404.205047454 L 96 445.408272745 L 100 377.808970709 L 104 437.771252436 L 109 411.441874558 L 113 418.878798265 L 117 400.053042962 L 122 384.979098946 L 126 411.175079089 L 130 448.626493093 L 135 418.545303929 L 139 403.471359913 L 143 365.886548174 L 148 410.841584753 L 152 365.753150439 L 156 331.920149988 L 161 425.648733299 L 165 384.312110273 L 169 406.756279129 L 174 346.660599667 L 178 384.112013671 L 182 425.315238963 L 187 413.993106234 L 191 395.167350931 L 195 387.597029489 L 200 421.296632206 L 204 372.456386606 L 208 413.659611897 L 213 357.315743723 L 217 383.511723865 L 221 432.218571731 L 226 443.407306725 L 230 405.822494986 L 234 353.230438099 L 239 390.681852103 L 243 401.870587097 L 247 379.293020507 L 252 401.737189362 L 256 401.670490495 L 260 427.866470638 L 265 409.040715335 L 269 427.733072903 L 273 378.892827303 L 278 390.081562297 L 282 386.263052143 L 286 412.459032285 L 291 389.881465695 L 295 404.822011976 L 299 412.258935683 L 304 325.900577212 L 308 415.877349236 L 312 412.058839081 L 317 378.22583863 L 321 404.421818772 L 325 404.355119905 L 330 370.522119453 L 334 392.966288309 L 338 415.410457164 L 342 422.847380871 L 347 415.27705943 L 351 396.451304127 L 355 370.121926249 L 360 392.566095105 L 364 392.499396238 L 368 426.198998955 L 373 392.365998503 L 377 396.051110923 L 381 418.495279778 L 386 399.669524475 L 390 395.851014321 L 394 373.273447731 L 399 425.732106883 L 403 406.90635158 L 407 421.846897862 L 412 403.021142558 L 416 384.195387255 L 420 399.135933537 L 425 410.324668531 L 429 410.257969663 L 433 368.921346638 L 438 387.613704206 L 442 391.298816626 L 446 421.246608056 L 451 409.924475327 L 455 413.609587747 L 459 421.046511454 L 464 390.965322289 L 468 402.154057283 L 472 417.094603564 L 477 330.736245093 L 481 390.69852682 L 485 368.12096023 L 490 353.047016214 L 494 375.491185069 L 498 382.928108776 L 503 416.627711493 L 507 405.305578764 L 511 371.472578313 L 516 367.654068158 L 520 371.339180578 L 524 360.017047849 L 529 408.723895715 L 533 461.182554868 L 537 378.576007683 L 542 446.041911984 L 546 393.449855097 L 550 404.638590091 L 555 415.827325085 L 559 378.242513346 L 563 415.693927351 L 568 411.875417196 L 572 366.786982883 L 576 407.990208174 L 581 392.916264158 L 585 381.59413143 L 589 389.031055137 L 594 396.467978844 L 598 400.153091263 L 602 411.341826258 L 607 388.764259667 L 611 388.6975608 L 615 414.893540943 L 620 366.053295342"/>
		</g>
		<text class="x-axis-label" x="40.0" y="540">0</text>
		<path class="x-notch" d="M 61.6417910448 525 L 61.6417910448 530"/>
		<text class="x-axis-label" x="83.2835820896" y="540">10</text>
		<path class="x-notch" d="M 104.925373134 525 L 104.925373134 530"/>
		<text class="x-axis-label" x="126.567164179" y="540">20</text>
		<path class="x-notch" d="M 148.208955224 525 L 148.208955224 530"/>
		<text class="x-axis-label" x="169.850746269" y="540">30</text>
		<path class="x-notch" d="M 191.492537313 525 L 191.492537313 530"/>
		<text class="x-axis-label" x="213.134328358" y="540">40</text>
		<path class="x-notch" d="M 234.776119403 525 L 234.776119403 530"/>
		<text class="x-axis-label" x="256.417910448" y="540">50</text>
		<path class="x-notch" d="M 278.059701493 525 L 278.059701493 530"/>
		<text class="x-axis-label" x="299.701492537" y="540">60</text>
		<path class="x-notch" d="M 321.343283582 525 L 321.343283582 530"/>
		<text class="x-axis-label" x="342.985074627" y="540">70</text>
		<path class="x-notch" d="M 364.626865672 525 L 364.626865672 530"/>
		<text class="x-axis-label" x="386.268656716" y="540">80</text>
		<path class="x-notch" d="M 407.910447761 525 L 407.910447761 530"/>
		<text class="x-axis-label" x="429.552238806" y="540">90</text>
		<path class="x-notch" d="M 451.194029851 525 L 451.194029851 530"/>
		<text class="x-axis-label" x="472.835820896" y="540">100</text>
		<path class="x-notch" d="M 494.47761194 525 L 494.47761194 530"/>
		<text class="x-axis-label" x="516.119402985" y="540">110</text>
		<path class="x-notch" d="M 537.76119403 525 L 537.76119403 530"/>
		<text class="x-axis-label" x="559.402985075" y="540">120</text>
		<path class="x-notch" d="M 581.044776119 525 L 581.044776119 530"/>
		<text class="x-axis-label" x="602.686567164" y="540">130</text>
		<path class="x-notch" d="M 624.328358209 525 L 624.328358209 530"/>
	</g>
</svg>
