<?xml version="1.0" ?>
<svg height="600" version="1.1" width="800" xmlns="http://www.w3.org/2000/svg" xmlns:svg="http://www.w3.org/2000/svg">
	<style type="text/css">

.x-axis-path, .y-gridline, .x-notch { fill:none; stroke: #a7a9ac; stroke-width:1; }



.y-gridline { stroke-width: 1; }

.y-axis-path, .y-axis-path2, .x-notch-left, .x-notch-right { display: none;}



.x-axis-label, .data-point-label {font-size: 12px; font-weight:normal; font-family: sans-serif; fill: #58595b; text-anchor:middle;}

.y-axis-label {font-size: 12px; font-family: helvetica; fill: #a7a9ac; text-anchor:end;}



.series-1-line { fill: none; stroke: #10b80c; stroke-width:2; }



.series-2-line { fill: none; stroke: #e90f0a; stroke-width: 2;}
</style>
	<rect fill="white" height="600" width="800" x="0" y="0"/>
	<g id="grid" transform="translate(70, 30)">
		<g class="x-axis" id="x_axis">
			<path class="x-axis-path" d="M 0 525 L 660 525"/>
			<path class="x-notch-left" d="M 0 525, L 0 535"/>
			<path class="x-notch-right" d="M 660 525, L 660 535"/>
		</g>
		<g class="y-axis" id="y_axis">
			<path class="y-axis-path" d="M 0 525 L 0 0"/>
			<path class="y-axis-path-2" d="M 660 525 L 660 0"/>
			<path class="y-gridline" d="M 0 525 L 660 525"/>
			<text class="y-axis-label" x="-5" y="525">-200</text>
			<path class="y-gridline" d="M 0 394 L 660 394"/>
			<text class="y-axis-label" x="-5" y="394"> 0</text>
			<path class="y-gridline" d="M 0 263 L 660 263"/>
			<text class="y-axis-label" x="-5" y="263">200</text>
			<path class="y-gridline" d="M 0 132 L 660 132"/>
			<text class="y-axis-label" x="-5" y="132">400</text>
			<path class="y-gridline" d="M 0 1 L 660 1"/>
			<text class="y-axis-label" x="-5" y="1">600</text>
		</g>
		<g>
			<path class="series-1-line" d="M 40 354.052442756 L 43 401.944054391 L 46 482.041681081 L 49 327.741007273 L 53 400.042836349 L 56 416.876867564 L 59 311.141420941 L 63 289.504885668 L 66 327.937862038 L 69 351.289658574 L 73 364.544800603 L 76 419.5921968 L 79 337.886149883 L 83 374.018269361 L 86 373.725471546 L 89 364.358843823 L 93 259.263410252 L 96 428.444473621 L 99 308.523067911 L 102 381.975325433 L 106 384.110988358 L 109 402.478259565 L 112 367.293784447 L 116 363.422097446 L 119 331.816511515 L 122 397.600575271 L 126 341.072362695 L 129 432.16186464 L 132 318.247808857 L 136 348.884987614 L 139 267.561752241 L 142 271.230655158 L 146 340.5936081 L 149 371.741202249 L 152 330.038961812 L 156 440.938961225 L 159 403.453629215 L 162 283.021808113 L 165 399.033936703 L 169 338.544023395 L 172 489.192621591 L 175 416.688008431 L 179 368.978418067 L 182 458.279472324 L 185 267.424283564 L 189 348.034319458 L 192 367.807226807 L 195 459.664345653 L 199 291.048115101 L 202 385.716506232 L 205 323.053339882 L 209 307.679362232 L 212 361.193518437 L 215 483.085393106 L 218 330.955978531 L 222 276.983830544 L 225 403.222211299 L 228 371.104216164 L 232 379.247229015 L 235 353.648993011 L 238 351.055338304 L 242 341.048697528 L 245 375.902784712 L 248 341.996341889 L 252 351.417387035 L 255 288.626616836 L 258 325.909164761 L 262 226.948684965 L 265 255.285006829 L 268 307.265923044 L 272 337.263088748 L 275 288.147862241 L 278 317.889820248 L 281 183.014838552 L 285 169.941717794 L 288 229.718431623 L 291 267.128583396 L 295 179.287582704 L 298 74.3197529814 L 301 241.199959458 L 305 111.309503091 L 308 92.1014285581 L 311 46.9479027828 L 315 61.4810771062 L 318 139.790256108 L 321 125.694310753 L 325 119.011351466 L 328 65.1668073271 L 331 93.8859407368 L 334 98.3224605539 L 338 0.0 L 341 31.7876072021 L 344 61.2743575124 L 348 54.8466059226 L 351 70.7854163889 L 354 44.291959635 L 358 143.817272247 L 361 168.702308774 L 364 111.791284653 L 368 209.015740373 L 371 148.908638611 L 374 136.090725549 L 378 112.408541081 L 381 119.14591779 L 384 164.99188023 L 388 200.868792012 L 391 67.0166349132 L 394 266.615265649 L 397 117.681928715 L 401 115.088274009 L 404 123.231286861 L 407 195.150304391 L 411 224.252249346 L 414 146.380299311 L 417 188.519768717 L 421 191.678256239 L 424 220.014578104 L 427 278.130448093 L 431 203.197374193 L 434 167.245282175 L 437 222.677483727 L 441 183.914119424 L 444 251.999040071 L 447 125.942680587 L 450 127.055518915 L 454 301.093503764 L 457 284.44149382 L 460 286.95996829 L 464 229.15372342 L 467 342.226975876 L 470 291.066100174 L 474 362.857513856 L 477 316.298351938 L 480 242.260498787 L 484 312.133867122 L 487 367.94888022 L 490 375.069068474 L 494 349.853644015 L 497 318.120454235 L 500 379.302804207 L 504 324.052623925 L 507 409.902392845 L 510 354.397004867 L 513 354.359414749 L 517 385.251801202 L 520 336.264178543 L 523 345.940431386 L 527 323.153467667 L 530 310.335554606 L 533 332.281714998 L 537 332.371728729 L 540 408.124843142 L 543 406.426409184 L 547 375.07603095 L 550 376.188869278 L 553 332.0581681 L 557 361.800126107 L 560 406.240452404 L 563 408.37611533 L 566 428.149022679 L 570 382.867893055 L 573 310.490883743 L 576 302.402288314 L 580 411.896651584 L 583 414.032314509 L 586 389.072097747 L 590 423.670977234 L 593 400.884013515 L 596 203.383455586 L 600 422.920187638 L 603 384.924440235 L 606 392.172232338 L 610 393.157466817 L 613 419.065327941 L 616 425.03508775 L 620 343.711852378"/>
			<path class="series-2-line" d="M 40 365.836658158 L 43 430.584509334 L 46 330.843024656 L 49 445.436129121 L 53 395.539897732 L 56 445.334172921 L 59 370.515314887 L 63 395.386963432 L 66 380.382409345 L 69 385.315956574 L 73 410.187605119 L 76 330.384221756 L 79 395.132072932 L 83 350.220366872 L 86 350.169388772 L 89 404.94818929 L 93 424.835312506 L 96 424.784334406 L 99 424.733356306 L 102 389.790700903 L 106 399.708773461 L 109 404.64232069 L 112 404.59134259 L 116 379.617737846 L 119 404.489386391 L 122 399.453882962 L 126 424.325531506 L 129 359.47572413 L 132 394.316423333 L 136 429.157122535 L 139 434.090669764 L 142 399.148014362 L 146 419.035137578 L 149 374.123431517 L 152 418.933181378 L 156 374.021475317 L 159 344.063345244 L 162 423.764772407 L 165 358.914965031 L 169 418.678290878 L 172 393.704686133 L 175 383.684657376 L 179 393.602729933 L 182 413.489853149 L 185 398.485299062 L 189 413.387896949 L 192 393.398817534 L 195 403.316890092 L 199 418.219487978 L 202 378.292307247 L 205 388.210379805 L 209 408.097503021 L 212 373.154847618 L 215 363.13481886 L 218 333.176688787 L 222 348.079286674 L 225 437.749764494 L 228 347.977330474 L 232 392.787080334 L 235 452.550406181 L 238 422.592276108 L 242 382.665095376 L 245 342.737914645 L 248 337.702411216 L 252 377.527635748 L 255 407.383809621 L 258 377.425679548 L 262 412.26637875 L 265 417.199925979 L 268 427.117998537 L 272 367.25271649 L 275 402.093415693 L 278 382.104336277 L 281 382.053358177 L 285 431.847633366 L 288 391.920452635 L 291 342.024221246 L 295 391.818496435 L 298 391.767518335 L 301 361.809388262 L 305 361.758410162 L 308 396.599109364 L 311 396.548131264 L 315 416.43525448 L 318 401.430700393 L 321 416.33329828 L 325 441.204946825 L 328 436.169443396 L 331 381.288686678 L 334 421.113911209 L 338 356.264103833 L 341 406.058379022 L 344 425.945502238 L 348 410.940948151 L 351 405.905444723 L 354 410.838991952 L 358 390.849912536 L 361 350.922731804 L 364 435.608684296 L 368 385.712452907 L 371 385.661474807 L 374 395.579547365 L 378 350.667841305 L 381 420.40021781 L 384 415.364714381 L 388 410.329210952 L 391 445.169910155 L 394 365.366526792 L 397 420.14532731 L 401 390.187197236 L 404 434.996947097 L 407 444.915019655 L 411 330.219958989 L 414 380.014234179 L 417 369.994205421 L 421 414.803955281 L 424 419.73750251 L 427 444.609151055 L 431 424.620071639 L 434 349.801213605 L 437 404.580014124 L 441 379.606409379 L 444 404.478057924 L 447 389.473503837 L 450 364.499899092 L 454 384.387022308 L 457 409.258670853 L 460 359.362439464 L 464 389.218613337 L 467 394.152160566 L 470 359.209505164 L 474 389.065679037 L 477 413.937327582 L 480 448.778026785 L 484 388.912744738 L 487 383.877241309 L 490 393.795313867 L 494 393.744335767 L 497 438.554085627 L 500 373.704278251 L 504 393.591401467 L 507 368.617796722 L 510 428.381122569 L 513 388.453941838 L 517 383.418438409 L 520 398.321036296 L 523 398.270058196 L 527 408.188130754 L 530 418.106203312 L 533 447.962377185 L 537 388.097095138 L 540 383.061591709 L 543 407.933240254 L 547 392.928686167 L 550 367.955081423 L 553 402.795780625 L 557 382.80670121 L 560 402.693824425 L 563 412.611896983 L 566 392.622817568 L 570 412.509940783 L 573 382.55181071 L 576 432.346085899 L 580 412.357006484 L 583 422.275079041 L 586 382.34789831 L 590 382.29692021 L 593 392.214992768 L 596 442.009267957 L 600 362.205884595 L 603 412.000159784 L 606 401.980131026 L 610 396.944627597 L 613 391.909124168 L 616 386.873620739 L 620 391.807167968"/>
		</g>
		<text class="x-axis-label" x="40.0" y="540">0</text>
		<path class="x-notch" d="M 56.5714285714 525 L 56.5714285714 530"/>
		<text class="x-axis-label" x="73.1428571429" y="540">10</text>
		<path class="x-notch" d="M 89.7142857143 525 L 89.7142857143 530"/>
		<text class="x-axis-label" x="106.285714286" y="540">20</text>
		<path class="x-notch" d="M 122.857142857 525 L 122.857142857 530"/>
		<text class="x-axis-label" x="139.428571429" y="540">30</text>
		<path class="x-notch" d="M 156.0 525 L 156.0 530"/>
		<text class="x-axis-label" x="172.571428571" y="540">40</text>
		<path class="x-notch" d="M 189.142857143 525 L 189.142857143 530"/>
		<text class="x-axis-label" x="205.714285714" y="540">50</text>
		<path class="x-notch" d="M 222.285714286 525 L 222.285714286 530"/>
		<text class="x-axis-label" x="238.857142857" y="540">60</text>
		<path class="x-notch" d="M 255.428571429 525 L 255.428571429 530"/>
		<text class="x-axis-label" x="272.0" y="540">70</text>
		<path class="x-notch" d="M 288.571428571 525 L 288.571428571 530"/>
		<text class="x-axis-label" x="305.142857143" y="540">80</text>
		<path class="x-notch" d="M 321.714285714 525 L 321.714285714 530"/>
		<text class="x-axis-label" x="338.285714286" y="540">90</text>
		<path class="x-notch" d="M 354.857142857 525 L 354.857142857 530"/>
		<text class="x-axis-label" x="371.428571429" y="540">100</text>
		<path class="x-notch" d="M 388.0 525 L 388.0 530"/>
		<text class="x-axis-label" x="404.571428571" y="540">110</text>
		<path class="x-notch" d="M 421.142857143 525 L 421.142857143 530"/>
		<text class="x-axis-label" x="437.714285714" y="540">120</text>
		<path class="x-notch" d="M 454.285714286 525 L 454.285714286 530"/>
		<text class="x-axis-label" x="470.857142857" y="540">130</text>
		<path class="x-notch" d="M 487.428571429 525 L 487.428571429 530"/>
		<text class="x-axis-label" x="504.0" y="540">140</text>
		<path class="x-notch" d="M 520.571428571 525 L 520.571428571 530"/>
		<text class="x-axis-label" x="537.142857143" y="540">150</text>
		<path class="x-notch" d="M 553.714285714 525 L 553.714285714 530"/>
		<text class="x-axis-label" x="570.285714286" y="540">160</text>
		<path class="x-notch" d="M 586.857142857 525 L 586.857142857 530"/>
		<text class="x-axis-label" x="603.428571429" y="540">170</text>
		<path class="x-notch" d="M 620.0 525 L 620.0 530"/>
	</g>
</svg>
