<?xml version="1.0" ?>
<svg height="600" version="1.1" width="800" xmlns="http://www.w3.org/2000/svg" xmlns:svg="http://www.w3.org/2000/svg">
	<style type="text/css">

.x-axis-path, .y-gridline, .x-notch { fill:none; stroke: #a7a9ac; stroke-width:1; }



.y-gridline { stroke-width: 1; }

.y-axis-path, .y-axis-path2, .x-notch-left, .x-notch-right { display: none;}



.x-axis-label, .data-point-label {font-size: 12px; font-weight:normal; font-family: sans-serif; fill: #58595b; text-anchor:middle;}

.y-axis-label {font-size: 12px; font-family: helvetica; fill: #a7a9ac; text-anchor:end;}



.series-1-line { fill: none; stroke: #10b80c; stroke-width:2; }



.series-2-line { fill: none; stroke: #e90f0a; stroke-width: 2;}
</style>
	<rect fill="white" height="600" width="800" x="0" y="0"/>
	<g id="grid" transform="translate(70, 30)">
		<g class="x-axis" id="x_axis">
			<path class="x-axis-path" d="M 0 525 L 660 525"/>
			<path class="x-notch-left" d="M 0 525, L 0 535"/>
			<path class="x-notch-right" d="M 660 525, L 660 535"/>
		</g>
		<g class="y-axis" id="y_axis">
			<path class="y-axis-path" d="M 0 525 L 0 0"/>
			<path class="y-axis-path-2" d="M 660 525 L 660 0"/>
			<path class="y-gridline" d="M 0 525 L 660 525"/>
			<text class="y-axis-label" x="-5" y="525">-200</text>
			<path class="y-gridline" d="M 0 394 L 660 394"/>
			<text class="y-axis-label" x="-5" y="394"> 0</text>
			<path class="y-gridline" d="M 0 263 L 660 263"/>
			<text class="y-axis-label" x="-5" y="263">200</text>
			<path class="y-gridline" d="M 0 132 L 660 132"/>
			<text class="y-axis-label" x="-5" y="132">400</text>
			<path class="y-gridline" d="M 0 1 L 660 1"/>
			<text class="y-axis-label" x="-5" y="1">600</text>
		</g>
		<g>
			<path class="series-1-line" d="M 40 390.735245856 L 43 399.004397291 L 47 411.750490157 L 51 388.862336172 L 55 379.686128977 L 59 392.404197171 L 63 394.441799944 L 67 388.311086456 L 70 402.376528357 L 74 411.010438419 L 78 384.122419264 L 82 405.513904652 L 86 418.358302815 L 90 401.841820854 L 94 412.875781384 L 98 407.01174017 L 101 409.961677399 L 105 407.353752821 L 109 406.00890899 L 113 416.832246591 L 117 395.852835535 L 121 397.497436065 L 125 393.612418403 L 128 414.147837624 L 132 404.84530046 L 136 400.595305228 L 140 388.668301274 L 144 388.544501181 L 148 397.613450495 L 152 372.535868972 L 156 364.005323958 L 159 342.113578446 L 163 328.684846143 L 167 267.102720322 L 171 302.402763094 L 175 294.208952035 L 179 314.618041287 L 183 251.899164688 L 186 294.006137678 L 190 241.055392043 L 194 259.920715937 L 198 221.523970924 L 202 231.673621672 L 206 191.915709557 L 210 186.304328281 L 214 154.01280196 L 217 161.832682864 L 221 182.171710434 L 225 188.181153706 L 229 154.528241341 L 233 167.077942557 L 237 157.214036172 L 241 121.2453663 L 244 115.858620289 L 248 183.873746174 L 252 92.7623732512 L 256 95.249027613 L 260 89.4412546868 L 264 105.976808737 L 268 74.8080208575 L 272 80.9297817621 L 275 133.169863287 L 279 87.755784069 L 283 64.530677186 L 287 121.121589116 L 291 72.3953439174 L 295 50.1105961623 L 299 69.7899492154 L 302 93.0481405235 L 306 0.0 L 310 98.9477960388 L 314 37.9130271024 L 318 36.0490700018 L 322 37.8620375099 L 326 34.5944384142 L 330 32.7585059861 L 333 18.9647961121 L 337 50.8263429339 L 341 26.0574706933 L 345 64.6136301006 L 349 84.1946778572 L 353 81.8814502257 L 357 65.7019211626 L 360 85.4233112244 L 364 85.3978164282 L 368 148.051691099 L 372 79.9152949975 L 376 119.481875214 L 380 103.540993753 L 384 119.697557896 L 388 165.79038372 L 391 169.624411789 L 395 110.638728086 L 399 167.32772637 L 403 187.933426215 L 407 179.739615157 L 411 163.265389147 L 415 198.986458834 L 418 239.254750577 L 422 246.499249923 L 426 261.799747899 L 430 262.223304691 L 434 264.653909708 L 438 268.459913104 L 442 294.328558867 L 446 252.984625444 L 449 307.470183852 L 453 288.04855049 L 457 300.570227033 L 461 288.544917782 L 465 276.631926164 L 469 310.738949869 L 473 329.983263671 L 476 343.487336351 L 480 311.743166914 L 484 342.538024639 L 488 354.596418315 L 492 349.813078534 L 496 364.032875076 L 500 384.806941899 L 504 383.98143028 L 507 371.394751808 L 511 387.761938881 L 515 380.031191747 L 519 358.630753775 L 523 367.657666081 L 527 381.554741004 L 531 365.080296051 L 534 380.08609708 L 538 363.274918172 L 542 364.20379484 L 546 368.276470511 L 550 385.261076149 L 554 349.250369268 L 558 352.270368178 L 562 366.588470017 L 565 336.472358898 L 569 339.225685534 L 573 355.648921951 L 577 377.405384911 L 581 357.801372234 L 585 343.446293139 L 589 383.349826254 L 592 366.285987408 L 596 374.190161271 L 600 387.890625602 L 604 380.749491304 L 608 387.839636009 L 612 392.838439529 L 616 414.931855386 L 620 390.457680092"/>
			<path class="series-2-line" d="M 40 385.86806086 L 43 396.81592353 L 47 392.437793429 L 51 396.817373482 L 55 396.818098458 L 59 396.818823434 L 63 397.91426218 L 67 392.441418309 L 70 395.726284593 L 74 392.442868261 L 78 401.748660277 L 82 393.539031982 L 86 395.181827612 L 90 387.519556202 L 94 394.088563795 L 98 389.710433693 L 101 397.92151194 L 105 397.922236916 L 109 392.99674993 L 113 389.713333597 L 117 395.18762742 L 121 393.546281742 L 125 400.662646219 L 128 397.926586772 L 132 396.285241094 L 136 396.28596607 L 140 398.476118585 L 144 395.192702252 L 148 388.077787727 L 152 392.457367781 L 156 398.479018489 L 159 396.837672811 L 163 398.480468441 L 167 397.933836532 L 171 397.387204623 L 175 393.556431406 L 179 389.178301305 L 183 395.199952012 L 186 400.126888951 L 190 397.938186388 L 194 399.580982018 L 198 389.729283069 L 202 384.803796083 L 206 395.204301868 L 210 394.110313075 L 214 392.468967397 L 217 388.090837295 L 221 394.659844888 L 225 395.207926749 L 229 392.471867301 L 233 397.398804239 L 237 397.9468861 L 241 393.568755998 L 244 400.137763591 L 248 397.949061028 L 252 393.023574042 L 256 388.098087055 L 260 396.309165302 L 264 398.499317817 L 268 392.479117061 L 272 396.858697115 L 275 400.690920284 L 279 396.860147067 L 283 389.745232542 L 287 397.956310788 L 291 398.504392649 L 295 394.126262547 L 299 396.863771947 L 302 396.317140038 L 306 394.67579436 L 310 391.392378028 L 314 390.845746119 L 318 402.888322559 L 322 396.320764918 L 326 392.489991701 L 330 400.153713063 L 333 394.680869192 L 337 396.871021707 L 341 395.777032913 L 345 399.609256082 L 349 396.32583975 L 353 393.042423418 L 357 396.874646587 L 360 393.04387337 L 364 395.781382769 L 368 397.4241784 L 372 394.688118952 L 376 390.30998885 L 380 399.615780866 L 384 396.879721419 L 388 399.069873934 L 391 397.428528256 L 395 397.429253232 L 399 390.314338706 L 403 397.978060068 L 407 394.147286851 L 411 401.263651329 L 415 399.074948766 L 418 391.960034241 L 422 391.960759217 L 426 394.698268616 L 430 391.414852284 L 434 395.247075453 L 438 397.984584852 L 442 395.79588229 L 446 397.43867792 L 449 392.513190933 L 453 389.777131486 L 457 399.082923502 L 461 395.252150285 L 465 395.252875261 L 469 388.68531762 L 473 395.254325213 L 476 400.728619036 L 480 399.087273358 L 484 396.898570795 L 488 393.067797578 L 492 390.879095015 L 496 391.427176876 L 500 394.164686276 L 504 393.618054367 L 507 391.976708689 L 511 399.093073166 L 515 387.051946678 L 519 394.168311156 L 523 393.621679247 L 527 401.832757493 L 531 387.602203467 L 534 393.623854175 L 538 389.245724073 L 542 392.530590358 L 546 396.362813526 L 550 392.53204031 L 554 394.722192824 L 558 391.986133377 L 562 398.555140969 L 565 399.10322283 L 569 395.272449613 L 573 393.631103935 L 577 392.537115142 L 581 396.916695195 L 585 393.633278863 L 589 400.74964334 L 592 393.08737193 L 596 396.919595099 L 600 393.088821882 L 604 395.826331282 L 608 398.563840681 L 612 385.975357309 L 616 396.375863095 L 620 391.997732993"/>
		</g>
		<text class="x-axis-label" x="40.0" y="540">0</text>
		<path class="x-notch" d="M 59.3333333333 525 L 59.3333333333 530"/>
		<text class="x-axis-label" x="78.6666666667" y="540">10</text>
		<path class="x-notch" d="M 98.0 525 L 98.0 530"/>
		<text class="x-axis-label" x="117.333333333" y="540">20</text>
		<path class="x-notch" d="M 136.666666667 525 L 136.666666667 530"/>
		<text class="x-axis-label" x="156.0" y="540">30</text>
		<path class="x-notch" d="M 175.333333333 525 L 175.333333333 530"/>
		<text class="x-axis-label" x="194.666666667" y="540">40</text>
		<path class="x-notch" d="M 214.0 525 L 214.0 530"/>
		<text class="x-axis-label" x="233.333333333" y="540">50</text>
		<path class="x-notch" d="M 252.666666667 525 L 252.666666667 530"/>
		<text class="x-axis-label" x="272.0" y="540">60</text>
		<path class="x-notch" d="M 291.333333333 525 L 291.333333333 530"/>
		<text class="x-axis-label" x="310.666666667" y="540">70</text>
		<path class="x-notch" d="M 330.0 525 L 330.0 530"/>
		<text class="x-axis-label" x="349.333333333" y="540">80</text>
		<path class="x-notch" d="M 368.666666667 525 L 368.666666667 530"/>
		<text class="x-axis-label" x="388.0" y="540">90</text>
		<path class="x-notch" d="M 407.333333333 525 L 407.333333333 530"/>
		<text class="x-axis-label" x="426.666666667" y="540">100</text>
		<path class="x-notch" d="M 446.0 525 L 446.0 530"/>
		<text class="x-axis-label" x="465.333333333" y="540">110</text>
		<path class="x-notch" d="M 484.666666667 525 L 484.666666667 530"/>
		<text class="x-axis-label" x="504.0" y="540">120</text>
		<path class="x-notch" d="M 523.333333333 525 L 523.333333333 530"/>
		<text class="x-axis-label" x="542.666666667" y="540">130</text>
		<path class="x-notch" d="M 562.0 525 L 562.0 530"/>
		<text class="x-axis-label" x="581.333333333" y="540">140</text>
		<path class="x-notch" d="M 600.666666667 525 L 600.666666667 530"/>
		<text class="x-axis-label" x="620.0" y="540">150</text>
	</g>
</svg>
