<?xml version="1.0" ?>
<svg height="600" version="1.1" width="800" xmlns="http://www.w3.org/2000/svg" xmlns:svg="http://www.w3.org/2000/svg">
	<style type="text/css">

.x-axis-path, .y-gridline, .x-notch { fill:none; stroke: #a7a9ac; stroke-width:1; }



.y-gridline { stroke-width: 1; }

.y-axis-path, .y-axis-path2, .x-notch-left, .x-notch-right { display: none;}



.x-axis-label, .data-point-label {font-size: 12px; font-weight:normal; font-family: sans-serif; fill: #58595b; text-anchor:middle;}

.y-axis-label {font-size: 12px; font-family: helvetica; fill: #a7a9ac; text-anchor:end;}



.series-1-line { fill: none; stroke: #10b80c; stroke-width:2; }



.series-2-line { fill: none; stroke: #e90f0a; stroke-width: 2;}
</style>
	<rect fill="white" height="600" width="800" x="0" y="0"/>
	<g id="grid" transform="translate(70, 30)">
		<g class="x-axis" id="x_axis">
			<path class="x-axis-path" d="M 0 525 L 660 525"/>
			<path class="x-notch-left" d="M 0 525, L 0 535"/>
			<path class="x-notch-right" d="M 660 525, L 660 535"/>
		</g>
		<g class="y-axis" id="y_axis">
			<path class="y-axis-path" d="M 0 525 L 0 0"/>
			<path class="y-axis-path-2" d="M 660 525 L 660 0"/>
			<path class="y-gridline" d="M 0 525 L 660 525"/>
			<text class="y-axis-label" x="-5" y="525">-200</text>
			<path class="y-gridline" d="M 0 420 L 660 420"/>
			<text class="y-axis-label" x="-5" y="420"> 0</text>
			<path class="y-gridline" d="M 0 315 L 660 315"/>
			<text class="y-axis-label" x="-5" y="315">200</text>
			<path class="y-gridline" d="M 0 210 L 660 210"/>
			<text class="y-axis-label" x="-5" y="210">400</text>
			<path class="y-gridline" d="M 0 105 L 660 105"/>
			<text class="y-axis-label" x="-5" y="105">600</text>
			<path class="y-gridline" d="M 0 0 L 660 0"/>
			<text class="y-axis-label" x="-5" y="0">800</text>
		</g>
		<g>
			<path class="series-1-line" d="M 40 416.007105274 L 43 428.126621825 L 46 434.785736176 L 50 404.350136799 L 53 412.885085913 L 57 411.250214737 L 60 372.603855777 L 64 349.503843161 L 67 417.390594321 L 70 425.842317491 L 74 420.706104824 L 77 395.855746563 L 81 407.308155152 L 84 427.971985266 L 88 403.246465922 L 91 418.700221872 L 94 435.821097522 L 98 409.011678553 L 101 455.391675302 L 105 427.331916558 L 108 416.36078494 L 112 447.694441215 L 115 410.381647974 L 118 399.493742301 L 122 413.197152607 L 125 383.970280033 L 129 355.61858028 L 132 351.024636657 L 136 325.173616455 L 139 312.91053209 L 142 340.659620929 L 146 340.233476555 L 149 315.466344239 L 153 329.336206434 L 156 301.27644769 L 160 275.717368495 L 163 259.11938279 L 166 315.461134968 L 170 286.734268263 L 173 238.418094881 L 177 239.659070208 L 180 113.652127879 L 184 214.132239537 L 187 218.165835421 L 191 186.438283297 L 194 192.597391779 L 197 212.260559951 L 201 186.24308786 L 204 105.0 L 208 204.8136539 L 211 256.278235692 L 215 199.334522803 L 218 220.498358786 L 221 194.814440676 L 225 166.421127951 L 228 129.483501663 L 232 206.248120368 L 235 192.859535145 L 239 218.566337331 L 242 184.338105657 L 245 162.57165876 L 249 130.552165627 L 252 156.842849829 L 256 184.550325696 L 259 130.440846337 L 263 164.983903094 L 266 156.096671102 L 269 195.182694061 L 273 187.129021919 L 276 215.795546754 L 280 188.319019824 L 283 197.020420828 L 287 125.071980437 L 290 143.693523898 L 293 168.066760364 L 297 138.50633381 L 300 205.851466129 L 304 251.897908896 L 307 149.148066624 L 311 190.568317245 L 314 151.588404304 L 317 112.983658317 L 321 92.6762662584 L 324 180.485878076 L 328 174.808046567 L 331 196.763829428 L 335 230.514939307 L 338 161.900738316 L 342 150.096046849 L 345 200.85255791 L 348 276.991681626 L 352 281.442057435 L 355 238.419184162 L 359 232.282959755 L 362 191.260760162 L 366 204.67222946 L 369 273.434153443 L 372 206.403846207 L 376 276.291271048 L 379 273.906065966 L 383 256.432907438 L 386 280.055809999 L 390 243.034957767 L 393 264.532347731 L 396 283.361956053 L 400 245.632382888 L 403 369.161529742 L 407 293.170129018 L 410 331.756146108 L 414 307.072239736 L 417 349.242824262 L 420 288.75615691 L 424 316.422019803 L 427 257.811187214 L 431 327.031504094 L 434 287.218031304 L 438 351.395376112 L 441 339.715523561 L 444 305.112124935 L 448 292.181932609 L 451 286.879268052 L 455 336.510278256 L 458 357.632501267 L 462 337.825115078 L 465 390.999079745 L 468 378.06888742 L 472 363.805129375 L 475 367.921951204 L 479 302.558763668 L 482 383.866348575 L 486 393.985191445 L 489 370.551624848 L 493 370.87581438 L 496 394.540329913 L 499 373.357765032 L 503 369.80544612 L 506 399.430369722 L 510 384.499503716 L 513 401.870707403 L 517 391.691522663 L 520 419.565450418 L 523 410.928546462 L 527 423.631294826 L 530 410.909817564 L 534 423.237398976 L 537 401.346113162 L 541 426.844850487 L 544 424.04286548 L 547 394.482438925 L 551 421.314741969 L 554 389.962356798 L 558 410.375858875 L 561 382.691267084 L 565 412.274577714 L 568 386.340331567 L 571 412.463913678 L 575 431.251909028 L 578 373.933029186 L 582 403.516339816 L 585 430.015088879 L 589 419.043957262 L 592 413.366125753 L 595 409.438639888 L 599 427.393075388 L 602 385.412477028 L 606 401.324625876 L 609 422.530074831 L 613 419.686476852 L 616 431.930832319 L 620 430.295961143"/>
			<path class="series-2-line" d="M 40 421.625506728 L 43 436.278015607 L 46 415.169376478 L 50 411.941311352 L 53 415.215273138 L 57 420.114741651 L 60 429.890730348 L 64 423.411651767 L 67 423.434600098 L 70 439.712615704 L 74 420.229483303 L 77 433.256485454 L 81 425.151900146 L 84 438.178902298 L 88 431.699823717 L 91 433.348278775 L 94 428.494706923 L 98 430.143161981 L 101 425.289590128 L 105 431.814565369 L 108 435.088527154 L 112 431.860462029 L 115 423.755876721 L 118 414.025784686 L 122 435.180320476 L 125 433.577762078 L 129 422.222163315 L 132 445.002205832 L 136 423.893566703 L 139 438.546075582 L 142 423.939463364 L 146 430.464438604 L 149 430.487386935 L 153 425.633815082 L 156 432.158790323 L 160 428.930725198 L 163 422.451646617 L 166 448.48270259 L 170 432.250583644 L 173 429.022518519 L 177 429.045466849 L 180 437.195948818 L 184 424.214843327 L 187 432.365325295 L 191 440.515807264 L 194 434.036728684 L 197 412.928089554 L 201 417.827558067 L 204 416.22499967 L 208 443.881562371 L 211 406.517855965 L 215 417.919351389 L 218 416.316792991 L 221 432.594808598 L 225 427.741236745 L 228 424.51317162 L 232 434.289160317 L 235 434.312108647 L 239 421.331003156 L 242 439.23452549 L 245 414.874872906 L 249 405.14478087 L 252 427.924823388 L 256 419.82023808 L 259 432.847240231 L 263 436.121202017 L 266 431.267630164 L 269 423.163044856 L 273 415.058459548 L 276 447.591542431 L 280 426.482903302 L 283 403.748757445 L 287 410.273732686 L 290 424.926241565 L 293 429.825710079 L 297 416.844604587 L 300 437.999140377 L 304 421.767021431 L 307 415.287942851 L 311 423.438424819 L 314 421.835866422 L 317 425.109828207 L 321 426.758283265 L 324 425.155724868 L 328 426.804179926 L 331 428.452634984 L 335 428.475583314 L 338 421.996504734 L 342 428.521479975 L 345 438.297468671 L 348 418.814336269 L 352 425.33931151 L 355 420.485739657 L 359 430.261728354 L 362 430.284676684 L 366 433.55863847 L 369 423.828546434 L 372 423.851494764 L 376 428.750963277 L 379 423.897391425 L 383 427.17135321 L 386 422.317781358 L 390 432.093770054 L 393 441.86975875 L 396 424.012133076 L 400 417.533054496 L 403 422.432523009 L 407 425.706484795 L 410 432.231460035 L 414 419.250354544 L 417 437.153876879 L 420 430.674798299 L 424 429.072239901 L 427 446.975762236 L 431 429.118136562 L 434 430.76659162 L 438 438.917073588 L 441 425.935968097 L 444 438.962970249 L 448 430.858384941 L 451 437.383360182 L 455 432.529788329 L 458 437.429256842 L 462 424.448151351 L 465 437.475153503 L 468 429.370568195 L 472 439.146556891 L 475 434.292985038 L 479 427.813906458 L 482 426.211348061 L 486 435.987336757 L 489 418.129711083 L 493 434.40772669 L 496 423.052127926 L 499 434.45362335 L 503 421.472517859 L 506 431.248506555 L 510 418.267401064 L 513 437.796430127 L 517 444.321405368 L 520 410.208712417 L 523 429.737741479 L 527 416.756635988 L 530 439.536678506 L 534 421.679052832 L 537 416.825480979 L 541 436.354510041 L 544 433.126444916 L 547 420.145339425 L 551 421.793794483 L 554 434.820796635 L 558 423.465197871 L 561 434.866693295 L 565 451.144708902 L 568 443.040123594 L 571 428.433511375 L 575 417.077912612 L 578 423.602887853 L 582 439.88090346 L 585 430.150811424 L 589 433.42477321 L 592 435.073228268 L 595 417.215602594 L 599 409.111017285 L 602 431.891059803 L 606 425.411981223 L 609 417.307395915 L 613 420.5813577 L 616 415.727785848 L 620 420.627254361"/>
		</g>
		<text class="x-axis-label" x="40.0" y="540">0</text>
		<path class="x-notch" d="M 57.1597633136 525 L 57.1597633136 530"/>
		<text class="x-axis-label" x="74.3195266272" y="540">10</text>
		<path class="x-notch" d="M 91.4792899408 525 L 91.4792899408 530"/>
		<text class="x-axis-label" x="108.639053254" y="540">20</text>
		<path class="x-notch" d="M 125.798816568 525 L 125.798816568 530"/>
		<text class="x-axis-label" x="142.958579882" y="540">30</text>
		<path class="x-notch" d="M 160.118343195 525 L 160.118343195 530"/>
		<text class="x-axis-label" x="177.278106509" y="540">40</text>
		<path class="x-notch" d="M 194.437869822 525 L 194.437869822 530"/>
		<text class="x-axis-label" x="211.597633136" y="540">50</text>
		<path class="x-notch" d="M 228.75739645 525 L 228.75739645 530"/>
		<text class="x-axis-label" x="245.917159763" y="540">60</text>
		<path class="x-notch" d="M 263.076923077 525 L 263.076923077 530"/>
		<text class="x-axis-label" x="280.236686391" y="540">70</text>
		<path class="x-notch" d="M 297.396449704 525 L 297.396449704 530"/>
		<text class="x-axis-label" x="314.556213018" y="540">80</text>
		<path class="x-notch" d="M 331.715976331 525 L 331.715976331 530"/>
		<text class="x-axis-label" x="348.875739645" y="540">90</text>
		<path class="x-notch" d="M 366.035502959 525 L 366.035502959 530"/>
		<text class="x-axis-label" x="383.195266272" y="540">100</text>
		<path class="x-notch" d="M 400.355029586 525 L 400.355029586 530"/>
		<text class="x-axis-label" x="417.514792899" y="540">110</text>
		<path class="x-notch" d="M 434.674556213 525 L 434.674556213 530"/>
		<text class="x-axis-label" x="451.834319527" y="540">120</text>
		<path class="x-notch" d="M 468.99408284 525 L 468.99408284 530"/>
		<text class="x-axis-label" x="486.153846154" y="540">130</text>
		<path class="x-notch" d="M 503.313609467 525 L 503.313609467 530"/>
		<text class="x-axis-label" x="520.473372781" y="540">140</text>
		<path class="x-notch" d="M 537.633136095 525 L 537.633136095 530"/>
		<text class="x-axis-label" x="554.792899408" y="540">150</text>
		<path class="x-notch" d="M 571.952662722 525 L 571.952662722 530"/>
		<text class="x-axis-label" x="589.112426036" y="540">160</text>
		<path class="x-notch" d="M 606.272189349 525 L 606.272189349 530"/>
	</g>
</svg>
