<?xml version="1.0" ?>
<svg height="600" version="1.1" width="800" xmlns="http://www.w3.org/2000/svg" xmlns:svg="http://www.w3.org/2000/svg">
	<style type="text/css">

.x-axis-path, .y-gridline, .x-notch { fill:none; stroke: #a7a9ac; stroke-width:1; }



.y-gridline { stroke-width: 1; }

.y-axis-path, .y-axis-path2, .x-notch-left, .x-notch-right { display: none;}



.x-axis-label, .data-point-label {font-size: 12px; font-weight:normal; font-family: sans-serif; fill: #58595b; text-anchor:middle;}

.y-axis-label {font-size: 12px; font-family: helvetica; fill: #a7a9ac; text-anchor:end;}



.series-1-line { fill: none; stroke: #10b80c; stroke-width:2; }



.series-2-line { fill: none; stroke: #e90f0a; stroke-width: 2;}
</style>
	<rect fill="white" height="600" width="800" x="0" y="0"/>
	<g id="grid" transform="translate(70, 30)">
		<g class="x-axis" id="x_axis">
			<path class="x-axis-path" d="M 0 525 L 660 525"/>
			<path class="x-notch-left" d="M 0 525, L 0 535"/>
			<path class="x-notch-right" d="M 660 525, L 660 535"/>
		</g>
		<g class="y-axis" id="y_axis">
			<path class="y-axis-path" d="M 0 525 L 0 0"/>
			<path class="y-axis-path-2" d="M 660 525 L 660 0"/>
			<path class="y-gridline" d="M 0 525 L 660 525"/>
			<text class="y-axis-label" x="-5" y="525">-200</text>
			<path class="y-gridline" d="M 0 394 L 660 394"/>
			<text class="y-axis-label" x="-5" y="394"> 0</text>
			<path class="y-gridline" d="M 0 263 L 660 263"/>
			<text class="y-axis-label" x="-5" y="263">200</text>
			<path class="y-gridline" d="M 0 132 L 660 132"/>
			<text class="y-axis-label" x="-5" y="132">400</text>
			<path class="y-gridline" d="M 0 1 L 660 1"/>
			<text class="y-axis-label" x="-5" y="1">600</text>
		</g>
		<g>
			<path class="series-1-line" d="M 40 450.24993375 L 45 395.367445014 L 51 329.875785752 L 57 361.648547647 L 62 418.666109872 L 68 431.852890379 L 74 412.902896308 L 79 394.494112484 L 85 405.357796325 L 91 330.573750398 L 96 363.352825098 L 102 328.062630554 L 108 397.857828473 L 113 343.517758043 L 119 315.739271805 L 125 364.39344442 L 130 348.61822832 L 136 300.550398083 L 142 333.329472783 L 148 253.511446716 L 153 217.369570868 L 159 234.273547653 L 165 214.858451025 L 170 147.121010846 L 176 186.714744045 L 182 164.279500945 L 187 185.443092314 L 193 101.210820163 L 199 133.680631865 L 204 150.739240149 L 210 172.986460072 L 216 187.258077192 L 221 108.29173243 L 227 157.488323351 L 233 181.904008441 L 239 121.29048976 L 244 146.093961657 L 250 151.61440236 L 256 164.104133061 L 261 117.275770937 L 267 143.937236943 L 273 99.6639187336 L 278 36.4953561371 L 284 86.5436283637 L 290 104.067339205 L 295 73.5006537434 L 301 109.764977472 L 307 100.184685815 L 312 0.0 L 318 139.103935274 L 324 30.5558598487 L 330 54.3518108825 L 335 123.295327496 L 341 131.061549115 L 347 35.9881591894 L 352 282.500583592 L 358 121.912968338 L 364 55.7242592692 L 369 144.725172632 L 375 185.093271387 L 381 130.985148206 L 386 202.097129987 L 392 169.207347859 L 398 120.984886123 L 403 174.827670377 L 409 231.845232602 L 415 201.898281197 L 420 219.344676288 L 426 221.147920714 L 432 275.533123274 L 438 209.344414205 L 443 238.251661128 L 449 324.696322518 L 455 301.409398112 L 460 394.514086502 L 466 341.722747183 L 472 324.70806297 L 477 390.011699056 L 483 315.304968878 L 489 371.393534049 L 494 359.102358919 L 500 407.447268535 L 506 322.983049135 L 511 309.530929702 L 517 380.100493176 L 523 406.916590681 L 529 418.168061329 L 534 353.450767622 L 540 377.866452712 L 546 408.399746495 L 551 418.334433282 L 557 374.680849128 L 563 345.353631779 L 568 395.556535505 L 574 374.05028946 L 580 358.27507336 L 585 359.22663648 L 591 365.598758488 L 597 399.694617049 L 602 403.046592585 L 608 416.078741593 L 614 389.848986466 L 620 379.494329253"/>
			<path class="series-2-line" d="M 40 390.125824234 L 45 387.281608624 L 51 390.477685959 L 57 414.814788597 L 62 387.809401212 L 68 366.84430677 L 74 412.322434712 L 79 373.236461439 L 85 361.331806414 L 91 400.769641411 L 96 385.844839914 L 102 389.040917249 L 108 371.095969279 L 113 401.473364861 L 119 410.70973514 L 125 392.76478717 L 130 414.081743336 L 136 408.217381255 L 142 393.292579758 L 148 393.46851062 L 153 411.765320314 L 159 399.860665289 L 165 400.036596151 L 170 400.212527014 L 176 382.267579045 L 182 382.443509907 L 187 412.820905489 L 193 394.87595752 L 199 428.273499573 L 204 392.207672773 L 210 371.242578331 L 216 416.720706273 L 221 401.795904776 L 227 417.072567998 L 233 411.208205916 L 239 360.041646756 L 244 411.560067641 L 250 408.715852032 L 256 378.690318175 L 261 415.108006701 L 267 412.263791091 L 273 403.379282538 L 278 397.514920456 L 284 397.690851319 L 290 406.927221597 L 295 379.921834212 L 301 410.299229794 L 307 407.455014184 L 312 404.610798575 L 318 410.827022381 L 324 417.043246187 L 330 390.037858802 L 335 387.193643193 L 341 387.369574055 L 347 411.706676693 L 352 387.72143578 L 358 384.877220171 L 364 379.012858089 L 369 427.511132503 L 375 406.546038062 L 381 400.68167598 L 386 412.93819273 L 392 394.993244761 L 398 413.290054455 L 403 410.445838846 L 409 383.440451461 L 415 377.576089379 L 420 398.893045545 L 426 386.98839052 L 432 417.365786102 L 438 411.501424021 L 443 411.677354883 L 449 387.69211397 L 455 402.968777192 L 460 400.124561583 L 466 424.46166422 L 472 403.496569779 L 477 379.511328866 L 483 406.868577976 L 489 407.044508839 L 494 355.877949678 L 500 386.25534526 L 506 404.552154954 L 511 416.808671704 L 517 395.843577263 L 523 368.838189878 L 529 414.31631782 L 534 414.492248682 L 540 408.627886601 L 546 390.682938631 L 551 405.959601854 L 557 418.216118604 L 563 433.492781826 L 568 409.507540913 L 574 382.502153528 L 580 403.819109694 L 585 407.015187028 L 591 389.070239059 L 597 404.346902281 L 602 386.401954312 L 608 389.598031646 L 614 392.794108981 L 620 392.970039843"/>
		</g>
		<text class="x-axis-label" x="40.0" y="540">0</text>
		<path class="x-notch" d="M 68.431372549 525 L 68.431372549 530"/>
		<text class="x-axis-label" x="96.862745098" y="540">10</text>
		<path class="x-notch" d="M 125.294117647 525 L 125.294117647 530"/>
		<text class="x-axis-label" x="153.725490196" y="540">20</text>
		<path class="x-notch" d="M 182.156862745 525 L 182.156862745 530"/>
		<text class="x-axis-label" x="210.588235294" y="540">30</text>
		<path class="x-notch" d="M 239.019607843 525 L 239.019607843 530"/>
		<text class="x-axis-label" x="267.450980392" y="540">40</text>
		<path class="x-notch" d="M 295.882352941 525 L 295.882352941 530"/>
		<text class="x-axis-label" x="324.31372549" y="540">50</text>
		<path class="x-notch" d="M 352.745098039 525 L 352.745098039 530"/>
		<text class="x-axis-label" x="381.176470588" y="540">60</text>
		<path class="x-notch" d="M 409.607843137 525 L 409.607843137 530"/>
		<text class="x-axis-label" x="438.039215686" y="540">70</text>
		<path class="x-notch" d="M 466.470588235 525 L 466.470588235 530"/>
		<text class="x-axis-label" x="494.901960784" y="540">80</text>
		<path class="x-notch" d="M 523.333333333 525 L 523.333333333 530"/>
		<text class="x-axis-label" x="551.764705882" y="540">90</text>
		<path class="x-notch" d="M 580.196078431 525 L 580.196078431 530"/>
		<text class="x-axis-label" x="608.62745098" y="540">100</text>
		<path class="x-notch" d="M 637.058823529 525 L 637.058823529 530"/>
	</g>
</svg>
