<?xml version="1.0" ?>
<svg height="600" version="1.1" width="800" xmlns="http://www.w3.org/2000/svg" xmlns:svg="http://www.w3.org/2000/svg">
	<style type="text/css">

.x-axis-path, .y-gridline, .x-notch { fill:none; stroke: #a7a9ac; stroke-width:1; }



.y-gridline { stroke-width: 1; }

.y-axis-path, .y-axis-path2, .x-notch-left, .x-notch-right { display: none;}



.x-axis-label, .data-point-label {font-size: 12px; font-weight:normal; font-family: sans-serif; fill: #58595b; text-anchor:middle;}

.y-axis-label {font-size: 12px; font-family: helvetica; fill: #a7a9ac; text-anchor:end;}



.series-1-line { fill: none; stroke: #10b80c; stroke-width:2; }



.series-2-line { fill: none; stroke: #e90f0a; stroke-width: 2;}
</style>
	<rect fill="white" height="600" width="800" x="0" y="0"/>
	<g id="grid" transform="translate(70, 30)">
		<g class="x-axis" id="x_axis">
			<path class="x-axis-path" d="M 0 525 L 660 525"/>
			<path class="x-notch-left" d="M 0 525, L 0 535"/>
			<path class="x-notch-right" d="M 660 525, L 660 535"/>
		</g>
		<g class="y-axis" id="y_axis">
			<path class="y-axis-path" d="M 0 525 L 0 0"/>
			<path class="y-axis-path-2" d="M 660 525 L 660 0"/>
			<path class="y-gridline" d="M 0 525 L 660 525"/>
			<text class="y-axis-label" x="-5" y="525">-200</text>
			<path class="y-gridline" d="M 0 394 L 660 394"/>
			<text class="y-axis-label" x="-5" y="394"> 0</text>
			<path class="y-gridline" d="M 0 263 L 660 263"/>
			<text class="y-axis-label" x="-5" y="263">200</text>
			<path class="y-gridline" d="M 0 132 L 660 132"/>
			<text class="y-axis-label" x="-5" y="132">400</text>
			<path class="y-gridline" d="M 0 1 L 660 1"/>
			<text class="y-axis-label" x="-5" y="1">600</text>
		</g>
		<g>
			<path class="series-1-line" d="M 40 434.536257035 L 44 437.529272506 L 48 387.829881833 L 53 360.330045064 L 57 345.613548156 L 62 369.683526085 L 66 364.590770235 L 71 363.052563039 L 75 391.321396151 L 80 378.641906599 L 84 348.356668176 L 89 381.468662999 L 93 360.786412933 L 98 388.47319762 L 102 391.154598308 L 107 388.867996814 L 111 407.388248397 L 116 393.960364548 L 120 383.504980927 L 125 369.307950079 L 129 392.712868777 L 134 369.245541318 L 138 355.589053491 L 143 372.425417904 L 147 365.753186914 L 152 366.917046305 L 156 374.89881666 L 161 325.719216307 L 165 321.229261583 L 170 319.711807089 L 174 306.242417836 L 179 300.526108159 L 183 317.404302236 L 188 245.027397003 L 192 244.091990933 L 197 234.052309864 L 201 240.454280817 L 206 230.456105151 L 210 276.767142387 L 215 236.151274011 L 219 204.05763221 L 224 210.459603162 L 228 228.377053619 L 233 239.227236434 L 237 205.096587276 L 242 225.757609723 L 246 187.116490599 L 251 120.102537397 L 255 150.99042629 L 260 184.85049115 L 264 138.539303257 L 269 170.404190425 L 273 93.7661719037 L 278 122.61705344 L 282 121.348955624 L 287 132.781186863 L 291 115.507892279 L 296 138.892058276 L 300 100.500295831 L 305 92.539127521 L 309 0.0 L 314 58.533081374 L 318 87.5710614847 L 323 75.9930864174 L 327 18.7277147438 L 332 70.3183689452 L 336 60.9229944057 L 341 34.6495125909 L 345 105.134528722 L 350 54.4792167364 L 354 87.0506685379 L 359 50.7374188521 L 363 114.051403833 L 368 157.327682737 L 372 151.237175911 L 377 183.91271548 L 381 163.105949205 L 386 139.991741932 L 390 119.850034888 L 395 111.6395099 L 399 209.582944199 L 404 227.126197507 L 408 205.300603293 L 413 189.274740625 L 417 237.040736793 L 422 229.03806308 L 426 273.935646788 L 431 258.740864963 L 435 277.988758143 L 440 261.318264684 L 444 250.072981363 L 449 287.861792025 L 453 286.572941508 L 458 300.229278678 L 462 277.510021255 L 467 274.184163382 L 471 324.112007376 L 476 290.022863621 L 480 308.293758525 L 485 336.042801316 L 489 327.416573776 L 494 337.892559441 L 498 359.260470783 L 503 354.354813508 L 507 347.495483944 L 512 385.180206837 L 516 371.939421563 L 521 379.734093343 L 525 389.565772479 L 530 397.796899512 L 534 408.771922797 L 539 404.094869499 L 543 420.411767853 L 548 403.28406644 L 552 389.024777487 L 557 393.389741084 L 561 375.47213997 L 566 396.486606865 L 570 393.680539311 L 575 392.453946898 L 579 393.306191506 L 584 381.499612461 L 588 374.931144978 L 593 380.044502873 L 597 393.825356252 L 602 403.03348156 L 606 394.615105296 L 611 395.966063261 L 615 390.000396905 L 620 389.501446088"/>
			<path class="series-2-line" d="M 40 398.451783933 L 44 391.94910451 L 48 385.446425086 L 53 393.535488903 L 57 399.192595513 L 62 392.689916089 L 66 382.944627057 L 71 387.791081265 L 75 390.205578266 L 80 394.241380072 L 84 394.223919866 L 89 399.881026476 L 93 387.703780237 L 98 386.065015227 L 102 396.58603625 L 107 391.704661631 L 111 397.361768241 L 116 391.66974122 L 120 396.516195428 L 125 384.338949189 L 129 386.75344619 L 134 398.085119616 L 138 396.446354606 L 143 380.215846356 L 147 395.600781792 L 152 389.908754771 L 156 395.565861381 L 161 402.844272795 L 165 393.909636165 L 170 395.513480764 L 174 396.306672961 L 179 388.993341135 L 183 397.893057354 L 188 388.147768322 L 192 393.804874932 L 197 397.030024335 L 201 396.201911727 L 206 392.941841913 L 210 394.545686512 L 215 393.717573904 L 219 391.268156492 L 224 390.440043884 L 228 395.286498092 L 233 396.079690288 L 237 395.25157768 L 242 383.074331442 L 246 390.352742856 L 251 397.63115427 L 255 402.477608478 L 260 386.247100228 L 264 388.661597229 L 269 399.182618252 L 273 390.247981622 L 278 396.715740635 L 282 391.023713613 L 287 395.870167821 L 291 389.367488398 L 296 395.024595008 L 300 395.007134802 L 305 390.125760183 L 309 395.782866793 L 314 387.658882565 L 318 396.558598784 L 323 386.813309752 L 327 390.849111558 L 332 390.831651352 L 336 388.38223394 L 341 394.849992952 L 345 387.536661126 L 350 403.732248965 L 354 398.850874346 L 359 390.726890118 L 363 395.573344326 L 368 396.366536523 L 372 384.189290284 L 377 394.710311307 L 381 401.988722722 L 386 389.811476483 L 390 388.172711473 L 395 390.587208474 L 399 399.486924693 L 404 399.469464487 L 408 375.943084617 L 413 396.191934467 L 417 392.12121225 L 422 393.725056849 L 426 394.518249046 L 431 379.9090456 L 435 398.536590646 L 440 392.844563625 L 444 394.448408223 L 449 397.673557627 L 453 395.224140215 L 458 400.881246824 L 462 390.32530539 L 467 389.497192782 L 471 395.964951794 L 476 388.651619969 L 480 401.604598199 L 485 390.238004362 L 489 394.273806168 L 494 390.203083951 L 498 394.238885756 L 503 386.925553931 L 507 399.878532161 L 512 387.701285922 L 516 384.441216107 L 521 387.666365511 L 525 389.27021011 L 530 387.6314451 L 534 400.584423329 L 539 389.217829493 L 543 390.821674092 L 548 393.236171093 L 552 390.78675368 L 557 391.579945877 L 561 390.751833269 L 566 386.681111053 L 570 399.634089283 L 575 387.456843044 L 579 398.788516469 L 584 393.096489448 L 588 392.26837684 L 593 402.789397864 L 597 388.99084682 L 602 393.026648626 L 606 396.251798029 L 611 392.991728215 L 615 392.974268009 L 620 393.767460206"/>
		</g>
		<text class="x-axis-label" x="40.0" y="540">0</text>
		<path class="x-notch" d="M 62.480620155 525 L 62.480620155 530"/>
		<text class="x-axis-label" x="84.9612403101" y="540">10</text>
		<path class="x-notch" d="M 107.441860465 525 L 107.441860465 530"/>
		<text class="x-axis-label" x="129.92248062" y="540">20</text>
		<path class="x-notch" d="M 152.403100775 525 L 152.403100775 530"/>
		<text class="x-axis-label" x="174.88372093" y="540">30</text>
		<path class="x-notch" d="M 197.364341085 525 L 197.364341085 530"/>
		<text class="x-axis-label" x="219.84496124" y="540">40</text>
		<path class="x-notch" d="M 242.325581395 525 L 242.325581395 530"/>
		<text class="x-axis-label" x="264.80620155" y="540">50</text>
		<path class="x-notch" d="M 287.286821705 525 L 287.286821705 530"/>
		<text class="x-axis-label" x="309.76744186" y="540">60</text>
		<path class="x-notch" d="M 332.248062016 525 L 332.248062016 530"/>
		<text class="x-axis-label" x="354.728682171" y="540">70</text>
		<path class="x-notch" d="M 377.209302326 525 L 377.209302326 530"/>
		<text class="x-axis-label" x="399.689922481" y="540">80</text>
		<path class="x-notch" d="M 422.170542636 525 L 422.170542636 530"/>
		<text class="x-axis-label" x="444.651162791" y="540">90</text>
		<path class="x-notch" d="M 467.131782946 525 L 467.131782946 530"/>
		<text class="x-axis-label" x="489.612403101" y="540">100</text>
		<path class="x-notch" d="M 512.093023256 525 L 512.093023256 530"/>
		<text class="x-axis-label" x="534.573643411" y="540">110</text>
		<path class="x-notch" d="M 557.054263566 525 L 557.054263566 530"/>
		<text class="x-axis-label" x="579.534883721" y="540">120</text>
		<path class="x-notch" d="M 602.015503876 525 L 602.015503876 530"/>
	</g>
</svg>
