<?xml version="1.0" ?>
<svg height="600" version="1.1" width="800" xmlns="http://www.w3.org/2000/svg" xmlns:svg="http://www.w3.org/2000/svg">
	<style type="text/css">

.x-axis-path, .y-gridline, .x-notch { fill:none; stroke: #a7a9ac; stroke-width:1; }



.y-gridline { stroke-width: 1; }

.y-axis-path, .y-axis-path2, .x-notch-left, .x-notch-right { display: none;}



.x-axis-label, .data-point-label {font-size: 12px; font-weight:normal; font-family: sans-serif; fill: #58595b; text-anchor:middle;}

.y-axis-label {font-size: 12px; font-family: helvetica; fill: #a7a9ac; text-anchor:end;}



.series-1-line { fill: none; stroke: #10b80c; stroke-width:2; }



.series-2-line { fill: none; stroke: #e90f0a; stroke-width: 2;}
</style>
	<rect fill="white" height="600" width="800" x="0" y="0"/>
	<g id="grid" transform="translate(70, 30)">
		<g class="x-axis" id="x_axis">
			<path class="x-axis-path" d="M 0 525 L 660 525"/>
			<path class="x-notch-left" d="M 0 525, L 0 535"/>
			<path class="x-notch-right" d="M 660 525, L 660 535"/>
		</g>
		<g class="y-axis" id="y_axis">
			<path class="y-axis-path" d="M 0 525 L 0 0"/>
			<path class="y-axis-path-2" d="M 660 525 L 660 0"/>
			<path class="y-gridline" d="M 0 525 L 660 525"/>
			<text class="y-axis-label" x="-5" y="525">-200</text>
			<path class="y-gridline" d="M 0 394 L 660 394"/>
			<text class="y-axis-label" x="-5" y="394"> 0</text>
			<path class="y-gridline" d="M 0 263 L 660 263"/>
			<text class="y-axis-label" x="-5" y="263">200</text>
			<path class="y-gridline" d="M 0 132 L 660 132"/>
			<text class="y-axis-label" x="-5" y="132">400</text>
			<path class="y-gridline" d="M 0 1 L 660 1"/>
			<text class="y-axis-label" x="-5" y="1">600</text>
		</g>
		<g>
			<path class="series-1-line" d="M 40 405.544420127 L 43 415.363405372 L 46 394.053625076 L 49 385.541322093 L 52 364.750066786 L 56 365.714738738 L 59 370.414840972 L 62 376.844259117 L 65 333.882688216 L 68 359.611919413 L 72 375.380183048 L 75 393.984416864 L 78 366.933091915 L 81 386.851713737 L 84 411.370693581 L 88 390.47584119 L 91 422.811544781 L 94 423.810749094 L 97 412.704202459 L 100 410.417436757 L 104 394.503337932 L 107 376.894455557 L 110 388.477289075 L 113 345.896113717 L 116 391.651956261 L 120 379.957280347 L 123 365.011706346 L 126 378.911985055 L 129 348.194294547 L 132 354.589180331 L 136 350.296300257 L 139 363.089924697 L 142 315.355333967 L 145 323.514068024 L 148 328.940428983 L 152 277.954400599 L 155 326.580745686 L 158 336.987860211 L 161 281.678272264 L 164 255.699069224 L 168 252.893778532 L 171 248.185970553 L 174 253.923662334 L 177 270.383652333 L 180 191.519756494 L 184 210.054925587 L 187 234.089373234 L 190 161.451554244 L 193 162.450758557 L 197 147.954644823 L 200 146.636403944 L 203 137.847302501 L 206 116.883385388 L 209 115.841942969 L 213 98.6825208602 L 216 135.134050277 L 219 69.2063007633 L 222 47.6542543696 L 225 87.5298832472 L 229 115.784293373 L 232 61.5122949731 L 235 48.7109647885 L 238 108.336406553 L 241 77.6532484068 L 245 72.0114479657 L 248 102.929166466 L 251 102.890781232 L 254 103.647719447 L 257 10.1534332999 L 261 24.9531721106 L 264 46.1861819388 L 267 15.0535635257 L 270 89.9320572401 L 273 0.0 L 277 6.04902260151 L 280 90.2663618054 L 283 87.91053138 L 286 5.93386690028 L 289 86.9343008113 L 293 53.8301003888 L 296 128.085932461 L 299 56.7279691161 L 302 118.912582603 L 305 51.7395098059 L 309 107.767650734 L 312 84.4172237063 L 315 85.1396295599 L 318 159.291864548 L 321 102.944687054 L 325 152.816355425 L 328 182.869146185 L 331 186.289392774 L 334 164.979612478 L 338 166.947341615 L 341 226.987711285 L 344 194.298438768 L 347 156.524815601 L 350 184.052967001 L 354 191.900370236 L 357 226.622583741 L 360 226.618730869 L 363 227.894733642 L 366 278.527193099 L 370 240.096375929 L 373 281.839989732 L 376 263.19351781 L 379 210.3395045 L 382 244.681322461 L 386 250.07315106 L 389 277.60130246 L 392 279.049967039 L 395 314.118043727 L 398 292.185601789 L 402 299.583544758 L 405 316.181664203 L 408 287.815951248 L 411 341.388517539 L 414 307.696187837 L 418 276.252238603 L 421 267.601266605 L 424 238.855158107 L 427 178.876147415 L 430 191.912037953 L 434 229.055293734 L 437 173.019447061 L 440 236.760714651 L 443 240.4577597 L 446 225.927113604 L 450 275.798781974 L 453 223.498365583 L 456 253.516623982 L 459 253.201440289 L 462 256.172226612 L 466 294.66440276 L 469 261.940597881 L 472 286.494110087 L 475 317.549958032 L 479 319.932615074 L 482 280.741006817 L 485 301.28229028 L 488 282.39355226 L 491 295.498507521 L 495 287.781527986 L 498 347.441502113 L 501 326.581182084 L 504 315.820498631 L 507 293.749927248 L 511 309.656320329 L 514 314.633221022 L 517 329.502024555 L 520 308.641704526 L 523 358.236574437 L 527 358.751786122 L 530 361.757104806 L 533 386.137415636 L 536 405.295246371 L 539 416.809015166 L 543 410.994552918 L 546 412.408685136 L 549 393.762213214 L 552 394.069691162 L 555 406.897847964 L 559 411.66701492 L 562 407.616400945 L 565 413.873157283 L 568 390.695392062 L 571 392.005927196 L 575 416.248108581 L 578 388.228258808 L 581 413.853892922 L 584 410.529537672 L 587 408.485038068 L 591 389.181372143 L 594 404.880031486 L 597 406.882292985 L 600 402.728081925 L 603 404.661278701 L 607 406.940338659 L 610 392.928217552 L 613 382.444332559 L 616 401.256300112 L 620 390.426551937"/>
			<path class="series-2-line" d="M 40 395.098920368 L 43 386.987610201 L 46 395.063344446 L 49 405.836919426 L 52 385.58532595 L 56 390.96321946 L 59 392.294351867 L 62 386.880882435 L 65 405.747979622 L 68 388.194226881 L 72 398.967801862 L 75 388.158650959 L 78 397.583305572 L 81 392.169836141 L 84 405.641251857 L 88 401.576702793 L 91 405.605675935 L 94 405.587887974 L 97 400.174418542 L 100 386.667426905 L 104 394.74316115 L 107 404.167815763 L 110 383.916222287 L 113 396.038717635 L 116 410.859053718 L 120 391.95638061 L 123 406.776716694 L 126 393.269725056 L 129 395.94977783 L 132 395.931989869 L 136 379.727157496 L 139 381.058289903 L 142 408.018909296 L 145 395.860838026 L 148 389.098448227 L 152 397.174182472 L 155 385.016111202 L 158 390.394004712 L 161 389.027296383 L 164 389.009508422 L 168 403.829844506 L 171 399.765295442 L 174 397.049666746 L 177 405.125400991 L 180 395.665170456 L 184 395.647382495 L 187 379.442550122 L 190 398.309647309 L 193 398.291859348 L 197 395.576230652 L 200 388.813840852 L 203 390.144973259 L 206 396.871787137 L 209 399.551839911 L 213 391.440529744 L 216 384.678139945 L 219 408.940918602 L 222 402.178528803 L 225 387.322616798 L 229 396.74727141 L 232 391.333801979 L 235 387.269252915 L 238 395.34498716 L 241 392.629358464 L 245 376.424526091 L 248 391.244862174 L 251 395.273835316 L 254 380.417923311 L 257 391.191498292 L 261 395.220471434 L 264 395.202683473 L 267 410.023019556 L 270 405.958470493 L 273 387.055797384 L 277 388.386929791 L 280 400.509425139 L 283 397.793796443 L 286 400.473849217 L 289 388.315777947 L 293 395.042591825 L 296 382.884520555 L 299 412.542980683 L 302 389.593546471 L 305 397.669280717 L 309 388.209050182 L 312 398.982625163 L 315 389.522394628 L 318 393.55136777 L 321 396.231420544 L 325 400.260393687 L 328 392.14908352 L 331 382.688852985 L 334 390.76458723 L 338 397.491401108 L 341 393.426852044 L 344 388.013382612 L 347 386.646674284 L 350 404.164851103 L 354 387.96001873 L 357 387.942230769 L 360 386.57552244 L 363 396.000177053 L 366 386.539946518 L 370 382.475397454 L 373 391.900052067 L 376 405.371467783 L 379 389.16663541 L 382 395.893449288 L 386 394.526740959 L 389 412.044917778 L 392 394.491165037 L 395 393.124456709 L 398 393.106668748 L 402 394.437801155 L 405 380.930809517 L 408 384.959782659 L 411 390.337676169 L 414 383.57528637 L 418 394.34886135 L 421 374.097267874 L 424 384.870842855 L 427 375.41061232 L 430 391.579868771 L 434 382.119638237 L 437 388.846452114 L 440 386.130823418 L 443 386.113035457 L 446 388.793088231 L 450 392.822061373 L 453 395.502114148 L 456 392.786485452 L 459 387.37301602 L 462 395.448750265 L 466 385.988519731 L 469 385.97073177 L 472 394.046466015 L 475 387.284076216 L 479 381.870606784 L 482 391.295261397 L 485 393.975314171 L 488 392.608605843 L 491 397.986499353 L 495 389.875189186 L 498 392.55524196 L 501 383.095011425 L 504 376.332621626 L 507 397.897559548 L 511 387.088408646 L 514 397.861983626 L 517 391.099593827 L 520 381.639363292 L 523 376.225893861 L 527 399.13975215 L 530 401.819804925 L 533 384.266052184 L 536 392.341786429 L 539 382.881555895 L 543 393.655130875 L 546 381.497059605 L 549 394.968475321 L 552 397.648528096 L 555 393.583979032 L 559 384.123748497 L 562 382.757040168 L 565 404.32197809 L 568 388.117145717 L 571 392.14611886 L 575 396.175092002 L 578 398.855144776 L 581 397.488436448 L 584 388.028205913 L 587 389.35933832 L 591 400.1329133 L 594 369.089956883 L 597 370.42108929 L 600 385.241425373 L 603 397.363920721 L 607 408.137495702 L 610 382.490220755 L 613 385.17027353 L 616 394.594928142 L 620 398.623901285"/>
		</g>
		<text class="x-axis-label" x="40.0" y="540">0</text>
		<path class="x-notch" d="M 56.0220994475 525 L 56.0220994475 530"/>
		<text class="x-axis-label" x="72.044198895" y="540">10</text>
		<path class="x-notch" d="M 88.0662983425 525 L 88.0662983425 530"/>
		<text class="x-axis-label" x="104.08839779" y="540">20</text>
		<path class="x-notch" d="M 120.110497238 525 L 120.110497238 530"/>
		<text class="x-axis-label" x="136.132596685" y="540">30</text>
		<path class="x-notch" d="M 152.154696133 525 L 152.154696133 530"/>
		<text class="x-axis-label" x="168.17679558" y="540">40</text>
		<path class="x-notch" d="M 184.198895028 525 L 184.198895028 530"/>
		<text class="x-axis-label" x="200.220994475" y="540">50</text>
		<path class="x-notch" d="M 216.243093923 525 L 216.243093923 530"/>
		<text class="x-axis-label" x="232.26519337" y="540">60</text>
		<path class="x-notch" d="M 248.287292818 525 L 248.287292818 530"/>
		<text class="x-axis-label" x="264.309392265" y="540">70</text>
		<path class="x-notch" d="M 280.331491713 525 L 280.331491713 530"/>
		<text class="x-axis-label" x="296.35359116" y="540">80</text>
		<path class="x-notch" d="M 312.375690608 525 L 312.375690608 530"/>
		<text class="x-axis-label" x="328.397790055" y="540">90</text>
		<path class="x-notch" d="M 344.419889503 525 L 344.419889503 530"/>
		<text class="x-axis-label" x="360.44198895" y="540">100</text>
		<path class="x-notch" d="M 376.464088398 525 L 376.464088398 530"/>
		<text class="x-axis-label" x="392.486187845" y="540">110</text>
		<path class="x-notch" d="M 408.508287293 525 L 408.508287293 530"/>
		<text class="x-axis-label" x="424.53038674" y="540">120</text>
		<path class="x-notch" d="M 440.552486188 525 L 440.552486188 530"/>
		<text class="x-axis-label" x="456.574585635" y="540">130</text>
		<path class="x-notch" d="M 472.596685083 525 L 472.596685083 530"/>
		<text class="x-axis-label" x="488.61878453" y="540">140</text>
		<path class="x-notch" d="M 504.640883978 525 L 504.640883978 530"/>
		<text class="x-axis-label" x="520.662983425" y="540">150</text>
		<path class="x-notch" d="M 536.685082873 525 L 536.685082873 530"/>
		<text class="x-axis-label" x="552.70718232" y="540">160</text>
		<path class="x-notch" d="M 568.729281768 525 L 568.729281768 530"/>
		<text class="x-axis-label" x="584.751381215" y="540">170</text>
		<path class="x-notch" d="M 600.773480663 525 L 600.773480663 530"/>
		<text class="x-axis-label" x="616.79558011" y="540">180</text>
		<path class="x-notch" d="M 632.817679558 525 L 632.817679558 530"/>
	</g>
</svg>
