<?xml version="1.0" ?>
<svg height="600" version="1.1" width="800" xmlns="http://www.w3.org/2000/svg" xmlns:svg="http://www.w3.org/2000/svg">
	<style type="text/css">

.x-axis-path, .y-gridline, .x-notch { fill:none; stroke: #a7a9ac; stroke-width:1; }



.y-gridline { stroke-width: 1; }

.y-axis-path, .y-axis-path2, .x-notch-left, .x-notch-right { display: none;}



.x-axis-label, .data-point-label {font-size: 12px; font-weight:normal; font-family: sans-serif; fill: #58595b; text-anchor:middle;}

.y-axis-label {font-size: 12px; font-family: helvetica; fill: #a7a9ac; text-anchor:end;}



.series-1-line { fill: none; stroke: #10b80c; stroke-width:2; }



.series-2-line { fill: none; stroke: #e90f0a; stroke-width: 2;}
</style>
	<rect fill="white" height="600" width="800" x="0" y="0"/>
	<g id="grid" transform="translate(70, 30)">
		<g class="x-axis" id="x_axis">
			<path class="x-axis-path" d="M 0 525 L 660 525"/>
			<path class="x-notch-left" d="M 0 525, L 0 535"/>
			<path class="x-notch-right" d="M 660 525, L 660 535"/>
		</g>
		<g class="y-axis" id="y_axis">
			<path class="y-axis-path" d="M 0 525 L 0 0"/>
			<path class="y-axis-path-2" d="M 660 525 L 660 0"/>
			<path class="y-gridline" d="M 0 525 L 660 525"/>
			<text class="y-axis-label" x="-5" y="525">-200</text>
			<path class="y-gridline" d="M 0 394 L 660 394"/>
			<text class="y-axis-label" x="-5" y="394"> 0</text>
			<path class="y-gridline" d="M 0 263 L 660 263"/>
			<text class="y-axis-label" x="-5" y="263">200</text>
			<path class="y-gridline" d="M 0 132 L 660 132"/>
			<text class="y-axis-label" x="-5" y="132">400</text>
			<path class="y-gridline" d="M 0 1 L 660 1"/>
			<text class="y-axis-label" x="-5" y="1">600</text>
		</g>
		<g>
			<path class="series-1-line" d="M 40 446.291759755 L 44 407.01821283 L 48 409.207004508 L 52 312.838024454 L 56 386.962732111 L 60 368.080600653 L 64 432.632998055 L 68 426.382286802 L 72 406.310796016 L 76 448.885670973 L 80 431.476542487 L 84 396.054717191 L 88 441.405058456 L 92 416.858890375 L 96 411.740986446 L 100 369.408329571 L 104 372.503720558 L 108 372.370345582 L 112 270.16678927 L 116 383.828416527 L 120 399.328136079 L 124 380.219796606 L 128 379.010166309 L 132 328.351110511 L 136 398.85118818 L 140 371.132806141 L 144 293.28549093 L 148 318.981360028 L 152 301.288587898 L 156 305.00693455 L 160 296.150413001 L 164 316.465005495 L 168 287.840024146 L 172 337.212626675 L 176 280.719878244 L 180 304.489444715 L 185 281.189187966 L 189 218.069251599 L 193 162.086354826 L 197 235.021703155 L 201 233.358773203 L 205 157.607416631 L 209 187.381215372 L 213 204.976893562 L 217 176.522451849 L 221 83.2116981218 L 225 93.5572327102 L 229 210.61728194 L 233 0.0 L 237 87.8323831831 L 241 121.514455556 L 245 94.7592248297 L 249 158.291918915 L 253 144.904168068 L 257 109.482342772 L 261 61.9389489292 L 265 124.848687349 L 269 24.1746860124 L 273 56.4977430457 L 277 23.3415323988 L 281 11.0865888762 L 285 24.8305454379 L 289 114.871991266 L 293 130.655354462 L 297 58.1893158556 L 301 61.0576152023 L 305 80.8058040338 L 309 112.052605746 L 313 180.513276781 L 317 104.195516546 L 321 136.121825928 L 325 30.0099959845 L 330 34.8045979579 L 334 66.957115355 L 338 55.2120234909 L 342 162.75631447 L 346 96.8609117955 L 350 178.972706352 L 354 147.6288107 L 358 85.0752779949 L 362 134.333892892 L 366 140.714601844 L 370 102.007458582 L 374 201.904858309 L 378 199.562420688 L 382 100.021226676 L 386 121.412074491 L 390 174.862606663 L 394 134.512804418 L 398 165.419410484 L 402 240.960569108 L 406 268.4687532 L 410 234.689586887 L 414 103.201812525 L 418 166.508298596 L 422 240.9732019 L 426 233.70278733 L 430 264.779049406 L 434 217.519299207 L 438 231.886211435 L 442 197.54064146 L 446 191.289930207 L 450 236.414063457 L 454 241.944725103 L 458 286.502454691 L 462 284.952628747 L 466 286.971764413 L 470 338.779637603 L 475 249.887009166 L 479 288.327402477 L 483 263.441038749 L 487 306.469213361 L 491 259.322567169 L 495 228.375419167 L 499 343.73625741 L 503 336.46584284 L 507 293.227470281 L 511 343.959088149 L 515 349.263541781 L 519 282.971391456 L 523 326.679073738 L 527 341.442733616 L 531 363.343433089 L 535 352.844252557 L 539 363.189787146 L 543 325.728555216 L 547 343.664429053 L 551 380.575267388 L 555 358.577473975 L 559 355.612080688 L 563 377.456228157 L 567 381.854082479 L 571 359.856289066 L 575 373.430589617 L 579 401.448625367 L 583 338.272136996 L 587 379.091248963 L 591 411.753618019 L 595 396.553552178 L 599 417.037800683 L 603 378.330657421 L 607 426.740108637 L 611 394.093749648 L 615 386.879887082 L 620 392.353996725"/>
			<path class="series-2-line" d="M 40 399.051750349 L 44 394.56354445 L 48 383.448150616 L 52 412.095884396 L 56 378.889864109 L 60 381.028846146 L 64 376.540640248 L 68 389.724935511 L 72 405.11829342 L 76 382.957586359 L 80 413.814382785 L 84 411.535239531 L 88 387.165469826 L 92 411.395078315 L 96 420.161248288 L 100 375.909914775 L 104 395.721397974 L 108 402.278505302 L 112 393.372174113 L 116 395.51115615 L 120 375.559511735 L 124 413.043496096 L 128 415.182478133 L 132 377.558332556 L 136 392.951690465 L 140 395.090672502 L 144 377.348090732 L 148 403.786761867 L 152 392.671368033 L 156 401.437538005 L 160 390.322144171 L 164 394.670188854 L 168 365.882293857 L 172 403.366278218 L 176 414.341510837 L 180 396.598929067 L 185 398.737911104 L 189 409.713143722 L 193 427.315564276 L 197 407.363919861 L 201 394.039463381 L 205 393.969382773 L 209 387.272114229 L 213 384.992970976 L 217 415.849767401 L 221 398.107185631 L 225 406.873355604 L 229 395.75796177 L 233 413.360382324 L 237 395.617800554 L 241 382.293344074 L 245 406.522952564 L 249 388.780370794 L 253 395.337478122 L 257 393.058334868 L 261 386.361066325 L 265 379.663797781 L 269 390.639030399 L 273 417.077701534 L 277 405.9623077 L 281 408.101289737 L 285 403.613083838 L 289 385.870502068 L 293 407.891047913 L 297 412.239092595 L 301 381.242134953 L 305 387.799242281 L 309 409.819788126 L 313 398.704394291 L 317 400.843376328 L 321 402.982358366 L 325 400.703215112 L 330 413.887510376 L 334 380.681490089 L 338 389.447660062 L 342 398.213830035 L 346 411.398125298 L 350 424.582420562 L 354 389.16733763 L 358 397.933507603 L 362 366.936549961 L 366 391.166158451 L 370 384.468889907 L 374 379.980684008 L 378 386.537791336 L 382 393.094898664 L 386 401.861068637 L 390 406.209113319 L 394 397.30278213 L 398 386.187388296 L 402 390.535432978 L 406 392.674415015 L 410 392.604334407 L 414 385.907065864 L 418 403.509486418 L 422 403.439405809 L 426 403.369325201 L 430 365.745179624 L 434 401.02010134 L 438 385.486582215 L 442 387.625564252 L 446 400.809859516 L 450 411.785092134 L 454 396.251573009 L 458 409.435868273 L 462 378.438910631 L 466 393.83226854 L 470 395.971250577 L 475 378.228668807 L 479 398.040152006 L 483 389.133820817 L 487 382.436552273 L 491 400.038972827 L 495 388.923578993 L 499 384.435373094 L 503 384.365292486 L 507 395.340525105 L 511 393.061381851 L 515 412.87286505 L 519 401.757471216 L 523 375.178638865 L 527 383.944808838 L 531 399.338166747 L 535 386.013710267 L 539 394.77988024 L 543 365.991985244 L 547 396.848781669 L 551 396.778701061 L 555 367.990806065 L 559 385.593226619 L 563 409.822835109 L 567 398.707441274 L 571 369.919546278 L 575 391.940092122 L 579 400.706262095 L 583 420.517745294 L 587 413.820476751 L 591 387.2416444 L 595 418.098440825 L 599 395.937733765 L 603 389.240465221 L 607 404.633823129 L 611 400.145617231 L 615 391.239286042 L 620 384.542017498"/>
		</g>
		<text class="x-axis-label" x="40.0" y="540">0</text>
		<path class="x-notch" d="M 60.1388888889 525 L 60.1388888889 530"/>
		<text class="x-axis-label" x="80.2777777778" y="540">10</text>
		<path class="x-notch" d="M 100.416666667 525 L 100.416666667 530"/>
		<text class="x-axis-label" x="120.555555556" y="540">20</text>
		<path class="x-notch" d="M 140.694444444 525 L 140.694444444 530"/>
		<text class="x-axis-label" x="160.833333333" y="540">30</text>
		<path class="x-notch" d="M 180.972222222 525 L 180.972222222 530"/>
		<text class="x-axis-label" x="201.111111111" y="540">40</text>
		<path class="x-notch" d="M 221.25 525 L 221.25 530"/>
		<text class="x-axis-label" x="241.388888889" y="540">50</text>
		<path class="x-notch" d="M 261.527777778 525 L 261.527777778 530"/>
		<text class="x-axis-label" x="281.666666667" y="540">60</text>
		<path class="x-notch" d="M 301.805555556 525 L 301.805555556 530"/>
		<text class="x-axis-label" x="321.944444444" y="540">70</text>
		<path class="x-notch" d="M 342.083333333 525 L 342.083333333 530"/>
		<text class="x-axis-label" x="362.222222222" y="540">80</text>
		<path class="x-notch" d="M 382.361111111 525 L 382.361111111 530"/>
		<text class="x-axis-label" x="402.5" y="540">90</text>
		<path class="x-notch" d="M 422.638888889 525 L 422.638888889 530"/>
		<text class="x-axis-label" x="442.777777778" y="540">100</text>
		<path class="x-notch" d="M 462.916666667 525 L 462.916666667 530"/>
		<text class="x-axis-label" x="483.055555556" y="540">110</text>
		<path class="x-notch" d="M 503.194444444 525 L 503.194444444 530"/>
		<text class="x-axis-label" x="523.333333333" y="540">120</text>
		<path class="x-notch" d="M 543.472222222 525 L 543.472222222 530"/>
		<text class="x-axis-label" x="563.611111111" y="540">130</text>
		<path class="x-notch" d="M 583.75 525 L 583.75 530"/>
		<text class="x-axis-label" x="603.888888889" y="540">140</text>
		<path class="x-notch" d="M 624.027777778 525 L 624.027777778 530"/>
	</g>
</svg>
