<?xml version="1.0" ?>
<svg height="600" version="1.1" width="800" xmlns="http://www.w3.org/2000/svg" xmlns:svg="http://www.w3.org/2000/svg">
	<style type="text/css">

.x-axis-path, .y-gridline, .x-notch { fill:none; stroke: #a7a9ac; stroke-width:1; }



.y-gridline { stroke-width: 1; }

.y-axis-path, .y-axis-path2, .x-notch-left, .x-notch-right { display: none;}



.x-axis-label, .data-point-label {font-size: 12px; font-weight:normal; font-family: sans-serif; fill: #58595b; text-anchor:middle;}

.y-axis-label {font-size: 12px; font-family: helvetica; fill: #a7a9ac; text-anchor:end;}



.series-1-line { fill: none; stroke: #10b80c; stroke-width:2; }



.series-2-line { fill: none; stroke: #e90f0a; stroke-width: 2;}
</style>
	<rect fill="white" height="600" width="800" x="0" y="0"/>
	<g id="grid" transform="translate(70, 30)">
		<g class="x-axis" id="x_axis">
			<path class="x-axis-path" d="M 0 525 L 660 525"/>
			<path class="x-notch-left" d="M 0 525, L 0 535"/>
			<path class="x-notch-right" d="M 660 525, L 660 535"/>
		</g>
		<g class="y-axis" id="y_axis">
			<path class="y-axis-path" d="M 0 525 L 0 0"/>
			<path class="y-axis-path-2" d="M 660 525 L 660 0"/>
			<path class="y-gridline" d="M 0 525 L 660 525"/>
			<text class="y-axis-label" x="-5" y="525">-200</text>
			<path class="y-gridline" d="M 0 394 L 660 394"/>
			<text class="y-axis-label" x="-5" y="394"> 0</text>
			<path class="y-gridline" d="M 0 263 L 660 263"/>
			<text class="y-axis-label" x="-5" y="263">200</text>
			<path class="y-gridline" d="M 0 132 L 660 132"/>
			<text class="y-axis-label" x="-5" y="132">400</text>
			<path class="y-gridline" d="M 0 1 L 660 1"/>
			<text class="y-axis-label" x="-5" y="1">600</text>
		</g>
		<g>
			<path class="series-1-line" d="M 40 396.883180416 L 45 377.991841988 L 50 409.169795773 L 55 388.964904588 L 60 393.234463461 L 65 393.737238792 L 70 413.498825018 L 75 378.748423849 L 80 384.099802956 L 85 395.168858137 L 90 395.729491263 L 95 389.799805675 L 101 398.937254255 L 106 389.68496424 L 111 357.368507925 L 116 353.563589597 L 121 342.244390117 L 126 310.68129051 L 131 301.409714564 L 136 310.392574348 L 141 283.05972333 L 146 229.456118519 L 151 233.184767275 L 157 236.488522849 L 162 214.564471655 L 167 232.162718756 L 172 201.063084197 L 177 196.137773772 L 182 170.079903648 L 187 114.428675304 L 192 129.090639298 L 197 138.826855791 L 202 157.738655649 L 207 64.6706103378 L 212 71.0070786763 L 218 30.2298238402 L 223 56.5784597815 L 228 0.0 L 233 37.5718428409 L 238 28.9183207377 L 243 1.37302312844 L 248 12.5388093107 L 253 42.2871934058 L 258 34.638347809 L 263 9.56556691684 L 268 59.3842777527 L 274 116.581966876 L 279 167.385766944 L 284 169.008934372 L 289 220.237627623 L 294 143.840160899 L 299 166.538030231 L 304 151.239600617 L 309 184.909357051 L 314 150.815581589 L 319 161.034850403 L 324 164.396463771 L 330 172.220359595 L 335 197.564620373 L 340 150.219601752 L 345 139.982222505 L 350 162.197039516 L 355 176.067074939 L 360 203.130495725 L 365 229.575862668 L 370 211.476452812 L 375 197.704022546 L 380 214.935234259 L 385 243.312207802 L 391 252.101906926 L 396 248.413005532 L 401 253.493778908 L 406 227.938247038 L 411 250.520099437 L 416 200.915010691 L 421 248.319062605 L 426 295.529953859 L 431 289.812714863 L 436 242.119946786 L 441 215.65646941 L 447 262.307164615 L 452 275.655575853 L 457 271.425764342 L 462 261.169099163 L 467 362.814834084 L 472 353.581830001 L 477 302.643902567 L 482 389.570252776 L 487 393.897669444 L 492 387.562376604 L 497 379.218032094 L 502 375.374541903 L 508 383.777919707 L 513 395.967366985 L 518 385.015202893 L 523 400.198791072 L 528 394.307677348 L 533 401.204341735 L 538 368.926457283 L 543 394.502450584 L 548 388.379604336 L 553 395.508001246 L 558 387.917013445 L 564 388.361930981 L 569 402.289824199 L 574 388.478822069 L 579 394.969879205 L 584 395.298779807 L 589 392.981288965 L 594 385.177854571 L 599 396.420784481 L 604 394.489614958 L 609 391.45733927 L 614 398.489306522 L 620 391.651675429"/>
			<path class="series-2-line" d="M 40 392.695300608 L 45 391.943254085 L 50 395.711347813 L 55 394.205944582 L 60 394.207254767 L 65 394.208564953 L 70 386.676308054 L 75 391.951115199 L 80 399.485992469 L 85 396.473875821 L 90 387.434905505 L 95 391.956355941 L 101 396.477806377 L 106 390.452262895 L 111 397.987140165 L 116 394.221666809 L 121 387.442766618 L 126 394.977643888 L 131 391.96552724 L 136 391.213480717 L 141 385.187937235 L 146 393.476171214 L 151 389.710697857 L 157 393.478791585 L 162 395.740171896 L 167 402.521692457 L 172 396.496148975 L 177 391.223962202 L 182 391.978629096 L 187 396.500079532 L 192 391.227892759 L 197 390.475846236 L 202 398.010723506 L 207 392.738536732 L 212 393.493203626 L 218 398.768010771 L 223 391.989110581 L 228 394.250490892 L 233 399.525298036 L 238 388.226257595 L 243 385.967497655 L 248 397.269158468 L 253 388.98354486 L 258 397.271778839 L 263 391.246235357 L 268 395.767685793 L 274 395.01563927 L 279 392.75687933 L 284 394.264902933 L 289 384.472575909 L 294 393.514166596 L 299 398.035617032 L 304 395.023500384 L 309 392.011383735 L 314 382.97241342 L 319 395.02743094 L 324 389.755244167 L 330 393.523337895 L 335 396.538074914 L 340 398.046098516 L 345 398.80076541 L 350 390.515151803 L 355 391.269818697 L 360 390.517772174 L 365 398.052649444 L 370 391.273749254 L 375 385.248205772 L 380 390.523012917 L 385 390.524323102 L 391 390.525633288 L 396 398.060510558 L 401 389.021540242 L 406 399.569844346 L 411 392.790944156 L 416 394.298967758 L 421 393.546921235 L 426 393.548231421 L 431 394.302898315 L 436 391.290781667 L 441 396.565588811 L 447 395.813542288 L 452 389.787998806 L 457 393.556092534 L 462 397.324186262 L 467 396.572139739 L 472 387.533169423 L 477 391.301263151 L 482 395.069356879 L 487 386.030386563 L 492 395.07197725 L 497 394.319930727 L 502 396.581311038 L 508 398.089334641 L 513 396.583931409 L 518 391.311744636 L 523 392.819768238 L 528 391.314365007 L 533 392.822388609 L 538 394.330412212 L 543 390.564938855 L 548 395.839746 L 553 390.567559226 L 558 389.815512704 L 564 398.85710339 L 569 390.571489783 L 574 390.572799969 L 579 396.600963822 L 584 394.342203882 L 589 393.590157359 L 594 396.604894379 L 599 395.852847856 L 604 393.594087916 L 609 386.815187726 L 614 396.610135121 L 620 395.858088598"/>
		</g>
		<text class="x-axis-label" x="40.0" y="540">0</text>
		<path class="x-notch" d="M 65.4385964912 525 L 65.4385964912 530"/>
		<text class="x-axis-label" x="90.8771929825" y="540">10</text>
		<path class="x-notch" d="M 116.315789474 525 L 116.315789474 530"/>
		<text class="x-axis-label" x="141.754385965" y="540">20</text>
		<path class="x-notch" d="M 167.192982456 525 L 167.192982456 530"/>
		<text class="x-axis-label" x="192.631578947" y="540">30</text>
		<path class="x-notch" d="M 218.070175439 525 L 218.070175439 530"/>
		<text class="x-axis-label" x="243.50877193" y="540">40</text>
		<path class="x-notch" d="M 268.947368421 525 L 268.947368421 530"/>
		<text class="x-axis-label" x="294.385964912" y="540">50</text>
		<path class="x-notch" d="M 319.824561404 525 L 319.824561404 530"/>
		<text class="x-axis-label" x="345.263157895" y="540">60</text>
		<path class="x-notch" d="M 370.701754386 525 L 370.701754386 530"/>
		<text class="x-axis-label" x="396.140350877" y="540">70</text>
		<path class="x-notch" d="M 421.578947368 525 L 421.578947368 530"/>
		<text class="x-axis-label" x="447.01754386" y="540">80</text>
		<path class="x-notch" d="M 472.456140351 525 L 472.456140351 530"/>
		<text class="x-axis-label" x="497.894736842" y="540">90</text>
		<path class="x-notch" d="M 523.333333333 525 L 523.333333333 530"/>
		<text class="x-axis-label" x="548.771929825" y="540">100</text>
		<path class="x-notch" d="M 574.210526316 525 L 574.210526316 530"/>
		<text class="x-axis-label" x="599.649122807" y="540">110</text>
		<path class="x-notch" d="M 625.087719298 525 L 625.087719298 530"/>
	</g>
</svg>
