<?xml version="1.0" ?>
<svg height="600" version="1.1" width="800" xmlns="http://www.w3.org/2000/svg" xmlns:svg="http://www.w3.org/2000/svg">
	<style type="text/css">

.x-axis-path, .y-gridline, .x-notch { fill:none; stroke: #a7a9ac; stroke-width:1; }



.y-gridline { stroke-width: 1; }

.y-axis-path, .y-axis-path2, .x-notch-left, .x-notch-right { display: none;}



.x-axis-label, .data-point-label {font-size: 12px; font-weight:normal; font-family: sans-serif; fill: #58595b; text-anchor:middle;}

.y-axis-label {font-size: 12px; font-family: helvetica; fill: #a7a9ac; text-anchor:end;}



.series-1-line { fill: none; stroke: #10b80c; stroke-width:2; }



.series-2-line { fill: none; stroke: #e90f0a; stroke-width: 2;}
</style>
	<rect fill="white" height="600" width="800" x="0" y="0"/>
	<g id="grid" transform="translate(70, 30)">
		<g class="x-axis" id="x_axis">
			<path class="x-axis-path" d="M 0 525 L 660 525"/>
			<path class="x-notch-left" d="M 0 525, L 0 535"/>
			<path class="x-notch-right" d="M 660 525, L 660 535"/>
		</g>
		<g class="y-axis" id="y_axis">
			<path class="y-axis-path" d="M 0 525 L 0 0"/>
			<path class="y-axis-path-2" d="M 660 525 L 660 0"/>
			<path class="y-gridline" d="M 0 525 L 660 525"/>
			<text class="y-axis-label" x="-5" y="525">-200</text>
			<path class="y-gridline" d="M 0 394 L 660 394"/>
			<text class="y-axis-label" x="-5" y="394"> 0</text>
			<path class="y-gridline" d="M 0 263 L 660 263"/>
			<text class="y-axis-label" x="-5" y="263">200</text>
			<path class="y-gridline" d="M 0 132 L 660 132"/>
			<text class="y-axis-label" x="-5" y="132">400</text>
			<path class="y-gridline" d="M 0 1 L 660 1"/>
			<text class="y-axis-label" x="-5" y="1">600</text>
		</g>
		<g>
			<path class="series-1-line" d="M 40 374.329428632 L 43 391.372622728 L 47 401.402628222 L 51 389.213637522 L 55 410.156569382 L 59 387.644111893 L 63 384.401819 L 67 416.749489984 L 71 407.083468066 L 75 414.819540243 L 79 411.052715239 L 83 409.219399441 L 87 334.436243444 L 90 337.485779689 L 94 313.007093641 L 98 335.392233188 L 102 386.681852769 L 106 386.192075362 L 110 352.898080155 L 114 437.123306184 L 118 425.655163708 L 122 421.626072648 L 126 413.467697121 L 130 384.43386379 L 134 375.226935279 L 137 421.371436762 L 141 385.619400238 L 145 364.876855195 L 149 344.691050375 L 153 363.602314973 L 157 343.482460097 L 161 351.382129033 L 165 320.742491256 L 169 362.528672807 L 173 350.273732163 L 177 342.246745284 L 181 287.388652162 L 185 338.121020281 L 188 290.210677056 L 192 308.531970838 L 196 246.201595708 L 200 236.53608503 L 204 206.224152013 L 208 219.433047048 L 212 261.153278655 L 216 169.394402618 L 220 228.319900968 L 224 140.853906159 L 228 263.684388846 L 232 140.726588216 L 235 204.404061201 L 239 200.440408845 L 243 158.625578647 L 247 141.848210072 L 251 123.104612939 L 255 112.521426686 L 259 160.894422782 L 263 87.8806679907 L 267 155.916972148 L 271 84.214036395 L 275 29.2577852177 L 279 71.9284117519 L 282 94.0185658904 L 286 16.908245983 L 290 0.0 L 294 60.2035980369 L 298 143.609817787 L 302 81.4435506565 L 306 82.0682761762 L 310 68.2075310863 L 314 47.9562875627 L 318 14.3018682442 L 322 80.6009793071 L 326 79.0299295649 L 330 73.1000486512 L 333 65.498924587 L 337 106.826012731 L 341 25.717797003 L 345 90.0833988598 L 349 134.589376544 L 353 109.488000329 L 357 143.834619224 L 361 140.985469795 L 365 163.370609341 L 369 139.907756925 L 373 149.839604363 L 377 132.701811676 L 380 117.792513603 L 384 165.706927532 L 388 156.827703782 L 392 172.002827375 L 396 148.146831495 L 400 221.164145751 L 404 216.316048412 L 408 187.740797249 L 412 224.87316222 L 416 212.815048929 L 420 238.149531312 L 424 179.752124538 L 427 166.841774375 L 431 166.450666264 L 435 193.128687038 L 439 210.827290653 L 443 230.656230825 L 447 256.383856672 L 451 221.385387723 L 455 206.050226835 L 459 257.307127064 L 463 293.128672997 L 467 309.942320389 L 471 344.485766635 L 475 301.130570694 L 478 333.215975623 L 482 391.453345102 L 486 328.500791044 L 490 339.21892541 L 494 321.557111852 L 498 311.923809286 L 502 238.746457735 L 506 318.186989776 L 510 343.128328696 L 514 367.610574208 L 518 377.149278183 L 522 378.003039167 L 525 394.325385039 L 529 401.864629864 L 533 388.167992774 L 537 370.637056623 L 541 387.352545959 L 545 410.163548321 L 549 382.473253381 L 553 399.58188618 L 557 390.276799614 L 561 359.112629725 L 565 369.109915867 L 569 382.876062366 L 572 395.167281826 L 576 386.976186947 L 580 396.580329625 L 584 402.677878004 L 588 393.569107549 L 592 396.225500331 L 596 402.224890653 L 600 384.529846503 L 604 387.120800581 L 608 393.349226367 L 612 379.128057165 L 616 415.375465914 L 620 397.189120244"/>
			<path class="series-2-line" d="M 40 392.727520251 L 43 390.135293906 L 47 384.986868188 L 51 406.678535892 L 55 393.861512053 L 59 381.044488215 L 63 402.736155918 L 67 405.256328321 L 71 382.214506988 L 75 386.012779078 L 79 389.811051167 L 83 391.053123882 L 87 407.632392839 L 90 394.815369001 L 94 389.666943283 L 98 401.133813492 L 102 389.594889341 L 106 380.612164562 L 110 404.860031639 L 114 389.486808427 L 118 398.397479264 L 122 393.249053546 L 126 384.266328767 L 130 391.898899917 L 134 396.975271693 L 137 390.548746288 L 141 399.459417124 L 145 409.648187647 L 149 382.772067254 L 153 387.84843903 L 157 400.593408927 L 161 378.829687281 L 165 387.740358117 L 169 413.266324881 L 173 395.336902296 L 177 415.750470312 L 181 414.436343655 L 185 390.116422636 L 188 401.583292845 L 192 398.991066501 L 196 367.002547361 L 200 393.806613812 L 204 401.439184961 L 208 398.846958617 L 212 384.751835091 L 216 407.721602482 L 220 401.295077077 L 224 402.537149793 L 228 396.110624388 L 232 401.186996164 L 235 401.150969193 L 239 385.777745981 L 243 393.41031713 L 247 383.149492665 L 251 380.557266321 L 255 400.970834338 L 259 395.82240862 L 263 385.561584155 L 267 403.418952798 L 271 388.045729586 L 275 402.068799169 L 279 389.251775331 L 282 396.88434648 L 286 377.676824208 L 290 387.865594731 L 294 381.439069326 L 298 394.184039222 L 302 386.479414131 L 306 403.058683088 L 310 386.407360189 L 314 369.75603729 L 318 400.394402801 L 322 390.133578336 L 326 400.322348859 L 330 392.617723767 L 333 396.415995857 L 337 393.823769512 L 341 400.178240975 L 345 392.473615883 L 349 392.437588912 L 353 384.732963821 L 357 374.472139356 L 361 384.660909879 L 365 396.127780088 L 369 382.032656563 L 373 392.221427086 L 377 388.351101055 L 380 385.75887471 L 384 402.338143667 L 388 406.136415756 L 392 395.875591291 L 396 393.283364947 L 400 381.744440795 L 404 404.714208185 L 408 390.61908466 L 412 394.417356749 L 416 395.659429465 L 420 395.623402494 L 424 398.143574896 L 427 382.770351684 L 431 408.296318448 L 435 398.035493983 L 439 392.887068265 L 443 404.353938475 L 447 392.815014323 L 451 383.832289545 L 455 397.855359128 L 459 391.428833723 L 463 400.339504559 L 467 383.688181661 L 471 392.598852497 L 475 391.284725839 L 478 384.858200434 L 482 386.10027315 L 486 401.40144242 L 490 388.584418582 L 494 416.666584719 L 498 388.512364639 L 502 403.813533909 L 506 387.162211011 L 510 398.62908122 L 514 381.977758322 L 518 403.669426025 L 522 384.461903753 L 525 394.650674276 L 529 379.277451064 L 533 386.910022213 L 537 394.542593363 L 541 393.228466705 L 545 388.080040987 L 549 385.487814643 L 553 372.670790804 L 557 393.084358821 L 561 384.101634043 L 565 384.065607072 L 569 394.254377594 L 572 385.271652816 L 576 381.401326785 L 580 392.868196995 L 584 403.056967518 L 588 392.796143053 L 592 391.482016395 L 596 417.007983159 L 600 400.35666026 L 604 409.267331096 L 608 399.006506631 L 612 388.745682166 L 616 381.041057075 L 620 391.229827598"/>
		</g>
		<text class="x-axis-label" x="40.0" y="540">0</text>
		<path class="x-notch" d="M 59.5945945946 525 L 59.5945945946 530"/>
		<text class="x-axis-label" x="79.1891891892" y="540">10</text>
		<path class="x-notch" d="M 98.7837837838 525 L 98.7837837838 530"/>
		<text class="x-axis-label" x="118.378378378" y="540">20</text>
		<path class="x-notch" d="M 137.972972973 525 L 137.972972973 530"/>
		<text class="x-axis-label" x="157.567567568" y="540">30</text>
		<path class="x-notch" d="M 177.162162162 525 L 177.162162162 530"/>
		<text class="x-axis-label" x="196.756756757" y="540">40</text>
		<path class="x-notch" d="M 216.351351351 525 L 216.351351351 530"/>
		<text class="x-axis-label" x="235.945945946" y="540">50</text>
		<path class="x-notch" d="M 255.540540541 525 L 255.540540541 530"/>
		<text class="x-axis-label" x="275.135135135" y="540">60</text>
		<path class="x-notch" d="M 294.72972973 525 L 294.72972973 530"/>
		<text class="x-axis-label" x="314.324324324" y="540">70</text>
		<path class="x-notch" d="M 333.918918919 525 L 333.918918919 530"/>
		<text class="x-axis-label" x="353.513513514" y="540">80</text>
		<path class="x-notch" d="M 373.108108108 525 L 373.108108108 530"/>
		<text class="x-axis-label" x="392.702702703" y="540">90</text>
		<path class="x-notch" d="M 412.297297297 525 L 412.297297297 530"/>
		<text class="x-axis-label" x="431.891891892" y="540">100</text>
		<path class="x-notch" d="M 451.486486486 525 L 451.486486486 530"/>
		<text class="x-axis-label" x="471.081081081" y="540">110</text>
		<path class="x-notch" d="M 490.675675676 525 L 490.675675676 530"/>
		<text class="x-axis-label" x="510.27027027" y="540">120</text>
		<path class="x-notch" d="M 529.864864865 525 L 529.864864865 530"/>
		<text class="x-axis-label" x="549.459459459" y="540">130</text>
		<path class="x-notch" d="M 569.054054054 525 L 569.054054054 530"/>
		<text class="x-axis-label" x="588.648648649" y="540">140</text>
		<path class="x-notch" d="M 608.243243243 525 L 608.243243243 530"/>
	</g>
</svg>
