<?xml version="1.0" ?>
<svg height="600" version="1.1" width="800" xmlns="http://www.w3.org/2000/svg" xmlns:svg="http://www.w3.org/2000/svg">
	<style type="text/css">

.x-axis-path, .y-gridline, .x-notch { fill:none; stroke: #a7a9ac; stroke-width:1; }



.y-gridline { stroke-width: 1; }

.y-axis-path, .y-axis-path2, .x-notch-left, .x-notch-right { display: none;}



.x-axis-label, .data-point-label {font-size: 12px; font-weight:normal; font-family: sans-serif; fill: #58595b; text-anchor:middle;}

.y-axis-label {font-size: 12px; font-family: helvetica; fill: #a7a9ac; text-anchor:end;}



.series-1-line { fill: none; stroke: #10b80c; stroke-width:2; }



.series-2-line { fill: none; stroke: #e90f0a; stroke-width: 2;}
</style>
	<rect fill="white" height="600" width="800" x="0" y="0"/>
	<g id="grid" transform="translate(70, 30)">
		<g class="x-axis" id="x_axis">
			<path class="x-axis-path" d="M 0 525 L 660 525"/>
			<path class="x-notch-left" d="M 0 525, L 0 535"/>
			<path class="x-notch-right" d="M 660 525, L 660 535"/>
		</g>
		<g class="y-axis" id="y_axis">
			<path class="y-axis-path" d="M 0 525 L 0 0"/>
			<path class="y-axis-path-2" d="M 660 525 L 660 0"/>
			<path class="y-gridline" d="M 0 525 L 660 525"/>
			<text class="y-axis-label" x="-5" y="525">-200</text>
			<path class="y-gridline" d="M 0 394 L 660 394"/>
			<text class="y-axis-label" x="-5" y="394"> 0</text>
			<path class="y-gridline" d="M 0 263 L 660 263"/>
			<text class="y-axis-label" x="-5" y="263">200</text>
			<path class="y-gridline" d="M 0 132 L 660 132"/>
			<text class="y-axis-label" x="-5" y="132">400</text>
			<path class="y-gridline" d="M 0 1 L 660 1"/>
			<text class="y-axis-label" x="-5" y="1">600</text>
		</g>
		<g>
			<path class="series-1-line" d="M 40 391.592970345 L 42 390.746791503 L 45 398.085831151 L 47 393.607905567 L 50 394.233696878 L 53 395.230968046 L 55 399.502240769 L 58 399.385286971 L 61 391.110369418 L 63 384.582759196 L 66 391.123900457 L 69 384.40357567 L 71 386.019979933 L 74 373.411774533 L 77 380.98473275 L 79 385.503658709 L 82 382.304988714 L 85 373.466305948 L 87 384.024408476 L 90 396.866114212 L 93 383.652724991 L 95 391.652101737 L 98 379.002692333 L 101 384.677261866 L 103 365.177042839 L 106 365.844038155 L 109 370.761913308 L 111 358.759106334 L 114 363.11300167 L 117 363.367313125 L 119 374.558283416 L 122 347.285529761 L 125 357.582244383 L 127 366.393254184 L 130 340.895062592 L 133 336.265841053 L 135 328.128699391 L 138 320.087700406 L 141 323.519870737 L 143 307.747755734 L 146 310.423231684 L 149 309.09569564 L 151 275.150897654 L 154 276.739617975 L 157 283.2532899 L 159 281.045232855 L 162 238.117317994 L 165 263.505214006 L 167 238.749982127 L 170 255.924975709 L 173 227.441639807 L 175 209.812340125 L 178 179.581911495 L 181 193.221515617 L 183 121.913698586 L 186 132.444331778 L 188 152.549530998 L 191 95.8925275541 L 194 158.808473234 L 196 102.674245602 L 199 126.067395649 L 202 155.403364982 L 204 60.5028214932 L 207 100.183785904 L 210 134.183318934 L 212 65.7780236008 L 215 91.9775526668 L 218 91.2277311074 L 220 100.162567527 L 223 115.975682906 L 226 141.817466784 L 228 136.404081527 L 231 116.2435254 L 234 133.487406928 L 236 124.070795072 L 239 129.814037948 L 242 114.399668133 L 244 86.0813628537 L 247 141.802702995 L 250 144.739566851 L 252 123.629816383 L 255 166.48863967 L 258 92.401912956 L 260 138.93368699 L 263 134.180638832 L 266 127.584140664 L 268 130.603627134 L 271 156.693064249 L 274 95.4688543902 L 276 126.524447114 L 279 181.090143681 L 282 174.204788271 L 284 227.160953398 L 287 203.726395718 L 290 150.714873684 L 292 181.110129309 L 295 204.544483361 L 298 174.31405473 L 300 172.642508166 L 303 203.725570227 L 306 165.873902924 L 308 202.954937548 L 311 161.210135598 L 314 105.227203921 L 316 108.508078297 L 319 60.9717530152 L 322 106.664424658 L 324 83.6837548438 L 327 111.974172553 L 330 123.399061413 L 332 141.826055851 L 335 131.639014946 L 337 169.834274535 L 340 110.535922696 L 343 89.1098456488 L 345 133.082893901 L 348 97.4736258009 L 351 33.5668635412 L 353 33.3121338528 L 356 81.7974498468 L 359 58.1015042605 L 361 0.0 L 364 132.015920271 L 367 159.288255693 L 369 120.404986039 L 372 149.727220704 L 375 171.730808607 L 377 198.081633628 L 380 210.331890211 L 383 163.497106033 L 385 194.992851955 L 388 232.087621247 L 391 255.521975299 L 393 272.779591494 L 396 283.764112552 L 399 285.407986151 L 401 277.999854929 L 404 289.479682462 L 407 304.192307544 L 409 302.63085293 L 412 280.874500032 L 415 302.850618598 L 417 279.856214116 L 420 313.704451191 L 423 289.678229753 L 425 282.008710625 L 428 296.267447841 L 431 289.533388386 L 433 298.991000617 L 436 302.313078998 L 439 299.183296948 L 441 312.272655922 L 444 311.495365026 L 447 318.462924817 L 449 307.67070009 L 452 327.817103315 L 455 319.129716504 L 457 300.413661195 L 460 292.331458205 L 463 301.967835729 L 465 334.605490556 L 468 321.557131959 L 471 314.162735405 L 473 329.920912111 L 476 347.054701688 L 478 353.031863132 L 481 355.968726988 L 484 351.862281261 L 486 352.323041949 L 489 344.282042964 L 492 351.44231732 L 494 368.947586753 L 497 351.249399126 L 500 360.445623452 L 502 370.247031599 L 505 354.791457779 L 508 346.612897507 L 510 359.138276664 L 513 344.232733389 L 516 365.658606806 L 518 357.521465144 L 521 354.96939758 L 524 375.198423419 L 526 365.217831746 L 529 373.16226982 L 532 372.426182928 L 534 385.171531382 L 537 388.342313807 L 540 394.8697204 L 542 392.138887544 L 545 390.453606311 L 548 383.58198557 L 550 389.504208341 L 553 384.654802901 L 556 388.664687717 L 558 392.344511286 L 561 382.955368767 L 564 395.08179873 L 566 388.320269939 L 569 390.844449934 L 572 388.760219508 L 574 390.885450309 L 577 390.809700517 L 580 391.84817569 L 582 390.286721076 L 585 390.967451061 L 588 391.056731893 L 590 391.627584531 L 593 394.825836293 L 596 386.991286541 L 598 383.324994012 L 601 395.121148124 L 604 389.363966951 L 606 392.328300144 L 609 386.103281832 L 612 392.699576371 L 614 401.029014365 L 617 397.348987167 L 620 392.293347098"/>
			<path class="series-2-line" d="M 40 395.466833536 L 42 394.377643767 L 45 392.751943518 L 47 393.272285189 L 50 392.7196059 L 53 396.995520932 L 55 392.687268282 L 58 403.401309075 L 61 389.435867783 L 63 395.857824736 L 66 393.159103526 L 69 387.777829916 L 71 400.10140215 L 74 392.574086619 L 77 396.313491171 L 79 395.224301402 L 82 384.47792299 L 85 395.728474264 L 87 394.102774014 L 90 391.940563285 L 93 395.143457357 L 95 395.127288548 L 98 394.038098778 L 101 400.996566211 L 103 401.516907882 L 106 394.526102832 L 109 393.973423542 L 111 396.639807134 L 114 400.379211686 L 117 394.997938076 L 119 399.273853108 L 122 398.721173819 L 125 396.022452609 L 127 394.93326284 L 130 389.551989229 L 133 392.754883301 L 135 399.176840254 L 138 390.576503763 L 141 391.633355914 L 143 396.445781426 L 146 389.991486856 L 149 401.242038129 L 151 395.324254039 L 154 391.016001389 L 157 392.60936402 L 159 394.739237132 L 162 388.284942561 L 165 395.779920474 L 167 400.055835506 L 170 391.455499015 L 173 391.439330206 L 175 393.032692838 L 178 393.553034509 L 181 392.463844739 L 183 398.349291212 L 186 401.015674804 L 188 395.634401193 L 191 396.691253345 L 194 387.554406373 L 196 390.757300445 L 199 395.569725957 L 202 393.944025708 L 204 397.68343026 L 207 393.37517761 L 210 396.578071682 L 212 389.050756151 L 215 395.472713103 L 218 400.285138616 L 220 400.805480287 L 223 395.424206676 L 226 394.871527387 L 228 394.855358578 L 231 393.766168809 L 234 395.35953144 L 236 392.124299751 L 239 388.352557581 L 242 400.139619335 L 244 395.294856204 L 247 399.570771237 L 250 394.189497626 L 252 394.709839297 L 255 396.839712409 L 258 396.8235436 L 260 390.905759509 L 263 392.499122141 L 266 388.727379971 L 268 391.393763563 L 271 394.060147154 L 274 396.190020266 L 276 398.319893377 L 279 394.548151207 L 282 393.995471918 L 284 390.223729748 L 287 397.718707661 L 290 395.019986452 L 292 395.540328123 L 295 393.914627873 L 298 394.434969544 L 300 396.564842656 L 303 394.402631927 L 306 391.167400237 L 308 394.906804789 L 311 392.208083579 L 314 392.72842525 L 316 396.467829802 L 319 397.524681953 L 322 396.972002664 L 324 396.419323375 L 327 390.501539285 L 330 400.142559118 L 332 405.49149511 L 335 396.891158619 L 337 394.19243741 L 340 388.811163799 L 343 396.842652192 L 345 392.534399542 L 348 395.200783134 L 351 397.330656245 L 353 387.657298794 L 356 390.860192866 L 359 397.282149819 L 361 393.510407649 L 364 401.541896042 L 367 387.039944269 L 369 398.290495543 L 372 398.810837214 L 375 390.210500723 L 377 393.949905275 L 380 400.371862227 L 383 396.600120057 L 385 392.828377888 L 388 394.421740519 L 391 392.79604027 L 393 392.24336098 L 396 386.86208737 L 399 394.893575763 L 401 392.194854553 L 404 393.251706705 L 407 392.162516935 L 409 398.047963408 L 412 394.812731718 L 415 390.504479068 L 417 392.0978417 L 420 397.983288172 L 423 393.138525042 L 425 389.366782872 L 428 396.325250305 L 431 393.090018615 L 433 395.756402207 L 436 393.057680997 L 439 392.505001708 L 441 393.561853859 L 444 402.666363212 L 447 396.212068642 L 449 398.341941753 L 452 386.522542381 L 455 395.090541254 L 457 398.829945806 L 460 396.667735077 L 463 392.359482427 L 465 398.781439379 L 468 397.15573913 L 471 392.310976 L 473 395.513870072 L 476 393.351659342 L 478 394.945021974 L 481 389.563748363 L 484 394.912684356 L 486 399.188599388 L 489 390.588262897 L 492 395.937198889 L 494 398.603582481 L 497 390.003245989 L 500 391.596608621 L 502 382.45976165 L 505 400.684949165 L 508 392.621123154 L 510 397.970059146 L 513 393.125296016 L 516 390.963085287 L 518 397.385042239 L 521 390.394237189 L 524 386.622495019 L 526 387.67934717 L 529 396.247346043 L 532 398.913729635 L 534 390.849903624 L 537 390.833734815 L 540 390.281055526 L 542 390.264886717 L 545 394.540801749 L 548 391.842080539 L 550 402.019610853 L 553 397.711358203 L 556 392.330084592 L 558 396.605999624 L 561 389.078684094 L 564 393.891109606 L 566 394.947961757 L 569 391.176219587 L 572 394.915624139 L 574 390.607371489 L 577 394.883286521 L 580 392.721075792 L 582 398.606522264 L 585 389.469675293 L 588 388.916996004 L 590 396.948484397 L 593 392.640231747 L 596 393.697083898 L 598 393.144404609 L 601 386.690110038 L 604 398.477171792 L 606 388.803814341 L 609 389.860666492 L 612 399.501686325 L 614 389.828328874 L 617 391.421691505 L 620 398.380158938"/>
		</g>
		<text class="x-axis-label" x="40.0" y="540">0</text>
		<path class="x-notch" d="M 53.3027522936 525 L 53.3027522936 530"/>
		<text class="x-axis-label" x="66.6055045872" y="540">10</text>
		<path class="x-notch" d="M 79.9082568807 525 L 79.9082568807 530"/>
		<text class="x-axis-label" x="93.2110091743" y="540">20</text>
		<path class="x-notch" d="M 106.513761468 525 L 106.513761468 530"/>
		<text class="x-axis-label" x="119.816513761" y="540">30</text>
		<path class="x-notch" d="M 133.119266055 525 L 133.119266055 530"/>
		<text class="x-axis-label" x="146.422018349" y="540">40</text>
		<path class="x-notch" d="M 159.724770642 525 L 159.724770642 530"/>
		<text class="x-axis-label" x="173.027522936" y="540">50</text>
		<path class="x-notch" d="M 186.330275229 525 L 186.330275229 530"/>
		<text class="x-axis-label" x="199.633027523" y="540">60</text>
		<path class="x-notch" d="M 212.935779817 525 L 212.935779817 530"/>
		<text class="x-axis-label" x="226.23853211" y="540">70</text>
		<path class="x-notch" d="M 239.541284404 525 L 239.541284404 530"/>
		<text class="x-axis-label" x="252.844036697" y="540">80</text>
		<path class="x-notch" d="M 266.146788991 525 L 266.146788991 530"/>
		<text class="x-axis-label" x="279.449541284" y="540">90</text>
		<path class="x-notch" d="M 292.752293578 525 L 292.752293578 530"/>
		<text class="x-axis-label" x="306.055045872" y="540">100</text>
		<path class="x-notch" d="M 319.357798165 525 L 319.357798165 530"/>
		<text class="x-axis-label" x="332.660550459" y="540">110</text>
		<path class="x-notch" d="M 345.963302752 525 L 345.963302752 530"/>
		<text class="x-axis-label" x="359.266055046" y="540">120</text>
		<path class="x-notch" d="M 372.568807339 525 L 372.568807339 530"/>
		<text class="x-axis-label" x="385.871559633" y="540">130</text>
		<path class="x-notch" d="M 399.174311927 525 L 399.174311927 530"/>
		<text class="x-axis-label" x="412.47706422" y="540">140</text>
		<path class="x-notch" d="M 425.779816514 525 L 425.779816514 530"/>
		<text class="x-axis-label" x="439.082568807" y="540">150</text>
		<path class="x-notch" d="M 452.385321101 525 L 452.385321101 530"/>
		<text class="x-axis-label" x="465.688073394" y="540">160</text>
		<path class="x-notch" d="M 478.990825688 525 L 478.990825688 530"/>
		<text class="x-axis-label" x="492.293577982" y="540">170</text>
		<path class="x-notch" d="M 505.596330275 525 L 505.596330275 530"/>
		<text class="x-axis-label" x="518.899082569" y="540">180</text>
		<path class="x-notch" d="M 532.201834862 525 L 532.201834862 530"/>
		<text class="x-axis-label" x="545.504587156" y="540">190</text>
		<path class="x-notch" d="M 558.80733945 525 L 558.80733945 530"/>
		<text class="x-axis-label" x="572.110091743" y="540">200</text>
		<path class="x-notch" d="M 585.412844037 525 L 585.412844037 530"/>
		<text class="x-axis-label" x="598.71559633" y="540">210</text>
		<path class="x-notch" d="M 612.018348624 525 L 612.018348624 530"/>
	</g>
</svg>
