<?xml version="1.0" ?>
<svg height="600" version="1.1" width="800" xmlns="http://www.w3.org/2000/svg" xmlns:svg="http://www.w3.org/2000/svg">
	<style type="text/css">

.x-axis-path, .y-gridline, .x-notch { fill:none; stroke: #a7a9ac; stroke-width:1; }



.y-gridline { stroke-width: 1; }

.y-axis-path, .y-axis-path2, .x-notch-left, .x-notch-right { display: none;}



.x-axis-label, .data-point-label {font-size: 12px; font-weight:normal; font-family: sans-serif; fill: #58595b; text-anchor:middle;}

.y-axis-label {font-size: 12px; font-family: helvetica; fill: #a7a9ac; text-anchor:end;}



.series-1-line { fill: none; stroke: #10b80c; stroke-width:2; }



.series-2-line { fill: none; stroke: #e90f0a; stroke-width: 2;}
</style>
	<rect fill="white" height="600" width="800" x="0" y="0"/>
	<g id="grid" transform="translate(70, 30)">
		<g class="x-axis" id="x_axis">
			<path class="x-axis-path" d="M 0 525 L 660 525"/>
			<path class="x-notch-left" d="M 0 525, L 0 535"/>
			<path class="x-notch-right" d="M 660 525, L 660 535"/>
		</g>
		<g class="y-axis" id="y_axis">
			<path class="y-axis-path" d="M 0 525 L 0 0"/>
			<path class="y-axis-path-2" d="M 660 525 L 660 0"/>
			<path class="y-gridline" d="M 0 525 L 660 525"/>
			<text class="y-axis-label" x="-5" y="525">-200</text>
			<path class="y-gridline" d="M 0 394 L 660 394"/>
			<text class="y-axis-label" x="-5" y="394"> 0</text>
			<path class="y-gridline" d="M 0 263 L 660 263"/>
			<text class="y-axis-label" x="-5" y="263">200</text>
			<path class="y-gridline" d="M 0 132 L 660 132"/>
			<text class="y-axis-label" x="-5" y="132">400</text>
			<path class="y-gridline" d="M 0 1 L 660 1"/>
			<text class="y-axis-label" x="-5" y="1">600</text>
		</g>
		<g>
			<path class="series-1-line" d="M 40 412.989930922 L 43 396.699445326 L 47 380.914058546 L 51 390.030988916 L 54 385.585503919 L 58 408.997282338 L 62 397.177039451 L 65 416.09335962 L 69 381.568097624 L 73 381.895835826 L 76 402.04968749 L 80 405.231509791 L 84 394.371033451 L 88 390.683196676 L 91 402.174327872 L 95 394.394875503 L 99 397.80403167 L 102 396.616473428 L 106 401.313592173 L 110 402.298116431 L 113 372.672549334 L 117 389.921885817 L 121 398.761051239 L 124 411.843125503 L 128 403.407281071 L 132 410.579462807 L 136 405.426760671 L 139 394.515853248 L 143 365.698365456 L 147 399.919731302 L 150 394.287145893 L 154 391.811625072 L 158 395.953213919 L 161 385.320071445 L 165 394.487432899 L 169 387.794218777 L 172 389.309057391 L 176 384.181570797 L 180 371.528033063 L 184 393.87918277 L 187 385.847180994 L 191 349.124620956 L 195 387.058581289 L 198 358.013759631 L 202 317.553389565 L 206 334.575392181 L 209 271.763414579 L 213 282.370425853 L 217 284.845031014 L 221 240.52037922 L 224 247.869463739 L 228 235.947964694 L 232 220.314265154 L 235 180.081228954 L 239 178.641121305 L 243 178.13556466 L 246 124.920858532 L 250 116.055561909 L 254 158.636667734 L 257 66.3004430301 L 261 127.419305746 L 265 94.4093401939 L 269 85.0893758395 L 272 89.1805336038 L 276 82.259985616 L 280 68.2172291455 L 283 32.1766707052 L 287 0.0 L 291 6.46496459664 L 294 6.66662509146 L 298 94.5316914271 L 302 89.8084414815 L 305 79.7812599878 L 309 25.3542379053 L 313 39.5729814995 L 317 26.8181876074 L 320 56.7966446112 L 324 64.4739251618 L 328 70.1812415363 L 331 88.0873640755 L 335 70.3824442015 L 339 131.955974649 L 342 84.8280638319 L 346 133.369493268 L 350 172.540985096 L 354 174.737825309 L 357 140.060876071 L 361 183.576532901 L 365 210.650474723 L 368 187.995428867 L 372 206.204531897 L 376 223.45386838 L 379 214.815905623 L 383 227.64543048 L 387 289.648413118 L 390 275.100557833 L 394 338.214600266 L 398 308.816367035 L 402 304.219194796 L 405 309.32055019 L 409 317.932381746 L 413 319.674554227 L 416 342.353899965 L 420 355.15820928 L 424 350.434959335 L 427 352.859133413 L 431 358.263469297 L 435 331.895828955 L 438 349.574617628 L 442 341.542615852 L 446 350.861664547 L 450 350.861206718 L 453 356.492876468 L 457 336.312893603 L 461 356.264626942 L 464 376.89836188 L 468 374.195507193 L 472 364.59777789 L 475 381.3672311 L 479 359.949716739 L 483 369.773864249 L 487 380.785112172 L 490 365.555255289 L 494 402.479017992 L 498 389.168694202 L 501 373.964052861 L 505 368.963037966 L 509 387.929789218 L 512 381.994223318 L 516 390.151387142 L 520 388.206180678 L 523 374.34032699 L 527 395.049708552 L 531 403.383775159 L 535 397.75118975 L 538 397.270848647 L 542 400.907338679 L 546 418.889107843 L 549 406.563766141 L 553 391.78857699 L 557 401.410606175 L 560 391.282562516 L 564 394.969483631 L 568 406.788810859 L 571 399.110614649 L 575 390.775632383 L 579 389.537643057 L 583 396.886727576 L 586 407.998837665 L 590 398.37589282 L 594 390.445147203 L 597 388.752490146 L 601 399.309070336 L 605 384.053997912 L 608 395.166108 L 612 389.735640915 L 616 399.534572883 L 620 404.054788845"/>
			<path class="series-2-line" d="M 40 388.628093142 L 43 393.538041829 L 47 396.47802634 L 51 394.493100411 L 54 395.463120746 L 58 391.50823064 L 62 390.508286799 L 65 396.403217574 L 69 403.283130437 L 73 389.478419451 L 76 394.388368138 L 80 396.343370561 L 84 399.283355072 L 88 397.298429143 L 91 409.103252447 L 95 392.343595196 L 99 397.253543883 L 102 389.358725425 L 106 385.403835319 L 110 384.403891478 L 113 395.223732694 L 117 392.253824676 L 121 395.193809187 L 124 389.268954906 L 128 398.118831945 L 132 392.193977663 L 136 388.239087558 L 139 399.058928774 L 143 399.04396702 L 147 399.029005267 L 150 393.104150985 L 154 394.07417132 L 158 399.969102095 L 161 405.864032871 L 165 395.999250237 L 169 401.894181012 L 172 394.984344642 L 176 387.089526184 L 180 400.864313664 L 184 408.729208616 L 187 392.954533453 L 191 396.879500052 L 195 393.909592035 L 198 390.939684017 L 202 401.759525233 L 206 395.834670951 L 209 397.789673374 L 213 393.834783268 L 217 390.864875251 L 221 389.864931409 L 224 394.774880097 L 228 371.120348229 L 232 388.835064062 L 235 402.609851542 L 239 395.700015172 L 243 396.670035507 L 246 399.610020018 L 250 398.610076176 L 254 400.565078599 L 257 398.58015267 L 261 389.700352124 L 265 390.670372459 L 269 383.760536089 L 272 397.535323569 L 276 400.47530808 L 280 400.460346327 L 283 413.250151719 L 287 399.445440732 L 291 388.59567601 L 294 394.490606785 L 298 400.385537561 L 302 406.280468336 L 305 394.445721526 L 309 394.430759772 L 313 403.280636812 L 317 394.400836266 L 320 403.250713305 L 324 395.355894847 L 328 387.461076389 L 331 397.295935517 L 335 392.356063323 L 339 389.386155306 L 342 403.160942786 L 346 397.236088504 L 350 393.281198399 L 354 395.236200822 L 357 387.341382364 L 361 397.176241491 L 365 398.146261826 L 368 397.146317985 L 372 398.11633832 L 376 395.146430302 L 379 397.101432725 L 383 392.161560531 L 387 399.041473395 L 390 400.996475818 L 394 388.176746919 L 398 401.951534399 L 402 388.146823413 L 405 397.981682541 L 409 397.966720787 L 413 394.011830682 L 416 389.071958488 L 420 388.072014647 L 424 393.966945422 L 427 398.876894109 L 431 399.846914444 L 435 401.801916867 L 438 408.68182973 L 442 392.907154568 L 446 397.817103255 L 450 396.817159414 L 453 400.742126013 L 457 397.772217995 L 461 395.787292066 L 464 402.667204929 L 468 400.682279 L 472 398.69735307 L 475 393.757480877 L 479 391.772554947 L 483 394.712539458 L 487 404.547398586 L 490 397.637562216 L 494 398.607582551 L 498 399.577602886 L 501 388.727838163 L 505 399.547679379 L 509 397.56275345 L 512 400.502737961 L 516 394.577883679 L 520 389.638011485 L 523 400.457852701 L 527 395.517980507 L 531 400.427929195 L 535 394.503074913 L 538 391.533166895 L 542 399.398061847 L 546 397.413135918 L 549 398.383156252 L 553 397.383212411 L 557 393.428322305 L 560 397.353288905 L 564 397.338327151 L 568 396.33838331 L 571 402.233314085 L 575 395.323477715 L 579 395.308515962 L 583 400.218464649 L 586 394.293610368 L 590 396.248612791 L 594 403.128525654 L 597 397.203671372 L 601 401.128637971 L 605 398.158729954 L 608 392.233875672 L 612 393.203896007 L 616 400.08380887 L 620 385.294115796"/>
		</g>
		<text class="x-axis-label" x="40.0" y="540">0</text>
		<path class="x-notch" d="M 58.4713375796 525 L 58.4713375796 530"/>
		<text class="x-axis-label" x="76.9426751592" y="540">10</text>
		<path class="x-notch" d="M 95.4140127389 525 L 95.4140127389 530"/>
		<text class="x-axis-label" x="113.885350318" y="540">20</text>
		<path class="x-notch" d="M 132.356687898 525 L 132.356687898 530"/>
		<text class="x-axis-label" x="150.828025478" y="540">30</text>
		<path class="x-notch" d="M 169.299363057 525 L 169.299363057 530"/>
		<text class="x-axis-label" x="187.770700637" y="540">40</text>
		<path class="x-notch" d="M 206.242038217 525 L 206.242038217 530"/>
		<text class="x-axis-label" x="224.713375796" y="540">50</text>
		<path class="x-notch" d="M 243.184713376 525 L 243.184713376 530"/>
		<text class="x-axis-label" x="261.656050955" y="540">60</text>
		<path class="x-notch" d="M 280.127388535 525 L 280.127388535 530"/>
		<text class="x-axis-label" x="298.598726115" y="540">70</text>
		<path class="x-notch" d="M 317.070063694 525 L 317.070063694 530"/>
		<text class="x-axis-label" x="335.541401274" y="540">80</text>
		<path class="x-notch" d="M 354.012738854 525 L 354.012738854 530"/>
		<text class="x-axis-label" x="372.484076433" y="540">90</text>
		<path class="x-notch" d="M 390.955414013 525 L 390.955414013 530"/>
		<text class="x-axis-label" x="409.426751592" y="540">100</text>
		<path class="x-notch" d="M 427.898089172 525 L 427.898089172 530"/>
		<text class="x-axis-label" x="446.369426752" y="540">110</text>
		<path class="x-notch" d="M 464.840764331 525 L 464.840764331 530"/>
		<text class="x-axis-label" x="483.312101911" y="540">120</text>
		<path class="x-notch" d="M 501.78343949 525 L 501.78343949 530"/>
		<text class="x-axis-label" x="520.25477707" y="540">130</text>
		<path class="x-notch" d="M 538.72611465 525 L 538.72611465 530"/>
		<text class="x-axis-label" x="557.197452229" y="540">140</text>
		<path class="x-notch" d="M 575.668789809 525 L 575.668789809 530"/>
		<text class="x-axis-label" x="594.140127389" y="540">150</text>
		<path class="x-notch" d="M 612.611464968 525 L 612.611464968 530"/>
	</g>
</svg>
