<?xml version="1.0" ?>
<svg height="600" version="1.1" width="800" xmlns="http://www.w3.org/2000/svg" xmlns:svg="http://www.w3.org/2000/svg">
	<style type="text/css">

.x-axis-path, .y-gridline, .x-notch { fill:none; stroke: #a7a9ac; stroke-width:1; }



.y-gridline { stroke-width: 1; }

.y-axis-path, .y-axis-path2, .x-notch-left, .x-notch-right { display: none;}



.x-axis-label, .data-point-label {font-size: 12px; font-weight:normal; font-family: sans-serif; fill: #58595b; text-anchor:middle;}

.y-axis-label {font-size: 12px; font-family: helvetica; fill: #a7a9ac; text-anchor:end;}



.series-1-line { fill: none; stroke: #10b80c; stroke-width:2; }



.series-2-line { fill: none; stroke: #e90f0a; stroke-width: 2;}
</style>
	<rect fill="white" height="600" width="800" x="0" y="0"/>
	<g id="grid" transform="translate(70, 30)">
		<g class="x-axis" id="x_axis">
			<path class="x-axis-path" d="M 0 525 L 660 525"/>
			<path class="x-notch-left" d="M 0 525, L 0 535"/>
			<path class="x-notch-right" d="M 660 525, L 660 535"/>
		</g>
		<g class="y-axis" id="y_axis">
			<path class="y-axis-path" d="M 0 525 L 0 0"/>
			<path class="y-axis-path-2" d="M 660 525 L 660 0"/>
			<path class="y-gridline" d="M 0 525 L 660 525"/>
			<text class="y-axis-label" x="-5" y="525">-200</text>
			<path class="y-gridline" d="M 0 394 L 660 394"/>
			<text class="y-axis-label" x="-5" y="394"> 0</text>
			<path class="y-gridline" d="M 0 263 L 660 263"/>
			<text class="y-axis-label" x="-5" y="263">200</text>
			<path class="y-gridline" d="M 0 132 L 660 132"/>
			<text class="y-axis-label" x="-5" y="132">400</text>
			<path class="y-gridline" d="M 0 1 L 660 1"/>
			<text class="y-axis-label" x="-5" y="1">600</text>
		</g>
		<g>
			<path class="series-1-line" d="M 40 411.247076273 L 44 374.700518172 L 49 435.335035127 L 54 330.431155098 L 58 408.122172485 L 63 328.957052136 L 68 401.976233001 L 72 349.651311937 L 77 378.02437413 L 82 414.991690409 L 86 378.797840497 L 91 353.445814 L 96 346.516430564 L 100 401.289666231 L 105 426.357034532 L 110 367.024702455 L 114 373.052704021 L 119 379.786121963 L 124 340.595283765 L 128 375.447038459 L 133 365.608671899 L 138 311.344887113 L 142 365.941424917 L 147 282.589183977 L 152 271.649377814 L 156 215.005328416 L 161 270.395287757 L 166 231.645162908 L 170 169.403847708 L 175 168.468440843 L 180 143.072411765 L 185 76.071254881 L 189 42.7863880914 L 194 8.53140190058 L 199 112.886608248 L 203 56.595267037 L 208 40.7629239072 L 213 121.318921836 L 217 137.263317538 L 222 12.5266492377 L 227 0.0 L 231 88.2241351956 L 236 110.074502306 L 241 66.2558301674 L 245 77.7930923736 L 250 131.244187992 L 255 206.907648955 L 259 199.140841401 L 264 134.343251265 L 269 211.50555014 L 273 229.565507428 L 278 208.973322615 L 283 160.262801049 L 287 257.389895939 L 292 188.757893399 L 297 212.327111328 L 301 149.469072454 L 306 214.73142335 L 311 193.742527768 L 315 203.516936576 L 320 217.69847888 L 325 152.372170232 L 330 209.084269622 L 334 152.792928412 L 339 170.676875376 L 344 181.817426814 L 348 242.848654537 L 353 258.749047658 L 358 263.014195826 L 362 317.566731049 L 367 312.884916942 L 372 330.328150557 L 376 352.266522829 L 381 351.066412938 L 386 353.789408153 L 390 366.031399194 L 395 383.07792204 L 400 394.659186827 L 404 375.25713432 L 409 417.028294864 L 414 412.655186364 L 418 390.300148152 L 423 385.883037071 L 428 386.225767674 L 432 389.565486562 L 437 417.189129798 L 442 402.678926717 L 446 422.193719337 L 451 394.682128673 L 456 427.3743192 L 460 415.332385893 L 465 374.863410227 L 470 418.221413846 L 475 383.922425074 L 479 416.394602696 L 484 406.424228394 L 489 374.76951972 L 493 368.58955524 L 498 375.058270156 L 503 404.312759048 L 507 391.698104648 L 512 385.209434562 L 517 389.386577568 L 521 356.321723683 L 526 395.095895942 L 531 358.505335261 L 535 381.19312649 L 540 363.99464073 L 545 393.293132203 L 549 402.758835404 L 554 391.33431331 L 559 409.966991691 L 563 379.723115768 L 568 394.433376583 L 573 385.785142329 L 577 371.451637113 L 582 382.59218855 L 587 397.302449365 L 591 405.842723286 L 596 386.793378967 L 601 389.03097071 L 605 396.60181277 L 610 392.845427943 L 615 401.826415214 L 620 401.816437629"/>
			<path class="series-2-line" d="M 40 399.250322616 L 44 397.586475024 L 49 385.609522529 L 54 389.10222739 L 58 397.751484703 L 63 408.119592834 L 68 408.17459606 L 72 387.603389477 L 77 380.782989433 L 82 373.96258939 L 86 384.330697521 L 91 379.229148294 L 96 382.721853155 L 100 413.716171095 L 105 386.269561243 L 110 386.324564469 L 114 379.504164425 L 119 396.747675826 L 124 405.396933139 L 128 393.419980643 L 133 381.443028147 L 138 395.248837913 L 142 386.709587052 L 147 379.889187008 L 152 405.726952496 L 156 388.593447548 L 161 390.367301591 L 166 397.297708087 L 170 381.883053957 L 175 388.813460452 L 180 390.587314496 L 185 380.329212818 L 189 406.166978305 L 194 382.158070087 L 199 387.369625766 L 203 382.26807654 L 208 366.853422409 L 213 397.847740349 L 217 385.870787853 L 222 399.676597618 L 227 404.888153297 L 231 379.160394262 L 236 384.37194994 L 241 377.551549897 L 245 382.763105575 L 250 418.913975967 L 255 408.655874289 L 259 408.710877515 L 264 389.858521749 L 269 413.977436419 L 273 407.157036376 L 278 396.898934698 L 283 415.861296915 L 287 409.040896872 L 292 385.031988654 L 297 390.243544332 L 301 404.049354098 L 306 407.542058959 L 311 392.127404828 L 315 404.214363776 L 320 399.11281455 L 325 395.730116142 L 330 392.347417733 L 334 387.245868507 L 339 407.927081542 L 344 407.982084768 L 348 401.161684725 L 353 396.060135499 L 358 396.115138725 L 362 394.451291134 L 367 382.474338638 L 372 404.87440249 L 376 396.335151629 L 381 377.482795864 L 386 417.071367891 L 390 379.311653134 L 395 396.555164534 L 400 394.891316943 L 404 400.102872621 L 409 381.250516856 L 414 388.180923352 L 418 384.798224943 L 423 398.604034708 L 428 407.253292022 L 432 417.621400152 L 437 393.612491935 L 442 373.041285352 L 446 407.473304926 L 451 404.090606518 L 456 393.832504839 L 460 390.449806431 L 465 397.380212926 L 470 399.15406697 L 475 382.020562022 L 479 406.139476692 L 484 414.788734005 L 489 387.342124153 L 493 408.023337188 L 498 399.484086327 L 503 389.225984649 L 507 408.188346866 L 512 409.96220091 L 517 423.768010675 L 521 415.228759814 L 526 394.657553232 L 531 399.86910891 L 535 408.518366223 L 540 405.135667815 L 545 388.002162867 L 549 381.181762823 L 554 415.613782398 L 559 386.448321728 L 563 407.129534763 L 568 386.55832818 L 573 390.051033041 L 577 409.013395259 L 582 409.068398485 L 587 388.497191902 L 591 391.989896763 L 596 409.233408163 L 601 390.381052398 L 605 411.062265433 L 610 388.772208033 L 615 390.546062076 L 620 387.163363668"/>
		</g>
		<text class="x-axis-label" x="40.0" y="540">0</text>
		<path class="x-notch" d="M 63.3870967742 525 L 63.3870967742 530"/>
		<text class="x-axis-label" x="86.7741935484" y="540">10</text>
		<path class="x-notch" d="M 110.161290323 525 L 110.161290323 530"/>
		<text class="x-axis-label" x="133.548387097" y="540">20</text>
		<path class="x-notch" d="M 156.935483871 525 L 156.935483871 530"/>
		<text class="x-axis-label" x="180.322580645" y="540">30</text>
		<path class="x-notch" d="M 203.709677419 525 L 203.709677419 530"/>
		<text class="x-axis-label" x="227.096774194" y="540">40</text>
		<path class="x-notch" d="M 250.483870968 525 L 250.483870968 530"/>
		<text class="x-axis-label" x="273.870967742" y="540">50</text>
		<path class="x-notch" d="M 297.258064516 525 L 297.258064516 530"/>
		<text class="x-axis-label" x="320.64516129" y="540">60</text>
		<path class="x-notch" d="M 344.032258065 525 L 344.032258065 530"/>
		<text class="x-axis-label" x="367.419354839" y="540">70</text>
		<path class="x-notch" d="M 390.806451613 525 L 390.806451613 530"/>
		<text class="x-axis-label" x="414.193548387" y="540">80</text>
		<path class="x-notch" d="M 437.580645161 525 L 437.580645161 530"/>
		<text class="x-axis-label" x="460.967741935" y="540">90</text>
		<path class="x-notch" d="M 484.35483871 525 L 484.35483871 530"/>
		<text class="x-axis-label" x="507.741935484" y="540">100</text>
		<path class="x-notch" d="M 531.129032258 525 L 531.129032258 530"/>
		<text class="x-axis-label" x="554.516129032" y="540">110</text>
		<path class="x-notch" d="M 577.903225806 525 L 577.903225806 530"/>
		<text class="x-axis-label" x="601.290322581" y="540">120</text>
		<path class="x-notch" d="M 624.677419355 525 L 624.677419355 530"/>
	</g>
</svg>
