<?xml version="1.0" ?>
<svg height="600" version="1.1" width="800" xmlns="http://www.w3.org/2000/svg" xmlns:svg="http://www.w3.org/2000/svg">
	<style type="text/css">

.x-axis-path, .y-gridline, .x-notch { fill:none; stroke: #a7a9ac; stroke-width:1; }



.y-gridline { stroke-width: 1; }

.y-axis-path, .y-axis-path2, .x-notch-left, .x-notch-right { display: none;}



.x-axis-label, .data-point-label {font-size: 12px; font-weight:normal; font-family: sans-serif; fill: #58595b; text-anchor:middle;}

.y-axis-label {font-size: 12px; font-family: helvetica; fill: #a7a9ac; text-anchor:end;}



.series-1-line { fill: none; stroke: #10b80c; stroke-width:2; }



.series-2-line { fill: none; stroke: #e90f0a; stroke-width: 2;}
</style>
	<rect fill="white" height="600" width="800" x="0" y="0"/>
	<g id="grid" transform="translate(70, 30)">
		<g class="x-axis" id="x_axis">
			<path class="x-axis-path" d="M 0 525 L 660 525"/>
			<path class="x-notch-left" d="M 0 525, L 0 535"/>
			<path class="x-notch-right" d="M 660 525, L 660 535"/>
		</g>
		<g class="y-axis" id="y_axis">
			<path class="y-axis-path" d="M 0 525 L 0 0"/>
			<path class="y-axis-path-2" d="M 660 525 L 660 0"/>
			<path class="y-gridline" d="M 0 525 L 660 525"/>
			<text class="y-axis-label" x="-5" y="525">-200</text>
			<path class="y-gridline" d="M 0 394 L 660 394"/>
			<text class="y-axis-label" x="-5" y="394"> 0</text>
			<path class="y-gridline" d="M 0 263 L 660 263"/>
			<text class="y-axis-label" x="-5" y="263">200</text>
			<path class="y-gridline" d="M 0 132 L 660 132"/>
			<text class="y-axis-label" x="-5" y="132">400</text>
			<path class="y-gridline" d="M 0 1 L 660 1"/>
			<text class="y-axis-label" x="-5" y="1">600</text>
		</g>
		<g>
			<path class="series-1-line" d="M 40 387.340304702 L 44 400.949023833 L 48 385.410483782 L 52 398.617426269 L 56 395.487656907 L 60 384.680611305 L 64 395.544088808 L 68 393.418761056 L 72 384.441644433 L 76 369.505769349 L 80 354.346723702 L 84 365.611977849 L 88 357.683867317 L 92 368.659104181 L 96 367.716475961 L 100 355.904988749 L 104 370.562713971 L 108 363.66132729 L 113 358.612151828 L 117 352.02306467 L 121 345.210806949 L 125 353.351673224 L 129 335.469668189 L 133 323.122710891 L 137 336.5305417 L 141 318.537125464 L 145 281.037696865 L 149 296.454062735 L 153 310.486840751 L 157 274.304153286 L 161 297.710443079 L 165 261.059132249 L 169 229.362486431 L 173 265.155264672 L 177 240.75640069 L 181 253.472437572 L 186 217.691526751 L 190 185.593104288 L 194 207.280876303 L 198 208.056765862 L 202 215.104061565 L 206 187.803980272 L 210 154.254775075 L 214 173.710841467 L 218 170.603354345 L 222 131.51944957 L 226 126.67116243 L 230 139.788975956 L 234 162.771206864 L 238 171.648431546 L 242 162.425862121 L 246 116.668774557 L 250 111.307299572 L 254 111.837736327 L 259 90.5858906173 L 263 100.779856433 L 267 77.5417579025 L 271 122.306271277 L 275 42.8267539231 L 279 87.5689850571 L 283 76.828786176 L 287 83.273416913 L 291 0.0 L 295 115.333760826 L 299 126.28671545 L 303 120.947522704 L 307 197.202760245 L 311 184.989496389 L 315 106.068079521 L 319 81.3346337747 L 323 181.626141645 L 327 159.325289844 L 332 198.131044756 L 336 207.432328323 L 340 188.925376081 L 344 197.534865721 L 348 196.056767416 L 352 143.492803621 L 356 219.212222916 L 360 229.919724737 L 364 253.571467333 L 368 231.292897772 L 372 237.536640187 L 376 213.249535565 L 380 213.601366239 L 384 217.434796949 L 388 255.392434093 L 392 283.820235618 L 396 291.71564909 L 400 285.550620816 L 405 306.792051707 L 409 296.899970594 L 413 261.78857146 L 417 318.67183824 L 421 241.535785871 L 425 270.633099083 L 429 313.389077396 L 433 298.520049032 L 437 308.245391483 L 441 255.81546929 L 445 345.238118167 L 449 309.457207347 L 453 340.920267783 L 457 349.708363504 L 461 326.15761729 L 465 339.319995297 L 469 368.015531865 L 473 346.29506279 L 478 358.006658061 L 482 363.313153747 L 486 366.655678852 L 490 357.879450551 L 494 346.737475026 L 498 383.333806555 L 502 368.040719307 L 506 404.168079312 L 510 379.367786845 L 514 381.929040901 L 518 377.727983208 L 522 380.445561107 L 526 388.363256819 L 530 378.716628509 L 534 386.50028262 L 538 385.959431045 L 542 385.820356113 L 546 384.453669009 L 551 372.820787879 L 555 386.920412615 L 559 402.693990649 L 563 376.152898164 L 567 383.958834515 L 571 390.18029469 L 575 386.648748684 L 579 392.624756056 L 583 396.614510607 L 587 385.606576684 L 591 392.274377983 L 595 386.979749718 L 599 397.352321616 L 603 393.575322807 L 607 401.537583 L 611 392.939960781 L 615 392.622279768 L 620 389.492510406"/>
			<path class="series-2-line" d="M 40 395.66488002 L 44 396.521982251 L 48 395.638284464 L 52 391.272986641 L 56 389.518888845 L 60 397.339191148 L 64 385.140293244 L 68 396.442195583 L 72 390.336097742 L 76 397.286000037 L 80 405.10630234 L 84 398.12980449 L 88 398.116506712 L 92 402.455208979 L 96 398.960311165 L 100 393.724613333 L 104 400.674515627 L 108 410.235617949 L 113 402.38872009 L 117 397.153022257 L 121 392.787724434 L 125 397.996826711 L 129 389.279528843 L 133 399.711031173 L 137 397.956933377 L 141 406.647635689 L 145 403.152737875 L 149 393.565039998 L 153 396.162942247 L 157 390.927244415 L 161 390.913946637 L 165 390.900648859 L 169 398.720951163 L 173 401.318853412 L 177 390.860755526 L 181 395.199457793 L 186 395.186160015 L 190 397.784062264 L 194 394.28916445 L 198 394.275866672 L 202 400.355368957 L 206 401.212471188 L 210 392.49517332 L 214 397.704275597 L 218 392.468577764 L 222 398.54808005 L 226 393.312382218 L 230 402.873484539 L 234 401.119386743 L 238 393.272488884 L 242 391.518391088 L 246 386.282693256 L 250 393.23259555 L 254 397.571297817 L 259 405.391600121 L 263 395.803902244 L 267 407.976204592 L 271 402.74050676 L 275 396.634408919 L 279 394.880311123 L 283 392.255813318 L 287 390.501715522 L 291 399.192417834 L 295 383.511919894 L 299 391.332222197 L 303 394.800524455 L 307 399.139226723 L 311 388.681128836 L 315 397.371831149 L 319 405.192133452 L 323 393.863635557 L 327 395.591137797 L 332 403.4114401 L 336 397.305342259 L 340 384.236044346 L 344 384.222746568 L 348 396.395048916 L 352 400.733751184 L 356 386.794053261 L 360 398.96635561 L 364 394.601057787 L 368 392.846959991 L 372 388.481662168 L 376 394.561164453 L 380 392.807066657 L 384 391.052968861 L 388 395.391671128 L 392 392.767173323 L 396 402.328275644 L 400 398.83337783 L 405 397.079280035 L 409 397.936382266 L 413 395.311884461 L 417 400.520986737 L 421 402.248488977 L 425 397.012791145 L 429 399.610693394 L 433 396.11579558 L 437 391.750497757 L 441 409.14520016 L 445 396.075902246 L 449 396.062604468 L 453 395.178906681 L 457 401.258408967 L 461 394.281911117 L 465 396.879813366 L 469 386.42171548 L 473 399.464417837 L 478 390.747119969 L 482 396.826622254 L 486 403.776524548 L 490 400.281626734 L 494 392.434728875 L 498 405.477431233 L 502 400.241733401 L 506 384.56123546 L 510 402.826337872 L 514 395.849840022 L 518 391.484542199 L 522 394.082444448 L 526 400.161946733 L 530 396.667048919 L 534 389.690551069 L 538 391.418053309 L 542 398.367955603 L 546 393.132257771 L 551 393.989360002 L 555 386.142462143 L 559 388.740364393 L 563 407.005466804 L 567 396.547368918 L 571 395.663671131 L 575 388.687173281 L 579 392.155475539 L 583 399.975777842 L 587 405.184880119 L 591 402.560382314 L 595 399.0654845 L 599 395.570586686 L 603 392.946088881 L 607 392.062391094 L 611 394.660293343 L 615 395.517395574 L 620 393.763297778"/>
		</g>
		<text class="x-axis-label" x="40.0" y="540">0</text>
		<path class="x-notch" d="M 60.2797202797 525 L 60.2797202797 530"/>
		<text class="x-axis-label" x="80.5594405594" y="540">10</text>
		<path class="x-notch" d="M 100.839160839 525 L 100.839160839 530"/>
		<text class="x-axis-label" x="121.118881119" y="540">20</text>
		<path class="x-notch" d="M 141.398601399 525 L 141.398601399 530"/>
		<text class="x-axis-label" x="161.678321678" y="540">30</text>
		<path class="x-notch" d="M 181.958041958 525 L 181.958041958 530"/>
		<text class="x-axis-label" x="202.237762238" y="540">40</text>
		<path class="x-notch" d="M 222.517482517 525 L 222.517482517 530"/>
		<text class="x-axis-label" x="242.797202797" y="540">50</text>
		<path class="x-notch" d="M 263.076923077 525 L 263.076923077 530"/>
		<text class="x-axis-label" x="283.356643357" y="540">60</text>
		<path class="x-notch" d="M 303.636363636 525 L 303.636363636 530"/>
		<text class="x-axis-label" x="323.916083916" y="540">70</text>
		<path class="x-notch" d="M 344.195804196 525 L 344.195804196 530"/>
		<text class="x-axis-label" x="364.475524476" y="540">80</text>
		<path class="x-notch" d="M 384.755244755 525 L 384.755244755 530"/>
		<text class="x-axis-label" x="405.034965035" y="540">90</text>
		<path class="x-notch" d="M 425.314685315 525 L 425.314685315 530"/>
		<text class="x-axis-label" x="445.594405594" y="540">100</text>
		<path class="x-notch" d="M 465.874125874 525 L 465.874125874 530"/>
		<text class="x-axis-label" x="486.153846154" y="540">110</text>
		<path class="x-notch" d="M 506.433566434 525 L 506.433566434 530"/>
		<text class="x-axis-label" x="526.713286713" y="540">120</text>
		<path class="x-notch" d="M 546.993006993 525 L 546.993006993 530"/>
		<text class="x-axis-label" x="567.272727273" y="540">130</text>
		<path class="x-notch" d="M 587.552447552 525 L 587.552447552 530"/>
		<text class="x-axis-label" x="607.832167832" y="540">140</text>
		<path class="x-notch" d="M 628.111888112 525 L 628.111888112 530"/>
	</g>
</svg>
