<?xml version="1.0" ?>
<svg height="600" version="1.1" width="800" xmlns="http://www.w3.org/2000/svg" xmlns:svg="http://www.w3.org/2000/svg">
	<style type="text/css">

.x-axis-path, .y-gridline, .x-notch { fill:none; stroke: #a7a9ac; stroke-width:1; }



.y-gridline { stroke-width: 1; }

.y-axis-path, .y-axis-path2, .x-notch-left, .x-notch-right { display: none;}



.x-axis-label, .data-point-label {font-size: 12px; font-weight:normal; font-family: sans-serif; fill: #58595b; text-anchor:middle;}

.y-axis-label {font-size: 12px; font-family: helvetica; fill: #a7a9ac; text-anchor:end;}



.series-1-line { fill: none; stroke: #10b80c; stroke-width:2; }



.series-2-line { fill: none; stroke: #e90f0a; stroke-width: 2;}
</style>
	<rect fill="white" height="600" width="800" x="0" y="0"/>
	<g id="grid" transform="translate(70, 30)">
		<g class="x-axis" id="x_axis">
			<path class="x-axis-path" d="M 0 525 L 660 525"/>
			<path class="x-notch-left" d="M 0 525, L 0 535"/>
			<path class="x-notch-right" d="M 660 525, L 660 535"/>
		</g>
		<g class="y-axis" id="y_axis">
			<path class="y-axis-path" d="M 0 525 L 0 0"/>
			<path class="y-axis-path-2" d="M 660 525 L 660 0"/>
			<path class="y-gridline" d="M 0 525 L 660 525"/>
			<text class="y-axis-label" x="-5" y="525">-200</text>
			<path class="y-gridline" d="M 0 420 L 660 420"/>
			<text class="y-axis-label" x="-5" y="420"> 0</text>
			<path class="y-gridline" d="M 0 315 L 660 315"/>
			<text class="y-axis-label" x="-5" y="315">200</text>
			<path class="y-gridline" d="M 0 210 L 660 210"/>
			<text class="y-axis-label" x="-5" y="210">400</text>
			<path class="y-gridline" d="M 0 105 L 660 105"/>
			<text class="y-axis-label" x="-5" y="105">600</text>
			<path class="y-gridline" d="M 0 0 L 660 0"/>
			<text class="y-axis-label" x="-5" y="0">800</text>
		</g>
		<g>
			<path class="series-1-line" d="M 40 421.249786199 L 45 415.782948242 L 50 429.674761372 L 55 418.508344362 L 61 413.689884967 L 66 419.234947818 L 71 422.276954781 L 76 419.457288051 L 82 417.168853496 L 87 407.118979204 L 92 416.733965979 L 98 416.462443853 L 103 416.884248542 L 108 359.337975782 L 113 317.458697832 L 119 383.970308056 L 124 379.989150352 L 129 380.167813081 L 134 396.652859533 L 140 376.779544359 L 145 383.531186899 L 150 369.258424157 L 156 363.530464938 L 161 372.136925267 L 166 383.705756452 L 171 353.675821464 L 177 367.324633097 L 182 365.828551979 L 187 354.031876172 L 192 361.116697644 L 198 387.542190901 L 203 373.728602665 L 208 360.356209633 L 214 367.981252931 L 219 364.351253462 L 224 347.989520621 L 229 353.28245186 L 235 356.378537191 L 240 356.899368503 L 245 348.335174465 L 250 356.671523881 L 256 337.06831962 L 261 348.808235096 L 266 320.696185916 L 272 337.091195396 L 277 335.243956045 L 282 329.05682232 L 287 309.381560391 L 293 289.427197897 L 298 312.746345422 L 303 313.933534597 L 308 287.244097651 L 314 277.419245556 L 319 273.267003561 L 324 237.501530917 L 330 242.389366018 L 335 264.042759348 L 340 262.303536269 L 345 251.110150307 L 351 240.222833861 L 356 233.846636543 L 361 192.201510904 L 366 208.263341452 L 372 228.800192063 L 377 202.326928126 L 382 188.009076667 L 388 122.161001881 L 393 111.669932385 L 398 149.215483185 L 403 136.221217339 L 409 121.714302287 L 414 130.113719721 L 419 105.0 L 424 155.529415782 L 430 127.759535184 L 435 107.399936089 L 440 104.895468989 L 446 125.765498531 L 451 110.376193071 L 456 116.857724698 L 461 170.70965922 L 467 116.404717416 L 472 152.878814214 L 477 356.351125084 L 482 391.366510581 L 488 376.679521587 L 493 329.325827243 L 498 367.051451985 L 504 404.155807581 L 509 401.435167472 L 514 408.330925351 L 519 427.454153378 L 525 406.203174223 L 530 422.859304966 L 535 421.885466373 L 540 421.316864381 L 546 408.385666554 L 551 395.283384435 L 556 394.822798716 L 562 406.292603279 L 567 410.577148535 L 572 418.787502377 L 577 411.978959042 L 583 354.423696631 L 588 402.521973732 L 593 426.885606306 L 598 421.175626388 L 604 410.18029367 L 609 415.527303277 L 614 430.688764115 L 620 424.069424837"/>
			<path class="series-2-line" d="M 40 422.247412693 L 45 422.61818517 L 50 415.965792981 L 55 415.283090758 L 61 424.081660835 L 66 418.482743345 L 71 419.906990522 L 76 418.170813599 L 82 415.732320209 L 87 418.912358553 L 92 422.092396897 L 98 420.00506174 L 103 419.322359517 L 108 422.853556094 L 113 420.063904471 L 119 421.839309882 L 124 423.263557059 L 129 419.420430736 L 134 419.088886746 L 140 420.864292156 L 145 418.776957 L 150 423.361628277 L 156 423.38124252 L 161 419.538116198 L 166 419.206572208 L 171 416.768078818 L 177 420.650433629 L 182 417.860782006 L 187 419.636187416 L 192 420.358118126 L 198 416.866150037 L 203 418.290397214 L 208 419.363486157 L 214 417.978467468 L 219 419.402714645 L 224 421.178120055 L 229 413.823411399 L 235 420.515032076 L 240 418.076538686 L 245 422.310051729 L 250 419.520400107 L 256 420.242330817 L 261 420.613103294 L 266 420.281559304 L 272 420.301173548 L 277 417.511521925 L 282 420.691560269 L 287 418.955383346 L 293 419.677314056 L 298 421.452719466 L 303 424.63275781 L 308 421.491947953 L 314 416.946505164 L 319 417.668435874 L 324 419.794999518 L 330 420.868088461 L 335 422.292335638 L 340 416.342259916 L 345 419.873456492 L 351 416.732646636 L 356 422.01963438 L 361 423.79503979 L 366 421.005388167 L 372 418.566894778 L 377 422.800407821 L 382 420.713072665 L 388 418.274579275 L 393 421.805775852 L 398 422.878864796 L 403 419.738054939 L 409 419.757669183 L 414 420.830758127 L 419 418.392264737 L 424 420.869986614 L 430 421.943075558 L 435 417.397632768 L 440 421.279987578 L 446 421.650760055 L 451 422.372690766 L 456 421.338830309 L 461 425.923501586 L 467 416.813001764 L 472 420.695356574 L 477 421.066129051 L 482 419.681110361 L 488 420.403041071 L 493 422.529604715 L 498 422.900377192 L 504 424.324624369 L 509 420.832656279 L 514 423.66153639 L 519 422.627675933 L 525 420.189182544 L 530 420.559955021 L 535 418.472619864 L 540 421.652658208 L 546 422.374588918 L 551 422.394203162 L 556 422.413817406 L 562 423.838064583 L 567 423.15536236 L 572 426.335400703 L 577 416.873742647 L 583 421.809572157 L 588 420.073395234 L 593 423.253433578 L 598 420.463781955 L 604 420.483396199 L 609 418.396061042 L 614 419.117991753 L 620 421.244555396"/>
		</g>
		<text class="x-axis-label" x="40.0" y="540">0</text>
		<path class="x-notch" d="M 66.3636363636 525 L 66.3636363636 530"/>
		<text class="x-axis-label" x="92.7272727273" y="540">10</text>
		<path class="x-notch" d="M 119.090909091 525 L 119.090909091 530"/>
		<text class="x-axis-label" x="145.454545455" y="540">20</text>
		<path class="x-notch" d="M 171.818181818 525 L 171.818181818 530"/>
		<text class="x-axis-label" x="198.181818182" y="540">30</text>
		<path class="x-notch" d="M 224.545454545 525 L 224.545454545 530"/>
		<text class="x-axis-label" x="250.909090909" y="540">40</text>
		<path class="x-notch" d="M 277.272727273 525 L 277.272727273 530"/>
		<text class="x-axis-label" x="303.636363636" y="540">50</text>
		<path class="x-notch" d="M 330.0 525 L 330.0 530"/>
		<text class="x-axis-label" x="356.363636364" y="540">60</text>
		<path class="x-notch" d="M 382.727272727 525 L 382.727272727 530"/>
		<text class="x-axis-label" x="409.090909091" y="540">70</text>
		<path class="x-notch" d="M 435.454545455 525 L 435.454545455 530"/>
		<text class="x-axis-label" x="461.818181818" y="540">80</text>
		<path class="x-notch" d="M 488.181818182 525 L 488.181818182 530"/>
		<text class="x-axis-label" x="514.545454545" y="540">90</text>
		<path class="x-notch" d="M 540.909090909 525 L 540.909090909 530"/>
		<text class="x-axis-label" x="567.272727273" y="540">100</text>
		<path class="x-notch" d="M 593.636363636 525 L 593.636363636 530"/>
		<text class="x-axis-label" x="620.0" y="540">110</text>
	</g>
</svg>
