<?xml version="1.0" ?>
<svg height="600" version="1.1" width="800" xmlns="http://www.w3.org/2000/svg" xmlns:svg="http://www.w3.org/2000/svg">
	<style type="text/css">

.x-axis-path, .y-gridline, .x-notch { fill:none; stroke: #a7a9ac; stroke-width:1; }



.y-gridline { stroke-width: 1; }

.y-axis-path, .y-axis-path2, .x-notch-left, .x-notch-right { display: none;}



.x-axis-label, .data-point-label {font-size: 12px; font-weight:normal; font-family: sans-serif; fill: #58595b; text-anchor:middle;}

.y-axis-label {font-size: 12px; font-family: helvetica; fill: #a7a9ac; text-anchor:end;}



.series-1-line { fill: none; stroke: #10b80c; stroke-width:2; }



.series-2-line { fill: none; stroke: #e90f0a; stroke-width: 2;}
</style>
	<rect fill="white" height="600" width="800" x="0" y="0"/>
	<g id="grid" transform="translate(70, 30)">
		<g class="x-axis" id="x_axis">
			<path class="x-axis-path" d="M 0 525 L 660 525"/>
			<path class="x-notch-left" d="M 0 525, L 0 535"/>
			<path class="x-notch-right" d="M 660 525, L 660 535"/>
		</g>
		<g class="y-axis" id="y_axis">
			<path class="y-axis-path" d="M 0 525 L 0 0"/>
			<path class="y-axis-path-2" d="M 660 525 L 660 0"/>
			<path class="y-gridline" d="M 0 525 L 660 525"/>
			<text class="y-axis-label" x="-5" y="525">-200</text>
			<path class="y-gridline" d="M 0 394 L 660 394"/>
			<text class="y-axis-label" x="-5" y="394"> 0</text>
			<path class="y-gridline" d="M 0 263 L 660 263"/>
			<text class="y-axis-label" x="-5" y="263">200</text>
			<path class="y-gridline" d="M 0 132 L 660 132"/>
			<text class="y-axis-label" x="-5" y="132">400</text>
			<path class="y-gridline" d="M 0 1 L 660 1"/>
			<text class="y-axis-label" x="-5" y="1">600</text>
		</g>
		<g>
			<path class="series-1-line" d="M 40 389.142961145 L 43 388.306708795 L 46 398.942170159 L 49 397.92266999 L 53 393.402879183 L 56 371.675517806 L 59 390.722368539 L 62 384.846658221 L 66 384.743397148 L 69 369.796490961 L 72 402.239300448 L 76 369.040225357 L 79 392.338654199 L 82 373.140169903 L 85 387.403995263 L 89 372.750399938 L 92 383.184317288 L 95 364.737120464 L 98 356.77221348 L 102 307.226632455 L 105 301.845777012 L 108 295.823411263 L 112 319.305087924 L 115 323.508293542 L 118 331.083430561 L 121 263.450632258 L 125 279.272207021 L 128 251.973940412 L 131 299.425346639 L 135 342.203790536 L 138 344.812654363 L 141 340.567878224 L 144 320.636402651 L 148 273.033362862 L 151 265.17851892 L 154 307.975259011 L 157 293.578096282 L 161 285.778140923 L 164 246.952986141 L 167 287.202552957 L 171 274.051532574 L 174 245.030564937 L 177 261.676897826 L 180 287.485907554 L 184 250.896604868 L 187 298.237948052 L 190 262.198388825 L 194 257.587117047 L 197 265.547045899 L 200 284.209104799 L 203 283.226197018 L 207 218.98362631 L 210 255.659717712 L 213 272.58077939 L 216 215.375382345 L 220 226.945378999 L 223 202.817499778 L 226 224.246572161 L 230 204.461752019 L 233 235.970026216 L 236 165.313495956 L 239 218.299215026 L 243 217.536147453 L 246 197.549783297 L 249 214.892515074 L 252 199.835545844 L 256 187.912371614 L 259 175.347687077 L 262 185.525171831 L 266 156.485908001 L 269 124.972655672 L 272 156.810833119 L 275 129.988839313 L 279 188.985429908 L 282 203.194366686 L 285 171.992721413 L 289 133.644125312 L 292 106.162610884 L 295 112.528197945 L 298 124.758001099 L 302 81.4431318062 L 305 101.149789039 L 308 65.8615172826 L 311 124.528204627 L 315 73.9014328807 L 318 27.4530544666 L 321 84.7269440336 L 325 41.1922345332 L 328 74.2765543267 L 331 100.213637414 L 334 94.337927096 L 338 114.960823425 L 341 71.9209688002 L 344 0.0 L 348 92.2939486257 L 351 36.0779754536 L 354 29.945546662 L 357 16.7579338907 L 361 37.234174789 L 364 80.4708811731 L 367 1.8609381536 L 370 14.9703880161 L 374 60.5893160503 L 377 82.6598987393 L 380 85.2321701785 L 384 75.9479360717 L 387 80.4993411343 L 390 99.8943913112 L 393 89.821991467 L 397 45.5725868838 L 400 92.4193610703 L 403 103.604565892 L 407 114.221731061 L 410 132.022439448 L 413 105.787067366 L 416 111.93281422 L 420 142.414786277 L 423 186.659212728 L 426 165.921561102 L 429 129.900298068 L 433 104.965956916 L 436 88.5896605629 L 439 198.219538996 L 443 165.753455182 L 446 121.943731014 L 449 132.157808157 L 452 153.074015348 L 456 167.850991778 L 459 224.226938443 L 462 199.512437498 L 465 193.801678805 L 469 251.95521508 L 472 220.790162195 L 475 287.666694895 L 479 270.410751834 L 482 303.971344431 L 485 281.089607556 L 488 255.092371876 L 492 298.897117912 L 495 322.26873153 L 498 295.538504573 L 502 273.041559531 L 505 289.577829376 L 508 306.828794305 L 511 315.540010628 L 515 341.294131774 L 518 319.548474202 L 521 304.784815835 L 524 332.939454825 L 528 336.061469722 L 531 334.675473914 L 534 343.680001099 L 538 349.660796327 L 541 367.608160144 L 544 327.152071183 L 547 361.738965918 L 551 353.554218727 L 554 382.075353356 L 557 362.0889892 L 561 367.501744777 L 564 386.731843329 L 567 396.505954179 L 570 386.177121739 L 574 381.987234182 L 577 391.889704269 L 580 386.893640659 L 583 372.661429555 L 587 400.156262044 L 590 404.139627455 L 593 386.718732769 L 597 381.740965354 L 600 389.352694761 L 603 401.399250096 L 606 388.468069921 L 610 390.857093541 L 613 390.185792816 L 616 392.061665366 L 620 408.726294449"/>
			<path class="series-2-line" d="M 40 393.32118295 L 43 396.191205676 L 46 393.343667739 L 49 396.928385548 L 53 389.077982032 L 56 389.803919509 L 59 384.812296324 L 62 393.399879712 L 66 393.411122107 L 69 395.56644975 L 72 391.289521647 L 76 397.733019787 L 79 398.458957265 L 82 394.896724245 L 85 383.472845315 L 89 395.633904117 L 92 396.359841595 L 95 387.080047912 L 98 387.091290307 L 102 379.24088679 L 105 394.260725924 L 108 397.845443733 L 112 397.856686128 L 115 395.009148191 L 118 395.735085668 L 121 394.316937897 L 125 390.754704878 L 128 396.483507935 L 131 392.206579832 L 135 392.217822227 L 138 387.226199042 L 141 392.240307016 L 144 391.536854328 L 148 387.259926225 L 151 397.991594862 L 154 395.144056926 L 157 395.15529932 L 161 397.310626963 L 164 389.460223447 L 167 393.759636338 L 171 394.485573816 L 174 390.208645713 L 177 397.366838936 L 180 396.663386248 L 184 402.392189305 L 187 387.39483496 L 190 390.979552769 L 194 397.423050909 L 197 393.860817889 L 200 393.157365201 L 203 391.024522347 L 207 390.321069659 L 210 394.62048255 L 213 386.770079034 L 216 403.219308333 L 220 393.939514651 L 223 406.815268537 L 226 392.532609275 L 230 396.832022166 L 233 398.987349809 L 236 395.42511679 L 239 391.86288377 L 243 383.297785171 L 246 391.170673476 L 249 401.187647031 L 252 392.622548431 L 256 396.921961323 L 259 389.786252889 L 262 402.662006774 L 266 401.243859003 L 269 395.537540735 L 272 401.981038875 L 275 389.127769779 L 279 395.571267919 L 282 392.723729982 L 285 394.164362542 L 289 395.604995103 L 292 402.048493243 L 295 396.342174975 L 298 395.638722286 L 302 391.361794184 L 305 394.946511993 L 308 392.813669139 L 311 394.968996782 L 315 388.547983431 L 318 399.279652068 L 321 395.717419048 L 325 397.872746691 L 328 405.030939914 L 331 384.316024907 L 334 392.903608295 L 338 392.91485069 L 341 401.502434078 L 344 400.084286307 L 348 396.522053288 L 351 397.962685848 L 354 390.826977414 L 357 397.270475554 L 361 392.278852369 L 364 404.439911172 L 367 387.298471578 L 370 388.739104138 L 374 391.609126864 L 377 388.761588927 L 380 389.487526405 L 384 400.219195042 L 387 398.801047271 L 390 395.238814251 L 393 389.532495983 L 397 391.687823626 L 400 398.131321766 L 403 393.139698581 L 407 393.150940976 L 410 387.444622707 L 413 394.60281593 L 416 395.328753408 L 420 390.337130222 L 423 384.630811954 L 426 398.221260923 L 429 398.9471984 L 433 398.243745712 L 436 400.399073355 L 439 396.122145252 L 443 399.706863061 L 446 388.997679213 L 449 396.155872436 L 452 406.17284599 L 456 398.322442474 L 459 395.474904537 L 462 388.339196103 L 465 399.07086474 L 469 397.652716969 L 472 393.375788867 L 475 396.960506675 L 479 396.97174907 L 482 385.547870139 L 485 399.138319108 L 488 397.005476254 L 492 404.163669477 L 495 393.454485629 L 498 394.180423106 L 502 403.482701577 L 505 399.920468558 L 508 396.358235538 L 511 387.078441856 L 515 394.951330162 L 518 398.53604797 L 521 399.976680531 L 524 395.699752428 L 528 394.281604657 L 531 399.295712631 L 534 400.021650109 L 538 398.603502338 L 541 397.90004965 L 544 393.623121547 L 547 389.346193445 L 551 395.789691585 L 554 390.083373317 L 557 397.956261622 L 561 401.540979431 L 564 395.834661163 L 567 387.984257646 L 570 394.427755786 L 574 390.865522767 L 577 390.876765161 L 580 401.608433798 L 583 403.763761441 L 587 390.910492345 L 590 394.495210154 L 593 392.3623673 L 597 400.235255606 L 600 395.24363242 L 603 395.254874815 L 606 389.548556547 L 610 390.989189107 L 613 396.003297081 L 616 393.870454227 L 620 398.169867119"/>
		</g>
		<text class="x-axis-label" x="40.0" y="540">0</text>
		<path class="x-notch" d="M 56.384180791 525 L 56.384180791 530"/>
		<text class="x-axis-label" x="72.7683615819" y="540">10</text>
		<path class="x-notch" d="M 89.1525423729 525 L 89.1525423729 530"/>
		<text class="x-axis-label" x="105.536723164" y="540">20</text>
		<path class="x-notch" d="M 121.920903955 525 L 121.920903955 530"/>
		<text class="x-axis-label" x="138.305084746" y="540">30</text>
		<path class="x-notch" d="M 154.689265537 525 L 154.689265537 530"/>
		<text class="x-axis-label" x="171.073446328" y="540">40</text>
		<path class="x-notch" d="M 187.457627119 525 L 187.457627119 530"/>
		<text class="x-axis-label" x="203.84180791" y="540">50</text>
		<path class="x-notch" d="M 220.225988701 525 L 220.225988701 530"/>
		<text class="x-axis-label" x="236.610169492" y="540">60</text>
		<path class="x-notch" d="M 252.994350282 525 L 252.994350282 530"/>
		<text class="x-axis-label" x="269.378531073" y="540">70</text>
		<path class="x-notch" d="M 285.762711864 525 L 285.762711864 530"/>
		<text class="x-axis-label" x="302.146892655" y="540">80</text>
		<path class="x-notch" d="M 318.531073446 525 L 318.531073446 530"/>
		<text class="x-axis-label" x="334.915254237" y="540">90</text>
		<path class="x-notch" d="M 351.299435028 525 L 351.299435028 530"/>
		<text class="x-axis-label" x="367.683615819" y="540">100</text>
		<path class="x-notch" d="M 384.06779661 525 L 384.06779661 530"/>
		<text class="x-axis-label" x="400.451977401" y="540">110</text>
		<path class="x-notch" d="M 416.836158192 525 L 416.836158192 530"/>
		<text class="x-axis-label" x="433.220338983" y="540">120</text>
		<path class="x-notch" d="M 449.604519774 525 L 449.604519774 530"/>
		<text class="x-axis-label" x="465.988700565" y="540">130</text>
		<path class="x-notch" d="M 482.372881356 525 L 482.372881356 530"/>
		<text class="x-axis-label" x="498.757062147" y="540">140</text>
		<path class="x-notch" d="M 515.141242938 525 L 515.141242938 530"/>
		<text class="x-axis-label" x="531.525423729" y="540">150</text>
		<path class="x-notch" d="M 547.90960452 525 L 547.90960452 530"/>
		<text class="x-axis-label" x="564.293785311" y="540">160</text>
		<path class="x-notch" d="M 580.677966102 525 L 580.677966102 530"/>
		<text class="x-axis-label" x="597.062146893" y="540">170</text>
		<path class="x-notch" d="M 613.446327684 525 L 613.446327684 530"/>
	</g>
</svg>
