<?xml version="1.0" ?>
<svg height="600" version="1.1" width="800" xmlns="http://www.w3.org/2000/svg" xmlns:svg="http://www.w3.org/2000/svg">
	<style type="text/css">

.x-axis-path, .y-gridline, .x-notch { fill:none; stroke: #a7a9ac; stroke-width:1; }



.y-gridline { stroke-width: 1; }

.y-axis-path, .y-axis-path2, .x-notch-left, .x-notch-right { display: none;}



.x-axis-label, .data-point-label {font-size: 12px; font-weight:normal; font-family: sans-serif; fill: #58595b; text-anchor:middle;}

.y-axis-label {font-size: 12px; font-family: helvetica; fill: #a7a9ac; text-anchor:end;}



.series-1-line { fill: none; stroke: #10b80c; stroke-width:2; }



.series-2-line { fill: none; stroke: #e90f0a; stroke-width: 2;}
</style>
	<rect fill="white" height="600" width="800" x="0" y="0"/>
	<g id="grid" transform="translate(70, 30)">
		<g class="x-axis" id="x_axis">
			<path class="x-axis-path" d="M 0 525 L 660 525"/>
			<path class="x-notch-left" d="M 0 525, L 0 535"/>
			<path class="x-notch-right" d="M 660 525, L 660 535"/>
		</g>
		<g class="y-axis" id="y_axis">
			<path class="y-axis-path" d="M 0 525 L 0 0"/>
			<path class="y-axis-path-2" d="M 660 525 L 660 0"/>
			<path class="y-gridline" d="M 0 525 L 660 525"/>
			<text class="y-axis-label" x="-5" y="525">-200</text>
			<path class="y-gridline" d="M 0 394 L 660 394"/>
			<text class="y-axis-label" x="-5" y="394"> 0</text>
			<path class="y-gridline" d="M 0 263 L 660 263"/>
			<text class="y-axis-label" x="-5" y="263">200</text>
			<path class="y-gridline" d="M 0 132 L 660 132"/>
			<text class="y-axis-label" x="-5" y="132">400</text>
			<path class="y-gridline" d="M 0 1 L 660 1"/>
			<text class="y-axis-label" x="-5" y="1">600</text>
		</g>
		<g>
			<path class="series-1-line" d="M 40 404.650061178 L 44 389.385808732 L 48 389.262035728 L 52 386.487951855 L 56 399.3742024 L 60 398.793874874 L 64 383.504302247 L 68 390.113719371 L 72 399.043691563 L 77 405.424831426 L 81 395.435682722 L 85 392.243222414 L 89 386.958484299 L 93 395.926436763 L 97 388.257843126 L 101 393.370995778 L 105 389.493703687 L 109 389.293772324 L 114 393.78559146 L 118 396.337251692 L 122 399.789360877 L 126 393.756490525 L 130 386.886669488 L 134 372.687644989 L 138 371.245046596 L 142 372.211623906 L 146 383.588949887 L 151 352.106527777 L 155 342.611913866 L 159 336.87062123 L 163 335.681620279 L 167 342.379855852 L 171 337.716451252 L 175 324.874232414 L 179 310.76382855 L 183 295.943470536 L 188 267.694514723 L 192 278.361688739 L 196 272.962811994 L 200 238.601999568 L 204 263.002009188 L 208 192.349859806 L 212 218.068694815 L 216 211.693408572 L 220 174.771103727 L 225 150.098030103 L 229 150.963326687 L 233 160.413153855 L 237 127.688064714 L 241 135.197732977 L 245 112.211220815 L 249 86.0418827183 L 253 110.885588956 L 258 83.2961447443 L 262 59.8277578789 L 266 53.3256729147 L 270 60.9114995363 L 274 17.0530474833 L 278 76.2987699498 L 282 44.0808756937 L 286 40.5586595847 L 290 0.55500734453 L 295 0.0 L 299 49.8369012884 L 303 41.6864329486 L 307 36.7059326388 L 311 70.3373243531 L 315 18.921391577 L 319 39.8849778202 L 323 89.518922029 L 327 87.3281913996 L 332 95.738308616 L 336 49.5972817674 L 340 36.5141255776 L 344 80.7970055006 L 348 70.7570186196 L 352 77.0495378478 L 356 62.7616948996 L 360 93.8189341038 L 364 82.6124385505 L 369 85.1134584195 L 373 144.194204079 L 377 87.9470619923 L 381 150.261471763 L 385 140.690699495 L 389 173.358341802 L 393 185.534440383 L 397 174.543561999 L 401 195.266210891 L 406 178.607172512 L 410 189.908340135 L 414 203.035528031 L 418 218.140855103 L 422 200.162991336 L 426 221.45633338 L 430 240.936315241 L 434 234.408910095 L 439 234.804992066 L 443 276.52637957 L 447 259.030390506 L 451 265.132612745 L 455 278.982612696 L 459 282.358563523 L 463 272.407395091 L 467 267.984927843 L 471 278.639441769 L 476 281.647656522 L 480 275.513307631 L 484 312.682403448 L 488 317.668757378 L 492 320.676972132 L 496 337.012306145 L 500 331.118894605 L 504 346.351020399 L 508 353.315513505 L 513 352.874644791 L 517 350.607755803 L 521 345.538634858 L 525 374.617734886 L 529 349.069730305 L 533 376.703206223 L 537 353.50107689 L 541 363.584897664 L 545 370.96796502 L 550 382.281792733 L 554 385.44212639 L 558 358.790913589 L 562 388.985881927 L 566 376.638197883 L 570 391.426429245 L 574 393.940109205 L 578 390.481391363 L 582 384.587979824 L 587 391.45099439 L 591 382.958110159 L 595 396.947568922 L 599 393.793088886 L 603 392.857685378 L 607 400.785927891 L 611 389.224356356 L 615 383.838139701 L 620 401.428800835"/>
			<path class="series-2-line" d="M 40 394.442348712 L 44 390.500000917 L 48 396.942883797 L 52 392.506001208 L 56 394.498070942 L 60 395.006536294 L 64 395.020466851 L 68 392.561723438 L 72 394.553793172 L 77 389.127840995 L 81 391.614445523 L 85 394.595584845 L 89 396.093119785 L 93 392.15077199 L 97 399.088189665 L 101 398.607585428 L 105 392.687098457 L 109 391.711959426 L 114 391.725889984 L 118 385.805403012 L 122 393.731890275 L 126 396.218494803 L 130 394.254286184 L 134 397.7299603 L 138 397.743890858 L 142 388.361660328 L 146 394.310008415 L 151 393.829404178 L 155 396.316008706 L 159 391.879126117 L 163 390.903987086 L 167 393.885126409 L 171 394.888126554 L 175 398.858335464 L 179 388.487035346 L 183 392.457244257 L 188 389.009431256 L 192 390.012431401 L 196 390.026361959 L 200 394.985640457 L 204 394.505036221 L 208 390.562688426 L 212 396.511036512 L 216 394.546827894 L 220 394.066223657 L 225 392.102015038 L 229 398.544897919 L 233 396.5806893 L 237 397.089154652 L 241 389.190528504 L 245 394.149807003 L 249 394.16373756 L 253 382.30883306 L 258 391.718924705 L 262 394.700064027 L 266 393.230390202 L 270 392.749785966 L 274 394.247320906 L 278 396.733925434 L 282 395.264251609 L 286 391.816438608 L 290 389.852229989 L 295 386.404416988 L 299 390.869160693 L 303 395.828439191 L 307 388.424347837 L 311 394.372695924 L 315 398.342904834 L 319 393.906022245 L 323 391.447278832 L 327 392.450278978 L 332 398.398627064 L 336 389.510931329 L 340 392.492070651 L 344 395.473209973 L 348 386.585514237 L 352 395.006536294 L 356 393.042327675 L 360 395.528932203 L 364 395.048327966 L 369 397.0403977 L 373 386.669097582 L 377 392.122910875 L 381 398.071258961 L 385 393.139841578 L 389 395.131911312 L 393 392.178633105 L 397 396.643376809 L 401 391.217424632 L 406 392.714959572 L 410 391.245285747 L 414 394.226425069 L 418 397.207564391 L 422 392.276147008 L 426 394.268216742 L 430 389.831334153 L 434 392.317938681 L 439 394.804543209 L 443 392.345799796 L 447 389.392521589 L 451 388.911917353 L 455 394.860265439 L 459 395.368730791 L 463 391.92091779 L 467 393.912987524 L 471 396.894126846 L 476 396.908057403 L 480 395.932918373 L 484 390.012431401 L 488 390.026361959 L 492 390.040292517 L 496 394.010501427 L 500 394.024431984 L 504 396.511036512 L 508 396.52496707 L 513 394.560758451 L 517 388.145736686 L 521 394.588619566 L 525 397.075224094 L 529 396.594619858 L 533 393.146806857 L 537 393.160737414 L 541 388.723854825 L 545 400.606620441 L 550 397.15880744 L 554 392.721924851 L 558 390.757716232 L 562 392.749785966 L 566 396.719994876 L 570 391.294042699 L 574 391.307973256 L 578 397.256321343 L 582 397.2702519 L 587 393.822438899 L 591 394.330904251 L 595 397.806578367 L 599 394.85330016 L 603 392.889091542 L 607 396.859300452 L 611 393.906022245 L 615 391.941813626 L 620 392.944813772"/>
		</g>
		<text class="x-axis-label" x="40.0" y="540">0</text>
		<path class="x-notch" d="M 60.5673758865 525 L 60.5673758865 530"/>
		<text class="x-axis-label" x="81.134751773" y="540">10</text>
		<path class="x-notch" d="M 101.70212766 525 L 101.70212766 530"/>
		<text class="x-axis-label" x="122.269503546" y="540">20</text>
		<path class="x-notch" d="M 142.836879433 525 L 142.836879433 530"/>
		<text class="x-axis-label" x="163.404255319" y="540">30</text>
		<path class="x-notch" d="M 183.971631206 525 L 183.971631206 530"/>
		<text class="x-axis-label" x="204.539007092" y="540">40</text>
		<path class="x-notch" d="M 225.106382979 525 L 225.106382979 530"/>
		<text class="x-axis-label" x="245.673758865" y="540">50</text>
		<path class="x-notch" d="M 266.241134752 525 L 266.241134752 530"/>
		<text class="x-axis-label" x="286.808510638" y="540">60</text>
		<path class="x-notch" d="M 307.375886525 525 L 307.375886525 530"/>
		<text class="x-axis-label" x="327.943262411" y="540">70</text>
		<path class="x-notch" d="M 348.510638298 525 L 348.510638298 530"/>
		<text class="x-axis-label" x="369.078014184" y="540">80</text>
		<path class="x-notch" d="M 389.645390071 525 L 389.645390071 530"/>
		<text class="x-axis-label" x="410.212765957" y="540">90</text>
		<path class="x-notch" d="M 430.780141844 525 L 430.780141844 530"/>
		<text class="x-axis-label" x="451.34751773" y="540">100</text>
		<path class="x-notch" d="M 471.914893617 525 L 471.914893617 530"/>
		<text class="x-axis-label" x="492.482269504" y="540">110</text>
		<path class="x-notch" d="M 513.04964539 525 L 513.04964539 530"/>
		<text class="x-axis-label" x="533.617021277" y="540">120</text>
		<path class="x-notch" d="M 554.184397163 525 L 554.184397163 530"/>
		<text class="x-axis-label" x="574.75177305" y="540">130</text>
		<path class="x-notch" d="M 595.319148936 525 L 595.319148936 530"/>
		<text class="x-axis-label" x="615.886524823" y="540">140</text>
		<path class="x-notch" d="M 636.453900709 525 L 636.453900709 530"/>
	</g>
</svg>
