<?xml version="1.0" ?>
<svg height="600" version="1.1" width="800" xmlns="http://www.w3.org/2000/svg" xmlns:svg="http://www.w3.org/2000/svg">
	<style type="text/css">

.x-axis-path, .y-gridline, .x-notch { fill:none; stroke: #a7a9ac; stroke-width:1; }



.y-gridline { stroke-width: 1; }

.y-axis-path, .y-axis-path2, .x-notch-left, .x-notch-right { display: none;}



.x-axis-label, .data-point-label {font-size: 12px; font-weight:normal; font-family: sans-serif; fill: #58595b; text-anchor:middle;}

.y-axis-label {font-size: 12px; font-family: helvetica; fill: #a7a9ac; text-anchor:end;}



.series-1-line { fill: none; stroke: #10b80c; stroke-width:2; }



.series-2-line { fill: none; stroke: #e90f0a; stroke-width: 2;}
</style>
	<rect fill="white" height="600" width="800" x="0" y="0"/>
	<g id="grid" transform="translate(70, 30)">
		<g class="x-axis" id="x_axis">
			<path class="x-axis-path" d="M 0 525 L 660 525"/>
			<path class="x-notch-left" d="M 0 525, L 0 535"/>
			<path class="x-notch-right" d="M 660 525, L 660 535"/>
		</g>
		<g class="y-axis" id="y_axis">
			<path class="y-axis-path" d="M 0 525 L 0 0"/>
			<path class="y-axis-path-2" d="M 660 525 L 660 0"/>
			<path class="y-gridline" d="M 0 525 L 660 525"/>
			<text class="y-axis-label" x="-5" y="525">-200</text>
			<path class="y-gridline" d="M 0 394 L 660 394"/>
			<text class="y-axis-label" x="-5" y="394"> 0</text>
			<path class="y-gridline" d="M 0 263 L 660 263"/>
			<text class="y-axis-label" x="-5" y="263">200</text>
			<path class="y-gridline" d="M 0 132 L 660 132"/>
			<text class="y-axis-label" x="-5" y="132">400</text>
			<path class="y-gridline" d="M 0 1 L 660 1"/>
			<text class="y-axis-label" x="-5" y="1">600</text>
		</g>
		<g>
			<path class="series-1-line" d="M 40 371.737486878 L 43 396.425928011 L 46 389.16609448 L 49 407.088169764 L 52 403.397246814 L 55 409.185115201 L 58 391.561500276 L 61 391.382477979 L 64 395.485881144 L 67 408.183085591 L 70 406.719112959 L 73 391.522428492 L 77 401.250217383 L 80 396.388809345 L 83 381.763114939 L 86 392.604378989 L 89 400.647702659 L 92 406.921046216 L 95 388.926421368 L 98 391.40236924 L 101 397.932702864 L 104 396.754225263 L 107 380.815075559 L 110 399.736160756 L 114 391.191822281 L 117 383.617988755 L 120 396.02969817 L 123 376.436122993 L 126 389.732822465 L 129 396.577156084 L 132 398.739103961 L 135 402.557012096 L 138 409.058840755 L 141 393.148196016 L 144 389.14327307 L 147 387.450815336 L 151 378.363991763 L 154 396.685581935 L 157 359.818889305 L 160 373.601063946 L 163 371.33761615 L 166 358.139396899 L 169 387.567233701 L 172 375.254004506 L 175 375.160497101 L 178 356.965892114 L 181 360.72679032 L 185 357.863847499 L 188 364.194200983 L 191 327.841488487 L 194 328.061981076 L 197 286.769892773 L 200 312.914314024 L 203 278.531561779 L 206 287.34585565 L 209 281.941962514 L 212 283.561425294 L 215 257.829484258 L 218 232.468553145 L 222 252.389093646 L 225 247.299200505 L 228 246.634703038 L 231 198.347763783 L 234 223.350204911 L 237 158.675138259 L 240 173.056807926 L 243 110.323196563 L 246 123.534381142 L 249 136.888090543 L 252 102.476833334 L 255 96.330474962 L 259 79.70631534 L 262 79.0418178731 L 265 96.849427911 L 268 86.4776540042 L 271 91.4375422626 L 274 119.951884043 L 277 100.643803897 L 280 105.489672299 L 283 105.967154956 L 286 106.21615251 L 289 0.0 L 292 117.963364458 L 296 79.212226468 L 299 129.510596268 L 302 155.912007586 L 305 101.429692544 L 308 126.717628703 L 311 128.879576581 L 314 108.77202127 L 317 97.743742409 L 320 115.77983755 L 323 128.163042001 L 326 162.073284404 L 330 172.001053434 L 333 160.173299409 L 336 148.117060281 L 339 188.108658615 L 342 203.917803437 L 345 204.65227616 L 348 148.057030655 L 351 185.82167867 L 354 218.875435981 L 357 227.375729857 L 360 215.319490729 L 363 216.910448545 L 367 205.054189555 L 370 229.485640622 L 373 239.156419585 L 376 220.676319567 L 379 231.432068725 L 382 253.294064513 L 385 248.261181301 L 388 225.041685615 L 391 262.520838599 L 394 258.829915649 L 397 265.959744298 L 400 293.674610915 L 404 273.624065532 L 407 283.780319664 L 410 295.392553915 L 413 288.047205492 L 416 286.240727901 L 419 289.773141005 L 422 321.227947987 L 425 266.488642878 L 428 300.427390245 L 431 335.594078019 L 434 331.646165002 L 437 331.838152628 L 441 338.482506107 L 444 324.713296794 L 447 355.825598817 L 450 343.769359689 L 453 331.342110638 L 456 349.064205783 L 459 347.914233147 L 462 328.577648037 L 465 323.687735035 L 468 363.793353225 L 471 347.740183665 L 475 340.765845165 L 478 378.501988216 L 481 343.091275704 L 484 350.735084487 L 487 378.249970964 L 490 358.370900756 L 493 351.054057297 L 496 363.437261748 L 499 365.827694729 L 502 349.945554953 L 505 361.215284245 L 508 369.458588053 L 512 365.510675036 L 515 383.232770182 L 518 368.949580735 L 521 372.453488875 L 524 358.769794454 L 527 379.860820042 L 530 380.852282832 L 533 388.239101548 L 536 375.583367394 L 539 387.538106604 L 542 361.292185435 L 545 393.089942766 L 549 392.253970124 L 552 375.115830369 L 555 391.781460283 L 558 398.054803839 L 561 408.296572864 L 564 395.64083871 L 567 392.206905827 L 570 380.150666699 L 573 383.968574834 L 576 392.011898504 L 579 396.25827188 L 582 390.340398611 L 586 391.931356427 L 589 392.323324191 L 592 386.119955891 L 595 398.788655373 L 598 399.094662855 L 601 411.820372266 L 604 392.997767289 L 607 387.907874148 L 610 390.041317062 L 613 399.997591056 L 616 390.168302247 L 620 402.037526564"/>
			<path class="series-2-line" d="M 40 397.090425478 L 43 395.951028146 L 46 384.790354379 L 49 397.012658959 L 52 393.646311308 L 55 388.053013338 L 58 386.913616005 L 61 400.249395745 L 64 396.883048094 L 67 399.08407624 L 70 395.717728589 L 73 406.82655801 L 77 394.552409083 L 80 400.093862707 L 83 408.97574181 L 86 396.701592883 L 89 386.654394275 L 92 392.195847899 L 95 405.531627639 L 98 395.484429031 L 101 404.366308134 L 104 399.886485323 L 107 396.520137672 L 110 383.132513586 L 114 398.695243645 L 117 393.101945674 L 120 396.41644898 L 123 398.617477125 L 126 394.137654315 L 129 397.45215762 L 132 392.972334809 L 135 390.719462317 L 138 404.055242058 L 141 396.234993768 L 144 398.436021914 L 147 387.275348147 L 151 400.611127887 L 154 393.904354758 L 157 398.332333222 L 160 404.987262006 L 163 396.053538557 L 166 399.368041863 L 169 397.115169371 L 172 392.63534656 L 175 392.609424387 L 178 393.696977373 L 181 400.351906157 L 185 398.099033665 L 188 394.732686014 L 191 405.841515435 L 194 400.248217465 L 197 400.222295292 L 200 389.061621524 L 203 396.830025467 L 206 396.804103294 L 209 400.1186066 L 212 393.41183347 L 215 397.839811935 L 218 387.792613327 L 222 392.220591792 L 225 389.9677193 L 228 392.168747446 L 231 397.71020107 L 234 391.00342794 L 237 390.977505767 L 240 390.951583594 L 243 392.03913658 L 246 400.921015683 L 249 387.533391597 L 252 399.755696177 L 255 388.59502241 L 259 405.271227628 L 262 407.472255774 L 265 394.084631688 L 268 390.718284037 L 271 384.011510907 L 274 394.006865169 L 277 395.094418155 L 280 406.203247577 L 283 403.950375085 L 286 393.903176477 L 289 403.898530739 L 292 399.418707928 L 296 393.825409958 L 299 392.686012625 L 302 384.865764336 L 305 401.541969555 L 308 393.721721266 L 311 389.241898455 L 314 384.762075644 L 317 396.984380225 L 320 391.391082255 L 323 399.159486198 L 326 392.452713068 L 330 392.426790895 L 333 399.081719679 L 336 397.942322346 L 339 397.916400173 L 342 392.323102203 L 345 393.41065519 L 348 392.271257857 L 351 392.245335684 L 354 388.878988033 L 357 394.420441657 L 360 393.281044324 L 363 391.028171833 L 367 402.137001254 L 370 397.657178443 L 373 394.290830792 L 376 396.491858938 L 379 397.579411924 L 382 403.120865548 L 385 391.960191781 L 388 395.274695086 L 391 396.362248072 L 394 392.995900421 L 397 395.196928567 L 400 399.624907032 L 404 386.237282945 L 407 394.005686888 L 410 391.752814397 L 413 393.953842542 L 416 400.608771326 L 419 399.469373993 L 422 384.968274748 L 425 398.304054488 L 428 387.143380721 L 431 401.59263562 L 434 394.885862491 L 437 393.746465158 L 441 384.81274171 L 444 390.354195334 L 447 385.874372523 L 450 384.734975191 L 453 398.070754931 L 456 398.044832758 L 459 389.111109309 L 462 394.652562933 L 465 404.647917195 L 468 386.806392471 L 471 401.255647371 L 475 388.981498444 L 478 393.409476909 L 481 387.816178939 L 484 396.698058041 L 487 388.877809752 L 490 392.192313057 L 493 389.939440566 L 496 397.707844508 L 499 401.022347814 L 502 388.748198887 L 505 396.51660283 L 508 398.717630976 L 512 392.010857846 L 515 391.984935673 L 518 390.845538341 L 521 394.160041646 L 524 386.339793357 L 527 381.859970546 L 530 386.287949011 L 533 391.829402635 L 536 397.370856259 L 539 385.096707332 L 542 382.843834841 L 545 401.746990378 L 549 387.245891132 L 552 397.241245394 L 555 388.307521946 L 558 393.84897557 L 561 388.2556776 L 564 393.797131224 L 567 393.771209051 L 570 392.631811718 L 573 390.378939226 L 576 380.331740618 L 579 398.121420996 L 582 394.755073345 L 586 392.502200853 L 589 403.611030274 L 592 401.358157782 L 595 408.013086566 L 598 389.058086683 L 601 386.805214191 L 604 399.027518772 L 607 396.77464628 L 610 396.748724107 L 613 392.268901296 L 616 391.129503963 L 620 392.21705695"/>
		</g>
		<text class="x-axis-label" x="40.0" y="540">0</text>
		<path class="x-notch" d="M 55.4255319149 525 L 55.4255319149 530"/>
		<text class="x-axis-label" x="70.8510638298" y="540">10</text>
		<path class="x-notch" d="M 86.2765957447 525 L 86.2765957447 530"/>
		<text class="x-axis-label" x="101.70212766" y="540">20</text>
		<path class="x-notch" d="M 117.127659574 525 L 117.127659574 530"/>
		<text class="x-axis-label" x="132.553191489" y="540">30</text>
		<path class="x-notch" d="M 147.978723404 525 L 147.978723404 530"/>
		<text class="x-axis-label" x="163.404255319" y="540">40</text>
		<path class="x-notch" d="M 178.829787234 525 L 178.829787234 530"/>
		<text class="x-axis-label" x="194.255319149" y="540">50</text>
		<path class="x-notch" d="M 209.680851064 525 L 209.680851064 530"/>
		<text class="x-axis-label" x="225.106382979" y="540">60</text>
		<path class="x-notch" d="M 240.531914894 525 L 240.531914894 530"/>
		<text class="x-axis-label" x="255.957446809" y="540">70</text>
		<path class="x-notch" d="M 271.382978723 525 L 271.382978723 530"/>
		<text class="x-axis-label" x="286.808510638" y="540">80</text>
		<path class="x-notch" d="M 302.234042553 525 L 302.234042553 530"/>
		<text class="x-axis-label" x="317.659574468" y="540">90</text>
		<path class="x-notch" d="M 333.085106383 525 L 333.085106383 530"/>
		<text class="x-axis-label" x="348.510638298" y="540">100</text>
		<path class="x-notch" d="M 363.936170213 525 L 363.936170213 530"/>
		<text class="x-axis-label" x="379.361702128" y="540">110</text>
		<path class="x-notch" d="M 394.787234043 525 L 394.787234043 530"/>
		<text class="x-axis-label" x="410.212765957" y="540">120</text>
		<path class="x-notch" d="M 425.638297872 525 L 425.638297872 530"/>
		<text class="x-axis-label" x="441.063829787" y="540">130</text>
		<path class="x-notch" d="M 456.489361702 525 L 456.489361702 530"/>
		<text class="x-axis-label" x="471.914893617" y="540">140</text>
		<path class="x-notch" d="M 487.340425532 525 L 487.340425532 530"/>
		<text class="x-axis-label" x="502.765957447" y="540">150</text>
		<path class="x-notch" d="M 518.191489362 525 L 518.191489362 530"/>
		<text class="x-axis-label" x="533.617021277" y="540">160</text>
		<path class="x-notch" d="M 549.042553191 525 L 549.042553191 530"/>
		<text class="x-axis-label" x="564.468085106" y="540">170</text>
		<path class="x-notch" d="M 579.893617021 525 L 579.893617021 530"/>
		<text class="x-axis-label" x="595.319148936" y="540">180</text>
		<path class="x-notch" d="M 610.744680851 525 L 610.744680851 530"/>
	</g>
</svg>
