<?xml version="1.0" ?>
<svg height="600" version="1.1" width="800" xmlns="http://www.w3.org/2000/svg" xmlns:svg="http://www.w3.org/2000/svg">
	<style type="text/css">

.x-axis-path, .y-gridline, .x-notch { fill:none; stroke: #a7a9ac; stroke-width:1; }



.y-gridline { stroke-width: 1; }

.y-axis-path, .y-axis-path2, .x-notch-left, .x-notch-right { display: none;}



.x-axis-label, .data-point-label {font-size: 12px; font-weight:normal; font-family: sans-serif; fill: #58595b; text-anchor:middle;}

.y-axis-label {font-size: 12px; font-family: helvetica; fill: #a7a9ac; text-anchor:end;}



.series-1-line { fill: none; stroke: #10b80c; stroke-width:2; }



.series-2-line { fill: none; stroke: #e90f0a; stroke-width: 2;}
</style>
	<rect fill="white" height="600" width="800" x="0" y="0"/>
	<g id="grid" transform="translate(70, 30)">
		<g class="x-axis" id="x_axis">
			<path class="x-axis-path" d="M 0 525 L 660 525"/>
			<path class="x-notch-left" d="M 0 525, L 0 535"/>
			<path class="x-notch-right" d="M 660 525, L 660 535"/>
		</g>
		<g class="y-axis" id="y_axis">
			<path class="y-axis-path" d="M 0 525 L 0 0"/>
			<path class="y-axis-path-2" d="M 660 525 L 660 0"/>
			<path class="y-gridline" d="M 0 525 L 660 525"/>
			<text class="y-axis-label" x="-5" y="525">-200</text>
			<path class="y-gridline" d="M 0 394 L 660 394"/>
			<text class="y-axis-label" x="-5" y="394"> 0</text>
			<path class="y-gridline" d="M 0 263 L 660 263"/>
			<text class="y-axis-label" x="-5" y="263">200</text>
			<path class="y-gridline" d="M 0 132 L 660 132"/>
			<text class="y-axis-label" x="-5" y="132">400</text>
			<path class="y-gridline" d="M 0 1 L 660 1"/>
			<text class="y-axis-label" x="-5" y="1">600</text>
		</g>
		<g>
			<path class="series-1-line" d="M 40 400.702881084 L 44 405.714995368 L 49 377.491239968 L 54 382.581615281 L 59 399.077312861 L 64 395.153607217 L 69 408.043183283 L 74 398.200987259 L 79 372.564125743 L 84 361.507049515 L 89 414.256557741 L 94 395.987849898 L 99 390.339344527 L 104 344.596123907 L 109 367.558750489 L 114 399.10441095 L 119 380.679181048 L 124 408.26654536 L 129 383.060730922 L 134 392.031141354 L 139 394.338970209 L 144 393.628858102 L 149 362.622556244 L 154 394.560133268 L 158 367.08108048 L 163 367.899504111 L 168 335.952235652 L 173 381.490112263 L 178 363.104012876 L 183 357.49463802 L 188 317.787299324 L 193 319.781472645 L 198 340.470860877 L 203 340.544581897 L 208 308.479921893 L 213 306.985976659 L 218 276.13619686 L 223 247.167738848 L 228 221.256352313 L 233 269.459383838 L 238 209.998472086 L 243 230.25681324 L 248 194.351248632 L 253 151.861363477 L 258 128.340606838 L 263 127.591364216 L 268 160.587299385 L 272 79.7268872941 L 277 109.862014976 L 282 130.159486644 L 287 160.960444493 L 292 152.059215071 L 297 61.3220164518 L 302 53.7530587789 L 307 81.9286036437 L 312 29.0128819238 L 317 16.8191865205 L 322 35.5489919356 L 327 107.855809228 L 332 36.5193976164 L 337 147.31413339 L 342 71.4312450778 L 347 27.9221322927 L 352 57.0380323438 L 357 150.352433412 L 362 110.527703171 L 367 70.1930534075 L 372 98.2114647983 L 377 21.0745657662 L 382 32.9846561304 L 387 89.5359384447 L 391 80.8303615967 L 396 140.164190369 L 401 95.4793278942 L 406 0.0 L 411 249.225046395 L 416 320.669769531 L 421 390.742478988 L 426 376.706592313 L 431 394.299778553 L 436 401.780783761 L 441 392.44850726 L 446 391.032823056 L 451 381.582543597 L 456 380.519645441 L 461 412.967141988 L 466 370.398384389 L 471 395.98703537 L 476 379.246863266 L 481 369.640061747 L 486 419.841806603 L 491 383.583455947 L 496 372.212724185 L 501 361.939481084 L 505 390.232417493 L 510 375.84374477 L 515 371.331858574 L 520 384.731354162 L 525 381.277826111 L 530 387.583081629 L 535 400.708052199 L 540 365.939106766 L 545 388.196161251 L 550 407.709799793 L 555 397.005509614 L 560 404.408253792 L 565 362.035760182 L 570 390.367827107 L 575 403.022620083 L 580 396.668542615 L 585 390.197073602 L 590 394.07256871 L 595 391.010957223 L 600 369.4497834 L 605 403.425815685 L 610 382.766477948 L 615 411.568722465 L 620 406.312133658"/>
			<path class="series-2-line" d="M 40 394.055707148 L 44 397.141276749 L 49 398.698310611 L 54 389.555594304 L 59 389.584092428 L 64 415.597698106 L 69 381.998409983 L 74 377.441300892 L 79 392.755156401 L 84 398.897797479 L 89 406.568974295 L 94 405.068936681 L 99 402.040363327 L 104 394.426182759 L 109 399.040288098 L 114 376.140750145 L 119 399.097284346 L 124 397.597246732 L 129 405.268423548 L 134 386.95449281 L 139 394.625669626 L 144 396.182703489 L 149 414.553630475 L 154 390.125556783 L 158 394.739662122 L 163 396.296695985 L 168 382.568372462 L 173 382.596870586 L 178 399.439261833 L 183 390.296545526 L 188 394.910650866 L 193 391.882077513 L 198 393.439111375 L 203 391.939073761 L 208 396.5531791 L 213 401.16728444 L 218 395.081639609 L 223 393.581601995 L 228 392.08156438 L 233 393.638598243 L 238 379.91027472 L 243 389.109987275 L 248 396.781164092 L 253 418.209162555 L 258 401.423767555 L 263 409.094944371 L 268 398.423692326 L 272 384.695368803 L 277 403.066295789 L 282 406.15186539 L 287 380.19525596 L 292 407.737397377 L 297 384.837859423 L 302 383.337821808 L 307 409.351427487 L 312 387.980425272 L 317 392.594530611 L 322 401.794243166 L 327 398.765669813 L 332 389.622953506 L 337 403.408273276 L 342 388.151414015 L 347 389.708447878 L 352 388.208410263 L 357 386.708372649 L 362 409.66490685 L 367 392.879511851 L 372 383.736795544 L 377 385.293829406 L 382 385.32232753 L 387 396.050575823 L 391 393.02200247 L 396 386.93635764 L 401 393.078998718 L 406 394.636032581 L 411 393.135994966 L 416 405.392778998 L 421 393.192991214 L 426 387.107346384 L 431 394.7785232 L 436 370.350449508 L 441 405.535269618 L 446 397.921089049 L 451 391.835444219 L 456 388.806870866 L 461 404.120726375 L 466 378.164116944 L 471 390.420900976 L 476 388.920863362 L 481 407.291790348 L 486 395.092002564 L 491 398.177572165 L 496 393.620463073 L 501 396.706032674 L 505 404.37720949 L 510 393.705957445 L 515 392.20591983 L 520 398.348560908 L 525 410.60534494 L 530 390.762878464 L 535 380.091626418 L 540 389.291338973 L 545 384.734229881 L 550 390.876870959 L 555 401.605119253 L 560 389.405331469 L 565 392.49090107 L 570 394.047934932 L 575 397.133504533 L 580 384.933716749 L 585 391.076357827 L 590 392.633391689 L 595 403.361639983 L 600 378.933566291 L 605 394.2474218 L 610 408.03274157 L 615 395.832953786 L 620 391.275844694"/>
		</g>
		<text class="x-axis-label" x="40.0" y="540">0</text>
		<path class="x-notch" d="M 64.7863247863 525 L 64.7863247863 530"/>
		<text class="x-axis-label" x="89.5726495726" y="540">10</text>
		<path class="x-notch" d="M 114.358974359 525 L 114.358974359 530"/>
		<text class="x-axis-label" x="139.145299145" y="540">20</text>
		<path class="x-notch" d="M 163.931623932 525 L 163.931623932 530"/>
		<text class="x-axis-label" x="188.717948718" y="540">30</text>
		<path class="x-notch" d="M 213.504273504 525 L 213.504273504 530"/>
		<text class="x-axis-label" x="238.290598291" y="540">40</text>
		<path class="x-notch" d="M 263.076923077 525 L 263.076923077 530"/>
		<text class="x-axis-label" x="287.863247863" y="540">50</text>
		<path class="x-notch" d="M 312.64957265 525 L 312.64957265 530"/>
		<text class="x-axis-label" x="337.435897436" y="540">60</text>
		<path class="x-notch" d="M 362.222222222 525 L 362.222222222 530"/>
		<text class="x-axis-label" x="387.008547009" y="540">70</text>
		<path class="x-notch" d="M 411.794871795 525 L 411.794871795 530"/>
		<text class="x-axis-label" x="436.581196581" y="540">80</text>
		<path class="x-notch" d="M 461.367521368 525 L 461.367521368 530"/>
		<text class="x-axis-label" x="486.153846154" y="540">90</text>
		<path class="x-notch" d="M 510.94017094 525 L 510.94017094 530"/>
		<text class="x-axis-label" x="535.726495726" y="540">100</text>
		<path class="x-notch" d="M 560.512820513 525 L 560.512820513 530"/>
		<text class="x-axis-label" x="585.299145299" y="540">110</text>
		<path class="x-notch" d="M 610.085470085 525 L 610.085470085 530"/>
	</g>
</svg>
