<?xml version="1.0" ?>
<svg height="600" version="1.1" width="800" xmlns="http://www.w3.org/2000/svg" xmlns:svg="http://www.w3.org/2000/svg">
	<style type="text/css">

.x-axis-path, .y-gridline, .x-notch { fill:none; stroke: #a7a9ac; stroke-width:1; }



.y-gridline { stroke-width: 1; }

.y-axis-path, .y-axis-path2, .x-notch-left, .x-notch-right { display: none;}



.x-axis-label, .data-point-label {font-size: 12px; font-weight:normal; font-family: sans-serif; fill: #58595b; text-anchor:middle;}

.y-axis-label {font-size: 12px; font-family: helvetica; fill: #a7a9ac; text-anchor:end;}



.series-1-line { fill: none; stroke: #10b80c; stroke-width:2; }



.series-2-line { fill: none; stroke: #e90f0a; stroke-width: 2;}
</style>
	<rect fill="white" height="600" width="800" x="0" y="0"/>
	<g id="grid" transform="translate(70, 30)">
		<g class="x-axis" id="x_axis">
			<path class="x-axis-path" d="M 0 525 L 660 525"/>
			<path class="x-notch-left" d="M 0 525, L 0 535"/>
			<path class="x-notch-right" d="M 660 525, L 660 535"/>
		</g>
		<g class="y-axis" id="y_axis">
			<path class="y-axis-path" d="M 0 525 L 0 0"/>
			<path class="y-axis-path-2" d="M 660 525 L 660 0"/>
			<path class="y-gridline" d="M 0 525 L 660 525"/>
			<text class="y-axis-label" x="-5" y="525">-200</text>
			<path class="y-gridline" d="M 0 394 L 660 394"/>
			<text class="y-axis-label" x="-5" y="394"> 0</text>
			<path class="y-gridline" d="M 0 263 L 660 263"/>
			<text class="y-axis-label" x="-5" y="263">200</text>
			<path class="y-gridline" d="M 0 132 L 660 132"/>
			<text class="y-axis-label" x="-5" y="132">400</text>
			<path class="y-gridline" d="M 0 1 L 660 1"/>
			<text class="y-axis-label" x="-5" y="1">600</text>
		</g>
		<g>
			<path class="series-1-line" d="M 40 355.056170124 L 45 369.495068104 L 50 397.245353127 L 55 403.787287756 L 61 441.653100638 L 66 429.468637921 L 71 428.640386282 L 77 384.681527719 L 82 411.792406261 L 87 375.278820232 L 93 396.786972806 L 98 403.291364303 L 103 405.697101592 L 109 361.061293414 L 114 384.863096762 L 119 361.172250437 L 125 391.028470569 L 130 348.121992948 L 135 295.777523696 L 141 326.498409106 L 146 294.083477284 L 151 310.85356917 L 157 302.204027056 L 162 288.89151052 L 167 271.029235571 L 173 270.31361333 L 178 282.947507876 L 183 235.040167638 L 188 269.859707255 L 194 243.91275329 L 199 267.300995565 L 204 201.757768668 L 210 196.19145634 L 215 182.089360791 L 220 163.249204553 L 226 143.995487242 L 231 87.3640615066 L 236 160.990295043 L 242 126.394341847 L 247 207.955081868 L 252 175.276761505 L 258 56.5624860915 L 263 126.57871276 L 268 58.8544644884 L 274 132.142223218 L 279 70.321632588 L 284 70.9223664429 L 290 91.6033968718 L 295 128.227939923 L 300 0.0 L 306 2.17989188057 L 311 71.2563670045 L 316 141.460895948 L 322 181.732989001 L 327 125.40249494 L 332 145.030557814 L 337 95.3182141415 L 343 130.476228566 L 348 113.40353263 L 353 93.1719340305 L 359 111.521770554 L 364 152.997003692 L 369 133.780829515 L 375 156.717967583 L 380 203.082020553 L 385 337.174402609 L 391 341.385143333 L 396 307.57876915 L 401 316.151552621 L 407 346.684722367 L 412 364.620411206 L 417 281.967488122 L 423 359.203728528 L 428 368.979652085 L 433 381.83939204 L 439 387.704377055 L 444 322.950729171 L 449 375.970475662 L 455 346.713859891 L 460 361.37860328 L 465 375.967673792 L 471 405.52296225 L 476 393.526801809 L 481 293.952484814 L 486 374.948904619 L 492 382.468720537 L 497 369.268833399 L 502 358.626572187 L 508 387.166436223 L 513 380.735458616 L 518 379.531189037 L 524 393.706698476 L 529 392.088867824 L 534 408.144466963 L 540 397.990853089 L 545 374.074161356 L 550 405.47199638 L 556 409.720280236 L 561 401.559385461 L 566 362.075199045 L 572 383.20733368 L 577 404.264382049 L 582 379.821499844 L 588 383.881481425 L 593 393.243843909 L 598 373.952583466 L 604 376.771881828 L 609 403.018095091 L 614 400.986703366 L 620 416.290266625"/>
			<path class="series-2-line" d="M 40 390.230331295 L 45 401.959893896 L 50 396.091112972 L 55 381.423160285 L 61 399.018837395 L 66 388.750470589 L 71 379.948632411 L 77 407.810009911 L 82 387.275942715 L 87 397.538976689 L 93 393.136724392 L 98 384.334886214 L 103 385.798748425 L 109 404.860954162 L 114 385.793415594 L 119 397.522978195 L 125 406.319483542 L 130 384.31888772 L 135 404.847622084 L 141 393.112726651 L 146 393.110060235 L 151 384.308222057 L 157 394.571256031 L 162 388.702475107 L 167 406.298152217 L 173 379.897970513 L 178 387.227947233 L 183 401.890567088 L 188 379.889971266 L 194 400.41870563 L 199 388.683810197 L 204 409.212544561 L 210 396.011120501 L 215 398.94151134 L 220 397.472316297 L 226 403.33576439 L 231 406.266155229 L 236 393.064731169 L 242 390.129007499 L 247 397.458984219 L 252 381.324502905 L 258 403.319765896 L 263 381.319170073 L 268 398.914847183 L 274 381.313837242 L 279 393.043399843 L 284 390.107676173 L 290 400.370710148 L 295 382.769700206 L 300 401.831905943 L 306 381.297838748 L 311 391.560872722 L 316 397.424320815 L 322 382.756368128 L 327 395.952459356 L 332 398.882850195 L 337 409.145884169 L 343 391.544874228 L 348 400.341379575 L 353 387.139955515 L 359 417.934390269 L 364 387.134622684 L 369 387.131956268 L 375 388.59581848 L 380 395.9257952 L 385 387.123957021 L 391 392.987405114 L 396 381.252509681 L 401 392.982072283 L 407 410.577749392 L 412 391.510210824 L 417 392.974073035 L 423 388.571820738 L 428 384.169568441 L 433 413.497474568 L 439 390.030350118 L 444 401.75991272 L 449 400.290717677 L 455 365.09136421 L 460 398.818856218 L 465 387.083960786 L 471 385.614765743 L 476 403.210442853 L 481 413.473476827 L 486 394.405938259 L 492 398.802857724 L 497 375.335733275 L 502 410.52975391 L 508 395.861801223 L 513 403.191777943 L 518 395.856468392 L 524 391.454216095 L 529 391.451549679 L 534 379.716654246 L 540 395.845802729 L 545 385.577435923 L 550 382.641712253 L 556 382.639045838 L 561 373.837207659 L 566 389.966356142 L 572 387.030632472 L 577 395.827137819 L 582 410.489757675 L 588 382.623047344 L 593 385.553438182 L 598 397.283000784 L 604 391.414219859 L 609 391.411553444 L 614 398.741530164 L 620 389.939691985"/>
		</g>
		<text class="x-axis-label" x="40.0" y="540">0</text>
		<path class="x-notch" d="M 66.6055045872 525 L 66.6055045872 530"/>
		<text class="x-axis-label" x="93.2110091743" y="540">10</text>
		<path class="x-notch" d="M 119.816513761 525 L 119.816513761 530"/>
		<text class="x-axis-label" x="146.422018349" y="540">20</text>
		<path class="x-notch" d="M 173.027522936 525 L 173.027522936 530"/>
		<text class="x-axis-label" x="199.633027523" y="540">30</text>
		<path class="x-notch" d="M 226.23853211 525 L 226.23853211 530"/>
		<text class="x-axis-label" x="252.844036697" y="540">40</text>
		<path class="x-notch" d="M 279.449541284 525 L 279.449541284 530"/>
		<text class="x-axis-label" x="306.055045872" y="540">50</text>
		<path class="x-notch" d="M 332.660550459 525 L 332.660550459 530"/>
		<text class="x-axis-label" x="359.266055046" y="540">60</text>
		<path class="x-notch" d="M 385.871559633 525 L 385.871559633 530"/>
		<text class="x-axis-label" x="412.47706422" y="540">70</text>
		<path class="x-notch" d="M 439.082568807 525 L 439.082568807 530"/>
		<text class="x-axis-label" x="465.688073394" y="540">80</text>
		<path class="x-notch" d="M 492.293577982 525 L 492.293577982 530"/>
		<text class="x-axis-label" x="518.899082569" y="540">90</text>
		<path class="x-notch" d="M 545.504587156 525 L 545.504587156 530"/>
		<text class="x-axis-label" x="572.110091743" y="540">100</text>
		<path class="x-notch" d="M 598.71559633 525 L 598.71559633 530"/>
	</g>
</svg>
