<?xml version="1.0" ?>
<svg height="600" version="1.1" width="800" xmlns="http://www.w3.org/2000/svg" xmlns:svg="http://www.w3.org/2000/svg">
	<style type="text/css">

.x-axis-path, .y-gridline, .x-notch { fill:none; stroke: #a7a9ac; stroke-width:1; }



.y-gridline { stroke-width: 1; }

.y-axis-path, .y-axis-path2, .x-notch-left, .x-notch-right { display: none;}



.x-axis-label, .data-point-label {font-size: 12px; font-weight:normal; font-family: sans-serif; fill: #58595b; text-anchor:middle;}

.y-axis-label {font-size: 12px; font-family: helvetica; fill: #a7a9ac; text-anchor:end;}



.series-1-line { fill: none; stroke: #10b80c; stroke-width:2; }



.series-2-line { fill: none; stroke: #e90f0a; stroke-width: 2;}
</style>
	<rect fill="white" height="600" width="800" x="0" y="0"/>
	<g id="grid" transform="translate(70, 30)">
		<g class="x-axis" id="x_axis">
			<path class="x-axis-path" d="M 0 525 L 660 525"/>
			<path class="x-notch-left" d="M 0 525, L 0 535"/>
			<path class="x-notch-right" d="M 660 525, L 660 535"/>
		</g>
		<g class="y-axis" id="y_axis">
			<path class="y-axis-path" d="M 0 525 L 0 0"/>
			<path class="y-axis-path-2" d="M 660 525 L 660 0"/>
			<path class="y-gridline" d="M 0 525 L 660 525"/>
			<text class="y-axis-label" x="-5" y="525">-200</text>
			<path class="y-gridline" d="M 0 394 L 660 394"/>
			<text class="y-axis-label" x="-5" y="394"> 0</text>
			<path class="y-gridline" d="M 0 263 L 660 263"/>
			<text class="y-axis-label" x="-5" y="263">200</text>
			<path class="y-gridline" d="M 0 132 L 660 132"/>
			<text class="y-axis-label" x="-5" y="132">400</text>
			<path class="y-gridline" d="M 0 1 L 660 1"/>
			<text class="y-axis-label" x="-5" y="1">600</text>
		</g>
		<g>
			<path class="series-1-line" d="M 40 414.512184363 L 44 393.220412629 L 48 396.768792682 L 53 373.705962898 L 57 386.064294115 L 61 402.418840716 L 66 356.422934453 L 70 386.945945455 L 75 389.631466026 L 79 396.721962178 L 83 397.136986329 L 88 347.917045992 L 92 378.121974968 L 97 370.953328548 L 101 388.30675189 L 105 348.804961284 L 110 355.850118351 L 114 384.738088561 L 119 348.006232747 L 123 355.460150011 L 127 348.790941962 L 132 336.853898848 L 136 311.974671927 L 141 341.316741422 L 145 282.333312266 L 149 323.891431766 L 154 330.164407523 L 158 341.659879258 L 163 312.511694014 L 167 296.896517542 L 171 325.285049381 L 176 305.355575499 L 180 313.308931134 L 185 296.512813154 L 189 308.417045087 L 193 317.369277463 L 198 273.871271473 L 202 205.260370757 L 206 110.038260204 L 211 136.156295624 L 215 108.643151171 L 220 93.1186528712 L 224 109.927298757 L 228 89.6344037625 L 233 87.4608494672 L 237 145.094508676 L 242 96.7827669069 L 246 128.213976477 L 250 94.025360022 L 255 105.611509929 L 259 89.9963334571 L 264 124.242816903 L 268 101.543408231 L 272 145.826123435 L 277 117.086698389 L 281 71.0001139538 L 286 109.924315922 L 290 68.6514672668 L 294 107.348265381 L 299 101.496577728 L 303 157.223161628 L 308 42.2920086707 L 312 105.875006082 L 316 167.096120477 L 321 158.701193463 L 325 84.6864404249 L 330 0.0 L 334 193.959789979 L 338 46.1053762933 L 343 6.73960294646 L 347 54.5644342511 L 351 134.995152681 L 356 117.381514305 L 360 111.211744625 L 365 161.171055092 L 369 158.225319487 L 373 156.324508131 L 378 106.786485768 L 382 202.793305536 L 387 249.845955531 L 391 241.769110543 L 395 216.435784339 L 400 244.006795783 L 404 221.398065282 L 409 216.499915283 L 413 413.048283707 L 417 405.243473236 L 422 411.834531019 L 426 417.426712061 L 431 379.423236567 L 435 417.030479769 L 439 375.893648372 L 444 409.186594164 L 448 386.078425294 L 453 409.108443897 L 457 390.405250609 L 461 392.636671896 L 466 405.449102397 L 470 392.694538887 L 474 402.82771277 L 479 392.162289336 L 483 355.521111694 L 488 386.044122696 L 492 390.954800601 L 496 383.831493267 L 501 407.724371352 L 505 385.569740136 L 510 384.259045323 L 514 402.748071086 L 518 373.100447472 L 523 401.443640225 L 527 407.217177612 L 532 398.368151315 L 536 394.832299167 L 540 398.335340134 L 545 401.656316333 L 549 390.809536555 L 554 406.709983872 L 558 404.263686637 L 562 412.1263641 L 567 417.264445859 L 571 398.469865975 L 576 389.394144247 L 580 412.968940307 L 584 389.452011238 L 589 380.602984941 L 593 390.327398626 L 598 416.581451304 L 602 404.962490216 L 606 401.381298982 L 611 388.03661893 L 615 390.268040217 L 620 390.819081626"/>
			<path class="series-2-line" d="M 40 387.37419102 L 44 392.647416492 L 48 390.836409764 L 53 396.109635237 L 57 401.382860709 L 61 404.885028131 L 66 395.989789203 L 70 399.491956625 L 75 394.138833797 L 79 392.32782707 L 83 395.829994492 L 88 406.416394114 L 92 390.436922986 L 97 402.794380659 L 101 388.58596758 L 105 402.714483303 L 110 407.987708775 L 114 390.237179597 L 119 386.655114819 L 123 397.241514442 L 127 400.743681864 L 132 397.161617086 L 136 409.519074759 L 141 389.99748753 L 145 404.126003253 L 149 412.941344825 L 154 400.503989797 L 158 402.235099169 L 163 389.797744141 L 167 407.468375964 L 171 398.573137036 L 176 398.533188358 L 180 400.26429773 L 185 394.911174902 L 189 401.955458424 L 193 385.975987296 L 198 401.875561069 L 202 398.293496291 L 206 401.795663713 L 211 401.755715035 L 215 410.571056608 L 220 414.07322403 L 224 415.804333402 L 228 403.366978374 L 233 396.242797496 L 237 383.805442468 L 242 390.84972599 L 246 390.809777312 L 250 404.938293035 L 255 392.500938007 L 259 410.17156983 L 264 385.336808451 L 268 403.007440274 L 272 401.196433546 L 277 394.072252668 L 281 399.34547814 L 286 404.618703613 L 290 418.747219335 L 294 390.370341856 L 299 404.498857579 L 303 413.314199152 L 308 383.166263623 L 312 409.692185696 L 316 390.170598467 L 321 386.588533689 L 325 397.174933312 L 330 414.845565135 L 334 409.492442307 L 338 404.139319479 L 343 397.015138601 L 347 395.204131873 L 351 418.187937846 L 356 402.208466717 L 360 396.855343889 L 365 407.441743512 L 369 382.606982133 L 373 402.048672006 L 378 393.153433078 L 382 403.7398327 L 387 384.218245472 L 391 400.117819245 L 395 414.246334967 L 400 394.724747739 L 404 398.226915161 L 409 401.729082583 L 413 407.002308056 L 417 380.396488627 L 422 387.440772149 L 426 412.195636173 L 431 399.758281144 L 435 403.260448567 L 439 396.136267689 L 444 381.92785461 L 448 394.285312283 L 453 392.474305555 L 457 408.373879328 L 461 404.79181455 L 466 408.293981972 L 470 394.085568894 L 474 401.129852416 L 479 406.403077889 L 483 388.65254871 L 488 392.154716132 L 492 385.030535254 L 496 390.303760727 L 501 392.034870099 L 505 393.765979471 L 510 390.183914693 L 514 406.083488466 L 518 402.501423688 L 523 400.69041696 L 527 397.108352182 L 532 395.297345454 L 536 393.486338726 L 540 398.759564199 L 545 363.29845452 L 549 396.908608793 L 554 402.181834265 L 558 368.491782636 L 562 384.391356409 L 567 410.917278482 L 571 371.914052703 L 576 405.524206976 L 580 387.773677798 L 584 394.81796132 L 589 393.006954593 L 593 394.738063965 L 598 373.445418686 L 602 389.344992459 L 606 394.618217931 L 611 403.433559504 L 615 399.851494726 L 620 382.100965547"/>
		</g>
		<text class="x-axis-label" x="40.0" y="540">0</text>
		<path class="x-notch" d="M 61.9696969697 525 L 61.9696969697 530"/>
		<text class="x-axis-label" x="83.9393939394" y="540">10</text>
		<path class="x-notch" d="M 105.909090909 525 L 105.909090909 530"/>
		<text class="x-axis-label" x="127.878787879" y="540">20</text>
		<path class="x-notch" d="M 149.848484848 525 L 149.848484848 530"/>
		<text class="x-axis-label" x="171.818181818" y="540">30</text>
		<path class="x-notch" d="M 193.787878788 525 L 193.787878788 530"/>
		<text class="x-axis-label" x="215.757575758" y="540">40</text>
		<path class="x-notch" d="M 237.727272727 525 L 237.727272727 530"/>
		<text class="x-axis-label" x="259.696969697" y="540">50</text>
		<path class="x-notch" d="M 281.666666667 525 L 281.666666667 530"/>
		<text class="x-axis-label" x="303.636363636" y="540">60</text>
		<path class="x-notch" d="M 325.606060606 525 L 325.606060606 530"/>
		<text class="x-axis-label" x="347.575757576" y="540">70</text>
		<path class="x-notch" d="M 369.545454545 525 L 369.545454545 530"/>
		<text class="x-axis-label" x="391.515151515" y="540">80</text>
		<path class="x-notch" d="M 413.484848485 525 L 413.484848485 530"/>
		<text class="x-axis-label" x="435.454545455" y="540">90</text>
		<path class="x-notch" d="M 457.424242424 525 L 457.424242424 530"/>
		<text class="x-axis-label" x="479.393939394" y="540">100</text>
		<path class="x-notch" d="M 501.363636364 525 L 501.363636364 530"/>
		<text class="x-axis-label" x="523.333333333" y="540">110</text>
		<path class="x-notch" d="M 545.303030303 525 L 545.303030303 530"/>
		<text class="x-axis-label" x="567.272727273" y="540">120</text>
		<path class="x-notch" d="M 589.242424242 525 L 589.242424242 530"/>
		<text class="x-axis-label" x="611.212121212" y="540">130</text>
		<path class="x-notch" d="M 633.181818182 525 L 633.181818182 530"/>
	</g>
</svg>
