<?xml version="1.0" ?>
<svg height="600" version="1.1" width="800" xmlns="http://www.w3.org/2000/svg" xmlns:svg="http://www.w3.org/2000/svg">
	<style type="text/css">

.x-axis-path, .y-gridline, .x-notch { fill:none; stroke: #a7a9ac; stroke-width:1; }



.y-gridline { stroke-width: 1; }

.y-axis-path, .y-axis-path2, .x-notch-left, .x-notch-right { display: none;}



.x-axis-label, .data-point-label {font-size: 12px; font-weight:normal; font-family: sans-serif; fill: #58595b; text-anchor:middle;}

.y-axis-label {font-size: 12px; font-family: helvetica; fill: #a7a9ac; text-anchor:end;}



.series-1-line { fill: none; stroke: #10b80c; stroke-width:2; }



.series-2-line { fill: none; stroke: #e90f0a; stroke-width: 2;}
</style>
	<rect fill="white" height="600" width="800" x="0" y="0"/>
	<g id="grid" transform="translate(70, 30)">
		<g class="x-axis" id="x_axis">
			<path class="x-axis-path" d="M 0 525 L 660 525"/>
			<path class="x-notch-left" d="M 0 525, L 0 535"/>
			<path class="x-notch-right" d="M 660 525, L 660 535"/>
		</g>
		<g class="y-axis" id="y_axis">
			<path class="y-axis-path" d="M 0 525 L 0 0"/>
			<path class="y-axis-path-2" d="M 660 525 L 660 0"/>
			<path class="y-gridline" d="M 0 525 L 660 525"/>
			<text class="y-axis-label" x="-5" y="525">-200</text>
			<path class="y-gridline" d="M 0 394 L 660 394"/>
			<text class="y-axis-label" x="-5" y="394"> 0</text>
			<path class="y-gridline" d="M 0 263 L 660 263"/>
			<text class="y-axis-label" x="-5" y="263">200</text>
			<path class="y-gridline" d="M 0 132 L 660 132"/>
			<text class="y-axis-label" x="-5" y="132">400</text>
			<path class="y-gridline" d="M 0 1 L 660 1"/>
			<text class="y-axis-label" x="-5" y="1">600</text>
		</g>
		<g>
			<path class="series-1-line" d="M 40 396.150077555 L 44 387.580554776 L 48 393.207553264 L 52 392.390301206 L 57 398.209374791 L 61 388.775701283 L 65 388.150524323 L 69 385.569214139 L 74 391.292250176 L 78 388.710939992 L 82 391.397841602 L 86 386.824454318 L 91 397.347682906 L 95 382.861835286 L 99 387.432795157 L 103 388.475638774 L 108 388.786500298 L 112 390.117269353 L 116 368.887264457 L 121 374.658225664 L 125 362.692568058 L 129 373.731741059 L 133 357.757966665 L 138 353.892598889 L 142 359.987616619 L 146 361.390460637 L 150 352.856881735 L 155 351.919629544 L 159 329.825473921 L 163 343.468893191 L 167 154.855925006 L 172 66.2069994865 L 176 306.58776951 L 180 330.143461908 L 185 295.712880691 L 189 328.736976768 L 193 319.927453721 L 197 284.104796071 L 202 285.279621115 L 206 305.079178286 L 210 280.94502039 L 214 261.526998791 L 219 287.638825081 L 223 276.861187518 L 227 287.336490937 L 231 262.482145032 L 236 223.587409078 L 240 245.475080898 L 244 229.3212127 L 248 213.635363744 L 253 241.00728504 L 257 233.541726048 L 261 216.559838207 L 266 236.671470608 L 270 248.238756522 L 274 208.911945204 L 278 212.69082931 L 283 211.873577253 L 287 218.988689722 L 291 229.763899871 L 295 249.299494189 L 300 218.169010251 L 304 180.60625706 L 308 198.01779285 L 312 166.179289403 L 317 210.66386626 L 321 180.109420404 L 325 163.943570913 L 330 167.5784923 L 334 130.291683254 L 338 20.293966412 L 342 0.0 L 347 49.7288260659 L 351 117.002383056 L 355 146.966382122 L 359 153.829513032 L 364 165.288780104 L 368 157.823221112 L 372 183.935047402 L 376 176.073544131 L 381 178.54440806 L 385 155.946289316 L 389 195.342748183 L 393 189.761247451 L 398 191.368147859 L 402 161.185683697 L 406 239.019626861 L 411 233.966239041 L 415 204.575850644 L 419 200.374445053 L 423 238.966846862 L 428 260.014517747 L 432 270.441708787 L 436 226.926686878 L 440 229.949626304 L 445 271.842125391 L 449 249.112025222 L 453 157.259039972 L 457 291.711330111 L 462 290.786059213 L 466 327.734403029 L 470 347.858016723 L 475 317.747627524 L 479 322.378493858 L 483 353.326643785 L 487 380.242527133 L 492 347.851948187 L 496 382.232176819 L 500 381.96700026 L 504 379.661634221 L 509 372.964188409 L 513 387.819590308 L 517 394.394608573 L 521 384.637065749 L 526 390.960102454 L 530 386.734734277 L 534 383.109366769 L 538 382.304096004 L 543 387.151187227 L 547 393.76214937 L 551 386.284609085 L 556 388.719529136 L 560 390.938411504 L 564 391.753236147 L 568 391.055984224 L 573 387.526654264 L 577 395.601767802 L 581 392.408475658 L 585 390.115090911 L 590 394.650106904 L 594 392.284834403 L 598 390.06352462 L 602 394.730522039 L 607 391.945155466 L 611 398.376211011 L 615 396.142919936 L 620 389.37339916"/>
			<path class="series-2-line" d="M 40 391.690715336 L 44 395.425303914 L 48 393.075642348 L 52 392.130038507 L 57 396.332646327 L 61 388.834773101 L 65 394.441438646 L 69 394.899892532 L 74 395.826365659 L 78 396.284819544 L 82 396.275254187 L 86 397.201727314 L 91 397.660181199 L 95 393.438442665 L 99 391.556800341 L 103 392.483273468 L 108 398.089939014 L 112 390.592065787 L 116 398.0708083 L 121 391.508973557 L 125 395.711581377 L 129 388.681727392 L 133 397.564527631 L 138 397.554962275 L 142 395.205300708 L 146 394.72771611 L 150 392.846073785 L 155 392.368489187 L 159 388.614769895 L 163 395.157473924 L 167 394.679889326 L 172 387.650035341 L 176 397.000854822 L 180 390.439020079 L 185 394.641627899 L 189 389.483850881 L 193 394.154477943 L 197 396.485008796 L 202 395.071385714 L 206 390.381627938 L 210 394.584235758 L 214 393.170612676 L 219 389.416893384 L 223 390.811385753 L 227 398.758147508 L 231 387.516120346 L 236 394.526843618 L 240 392.645201293 L 244 393.103655178 L 248 393.562109063 L 253 394.020562949 L 257 389.798824415 L 261 391.661336026 L 266 393.055828395 L 270 394.918340005 L 274 396.312832374 L 278 390.219016873 L 283 389.273413032 L 287 392.071963127 L 291 389.722301561 L 295 389.712736204 L 300 390.171190089 L 304 390.161624732 L 308 392.960174827 L 312 394.354667196 L 317 390.132928662 L 321 391.995440273 L 325 394.325971125 L 330 392.444328801 L 334 385.882494058 L 338 387.276986427 L 342 394.75572894 L 347 393.8101251 L 351 393.800559743 L 355 391.450898177 L 359 397.057563723 L 364 397.516017608 L 368 393.294279074 L 372 389.540559782 L 376 392.339109877 L 381 389.521429069 L 385 391.383940679 L 389 396.054567741 L 393 389.96075224 L 398 394.16336006 L 402 392.749736978 L 406 388.059979202 L 411 390.858529297 L 415 393.657079391 L 419 391.307417825 L 423 393.637948678 L 428 395.032441047 L 432 392.214760239 L 436 389.865098673 L 440 392.195629525 L 445 390.782006443 L 449 394.984614263 L 453 394.975048906 L 457 392.157368098 L 462 389.807706532 L 466 393.074275868 L 470 392.59669127 L 475 398.203356815 L 479 386.961329654 L 483 395.376110651 L 487 393.962487568 L 492 390.208768276 L 496 392.539299129 L 500 396.741906949 L 504 390.648091448 L 509 394.382680026 L 513 394.373114669 L 517 390.151376136 L 521 396.694080165 L 526 395.280457083 L 530 396.674949452 L 534 395.729345611 L 538 392.911664803 L 543 402.730503526 L 547 392.89253409 L 551 390.542872524 L 556 393.341422618 L 560 393.331857261 L 564 393.322291905 L 568 391.908668822 L 573 394.239199675 L 577 393.293595834 L 581 397.964222896 L 585 389.998330427 L 590 393.732919006 L 594 396.999488342 L 598 396.053884502 L 602 397.448376871 L 607 393.226638337 L 611 393.21707298 L 615 394.143546107 L 620 390.857846057"/>
		</g>
		<text class="x-axis-label" x="40.0" y="540">0</text>
		<path class="x-notch" d="M 61.3235294118 525 L 61.3235294118 530"/>
		<text class="x-axis-label" x="82.6470588235" y="540">10</text>
		<path class="x-notch" d="M 103.970588235 525 L 103.970588235 530"/>
		<text class="x-axis-label" x="125.294117647" y="540">20</text>
		<path class="x-notch" d="M 146.617647059 525 L 146.617647059 530"/>
		<text class="x-axis-label" x="167.941176471" y="540">30</text>
		<path class="x-notch" d="M 189.264705882 525 L 189.264705882 530"/>
		<text class="x-axis-label" x="210.588235294" y="540">40</text>
		<path class="x-notch" d="M 231.911764706 525 L 231.911764706 530"/>
		<text class="x-axis-label" x="253.235294118" y="540">50</text>
		<path class="x-notch" d="M 274.558823529 525 L 274.558823529 530"/>
		<text class="x-axis-label" x="295.882352941" y="540">60</text>
		<path class="x-notch" d="M 317.205882353 525 L 317.205882353 530"/>
		<text class="x-axis-label" x="338.529411765" y="540">70</text>
		<path class="x-notch" d="M 359.852941176 525 L 359.852941176 530"/>
		<text class="x-axis-label" x="381.176470588" y="540">80</text>
		<path class="x-notch" d="M 402.5 525 L 402.5 530"/>
		<text class="x-axis-label" x="423.823529412" y="540">90</text>
		<path class="x-notch" d="M 445.147058824 525 L 445.147058824 530"/>
		<text class="x-axis-label" x="466.470588235" y="540">100</text>
		<path class="x-notch" d="M 487.794117647 525 L 487.794117647 530"/>
		<text class="x-axis-label" x="509.117647059" y="540">110</text>
		<path class="x-notch" d="M 530.441176471 525 L 530.441176471 530"/>
		<text class="x-axis-label" x="551.764705882" y="540">120</text>
		<path class="x-notch" d="M 573.088235294 525 L 573.088235294 530"/>
		<text class="x-axis-label" x="594.411764706" y="540">130</text>
		<path class="x-notch" d="M 615.735294118 525 L 615.735294118 530"/>
	</g>
</svg>
