<?xml version="1.0" ?>
<svg height="600" version="1.1" width="800" xmlns="http://www.w3.org/2000/svg" xmlns:svg="http://www.w3.org/2000/svg">
	<style type="text/css">

.x-axis-path, .y-gridline, .x-notch { fill:none; stroke: #a7a9ac; stroke-width:1; }



.y-gridline { stroke-width: 1; }

.y-axis-path, .y-axis-path2, .x-notch-left, .x-notch-right { display: none;}



.x-axis-label, .data-point-label {font-size: 12px; font-weight:normal; font-family: sans-serif; fill: #58595b; text-anchor:middle;}

.y-axis-label {font-size: 12px; font-family: helvetica; fill: #a7a9ac; text-anchor:end;}



.series-1-line { fill: none; stroke: #10b80c; stroke-width:2; }



.series-2-line { fill: none; stroke: #e90f0a; stroke-width: 2;}
</style>
	<rect fill="white" height="600" width="800" x="0" y="0"/>
	<g id="grid" transform="translate(70, 30)">
		<g class="x-axis" id="x_axis">
			<path class="x-axis-path" d="M 0 525 L 660 525"/>
			<path class="x-notch-left" d="M 0 525, L 0 535"/>
			<path class="x-notch-right" d="M 660 525, L 660 535"/>
		</g>
		<g class="y-axis" id="y_axis">
			<path class="y-axis-path" d="M 0 525 L 0 0"/>
			<path class="y-axis-path-2" d="M 660 525 L 660 0"/>
			<path class="y-gridline" d="M 0 525 L 660 525"/>
			<text class="y-axis-label" x="-5" y="525">-200</text>
			<path class="y-gridline" d="M 0 394 L 660 394"/>
			<text class="y-axis-label" x="-5" y="394"> 0</text>
			<path class="y-gridline" d="M 0 263 L 660 263"/>
			<text class="y-axis-label" x="-5" y="263">200</text>
			<path class="y-gridline" d="M 0 132 L 660 132"/>
			<text class="y-axis-label" x="-5" y="132">400</text>
			<path class="y-gridline" d="M 0 1 L 660 1"/>
			<text class="y-axis-label" x="-5" y="1">600</text>
		</g>
		<g>
			<path class="series-1-line" d="M 40 367.074568728 L 44 317.810179152 L 48 365.905660678 L 52 437.961407902 L 56 475.667720114 L 60 416.470750016 L 64 458.120759199 L 68 434.257374046 L 72 422.071306378 L 76 299.635605795 L 80 351.522193736 L 84 413.948175802 L 88 425.495262308 L 92 430.369764947 L 96 459.96393744 L 100 344.427932246 L 104 417.697306672 L 108 391.332146147 L 113 405.836413944 L 117 449.685383135 L 121 360.612601884 L 125 391.267811025 L 129 347.917784033 L 133 407.993398407 L 137 445.396895255 L 141 403.63901467 L 145 425.119864571 L 149 448.344268562 L 153 376.180649937 L 157 384.619147469 L 161 398.289490143 L 165 431.977584416 L 169 422.521586516 L 173 396.914647274 L 177 491.187106105 L 181 408.028687437 L 186 377.265606895 L 190 362.804875377 L 194 275.248536693 L 198 275.422303951 L 202 149.346904634 L 206 216.095102875 L 210 264.493399765 L 214 280.286998606 L 218 201.450796115 L 222 227.632381397 L 226 132.569533721 L 230 259.446690602 L 234 108.804211986 L 238 212.857843658 L 242 244.878087682 L 246 173.396986499 L 250 195.256355605 L 254 152.588846055 L 259 75.0419746068 L 263 88.8637249624 L 267 122.400411553 L 271 125.000250343 L 275 137.07844661 L 279 20.5571086095 L 283 64.4817816416 L 287 109.164675957 L 291 135.346261239 L 295 76.5278103468 L 299 164.127685311 L 303 234.591286127 L 307 60.3670610197 L 311 81.5439126839 L 315 139.344863209 L 319 0.0 L 323 158.345114441 L 327 76.1720285798 L 332 65.6549940327 L 336 106.394191377 L 340 144.177390303 L 344 166.643573011 L 348 226.263781466 L 352 128.168048658 L 356 205.379937182 L 360 185.535952841 L 364 102.528941855 L 368 221.672478222 L 372 185.904664061 L 376 227.554673244 L 380 275.043341169 L 384 191.2781089 L 388 209.194963908 L 392 262.749402099 L 396 172.842695723 L 400 288.64934872 L 405 331.588688946 L 409 241.681982571 L 413 384.710080794 L 417 270.766222008 L 421 269.347842859 L 425 260.725770083 L 429 302.451483107 L 433 243.633032214 L 437 317.963443287 L 441 283.333552488 L 445 345.835238394 L 449 369.211050067 L 453 345.727366992 L 457 383.13086384 L 461 299.669629808 L 465 314.098193765 L 469 304.035382264 L 473 369.418545621 L 478 358.597512837 L 482 331.54983487 L 486 305.942895628 L 490 359.497333818 L 494 366.570796466 L 498 286.293855249 L 502 335.526077263 L 506 365.95417488 L 510 259.062602038 L 514 344.539220836 L 518 394.83366237 L 522 345.796384318 L 526 408.070958701 L 530 334.542305191 L 534 390.82681315 L 538 346.869972557 L 542 385.865615812 L 546 396.427369512 L 551 344.888316087 L 555 329.517955604 L 559 381.70735891 L 563 389.614746683 L 567 326.778077851 L 571 365.849424947 L 575 416.295274164 L 579 413.663267813 L 583 333.310622755 L 587 431.22278032 L 591 393.787115911 L 595 397.827693426 L 599 408.540854808 L 603 402.344853565 L 607 387.429899 L 611 361.518961522 L 615 411.661995374 L 620 412.289985679"/>
			<path class="series-2-line" d="M 40 380.146966058 L 44 386.020256679 L 48 427.3797228 L 52 421.424288254 L 56 353.368046584 L 60 409.513419163 L 64 418.343891076 L 68 382.816643613 L 72 370.946846484 L 76 373.862955814 L 80 400.436515476 L 84 397.438262222 L 88 373.739739927 L 92 352.998398923 L 96 397.315046335 L 100 361.787798873 L 104 397.23290241 L 108 406.063374323 L 113 382.364852027 L 117 394.152505231 L 121 382.282708102 L 125 376.327273557 L 129 382.200564178 L 133 399.902579965 L 137 379.161238961 L 141 367.291441832 L 145 408.650907953 L 149 408.609835991 L 153 411.52594532 L 157 411.484873357 L 161 402.57225752 L 165 384.788097808 L 169 408.404476179 L 173 414.2777668 L 177 402.407969671 L 181 390.538172542 L 186 393.454281871 L 190 390.456028617 L 194 372.671868905 L 198 393.331065984 L 202 387.375631438 L 206 402.120465934 L 210 396.165031388 L 214 402.038322009 L 218 407.91161263 L 222 407.870540668 L 226 407.829468705 L 230 384.13094641 L 234 404.790143489 L 238 366.305714735 L 242 378.093367939 L 246 389.881021143 L 250 372.096861431 L 254 386.841695927 L 259 422.286799464 L 263 389.716733294 L 267 395.590023915 L 271 383.720226786 L 275 392.550698698 L 279 395.466808028 L 283 395.425736065 L 287 392.427482811 L 291 392.386410849 L 295 389.388157595 L 299 380.475541757 L 303 392.263194962 L 307 401.093666874 L 311 374.437963287 L 315 401.011522949 L 319 389.141725821 L 323 415.715285483 L 327 365.402131563 L 332 439.290591891 L 336 359.405625054 L 340 394.850728592 L 344 397.766837921 L 348 371.111134334 L 352 382.898787538 L 356 379.900534284 L 360 409.431275238 L 364 373.904027776 L 368 403.43476873 L 372 379.736246435 L 376 388.566718347 L 380 409.225915426 L 384 376.655849256 L 388 397.315046335 L 392 394.316793081 L 396 397.23290241 L 400 370.577198823 L 405 408.979483652 L 409 411.895592981 L 413 405.940158436 L 417 352.669823224 L 421 391.072108053 L 425 399.902579965 L 429 396.904326711 L 433 393.906073457 L 437 379.079095036 L 441 408.609835991 L 445 393.78285757 L 449 370.084335274 L 453 390.743532353 L 457 370.00219135 L 461 405.447294887 L 465 393.577497758 L 469 396.493607087 L 473 393.495353833 L 478 399.368644454 L 482 399.327572492 L 486 405.200863113 L 490 402.202609859 L 494 384.418450146 L 498 384.377378184 L 502 363.63603718 L 506 393.166778134 L 510 393.125706172 L 514 369.427183876 L 518 413.743831289 L 522 384.13094641 L 526 404.790143489 L 530 389.963165068 L 534 422.451087314 L 538 407.624108893 L 542 369.13968014 L 546 383.884514635 L 551 398.629349131 L 555 422.245727502 L 559 401.504386498 L 563 368.934320328 L 567 416.208149032 L 571 365.894995111 L 575 386.55419219 L 579 383.555938936 L 583 395.34359214 L 587 392.345338886 L 591 398.218629507 L 595 392.263194962 L 599 383.350579124 L 603 359.652056829 L 607 427.626154574 L 611 365.484275487 L 615 433.458373233 L 620 383.145219312"/>
		</g>
		<text class="x-axis-label" x="40.0" y="540">0</text>
		<path class="x-notch" d="M 60.2797202797 525 L 60.2797202797 530"/>
		<text class="x-axis-label" x="80.5594405594" y="540">10</text>
		<path class="x-notch" d="M 100.839160839 525 L 100.839160839 530"/>
		<text class="x-axis-label" x="121.118881119" y="540">20</text>
		<path class="x-notch" d="M 141.398601399 525 L 141.398601399 530"/>
		<text class="x-axis-label" x="161.678321678" y="540">30</text>
		<path class="x-notch" d="M 181.958041958 525 L 181.958041958 530"/>
		<text class="x-axis-label" x="202.237762238" y="540">40</text>
		<path class="x-notch" d="M 222.517482517 525 L 222.517482517 530"/>
		<text class="x-axis-label" x="242.797202797" y="540">50</text>
		<path class="x-notch" d="M 263.076923077 525 L 263.076923077 530"/>
		<text class="x-axis-label" x="283.356643357" y="540">60</text>
		<path class="x-notch" d="M 303.636363636 525 L 303.636363636 530"/>
		<text class="x-axis-label" x="323.916083916" y="540">70</text>
		<path class="x-notch" d="M 344.195804196 525 L 344.195804196 530"/>
		<text class="x-axis-label" x="364.475524476" y="540">80</text>
		<path class="x-notch" d="M 384.755244755 525 L 384.755244755 530"/>
		<text class="x-axis-label" x="405.034965035" y="540">90</text>
		<path class="x-notch" d="M 425.314685315 525 L 425.314685315 530"/>
		<text class="x-axis-label" x="445.594405594" y="540">100</text>
		<path class="x-notch" d="M 465.874125874 525 L 465.874125874 530"/>
		<text class="x-axis-label" x="486.153846154" y="540">110</text>
		<path class="x-notch" d="M 506.433566434 525 L 506.433566434 530"/>
		<text class="x-axis-label" x="526.713286713" y="540">120</text>
		<path class="x-notch" d="M 546.993006993 525 L 546.993006993 530"/>
		<text class="x-axis-label" x="567.272727273" y="540">130</text>
		<path class="x-notch" d="M 587.552447552 525 L 587.552447552 530"/>
		<text class="x-axis-label" x="607.832167832" y="540">140</text>
		<path class="x-notch" d="M 628.111888112 525 L 628.111888112 530"/>
	</g>
</svg>
