<?xml version="1.0" ?>
<svg height="600" version="1.1" width="800" xmlns="http://www.w3.org/2000/svg" xmlns:svg="http://www.w3.org/2000/svg">
	<style type="text/css">

.x-axis-path, .y-gridline, .x-notch { fill:none; stroke: #a7a9ac; stroke-width:1; }



.y-gridline { stroke-width: 1; }

.y-axis-path, .y-axis-path2, .x-notch-left, .x-notch-right { display: none;}



.x-axis-label, .data-point-label {font-size: 12px; font-weight:normal; font-family: sans-serif; fill: #58595b; text-anchor:middle;}

.y-axis-label {font-size: 12px; font-family: helvetica; fill: #a7a9ac; text-anchor:end;}



.series-1-line { fill: none; stroke: #10b80c; stroke-width:2; }



.series-2-line { fill: none; stroke: #e90f0a; stroke-width: 2;}
</style>
	<rect fill="white" height="600" width="800" x="0" y="0"/>
	<g id="grid" transform="translate(70, 30)">
		<g class="x-axis" id="x_axis">
			<path class="x-axis-path" d="M 0 525 L 660 525"/>
			<path class="x-notch-left" d="M 0 525, L 0 535"/>
			<path class="x-notch-right" d="M 660 525, L 660 535"/>
		</g>
		<g class="y-axis" id="y_axis">
			<path class="y-axis-path" d="M 0 525 L 0 0"/>
			<path class="y-axis-path-2" d="M 660 525 L 660 0"/>
			<path class="y-gridline" d="M 0 525 L 660 525"/>
			<text class="y-axis-label" x="-5" y="525">-200</text>
			<path class="y-gridline" d="M 0 394 L 660 394"/>
			<text class="y-axis-label" x="-5" y="394"> 0</text>
			<path class="y-gridline" d="M 0 263 L 660 263"/>
			<text class="y-axis-label" x="-5" y="263">200</text>
			<path class="y-gridline" d="M 0 132 L 660 132"/>
			<text class="y-axis-label" x="-5" y="132">400</text>
			<path class="y-gridline" d="M 0 1 L 660 1"/>
			<text class="y-axis-label" x="-5" y="1">600</text>
		</g>
		<g>
			<path class="series-1-line" d="M 40 401.637785507 L 44 392.554885367 L 48 379.383242463 L 52 407.720735716 L 56 377.365715343 L 60 337.4355764 L 64 321.416992938 L 68 337.022380218 L 72 324.834167149 L 76 328.897576188 L 80 390.049167914 L 84 311.870229166 L 88 334.100445509 L 92 292.151772422 L 96 238.143568939 L 100 250.229440083 L 104 309.31082319 L 108 327.969848924 L 113 194.617912686 L 117 325.486444123 L 121 312.263126745 L 125 268.968495089 L 129 239.131026871 L 133 282.115811293 L 137 255.79785921 L 141 138.179992925 L 145 267.340844475 L 149 192.836445284 L 153 196.796505375 L 157 176.740853623 L 161 198.195145441 L 165 165.562411139 L 169 171.541005375 L 173 154.435643129 L 177 248.815536535 L 181 204.330777148 L 186 206.841529722 L 190 142.274777834 L 194 111.971431935 L 198 126.230860647 L 202 151.411366497 L 206 112.102128657 L 210 188.781092439 L 214 138.189056143 L 218 43.7584952875 L 222 116.503739728 L 226 95.2579602443 L 230 123.077901342 L 234 90.3418180915 L 238 0.0 L 242 148.259414215 L 246 180.685650232 L 250 152.866716158 L 254 107.91607909 L 259 137.288676652 L 263 135.710686463 L 267 60.0678340147 L 271 179.653566995 L 275 181.077540786 L 279 212.365323544 L 283 205.300957549 L 287 241.195035226 L 291 198.67713551 L 295 128.106455661 L 299 140.399024702 L 303 137.837604677 L 307 142.160193501 L 311 249.789745033 L 315 263.894150323 L 319 164.598114765 L 323 180.617705251 L 327 253.777152898 L 332 264.879594207 L 336 132.200233546 L 340 277.043480575 L 344 281.106889614 L 348 227.616238286 L 352 256.367934744 L 356 237.089014931 L 360 319.926930096 L 364 229.585112005 L 368 263.460655537 L 372 269.439249773 L 376 263.461662561 L 380 288.227965204 L 384 239.136910898 L 388 304.688099646 L 392 342.704060416 L 396 368.971345049 L 400 296.64131084 L 405 346.665127531 L 409 357.198342212 L 413 382.482197009 L 417 358.907029123 L 421 343.561828651 L 425 325.00715889 L 429 341.595976005 L 433 357.408061181 L 437 341.700331977 L 441 343.02095682 L 445 362.300883657 L 449 373.506673915 L 453 414.783778449 L 457 426.766300646 L 461 431.502285262 L 465 459.736429566 L 469 409.196067744 L 473 429.873627623 L 478 412.354062171 L 482 428.891204812 L 486 405.678565657 L 490 422.888283875 L 494 399.727319195 L 498 465.95108352 L 502 421.362975184 L 506 449.648793963 L 510 464.684954613 L 514 422.322078319 L 518 430.474230122 L 522 443.64688005 L 526 434.978183117 L 530 424.342626513 L 534 419.348469137 L 538 441.112807799 L 542 425.870956276 L 546 441.631366978 L 551 441.554358779 L 555 431.073825597 L 559 423.906110654 L 563 356.38906926 L 567 421.681885637 L 571 427.349625614 L 575 415.368110442 L 579 390.551140349 L 583 403.257912597 L 587 392.674030467 L 591 414.386694655 L 595 384.963429644 L 599 406.261890626 L 603 418.968662873 L 607 415.786341746 L 611 412.75904404 L 615 359.785944867 L 620 376.581459879"/>
			<path class="series-2-line" d="M 40 391.327759026 L 44 391.358597742 L 48 399.463573038 L 52 387.383206885 L 56 399.52525047 L 60 409.648759911 L 64 389.494257178 L 68 395.580698329 L 72 407.722741914 L 76 403.716512341 L 80 389.617612042 L 84 383.592848324 L 88 379.58661875 L 92 389.710128191 L 96 391.759501052 L 100 395.827408057 L 104 389.802644339 L 108 391.8520172 L 113 412.068197365 L 117 385.858092197 L 121 402.037204073 L 125 385.91976963 L 129 396.04327907 L 133 381.944378772 L 137 394.086422357 L 141 400.172863508 L 145 404.240770514 L 149 376.012131202 L 153 388.154174787 L 157 367.999672054 L 161 406.382659524 L 165 380.172554356 L 169 392.314597941 L 173 384.271300078 L 177 382.283604649 L 181 394.425648235 L 186 396.475021096 L 190 392.468791522 L 194 396.536698528 L 198 376.382195795 L 202 384.487171091 L 206 376.443873227 L 210 380.511780233 L 214 400.727960398 L 218 410.851469839 L 222 398.771103685 L 226 406.876078981 L 230 396.814246973 L 234 386.752414964 L 238 388.801787825 L 242 404.980899701 L 246 384.826396968 L 250 394.949906408 L 254 401.036347559 L 259 384.918913116 L 263 395.042422557 L 267 386.999124693 L 271 389.048497554 L 275 403.209075285 L 279 403.239914001 L 283 403.270752717 L 287 393.208920708 L 291 413.425100874 L 295 401.34473472 L 299 373.116095408 L 303 379.202536558 L 307 413.548455738 L 311 391.37541886 L 315 395.443325866 L 319 377.307357278 L 323 397.523537443 L 327 399.572910304 L 332 399.60374902 L 336 393.578985302 L 340 391.591289873 L 344 387.585060299 L 348 387.615899015 L 352 389.665271876 L 356 405.844383752 L 360 393.764017598 L 364 395.813390459 L 368 385.751558451 L 372 397.893602036 L 376 385.813235883 L 380 379.788472164 L 384 402.023186475 L 388 410.12816177 L 392 383.918056602 L 396 379.911827029 L 400 406.183609629 L 405 396.12177762 L 409 406.245287061 L 413 398.201989197 L 417 376.028952319 L 421 408.356337354 L 425 390.220368766 L 429 400.343878207 L 433 374.133773039 L 437 384.25728248 L 441 414.566133369 L 445 398.448698926 L 449 382.331264483 L 453 398.510376358 L 457 418.726556524 L 461 388.479383066 L 465 392.547290072 L 469 404.689333658 L 473 406.738706519 L 478 384.565669641 L 482 402.763315661 L 486 402.794154377 L 490 394.750856514 L 494 386.70755865 L 498 368.571590062 L 502 396.861906807 L 506 392.855677233 L 510 409.034789108 L 514 405.028559535 L 518 392.948193381 L 522 384.904895518 L 526 399.065473248 L 530 405.151914399 L 534 397.108616536 L 538 387.046784527 L 542 403.225896403 L 546 385.089927814 L 551 397.2319714 L 555 379.096002812 L 559 395.275114687 L 563 379.157680244 L 567 427.633338438 L 571 409.49736985 L 575 389.342867117 L 579 403.503444847 L 583 389.404544549 L 587 387.41684912 L 591 385.429153692 L 595 409.682402147 L 599 393.564967703 L 603 379.466067405 L 607 403.71931586 L 611 403.750154576 L 615 401.762459147 L 620 379.589422269"/>
		</g>
		<text class="x-axis-label" x="40.0" y="540">0</text>
		<path class="x-notch" d="M 60.2797202797 525 L 60.2797202797 530"/>
		<text class="x-axis-label" x="80.5594405594" y="540">10</text>
		<path class="x-notch" d="M 100.839160839 525 L 100.839160839 530"/>
		<text class="x-axis-label" x="121.118881119" y="540">20</text>
		<path class="x-notch" d="M 141.398601399 525 L 141.398601399 530"/>
		<text class="x-axis-label" x="161.678321678" y="540">30</text>
		<path class="x-notch" d="M 181.958041958 525 L 181.958041958 530"/>
		<text class="x-axis-label" x="202.237762238" y="540">40</text>
		<path class="x-notch" d="M 222.517482517 525 L 222.517482517 530"/>
		<text class="x-axis-label" x="242.797202797" y="540">50</text>
		<path class="x-notch" d="M 263.076923077 525 L 263.076923077 530"/>
		<text class="x-axis-label" x="283.356643357" y="540">60</text>
		<path class="x-notch" d="M 303.636363636 525 L 303.636363636 530"/>
		<text class="x-axis-label" x="323.916083916" y="540">70</text>
		<path class="x-notch" d="M 344.195804196 525 L 344.195804196 530"/>
		<text class="x-axis-label" x="364.475524476" y="540">80</text>
		<path class="x-notch" d="M 384.755244755 525 L 384.755244755 530"/>
		<text class="x-axis-label" x="405.034965035" y="540">90</text>
		<path class="x-notch" d="M 425.314685315 525 L 425.314685315 530"/>
		<text class="x-axis-label" x="445.594405594" y="540">100</text>
		<path class="x-notch" d="M 465.874125874 525 L 465.874125874 530"/>
		<text class="x-axis-label" x="486.153846154" y="540">110</text>
		<path class="x-notch" d="M 506.433566434 525 L 506.433566434 530"/>
		<text class="x-axis-label" x="526.713286713" y="540">120</text>
		<path class="x-notch" d="M 546.993006993 525 L 546.993006993 530"/>
		<text class="x-axis-label" x="567.272727273" y="540">130</text>
		<path class="x-notch" d="M 587.552447552 525 L 587.552447552 530"/>
		<text class="x-axis-label" x="607.832167832" y="540">140</text>
		<path class="x-notch" d="M 628.111888112 525 L 628.111888112 530"/>
	</g>
</svg>
