<?xml version="1.0" ?>
<svg height="600" version="1.1" width="800" xmlns="http://www.w3.org/2000/svg" xmlns:svg="http://www.w3.org/2000/svg">
	<style type="text/css">

.x-axis-path, .y-gridline, .x-notch { fill:none; stroke: #a7a9ac; stroke-width:1; }



.y-gridline { stroke-width: 1; }

.y-axis-path, .y-axis-path2, .x-notch-left, .x-notch-right { display: none;}



.x-axis-label, .data-point-label {font-size: 12px; font-weight:normal; font-family: sans-serif; fill: #58595b; text-anchor:middle;}

.y-axis-label {font-size: 12px; font-family: helvetica; fill: #a7a9ac; text-anchor:end;}



.series-1-line { fill: none; stroke: #10b80c; stroke-width:2; }



.series-2-line { fill: none; stroke: #e90f0a; stroke-width: 2;}
</style>
	<rect fill="white" height="600" width="800" x="0" y="0"/>
	<g id="grid" transform="translate(70, 30)">
		<g class="x-axis" id="x_axis">
			<path class="x-axis-path" d="M 0 525 L 660 525"/>
			<path class="x-notch-left" d="M 0 525, L 0 535"/>
			<path class="x-notch-right" d="M 660 525, L 660 535"/>
		</g>
		<g class="y-axis" id="y_axis">
			<path class="y-axis-path" d="M 0 525 L 0 0"/>
			<path class="y-axis-path-2" d="M 660 525 L 660 0"/>
			<path class="y-gridline" d="M 0 525 L 660 525"/>
			<text class="y-axis-label" x="-5" y="525">-200</text>
			<path class="y-gridline" d="M 0 394 L 660 394"/>
			<text class="y-axis-label" x="-5" y="394"> 0</text>
			<path class="y-gridline" d="M 0 263 L 660 263"/>
			<text class="y-axis-label" x="-5" y="263">200</text>
			<path class="y-gridline" d="M 0 132 L 660 132"/>
			<text class="y-axis-label" x="-5" y="132">400</text>
			<path class="y-gridline" d="M 0 1 L 660 1"/>
			<text class="y-axis-label" x="-5" y="1">600</text>
		</g>
		<g>
			<path class="series-1-line" d="M 40 399.928189103 L 43 400.098350267 L 47 387.813847028 L 51 359.981965769 L 54 420.184803012 L 58 444.408415758 L 62 454.264973747 L 65 416.868601025 L 69 422.695932857 L 73 386.886869525 L 76 371.712828271 L 80 406.559350383 L 84 387.518623454 L 87 409.5854002 L 91 424.936588376 L 95 435.566483501 L 98 418.967673338 L 102 408.840641023 L 106 419.104185141 L 109 417.483226388 L 113 401.169496992 L 117 407.037463945 L 120 449.413546882 L 124 423.128339894 L 128 416.216561481 L 131 424.5264452 L 135 416.474978644 L 139 452.62372938 L 142 450.391973974 L 146 374.208743906 L 150 411.740993507 L 153 446.791326145 L 157 402.231743604 L 161 406.227320399 L 164 421.537873455 L 168 386.461512138 L 172 361.112182766 L 175 387.859617443 L 179 394.9891779 L 183 369.639848528 L 186 363.827123137 L 190 358.746464837 L 194 385.778345357 L 197 304.181755342 L 201 350.505794196 L 205 325.075194584 L 208 261.508534476 L 212 291.633763536 L 216 324.079004002 L 219 257.297089992 L 223 299.795078291 L 227 259.549802674 L 230 250.318012855 L 234 277.797514624 L 238 186.025636491 L 241 229.907758578 L 245 185.795797286 L 249 181.285300519 L 252 202.66001037 L 256 109.382093088 L 260 140.972726178 L 263 163.202043406 L 267 224.218852903 L 271 106.561768152 L 274 108.929400436 L 278 146.99117645 L 282 142.88766581 L 285 118.759294822 L 289 180.915792463 L 293 146.775308762 L 296 86.7496184423 L 300 85.9426319454 L 304 52.8199310261 L 307 105.85955845 L 311 112.582132779 L 315 87.8842351812 L 318 23.5442379378 L 322 48.3786473375 L 326 24.9829783641 L 330 0.0 L 333 79.1286445688 L 337 59.6809315119 L 341 72.2644870345 L 344 69.5038401396 L 348 47.9805613234 L 352 153.075682752 L 355 67.6124070615 L 359 48.6123152527 L 363 60.4225336402 L 366 81.4715276051 L 370 26.4522111036 L 374 91.1318957512 L 377 24.0242658542 L 381 45.724691593 L 385 60.7501638822 L 388 42.0757879603 L 392 61.7819181807 L 396 68.8302083963 L 399 133.021636675 L 403 120.655863196 L 407 64.3336831463 L 410 76.4696174208 L 414 71.1451483981 L 418 72.6988084269 L 421 149.710617192 L 425 81.3007586713 L 429 69.8708628084 L 432 131.905455087 L 436 145.750604114 L 440 165.578639695 L 443 69.8181705258 L 447 156.720186643 L 451 200.276592843 L 454 199.469606346 L 458 137.368350267 L 462 188.861303421 L 465 197.944524276 L 469 249.111761542 L 473 323.152762052 L 476 228.246900259 L 480 179.291740553 L 484 277.467462886 L 487 253.909253431 L 491 272.353790148 L 495 287.826883685 L 498 310.99207853 L 502 324.674687074 L 506 307.058729054 L 509 293.919618439 L 513 305.40412094 L 517 330.686151588 L 520 321.861347897 L 524 310.67589768 L 528 318.131174023 L 531 317.649903413 L 535 360.880593727 L 539 375.01082352 L 542 353.161828817 L 546 350.279276561 L 550 349.065303936 L 553 339.752243876 L 557 331.415696554 L 561 356.372011315 L 564 358.699008479 L 568 352.641837441 L 572 387.528994674 L 575 374.593694585 L 579 332.761109577 L 583 360.688232594 L 586 381.28960531 L 590 391.838230194 L 594 391.356959584 L 597 378.584199977 L 601 400.04018007 L 605 426.909520108 L 608 378.849602899 L 612 373.158782869 L 616 388.550606165 L 620 402.395755192"/>
			<path class="series-2-line" d="M 40 383.273758022 L 43 407.069422572 L 47 392.769661747 L 51 389.581066657 L 54 395.916327911 L 58 381.616567086 L 62 380.015281386 L 65 383.175923858 L 69 391.098494502 L 73 394.259136974 L 76 397.419779447 L 80 397.405803137 L 84 384.693351703 L 87 397.377850519 L 91 405.300421163 L 95 406.873754245 L 98 384.637446467 L 102 405.258492236 L 106 402.069897146 L 109 395.706683274 L 113 390.930778793 L 117 392.504111875 L 120 394.077444956 L 124 397.238087428 L 128 411.509895635 L 131 403.559372373 L 135 409.894633626 L 139 392.42025402 L 142 357.485471116 L 146 406.678085918 L 150 359.044827889 L 153 389.189730002 L 157 395.524991256 L 161 379.63792104 L 164 393.909729247 L 168 406.594228063 L 172 387.532539066 L 175 412.915513007 L 179 403.377680354 L 183 384.315991357 L 186 412.87358408 L 190 389.049966911 L 194 369.988277914 L 197 396.958561246 L 201 401.706513109 L 205 395.343299237 L 208 395.329322928 L 212 388.966109057 L 216 392.126751529 L 219 398.462012782 L 223 380.987633176 L 227 395.259441383 L 230 400.007393246 L 234 373.009157295 L 238 377.757109158 L 241 392.028917365 L 245 390.427631665 L 249 401.524821091 L 252 398.336226 L 256 390.385702738 L 260 403.070201554 L 263 390.35775012 L 267 393.518392592 L 271 412.552128971 L 274 403.014296318 L 278 396.651082446 L 282 406.160962481 L 285 382.337345312 L 289 393.434534737 L 293 383.896702084 L 296 388.644653947 L 300 379.106821294 L 304 396.553248282 L 307 406.063128317 L 311 398.112605055 L 315 401.273247527 L 318 398.084652437 L 322 412.356460643 L 326 398.056699818 L 330 383.756938993 L 333 409.139912935 L 337 398.014770891 L 341 404.350032145 L 344 390.05027132 L 348 393.210913792 L 352 391.609628092 L 355 402.706817518 L 359 383.645128521 L 363 386.805770993 L 366 372.506010168 L 370 401.063602891 L 374 389.938460847 L 377 385.162556366 L 381 393.08512701 L 385 389.89653192 L 388 381.946008657 L 392 391.455888692 L 396 394.616531164 L 399 397.777173636 L 403 396.175887937 L 407 380.288817721 L 410 394.560625928 L 414 408.832434135 L 418 402.469220263 L 421 386.582150047 L 425 399.266648863 L 429 375.443031694 L 432 405.587933808 L 436 400.812029327 L 440 391.274196674 L 443 399.196767318 L 447 388.071625274 L 451 391.232267746 L 454 381.694435093 L 458 400.728171472 L 462 403.888813944 L 465 399.112909463 L 469 391.162386201 L 473 405.434194408 L 476 403.832908708 L 480 414.930098133 L 484 378.408005839 L 487 389.505195265 L 491 410.126241034 L 495 399.00109899 L 498 364.066316087 L 502 384.687361856 L 506 397.371860673 L 509 392.595956191 L 513 384.645432929 L 517 390.980694183 L 520 394.141336655 L 524 394.127360346 L 528 395.700693427 L 531 397.274026509 L 535 389.323503246 L 539 402.008002063 L 542 394.0574788 L 546 398.805430663 L 550 390.854907401 L 553 408.301334389 L 557 397.176192345 L 561 392.400287864 L 564 389.211692774 L 568 393.959644637 L 572 387.596430765 L 575 412.979404706 L 579 427.251212913 L 583 392.316430009 L 586 385.953216138 L 590 400.225024345 L 594 401.798357426 L 597 401.784381117 L 601 385.897310901 L 605 392.232572155 L 608 387.456667674 L 612 396.966547709 L 616 398.53988079 L 620 393.763976309"/>
		</g>
		<text class="x-axis-label" x="40.0" y="540">0</text>
		<path class="x-notch" d="M 58.3544303797 525 L 58.3544303797 530"/>
		<text class="x-axis-label" x="76.7088607595" y="540">10</text>
		<path class="x-notch" d="M 95.0632911392 525 L 95.0632911392 530"/>
		<text class="x-axis-label" x="113.417721519" y="540">20</text>
		<path class="x-notch" d="M 131.772151899 525 L 131.772151899 530"/>
		<text class="x-axis-label" x="150.126582278" y="540">30</text>
		<path class="x-notch" d="M 168.481012658 525 L 168.481012658 530"/>
		<text class="x-axis-label" x="186.835443038" y="540">40</text>
		<path class="x-notch" d="M 205.189873418 525 L 205.189873418 530"/>
		<text class="x-axis-label" x="223.544303797" y="540">50</text>
		<path class="x-notch" d="M 241.898734177 525 L 241.898734177 530"/>
		<text class="x-axis-label" x="260.253164557" y="540">60</text>
		<path class="x-notch" d="M 278.607594937 525 L 278.607594937 530"/>
		<text class="x-axis-label" x="296.962025316" y="540">70</text>
		<path class="x-notch" d="M 315.316455696 525 L 315.316455696 530"/>
		<text class="x-axis-label" x="333.670886076" y="540">80</text>
		<path class="x-notch" d="M 352.025316456 525 L 352.025316456 530"/>
		<text class="x-axis-label" x="370.379746835" y="540">90</text>
		<path class="x-notch" d="M 388.734177215 525 L 388.734177215 530"/>
		<text class="x-axis-label" x="407.088607595" y="540">100</text>
		<path class="x-notch" d="M 425.443037975 525 L 425.443037975 530"/>
		<text class="x-axis-label" x="443.797468354" y="540">110</text>
		<path class="x-notch" d="M 462.151898734 525 L 462.151898734 530"/>
		<text class="x-axis-label" x="480.506329114" y="540">120</text>
		<path class="x-notch" d="M 498.860759494 525 L 498.860759494 530"/>
		<text class="x-axis-label" x="517.215189873" y="540">130</text>
		<path class="x-notch" d="M 535.569620253 525 L 535.569620253 530"/>
		<text class="x-axis-label" x="553.924050633" y="540">140</text>
		<path class="x-notch" d="M 572.278481013 525 L 572.278481013 530"/>
		<text class="x-axis-label" x="590.632911392" y="540">150</text>
		<path class="x-notch" d="M 608.987341772 525 L 608.987341772 530"/>
	</g>
</svg>
