<?xml version="1.0" ?>
<svg height="600" version="1.1" width="800" xmlns="http://www.w3.org/2000/svg" xmlns:svg="http://www.w3.org/2000/svg">
	<style type="text/css">

.x-axis-path, .y-gridline, .x-notch { fill:none; stroke: #a7a9ac; stroke-width:1; }



.y-gridline { stroke-width: 1; }

.y-axis-path, .y-axis-path2, .x-notch-left, .x-notch-right { display: none;}



.x-axis-label, .data-point-label {font-size: 12px; font-weight:normal; font-family: sans-serif; fill: #58595b; text-anchor:middle;}

.y-axis-label {font-size: 12px; font-family: helvetica; fill: #a7a9ac; text-anchor:end;}



.series-1-line { fill: none; stroke: #10b80c; stroke-width:2; }



.series-2-line { fill: none; stroke: #e90f0a; stroke-width: 2;}
</style>
	<rect fill="white" height="600" width="800" x="0" y="0"/>
	<g id="grid" transform="translate(70, 30)">
		<g class="x-axis" id="x_axis">
			<path class="x-axis-path" d="M 0 525 L 660 525"/>
			<path class="x-notch-left" d="M 0 525, L 0 535"/>
			<path class="x-notch-right" d="M 660 525, L 660 535"/>
		</g>
		<g class="y-axis" id="y_axis">
			<path class="y-axis-path" d="M 0 525 L 0 0"/>
			<path class="y-axis-path-2" d="M 660 525 L 660 0"/>
			<path class="y-gridline" d="M 0 525 L 660 525"/>
			<text class="y-axis-label" x="-5" y="525">-200</text>
			<path class="y-gridline" d="M 0 394 L 660 394"/>
			<text class="y-axis-label" x="-5" y="394"> 0</text>
			<path class="y-gridline" d="M 0 263 L 660 263"/>
			<text class="y-axis-label" x="-5" y="263">200</text>
			<path class="y-gridline" d="M 0 132 L 660 132"/>
			<text class="y-axis-label" x="-5" y="132">400</text>
			<path class="y-gridline" d="M 0 1 L 660 1"/>
			<text class="y-axis-label" x="-5" y="1">600</text>
		</g>
		<g>
			<path class="series-1-line" d="M 40 380.320818337 L 44 390.711315682 L 48 393.069341252 L 52 392.138950131 L 56 412.303656787 L 60 420.770537831 L 65 423.050499496 L 69 431.387409206 L 73 436.682868036 L 77 438.299996172 L 81 426.88045202 L 85 423.96135755 L 90 424.941605872 L 94 423.283294174 L 98 413.514446795 L 102 405.734302766 L 106 411.939560936 L 110 429.777760432 L 115 391.985998463 L 119 405.145027162 L 123 386.511769812 L 127 373.285603837 L 131 370.340555653 L 135 363.119227532 L 140 358.016574094 L 144 343.061647439 L 148 343.288021469 L 152 330.347751877 L 156 326.765823879 L 161 309.744332732 L 165 317.353321865 L 169 279.548583039 L 173 197.785754645 L 177 248.234998766 L 181 240.376790831 L 186 142.873845843 L 190 137.901163739 L 194 42.2958813366 L 198 85.5573659745 L 202 117.563049196 L 206 82.1628814354 L 211 94.5939895568 L 215 149.176565423 L 219 44.121900664 L 223 85.043901285 L 227 82.7357329154 L 231 72.1740806746 L 236 70.7627347878 L 240 55.9248026097 L 244 44.7652011259 L 248 63.2143267218 L 252 37.4973275095 L 256 25.0639663972 L 261 37.5731384245 L 265 64.7696795145 L 269 41.4183207967 L 273 43.8671843667 L 277 71.2715579335 L 282 60.9309177899 L 286 52.1499336576 L 290 104.600857984 L 294 86.0716182548 L 298 86.6619525738 L 302 70.0822828585 L 307 85.65885948 L 311 39.9905507855 L 315 45.0520206614 L 319 56.1574617259 L 323 0.0 L 327 105.182383103 L 332 50.1168022428 L 336 60.9231673041 L 340 86.9759200998 L 344 87.5662544188 L 348 126.733540646 L 352 103.122239259 L 357 49.6552449817 L 361 113.401104059 L 365 119.580408515 L 369 88.248485452 L 373 135.006422021 L 377 110.745263964 L 382 97.7920175143 L 386 133.904876004 L 390 56.3402636413 L 394 170.608068813 L 398 148.790412392 L 403 212.250375087 L 407 281.325261633 L 411 249.876344093 L 415 243.499931026 L 419 139.446106369 L 423 169.554127005 L 428 205.082013109 L 432 286.101893841 L 436 329.935374008 L 440 310.925179512 L 444 308.785913048 L 448 346.601578504 L 453 380.959722599 L 457 345.533601125 L 461 361.253125937 L 465 406.47736021 L 469 397.839324269 L 473 405.279411496 L 478 409.457035747 L 482 409.813381111 L 486 388.515610027 L 490 408.888351923 L 494 381.377707745 L 498 384.151601033 L 503 370.665492389 L 507 373.582333868 L 511 375.693393627 L 515 370.889613429 L 519 346.121546891 L 524 323.043107699 L 528 360.702645343 L 532 353.169467125 L 536 347.351869966 L 540 346.291507511 L 544 331.193632664 L 549 389.870406942 L 553 340.146830408 L 557 343.947517512 L 561 348.723091005 L 565 355.799217944 L 569 364.941909374 L 574 378.451921504 L 578 379.926101449 L 582 372.457807517 L 586 371.683341444 L 590 366.229704574 L 594 387.61626343 L 599 366.669475778 L 603 396.829403842 L 607 369.422777284 L 611 379.059400337 L 615 403.071542356 L 620 420.675752897"/>
			<path class="series-2-line" d="M 40 393.141709824 L 44 390.121259438 L 48 394.704436252 L 52 398.273796106 L 56 392.718803321 L 60 393.246712295 L 65 390.226261909 L 69 391.261079363 L 73 392.295896817 L 77 393.837622752 L 81 392.844806286 L 85 390.33126438 L 90 392.379898794 L 94 390.880173848 L 98 389.380448902 L 102 393.963625717 L 106 391.450083811 L 110 392.991809745 L 115 394.026627199 L 119 394.047627693 L 123 391.534085787 L 127 395.610354122 L 131 397.152080056 L 135 393.62472119 L 140 395.673355604 L 144 392.652905218 L 148 393.687722672 L 152 392.694906207 L 156 394.743540621 L 161 397.805991995 L 165 393.771724649 L 169 396.834176023 L 173 397.362084997 L 177 392.314000692 L 181 389.293550306 L 186 393.87672712 L 190 395.418453054 L 194 400.508538348 L 198 389.884460763 L 202 395.481454537 L 206 399.050814391 L 211 394.002730085 L 215 396.558272979 L 219 393.030914113 L 223 391.531189168 L 227 392.566006622 L 231 396.135366476 L 236 395.64945849 L 240 394.149733544 L 244 392.143100118 L 248 397.233185413 L 252 392.692009587 L 256 391.699193121 L 261 394.254736015 L 265 398.837912829 L 269 400.886547243 L 273 391.276286618 L 277 383.186751432 L 282 391.825196086 L 286 394.38073898 L 290 393.387922514 L 294 394.422739968 L 298 397.992099823 L 302 391.423290077 L 307 389.923565131 L 311 393.999833465 L 315 391.993200039 L 319 396.069468373 L 323 395.583560388 L 327 392.563110002 L 332 399.680829216 L 336 391.08438555 L 340 396.174470844 L 344 399.743830698 L 348 395.202654873 L 352 398.265106247 L 357 393.217021941 L 361 389.689663075 L 365 391.231389009 L 369 392.773114944 L 373 390.259573038 L 377 395.856566812 L 382 396.891384266 L 386 394.37784236 L 390 392.371208934 L 394 395.433660309 L 398 395.454660803 L 403 396.996386737 L 407 392.455210911 L 411 392.476211405 L 415 395.538662779 L 419 394.038937834 L 423 399.129023128 L 428 389.011854022 L 432 399.171024116 L 436 398.17820765 L 440 395.157757264 L 444 389.602764479 L 448 398.241209133 L 453 392.686216347 L 457 400.310844041 L 461 396.276576695 L 465 395.790668709 L 469 395.811669204 L 473 398.367212098 L 478 395.853670192 L 482 396.381579166 L 486 394.37494574 L 490 395.916671674 L 494 394.416946729 L 498 393.424130263 L 503 398.514215557 L 507 394.986856691 L 511 398.556216545 L 515 393.50813224 L 519 399.105126014 L 524 398.112309548 L 528 391.543499802 L 532 397.140493576 L 536 392.09240927 L 540 396.168677605 L 544 395.682769619 L 549 392.155410753 L 553 396.231679087 L 557 393.211228701 L 561 396.273680075 L 565 396.29468057 L 569 390.232779304 L 574 394.815956118 L 578 398.892224452 L 582 394.351048626 L 586 393.35823216 L 590 390.844690255 L 594 392.386416189 L 599 394.941959083 L 603 391.921508697 L 607 393.970143111 L 611 389.935875766 L 615 397.05359498 L 620 395.553870034"/>
		</g>
		<text class="x-axis-label" x="40.0" y="540">0</text>
		<path class="x-notch" d="M 60.8633093525 525 L 60.8633093525 530"/>
		<text class="x-axis-label" x="81.726618705" y="540">10</text>
		<path class="x-notch" d="M 102.589928058 525 L 102.589928058 530"/>
		<text class="x-axis-label" x="123.45323741" y="540">20</text>
		<path class="x-notch" d="M 144.316546763 525 L 144.316546763 530"/>
		<text class="x-axis-label" x="165.179856115" y="540">30</text>
		<path class="x-notch" d="M 186.043165468 525 L 186.043165468 530"/>
		<text class="x-axis-label" x="206.90647482" y="540">40</text>
		<path class="x-notch" d="M 227.769784173 525 L 227.769784173 530"/>
		<text class="x-axis-label" x="248.633093525" y="540">50</text>
		<path class="x-notch" d="M 269.496402878 525 L 269.496402878 530"/>
		<text class="x-axis-label" x="290.35971223" y="540">60</text>
		<path class="x-notch" d="M 311.223021583 525 L 311.223021583 530"/>
		<text class="x-axis-label" x="332.086330935" y="540">70</text>
		<path class="x-notch" d="M 352.949640288 525 L 352.949640288 530"/>
		<text class="x-axis-label" x="373.81294964" y="540">80</text>
		<path class="x-notch" d="M 394.676258993 525 L 394.676258993 530"/>
		<text class="x-axis-label" x="415.539568345" y="540">90</text>
		<path class="x-notch" d="M 436.402877698 525 L 436.402877698 530"/>
		<text class="x-axis-label" x="457.26618705" y="540">100</text>
		<path class="x-notch" d="M 478.129496403 525 L 478.129496403 530"/>
		<text class="x-axis-label" x="498.992805755" y="540">110</text>
		<path class="x-notch" d="M 519.856115108 525 L 519.856115108 530"/>
		<text class="x-axis-label" x="540.71942446" y="540">120</text>
		<path class="x-notch" d="M 561.582733813 525 L 561.582733813 530"/>
		<text class="x-axis-label" x="582.446043165" y="540">130</text>
		<path class="x-notch" d="M 603.309352518 525 L 603.309352518 530"/>
	</g>
</svg>
