<?xml version="1.0" ?>
<svg height="600" version="1.1" width="800" xmlns="http://www.w3.org/2000/svg" xmlns:svg="http://www.w3.org/2000/svg">
	<style type="text/css">

.x-axis-path, .y-gridline, .x-notch { fill:none; stroke: #a7a9ac; stroke-width:1; }



.y-gridline { stroke-width: 1; }

.y-axis-path, .y-axis-path2, .x-notch-left, .x-notch-right { display: none;}



.x-axis-label, .data-point-label {font-size: 12px; font-weight:normal; font-family: sans-serif; fill: #58595b; text-anchor:middle;}

.y-axis-label {font-size: 12px; font-family: helvetica; fill: #a7a9ac; text-anchor:end;}



.series-1-line { fill: none; stroke: #10b80c; stroke-width:2; }



.series-2-line { fill: none; stroke: #e90f0a; stroke-width: 2;}
</style>
	<rect fill="white" height="600" width="800" x="0" y="0"/>
	<g id="grid" transform="translate(70, 30)">
		<g class="x-axis" id="x_axis">
			<path class="x-axis-path" d="M 0 525 L 660 525"/>
			<path class="x-notch-left" d="M 0 525, L 0 535"/>
			<path class="x-notch-right" d="M 660 525, L 660 535"/>
		</g>
		<g class="y-axis" id="y_axis">
			<path class="y-axis-path" d="M 0 525 L 0 0"/>
			<path class="y-axis-path-2" d="M 660 525 L 660 0"/>
			<path class="y-gridline" d="M 0 525 L 660 525"/>
			<text class="y-axis-label" x="-5" y="525">-200</text>
			<path class="y-gridline" d="M 0 394 L 660 394"/>
			<text class="y-axis-label" x="-5" y="394"> 0</text>
			<path class="y-gridline" d="M 0 263 L 660 263"/>
			<text class="y-axis-label" x="-5" y="263">200</text>
			<path class="y-gridline" d="M 0 132 L 660 132"/>
			<text class="y-axis-label" x="-5" y="132">400</text>
			<path class="y-gridline" d="M 0 1 L 660 1"/>
			<text class="y-axis-label" x="-5" y="1">600</text>
		</g>
		<g>
			<path class="series-1-line" d="M 40 377.608497865 L 46 400.423461008 L 52 407.043858177 L 58 391.778398501 L 64 393.38775733 L 70 400.854328596 L 76 388.027993578 L 82 390.450393961 L 88 386.567516027 L 94 375.201342551 L 101 384.410219672 L 107 403.740571104 L 113 368.430958068 L 119 366.755018141 L 125 373.70725844 L 131 343.392117472 L 137 277.48511831 L 143 332.241406371 L 149 296.8652694 L 156 332.705722512 L 162 340.985335331 L 168 305.094867393 L 174 271.04636179 L 180 263.43011922 L 186 250.636916746 L 192 264.392200056 L 198 190.10603244 L 204 248.827871788 L 210 220.354434306 L 217 150.714329356 L 223 135.863544168 L 229 195.564346634 L 235 197.173705463 L 241 165.448101769 L 247 198.932261581 L 253 121.543283046 L 259 65.4096076399 L 265 138.683363584 L 272 133.688733511 L 278 85.138010126 L 284 57.9256800769 L 290 0.0 L 296 89.2692678107 L 302 22.9310278884 L 308 77.7701473077 L 314 36.6861531934 L 320 84.5397417651 L 326 28.8872647824 L 333 97.2827714087 L 339 55.020760068 L 345 75.1144542377 L 351 8.61029275047 L 357 75.0644394124 L 363 33.6486021682 L 369 100.76643509 L 375 141.368914771 L 381 124.726124911 L 388 69.9532134166 L 394 114.620900863 L 400 184.659056867 L 406 146.32946427 L 412 177.689776281 L 418 165.49399498 L 424 185.106490726 L 430 240.957705807 L 436 248.158957877 L 442 217.760726703 L 449 277.229342517 L 455 271.604158727 L 461 283.783057746 L 467 335.983998398 L 473 309.385655794 L 479 263.124701774 L 485 343.997976011 L 491 326.027813632 L 497 334.772058603 L 504 302.084058062 L 510 340.66234642 L 516 379.721574353 L 522 384.234689993 L 528 426.13140965 L 534 403.482052061 L 540 399.201065911 L 546 403.614525073 L 552 359.411153768 L 558 369.416506171 L 565 391.717138348 L 571 407.148203579 L 577 412.90586038 L 583 415.809459186 L 589 411.57817185 L 595 419.044743116 L 601 412.208409557 L 607 391.467279389 L 613 372.733774272 L 620 371.057834345"/>
			<path class="series-2-line" d="M 40 393.102880012 L 46 390.531926226 L 52 390.549452392 L 58 397.685298428 L 64 397.055704606 L 70 391.249150879 L 76 396.443636951 L 82 395.166923141 L 88 393.243089343 L 94 397.790455426 L 101 397.807981592 L 107 383.58886802 L 113 388.136234103 L 119 395.272080139 L 125 393.995366329 L 131 401.778332352 L 137 384.32361884 L 143 395.989304792 L 149 385.652911149 L 156 395.377237137 L 162 388.923563422 L 168 383.117009695 L 174 392.841335683 L 180 392.85886185 L 186 392.876388016 L 192 390.30543423 L 198 392.911440349 L 204 391.634726539 L 210 389.710892741 L 217 399.435218729 L 223 392.334425026 L 229 389.76347124 L 235 389.133877418 L 241 389.798523573 L 247 388.521809763 L 253 395.657655798 L 259 393.086702012 L 265 393.104228179 L 272 387.94479444 L 278 388.609440594 L 284 391.862566701 L 290 391.23297288 L 296 394.486098986 L 302 393.856505165 L 308 392.579791355 L 314 389.361717581 L 320 392.614843688 L 326 390.69100989 L 333 394.591255985 L 339 398.49150208 L 345 391.390708377 L 351 391.408234543 L 357 395.308480638 L 363 393.38464684 L 369 394.696412983 L 375 393.419699173 L 381 388.260265434 L 388 400.573071375 L 394 396.060757624 L 400 396.078283791 L 406 392.213090028 L 412 394.171976159 L 418 401.954942183 L 424 394.207028492 L 430 386.459114801 L 436 396.830560777 L 442 392.318247026 L 449 400.748333038 L 455 393.000419347 L 461 383.95826568 L 467 390.446991727 L 473 398.877077739 L 479 395.659003965 L 485 396.323650119 L 491 396.341176286 L 497 393.123102512 L 504 392.49350869 L 510 404.159194642 L 516 391.234321046 L 522 391.898967201 L 528 390.622253391 L 534 388.698419593 L 540 398.422745581 L 546 389.380591914 L 552 393.280838009 L 558 395.239724139 L 565 397.19861027 L 571 385.56797665 L 577 393.998062662 L 583 393.36846884 L 589 395.327354971 L 595 389.520801244 L 601 394.068167327 L 607 397.321293434 L 613 390.220499732 L 620 397.356345767"/>
		</g>
		<text class="x-axis-label" x="40.0" y="540">0</text>
		<path class="x-notch" d="M 70.5263157895 525 L 70.5263157895 530"/>
		<text class="x-axis-label" x="101.052631579" y="540">10</text>
		<path class="x-notch" d="M 131.578947368 525 L 131.578947368 530"/>
		<text class="x-axis-label" x="162.105263158" y="540">20</text>
		<path class="x-notch" d="M 192.631578947 525 L 192.631578947 530"/>
		<text class="x-axis-label" x="223.157894737" y="540">30</text>
		<path class="x-notch" d="M 253.684210526 525 L 253.684210526 530"/>
		<text class="x-axis-label" x="284.210526316" y="540">40</text>
		<path class="x-notch" d="M 314.736842105 525 L 314.736842105 530"/>
		<text class="x-axis-label" x="345.263157895" y="540">50</text>
		<path class="x-notch" d="M 375.789473684 525 L 375.789473684 530"/>
		<text class="x-axis-label" x="406.315789474" y="540">60</text>
		<path class="x-notch" d="M 436.842105263 525 L 436.842105263 530"/>
		<text class="x-axis-label" x="467.368421053" y="540">70</text>
		<path class="x-notch" d="M 497.894736842 525 L 497.894736842 530"/>
		<text class="x-axis-label" x="528.421052632" y="540">80</text>
		<path class="x-notch" d="M 558.947368421 525 L 558.947368421 530"/>
		<text class="x-axis-label" x="589.473684211" y="540">90</text>
		<path class="x-notch" d="M 620.0 525 L 620.0 530"/>
	</g>
</svg>
