<?xml version="1.0" ?>
<svg height="600" version="1.1" width="800" xmlns="http://www.w3.org/2000/svg" xmlns:svg="http://www.w3.org/2000/svg">
	<style type="text/css">

.x-axis-path, .y-gridline, .x-notch { fill:none; stroke: #a7a9ac; stroke-width:1; }



.y-gridline { stroke-width: 1; }

.y-axis-path, .y-axis-path2, .x-notch-left, .x-notch-right { display: none;}



.x-axis-label, .data-point-label {font-size: 12px; font-weight:normal; font-family: sans-serif; fill: #58595b; text-anchor:middle;}

.y-axis-label {font-size: 12px; font-family: helvetica; fill: #a7a9ac; text-anchor:end;}



.series-1-line { fill: none; stroke: #10b80c; stroke-width:2; }



.series-2-line { fill: none; stroke: #e90f0a; stroke-width: 2;}
</style>
	<rect fill="white" height="600" width="800" x="0" y="0"/>
	<g id="grid" transform="translate(70, 30)">
		<g class="x-axis" id="x_axis">
			<path class="x-axis-path" d="M 0 525 L 660 525"/>
			<path class="x-notch-left" d="M 0 525, L 0 535"/>
			<path class="x-notch-right" d="M 660 525, L 660 535"/>
		</g>
		<g class="y-axis" id="y_axis">
			<path class="y-axis-path" d="M 0 525 L 0 0"/>
			<path class="y-axis-path-2" d="M 660 525 L 660 0"/>
			<path class="y-gridline" d="M 0 525 L 660 525"/>
			<text class="y-axis-label" x="-5" y="525">-200</text>
			<path class="y-gridline" d="M 0 394 L 660 394"/>
			<text class="y-axis-label" x="-5" y="394"> 0</text>
			<path class="y-gridline" d="M 0 263 L 660 263"/>
			<text class="y-axis-label" x="-5" y="263">200</text>
			<path class="y-gridline" d="M 0 132 L 660 132"/>
			<text class="y-axis-label" x="-5" y="132">400</text>
			<path class="y-gridline" d="M 0 1 L 660 1"/>
			<text class="y-axis-label" x="-5" y="1">600</text>
		</g>
		<g>
			<path class="series-1-line" d="M 40 392.06661322 L 44 378.162767929 L 48 413.840828435 L 52 383.868833719 L 56 399.882315411 L 61 371.861320973 L 65 398.931465602 L 69 442.260741634 L 73 408.615924738 L 77 396.43390135 L 82 414.245597736 L 86 405.506621335 L 90 405.107589222 L 94 396.406809216 L 98 340.763852453 L 103 366.877296732 L 107 339.124273882 L 111 338.495466576 L 115 374.288713087 L 119 318.301391944 L 124 370.812723427 L 128 344.551747287 L 132 395.303060471 L 136 333.845299271 L 140 236.539623827 L 145 299.150917897 L 149 303.954951069 L 153 266.676105207 L 157 318.651493512 L 161 271.501863438 L 166 202.124318304 L 170 295.877611296 L 174 257.029729114 L 178 212.940585251 L 182 172.562459964 L 187 165.582905043 L 191 175.475414314 L 195 195.353296984 L 199 178.924311841 L 203 147.039513244 L 208 145.148434421 L 212 140.885598149 L 216 163.364416643 L 220 82.2802730252 L 224 35.4750073321 L 229 106.617824487 L 233 139.388184365 L 237 66.2232278629 L 241 51.1717002429 L 245 118.182741649 L 250 166.370718587 L 254 177.372713791 L 258 141.9296822 L 262 131.316098313 L 266 131.52940217 L 271 146.012640756 L 275 31.8736943349 L 279 129.376202298 L 283 148.335581014 L 287 67.9783625531 L 292 87.6646664254 L 296 0.0 L 300 97.8850687397 L 304 72.8863641164 L 308 142.843302546 L 313 147.150185755 L 317 66.2570241163 L 321 100.825598689 L 325 156.779977159 L 330 130.519001019 L 334 133.027669533 L 338 140.815796125 L 342 249.604145399 L 346 230.076477651 L 351 214.06824968 L 355 219.216647233 L 359 174.171399839 L 363 198.754601012 L 367 180.412811988 L 372 207.597545804 L 376 185.085784636 L 380 274.515723082 L 384 214.39662619 L 388 230.716275867 L 393 187.047889176 L 397 251.763565925 L 401 272.827327319 L 405 226.978165158 L 409 262.77081485 L 414 287.20123044 L 418 259.218432398 L 422 240.876643374 L 426 226.475648119 L 430 321.567605419 L 435 295.03865769 L 439 250.605149447 L 443 230.542135339 L 447 322.649999219 L 451 278.981612528 L 456 308.347121815 L 460 271.221061536 L 464 331.995944515 L 468 273.713258713 L 472 335.176870454 L 477 331.793744921 L 481 303.734554087 L 485 354.983614054 L 489 323.863937009 L 493 314.474428243 L 498 330.067152762 L 502 340.342222809 L 506 316.529396911 L 510 336.177504387 L 514 361.90838789 L 519 355.005822579 L 523 349.327332388 L 527 370.467486574 L 531 335.445212156 L 535 314.081133317 L 540 357.181230975 L 544 335.472787755 L 548 380.409296503 L 552 342.326535874 L 556 336.916017273 L 561 357.214060296 L 565 361.941700677 L 569 386.372116267 L 573 391.176149439 L 577 387.946406309 L 582 388.73325292 L 586 413.16366851 L 590 380.590141152 L 594 410.873557574 L 598 414.529908417 L 603 386.776885568 L 607 386.110478685 L 611 405.796782557 L 615 385.771368026 L 620 405.687447091"/>
			<path class="series-2-line" d="M 40 388.677041187 L 44 390.171234727 L 48 396.141568395 L 52 402.111902063 L 56 391.669721926 L 61 384.211635208 L 65 394.658109005 L 69 370.787508481 L 73 367.805561892 L 77 391.680456075 L 82 391.682602905 L 86 402.129076701 L 90 391.686896564 L 94 396.165183523 L 98 391.691190224 L 103 376.772869958 L 107 385.727297045 L 111 352.904416264 L 115 399.160011091 L 119 390.209877663 L 124 388.719977783 L 128 397.674404871 L 132 379.771991186 L 136 409.615072207 L 140 387.236518393 L 145 381.270478385 L 149 373.812391666 L 153 414.099799655 L 157 379.784872164 L 161 388.739299252 L 166 373.820978986 L 170 397.695873169 L 174 391.72983316 L 178 388.747886571 L 182 388.750033401 L 187 357.419199329 L 191 370.849766545 L 195 397.708754147 L 199 385.774527301 L 203 399.205094517 L 208 388.762914379 L 212 399.209388176 L 216 369.370600815 L 220 376.832981192 L 224 390.263548408 L 229 391.757741948 L 233 385.791701939 L 237 379.825661931 L 241 385.795995599 L 245 391.766329267 L 250 366.403682034 L 254 381.326295959 L 258 367.900022403 L 262 379.838542909 L 266 390.285016706 L 271 385.811023407 L 275 370.892703141 L 279 391.783503905 L 283 387.309510606 L 287 397.755984403 L 292 396.266084523 L 296 382.839810967 L 300 402.238565021 L 304 388.812291465 L 308 400.750811971 L 313 412.689332477 L 317 390.310778664 L 321 394.789065622 L 325 379.870745356 L 330 388.825172444 L 334 390.319365983 L 338 382.861279265 L 342 388.831612933 L 346 394.801946601 L 351 375.407486206 L 355 372.425539617 L 359 402.268620638 L 363 393.318487211 L 367 388.844493912 L 372 381.386407194 L 376 387.356740862 L 380 387.358887692 L 384 382.884894393 L 388 382.887041222 L 393 372.444861085 L 397 387.367475011 L 401 403.782135646 L 405 384.387675251 L 409 372.453448404 L 414 387.37606233 L 418 373.949788774 L 422 369.475795475 L 426 390.366596238 L 430 379.924416101 L 435 372.466329383 L 439 365.008242665 L 443 396.343370396 L 447 385.901190259 L 451 375.459010121 L 456 376.953203661 L 460 393.367864296 L 464 382.925684159 L 468 382.927830989 L 472 381.437931109 L 477 370.995750972 L 481 369.505851092 L 485 390.396651856 L 489 400.843125652 L 493 396.369132353 L 498 393.387185764 L 502 405.325706271 L 506 381.455105747 L 510 385.933392706 L 514 372.507119149 L 519 387.429733075 L 523 385.939833195 L 527 390.418120154 L 531 369.531613049 L 535 371.025806589 L 540 382.964327095 L 544 379.982380506 L 548 396.397041141 L 552 387.446907713 L 556 402.369521639 L 561 363.57845402 L 565 368.056740978 L 569 382.979354904 L 573 375.521268186 L 577 399.396162369 L 582 378.509655264 L 586 393.43226919 L 590 397.910556148 L 594 372.547908915 L 598 369.565962326 L 603 378.520389413 L 607 409.855517144 L 611 408.365617264 L 615 375.542736484 L 620 396.433537247"/>
		</g>
		<text class="x-axis-label" x="40.0" y="540">0</text>
		<path class="x-notch" d="M 61.0144927536 525 L 61.0144927536 530"/>
		<text class="x-axis-label" x="82.0289855072" y="540">10</text>
		<path class="x-notch" d="M 103.043478261 525 L 103.043478261 530"/>
		<text class="x-axis-label" x="124.057971014" y="540">20</text>
		<path class="x-notch" d="M 145.072463768 525 L 145.072463768 530"/>
		<text class="x-axis-label" x="166.086956522" y="540">30</text>
		<path class="x-notch" d="M 187.101449275 525 L 187.101449275 530"/>
		<text class="x-axis-label" x="208.115942029" y="540">40</text>
		<path class="x-notch" d="M 229.130434783 525 L 229.130434783 530"/>
		<text class="x-axis-label" x="250.144927536" y="540">50</text>
		<path class="x-notch" d="M 271.15942029 525 L 271.15942029 530"/>
		<text class="x-axis-label" x="292.173913043" y="540">60</text>
		<path class="x-notch" d="M 313.188405797 525 L 313.188405797 530"/>
		<text class="x-axis-label" x="334.202898551" y="540">70</text>
		<path class="x-notch" d="M 355.217391304 525 L 355.217391304 530"/>
		<text class="x-axis-label" x="376.231884058" y="540">80</text>
		<path class="x-notch" d="M 397.246376812 525 L 397.246376812 530"/>
		<text class="x-axis-label" x="418.260869565" y="540">90</text>
		<path class="x-notch" d="M 439.275362319 525 L 439.275362319 530"/>
		<text class="x-axis-label" x="460.289855072" y="540">100</text>
		<path class="x-notch" d="M 481.304347826 525 L 481.304347826 530"/>
		<text class="x-axis-label" x="502.31884058" y="540">110</text>
		<path class="x-notch" d="M 523.333333333 525 L 523.333333333 530"/>
		<text class="x-axis-label" x="544.347826087" y="540">120</text>
		<path class="x-notch" d="M 565.362318841 525 L 565.362318841 530"/>
		<text class="x-axis-label" x="586.376811594" y="540">130</text>
		<path class="x-notch" d="M 607.391304348 525 L 607.391304348 530"/>
	</g>
</svg>
