<?xml version="1.0" ?>
<svg height="600" version="1.1" width="800" xmlns="http://www.w3.org/2000/svg" xmlns:svg="http://www.w3.org/2000/svg">
	<style type="text/css">

.x-axis-path, .y-gridline, .x-notch { fill:none; stroke: #a7a9ac; stroke-width:1; }



.y-gridline { stroke-width: 1; }

.y-axis-path, .y-axis-path2, .x-notch-left, .x-notch-right { display: none;}



.x-axis-label, .data-point-label {font-size: 12px; font-weight:normal; font-family: sans-serif; fill: #58595b; text-anchor:middle;}

.y-axis-label {font-size: 12px; font-family: helvetica; fill: #a7a9ac; text-anchor:end;}



.series-1-line { fill: none; stroke: #10b80c; stroke-width:2; }



.series-2-line { fill: none; stroke: #e90f0a; stroke-width: 2;}
</style>
	<rect fill="white" height="600" width="800" x="0" y="0"/>
	<g id="grid" transform="translate(70, 30)">
		<g class="x-axis" id="x_axis">
			<path class="x-axis-path" d="M 0 525 L 660 525"/>
			<path class="x-notch-left" d="M 0 525, L 0 535"/>
			<path class="x-notch-right" d="M 660 525, L 660 535"/>
		</g>
		<g class="y-axis" id="y_axis">
			<path class="y-axis-path" d="M 0 525 L 0 0"/>
			<path class="y-axis-path-2" d="M 660 525 L 660 0"/>
			<path class="y-gridline" d="M 0 525 L 660 525"/>
			<text class="y-axis-label" x="-5" y="525">-200</text>
			<path class="y-gridline" d="M 0 394 L 660 394"/>
			<text class="y-axis-label" x="-5" y="394"> 0</text>
			<path class="y-gridline" d="M 0 263 L 660 263"/>
			<text class="y-axis-label" x="-5" y="263">200</text>
			<path class="y-gridline" d="M 0 132 L 660 132"/>
			<text class="y-axis-label" x="-5" y="132">400</text>
			<path class="y-gridline" d="M 0 1 L 660 1"/>
			<text class="y-axis-label" x="-5" y="1">600</text>
		</g>
		<g>
			<path class="series-1-line" d="M 40 382.467967166 L 42 383.329722914 L 45 418.627813326 L 48 386.064526745 L 51 399.996699336 L 54 426.958887579 L 57 379.018528605 L 60 409.582104343 L 63 390.089234605 L 66 394.633180232 L 69 382.788761133 L 72 406.796612219 L 75 379.655923111 L 78 372.019540653 L 81 358.353911576 L 84 390.495658872 L 87 367.806044826 L 90 383.599828587 L 93 385.837118665 L 96 346.111458285 L 99 376.351193219 L 102 369.038651566 L 105 386.167568465 L 108 380.352395985 L 111 335.568380128 L 114 375.196342026 L 117 361.692317716 L 120 349.079013434 L 123 337.922045865 L 126 320.6146281 L 129 340.171404124 L 132 343.946464568 L 135 381.308172109 L 138 334.460539122 L 141 356.647811499 L 144 339.906641689 L 147 358.977972142 L 150 267.536892344 L 153 338.849488978 L 156 271.161784934 L 158 350.932118581 L 161 321.929818303 L 164 323.357822006 L 167 316.44992354 L 170 262.965763517 L 173 280.458922412 L 176 289.737382713 L 179 305.692771242 L 182 312.907614414 L 185 257.481040838 L 188 232.849013238 L 191 296.109147314 L 194 220.611387864 L 197 267.644761981 L 200 257.580520399 L 203 237.197561902 L 206 217.219246593 L 209 219.780377474 L 212 264.547497234 L 215 227.290097171 L 218 247.534955994 L 221 184.541365432 L 224 161.892152578 L 227 90.1984178507 L 230 225.002118799 L 233 188.958648298 L 236 204.914036827 L 239 225.523137645 L 242 179.120549038 L 245 129.92585931 L 248 136.007575303 L 251 154.795466144 L 254 167.958753552 L 257 153.888481287 L 260 198.372161435 L 263 98.5951794684 L 266 150.160431031 L 269 123.424385111 L 272 67.2693275435 L 274 138.056077414 L 277 169.793181522 L 280 107.973119331 L 283 114.944924082 L 286 80.1968167964 L 289 96.71845328 L 292 129.224442571 L 295 127.77954277 L 298 129.895629273 L 301 73.6597693218 L 304 67.0757116594 L 307 88.2510604331 L 310 93.1592480559 L 313 3.41754339183 L 316 33.4956735585 L 319 41.4390007215 L 322 33.1145354649 L 325 118.509472545 L 328 79.997741727 L 331 71.0262261316 L 334 62.6209584913 L 337 94.3580625997 L 340 101.249064968 L 343 60.0260354137 L 346 66.4315922106 L 349 89.8731953417 L 352 79.8089537596 L 355 42.5111525044 L 358 87.3186734559 L 361 90.527485945 L 364 71.600864162 L 367 107.830075793 L 370 0.0 L 373 23.441603131 L 376 124.577854599 L 379 94.4020259502 L 382 44.8834954187 L 385 31.6225095287 L 388 51.5839287401 L 390 84.0495168396 L 393 4.5457267065 L 396 75.1702405407 L 399 118.116781591 L 402 153.374470811 L 405 89.5715938739 L 408 102.815683666 L 411 159.722730318 L 414 168.272706628 L 417 200.374052732 L 420 164.330582231 L 423 208.288415616 L 426 173.742314289 L 429 240.603835861 L 432 214.717477507 L 435 213.312978898 L 438 194.912835146 L 441 268.855928133 L 444 223.991109891 L 447 230.032424693 L 450 268.203418609 L 453 255.347075906 L 456 291.373650309 L 459 269.53372383 L 462 300.38073918 L 465 334.545702413 L 468 256.579682646 L 471 295.843402548 L 474 315.278974997 L 477 310.030050472 L 480 291.589505529 L 483 313.533739486 L 486 355.104114938 L 489 335.570844008 L 492 267.478496776 L 495 297.192384947 L 498 335.687219667 L 501 345.653762767 L 504 367.072149961 L 506 340.53811 L 509 322.947252623 L 512 303.818624881 L 515 352.146730944 L 518 332.53265763 L 521 321.375690061 L 524 354.28632254 L 527 363.07933727 L 530 392.06474145 L 533 375.32357164 L 536 388.891502236 L 539 384.249858127 L 542 390.452777696 L 545 379.862689351 L 548 346.975561966 L 551 362.526307307 L 554 360.71716551 L 557 359.636507705 L 560 371.666667935 L 563 383.696828164 L 566 405.15561655 L 569 408.890275802 L 572 366.857959873 L 575 375.691375795 L 578 356.926990048 L 581 329.947905707 L 584 372.367968726 L 587 379.906652701 L 590 358.835611405 L 593 402.79344479 L 596 326.769838577 L 599 411.395890473 L 602 380.734616254 L 605 404.661664956 L 608 373.271906745 L 611 403.430839295 L 614 419.102788212 L 617 375.856542721 L 620 394.482828794"/>
			<path class="series-2-line" d="M 40 381.124627536 L 42 396.882187429 L 45 395.279860184 L 48 393.677532939 L 51 401.544235041 L 54 407.832765586 L 57 404.652266783 L 60 403.049939538 L 63 393.556754503 L 66 388.798084142 L 69 417.181016499 L 72 391.906115884 L 75 406.085504218 L 78 393.435976068 L 81 398.146335054 L 84 396.544007809 L 87 393.363509006 L 90 418.590098247 L 93 404.362398538 L 96 412.229100641 L 99 399.57957249 L 102 397.977245245 L 105 399.531261115 L 108 410.554306334 L 111 407.373807531 L 114 407.349651844 L 117 386.809265903 L 120 412.035855144 L 123 394.651812319 L 126 413.565715327 L 129 405.65070185 L 132 397.735688373 L 135 381.929817107 L 138 392.952862325 L 141 405.554079102 L 144 397.639065625 L 147 403.92759617 L 150 416.528812947 L 153 397.566598564 L 156 397.542442877 L 158 413.300002769 L 161 410.119503966 L 164 399.048147373 L 167 395.86764857 L 170 395.843492883 L 173 402.132023428 L 176 397.373353067 L 179 397.34919738 L 182 406.79407104 L 185 402.035400679 L 188 394.120387202 L 191 400.408917747 L 194 387.759389596 L 197 401.938777931 L 200 398.758279128 L 203 405.046809673 L 206 409.757168659 L 209 406.576669856 L 212 404.974342611 L 215 397.059329134 L 218 404.926031237 L 221 411.214561782 L 224 401.721376747 L 227 411.166250408 L 230 396.938550699 L 233 384.289022548 L 236 384.264866861 L 239 396.866083637 L 242 399.998271066 L 245 407.864973169 L 248 409.41898904 L 251 398.347632447 L 254 403.057991434 L 257 409.346521979 L 260 390.384307596 L 263 410.876382162 L 266 395.070510895 L 269 407.671727672 L 272 393.444027963 L 274 394.998043834 L 277 394.973888147 L 280 402.84059025 L 283 388.612890541 L 286 420.152166013 L 289 393.299093841 L 292 396.431281269 L 295 402.719811814 L 298 407.430170801 L 301 405.827843556 L 304 413.694545659 L 307 399.46684595 L 310 399.442690263 L 313 393.105848344 L 316 405.70706512 L 319 424.620968129 L 322 396.189724398 L 325 396.165568711 L 328 399.29775614 L 331 410.320801359 L 334 394.514930092 L 337 394.490774405 L 340 392.88844716 L 343 388.129776799 L 346 400.730993575 L 349 402.285009446 L 352 399.104510643 L 355 397.502183398 L 358 389.587169921 L 361 408.50107293 L 364 372.178971409 L 367 410.030933113 L 370 394.225061847 L 373 395.779077717 L 376 402.067608262 L 379 397.308937901 L 382 394.128439098 L 385 397.260626527 L 388 387.767441492 L 390 397.212315153 L 393 394.03181635 L 396 359.287886387 L 399 395.561676533 L 402 400.27203552 L 405 409.716909181 L 408 401.801895704 L 411 414.403112481 L 414 400.175412772 L 417 404.885771759 L 420 392.236243608 L 423 393.790259479 L 426 393.766103791 L 429 392.163776546 L 432 395.295963975 L 435 395.271808288 L 438 399.982167275 L 441 401.536183146 L 444 410.981056806 L 447 418.847758909 L 450 399.885544526 L 453 401.439560397 L 456 409.3062625 L 459 396.656734349 L 462 412.414294242 L 465 402.921109207 L 468 406.053296636 L 471 401.294626275 L 474 412.317671493 L 477 396.511800226 L 480 407.534845445 L 483 396.463488852 L 486 401.173847839 L 489 397.993349036 L 492 399.547364907 L 495 407.41406701 L 498 399.499053533 L 501 410.522098751 L 504 419.966972412 L 506 401.004758029 L 509 402.5587739 L 512 397.800103539 L 515 394.619604736 L 518 404.064478397 L 521 386.680435572 L 524 388.234451443 L 527 397.679325104 L 530 396.076997858 L 533 388.161984381 L 536 391.29417181 L 539 403.895388587 L 542 386.511345762 L 545 403.847077213 L 548 391.197549062 L 551 392.751564933 L 554 394.305580804 L 557 405.328626022 L 560 402.148127219 L 563 398.967628416 L 566 402.099815845 L 569 400.4974886 L 572 398.895161355 L 575 402.027348784 L 578 402.003193097 L 581 390.931836504 L 584 386.173166143 L 587 406.665240709 L 590 397.172055674 L 593 398.726071545 L 596 406.592773648 L 599 403.412274845 L 602 412.857148506 L 605 400.207620355 L 608 400.183464667 L 611 400.15930898 L 614 382.775266155 L 617 385.907453584 L 620 400.086841919"/>
		</g>
		<text class="x-axis-label" x="40.0" y="540">0</text>
		<path class="x-notch" d="M 54.8717948718 525 L 54.8717948718 530"/>
		<text class="x-axis-label" x="69.7435897436" y="540">10</text>
		<path class="x-notch" d="M 84.6153846154 525 L 84.6153846154 530"/>
		<text class="x-axis-label" x="99.4871794872" y="540">20</text>
		<path class="x-notch" d="M 114.358974359 525 L 114.358974359 530"/>
		<text class="x-axis-label" x="129.230769231" y="540">30</text>
		<path class="x-notch" d="M 144.102564103 525 L 144.102564103 530"/>
		<text class="x-axis-label" x="158.974358974" y="540">40</text>
		<path class="x-notch" d="M 173.846153846 525 L 173.846153846 530"/>
		<text class="x-axis-label" x="188.717948718" y="540">50</text>
		<path class="x-notch" d="M 203.58974359 525 L 203.58974359 530"/>
		<text class="x-axis-label" x="218.461538462" y="540">60</text>
		<path class="x-notch" d="M 233.333333333 525 L 233.333333333 530"/>
		<text class="x-axis-label" x="248.205128205" y="540">70</text>
		<path class="x-notch" d="M 263.076923077 525 L 263.076923077 530"/>
		<text class="x-axis-label" x="277.948717949" y="540">80</text>
		<path class="x-notch" d="M 292.820512821 525 L 292.820512821 530"/>
		<text class="x-axis-label" x="307.692307692" y="540">90</text>
		<path class="x-notch" d="M 322.564102564 525 L 322.564102564 530"/>
		<text class="x-axis-label" x="337.435897436" y="540">100</text>
		<path class="x-notch" d="M 352.307692308 525 L 352.307692308 530"/>
		<text class="x-axis-label" x="367.179487179" y="540">110</text>
		<path class="x-notch" d="M 382.051282051 525 L 382.051282051 530"/>
		<text class="x-axis-label" x="396.923076923" y="540">120</text>
		<path class="x-notch" d="M 411.794871795 525 L 411.794871795 530"/>
		<text class="x-axis-label" x="426.666666667" y="540">130</text>
		<path class="x-notch" d="M 441.538461538 525 L 441.538461538 530"/>
		<text class="x-axis-label" x="456.41025641" y="540">140</text>
		<path class="x-notch" d="M 471.282051282 525 L 471.282051282 530"/>
		<text class="x-axis-label" x="486.153846154" y="540">150</text>
		<path class="x-notch" d="M 501.025641026 525 L 501.025641026 530"/>
		<text class="x-axis-label" x="515.897435897" y="540">160</text>
		<path class="x-notch" d="M 530.769230769 525 L 530.769230769 530"/>
		<text class="x-axis-label" x="545.641025641" y="540">170</text>
		<path class="x-notch" d="M 560.512820513 525 L 560.512820513 530"/>
		<text class="x-axis-label" x="575.384615385" y="540">180</text>
		<path class="x-notch" d="M 590.256410256 525 L 590.256410256 530"/>
		<text class="x-axis-label" x="605.128205128" y="540">190</text>
		<path class="x-notch" d="M 620.0 525 L 620.0 530"/>
	</g>
</svg>
