<?xml version="1.0" ?>
<svg height="600" version="1.1" width="800" xmlns="http://www.w3.org/2000/svg" xmlns:svg="http://www.w3.org/2000/svg">
	<style type="text/css">

.x-axis-path, .y-gridline, .x-notch { fill:none; stroke: #a7a9ac; stroke-width:1; }



.y-gridline { stroke-width: 1; }

.y-axis-path, .y-axis-path2, .x-notch-left, .x-notch-right { display: none;}



.x-axis-label, .data-point-label {font-size: 12px; font-weight:normal; font-family: sans-serif; fill: #58595b; text-anchor:middle;}

.y-axis-label {font-size: 12px; font-family: helvetica; fill: #a7a9ac; text-anchor:end;}



.series-1-line { fill: none; stroke: #10b80c; stroke-width:2; }



.series-2-line { fill: none; stroke: #e90f0a; stroke-width: 2;}
</style>
	<rect fill="white" height="600" width="800" x="0" y="0"/>
	<g id="grid" transform="translate(70, 30)">
		<g class="x-axis" id="x_axis">
			<path class="x-axis-path" d="M 0 525 L 660 525"/>
			<path class="x-notch-left" d="M 0 525, L 0 535"/>
			<path class="x-notch-right" d="M 660 525, L 660 535"/>
		</g>
		<g class="y-axis" id="y_axis">
			<path class="y-axis-path" d="M 0 525 L 0 0"/>
			<path class="y-axis-path-2" d="M 660 525 L 660 0"/>
			<path class="y-gridline" d="M 0 525 L 660 525"/>
			<text class="y-axis-label" x="-5" y="525">-200</text>
			<path class="y-gridline" d="M 0 394 L 660 394"/>
			<text class="y-axis-label" x="-5" y="394"> 0</text>
			<path class="y-gridline" d="M 0 263 L 660 263"/>
			<text class="y-axis-label" x="-5" y="263">200</text>
			<path class="y-gridline" d="M 0 132 L 660 132"/>
			<text class="y-axis-label" x="-5" y="132">400</text>
			<path class="y-gridline" d="M 0 1 L 660 1"/>
			<text class="y-axis-label" x="-5" y="1">600</text>
		</g>
		<g>
			<path class="series-1-line" d="M 40 403.156172516 L 43 391.928077341 L 47 407.43536598 L 51 387.778075718 L 55 376.182467637 L 59 385.789656882 L 63 398.271201652 L 67 364.046576438 L 71 396.088236994 L 75 385.724640068 L 79 387.594165389 L 83 407.834952822 L 87 405.252177298 L 90 366.747881153 L 94 376.830477001 L 98 381.855555796 L 102 393.494181057 L 106 384.232785681 L 110 374.539478348 L 114 371.675504876 L 118 371.621487878 L 122 366.401722963 L 126 360.187987363 L 130 397.719414096 L 134 382.989831282 L 137 381.812033995 L 141 375.317100447 L 145 348.76506577 L 149 342.83219095 L 153 368.303462518 L 157 354.632923775 L 161 320.624423123 L 165 334.748649432 L 169 300.394214613 L 173 281.126015996 L 177 247.052441958 L 181 289.165979141 L 185 270.891751208 L 188 276.284342909 L 192 220.489407464 L 196 208.829063165 L 200 220.229985125 L 204 87.426934857 L 208 140.995410997 L 212 115.221559611 L 216 124.958221292 L 220 115.524196 L 224 104.079639096 L 228 131.777229672 L 232 76.1552613097 L 235 89.3502531519 L 239 88.9718807273 L 243 100.56734851 L 247 132.587430326 L 251 86.540353249 L 255 144.323426933 L 259 64.0190895142 L 263 97.2927612244 L 267 85.0703581974 L 271 54.3903781018 L 275 69.8113517828 L 279 99.086550511 L 282 33.3279693038 L 286 50.4779394814 L 290 36.6995070411 L 294 29.1239506824 L 298 0.0 L 302 39.5847786567 L 306 49.6673745045 L 310 83.4164528176 L 314 105.991452954 L 318 96.859867182 L 322 85.8694753091 L 326 89.035748003 L 330 117.208745181 L 333 35.0240229219 L 337 158.879173722 L 341 148.12648515 L 345 145.024808377 L 349 144.797824296 L 353 154.383434801 L 357 184.609446735 L 361 171.738670022 L 365 155.258511972 L 369 207.724786563 L 373 206.438758411 L 377 205.779525206 L 380 191.222909475 L 384 205.19574744 L 388 210.350635839 L 392 219.568733439 L 396 267.042227195 L 400 242.543544441 L 404 216.142898108 L 408 243.796994037 L 412 233.844067495 L 416 287.455701115 L 420 259.174669941 L 424 294.004708232 L 427 280.766418613 L 431 306.237690182 L 435 310.398270729 L 439 339.565238592 L 443 301.320561656 L 447 292.167059977 L 451 320.729148801 L 455 336.733759949 L 459 333.113519094 L 463 347.237745403 L 467 277.891361598 L 471 345.465451129 L 475 363.091165078 L 478 371.617394344 L 482 350.490389626 L 486 378.490419721 L 490 373.313812285 L 494 377.841905737 L 498 370.287928118 L 502 381.472725515 L 506 372.103436442 L 510 375.42109748 L 514 354.33725024 L 518 388.756280979 L 522 363.673960757 L 525 384.022979055 L 529 374.588616595 L 533 379.592116651 L 537 387.23226893 L 541 385.730116216 L 545 391.144286656 L 549 368.33144292 L 553 388.09682375 L 557 400.751335603 L 561 402.599282185 L 565 404.12287334 L 569 402.447753543 L 572 407.213550297 L 576 404.717089731 L 580 388.906884106 L 584 404.695370693 L 588 394.742444152 L 592 407.656238046 L 596 398.07082441 L 600 394.493741034 L 604 396.579390917 L 608 404.976147747 L 612 390.462689495 L 616 376.230429192 L 620 403.90610386"/>
			<path class="series-2-line" d="M 40 399.144684856 L 43 405.820154792 L 47 383.836361428 L 51 390.511831363 L 55 388.758106211 L 59 399.648173691 L 63 389.46525345 L 67 400.35532093 L 71 396.07283725 L 75 399.376629151 L 79 400.994582034 L 83 396.712098355 L 87 402.544648781 L 90 390.675889523 L 94 393.136761914 L 98 395.597634306 L 102 385.414714065 L 106 381.132230386 L 110 411.409446569 L 114 395.326089766 L 118 401.158640193 L 122 390.975719952 L 126 404.394545958 L 130 398.426223262 L 134 392.457900565 L 137 409.248404607 L 141 400.751323383 L 145 398.154678722 L 149 400.615551113 L 153 402.233503996 L 157 395.422261791 L 161 405.469409762 L 165 402.029845591 L 169 400.276120439 L 173 412.009107427 L 177 399.29742866 L 181 401.758301052 L 185 389.889541793 L 188 400.779609273 L 192 390.596689032 L 196 398.957997985 L 200 392.989675289 L 204 397.136386698 L 208 387.796385966 L 212 395.31477541 L 216 385.974774678 L 220 408.665715282 L 224 383.310243882 L 228 399.257828415 L 232 394.975344736 L 235 405.022492707 L 239 395.682491975 L 243 392.242927804 L 247 391.332122161 L 251 405.593867676 L 255 396.253866944 L 259 396.185980809 L 263 396.961014183 L 267 394.364369521 L 271 411.154873563 L 275 402.65779234 L 279 402.589906205 L 282 401.679100561 L 286 386.438663267 L 290 396.485811238 L 294 392.203327559 L 298 396.350038968 L 302 398.81091136 L 306 401.271783751 L 310 393.617622037 L 314 386.806379831 L 318 395.167688785 L 322 397.628561176 L 326 394.188997006 L 330 401.70738645 L 333 399.110741789 L 337 404.943292216 L 341 403.189567063 L 345 391.320807805 L 349 391.25292167 L 353 405.514667185 L 357 388.588390873 L 361 388.520504739 L 365 392.667216148 L 369 390.913490995 L 373 391.688524369 L 377 393.306477252 L 380 393.238591117 L 384 380.526912349 L 388 395.631577373 L 392 401.4641278 L 396 389.595368542 L 400 395.427918969 L 404 402.103388904 L 408 391.920468663 L 412 396.910099581 L 416 380.826742779 L 420 384.973454188 L 424 405.978555774 L 427 397.48147455 L 431 399.099427433 L 435 404.93197786 L 439 388.848621057 L 443 402.267447064 L 447 381.126573208 L 451 393.702479706 L 455 392.791674062 L 459 396.095465962 L 463 392.655901792 L 467 392.588015657 L 471 400.94932461 L 475 410.153553072 L 478 392.384357252 L 482 398.216907679 L 486 399.834860562 L 490 382.90858425 L 494 397.170329765 L 498 389.516168051 L 502 384.390764863 L 506 396.966671361 L 510 402.799221787 L 514 401.888416144 L 518 388.333817867 L 522 386.580092715 L 525 398.313079703 L 529 388.130159463 L 533 393.962709889 L 537 382.93687014 L 541 384.554823023 L 545 392.073212467 L 549 397.905762894 L 553 402.052474303 L 557 397.769990624 L 561 402.759621542 L 565 392.576701301 L 569 388.294217622 L 572 398.341365593 L 576 390.687203879 L 580 388.933478726 L 584 388.865592591 L 588 393.855223509 L 592 381.986464251 L 596 395.405290257 L 600 391.965726087 L 604 392.740759461 L 608 395.201631852 L 612 388.390389647 L 616 403.49505467 L 620 389.940456394"/>
		</g>
		<text class="x-axis-label" x="40.0" y="540">0</text>
		<path class="x-notch" d="M 59.5945945946 525 L 59.5945945946 530"/>
		<text class="x-axis-label" x="79.1891891892" y="540">10</text>
		<path class="x-notch" d="M 98.7837837838 525 L 98.7837837838 530"/>
		<text class="x-axis-label" x="118.378378378" y="540">20</text>
		<path class="x-notch" d="M 137.972972973 525 L 137.972972973 530"/>
		<text class="x-axis-label" x="157.567567568" y="540">30</text>
		<path class="x-notch" d="M 177.162162162 525 L 177.162162162 530"/>
		<text class="x-axis-label" x="196.756756757" y="540">40</text>
		<path class="x-notch" d="M 216.351351351 525 L 216.351351351 530"/>
		<text class="x-axis-label" x="235.945945946" y="540">50</text>
		<path class="x-notch" d="M 255.540540541 525 L 255.540540541 530"/>
		<text class="x-axis-label" x="275.135135135" y="540">60</text>
		<path class="x-notch" d="M 294.72972973 525 L 294.72972973 530"/>
		<text class="x-axis-label" x="314.324324324" y="540">70</text>
		<path class="x-notch" d="M 333.918918919 525 L 333.918918919 530"/>
		<text class="x-axis-label" x="353.513513514" y="540">80</text>
		<path class="x-notch" d="M 373.108108108 525 L 373.108108108 530"/>
		<text class="x-axis-label" x="392.702702703" y="540">90</text>
		<path class="x-notch" d="M 412.297297297 525 L 412.297297297 530"/>
		<text class="x-axis-label" x="431.891891892" y="540">100</text>
		<path class="x-notch" d="M 451.486486486 525 L 451.486486486 530"/>
		<text class="x-axis-label" x="471.081081081" y="540">110</text>
		<path class="x-notch" d="M 490.675675676 525 L 490.675675676 530"/>
		<text class="x-axis-label" x="510.27027027" y="540">120</text>
		<path class="x-notch" d="M 529.864864865 525 L 529.864864865 530"/>
		<text class="x-axis-label" x="549.459459459" y="540">130</text>
		<path class="x-notch" d="M 569.054054054 525 L 569.054054054 530"/>
		<text class="x-axis-label" x="588.648648649" y="540">140</text>
		<path class="x-notch" d="M 608.243243243 525 L 608.243243243 530"/>
	</g>
</svg>
