<?xml version="1.0" ?>
<svg height="600" version="1.1" width="800" xmlns="http://www.w3.org/2000/svg" xmlns:svg="http://www.w3.org/2000/svg">
	<style type="text/css">

.x-axis-path, .y-gridline, .x-notch { fill:none; stroke: #a7a9ac; stroke-width:1; }



.y-gridline { stroke-width: 1; }

.y-axis-path, .y-axis-path2, .x-notch-left, .x-notch-right { display: none;}



.x-axis-label, .data-point-label {font-size: 12px; font-weight:normal; font-family: sans-serif; fill: #58595b; text-anchor:middle;}

.y-axis-label {font-size: 12px; font-family: helvetica; fill: #a7a9ac; text-anchor:end;}



.series-1-line { fill: none; stroke: #10b80c; stroke-width:2; }



.series-2-line { fill: none; stroke: #e90f0a; stroke-width: 2;}
</style>
	<rect fill="white" height="600" width="800" x="0" y="0"/>
	<g id="grid" transform="translate(70, 30)">
		<g class="x-axis" id="x_axis">
			<path class="x-axis-path" d="M 0 525 L 660 525"/>
			<path class="x-notch-left" d="M 0 525, L 0 535"/>
			<path class="x-notch-right" d="M 660 525, L 660 535"/>
		</g>
		<g class="y-axis" id="y_axis">
			<path class="y-axis-path" d="M 0 525 L 0 0"/>
			<path class="y-axis-path-2" d="M 660 525 L 660 0"/>
			<path class="y-gridline" d="M 0 525 L 660 525"/>
			<text class="y-axis-label" x="-5" y="525">-200</text>
			<path class="y-gridline" d="M 0 394 L 660 394"/>
			<text class="y-axis-label" x="-5" y="394"> 0</text>
			<path class="y-gridline" d="M 0 263 L 660 263"/>
			<text class="y-axis-label" x="-5" y="263">200</text>
			<path class="y-gridline" d="M 0 132 L 660 132"/>
			<text class="y-axis-label" x="-5" y="132">400</text>
			<path class="y-gridline" d="M 0 1 L 660 1"/>
			<text class="y-axis-label" x="-5" y="1">600</text>
		</g>
		<g>
			<path class="series-1-line" d="M 40 375.615997342 L 44 410.321345888 L 48 395.458144827 L 52 394.448778249 L 56 390.358420372 L 61 383.690270348 L 65 405.715261835 L 69 387.728890987 L 73 383.114735163 L 78 386.381090035 L 82 397.73786714 L 86 381.134885255 L 90 386.85347771 L 95 406.782623476 L 99 387.559670957 L 103 393.026827318 L 107 363.575755323 L 111 366.527896819 L 116 386.121576484 L 120 364.635045193 L 124 353.753951001 L 128 367.982134834 L 133 364.29002034 L 137 342.719786007 L 141 321.421913527 L 145 316.702801934 L 150 318.020118375 L 154 295.548441506 L 158 287.580605563 L 162 255.55174142 L 167 271.666186402 L 171 266.486054143 L 175 214.377941706 L 179 235.606446426 L 183 177.315425629 L 188 198.900322211 L 192 187.600058875 L 196 154.02007272 L 200 168.080523502 L 205 141.689517046 L 209 182.263560575 L 213 180.415855709 L 217 109.234893281 L 222 132.559243722 L 226 99.9853289062 L 230 89.4606265764 L 234 94.1103704102 L 238 24.7738176099 L 243 52.1433791677 L 247 75.0067089429 L 251 52.6399878423 L 255 65.9039518577 L 260 125.488068096 L 264 61.6638184171 L 268 84.8835400544 L 272 66.8762434464 L 277 109.357473886 L 281 29.8137273698 L 285 52.6561313844 L 289 102.221712718 L 294 0.0 L 298 45.1221268337 L 302 130.737562428 L 306 66.2636332721 L 310 50.2684793422 L 315 76.9674356623 L 319 155.43574308 L 323 100.057980532 L 327 159.830755581 L 332 142.787678791 L 336 160.138705444 L 340 172.37567236 L 344 207.856581912 L 349 213.323738274 L 353 206.571558242 L 357 216.691753676 L 361 259.969470882 L 365 260.804513932 L 370 258.873106023 L 374 269.454322122 L 378 274.062214435 L 382 297.533372166 L 387 285.185185969 L 391 287.990520175 L 395 311.063434523 L 399 334.11542311 L 404 314.263716874 L 408 309.272243427 L 412 301.660799345 L 416 339.845382574 L 421 325.086810316 L 425 340.5097243 L 429 332.541888356 L 433 345.554416278 L 437 328.783701342 L 442 341.146549787 L 446 348.269456964 L 450 347.427823437 L 454 341.786670513 L 459 346.68785044 L 463 350.93935089 L 467 359.466572791 L 471 361.265835658 L 476 369.143378081 L 480 362.999026004 L 484 375.340948689 L 488 381.080466904 L 492 369.423811706 L 497 384.888577211 L 501 391.361804912 L 505 398.421934807 L 509 391.879339347 L 514 388.501765194 L 518 394.3880907 L 522 386.210670184 L 526 389.980224208 L 531 384.485551609 L 535 396.010061765 L 539 389.865709689 L 543 378.816882446 L 548 399.41663345 L 552 383.736019861 L 556 386.562279828 L 560 387.816492022 L 564 397.559369833 L 569 403.047451955 L 573 405.454542778 L 577 392.247092532 L 581 391.9923612 L 586 377.90439418 L 590 376.811324559 L 594 394.141425452 L 598 378.544514906 L 603 399.773019626 L 607 387.466684951 L 611 390.062434585 L 615 392.448599647 L 620 402.820231175"/>
			<path class="series-2-line" d="M 40 391.788209934 L 44 389.340710974 L 48 404.876287623 L 52 395.072075914 L 56 387.720101789 L 61 399.986028327 L 65 399.173354423 L 69 391.821380297 L 73 402.45248178 L 78 395.100507654 L 82 400.827133971 L 86 400.831872595 L 90 393.479898469 L 95 400.841349841 L 99 395.124200771 L 103 395.128939394 L 107 391.04661538 L 111 400.860304335 L 116 396.77798032 L 120 393.513068833 L 124 393.517807456 L 128 397.609608718 L 133 391.892459647 L 137 401.706148603 L 141 400.893474698 L 145 395.993738156 L 150 405.807427111 L 154 396.82062793 L 158 388.651241277 L 162 404.186817926 L 167 400.921906438 L 171 404.196295172 L 175 396.026908519 L 179 391.944584504 L 183 391.949323127 L 188 396.041124389 L 192 397.680688068 L 196 400.137664274 L 200 398.507577842 L 205 395.242666355 L 209 401.7867052 L 213 395.252143602 L 217 397.709119808 L 222 385.452670516 L 226 390.361884306 L 230 398.540748206 L 234 398.545486829 L 238 400.185050508 L 243 394.467901437 L 247 390.385577422 L 251 396.929616267 L 255 392.029879724 L 260 397.756506041 L 264 400.213482248 L 268 404.305283509 L 272 400.222959494 L 277 396.140635479 L 281 396.145374103 L 285 395.332700198 L 289 401.876739043 L 294 401.064065139 L 298 399.433978707 L 302 392.899417109 L 306 401.078281009 L 310 401.90043216 L 315 405.174820894 L 319 397.822846768 L 323 389.653460115 L 327 397.832324015 L 332 402.741537804 L 336 397.841801262 L 340 393.759477247 L 344 397.851278508 L 349 397.856017132 L 353 391.321455534 L 357 398.682906906 L 361 397.870233002 L 365 387.248608765 L 370 393.79264761 L 374 392.979973706 L 378 399.524012551 L 382 396.259101063 L 387 401.98572738 L 391 402.807878531 L 395 397.908141989 L 399 396.278055557 L 404 393.013144069 L 408 398.739770386 L 412 398.74450901 L 416 395.479597522 L 421 394.666923618 L 425 403.663200046 L 429 395.493813392 L 433 397.950789599 L 437 392.233640528 L 442 400.412504428 L 446 397.147592941 L 450 393.065268926 L 454 404.513782937 L 459 397.161808811 L 463 395.531722379 L 467 396.35387353 L 471 394.723787098 L 476 401.267825943 L 480 395.550676873 L 484 406.999190883 L 488 396.377566647 L 492 389.843005049 L 497 392.299981255 L 501 394.756957462 L 505 401.300996306 L 509 393.949022181 L 514 402.945298608 L 518 401.315212176 L 522 393.963238051 L 526 403.776927006 L 531 392.337890242 L 535 403.786404253 L 539 398.069255182 L 543 392.352106112 L 548 390.72201968 L 552 406.257596329 L 556 403.810097369 L 560 391.553648078 L 564 394.010624284 L 569 390.745712797 L 573 389.933038893 L 577 402.198965431 L 581 402.203704054 L 586 392.399492346 L 590 395.67388108 L 594 394.043794648 L 598 396.500770854 L 603 392.418446839 L 607 391.605772935 L 611 393.245336613 L 615 395.70231282 L 620 395.707051443"/>
		</g>
		<text class="x-axis-label" x="40.0" y="540">0</text>
		<path class="x-notch" d="M 61.1678832117 525 L 61.1678832117 530"/>
		<text class="x-axis-label" x="82.3357664234" y="540">10</text>
		<path class="x-notch" d="M 103.503649635 525 L 103.503649635 530"/>
		<text class="x-axis-label" x="124.671532847" y="540">20</text>
		<path class="x-notch" d="M 145.839416058 525 L 145.839416058 530"/>
		<text class="x-axis-label" x="167.00729927" y="540">30</text>
		<path class="x-notch" d="M 188.175182482 525 L 188.175182482 530"/>
		<text class="x-axis-label" x="209.343065693" y="540">40</text>
		<path class="x-notch" d="M 230.510948905 525 L 230.510948905 530"/>
		<text class="x-axis-label" x="251.678832117" y="540">50</text>
		<path class="x-notch" d="M 272.846715328 525 L 272.846715328 530"/>
		<text class="x-axis-label" x="294.01459854" y="540">60</text>
		<path class="x-notch" d="M 315.182481752 525 L 315.182481752 530"/>
		<text class="x-axis-label" x="336.350364964" y="540">70</text>
		<path class="x-notch" d="M 357.518248175 525 L 357.518248175 530"/>
		<text class="x-axis-label" x="378.686131387" y="540">80</text>
		<path class="x-notch" d="M 399.854014599 525 L 399.854014599 530"/>
		<text class="x-axis-label" x="421.02189781" y="540">90</text>
		<path class="x-notch" d="M 442.189781022 525 L 442.189781022 530"/>
		<text class="x-axis-label" x="463.357664234" y="540">100</text>
		<path class="x-notch" d="M 484.525547445 525 L 484.525547445 530"/>
		<text class="x-axis-label" x="505.693430657" y="540">110</text>
		<path class="x-notch" d="M 526.861313869 525 L 526.861313869 530"/>
		<text class="x-axis-label" x="548.02919708" y="540">120</text>
		<path class="x-notch" d="M 569.197080292 525 L 569.197080292 530"/>
		<text class="x-axis-label" x="590.364963504" y="540">130</text>
		<path class="x-notch" d="M 611.532846715 525 L 611.532846715 530"/>
	</g>
</svg>
