<?xml version="1.0" ?>
<svg height="600" version="1.1" width="800" xmlns="http://www.w3.org/2000/svg" xmlns:svg="http://www.w3.org/2000/svg">
	<style type="text/css">

.x-axis-path, .y-gridline, .x-notch { fill:none; stroke: #a7a9ac; stroke-width:1; }



.y-gridline { stroke-width: 1; }

.y-axis-path, .y-axis-path2, .x-notch-left, .x-notch-right { display: none;}



.x-axis-label, .data-point-label {font-size: 12px; font-weight:normal; font-family: sans-serif; fill: #58595b; text-anchor:middle;}

.y-axis-label {font-size: 12px; font-family: helvetica; fill: #a7a9ac; text-anchor:end;}



.series-1-line { fill: none; stroke: #10b80c; stroke-width:2; }



.series-2-line { fill: none; stroke: #e90f0a; stroke-width: 2;}
</style>
	<rect fill="white" height="600" width="800" x="0" y="0"/>
	<g id="grid" transform="translate(70, 30)">
		<g class="x-axis" id="x_axis">
			<path class="x-axis-path" d="M 0 525 L 660 525"/>
			<path class="x-notch-left" d="M 0 525, L 0 535"/>
			<path class="x-notch-right" d="M 660 525, L 660 535"/>
		</g>
		<g class="y-axis" id="y_axis">
			<path class="y-axis-path" d="M 0 525 L 0 0"/>
			<path class="y-axis-path-2" d="M 660 525 L 660 0"/>
			<path class="y-gridline" d="M 0 525 L 660 525"/>
			<text class="y-axis-label" x="-5" y="525">-200</text>
			<path class="y-gridline" d="M 0 394 L 660 394"/>
			<text class="y-axis-label" x="-5" y="394"> 0</text>
			<path class="y-gridline" d="M 0 263 L 660 263"/>
			<text class="y-axis-label" x="-5" y="263">200</text>
			<path class="y-gridline" d="M 0 132 L 660 132"/>
			<text class="y-axis-label" x="-5" y="132">400</text>
			<path class="y-gridline" d="M 0 1 L 660 1"/>
			<text class="y-axis-label" x="-5" y="1">600</text>
		</g>
		<g>
			<path class="series-1-line" d="M 40 369.484196718 L 43 388.671003471 L 47 407.403704777 L 51 401.604899325 L 55 401.606977505 L 59 375.01581207 L 63 358.314114726 L 67 367.262015703 L 71 394.136996674 L 75 359.683210751 L 79 345.742125634 L 83 391.697167417 L 87 373.702387094 L 91 381.846744939 L 95 390.025992038 L 99 398.240128391 L 103 385.557236999 L 107 388.354816659 L 111 393.843230039 L 114 369.908009069 L 118 363.445217501 L 122 377.495126739 L 126 343.705326932 L 130 341.331119824 L 134 359.015508075 L 138 372.331652689 L 142 325.612113386 L 146 344.100044769 L 150 341.376399976 L 154 345.781611046 L 158 336.558207251 L 162 316.816238503 L 166 335.479161301 L 170 304.205203798 L 174 281.457852899 L 178 309.346257672 L 182 270.803887289 L 185 262.314248118 L 189 238.798243341 L 193 232.684889459 L 197 210.531746168 L 201 262.077790914 L 205 284.165312055 L 209 177.899083538 L 213 205.403161372 L 217 154.315378433 L 221 217.323633425 L 225 208.903772762 L 229 228.26557093 L 233 162.221200893 L 237 168.898029489 L 241 158.451321224 L 245 127.177363721 L 249 131.512796283 L 253 105.620506218 L 257 87.5559473876 L 260 112.788407695 L 264 135.644582715 L 268 119.32721231 L 272 144.175345679 L 276 86.6575822463 L 280 103.957643558 L 284 67.5816777938 L 288 0.0 L 292 148.204542528 L 296 122.97623858 L 300 34.7417578188 L 304 84.5406141385 L 308 69.1668890269 L 312 108.72683957 L 316 81.8211257042 L 320 153.74031424 L 324 128.861447976 L 328 137.355243506 L 331 137.461989448 L 335 154.796940014 L 339 129.848295242 L 343 56.5355123251 L 347 189.81835701 L 351 83.2026908072 L 355 141.074048284 L 359 176.615192876 L 363 122.731908456 L 367 106.030211112 L 371 111.798283669 L 375 192.698184256 L 379 175.192943779 L 383 166.004429238 L 387 159.436969908 L 391 205.63623647 L 395 184.426738473 L 399 162.937581298 L 402 174.22687831 L 406 160.880000801 L 410 188.90796259 L 414 232.83615677 L 418 231.894589656 L 422 200.515964391 L 426 240.635233289 L 430 210.374699587 L 434 254.617442199 L 438 262.72691079 L 442 265.52449045 L 446 294.076881339 L 450 269.652120523 L 454 274.441658533 L 458 245.054991617 L 462 276.12322481 L 466 277.837602161 L 470 238.281807977 L 474 249.221667303 L 477 324.880002613 L 481 340.537543261 L 485 338.75754376 L 489 383.76894025 L 493 354.486941096 L 497 386.114492643 L 501 334.397612842 L 505 363.998316787 L 509 377.943558263 L 513 395.802392784 L 517 390.213468001 L 521 369.597632467 L 525 334.095533489 L 529 365.23354519 L 533 381.135855761 L 537 401.476188477 L 541 386.242020381 L 545 366.675043048 L 548 398.477040865 L 552 394.006207646 L 556 392.400654416 L 560 392.682391773 L 564 379.405292772 L 568 384.858816898 L 572 379.374559877 L 576 394.507671425 L 580 386.5075721 L 584 378.681919045 L 588 371.030712261 L 592 404.685111411 L 596 372.293062345 L 600 402.278093228 L 604 392.076154886 L 608 382.468424152 L 612 403.297751569 L 616 385.16341423 L 620 405.71308247"/>
			<path class="series-2-line" d="M 40 405.470608784 L 43 389.151263335 L 47 390.549117211 L 51 391.946971087 L 55 391.981963477 L 59 394.74267884 L 63 396.140532716 L 67 382.54691024 L 71 389.396210062 L 75 396.245509884 L 79 392.191917814 L 83 399.041217636 L 87 389.53617962 L 91 395.022617956 L 95 395.057610345 L 99 389.641156789 L 103 401.941902557 L 107 391.074003054 L 111 385.657549497 L 114 399.321156752 L 118 397.993287655 L 122 385.762526666 L 126 395.337549461 L 130 394.009680364 L 134 399.4961187 L 138 395.44252663 L 142 402.291826452 L 146 388.698203976 L 150 388.733196366 L 154 392.856773215 L 158 396.980350064 L 162 394.28961948 L 166 406.590365249 L 170 395.722465746 L 174 383.491704757 L 178 391.703866065 L 182 398.553165888 L 185 394.499573818 L 189 395.897427694 L 193 393.20669711 L 197 394.604550986 L 201 379.648067024 L 205 389.223089819 L 209 383.806636262 L 213 398.833105004 L 217 396.14237442 L 221 400.265951269 L 225 385.309467307 L 229 394.884490102 L 233 386.742313573 L 237 408.583089747 L 241 390.900882811 L 245 380.032983308 L 249 395.05945205 L 253 395.094444439 L 257 396.492298316 L 260 393.801567732 L 264 389.747975662 L 268 384.331522105 L 272 388.455098954 L 276 378.950060938 L 280 391.250806706 L 284 379.020045717 L 288 398.135098918 L 292 399.532952794 L 296 402.293668157 L 300 400.96579906 L 304 392.82362253 L 308 399.672922352 L 312 394.256468796 L 316 392.928599699 L 320 388.875007629 L 324 390.272861505 L 328 394.396438354 L 331 378.077092905 L 335 384.926392727 L 339 397.227138495 L 343 406.802161291 L 347 397.297123274 L 351 393.243531204 L 355 401.455692513 L 359 385.136347064 L 363 393.348508373 L 367 394.746362249 L 371 398.869939098 L 375 375.736286216 L 379 396.214200904 L 383 394.886331807 L 387 409.912800549 L 391 378.601978747 L 395 392.265586002 L 399 396.389162852 L 402 389.609847808 L 406 399.184870604 L 410 385.591248128 L 414 389.714824977 L 418 377.484063988 L 422 382.970502323 L 426 396.634109578 L 430 387.129071562 L 434 395.341232871 L 438 406.279117153 L 442 395.41121765 L 446 406.349101932 L 450 390.029756483 L 454 387.339025899 L 458 401.002633154 L 462 391.497595138 L 466 390.169726041 L 470 395.656164376 L 474 390.23971082 L 477 387.548980236 L 481 390.309695599 L 485 402.610441367 L 489 397.193987811 L 493 394.503257227 L 497 404.078280022 L 501 393.21038052 L 505 400.059680342 L 509 404.183257191 L 513 382.412465796 L 517 404.25324197 L 521 378.393866115 L 525 389.331750397 L 529 368.923820488 L 533 386.676012203 L 537 403.065342431 L 541 388.108858469 L 545 411.312496129 L 548 393.630289194 L 552 400.479589016 L 556 385.523105053 L 560 395.098127849 L 564 393.770258752 L 568 393.805251141 L 572 399.291689477 L 576 377.520898082 L 580 403.450258716 L 584 402.122389619 L 588 373.537290791 L 592 385.838036559 L 596 389.961613408 L 600 389.996605798 L 604 387.305875214 L 608 398.243759496 L 612 391.464444453 L 616 403.765190221 L 620 387.445844772"/>
		</g>
		<text class="x-axis-label" x="40.0" y="540">0</text>
		<path class="x-notch" d="M 59.7278911565 525 L 59.7278911565 530"/>
		<text class="x-axis-label" x="79.4557823129" y="540">10</text>
		<path class="x-notch" d="M 99.1836734694 525 L 99.1836734694 530"/>
		<text class="x-axis-label" x="118.911564626" y="540">20</text>
		<path class="x-notch" d="M 138.639455782 525 L 138.639455782 530"/>
		<text class="x-axis-label" x="158.367346939" y="540">30</text>
		<path class="x-notch" d="M 178.095238095 525 L 178.095238095 530"/>
		<text class="x-axis-label" x="197.823129252" y="540">40</text>
		<path class="x-notch" d="M 217.551020408 525 L 217.551020408 530"/>
		<text class="x-axis-label" x="237.278911565" y="540">50</text>
		<path class="x-notch" d="M 257.006802721 525 L 257.006802721 530"/>
		<text class="x-axis-label" x="276.734693878" y="540">60</text>
		<path class="x-notch" d="M 296.462585034 525 L 296.462585034 530"/>
		<text class="x-axis-label" x="316.19047619" y="540">70</text>
		<path class="x-notch" d="M 335.918367347 525 L 335.918367347 530"/>
		<text class="x-axis-label" x="355.646258503" y="540">80</text>
		<path class="x-notch" d="M 375.37414966 525 L 375.37414966 530"/>
		<text class="x-axis-label" x="395.102040816" y="540">90</text>
		<path class="x-notch" d="M 414.829931973 525 L 414.829931973 530"/>
		<text class="x-axis-label" x="434.557823129" y="540">100</text>
		<path class="x-notch" d="M 454.285714286 525 L 454.285714286 530"/>
		<text class="x-axis-label" x="474.013605442" y="540">110</text>
		<path class="x-notch" d="M 493.741496599 525 L 493.741496599 530"/>
		<text class="x-axis-label" x="513.469387755" y="540">120</text>
		<path class="x-notch" d="M 533.197278912 525 L 533.197278912 530"/>
		<text class="x-axis-label" x="552.925170068" y="540">130</text>
		<path class="x-notch" d="M 572.653061224 525 L 572.653061224 530"/>
		<text class="x-axis-label" x="592.380952381" y="540">140</text>
		<path class="x-notch" d="M 612.108843537 525 L 612.108843537 530"/>
	</g>
</svg>
