<?xml version="1.0" ?>
<svg height="600" version="1.1" width="800" xmlns="http://www.w3.org/2000/svg" xmlns:svg="http://www.w3.org/2000/svg">
	<style type="text/css">

.x-axis-path, .y-gridline, .x-notch { fill:none; stroke: #a7a9ac; stroke-width:1; }



.y-gridline { stroke-width: 1; }

.y-axis-path, .y-axis-path2, .x-notch-left, .x-notch-right { display: none;}



.x-axis-label, .data-point-label {font-size: 12px; font-weight:normal; font-family: sans-serif; fill: #58595b; text-anchor:middle;}

.y-axis-label {font-size: 12px; font-family: helvetica; fill: #a7a9ac; text-anchor:end;}



.series-1-line { fill: none; stroke: #10b80c; stroke-width:2; }



.series-2-line { fill: none; stroke: #e90f0a; stroke-width: 2;}
</style>
	<rect fill="white" height="600" width="800" x="0" y="0"/>
	<g id="grid" transform="translate(70, 30)">
		<g class="x-axis" id="x_axis">
			<path class="x-axis-path" d="M 0 525 L 660 525"/>
			<path class="x-notch-left" d="M 0 525, L 0 535"/>
			<path class="x-notch-right" d="M 660 525, L 660 535"/>
		</g>
		<g class="y-axis" id="y_axis">
			<path class="y-axis-path" d="M 0 525 L 0 0"/>
			<path class="y-axis-path-2" d="M 660 525 L 660 0"/>
			<path class="y-gridline" d="M 0 525 L 660 525"/>
			<text class="y-axis-label" x="-5" y="525">-200</text>
			<path class="y-gridline" d="M 0 394 L 660 394"/>
			<text class="y-axis-label" x="-5" y="394"> 0</text>
			<path class="y-gridline" d="M 0 263 L 660 263"/>
			<text class="y-axis-label" x="-5" y="263">200</text>
			<path class="y-gridline" d="M 0 132 L 660 132"/>
			<text class="y-axis-label" x="-5" y="132">400</text>
			<path class="y-gridline" d="M 0 1 L 660 1"/>
			<text class="y-axis-label" x="-5" y="1">600</text>
		</g>
		<g>
			<path class="series-1-line" d="M 40 405.097620849 L 44 389.941035906 L 49 405.297652906 L 53 361.911426837 L 58 399.706699812 L 63 363.892966399 L 67 408.592775293 L 72 391.209088816 L 76 377.444876634 L 81 364.73862454 L 86 376.085763896 L 90 389.548823429 L 95 384.080651321 L 99 379.614848624 L 104 398.42329928 L 109 340.672094596 L 113 357.364625074 L 118 331.12812314 L 122 353.166044741 L 127 350.8717529 L 132 320.570182644 L 136 274.122126267 L 141 320.269029995 L 145 337.963929884 L 150 304.656119999 L 155 261.214303251 L 159 290.267942126 L 164 189.142111002 L 168 230.278036279 L 173 297.527682504 L 178 253.863503045 L 182 147.392280798 L 187 255.845042608 L 191 207.447838087 L 196 236.000292256 L 201 143.504913878 L 205 177.068346498 L 210 188.304304497 L 214 174.094498287 L 219 168.013960118 L 224 170.619465372 L 228 201.399021074 L 233 170.262722045 L 237 119.137231285 L 242 167.455645868 L 247 125.962977265 L 251 65.0378923146 L 256 81.7304227928 L 260 92.5207867647 L 265 119.402914783 L 270 33.0320656233 L 274 143.099562905 L 279 71.7625177026 L 283 148.75616744 L 288 110.15855711 L 293 121.227743076 L 297 69.0998829049 L 302 124.935199467 L 306 99.1998822386 L 311 82.2061991115 L 316 106.526812924 L 320 0.0 L 325 73.2074034094 L 330 36.1689378737 L 334 43.618649545 L 339 64.1530170295 L 343 23.2171238096 L 348 73.5958678932 L 353 110.33318078 L 357 218.785942589 L 362 147.950082092 L 366 172.827471289 L 371 221.5914799 L 376 203.539836684 L 380 117.113396846 L 385 194.552640611 L 389 149.218135002 L 394 199.763651119 L 399 164.339921056 L 403 186.990208718 L 408 215.208250215 L 412 181.121302235 L 417 264.183890513 L 422 187.000269482 L 426 252.969592907 L 431 265.987058412 L 435 260.35211427 L 440 250.986514478 L 445 280.206925386 L 449 305.641089966 L 454 324.003946594 L 458 372.155589144 L 463 409.449677414 L 468 390.228892753 L 472 407.032604587 L 477 389.426555399 L 481 418.646966307 L 486 404.938344803 L 491 406.485889968 L 495 401.908905915 L 500 419.71498716 L 504 397.932688293 L 509 413.456077327 L 514 379.53590138 L 518 408.31071826 L 523 397.998339735 L 527 397.152011332 L 532 421.027031117 L 537 382.875014815 L 541 406.47208121 L 546 422.719017661 L 550 414.466968635 L 555 403.987818076 L 560 409.878384953 L 564 406.470542344 L 569 392.038373423 L 573 400.100451156 L 578 394.632279047 L 583 391.168845761 L 587 352.460054075 L 592 402.838798159 L 596 393.528789044 L 601 393.907192764 L 606 388.940205361 L 610 403.795637655 L 615 398.383056225 L 620 393.917253528"/>
			<path class="series-2-line" d="M 40 402.001741252 L 44 373.755001615 L 49 412.825098511 L 53 384.578358873 L 58 395.418814642 L 63 371.515096716 L 67 406.2421719 L 72 386.681475686 L 76 395.350420599 L 81 408.362387224 L 86 395.316223578 L 90 390.956103355 L 95 375.738428854 L 99 373.549819487 L 104 382.2187644 L 109 393.059220169 L 113 393.042121658 L 118 399.539555715 L 122 412.55152234 L 127 410.362912973 L 132 373.430129912 L 136 399.471161672 L 141 377.738954603 L 145 390.750921227 L 150 399.41986614 L 155 379.859169927 L 159 399.385669119 L 164 401.540081464 L 168 399.351472098 L 173 388.476819307 L 178 403.660296788 L 182 392.785643998 L 187 390.597034631 L 191 381.893892697 L 196 394.905859322 L 201 405.746315091 L 205 399.214684012 L 210 403.540607213 L 214 397.008976135 L 219 392.648855912 L 224 388.28873569 L 228 392.614658891 L 233 401.283603804 L 237 394.751972726 L 242 373.019765656 L 247 388.203243137 L 251 386.01463377 L 256 385.997535259 L 260 375.122882469 L 265 394.649381662 L 270 381.603218016 L 274 381.586119505 L 279 394.59808613 L 283 388.066455051 L 288 375.020291405 L 293 405.404344877 L 297 385.843648663 L 302 377.140506729 L 306 390.152473354 L 311 394.478396555 L 316 390.118276332 L 320 387.929666966 L 325 379.226525032 L 330 377.037915665 L 334 379.19232801 L 339 372.660696932 L 343 385.672663556 L 348 381.312543334 L 353 387.809977391 L 357 385.621368024 L 362 405.147867217 L 366 398.616236138 L 371 392.08460506 L 376 392.067506549 L 380 387.707386327 L 385 396.37633124 L 389 418.074341288 L 394 387.656090795 L 399 387.638992284 L 403 389.793404629 L 408 370.232708416 L 412 415.817337879 L 417 394.085130809 L 422 387.553499731 L 426 407.079998923 L 431 387.51930271 L 435 398.359758478 L 440 398.342659968 L 445 391.811028889 L 449 383.107886955 L 454 376.576255877 L 458 380.902179078 L 463 385.228102279 L 468 398.240068904 L 472 380.850883546 L 477 396.034361026 L 481 389.502729948 L 486 389.485631437 L 491 380.782489503 L 495 395.965966984 L 500 391.605846761 L 504 380.731193971 L 509 393.743160596 L 514 413.269659788 L 518 391.537452718 L 523 369.805245649 L 527 395.846277409 L 532 376.285581195 L 537 378.43999354 L 541 402.309514445 L 546 387.091839943 L 550 382.73171972 L 555 387.057642921 L 560 378.354500987 L 564 380.508913332 L 569 408.721455948 L 573 400.018314014 L 578 384.800639512 L 583 395.641095281 L 587 399.967018482 L 592 395.606898259 L 596 386.903756325 L 601 391.229679526 L 606 382.526537592 L 610 415.08210192 L 615 391.178383994 L 620 388.989774628"/>
		</g>
		<text class="x-axis-label" x="40.0" y="540">0</text>
		<path class="x-notch" d="M 63.0158730159 525 L 63.0158730159 530"/>
		<text class="x-axis-label" x="86.0317460317" y="540">10</text>
		<path class="x-notch" d="M 109.047619048 525 L 109.047619048 530"/>
		<text class="x-axis-label" x="132.063492063" y="540">20</text>
		<path class="x-notch" d="M 155.079365079 525 L 155.079365079 530"/>
		<text class="x-axis-label" x="178.095238095" y="540">30</text>
		<path class="x-notch" d="M 201.111111111 525 L 201.111111111 530"/>
		<text class="x-axis-label" x="224.126984127" y="540">40</text>
		<path class="x-notch" d="M 247.142857143 525 L 247.142857143 530"/>
		<text class="x-axis-label" x="270.158730159" y="540">50</text>
		<path class="x-notch" d="M 293.174603175 525 L 293.174603175 530"/>
		<text class="x-axis-label" x="316.19047619" y="540">60</text>
		<path class="x-notch" d="M 339.206349206 525 L 339.206349206 530"/>
		<text class="x-axis-label" x="362.222222222" y="540">70</text>
		<path class="x-notch" d="M 385.238095238 525 L 385.238095238 530"/>
		<text class="x-axis-label" x="408.253968254" y="540">80</text>
		<path class="x-notch" d="M 431.26984127 525 L 431.26984127 530"/>
		<text class="x-axis-label" x="454.285714286" y="540">90</text>
		<path class="x-notch" d="M 477.301587302 525 L 477.301587302 530"/>
		<text class="x-axis-label" x="500.317460317" y="540">100</text>
		<path class="x-notch" d="M 523.333333333 525 L 523.333333333 530"/>
		<text class="x-axis-label" x="546.349206349" y="540">110</text>
		<path class="x-notch" d="M 569.365079365 525 L 569.365079365 530"/>
		<text class="x-axis-label" x="592.380952381" y="540">120</text>
		<path class="x-notch" d="M 615.396825397 525 L 615.396825397 530"/>
	</g>
</svg>
