<?xml version="1.0" ?>
<svg height="600" version="1.1" width="800" xmlns="http://www.w3.org/2000/svg" xmlns:svg="http://www.w3.org/2000/svg">
	<style type="text/css">

.x-axis-path, .y-gridline, .x-notch { fill:none; stroke: #a7a9ac; stroke-width:1; }



.y-gridline { stroke-width: 1; }

.y-axis-path, .y-axis-path2, .x-notch-left, .x-notch-right { display: none;}



.x-axis-label, .data-point-label {font-size: 12px; font-weight:normal; font-family: sans-serif; fill: #58595b; text-anchor:middle;}

.y-axis-label {font-size: 12px; font-family: helvetica; fill: #a7a9ac; text-anchor:end;}



.series-1-line { fill: none; stroke: #10b80c; stroke-width:2; }



.series-2-line { fill: none; stroke: #e90f0a; stroke-width: 2;}
</style>
	<rect fill="white" height="600" width="800" x="0" y="0"/>
	<g id="grid" transform="translate(70, 30)">
		<g class="x-axis" id="x_axis">
			<path class="x-axis-path" d="M 0 525 L 660 525"/>
			<path class="x-notch-left" d="M 0 525, L 0 535"/>
			<path class="x-notch-right" d="M 660 525, L 660 535"/>
		</g>
		<g class="y-axis" id="y_axis">
			<path class="y-axis-path" d="M 0 525 L 0 0"/>
			<path class="y-axis-path-2" d="M 660 525 L 660 0"/>
			<path class="y-gridline" d="M 0 525 L 660 525"/>
			<text class="y-axis-label" x="-5" y="525">-200</text>
			<path class="y-gridline" d="M 0 394 L 660 394"/>
			<text class="y-axis-label" x="-5" y="394"> 0</text>
			<path class="y-gridline" d="M 0 263 L 660 263"/>
			<text class="y-axis-label" x="-5" y="263">200</text>
			<path class="y-gridline" d="M 0 132 L 660 132"/>
			<text class="y-axis-label" x="-5" y="132">400</text>
			<path class="y-gridline" d="M 0 1 L 660 1"/>
			<text class="y-axis-label" x="-5" y="1">600</text>
		</g>
		<g>
			<path class="series-1-line" d="M 40 392.167250175 L 44 403.524273202 L 48 410.148285948 L 52 377.546139601 L 56 384.965189392 L 60 387.840832832 L 64 379.660381619 L 68 396.961871822 L 72 378.444757695 L 76 408.013799445 L 80 385.672710706 L 84 392.069316868 L 88 399.791378548 L 92 402.629219336 L 96 382.748847037 L 100 359.385314669 L 104 390.582823827 L 108 384.446669206 L 112 386.905892797 L 116 360.020807041 L 120 372.43807635 L 124 379.478508945 L 128 338.773600206 L 132 382.011254327 L 136 385.265514963 L 140 369.285313248 L 144 387.0032233 L 148 374.354971043 L 152 390.634017617 L 156 381.658529359 L 160 378.816521542 L 164 361.359653696 L 168 356.51115194 L 172 369.685655642 L 176 360.558366106 L 180 371.877586481 L 184 365.893233137 L 188 358.470016316 L 192 351.841836539 L 196 342.563336392 L 200 355.39702555 L 204 374.175181884 L 208 376.785616087 L 212 363.417932091 L 216 334.677563008 L 220 309.799561856 L 224 326.79804017 L 228 268.789557712 L 232 289.763811915 L 236 245.045324633 L 240 234.290158355 L 244 228.078398427 L 248 155.227649357 L 252 144.548088385 L 256 137.087068911 L 260 124.514421959 L 264 153.97005575 L 268 139.504322818 L 272 129.847205475 L 276 54.1565321027 L 280 87.3605351997 L 284 42.2256280685 L 288 83.2293816674 L 292 30.0673174503 L 296 49.9057200659 L 300 0.0 L 304 38.7698530765 L 308 45.3560631696 L 312 34.2222796954 L 316 58.2632741187 L 320 52.6197353181 L 324 38.6082248886 L 328 100.550513553 L 332 135.609799977 L 336 102.363827196 L 340 84.6039474607 L 344 100.353166227 L 348 132.080503194 L 352 57.5256814093 L 356 33.4427173026 L 360 20.4158478489 L 364 38.436769791 L 368 51.0052497124 L 372 30.3676430216 L 376 26.2385730046 L 380 55.0125777097 L 384 159.058752423 L 388 104.003602226 L 392 132.02037254 L 396 133.835769698 L 400 120.165073812 L 404 140.382093623 L 408 135.533591867 L 412 136.250940091 L 416 150.144875531 L 420 128.787837101 L 424 187.398176309 L 428 265.091176589 L 432 363.079476168 L 436 358.155369106 L 440 359.970766264 L 444 362.959817663 L 448 395.747400911 L 452 371.740042111 L 456 399.302589922 L 460 389.380263342 L 464 378.208677214 L 468 378.320001658 L 472 386.307272576 L 476 409.439821996 L 480 389.59725235 L 484 393.94956192 L 488 411.705274625 L 492 375.354758972 L 496 376.488527044 L 500 389.738636052 L 504 397.877117581 L 508 387.727975083 L 512 378.108660392 L 516 384.732673138 L 520 396.165301472 L 524 405.32622663 L 528 381.243262524 L 532 406.079293992 L 536 387.486574559 L 540 396.306685174 L 544 394.449318332 L 548 391.456099903 L 552 405.463443302 L 556 382.932750632 L 560 399.477006443 L 564 374.674610598 L 568 399.73804865 L 572 376.790936131 L 576 392.274945661 L 580 394.165948125 L 584 400.714355565 L 588 401.431703789 L 592 387.420193359 L 596 402.109165844 L 600 398.055701133 L 604 395.781914442 L 608 382.376427793 L 612 387.826786298 L 616 402.969981285 L 620 400.393182704"/>
			<path class="series-2-line" d="M 40 387.252669025 L 44 394.625885527 L 48 391.662439114 L 52 403.465654007 L 56 391.642210811 L 60 397.538761182 L 64 400.481979291 L 68 401.94853127 L 72 404.89174938 L 76 393.068306184 L 80 416.684850122 L 84 391.57141175 L 88 390.084631468 L 92 401.887846361 L 96 387.111070903 L 100 397.437619666 L 104 419.577497473 L 108 391.51072684 L 112 404.790607864 L 116 388.537166276 L 120 403.29371343 L 124 392.946936365 L 128 401.796818997 L 132 388.49670967 L 136 392.91659391 L 140 403.243142673 L 144 397.326363999 L 148 406.176246631 L 152 394.352803434 L 156 406.156018327 L 160 382.519246086 L 164 392.845794849 L 168 394.312346828 L 172 406.115561721 L 176 383.95545561 L 180 397.235336634 L 184 403.131887005 L 188 403.121772854 L 192 394.251661918 L 196 395.718213897 L 200 403.091430399 L 204 404.557982378 L 208 394.211205312 L 212 400.107755683 L 216 385.330980225 L 220 401.56419351 L 224 392.694082575 L 228 394.160634554 L 232 398.580518794 L 236 400.047070773 L 240 401.513622752 L 244 385.260181164 L 248 398.540062188 L 252 388.193285122 L 256 394.089835493 L 260 391.12638908 L 264 397.022939451 L 268 401.442823691 L 272 404.386041801 L 276 399.945929258 L 280 396.982482845 L 284 405.832365477 L 288 395.485588411 L 292 389.568809737 L 296 398.418692369 L 300 402.838576609 L 304 395.445131805 L 308 398.388349914 L 312 401.331568024 L 316 388.031458697 L 320 398.35800746 L 324 389.487896524 L 328 395.384446895 L 332 390.944334352 L 336 387.980887939 L 340 387.970773787 L 344 401.250654811 L 348 398.287208399 L 352 389.417097463 L 356 396.790313965 L 360 407.116862727 L 364 411.536746968 L 368 402.666636032 L 372 390.843192836 L 376 395.263077076 L 380 392.299630663 L 384 395.242848773 L 388 396.709400752 L 392 396.699286601 L 396 395.212506318 L 400 390.772393775 L 404 398.145610276 L 408 399.612162255 L 412 396.648715843 L 416 411.405262997 L 420 396.62848754 L 424 404.001704041 L 428 371.504935016 L 432 398.074811215 L 436 411.354692239 L 440 409.867911957 L 444 398.044468761 L 448 402.464353001 L 452 398.024240458 L 456 411.304121481 L 460 398.004012154 L 464 406.853894786 L 468 383.217122545 L 472 397.9736697 L 476 411.253550724 L 480 390.570110743 L 484 396.466661114 L 488 384.643217918 L 492 405.306429595 L 496 394.959652529 L 500 394.949538377 L 504 386.079427442 L 508 408.21930525 L 512 405.255858837 L 516 402.292412424 L 520 397.852299881 L 524 402.272184121 L 528 409.645400622 L 532 387.485294512 L 536 402.241841666 L 540 402.231727515 L 544 397.791614971 L 548 397.78150082 L 552 394.818054407 L 556 390.377941863 L 560 394.797826104 L 564 399.217710344 L 568 399.207596192 L 572 402.150814302 L 576 399.187367889 L 580 385.887258562 L 584 394.737141194 L 588 391.773694781 L 592 382.903583846 L 596 388.800134217 L 600 381.406689412 L 604 384.349907522 L 608 396.153122415 L 612 403.526338917 L 616 396.132894112 L 620 388.739449308"/>
		</g>
		<text class="x-axis-label" x="40.0" y="540">0</text>
		<path class="x-notch" d="M 60.0 525 L 60.0 530"/>
		<text class="x-axis-label" x="80.0" y="540">10</text>
		<path class="x-notch" d="M 100.0 525 L 100.0 530"/>
		<text class="x-axis-label" x="120.0" y="540">20</text>
		<path class="x-notch" d="M 140.0 525 L 140.0 530"/>
		<text class="x-axis-label" x="160.0" y="540">30</text>
		<path class="x-notch" d="M 180.0 525 L 180.0 530"/>
		<text class="x-axis-label" x="200.0" y="540">40</text>
		<path class="x-notch" d="M 220.0 525 L 220.0 530"/>
		<text class="x-axis-label" x="240.0" y="540">50</text>
		<path class="x-notch" d="M 260.0 525 L 260.0 530"/>
		<text class="x-axis-label" x="280.0" y="540">60</text>
		<path class="x-notch" d="M 300.0 525 L 300.0 530"/>
		<text class="x-axis-label" x="320.0" y="540">70</text>
		<path class="x-notch" d="M 340.0 525 L 340.0 530"/>
		<text class="x-axis-label" x="360.0" y="540">80</text>
		<path class="x-notch" d="M 380.0 525 L 380.0 530"/>
		<text class="x-axis-label" x="400.0" y="540">90</text>
		<path class="x-notch" d="M 420.0 525 L 420.0 530"/>
		<text class="x-axis-label" x="440.0" y="540">100</text>
		<path class="x-notch" d="M 460.0 525 L 460.0 530"/>
		<text class="x-axis-label" x="480.0" y="540">110</text>
		<path class="x-notch" d="M 500.0 525 L 500.0 530"/>
		<text class="x-axis-label" x="520.0" y="540">120</text>
		<path class="x-notch" d="M 540.0 525 L 540.0 530"/>
		<text class="x-axis-label" x="560.0" y="540">130</text>
		<path class="x-notch" d="M 580.0 525 L 580.0 530"/>
		<text class="x-axis-label" x="600.0" y="540">140</text>
		<path class="x-notch" d="M 620.0 525 L 620.0 530"/>
	</g>
</svg>
