<?xml version="1.0" ?>
<svg height="600" version="1.1" width="800" xmlns="http://www.w3.org/2000/svg" xmlns:svg="http://www.w3.org/2000/svg">
	<style type="text/css">

.x-axis-path, .y-gridline, .x-notch { fill:none; stroke: #a7a9ac; stroke-width:1; }



.y-gridline { stroke-width: 1; }

.y-axis-path, .y-axis-path2, .x-notch-left, .x-notch-right { display: none;}



.x-axis-label, .data-point-label {font-size: 12px; font-weight:normal; font-family: sans-serif; fill: #58595b; text-anchor:middle;}

.y-axis-label {font-size: 12px; font-family: helvetica; fill: #a7a9ac; text-anchor:end;}



.series-1-line { fill: none; stroke: #10b80c; stroke-width:2; }



.series-2-line { fill: none; stroke: #e90f0a; stroke-width: 2;}
</style>
	<rect fill="white" height="600" width="800" x="0" y="0"/>
	<g id="grid" transform="translate(70, 30)">
		<g class="x-axis" id="x_axis">
			<path class="x-axis-path" d="M 0 525 L 660 525"/>
			<path class="x-notch-left" d="M 0 525, L 0 535"/>
			<path class="x-notch-right" d="M 660 525, L 660 535"/>
		</g>
		<g class="y-axis" id="y_axis">
			<path class="y-axis-path" d="M 0 525 L 0 0"/>
			<path class="y-axis-path-2" d="M 660 525 L 660 0"/>
			<path class="y-gridline" d="M 0 525 L 660 525"/>
			<text class="y-axis-label" x="-5" y="525">-200</text>
			<path class="y-gridline" d="M 0 420 L 660 420"/>
			<text class="y-axis-label" x="-5" y="420"> 0</text>
			<path class="y-gridline" d="M 0 315 L 660 315"/>
			<text class="y-axis-label" x="-5" y="315">200</text>
			<path class="y-gridline" d="M 0 210 L 660 210"/>
			<text class="y-axis-label" x="-5" y="210">400</text>
			<path class="y-gridline" d="M 0 105 L 660 105"/>
			<text class="y-axis-label" x="-5" y="105">600</text>
			<path class="y-gridline" d="M 0 0 L 660 0"/>
			<text class="y-axis-label" x="-5" y="0">800</text>
		</g>
		<g>
			<path class="series-1-line" d="M 40 417.397458668 L 43 421.348078264 L 46 416.451388466 L 49 420.817461863 L 52 423.072637615 L 55 423.262104202 L 58 411.78611145 L 61 415.4447574 L 64 413.792880894 L 67 420.381947399 L 70 425.792084925 L 73 414.417153237 L 76 405.972642103 L 79 416.962856639 L 82 415.445669835 L 86 414.815438365 L 89 419.226349947 L 92 409.131408302 L 95 407.63664059 L 98 412.597695676 L 101 406.275116586 L 104 409.563322068 L 107 411.201097039 L 110 402.026739366 L 113 391.089680572 L 116 390.358388038 L 119 382.172046762 L 122 375.512655842 L 125 370.17809315 L 128 363.507492684 L 132 366.267973755 L 135 350.525522674 L 138 344.292795102 L 141 338.06006753 L 144 316.322085638 L 147 289.150101133 L 150 279.773621332 L 153 308.492083295 L 156 275.773650419 L 159 260.918154672 L 162 266.833597517 L 165 260.612079491 L 168 245.745374199 L 171 226.814332705 L 175 202.741087096 L 178 224.666914431 L 181 206.476929023 L 184 204.768829638 L 187 195.493410901 L 190 151.379073239 L 193 173.855044078 L 196 176.267503772 L 199 147.939009381 L 202 158.704682696 L 205 126.738515452 L 208 150.303563753 L 211 107.289513098 L 214 145.955571463 L 217 142.260229736 L 221 121.48784515 L 224 117.365840075 L 227 134.969161352 L 230 110.469252394 L 233 105.0 L 236 113.598727939 L 239 114.56287925 L 242 136.365226429 L 245 114.492554835 L 248 104.56593153 L 251 134.463322473 L 254 122.527037734 L 257 136.357821307 L 260 145.147461827 L 264 149.311413097 L 267 129.313713235 L 270 171.460335658 L 273 188.210330239 L 276 148.833952438 L 279 189.689375272 L 282 183.692398466 L 285 192.661742022 L 288 185.586897301 L 291 203.796409811 L 294 248.772391726 L 297 235.881719228 L 300 228.234311911 L 303 252.22602356 L 306 236.696904153 L 310 254.681875444 L 313 266.065124689 L 316 267.714109206 L 319 261.627280882 L 322 264.904276818 L 325 269.292769308 L 328 260.702183777 L 331 283.032255368 L 334 293.988841266 L 337 295.559183811 L 340 286.721637968 L 343 294.848864374 L 346 292.220181017 L 349 300.673009707 L 353 283.268918569 L 356 315.928236577 L 359 354.998539197 L 362 312.994924033 L 365 320.987460737 L 368 322.030078871 L 371 318.413379116 L 374 314.156684339 L 377 332.804069743 L 380 334.554115324 L 383 324.941884757 L 386 331.317619589 L 389 334.302641879 L 392 338.006301163 L 395 354.677653773 L 399 337.733854621 L 402 359.457559828 L 405 357.053417691 L 408 375.251720656 L 411 366.178424046 L 414 373.070673743 L 417 369.049729732 L 420 377.176956139 L 423 362.052080988 L 426 374.793787099 L 429 373.052059075 L 432 362.013939217 L 435 370.253436233 L 438 382.635911422 L 442 379.266171979 L 445 370.832870392 L 448 387.20103981 L 451 388.83881478 L 454 375.296937715 L 457 385.591109499 L 460 385.645711235 L 463 379.940708074 L 466 387.091127629 L 469 388.919815182 L 472 396.934770978 L 475 385.818009148 L 478 390.655584078 L 481 397.211021945 L 484 399.769380888 L 488 384.981317567 L 491 392.884002753 L 494 387.145195805 L 497 403.782919777 L 500 402.91693754 L 503 397.054650436 L 506 395.0659621 L 509 414.050159335 L 512 413.083116035 L 515 408.579460946 L 518 407.533775674 L 521 400.200761094 L 524 409.641606183 L 527 416.230672688 L 531 408.13418293 L 534 417.148364671 L 537 411.55563212 L 540 409.903755614 L 543 408.992760044 L 546 409.631309071 L 549 409.012287147 L 552 421.619303556 L 555 413.399333643 L 558 417.170250203 L 561 416.843201925 L 564 409.218213699 L 567 420.186009143 L 570 413.964491117 L 573 421.855966757 L 577 421.113464677 L 580 421.864284314 L 583 419.965272347 L 586 417.976584011 L 589 421.365850557 L 592 419.567899654 L 595 421.991568894 L 598 424.942962547 L 601 424.537272296 L 604 428.510310985 L 607 420.874113213 L 610 414.742446705 L 613 421.645905948 L 616 420.128719144 L 620 423.978277676"/>
			<path class="series-2-line" d="M 40 419.562127106 L 43 420.863300979 L 46 419.099364595 L 49 423.903521619 L 52 416.447237615 L 55 423.878632002 L 58 423.866187193 L 61 419.475013446 L 64 423.841297576 L 67 423.390979874 L 70 418.999806127 L 73 420.30098 L 76 425.543009917 L 79 421.589709064 L 82 422.015137149 L 86 420.689073659 L 89 418.487264382 L 92 425.04291298 L 95 421.965357915 L 98 419.325675743 L 101 417.999612253 L 104 420.176531914 L 107 423.667070256 L 110 423.216752554 L 113 424.517926427 L 116 421.878244255 L 119 420.990053659 L 122 420.97760885 L 125 419.213672466 L 128 420.952719233 L 132 420.064528637 L 135 419.614210935 L 138 421.353257701 L 141 423.092304468 L 144 418.701130721 L 147 425.25677932 L 150 422.179224255 L 153 419.101669189 L 156 419.964970168 L 159 417.763160891 L 162 419.940080551 L 165 419.927635743 L 168 419.47731804 L 171 421.216364807 L 175 422.51753868 L 178 420.315729402 L 181 425.995632214 L 184 422.042331361 L 187 420.278394977 L 190 422.893187531 L 193 420.25350536 L 196 422.43042502 L 199 421.542234424 L 202 418.464679359 L 205 421.517344807 L 208 419.753408423 L 211 421.49245519 L 214 420.604264593 L 217 419.278201103 L 221 417.952137613 L 224 414.874582548 L 227 420.992358253 L 230 420.542040551 L 233 422.718960211 L 236 416.138421995 L 239 422.2561977 L 242 422.243752892 L 245 421.793435189 L 248 419.153753018 L 251 420.017053997 L 254 423.507592339 L 257 420.430037274 L 260 418.228227996 L 264 420.405147657 L 267 417.765465485 L 270 420.380258039 L 273 422.995050594 L 276 420.793241316 L 279 419.90505072 L 282 419.016860124 L 285 422.94527136 L 288 419.4298434 L 291 416.352288335 L 294 421.594318252 L 297 420.268254762 L 300 420.693682848 L 303 420.681238039 L 306 421.106666124 L 310 418.904856847 L 313 421.957522295 L 316 423.696569062 L 319 419.743268209 L 322 423.671679445 L 325 424.972853317 L 328 418.830187995 L 331 421.882853443 L 334 423.184027316 L 337 420.106472251 L 340 418.342535867 L 343 417.016472377 L 346 420.069137825 L 349 419.180947229 L 353 421.795739784 L 356 418.718184718 L 359 423.084468848 L 362 420.88265957 L 365 423.497452125 L 368 417.354786802 L 371 420.845325145 L 374 421.708626124 L 377 418.631071058 L 380 421.683736507 L 383 421.233418804 L 386 419.907355314 L 389 418.14341893 L 392 423.823321741 L 395 421.621512464 L 399 420.733321867 L 402 415.904275227 L 405 418.081194887 L 408 416.755131397 L 411 417.618432376 L 414 421.108970718 L 417 419.345034335 L 420 418.018970845 L 423 423.698873656 L 426 419.745572803 L 429 421.046746676 L 432 421.034301867 L 435 419.270365483 L 438 420.133666462 L 442 419.245475866 L 445 422.736014208 L 448 416.593348886 L 451 420.083887228 L 454 417.88207795 L 457 420.058997611 L 460 414.354205183 L 463 419.158362206 L 466 416.518680035 L 469 424.387947315 L 472 423.499756719 L 475 418.670710078 L 478 418.220392376 L 481 423.024549399 L 484 419.50912144 L 488 423.87540557 L 491 423.425087867 L 494 416.406676758 L 497 419.459342206 L 500 420.760516079 L 503 415.931469438 L 506 421.611372249 L 509 417.220198502 L 512 417.207753694 L 515 422.449783611 L 518 417.620736971 L 521 420.235529525 L 524 418.909466035 L 527 418.459148333 L 531 420.636067993 L 534 417.558512928 L 537 421.924797058 L 540 426.291081187 L 543 417.521178502 L 546 423.201081313 L 549 420.123526248 L 552 420.111081439 L 555 424.477365569 L 558 419.648318928 L 561 422.263111483 L 564 419.185556417 L 567 418.735238715 L 570 418.722793907 L 573 420.023967779 L 577 419.135777183 L 580 424.377807101 L 583 416.045777309 L 586 421.725680121 L 589 425.216218463 L 592 418.197807353 L 595 418.623235438 L 598 422.11377378 L 601 419.911964502 L 604 417.710155225 L 607 416.384091735 L 610 419.436757183 L 613 421.17580395 L 616 421.601232035 L 620 421.588787226"/>
		</g>
		<text class="x-axis-label" x="40.0" y="540">0</text>
		<path class="x-notch" d="M 55.3439153439 525 L 55.3439153439 530"/>
		<text class="x-axis-label" x="70.6878306878" y="540">10</text>
		<path class="x-notch" d="M 86.0317460317 525 L 86.0317460317 530"/>
		<text class="x-axis-label" x="101.375661376" y="540">20</text>
		<path class="x-notch" d="M 116.71957672 525 L 116.71957672 530"/>
		<text class="x-axis-label" x="132.063492063" y="540">30</text>
		<path class="x-notch" d="M 147.407407407 525 L 147.407407407 530"/>
		<text class="x-axis-label" x="162.751322751" y="540">40</text>
		<path class="x-notch" d="M 178.095238095 525 L 178.095238095 530"/>
		<text class="x-axis-label" x="193.439153439" y="540">50</text>
		<path class="x-notch" d="M 208.783068783 525 L 208.783068783 530"/>
		<text class="x-axis-label" x="224.126984127" y="540">60</text>
		<path class="x-notch" d="M 239.470899471 525 L 239.470899471 530"/>
		<text class="x-axis-label" x="254.814814815" y="540">70</text>
		<path class="x-notch" d="M 270.158730159 525 L 270.158730159 530"/>
		<text class="x-axis-label" x="285.502645503" y="540">80</text>
		<path class="x-notch" d="M 300.846560847 525 L 300.846560847 530"/>
		<text class="x-axis-label" x="316.19047619" y="540">90</text>
		<path class="x-notch" d="M 331.534391534 525 L 331.534391534 530"/>
		<text class="x-axis-label" x="346.878306878" y="540">100</text>
		<path class="x-notch" d="M 362.222222222 525 L 362.222222222 530"/>
		<text class="x-axis-label" x="377.566137566" y="540">110</text>
		<path class="x-notch" d="M 392.91005291 525 L 392.91005291 530"/>
		<text class="x-axis-label" x="408.253968254" y="540">120</text>
		<path class="x-notch" d="M 423.597883598 525 L 423.597883598 530"/>
		<text class="x-axis-label" x="438.941798942" y="540">130</text>
		<path class="x-notch" d="M 454.285714286 525 L 454.285714286 530"/>
		<text class="x-axis-label" x="469.62962963" y="540">140</text>
		<path class="x-notch" d="M 484.973544974 525 L 484.973544974 530"/>
		<text class="x-axis-label" x="500.317460317" y="540">150</text>
		<path class="x-notch" d="M 515.661375661 525 L 515.661375661 530"/>
		<text class="x-axis-label" x="531.005291005" y="540">160</text>
		<path class="x-notch" d="M 546.349206349 525 L 546.349206349 530"/>
		<text class="x-axis-label" x="561.693121693" y="540">170</text>
		<path class="x-notch" d="M 577.037037037 525 L 577.037037037 530"/>
		<text class="x-axis-label" x="592.380952381" y="540">180</text>
		<path class="x-notch" d="M 607.724867725 525 L 607.724867725 530"/>
	</g>
</svg>
