<?xml version="1.0" ?>
<svg height="600" version="1.1" width="800" xmlns="http://www.w3.org/2000/svg" xmlns:svg="http://www.w3.org/2000/svg">
	<style type="text/css">

.x-axis-path, .y-gridline, .x-notch { fill:none; stroke: #a7a9ac; stroke-width:1; }



.y-gridline { stroke-width: 1; }

.y-axis-path, .y-axis-path2, .x-notch-left, .x-notch-right { display: none;}



.x-axis-label, .data-point-label {font-size: 12px; font-weight:normal; font-family: sans-serif; fill: #58595b; text-anchor:middle;}

.y-axis-label {font-size: 12px; font-family: helvetica; fill: #a7a9ac; text-anchor:end;}



.series-1-line { fill: none; stroke: #10b80c; stroke-width:2; }



.series-2-line { fill: none; stroke: #e90f0a; stroke-width: 2;}
</style>
	<rect fill="white" height="600" width="800" x="0" y="0"/>
	<g id="grid" transform="translate(70, 30)">
		<g class="x-axis" id="x_axis">
			<path class="x-axis-path" d="M 0 525 L 660 525"/>
			<path class="x-notch-left" d="M 0 525, L 0 535"/>
			<path class="x-notch-right" d="M 660 525, L 660 535"/>
		</g>
		<g class="y-axis" id="y_axis">
			<path class="y-axis-path" d="M 0 525 L 0 0"/>
			<path class="y-axis-path-2" d="M 660 525 L 660 0"/>
			<path class="y-gridline" d="M 0 525 L 660 525"/>
			<text class="y-axis-label" x="-5" y="525">-200</text>
			<path class="y-gridline" d="M 0 394 L 660 394"/>
			<text class="y-axis-label" x="-5" y="394"> 0</text>
			<path class="y-gridline" d="M 0 263 L 660 263"/>
			<text class="y-axis-label" x="-5" y="263">200</text>
			<path class="y-gridline" d="M 0 132 L 660 132"/>
			<text class="y-axis-label" x="-5" y="132">400</text>
			<path class="y-gridline" d="M 0 1 L 660 1"/>
			<text class="y-axis-label" x="-5" y="1">600</text>
		</g>
		<g>
			<path class="series-1-line" d="M 40 396.526716677 L 43 386.023805664 L 46 392.460432836 L 49 401.822249638 L 52 390.359031902 L 55 375.752342048 L 58 370.728627911 L 61 401.592120906 L 64 378.668561861 L 67 385.978318976 L 71 379.928574995 L 74 395.07504794 L 77 382.542211969 L 80 380.247199173 L 83 380.069628649 L 86 393.382324392 L 89 371.681283481 L 92 387.919168856 L 95 386.540874393 L 98 385.468379731 L 102 388.717946395 L 105 373.456409084 L 108 386.288951466 L 111 371.28928503 L 114 366.505647574 L 117 376.675211735 L 120 388.307030177 L 123 366.213012685 L 126 371.798304108 L 129 380.090502677 L 133 382.314039498 L 136 380.215514992 L 139 391.367180072 L 142 369.27316258 L 145 366.105019839 L 148 351.32363589 L 151 345.797974196 L 154 352.692960535 L 157 314.641846311 L 160 319.834161153 L 164 295.993883774 L 167 331.375926387 L 170 279.332257805 L 173 312.160293173 L 176 267.691469544 L 179 228.177760505 L 182 238.696372323 L 185 201.693082138 L 188 204.134901445 L 191 231.440151547 L 195 168.307324042 L 198 178.564064983 L 201 145.206194473 L 204 119.685039792 L 207 96.936174842 L 210 110.620052972 L 213 78.8337482523 L 216 144.580212731 L 219 97.0550937666 L 222 100.239277846 L 226 114.774491724 L 229 107.218564537 L 232 110.07515462 L 235 89.9896084251 L 238 95.4219999483 L 241 79.920385956 L 244 43.4190433285 L 247 9.47170794579 L 250 110.144732299 L 254 68.4481984008 L 257 9.11369047065 L 260 97.3439320611 L 263 102.710940999 L 266 65.0310091614 L 269 44.6614573606 L 272 81.5932715694 L 275 26.3843366753 L 278 67.0054994829 L 281 40.2182382773 L 285 47.5715837829 L 288 32.8559229534 L 291 0.0 L 294 56.86192461 L 297 50.3538214623 L 300 44.4787715771 L 303 109.810465279 L 306 71.9776335416 L 309 57.5238435883 L 312 82.5587515167 L 316 78.9540438049 L 319 80.9157097496 L 322 77.1581021374 L 325 128.955600648 L 328 101.557080375 L 331 112.68695126 L 334 159.791206058 L 337 114.732917557 L 340 139.178701148 L 343 132.779568976 L 347 126.577265629 L 350 113.04019401 L 353 150.081319729 L 356 174.046609423 L 359 168.695641824 L 362 158.803989879 L 365 210.972670776 L 368 199.553041429 L 371 205.74959192 L 374 229.256522447 L 378 220.12902947 L 381 222.35256629 L 384 246.230679204 L 387 218.417388155 L 390 247.381721363 L 393 265.758843205 L 396 225.655669294 L 399 279.330533397 L 402 232.5695734 L 405 241.058260259 L 409 274.999502252 L 412 287.242579761 L 415 283.201307078 L 418 274.946944043 L 421 315.087612954 L 424 276.578139564 L 427 299.583122534 L 430 262.470520839 L 433 299.489852363 L 437 296.78006879 L 440 333.646500413 L 443 299.633782445 L 446 317.377851025 L 449 341.976193982 L 452 336.515914873 L 455 337.124297513 L 458 309.529288949 L 461 324.89404438 L 464 369.247803642 L 468 352.021723958 L 471 373.236518117 L 474 373.124330179 L 477 352.885884083 L 480 363.579189997 L 483 355.761391934 L 486 363.682408116 L 489 362.740678625 L 492 368.064099173 L 495 364.524774046 L 499 340.378696866 L 502 351.639673456 L 505 380.625800859 L 508 376.671704957 L 511 385.291156987 L 514 366.10053493 L 517 379.653307355 L 520 388.753253281 L 523 378.206753878 L 526 367.027201213 L 530 371.128103626 L 533 399.677666057 L 536 393.562539491 L 539 375.506918254 L 542 387.357019182 L 545 392.309257343 L 548 398.134625448 L 551 388.679879008 L 554 391.994828258 L 557 376.493214266 L 561 389.085679966 L 564 367.690098322 L 567 390.25851632 L 570 393.52987718 L 573 394.945666643 L 576 400.247292995 L 579 392.080106741 L 582 377.844599274 L 585 389.36744674 L 588 392.573425014 L 592 393.290778629 L 595 380.343171882 L 598 403.588231533 L 601 378.503641824 L 604 383.695956666 L 607 392.926667764 L 610 393.644021379 L 613 395.190916547 L 616 395.689987676 L 620 393.63505156"/>
			<path class="series-2-line" d="M 40 398.85801449 L 43 386.087978266 L 46 386.939314014 L 49 396.304007245 L 52 400.560685986 L 55 397.155342993 L 58 392.898664252 L 61 401.412021734 L 64 400.560685986 L 67 398.006678741 L 71 387.790649762 L 74 391.195992755 L 77 396.304007245 L 80 398.006678741 L 83 401.412021734 L 86 392.047328503 L 89 399.709350238 L 92 398.85801449 L 95 390.344657007 L 98 400.560685986 L 102 400.560685986 L 105 399.709350238 L 108 398.85801449 L 111 390.344657007 L 114 381.831299524 L 117 398.006678741 L 120 385.236642517 L 123 387.790649762 L 126 388.64198551 L 129 398.85801449 L 133 392.898664252 L 136 397.155342993 L 139 392.898664252 L 142 395.452671497 L 145 400.560685986 L 148 391.195992755 L 151 398.85801449 L 154 394.601335748 L 157 396.304007245 L 160 392.047328503 L 164 401.412021734 L 167 402.263357483 L 170 395.452671497 L 173 396.304007245 L 176 403.114693231 L 179 400.560685986 L 182 395.452671497 L 185 399.709350238 L 188 392.898664252 L 191 392.047328503 L 195 388.64198551 L 198 391.195992755 L 201 391.195992755 L 204 397.155342993 L 207 402.263357483 L 210 401.412021734 L 213 388.64198551 L 216 400.560685986 L 219 386.087978266 L 222 396.304007245 L 226 395.452671497 L 229 387.790649762 L 232 382.682635273 L 235 403.966028979 L 238 395.452671497 L 241 398.85801449 L 244 391.195992755 L 247 383.533971021 L 250 392.047328503 L 254 398.006678741 L 257 399.709350238 L 260 390.344657007 L 263 392.047328503 L 266 402.263357483 L 269 401.412021734 L 272 392.898664252 L 275 381.831299524 L 278 395.452671497 L 281 399.709350238 L 285 390.344657007 L 288 403.966028979 L 291 392.047328503 L 294 395.452671497 L 297 390.344657007 L 300 386.087978266 L 303 396.304007245 L 306 397.155342993 L 309 403.114693231 L 312 391.195992755 L 316 398.006678741 L 319 399.709350238 L 322 397.155342993 L 325 393.75 L 328 393.75 L 331 392.898664252 L 334 391.195992755 L 337 390.344657007 L 340 403.966028979 L 343 381.831299524 L 347 395.452671497 L 350 391.195992755 L 353 398.85801449 L 356 387.790649762 L 359 401.412021734 L 362 392.898664252 L 365 398.006678741 L 368 395.452671497 L 371 400.560685986 L 374 394.601335748 L 378 399.709350238 L 381 393.75 L 384 396.304007245 L 387 394.601335748 L 390 400.560685986 L 393 398.006678741 L 396 387.790649762 L 399 390.344657007 L 402 389.493321259 L 405 402.263357483 L 409 395.452671497 L 412 386.939314014 L 415 395.452671497 L 418 397.155342993 L 421 386.087978266 L 424 392.898664252 L 427 398.85801449 L 430 386.939314014 L 433 398.006678741 L 437 398.006678741 L 440 399.709350238 L 443 402.263357483 L 446 398.85801449 L 449 388.64198551 L 452 386.087978266 L 455 399.709350238 L 458 397.155342993 L 461 399.709350238 L 464 395.452671497 L 468 402.263357483 L 471 388.64198551 L 474 381.831299524 L 477 393.75 L 480 394.601335748 L 483 394.601335748 L 486 396.304007245 L 489 386.087978266 L 492 394.601335748 L 495 391.195992755 L 499 381.831299524 L 502 393.75 L 505 396.304007245 L 508 391.195992755 L 511 383.533971021 L 514 398.006678741 L 517 384.385306769 L 520 401.412021734 L 523 395.452671497 L 526 388.64198551 L 530 388.64198551 L 533 392.898664252 L 536 392.898664252 L 539 396.304007245 L 542 382.682635273 L 545 382.682635273 L 548 379.27729228 L 551 402.263357483 L 554 392.047328503 L 557 395.452671497 L 561 398.85801449 L 564 392.047328503 L 567 399.709350238 L 570 396.304007245 L 573 383.533971021 L 576 395.452671497 L 579 383.533971021 L 582 388.64198551 L 585 392.898664252 L 588 399.709350238 L 592 396.304007245 L 595 399.709350238 L 598 401.412021734 L 601 405.668700476 L 604 401.412021734 L 607 398.006678741 L 610 394.601335748 L 613 394.601335748 L 616 392.047328503 L 620 389.493321259"/>
		</g>
		<text class="x-axis-label" x="40.0" y="540">0</text>
		<path class="x-notch" d="M 55.5080213904 525 L 55.5080213904 530"/>
		<text class="x-axis-label" x="71.0160427807" y="540">10</text>
		<path class="x-notch" d="M 86.5240641711 525 L 86.5240641711 530"/>
		<text class="x-axis-label" x="102.032085561" y="540">20</text>
		<path class="x-notch" d="M 117.540106952 525 L 117.540106952 530"/>
		<text class="x-axis-label" x="133.048128342" y="540">30</text>
		<path class="x-notch" d="M 148.556149733 525 L 148.556149733 530"/>
		<text class="x-axis-label" x="164.064171123" y="540">40</text>
		<path class="x-notch" d="M 179.572192513 525 L 179.572192513 530"/>
		<text class="x-axis-label" x="195.080213904" y="540">50</text>
		<path class="x-notch" d="M 210.588235294 525 L 210.588235294 530"/>
		<text class="x-axis-label" x="226.096256684" y="540">60</text>
		<path class="x-notch" d="M 241.604278075 525 L 241.604278075 530"/>
		<text class="x-axis-label" x="257.112299465" y="540">70</text>
		<path class="x-notch" d="M 272.620320856 525 L 272.620320856 530"/>
		<text class="x-axis-label" x="288.128342246" y="540">80</text>
		<path class="x-notch" d="M 303.636363636 525 L 303.636363636 530"/>
		<text class="x-axis-label" x="319.144385027" y="540">90</text>
		<path class="x-notch" d="M 334.652406417 525 L 334.652406417 530"/>
		<text class="x-axis-label" x="350.160427807" y="540">100</text>
		<path class="x-notch" d="M 365.668449198 525 L 365.668449198 530"/>
		<text class="x-axis-label" x="381.176470588" y="540">110</text>
		<path class="x-notch" d="M 396.684491979 525 L 396.684491979 530"/>
		<text class="x-axis-label" x="412.192513369" y="540">120</text>
		<path class="x-notch" d="M 427.700534759 525 L 427.700534759 530"/>
		<text class="x-axis-label" x="443.20855615" y="540">130</text>
		<path class="x-notch" d="M 458.71657754 525 L 458.71657754 530"/>
		<text class="x-axis-label" x="474.22459893" y="540">140</text>
		<path class="x-notch" d="M 489.732620321 525 L 489.732620321 530"/>
		<text class="x-axis-label" x="505.240641711" y="540">150</text>
		<path class="x-notch" d="M 520.748663102 525 L 520.748663102 530"/>
		<text class="x-axis-label" x="536.256684492" y="540">160</text>
		<path class="x-notch" d="M 551.764705882 525 L 551.764705882 530"/>
		<text class="x-axis-label" x="567.272727273" y="540">170</text>
		<path class="x-notch" d="M 582.780748663 525 L 582.780748663 530"/>
		<text class="x-axis-label" x="598.288770053" y="540">180</text>
		<path class="x-notch" d="M 613.796791444 525 L 613.796791444 530"/>
	</g>
</svg>
