<?xml version="1.0" ?>
<svg height="600" version="1.1" width="800" xmlns="http://www.w3.org/2000/svg" xmlns:svg="http://www.w3.org/2000/svg">
	<style type="text/css">

.x-axis-path, .y-gridline, .x-notch { fill:none; stroke: #a7a9ac; stroke-width:1; }



.y-gridline { stroke-width: 1; }

.y-axis-path, .y-axis-path2, .x-notch-left, .x-notch-right { display: none;}



.x-axis-label, .data-point-label {font-size: 12px; font-weight:normal; font-family: sans-serif; fill: #58595b; text-anchor:middle;}

.y-axis-label {font-size: 12px; font-family: helvetica; fill: #a7a9ac; text-anchor:end;}



.series-1-line { fill: none; stroke: #10b80c; stroke-width:2; }



.series-2-line { fill: none; stroke: #e90f0a; stroke-width: 2;}
</style>
	<rect fill="white" height="600" width="800" x="0" y="0"/>
	<g id="grid" transform="translate(70, 30)">
		<g class="x-axis" id="x_axis">
			<path class="x-axis-path" d="M 0 525 L 660 525"/>
			<path class="x-notch-left" d="M 0 525, L 0 535"/>
			<path class="x-notch-right" d="M 660 525, L 660 535"/>
		</g>
		<g class="y-axis" id="y_axis">
			<path class="y-axis-path" d="M 0 525 L 0 0"/>
			<path class="y-axis-path-2" d="M 660 525 L 660 0"/>
			<path class="y-gridline" d="M 0 525 L 660 525"/>
			<text class="y-axis-label" x="-5" y="525">-200</text>
			<path class="y-gridline" d="M 0 394 L 660 394"/>
			<text class="y-axis-label" x="-5" y="394"> 0</text>
			<path class="y-gridline" d="M 0 263 L 660 263"/>
			<text class="y-axis-label" x="-5" y="263">200</text>
			<path class="y-gridline" d="M 0 132 L 660 132"/>
			<text class="y-axis-label" x="-5" y="132">400</text>
			<path class="y-gridline" d="M 0 1 L 660 1"/>
			<text class="y-axis-label" x="-5" y="1">600</text>
		</g>
		<g>
			<path class="series-1-line" d="M 40 363.453457312 L 45 398.249430206 L 50 392.121807877 L 56 424.37917414 L 61 388.795384874 L 67 345.989744521 L 72 392.253145702 L 78 388.007287729 L 83 401.707152748 L 89 399.474837258 L 94 408.578854716 L 100 407.572144095 L 105 355.750285194 L 111 376.496524724 L 116 372.557238665 L 122 381.398382654 L 127 370.850389338 L 133 397.242604724 L 138 413.261901353 L 143 403.720337885 L 149 360.302236492 L 154 322.748603188 L 160 305.854093293 L 165 324.061726193 L 171 276.485444492 L 176 329.576727952 L 182 299.989184902 L 187 255.126303619 L 193 276.135416617 L 198 218.711280306 L 204 269.001083667 L 209 239.326143724 L 215 185.797314253 L 220 220.680684041 L 226 4.59568165044 L 231 98.1728930797 L 236 107.057735516 L 242 152.533199082 L 247 78.9146915835 L 253 168.946183746 L 258 71.4737867193 L 264 40.8798138217 L 269 68.0599668229 L 275 123.820952253 L 280 74.0563342825 L 286 70.5110170308 L 291 82.6787052665 L 297 5.68995507533 L 302 0.0 L 308 122.98967992 L 313 145.530286913 L 319 69.5479665697 L 324 40.3543923274 L 330 82.2848194146 L 335 86.7929893103 L 340 1.6633550786 L 346 164.262945672 L 351 67.09712056 L 357 191.924866389 L 362 167.370838155 L 368 134.106480499 L 373 115.023634334 L 379 188.248294268 L 384 205.536894212 L 390 175.555382355 L 395 234.248943224 L 401 187.591694478 L 406 259.021986949 L 412 231.054017576 L 417 175.424248728 L 423 235.080540998 L 428 223.044069345 L 433 224.007202762 L 439 209.344727585 L 444 324.49941259 L 450 285.808254099 L 455 336.360930927 L 461 253.113061051 L 466 292.635976847 L 472 294.036777518 L 477 334.916393522 L 483 315.526975444 L 488 330.802032904 L 494 322.705249326 L 499 350.016497667 L 505 332.334050158 L 510 333.909644615 L 516 349.885242797 L 521 332.640462542 L 526 342.313242593 L 532 339.51216451 L 537 346.690036376 L 543 351.110809379 L 548 343.232518033 L 554 340.606233736 L 559 346.383706947 L 565 368.486646686 L 570 341.744282182 L 576 310.055799755 L 581 350.235557826 L 587 377.459409274 L 592 370.106182076 L 598 409.191430617 L 603 389.233249945 L 609 386.957236009 L 614 406.521569117 L 620 379.472632698"/>
			<path class="series-2-line" d="M 40 393.408605886 L 45 396.758735041 L 50 393.280981918 L 56 393.217169934 L 61 391.446387381 L 67 384.554693119 L 72 396.439675122 L 78 365.650392885 L 83 398.019021724 L 89 386.006415752 L 94 403.012309465 L 100 399.534556341 L 105 401.177714927 L 111 399.406932374 L 116 387.394326403 L 122 378.795661571 L 127 399.215496422 L 133 382.081978742 L 138 385.432107897 L 143 381.954354774 L 149 404.081160195 L 154 376.705819098 L 160 388.590801101 L 165 383.406077408 L 171 388.463177133 L 176 400.348159136 L 182 395.163435444 L 187 376.322947194 L 193 400.156723185 L 198 410.334734618 L 204 393.201216938 L 209 401.672257802 L 215 403.315416388 L 220 393.009780987 L 226 389.532027864 L 231 409.951862715 L 236 394.525315605 L 242 396.16847419 L 247 402.932544485 L 253 377.264173957 L 258 377.200361973 L 264 395.913226255 L 269 389.021531992 L 275 383.8368083 L 280 397.428760872 L 286 390.53706661 L 291 395.594166335 L 297 395.530354351 L 302 390.345630658 L 308 415.886377219 L 313 400.459830108 L 319 376.49843015 L 324 376.434618166 L 330 398.561423587 L 335 400.204582173 L 340 405.261681897 L 346 376.17937023 L 351 394.892234512 L 357 399.949334237 L 362 408.420375101 L 368 377.631092864 L 373 398.050927716 L 379 397.987115732 L 384 403.044215457 L 390 392.738580055 L 395 396.08870921 L 401 390.903985518 L 406 404.495938091 L 412 412.966978955 L 417 409.489225831 L 423 395.769649291 L 428 382.05007275 L 433 404.176878171 L 439 400.699125048 L 444 383.565607368 L 450 400.57150108 L 455 409.042541944 L 461 386.788112555 L 466 385.017330002 L 472 405.437164853 L 477 391.717588312 L 483 393.360746898 L 488 379.641170357 L 494 417.130710905 L 499 389.755369807 L 505 391.398528393 L 510 384.506834131 L 516 394.684845564 L 521 394.62103358 L 526 389.436309888 L 532 399.614321321 L 537 384.187774211 L 543 399.486697354 L 548 402.836826509 L 554 385.703308829 L 559 389.053437984 L 565 375.333861443 L 570 392.339755156 L 576 382.034119754 L 581 410.988807453 L 587 397.269230913 L 592 385.256624942 L 598 385.192812958 L 603 409.026588948 L 609 403.841865255 L 614 386.708347575 L 620 384.937565022"/>
		</g>
		<text class="x-axis-label" x="40.0" y="540">0</text>
		<path class="x-notch" d="M 67.358490566 525 L 67.358490566 530"/>
		<text class="x-axis-label" x="94.7169811321" y="540">10</text>
		<path class="x-notch" d="M 122.075471698 525 L 122.075471698 530"/>
		<text class="x-axis-label" x="149.433962264" y="540">20</text>
		<path class="x-notch" d="M 176.79245283 525 L 176.79245283 530"/>
		<text class="x-axis-label" x="204.150943396" y="540">30</text>
		<path class="x-notch" d="M 231.509433962 525 L 231.509433962 530"/>
		<text class="x-axis-label" x="258.867924528" y="540">40</text>
		<path class="x-notch" d="M 286.226415094 525 L 286.226415094 530"/>
		<text class="x-axis-label" x="313.58490566" y="540">50</text>
		<path class="x-notch" d="M 340.943396226 525 L 340.943396226 530"/>
		<text class="x-axis-label" x="368.301886792" y="540">60</text>
		<path class="x-notch" d="M 395.660377358 525 L 395.660377358 530"/>
		<text class="x-axis-label" x="423.018867925" y="540">70</text>
		<path class="x-notch" d="M 450.377358491 525 L 450.377358491 530"/>
		<text class="x-axis-label" x="477.735849057" y="540">80</text>
		<path class="x-notch" d="M 505.094339623 525 L 505.094339623 530"/>
		<text class="x-axis-label" x="532.452830189" y="540">90</text>
		<path class="x-notch" d="M 559.811320755 525 L 559.811320755 530"/>
		<text class="x-axis-label" x="587.169811321" y="540">100</text>
		<path class="x-notch" d="M 614.528301887 525 L 614.528301887 530"/>
	</g>
</svg>
