<?xml version="1.0" ?>
<svg height="600" version="1.1" width="800" xmlns="http://www.w3.org/2000/svg" xmlns:svg="http://www.w3.org/2000/svg">
	<style type="text/css">

.x-axis-path, .y-gridline, .x-notch { fill:none; stroke: #a7a9ac; stroke-width:1; }



.y-gridline { stroke-width: 1; }

.y-axis-path, .y-axis-path2, .x-notch-left, .x-notch-right { display: none;}



.x-axis-label, .data-point-label {font-size: 12px; font-weight:normal; font-family: sans-serif; fill: #58595b; text-anchor:middle;}

.y-axis-label {font-size: 12px; font-family: helvetica; fill: #a7a9ac; text-anchor:end;}



.series-1-line { fill: none; stroke: #10b80c; stroke-width:2; }



.series-2-line { fill: none; stroke: #e90f0a; stroke-width: 2;}
</style>
	<rect fill="white" height="600" width="800" x="0" y="0"/>
	<g id="grid" transform="translate(70, 30)">
		<g class="x-axis" id="x_axis">
			<path class="x-axis-path" d="M 0 525 L 660 525"/>
			<path class="x-notch-left" d="M 0 525, L 0 535"/>
			<path class="x-notch-right" d="M 660 525, L 660 535"/>
		</g>
		<g class="y-axis" id="y_axis">
			<path class="y-axis-path" d="M 0 525 L 0 0"/>
			<path class="y-axis-path-2" d="M 660 525 L 660 0"/>
			<path class="y-gridline" d="M 0 525 L 660 525"/>
			<text class="y-axis-label" x="-5" y="525">-200</text>
			<path class="y-gridline" d="M 0 394 L 660 394"/>
			<text class="y-axis-label" x="-5" y="394"> 0</text>
			<path class="y-gridline" d="M 0 263 L 660 263"/>
			<text class="y-axis-label" x="-5" y="263">200</text>
			<path class="y-gridline" d="M 0 132 L 660 132"/>
			<text class="y-axis-label" x="-5" y="132">400</text>
			<path class="y-gridline" d="M 0 1 L 660 1"/>
			<text class="y-axis-label" x="-5" y="1">600</text>
		</g>
		<g>
			<path class="series-1-line" d="M 40 430.416647935 L 45 423.288847161 L 51 426.022759422 L 56 336.050452503 L 62 348.230423415 L 67 380.816846663 L 73 386.491386258 L 78 408.265698321 L 84 414.207609799 L 89 410.555180126 L 95 401.912580935 L 100 389.52723876 L 106 371.141552534 L 111 374.113180178 L 117 378.837321623 L 122 384.868202601 L 128 353.85857839 L 133 385.048829221 L 139 373.82194408 L 144 400.527112661 L 150 402.993653038 L 156 382.558424629 L 161 428.095934129 L 167 396.610879152 L 172 409.770904714 L 178 393.969504439 L 183 413.486215435 L 189 403.180071944 L 194 371.90307585 L 200 325.150020554 L 205 338.518104999 L 211 299.369161671 L 216 264.587137976 L 222 303.262874775 L 227 236.459708526 L 233 262.303448457 L 238 138.2604568 L 244 207.293791853 L 249 151.778167555 L 255 123.798140179 L 260 36.1724038264 L 266 125.701624099 L 272 74.8791409359 L 277 26.0765434561 L 283 88.1294798085 L 288 79.1898522341 L 294 0.0 L 299 39.7155678325 L 305 102.481186952 L 310 89.4424750103 L 316 129.306325343 L 321 82.1969286634 L 327 112.971525111 L 332 167.80634738 L 338 171.936432057 L 343 186.225258153 L 349 168.403972194 L 354 152.216574035 L 360 122.275973975 L 365 128.514913836 L 371 104.01025756 L 376 224.877130737 L 382 263.196526153 L 388 167.966677833 L 393 262.33732174 L 399 300.478778156 L 404 246.269893392 L 410 276.450433073 L 415 264.985832549 L 421 284.175858662 L 426 294.127885007 L 432 297.990597801 L 437 252.841773805 L 443 316.439165074 L 448 360.580502158 L 454 295.500193209 L 459 369.137699896 L 465 303.849332064 L 470 263.393649202 L 476 360.229953059 L 481 403.747576876 L 487 391.094862818 L 492 386.878032877 L 498 411.058228508 L 504 405.653285034 L 509 397.961083993 L 515 382.367742601 L 520 399.923880914 L 526 403.489565325 L 531 379.014565549 L 537 415.611103664 L 542 397.403819822 L 548 407.949902934 L 553 404.624158144 L 559 409.348299588 L 564 398.804440714 L 570 423.786751994 L 575 382.945071249 L 581 408.818467679 L 586 404.928322622 L 592 407.276237 L 597 405.82163201 L 603 392.515548185 L 608 402.170546147 L 614 399.11217324 L 620 376.241404764"/>
			<path class="series-2-line" d="M 40 393.518308593 L 45 392.410124224 L 51 388.985025787 L 56 390.193755484 L 62 404.14551255 L 67 397.245043012 L 73 386.869202375 L 78 395.028674273 L 84 388.128204736 L 89 387.020020366 L 95 396.337949297 L 100 402.180507129 L 106 395.280037591 L 111 399.964138389 L 117 402.33132512 L 122 381.529371181 L 128 401.273413414 L 133 386.263744642 L 139 392.106302473 L 144 399.107317338 L 150 392.206847801 L 156 388.781749364 L 161 394.624307195 L 167 398.149950959 L 172 394.724852523 L 178 391.299754086 L 183 390.191569716 L 189 387.924928313 L 194 404.193599445 L 200 394.976215841 L 205 404.294144773 L 211 383.492190834 L 216 404.3946901 L 222 396.335763529 L 227 397.544493227 L 233 403.387051058 L 238 388.377382286 L 244 388.42765495 L 249 390.794841681 L 255 389.686657311 L 260 386.261558874 L 266 396.737944839 L 272 389.837475302 L 277 384.095462798 L 283 388.779563596 L 288 399.255949561 L 294 390.038565957 L 299 400.514951922 L 305 384.346826117 L 310 401.773954283 L 316 389.081199578 L 321 390.289929275 L 327 394.974030073 L 332 396.18275977 L 338 400.866860568 L 343 402.075590265 L 349 397.492034795 L 354 409.126877794 L 360 397.592580122 L 365 389.533653552 L 371 388.425469182 L 376 389.634198879 L 382 392.00138561 L 388 400.160857508 L 393 378.200446535 L 399 408.37060207 L 404 387.568648131 L 410 394.569662995 L 415 392.303021592 L 421 396.98712239 L 426 397.037395054 L 432 398.246124751 L 437 409.880967749 L 443 399.505127112 L 448 397.238485708 L 454 400.764129473 L 459 405.44823027 L 465 396.230846666 L 470 398.598033397 L 476 398.648306061 L 481 403.332406858 L 487 405.699593589 L 492 402.274495152 L 498 396.532482648 L 504 397.741212346 L 509 394.316113909 L 515 403.634042841 L 520 392.099745169 L 526 394.4669319 L 531 388.724919396 L 537 388.77519206 L 542 399.251578025 L 548 396.984936622 L 553 390.084467085 L 559 392.451653815 L 564 382.075813178 L 570 386.759913975 L 575 404.187042141 L 581 405.395771839 L 586 396.178388234 L 592 407.813231233 L 597 380.060535093 L 603 394.012292159 L 608 395.221021856 L 614 391.795923419 L 620 406.906137518"/>
		</g>
		<text class="x-axis-label" x="40.0" y="540">0</text>
		<path class="x-notch" d="M 67.619047619 525 L 67.619047619 530"/>
		<text class="x-axis-label" x="95.2380952381" y="540">10</text>
		<path class="x-notch" d="M 122.857142857 525 L 122.857142857 530"/>
		<text class="x-axis-label" x="150.476190476" y="540">20</text>
		<path class="x-notch" d="M 178.095238095 525 L 178.095238095 530"/>
		<text class="x-axis-label" x="205.714285714" y="540">30</text>
		<path class="x-notch" d="M 233.333333333 525 L 233.333333333 530"/>
		<text class="x-axis-label" x="260.952380952" y="540">40</text>
		<path class="x-notch" d="M 288.571428571 525 L 288.571428571 530"/>
		<text class="x-axis-label" x="316.19047619" y="540">50</text>
		<path class="x-notch" d="M 343.80952381 525 L 343.80952381 530"/>
		<text class="x-axis-label" x="371.428571429" y="540">60</text>
		<path class="x-notch" d="M 399.047619048 525 L 399.047619048 530"/>
		<text class="x-axis-label" x="426.666666667" y="540">70</text>
		<path class="x-notch" d="M 454.285714286 525 L 454.285714286 530"/>
		<text class="x-axis-label" x="481.904761905" y="540">80</text>
		<path class="x-notch" d="M 509.523809524 525 L 509.523809524 530"/>
		<text class="x-axis-label" x="537.142857143" y="540">90</text>
		<path class="x-notch" d="M 564.761904762 525 L 564.761904762 530"/>
		<text class="x-axis-label" x="592.380952381" y="540">100</text>
		<path class="x-notch" d="M 620.0 525 L 620.0 530"/>
	</g>
</svg>
