<?xml version="1.0" ?>
<svg height="600" version="1.1" width="800" xmlns="http://www.w3.org/2000/svg" xmlns:svg="http://www.w3.org/2000/svg">
	<style type="text/css">
		

.x-axis-path, .y-gridline, .x-notch { fill:none; stroke: #a7a9ac; stroke-width:1; }



.y-gridline { stroke-width: 1; }

.y-axis-path, .y-axis-path2, .x-notch-left, .x-notch-right { display: none;}



.x-axis-label, .data-point-label {font-size: 12px; font-weight:normal; font-family: sans-serif; fill: #58595b; text-anchor:middle;}

.y-axis-label {font-size: 12px; font-family: helvetica; fill: #a7a9ac; text-anchor:end;}



.series-1-line { fill: none; stroke: #10b80c; stroke-width:2; }



.series-2-line { fill: none; stroke: #e90f0a; stroke-width: 2;}

	</style>
	<rect fill="white" height="600" width="800" x="0" y="0"/>
	<g id="grid" transform="translate(70, 30)">
		<g class="x-axis" id="x_axis">
			<path class="x-axis-path" d="M 0 525 L 660 525"/>
			<path class="x-notch-left" d="M 0 525, L 0 535"/>
			<path class="x-notch-right" d="M 660 525, L 660 535"/>
		</g>
		<g class="y-axis" id="y_axis">
			<path class="y-axis-path" d="M 0 525 L 0 0"/>
			<path class="y-axis-path-2" d="M 660 525 L 660 0"/>
			<path class="y-gridline" d="M 0 525 L 660 525"/>
			<text class="y-axis-label" x="-5" y="525">
				-100
			</text>
			<path class="y-gridline" d="M 0 420 L 660 420"/>
			<text class="y-axis-label" x="-5" y="420">
				 0
			</text>
			<path class="y-gridline" d="M 0 315 L 660 315"/>
			<text class="y-axis-label" x="-5" y="315">
				100
			</text>
			<path class="y-gridline" d="M 0 210 L 660 210"/>
			<text class="y-axis-label" x="-5" y="210">
				200
			</text>
			<path class="y-gridline" d="M 0 105 L 660 105"/>
			<text class="y-axis-label" x="-5" y="105">
				300
			</text>
			<path class="y-gridline" d="M 0 0 L 660 0"/>
			<text class="y-axis-label" x="-5" y="0">
				400
			</text>
		</g>
		<g>
			<path class="series-1-line" d="M 40 428.663928 L 47 412.010319759 L 54 407.310331518 L 61 429.614243277 L 68 422.248095036 L 75 412.379586795 L 82 409.564138554 L 89 420.210110313 L 96 425.714022072 L 103 421.391193831 L 110 439.57574559 L 117 424.887317349 L 124 431.844849108 L 131 398.902380867 L 139 413.048632627 L 146 419.818004386 L 153 407.983896145 L 160 428.322207904 L 167 410.564839663 L 174 437.176271422 L 181 423.161103181 L 188 446.32601494 L 195 424.637446699 L 202 432.968378458 L 209 422.156970217 L 216 428.683581976 L 223 424.603093735 L 230 429.568565494 L 238 442.340997253 L 245 426.522769012 L 252 407.391580771 L 259 411.01137253 L 266 415.061244289 L 273 422.988556048 L 280 406.927147807 L 287 435.854039566 L 294 405.065751325 L 301 411.215623084 L 308 435.430954843 L 315 424.754366602 L 322 414.669978361 L 330 415.35439012 L 337 415.44660188 L 344 410.423213639 L 351 415.550385398 L 358 416.100397157 L 365 422.438848916 L 372 429.181340675 L 379 424.589292434 L 386 411.677884193 L 393 387.162715952 L 400 425.431247711 L 407 433.11663947 L 414 388.812751229 L 421 395.205382988 L 429 432.881714747 L 436 438.977826506 L 443 434.169478265 L 450 393.743870024 L 457 402.101681783 L 464 417.297093542 L 471 425.654485301 L 478 377.39335706 L 485 392.939468819 L 492 429.834600578 L 499 422.496172337 L 506 449.754824096 L 513 414.174335855 L 520 398.705127614 L 528 446.209039373 L 535 403.305431133 L 542 432.609482892 L 549 409.953654651 L 556 430.61578641 L 563 422.604098169 L 570 410.688929928 L 577 415.627101687 L 584 422.262073446 L 591 412.285205205 L 598 421.423376964 L 605 407.354448723 L 612 432.269920482 L 620 426.896672241"/>
			<path class="series-2-line" d="M 40 427.98 L 47 443.947590361 L 54 437.865180723 L 61 437.032771084 L 68 355.350361446 L 75 418.567951807 L 82 405.135542169 L 89 380.15313253 L 96 379.320722892 L 103 396.338313253 L 110 382.905903614 L 117 378.923493976 L 124 356.041084337 L 131 333.158674699 L 139 335.47626506 L 146 341.993855422 L 153 384.211445783 L 160 362.379036145 L 167 386.746626506 L 174 369.114216867 L 181 382.981807229 L 188 329.64939759 L 195 312.016987952 L 202 320.634578313 L 209 326.102168675 L 216 288.519759036 L 223 308.687349398 L 230 309.954939759 L 238 239.82253012 L 245 330.340120482 L 252 282.257710843 L 259 329.725301205 L 266 309.992891566 L 273 340.660481928 L 280 346.128072289 L 287 335.845662651 L 294 345.513253012 L 301 325.780843373 L 308 313.398433735 L 315 338.816024096 L 322 353.733614458 L 330 326.651204819 L 337 310.068795181 L 344 272.486385542 L 351 289.503975904 L 358 283.421566265 L 365 275.239156627 L 372 285.956746988 L 379 304.024337349 L 386 309.491927711 L 393 323.359518072 L 400 247.977108434 L 407 316.444698795 L 414 305.112289157 L 421 329.479879518 L 429 264.59746988 L 436 253.265060241 L 443 182.082650602 L 450 303.050240964 L 457 307.467831325 L 464 227.885421687 L 471 191.353012048 L 478 224.12060241 L 485 212.788192771 L 492 105.905783133 L 499 101.923373494 L 506 188.240963855 L 513 208.408554217 L 520 203.376144578 L 528 202.54373494 L 535 218.511325301 L 542 231.328915663 L 549 405.846506024 L 556 456.464096386 L 563 434.631686747 L 570 448.499277108 L 577 413.01686747 L 584 440.534457831 L 591 438.652048193 L 598 403.169638554 L 605 425.437228916 L 612 426.704819277 L 620 402.772409639"/>
		</g>
		<text class="x-axis-label" x="40.0" y="540">
			0
		</text>
		<path class="x-notch" d="M 75.3658536585 525 L 75.3658536585 530"/>
		<text class="x-axis-label" x="110.731707317" y="540">
			10
		</text>
		<path class="x-notch" d="M 146.097560976 525 L 146.097560976 530"/>
		<text class="x-axis-label" x="181.463414634" y="540">
			20
		</text>
		<path class="x-notch" d="M 216.829268293 525 L 216.829268293 530"/>
		<text class="x-axis-label" x="252.195121951" y="540">
			30
		</text>
		<path class="x-notch" d="M 287.56097561 525 L 287.56097561 530"/>
		<text class="x-axis-label" x="322.926829268" y="540">
			40
		</text>
		<path class="x-notch" d="M 358.292682927 525 L 358.292682927 530"/>
		<text class="x-axis-label" x="393.658536585" y="540">
			50
		</text>
		<path class="x-notch" d="M 429.024390244 525 L 429.024390244 530"/>
		<text class="x-axis-label" x="464.390243902" y="540">
			60
		</text>
		<path class="x-notch" d="M 499.756097561 525 L 499.756097561 530"/>
		<text class="x-axis-label" x="535.12195122" y="540">
			70
		</text>
		<path class="x-notch" d="M 570.487804878 525 L 570.487804878 530"/>
		<text class="x-axis-label" x="605.853658537" y="540">
			80
		</text>
		<path class="x-notch" d="M 641.219512195 525 L 641.219512195 530"/>
	</g>
</svg>
