<?xml version="1.0" ?>
<svg height="600" version="1.1" width="800" xmlns="http://www.w3.org/2000/svg" xmlns:svg="http://www.w3.org/2000/svg">
	<style type="text/css">

.x-axis-path, .y-gridline, .x-notch { fill:none; stroke: #a7a9ac; stroke-width:1; }



.y-gridline { stroke-width: 1; }

.y-axis-path, .y-axis-path2, .x-notch-left, .x-notch-right { display: none;}



.x-axis-label, .data-point-label {font-size: 12px; font-weight:normal; font-family: sans-serif; fill: #58595b; text-anchor:middle;}

.y-axis-label {font-size: 12px; font-family: helvetica; fill: #a7a9ac; text-anchor:end;}



.series-1-line { fill: none; stroke: #10b80c; stroke-width:2; }



.series-2-line { fill: none; stroke: #e90f0a; stroke-width: 2;}
</style>
	<rect fill="white" height="600" width="800" x="0" y="0"/>
	<g id="grid" transform="translate(70, 30)">
		<g class="x-axis" id="x_axis">
			<path class="x-axis-path" d="M 0 525 L 660 525"/>
			<path class="x-notch-left" d="M 0 525, L 0 535"/>
			<path class="x-notch-right" d="M 660 525, L 660 535"/>
		</g>
		<g class="y-axis" id="y_axis">
			<path class="y-axis-path" d="M 0 525 L 0 0"/>
			<path class="y-axis-path-2" d="M 660 525 L 660 0"/>
			<path class="y-gridline" d="M 0 525 L 660 525"/>
			<text class="y-axis-label" x="-5" y="525">-1000</text>
			<path class="y-gridline" d="M 0 420 L 660 420"/>
			<text class="y-axis-label" x="-5" y="420"> 0</text>
			<path class="y-gridline" d="M 0 315 L 660 315"/>
			<text class="y-axis-label" x="-5" y="315">1000</text>
			<path class="y-gridline" d="M 0 210 L 660 210"/>
			<text class="y-axis-label" x="-5" y="210">2000</text>
			<path class="y-gridline" d="M 0 105 L 660 105"/>
			<text class="y-axis-label" x="-5" y="105">3000</text>
			<path class="y-gridline" d="M 0 0 L 660 0"/>
			<text class="y-axis-label" x="-5" y="0">4000</text>
		</g>
		<g>
			<path class="series-1-line" d="M 40 395.437137515 L 46 423.854610079 L 53 439.945522586 L 60 396.487251586 L 67 443.31857732 L 74 414.413653612 L 81 439.295881354 L 88 417.994282353 L 95 419.679651383 L 102 426.682714359 L 109 424.627117899 L 115 428.600434363 L 122 425.623728243 L 129 413.825590124 L 136 422.699135845 L 143 402.109219157 L 150 395.242353729 L 157 450.240882669 L 164 391.932266745 L 171 414.26105619 L 178 379.711787474 L 185 435.008240715 L 191 429.595783347 L 198 435.381665701 L 205 463.174562902 L 212 417.726268768 L 219 411.482125364 L 226 417.920846506 L 233 439.001411895 L 240 422.304434524 L 247 434.296687046 L 254 430.695868898 L 260 427.362858287 L 267 425.247028298 L 274 440.299607431 L 281 450.954212273 L 288 373.814741825 L 295 429.586113276 L 302 431.183448686 L 309 435.304568964 L 316 384.569160983 L 323 430.094345806 L 330 445.293338749 L 336 399.637933942 L 343 412.670836513 L 350 437.908442077 L 357 485.006648678 L 364 439.321127107 L 371 417.128071875 L 378 428.138981209 L 385 406.065003031 L 392 440.541505284 L 399 469.997774556 L 405 386.026895242 L 412 425.166862649 L 419 393.143232139 L 426 439.201252027 L 433 418.138733803 L 440 451.27712504 L 447 405.710680523 L 454 432.969352654 L 461 413.123088383 L 468 435.125690101 L 475 416.229725584 L 481 357.0 L 488 428.661903088 L 495 406.854805778 L 502 408.74913882 L 509 420.147859414 L 516 396.439699259 L 523 424.410980373 L 530 414.930443118 L 537 415.814706211 L 544 434.638830934 L 550 428.988682793 L 557 425.566248558 L 564 428.203307347 L 571 415.306602325 L 578 424.388648724 L 585 409.887878489 L 592 447.987195848 L 599 408.062779664 L 606 402.888476403 L 613 418.860775192 L 620 423.636124263"/>
			<path class="series-2-line" d="M 40 402.856610958 L 46 425.418292117 L 53 383.11309582 L 60 460.116620557 L 67 410.861401676 L 74 476.281555439 L 81 417.759639779 L 88 471.596422567 L 95 372.532708498 L 102 392.777715461 L 109 425.764430497 L 115 421.684358415 L 122 417.604286333 L 129 389.199135205 L 136 343.418927617 L 143 286.055349054 L 150 346.842154427 L 157 243.145091968 L 164 332.890324776 L 171 356.610343032 L 178 308.513461248 L 185 294.00835529 L 191 263.286529968 L 198 337.973380509 L 205 277.134790655 L 212 348.346629904 L 219 311.833119095 L 226 329.761451863 L 233 277.031221691 L 240 425.851646466 L 247 390.496472754 L 254 348.191276458 L 260 354.536238253 L 267 306.439356469 L 274 381.126207011 L 281 238.04568324 L 288 283.774106347 L 295 240.310572953 L 302 245.497197651 L 309 173.075236822 L 316 210.695300246 L 323 229.781970113 L 330 100.601491511 L 336 249.421916286 L 343 322.950429731 L 350 163.653186596 L 357 72.697832209 L 364 180.976458575 L 371 193.113105857 L 378 39.6075482099 L 385 78.385948732 L 392 104.422641183 L 399 55.1674223019 L 405 82.3624518499 L 412 148.94094271 L 419 203.936062596 L 426 49.2721678509 L 433 246.742750718 L 440 119.878946311 L 447 254.799325917 L 454 232.185860277 L 461 284.864305968 L 468 359.55115651 L 475 399.487894129 L 481 452.16633982 L 488 459.669638712 L 495 456.747903728 L 502 460.776191328 L 509 472.91283861 L 516 450.299372969 L 523 406.835839575 L 530 468.780982046 L 537 449.642527697 L 544 477.995894343 L 550 439.165709339 L 557 414.235569503 L 564 437.955587759 L 571 445.458886651 L 578 457.595533933 L 585 444.248765072 L 592 401.943568776 L 599 424.505249934 L 606 447.066931093 L 613 423.295128355 L 620 429.640090149"/>
		</g>
		<text class="x-axis-label" x="40.0" y="540">0</text>
		<path class="x-notch" d="M 74.5238095238 525 L 74.5238095238 530"/>
		<text class="x-axis-label" x="109.047619048" y="540">10</text>
		<path class="x-notch" d="M 143.571428571 525 L 143.571428571 530"/>
		<text class="x-axis-label" x="178.095238095" y="540">20</text>
		<path class="x-notch" d="M 212.619047619 525 L 212.619047619 530"/>
		<text class="x-axis-label" x="247.142857143" y="540">30</text>
		<path class="x-notch" d="M 281.666666667 525 L 281.666666667 530"/>
		<text class="x-axis-label" x="316.19047619" y="540">40</text>
		<path class="x-notch" d="M 350.714285714 525 L 350.714285714 530"/>
		<text class="x-axis-label" x="385.238095238" y="540">50</text>
		<path class="x-notch" d="M 419.761904762 525 L 419.761904762 530"/>
		<text class="x-axis-label" x="454.285714286" y="540">60</text>
		<path class="x-notch" d="M 488.80952381 525 L 488.80952381 530"/>
		<text class="x-axis-label" x="523.333333333" y="540">70</text>
		<path class="x-notch" d="M 557.857142857 525 L 557.857142857 530"/>
		<text class="x-axis-label" x="592.380952381" y="540">80</text>
		<path class="x-notch" d="M 626.904761905 525 L 626.904761905 530"/>
	</g>
</svg>
