<?xml version="1.0" ?>
<svg height="600" version="1.1" width="800" xmlns="http://www.w3.org/2000/svg" xmlns:svg="http://www.w3.org/2000/svg">
	<style type="text/css">
		

.x-axis-path, .y-gridline, .x-notch { fill:none; stroke: #a7a9ac; stroke-width:1; }



.y-gridline { stroke-width: 1; }

.y-axis-path, .y-axis-path2, .x-notch-left, .x-notch-right { display: none;}



.x-axis-label, .data-point-label {font-size: 12px; font-weight:normal; font-family: sans-serif; fill: #58595b; text-anchor:middle;}

.y-axis-label {font-size: 12px; font-family: helvetica; fill: #a7a9ac; text-anchor:end;}



.series-1-line { fill: none; stroke: #10b80c; stroke-width:2; }



.series-2-line { fill: none; stroke: #e90f0a; stroke-width: 2;}

	</style>
	<rect fill="white" height="600" width="800" x="0" y="0"/>
	<g id="grid" transform="translate(70, 30)">
		<g class="x-axis" id="x_axis">
			<path class="x-axis-path" d="M 0 525 L 660 525"/>
			<path class="x-notch-left" d="M 0 525, L 0 535"/>
			<path class="x-notch-right" d="M 660 525, L 660 535"/>
		</g>
		<g class="y-axis" id="y_axis">
			<path class="y-axis-path" d="M 0 525 L 0 0"/>
			<path class="y-axis-path-2" d="M 660 525 L 660 0"/>
			<path class="y-gridline" d="M 0 525 L 660 525"/>
			<text class="y-axis-label" x="-5" y="525">
				-30
			</text>
			<path class="y-gridline" d="M 0 420 L 660 420"/>
			<text class="y-axis-label" x="-5" y="420">
				-20
			</text>
			<path class="y-gridline" d="M 0 315 L 660 315"/>
			<text class="y-axis-label" x="-5" y="315">
				-10
			</text>
			<path class="y-gridline" d="M 0 210 L 660 210"/>
			<text class="y-axis-label" x="-5" y="210">
				 0
			</text>
			<path class="y-gridline" d="M 0 105 L 660 105"/>
			<text class="y-axis-label" x="-5" y="105">
				10
			</text>
			<path class="y-gridline" d="M 0 0 L 660 0"/>
			<text class="y-axis-label" x="-5" y="0">
				20
			</text>
		</g>
		<g>
			<path class="series-1-line" d="M 40 186.09108 L 40 168.718465557 L 41 236.689851115 L 42 185.393836672 L 43 266.28862223 L 44 215.799007787 L 45 92.0781933444 L 46 119.666578902 L 47 45.4847644592 L 48 192.071750017 L 49 159.889935574 L 50 303.784721131 L 51 202.949706689 L 52 231.344492246 L 53 151.778277804 L 54 324.480863361 L 55 150.683448918 L 56 297.001634476 L 57 283.127620033 L 58 334.408205591 L 59 233.841991148 L 60 254.697776705 L 61 266.670562263 L 62 224.25754782 L 63 237.036733378 L 64 265.431518935 L 65 503.288704493 L 66 255.18489005 L 67 284.117275607 L 68 314.666661165 L 69 240.753646722 L 69 334.03423228 L 70 322.852417837 L 71 199.131603394 L 72 350.834188952 L 73 305.460174509 L 74 333.317360067 L 75 369.519945624 L 76 219.145931181 L 77 202.848516739 L 78 233.397902296 L 79 387.792687854 L 80 360.726473411 L 81 336.890058968 L 82 183.555044526 L 83 354.103030083 L 84 381.960215641 L 85 378.855001198 L 86 377.904386755 L 87 377.222572313 L 88 392.15635787 L 89 284.051143428 L 90 479.639528985 L 91 355.381114542 L 92 410.6979001 L 93 399.784885657 L 94 328.295271215 L 95 214.268056772 L 96 345.239442329 L 97 440.943427887 L 98 432.453813444 L 98 251.117399002 L 99 362.436984559 L 100 386.522570116 L 101 343.034355674 L 102 248.121341231 L 103 410.592726789 L 104 304.642112346 L 105 361.038297903 L 106 234.894083461 L 107 367.751269018 L 108 391.030454576 L 109 314.156440133 L 110 402.590225691 L 111 344.830411248 L 112 356.534396805 L 113 361.236982363 L 114 337.13176792 L 115 423.142153478 L 116 354.075939035 L 117 400.509724592 L 118 402.78891015 L 119 428.222695707 L 120 316.887681265 L 121 389.974666822 L 122 423.485052379 L 123 283.611037937 L 124 361.544823494 L 125 332.055209052 L 126 396.796794609 L 127 330.422780166 L 127 264.317565724 L 128 289.751351281 L 129 380.877336839 L 130 330.118922396 L 131 327.282507953 L 132 297.792893511 L 133 231.687679068 L 134 446.390264626 L 135 440.324050183 L 136 384.45003574 L 137 386.460421298 L 138 333.009806855 L 139 316.712392413 L 140 316.29937797 L 141 338.503363527 L 142 359.359149085 L 143 363.792934642 L 144 336.7267202 L 145 430.813705757 L 146 375.208491314 L 147 237.489076872 L 148 300.344862429 L 149 309.894247987 L 150 329.943633544 L 151 358.069619101 L 152 394.272204659 L 153 325.474790216 L 154 303.524175774 L 155 358.572161331 L 156 346.852746889 L 156 377.939732446 L 157 335.257918003 L 158 308.460503561 L 159 368.086489118 L 160 348.828074676 L 161 338.183860233 L 162 390.00204579 L 163 349.474831348 L 164 369.524216905 L 165 321.995602463 L 166 376.50598802 L 167 398.978773577 L 168 201.489159135 L 169 271.883944692 L 170 368.12553025 L 171 285.867115807 L 172 306.454101364 L 173 281.811286922 L 174 273.859272479 L 175 359.332058037 L 176 340.342443594 L 177 381.660629151 L 178 360.247614709 L 179 225.220400266 L 180 358.346385824 L 181 308.394371381 L 182 318.212556938 L 183 354.146342496 L 184 206.464528053 L 185 392.090513611 L 185 412.408699168 L 186 382.919084725 L 187 363.660670283 L 188 371.05545584 L 189 349.104841398 L 190 291.076226955 L 191 308.164612512 L 192 305.59699807 L 193 257.261983627 L 194 314.733369185 L 195 337.206154742 L 196 305.2931403 L 197 388.611325857 L 198 330.045111414 L 199 355.478896972 L 200 294.489282529 L 201 367.307468087 L 202 301.739853644 L 203 376.443839201 L 204 323.530824759 L 205 319.619210316 L 206 232.782795874 L 207 363.216581431 L 208 273.687966988 L 209 303.968552546 L 210 347.978938103 L 211 402.758123661 L 212 375.691909218 L 213 375.010094775 L 214 276.867280333 L 214 297.99186589 L 215 225.964651448 L 216 406.206237005 L 217 285.446422562 L 218 294.99580812 L 219 344.121793677 L 220 219.863379235 L 221 292.681564792 L 222 331.307550349 L 223 299.394535907 L 224 274.214121464 L 225 179.838707022 L 226 276.349092579 L 227 291.551678136 L 228 314.293263694 L 229 447.688049251 L 230 355.198434809 L 231 343.479020366 L 232 264.181605923 L 233 260.538791481 L 234 383.433577038 L 235 327.828362596 L 236 295.377748153 L 237 147.42713371 L 238 354.590719268 L 239 311.908904825 L 240 284.573890383 L 241 373.54527594 L 242 336.247861498 L 243 301.105047055 L 243 308.768632612 L 244 318.31801817 L 245 330.559603727 L 246 432.723189285 L 247 268.888174842 L 248 431.090760399 L 249 327.832345957 L 250 282.995931514 L 251 324.045317072 L 252 362.671302629 L 253 338.566088186 L 254 321.999873744 L 255 363.318059301 L 256 415.136244859 L 257 272.570030416 L 258 301.233615973 L 259 370.822001531 L 260 367.447987088 L 261 209.534972646 L 262 285.045358203 L 263 365.94014376 L 264 262.681729318 L 265 332.807714875 L 266 217.163500433 L 267 276.25188599 L 268 425.262271547 L 269 324.964857105 L 270 282.283042662 L 271 221.02462822 L 272 328.035013777 L 272 274.853199334 L 273 379.171384892 L 274 254.912970449 L 275 380.499956007 L 276 279.664941564 L 277 321.520727121 L 278 252.723312679 L 279 346.272698236 L 280 200.745483794 L 281 323.640269351 L 282 184.303854908 L 283 259.545440466 L 284 245.940226023 L 285 289.681811581 L 286 296.538997138 L 287 299.086982696 L 288 242.944168253 L 289 350.22335381 L 290 241.311739368 L 291 330.283124925 L 292 350.601310483 L 293 255.41949604 L 294 351.929881597 L 295 343.171467155 L 296 334.950652712 L 297 273.69223827 L 298 354.318223827 L 299 314.059809384 L 300 305.838994942 L 301 252.388380499 L 301 254.129966057 L 302 382.677951614 L 303 242.266337171 L 304 341.468922729 L 305 314.940308286 L 306 421.413093844 L 307 436.884479401 L 308 257.433864958 L 309 228.481850516 L 310 340.339036073 L 311 289.311821631 L 312 278.667607188 L 313 408.832592745 L 314 285.111778303 L 315 197.46896386 L 316 223.171549418 L 317 248.605334975 L 318 232.307920532 L 319 336.35730609 L 320 288.559891647 L 321 346.031277205 L 322 394.888462762 L 323 249.630048319 L 324 346.678033877 L 325 240.727419434 L 326 271.814404992 L 327 402.516990549 L 328 159.528776106 L 329 314.461161664 L 330 316.202747221 L 330 247.136532779 L 331 277.954718336 L 332 229.350903894 L 333 281.975489451 L 334 296.640475008 L 335 193.382060566 L 336 297.700246123 L 337 281.402831681 L 338 217.989817238 L 339 246.384602795 L 340 276.933988353 L 341 297.52097391 L 342 312.454759468 L 343 272.196345025 L 344 263.706730582 L 345 309.87171614 L 346 196.650901697 L 347 272.161287255 L 348 308.363872812 L 349 302.566458369 L 350 259.615843927 L 351 282.357429484 L 352 332.021015042 L 353 336.186000599 L 354 235.619786156 L 355 340.475571714 L 356 305.601557271 L 357 244.343142829 L 358 277.853528386 L 359 274.210713943 L 359 242.297699501 L 360 323.461285058 L 361 264.895070616 L 362 241.058656173 L 363 347.80024173 L 364 326.118427288 L 365 167.130212845 L 366 329.063998403 L 367 194.57438396 L 368 283.276969517 L 369 188.363955075 L 370 279.758740632 L 371 373.03932619 L 372 317.434111747 L 373 345.291297304 L 374 379.339282862 L 375 352.541868419 L 376 346.475653977 L 377 232.717239534 L 378 287.227625092 L 379 278.738010649 L 380 246.287396206 L 381 358.682181764 L 382 237.115967321 L 383 302.395152879 L 384 209.367938436 L 385 253.647123993 L 386 232.234109551 L 387 312.322495108 L 388 167.064080666 L 388 279.727666223 L 389 331.54585178 L 390 244.440637338 L 391 348.490022895 L 392 248.192608453 L 393 216.27959401 L 394 267.828979567 L 395 311.839365125 L 396 292.849750682 L 397 330.93813624 L 398 241.409521797 L 399 204.112107354 L 400 253.238092912 L 401 341.940678469 L 402 346.374464027 L 403 322.269249584 L 404 242.703035141 L 405 267.599220699 L 406 304.070606256 L 407 348.349791814 L 408 334.206977371 L 409 257.332962928 L 410 248.843348486 L 411 297.969334043 L 412 279.248519601 L 413 296.605705158 L 414 254.192690715 L 415 293.356276273 L 416 260.36806183 L 417 212.570647388 L 417 259.004432945 L 418 337.744618502 L 419 231.52520406 L 420 272.574589617 L 421 319.814775175 L 422 140.632960732 L 423 310.37454629 L 424 133.347331847 L 425 308.742117404 L 426 313.175902962 L 427 286.378488519 L 428 201.696674077 L 429 319.475859634 L 430 236.948645191 L 431 268.035630749 L 432 330.622616306 L 433 251.056401864 L 434 223.990187421 L 435 296.808372978 L 436 351.049958536 L 437 248.060344093 L 438 307.955129651 L 439 309.965515208 L 440 298.514900765 L 441 279.794086323 L 442 318.42007188 L 443 309.930457438 L 444 314.901842995 L 445 277.066828552 L 446 270.73181411 L 446 246.626599667 L 447 238.136985225 L 448 350.800570782 L 449 200.157756339 L 450 267.591541897 L 451 327.217527454 L 452 352.651313012 L 453 292.199298569 L 454 283.440884126 L 455 303.490269684 L 456 292.577255241 L 457 323.126640799 L 458 333.213626356 L 459 188.224011913 L 460 315.965597471 L 461 215.668183028 L 462 267.217568586 L 463 288.073354143 L 464 318.6227397 L 465 283.748725258 L 466 219.529310815 L 467 219.653896373 L 468 231.62668193 L 469 267.829267488 L 470 217.070853045 L 471 271.850038602 L 472 262.55402416 L 473 278.294209717 L 474 298.074795275 L 475 321.622780832 L 475 238.826766389 L 476 272.874751947 L 477 282.692937504 L 478 174.587723062 L 479 344.060508619 L 480 217.378694176 L 481 253.312479734 L 482 274.437065291 L 483 199.717650849 L 484 225.689036406 L 485 185.430621963 L 486 235.094207521 L 487 249.490393078 L 488 169.924178636 L 489 240.318964193 L 490 297.52154975 L 491 276.108535308 L 492 273.003320865 L 493 253.207306423 L 494 329.25529198 L 495 217.651477537 L 496 259.238463095 L 497 224.902048652 L 498 284.25923421 L 499 233.500819767 L 500 263.781405324 L 501 221.099590882 L 502 163.339776439 L 503 185.543761997 L 504 258.899547554 L 504 229.141133111 L 505 212.843718669 L 506 293.200904226 L 507 322.402089784 L 508 216.182675341 L 509 309.732060899 L 510 283.741046456 L 511 337.713832013 L 512 221.263217571 L 513 291.389203128 L 514 246.552788686 L 515 190.141174243 L 516 168.7281598 L 517 236.161945358 L 518 256.480130915 L 519 216.490516473 L 520 265.88530203 L 521 249.050287587 L 522 308.676273145 L 523 174.186658702 L 524 265.04384426 L 525 238.515229817 L 526 219.525615374 L 527 284.536000932 L 528 239.699586489 L 529 218.017772047 L 530 185.029557604 L 531 282.077543161 L 532 304.550328719 L 533 272.637314276 L 533 166.686699834 L 534 248.119085391 L 535 247.168470948 L 536 251.871056506 L 537 203.804842063 L 538 292.238627621 L 539 236.364613178 L 540 267.182798735 L 541 279.424384293 L 542 268.24256985 L 543 318.174955408 L 544 183.416540965 L 545 250.850326522 L 546 242.36071208 L 547 233.871097637 L 548 322.036083195 L 549 234.930868752 L 550 199.788054309 L 551 262.375039867 L 552 269.232225424 L 553 292.242610982 L 554 330.599796539 L 555 246.455582097 L 556 246.042567654 L 557 276.323153211 L 558 229.063338769 L 559 206.575124326 L 560 311.162109884 L 561 173.711495441 L 562 291.490680998 L 562 267.654266556 L 563 252.973852113 L 564 278.945237671 L 565 277.994623228 L 566 148.620608785 L 567 181.862194343 L 568 242.2945799 L 569 238.920565458 L 570 258.701151015 L 571 306.210136572 L 572 210.49072213 L 573 254.501107687 L 574 285.050493245 L 575 279.521878802 L 576 223.379064359 L 577 259.581649917 L 578 214.476435474 L 579 173.949221032 L 580 188.883006589 L 581 350.816792146 L 582 267.210177704 L 583 365.875163261 L 584 268.001148819 L 585 246.319334376 L 586 224.637519933 L 587 195.147905491 L 588 249.389491048 L 589 280.745276606 L 590 180.179062163 L 591 205.88164772 L 591 267.931033278 L 592 172.480418835 L 593 268.722004393 L 594 247.30898995 L 595 296.703775507 L 596 185.368761065 L 597 184.955746622 L 598 255.35053218 L 599 183.592117737 L 600 261.794703295 L 601 266.228488852 L 602 218.162274409 L 603 269.980459967 L 604 177.222045524 L 605 219.077831082 L 606 210.050616639 L 607 180.561002196 L 608 177.455787754 L 609 250.273973311 L 610 257.668758869 L 611 240.564944426 L 612 229.920729983 L 613 205.277915541 L 614 278.096101098 L 615 191.259686656 L 616 201.615472213 L 617 226.51165777 L 618 209.676643328 L 619 195.802628885 L 620 226.620814443"/>
			<path class="series-2-line" d="M 40 90.3 L 40 237.09733777 L 41 173.894675541 L 42 289.192013311 L 43 257.489351082 L 44 246.786688852 L 45 194.084026622 L 46 288.381364393 L 47 288.178702163 L 48 245.976039933 L 49 245.773377704 L 50 214.070715474 L 51 276.868053245 L 52 245.165391015 L 53 265.962728785 L 54 244.760066556 L 55 223.557404326 L 56 223.354742097 L 57 233.652079867 L 58 317.449417637 L 59 338.246755408 L 60 254.044093178 L 61 327.341430948 L 62 285.138768719 L 63 232.436106489 L 64 200.73344426 L 65 253.03078203 L 66 357.8281198 L 67 242.125457571 L 68 283.922795341 L 69 241.720133111 L 69 325.517470882 L 70 325.314808652 L 71 272.612146423 L 72 251.409484193 L 73 261.706821963 L 74 314.004159734 L 75 292.801497504 L 76 303.098835275 L 77 281.896173045 L 78 323.693510815 L 79 291.990848586 L 80 312.788186356 L 81 239.085524126 L 82 301.882861897 L 83 207.180199667 L 84 259.477537438 L 85 227.774875208 L 86 269.572212978 L 87 269.369550749 L 88 290.166888519 L 89 258.46422629 L 90 352.76156406 L 91 384.05890183 L 92 247.356239601 L 93 205.153577371 L 94 194.450915141 L 95 267.748252912 L 96 204.545590682 L 97 319.842928453 L 98 309.140266223 L 98 235.437603993 L 99 371.734941764 L 100 193.032279534 L 101 318.829617304 L 102 276.626955075 L 103 213.424292845 L 104 255.221630616 L 105 360.018968386 L 106 275.816306156 L 107 328.113643927 L 108 275.410981697 L 109 285.708319468 L 110 306.505657238 L 111 201.302995008 L 112 316.600332779 L 113 295.397670549 L 114 263.695008319 L 115 252.99234609 L 116 273.78968386 L 117 294.587021631 L 118 241.884359401 L 119 262.681697171 L 120 325.479034942 L 121 283.276372712 L 122 272.573710483 L 123 282.871048253 L 124 303.668386023 L 125 292.965723794 L 126 324.263061564 L 127 334.560399334 L 127 302.857737105 L 128 323.655074875 L 129 333.952412646 L 130 365.249750416 L 131 291.547088186 L 132 280.844425957 L 133 249.141763727 L 134 227.939101498 L 135 248.736439268 L 136 259.033777038 L 137 248.331114809 L 138 290.128452579 L 139 268.925790349 L 140 226.72312812 L 141 342.02046589 L 142 257.817803661 L 143 278.615141431 L 144 299.412479201 L 145 257.209816972 L 146 225.507154742 L 147 309.304492512 L 148 225.101830283 L 149 266.899168053 L 150 308.696505824 L 151 318.993843594 L 152 297.791181364 L 153 276.588519135 L 154 318.385856905 L 155 223.683194676 L 156 307.480532446 L 156 265.277870216 L 157 265.075207987 L 158 243.872545757 L 159 254.169883527 L 160 285.467221298 L 161 201.264559068 L 162 201.061896839 L 163 274.359234609 L 164 316.156572379 L 165 252.95391015 L 166 242.25124792 L 167 315.548585691 L 168 304.845923461 L 169 273.143261231 L 170 304.440599002 L 171 335.737936772 L 172 293.535274542 L 173 345.832612313 L 174 251.129950083 L 175 324.427287854 L 176 313.724625624 L 177 313.521963394 L 178 271.319301165 L 179 344.616638935 L 180 354.913976705 L 181 260.211314476 L 182 260.008652246 L 183 280.805990017 L 184 280.603327787 L 185 290.900665557 L 185 290.698003328 L 186 279.995341098 L 187 311.292678869 L 188 279.590016639 L 189 321.387354409 L 190 258.18469218 L 191 352.48202995 L 192 236.77936772 L 193 299.576705491 L 194 236.374043261 L 195 309.671381032 L 196 267.468718802 L 197 267.266056572 L 198 288.063394343 L 199 308.860732113 L 200 298.158069884 L 201 297.955407654 L 202 182.252745424 L 203 297.550083195 L 204 255.347420965 L 205 349.644758735 L 206 275.942096506 L 207 296.739434276 L 208 233.536772047 L 209 317.334109817 L 210 306.631447587 L 211 253.928785358 L 212 274.726123128 L 213 274.523460899 L 214 326.820798669 L 214 200.618136439 L 215 273.91547421 L 216 305.21281198 L 217 200.01014975 L 218 241.807487521 L 219 252.104825291 L 220 283.402163062 L 221 283.199500832 L 222 293.496838602 L 223 251.294176373 L 224 387.591514143 L 225 261.388851913 L 226 250.686189684 L 227 229.483527454 L 228 260.780865225 L 229 229.078202995 L 230 218.375540765 L 231 302.172878536 L 232 280.970216306 L 233 333.267554077 L 234 301.564891847 L 235 269.862229617 L 236 311.659567388 L 237 353.456905158 L 238 279.754242928 L 239 279.551580699 L 240 342.348918469 L 241 279.14625624 L 242 257.94359401 L 243 310.24093178 L 243 236.538269551 L 244 278.335607321 L 245 309.632945092 L 246 235.930282862 L 247 298.727620632 L 248 277.524958403 L 249 308.822296173 L 250 235.119633943 L 251 276.916971714 L 252 287.214309484 L 253 255.511647255 L 254 276.308985025 L 255 276.106322795 L 256 275.903660566 L 257 296.700998336 L 258 222.998336106 L 259 317.295673877 L 260 327.593011647 L 261 285.390349418 L 262 274.687687188 L 263 242.985024958 L 264 274.282362729 L 265 284.579700499 L 266 200.37703827 L 267 294.67437604 L 268 283.97171381 L 269 262.769051581 L 270 262.566389351 L 271 293.863727121 L 272 283.161064892 L 272 282.958402662 L 273 282.755740433 L 274 314.053078203 L 275 271.850415973 L 276 334.647753744 L 277 250.445091514 L 278 229.242429285 L 279 271.039767055 L 280 344.337104825 L 281 312.634442596 L 282 238.931780366 L 283 270.229118136 L 284 238.526455907 L 285 269.823793677 L 286 322.121131448 L 287 227.418469218 L 288 279.715806988 L 289 227.013144759 L 290 321.310482529 L 291 258.1078203 L 292 257.90515807 L 293 257.70249584 L 294 246.999833611 L 295 278.297171381 L 296 225.594509151 L 297 256.891846922 L 298 267.189184692 L 299 298.486522463 L 300 245.783860233 L 301 287.581198003 L 301 318.878535774 L 302 224.175873544 L 303 318.473211314 L 304 297.270549085 L 305 234.067886855 L 306 307.365224626 L 307 244.162562396 L 308 285.959900166 L 309 191.257237937 L 310 243.554575707 L 311 316.851913478 L 312 232.649251248 L 313 295.446589018 L 314 242.743926789 L 315 295.041264559 L 316 273.838602329 L 317 294.6359401 L 318 273.43327787 L 319 315.230615641 L 320 294.027953411 L 321 230.825291181 L 322 283.122628952 L 323 314.419966722 L 324 219.717304493 L 325 261.514642263 L 326 219.311980033 L 327 198.109317804 L 328 323.906655574 L 329 208.203993344 L 330 239.501331115 L 330 260.298668885 L 331 260.096006656 L 332 364.893344426 L 333 238.690682196 L 334 301.488019967 L 335 332.785357737 L 336 332.582695507 L 337 311.380033278 L 338 269.177371048 L 339 237.474708819 L 340 279.272046589 L 341 237.069384359 L 342 257.86672213 L 343 289.1640599 L 344 278.461397671 L 345 341.258735441 L 346 288.556073211 L 347 277.853410982 L 348 256.650748752 L 349 235.448086522 L 350 277.245424293 L 351 308.542762063 L 352 234.840099834 L 353 297.637437604 L 354 318.434775374 L 355 234.232113145 L 356 244.529450915 L 357 275.826788686 L 358 265.124126456 L 359 317.421464226 L 359 275.218801997 L 360 201.516139767 L 361 222.313477537 L 362 148.610815308 L 363 179.908153078 L 364 179.705490849 L 365 305.502828619 L 366 326.300166389 L 367 315.59750416 L 368 294.39484193 L 369 252.1921797 L 370 220.489517471 L 371 304.286855241 L 372 272.584193012 L 373 324.881530782 L 374 230.178868552 L 375 208.976206323 L 376 229.773544093 L 377 261.070881864 L 378 250.368219634 L 379 239.665557404 L 380 281.462895175 L 381 249.760232945 L 382 270.557570715 L 383 217.854908486 L 384 291.152246256 L 385 238.449584027 L 386 196.246921797 L 387 290.544259567 L 388 321.841597338 L 388 248.138935108 L 389 247.936272879 L 390 216.233610649 L 391 258.030948419 L 392 236.82828619 L 393 194.62562396 L 394 236.42296173 L 395 225.720299501 L 396 215.017637271 L 397 309.314975042 L 398 246.112312812 L 399 224.909650582 L 400 235.206988353 L 401 214.004326123 L 402 234.801663894 L 403 203.099001664 L 404 223.896339434 L 405 328.693677205 L 406 265.491014975 L 407 212.788352745 L 408 265.085690516 L 409 275.383028286 L 410 264.680366057 L 411 274.977703827 L 412 222.275041597 L 413 274.572379368 L 414 232.369717138 L 415 158.667054908 L 416 284.464392679 L 417 263.261730449 L 417 284.05906822 L 418 178.85640599 L 419 262.65374376 L 420 304.451081531 L 421 199.248419301 L 422 199.045757072 L 423 230.343094842 L 424 303.640432612 L 425 271.937770383 L 426 292.735108153 L 427 271.532445923 L 428 271.329783694 L 429 218.627121464 L 430 291.924459235 L 431 249.721797005 L 432 207.519134775 L 433 228.316472546 L 434 249.113810316 L 435 248.911148087 L 436 280.208485857 L 437 269.505823627 L 438 237.803161398 L 439 227.100499168 L 440 268.897836938 L 441 216.195174709 L 442 226.492512479 L 443 215.78985025 L 444 152.58718802 L 445 215.38452579 L 446 278.181863561 L 446 246.479201331 L 447 235.776539101 L 448 162.073876872 L 449 214.371214642 L 450 235.168552413 L 451 245.465890183 L 452 266.263227953 L 453 171.560565724 L 454 202.857903494 L 455 244.655241265 L 456 202.452579035 L 457 244.249916805 L 458 202.047254576 L 459 191.344592346 L 460 222.641930116 L 461 201.439267887 L 462 243.236605657 L 463 159.033943428 L 464 200.831281198 L 465 211.128618968 L 466 294.925956739 L 467 168.723294509 L 468 242.02063228 L 469 220.81797005 L 470 252.11530782 L 471 199.412645591 L 472 314.709983361 L 473 209.507321131 L 474 293.304658902 L 475 198.601996672 L 475 313.899334443 L 476 219.196672213 L 477 218.994009983 L 478 187.291347754 L 479 260.588685524 L 480 260.386023295 L 481 281.183361065 L 482 154.980698835 L 483 238.778036606 L 484 175.575374376 L 485 206.872712146 L 486 133.170049917 L 487 237.967387687 L 488 258.764725458 L 489 227.062063228 L 490 205.859400998 L 491 163.656738769 L 492 131.954076539 L 493 247.251414309 L 494 152.54875208 L 495 257.34608985 L 496 215.143427621 L 497 141.440765391 L 498 193.738103161 L 499 225.035440932 L 500 308.832778702 L 501 308.630116473 L 502 203.427454243 L 503 318.724792013 L 504 234.522129784 L 504 265.819467554 L 505 244.616805324 L 506 296.914143095 L 507 139.211480865 L 508 223.008818636 L 509 264.806156406 L 510 117.603494176 L 511 190.900831947 L 512 232.698169717 L 513 242.995507488 L 514 169.292845258 L 515 263.590183028 L 516 221.387520799 L 517 242.184858569 L 518 241.982196339 L 519 231.27953411 L 520 199.57687188 L 521 262.374209651 L 522 272.671547421 L 523 261.968885191 L 524 314.266222962 L 525 251.063560732 L 526 240.360898502 L 527 229.658236273 L 528 155.955574043 L 529 155.752911814 L 530 281.550249584 L 531 186.847587354 L 532 260.144925125 L 533 217.942262895 L 533 259.739600666 L 534 144.036938436 L 535 185.834276206 L 536 164.631613977 L 537 185.428951747 L 538 206.226289517 L 539 216.523627288 L 540 216.320965058 L 541 247.618302829 L 542 247.415640599 L 543 131.712978369 L 544 163.01031614 L 545 183.80765391 L 546 173.104991681 L 547 162.402329451 L 548 225.199667221 L 549 193.497004992 L 550 245.794342762 L 551 203.591680532 L 552 255.889018303 L 553 245.186356073 L 554 297.483693844 L 555 213.281031614 L 556 171.078369384 L 557 254.875707155 L 558 149.673044925 L 559 275.470382696 L 560 233.267720466 L 561 275.065058236 L 562 222.362396007 L 562 148.659733777 L 563 284.957071547 L 564 221.754409318 L 565 263.551747088 L 566 273.849084859 L 567 305.146422629 L 568 189.443760399 L 569 199.74109817 L 570 283.53843594 L 571 136.33577371 L 572 220.133111481 L 573 209.430449251 L 574 251.227787022 L 575 188.025124792 L 576 240.322462562 L 577 219.119800333 L 578 187.417138103 L 579 260.714475874 L 580 281.511813644 L 581 302.309151414 L 582 134.106489185 L 583 196.903826955 L 584 207.201164725 L 585 206.998502496 L 586 206.795840266 L 587 196.093178037 L 588 227.390515807 L 589 143.187853577 L 590 163.985191348 L 591 142.782529118 L 591 184.579866889 L 592 226.377204659 L 593 257.674542429 L 594 215.4718802 L 595 183.76921797 L 596 246.56655574 L 597 204.363893511 L 598 172.661231281 L 599 203.958569052 L 600 182.755906822 L 601 203.553244592 L 602 224.350582363 L 603 224.147920133 L 604 255.445257903 L 605 171.242595674 L 606 244.539933444 L 607 233.837271215 L 608 202.134608985 L 609 201.931946755 L 610 170.229284526 L 611 275.026622296 L 612 190.823960067 L 613 243.121297837 L 614 242.918635607 L 615 169.215973378 L 616 85.0133111481 L 617 189.810648918 L 618 252.607986689 L 619 262.905324459 L 620 262.70266223"/>
		</g>
		<text class="x-axis-label" x="40.0" y="540">
			0
		</text>
		<path class="x-notch" d="M 44.8333333333 525 L 44.8333333333 530"/>
		<text class="x-axis-label" x="49.6666666667" y="540">
			10
		</text>
		<path class="x-notch" d="M 54.5 525 L 54.5 530"/>
		<text class="x-axis-label" x="59.3333333333" y="540">
			20
		</text>
		<path class="x-notch" d="M 64.1666666667 525 L 64.1666666667 530"/>
		<text class="x-axis-label" x="69.0" y="540">
			30
		</text>
		<path class="x-notch" d="M 73.8333333333 525 L 73.8333333333 530"/>
		<text class="x-axis-label" x="78.6666666667" y="540">
			40
		</text>
		<path class="x-notch" d="M 83.5 525 L 83.5 530"/>
		<text class="x-axis-label" x="88.3333333333" y="540">
			50
		</text>
		<path class="x-notch" d="M 93.1666666667 525 L 93.1666666667 530"/>
		<text class="x-axis-label" x="98.0" y="540">
			60
		</text>
		<path class="x-notch" d="M 102.833333333 525 L 102.833333333 530"/>
		<text class="x-axis-label" x="107.666666667" y="540">
			70
		</text>
		<path class="x-notch" d="M 112.5 525 L 112.5 530"/>
		<text class="x-axis-label" x="117.333333333" y="540">
			80
		</text>
		<path class="x-notch" d="M 122.166666667 525 L 122.166666667 530"/>
		<text class="x-axis-label" x="127.0" y="540">
			90
		</text>
		<path class="x-notch" d="M 131.833333333 525 L 131.833333333 530"/>
		<text class="x-axis-label" x="136.666666667" y="540">
			100
		</text>
		<path class="x-notch" d="M 141.5 525 L 141.5 530"/>
		<text class="x-axis-label" x="146.333333333" y="540">
			110
		</text>
		<path class="x-notch" d="M 151.166666667 525 L 151.166666667 530"/>
		<text class="x-axis-label" x="156.0" y="540">
			120
		</text>
		<path class="x-notch" d="M 160.833333333 525 L 160.833333333 530"/>
		<text class="x-axis-label" x="165.666666667" y="540">
			130
		</text>
		<path class="x-notch" d="M 170.5 525 L 170.5 530"/>
		<text class="x-axis-label" x="175.333333333" y="540">
			140
		</text>
		<path class="x-notch" d="M 180.166666667 525 L 180.166666667 530"/>
		<text class="x-axis-label" x="185.0" y="540">
			150
		</text>
		<path class="x-notch" d="M 189.833333333 525 L 189.833333333 530"/>
		<text class="x-axis-label" x="194.666666667" y="540">
			160
		</text>
		<path class="x-notch" d="M 199.5 525 L 199.5 530"/>
		<text class="x-axis-label" x="204.333333333" y="540">
			170
		</text>
		<path class="x-notch" d="M 209.166666667 525 L 209.166666667 530"/>
		<text class="x-axis-label" x="214.0" y="540">
			180
		</text>
		<path class="x-notch" d="M 218.833333333 525 L 218.833333333 530"/>
		<text class="x-axis-label" x="223.666666667" y="540">
			190
		</text>
		<path class="x-notch" d="M 228.5 525 L 228.5 530"/>
		<text class="x-axis-label" x="233.333333333" y="540">
			200
		</text>
		<path class="x-notch" d="M 238.166666667 525 L 238.166666667 530"/>
		<text class="x-axis-label" x="243.0" y="540">
			210
		</text>
		<path class="x-notch" d="M 247.833333333 525 L 247.833333333 530"/>
		<text class="x-axis-label" x="252.666666667" y="540">
			220
		</text>
		<path class="x-notch" d="M 257.5 525 L 257.5 530"/>
		<text class="x-axis-label" x="262.333333333" y="540">
			230
		</text>
		<path class="x-notch" d="M 267.166666667 525 L 267.166666667 530"/>
		<text class="x-axis-label" x="272.0" y="540">
			240
		</text>
		<path class="x-notch" d="M 276.833333333 525 L 276.833333333 530"/>
		<text class="x-axis-label" x="281.666666667" y="540">
			250
		</text>
		<path class="x-notch" d="M 286.5 525 L 286.5 530"/>
		<text class="x-axis-label" x="291.333333333" y="540">
			260
		</text>
		<path class="x-notch" d="M 296.166666667 525 L 296.166666667 530"/>
		<text class="x-axis-label" x="301.0" y="540">
			270
		</text>
		<path class="x-notch" d="M 305.833333333 525 L 305.833333333 530"/>
		<text class="x-axis-label" x="310.666666667" y="540">
			280
		</text>
		<path class="x-notch" d="M 315.5 525 L 315.5 530"/>
		<text class="x-axis-label" x="320.333333333" y="540">
			290
		</text>
		<path class="x-notch" d="M 325.166666667 525 L 325.166666667 530"/>
		<text class="x-axis-label" x="330.0" y="540">
			300
		</text>
		<path class="x-notch" d="M 334.833333333 525 L 334.833333333 530"/>
		<text class="x-axis-label" x="339.666666667" y="540">
			310
		</text>
		<path class="x-notch" d="M 344.5 525 L 344.5 530"/>
		<text class="x-axis-label" x="349.333333333" y="540">
			320
		</text>
		<path class="x-notch" d="M 354.166666667 525 L 354.166666667 530"/>
		<text class="x-axis-label" x="359.0" y="540">
			330
		</text>
		<path class="x-notch" d="M 363.833333333 525 L 363.833333333 530"/>
		<text class="x-axis-label" x="368.666666667" y="540">
			340
		</text>
		<path class="x-notch" d="M 373.5 525 L 373.5 530"/>
		<text class="x-axis-label" x="378.333333333" y="540">
			350
		</text>
		<path class="x-notch" d="M 383.166666667 525 L 383.166666667 530"/>
		<text class="x-axis-label" x="388.0" y="540">
			360
		</text>
		<path class="x-notch" d="M 392.833333333 525 L 392.833333333 530"/>
		<text class="x-axis-label" x="397.666666667" y="540">
			370
		</text>
		<path class="x-notch" d="M 402.5 525 L 402.5 530"/>
		<text class="x-axis-label" x="407.333333333" y="540">
			380
		</text>
		<path class="x-notch" d="M 412.166666667 525 L 412.166666667 530"/>
		<text class="x-axis-label" x="417.0" y="540">
			390
		</text>
		<path class="x-notch" d="M 421.833333333 525 L 421.833333333 530"/>
		<text class="x-axis-label" x="426.666666667" y="540">
			400
		</text>
		<path class="x-notch" d="M 431.5 525 L 431.5 530"/>
		<text class="x-axis-label" x="436.333333333" y="540">
			410
		</text>
		<path class="x-notch" d="M 441.166666667 525 L 441.166666667 530"/>
		<text class="x-axis-label" x="446.0" y="540">
			420
		</text>
		<path class="x-notch" d="M 450.833333333 525 L 450.833333333 530"/>
		<text class="x-axis-label" x="455.666666667" y="540">
			430
		</text>
		<path class="x-notch" d="M 460.5 525 L 460.5 530"/>
		<text class="x-axis-label" x="465.333333333" y="540">
			440
		</text>
		<path class="x-notch" d="M 470.166666667 525 L 470.166666667 530"/>
		<text class="x-axis-label" x="475.0" y="540">
			450
		</text>
		<path class="x-notch" d="M 479.833333333 525 L 479.833333333 530"/>
		<text class="x-axis-label" x="484.666666667" y="540">
			460
		</text>
		<path class="x-notch" d="M 489.5 525 L 489.5 530"/>
		<text class="x-axis-label" x="494.333333333" y="540">
			470
		</text>
		<path class="x-notch" d="M 499.166666667 525 L 499.166666667 530"/>
		<text class="x-axis-label" x="504.0" y="540">
			480
		</text>
		<path class="x-notch" d="M 508.833333333 525 L 508.833333333 530"/>
		<text class="x-axis-label" x="513.666666667" y="540">
			490
		</text>
		<path class="x-notch" d="M 518.5 525 L 518.5 530"/>
		<text class="x-axis-label" x="523.333333333" y="540">
			500
		</text>
		<path class="x-notch" d="M 528.166666667 525 L 528.166666667 530"/>
		<text class="x-axis-label" x="533.0" y="540">
			510
		</text>
		<path class="x-notch" d="M 537.833333333 525 L 537.833333333 530"/>
		<text class="x-axis-label" x="542.666666667" y="540">
			520
		</text>
		<path class="x-notch" d="M 547.5 525 L 547.5 530"/>
		<text class="x-axis-label" x="552.333333333" y="540">
			530
		</text>
		<path class="x-notch" d="M 557.166666667 525 L 557.166666667 530"/>
		<text class="x-axis-label" x="562.0" y="540">
			540
		</text>
		<path class="x-notch" d="M 566.833333333 525 L 566.833333333 530"/>
		<text class="x-axis-label" x="571.666666667" y="540">
			550
		</text>
		<path class="x-notch" d="M 576.5 525 L 576.5 530"/>
		<text class="x-axis-label" x="581.333333333" y="540">
			560
		</text>
		<path class="x-notch" d="M 586.166666667 525 L 586.166666667 530"/>
		<text class="x-axis-label" x="591.0" y="540">
			570
		</text>
		<path class="x-notch" d="M 595.833333333 525 L 595.833333333 530"/>
		<text class="x-axis-label" x="600.666666667" y="540">
			580
		</text>
		<path class="x-notch" d="M 605.5 525 L 605.5 530"/>
		<text class="x-axis-label" x="610.333333333" y="540">
			590
		</text>
		<path class="x-notch" d="M 615.166666667 525 L 615.166666667 530"/>
		<text class="x-axis-label" x="620.0" y="540">
			600
		</text>
	</g>
</svg>
