<?xml version="1.0" ?>
<svg height="600" version="1.1" width="800" xmlns="http://www.w3.org/2000/svg" xmlns:svg="http://www.w3.org/2000/svg">
	<style type="text/css">
		

.x-axis-path, .y-gridline, .x-notch { fill:none; stroke: #a7a9ac; stroke-width:1; }



.y-gridline { stroke-width: 1; }

.y-axis-path, .y-axis-path2, .x-notch-left, .x-notch-right { display: none;}



.x-axis-label, .data-point-label {font-size: 12px; font-weight:normal; font-family: sans-serif; fill: #58595b; text-anchor:middle;}

.y-axis-label {font-size: 12px; font-family: helvetica; fill: #a7a9ac; text-anchor:end;}



.series-1-line { fill: none; stroke: #10b80c; stroke-width:2; }



.series-2-line { fill: none; stroke: #e90f0a; stroke-width: 2;}

	</style>
	<rect fill="white" height="600" width="800" x="0" y="0"/>
	<g id="grid" transform="translate(70, 30)">
		<g class="x-axis" id="x_axis">
			<path class="x-axis-path" d="M 0 525 L 660 525"/>
			<path class="x-notch-left" d="M 0 525, L 0 535"/>
			<path class="x-notch-right" d="M 660 525, L 660 535"/>
		</g>
		<g class="y-axis" id="y_axis">
			<path class="y-axis-path" d="M 0 525 L 0 0"/>
			<path class="y-axis-path-2" d="M 660 525 L 660 0"/>
			<path class="y-gridline" d="M 0 525 L 660 525"/>
			<text class="y-axis-label" x="-5" y="525">
				-300
			</text>
			<path class="y-gridline" d="M 0 420 L 660 420"/>
			<text class="y-axis-label" x="-5" y="420">
				 0
			</text>
			<path class="y-gridline" d="M 0 315 L 660 315"/>
			<text class="y-axis-label" x="-5" y="315">
				300
			</text>
			<path class="y-gridline" d="M 0 210 L 660 210"/>
			<text class="y-axis-label" x="-5" y="210">
				600
			</text>
			<path class="y-gridline" d="M 0 105 L 660 105"/>
			<text class="y-axis-label" x="-5" y="105">
				900
			</text>
			<path class="y-gridline" d="M 0 0 L 660 0"/>
			<text class="y-axis-label" x="-5" y="0">
				1200
			</text>
		</g>
		<g>
			<path class="series-1-line" d="M 40 423.018792 L 44 416.727995367 L 49 418.810178733 L 54 422.4271821 L 59 418.837685467 L 64 417.644148833 L 69 424.2495922 L 74 419.510975567 L 78 418.299518933 L 83 426.5380623 L 88 410.151445667 L 93 432.290869033 L 98 422.9578724 L 103 429.957835767 L 108 416.020799133 L 113 425.3901225 L 117 423.864365867 L 122 417.250449233 L 127 428.2800326 L 132 428.576375967 L 137 438.474759333 L 142 421.5492827 L 147 433.359646067 L 152 430.227669433 L 156 429.7701128 L 161 427.571376167 L 166 431.987359533 L 171 421.0566829 L 176 429.627166267 L 181 412.495329633 L 186 420.895153 L 191 424.978636367 L 195 428.272239733 L 200 435.5508031 L 205 432.517386467 L 210 427.895389833 L 215 432.6612332 L 220 431.386776567 L 225 444.372299933 L 230 435.5864233 L 234 424.144746667 L 239 434.311650033 L 244 425.7326934 L 249 434.832376767 L 254 432.984200133 L 259 430.3464235 L 264 427.285986867 L 269 412.496070233 L 273 428.2737536 L 278 402.526316967 L 283 426.712820333 L 288 422.2705837 L 293 427.233687067 L 298 416.195350433 L 303 415.8903938 L 308 441.062917167 L 312 421.292920533 L 317 428.7509639 L 322 431.057707267 L 327 428.644070633 L 332 432.359494 L 337 412.804677367 L 342 431.587880733 L 347 415.9547441 L 351 417.758327467 L 356 429.137350833 L 361 431.8661942 L 366 426.023957567 L 371 418.109020933 L 376 433.2033643 L 381 421.034807667 L 386 438.687371033 L 390 429.5324544 L 395 418.323457767 L 400 417.022261133 L 405 449.4106645 L 410 399.450647867 L 415 419.238631233 L 420 445.9106946 L 425 441.261817967 L 429 419.337921333 L 434 413.5497247 L 439 436.613988067 L 444 427.702811433 L 449 419.3113148 L 454 425.675118167 L 459 421.450021533 L 464 437.1183649 L 468 430.505568267 L 473 436.410871633 L 478 418.444355 L 483 424.690978367 L 488 442.083421733 L 493 422.7621251 L 498 424.996908467 L 503 412.352211833 L 507 437.8661952 L 512 419.271778567 L 517 418.168121933 L 522 429.4128853 L 527 428.039868667 L 532 429.431152033 L 537 419.1646354 L 542 422.547978767 L 546 428.758482133 L 551 429.8981855 L 556 423.643088867 L 561 431.415152233 L 566 425.7075956 L 571 431.810158967 L 576 420.790022333 L 581 415.7287057 L 585 429.692829067 L 590 429.648272433 L 595 421.3381158 L 600 417.147459167 L 605 417.623142533 L 610 416.0703659 L 615 428.931009267 L 620 420.495272633"/>
			<path class="series-2-line" d="M 40 402.22 L 44 411.42325 L 49 411.1765 L 54 430.87975 L 59 441.833 L 64 433.88625 L 69 451.4895 L 74 423.24275 L 78 418.096 L 83 412.94925 L 88 454.7025 L 93 410.35575 L 98 430.059 L 103 413.36225 L 108 414.1655 L 113 410.06875 L 117 385.672 L 122 390.67525 L 127 386.9285 L 132 392.28175 L 137 346.535 L 142 349.43825 L 147 346.7415 L 152 340.89475 L 156 340.998 L 161 326.05125 L 166 371.3045 L 171 367.20775 L 176 351.211 L 181 359.01425 L 186 328.6675 L 191 330.17075 L 195 318.374 L 200 340.17725 L 205 318.9305 L 210 286.13375 L 215 317.737 L 220 295.09025 L 225 245.4935 L 230 234.39675 L 234 282.8 L 239 167.75325 L 244 206.3565 L 249 162.35975 L 254 202.013 L 259 255.66625 L 264 224.9695 L 269 194.97275 L 273 255.976 L 278 242.77925 L 283 288.7325 L 288 282.53575 L 293 296.989 L 298 296.04225 L 303 299.6455 L 308 232.54875 L 312 269.752 L 317 290.85525 L 322 310.2085 L 327 342.51175 L 332 333.165 L 337 350.41825 L 342 324.6215 L 347 330.67475 L 351 291.928 L 356 233.58125 L 361 282.6845 L 366 276.48775 L 371 307.041 L 376 242.39425 L 381 294.9975 L 386 281.80075 L 390 164.304 L 395 149.00725 L 400 144.2105 L 405 125.41375 L 410 135.667 L 415 75.92025 L 420 88.9735 L 425 60.37675 L 429 92.33 L 434 105.03325 L 439 107.5865 L 444 129.73975 L 449 70.693 L 454 153.39625 L 459 318.3495 L 464 218.70275 L 468 332.906 L 473 336.85925 L 478 338.3625 L 483 371.01575 L 488 371.119 L 493 406.57225 L 498 409.8255 L 503 413.77875 L 507 389.032 L 512 420.28525 L 517 425.6385 L 522 401.94175 L 527 394.695 L 532 406.69825 L 537 408.2015 L 542 396.05475 L 546 407.008 L 551 389.96125 L 556 379.9145 L 561 392.96775 L 566 393.071 L 571 379.87425 L 576 403.4275 L 581 411.93075 L 585 400.834 L 590 418.43725 L 595 415.0405 L 600 437.89375 L 605 428.897 L 610 395.05025 L 615 419.6535 L 620 422.20675"/>
		</g>
		<text class="x-axis-label" x="40.0" y="540">
			0
		</text>
		<path class="x-notch" d="M 64.3697478992 525 L 64.3697478992 530"/>
		<text class="x-axis-label" x="88.7394957983" y="540">
			10
		</text>
		<path class="x-notch" d="M 113.109243697 525 L 113.109243697 530"/>
		<text class="x-axis-label" x="137.478991597" y="540">
			20
		</text>
		<path class="x-notch" d="M 161.848739496 525 L 161.848739496 530"/>
		<text class="x-axis-label" x="186.218487395" y="540">
			30
		</text>
		<path class="x-notch" d="M 210.588235294 525 L 210.588235294 530"/>
		<text class="x-axis-label" x="234.957983193" y="540">
			40
		</text>
		<path class="x-notch" d="M 259.327731092 525 L 259.327731092 530"/>
		<text class="x-axis-label" x="283.697478992" y="540">
			50
		</text>
		<path class="x-notch" d="M 308.067226891 525 L 308.067226891 530"/>
		<text class="x-axis-label" x="332.43697479" y="540">
			60
		</text>
		<path class="x-notch" d="M 356.806722689 525 L 356.806722689 530"/>
		<text class="x-axis-label" x="381.176470588" y="540">
			70
		</text>
		<path class="x-notch" d="M 405.546218487 525 L 405.546218487 530"/>
		<text class="x-axis-label" x="429.915966387" y="540">
			80
		</text>
		<path class="x-notch" d="M 454.285714286 525 L 454.285714286 530"/>
		<text class="x-axis-label" x="478.655462185" y="540">
			90
		</text>
		<path class="x-notch" d="M 503.025210084 525 L 503.025210084 530"/>
		<text class="x-axis-label" x="527.394957983" y="540">
			100
		</text>
		<path class="x-notch" d="M 551.764705882 525 L 551.764705882 530"/>
		<text class="x-axis-label" x="576.134453782" y="540">
			110
		</text>
		<path class="x-notch" d="M 600.504201681 525 L 600.504201681 530"/>
	</g>
</svg>
