<?xml version="1.0" ?>
<svg height="600" version="1.1" width="800" xmlns="http://www.w3.org/2000/svg" xmlns:svg="http://www.w3.org/2000/svg">
	<style type="text/css">
		

.x-axis-path, .y-gridline, .x-notch { fill:none; stroke: #a7a9ac; stroke-width:1; }



.y-gridline { stroke-width: 1; }

.y-axis-path, .y-axis-path2, .x-notch-left, .x-notch-right { display: none;}



.x-axis-label, .data-point-label {font-size: 12px; font-weight:normal; font-family: sans-serif; fill: #58595b; text-anchor:middle;}

.y-axis-label {font-size: 12px; font-family: helvetica; fill: #a7a9ac; text-anchor:end;}



.series-1-line { fill: none; stroke: #10b80c; stroke-width:2; }



.series-2-line { fill: none; stroke: #e90f0a; stroke-width: 2;}

	</style>
	<rect fill="white" height="600" width="800" x="0" y="0"/>
	<g id="grid" transform="translate(70, 30)">
		<g class="x-axis" id="x_axis">
			<path class="x-axis-path" d="M 0 525 L 660 525"/>
			<path class="x-notch-left" d="M 0 525, L 0 535"/>
			<path class="x-notch-right" d="M 660 525, L 660 535"/>
		</g>
		<g class="y-axis" id="y_axis">
			<path class="y-axis-path" d="M 0 525 L 0 0"/>
			<path class="y-axis-path-2" d="M 660 525 L 660 0"/>
			<path class="y-gridline" d="M 0 525 L 660 525"/>
			<text class="y-axis-label" x="-5" y="525">
				-1000
			</text>
			<path class="y-gridline" d="M 0 420 L 660 420"/>
			<text class="y-axis-label" x="-5" y="420">
				 0
			</text>
			<path class="y-gridline" d="M 0 315 L 660 315"/>
			<text class="y-axis-label" x="-5" y="315">
				1000
			</text>
			<path class="y-gridline" d="M 0 210 L 660 210"/>
			<text class="y-axis-label" x="-5" y="210">
				2000
			</text>
			<path class="y-gridline" d="M 0 105 L 660 105"/>
			<text class="y-axis-label" x="-5" y="105">
				3000
			</text>
			<path class="y-gridline" d="M 0 0 L 660 0"/>
			<text class="y-axis-label" x="-5" y="0">
				4000
			</text>
		</g>
		<g>
			<path class="series-1-line" d="M 40 403.238880307 L 46 419.735634637 L 52 427.28252297 L 58 430.473565952 L 64 417.200648386 L 71 397.179306376 L 77 421.956198681 L 83 432.7091206 L 89 401.966903821 L 96 431.051110461 L 102 409.49805492 L 108 400.915846716 L 114 420.14004415 L 121 420.195983493 L 127 430.494953754 L 133 438.974384227 L 139 433.670632817 L 146 399.362879619 L 152 422.057791334 L 158 408.377586548 L 164 423.008136652 L 170 393.917094367 L 177 404.741692863 L 183 413.557107294 L 189 434.600097884 L 195 420.441302617 L 202 435.62211978 L 208 426.942476228 L 214 373.299219592 L 220 413.965539877 L 227 416.653353554 L 233 398.954034006 L 239 417.268834861 L 245 396.720744669 L 252 416.160345151 L 258 389.463748536 L 264 385.858582689 L 270 418.626666765 L 276 414.257324073 L 283 357.0 L 289 416.094293723 L 295 422.923669649 L 301 426.210654717 L 308 416.694784427 L 314 430.199788273 L 320 406.684959736 L 326 398.916206025 L 333 427.569233252 L 339 429.851252972 L 345 415.04699519 L 351 404.717297092 L 358 417.911702435 L 364 414.976637926 L 370 409.242080419 L 376 419.92332576 L 383 418.185110771 L 389 420.108000971 L 395 410.472669718 L 401 410.79216981 L 407 402.377206954 L 414 419.926711017 L 420 407.826004147 L 426 412.237788842 L 432 402.674134166 L 439 399.858903935 L 445 429.517269826 L 451 432.780362702 L 457 404.622609187 L 464 410.517576396 L 470 432.661847736 L 476 426.161620122 L 482 388.096819648 L 489 411.174379759 L 495 416.064754935 L 501 414.278382244 L 507 428.549429514 L 513 422.455742488 L 520 405.736749465 L 526 425.104673369 L 532 419.728872066 L 538 419.785558041 L 545 414.026735026 L 551 414.681472445 L 557 407.58207344 L 563 401.273356681 L 570 408.891921592 L 576 406.866253661 L 582 411.134311885 L 588 419.182936261 L 595 410.218079661 L 601 411.303249861 L 607 436.96489992 L 613 410.530370793 L 620 434.086521385"/>
			<path class="series-2-line" d="M 40 399.467647042 L 46 414.068652003 L 52 441.735699756 L 58 420.871731426 L 64 420.540116055 L 71 417.40863437 L 77 450.675414748 L 83 414.878826085 L 89 409.880766859 L 96 426.348349362 L 102 407.350958574 L 108 439.684450181 L 114 392.688396268 L 121 351.292074981 L 127 386.4254329 L 133 341.295956529 L 139 371.762870594 L 146 377.030987847 L 152 407.497901913 L 158 361.435136771 L 164 412.434403794 L 170 404.636478256 L 177 357.640424343 L 183 405.839825054 L 189 366.310081308 L 195 322.113893708 L 202 360.047117939 L 208 225.32191957 L 214 262.321855031 L 220 255.457218263 L 227 167.396458435 L 233 238.928078416 L 239 188.19886942 L 245 158.002013382 L 252 113.805825782 L 258 242.268060783 L 264 226.070536307 L 270 104.411380729 L 276 244.07308098 L 283 226.008978963 L 289 365.670679214 L 295 432.535855341 L 301 433.13752874 L 308 429.072758285 L 314 400.742479789 L 320 433.075971395 L 326 447.676976357 L 333 422.146564173 L 339 433.947702822 L 345 454.148440408 L 351 431.417894537 L 358 451.618632123 L 364 440.087551501 L 370 464.954732942 L 376 440.357609529 L 383 460.558347115 L 389 455.560287889 L 395 470.16129285 L 401 460.49678977 L 407 466.698195794 L 414 462.633425339 L 420 424.970259135 L 426 432.10495393 L 432 435.506493641 L 439 441.707899665 L 445 441.376284293 L 451 445.711112776 L 457 437.913187237 L 464 395.583577179 L 470 402.718271974 L 476 437.851629893 L 482 446.852902229 L 489 453.987597024 L 495 459.255714277 L 501 450.524499968 L 507 448.326307055 L 513 456.39429062 L 520 447.663076311 L 526 414.666353961 L 532 419.934471214 L 538 451.33467405 L 545 443.536748512 L 551 454.40459839 L 557 400.875523081 L 563 442.541902396 L 570 459.009484899 L 576 451.211559361 L 582 444.346922594 L 588 393.617713598 L 595 449.283424475 L 601 429.352744916 L 607 397.289311337 L 613 411.890316298 L 620 417.158433551"/>
		</g>
		<text class="x-axis-label" x="40.0" y="540">
			0
		</text>
		<path class="x-notch" d="M 71.1827956989 525 L 71.1827956989 530"/>
		<text class="x-axis-label" x="102.365591398" y="540">
			10
		</text>
		<path class="x-notch" d="M 133.548387097 525 L 133.548387097 530"/>
		<text class="x-axis-label" x="164.731182796" y="540">
			20
		</text>
		<path class="x-notch" d="M 195.913978495 525 L 195.913978495 530"/>
		<text class="x-axis-label" x="227.096774194" y="540">
			30
		</text>
		<path class="x-notch" d="M 258.279569892 525 L 258.279569892 530"/>
		<text class="x-axis-label" x="289.462365591" y="540">
			40
		</text>
		<path class="x-notch" d="M 320.64516129 525 L 320.64516129 530"/>
		<text class="x-axis-label" x="351.827956989" y="540">
			50
		</text>
		<path class="x-notch" d="M 383.010752688 525 L 383.010752688 530"/>
		<text class="x-axis-label" x="414.193548387" y="540">
			60
		</text>
		<path class="x-notch" d="M 445.376344086 525 L 445.376344086 530"/>
		<text class="x-axis-label" x="476.559139785" y="540">
			70
		</text>
		<path class="x-notch" d="M 507.741935484 525 L 507.741935484 530"/>
		<text class="x-axis-label" x="538.924731183" y="540">
			80
		</text>
		<path class="x-notch" d="M 570.107526882 525 L 570.107526882 530"/>
		<text class="x-axis-label" x="601.290322581" y="540">
			90
		</text>
		<path class="x-notch" d="M 632.47311828 525 L 632.47311828 530"/>
	</g>
</svg>
