<?xml version="1.0" ?>
<svg height="600" version="1.1" width="800" xmlns="http://www.w3.org/2000/svg" xmlns:svg="http://www.w3.org/2000/svg">
	<style type="text/css">
		

.x-axis-path, .y-gridline, .x-notch { fill:none; stroke: #a7a9ac; stroke-width:1; }



.y-gridline { stroke-width: 1; }

.y-axis-path, .y-axis-path2, .x-notch-left, .x-notch-right { display: none;}



.x-axis-label, .data-point-label {font-size: 12px; font-weight:normal; font-family: sans-serif; fill: #58595b; text-anchor:middle;}

.y-axis-label {font-size: 12px; font-family: helvetica; fill: #a7a9ac; text-anchor:end;}



.series-1-line { fill: none; stroke: #10b80c; stroke-width:2; }



.series-2-line { fill: none; stroke: #e90f0a; stroke-width: 2;}

	</style>
	<rect fill="white" height="600" width="800" x="0" y="0"/>
	<g id="grid" transform="translate(70, 30)">
		<g class="x-axis" id="x_axis">
			<path class="x-axis-path" d="M 0 525 L 660 525"/>
			<path class="x-notch-left" d="M 0 525, L 0 535"/>
			<path class="x-notch-right" d="M 660 525, L 660 535"/>
		</g>
		<g class="y-axis" id="y_axis">
			<path class="y-axis-path" d="M 0 525 L 0 0"/>
			<path class="y-axis-path-2" d="M 660 525 L 660 0"/>
			<path class="y-gridline" d="M 0 525 L 660 525"/>
			<text class="y-axis-label" x="-5" y="525">
				-1000
			</text>
			<path class="y-gridline" d="M 0 420 L 660 420"/>
			<text class="y-axis-label" x="-5" y="420">
				 0
			</text>
			<path class="y-gridline" d="M 0 315 L 660 315"/>
			<text class="y-axis-label" x="-5" y="315">
				1000
			</text>
			<path class="y-gridline" d="M 0 210 L 660 210"/>
			<text class="y-axis-label" x="-5" y="210">
				2000
			</text>
			<path class="y-gridline" d="M 0 105 L 660 105"/>
			<text class="y-axis-label" x="-5" y="105">
				3000
			</text>
			<path class="y-gridline" d="M 0 0 L 660 0"/>
			<text class="y-axis-label" x="-5" y="0">
				4000
			</text>
		</g>
		<g>
			<path class="series-1-line" d="M 40 427.374210065 L 47 415.811075889 L 54 401.75586677 L 61 412.302732388 L 69 436.737207844 L 76 453.19995819 L 83 445.435659502 L 90 419.050265939 L 98 447.221396455 L 105 441.326396866 L 112 430.759121098 L 119 410.913359676 L 127 387.454332479 L 134 406.097284061 L 141 441.741724698 L 148 357.0 L 156 374.022374193 L 163 459.989240428 L 170 400.160492604 L 177 398.249898217 L 185 412.844321033 L 192 362.231878436 L 199 434.247982837 L 206 398.831853761 L 214 409.253386955 L 221 426.587634854 L 228 376.971050666 L 235 420.774729263 L 243 411.079922617 L 250 446.35030912 L 257 397.418681202 L 264 378.758234177 L 272 437.133507313 L 279 383.033131366 L 286 368.542659255 L 293 454.136442926 L 301 432.172660694 L 308 402.859929197 L 315 372.862241429 L 322 403.835377455 L 330 395.947689482 L 337 424.05663957 L 344 422.457918889 L 351 434.37275391 L 359 390.175582599 L 366 412.555189242 L 373 405.3505144 L 380 407.614752772 L 388 367.091084525 L 395 403.796478704 L 402 383.637872006 L 409 384.033782848 L 417 372.406525107 L 424 422.998557554 L 431 356.007401746 L 438 419.181255055 L 446 451.525275192 L 453 410.690704807 L 460 439.299041454 L 467 443.305303363 L 475 430.807519637 L 482 389.599866688 L 489 418.705646753 L 496 411.626304336 L 504 406.290928594 L 511 422.567137658 L 518 383.164660242 L 525 412.021718598 L 533 387.566832993 L 540 400.666010843 L 547 393.836361705 L 554 400.085005278 L 562 395.622098658 L 569 414.265050241 L 576 430.852161442 L 583 392.322153148 L 591 400.439124251 L 598 441.87606033 L 605 423.338031022 L 612 427.718347064 L 620 415.6567979"/>
			<path class="series-2-line" d="M 40 444.289229462 L 47 448.781237577 L 54 368.260942576 L 61 428.618178453 L 69 406.392034161 L 76 396.310504599 L 83 376.513283253 L 90 419.868058507 L 98 383.068376537 L 105 450.712381253 L 112 394.481315714 L 119 459.696397483 L 127 425.32563846 L 134 454.106876037 L 141 388.160118713 L 148 441.230585752 L 156 343.707830128 L 163 289.905687535 L 170 435.275226528 L 177 354.754931528 L 185 351.960170804 L 192 385.599254274 L 199 329.368188735 L 206 360.578349258 L 214 345.638973804 L 221 294.265754157 L 228 267.181763972 L 235 254.671311464 L 243 251.876550741 L 250 149.495949225 L 257 110.267344309 L 264 369.796261772 L 272 167.829819463 L 279 177.179673471 L 286 164.669220963 L 293 169.161229078 L 301 185.797851924 L 308 212.150166555 L 315 250.647095916 L 322 155.553263239 L 330 249.915420362 L 337 222.831430177 L 344 188.460671154 L 351 35.0726877682 L 359 110.003461322 L 366 124.211161222 L 373 16.9727138138 L 380 138.053023345 L 388 113.397956106 L 395 261.196418045 L 402 185.533968937 L 409 313.901047307 L 417 138.652757406 L 424 109.139844275 L 431 235.077999698 L 438 327.011233876 L 446 302.356166637 L 453 326.279558322 L 460 410.92602366 L 467 354.694958121 L 475 315.466353206 L 482 397.683895598 L 489 404.60482666 L 496 372.662990582 L 504 352.865769236 L 511 371.931315028 L 518 361.849785467 L 525 407.633483667 L 533 433.985798297 L 540 380.183655705 L 547 404.107047389 L 554 377.023057204 L 562 410.662140674 L 569 439.443378251 L 576 409.930465119 L 583 453.285240373 L 591 418.91448135 L 598 396.688337057 L 605 447.32988115 L 612 427.532659803 L 620 415.022207296"/>
		</g>
		<text class="x-axis-label" x="40.0" y="540">
			0
		</text>
		<path class="x-notch" d="M 76.25 525 L 76.25 530"/>
		<text class="x-axis-label" x="112.5" y="540">
			10
		</text>
		<path class="x-notch" d="M 148.75 525 L 148.75 530"/>
		<text class="x-axis-label" x="185.0" y="540">
			20
		</text>
		<path class="x-notch" d="M 221.25 525 L 221.25 530"/>
		<text class="x-axis-label" x="257.5" y="540">
			30
		</text>
		<path class="x-notch" d="M 293.75 525 L 293.75 530"/>
		<text class="x-axis-label" x="330.0" y="540">
			40
		</text>
		<path class="x-notch" d="M 366.25 525 L 366.25 530"/>
		<text class="x-axis-label" x="402.5" y="540">
			50
		</text>
		<path class="x-notch" d="M 438.75 525 L 438.75 530"/>
		<text class="x-axis-label" x="475.0" y="540">
			60
		</text>
		<path class="x-notch" d="M 511.25 525 L 511.25 530"/>
		<text class="x-axis-label" x="547.5" y="540">
			70
		</text>
		<path class="x-notch" d="M 583.75 525 L 583.75 530"/>
		<text class="x-axis-label" x="620.0" y="540">
			80
		</text>
	</g>
</svg>
