<?xml version="1.0" ?>
<svg height="600" version="1.1" width="800" xmlns="http://www.w3.org/2000/svg" xmlns:svg="http://www.w3.org/2000/svg">
	<style type="text/css">

.x-axis-path, .y-gridline, .x-notch { fill:none; stroke: #a7a9ac; stroke-width:1; }



.y-gridline { stroke-width: 1; }

.y-axis-path, .y-axis-path2, .x-notch-left, .x-notch-right { display: none;}



.x-axis-label, .data-point-label {font-size: 12px; font-weight:normal; font-family: sans-serif; fill: #58595b; text-anchor:middle;}

.y-axis-label {font-size: 12px; font-family: helvetica; fill: #a7a9ac; text-anchor:end;}



.series-1-line { fill: none; stroke: #10b80c; stroke-width:2; }



.series-2-line { fill: none; stroke: #e90f0a; stroke-width: 2;}
</style>
	<rect fill="white" height="600" width="800" x="0" y="0"/>
	<g id="grid" transform="translate(70, 30)">
		<g class="x-axis" id="x_axis">
			<path class="x-axis-path" d="M 0 525 L 660 525"/>
			<path class="x-notch-left" d="M 0 525, L 0 535"/>
			<path class="x-notch-right" d="M 660 525, L 660 535"/>
		</g>
		<g class="y-axis" id="y_axis">
			<path class="y-axis-path" d="M 0 525 L 0 0"/>
			<path class="y-axis-path-2" d="M 660 525 L 660 0"/>
			<path class="y-gridline" d="M 0 525 L 660 525"/>
			<text class="y-axis-label" x="-5" y="525">-1000</text>
			<path class="y-gridline" d="M 0 420 L 660 420"/>
			<text class="y-axis-label" x="-5" y="420"> 0</text>
			<path class="y-gridline" d="M 0 315 L 660 315"/>
			<text class="y-axis-label" x="-5" y="315">1000</text>
			<path class="y-gridline" d="M 0 210 L 660 210"/>
			<text class="y-axis-label" x="-5" y="210">2000</text>
			<path class="y-gridline" d="M 0 105 L 660 105"/>
			<text class="y-axis-label" x="-5" y="105">3000</text>
			<path class="y-gridline" d="M 0 0 L 660 0"/>
			<text class="y-axis-label" x="-5" y="0">4000</text>
		</g>
		<g>
			<path class="series-1-line" d="M 40 411.191485614 L 47 418.356980218 L 55 419.734471213 L 63 433.89067714 L 70 416.336318525 L 78 404.850028211 L 86 413.665810548 L 94 416.552684456 L 101 407.975228032 L 109 408.624638079 L 117 409.02321137 L 125 410.931603811 L 132 405.84928493 L 140 422.075003151 L 148 434.386359269 L 156 414.175312233 L 163 419.467601569 L 171 417.041098633 L 179 444.927890451 L 186 396.026353412 L 194 408.840691755 L 202 436.502821087 L 210 409.860319633 L 217 456.286783245 L 225 433.866627807 L 233 400.03798048 L 241 397.135542066 L 248 414.815677233 L 256 402.266711549 L 264 392.709901183 L 272 413.913529352 L 279 422.392972318 L 287 453.271046977 L 295 412.590411959 L 302 419.589263709 L 310 386.459033158 L 318 417.365027039 L 326 431.858008575 L 333 418.218448301 L 341 414.283871167 L 349 430.649185495 L 357 444.246570754 L 364 380.132547896 L 372 408.803259105 L 380 439.512945959 L 388 398.274362749 L 395 434.019106707 L 403 438.919654466 L 411 403.384444725 L 418 357.0 L 426 445.930860931 L 434 394.56850626 L 442 395.051273453 L 449 391.199145269 L 457 409.690682811 L 465 412.885104393 L 473 416.583816914 L 480 400.147972111 L 488 389.444728712 L 496 407.516605455 L 504 387.641025315 L 511 410.690375768 L 519 415.031666621 L 527 438.080580836 L 534 446.057477815 L 542 426.881186926 L 550 417.017265124 L 558 443.981413918 L 565 426.482893746 L 573 429.398123113 L 581 422.973064172 L 589 430.614494255 L 596 423.518065285 L 604 417.764376374 L 612 410.920092872 L 620 417.918072147"/>
			<path class="series-2-line" d="M 40 433.087135082 L 47 413.826660623 L 55 446.914726491 L 63 400.389387277 L 70 409.484372162 L 78 407.673411145 L 86 428.764936522 L 94 396.417326981 L 101 451.317284652 L 109 385.161242816 L 117 400.799795242 L 125 393.535861274 L 132 413.53679206 L 140 384.460966289 L 148 413.186653797 L 156 411.37569278 L 163 429.195434387 L 171 375.035933042 L 179 355.775458582 L 186 406.313037893 L 194 399.049103926 L 202 287.088089302 L 210 310.360803859 L 217 248.567140383 L 225 251.118557727 L 233 332.192785563 L 241 224.5941493 L 248 223.873782873 L 256 217.700443496 L 264 212.617698708 L 272 215.169116052 L 279 161.009614707 L 287 57.7733568051 L 295 59.2341795588 L 302 151.214353296 L 310 165.762311132 L 318 58.163674869 L 326 129.422551393 L 333 123.249212016 L 341 262.12495313 L 349 211.237235556 L 357 209.426274539 L 364 251.239097129 L 372 322.497973653 L 380 160.369607882 L 388 291.611186866 L 395 279.984874537 L 403 273.81153516 L 411 280.725330864 L 418 363.98074788 L 426 221.483084732 L 434 273.111258633 L 442 318.195864994 L 449 316.384903977 L 457 359.288321157 L 465 321.487738665 L 473 375.297101746 L 480 380.02970827 L 488 383.671720204 L 496 406.944434761 L 504 395.318122433 L 511 407.684891088 L 519 403.692740891 L 527 373.52632053 L 534 397.889629677 L 542 404.803425382 L 550 447.706842562 L 558 444.805286955 L 565 445.175515118 L 573 450.998716233 L 581 425.194674232 L 589 459.373334691 L 596 410.666806297 L 604 407.76525069 L 612 404.863695083 L 620 411.777490787"/>
		</g>
		<text class="x-axis-label" x="40.0" y="540">0</text>
		<path class="x-notch" d="M 78.6666666667 525 L 78.6666666667 530"/>
		<text class="x-axis-label" x="117.333333333" y="540">10</text>
		<path class="x-notch" d="M 156.0 525 L 156.0 530"/>
		<text class="x-axis-label" x="194.666666667" y="540">20</text>
		<path class="x-notch" d="M 233.333333333 525 L 233.333333333 530"/>
		<text class="x-axis-label" x="272.0" y="540">30</text>
		<path class="x-notch" d="M 310.666666667 525 L 310.666666667 530"/>
		<text class="x-axis-label" x="349.333333333" y="540">40</text>
		<path class="x-notch" d="M 388.0 525 L 388.0 530"/>
		<text class="x-axis-label" x="426.666666667" y="540">50</text>
		<path class="x-notch" d="M 465.333333333 525 L 465.333333333 530"/>
		<text class="x-axis-label" x="504.0" y="540">60</text>
		<path class="x-notch" d="M 542.666666667 525 L 542.666666667 530"/>
		<text class="x-axis-label" x="581.333333333" y="540">70</text>
		<path class="x-notch" d="M 620.0 525 L 620.0 530"/>
	</g>
</svg>
