<?xml version="1.0" ?>
<svg height="600" version="1.1" width="800" xmlns="http://www.w3.org/2000/svg" xmlns:svg="http://www.w3.org/2000/svg">
	<style type="text/css">

.x-axis-path, .y-gridline, .x-notch { fill:none; stroke: #a7a9ac; stroke-width:1; }



.y-gridline { stroke-width: 1; }

.y-axis-path, .y-axis-path2, .x-notch-left, .x-notch-right { display: none;}



.x-axis-label, .data-point-label {font-size: 12px; font-weight:normal; font-family: sans-serif; fill: #58595b; text-anchor:middle;}

.y-axis-label {font-size: 12px; font-family: helvetica; fill: #a7a9ac; text-anchor:end;}



.series-1-line { fill: none; stroke: #10b80c; stroke-width:2; }



.series-2-line { fill: none; stroke: #e90f0a; stroke-width: 2;}
</style>
	<rect fill="white" height="600" width="800" x="0" y="0"/>
	<g id="grid" transform="translate(70, 30)">
		<g class="x-axis" id="x_axis">
			<path class="x-axis-path" d="M 0 525 L 660 525"/>
			<path class="x-notch-left" d="M 0 525, L 0 535"/>
			<path class="x-notch-right" d="M 660 525, L 660 535"/>
		</g>
		<g class="y-axis" id="y_axis">
			<path class="y-axis-path" d="M 0 525 L 0 0"/>
			<path class="y-axis-path-2" d="M 660 525 L 660 0"/>
			<path class="y-gridline" d="M 0 525 L 660 525"/>
			<text class="y-axis-label" x="-5" y="525">-1000</text>
			<path class="y-gridline" d="M 0 438 L 660 438"/>
			<text class="y-axis-label" x="-5" y="438"> 0</text>
			<path class="y-gridline" d="M 0 351 L 660 351"/>
			<text class="y-axis-label" x="-5" y="351">1000</text>
			<path class="y-gridline" d="M 0 264 L 660 264"/>
			<text class="y-axis-label" x="-5" y="264">2000</text>
			<path class="y-gridline" d="M 0 177 L 660 177"/>
			<text class="y-axis-label" x="-5" y="177">3000</text>
			<path class="y-gridline" d="M 0 90 L 660 90"/>
			<text class="y-axis-label" x="-5" y="90">4000</text>
			<path class="y-gridline" d="M 0 3 L 660 3"/>
			<text class="y-axis-label" x="-5" y="3">5000</text>
		</g>
		<g>
			<path class="series-1-line" d="M 40 418.963905887 L 45 453.05823948 L 50 428.049896682 L 55 434.065736698 L 61 451.992984207 L 66 434.053274538 L 71 465.725710431 L 76 418.66094515 L 82 421.796442242 L 87 435.207646948 L 92 448.357466405 L 98 423.545162544 L 103 441.734816339 L 108 441.728585259 L 113 437.860795535 L 119 422.146944629 L 124 445.768510636 L 129 445.827625868 L 134 415.191331921 L 140 439.794113649 L 145 431.08354956 L 150 385.0 L 156 443.899385339 L 161 446.577458245 L 166 401.08100446 L 171 444.470850982 L 177 433.794792343 L 182 409.04885583 L 187 402.105705282 L 192 432.337459195 L 198 425.589326548 L 203 451.306058694 L 208 400.771812643 L 214 419.942682159 L 219 416.533337658 L 224 442.380762428 L 229 464.889399054 L 235 433.533274634 L 240 423.840473788 L 245 448.705661802 L 250 439.011839919 L 256 396.332424817 L 261 451.566290449 L 266 431.271050427 L 272 405.084431935 L 277 433.548772307 L 282 403.30557727 L 287 396.819850908 L 293 487.659288469 L 298 440.726236849 L 303 437.643623909 L 308 465.518826434 L 314 385.858503736 L 319 456.475299704 L 324 449.204396558 L 330 416.931381694 L 335 427.920688699 L 340 440.612062933 L 345 432.032191469 L 351 467.631532318 L 356 411.075215172 L 361 443.531806813 L 366 419.307619763 L 372 434.684319019 L 377 397.569550826 L 382 436.768044034 L 388 460.717362639 L 393 437.344719722 L 398 400.554641018 L 403 437.201564937 L 409 465.470887408 L 414 444.717202164 L 419 449.489420173 L 424 415.055892858 L 430 473.432507698 L 435 419.888247136 L 440 449.596209514 L 446 428.84252427 L 451 408.546263213 L 456 389.624316786 L 461 415.406395245 L 467 430.585013492 L 472 444.978454955 L 477 461.073963647 L 482 432.923892676 L 488 406.99968047 L 493 429.901416005 L 498 431.793291091 L 504 426.551186736 L 509 453.183788291 L 514 426.277339326 L 519 440.997512351 L 525 402.245002206 L 530 445.959538217 L 535 430.834825159 L 540 464.07761462 L 546 414.984050548 L 551 426.562495401 L 556 447.631471083 L 562 442.19332779 L 567 426.806208446 L 572 433.672571558 L 577 445.840154258 L 583 427.180614117 L 588 424.425753774 L 593 449.945425947 L 598 409.42550226 L 604 446.922949276 L 609 460.923291829 L 614 426.948209736 L 620 445.333902468"/>
			<path class="series-2-line" d="M 40 402.274253511 L 45 437.306831002 L 50 434.050553614 L 55 469.083131106 L 61 437.74836014 L 66 426.834311776 L 71 441.446166665 L 76 494.346876434 L 82 480.880237745 L 87 457.203237754 L 92 474.367682969 L 98 440.480321677 L 103 467.855128193 L 108 446.730718528 L 113 430.711489513 L 119 470.849247655 L 124 447.172247665 L 129 415.837476699 L 134 494.26408972 L 140 416.982692899 L 145 459.673041366 L 150 458.969354304 L 156 407.213860735 L 161 465.219751154 L 166 273.071789694 L 171 451.049425402 L 177 302.295499472 L 182 357.748799566 L 187 423.412460961 L 192 363.999196417 L 198 299.480751222 L 203 347.27628034 L 208 344.020002952 L 214 317.790412636 L 219 329.8496772 L 224 357.224483716 L 229 308.021580472 L 235 399.211145121 L 240 395.954867733 L 245 377.383048393 L 250 274.575748318 L 256 340.239409713 L 261 262.958012892 L 266 320.963903311 L 272 302.392083971 L 277 220.005506499 L 282 336.7209744 L 287 330.912106687 L 293 274.051432468 L 298 406.082442321 L 303 367.089900378 L 308 277.04555193 L 314 238.053009988 L 319 349.663297239 L 324 366.827742453 L 330 401.860319945 L 335 357.762597352 L 340 346.848548988 L 345 369.118174853 L 351 368.41448779 L 356 309.001223246 L 361 201.088742521 L 366 75.3081295186 L 372 243.075403926 L 377 436.368581586 L 382 371.85013639 L 388 396.672352581 L 393 337.259088036 L 398 280.398413817 L 403 315.430991309 L 409 363.226520427 L 414 393.153917268 L 419 423.081314108 L 424 396.851723793 L 430 426.779120634 L 435 494.995372354 L 440 417.713975533 L 446 447.641372373 L 451 406.096240106 L 456 349.235565887 L 461 386.820733704 L 467 386.117046641 L 472 408.386672506 L 477 463.8399726 L 482 452.925924236 L 488 493.063682378 L 493 482.149634014 L 498 463.577814675 L 504 462.874127612 L 509 467.2756212 L 514 461.466753487 L 519 432.684572846 L 525 483.032692289 L 530 410.856476118 L 535 458.652005236 L 540 427.31723427 L 546 498.086076316 L 551 461.646124699 L 556 437.969124708 L 562 467.896521549 L 567 456.982473186 L 572 458.831376448 L 577 430.049195807 L 583 431.89809907 L 588 441.404773308 L 593 420.280363643 L 598 447.655170159 L 604 449.504073422 L 609 433.484844407 L 614 435.33374767 L 620 432.077470282"/>
		</g>
		<text class="x-axis-label" x="40.0" y="540">0</text>
		<path class="x-notch" d="M 66.3636363636 525 L 66.3636363636 530"/>
		<text class="x-axis-label" x="92.7272727273" y="540">10</text>
		<path class="x-notch" d="M 119.090909091 525 L 119.090909091 530"/>
		<text class="x-axis-label" x="145.454545455" y="540">20</text>
		<path class="x-notch" d="M 171.818181818 525 L 171.818181818 530"/>
		<text class="x-axis-label" x="198.181818182" y="540">30</text>
		<path class="x-notch" d="M 224.545454545 525 L 224.545454545 530"/>
		<text class="x-axis-label" x="250.909090909" y="540">40</text>
		<path class="x-notch" d="M 277.272727273 525 L 277.272727273 530"/>
		<text class="x-axis-label" x="303.636363636" y="540">50</text>
		<path class="x-notch" d="M 330.0 525 L 330.0 530"/>
		<text class="x-axis-label" x="356.363636364" y="540">60</text>
		<path class="x-notch" d="M 382.727272727 525 L 382.727272727 530"/>
		<text class="x-axis-label" x="409.090909091" y="540">70</text>
		<path class="x-notch" d="M 435.454545455 525 L 435.454545455 530"/>
		<text class="x-axis-label" x="461.818181818" y="540">80</text>
		<path class="x-notch" d="M 488.181818182 525 L 488.181818182 530"/>
		<text class="x-axis-label" x="514.545454545" y="540">90</text>
		<path class="x-notch" d="M 540.909090909 525 L 540.909090909 530"/>
		<text class="x-axis-label" x="567.272727273" y="540">100</text>
		<path class="x-notch" d="M 593.636363636 525 L 593.636363636 530"/>
		<text class="x-axis-label" x="620.0" y="540">110</text>
	</g>
</svg>
