<?xml version="1.0" ?>
<svg height="600" version="1.1" width="800" xmlns="http://www.w3.org/2000/svg" xmlns:svg="http://www.w3.org/2000/svg">
	<style type="text/css">
		

.x-axis-path, .y-gridline, .x-notch { fill:none; stroke: #a7a9ac; stroke-width:1; }



.y-gridline { stroke-width: 1; }

.y-axis-path, .y-axis-path2, .x-notch-left, .x-notch-right { display: none;}



.x-axis-label, .data-point-label {font-size: 12px; font-weight:normal; font-family: sans-serif; fill: #58595b; text-anchor:middle;}

.y-axis-label {font-size: 12px; font-family: helvetica; fill: #a7a9ac; text-anchor:end;}



.series-1-line { fill: none; stroke: #10b80c; stroke-width:2; }



.series-2-line { fill: none; stroke: #e90f0a; stroke-width: 2;}

	</style>
	<rect fill="white" height="600" width="800" x="0" y="0"/>
	<g id="grid" transform="translate(70, 30)">
		<g class="x-axis" id="x_axis">
			<path class="x-axis-path" d="M 0 525 L 660 525"/>
			<path class="x-notch-left" d="M 0 525, L 0 535"/>
			<path class="x-notch-right" d="M 660 525, L 660 535"/>
		</g>
		<g class="y-axis" id="y_axis">
			<path class="y-axis-path" d="M 0 525 L 0 0"/>
			<path class="y-axis-path-2" d="M 660 525 L 660 0"/>
			<path class="y-gridline" d="M 0 525 L 660 525"/>
			<text class="y-axis-label" x="-5" y="525">
				-90
			</text>
			<path class="y-gridline" d="M 0 438 L 660 438"/>
			<text class="y-axis-label" x="-5" y="438">
				-60
			</text>
			<path class="y-gridline" d="M 0 351 L 660 351"/>
			<text class="y-axis-label" x="-5" y="351">
				-30
			</text>
			<path class="y-gridline" d="M 0 264 L 660 264"/>
			<text class="y-axis-label" x="-5" y="264">
				 0
			</text>
			<path class="y-gridline" d="M 0 177 L 660 177"/>
			<text class="y-axis-label" x="-5" y="177">
				30
			</text>
			<path class="y-gridline" d="M 0 90 L 660 90"/>
			<text class="y-axis-label" x="-5" y="90">
				60
			</text>
			<path class="y-gridline" d="M 0 3 L 660 3"/>
			<text class="y-axis-label" x="-5" y="3">
				90
			</text>
		</g>
		<g>
			<path class="series-1-line" d="M 40 248.9788 L 46 206.498082609 L 52 287.040031884 L 59 271.631814493 L 65 297.580763768 L 71 236.628213043 L 78 315.599828986 L 84 215.458944928 L 90 265.039894203 L 97 270.870843478 L 103 258.379292754 L 110 251.197242029 L 116 221.878857971 L 122 198.169807246 L 129 246.628423188 L 135 193.004872464 L 141 259.412655072 L 148 229.421104348 L 154 239.664386957 L 161 298.518002899 L 167 272.939952174 L 173 310.330401449 L 180 253.266350725 L 186 229.1828 L 192 280.708582609 L 199 253.857698551 L 205 194.624814493 L 212 263.201430435 L 218 274.641713043 L 224 247.864328986 L 231 207.926944928 L 237 251.823894203 L 243 187.729510145 L 250 229.608126087 L 256 245.534242029 L 263 307.604357971 L 269 194.151807246 L 275 278.656923188 L 282 284.862372464 L 288 277.530988406 L 294 196.536271014 L 301 298.168053623 L 307 202.140836232 L 314 244.991285507 L 320 275.276734783 L 326 201.311184058 L 333 222.323966667 L 339 234.437415942 L 345 226.581031884 L 352 276.685814493 L 358 195.689930435 L 365 225.976546377 L 371 256.861662319 L 377 304.647111594 L 384 281.835227536 L 390 241.075343478 L 396 246.607626087 L 403 235.087908696 L 409 238.750024638 L 416 249.367807246 L 422 256.097089855 L 428 240.53953913 L 435 264.468988406 L 441 224.157104348 L 447 212.33872029 L 454 262.143669565 L 460 186.009285507 L 467 180.397568116 L 473 254.807517391 L 479 277.466466667 L 486 236.031082609 L 492 262.802531884 L 498 167.897647826 L 505 210.298930435 L 511 268.704546377 L 518 215.080995652 L 524 270.719278261 L 530 305.716894203 L 537 298.534843478 L 543 247.454626087 L 549 240.420742029 L 556 161.893524638 L 562 216.261307246 L 569 271.749089855 L 575 238.616872464 L 581 276.756321739 L 588 238.089437681 L 594 225.672553623 L 600 258.201502899 L 607 269.416618841 L 613 265.749734783 L 620 294.615350725"/>
			<path class="series-2-line" d="M 40 278.833333333 L 46 297.474637681 L 52 234.449275362 L 59 238.507246377 L 65 274.648550725 L 71 331.206521739 L 78 285.68115942 L 84 313.072463768 L 90 302.547101449 L 97 292.02173913 L 103 296.079710145 L 110 268.054347826 L 116 280.862318841 L 122 328.670289855 L 129 265.644927536 L 135 316.369565217 L 141 297.094202899 L 148 301.152173913 L 154 284.793478261 L 161 192.601449275 L 167 304.576086957 L 173 261.967391304 L 180 280.608695652 L 186 273.0 L 192 300.391304348 L 199 269.449275362 L 205 285.173913043 L 212 268.815217391 L 218 293.289855072 L 224 136.93115942 L 231 213.905797101 L 237 180.047101449 L 243 157.855072464 L 250 211.496376812 L 256 104.721014493 L 263 79.6123188406 L 269 136.170289855 L 275 23.5615942029 L 282 68.4528985507 L 288 63.7608695652 L 294 175.735507246 L 301 121.460144928 L 307 189.684782609 L 314 205.40942029 L 320 133.634057971 L 326 172.692028986 L 333 182.583333333 L 339 215.807971014 L 345 65.2826086957 L 352 86.8405797101 L 358 85.0652173913 L 365 127.039855072 L 371 189.43115942 L 377 117.655797101 L 384 139.213768116 L 390 230.77173913 L 396 266.913043478 L 403 233.054347826 L 409 219.612318841 L 416 258.670289855 L 422 335.644927536 L 428 363.036231884 L 435 372.927536232 L 441 394.485507246 L 447 407.293478261 L 454 361.768115942 L 460 397.90942029 L 467 352.384057971 L 473 336.025362319 L 479 430.5 L 486 285.807971014 L 492 307.365942029 L 498 428.09057971 L 505 400.065217391 L 511 377.873188406 L 518 428.597826087 L 524 383.072463768 L 530 372.547101449 L 537 344.52173913 L 543 453.579710145 L 549 288.471014493 L 556 356.695652174 L 562 395.753623188 L 569 259.811594203 L 575 298.869565217 L 581 367.094202899 L 588 359.485507246 L 594 351.876811594 L 600 271.351449275 L 607 217.076086957 L 613 209.467391304 L 620 245.608695652"/>
		</g>
		<text class="x-axis-label" x="40.0" y="540">
			0
		</text>
		<path class="x-notch" d="M 71.8681318681 525 L 71.8681318681 530"/>
		<text class="x-axis-label" x="103.736263736" y="540">
			10
		</text>
		<path class="x-notch" d="M 135.604395604 525 L 135.604395604 530"/>
		<text class="x-axis-label" x="167.472527473" y="540">
			20
		</text>
		<path class="x-notch" d="M 199.340659341 525 L 199.340659341 530"/>
		<text class="x-axis-label" x="231.208791209" y="540">
			30
		</text>
		<path class="x-notch" d="M 263.076923077 525 L 263.076923077 530"/>
		<text class="x-axis-label" x="294.945054945" y="540">
			40
		</text>
		<path class="x-notch" d="M 326.813186813 525 L 326.813186813 530"/>
		<text class="x-axis-label" x="358.681318681" y="540">
			50
		</text>
		<path class="x-notch" d="M 390.549450549 525 L 390.549450549 530"/>
		<text class="x-axis-label" x="422.417582418" y="540">
			60
		</text>
		<path class="x-notch" d="M 454.285714286 525 L 454.285714286 530"/>
		<text class="x-axis-label" x="486.153846154" y="540">
			70
		</text>
		<path class="x-notch" d="M 518.021978022 525 L 518.021978022 530"/>
		<text class="x-axis-label" x="549.89010989" y="540">
			80
		</text>
		<path class="x-notch" d="M 581.758241758 525 L 581.758241758 530"/>
		<text class="x-axis-label" x="613.626373626" y="540">
			90
		</text>
		<path class="x-notch" d="M 645.494505495 525 L 645.494505495 530"/>
	</g>
</svg>
