<?xml version="1.0" ?>
<svg height="600" version="1.1" width="800" xmlns="http://www.w3.org/2000/svg" xmlns:svg="http://www.w3.org/2000/svg">
	<style type="text/css">

.x-axis-path, .y-gridline, .x-notch { fill:none; stroke: #a7a9ac; stroke-width:1; }



.y-gridline { stroke-width: 1; }

.y-axis-path, .y-axis-path2, .x-notch-left, .x-notch-right { display: none;}



.x-axis-label, .data-point-label {font-size: 12px; font-weight:normal; font-family: sans-serif; fill: #58595b; text-anchor:middle;}

.y-axis-label {font-size: 12px; font-family: helvetica; fill: #a7a9ac; text-anchor:end;}



.series-1-line { fill: none; stroke: #10b80c; stroke-width:2; }



.series-2-line { fill: none; stroke: #e90f0a; stroke-width: 2;}
</style>
	<rect fill="white" height="600" width="800" x="0" y="0"/>
	<g id="grid" transform="translate(70, 30)">
		<g class="x-axis" id="x_axis">
			<path class="x-axis-path" d="M 0 525 L 660 525"/>
			<path class="x-notch-left" d="M 0 525, L 0 535"/>
			<path class="x-notch-right" d="M 660 525, L 660 535"/>
		</g>
		<g class="y-axis" id="y_axis">
			<path class="y-axis-path" d="M 0 525 L 0 0"/>
			<path class="y-axis-path-2" d="M 660 525 L 660 0"/>
			<path class="y-gridline" d="M 0 525 L 660 525"/>
			<text class="y-axis-label" x="-5" y="525">-1000</text>
			<path class="y-gridline" d="M 0 438 L 660 438"/>
			<text class="y-axis-label" x="-5" y="438"> 0</text>
			<path class="y-gridline" d="M 0 351 L 660 351"/>
			<text class="y-axis-label" x="-5" y="351">1000</text>
			<path class="y-gridline" d="M 0 264 L 660 264"/>
			<text class="y-axis-label" x="-5" y="264">2000</text>
			<path class="y-gridline" d="M 0 177 L 660 177"/>
			<text class="y-axis-label" x="-5" y="177">3000</text>
			<path class="y-gridline" d="M 0 90 L 660 90"/>
			<text class="y-axis-label" x="-5" y="90">4000</text>
			<path class="y-gridline" d="M 0 3 L 660 3"/>
			<text class="y-axis-label" x="-5" y="3">5000</text>
		</g>
		<g>
			<path class="series-1-line" d="M 40 448.175711312 L 47 427.655098273 L 54 421.863762331 L 61 449.346691906 L 68 440.270107693 L 75 428.110109935 L 82 424.640908363 L 89 437.758898394 L 96 444.54083068 L 103 439.214232127 L 110 461.621277167 L 117 443.522163286 L 124 452.095249362 L 131 411.503466877 L 139 428.934509693 L 146 437.2757446 L 153 422.693730158 L 160 447.754643051 L 167 425.87397449 L 174 458.66463977 L 181 441.395118356 L 188 469.938974042 L 195 443.214272116 L 202 453.47966472 L 209 440.157823489 L 216 448.199928985 L 223 443.171942317 L 230 449.29040764 L 238 465.028626403 L 245 445.537370455 L 252 421.963877841 L 259 426.42419328 L 266 431.414454251 L 273 441.182505396 L 280 421.391602512 L 287 457.035382743 L 294 419.097985635 L 301 426.675871267 L 308 456.514056809 L 315 443.35834108 L 322 430.932335506 L 330 431.775669195 L 337 431.889292729 L 344 425.699462589 L 351 432.017175011 L 358 432.694900721 L 365 440.505155047 L 372 448.813268358 L 379 443.154936323 L 386 427.245470431 L 393 397.03782571 L 400 444.192395484 L 407 453.662352268 L 414 399.071002841 L 421 406.948017884 L 429 453.372877503 L 436 460.884519944 L 443 454.959662569 L 450 405.147138366 L 457 415.445652566 L 464 434.169472663 L 471 444.467469339 L 478 385.0 L 485 404.155953416 L 492 449.618216661 L 499 440.575789095 L 506 474.163960295 L 513 430.32160371 L 520 411.26041098 L 528 469.79483649 L 535 416.928915186 L 542 453.037432807 L 549 425.120870962 L 556 450.580795577 L 563 440.708775543 L 570 426.02687879 L 577 432.111704992 L 584 440.287331921 L 591 427.99381273 L 598 439.253888254 L 605 421.918123648 L 612 452.619023252 L 620 445.998094843"/>
			<path class="series-2-line" d="M 40 447.332973712 L 47 467.008273997 L 54 459.51351534 L 61 458.487818336 L 68 357.838571877 L 75 435.735427038 L 82 419.183982067 L 89 388.40060146 L 96 387.374904455 L 103 408.344017071 L 110 391.7925721 L 117 386.885438104 L 124 358.689682157 L 131 330.493926211 L 139 333.349666198 L 146 341.380655508 L 153 393.401264058 L 160 366.499320442 L 167 396.525119372 L 174 374.798425078 L 181 391.886100702 L 188 326.169787169 L 195 304.443092875 L 202 315.061706846 L 209 321.798883826 L 216 275.489755251 L 223 300.340304858 L 230 301.902232515 L 238 215.484921693 L 245 327.020897449 L 252 267.773645569 L 259 326.263315771 L 266 301.948996816 L 273 339.737669729 L 280 346.474846709 L 287 333.804838729 L 294 345.717265031 L 301 321.402946076 L 308 306.145313436 L 315 337.464924696 L 322 355.84641265 L 330 322.475407381 L 337 302.042525419 L 344 255.733396844 L 351 276.70250946 L 358 269.207750803 L 365 259.125367484 L 372 272.331606116 L 379 294.594531063 L 386 301.331708042 L 393 318.419383666 L 400 225.53301119 L 407 309.898928004 L 414 295.935107694 L 421 325.960906624 L 429 246.012657454 L 436 232.048837144 L 443 144.337713991 L 450 293.394247334 L 457 298.837611983 L 464 200.775990185 L 471 155.760673941 L 478 196.136971516 L 485 182.173151206 L 492 50.4724088129 L 499 45.565274817 L 506 151.926001251 L 513 176.776550858 L 520 170.575604531 L 528 169.549907527 L 535 189.225207812 L 542 205.019071106 L 549 420.060033308 L 556 482.431140502 L 563 455.529196886 L 570 472.61687251 L 577 428.895368597 L 584 462.802604518 L 591 460.483095183 L 598 416.76159127 L 605 444.199765538 L 612 445.761693195 L 620 416.272124918"/>
		</g>
		<text class="x-axis-label" x="40.0" y="540">0</text>
		<path class="x-notch" d="M 75.3658536585 525 L 75.3658536585 530"/>
		<text class="x-axis-label" x="110.731707317" y="540">10</text>
		<path class="x-notch" d="M 146.097560976 525 L 146.097560976 530"/>
		<text class="x-axis-label" x="181.463414634" y="540">20</text>
		<path class="x-notch" d="M 216.829268293 525 L 216.829268293 530"/>
		<text class="x-axis-label" x="252.195121951" y="540">30</text>
		<path class="x-notch" d="M 287.56097561 525 L 287.56097561 530"/>
		<text class="x-axis-label" x="322.926829268" y="540">40</text>
		<path class="x-notch" d="M 358.292682927 525 L 358.292682927 530"/>
		<text class="x-axis-label" x="393.658536585" y="540">50</text>
		<path class="x-notch" d="M 429.024390244 525 L 429.024390244 530"/>
		<text class="x-axis-label" x="464.390243902" y="540">60</text>
		<path class="x-notch" d="M 499.756097561 525 L 499.756097561 530"/>
		<text class="x-axis-label" x="535.12195122" y="540">70</text>
		<path class="x-notch" d="M 570.487804878 525 L 570.487804878 530"/>
		<text class="x-axis-label" x="605.853658537" y="540">80</text>
		<path class="x-notch" d="M 641.219512195 525 L 641.219512195 530"/>
	</g>
</svg>
