<?xml version="1.0" ?>
<svg height="600" version="1.1" width="800" xmlns="http://www.w3.org/2000/svg" xmlns:svg="http://www.w3.org/2000/svg">
	<style type="text/css">
		

.x-axis-path, .y-gridline, .x-notch { fill:none; stroke: #a7a9ac; stroke-width:1; }



.y-gridline { stroke-width: 1; }

.y-axis-path, .y-axis-path2, .x-notch-left, .x-notch-right { display: none;}



.x-axis-label, .data-point-label {font-size: 12px; font-weight:normal; font-family: sans-serif; fill: #58595b; text-anchor:middle;}

.y-axis-label {font-size: 12px; font-family: helvetica; fill: #a7a9ac; text-anchor:end;}



.series-1-line { fill: none; stroke: #10b80c; stroke-width:2; }



.series-2-line { fill: none; stroke: #e90f0a; stroke-width: 2;}

	</style>
	<rect fill="white" height="600" width="800" x="0" y="0"/>
	<g id="grid" transform="translate(70, 30)">
		<g class="x-axis" id="x_axis">
			<path class="x-axis-path" d="M 0 525 L 660 525"/>
			<path class="x-notch-left" d="M 0 525, L 0 535"/>
			<path class="x-notch-right" d="M 660 525, L 660 535"/>
		</g>
		<g class="y-axis" id="y_axis">
			<path class="y-axis-path" d="M 0 525 L 0 0"/>
			<path class="y-axis-path-2" d="M 660 525 L 660 0"/>
			<path class="y-gridline" d="M 0 525 L 660 525"/>
			<text class="y-axis-label" x="-5" y="525">
				-1000
			</text>
			<path class="y-gridline" d="M 0 420 L 660 420"/>
			<text class="y-axis-label" x="-5" y="420">
				 0
			</text>
			<path class="y-gridline" d="M 0 315 L 660 315"/>
			<text class="y-axis-label" x="-5" y="315">
				1000
			</text>
			<path class="y-gridline" d="M 0 210 L 660 210"/>
			<text class="y-axis-label" x="-5" y="210">
				2000
			</text>
			<path class="y-gridline" d="M 0 105 L 660 105"/>
			<text class="y-axis-label" x="-5" y="105">
				3000
			</text>
			<path class="y-gridline" d="M 0 0 L 660 0"/>
			<text class="y-axis-label" x="-5" y="0">
				4000
			</text>
		</g>
		<g>
			<path class="series-1-line" d="M 40 453.009280059 L 44 407.280029923 L 49 418.771030807 L 53 412.841954924 L 58 407.293732462 L 63 442.81618746 L 67 419.847888231 L 72 448.059742805 L 76 392.285483702 L 81 423.294230584 L 86 421.815387248 L 90 415.758368419 L 95 419.366496942 L 99 427.10549655 L 104 446.797739451 L 109 461.149108213 L 113 397.173607092 L 118 471.605594752 L 122 451.689081915 L 127 394.643327799 L 132 452.227510627 L 136 428.940841742 L 141 434.010891989 L 145 465.21006558 L 150 386.103575439 L 155 398.802595767 L 159 448.248020343 L 164 444.35313812 L 168 430.476722501 L 173 445.782208425 L 178 398.654512135 L 182 435.067608726 L 187 430.409036051 L 191 433.825746058 L 196 432.855699089 L 201 466.851764988 L 205 398.744400977 L 210 477.817047893 L 214 438.891585426 L 219 407.467150093 L 224 411.074286811 L 228 457.405441229 L 233 454.527159934 L 237 432.639929007 L 242 460.850791776 L 247 415.439911296 L 251 406.90337801 L 256 411.655058601 L 260 423.526912906 L 265 499.230395578 L 270 469.333341151 L 274 423.413664304 L 279 445.267052006 L 283 432.534188454 L 288 483.631961464 L 293 389.520441637 L 297 425.616160378 L 302 357.0 L 306 414.967019861 L 311 424.549786419 L 316 358.731510154 L 320 430.874410067 L 325 434.291120074 L 330 428.043674535 L 334 432.54046104 L 339 415.801693931 L 343 419.790675875 L 348 444.949752251 L 353 455.297201067 L 357 404.863816104 L 362 456.853222512 L 366 413.731429779 L 371 416.639343419 L 376 433.788596294 L 380 419.594802824 L 385 450.348655619 L 389 428.779794349 L 394 434.357649157 L 399 433.704980038 L 403 440.999650655 L 408 477.539698387 L 412 410.893264294 L 417 481.129913492 L 422 435.845984152 L 426 450.83310042 L 431 409.10975384 L 435 418.947414485 L 440 464.32445174 L 445 434.935201873 L 449 403.12991312 L 454 424.474504455 L 458 447.790805686 L 463 464.304311054 L 468 473.379273052 L 472 429.493789865 L 477 398.959996125 L 481 422.339772927 L 486 407.382289004 L 491 447.927248486 L 495 463.868481917 L 500 422.081659767 L 504 455.316018825 L 509 443.600748006 L 514 452.675710003 L 518 414.511954377 L 523 391.035850587 L 527 415.877549112 L 532 424.634141453 L 537 435.107549604 L 541 432.992958762 L 546 391.460038892 L 550 429.907329144 L 555 422.197961881 L 560 464.396261602 L 564 393.491013478 L 569 391.05805298 L 573 413.293285907 L 578 446.908498386 L 583 430.997889106 L 587 408.538386243 L 592 429.565599728 L 596 432.854366789 L 601 408.233719126 L 606 391.241049737 L 610 437.572204155 L 615 423.186992169 L 620 440.97199255"/>
			<path class="series-2-line" d="M 40 415.040971087 L 44 380.382435153 L 49 412.670789551 L 53 454.877201775 L 58 437.575267039 L 63 395.478187735 L 67 388.094310826 L 72 422.86217968 L 76 408.0397594 L 81 393.21733912 L 86 418.067150148 L 90 383.408614214 L 95 485.1233734 L 99 425.669692899 L 104 435.642417187 L 109 408.422424623 L 113 415.915634454 L 118 396.134185261 L 122 396.188851721 L 127 386.325460355 L 132 383.900612359 L 136 329.405960771 L 141 396.407517563 L 145 351.830923803 L 150 398.996364941 L 155 436.243748252 L 159 349.515408727 L 164 364.447161928 L 168 389.296972956 L 173 406.708240613 L 178 396.844849247 L 182 409.297087991 L 187 349.84340749 L 191 384.611276345 L 196 426.817688569 L 201 332.650805675 L 205 404.61139138 L 210 337.719167509 L 214 402.241209844 L 219 360.14413054 L 224 365.157825914 L 228 377.610064658 L 233 330.553956441 L 237 347.965224099 L 242 286.032029141 L 247 298.484267885 L 251 263.825731952 L 256 283.716514066 L 260 256.496521502 L 265 231.756043396 L 270 338.429831495 L 274 333.525469042 L 279 296.387418652 L 283 239.413252608 L 288 88.2175372088 L 293 58.5180301887 L 297 120.560558067 L 302 175.164542575 L 306 306.633475241 L 311 249.659309197 L 316 351.374068383 L 320 301.838445709 L 325 336.606314564 L 330 331.701952111 L 334 294.563901721 L 339 185.519932086 L 343 227.72634431 L 348 158.354605983 L 353 272.466937452 L 357 294.837234023 L 362 294.891900483 L 366 337.098312708 L 371 354.509580365 L 376 374.40036248 L 380 448.840462641 L 385 376.989209857 L 389 441.511252192 L 394 429.168346369 L 399 421.784469459 L 403 431.757193747 L 408 424.373316837 L 412 364.919636336 L 417 419.523620845 L 422 412.139743935 L 426 382.440236915 L 431 399.851504572 L 435 399.906171033 L 440 367.727149556 L 445 395.05647504 L 449 412.467742698 L 454 357.97309111 L 458 382.822902138 L 463 405.193198709 L 468 427.56349528 L 472 395.384473803 L 477 407.836712547 L 481 422.768465748 L 486 422.823132208 L 491 370.807995078 L 495 385.739748278 L 500 413.069073763 L 504 437.91888479 L 509 415.65792114 L 514 438.028217711 L 518 383.533566124 L 523 455.494151829 L 527 435.712702636 L 532 410.972224529 L 537 408.547376533 L 541 435.876702017 L 546 423.533796194 L 550 408.711375914 L 555 438.520215855 L 560 418.738766662 L 564 443.58857769 L 569 423.807128497 L 573 423.861794957 L 578 389.203259023 L 583 441.327729075 L 587 451.300453362 L 592 446.396090909 L 596 404.299011606 L 601 461.38251057 L 606 392.010772243 L 610 404.463010987 L 615 411.956220818 L 620 429.367488475"/>
		</g>
		<text class="x-axis-label" x="40.0" y="540">
			0
		</text>
		<path class="x-notch" d="M 63.0158730159 525 L 63.0158730159 530"/>
		<text class="x-axis-label" x="86.0317460317" y="540">
			10
		</text>
		<path class="x-notch" d="M 109.047619048 525 L 109.047619048 530"/>
		<text class="x-axis-label" x="132.063492063" y="540">
			20
		</text>
		<path class="x-notch" d="M 155.079365079 525 L 155.079365079 530"/>
		<text class="x-axis-label" x="178.095238095" y="540">
			30
		</text>
		<path class="x-notch" d="M 201.111111111 525 L 201.111111111 530"/>
		<text class="x-axis-label" x="224.126984127" y="540">
			40
		</text>
		<path class="x-notch" d="M 247.142857143 525 L 247.142857143 530"/>
		<text class="x-axis-label" x="270.158730159" y="540">
			50
		</text>
		<path class="x-notch" d="M 293.174603175 525 L 293.174603175 530"/>
		<text class="x-axis-label" x="316.19047619" y="540">
			60
		</text>
		<path class="x-notch" d="M 339.206349206 525 L 339.206349206 530"/>
		<text class="x-axis-label" x="362.222222222" y="540">
			70
		</text>
		<path class="x-notch" d="M 385.238095238 525 L 385.238095238 530"/>
		<text class="x-axis-label" x="408.253968254" y="540">
			80
		</text>
		<path class="x-notch" d="M 431.26984127 525 L 431.26984127 530"/>
		<text class="x-axis-label" x="454.285714286" y="540">
			90
		</text>
		<path class="x-notch" d="M 477.301587302 525 L 477.301587302 530"/>
		<text class="x-axis-label" x="500.317460317" y="540">
			100
		</text>
		<path class="x-notch" d="M 523.333333333 525 L 523.333333333 530"/>
		<text class="x-axis-label" x="546.349206349" y="540">
			110
		</text>
		<path class="x-notch" d="M 569.365079365 525 L 569.365079365 530"/>
		<text class="x-axis-label" x="592.380952381" y="540">
			120
		</text>
		<path class="x-notch" d="M 615.396825397 525 L 615.396825397 530"/>
	</g>
</svg>
