<?xml version="1.0" ?>
<svg height="600" version="1.1" width="800" xmlns="http://www.w3.org/2000/svg" xmlns:svg="http://www.w3.org/2000/svg">
	<style type="text/css">

.x-axis-path, .y-gridline, .x-notch { fill:none; stroke: #a7a9ac; stroke-width:1; }



.y-gridline { stroke-width: 1; }

.y-axis-path, .y-axis-path2, .x-notch-left, .x-notch-right { display: none;}



.x-axis-label, .data-point-label {font-size: 12px; font-weight:normal; font-family: sans-serif; fill: #58595b; text-anchor:middle;}

.y-axis-label {font-size: 12px; font-family: helvetica; fill: #a7a9ac; text-anchor:end;}



.series-1-line { fill: none; stroke: #10b80c; stroke-width:2; }



.series-2-line { fill: none; stroke: #e90f0a; stroke-width: 2;}
</style>
	<rect fill="white" height="600" width="800" x="0" y="0"/>
	<g id="grid" transform="translate(70, 30)">
		<g class="x-axis" id="x_axis">
			<path class="x-axis-path" d="M 0 525 L 660 525"/>
			<path class="x-notch-left" d="M 0 525, L 0 535"/>
			<path class="x-notch-right" d="M 660 525, L 660 535"/>
		</g>
		<g class="y-axis" id="y_axis">
			<path class="y-axis-path" d="M 0 525 L 0 0"/>
			<path class="y-axis-path-2" d="M 660 525 L 660 0"/>
			<path class="y-gridline" d="M 0 525 L 660 525"/>
			<text class="y-axis-label" x="-5" y="525">-2000</text>
			<path class="y-gridline" d="M 0 420 L 660 420"/>
			<text class="y-axis-label" x="-5" y="420"> 0</text>
			<path class="y-gridline" d="M 0 315 L 660 315"/>
			<text class="y-axis-label" x="-5" y="315">2000</text>
			<path class="y-gridline" d="M 0 210 L 660 210"/>
			<text class="y-axis-label" x="-5" y="210">4000</text>
			<path class="y-gridline" d="M 0 105 L 660 105"/>
			<text class="y-axis-label" x="-5" y="105">6000</text>
			<path class="y-gridline" d="M 0 0 L 660 0"/>
			<text class="y-axis-label" x="-5" y="0">8000</text>
		</g>
		<g>
			<path class="series-1-line" d="M 40 422.293420407 L 47 426.109832053 L 54 416.54560721 L 62 419.11163928 L 69 412.666428579 L 76 439.704309542 L 84 443.098521203 L 91 432.011461449 L 98 436.11513834 L 106 441.725664843 L 113 442.197152445 L 120 424.359594494 L 128 432.184790293 L 135 444.711309865 L 142 425.336577247 L 150 440.138886381 L 157 431.207021204 L 164 425.604800004 L 172 452.567926182 L 179 453.113463335 L 186 435.801774741 L 194 479.340246646 L 201 434.740475407 L 208 447.251244756 L 216 440.610919363 L 223 442.332786541 L 230 467.380732721 L 238 412.48901408 L 245 427.78874814 L 252 404.617036595 L 260 437.155036179 L 267 445.838736625 L 274 437.79664146 L 282 445.395457201 L 289 438.243132049 L 296 438.835449713 L 304 438.071367648 L 311 435.106720964 L 318 432.804994078 L 326 448.481087924 L 333 430.056305272 L 341 410.906542245 L 348 411.408354901 L 355 439.320255655 L 363 449.420300704 L 370 418.880541207 L 377 410.295180917 L 385 442.155450793 L 392 416.738744897 L 399 443.9115606 L 407 443.46459868 L 414 425.309450428 L 421 446.36506791 L 429 404.884780968 L 436 426.211443318 L 443 434.368334094 L 451 431.705057333 L 458 434.317634835 L 465 434.350231917 L 473 397.451143919 L 480 433.364392602 L 487 422.188238308 L 495 404.562015427 L 502 414.135720963 L 509 416.760992674 L 517 422.748114041 L 524 388.5 L 531 434.012656466 L 539 431.319524805 L 546 395.626386652 L 553 419.123288567 L 561 417.741186592 L 568 430.735041114 L 575 405.42317998 L 583 409.405556653 L 590 417.185147332 L 597 422.011453818 L 605 417.027957764 L 612 431.422876823 L 620 417.26217297"/>
			<path class="series-2-line" d="M 40 410.596882299 L 47 382.349329032 L 54 424.625158519 L 62 431.051601773 L 69 445.118078158 L 76 415.695135178 L 84 361.589008233 L 91 320.412168127 L 98 385.020402153 L 106 443.751687617 L 113 456.055079434 L 120 459.543048406 L 128 470.67105051 L 135 458.878953218 L 142 450.025330208 L 150 472.907229438 L 157 462.290521859 L 164 390.553549225 L 172 418.724702162 L 179 304.673699875 L 186 157.12409078 L 194 120.648809524 L 201 173.503146425 L 208 95.3015303723 L 216 185.768338076 L 223 163.397733371 L 230 54.6359847911 L 238 131.5858108 L 245 168.572386581 L 252 202.032793224 L 260 162.619037686 L 267 131.433010137 L 274 188.401211032 L 282 166.030606327 L 289 290.583715696 L 296 329.921070902 L 304 351.627580419 L 311 326.906196289 L 318 290.430915033 L 326 291.56810458 L 333 340.896272343 L 341 228.020659769 L 348 258.542592131 L 355 230.295038863 L 363 184.416639906 L 370 290.163513873 L 377 271.319078306 L 385 268.930098716 L 392 331.775248173 L 399 235.355091576 L 407 322.295730141 L 414 214.709371274 L 421 201.74188427 L 429 272.227066859 L 436 239.865649598 L 443 268.036802534 L 451 242.140028691 L 458 379.034730042 L 465 207.389631839 L 473 296.68104983 L 480 234.934889753 L 487 322.463223175 L 495 361.800578381 L 502 421.119558701 L 509 326.462486672 L 517 372.264485298 L 524 345.780016599 L 531 322.234022181 L 539 323.958906585 L 546 454.388964516 L 553 450.236900356 L 561 453.724869328 L 568 460.739007438 L 575 461.288502129 L 583 453.022573975 L 590 425.362715564 L 597 422.973735973 L 605 438.215602071 L 612 409.968048803 L 620 412.868322919"/>
		</g>
		<text class="x-axis-label" x="40.0" y="540">0</text>
		<path class="x-notch" d="M 76.7088607595 525 L 76.7088607595 530"/>
		<text class="x-axis-label" x="113.417721519" y="540">10</text>
		<path class="x-notch" d="M 150.126582278 525 L 150.126582278 530"/>
		<text class="x-axis-label" x="186.835443038" y="540">20</text>
		<path class="x-notch" d="M 223.544303797 525 L 223.544303797 530"/>
		<text class="x-axis-label" x="260.253164557" y="540">30</text>
		<path class="x-notch" d="M 296.962025316 525 L 296.962025316 530"/>
		<text class="x-axis-label" x="333.670886076" y="540">40</text>
		<path class="x-notch" d="M 370.379746835 525 L 370.379746835 530"/>
		<text class="x-axis-label" x="407.088607595" y="540">50</text>
		<path class="x-notch" d="M 443.797468354 525 L 443.797468354 530"/>
		<text class="x-axis-label" x="480.506329114" y="540">60</text>
		<path class="x-notch" d="M 517.215189873 525 L 517.215189873 530"/>
		<text class="x-axis-label" x="553.924050633" y="540">70</text>
		<path class="x-notch" d="M 590.632911392 525 L 590.632911392 530"/>
	</g>
</svg>
