<?xml version="1.0" ?>
<svg height="600" version="1.1" width="800" xmlns="http://www.w3.org/2000/svg" xmlns:svg="http://www.w3.org/2000/svg">
	<style type="text/css">
		

.x-axis-path, .y-gridline, .x-notch { fill:none; stroke: #a7a9ac; stroke-width:1; }



.y-gridline { stroke-width: 1; }

.y-axis-path, .y-axis-path2, .x-notch-left, .x-notch-right { display: none;}



.x-axis-label, .data-point-label {font-size: 12px; font-weight:normal; font-family: sans-serif; fill: #58595b; text-anchor:middle;}

.y-axis-label {font-size: 12px; font-family: helvetica; fill: #a7a9ac; text-anchor:end;}



.series-1-line { fill: none; stroke: #10b80c; stroke-width:2; }



.series-2-line { fill: none; stroke: #e90f0a; stroke-width: 2;}

	</style>
	<rect fill="white" height="600" width="800" x="0" y="0"/>
	<g id="grid" transform="translate(70, 30)">
		<g class="x-axis" id="x_axis">
			<path class="x-axis-path" d="M 0 525 L 660 525"/>
			<path class="x-notch-left" d="M 0 525, L 0 535"/>
			<path class="x-notch-right" d="M 660 525, L 660 535"/>
		</g>
		<g class="y-axis" id="y_axis">
			<path class="y-axis-path" d="M 0 525 L 0 0"/>
			<path class="y-axis-path-2" d="M 660 525 L 660 0"/>
			<path class="y-gridline" d="M 0 525 L 660 525"/>
			<text class="y-axis-label" x="-5" y="525">
				-300
			</text>
			<path class="y-gridline" d="M 0 438 L 660 438"/>
			<text class="y-axis-label" x="-5" y="438">
				 0
			</text>
			<path class="y-gridline" d="M 0 351 L 660 351"/>
			<text class="y-axis-label" x="-5" y="351">
				300
			</text>
			<path class="y-gridline" d="M 0 264 L 660 264"/>
			<text class="y-axis-label" x="-5" y="264">
				600
			</text>
			<path class="y-gridline" d="M 0 177 L 660 177"/>
			<text class="y-axis-label" x="-5" y="177">
				900
			</text>
			<path class="y-gridline" d="M 0 90 L 660 90"/>
			<text class="y-axis-label" x="-5" y="90">
				1200
			</text>
			<path class="y-gridline" d="M 0 3 L 660 3"/>
			<text class="y-axis-label" x="-5" y="3">
				1500
			</text>
		</g>
		<g>
			<path class="series-1-line" d="M 40 435.44186 L 44 429.691954271 L 49 440.768881875 L 53 437.030542813 L 58 444.428037083 L 62 431.588531354 L 67 443.570325625 L 71 432.016953229 L 76 435.540530833 L 81 438.069175104 L 85 430.808669375 L 90 447.614163646 L 94 435.48469125 L 99 441.708052188 L 103 429.690813125 L 108 435.637440729 L 113 443.304201667 L 117 442.183395937 L 122 440.112806875 L 126 442.192867813 L 131 434.326395417 L 135 433.998573021 L 140 432.705917292 L 145 436.693128229 L 149 446.707689167 L 154 433.539066771 L 158 440.622144375 L 163 445.656321979 L 167 444.498182917 L 172 436.063427187 L 177 444.141204792 L 181 431.952115729 L 186 431.556743333 L 190 444.039737604 L 195 442.118365208 L 199 449.036592813 L 204 438.32100375 L 208 451.948031354 L 213 435.436792292 L 218 435.871269896 L 222 433.651230833 L 227 440.457808437 L 231 431.073386042 L 236 431.246296979 L 240 434.71714125 L 245 452.494818854 L 250 433.553063125 L 254 448.675640729 L 259 435.791101667 L 263 472.113995938 L 268 438.910206875 L 272 457.563584479 L 277 457.303662083 L 282 422.065789688 L 286 450.253750625 L 291 446.882794896 L 295 438.762339167 L 300 454.109383438 L 304 444.231577708 L 309 430.763938646 L 314 429.755482917 L 318 434.371060521 L 323 435.456538125 L 327 447.116565729 L 332 432.42241 L 336 436.969970938 L 341 440.089298542 L 345 428.842876146 L 350 433.443287083 L 355 443.465548021 L 359 429.982858958 L 364 433.544236563 L 368 417.4060975 L 373 423.210858438 L 377 439.455886042 L 382 438.312563646 L 387 441.058207917 L 391 438.771085521 L 396 445.323563125 L 400 435.318124063 L 405 426.673718333 L 409 432.942229271 L 414 437.407890208 L 419 435.913401146 L 423 436.355695417 L 428 439.288473021 L 432 439.087583958 L 437 437.503261563 L 441 433.996739167 L 446 445.873766771 L 451 435.636744375 L 455 444.911288646 L 460 435.040599583 L 464 438.504327187 L 469 441.698904792 L 473 438.865665729 L 478 440.085543333 L 482 442.247970937 L 487 425.766365208 L 492 437.381709479 L 496 436.612537083 L 501 440.330481354 L 505 429.861525625 L 510 440.355119896 L 514 434.148930833 L 519 438.637225104 L 524 439.371186042 L 528 438.706546979 L 533 441.526857917 L 537 435.799585521 L 542 434.948046458 L 546 436.422607396 L 551 439.990985 L 556 434.218679271 L 560 439.163023542 L 565 436.142884479 L 569 438.694045417 L 574 433.101289687 L 578 438.120533958 L 583 438.420494896 L 588 437.958155833 L 592 441.795800104 L 597 437.855511042 L 601 435.134505312 L 606 438.403632917 L 610 434.478277187 L 615 444.007271458 L 620 435.684399063"/>
			<path class="series-2-line" d="M 40 435.516666667 L 44 442.917708333 L 49 441.56875 L 53 430.886458333 L 58 434.7875 L 62 456.188541667 L 67 450.172916667 L 71 452.907291667 L 76 458.266666667 L 81 436.792708333 L 85 452.360416667 L 90 444.594791667 L 94 423.4125 L 99 428.480208333 L 103 412.547916667 L 108 415.282291667 L 113 422.683333333 L 117 413.167708333 L 122 403.94375 L 126 395.594791667 L 131 391.9125 L 135 406.605208333 L 140 412.547916667 L 145 413.823958333 L 149 373.391666667 L 154 389.251041667 L 158 362.527083333 L 163 359.719791667 L 167 356.0375 L 172 361.396875 L 177 338.75625 L 181 338.282291667 L 186 329.35 L 190 336.167708333 L 195 292.235416667 L 199 234.303125 L 204 254.245833333 L 208 241.813541667 L 213 290.047916667 L 218 253.990625 L 222 256.725 L 227 250.417708333 L 231 267.44375 L 236 249.469791667 L 240 217.495833333 L 245 205.938541667 L 250 257.964583333 L 254 228.323958333 L 259 233.975 L 263 47.709375 L 268 72.31875 L 272 129.011458333 L 277 201.454166667 L 282 236.271875 L 286 227.339583333 L 291 307.365625 L 295 331.975 L 300 312.834375 L 304 349.985416667 L 309 378.386458333 L 314 385.495833333 L 318 402.521875 L 323 401.464583333 L 327 377.365625 L 332 403.725 L 336 351.626041667 L 341 317.610416667 L 345 352.136458333 L 350 348.745833333 L 355 329.896875 L 359 349.25625 L 364 394.282291667 L 368 361.433333333 L 373 386.334375 L 377 420.56875 L 382 403.178125 L 387 393.370833333 L 391 417.980208333 L 396 428.589583333 L 400 417.323958333 L 405 398.475 L 409 430.667708333 L 414 414.152083333 L 419 428.844791667 L 423 425.745833333 L 428 432.271875 L 432 427.13125 L 437 433.073958333 L 441 420.35 L 446 407.917708333 L 451 421.44375 L 455 416.886458333 L 460 418.745833333 L 464 422.063541667 L 469 433.25625 L 473 440.657291667 L 478 418.6 L 482 420.167708333 L 487 440.985416667 L 492 435.261458333 L 496 439.1625 L 501 436.938541667 L 505 441.13125 L 510 439.782291667 L 514 438.725 L 519 441.459375 L 524 438.360416667 L 528 425.928125 L 533 404.454166667 L 537 431.105208333 L 542 425.089583333 L 546 442.990625 L 551 441.35 L 556 452.251041667 L 560 440.69375 L 565 454.511458333 L 569 440.9125 L 574 457.938541667 L 578 457.464583333 L 583 431.032291667 L 588 455.35 L 592 457.209375 L 597 443.902083333 L 601 456.553125 L 606 444.704166667 L 610 429.063541667 L 615 441.714583333 L 620 418.198958333"/>
		</g>
		<text class="x-axis-label" x="40.0" y="540">
			0
		</text>
		<path class="x-notch" d="M 62.8346456693 525 L 62.8346456693 530"/>
		<text class="x-axis-label" x="85.6692913386" y="540">
			10
		</text>
		<path class="x-notch" d="M 108.503937008 525 L 108.503937008 530"/>
		<text class="x-axis-label" x="131.338582677" y="540">
			20
		</text>
		<path class="x-notch" d="M 154.173228346 525 L 154.173228346 530"/>
		<text class="x-axis-label" x="177.007874016" y="540">
			30
		</text>
		<path class="x-notch" d="M 199.842519685 525 L 199.842519685 530"/>
		<text class="x-axis-label" x="222.677165354" y="540">
			40
		</text>
		<path class="x-notch" d="M 245.511811024 525 L 245.511811024 530"/>
		<text class="x-axis-label" x="268.346456693" y="540">
			50
		</text>
		<path class="x-notch" d="M 291.181102362 525 L 291.181102362 530"/>
		<text class="x-axis-label" x="314.015748031" y="540">
			60
		</text>
		<path class="x-notch" d="M 336.850393701 525 L 336.850393701 530"/>
		<text class="x-axis-label" x="359.68503937" y="540">
			70
		</text>
		<path class="x-notch" d="M 382.519685039 525 L 382.519685039 530"/>
		<text class="x-axis-label" x="405.354330709" y="540">
			80
		</text>
		<path class="x-notch" d="M 428.188976378 525 L 428.188976378 530"/>
		<text class="x-axis-label" x="451.023622047" y="540">
			90
		</text>
		<path class="x-notch" d="M 473.858267717 525 L 473.858267717 530"/>
		<text class="x-axis-label" x="496.692913386" y="540">
			100
		</text>
		<path class="x-notch" d="M 519.527559055 525 L 519.527559055 530"/>
		<text class="x-axis-label" x="542.362204724" y="540">
			110
		</text>
		<path class="x-notch" d="M 565.196850394 525 L 565.196850394 530"/>
		<text class="x-axis-label" x="588.031496063" y="540">
			120
		</text>
		<path class="x-notch" d="M 610.866141732 525 L 610.866141732 530"/>
	</g>
</svg>
