<?xml version="1.0" ?>
<svg height="600" version="1.1" width="800" xmlns="http://www.w3.org/2000/svg" xmlns:svg="http://www.w3.org/2000/svg">
	<style type="text/css">
		

.x-axis-path, .y-gridline, .x-notch { fill:none; stroke: #a7a9ac; stroke-width:1; }



.y-gridline { stroke-width: 1; }

.y-axis-path, .y-axis-path2, .x-notch-left, .x-notch-right { display: none;}



.x-axis-label, .data-point-label {font-size: 12px; font-weight:normal; font-family: sans-serif; fill: #58595b; text-anchor:middle;}

.y-axis-label {font-size: 12px; font-family: helvetica; fill: #a7a9ac; text-anchor:end;}



.series-1-line { fill: none; stroke: #10b80c; stroke-width:2; }



.series-2-line { fill: none; stroke: #e90f0a; stroke-width: 2;}

	</style>
	<rect fill="white" height="600" width="800" x="0" y="0"/>
	<g id="grid" transform="translate(70, 30)">
		<g class="x-axis" id="x_axis">
			<path class="x-axis-path" d="M 0 525 L 660 525"/>
			<path class="x-notch-left" d="M 0 525, L 0 535"/>
			<path class="x-notch-right" d="M 660 525, L 660 535"/>
		</g>
		<g class="y-axis" id="y_axis">
			<path class="y-axis-path" d="M 0 525 L 0 0"/>
			<path class="y-axis-path-2" d="M 660 525 L 660 0"/>
			<path class="y-gridline" d="M 0 525 L 660 525"/>
			<text class="y-axis-label" x="-5" y="525">
				-200
			</text>
			<path class="y-gridline" d="M 0 420 L 660 420"/>
			<text class="y-axis-label" x="-5" y="420">
				 0
			</text>
			<path class="y-gridline" d="M 0 315 L 660 315"/>
			<text class="y-axis-label" x="-5" y="315">
				200
			</text>
			<path class="y-gridline" d="M 0 210 L 660 210"/>
			<text class="y-axis-label" x="-5" y="210">
				400
			</text>
			<path class="y-gridline" d="M 0 105 L 660 105"/>
			<text class="y-axis-label" x="-5" y="105">
				600
			</text>
			<path class="y-gridline" d="M 0 0 L 660 0"/>
			<text class="y-axis-label" x="-5" y="0">
				800
			</text>
		</g>
		<g>
			<path class="series-1-line" d="M 40 421.74741 L 45 418.9216848 L 51 425.2500696 L 56 418.4129244 L 62 415.1432592 L 67 418.456254 L 73 420.5308788 L 79 417.6915036 L 84 410.4509484 L 90 418.2060732 L 95 422.918928 L 101 406.4705028 L 106 418.3176876 L 112 432.0095124 L 118 407.3494572 L 123 422.037312 L 129 411.3907668 L 134 406.2363516 L 140 414.6376464 L 145 403.8564912 L 151 416.363286 L 157 416.7820608 L 162 425.3314056 L 168 433.3826304 L 173 432.3744552 L 179 425.05284 L 185 425.0272548 L 190 416.9653896 L 196 421.3279644 L 201 408.5946492 L 207 415.784454 L 212 427.2952188 L 218 411.4923336 L 224 444.4470384 L 229 423.2601732 L 235 436.049418 L 240 422.9933328 L 246 445.8921876 L 251 421.7436924 L 257 429.3770172 L 263 447.941682 L 268 424.3322568 L 274 429.3947616 L 279 432.7350564 L 285 428.2665012 L 290 421.227966 L 296 439.7655408 L 302 390.1219956 L 307 410.4502404 L 313 388.6707552 L 318 387.50256 L 324 418.2220248 L 330 442.4268696 L 335 432.1702944 L 341 422.8963092 L 346 429.601644 L 352 412.8705588 L 357 398.5488036 L 363 448.0483584 L 369 425.4215232 L 374 410.790228 L 380 423.2039928 L 385 437.2458876 L 391 402.6249024 L 396 435.0411672 L 402 439.712862 L 408 406.3029468 L 413 425.1091116 L 419 420.2661264 L 424 414.1425612 L 430 434.093646 L 435 420.4050408 L 441 415.0080756 L 447 428.8481604 L 452 420.7188852 L 458 417.36795 L 463 414.3811548 L 469 423.2404596 L 475 421.0474644 L 480 404.4106692 L 486 406.579374 L 491 417.8345688 L 497 425.3204736 L 502 427.4757384 L 508 408.4155432 L 514 409.359318 L 519 422.8762128 L 525 413.3466576 L 530 414.0346524 L 536 421.6282872 L 541 417.752562 L 547 410.9561568 L 553 418.4691516 L 558 419.5607664 L 564 419.8044012 L 569 413.263356 L 575 416.6170908 L 580 417.1297356 L 586 415.1387604 L 592 421.0364352 L 597 423.93195 L 603 423.0044148 L 608 407.2290396 L 614 430.1148744 L 620 416.5066992"/>
			<path class="series-2-line" d="M 40 429.975 L 45 411.768 L 51 419.286 L 56 412.629 L 62 422.772 L 67 429.765 L 73 445.683 L 79 409.101 L 84 444.969 L 90 434.637 L 95 427.98 L 101 446.523 L 106 412.041 L 112 417.459 L 118 427.077 L 123 420.42 L 129 434.763 L 134 431.781 L 140 423.024 L 145 437.892 L 151 402.885 L 157 410.928 L 162 399.546 L 168 383.964 L 173 389.382 L 179 396.9 L 185 392.343 L 190 412.986 L 196 379.029 L 201 370.797 L 207 366.765 L 212 343.833 L 218 302.526 L 224 251.244 L 229 271.887 L 235 213.255 L 240 234.948 L 246 175.791 L 251 187.509 L 257 114.177 L 263 96.495 L 268 167.538 L 274 126.756 L 279 170.499 L 285 101.367 L 290 146.685 L 296 112.728 L 302 232.071 L 307 225.939 L 313 216.132 L 318 369.6 L 324 257.418 L 330 219.786 L 335 193.704 L 341 157.647 L 346 167.79 L 352 189.483 L 357 183.351 L 363 192.444 L 369 253.512 L 374 254.73 L 380 336.798 L 385 349.041 L 391 417.984 L 396 368.802 L 402 286.545 L 408 309.813 L 413 213.381 L 419 387.324 L 424 392.217 L 430 362.985 L 435 401.478 L 441 374.871 L 447 398.139 L 452 408.807 L 458 370.125 L 463 397.593 L 469 419.811 L 475 405.279 L 480 432.747 L 486 433.965 L 491 430.458 L 497 421.176 L 502 424.494 L 508 420.462 L 514 428.505 L 519 440.748 L 525 424.116 L 530 431.109 L 536 425.502 L 541 407.295 L 547 435.288 L 553 442.281 L 558 427.224 L 564 421.617 L 569 409.71 L 575 451.353 L 580 424.221 L 586 419.139 L 592 432.432 L 597 422.625 L 603 415.443 L 608 431.361 L 614 415.254 L 620 420.672"/>
		</g>
		<text class="x-axis-label" x="40.0" y="540">
			0
		</text>
		<path class="x-notch" d="M 67.8846153846 525 L 67.8846153846 530"/>
		<text class="x-axis-label" x="95.7692307692" y="540">
			10
		</text>
		<path class="x-notch" d="M 123.653846154 525 L 123.653846154 530"/>
		<text class="x-axis-label" x="151.538461538" y="540">
			20
		</text>
		<path class="x-notch" d="M 179.423076923 525 L 179.423076923 530"/>
		<text class="x-axis-label" x="207.307692308" y="540">
			30
		</text>
		<path class="x-notch" d="M 235.192307692 525 L 235.192307692 530"/>
		<text class="x-axis-label" x="263.076923077" y="540">
			40
		</text>
		<path class="x-notch" d="M 290.961538462 525 L 290.961538462 530"/>
		<text class="x-axis-label" x="318.846153846" y="540">
			50
		</text>
		<path class="x-notch" d="M 346.730769231 525 L 346.730769231 530"/>
		<text class="x-axis-label" x="374.615384615" y="540">
			60
		</text>
		<path class="x-notch" d="M 402.5 525 L 402.5 530"/>
		<text class="x-axis-label" x="430.384615385" y="540">
			70
		</text>
		<path class="x-notch" d="M 458.269230769 525 L 458.269230769 530"/>
		<text class="x-axis-label" x="486.153846154" y="540">
			80
		</text>
		<path class="x-notch" d="M 514.038461538 525 L 514.038461538 530"/>
		<text class="x-axis-label" x="541.923076923" y="540">
			90
		</text>
		<path class="x-notch" d="M 569.807692308 525 L 569.807692308 530"/>
		<text class="x-axis-label" x="597.692307692" y="540">
			100
		</text>
		<path class="x-notch" d="M 625.576923077 525 L 625.576923077 530"/>
	</g>
</svg>
