<?xml version="1.0" ?>
<svg height="600" version="1.1" width="800" xmlns="http://www.w3.org/2000/svg" xmlns:svg="http://www.w3.org/2000/svg">
	<style type="text/css">

.x-axis-path, .y-gridline, .x-notch { fill:none; stroke: #a7a9ac; stroke-width:1; }



.y-gridline { stroke-width: 1; }

.y-axis-path, .y-axis-path2, .x-notch-left, .x-notch-right { display: none;}



.x-axis-label, .data-point-label {font-size: 12px; font-weight:normal; font-family: sans-serif; fill: #58595b; text-anchor:middle;}

.y-axis-label {font-size: 12px; font-family: helvetica; fill: #a7a9ac; text-anchor:end;}



.series-1-line { fill: none; stroke: #10b80c; stroke-width:2; }



.series-2-line { fill: none; stroke: #e90f0a; stroke-width: 2;}
</style>
	<rect fill="white" height="600" width="800" x="0" y="0"/>
	<g id="grid" transform="translate(70, 30)">
		<g class="x-axis" id="x_axis">
			<path class="x-axis-path" d="M 0 525 L 660 525"/>
			<path class="x-notch-left" d="M 0 525, L 0 535"/>
			<path class="x-notch-right" d="M 660 525, L 660 535"/>
		</g>
		<g class="y-axis" id="y_axis">
			<path class="y-axis-path" d="M 0 525 L 0 0"/>
			<path class="y-axis-path-2" d="M 660 525 L 660 0"/>
			<path class="y-gridline" d="M 0 525 L 660 525"/>
			<text class="y-axis-label" x="-5" y="525">-1500</text>
			<path class="y-gridline" d="M 0 438 L 660 438"/>
			<text class="y-axis-label" x="-5" y="438">-1000</text>
			<path class="y-gridline" d="M 0 351 L 660 351"/>
			<text class="y-axis-label" x="-5" y="351">-500</text>
			<path class="y-gridline" d="M 0 264 L 660 264"/>
			<text class="y-axis-label" x="-5" y="264"> 0</text>
			<path class="y-gridline" d="M 0 177 L 660 177"/>
			<text class="y-axis-label" x="-5" y="177">500</text>
			<path class="y-gridline" d="M 0 90 L 660 90"/>
			<text class="y-axis-label" x="-5" y="90">1000</text>
			<path class="y-gridline" d="M 0 3 L 660 3"/>
			<text class="y-axis-label" x="-5" y="3">1500</text>
		</g>
		<g>
			<path class="series-1-line" d="M 40 248.388323839 L 46 204.052456689 L 52 288.111704799 L 59 272.03060445 L 65 299.11275462 L 71 235.498381857 L 78 317.918719555 L 84 213.404643416 L 90 265.150812389 L 97 271.236401529 L 103 258.199339836 L 110 250.70364611 L 116 220.104916605 L 122 195.360482242 L 129 245.935305141 L 135 189.969992711 L 141 259.277829496 L 148 227.976535869 L 154 238.667146688 L 161 300.090923355 L 167 273.395869021 L 173 312.41917403 L 180 252.863113603 L 186 227.727824676 L 192 281.503758625 L 199 253.480285822 L 205 191.660678251 L 212 263.23206218 L 218 275.171946462 L 224 247.225183434 L 231 205.543717992 L 237 251.357664433 L 243 184.46425323 L 250 228.171724922 L 256 244.793340657 L 263 309.574083153 L 269 191.16701459 L 275 279.362502425 L 282 285.838946129 L 288 278.187397625 L 294 193.655608836 L 301 299.725691656 L 307 199.504927637 L 314 244.226673009 L 320 275.834699852 L 326 198.639044224 L 333 220.569463374 L 339 233.211911778 L 345 225.012436316 L 352 277.305314632 L 358 192.772308228 L 365 224.381552687 L 371 256.615433878 L 377 306.487692656 L 384 282.679604583 L 390 240.13972024 L 396 245.913599822 L 403 233.890811808 L 409 237.712853804 L 416 248.794319186 L 422 255.817472232 L 428 239.580517104 L 435 264.55497491 L 441 222.482654904 L 447 210.148157332 L 454 262.128108474 L 460 182.668905701 L 467 176.812122388 L 473 254.471583628 L 479 278.120058195 L 486 234.8751745 L 492 262.815743571 L 498 163.766325627 L 505 208.019289046 L 511 268.975501375 L 518 213.010188946 L 524 271.078217399 L 530 307.604193095 L 537 300.108499369 L 543 246.797588647 L 549 239.456532086 L 556 157.5 L 562 214.242045215 L 569 272.153001273 L 575 237.573886822 L 581 277.378900958 L 588 237.023418754 L 594 224.064284449 L 600 258.013785827 L 607 269.718670326 L 613 265.891651988 L 620 296.017840814"/>
			<path class="series-2-line" d="M 40 279.546616471 L 46 299.001993965 L 52 233.224289104 L 59 237.459473321 L 65 275.179082748 L 71 334.206962764 L 78 286.693489836 L 84 315.280983297 L 90 304.295974236 L 97 293.310965174 L 103 297.546149391 L 110 268.296908396 L 116 281.664208579 L 122 331.559972629 L 129 265.782267768 L 135 318.722070473 L 141 298.604945445 L 148 302.840129661 L 154 285.767043289 L 161 189.548951873 L 167 306.413566344 L 173 261.944132072 L 180 281.399509566 L 186 273.45853916 L 192 302.046032621 L 199 269.752752971 L 205 286.164091809 L 212 269.091005437 L 218 294.634460242 L 224 131.447518404 L 231 211.783669009 L 237 176.446350703 L 243 153.28518702 L 250 209.26902838 L 256 97.8307436862 L 263 71.6255413473 L 269 130.653421363 L 275 13.1270593583 L 282 59.9787847522 L 288 55.081853002 L 294 171.946467473 L 301 115.300878579 L 307 186.504913217 L 314 202.916252056 L 320 128.006431228 L 326 168.770079311 L 333 179.093340838 L 339 213.76891161 L 345 56.6700470831 L 352 79.1694632328 L 358 77.3165701381 L 365 121.124256876 L 371 186.240214204 L 377 111.330393376 L 384 133.829809526 L 390 229.386153408 L 396 267.105762835 L 403 231.76844453 L 409 217.739396813 L 416 258.503044896 L 422 338.839195501 L 428 367.426688961 L 435 377.749950489 L 441 400.249366638 L 447 413.616666821 L 454 366.103193894 L 460 403.822803321 L 467 356.309330393 L 473 339.236244021 L 479 437.836626559 L 486 286.825839343 L 492 309.325255493 L 498 435.32198593 L 505 406.072744936 L 511 382.911581252 L 518 435.851383957 L 524 388.33791103 L 530 377.352901968 L 537 348.103660974 L 543 461.92423679 L 549 289.605178985 L 556 360.809213623 L 562 401.572861706 L 569 259.694190457 L 575 300.457838539 L 581 371.661873178 L 588 363.720902772 L 594 355.779932366 L 600 271.737995572 L 607 215.092406678 L 613 207.151436272 L 620 244.871045699"/>
		</g>
		<text class="x-axis-label" x="40.0" y="540">0</text>
		<path class="x-notch" d="M 71.8681318681 525 L 71.8681318681 530"/>
		<text class="x-axis-label" x="103.736263736" y="540">10</text>
		<path class="x-notch" d="M 135.604395604 525 L 135.604395604 530"/>
		<text class="x-axis-label" x="167.472527473" y="540">20</text>
		<path class="x-notch" d="M 199.340659341 525 L 199.340659341 530"/>
		<text class="x-axis-label" x="231.208791209" y="540">30</text>
		<path class="x-notch" d="M 263.076923077 525 L 263.076923077 530"/>
		<text class="x-axis-label" x="294.945054945" y="540">40</text>
		<path class="x-notch" d="M 326.813186813 525 L 326.813186813 530"/>
		<text class="x-axis-label" x="358.681318681" y="540">50</text>
		<path class="x-notch" d="M 390.549450549 525 L 390.549450549 530"/>
		<text class="x-axis-label" x="422.417582418" y="540">60</text>
		<path class="x-notch" d="M 454.285714286 525 L 454.285714286 530"/>
		<text class="x-axis-label" x="486.153846154" y="540">70</text>
		<path class="x-notch" d="M 518.021978022 525 L 518.021978022 530"/>
		<text class="x-axis-label" x="549.89010989" y="540">80</text>
		<path class="x-notch" d="M 581.758241758 525 L 581.758241758 530"/>
		<text class="x-axis-label" x="613.626373626" y="540">90</text>
		<path class="x-notch" d="M 645.494505495 525 L 645.494505495 530"/>
	</g>
</svg>
