<?xml version="1.0" ?>
<svg height="600" version="1.1" width="800" xmlns="http://www.w3.org/2000/svg" xmlns:svg="http://www.w3.org/2000/svg">
	<style type="text/css">

.x-axis-path, .y-gridline, .x-notch { fill:none; stroke: #a7a9ac; stroke-width:1; }



.y-gridline { stroke-width: 1; }

.y-axis-path, .y-axis-path2, .x-notch-left, .x-notch-right { display: none;}



.x-axis-label, .data-point-label {font-size: 12px; font-weight:normal; font-family: sans-serif; fill: #58595b; text-anchor:middle;}

.y-axis-label {font-size: 12px; font-family: helvetica; fill: #a7a9ac; text-anchor:end;}



.series-1-line { fill: none; stroke: #10b80c; stroke-width:2; }



.series-2-line { fill: none; stroke: #e90f0a; stroke-width: 2;}
</style>
	<rect fill="white" height="600" width="800" x="0" y="0"/>
	<g id="grid" transform="translate(70, 30)">
		<g class="x-axis" id="x_axis">
			<path class="x-axis-path" d="M 0 525 L 660 525"/>
			<path class="x-notch-left" d="M 0 525, L 0 535"/>
			<path class="x-notch-right" d="M 660 525, L 660 535"/>
		</g>
		<g class="y-axis" id="y_axis">
			<path class="y-axis-path" d="M 0 525 L 0 0"/>
			<path class="y-axis-path-2" d="M 660 525 L 660 0"/>
			<path class="y-gridline" d="M 0 525 L 660 525"/>
			<text class="y-axis-label" x="-5" y="525">-1000</text>
			<path class="y-gridline" d="M 0 450 L 660 450"/>
			<text class="y-axis-label" x="-5" y="450">-500</text>
			<path class="y-gridline" d="M 0 375 L 660 375"/>
			<text class="y-axis-label" x="-5" y="375"> 0</text>
			<path class="y-gridline" d="M 0 300 L 660 300"/>
			<text class="y-axis-label" x="-5" y="300">500</text>
			<path class="y-gridline" d="M 0 225 L 660 225"/>
			<text class="y-axis-label" x="-5" y="225">1000</text>
			<path class="y-gridline" d="M 0 150 L 660 150"/>
			<text class="y-axis-label" x="-5" y="150">1500</text>
			<path class="y-gridline" d="M 0 75 L 660 75"/>
			<text class="y-axis-label" x="-5" y="75">2000</text>
			<path class="y-gridline" d="M 0 0 L 660 0"/>
			<text class="y-axis-label" x="-5" y="0">2500</text>
		</g>
		<g>
			<path class="series-1-line" d="M 40 366.800417865 L 46 338.223668425 L 52 405.83427156 L 58 365.100867106 L 64 395.44278168 L 70 396.769022632 L 77 338.553678281 L 83 441.92550046 L 89 423.996552246 L 95 362.32053407 L 101 425.228773611 L 107 385.115521907 L 114 376.769871651 L 120 349.611998479 L 126 455.734364214 L 132 339.309101849 L 138 410.11459906 L 144 369.824160856 L 151 364.229054156 L 157 373.541146028 L 163 406.013451408 L 169 339.367905619 L 175 427.033805708 L 181 377.160069546 L 188 349.114879605 L 194 382.740281505 L 200 352.831864777 L 206 326.028364606 L 212 404.732503756 L 218 394.079276193 L 225 379.432431036 L 231 303.026400788 L 237 389.449226839 L 243 397.874001942 L 249 352.348256374 L 255 363.346388533 L 262 412.234746273 L 268 420.037984356 L 274 344.785050627 L 280 392.608905098 L 286 374.945736634 L 292 318.593619071 L 299 425.957674575 L 305 329.054765394 L 311 370.133074444 L 317 408.019257958 L 323 375.005924674 L 330 358.763016748 L 336 350.150202472 L 342 356.357377787 L 348 392.290356994 L 354 339.931857025 L 360 285.0 L 367 370.181136282 L 373 389.87524963 L 379 341.776147006 L 385 422.430721924 L 391 345.670318677 L 397 387.105769266 L 404 328.801831665 L 410 365.710720891 L 416 323.734242399 L 422 368.186016294 L 428 339.696475834 L 434 362.496890008 L 441 357.167563058 L 447 327.969276599 L 453 372.598236994 L 459 351.651581205 L 465 435.235270449 L 471 414.37720791 L 478 362.64024496 L 484 413.746202487 L 490 374.077301302 L 496 337.247536923 L 502 395.80778587 L 508 374.683943581 L 515 376.808908051 L 521 311.583622799 L 527 341.836944123 L 533 382.916637443 L 539 385.751732183 L 545 395.862547573 L 552 310.849129387 L 558 377.928173023 L 564 350.238740352 L 570 351.209224034 L 576 372.32359792 L 582 374.89152864 L 589 304.608122524 L 595 339.210818712 L 601 387.477639433 L 607 421.724578352 L 613 369.277485133 L 620 362.706468415"/>
			<path class="series-2-line" d="M 40 331.395509799 L 46 414.320540287 L 52 338.054574802 L 58 427.900952941 L 64 362.017008933 L 70 368.80721526 L 77 351.372704808 L 83 365.084258786 L 89 406.481203368 L 95 389.046692917 L 101 371.612182466 L 107 364.559693491 L 114 395.574616596 L 120 391.982801447 L 126 381.469638646 L 132 402.102540275 L 138 367.364660697 L 144 387.997562326 L 151 394.787768653 L 157 370.43191055 L 163 377.222116877 L 169 325.180868171 L 175 359.656465102 L 181 390.671388208 L 188 390.540246884 L 194 352.341693479 L 200 372.974595108 L 206 314.011998751 L 212 396.937029239 L 218 382.963192613 L 225 317.079248605 L 231 303.105411979 L 237 261.446184749 L 243 240.551000472 L 249 268.105249752 L 255 250.670739301 L 262 260.921619454 L 268 201.959023096 L 274 142.996426739 L 280 184.393371321 L 286 184.262229997 L 292 146.063676593 L 299 76.7190587589 L 305 156.183415421 L 311 34.9286902051 L 317 142.078437472 L 323 242.306837087 L 330 290.62512932 L 336 228.201859137 L 342 283.441499021 L 348 290.231705348 L 354 303.943259326 L 360 314.194139479 L 367 331.366367282 L 373 307.01050918 L 379 331.104084635 L 385 244.456097673 L 391 285.853042255 L 397 379.16009422 L 404 375.56827907 L 410 365.05511627 L 416 378.766670248 L 422 406.320919528 L 428 340.43697552 L 434 371.451898625 L 441 336.714019046 L 447 381.571637454 L 453 381.44049613 L 459 353.623964202 L 465 350.032149053 L 471 308.372921823 L 478 360.151887881 L 484 294.267943873 L 490 352.968257583 L 496 373.601159212 L 502 359.627322586 L 508 359.496181262 L 515 376.668409065 L 521 373.076593916 L 527 321.03534521 L 533 334.746899188 L 539 376.14384377 L 545 362.170007144 L 552 341.274822867 L 558 348.065029194 L 564 427.529385856 L 570 354.724094197 L 576 378.817669652 L 582 326.776420945 L 589 302.420562843 L 595 381.884919505 L 601 354.068387578 L 607 353.937246254 L 613 381.491495534 L 620 405.585070988"/>
		</g>
		<text class="x-axis-label" x="40.0" y="540">0</text>
		<path class="x-notch" d="M 70.8510638298 525 L 70.8510638298 530"/>
		<text class="x-axis-label" x="101.70212766" y="540">10</text>
		<path class="x-notch" d="M 132.553191489 525 L 132.553191489 530"/>
		<text class="x-axis-label" x="163.404255319" y="540">20</text>
		<path class="x-notch" d="M 194.255319149 525 L 194.255319149 530"/>
		<text class="x-axis-label" x="225.106382979" y="540">30</text>
		<path class="x-notch" d="M 255.957446809 525 L 255.957446809 530"/>
		<text class="x-axis-label" x="286.808510638" y="540">40</text>
		<path class="x-notch" d="M 317.659574468 525 L 317.659574468 530"/>
		<text class="x-axis-label" x="348.510638298" y="540">50</text>
		<path class="x-notch" d="M 379.361702128 525 L 379.361702128 530"/>
		<text class="x-axis-label" x="410.212765957" y="540">60</text>
		<path class="x-notch" d="M 441.063829787 525 L 441.063829787 530"/>
		<text class="x-axis-label" x="471.914893617" y="540">70</text>
		<path class="x-notch" d="M 502.765957447 525 L 502.765957447 530"/>
		<text class="x-axis-label" x="533.617021277" y="540">80</text>
		<path class="x-notch" d="M 564.468085106 525 L 564.468085106 530"/>
		<text class="x-axis-label" x="595.319148936" y="540">90</text>
		<path class="x-notch" d="M 626.170212766 525 L 626.170212766 530"/>
	</g>
</svg>
